<svg xmlns="http://www.w3.org/2000/svg" width="800" height="800" viewBox="0 0 800 800"><defs><filter id="a" x="-1.037" width="3.074" y="-1.117" height="3.233" color-interpolation-filters="sRGB"><feGaussianBlur stdDeviation="307.525"/></filter><filter id="ab" color-interpolation-filters="sRGB"><feColorMatrix values="0.21 0.72 0.072 0 0 0.21 0.72 0.072 0 0 0.21 0.72 0.072 0 0 0 0 0 1 0"/></filter><filter id="aa" color-interpolation-filters="sRGB"><feColorMatrix values="0.21 0.72 0.072 0 0 0.21 0.72 0.072 0 0 0.21 0.72 0.072 0 0 0 0 0 1 0"/></filter><filter id="Z" color-interpolation-filters="sRGB"><feColorMatrix values="0.21 0.72 0.072 0 0 0.21 0.72 0.072 0 0 0.21 0.72 0.072 0 0 0 0 0 1 0"/></filter><filter id="Y" color-interpolation-filters="sRGB"><feColorMatrix values="0.21 0.72 0.072 0 0 0.21 0.72 0.072 0 0 0.21 0.72 0.072 0 0 0 0 0 1 0"/></filter><filter id="X" color-interpolation-filters="sRGB"><feColorMatrix values="0.21 0.72 0.072 0 0 0.21 0.72 0.072 0 0 0.21 0.72 0.072 0 0 0 0 0 1 0"/></filter><filter id="W" color-interpolation-filters="sRGB"><feColorMatrix values="0.21 0.72 0.072 0 0 0.21 0.72 0.072 0 0 0.21 0.72 0.072 0 0 0 0 0 1 0"/></filter><filter id="V" color-interpolation-filters="sRGB"><feColorMatrix values="0.21 0.72 0.072 0 0 0.21 0.72 0.072 0 0 0.21 0.72 0.072 0 0 0 0 0 1 0"/></filter><filter id="U" color-interpolation-filters="sRGB"><feColorMatrix values="0.21 0.72 0.072 0 0 0.21 0.72 0.072 0 0 0.21 0.72 0.072 0 0 0 0 0 1 0"/></filter><filter id="T" color-interpolation-filters="sRGB"><feColorMatrix values="0.21 0.72 0.072 0 0 0.21 0.72 0.072 0 0 0.21 0.72 0.072 0 0 0 0 0 1 0"/></filter><filter id="S" color-interpolation-filters="sRGB"><feColorMatrix values="0.21 0.72 0.072 0 0 0.21 0.72 0.072 0 0 0.21 0.72 0.072 0 0 0 0 0 1 0"/></filter><filter id="R" color-interpolation-filters="sRGB"><feColorMatrix values="0.21 0.72 0.072 0 0 0.21 0.72 0.072 0 0 0.21 0.72 0.072 0 0 0 0 0 1 0"/></filter><filter id="Q" color-interpolation-filters="sRGB"><feColorMatrix values="0.21 0.72 0.072 0 0 0.21 0.72 0.072 0 0 0.21 0.72 0.072 0 0 0 0 0 1 0"/></filter><filter id="P" color-interpolation-filters="sRGB"><feColorMatrix values="0.21 0.72 0.072 0 0 0.21 0.72 0.072 0 0 0.21 0.72 0.072 0 0 0 0 0 1 0"/></filter><filter id="O" color-interpolation-filters="sRGB"><feColorMatrix values="0.21 0.72 0.072 0 0 0.21 0.72 0.072 0 0 0.21 0.72 0.072 0 0 0 0 0 1 0"/></filter><filter id="N" color-interpolation-filters="sRGB"><feColorMatrix values="0.21 0.72 0.072 0 0 0.21 0.72 0.072 0 0 0.21 0.72 0.072 0 0 0 0 0 1 0"/></filter><filter id="M" color-interpolation-filters="sRGB"><feColorMatrix values="0.21 0.72 0.072 0 0 0.21 0.72 0.072 0 0 0.21 0.72 0.072 0 0 0 0 0 1 0"/></filter><filter id="L" color-interpolation-filters="sRGB"><feColorMatrix values="0.21 0.72 0.072 0 0 0.21 0.72 0.072 0 0 0.21 0.72 0.072 0 0 0 0 0 1 0"/></filter><filter id="K" color-interpolation-filters="sRGB"><feColorMatrix values="0.21 0.72 0.072 0 0 0.21 0.72 0.072 0 0 0.21 0.72 0.072 0 0 0 0 0 1 0"/></filter><filter id="J" color-interpolation-filters="sRGB"><feColorMatrix values="0.21 0.72 0.072 0 0 0.21 0.72 0.072 0 0 0.21 0.72 0.072 0 0 0 0 0 1 0"/></filter><filter id="I" color-interpolation-filters="sRGB"><feColorMatrix values="0.21 0.72 0.072 0 0 0.21 0.72 0.072 0 0 0.21 0.72 0.072 0 0 0 0 0 1 0"/></filter><filter id="H" color-interpolation-filters="sRGB"><feColorMatrix values="0.21 0.72 0.072 0 0 0.21 0.72 0.072 0 0 0.21 0.72 0.072 0 0 0 0 0 1 0"/></filter><filter id="G" color-interpolation-filters="sRGB"><feColorMatrix values="0.21 0.72 0.072 0 0 0.21 0.72 0.072 0 0 0.21 0.72 0.072 0 0 0 0 0 1 0"/></filter><filter id="F" color-interpolation-filters="sRGB"><feColorMatrix values="0.21 0.72 0.072 0 0 0.21 0.72 0.072 0 0 0.21 0.72 0.072 0 0 0 0 0 1 0"/></filter><filter id="E" color-interpolation-filters="sRGB"><feColorMatrix values="0.21 0.72 0.072 0 0 0.21 0.72 0.072 0 0 0.21 0.72 0.072 0 0 0 0 0 1 0"/></filter><filter id="D" color-interpolation-filters="sRGB"><feColorMatrix values="0.21 0.72 0.072 0 0 0.21 0.72 0.072 0 0 0.21 0.72 0.072 0 0 0 0 0 1 0"/></filter><filter id="C" color-interpolation-filters="sRGB"><feColorMatrix values="0.21 0.72 0.072 0 0 0.21 0.72 0.072 0 0 0.21 0.72 0.072 0 0 0 0 0 1 0"/></filter><filter id="B" color-interpolation-filters="sRGB"><feColorMatrix values="0.21 0.72 0.072 0 0 0.21 0.72 0.072 0 0 0.21 0.72 0.072 0 0 0 0 0 1 0"/></filter><filter id="A" color-interpolation-filters="sRGB"><feColorMatrix values="0.21 0.72 0.072 0 0 0.21 0.72 0.072 0 0 0.21 0.72 0.072 0 0 0 0 0 1 0"/></filter><filter id="z" color-interpolation-filters="sRGB"><feColorMatrix values="0.21 0.72 0.072 0 0 0.21 0.72 0.072 0 0 0.21 0.72 0.072 0 0 0 0 0 1 0"/></filter><filter id="y" color-interpolation-filters="sRGB"><feColorMatrix values="0.21 0.72 0.072 0 0 0.21 0.72 0.072 0 0 0.21 0.72 0.072 0 0 0 0 0 1 0"/></filter><filter id="x" color-interpolation-filters="sRGB"><feColorMatrix values="0.21 0.72 0.072 0 0 0.21 0.72 0.072 0 0 0.21 0.72 0.072 0 0 0 0 0 1 0"/></filter><filter id="w" color-interpolation-filters="sRGB"><feColorMatrix values="0.21 0.72 0.072 0 0 0.21 0.72 0.072 0 0 0.21 0.72 0.072 0 0 0 0 0 1 0"/></filter><filter id="v" color-interpolation-filters="sRGB"><feColorMatrix values="0.21 0.72 0.072 0 0 0.21 0.72 0.072 0 0 0.21 0.72 0.072 0 0 0 0 0 1 0"/></filter><filter id="u" color-interpolation-filters="sRGB"><feColorMatrix values="0.21 0.72 0.072 0 0 0.21 0.72 0.072 0 0 0.21 0.72 0.072 0 0 0 0 0 1 0"/></filter><filter id="t" color-interpolation-filters="sRGB"><feColorMatrix values="0.21 0.72 0.072 0 0 0.21 0.72 0.072 0 0 0.21 0.72 0.072 0 0 0 0 0 1 0"/></filter><filter id="s" color-interpolation-filters="sRGB"><feColorMatrix values="0.21 0.72 0.072 0 0 0.21 0.72 0.072 0 0 0.21 0.72 0.072 0 0 0 0 0 1 0"/></filter><filter id="r" color-interpolation-filters="sRGB"><feColorMatrix values="0.21 0.72 0.072 0 0 0.21 0.72 0.072 0 0 0.21 0.72 0.072 0 0 0 0 0 1 0"/></filter><filter id="q" color-interpolation-filters="sRGB"><feColorMatrix values="0.21 0.72 0.072 0 0 0.21 0.72 0.072 0 0 0.21 0.72 0.072 0 0 0 0 0 1 0"/></filter><filter id="p" color-interpolation-filters="sRGB"><feColorMatrix values="0.21 0.72 0.072 0 0 0.21 0.72 0.072 0 0 0.21 0.72 0.072 0 0 0 0 0 1 0"/></filter><filter id="o" color-interpolation-filters="sRGB"><feColorMatrix values="0.21 0.72 0.072 0 0 0.21 0.72 0.072 0 0 0.21 0.72 0.072 0 0 0 0 0 1 0"/></filter><filter id="n" color-interpolation-filters="sRGB"><feColorMatrix values="0.21 0.72 0.072 0 0 0.21 0.72 0.072 0 0 0.21 0.72 0.072 0 0 0 0 0 1 0"/></filter><filter id="m" color-interpolation-filters="sRGB"><feColorMatrix values="0.21 0.72 0.072 0 0 0.21 0.72 0.072 0 0 0.21 0.72 0.072 0 0 0 0 0 1 0"/></filter><filter id="l" color-interpolation-filters="sRGB"><feColorMatrix values="0.21 0.72 0.072 0 0 0.21 0.72 0.072 0 0 0.21 0.72 0.072 0 0 0 0 0 1 0"/></filter><filter id="k" color-interpolation-filters="sRGB"><feColorMatrix values="0.21 0.72 0.072 0 0 0.21 0.72 0.072 0 0 0.21 0.72 0.072 0 0 0 0 0 1 0"/></filter><filter id="j" color-interpolation-filters="sRGB"><feColorMatrix values="0.21 0.72 0.072 0 0 0.21 0.72 0.072 0 0 0.21 0.72 0.072 0 0 0 0 0 1 0"/></filter><filter id="i" color-interpolation-filters="sRGB"><feColorMatrix values="0.21 0.72 0.072 0 0 0.21 0.72 0.072 0 0 0.21 0.72 0.072 0 0 0 0 0 1 0"/></filter><filter id="h" color-interpolation-filters="sRGB"><feColorMatrix values="0.21 0.72 0.072 0 0 0.21 0.72 0.072 0 0 0.21 0.72 0.072 0 0 0 0 0 1 0"/></filter><filter id="g" color-interpolation-filters="sRGB"><feColorMatrix values="0.21 0.72 0.072 0 0 0.21 0.72 0.072 0 0 0.21 0.72 0.072 0 0 0 0 0 1 0"/></filter><filter id="f" color-interpolation-filters="sRGB"><feColorMatrix values="0.21 0.72 0.072 0 0 0.21 0.72 0.072 0 0 0.21 0.72 0.072 0 0 0 0 0 1 0"/></filter><filter id="e" color-interpolation-filters="sRGB"><feColorMatrix values="0.21 0.72 0.072 0 0 0.21 0.72 0.072 0 0 0.21 0.72 0.072 0 0 0 0 0 1 0"/></filter><filter id="d" color-interpolation-filters="sRGB"><feColorMatrix values="0.21 0.72 0.072 0 0 0.21 0.72 0.072 0 0 0.21 0.72 0.072 0 0 0 0 0 1 0"/></filter><filter id="c" color-interpolation-filters="sRGB"><feColorMatrix values="0.21 0.72 0.072 0 0 0.21 0.72 0.072 0 0 0.21 0.72 0.072 0 0 0 0 0 1 0"/></filter><filter id="b" color-interpolation-filters="sRGB"><feColorMatrix values="0.21 0.72 0.072 0 0 0.21 0.72 0.072 0 0 0.21 0.72 0.072 0 0 0 0 0 1 0"/></filter></defs><rect width="711.864" height="661.017" x="57.627" y="54.237" rx="1.542" ry="1.143" fill="#efe2c2" fill-opacity="0" filter="url(#a)"/><path d="M583.437 384.466c0 8.156-7.17 14.768-16.016 14.768h-93.083c-8.845 0-16.016-6.612-16.016-14.768v-85.843c0-8.156 7.17-14.768 16.016-14.768h93.09c8.845 0 16.015 6.612 16.015 14.768v85.843z" fill="#00d0ce" filter="url(#b)"/><path d="M520.876 283.855H474.33c-8.844 0-16.014 6.612-16.014 14.768v85.843c0 8.156 7.17 14.768 16.015 14.768h46.55v-115.38z" fill="#009db3" filter="url(#c)"/><path d="M447.305 509.076c0 8.157-7.17 14.77-16.015 14.77H338.2c-8.845 0-16.015-6.613-16.015-14.77v-85.843c0-8.156 7.17-14.768 16.015-14.768h93.09c8.845 0 16.015 6.612 16.015 14.768v85.843z" fill="#ff3c07" filter="url(#d)"/><path d="M384.745 408.465H338.2c-8.845 0-16.015 6.612-16.015 14.77v85.84c0 8.158 7.17 14.77 16.015 14.77h46.545v-115.38z" fill="#ff7a2d" filter="url(#e)"/><g transform="matrix(.741 0 0 .683 88.393 77.947)" filter="url(#f)"><path d="M300.698 264.908c0 11.94-9.678 21.617-21.617 21.617H153.44c-11.94 0-21.617-9.678-21.617-21.617V139.26c0-11.938 9.678-21.616 21.617-21.616h125.64c11.94 0 21.618 9.678 21.618 21.617v125.65z" fill="#00d0ce"/><path d="M216.258 117.644h-62.824c-11.94 0-21.617 9.678-21.617 21.617v125.65c0 11.94 9.678 21.62 21.617 21.62h62.824V117.65z" fill="#009db3"/><path d="M249.692 149.636v-7.11h-66.87v7.11H164.3l.853 14.024c.838 13.75 8.516 26.165 20.448 33.05l11.07 6.382c2.51 3.173 5.307 6.036 8.388 8.48l.02.015c.17 2.483.517 8.734-.075 10.863-.744 2.68-1.49 38.55-1.49 38.55h24.71v-47.63s.93-2.436 2.274-4.544c1.445-2.303 3.23-4.535 5.36-5.735l11.065-6.38c11.93-6.88 19.61-19.3 20.447-33.05l.853-14.02h-18.525zm-74.13 17.482l-.445-7.3h7.706v1.19c0 8.71 1.526 17.156 4.328 24.835-6.76-3.898-11.11-10.933-11.582-18.725zm81.39 0c-.475 7.792-4.826 14.827-11.588 18.725 2.8-7.68 4.328-16.124 4.328-24.834v-1.19h7.706l-.446 7.293z" fill="#ffc900"/><path d="M194.817 182.016c-2.48-8.918-2.565-18.12-2.643-26.242-.016-1.874 1.49-3.406 3.363-3.426 1.706-.007 3.406 1.488 3.426 3.364.07 7.7.155 16.426 2.396 24.483.5 1.806-.56 3.68-2.367 4.18-.304.084-.607.124-.91.124-1.488 0-2.852-.988-3.27-2.49z" fill="#ffe15c"/><circle cx="201.485" cy="189.873" r="3.536" fill="#ffe15c"/><path d="M209.915 238.762c0-3.298-1.945-6.12-4.737-7.45 2.7-1.363 4.57-4.128 4.57-7.357 0-4.564-3.704-8.268-8.268-8.268s-6.346 3.704-6.346 8.268c0 3.306.952 6.136 3.2 7.46-2.12 1.364-3.032 4.126-3.032 7.346 0 3.19.897 5.93 2.978 7.31-2.08 1.378-2.978 4.117-2.978 7.308 0 4.566 1.78 8.268 6.345 8.268 4.564 0 8.268-3.7 8.268-8.267 0-3.19-1.83-5.93-4.477-7.307 2.647-1.38 4.477-4.116 4.477-7.305zm11.277-12.132c1.402 2.032 1.666 4.644.702 6.92-1.606 3.798-.357 9.443-.357 14.488 0 6.124.857 10.785 3.61 13.517h19.515c11.526-7.357 2.267-27.266-3.15-31.578-9.668-7.69-13.175-15.92-13.27-16.17-1.183-3.22-4.74-4.887-7.978-3.723-3.242 1.168-4.922 4.745-3.757 7.988.095.263 1.403 3.795 4.685 8.558z" fill="#ff9557"/></g><path d="M583.517 258.88c0 8.154-7.172 14.764-16.02 14.764h-93.103c-8.847 0-16.018-6.61-16.018-14.765v-85.82c0-8.158 7.17-14.768 16.018-14.768h93.104c8.847 0 16.02 6.61 16.02 14.764v85.816z" fill="#ff9557" filter="url(#g)"/><path d="M520.946 158.298h-46.553c-8.847 0-16.018 6.61-16.018 14.764v85.817c0 8.15 7.17 14.76 16.018 14.76h46.553V158.3z" fill="#ff7b00" filter="url(#h)"/><path d="M538.782 221.54l-18.742 10.1c-6.052-3.42-17.546-9.3-17.546-9.3l-20.774 18.668 16.602.338.37 15.305 22.256-20.41c2.66 2.35 5.855 5.15 5.767 5.22l16.483 15.195.37-15.304 16.6-.34-21.386-19.466z" fill="#ffc900" filter="url(#i)"/><path d="M534.543 223.378l-14.503 8.264c-6.05-3.42-14.178-8.264-14.178-8.264l-19.453 17.7 11.91.266.304 8.7 19.078-17.472c2.66 2.35 5.95.046 5.862.115l19.702 18.39.296-9.734 11.3-.266-20.327-17.7z" fill="#ff3c07" filter="url(#j)"/><path d="M531.874 232.764l6.4.972c1.072.163 2.168-.077 3.048-.665.88-.59 1.463-1.472 1.626-2.463l.967-5.902c.193-1.177.996-2.196 2.154-2.732l5.79-2.672c.97-.446 1.706-1.237 2.042-2.186.336-.95.245-1.99-.254-2.876l-2.98-5.31c-.594-1.057-.594-2.312 0-3.37l2.98-5.31c.5-.888.59-1.924.254-2.877-.336-.95-1.07-1.74-2.042-2.187l-5.796-2.674c-1.16-.535-1.962-1.555-2.155-2.735l-.967-5.9c-.162-.99-.747-1.88-1.626-2.47-.88-.587-1.978-.827-3.05-.663l-6.4.97c-1.277.195-2.573-.192-3.48-1.04l-4.558-4.255c-.764-.714-1.805-1.116-2.89-1.116-1.085 0-2.126.4-2.89 1.116l-4.557 4.255c-.907.848-2.204 1.235-3.48 1.04l-6.4-.97c-1.07-.165-2.168.076-3.05.663-.878.59-1.462 1.48-1.625 2.47l-.966 5.903c-.195 1.178-.998 2.197-2.156 2.732l-5.796 2.674c-.97.447-1.705 1.238-2.042 2.188-.336.953-.244 1.99.254 2.878l2.98 5.31c.594 1.06.594 2.313 0 3.373l-2.98 5.31c-.5.887-.59 1.923-.254 2.876.337.95 1.07 1.74 2.042 2.186l5.796 2.673c1.16.536 1.96 1.555 2.157 2.735l.965 5.9c.164.99.748 1.88 1.627 2.47.88.587 1.98.827 3.05.664l6.4-.97c1.274-.194 2.57.192 3.48 1.04l4.556 4.255c.764.714 1.805 1.116 2.89 1.116 1.085 0 2.126-.4 2.89-1.114l4.557-4.254c.91-.85 2.205-1.234 3.48-1.04z" fill="#009db3" filter="url(#k)"/><path d="M520.945 228.833c-13.255 0-24.04-9.94-24.04-22.157 0-12.22 10.785-22.16 24.04-22.16 13.257 0 24.042 9.94 24.042 22.16 0 12.216-10.785 22.157-24.042 22.157z" fill="#ff7b00" filter="url(#l)"/><path stroke-miterlimit="10" d="M520.946 224.21c-10.49 0-19.023-7.867-19.023-17.534 0-9.668 8.534-17.534 19.023-17.534 10.49 0 19.025 7.866 19.025 17.534 0 9.667-8.534 17.533-19.024 17.533z" fill="none" stroke="#09a3b1" stroke-width="3.557" filter="url(#m)"/><path d="M520.946 224.21c-10.49 0-19.023-7.867-19.023-17.534 0-9.668 8.534-17.535 19.023-17.535 10.49 0 19.024 7.87 19.024 17.54 0 9.668-8.535 17.534-19.024 17.534z" fill="#ffcf00" filter="url(#n)"/><path d="M512.406 200.24h.066v15.683h4.856v-19.797h-4.162l-5.683 2.44.826 3.47zm18.828 1.283l-3.643.766v2.39h-1.583s-1.623-.25-2.62-.25c-2.96 0-4.864 1.55-4.864 3.602-.025 1.305.93 2.545 3.398 3.31 1.394.43 1.76.7 1.76 1.263 0 .565-.464.92-1.59.92-1.1 0-2.517-.45-3.2-.832l-.66 2.454c.903.45 2.297.767 3.86.767 3.423 0 5.184-1.51 5.184-3.56-.025-1.623-.98-2.682-3.252-3.403-1.467-.474-1.93-.744-1.93-1.262 0-.563.513-.9 1.417-.9 1.027 0 2.655.404 2.655.404h1.43v4.506c0 1.56.34 2.618 1.025 3.27.587.565 1.59.947 2.787.947 1.05 0 1.93-.114 2.42-.292l-.026-2.592c-.267.046-.635.09-1.1.09-1.124 0-1.47-.607-1.47-1.936v-3.99h2.667v-2.523h-2.664v-3.15z" fill="#009db3" filter="url(#o)"/><g transform="matrix(.741 0 0 .683 88.393 77.947)" filter="url(#p)"><path d="M300.698 631.042c0 11.94-9.678 21.617-21.617 21.617H153.44c-11.94 0-21.617-9.68-21.617-21.62V505.39c0-11.94 9.678-21.617 21.617-21.617h125.64c11.94 0 21.618 9.678 21.618 21.617V631.04z" fill="#ffc900"/><path d="M216.258 483.778h-62.824c-11.94 0-21.617 9.678-21.617 21.617v125.647c0 11.94 9.678 21.617 21.617 21.617h62.824V483.772z" fill="#ffe15c"/><circle cx="216.173" cy="568.841" r="37.857" fill="#ffc900"/><path d="M188.953 607.962l6.343-1.047h-10.874c1.318.927 2.94 1.306 4.53 1.047z" fill="#09a4b2"/><path d="M203.938 608.078l6.91 6.998c1.158 1.176 2.74 1.837 4.386 1.837 1.642 0 3.228-.66 4.38-1.837l6.913-6.998c.495-.502 1.076-.866 1.692-1.162h-25.98c.62.295 1.2.66 1.692 1.162z" fill="#009db3"/><path d="M241.512 607.962c1.59.26 3.217-.12 4.53-1.047h-10.874l6.344 1.047z" fill="#09a4b2"/><path d="M170.147 566.724c.902 1.742.902 3.813 0 5.55l-2.85 5.505h12.654c-.77-2.95-1.22-6.02-1.22-9.21 0-20.126 16.378-36.503 36.51-36.503 20.13 0 36.5 16.376 36.5 36.504 0 3.186-.453 6.26-1.223 9.204h12.655l-2.853-5.506c-.91-1.737-.91-3.807 0-5.55l4.522-8.737c.754-1.46.89-3.16.38-4.73-.51-1.565-1.63-2.864-3.096-3.6l-8.785-4.4c-1.764-.882-2.984-2.564-3.28-4.497l-1.463-9.713c-.238-1.63-1.13-3.098-2.465-4.06-1.33-.97-2.99-1.362-4.614-1.096l-9.71 1.604c-1.934.316-3.9-.322-5.275-1.72l-6.913-7.004c-1.15-1.168-2.737-1.83-4.38-1.83-1.646 0-3.228.663-4.387 1.83l-6.91 7.004c-1.37 1.4-3.345 2.037-5.28 1.72l-9.704-1.6c-1.624-.266-3.293.126-4.62 1.097-1.34.96-2.226 2.428-2.467 4.06l-1.466 9.71c-.294 1.934-1.51 3.616-3.273 4.5l-8.782 4.398c-1.473.736-2.59 2.035-3.096 3.602-.513 1.567-.38 3.27.38 4.73l4.52 8.736zm75.137 11.056c.91-2.937 1.397-6.05 1.397-9.28 0-17.298-14.062-31.37-31.36-31.37-17.3 0-31.372 14.072-31.372 31.37 0 3.23.49 6.344 1.4 9.28h7.005c-1.16-2.873-1.816-5.997-1.816-9.28 0-13.665 11.12-24.782 24.787-24.782 13.66 0 24.78 11.117 24.78 24.783 0 3.29-.658 6.41-1.82 9.28h7.005z" fill="#009db3"/><path d="M179.18 619.496l-.11-13.3-17.48.62h109.34l-17.655-.62.06 13.3h27.35l-5.27-14.79 5.27-15.42-10.053.18.44 12.338-.134-24.073h-109.35v24.08l.63-12.59-10.388.07 5.27 15.42-5.27 14.79z" fill="#ff7b00"/><path d="M161.59 606.698l17.59 12.798-.36-12.798zm108.413.126l-16.668 12.672.066-12.672z" fill="#ff3c07"/></g><path d="M583.517 508.95c0 8.153-7.172 14.763-16.02 14.763h-93.103c-8.847 0-16.018-6.61-16.018-14.764v-85.82c0-8.158 7.17-14.768 16.018-14.768h93.104c8.847 0 16.02 6.61 16.02 14.764v85.82z" fill="#ff7a2d" filter="url(#q)"/><path d="M520.946 408.367h-46.553c-8.847 0-16.018 6.61-16.018 14.765v85.817c0 8.15 7.17 14.76 16.018 14.76h46.553V408.365z" fill="#ff9557" filter="url(#r)"/><path d="M543.425 507.817c0-3.377-2.972-6.114-6.635-6.114h-.386V484.31l-9.844-8.515h-2.69v-4.624l16.412 7.958-3.688-19.847 15.643-14.06-21.62-2.9-9.672-18.057-9.67 18.057-21.62 2.897 15.643 14.058-3.693 19.848 16.455-7.974v4.64h-2.69l-9.846 8.514v17.392h-.383c-3.66 0-6.63 2.737-6.63 6.113h44.92z" fill="#ffd000" filter="url(#s)"/><path d="M515.37 475.795h11.19l9.845 8.515v17.393s3.28-.31 5.418 2.036c2.22 2.43 1.603 4.072 1.603 4.072h-44.92s-.237-2.39 2.104-4.547c2.188-2.018 4.914-1.568 4.914-1.568v-17.39l9.847-8.516z" fill="#009db3" filter="url(#t)"/><path d="M505.524 484.252v.013h30.88v-.013l-9.844-8.514h-11.19zm36.3 19.428c-2.138-2.344-5.42-2.035-5.42-2.035v-.028h-30.88v.028s-.093-.015-.256-.028h-.846c-.995.064-2.498.384-3.812 1.595-2.34 2.157-2.104 4.547-2.104 4.547h44.92s.618-1.647-1.603-4.08z" fill="#00d0ce" filter="url(#u)"/><path d="M520.945 454.027l-9.67-11.707 9.67-18.057zm0 0l-15.647 5.25-15.643-14.06zm0 0v16.21l-19.34 8.886zm31.293-8.807l-21.62-2.9-9.673 11.707zm-11.955 33.903l-19.338-25.096 15.65 5.25z" fill="#ffe15c" filter="url(#v)"/><path d="M505.524 484.31" fill="#ffe266" filter="url(#w)"/><path d="M520.86 475.723h-5.49l-9.846 8.535v17.43s-2.726-.45-4.914 1.572c-2.34 2.162-2.104 4.557-2.104 4.557h22.354v-32.094z" fill="#cff1f4" fill-opacity=".3" filter="url(#x)"/><path d="M534.668 341.022l7.736-4.118c13.456-7.155 17.084-22.478 11.8-27.65-3.1-3.036-6.496-2.682-9.86-2.682v-4.58h-46.75v4.58c-3.303 0-6.73-.38-9.857 2.682-5.57 5.453-1.23 20.723 11.798 27.65l7.736 4.118c3.24 3.766 5.58 5.252 9.8 8.338v4.01c-7.585 1.187-13.87 19.628-17.054 25.84-2.667 0-4.83 1.996-4.83 4.454h51.602c0-2.458-2.163-4.453-4.83-4.453h-.027c-3.186-6.21-9.47-24.65-17.055-25.84v-4.01c4.24-3.093 6.56-4.57 9.8-8.333zm9.676-27.887c8.404 0 5.598 12.182-3.026 16.77 2.296-5.798 3.026-11.134 3.026-16.77zm-46.75 0c0 5.698.75 11.016 3.027 16.77-8.55-4.553-11.46-16.77-3.02-16.77z" fill="#ffc900" filter="url(#y)"/><path d="M505.98 327.436c-1.734-5.747-1.793-11.676-1.847-16.91-.033-2.926 4.715-2.864 4.746-.038.05 4.96.103 10.583 1.67 15.777.843 2.787-3.722 3.983-4.575 1.17zm2.19 5.064c0-3.012 4.943-3.01 4.943 0 0 3.012-4.944 3.014-4.944 0z" fill="#ffe15c" filter="url(#z)"/><path d="M537.505 311.798s-.96-3.857-1.876-4.703c-.787-.72-4.92-1.56-4.92-1.56s4.202-1.158 5.1-1.984c.8-.74 1.69-4.28 1.69-4.28s1.095 3.73 1.876 4.45c.92.85 4.92 1.82 4.92 1.82s-4.08.872-4.828 1.56c-.954.88-1.97 4.703-1.97 4.703zm-29.35 67.428s-.9-2.18-1.51-2.604c-.52-.362-3.008-.543-3.008-.543s2.353-.99 2.803-1.54c.404-.497.61-2.63.61-2.63s.97 2.095 1.49 2.457c.608.425 3.03.69 3.03.69s-2.306.815-2.68 1.273c-.48.584-.735 2.89-.735 2.89zm24.142-64.5s-.385-1.55-.753-1.89c-.315-.29-1.977-.628-1.977-.628s1.69-.465 2.05-.797c.324-.29.68-1.713.68-1.713s.44 1.498.755 1.788c.37.34 1.976.73 1.976.73s-1.64.35-1.94.626c-.383.35-.79 1.89-.79 1.89zm-21.023 56.902s-.386-1.55-.754-1.89c-.313-.29-1.976-.627-1.976-.627s1.69-.46 2.05-.79c.323-.3.68-1.72.68-1.72s.44 1.5.754 1.788c.37.34 1.976.73 1.976.73s-1.64.35-1.94.626c-.382.35-.79 1.89-.79 1.89z" fill="#fff" filter="url(#A)"/><path d="M447.363 258.88c0 8.154-7.17 14.764-16.018 14.764H338.24c-8.846 0-16.018-6.61-16.018-14.765v-85.82c0-8.158 7.172-14.768 16.018-14.768h93.105c8.847 0 16.018 6.61 16.018 14.764v85.816z" fill="#bcbcbc" filter="url(#B)"/><path d="M384.793 158.298H338.24c-8.846 0-16.018 6.61-16.018 14.764v85.817c0 8.15 7.172 14.76 16.018 14.76h46.553V158.3z" fill="#909090" filter="url(#C)"/><path d="M402.06 179.542v-3.387l-15.247.007-19.325.008v3.39l-9.577.005.45 6.683c.44 6.55 4.41 12.464 10.58 15.74l5.725 3.04c1.295 1.512 2.742 2.877 4.34 4.037l2.922 2.137-.014 4.277c-5.603.87-10.252 4.27-12.606 8.87h-3.568v3.58l38.155-.02v-3.58h-3.592c-2.355-4.593-7.01-7.985-12.612-8.86l-.02-4.275 2.924-2.14c1.59-1.167 3.04-2.53 4.337-4.042l5.715-3.048c6.168-3.28 10.136-9.203 10.565-15.75l.436-6.682-9.575.004zm-38.32 8.348l-.23-3.476 3.98-.003v.57c0 4.15.794 8.18 2.247 11.83-3.497-1.85-5.753-5.2-5.997-8.92zm42.075-.02c-.238 3.713-2.487 7.067-5.983 8.927 1.448-3.66 2.236-7.686 2.234-11.835v-.566l3.98-.003-.23 3.477z" fill="#ffc900" filter="url(#D)"/><path d="M408.692 246.623V227.36h-47.798v19.263c-4.63 0-8.382 3.458-8.382 7.725v2.615h64.562v-2.615c0-4.267-3.753-7.725-8.382-7.725z" fill="#ff7a2d" filter="url(#E)"/><path d="M372.806 234.762h23.74v14.753h-23.74z" fill="#ff3c07" filter="url(#F)"/><path d="M374.475 235.8h20.402v12.678h-20.402z" fill="#ff9557" filter="url(#G)"/><path d="M396.444 181.97s-.535-2.152-1.047-2.625c-.435-.4-2.745-.87-2.745-.87s2.348-.647 2.848-1.107c.448-.413.944-2.39.944-2.39s.612 2.083 1.048 2.484c.512.472 2.745 1.012 2.745 1.012s-2.278.487-2.694.87c-.532.49-1.1 2.626-1.1 2.626z" fill="#fff" filter="url(#H)"/><path d="M378.976 198.727c0 .93-.82 1.69-1.826 1.69-1.01 0-1.834-.756-1.834-1.687 0-.934.82-1.686 1.83-1.686 1.008 0 1.83.752 1.83 1.683zm-4.91-17.88c.88-.002 1.756.707 1.77 1.6.04 3.67.083 7.83 1.245 11.67.26.86-.282 1.75-1.21 1.99-.16.04-.317.06-.475.06-.77 0-1.476-.465-1.692-1.184-1.284-4.247-1.33-8.63-1.372-12.5-.01-.893.77-1.625 1.74-1.635z" fill="#ffe15c" filter="url(#I)"/><path d="M356.273 439.85s-3.337 21.53 6.006 34.756c9.34 13.226 17.35 19.07 22.02 19.07 4.67 0 26.69-11.418 27.7-39.678.665-18.763-11.348-19.994-27.367-20.3-16.017-.308-28.364 6.15-28.364 6.15z" fill="#00d0ce" filter="url(#J)"/><path d="M398.36 431.913h-27.136c-19.446 0-19.446 1.85-19.446 24.7 0 3.417.476 7.094 1.35 10.823h8.543c-.99-3.71-1.57-7.41-1.57-10.827 0-4.708 0-9.51.264-12.8.18-2.23 2.12-3.98 4.54-4.11 4.97-.258 37.425-.125 39.817.01 2.41.135 4.33 1.89 4.51 4.11.263 3.292.263 8.094.263 12.79 0 3.413-.585 7.115-1.577 10.822h8.544c.87-3.73 1.346-7.406 1.346-10.824 0-22.847 0-24.7-19.446-24.7zm-13.567 58.237c-1.684 0-3.367-.455-5.025-1.23H366.95c5.132 5.38 11.245 8.9 17.843 8.9 6.598 0 12.71-3.52 17.842-8.9h-12.817c-1.658.775-3.34 1.23-5.025 1.23z" fill="#009db3" filter="url(#K)"/><path d="M342.258 490.016h85.07l-15.28 1.09v9.06h23.755l-4.583-11.836 4.583-12.347-8.348-.13-.118-9.122h-85.08v9.128l-8.474.13 4.577 12.347-4.577 11.838h23.758v-9.06z" fill="#ffe15c" filter="url(#L)"/><path d="M357.38 490.02l.16 10.147-14.728-10.147zm54.51-.033l.096 10.18 14.665-10.18z" fill="#ffc900" filter="url(#M)"/><path d="M447.363 384.375c0 8.154-7.17 14.764-16.018 14.764H338.24c-8.846 0-16.018-6.61-16.018-14.77v-85.817c0-8.154 7.172-14.764 16.018-14.764h93.105c8.847 0 16.018 6.61 16.018 14.764v85.817z" fill="#ffe15c" filter="url(#N)"/><path d="M384.793 283.794H338.24c-8.846 0-16.018 6.61-16.018 14.764v85.817c0 8.154 7.172 14.764 16.018 14.764h46.553V283.79z" fill="#ffc900" filter="url(#O)"/><path d="M386.926 353.244v-49.46h-11.57s-.485 9.05-9.915 13.44c-9.43 4.39-13.312 4.838-13.312 4.838s-2.722 20.698 3.694 30.734c6.416 10.036 31.11.448 31.11.448z" fill="#ffe15c" filter="url(#P)"/><path d="M384.793 381.69c5.327-.292 14.22-5.532 18.756-9H365.92c4.54 3.468 13.54 8.708 18.866 9zm35.533-63.294c-1.035.153-2.09.252-3.166.252-11.074 0-20.05-8.27-20.05-18.476h-24.634c0 10.206-8.976 18.476-20.047 18.476-1.08 0-2.14-.1-3.17-.252-.67 3.76-1.02 8.263-1.02 13.68 0 4.83 1.82 13.196 3.7 18.73h6.073c-1.992-5.388-3.953-13.753-3.953-18.73 0-2.946.114-5.662.335-8.125 11.526-.8 20.97-8.6 23.33-18.78 2.024-.008 4.446-.01 7.063-.01v45.55h33.63c1.883-5.533 2.924-13.8 2.924-18.63 0-5.417-.355-9.92-1.02-13.68z" fill="#ff7b00" filter="url(#Q)"/><path d="M361.48 382.76v-8.707l-14.688-1.047h76.004l-14.688 1.047v8.708h22.834l-4.402-11.38 4.402-11.86h-8.504l.48 9.63-.115-18.523h-76.01v18.524l.355-9.63h-8.504l4.402 11.865-4.402 11.38z" fill="#00d0ce" filter="url(#R)"/><path d="M361.455 373.006v9.755l-14.663-9.75zm46.468-.048v9.803l14.29-9.8z" fill="#009db3" filter="url(#S)"/><path d="M311.21 384.375c0 8.154-7.17 14.764-16.018 14.764h-93.104c-8.847 0-16.02-6.61-16.02-14.77v-85.817c0-8.154 7.173-14.764 16.02-14.764h93.104c8.847 0 16.018 6.61 16.018 14.764v85.817z" fill="#ff3c07" filter="url(#T)"/><path d="M248.64 283.794h-46.552c-8.847 0-16.02 6.61-16.02 14.764v85.817c0 8.154 7.173 14.764 16.02 14.764h46.552V283.79z" fill="#ff7a2d" filter="url(#U)"/><path d="M242.365 300.863h-32.23l23.667 36.2-.12.182 30.19 3.057 25.622-39.357h-32.23l-7.348 11.47z" fill="#00d0ce" filter="url(#V)"/><path d="M236.346 300.863H214.95l23.667 36.2 4.695.182h16.58l23.583-36.3h-20.19l-13.37 18.854z" fill="#ff7a2d" filter="url(#W)"/><path d="M231.53 300.863h-11.766l24.87 36.2-1.322.182h11.765l23.583-36.3h-11.765l-16.98 24.402z" fill="#ffe15c" filter="url(#X)"/><path d="M250.002 333.24c-16.69 0-30.273 12.52-30.273 27.903 0 15.386 13.58 27.905 30.27 27.905 16.69 0 30.27-12.52 30.27-27.905 0-15.384-13.58-27.903-30.273-27.903z" fill="#ffd000" filter="url(#Y)"/><path d="M250.002 382.962c-13.052 0-23.67-9.79-23.67-21.82 0-12.028 10.62-21.816 23.67-21.816 13.053 0 23.674 9.787 23.674 21.817s-10.62 21.82-23.674 21.82z" fill="#ffc900" filter="url(#Z)"/><path d="M230.413 373.375c4.262 5.78 11.45 9.588 19.59 9.588 13.053 0 23.673-9.79 23.673-21.82 0-5.28-2.05-10.13-5.45-13.907l-37.813 26.14z" fill="#ffe15c" filter="url(#aa)"/><path d="M250.002 385.4c-14.51 0-26.315-10.88-26.315-24.257 0-13.375 11.805-24.256 26.315-24.256 14.512 0 26.318 10.88 26.318 24.256S264.514 385.4 250.002 385.4zm0-43.636c-11.593 0-21.025 8.693-21.025 19.38 0 10.686 9.43 19.38 21.025 19.38 11.595 0 21.028-8.694 21.028-19.38 0-10.687-9.433-19.38-21.028-19.38z" fill="#ff7a2d" filter="url(#ab)"/></svg>