<?xml version="1.0" encoding="UTF-8" standalone="no"?>
<!-- Generator: Adobe Illustrator 17.0.0, SVG Export Plug-In . SVG Version: 6.00 Build 0)  -->

<svg
   xmlns:dc="http://purl.org/dc/elements/1.1/"
   xmlns:cc="http://creativecommons.org/ns#"
   xmlns:rdf="http://www.w3.org/1999/02/22-rdf-syntax-ns#"
   xmlns:svg="http://www.w3.org/2000/svg"
   xmlns="http://www.w3.org/2000/svg"
   xmlns:xlink="http://www.w3.org/1999/xlink"
   xmlns:sodipodi="http://sodipodi.sourceforge.net/DTD/sodipodi-0.dtd"
   xmlns:inkscape="http://www.inkscape.org/namespaces/inkscape"
   version="1.1"
   x="0px"
   y="0px"
   width="800px"
   height="800px"
   viewBox="0 0 800 800"
   enable-background="new 0 0 800 800"
   xml:space="preserve"
   id="svg2"
   inkscape:version="0.91pre3 r13670"
   sodipodi:docname="aceptacion.svg"><metadata
     id="metadata393"><rdf:RDF><cc:Work
         rdf:about=""><dc:format>image/svg+xml</dc:format><dc:type
           rdf:resource="http://purl.org/dc/dcmitype/StillImage" /></cc:Work></rdf:RDF></metadata><defs
     id="defs391"><inkscape:perspective
       sodipodi:type="inkscape:persp3d"
       inkscape:vp_x="0 : 400 : 1"
       inkscape:vp_y="0 : 1000 : 0"
       inkscape:vp_z="800 : 400 : 1"
       inkscape:persp3d-origin="400 : 266.66667 : 1"
       id="perspective8563" /><filter
       inkscape:collect="always"
       style="color-interpolation-filters:sRGB"
       id="filter8459"
       x="-1.0368"
       width="3.0736001"
       y="-1.1165538"
       height="3.2331076"><feGaussianBlur
         inkscape:collect="always"
         stdDeviation="307.52542"
         id="feGaussianBlur8461" /></filter></defs><sodipodi:namedview
     pagecolor="#ffffff"
     bordercolor="#666666"
     borderopacity="1"
     objecttolerance="10"
     gridtolerance="10"
     guidetolerance="10"
     inkscape:pageopacity="0"
     inkscape:pageshadow="2"
     inkscape:window-width="1366"
     inkscape:window-height="705"
     id="namedview389"
     showgrid="false"
     inkscape:zoom="0.295"
     inkscape:cx="-805.08475"
     inkscape:cy="400"
     inkscape:window-x="-8"
     inkscape:window-y="-8"
     inkscape:window-maximized="1"
     inkscape:current-layer="layer2" /><g
     id="Capa_3"
     display="none"><path
       display="inline"
       fill-rule="evenodd"
       clip-rule="evenodd"
       fill="#F06162"
       d="M760.814,655.793   c0,41.134-34.838,74.479-77.813,74.479H116.999c-42.975,0-77.813-33.346-77.813-74.479V120.526   c0-41.134,34.838-74.479,77.813-74.479h566.001c42.975,0,77.813,33.346,77.813,74.479V655.793z"
       id="path5" /><path
       display="inline"
       fill-rule="evenodd"
       clip-rule="evenodd"
       fill="#F0E3C3"
       d="M729.808,633.022   c0,37.634-31.844,68.143-71.126,68.143H141.318c-39.282,0-71.126-30.508-71.126-68.143V143.296   c0-37.634,31.844-68.143,71.126-68.143h517.364c39.282,0,71.126,30.508,71.126,68.143V633.022z"
       id="path7" /></g><g
     id="Capa_4"
     display="none"><rect
       x="73.766"
       y="269.778"
       display="inline"
       fill="#DFE5E6"
       width="652.467"
       height="219.525"
       id="rect10" /></g><g
     id="background"
     display="none"><g
       display="inline"
       id="g13"><g
         id="g15"><path
           fill="#AE4C43"
           d="M693.356,473.801c-0.211,0-0.395-0.026-0.541-0.06l-1.343-0.313l-0.515-1.724     c0.018,0.039,0.212,0.395,0.617,0.645l0.872-1.398l-0.924-0.246c0.299-1.127,0.598-2.191,0.885-3.217     c1.543-5.49,2.662-9.458,0.99-15.23c-0.536-1.856-1.1-3.677-1.659-5.485c-1.667-5.389-3.391-10.968-4.184-16.955     c-0.106-0.774-0.233-1.716-0.347-2.767c-2.011-0.14-3.947-0.756-5.785-1.848c-8.425-4.979-12.42-18.903-13.449-26.347     c-1.544-11.126-3-21.638-14.342-25.208c-9.077-2.86-20.751-2.627-31.056-2.422c-2.7,0.053-5.345,0.106-7.879,0.106     c-6.563,0-10.342,0.38-14.346,0.785c-3.731,0.378-7.593,0.768-13.814,0.825c-2.965,0.028-8.288,0.17-13.66,0.314     c-5.662,0.152-11.377,0.304-14.491,0.328c-3.428,0.053-6.92-0.196-10.287-0.416c-4.218-0.275-8.587-0.561-12.872-0.336     c-11.662,0.587-24.456,0.53-39.113-0.167c-9.833-0.469-18.799,0.106-28.284,0.715c-13.885,0.895-28.24,1.819-46.4-0.565     c-7.884-1.032-15.977-0.995-23.803-0.94c-6.7,0.033-13.623,0.075-20.451-0.55c-10.074-0.933-20.452,0.161-30.496,1.221     c-3.724,0.394-7.424,0.783-11.088,1.071c-20.079,1.581-40.325,3.594-59.906,5.543c-7.05,0.702-14.107,1.403-21.181,2.088     c-11.904,1.152-25.808,1.097-40.206-0.163c-5.109-0.447-9.72-1.534-14.179-2.585c-7.041-1.657-13.695-3.22-21.552-2.103     c-14.967,2.136-29.299,4.767-40.177,13.387c-9.344,7.408-11.477,14.843-14.181,24.254c-1.04,3.624-2.116,7.368-3.7,11.442     c-2.782,7.163-6.324,12.182-14.555,13.401c-1.305,0.197-2.768,0.176-4.186,0.168c-2.028-0.027-4.846-0.054-5.501,0.822     c-0.15,0.198-0.579,1.056,0.215,3.678c0.541,1.791,2.092,2.961,3.885,4.317c2.778,2.094,6.234,4.703,5.237,10.21     c-1.311,7.242-7.93,7.11-11.856,7.044c-1.472-0.026-3.487-0.066-4.008,0.343l-2.767-3.555c1.78-1.386,4.237-1.342,6.859-1.293     c4.656,0.106,6.773-0.207,7.338-3.339c0.482-2.661-0.801-3.766-3.515-5.816c-2.119-1.597-4.518-3.41-5.484-6.608     c-1.021-3.371-0.86-5.882,0.493-7.686c2.024-2.697,5.812-2.649,9.151-2.622c1.3,0.017,2.523,0.027,3.48-0.119     c6.159-0.91,8.625-4.421,11.018-10.575c1.507-3.88,2.554-7.527,3.566-11.052c2.695-9.379,5.237-18.239,15.714-26.544     c11.759-9.319,26.737-12.089,42.337-14.317c8.7-1.239,16.082,0.499,23.222,2.18c4.305,1.014,8.754,2.063,13.539,2.481     c14.126,1.234,27.74,1.293,39.379,0.167c7.072-0.686,14.124-1.388,21.171-2.087c19.601-1.952,39.871-3.966,59.998-5.552     c3.623-0.286,7.285-0.671,10.97-1.058c10.261-1.082,20.873-2.198,31.38-1.23c6.608,0.61,13.409,0.563,20.01,0.532     c7.98-0.057,16.227-0.094,24.415,0.979c17.724,2.318,31.855,1.417,45.524,0.534c9.616-0.616,18.705-1.201,28.789-0.719     c14.505,0.695,27.162,0.754,38.67,0.167c4.549-0.229,9.045,0.06,13.392,0.341c3.437,0.222,6.662,0.458,9.961,0.407     c3.097-0.024,8.781-0.176,14.408-0.326c5.402-0.145,10.752-0.288,13.739-0.317c6.01-0.055,9.772-0.435,13.405-0.801     c3.933-0.398,8.007-0.81,14.795-0.81c2.503,0,5.116-0.052,7.791-0.105c10.646-0.216,22.714-0.451,32.498,2.628     c14.061,4.428,15.86,17.421,17.447,28.887c0.858,6.184,4.32,18.974,11.28,23.092c1.021,0.603,2.077,0.985,3.172,1.152     c-0.136-5.601,0.867-11.79,6.147-12.864c5.094-1.038,6.458,2.284,6.761,3.326c1.201,4.14-2.336,11.592-6.208,13.066     c-0.634,0.242-1.263,0.444-1.888,0.603c0.08,0.721,0.167,1.483,0.277,2.288c0.787,5.939,2.379,11.09,4.07,16.546     c0.563,1.83,1.135,3.678,1.68,5.56c2.029,7.007,0.634,11.966-0.98,17.707c-0.281,0.999-0.576,2.04-0.866,3.141l-0.458,0.885     C694.693,473.594,693.928,473.801,693.356,473.801z M694.834,413.921c-0.216,0-0.515,0.027-0.906,0.107     c-1.109,0.229-2.653,1.667-2.539,7.98c0.198-0.066,0.391-0.133,0.59-0.211c0.836-0.317,2.86-3.005,3.431-5.847     c0.268-1.32,0.031-1.879-0.026-1.936C695.384,414.014,695.244,413.921,694.834,413.921z"
           id="path17" /></g><path
         fill="#B68AD1"
         d="M332.091,469.877c0.944,2.318,1.885,5.82,3.379,7.628c5.284-1.887,15.363-2.701,18.271-8.121    c-3.233-1.337-11.084-0.624-14.265,0.458c-0.787-1.668-1.727-3.973-2.879-5.314L332.091,469.877z"
         id="path19" /><path
         fill="#B68AD1"
         d="M273.283,465.587c-1.817,1.724-4.734,3.88-5.873,5.93c3.684,4.232,8.115,13.322,14.221,14.052    c0.07-3.498-3.456-10.55-5.622-13.118c1.262-1.338,3.069-3.054,3.897-4.616L273.283,465.587z"
         id="path21" /><path
         fill="#005774"
         d="M276.343,425.673c-0.341,3.079-1.102,6.458-0.35,9.595c0.59,2.463,2.303,4.575,2.884,6.937    c1.355,5.504-3.322,10.651-6.491,14.734c-1.572,2.028-3.953,3.692-5.263,5.9c-1.615,2.719,0.138,3.524,2.729,5.143    c1.951,1.218,4.387,2.626,6.492,3.528c3.306,1.425,3.533-0.229,5.576-2.79c3.169-3.972,6.63-7.606,9.566-11.807    c3.069-4.395,3.599-7.206,4.566-12.095c1.056-5.331,4.182-10.149,5.281-15.775c0.456-2.332,2.089-7.919,0.932-10.141    c-0.671-1.288-4.718-3.273-6.121-4.003c-2.222-1.161-5.013-2.181-7.42-2.952c-2.646-0.848-5.46-0.906-8.44-0.914L276.343,425.673z    "
         id="path23" /><path
         opacity="0.23"
         fill="#005774"
         d="M276.343,425.673c-0.341,3.079-1.102,6.458-0.35,9.595c0.59,2.463,2.303,4.575,2.884,6.937    c1.355,5.504-3.322,10.651-6.491,14.734c-1.572,2.028-3.953,3.692-5.263,5.9c-1.615,2.719,0.138,3.524,2.729,5.143    c1.951,1.218,4.387,2.626,6.492,3.528c3.306,1.425,3.533-0.229,5.576-2.79c3.169-3.972,6.63-7.606,9.566-11.807    c3.069-4.395,3.599-7.206,4.566-12.095c1.056-5.331,4.182-10.149,5.281-15.775c0.456-2.332,2.089-7.919,0.932-10.141    c-0.671-1.288-4.718-3.273-6.121-4.003c-2.222-1.161-5.013-2.181-7.42-2.952c-2.646-0.848-5.46-0.906-8.44-0.914L276.343,425.673z    "
         id="path25" /><path
         fill="#005774"
         d="M290.702,429.615c2.274,3.955,6.377,7.175,9.298,10.698c1.824,2.195,3.368,4.184,5.343,6.194    c4.562,4.638,8.682,9.204,13.515,13.506c2.428,2.164,4.688,4.276,6.397,7.109c1.315,2.177,2.233,5.21,5.076,4.95    c2.063-0.185,5.433-2.996,7.116-4.246c2.699-2.002,2.378-2.099,1.19-4.989c-2.09-5.081-4.45-10.11-6.476-15.2    c-1.069-2.679-1.991-5.362-3.244-7.946c-1.54-3.167-4.089-5.846-5.906-8.952c-3.04-5.196-5.724-10.506-8.3-15.895    c-3.154-6.604-9.333-2.058-14.717-0.153c-2.862,1.012-4.312,1.311-5.842,4.223c-1.193,2.266-1.39,5.272-2.886,7.04    L290.702,429.615z"
         id="path27" /><path
         fill="#E95F7D"
         d="M275.687,420.511c0.359,2.868-1.618,4.879-1.069,7.827c2.213,0.357,3.931-0.59,5.948-0.612    c2.406-0.026,4.434,0.809,6.766,1.513c3.311,0.995,3.676,1.162,6.584-0.4c2.228-1.193,3.831-2.852,6.652-3.093    c4.984-0.432,7.943,3.929,12.305-0.348c2.252-2.214,1.892-4.246,5.339-5.178c2.01-0.55,5.868,1.139,5.846-1.901    c-3.634-1.074-5.612-2.723-8.119-5.34c-3.169-3.305-4.476-2.262-8.718-1.189c-9.005,2.274-21.079-1.43-29.282,1.962    L275.687,420.511z"
         id="path29" /><path
         fill="#FF9DB9"
         d="M252.41,368.795c1.099,2.202,1.52,4.833,2.549,7.116c1.331,2.95,3.143,5.686,4.85,8.432    c2.97,4.784,7.175,8.62,9.494,13.807c2.165,4.844,3.174,9.481,2.191,14.632c-0.737,3.863,0.367,7.369,2.081,10.871    c5.512-0.255,11.339,0.858,16.9,0.612c4.109-0.185,8.275-1.192,12.327-2.177c3.673-0.893,8.258-1.751,11.551-3.524    c1.291-0.695,4.821-2.952,5.081-4.43c0.322-1.826-2.466-6.555-3.391-8.169c-2.835-4.945-4.903-10.287-7.813-15.209    c-1.859-3.141-3.788-6.082-5.763-8.973c-6.806-7.927-10.437-10.65-17.664-17.648c-1.331-1.289-8.385-7.123-9.79-8.361    c-4.041-3.557-9.91-3.949-15.011-4.168c-4.573-0.196-4.285,2.686-5.681,6.491c-0.269,0.726-0.693,1.36-0.783,1.69L252.41,368.795z    "
         id="path31" /><path
         fill="#FFAD32"
         d="M280.003,304.318c6.672,0.707,4.441-8.728,4.441-17.199c-18.503-4.905-41.166-13.235-56.074,3.427    c-17.439,19.496-13.915,48.136-4.138,70.762c3.506,8.113,5.203,15.266,14.76,15.241c8.642-0.022,17.569-1.984,24.674-7.344    c-1.775-3.047-3.583-15.033-5.625-17.771L280.003,304.318z"
         id="path33" /><path
         fill="#FFD5AD"
         d="M256.541,358.565c6.245,2.862,18.207-0.553,23.44-4.316c7.175-5.163,7.354-9.208,5.79-17.177    c1.366-0.843,4.742-1.777,6.509-2.142c-4.017-21.225-7.529-36.22-23.653-37.778c5.376,10.596-0.482,32.742-14.377,35.135    c-3.726,0.643-18.585-4.205-13.657,7.693c1.491,3.598,6.139,2.751,8.31,5.035C250.56,346.757,249.788,355.47,256.541,358.565z"
         id="path35" /><path
         fill="#FFD5AD"
         d="M279.873,362.836c14.174,2.968,15.032,3.469,27.078,5.666c6.023,1.1,11.784,2.189,17.894,0.761    c3.198-0.748,14.366-6.619,16.748-3.128c-1.113,1.617-5.827,2.644-6.203,4.552c-0.803,4.067,6.074,2.151,7.017,3.852    c3.935,7.074-11.731,4.802-13.928,4.063c-5.607-1.885-8.94-3.238-15.439-3.141c-7.043,0.101-13.841-1.181-18.772-1.126    c-6.619,0.075-10.788,0.17-17.686-1.746c-6.896-1.916-10.92-2.855-7.622-9.729C270.709,359.212,278.569,362.564,279.873,362.836z"
         id="path37" /><path
         fill="#7C5761"
         d="M462.237,469.877c-0.942,2.318-1.883,5.82-3.378,7.628c-5.285-1.887-15.363-2.701-18.271-8.121    c3.233-1.337,11.086-0.624,14.267,0.458c0.787-1.668,1.724-3.973,2.876-5.314L462.237,469.877z"
         id="path39" /><path
         fill="#7C5761"
         d="M521.047,465.587c1.817,1.724,4.733,3.88,5.873,5.93c-3.688,4.232-8.117,13.322-14.224,14.052    c-0.07-3.498,3.458-10.55,5.622-13.118c-1.263-1.338-3.067-3.054-3.898-4.616L521.047,465.587z"
         id="path41" /><path
         fill="#404040"
         d="M517.985,425.673c0.343,3.079,1.103,6.458,0.352,9.595c-0.589,2.463-2.305,4.575-2.886,6.937    c-1.355,5.504,3.321,10.651,6.492,14.734c1.571,2.028,3.952,3.692,5.263,5.9c1.614,2.719-0.137,3.524-2.728,5.143    c-1.953,1.218-4.386,2.626-6.493,3.528c-3.305,1.425-3.533-0.229-5.575-2.79c-3.172-3.972-6.629-7.606-9.568-11.807    c-3.066-4.395-3.598-7.206-4.566-12.095c-1.056-5.331-4.18-10.149-5.28-15.775c-0.457-2.332-2.089-7.919-0.932-10.141    c0.668-1.288,4.716-3.273,6.119-4.003c2.221-1.161,5.016-2.181,7.421-2.952c2.645-0.848,5.46-0.906,8.439-0.914L517.985,425.673z"
         id="path43" /><path
         opacity="0.17"
         fill="#404040"
         d="M517.985,425.673c0.343,3.079,1.103,6.458,0.352,9.595    c-0.589,2.463-2.305,4.575-2.886,6.937c-1.355,5.504,3.321,10.651,6.492,14.734c1.571,2.028,3.952,3.692,5.263,5.9    c1.614,2.719-0.137,3.524-2.728,5.143c-1.953,1.218-4.386,2.626-6.493,3.528c-3.305,1.425-3.533-0.229-5.575-2.79    c-3.172-3.972-6.629-7.606-9.568-11.807c-3.066-4.395-3.598-7.206-4.566-12.095c-1.056-5.331-4.18-10.149-5.28-15.775    c-0.457-2.332-2.089-7.919-0.932-10.141c0.668-1.288,4.716-3.273,6.119-4.003c2.221-1.161,5.016-2.181,7.421-2.952    c2.645-0.848,5.46-0.906,8.439-0.914L517.985,425.673z"
         id="path45" /><path
         fill="#404040"
         d="M508.676,423.007c-2.274,3.955-11.425,13.783-14.347,17.306c-1.826,2.195-3.37,4.184-5.345,6.194    c-4.562,4.638-8.68,9.204-13.515,13.506c-2.428,2.164-4.686,4.276-6.397,7.109c-1.315,2.177-2.231,5.21-5.077,4.95    c-2.063-0.185-5.433-2.996-7.114-4.246c-2.701-2.002-2.38-2.099-1.192-4.989c2.089-5.081,4.452-10.11,6.476-15.2    c1.069-2.679,1.992-5.362,3.246-7.946c1.54-3.167,4.087-5.846,5.905-8.952c3.039-5.196,5.723-10.506,8.301-15.895    c3.154-6.604,9.331-2.058,14.716-0.153c2.863,1.012,4.311,1.311,5.842,4.223c1.192,2.266,6.441-1.337,7.937,0.432L508.676,423.007    z"
         id="path47" /><path
         fill="#FFD5AD"
         d="M601.569,435.796c-6.609,10.114-11.892,20.975-17.175,31.815c-1.268,2.6,2.617,4.888,3.888,2.275    c5.283-10.84,10.568-21.701,17.175-31.816C607.049,435.632,603.148,433.376,601.569,435.796z"
         id="path49" /><path
         fill="#FFD5AD"
         d="M649.028,467.158c-4.338-5.107-8.464-10.765-11.459-16.779c-1.844-3.7-3.318-8.342-6.56-11.095    c-2.2-1.869-5.403,1.302-3.185,3.185c3.44,2.921,4.936,8.504,6.995,12.415c2.908,5.517,6.994,10.717,11.024,15.459    C647.727,472.561,650.898,469.358,649.028,467.158z"
         id="path51" /><path
         fill="#00C457"
         d="M541.917,368.795c-1.099,2.202-1.517,4.833-2.547,7.116c-1.333,2.95-3.145,5.686-4.852,8.432    c-2.97,4.784-7.176,8.62-9.494,13.807c-2.164,4.844-3.172,9.481-2.19,14.632c0.739,3.863-0.365,7.369-2.081,10.871    c-5.513-0.255-11.338,0.858-16.898,0.612c-4.11-0.185-8.276-1.192-12.328-2.177c-3.673-0.893-8.257-1.751-11.552-3.524    c-1.289-0.695-4.821-2.952-5.082-4.43c-0.321-1.826,2.469-6.555,3.392-8.169c2.838-4.945,4.906-10.287,7.813-15.209    c1.861-3.141,3.788-6.082,5.764-8.973c6.806-7.927,10.44-10.65,17.663-17.648c1.333-1.289,8.386-7.123,9.794-8.361    c4.039-3.557,9.907-3.949,15.011-4.168c4.57-0.196,4.284,2.686,5.679,6.491c0.267,0.726,0.694,1.36,0.782,1.69L541.917,368.795z"
         id="path53" /><path
         fill="#FFD5AD"
         d="M514.457,362.836c-14.175,2.968-15.033,3.469-27.078,5.666c-6.023,1.1-11.786,2.189-17.896,0.761    c-3.199-0.748-14.364-6.619-16.748-3.128c1.113,1.617,5.83,2.644,6.203,4.552c0.805,4.067-6.071,2.151-7.017,3.852    c-3.932,7.074,11.733,4.802,13.929,4.063c5.609-1.885,8.94-3.238,15.442-3.141c7.044,0.101,13.84-1.181,18.772-1.126    c6.616,0.075,10.787,0.17,17.685-1.746c6.893-1.916,10.919-2.855,7.62-9.729C523.621,359.212,515.759,362.564,514.457,362.836z"
         id="path55" /><path
         fill="#A55A37"
         d="M606.42,414.503c-0.541,4.276-7.526,10.738-10.584,13.893c-2.767,2.847-5.806,5.842-8.231,9.01    c10.356,9.837,25.613,13.665,39.666,15.785c5.116,0.774,10.68-0.277,15.564-1.501c3.502-0.88,8.76-1.732,11.584-3.85    c-1.729-4.905-2.309-10.607-3.238-15.692c-0.995-5.442-3.515-10.863-5.033-16.075c-7.888-0.758-14.852-5.029-22.556-6.375    c-2.34-0.409-13.572,0.901-13.418-1.954L606.42,414.503z"
         id="path57" /><path
         fill="#B487D7"
         d="M669.498,368.795c-1.099,2.202-1.522,4.833-2.551,7.116c-1.329,2.95-3.141,5.686-4.848,8.432    c-2.97,4.784-7.176,8.62-9.493,13.807c-2.165,4.844-3.176,9.481-2.191,14.632c0.735,3.863-0.37,7.369-2.081,10.871    c-5.513-0.255-11.341,0.858-16.902,0.612c-4.109-0.185-8.275-1.192-12.328-2.177c-3.674-0.893-8.257-1.751-11.548-3.524    c-1.294-0.695-4.822-2.952-5.081-4.43c-0.321-1.826,2.463-6.555,3.391-8.169c2.833-4.945,4.901-10.287,7.814-15.209    c1.856-3.141,3.787-6.082,5.763-8.973c6.805-7.927,10.436-10.65,17.664-17.648c1.328-1.289,8.384-7.123,9.787-8.361    c4.044-3.557,9.913-3.949,15.011-4.168c4.576-0.196,4.285,2.686,5.684,6.491c0.268,0.726,0.691,1.36,0.783,1.69L669.498,368.795z"
         id="path59" /><path
         opacity="0.16"
         fill="#B487D7"
         d="M669.498,368.795c-1.099,2.202-1.522,4.833-2.551,7.116    c-1.329,2.95-3.141,5.686-4.848,8.432c-2.97,4.784-7.176,8.62-9.493,13.807c-2.165,4.844-3.176,9.481-2.191,14.632    c0.735,3.863-0.37,7.369-2.081,10.871c-5.513-0.255-11.341,0.858-16.902,0.612c-4.109-0.185-8.275-1.192-12.328-2.177    c-3.674-0.893-8.257-1.751-11.548-3.524c-1.294-0.695-4.822-2.952-5.081-4.43c-0.321-1.826,2.463-6.555,3.391-8.169    c2.833-4.945,4.901-10.287,7.814-15.209c1.856-3.141,3.787-6.082,5.763-8.973c6.805-7.927,10.436-10.65,17.664-17.648    c1.328-1.289,8.384-7.123,9.787-8.361c4.044-3.557,9.913-3.949,15.011-4.168c4.576-0.196,4.285,2.686,5.684,6.491    c0.268,0.726,0.691,1.36,0.783,1.69L669.498,368.795z"
         id="path61" /><path
         fill="#FFD5AD"
         d="M642.034,362.836c-14.175,2.968-15.033,3.469-27.079,5.666c-6.023,1.1-11.781,2.189-17.892,0.761    c-3.197-0.748-14.368-6.619-16.748-3.128c1.113,1.617,5.825,2.644,6.203,4.552c0.801,4.067-6.075,2.151-7.017,3.852    c-3.937,7.074,11.729,4.802,13.929,4.063c5.604-1.885,8.939-3.238,15.438-3.141c7.042,0.101,13.84-1.181,18.77-1.126    c6.622,0.075,10.788,0.17,17.687-1.746c6.898-1.916,10.918-2.855,7.623-9.729C651.197,359.212,643.34,362.564,642.034,362.836z"
         id="path63" /><path
         fill="#00C457"
         d="M496.05,364.949c-0.471,4.434,1.848,8.585,2.683,12.707c8.23-0.326,34.218,3.467,31.02-11.581    c-2.556-12.032-20.289-6.449-28.072-4.505L496.05,364.949z"
         id="path65" /><path
         fill="#441124"
         d="M514.07,307.135c-4.201-2.092-9.027-6.984-8.275-12.277c4.299,9.181,11.913-2.448,15.125-5.771    c5.574-5.772,13.018-11.245,21.587-10.867c6.955,0.306,14.21,3.469,18.763,8.718c4.065,4.681,6.445,9.366,13.241,9.685    c1.638,0.077,3.296,0,4.937,0.002c-2.517,2.004-4.531,2.348-2.591,6.278c2.262,4.573,6.093,7.292,7.039,12.565    c1.391,7.727-1.302,14.533-3.471,21.805c-1.184,3.955-3.674,12.915,2.213,14.236c-1.557,3.023-5.108,4.415-7.998,3.744    c1.087,0.935,0.849,1.328,2.459,1.511c-3.365,4.026-14.025,5.739-19.018,4.826c-5.332-0.974-12.02-4.399-15.481-8.563    c-2.485-2.989-4.157-6.835-6.85-9.769c-2.86-3.119-6.555-4.837-9.687-7.684c-4.131-3.756-6.458-9.682-7.945-14.876    c-0.497,0.084-0.378,0.442-0.669,0.702L514.07,307.135z"
         id="path67" /><path
         fill="#FFD5AD"
         d="M540.079,332.287c-13.893-2.393-19.754-24.539-14.377-35.135c-16.124,1.557-19.634,16.552-23.651,37.778    c1.764,0.365,5.143,1.3,6.507,2.142c-0.305,1.564-0.515,2.943-0.647,4.243c3.677,0.693,7.554,1.212,10.457,3.049    c-1.651,2.455-5.777,3.914-8.988,4.923c1.029,1.652,2.587,3.249,4.967,4.962c5.235,3.764,17.197,7.178,23.439,4.316    c6.753-3.096,5.984-11.809,7.643-13.55c2.169-2.283,6.818-1.437,8.31-5.035C558.666,328.082,543.805,332.93,540.079,332.287z"
         id="path69" /><path
         fill="#FFD5AD"
         d="M635.381,343.578l0.097-2.164C635.404,342.168,635.377,342.892,635.381,343.578z"
         id="path71" /><path
         fill="#F6FFFF"
         d="M635.518,340.547l-0.04,0.867c0.026-0.286,0.057-0.572,0.093-0.869    C635.553,340.543,635.535,340.55,635.518,340.547z"
         id="path73" /><path
         fill="#340512"
         d="M638.144,315.581c-4.967,0.944-2.71-16.935-1.487-19.632c3.312-7.283,12.102-15.017,20.272-15.859    c6.67-0.686,14.966,0.055,21.134,2.527c8.614,3.456,12.464,13.306,14.351,21.634c0.339,1.498,0.445,3.035,0.906,4.472    c3.502-3.458,9.067-6.458,14.1-5.317c5.619,1.271,7.489,6.535,6.529,11.832c-1.135,6.296-4.531,12.564-2.247,19.15    c2.068,5.973,8.706,8.773,12.05,2.099c-0.07,4.768-0.427,7.266-4.799,9.854c-3.718,2.2-7.206,1.353-10.405-1.26    c-6.256-5.114-10.114-14.252-11.338-21.876c-1.336,3.99,0.054,8.944-1.706,13.211c-1.773,4.296-3.823,9.065-7.743,11.825    c-5.925,4.173-15.059,5.717-21.984,5.589c-0.448-1.773-0.316-3.572-1.149-5.332c-1.895-4.001-5.92-7.195-8.842-10.398    c-2.547-2.791-5.499-5.424-7.813-8.398c-0.853-1.098-1.465-2.477-2.482-3.318c0.01,0.462,0.348,0.238,0.537,0.458L638.144,315.581    z"
         id="path75" /><path
         fill="#FFD5AD"
         d="M667.66,332.287c-13.898-2.393-19.753-24.539-14.378-35.135c-16.124,1.557-19.639,16.552-23.654,37.778    c1.768,0.365,5.141,1.3,6.511,2.142c-0.246,1.258-0.427,2.391-0.567,3.474c3.484,0.29,7.034-1.406,10.413-1.267    c1.557,0.064,1.719,0.394,1.552,2.354c-0.084,1.034-0.598,2.314-1.078,3.233c-1.544,2.948-5.961,4.666-9.493,4.433    c1.034,1.65,2.587,3.242,4.962,4.951c5.23,3.764,17.193,7.178,23.44,4.316c6.753-3.096,5.979-11.809,7.637-13.55    c2.173-2.283,6.819-1.437,8.311-5.035C686.241,328.082,671.386,332.93,667.66,332.287z"
         id="path77" /><path
         fill="#F6FFFF"
         d="M646.459,344.865c0.48-0.919,0.994-2.199,1.078-3.233c0.167-1.96,0.004-2.29-1.552-2.354    c-3.379-0.138-6.929,1.557-10.413,1.267c-0.036,0.297-0.067,0.583-0.093,0.869l-0.097,2.164c0.022,2.116,0.485,3.964,1.584,5.719    C640.498,349.531,644.915,347.813,646.459,344.865z"
         id="path79" /><path
         fill="#B487D7"
         d="M606.047,365.698c0.074,2.996-0.207,10.275,1.482,12.785c1.773,2.64,6.529,2.378,9.696,2.982    c9.124,1.742,18.834-0.871,27.491-4.036c5.812-2.125,15.971-6.747,12.385-14.734c-2.267-5.046-11.76-4.381-16.6-4.131    c-5.957,0.307-11.944,2.349-17.544,3.765c-4.786,1.21-9.995,1.201-14.659,2.618L606.047,365.698z"
         id="path81" /><path
         fill="#FFD5AD"
         d="M187.489,445.883c6.054,7.122,10.875,15.705,12.252,25.046c0.42,2.841-3.92,4.064-4.342,1.196    c-1.267-8.578-5.521-16.493-11.095-23.057C182.434,446.868,185.606,443.666,187.489,445.883z"
         id="path83" /><path
         fill="#FFD5AD"
         d="M117.938,451.506c1.192-5.099,5.165-9.116,8.706-12.702c2.044-2.068,5.229,1.118,3.185,3.186    c-3.722,3.77-6.74,7.263-7.978,12.551c-1.419,6.071-1.302,12.806-2.408,19c-0.508,2.856-4.85,1.641-4.342-1.196    C116.327,465.455,116.347,458.303,117.938,451.506z"
         id="path85" /><path
         fill="#FFAD32"
         d="M589.817,469.877c-0.945,2.318-1.887,5.82-3.378,7.628c-5.283-1.887-15.362-2.701-18.27-8.121    c3.234-1.337,11.081-0.624,14.262,0.458c0.787-1.668,1.729-3.973,2.882-5.314L589.817,469.877z"
         id="path87" /><path
         fill="#FFD5AD"
         d="M105.104,388.366c0.627-1.874,2.834-1.887,3.887-0.845c1.482-0.149,3.044,0.934,2.353,2.676    c-1.377,3.479-3.647,6.832,0.361,9.225c5.118,3.057,12.137,2.679,17.735,1.601c1.621-0.317,2.678,0.967,2.783,2.226    c1.857,0.541,2.33,3.665-0.009,4.329c-9.093,2.582-17.523,1.008-25.721-3.432c-2.02-1.091-5.163-3.075-5.266-5.697    C101.073,394.538,103.921,391.899,105.104,388.366z"
         id="path89" /><path
         fill="#005774"
         d="M177.879,413.754c2.162,4.342,7.006,8.157,10.127,12.015c2.791,3.444,5.138,7.307,7.235,11.166    c0.589,1.082,3.22,4.597,2.954,5.746c-0.253,1.099-5.222,4.706-6.133,5.608c-3.121,3.084-6.835,7.849-11.106,9.331    c-4.371-5.495-6.977-13.021-12.558-17.487c-4.712-3.77-11.652-3.546-17.549-3.854c-6.698-0.352-10.382,3.62-13.975,8.987    c-1.566,2.341-2.483,6.156-4.775,6.392c-2.248,0.229-7.629-3.212-9.774-4.201c-2.109-0.972-4.555-1.914-6.049-3.674    c5.752-8.156,12.417-16.097,15.116-25.837c5.895,0.192,13.581-1.993,19.355-3.164c4.469-0.907,12.208-3.749,16.244-1.782    L177.879,413.754z"
         id="path91" /><path
         fill="#FFD5AD"
         d="M158.526,372.168c9.386,3.317,19.252,4.395,28.626,7.694c3.85,1.353,18.185,4.702,21.606,4.715    c1.661,0.007,2.871-1.935,1.945-3.389c-1.557-2.444,1.68-1.723,3.71-2.066c1.335-0.224,2.185-2.211,1.346-3.309    c-2.934-3.84-5.51-4.459-10.2-2.541c-11.381,4.65-26.924-1.467-37.077-7.118c-1.533-0.854-2.948,0.228-3.289,1.526    c-2.021-0.205-4.045-0.215-6.069,0.062C156.553,367.92,156.102,371.312,158.526,372.168z"
         id="path93" /><path
         fill="#FFAD32"
         d="M648.623,465.587c1.817,1.724,4.734,3.88,5.873,5.93c-3.682,4.232-8.112,13.322-14.219,14.052    c-0.07-3.498,3.453-10.55,5.622-13.118c-1.262-1.338-3.07-3.054-3.897-4.616L648.623,465.587z"
         id="path95" /><path
         fill="#63C8DD"
         d="M140.526,357.815c3.293-2.455,9.88,0.86,13.172,2.048c3.979,1.436,8.086,2.813,12.168,3.521    c1.632,0.282,4.19,0.238,5.631,1.188c2.508,1.652,0.588,3.878-0.633,6.461c-1.041,2.204-1.534,4.472-3.59,4.863    c-1.832,0.35-5.215-1.067-7.017-1.434c3.519,5.708,7.373,11.211,10.677,17.143c2.526,4.53,2.052,11.565,5.337,15.124    c1.388,1.51,6.282,2.336,6.854,4.012c0.908,2.675-5.273,6.692-7.123,7.893c-7.505,4.87-15.299,6.766-23.941,8.164    c-6.392,1.033-12.661,0.66-19.137,0.295c-3.741-0.211-8.775-0.721-11.784-3.181c0.649-2.138,2.27-4.048,2.493-6.406    c0.246-2.648-1.007-5.173-1.91-7.536c-2.006-5.261-4.756-10.488-5.117-16.299c-0.864,1.218-1.815,2.275-2.604,3.528    c-3.755-2.015-12.954-6.221-13.807-10.948c-0.752-4.157,5.754-9.614,7.952-12.938c1.468-2.22,2.737-4.56,4.23-6.771    c1.197-1.77,1.991-4.775,3.647-6.201c4.54-3.909,10.129,5.358,14.656,6.192c3.148,0.581,7.521-4.271,5.904-6.467L140.526,357.815z    "
         id="path97" /><path
         fill="#FFD5AD"
         d="M138.273,356.125c2.86,6.172,0.851,15.079-7.321,14.093c-7.822-0.946-9.179-7.078-12.952-12.686    L138.273,356.125z"
         id="path99" /><path
         opacity="0.43"
         fill="#FFD5AD"
         d="M138.273,356.125c2.86,6.172,0.851,15.079-7.321,14.093    c-7.822-0.946-9.179-7.078-12.952-12.686L138.273,356.125z"
         id="path101" /><path
         fill="#FFD5AD"
         d="M147.847,314.642c10.475,12.371,9.912,28.818-0.471,40.461c-8.893,9.975-24.152,12.27-36.395,7.53    c-17.213-6.668-29.927-26.92-13.834-41.981c10.281-9.626,26.165-17.478,40.564-15.028c0.682,0.117,2.977,0.953,2.627,0.761    L147.847,314.642z"
         id="path103" /><path
         fill="#A55A37"
         d="M198.527,471.566c-1.186,0.409-1.801,0.585-3.128,0.559c-1.122,4.087-1.949,8.302,2.565,8.732    c4.138,0.396,8.046-0.031,12.063,0.238c0.939-5.341-10.022-7.333-10.257-10.585L198.527,471.566z"
         id="path105" /><path
         fill="#A55A37"
         d="M119.409,473.678c0.108,1.838,1.755,3.167,1.83,5.064c0.048,1.245,0.325,3.238-1.126,3.594    c-1.028,0.255-2.064,0.026-3.111,0.071c-1.232,0.048-2.459,0.22-3.698,0.122c-1.713-0.131-3.44-0.329-5.147-0.527    c-0.629-0.07-1.244-0.185-1.878-0.246c-0.266-0.022-0.77,0.035-1.023-0.049c-2.094-0.73,4.157-4.394,4.731-4.716    c1.866-1.025,4.536-2.336,5.139-4.575c0.57,0.572,1.109,0.871,1.96,0.91c0.451,0.018,2.238,0.021,2.44-0.273L119.409,473.678z"
         id="path107" /><path
         fill="#FF792D"
         d="M162.873,321.859c-3.209,7.58-13.876,6.242-19.883,3.029c-4.998-2.675-8.566-7.408-13.37-10.31    c-3.418,3.409-5.796,6.654-10.413,8.543c-2.512,1.027-2.787,0.552-3.772,3.029c-1.163,2.926-2.321,5.879-3.546,8.786    c-2.692,6.392-6.69,11.093-12.62,14.625c-1.661,0.988-4.047,2.486-6.071,2.068c-1.995-0.414-2.831-3.847-4.545-5.735    c-2.026-2.235-1.57-2.565-2.01-5.358c-0.288-1.835,0.301-0.887-1.257-2.075c-1.212-0.922-2.503-1.208-3.547-2.455    c-3.467-4.144-2.279-8.671,1.72-11.431c2.273-1.569,2.05-1.025,2.081-4.23c0.026-2.413,0.609-5.448,1.824-7.572    c1.337-2.34,3.513-2.831,5.44-4.291c2.255-1.709,2.664-4.965,3.911-7.824c1.533-3.521,7.974-5.979,11.293-3.132    c2.29-4.063,5.71-7.43,10.343-8.737c5.208-1.469,4.685,2.174,8.317,4.305c1.819,1.067,3.214-0.218,4.998-0.833    c2.433-0.84,4.151-0.939,6.443,0.321c3.993,2.195,3.799,4.481,4.006,8.546c3.509,0.328,7.391-0.044,8.986,4.074    c1.166,3.005-1.021,4.996,2.783,5.497c2.591,0.343,4.182-0.222,5.118,3.086c0.348,1.229-0.301,2.853,0.486,3.741    c0.995,1.122,2.813,0.097,3.539,2.064L162.873,321.859z"
         id="path109" /><path
         fill="#93A7AB"
         d="M396.856,391.049c-0.246-5.074-0.979-9.852-2.752-14.652c-0.768-2.079-2.886-6.617-5.015-8.966    c1.624-4.85,2.389-10.644,2.026-15.103c-0.308-3.766-1.427-7.567-3.928-10.514c-0.737-0.869-2.361-2.631-3.761-2.032    c-0.653,0.279-1.12,1.861-1.448,2.439c-0.262-0.653-0.68-0.757-1.177-1.089c-3.528,4.318-4.688,9.973-4.12,15.411    c0.326,3.104,1.445,5.794,2.853,8.596c0.579,1.153,1.986,3.755,3.405,5.53c-1.04,4.322-3.554,8.486-4.96,12.761    c-1.447,4.39-2.406,10.536-1.696,15.199c0.904,5.926,4.209,9.969,6.692,14.998c1.471,2.978,4.109,6.634,4.914,9.771    c3.885-2.336,5.539-10.475,7.054-14.474C397.249,402.84,397.168,397.451,396.856,391.049z"
         id="path111" /></g></g><g
     id="object"
     display="none"><g
       display="inline"
       id="g114"><path
         fill="#F1B085"
         d="M573.344,266.058c15.142,10.313-11.259-63.371-11.259-63.371s-10.52-16.46-79.204-6.277    c-48.336,7.166-68.373,20.178-77.671,20.178c-9.299,0-28.236-2.082-40.66-2.082c-12.424,0-28.566,3.464-44.813,9.626    c-20.682,7.843-13.931,24.189-4.63,23.529c6.246-0.443,7.872-3.387,13.034-3.839c-4.631,3.639-40.775,18.054-44.658,39.577    c-3.883,21.523,9.191,18.259,17.306,8.968c8.115-9.291,26.974-27.415,34.15-25.566c-2.55,3.373-21.316,17.519-30.818,37.248    c-14.838,30.807,5.097,34.265,13.25,27.988c8.153-6.277,23.34-37.848,33.303-46.901c11.706-10.637,25.015-14.673,27.961-13.171    c-10.227,11.644-15.781,14.348-26.691,39.003c-14.817,33.484-11.433,49.9-6.774,57.971c4.659,8.07,13.007,2.466,16.112-1.569    c3.106-4.035,6.707-35.708,19.483-56.148c12.776-20.44,38.474-39.497,48.34-24.414c8.642,13.21-2.133,23.943-4.075,40.085    c-1.941,16.142-6.133,48.481,6.988,50.844c19.735,3.554,13.288-64.353,32.7-75.115c19.413-10.761,35.918-30.944,42.518-47.534    C519.273,255.536,558.201,255.746,573.344,266.058z"
         id="path116" /><g
         id="g118"><path
           fill="#DD532F"
           d="M438.61,366.963c-69.209-30.587-135.324-4.018-135.324-4.018s-10.052-36.617-32.285-30.141     c-22.232,6.475-10.894,54.591-10.052,58.718c-11.6,4.687-30.738,39.741-30.738,39.741s-27.119,3.628-31.733,4.13     c-4.616,0.501-5.331,3.435-5.558,4.945c-8.376,55.528,14.553,75.203,22.944,80.433c1.808,1.126,3.195,1.635,6.545,0.344     c10.702-4.119,33.055-12.473,46.659-24.437c1.677,22.522-22.225,45.046-32.428,53.578c-2.743,2.294-3.627,4.023-1.471,7.57     c1.683,2.767,11.268,15.112,15.39,20.39c1.156,1.483,2.099,3.39,2.48,5.085c1.896,8.416,7.911,35.504,12.115,46.412     c1.166,3.029,2.055,4.894,7.596,4.894c5.542,0,27.835,0,32.349,0c5.671,0,5.833-6.595,5.833-6.595l2.987-23.723     c0,0,10.246,19.423,54.13,19.423c43.884,0,61.669-19.423,61.669-19.423s-5.616,25.237-4.991,22.366     c0.624-2.871-2.835,7.482,3.214,7.952c6.048,0.469,30.256,0,35.481,0c7.114,0,26.944-58.945,39.176-77.204     c25.133-37.507,20.492-85.285,17.592-95.332C517.291,452.026,507.82,397.549,438.61,366.963z"
           id="path120" /><g
           id="g122"><defs
             id="defs124"><path
               id="SVGID_1_"
               d="M573.142,426.875c0,86.997-74.41,172.458-201.046,172.458c-126.636,0-222.676-100.963-222.676-187.96       c0-86.995,96.04-137.045,222.676-137.045C498.732,274.329,573.142,339.88,573.142,426.875z" /></defs><clipPath
             id="SVGID_2_"><use
               xlink:href="#SVGID_1_"
               overflow="visible"
               id="use128" /></clipPath><path
             clip-path="url(#SVGID_2_)"
             fill="#DDA23D"
             d="M438.61,366.963c-69.209-30.587-135.324-4.018-135.324-4.018      s-10.052-36.617-32.285-30.141c-22.232,6.475-10.894,54.591-10.052,58.718c-11.6,4.687-30.738,39.741-30.738,39.741      s-27.119,3.628-31.733,4.13c-4.616,0.501-5.331,3.435-5.558,4.945c-8.376,55.528,14.553,75.203,22.944,80.433      c1.808,1.126,3.195,1.635,6.545,0.344c10.702-4.119,33.055-12.473,46.659-24.437c1.677,22.522-22.225,45.046-32.428,53.578      c-2.743,2.294-3.627,4.023-1.471,7.57c1.683,2.767,11.268,15.112,15.39,20.39c1.156,1.483,2.099,3.39,2.48,5.085      c1.896,8.416,7.911,35.504,12.115,46.412c1.166,3.029,2.055,4.894,7.596,4.894c5.542,0,27.835,0,32.349,0      c5.671,0,5.833-6.595,5.833-6.595l2.987-23.723c0,0,10.246,19.423,54.13,19.423c43.884,0,61.669-19.423,61.669-19.423      s-5.616,25.237-4.991,22.366c0.624-2.871-2.835,7.482,3.214,7.952c6.048,0.469,30.256,0,35.481,0      c7.114,0,26.944-58.945,39.176-77.204c25.133-37.507,20.492-85.285,17.592-95.332      C517.291,452.026,507.82,397.549,438.61,366.963z"
             id="path130" /><path
             clip-path="url(#SVGID_2_)"
             fill="#EF5A35"
             d="M438.61,366.963c-69.209-30.587-135.324-4.018-135.324-4.018      s-10.052-36.617-32.285-30.141c-22.232,6.475-10.894,54.591-10.052,58.718c-11.6,4.687-30.738,39.741-30.738,39.741      s-27.119,3.628-31.733,4.13c-4.616,0.501-5.331,3.435-5.558,4.945c-8.376,55.528,14.553,75.203,22.944,80.433      c1.808,1.126,3.195,1.635,6.545,0.344c10.702-4.119,33.055-12.473,46.659-24.437c1.677,22.522-22.225,45.046-32.428,53.578      c-2.743,2.294-3.627,4.023-1.471,7.57c1.683,2.767,11.268,15.112,15.39,20.39c1.156,1.483,2.099,3.39,2.48,5.085      c1.896,8.416,7.911,35.504,12.115,46.412c1.166,3.029,2.055,4.894,7.596,4.894c5.542,0,27.835,0,32.349,0      c5.671,0,5.833-6.595,5.833-6.595l2.987-23.723c0,0,10.246,19.423,54.13,19.423c43.884,0,61.669-19.423,61.669-19.423      s-5.616,25.237-4.991,22.366c0.624-2.871-2.835,7.482,3.214,7.952c6.048,0.469,30.256,0,35.481,0      c7.114,0,26.944-58.945,39.176-77.204c25.133-37.507,20.492-85.285,17.592-95.332      C517.291,452.026,507.82,397.549,438.61,366.963z"
             id="path132" /></g><path
           fill="#C54A29"
           d="M434.854,406.639c-1.027,0-2.07-0.243-3.068-0.757c-43.639-22.48-92.313-10.142-92.799-10.016     c-4.055,1.065-8.095-1.872-9.019-6.557c-0.924-4.684,1.61-9.346,5.666-10.418c2.181-0.574,53.951-13.815,102.295,11.089     c3.803,1.961,5.511,7.108,3.815,11.499C440.49,404.716,437.739,406.639,434.854,406.639z"
           id="path134" /><g
           id="g136"><defs
             id="defs138"><path
               id="SVGID_3_"
               d="M434.854,416.928c-1.027,0-2.07-0.242-3.068-0.757c-43.639-22.481-92.313-10.142-92.799-10.014       c-4.055,1.063-8.095-1.873-9.019-6.559c-0.924-4.685,1.61-9.346,5.666-10.417c2.181-0.575,53.951-13.817,102.295,11.087       c3.803,1.96,5.511,7.106,3.815,11.498C440.49,415.005,437.739,416.928,434.854,416.928z" /></defs><use
             xlink:href="#SVGID_3_"
             overflow="visible"
             fill="#EF5A35"
             id="use141" /><clipPath
             id="SVGID_4_"><use
               xlink:href="#SVGID_3_"
               overflow="visible"
               id="use144" /></clipPath><path
             clip-path="url(#SVGID_4_)"
             fill="#B24223"
             d="M434.854,406.639c-1.027,0-2.07-0.243-3.068-0.757      c-43.639-22.48-92.313-10.142-92.799-10.016c-4.055,1.065-8.095-1.872-9.019-6.557c-0.924-4.684,1.61-9.346,5.666-10.418      c2.181-0.574,53.951-13.815,102.295,11.089c3.803,1.961,5.511,7.108,3.815,11.499      C440.49,404.716,437.739,406.639,434.854,406.639z"
             id="path146" /></g><g
           id="g148"><ellipse
             fill="#FFFFFF"
             cx="285.887"
             cy="438.183"
             rx="18.233"
             ry="21.057"
             id="ellipse150" /><ellipse
             fill="#231F20"
             cx="285.887"
             cy="438.306"
             rx="9.897"
             ry="11.43"
             id="ellipse152" /><ellipse
             fill="#FFFFFF"
             cx="289.281"
             cy="430.796"
             rx="6.503"
             ry="7.51"
             id="ellipse154" /></g><path
           fill="none"
           d="M438.61,366.963c-69.209-30.587-135.324-4.018-135.324-4.018s-10.052-36.617-32.285-30.141     c-22.232,6.475-10.894,54.591-10.052,58.718c-11.6,4.687-30.738,39.741-30.738,39.741s-27.119,3.628-31.733,4.13     c-4.616,0.501-5.331,3.435-5.558,4.945c-8.376,55.528,14.553,75.203,22.944,80.433c1.808,1.126,3.195,1.635,6.545,0.344     c10.702-4.119,33.055-12.473,46.659-24.437c1.677,22.522-22.225,45.046-32.428,53.578c-2.743,2.294-3.627,4.023-1.471,7.57     c1.683,2.767,11.268,15.112,15.39,20.39c1.156,1.483,2.099,3.39,2.48,5.085c1.896,8.416,7.911,35.504,12.115,46.412     c1.166,3.029,2.055,4.894,7.596,4.894c5.542,0,27.835,0,32.349,0c5.671,0,5.833-6.595,5.833-6.595l2.987-23.723     c0,0,10.246,19.423,54.13,19.423c43.884,0,61.669-19.423,61.669-19.423s-5.616,25.237-4.991,22.366     c0.624-2.871-2.835,7.482,3.214,7.952c6.048,0.469,30.256,0,35.481,0c7.114,0,26.944-58.945,39.176-77.204     c25.133-37.507,19-90.652,16.1-100.699C515.798,446.659,507.82,397.549,438.61,366.963z"
           id="path156" /><path
           fill="#EF5A35"
           d="M500.581,453.398c-4.039,1.727-6.1,6.907-4.605,11.572c1.493,4.667,5.98,7.05,10.021,5.325     C510.598,468.332,500.949,453.241,500.581,453.398z"
           id="path158" /></g><g
         id="g160"><g
           id="g162"><g
             id="g164"><g
               id="g166"><ellipse
                 fill="#F5B244"
                 cx="389.742"
                 cy="361.83"
                 rx="42.813"
                 ry="49.444"
                 id="ellipse168" /><ellipse
                 fill="#DDA23D"
                 cx="389.742"
                 cy="361.83"
                 rx="32.928"
                 ry="38.028"
                 id="ellipse170" /><path
                 opacity="0.5"
                 fill="#FFFFFF"
                 d="M389.743,400.998c-18.701,0-33.917-17.57-33.917-39.169        c0-21.598,15.216-39.17,33.917-39.17c18.702,0,33.916,17.572,33.916,39.17C423.659,383.428,408.445,400.998,389.743,400.998z         M389.743,324.943c-17.611,0-31.94,16.547-31.94,36.886c0,20.339,14.328,36.886,31.94,36.886        c17.612,0,31.94-16.547,31.94-36.886C421.682,341.49,407.355,324.943,389.743,324.943z"
                 id="path172" /></g><g
               opacity="0.8"
               id="g174"><path
                 fill="#FFFFFF"
                 d="M405.468,350.508c0,2.073-1.033,3.768-2.882,3.768c-2.937,0-5.058-6.343-10.06-6.343        c-1.577,0-2.936,0.879-2.936,2.888c0,6.029,16.586,2.45,16.586,16.895c0,8.226-7.722,12.623-11.692,13.001        c-1.305,0.125-1.142,0.627-1.142,2.134c0,3.078-0.163,3.016-2.829,3.016c-2.501,0-3.153,0.44-3.153-2.764        c0-1.005,0.273-2.196-0.815-2.323c-2.067-0.314-6.309-1.382-7.886-2.7c-1.903-1.634-2.99-7.224-2.99-9.736        c0-1.443,0.543-2.951,1.957-2.951c3.753,0,2.991,8.792,11.42,8.792c1.197,0,3.97-0.628,3.97-2.7        c0-1.885-0.489-2.26-6.363-4.711c-4.948-2.01-10.114-5.965-10.114-12.749c0-6.28,4.404-11.304,9.571-12.497        c1.413-0.314,1.25-0.502,1.25-2.199c0-3.14,0.163-3.014,2.828-3.014c2.555,0,3.154-0.44,3.154,2.763        c0,0.879-0.271,2.136,0.707,2.386c0.707,0.126,3.425,0.942,3.751,0.942c0.654,0,1.469-0.627,2.447-0.627        C402.259,341.779,405.468,346.615,405.468,350.508z"
                 id="path176" /></g></g></g><path
           fill="#EF5A35"
           d="M332.753,394.099c0,0,20.116-5.729,46.596-5.729c26.48,0,59.367,17.797,59.367,17.797l-12.282,39.131     l-90.79-28.962L332.753,394.099z"
           id="path178" /></g><g
         id="g180"><path
           fill="#0C5054"
           d="M705.268,184.088l-206.334,4.626c0,0-2.696,0.572-2.696,2.225c0,1.416,4.214,69.647,5.422,89.167     c0.202,3.264-0.103,5.203,4.218,5.203c4.321,0,195.724,1.926,195.724,1.926L705.268,184.088z"
           id="path182" /></g><path
         fill="#F1B085"
         d="M358.844,296.889c-2.094,3.76-4.35,8.313-6.901,14.078c-14.817,33.484-11.433,49.9-6.774,57.971    c4.659,8.07,13.007,2.466,16.112-1.569c3.106-4.035,6.707-35.708,19.483-56.148c2.722-4.354,6.031-8.645,9.648-12.557    C380.009,297.158,369.439,296.188,358.844,296.889z"
         id="path184" /><path
         fill="#F1B085"
         d="M428.029,314.698c-1.275,3.768-2.468,7.778-2.999,12.194c-0.212,1.767-0.452,3.728-0.693,5.822    c5.163,8.168,8.218,18.228,8.218,29.116c0,5.391-0.757,10.575-2.138,15.433c0.503,0.21,1.035,0.372,1.602,0.474    c14.548,2.62,13.975-30.361,20.444-52.191C444.441,321.565,436.378,317.784,428.029,314.698z"
         id="path186" /><path
         fill="#EF5A35"
         d="M505.665,456.49c-1.001-0.49-1.982-1.038-2.94-1.645c-2.451-1.548-3.35-5.098-2.008-7.929    c1.34-2.831,4.422-3.857,6.865-2.32c5.002,3.161,11.092,4.081,15.963,2.429c-4.961-6.056-6.375-13.991-3.852-22.358    c2.829-9.384,7.154-11.977,10.285-12.499c3.82-0.638,7.562,1.49,10.264,5.839c3.534,5.688,5.454,16.095,1.319,25.502    c-0.169,0.388-0.345,0.769-0.526,1.143c3.639,0.682,7.074,0.221,8.861-1.281c2.258-1.9,5.423-1.324,7.067,1.283    c1.645,2.609,1.147,6.263-1.111,8.163c-5.443,4.575-14.521,4.947-22.392,1.561c-2.022,1.608-4.267,2.863-6.709,3.736    C520.172,460.463,512.498,459.835,505.665,456.49z M531.348,423.936c-0.414,0.478-1.237,1.709-2.101,4.571    c-1.381,4.582-0.576,8.322,2.465,11.395c0.294-0.535,0.57-1.095,0.827-1.682c1.483-3.378,1.67-7.539,0.5-11.135    C532.489,425.393,531.786,424.374,531.348,423.936z"
         id="path188" /><rect
         x="121.246"
         y="107.019"
         fill="none"
         width="493.91"
         height="570.408"
         id="rect190" /></g></g><rect
     style="fill:#efe2c2;fill-opacity:0;filter:url(#filter8459)"
     id="rect8453"
     width="711.86438"
     height="661.01697"
     x="57.627117"
     y="54.237289"
     rx="1.5423501"
     ry="1.1428601" /><g
     inkscape:groupmode="layer"
     id="layer2"
     inkscape:label="Layer 2"
     style="display:inline"><rect
       style="fill:#800000;fill-opacity:0"
       id="rect8566"
       width="450.8475"
       height="606.77966"
       x="84.745766"
       y="-3.3898263"
       rx="1.5423501"
       ry="1.1428601" /></g><g
     inkscape:groupmode="layer"
     id="layer1"
     inkscape:label="Layer 1"
     style="display:inline"><g
       id="Capa_5"
       transform="matrix(0.7408802,0,0,0.6832023,95.173343,84.726977)"><g
         id="g193"><path
           d="m 668.183,448.65 c 0,11.939 -9.678,21.617 -21.617,21.617 l -125.647,0 c -11.939,0 -21.617,-9.678 -21.617,-21.617 l 0,-125.647 c 0,-11.939 9.678,-21.617 21.617,-21.617 l 125.647,0 c 11.939,0 21.617,9.678 21.617,21.617 l 0,125.647 z"
           id="path195"
           inkscape:connector-curvature="0"
           style="fill:#00d0ce" /><path
           d="m 583.742,301.386 -62.824,0 c -11.939,0 -21.617,9.678 -21.617,21.617 l 0,125.647 c 0,11.939 9.678,21.617 21.617,21.617 l 62.824,0 0,-168.881 z"
           id="path197"
           inkscape:connector-curvature="0"
           style="fill:#009db3" /><path
           d="m 484.44,631.042 c 0,11.939 -9.678,21.617 -21.617,21.617 l -125.647,0 c -11.939,0 -21.617,-9.678 -21.617,-21.617 l 0,-125.648 c 0,-11.939 9.678,-21.617 21.617,-21.617 l 125.647,0 c 11.939,0 21.617,9.678 21.617,21.617 l 0,125.648 z"
           id="path199"
           inkscape:connector-curvature="0"
           style="fill:#ff3c07" /><path
           d="m 400,483.778 -62.824,0 c -11.939,0 -21.617,9.678 -21.617,21.617 l 0,125.647 c 0,11.939 9.678,21.617 21.617,21.617 l 62.824,0 0,-168.881 z"
           id="path201"
           inkscape:connector-curvature="0"
           style="fill:#ff7a2d" /><g
           id="g203"><path
             d="m 300.698,264.908 c 0,11.939 -9.678,21.617 -21.617,21.617 l -125.647,0 c -11.939,0 -21.617,-9.678 -21.617,-21.617 l 0,-125.647 c 0,-11.939 9.678,-21.617 21.617,-21.617 l 125.647,0 c 11.939,0 21.617,9.678 21.617,21.617 l 0,125.647 z"
             id="path205"
             inkscape:connector-curvature="0"
             style="fill:#00d0ce" /><path
             d="m 216.258,117.644 -62.824,0 c -11.939,0 -21.617,9.678 -21.617,21.617 l 0,125.647 c 0,11.939 9.678,21.617 21.617,21.617 l 62.824,0 0,-168.881 z"
             id="path207"
             inkscape:connector-curvature="0"
             style="fill:#009db3" /><path
             d="m 249.692,149.636 0,-7.109 -66.869,0 0,7.109 -18.525,0 0.853,14.024 c 0.837,13.751 8.515,26.165 20.447,33.049 l 11.065,6.383 c 2.51,3.173 5.307,6.036 8.388,8.479 l 0.02,0.016 c 0.168,2.483 0.516,8.734 -0.076,10.863 -0.744,2.679 -1.488,38.549 -1.488,38.549 l 24.707,0 0,-34.382 0,-13.247 c 0,0 0.93,-2.436 2.275,-4.544 1.446,-2.303 3.232,-4.535 5.361,-5.735 l 11.065,-6.383 c 11.93,-6.884 19.611,-19.298 20.447,-33.049 l 0.854,-14.024 -18.524,0 z m -74.129,17.482 -0.446,-7.299 7.706,0 0,1.19 c 0,8.71 1.526,17.155 4.328,24.834 -6.764,-3.898 -11.114,-10.933 -11.588,-18.725 z m 81.389,0 c -0.475,7.792 -4.826,14.827 -11.588,18.725 2.801,-7.679 4.328,-16.124 4.328,-24.834 l 0,-1.19 7.706,0 -0.446,7.299 z"
             id="path209"
             inkscape:connector-curvature="0"
             style="fill:#ffc900" /><path
             d="m 194.817,182.016 c -2.481,-8.918 -2.565,-18.121 -2.643,-26.242 -0.016,-1.874 1.49,-3.406 3.363,-3.426 1.706,-0.007 3.406,1.488 3.426,3.364 0.071,7.699 0.155,16.426 2.396,24.483 0.5,1.806 -0.555,3.679 -2.361,4.18 -0.304,0.084 -0.607,0.124 -0.911,0.124 -1.487,0 -2.851,-0.982 -3.27,-2.483 z"
             id="path211"
             inkscape:connector-curvature="0"
             style="fill:#ffe15c" /><circle
             cx="201.485"
             cy="189.873"
             r="3.536"
             id="circle213"
             style="fill:#ffe15c" /><path
             d="m 209.915,238.762 c 0,-3.298 -1.945,-6.12 -4.737,-7.45 2.7,-1.363 4.57,-4.128 4.57,-7.357 0,-4.564 -3.704,-8.268 -8.268,-8.268 -4.564,0 -6.346,3.704 -6.346,8.268 0,3.306 0.952,6.136 3.2,7.46 -2.121,1.364 -3.032,4.126 -3.032,7.346 0,3.189 0.897,5.927 2.978,7.306 -2.081,1.376 -2.978,4.115 -2.978,7.306 0,4.566 1.779,8.268 6.345,8.268 4.564,0 8.268,-3.702 8.268,-8.268 0,-3.191 -1.83,-5.931 -4.477,-7.306 2.647,-1.378 4.477,-4.116 4.477,-7.305 z"
             id="path215"
             inkscape:connector-curvature="0"
             style="fill:#ff9557" /><path
             d="m 221.192,226.63 c 1.402,2.032 1.666,4.644 0.702,6.92 -1.606,3.798 -0.357,9.443 -0.357,14.488 0,6.124 0.857,10.785 3.61,13.517 l 19.515,0 c 11.526,-7.357 2.267,-27.266 -3.151,-31.578 -9.667,-7.69 -13.174,-15.92 -13.269,-16.169 -1.183,-3.222 -4.741,-4.888 -7.978,-3.724 -3.242,1.168 -4.922,4.745 -3.757,7.988 0.095,0.263 1.403,3.795 4.685,8.558 z"
             id="path217"
             inkscape:connector-curvature="0"
             style="fill:#ff9557" /></g><g
           id="g219"><path
             d="m 668.183,264.908 c 0,11.939 -9.678,21.617 -21.617,21.617 l -125.647,0 c -11.939,0 -21.617,-9.678 -21.617,-21.617 l 0,-125.647 c 0,-11.939 9.678,-21.617 21.617,-21.617 l 125.647,0 c 11.939,0 21.617,9.678 21.617,21.617 l 0,125.647 z"
             id="path221"
             inkscape:connector-curvature="0"
             style="fill:#ff9557" /><path
             d="m 583.742,117.644 -62.824,0 c -11.939,0 -21.617,9.678 -21.617,21.617 l 0,125.647 c 0,11.939 9.678,21.617 21.617,21.617 l 62.824,0 0,-168.881 z"
             id="path223"
             inkscape:connector-curvature="0"
             style="fill:#ff7b00" /><path
             d="m 607.813,210.237 -25.295,14.792 c -8.166,-5.005 -23.677,-13.614 -23.677,-13.614 l -28.034,27.326 22.404,0.494 0.499,22.409 30.035,-29.882 c 3.59,3.442 7.901,7.531 7.783,7.633 l 22.244,22.249 0.499,-22.409 22.404,-0.494 -28.862,-28.504 z"
             id="path225"
             inkscape:connector-curvature="0"
             style="fill:#ffc900" /><path
             d="m 602.092,212.929 -19.573,12.1 c -8.166,-5.005 -19.133,-12.1 -19.133,-12.1 l -26.253,25.916 16.079,0.389 0.413,12.737 25.748,-25.58 c 3.59,3.442 8.028,0.067 7.91,0.168 l 26.589,26.926 0.401,-14.252 15.25,-0.389 -27.431,-25.915 z"
             id="path227"
             inkscape:connector-curvature="0"
             style="fill:#ff3c07" /><path
             d="m 598.49,226.672 8.636,1.423 c 1.447,0.239 2.926,-0.113 4.114,-0.973 1.186,-0.864 1.975,-2.164 2.195,-3.616 l 1.304,-8.641 c 0.261,-1.725 1.345,-3.217 2.908,-4.001 l 7.821,-3.914 c 1.311,-0.654 2.302,-1.812 2.756,-3.202 0.454,-1.394 0.33,-2.912 -0.343,-4.212 l -4.021,-7.774 c -0.802,-1.55 -0.802,-3.387 0,-4.938 l 4.021,-7.773 c 0.673,-1.3 0.797,-2.817 0.343,-4.212 -0.454,-1.39 -1.445,-2.549 -2.756,-3.203 l -7.821,-3.914 c -1.563,-0.784 -2.647,-2.277 -2.908,-4.005 l -1.304,-8.638 c -0.219,-1.452 -1.009,-2.752 -2.195,-3.616 -1.187,-0.861 -2.667,-1.213 -4.114,-0.973 l -8.636,1.424 c -1.723,0.283 -3.473,-0.283 -4.698,-1.525 l -6.15,-6.23 c -1.029,-1.045 -2.434,-1.634 -3.899,-1.634 -1.463,0 -2.869,0.588 -3.898,1.634 l -6.151,6.23 c -1.225,1.242 -2.975,1.808 -4.698,1.525 l -8.636,-1.424 c -1.445,-0.239 -2.926,0.113 -4.114,0.973 -1.186,0.864 -1.975,2.164 -2.195,3.616 l -1.304,8.641 c -0.261,1.725 -1.345,3.217 -2.908,4.001 l -7.821,3.914 c -1.311,0.654 -2.302,1.812 -2.756,3.203 -0.454,1.394 -0.33,2.912 0.343,4.212 l 4.021,7.773 c 0.802,1.55 0.802,3.387 0,4.938 l -4.021,7.774 c -0.674,1.3 -0.797,2.817 -0.343,4.212 0.454,1.39 1.445,2.549 2.756,3.202 l 7.821,3.914 c 1.563,0.785 2.647,2.277 2.908,4.005 l 1.304,8.638 c 0.22,1.452 1.009,2.752 2.195,3.616 1.187,0.86 2.669,1.212 4.114,0.973 l 8.636,-1.423 c 1.723,-0.283 3.473,0.283 4.698,1.525 l 6.151,6.23 c 1.029,1.046 2.435,1.634 3.898,1.634 1.465,0 2.87,-0.588 3.899,-1.634 l 6.15,-6.23 c 1.225,-1.242 2.975,-1.808 4.698,-1.525 z"
             id="path229"
             inkscape:connector-curvature="0"
             style="fill:#009db3" /><g
             id="g231"><path
               d="m 583.741,220.917 c -17.888,0 -32.443,-14.555 -32.443,-32.441 0,-17.89 14.555,-32.445 32.443,-32.445 17.89,0 32.445,14.555 32.445,32.445 0,17.886 -14.555,32.441 -32.445,32.441 z"
               id="path233"
               inkscape:connector-curvature="0"
               style="fill:#ff7b00" /></g><g
             id="g235"><path
               stroke-miterlimit="10"
               d="m 583.742,214.146 c -14.155,0 -25.672,-11.517 -25.672,-25.67 0,-14.156 11.517,-25.673 25.672,-25.673 14.156,0 25.674,11.517 25.674,25.673 -0.001,14.153 -11.518,25.67 -25.674,25.67 z"
               id="path237"
               inkscape:connector-curvature="0"
               style="fill:none;stroke:#09a3b1;stroke-width:5;stroke-miterlimit:10" /><path
               d="m 583.742,214.146 c -14.155,0 -25.672,-11.517 -25.672,-25.67 0,-14.156 11.517,-25.673 25.672,-25.673 14.156,0 25.674,11.517 25.674,25.673 -0.001,14.153 -11.518,25.67 -25.674,25.67 z"
               id="path239"
               inkscape:connector-curvature="0"
               style="fill:#ffcf00" /></g><polygon
             points="572.217,179.051 572.306,179.051 572.306,202.015 578.86,202.015 578.86,173.03 573.243,173.03 565.573,176.6 566.688,181.683 "
             id="polygon241"
             style="fill:#009db3" /><path
             d="m 597.626,180.931 -4.916,1.122 0,3.5 -2.144,0 c 0,0 -2.191,-0.363 -3.537,-0.363 -3.992,0 -6.564,2.273 -6.564,5.279 -0.033,1.91 1.255,3.725 4.586,4.847 1.88,0.628 2.374,1.024 2.374,1.848 0,0.828 -0.626,1.35 -2.144,1.35 -1.485,0 -3.399,-0.657 -4.321,-1.22 l -0.891,3.594 c 1.22,0.661 3.101,1.125 5.212,1.125 4.618,0 6.994,-2.211 6.994,-5.214 -0.033,-2.375 -1.32,-3.925 -4.388,-4.981 -1.981,-0.694 -2.607,-1.089 -2.607,-1.848 0,-0.824 0.693,-1.318 1.913,-1.318 1.387,0 3.584,0.592 3.584,0.592 l 1.931,0 0,6.597 c 0,2.28 0.463,3.831 1.387,4.785 0.792,0.828 2.144,1.387 3.761,1.387 1.418,0 2.605,-0.167 3.266,-0.428 l -0.035,-3.794 c -0.361,0.065 -0.857,0.131 -1.483,0.131 -1.518,0 -1.981,-0.89 -1.981,-2.836 l 0,-5.842 3.596,0 0,-3.693 -3.596,0 0,-4.62 z"
             id="path243"
             inkscape:connector-curvature="0"
             style="fill:#009db3" /></g><g
           id="g245"><path
             d="m 300.698,631.042 c 0,11.939 -9.678,21.617 -21.617,21.617 l -125.647,0 c -11.939,0 -21.617,-9.678 -21.617,-21.617 l 0,-125.648 c 0,-11.939 9.678,-21.617 21.617,-21.617 l 125.647,0 c 11.939,0 21.617,9.678 21.617,21.617 l 0,125.648 z"
             id="path247"
             inkscape:connector-curvature="0"
             style="fill:#ffc900" /><path
             d="m 216.258,483.778 -62.824,0 c -11.939,0 -21.617,9.678 -21.617,21.617 l 0,125.647 c 0,11.939 9.678,21.617 21.617,21.617 l 62.824,0 0,-168.881 z"
             id="path249"
             inkscape:connector-curvature="0"
             style="fill:#ffe15c" /><circle
             cx="216.173"
             cy="568.841"
             r="37.856998"
             id="circle251"
             style="fill:#ffc900" /><path
             d="m 188.953,607.962 6.343,-1.047 -10.874,0 c 1.318,0.927 2.941,1.306 4.531,1.047 z"
             id="path253"
             inkscape:connector-curvature="0"
             style="fill:#09a4b2" /><path
             d="m 203.938,608.078 6.909,6.998 c 1.159,1.176 2.741,1.837 4.387,1.837 1.642,0 3.228,-0.661 4.38,-1.837 l 6.913,-6.998 c 0.495,-0.502 1.076,-0.866 1.692,-1.162 l -25.976,0 c 0.619,0.295 1.2,0.66 1.695,1.162 z"
             id="path255"
             inkscape:connector-curvature="0"
             style="fill:#009db3" /><path
             d="m 241.512,607.962 c 1.589,0.259 3.217,-0.121 4.53,-1.047 l -10.874,0 6.344,1.047 z"
             id="path257"
             inkscape:connector-curvature="0"
             style="fill:#09a4b2" /><path
             d="m 170.147,566.724 c 0.902,1.742 0.902,3.813 0,5.55 l -2.851,5.505 12.655,0 c -0.77,-2.945 -1.223,-6.018 -1.223,-9.203 0,-20.127 16.375,-36.504 36.506,-36.504 20.131,0 36.502,16.376 36.502,36.504 0,3.185 -0.453,6.258 -1.223,9.203 l 12.655,0 -2.854,-5.505 c -0.91,-1.737 -0.91,-3.807 0,-5.55 l 4.523,-8.737 c 0.755,-1.459 0.891,-3.162 0.381,-4.729 -0.51,-1.567 -1.631,-2.866 -3.096,-3.602 l -8.785,-4.399 c -1.763,-0.883 -2.983,-2.565 -3.281,-4.498 l -1.461,-9.712 c -0.238,-1.631 -1.129,-3.098 -2.465,-4.059 -1.329,-0.97 -2.994,-1.363 -4.617,-1.097 l -9.711,1.603 c -1.933,0.315 -3.9,-0.323 -5.274,-1.72 l -6.913,-7.005 c -1.151,-1.167 -2.737,-1.829 -4.38,-1.829 -1.646,0 -3.228,0.663 -4.387,1.829 l -6.909,7.005 c -1.371,1.397 -3.345,2.035 -5.278,1.72 l -9.707,-1.603 c -1.623,-0.266 -3.292,0.126 -4.621,1.097 -1.337,0.961 -2.224,2.428 -2.465,4.059 l -1.465,9.712 c -0.294,1.933 -1.51,3.615 -3.273,4.498 l -8.785,4.399 c -1.473,0.736 -2.59,2.035 -3.096,3.602 -0.514,1.567 -0.378,3.27 0.381,4.729 l 4.517,8.737 z"
             id="path259"
             inkscape:connector-curvature="0"
             style="fill:#009db3" /><path
             d="m 245.284,577.779 c 0.91,-2.936 1.397,-6.049 1.397,-9.278 0,-17.299 -14.068,-31.371 -31.363,-31.371 -17.303,0 -31.375,14.072 -31.375,31.371 0,3.23 0.491,6.343 1.401,9.278 l 7.004,0 c -1.159,-2.872 -1.816,-5.996 -1.816,-9.278 0,-13.666 11.119,-24.783 24.787,-24.783 13.66,0 24.779,11.117 24.779,24.783 0,3.283 -0.657,6.407 -1.82,9.278 l 7.006,0 z"
             id="path261"
             inkscape:connector-curvature="0"
             style="fill:#009db3" /><polygon
             points="179.18,619.496 179.07,606.195 161.589,606.816 270.93,606.816 253.275,606.195 253.335,619.496 280.685,619.496 275.415,604.707 280.685,589.287 270.632,589.467 271.073,601.804 270.938,577.731 161.589,577.731 161.589,601.804 162.217,589.216 151.83,589.287 157.1,604.707 151.83,619.496 "
             id="polygon263"
             style="fill:#ff7b00" /><polygon
             points="161.589,606.698 179.18,619.496 178.819,606.698 "
             id="polygon265"
             style="fill:#ff3c07" /><polygon
             points="270.003,606.824 253.335,619.496 253.401,606.824 "
             id="polygon267"
             style="fill:#ff3c07" /></g><g
           id="g269"><path
             d="m 668.183,631.042 c 0,11.939 -9.678,21.617 -21.617,21.617 l -125.647,0 c -11.939,0 -21.617,-9.678 -21.617,-21.617 l 0,-125.648 c 0,-11.939 9.678,-21.617 21.617,-21.617 l 125.647,0 c 11.939,0 21.617,9.678 21.617,21.617 l 0,125.648 z"
             id="path271"
             inkscape:connector-curvature="0"
             style="fill:#ff7a2d" /><path
             d="m 583.742,483.778 -62.824,0 c -11.939,0 -21.617,9.678 -21.617,21.617 l 0,125.647 c 0,11.939 9.678,21.617 21.617,21.617 l 62.824,0 0,-168.881 z"
             id="path273"
             inkscape:connector-curvature="0"
             style="fill:#ff9557" /><path
             d="m 614.078,629.385 c 0,-4.944 -4.01,-8.952 -8.954,-8.952 l -0.521,0 0,-25.465 -13.285,-12.467 -3.63,0 0,-6.771 22.149,11.644 -4.978,-29.059 21.111,-20.581 -29.177,-4.245 -13.052,-26.438 -13.05,26.438 -29.177,4.241 21.111,20.584 -4.984,29.059 22.207,-11.674 0,6.801 -3.63,0 -13.288,12.467 0,25.465 -0.517,0 c -4.944,0 -8.954,4.008 -8.954,8.952 l 60.619,0 z"
             id="path275"
             inkscape:connector-curvature="0"
             style="fill:#ffd000" /><path
             d="m 576.218,582.501 15.101,0 13.285,12.467 0,25.465 c 0,0 4.428,-0.452 7.312,2.981 2.998,3.569 2.163,5.971 2.163,5.971 l -60.62,0 c 0,0 -0.32,-3.499 2.839,-6.657 2.953,-2.953 6.632,-2.295 6.632,-2.295 l 0,-25.465 13.288,-12.467 z"
             id="path277"
             inkscape:connector-curvature="0"
             style="fill:#009db3" /><g
             id="g279"><polygon
               points="562.93,594.883 562.93,594.902 604.604,594.902 604.604,594.883 591.319,582.417 576.218,582.417 "
               id="polygon281"
               style="fill:#00d0ce" /><path
               d="m 611.916,623.329 c -2.884,-3.433 -7.311,-2.981 -7.311,-2.981 l 0,-0.04 -41.675,0 0,0.04 c 0,0 -0.126,-0.022 -0.346,-0.04 l -1.141,0 c -1.343,0.093 -3.372,0.562 -5.145,2.335 -3.158,3.158 -2.839,6.657 -2.839,6.657 l 60.62,0 c -10e-4,0 0.835,-2.402 -2.163,-5.971 z"
               id="path283"
               inkscape:connector-curvature="0"
               style="fill:#00d0ce" /></g><polygon
             points="583.741,550.63 570.691,533.489 583.741,507.051 "
             id="polygon285"
             style="fill:#ffe15c" /><polygon
             points="583.741,550.63 562.625,558.315 541.514,537.731 "
             id="polygon287"
             style="fill:#ffe15c" /><polygon
             points="583.741,550.63 583.741,574.365 557.641,587.374 "
             id="polygon289"
             style="fill:#ffe15c" /><polygon
             points="625.971,537.734 596.793,533.489 583.741,550.63 "
             id="polygon291"
             style="fill:#ffe15c" /><polygon
             points="609.838,587.374 583.741,550.63 604.86,558.315 "
             id="polygon293"
             style="fill:#ffe15c" /><path
             d="M 562.93,594.968"
             id="path295"
             inkscape:connector-curvature="0"
             style="fill:#ffe266" /><path
             d="m 583.626,582.396 -7.408,0 -13.288,12.495 0,25.522 c 0,0 -3.679,-0.66 -6.632,2.3 -3.158,3.166 -2.839,6.672 -2.839,6.672 l 30.167,0 0,-46.989 z"
             id="path297"
             inkscape:connector-curvature="0"
             style="fill:#cff1f4;fill-opacity:0.3" /></g><path
           d="m 602.26,385.176 10.44,-6.03 c 18.16,-10.475 23.056,-32.911 15.925,-40.483 -4.183,-4.445 -8.767,-3.927 -13.307,-3.927 l 0,-6.705 -63.088,0 0,6.705 c -4.46,0 -9.085,-0.554 -13.304,3.927 -7.518,7.984 -1.659,30.341 15.921,40.483 l 10.44,6.03 c 4.37,5.513 7.525,7.689 13.225,12.207 l -0.004,5.87 c -10.239,1.739 -18.719,28.74 -23.018,37.837 -3.6,0 -6.519,2.92 -6.519,6.519 l 69.638,0 c 0,-3.599 -2.919,-6.519 -6.517,-6.519 l -0.038,0 c -4.3,-9.096 -12.779,-36.094 -23.016,-37.837 l -0.004,-5.87 c 5.723,-4.536 8.853,-6.695 13.226,-12.207 z m 13.058,-40.83 c 11.342,0 7.555,17.836 -4.083,24.555 3.098,-8.491 4.083,-16.304 4.083,-24.555 z m -63.088,0 c 0,8.342 1.01,16.129 4.083,24.555 -11.546,-6.668 -15.469,-24.555 -4.083,-24.555 z"
           id="path299"
           inkscape:connector-curvature="0"
           style="fill:#ffc900" /><path
           d="m 563.545,365.284 c -2.34,-8.414 -2.419,-17.095 -2.493,-24.759 -0.044,-4.284 6.364,-4.193 6.406,-0.055 0.069,7.263 0.146,15.495 2.262,23.1 1.137,4.08 -5.023,5.831 -6.175,1.714 z"
           id="path301"
           inkscape:connector-curvature="0"
           style="fill:#ffe15c" /><path
           d="m 566.5,372.7 c 0,-4.411 6.672,-4.408 6.672,0 0,4.408 -6.672,4.411 -6.672,0 z"
           id="path303"
           inkscape:connector-curvature="0"
           style="fill:#ffe15c" /><path
           d="m 606.089,342.388 c 0,0 -1.294,-5.647 -2.532,-6.886 -1.054,-1.054 -6.639,-2.285 -6.639,-2.285 0,0 5.678,-1.695 6.886,-2.903 1.085,-1.085 2.285,-6.268 2.285,-6.268 0,0 1.478,5.461 2.532,6.515 1.239,1.239 6.639,2.656 6.639,2.656 0,0 -5.508,1.278 -6.515,2.285 -1.286,1.285 -2.656,6.886 -2.656,6.886 z"
           id="path305"
           inkscape:connector-curvature="0"
           style="fill:#ffffff" /><path
           d="m 566.48,441.112 c 0,0 -1.214,-3.191 -2.037,-3.813 -0.701,-0.53 -4.06,-0.795 -4.06,-0.795 0,0 3.176,-1.45 3.783,-2.253 0.545,-0.721 0.825,-3.844 0.825,-3.844 0,0 1.306,3.067 2.007,3.597 0.823,0.622 4.09,1.011 4.09,1.011 0,0 -3.111,1.193 -3.617,1.863 -0.646,0.854 -0.991,4.234 -0.991,4.234 z"
           id="path307"
           inkscape:connector-curvature="0"
           style="fill:#ffffff" /><path
           d="m 599.061,346.673 c 0,0 -0.52,-2.269 -1.017,-2.767 -0.424,-0.423 -2.667,-0.918 -2.667,-0.918 0,0 2.281,-0.681 2.767,-1.166 0.436,-0.436 0.918,-2.518 0.918,-2.518 0,0 0.594,2.194 1.017,2.618 0.498,0.498 2.667,1.067 2.667,1.067 0,0 -2.213,0.513 -2.618,0.918 -0.516,0.515 -1.067,2.766 -1.067,2.766 z"
           id="path309"
           inkscape:connector-curvature="0"
           style="fill:#ffffff" /><path
           d="m 570.689,429.987 c 0,0 -0.52,-2.269 -1.017,-2.767 -0.423,-0.424 -2.667,-0.918 -2.667,-0.918 0,0 2.281,-0.681 2.767,-1.166 0.436,-0.436 0.918,-2.518 0.918,-2.518 0,0 0.594,2.194 1.017,2.618 0.498,0.498 2.667,1.067 2.667,1.067 0,0 -2.213,0.513 -2.618,0.918 -0.516,0.516 -1.067,2.766 -1.067,2.766 z"
           id="path311"
           inkscape:connector-curvature="0"
           style="fill:#ffffff" /><g
           id="g313"><path
             d="m 484.44,264.908 c 0,11.939 -9.678,21.617 -21.617,21.617 l -125.647,0 c -11.939,0 -21.617,-9.678 -21.617,-21.617 l 0,-125.647 c 0,-11.939 9.678,-21.617 21.617,-21.617 l 125.647,0 c 11.939,0 21.617,9.678 21.617,21.617 l 0,125.647 z"
             id="path315"
             inkscape:connector-curvature="0"
             style="fill:#bcbcbc" /><path
             d="m 400,117.644 -62.824,0 c -11.939,0 -21.617,9.678 -21.617,21.617 l 0,125.647 c 0,11.939 9.678,21.617 21.617,21.617 l 62.824,0 0,-168.881 z"
             id="path317"
             inkscape:connector-curvature="0"
             style="fill:#909090" /><path
             d="m 423.302,148.748 0,-4.959 -20.576,0.011 -26.08,0.011 0,4.963 -12.924,0.008 0.601,9.784 c 0.59,9.59 5.952,18.249 14.28,23.048 l 7.723,4.448 c 1.747,2.215 3.7,4.213 5.855,5.911 l 3.944,3.129 -0.019,6.262 c -7.562,1.285 -13.836,6.259 -17.013,12.996 l -4.817,0 0.004,5.239 51.492,-0.026 0,-5.24 -4.847,0 c -3.181,-6.729 -9.459,-11.695 -17.024,-12.976 l -0.026,-6.259 3.944,-3.13 c 2.147,-1.71 4.1,-3.704 5.852,-5.919 l 7.711,-4.463 c 8.323,-4.802 13.678,-13.474 14.257,-23.059 l 0.586,-9.784 -12.923,0.005 z m -51.713,12.223 -0.31,-5.09 5.37,-0.004 0,0.833 c 0.004,6.076 1.072,11.969 3.032,17.32 -4.719,-2.716 -7.763,-7.622 -8.092,-13.059 z m 56.781,-0.03 c -0.321,5.437 -3.357,10.347 -8.074,13.07 1.953,-5.359 3.017,-11.252 3.014,-17.327 l 0,-0.829 5.37,-0.004 -0.31,5.09 z"
             id="path319"
             inkscape:connector-curvature="0"
             style="fill:#ffc900" /><path
             d="m 432.253,246.963 0,-28.201 -64.506,0 0,28.201 c -6.247,0 -11.311,5.064 -11.311,11.311 l 0,3.828 87.128,0 0,-3.828 c 0,-6.248 -5.064,-11.311 -11.311,-11.311 z"
             id="path321"
             inkscape:connector-curvature="0"
             style="fill:#ff7a2d" /><rect
             x="383.823"
             y="229.59801"
             width="32.036999"
             height="21.599001"
             id="rect323"
             style="fill:#ff3c07" /><rect
             x="386.07501"
             y="231.116"
             width="27.533001"
             height="18.563"
             id="rect325"
             style="fill:#ff9557" /><path
             d="m 415.724,152.303 c 0,0 -0.722,-3.151 -1.413,-3.843 -0.588,-0.588 -3.705,-1.275 -3.705,-1.275 0,0 3.168,-0.946 3.843,-1.62 0.605,-0.605 1.275,-3.498 1.275,-3.498 0,0 0.825,3.048 1.413,3.636 0.691,0.691 3.705,1.482 3.705,1.482 0,0 -3.074,0.713 -3.636,1.275 -0.717,0.717 -1.482,3.843 -1.482,3.843 z"
             id="path327"
             inkscape:connector-curvature="0"
             style="fill:#ffffff" /><g
             id="g329"><path
               d="m 392.15,176.838 c 0,1.363 -1.105,2.472 -2.464,2.472 -1.363,0 -2.476,-1.105 -2.476,-2.468 0,-1.367 1.109,-2.469 2.472,-2.469 1.359,0 2.468,1.102 2.468,2.465 z"
               id="path331"
               inkscape:connector-curvature="0"
               style="fill:#ffe15c" /><path
               d="m 385.522,150.66 c 1.188,-0.004 2.371,1.034 2.39,2.341 0.052,5.374 0.112,11.464 1.681,17.085 0.347,1.262 -0.389,2.566 -1.643,2.917 -0.213,0.056 -0.426,0.089 -0.639,0.089 -1.038,0 -1.994,-0.683 -2.286,-1.736 -1.733,-6.218 -1.796,-12.637 -1.852,-18.302 -0.011,-1.307 1.038,-2.379 2.349,-2.394 z"
               id="path333"
               inkscape:connector-curvature="0"
               style="fill:#ffe15c" /></g></g><path
           d="m 361.511,529.871 c 0,0 -4.503,31.524 8.106,50.889 12.61,19.365 23.418,27.922 29.723,27.922 6.305,0 36.022,-16.719 37.379,-58.095 0.901,-27.471 -15.312,-29.273 -36.929,-29.723 -21.616,-0.45 -38.279,9.007 -38.279,9.007 z"
           id="path335"
           inkscape:connector-curvature="0"
           style="fill:#00d0ce" /><g
           id="g337"><path
             d="m 418.309,518.252 c -5.064,0 -31.557,0 -36.621,0 -26.243,0 -26.243,2.707 -26.243,36.162 0,5.005 0.643,10.389 1.821,15.848 l 11.53,0 c -1.338,-5.431 -2.125,-10.85 -2.125,-15.852 0,-6.885 0,-13.918 0.355,-18.739 0.244,-3.262 2.862,-5.826 6.129,-6.01 6.703,-0.379 50.503,-0.184 53.731,0.012 3.253,0.199 5.843,2.766 6.085,6.017 0.357,4.821 0.357,11.851 0.357,18.724 0,5.001 -0.787,10.42 -2.125,15.848 l 11.53,0 c 1.178,-5.459 1.819,-10.843 1.819,-15.848 0,-33.451 -0.003,-36.162 -26.243,-36.162 z"
             id="path339"
             inkscape:connector-curvature="0"
             style="fill:#009db3" /><path
             d="m 400,603.52 c -2.272,0 -4.544,-0.668 -6.781,-1.801 l -17.297,0 c 6.924,7.877 15.174,13.027 24.078,13.027 8.904,0 17.153,-5.15 24.078,-13.027 l -17.297,0 c -2.237,1.133 -4.509,1.801 -6.781,1.801 z"
             id="path341"
             inkscape:connector-curvature="0"
             style="fill:#009db3" /></g><polygon
           points="342.598,603.322 457.402,603.322 436.781,604.919 436.781,618.184 468.839,618.184 462.655,600.853 468.839,582.776 457.573,582.586 457.414,569.23 342.598,569.23 342.598,582.586 331.161,582.776 337.338,600.853 331.161,618.184 363.223,618.184 363.223,604.919 "
           id="polygon343"
           style="fill:#ffe15c" /><polygon
           points="363.005,603.328 363.223,618.184 343.345,603.328 "
           id="polygon345"
           style="fill:#ffc900" /><polygon
           points="436.568,603.279 436.698,618.184 456.489,603.279 "
           id="polygon347"
           style="fill:#ffc900" /><g
           id="g349"><path
             d="m 484.44,448.65 c 0,11.939 -9.678,21.617 -21.617,21.617 l -125.647,0 c -11.939,0 -21.617,-9.678 -21.617,-21.617 l 0,-125.647 c 0,-11.939 9.678,-21.617 21.617,-21.617 l 125.647,0 c 11.939,0 21.617,9.678 21.617,21.617 l 0,125.647 z"
             id="path351"
             inkscape:connector-curvature="0"
             style="fill:#ffe15c" /><path
             d="m 400,301.386 -62.824,0 c -11.939,0 -21.617,9.678 -21.617,21.617 l 0,125.647 c 0,11.939 9.678,21.617 21.617,21.617 l 62.824,0 0,-168.881 z"
             id="path353"
             inkscape:connector-curvature="0"
             style="fill:#ffc900" /><path
             d="m 402.878,403.071 0,-72.418 -15.612,0 c 0,0 -0.656,13.25 -13.382,19.679 -12.726,6.428 -17.973,7.084 -17.973,7.084 0,0 -3.673,30.305 4.985,44.999 8.658,14.694 41.982,0.656 41.982,0.656 z"
             id="path355"
             inkscape:connector-curvature="0"
             style="fill:#ffe15c" /><path
             d="m 400,444.717 c 7.189,-0.426 19.189,-8.097 25.312,-13.177 l -50.772,0 c 6.125,5.08 18.271,12.751 25.46,13.177 z"
             id="path357"
             inkscape:connector-curvature="0"
             style="fill:#ff7b00" /><path
             d="m 447.953,352.049 c -1.397,0.223 -2.819,0.369 -4.273,0.369 -14.945,0 -27.058,-12.109 -27.058,-27.052 l -33.244,0 c 0,14.943 -12.113,27.052 -27.054,27.052 -1.458,0 -2.878,-0.147 -4.275,-0.369 -0.898,5.506 -1.378,12.097 -1.378,20.027 0,7.075 2.454,19.322 4.994,27.423 l 8.201,0 c -2.688,-7.887 -5.334,-20.135 -5.334,-27.423 0,-4.311 0.152,-8.289 0.451,-11.894 15.556,-1.18 28.299,-12.594 31.487,-27.507 2.73,-0.011 5.998,-0.015 9.53,-0.015 l 0,66.694 45.385,0 c 2.541,-8.1 3.946,-20.203 3.946,-27.278 0,-7.93 -0.48,-14.521 -1.378,-20.027 z"
             id="path359"
             inkscape:connector-curvature="0"
             style="fill:#ff7b00" /><polygon
             points="368.538,446.287 368.538,433.537 348.716,432.004 451.286,432.004 431.464,433.537 431.464,446.287 462.279,446.287 456.339,429.625 462.279,412.252 450.803,412.252 451.449,426.353 451.295,399.231 348.716,399.231 348.716,426.353 349.197,412.252 337.721,412.252 343.661,429.625 337.721,446.287 "
             id="polygon361"
             style="fill:#00d0ce" /><polygon
             points="368.505,432.004 368.505,446.287 348.716,432.004 "
             id="polygon363"
             style="fill:#009db3" /><polygon
             points="431.215,431.934 431.215,446.287 450.501,431.934 "
             id="polygon365"
             style="fill:#009db3" /></g><g
           id="g367"><path
             d="m 300.698,448.65 c 0,11.939 -9.678,21.617 -21.617,21.617 l -125.647,0 c -11.939,0 -21.617,-9.678 -21.617,-21.617 l 0,-125.647 c 0,-11.939 9.678,-21.617 21.617,-21.617 l 125.647,0 c 11.939,0 21.617,9.678 21.617,21.617 l 0,125.647 z"
             id="path369"
             inkscape:connector-curvature="0"
             style="fill:#ff3c07" /><path
             d="m 216.258,301.386 -62.824,0 c -11.939,0 -21.617,9.678 -21.617,21.617 l 0,125.647 c 0,11.939 9.678,21.617 21.617,21.617 l 62.824,0 0,-168.881 z"
             id="path371"
             inkscape:connector-curvature="0"
             style="fill:#ff7a2d" /><g
             id="g373"><polygon
               points="207.789,326.378 164.293,326.378 196.233,379.378 196.072,379.645 236.814,384.122 271.391,326.498 227.898,326.498 217.98,343.293 "
               id="polygon375"
               style="fill:#00d0ce" /><polygon
               points="199.666,326.378 170.791,326.378 202.731,379.378 209.068,379.645 231.443,379.645 263.269,326.498 236.02,326.498 217.98,354.103 "
               id="polygon377"
               style="fill:#ff7a2d" /><polygon
               points="193.169,326.378 177.289,326.378 210.853,379.378 209.068,379.645 224.945,379.645 256.771,326.498 240.894,326.498 217.98,362.225 "
               id="polygon379"
               style="fill:#ffe15c" /><path
               d="m 218.096,373.782 c -22.525,0 -40.854,18.329 -40.854,40.854 0,22.527 18.328,40.856 40.854,40.856 22.528,0 40.856,-18.329 40.856,-40.856 0,-22.525 -18.328,-40.854 -40.856,-40.854 z"
               id="path381"
               inkscape:connector-curvature="0"
               style="fill:#ffd000" /><path
               d="m 218.096,446.581 c -17.614,0 -31.943,-14.332 -31.943,-31.945 0,-17.613 14.33,-31.944 31.943,-31.944 17.615,0 31.948,14.33 31.948,31.944 0,17.613 -14.332,31.945 -31.948,31.945 z"
               id="path383"
               inkscape:connector-curvature="0"
               style="fill:#ffc900" /><path
               d="m 191.66,432.544 c 5.752,8.464 15.454,14.038 26.436,14.038 17.616,0 31.948,-14.332 31.948,-31.945 0,-7.733 -2.765,-14.831 -7.355,-20.363 l -51.029,38.27 z"
               id="path385"
               inkscape:connector-curvature="0"
               style="fill:#ffe15c" /><path
               d="m 218.096,450.151 c -19.582,0 -35.513,-15.932 -35.513,-35.515 0,-19.583 15.931,-35.514 35.513,-35.514 19.584,0 35.517,15.931 35.517,35.514 0,19.583 -15.933,35.515 -35.517,35.515 z m 0,-63.889 c -15.645,0 -28.374,12.728 -28.374,28.374 0,15.646 12.728,28.375 28.374,28.375 15.648,0 28.378,-12.729 28.378,-28.375 0,-15.646 -12.73,-28.374 -28.378,-28.374 z"
               id="path387"
               inkscape:connector-curvature="0"
               style="fill:#ff7a2d" /></g></g></g></g></g></svg>