<svg xmlns="http://www.w3.org/2000/svg" width="800" height="800" viewBox="0 0 800 800"><defs><filter id="P" color-interpolation-filters="sRGB"><feColorMatrix values="0.21 0.72 0.072 0 0 0.21 0.72 0.072 0 0 0.21 0.72 0.072 0 0 0 0 0 1 0"/></filter><filter id="O" color-interpolation-filters="sRGB"><feColorMatrix values="0.21 0.72 0.072 0 0 0.21 0.72 0.072 0 0 0.21 0.72 0.072 0 0 0 0 0 1 0"/></filter><filter id="N" color-interpolation-filters="sRGB"><feColorMatrix values="0.21 0.72 0.072 0 0 0.21 0.72 0.072 0 0 0.21 0.72 0.072 0 0 0 0 0 1 0"/></filter><filter id="M" color-interpolation-filters="sRGB"><feColorMatrix values="0.21 0.72 0.072 0 0 0.21 0.72 0.072 0 0 0.21 0.72 0.072 0 0 0 0 0 1 0"/></filter><filter id="L" color-interpolation-filters="sRGB"><feColorMatrix values="0.21 0.72 0.072 0 0 0.21 0.72 0.072 0 0 0.21 0.72 0.072 0 0 0 0 0 1 0"/></filter><filter id="K" color-interpolation-filters="sRGB"><feColorMatrix values="0.21 0.72 0.072 0 0 0.21 0.72 0.072 0 0 0.21 0.72 0.072 0 0 0 0 0 1 0"/></filter><filter id="J" color-interpolation-filters="sRGB"><feColorMatrix values="0.21 0.72 0.072 0 0 0.21 0.72 0.072 0 0 0.21 0.72 0.072 0 0 0 0 0 1 0"/></filter><filter id="I" color-interpolation-filters="sRGB"><feColorMatrix values="0.21 0.72 0.072 0 0 0.21 0.72 0.072 0 0 0.21 0.72 0.072 0 0 0 0 0 1 0"/></filter><filter id="H" color-interpolation-filters="sRGB"><feColorMatrix values="0.21 0.72 0.072 0 0 0.21 0.72 0.072 0 0 0.21 0.72 0.072 0 0 0 0 0 1 0"/></filter><filter id="G" color-interpolation-filters="sRGB"><feColorMatrix values="0.21 0.72 0.072 0 0 0.21 0.72 0.072 0 0 0.21 0.72 0.072 0 0 0 0 0 1 0"/></filter><filter id="F" color-interpolation-filters="sRGB"><feColorMatrix values="0.21 0.72 0.072 0 0 0.21 0.72 0.072 0 0 0.21 0.72 0.072 0 0 0 0 0 1 0"/></filter><filter id="E" color-interpolation-filters="sRGB"><feColorMatrix values="0.21 0.72 0.072 0 0 0.21 0.72 0.072 0 0 0.21 0.72 0.072 0 0 0 0 0 1 0"/></filter><filter id="D" color-interpolation-filters="sRGB"><feColorMatrix values="0.21 0.72 0.072 0 0 0.21 0.72 0.072 0 0 0.21 0.72 0.072 0 0 0 0 0 1 0"/></filter><filter id="C" color-interpolation-filters="sRGB"><feColorMatrix values="0.21 0.72 0.072 0 0 0.21 0.72 0.072 0 0 0.21 0.72 0.072 0 0 0 0 0 1 0"/></filter><filter id="B" color-interpolation-filters="sRGB"><feColorMatrix values="0.21 0.72 0.072 0 0 0.21 0.72 0.072 0 0 0.21 0.72 0.072 0 0 0 0 0 1 0"/></filter><filter id="A" color-interpolation-filters="sRGB"><feColorMatrix values="0.21 0.72 0.072 0 0 0.21 0.72 0.072 0 0 0.21 0.72 0.072 0 0 0 0 0 1 0"/></filter><filter id="z" color-interpolation-filters="sRGB"><feColorMatrix values="0.21 0.72 0.072 0 0 0.21 0.72 0.072 0 0 0.21 0.72 0.072 0 0 0 0 0 1 0"/></filter><filter id="y" color-interpolation-filters="sRGB"><feColorMatrix values="0.21 0.72 0.072 0 0 0.21 0.72 0.072 0 0 0.21 0.72 0.072 0 0 0 0 0 1 0"/></filter><filter id="x" color-interpolation-filters="sRGB"><feColorMatrix values="0.21 0.72 0.072 0 0 0.21 0.72 0.072 0 0 0.21 0.72 0.072 0 0 0 0 0 1 0"/></filter><filter id="w" color-interpolation-filters="sRGB"><feColorMatrix values="0.21 0.72 0.072 0 0 0.21 0.72 0.072 0 0 0.21 0.72 0.072 0 0 0 0 0 1 0"/></filter><filter id="v" color-interpolation-filters="sRGB"><feColorMatrix values="0.21 0.72 0.072 0 0 0.21 0.72 0.072 0 0 0.21 0.72 0.072 0 0 0 0 0 1 0"/></filter><filter id="u" color-interpolation-filters="sRGB"><feColorMatrix values="0.21 0.72 0.072 0 0 0.21 0.72 0.072 0 0 0.21 0.72 0.072 0 0 0 0 0 1 0"/></filter><filter id="t" color-interpolation-filters="sRGB"><feColorMatrix values="0.21 0.72 0.072 0 0 0.21 0.72 0.072 0 0 0.21 0.72 0.072 0 0 0 0 0 1 0"/></filter><filter id="s" color-interpolation-filters="sRGB"><feColorMatrix values="0.21 0.72 0.072 0 0 0.21 0.72 0.072 0 0 0.21 0.72 0.072 0 0 0 0 0 1 0"/></filter><filter id="r" color-interpolation-filters="sRGB"><feColorMatrix values="0.21 0.72 0.072 0 0 0.21 0.72 0.072 0 0 0.21 0.72 0.072 0 0 0 0 0 1 0"/></filter><filter id="q" color-interpolation-filters="sRGB"><feColorMatrix values="0.21 0.72 0.072 0 0 0.21 0.72 0.072 0 0 0.21 0.72 0.072 0 0 0 0 0 1 0"/></filter><filter id="p" color-interpolation-filters="sRGB"><feColorMatrix values="0.21 0.72 0.072 0 0 0.21 0.72 0.072 0 0 0.21 0.72 0.072 0 0 0 0 0 1 0"/></filter><filter id="o" color-interpolation-filters="sRGB"><feColorMatrix values="0.21 0.72 0.072 0 0 0.21 0.72 0.072 0 0 0.21 0.72 0.072 0 0 0 0 0 1 0"/></filter><filter id="n" color-interpolation-filters="sRGB"><feColorMatrix values="0.21 0.72 0.072 0 0 0.21 0.72 0.072 0 0 0.21 0.72 0.072 0 0 0 0 0 1 0"/></filter><filter id="m" color-interpolation-filters="sRGB"><feColorMatrix values="0.21 0.72 0.072 0 0 0.21 0.72 0.072 0 0 0.21 0.72 0.072 0 0 0 0 0 1 0"/></filter><filter id="l" color-interpolation-filters="sRGB"><feColorMatrix values="0.21 0.72 0.072 0 0 0.21 0.72 0.072 0 0 0.21 0.72 0.072 0 0 0 0 0 1 0"/></filter><filter id="k" color-interpolation-filters="sRGB"><feColorMatrix values="0.21 0.72 0.072 0 0 0.21 0.72 0.072 0 0 0.21 0.72 0.072 0 0 0 0 0 1 0"/></filter><filter id="j" color-interpolation-filters="sRGB"><feColorMatrix values="0.21 0.72 0.072 0 0 0.21 0.72 0.072 0 0 0.21 0.72 0.072 0 0 0 0 0 1 0"/></filter><filter id="i" color-interpolation-filters="sRGB"><feColorMatrix values="0.21 0.72 0.072 0 0 0.21 0.72 0.072 0 0 0.21 0.72 0.072 0 0 0 0 0 1 0"/></filter><filter id="h" color-interpolation-filters="sRGB"><feColorMatrix values="0.21 0.72 0.072 0 0 0.21 0.72 0.072 0 0 0.21 0.72 0.072 0 0 0 0 0 1 0"/></filter><filter id="g" color-interpolation-filters="sRGB"><feColorMatrix values="0.21 0.72 0.072 0 0 0.21 0.72 0.072 0 0 0.21 0.72 0.072 0 0 0 0 0 1 0"/></filter><filter id="f" color-interpolation-filters="sRGB"><feColorMatrix values="0.21 0.72 0.072 0 0 0.21 0.72 0.072 0 0 0.21 0.72 0.072 0 0 0 0 0 1 0"/></filter><filter id="e" color-interpolation-filters="sRGB"><feColorMatrix values="0.21 0.72 0.072 0 0 0.21 0.72 0.072 0 0 0.21 0.72 0.072 0 0 0 0 0 1 0"/></filter><filter id="d" color-interpolation-filters="sRGB"><feColorMatrix values="0.21 0.72 0.072 0 0 0.21 0.72 0.072 0 0 0.21 0.72 0.072 0 0 0 0 0 1 0"/></filter><filter id="c" color-interpolation-filters="sRGB"><feColorMatrix values="0.21 0.72 0.072 0 0 0.21 0.72 0.072 0 0 0.21 0.72 0.072 0 0 0 0 0 1 0"/></filter><filter id="b" color-interpolation-filters="sRGB"><feColorMatrix values="0.21 0.72 0.072 0 0 0.21 0.72 0.072 0 0 0.21 0.72 0.072 0 0 0 0 0 1 0"/></filter><filter id="a" color-interpolation-filters="sRGB"><feColorMatrix values="0.21 0.72 0.072 0 0 0.21 0.72 0.072 0 0 0.21 0.72 0.072 0 0 0 0 0 1 0"/></filter></defs><path fill="#dfe5e6" d="M104.2 218.93h588.135v202.576H104.2z" filter="url(#a)"/><path d="M656.588 410.33c-.19 0-.356-.025-.488-.056l-1.21-.29-.464-1.59c.016.036.19.365.556.595l.786-1.29-.833-.23c.27-1.04.54-2.02.798-2.97 1.39-5.067 2.4-8.73.892-14.055-.483-1.714-.99-3.394-1.495-5.063-1.503-4.973-3.057-10.12-3.772-15.646-.095-.714-.21-1.583-.313-2.553-1.812-.13-3.557-.7-5.214-1.706-7.59-4.595-11.19-17.444-12.12-24.313-1.39-10.267-2.7-19.968-12.93-23.26-8.18-2.64-18.7-2.426-27.99-2.237-2.433.05-4.82.1-7.1.1-5.917 0-9.323.35-12.933.724-3.363.35-6.844.71-12.45.763-2.674.025-7.472.156-12.315.29-5.103.14-10.255.28-13.062.302-3.09.05-6.238-.18-9.273-.385-3.802-.253-7.74-.517-11.602-.31-10.51.543-22.044.49-35.256-.153-8.864-.434-16.946.1-25.496.66-12.515.825-25.455 1.68-41.824-.52-7.107-.955-14.402-.92-21.456-.87-6.04.03-12.28.07-18.436-.508-9.08-.86-18.435.15-27.49 1.125-3.356.364-6.69.723-9.994.99-18.1 1.46-36.35 3.315-54 5.113-6.355.647-12.716 1.294-19.09 1.926-10.733 1.065-23.266 1.015-36.244-.15-4.605-.41-8.762-1.414-12.78-2.384-6.348-1.53-12.346-2.97-19.428-1.94-13.49 1.97-26.41 4.4-36.216 12.353-8.42 6.833-10.344 13.694-12.78 22.38-.94 3.343-1.91 6.8-3.337 10.56-2.508 6.61-5.7 11.24-13.12 12.363-1.177.182-2.496.163-3.774.156-1.828-.026-4.368-.05-4.958.76-.136.18-.522.972.193 3.39.488 1.654 1.886 2.733 3.5 3.985 2.5 1.93 5.62 4.34 4.72 9.42-1.18 6.683-7.15 6.562-10.69 6.5-1.323-.024-3.14-.06-3.61.316l-2.492-3.28c1.605-1.28 3.82-1.24 6.183-1.194 4.197.1 6.105-.19 6.614-3.08.436-2.458-.72-3.478-3.167-5.37-1.91-1.473-4.073-3.146-4.943-6.098-.92-3.11-.776-5.426.444-7.09 1.824-2.49 5.24-2.445 8.25-2.42 1.17.016 2.273.025 3.136-.11 5.55-.84 7.774-4.08 9.93-9.758 1.36-3.58 2.303-6.946 3.216-10.2 2.43-8.654 4.72-16.83 14.162-24.493 10.6-8.6 24.1-11.155 38.163-13.21 7.842-1.144 14.496.46 20.932 2.01 3.88.937 7.89 1.905 12.202 2.29 12.73 1.14 25.002 1.193 35.493.154 6.375-.633 12.732-1.28 19.084-1.925 17.667-1.805 35.94-3.66 54.08-5.127 3.267-.264 6.57-.62 9.89-.976 9.25-1 18.815-2.03 28.286-1.136 5.956.564 12.086.52 18.037.49 7.194-.05 14.628-.085 22.008.905 15.978 2.138 28.715 1.307 41.037.492 8.667-.57 16.86-1.108 25.95-.664 13.075.642 24.484.696 34.857.155 4.1-.21 8.153.056 12.072.315 3.098.206 6.005.424 8.98.377 2.79-.02 7.914-.162 12.986-.3 4.87-.134 9.693-.266 12.385-.293 5.418-.05 8.81-.403 12.084-.74 3.544-.368 7.216-.748 13.335-.748 2.256 0 4.61-.05 7.023-.098 9.594-.2 20.472-.416 29.29 2.425 12.677 4.087 14.3 16.077 15.73 26.658.774 5.706 3.894 17.51 10.17 21.31.92.555 1.87.908 2.86 1.062-.125-5.17.78-10.88 5.54-11.87 4.59-.96 5.82 2.107 6.092 3.068 1.083 3.82-2.105 10.697-5.595 12.057-.572.224-1.14.41-1.702.557.072.664.15 1.367.25 2.11.71 5.48 2.144 10.234 3.668 15.27.51 1.687 1.025 3.393 1.516 5.13 1.83 6.466.57 11.042-.886 16.34-.253.92-.52 1.882-.78 2.9l-.413.815c-.657.79-1.346.98-1.86.98zm1.332-55.257c-.194 0-.464.025-.816.098-1 .218-2.392 1.54-2.29 7.37.18-.06.354-.122.533-.194.753-.292 2.578-2.772 3.093-5.395.24-1.22.028-1.734-.024-1.787 0 0-.126-.084-.496-.084z" fill="#ae4c43" filter="url(#b)"/><path d="M330.944 406.708c.85 2.14 1.7 5.37 3.045 7.04 4.76-1.742 13.843-2.493 16.47-7.495-2.92-1.233-9.997-.575-12.86.423-.71-1.54-1.56-3.666-2.6-4.904l-4.06 4.936zm-53.01-3.958c-1.638 1.59-4.267 3.58-5.294 5.472 3.32 3.905 7.315 12.293 12.82 12.967.062-3.23-3.116-9.74-5.07-12.11 1.14-1.236 2.768-2.82 3.514-4.26l-5.97-2.075z" fill="#b68ad1" filter="url(#c)"/><path d="M280.692 365.917c-.307 2.842-.993 5.96-.315 8.854.532 2.28 2.076 4.228 2.6 6.408 1.22 5.08-2.995 9.83-5.852 13.596-1.417 1.87-3.563 3.407-4.744 5.445-1.45 2.51.13 3.25 2.46 4.745 1.76 1.125 3.96 2.424 5.858 3.256 2.98 1.315 3.185-.21 5.026-2.574 2.857-3.664 5.977-7.017 8.623-10.894 2.767-4.053 3.244-6.65 4.116-11.16.95-4.92 3.77-9.364 4.76-14.556.41-2.152 1.883-7.308.84-9.358-.604-1.19-4.252-3.02-5.517-3.695-2-1.07-4.517-2.012-6.686-2.723-2.387-.78-4.923-.834-7.61-.84l-3.553 13.51z" fill="#005774" filter="url(#d)"/><path d="M280.692 365.917c-.307 2.842-.993 5.96-.315 8.854.532 2.28 2.076 4.228 2.6 6.408 1.22 5.08-2.995 9.83-5.852 13.596-1.417 1.87-3.563 3.407-4.744 5.445-1.45 2.51.13 3.25 2.46 4.745 1.76 1.125 3.96 2.424 5.858 3.256 2.98 1.315 3.185-.21 5.026-2.574 2.857-3.664 5.977-7.017 8.623-10.894 2.767-4.053 3.244-6.65 4.116-11.16.95-4.92 3.77-9.364 4.76-14.556.41-2.152 1.883-7.308.84-9.358-.604-1.19-4.252-3.02-5.517-3.695-2-1.07-4.517-2.012-6.686-2.723-2.387-.78-4.923-.834-7.61-.84l-3.553 13.51z" opacity=".23" fill="#005774" filter="url(#e)"/><path d="M293.636 369.555c2.05 3.65 5.748 6.62 8.38 9.872 1.645 2.025 3.037 3.86 4.817 5.716 4.112 4.28 7.826 8.493 12.182 12.463 2.19 1.997 4.226 3.946 5.767 6.56 1.185 2.01 2.012 4.808 4.575 4.568 1.86-.17 4.897-2.765 6.414-3.918 2.44-1.848 2.15-1.937 1.08-4.604-1.885-4.69-4.01-9.33-5.838-14.027-.964-2.472-1.795-4.948-2.924-7.332-1.39-2.923-3.686-5.395-5.324-8.26-2.74-4.796-5.16-9.696-7.48-14.67-2.844-6.093-8.414-1.898-13.267-.14-2.577.934-3.885 1.21-5.264 3.897-1.075 2.09-1.253 4.865-2.6 6.497l-.51 3.378z" fill="#005774" filter="url(#f)"/><path d="M280.1 361.154c.325 2.646-1.457 4.502-.963 7.223 1.995.33 3.544-.545 5.362-.565 2.163-.024 3.99.746 6.093 1.396 2.984.918 3.313 1.072 5.935-.37 2.01-1.1 3.453-2.63 5.996-2.853 4.49-.4 7.16 3.625 11.09-.322 2.03-2.043 1.706-3.918 4.813-4.778 1.812-.507 5.29 1.05 5.27-1.754-3.276-.99-5.06-2.51-7.32-4.922-2.855-3.05-4.033-2.087-7.857-1.097-8.117 2.1-19-1.32-26.395 1.81l-2.03 6.238z" fill="#e95f7d" filter="url(#g)"/><path d="M259.12 313.43c.99 2.033 1.37 4.46 2.297 6.567 1.2 2.723 2.833 5.247 4.372 7.78 2.67 4.416 6.46 7.956 8.55 12.742 1.953 4.47 2.86 8.743 1.976 13.5-.664 3.56.33 6.8 1.876 10.03 4.97-.237 10.22.79 15.234.563 3.706-.17 7.46-1.1 11.113-2.01 3.31-.823 7.444-1.615 10.413-3.25 1.163-.642 4.345-2.725 4.58-4.09.29-1.684-2.223-6.048-3.057-7.537-2.558-4.563-4.42-9.493-7.045-14.035-1.674-2.897-3.413-5.61-5.194-8.28-6.133-7.314-9.406-9.827-15.92-16.284-1.2-1.19-7.56-6.572-8.826-7.714-3.64-3.282-8.93-3.644-13.53-3.846-4.12-.182-3.86 2.477-5.12 5.99-.242.67-.624 1.254-.705 1.558l-1.017 8.313z" fill="#ff9db9" filter="url(#h)"/><path d="M283.99 253.932c6.016.652 4.005-8.054 4.005-15.87-16.68-4.528-37.108-12.214-50.546 3.16-15.72 17.992-12.55 44.42-3.73 65.3 3.16 7.486 4.69 14.087 13.3 14.064 7.79-.02 15.836-1.83 22.24-6.777-1.6-2.818-3.23-13.878-5.07-16.4l19.796-43.48z" fill="#ffad32" filter="url(#i)"/><path d="M262.843 303.99c5.63 2.642 16.412-.51 21.13-3.982 6.466-4.765 6.628-8.497 5.218-15.85 1.237-.78 4.28-1.64 5.87-1.978-3.62-19.586-6.784-33.423-21.32-34.86 4.848 9.777-.432 30.213-12.96 32.42-3.36.595-16.75-3.88-12.31 7.1 1.346 3.32 5.536 2.54 7.49 4.647 1.496 1.607.8 9.648 6.888 12.504zm21.03 3.942c12.778 2.74 13.55 3.2 24.41 5.228 5.43 1.015 10.62 2.02 16.13.703 2.882-.69 12.95-6.108 15.096-2.887-1.01 1.492-5.26 2.44-5.598 4.2-.724 3.754 5.475 1.986 6.325 3.555 3.547 6.53-10.574 4.437-12.554 3.75-5.054-1.74-8.06-2.982-13.917-2.893-6.35.093-12.476-1.09-16.92-1.04-5.967.07-9.725.158-15.943-1.61-6.216-1.768-9.844-2.635-6.87-8.978 1.576-3.367 8.66-.274 9.836-.023z" fill="#ffd5ad" filter="url(#j)"/><path d="M448.257 406.708c-.85 2.14-1.697 5.37-3.045 7.04-4.764-1.742-13.848-2.493-16.47-7.495 2.915-1.233 9.994-.575 12.86.423.71-1.54 1.555-3.666 2.594-4.904l4.06 4.936zm53.013-3.958c1.637 1.59 4.265 3.58 5.293 5.472-3.325 3.905-7.317 12.293-12.822 12.967-.06-3.23 3.12-9.74 5.07-12.11-1.14-1.236-2.76-2.82-3.51-4.26l5.974-2.075z" fill="#7c5761" filter="url(#k)"/><path d="M498.51 365.917c.308 2.842.993 5.96.316 8.854-.53 2.28-2.078 4.228-2.602 6.408-1.22 5.08 2.994 9.83 5.852 13.596 1.416 1.87 3.563 3.407 4.744 5.445 1.455 2.51-.123 3.25-2.46 4.745-1.76 1.125-3.952 2.424-5.85 3.256-2.98 1.315-3.186-.21-5.027-2.574-2.86-3.664-5.975-7.017-8.624-10.894-2.77-4.053-3.25-6.65-4.12-11.16-.95-4.92-3.77-9.364-4.76-14.556-.41-2.152-1.885-7.308-.84-9.358.6-1.19 4.25-3.02 5.514-3.695 2-1.07 4.52-2.012 6.688-2.723 2.385-.78 4.922-.834 7.607-.84l3.554 13.51z" fill="#404040" filter="url(#l)"/><path d="M498.51 365.917c.308 2.842.993 5.96.316 8.854-.53 2.28-2.078 4.228-2.602 6.408-1.22 5.08 2.994 9.83 5.852 13.596 1.416 1.87 3.563 3.407 4.744 5.445 1.455 2.51-.123 3.25-2.46 4.745-1.76 1.125-3.952 2.424-5.85 3.256-2.98 1.315-3.186-.21-5.027-2.574-2.86-3.664-5.975-7.017-8.624-10.894-2.77-4.053-3.25-6.65-4.12-11.16-.95-4.92-3.77-9.364-4.76-14.556-.41-2.152-1.885-7.308-.84-9.358.6-1.19 4.25-3.02 5.514-3.695 2-1.07 4.52-2.012 6.688-2.723 2.385-.78 4.922-.834 7.607-.84l3.554 13.51z" opacity=".17" fill="#404040" filter="url(#m)"/><path d="M490.117 363.457c-2.05 3.65-10.298 12.72-12.932 15.97-1.646 2.025-3.038 3.86-4.818 5.716-4.112 4.28-7.824 8.493-12.182 12.463-2.19 1.997-4.224 3.946-5.767 6.56-1.185 2.01-2.01 4.808-4.576 4.568-1.86-.17-4.897-2.765-6.413-3.918-2.44-1.848-2.15-1.937-1.08-4.604 1.883-4.69 4.013-9.33 5.837-14.027.964-2.472 1.796-4.948 2.926-7.332 1.39-2.923 3.684-5.395 5.323-8.26 2.74-4.796 5.16-9.696 7.483-14.67 2.842-6.093 8.41-1.898 13.264-.14 2.58.934 3.883 1.21 5.263 3.897 1.075 2.09 5.807-1.234 7.155.4l.507 3.377z" fill="#404040" filter="url(#n)"/><path d="M573.85 375.26c-5.956 9.332-10.718 19.354-15.48 29.357-1.143 2.4 2.36 4.51 3.504 2.1 4.762-10.003 9.526-20.026 15.482-29.36 1.435-2.25-2.08-4.33-3.505-2.098zm42.78 28.94c-3.91-4.713-7.63-9.935-10.328-15.484-1.662-3.415-2.99-7.698-5.913-10.24-1.99-1.723-4.877 1.203-2.877 2.94 3.1 2.696 4.45 7.848 6.305 11.457 2.62 5.09 6.304 9.89 9.937 14.265 1.697 2.047 4.555-.91 2.87-2.94z" fill="#ffd5ad" filter="url(#o)"/><path d="M520.08 313.43c-.99 2.033-1.367 4.46-2.295 6.567-1.202 2.723-2.835 5.247-4.374 7.78-2.67 4.416-6.462 7.956-8.55 12.742-1.95 4.47-2.86 8.743-1.976 13.5.667 3.56-.33 6.8-1.875 10.03-4.97-.237-10.22.79-15.233.563-3.705-.17-7.46-1.1-11.113-2.01-3.313-.823-7.445-1.615-10.415-3.25-1.163-.642-4.346-2.725-4.58-4.09-.29-1.684 2.224-6.048 3.056-7.537 2.558-4.563 4.422-9.493 7.043-14.035 1.676-2.897 3.413-5.61 5.194-8.28 6.136-7.314 9.412-9.827 15.923-16.284 1.2-1.19 7.56-6.572 8.828-7.714 3.644-3.282 8.93-3.644 13.534-3.846 4.12-.182 3.86 2.477 5.12 5.99.24.67.624 1.254.703 1.558l1.016 8.313z" fill="#00c457" filter="url(#p)"/><path d="M495.328 307.932c-12.777 2.74-13.55 3.2-24.408 5.228-5.43 1.015-10.624 2.02-16.13.703-2.885-.69-12.95-6.108-15.098-2.887 1.003 1.492 5.255 2.44 5.592 4.2.725 3.754-5.473 1.986-6.326 3.555-3.544 6.53 10.577 4.437 12.556 3.75 5.056-1.74 8.06-2.982 13.92-2.893 6.35.093 12.475-1.09 16.92-1.04 5.964.07 9.724.158 15.942-1.61 6.213-1.768 9.842-2.635 6.87-8.978-1.577-3.367-8.664-.274-9.838-.023z" fill="#ffd5ad" filter="url(#q)"/><path d="M578.224 355.61c-.488 3.946-6.784 9.91-9.54 12.82-2.495 2.627-5.234 5.39-7.42 8.314 9.335 9.078 23.088 12.61 35.755 14.567 4.61.72 9.62-.25 14.023-1.38 3.157-.812 7.897-1.6 10.442-3.552-1.56-4.527-2.08-9.788-2.92-14.48-.896-5.022-3.17-10.025-4.536-14.835-7.11-.7-13.388-4.64-20.33-5.882-2.11-.377-12.236.83-12.097-1.802l-3.384 6.237z" fill="#a55a37" filter="url(#r)"/><path d="M635.083 313.43c-.99 2.033-1.372 4.46-2.3 6.567-1.198 2.723-2.83 5.247-4.37 7.78-2.677 4.416-6.468 7.956-8.557 12.742-1.95 4.47-2.863 8.743-1.975 13.5.67 3.56-.33 6.8-1.87 10.03-4.97-.237-10.223.79-15.235.563-3.703-.17-7.46-1.1-11.112-2.01-3.31-.823-7.442-1.615-10.41-3.25-1.164-.642-4.345-2.725-4.58-4.09-.287-1.684 2.22-6.048 3.06-7.537 2.552-4.563 4.416-9.493 7.042-14.035 1.673-2.897 3.414-5.61 5.195-8.28 6.133-7.314 9.406-9.827 15.92-16.284 1.197-1.19 7.558-6.572 8.82-7.714 3.647-3.282 8.937-3.644 13.53-3.846 4.127-.182 3.865 2.477 5.126 5.99.24.67.623 1.254.706 1.558l1.015 8.313z" fill="#b487d7" filter="url(#s)"/><path d="M635.083 313.43c-.99 2.033-1.372 4.46-2.3 6.567-1.198 2.723-2.83 5.247-4.37 7.78-2.677 4.416-6.468 7.956-8.557 12.742-1.95 4.47-2.863 8.743-1.975 13.5.67 3.56-.33 6.8-1.87 10.03-4.97-.237-10.223.79-15.235.563-3.703-.17-7.46-1.1-11.112-2.01-3.31-.823-7.442-1.615-10.41-3.25-1.164-.642-4.345-2.725-4.58-4.09-.287-1.684 2.22-6.048 3.06-7.537 2.552-4.563 4.416-9.493 7.042-14.035 1.673-2.897 3.414-5.61 5.195-8.28 6.133-7.314 9.406-9.827 15.92-16.284 1.197-1.19 7.558-6.572 8.82-7.714 3.647-3.282 8.937-3.644 13.53-3.846 4.127-.182 3.865 2.477 5.126 5.99.24.67.623 1.254.706 1.558l1.015 8.313z" opacity=".16" fill="#b487d7" filter="url(#t)"/><path d="M610.326 307.932c-12.777 2.74-13.55 3.2-24.41 5.228-5.428 1.015-10.618 2.02-16.126.703-2.882-.69-12.952-6.108-15.097-2.887 1.003 1.492 5.25 2.44 5.59 4.2.723 3.754-5.475 1.986-6.324 3.555-3.55 6.53 10.57 4.437 12.55 3.75 5.05-1.74 8.057-2.982 13.916-2.893 6.347.093 12.475-1.09 16.92-1.04 5.97.07 9.723.158 15.942-1.61 6.217-1.768 9.84-2.635 6.87-8.978-1.578-3.367-8.66-.274-9.838-.023z" fill="#ffd5ad" filter="url(#u)"/><path d="M478.736 309.882c-.424 4.09 1.666 7.922 2.42 11.726 7.417-.3 30.843 3.2 27.96-10.687-2.304-11.1-18.288-5.95-25.304-4.15l-5.076 3.117z" fill="#00c457" filter="url(#v)"/><path d="M494.98 256.53c-3.787-1.93-8.137-6.443-7.46-11.328 3.876 8.472 10.74-2.26 13.634-5.325 5.025-5.327 11.735-10.377 19.46-10.028 6.268.28 12.808 3.2 16.912 8.04 3.664 4.32 5.81 8.642 11.935 8.936 1.48.07 2.977 0 4.45.002-2.262 1.85-4.08 2.166-2.33 5.792 2.04 4.22 5.49 6.73 6.346 11.595 1.255 7.13-1.173 13.413-3.128 20.123-1.067 3.65-3.312 11.92 1.995 13.138-1.404 2.79-4.604 4.073-7.21 3.454.98.863.766 1.226 2.217 1.395-3.034 3.712-12.643 5.293-17.144 4.45-4.805-.9-10.834-4.06-13.953-7.9-2.24-2.76-3.747-6.31-6.174-9.017-2.58-2.878-5.91-4.463-8.734-7.09-3.724-3.466-5.82-8.935-7.162-13.728-.446.078-.34.408-.6.648l-3.046-13.164z" fill="#441124" filter="url(#w)"/><path d="M518.424 279.74c-12.523-2.207-17.806-22.643-12.96-32.42-14.533 1.436-17.697 15.273-21.318 34.86 1.59.337 4.636 1.2 5.865 1.977-.27 1.443-.46 2.716-.58 3.915 3.317.64 6.81 1.12 9.43 2.814-1.49 2.265-5.21 3.612-8.103 4.543.928 1.52 2.332 2.992 4.477 4.573 4.72 3.473 15.5 6.624 21.128 3.983 6.088-2.857 5.395-10.898 6.89-12.504 1.956-2.107 6.146-1.326 7.49-4.647 4.44-10.98-8.953-6.506-12.312-7.1zm85.906 10.42l.087-1.996c-.067.696-.09 1.364-.088 1.997z" fill="#ffd5ad" filter="url(#x)"/><path d="M604.453 287.364l-.036.8c.023-.264.05-.528.084-.802-.01-.002-.03.004-.042.002z" fill="#f6ffff" filter="url(#y)"/><path d="M606.82 264.325c-4.477.87-2.443-15.627-1.34-18.116 2.985-6.727 10.908-13.86 18.273-14.64 6.012-.634 13.49.05 19.05 2.33 7.765 3.19 11.235 12.28 12.936 19.965.3 1.38.4 2.8.81 4.126 3.157-3.19 8.174-5.96 12.71-4.906 5.065 1.172 6.75 6.03 5.886 10.92-1.023 5.81-4.085 11.592-2.026 17.67 1.865 5.51 7.85 8.095 10.863 1.936-.063 4.4-.385 6.706-4.326 9.094-3.35 2.03-6.493 1.25-9.377-1.163-5.64-4.72-9.116-13.15-10.22-20.185-1.203 3.683.05 8.254-1.537 12.192-1.598 3.964-3.446 8.365-6.98 10.912-5.34 3.85-13.573 5.273-19.816 5.155-.405-1.634-.286-3.294-1.037-4.92-1.708-3.69-5.337-6.64-7.97-9.593-2.296-2.575-4.957-5.005-7.043-7.75-.77-1.012-1.32-2.285-2.236-3.06.01.427.316.22.487.423l-7.107-10.392z" fill="#340512" filter="url(#z)"/><path d="M633.426 279.74c-12.528-2.207-17.806-22.643-12.96-32.42-14.535 1.436-17.703 15.273-21.322 34.86 1.593.337 4.634 1.2 5.87 1.977-.223 1.16-.386 2.206-.512 3.206 3.14.267 6.34-1.298 9.386-1.17 1.403.06 1.55.364 1.4 2.173-.077.954-.54 2.135-.973 2.983-1.392 2.72-5.373 4.3-8.557 4.09.932 1.52 2.332 2.99 4.473 4.57 4.72 3.47 15.5 6.62 21.13 3.98 6.09-2.86 5.39-10.9 6.89-12.507 1.957-2.107 6.145-1.326 7.49-4.647 4.44-10.98-8.95-6.506-12.31-7.1z" fill="#ffd5ad" filter="url(#A)"/><path d="M614.315 291.348c.433-.848.896-2.03.972-2.983.15-1.81.003-2.113-1.4-2.172-3.045-.128-6.245 1.436-9.385 1.17-.033.273-.06.537-.084.8l-.088 1.998c.02 1.958.438 3.66 1.428 5.28 3.184.22 7.165-1.37 8.557-4.09z" fill="#f6ffff" filter="url(#B)"/><path d="M577.888 310.573c.066 2.765-.187 9.482 1.336 11.798 1.598 2.44 5.885 2.2 8.74 2.757 8.224 1.608 16.977-.803 24.78-3.724 5.24-1.96 14.396-6.226 11.164-13.596-2.044-4.657-10.6-4.043-14.963-3.812-5.37.285-10.767 2.17-15.815 3.476-4.314 1.118-9.01 1.11-13.213 2.417l-2.03.694z" fill="#b487d7" filter="url(#C)"/><path d="M200.6 384.567c5.456 6.572 9.802 14.492 11.043 23.112.38 2.62-3.533 3.75-3.914 1.1-1.148-7.918-4.98-15.22-10.007-21.28-1.685-2.03 1.174-4.984 2.87-2.94zm-62.694 5.19c1.074-4.707 4.656-8.413 7.848-11.723 1.842-1.908 4.713 1.032 2.87 2.94-3.355 3.48-6.075 6.703-7.19 11.582-1.28 5.603-1.175 11.818-2.17 17.533-.46 2.63-4.373 1.51-3.915-1.11 1.1-6.357 1.12-12.957 2.55-19.23z" fill="#ffd5ad" filter="url(#D)"/><path d="M563.258 406.708c-.852 2.14-1.7 5.37-3.045 7.04-4.762-1.742-13.847-2.493-16.47-7.495 2.917-1.233 9.99-.575 12.857.423.71-1.54 1.56-3.666 2.598-4.904l4.06 4.936z" fill="#ffad32" filter="url(#E)"/><path d="M126.337 331.49c.566-1.73 2.555-1.74 3.504-.78 1.34-.137 2.75.863 2.127 2.47-1.24 3.21-3.287 6.305.325 8.513 4.614 2.82 10.94 2.472 15.987 1.477 1.46-.292 2.413.893 2.507 2.055 1.674.5 2.1 3.382-.008 3.994-8.197 2.38-15.796.93-23.186-3.17-1.82-1.01-4.653-2.84-4.745-5.26-.14-3.61 2.427-6.044 3.493-9.304z" fill="#ffd5ad" filter="url(#F)"/><path d="M191.937 354.92c1.95 4.005 6.315 7.526 9.128 11.086 2.516 3.178 4.632 6.743 6.522 10.304.53.998 2.902 4.242 2.663 5.302-.228 1.014-4.707 4.343-5.53 5.175-2.812 2.846-6.16 7.243-10.01 8.61-3.94-5.07-6.29-12.015-11.32-16.136-4.247-3.473-10.503-3.27-15.818-3.55-6.038-.325-9.358 3.34-12.597 8.293-1.412 2.16-2.238 5.68-4.304 5.898-2.02.21-6.87-2.963-8.81-3.876-1.9-.897-4.1-1.766-5.45-3.39 5.188-7.526 11.19-14.854 13.628-23.842 5.314.178 12.242-1.84 17.447-2.92 4.03-.836 11.005-3.46 14.643-1.643l9.815.695z" fill="#005774" filter="url(#G)"/><path d="M174.492 316.543c8.46 3.06 17.354 4.056 25.803 7.1 3.47 1.25 16.392 4.34 19.476 4.35 1.5.008 2.59-1.784 1.76-3.126-1.404-2.255 1.514-1.59 3.344-1.907 1.203-.206 1.97-2.04 1.213-3.053-2.645-3.544-4.967-4.115-9.194-2.345-10.26 4.29-24.27-1.354-33.422-6.568-1.38-.788-2.656.21-2.963 1.408-1.822-.19-3.647-.2-5.47.057-2.318.16-2.725 3.29-.54 4.08z" fill="#ffd5ad" filter="url(#H)"/><path d="M616.266 402.75c1.638 1.59 4.267 3.58 5.294 5.472-3.32 3.905-7.312 12.293-12.817 12.967-.063-3.23 3.112-9.74 5.067-12.11-1.137-1.236-2.767-2.82-3.512-4.26l5.968-2.075z" fill="#ffad32" filter="url(#I)"/><path d="M158.267 303.298c2.968-2.265 8.906.794 11.873 1.89 3.587 1.325 7.29 2.596 10.968 3.25 1.47.26 3.777.22 5.076 1.096 2.26 1.524.53 3.578-.57 5.962-.94 2.034-1.383 4.127-3.237 4.487-1.65.323-4.7-.984-6.325-1.323 3.172 5.267 6.646 10.346 9.625 15.82 2.276 4.18 1.85 10.672 4.81 13.956 1.25 1.393 5.663 2.156 6.18 3.702.817 2.47-4.755 6.175-6.422 7.284-6.765 4.494-13.79 6.243-21.58 7.533-5.762.954-11.413.61-17.25.273-3.373-.195-7.91-.666-10.623-2.936.585-1.973 2.046-3.735 2.247-5.91.22-2.445-.91-4.775-1.727-6.955-1.808-4.855-4.287-9.68-4.613-15.04-.78 1.123-1.635 2.098-2.346 3.255-3.385-1.86-11.677-5.74-12.446-10.103-.677-3.84 5.187-8.878 7.17-11.94 1.322-2.05 2.465-4.21 3.81-6.25 1.08-1.637 1.796-4.41 3.29-5.726 4.092-3.608 9.13 4.944 13.21 5.713 2.838.537 6.78-3.94 5.32-5.967l3.556-2.077z" fill="#63c8dd" filter="url(#J)"/><path d="M156.236 301.74c2.578 5.694.767 13.914-6.6 13.004-7.05-.873-8.273-6.532-11.674-11.707l18.274-1.298z" fill="#ffd5ad" filter="url(#K)"/><path d="M156.236 301.74c2.578 5.694.767 13.914-6.6 13.004-7.05-.873-8.273-6.532-11.674-11.707l18.274-1.298z" opacity=".43" fill="#ffd5ad" filter="url(#L)"/><path d="M164.866 263.46c9.442 11.415 8.935 26.592-.425 37.336-8.01 9.205-21.77 11.323-32.8 6.948-15.516-6.153-26.976-24.84-12.47-38.74 9.267-8.882 23.585-16.128 36.564-13.867.615.108 2.684.88 2.368.702l6.77 7.62z" fill="#ffd5ad" filter="url(#M)"/><path d="M210.55 408.267c-1.07.377-1.625.54-2.82.516-1.012 3.77-1.758 7.66 2.31 8.058 3.73.37 7.254-.023 10.875.22.846-4.923-9.034-6.762-9.246-9.763l-1.12.975zm-71.318 1.95c.097 1.695 1.582 2.92 1.65 4.672.043 1.143.292 2.982-1.016 3.31-.926.236-1.86.024-2.804.066-1.11.044-2.216.203-3.333.113-1.55-.12-3.107-.304-4.64-.487-.57-.064-1.127-.17-1.7-.227-.24-.02-.693.03-.92-.046-1.887-.672 3.747-4.053 4.265-4.35 1.68-.946 4.088-2.156 4.63-4.222.515.53 1 .806 1.768.84.406.02 2.017.02 2.2-.25l-.106.577z" fill="#a55a37" filter="url(#N)"/><path d="M178.41 270.12c-2.892 6.993-12.507 5.76-17.922 2.794-4.505-2.47-7.722-6.836-12.052-9.514-3.08 3.146-5.224 6.14-9.386 7.883-2.265.948-2.512.51-3.4 2.795-1.05 2.7-2.092 5.425-3.197 8.108-2.426 5.898-6.03 10.236-11.375 13.496-1.498.91-3.648 2.294-5.473 1.908-1.798-.382-2.552-3.55-4.097-5.292-1.826-2.063-1.415-2.367-1.81-4.944-.26-1.694.27-.82-1.134-1.915-1.093-.857-2.257-1.12-3.198-2.27-3.125-3.826-2.054-8 1.55-10.55 2.05-1.448 1.85-.946 1.876-3.904.024-2.226.55-5.027 1.645-6.987 1.205-2.16 3.166-2.61 4.903-3.96 2.033-1.577 2.402-4.58 3.526-7.22 1.38-3.25 7.187-5.517 10.18-2.89 2.063-3.75 5.146-6.856 9.322-8.06 4.695-1.357 4.223 2.005 7.497 3.97 1.64.986 2.897-.2 4.505-.767 2.194-.775 3.742-.867 5.808.296 3.6 2.026 3.425 4.135 3.61 7.886 3.164.303 6.663-.04 8.1 3.76 1.052 2.773-.92 4.61 2.51 5.072 2.335.314 3.77-.208 4.613 2.845.32 1.134-.27 2.633.44 3.452.9 1.034 2.54.09 3.19 1.904l-.23 2.094z" fill="#ff792d" filter="url(#O)"/><path d="M389.323 333.967c-.222-4.683-.883-9.092-2.48-13.52-.693-1.92-2.602-6.107-4.52-8.275 1.463-4.476 2.152-9.822 1.825-13.937-.278-3.475-1.286-6.983-3.54-9.702-.665-.802-2.13-2.428-3.39-1.875-.59.257-1.01 1.717-1.306 2.25-.236-.602-.613-.698-1.06-1.004-3.18 3.984-4.227 9.203-3.715 14.22.294 2.865 1.303 5.347 2.572 7.933.52 1.064 1.79 3.465 3.063 5.103-.937 3.988-3.204 7.83-4.47 11.776-1.305 4.05-2.17 9.722-1.53 14.025.815 5.47 3.794 9.2 6.032 13.84 1.325 2.75 3.703 6.128 4.43 9.02 3.5-2.153 4.992-9.663 6.357-13.354 2.08-5.613 2.006-10.586 1.725-16.493z" fill="#93a7ab" filter="url(#P)"/></svg>