<?xml version="1.0" encoding="UTF-8" standalone="no"?>
<!-- Generator: Adobe Illustrator 17.0.0, SVG Export Plug-In . SVG Version: 6.00 Build 0)  -->

<svg
   xmlns:dc="http://purl.org/dc/elements/1.1/"
   xmlns:cc="http://creativecommons.org/ns#"
   xmlns:rdf="http://www.w3.org/1999/02/22-rdf-syntax-ns#"
   xmlns:svg="http://www.w3.org/2000/svg"
   xmlns="http://www.w3.org/2000/svg"
   xmlns:xlink="http://www.w3.org/1999/xlink"
   xmlns:sodipodi="http://sodipodi.sourceforge.net/DTD/sodipodi-0.dtd"
   xmlns:inkscape="http://www.inkscape.org/namespaces/inkscape"
   version="1.1"
   x="0px"
   y="0px"
   width="800px"
   height="800px"
   viewBox="0 0 800 800"
   enable-background="new 0 0 800 800"
   xml:space="preserve"
   id="svg2"
   inkscape:version="0.91pre3 r13670"
   sodipodi:docname="actividad.svg"><metadata
     id="metadata196"><rdf:RDF><cc:Work
         rdf:about=""><dc:format>image/svg+xml</dc:format><dc:type
           rdf:resource="http://purl.org/dc/dcmitype/StillImage" /></cc:Work></rdf:RDF></metadata><defs
     id="defs194" /><sodipodi:namedview
     pagecolor="#ffffff"
     bordercolor="#666666"
     borderopacity="1"
     objecttolerance="10"
     gridtolerance="10"
     guidetolerance="10"
     inkscape:pageopacity="0"
     inkscape:pageshadow="2"
     inkscape:window-width="1366"
     inkscape:window-height="705"
     id="namedview192"
     showgrid="false"
     inkscape:zoom="0.295"
     inkscape:cx="-801.69492"
     inkscape:cy="400"
     inkscape:window-x="-8"
     inkscape:window-y="-8"
     inkscape:window-maximized="1"
     inkscape:current-layer="layer1" /><g
     id="Capa_3"
     display="none"><path
       display="inline"
       fill-rule="evenodd"
       clip-rule="evenodd"
       fill="#F06162"
       d="M760.814,655.793   c0,41.134-34.838,74.479-77.813,74.479H116.999c-42.975,0-77.813-33.346-77.813-74.479V120.526   c0-41.134,34.838-74.479,77.813-74.479h566.001c42.975,0,77.813,33.346,77.813,74.479V655.793z"
       id="path5" /><path
       display="inline"
       fill-rule="evenodd"
       clip-rule="evenodd"
       fill="#F0E3C3"
       d="M729.808,633.022   c0,37.634-31.844,68.143-71.126,68.143H141.318c-39.282,0-71.126-30.508-71.126-68.143V143.296   c0-37.634,31.844-68.143,71.126-68.143h517.364c39.282,0,71.126,30.508,71.126,68.143V633.022z"
       id="path7" /></g><g
     id="object"
     display="none"><g
       display="inline"
       id="g114"><path
         fill="#F1B085"
         d="M573.344,266.058c15.142,10.313-11.259-63.371-11.259-63.371s-10.52-16.46-79.204-6.277    c-48.336,7.166-68.373,20.178-77.671,20.178c-9.299,0-28.236-2.082-40.66-2.082c-12.424,0-28.566,3.464-44.813,9.626    c-20.682,7.843-13.931,24.189-4.63,23.529c6.246-0.443,7.872-3.387,13.034-3.839c-4.631,3.639-40.775,18.054-44.658,39.577    c-3.883,21.523,9.191,18.259,17.306,8.968c8.115-9.291,26.974-27.415,34.15-25.566c-2.55,3.373-21.316,17.519-30.818,37.248    c-14.838,30.807,5.097,34.265,13.25,27.988c8.153-6.277,23.34-37.848,33.303-46.901c11.706-10.637,25.015-14.673,27.961-13.171    c-10.227,11.644-15.781,14.348-26.691,39.003c-14.817,33.484-11.433,49.9-6.774,57.971c4.659,8.07,13.007,2.466,16.112-1.569    c3.106-4.035,6.707-35.708,19.483-56.148c12.776-20.44,38.474-39.497,48.34-24.414c8.642,13.21-2.133,23.943-4.075,40.085    c-1.941,16.142-6.133,48.481,6.988,50.844c19.735,3.554,13.288-64.353,32.7-75.115c19.413-10.761,35.918-30.944,42.518-47.534    C519.273,255.536,558.201,255.746,573.344,266.058z"
         id="path116" /><g
         id="g118"><path
           fill="#DD532F"
           d="M438.61,366.963c-69.209-30.587-135.324-4.018-135.324-4.018s-10.052-36.617-32.285-30.141     c-22.232,6.475-10.894,54.591-10.052,58.718c-11.6,4.687-30.738,39.741-30.738,39.741s-27.119,3.628-31.733,4.13     c-4.616,0.501-5.331,3.435-5.558,4.945c-8.376,55.528,14.553,75.203,22.944,80.433c1.808,1.126,3.195,1.635,6.545,0.344     c10.702-4.119,33.055-12.473,46.659-24.437c1.677,22.522-22.225,45.046-32.428,53.578c-2.743,2.294-3.627,4.023-1.471,7.57     c1.683,2.767,11.268,15.112,15.39,20.39c1.156,1.483,2.099,3.39,2.48,5.085c1.896,8.416,7.911,35.504,12.115,46.412     c1.166,3.029,2.055,4.894,7.596,4.894c5.542,0,27.835,0,32.349,0c5.671,0,5.833-6.595,5.833-6.595l2.987-23.723     c0,0,10.246,19.423,54.13,19.423c43.884,0,61.669-19.423,61.669-19.423s-5.616,25.237-4.991,22.366     c0.624-2.871-2.835,7.482,3.214,7.952c6.048,0.469,30.256,0,35.481,0c7.114,0,26.944-58.945,39.176-77.204     c25.133-37.507,20.492-85.285,17.592-95.332C517.291,452.026,507.82,397.549,438.61,366.963z"
           id="path120" /><g
           id="g122"><defs
             id="defs124"><path
               id="SVGID_1_"
               d="M573.142,426.875c0,86.997-74.41,172.458-201.046,172.458c-126.636,0-222.676-100.963-222.676-187.96       c0-86.995,96.04-137.045,222.676-137.045C498.732,274.329,573.142,339.88,573.142,426.875z" /></defs><clipPath
             id="SVGID_2_"><use
               xlink:href="#SVGID_1_"
               overflow="visible"
               id="use128" /></clipPath><path
             clip-path="url(#SVGID_2_)"
             fill="#DDA23D"
             d="M438.61,366.963c-69.209-30.587-135.324-4.018-135.324-4.018      s-10.052-36.617-32.285-30.141c-22.232,6.475-10.894,54.591-10.052,58.718c-11.6,4.687-30.738,39.741-30.738,39.741      s-27.119,3.628-31.733,4.13c-4.616,0.501-5.331,3.435-5.558,4.945c-8.376,55.528,14.553,75.203,22.944,80.433      c1.808,1.126,3.195,1.635,6.545,0.344c10.702-4.119,33.055-12.473,46.659-24.437c1.677,22.522-22.225,45.046-32.428,53.578      c-2.743,2.294-3.627,4.023-1.471,7.57c1.683,2.767,11.268,15.112,15.39,20.39c1.156,1.483,2.099,3.39,2.48,5.085      c1.896,8.416,7.911,35.504,12.115,46.412c1.166,3.029,2.055,4.894,7.596,4.894c5.542,0,27.835,0,32.349,0      c5.671,0,5.833-6.595,5.833-6.595l2.987-23.723c0,0,10.246,19.423,54.13,19.423c43.884,0,61.669-19.423,61.669-19.423      s-5.616,25.237-4.991,22.366c0.624-2.871-2.835,7.482,3.214,7.952c6.048,0.469,30.256,0,35.481,0      c7.114,0,26.944-58.945,39.176-77.204c25.133-37.507,20.492-85.285,17.592-95.332      C517.291,452.026,507.82,397.549,438.61,366.963z"
             id="path130" /><path
             clip-path="url(#SVGID_2_)"
             fill="#EF5A35"
             d="M438.61,366.963c-69.209-30.587-135.324-4.018-135.324-4.018      s-10.052-36.617-32.285-30.141c-22.232,6.475-10.894,54.591-10.052,58.718c-11.6,4.687-30.738,39.741-30.738,39.741      s-27.119,3.628-31.733,4.13c-4.616,0.501-5.331,3.435-5.558,4.945c-8.376,55.528,14.553,75.203,22.944,80.433      c1.808,1.126,3.195,1.635,6.545,0.344c10.702-4.119,33.055-12.473,46.659-24.437c1.677,22.522-22.225,45.046-32.428,53.578      c-2.743,2.294-3.627,4.023-1.471,7.57c1.683,2.767,11.268,15.112,15.39,20.39c1.156,1.483,2.099,3.39,2.48,5.085      c1.896,8.416,7.911,35.504,12.115,46.412c1.166,3.029,2.055,4.894,7.596,4.894c5.542,0,27.835,0,32.349,0      c5.671,0,5.833-6.595,5.833-6.595l2.987-23.723c0,0,10.246,19.423,54.13,19.423c43.884,0,61.669-19.423,61.669-19.423      s-5.616,25.237-4.991,22.366c0.624-2.871-2.835,7.482,3.214,7.952c6.048,0.469,30.256,0,35.481,0      c7.114,0,26.944-58.945,39.176-77.204c25.133-37.507,20.492-85.285,17.592-95.332      C517.291,452.026,507.82,397.549,438.61,366.963z"
             id="path132" /></g><path
           fill="#C54A29"
           d="M434.854,406.639c-1.027,0-2.07-0.243-3.068-0.757c-43.639-22.48-92.313-10.142-92.799-10.016     c-4.055,1.065-8.095-1.872-9.019-6.557c-0.924-4.684,1.61-9.346,5.666-10.418c2.181-0.574,53.951-13.815,102.295,11.089     c3.803,1.961,5.511,7.108,3.815,11.499C440.49,404.716,437.739,406.639,434.854,406.639z"
           id="path134" /><g
           id="g136"><defs
             id="defs138"><path
               id="SVGID_3_"
               d="M434.854,416.928c-1.027,0-2.07-0.242-3.068-0.757c-43.639-22.481-92.313-10.142-92.799-10.014       c-4.055,1.063-8.095-1.873-9.019-6.559c-0.924-4.685,1.61-9.346,5.666-10.417c2.181-0.575,53.951-13.817,102.295,11.087       c3.803,1.96,5.511,7.106,3.815,11.498C440.49,415.005,437.739,416.928,434.854,416.928z" /></defs><use
             xlink:href="#SVGID_3_"
             overflow="visible"
             fill="#EF5A35"
             id="use141" /><clipPath
             id="SVGID_4_"><use
               xlink:href="#SVGID_3_"
               overflow="visible"
               id="use144" /></clipPath><path
             clip-path="url(#SVGID_4_)"
             fill="#B24223"
             d="M434.854,406.639c-1.027,0-2.07-0.243-3.068-0.757      c-43.639-22.48-92.313-10.142-92.799-10.016c-4.055,1.065-8.095-1.872-9.019-6.557c-0.924-4.684,1.61-9.346,5.666-10.418      c2.181-0.574,53.951-13.815,102.295,11.089c3.803,1.961,5.511,7.108,3.815,11.499      C440.49,404.716,437.739,406.639,434.854,406.639z"
             id="path146" /></g><g
           id="g148"><ellipse
             fill="#FFFFFF"
             cx="285.887"
             cy="438.183"
             rx="18.233"
             ry="21.057"
             id="ellipse150" /><ellipse
             fill="#231F20"
             cx="285.887"
             cy="438.306"
             rx="9.897"
             ry="11.43"
             id="ellipse152" /><ellipse
             fill="#FFFFFF"
             cx="289.281"
             cy="430.796"
             rx="6.503"
             ry="7.51"
             id="ellipse154" /></g><path
           fill="none"
           d="M438.61,366.963c-69.209-30.587-135.324-4.018-135.324-4.018s-10.052-36.617-32.285-30.141     c-22.232,6.475-10.894,54.591-10.052,58.718c-11.6,4.687-30.738,39.741-30.738,39.741s-27.119,3.628-31.733,4.13     c-4.616,0.501-5.331,3.435-5.558,4.945c-8.376,55.528,14.553,75.203,22.944,80.433c1.808,1.126,3.195,1.635,6.545,0.344     c10.702-4.119,33.055-12.473,46.659-24.437c1.677,22.522-22.225,45.046-32.428,53.578c-2.743,2.294-3.627,4.023-1.471,7.57     c1.683,2.767,11.268,15.112,15.39,20.39c1.156,1.483,2.099,3.39,2.48,5.085c1.896,8.416,7.911,35.504,12.115,46.412     c1.166,3.029,2.055,4.894,7.596,4.894c5.542,0,27.835,0,32.349,0c5.671,0,5.833-6.595,5.833-6.595l2.987-23.723     c0,0,10.246,19.423,54.13,19.423c43.884,0,61.669-19.423,61.669-19.423s-5.616,25.237-4.991,22.366     c0.624-2.871-2.835,7.482,3.214,7.952c6.048,0.469,30.256,0,35.481,0c7.114,0,26.944-58.945,39.176-77.204     c25.133-37.507,19-90.652,16.1-100.699C515.798,446.659,507.82,397.549,438.61,366.963z"
           id="path156" /><path
           fill="#EF5A35"
           d="M500.581,453.398c-4.039,1.727-6.1,6.907-4.605,11.572c1.493,4.667,5.98,7.05,10.021,5.325     C510.598,468.332,500.949,453.241,500.581,453.398z"
           id="path158" /></g><g
         id="g160"><g
           id="g162"><g
             id="g164"><g
               id="g166"><ellipse
                 fill="#F5B244"
                 cx="389.742"
                 cy="361.83"
                 rx="42.813"
                 ry="49.444"
                 id="ellipse168" /><ellipse
                 fill="#DDA23D"
                 cx="389.742"
                 cy="361.83"
                 rx="32.928"
                 ry="38.028"
                 id="ellipse170" /><path
                 opacity="0.5"
                 fill="#FFFFFF"
                 d="M389.743,400.998c-18.701,0-33.917-17.57-33.917-39.169        c0-21.598,15.216-39.17,33.917-39.17c18.702,0,33.916,17.572,33.916,39.17C423.659,383.428,408.445,400.998,389.743,400.998z         M389.743,324.943c-17.611,0-31.94,16.547-31.94,36.886c0,20.339,14.328,36.886,31.94,36.886        c17.612,0,31.94-16.547,31.94-36.886C421.682,341.49,407.355,324.943,389.743,324.943z"
                 id="path172" /></g><g
               opacity="0.8"
               id="g174"><path
                 fill="#FFFFFF"
                 d="M405.468,350.508c0,2.073-1.033,3.768-2.882,3.768c-2.937,0-5.058-6.343-10.06-6.343        c-1.577,0-2.936,0.879-2.936,2.888c0,6.029,16.586,2.45,16.586,16.895c0,8.226-7.722,12.623-11.692,13.001        c-1.305,0.125-1.142,0.627-1.142,2.134c0,3.078-0.163,3.016-2.829,3.016c-2.501,0-3.153,0.44-3.153-2.764        c0-1.005,0.273-2.196-0.815-2.323c-2.067-0.314-6.309-1.382-7.886-2.7c-1.903-1.634-2.99-7.224-2.99-9.736        c0-1.443,0.543-2.951,1.957-2.951c3.753,0,2.991,8.792,11.42,8.792c1.197,0,3.97-0.628,3.97-2.7        c0-1.885-0.489-2.26-6.363-4.711c-4.948-2.01-10.114-5.965-10.114-12.749c0-6.28,4.404-11.304,9.571-12.497        c1.413-0.314,1.25-0.502,1.25-2.199c0-3.14,0.163-3.014,2.828-3.014c2.555,0,3.154-0.44,3.154,2.763        c0,0.879-0.271,2.136,0.707,2.386c0.707,0.126,3.425,0.942,3.751,0.942c0.654,0,1.469-0.627,2.447-0.627        C402.259,341.779,405.468,346.615,405.468,350.508z"
                 id="path176" /></g></g></g><path
           fill="#EF5A35"
           d="M332.753,394.099c0,0,20.116-5.729,46.596-5.729c26.48,0,59.367,17.797,59.367,17.797l-12.282,39.131     l-90.79-28.962L332.753,394.099z"
           id="path178" /></g><g
         id="g180"><path
           fill="#0C5054"
           d="M705.268,184.088l-206.334,4.626c0,0-2.696,0.572-2.696,2.225c0,1.416,4.214,69.647,5.422,89.167     c0.202,3.264-0.103,5.203,4.218,5.203c4.321,0,195.724,1.926,195.724,1.926L705.268,184.088z"
           id="path182" /></g><path
         fill="#F1B085"
         d="M358.844,296.889c-2.094,3.76-4.35,8.313-6.901,14.078c-14.817,33.484-11.433,49.9-6.774,57.971    c4.659,8.07,13.007,2.466,16.112-1.569c3.106-4.035,6.707-35.708,19.483-56.148c2.722-4.354,6.031-8.645,9.648-12.557    C380.009,297.158,369.439,296.188,358.844,296.889z"
         id="path184" /><path
         fill="#F1B085"
         d="M428.029,314.698c-1.275,3.768-2.468,7.778-2.999,12.194c-0.212,1.767-0.452,3.728-0.693,5.822    c5.163,8.168,8.218,18.228,8.218,29.116c0,5.391-0.757,10.575-2.138,15.433c0.503,0.21,1.035,0.372,1.602,0.474    c14.548,2.62,13.975-30.361,20.444-52.191C444.441,321.565,436.378,317.784,428.029,314.698z"
         id="path186" /><path
         fill="#EF5A35"
         d="M505.665,456.49c-1.001-0.49-1.982-1.038-2.94-1.645c-2.451-1.548-3.35-5.098-2.008-7.929    c1.34-2.831,4.422-3.857,6.865-2.32c5.002,3.161,11.092,4.081,15.963,2.429c-4.961-6.056-6.375-13.991-3.852-22.358    c2.829-9.384,7.154-11.977,10.285-12.499c3.82-0.638,7.562,1.49,10.264,5.839c3.534,5.688,5.454,16.095,1.319,25.502    c-0.169,0.388-0.345,0.769-0.526,1.143c3.639,0.682,7.074,0.221,8.861-1.281c2.258-1.9,5.423-1.324,7.067,1.283    c1.645,2.609,1.147,6.263-1.111,8.163c-5.443,4.575-14.521,4.947-22.392,1.561c-2.022,1.608-4.267,2.863-6.709,3.736    C520.172,460.463,512.498,459.835,505.665,456.49z M531.348,423.936c-0.414,0.478-1.237,1.709-2.101,4.571    c-1.381,4.582-0.576,8.322,2.465,11.395c0.294-0.535,0.57-1.095,0.827-1.682c1.483-3.378,1.67-7.539,0.5-11.135    C532.489,425.393,531.786,424.374,531.348,423.936z"
         id="path188" /><rect
         x="121.246"
         y="107.019"
         fill="none"
         width="493.91"
         height="570.408"
         id="rect190" /></g></g><g
     inkscape:groupmode="layer"
     id="layer1"
     inkscape:label="Layer 1"
     style="display:inline" /><g
     inkscape:groupmode="layer"
     id="layer3"
     inkscape:label="Layer 3"
     style="display:inline"><g
       style="display:inline"
       id="Capa_4"
       transform="matrix(0.90140078,0,0,0.9227917,37.7077,-30.018353)"><rect
         x="73.765999"
         y="269.77802"
         width="652.46698"
         height="219.52499"
         id="rect10"
         style="fill:#dfe5e6" /></g></g><g
     inkscape:groupmode="layer"
     id="layer2"
     inkscape:label="Layer 2"
     style="display:inline"><g
       id="background"
       transform="matrix(0.90140078,0,0,0.9227917,31.59651,-26.890247)"><g
         id="g13"><g
           id="g15"><path
             d="m 693.356,473.801 c -0.211,0 -0.395,-0.026 -0.541,-0.06 l -1.343,-0.313 -0.515,-1.724 c 0.018,0.039 0.212,0.395 0.617,0.645 l 0.872,-1.398 -0.924,-0.246 c 0.299,-1.127 0.598,-2.191 0.885,-3.217 1.543,-5.49 2.662,-9.458 0.99,-15.23 -0.536,-1.856 -1.1,-3.677 -1.659,-5.485 -1.667,-5.389 -3.391,-10.968 -4.184,-16.955 -0.106,-0.774 -0.233,-1.716 -0.347,-2.767 -2.011,-0.14 -3.947,-0.756 -5.785,-1.848 -8.425,-4.979 -12.42,-18.903 -13.449,-26.347 -1.544,-11.126 -3,-21.638 -14.342,-25.208 -9.077,-2.86 -20.751,-2.627 -31.056,-2.422 -2.7,0.053 -5.345,0.106 -7.879,0.106 -6.563,0 -10.342,0.38 -14.346,0.785 -3.731,0.378 -7.593,0.768 -13.814,0.825 -2.965,0.028 -8.288,0.17 -13.66,0.314 -5.662,0.152 -11.377,0.304 -14.491,0.328 -3.428,0.053 -6.92,-0.196 -10.287,-0.416 -4.218,-0.275 -8.587,-0.561 -12.872,-0.336 -11.662,0.587 -24.456,0.53 -39.113,-0.167 -9.833,-0.469 -18.799,0.106 -28.284,0.715 -13.885,0.895 -28.24,1.819 -46.4,-0.565 -7.884,-1.032 -15.977,-0.995 -23.803,-0.94 -6.7,0.033 -13.623,0.075 -20.451,-0.55 -10.074,-0.933 -20.452,0.161 -30.496,1.221 -3.724,0.394 -7.424,0.783 -11.088,1.071 -20.079,1.581 -40.325,3.594 -59.906,5.543 -7.05,0.702 -14.107,1.403 -21.181,2.088 -11.904,1.152 -25.808,1.097 -40.206,-0.163 -5.109,-0.447 -9.72,-1.534 -14.179,-2.585 -7.041,-1.657 -13.695,-3.22 -21.552,-2.103 -14.967,2.136 -29.299,4.767 -40.177,13.387 -9.344,7.408 -11.477,14.843 -14.181,24.254 -1.04,3.624 -2.116,7.368 -3.7,11.442 -2.782,7.163 -6.324,12.182 -14.555,13.401 -1.305,0.197 -2.768,0.176 -4.186,0.168 -2.028,-0.027 -4.846,-0.054 -5.501,0.822 -0.15,0.198 -0.579,1.056 0.215,3.678 0.541,1.791 2.092,2.961 3.885,4.317 2.778,2.094 6.234,4.703 5.237,10.21 -1.311,7.242 -7.93,7.11 -11.856,7.044 -1.472,-0.026 -3.487,-0.066 -4.008,0.343 l -2.767,-3.555 c 1.78,-1.386 4.237,-1.342 6.859,-1.293 4.656,0.106 6.773,-0.207 7.338,-3.339 0.482,-2.661 -0.801,-3.766 -3.515,-5.816 -2.119,-1.597 -4.518,-3.41 -5.484,-6.608 -1.021,-3.371 -0.86,-5.882 0.493,-7.686 2.024,-2.697 5.812,-2.649 9.151,-2.622 1.3,0.017 2.523,0.027 3.48,-0.119 6.159,-0.91 8.625,-4.421 11.018,-10.575 1.507,-3.88 2.554,-7.527 3.566,-11.052 2.695,-9.379 5.237,-18.239 15.714,-26.544 11.759,-9.319 26.737,-12.089 42.337,-14.317 8.7,-1.239 16.082,0.499 23.222,2.18 4.305,1.014 8.754,2.063 13.539,2.481 14.126,1.234 27.74,1.293 39.379,0.167 7.072,-0.686 14.124,-1.388 21.171,-2.087 19.601,-1.952 39.871,-3.966 59.998,-5.552 3.623,-0.286 7.285,-0.671 10.97,-1.058 10.261,-1.082 20.873,-2.198 31.38,-1.23 6.608,0.61 13.409,0.563 20.01,0.532 7.98,-0.057 16.227,-0.094 24.415,0.979 17.724,2.318 31.855,1.417 45.524,0.534 9.616,-0.616 18.705,-1.201 28.789,-0.719 14.505,0.695 27.162,0.754 38.67,0.167 4.549,-0.229 9.045,0.06 13.392,0.341 3.437,0.222 6.662,0.458 9.961,0.407 3.097,-0.024 8.781,-0.176 14.408,-0.326 5.402,-0.145 10.752,-0.288 13.739,-0.317 6.01,-0.055 9.772,-0.435 13.405,-0.801 3.933,-0.398 8.007,-0.81 14.795,-0.81 2.503,0 5.116,-0.052 7.791,-0.105 10.646,-0.216 22.714,-0.451 32.498,2.628 14.061,4.428 15.86,17.421 17.447,28.887 0.858,6.184 4.32,18.974 11.28,23.092 1.021,0.603 2.077,0.985 3.172,1.152 -0.136,-5.601 0.867,-11.79 6.147,-12.864 5.094,-1.038 6.458,2.284 6.761,3.326 1.201,4.14 -2.336,11.592 -6.208,13.066 -0.634,0.242 -1.263,0.444 -1.888,0.603 0.08,0.721 0.167,1.483 0.277,2.288 0.787,5.939 2.379,11.09 4.07,16.546 0.563,1.83 1.135,3.678 1.68,5.56 2.029,7.007 0.634,11.966 -0.98,17.707 -0.281,0.999 -0.576,2.04 -0.866,3.141 l -0.458,0.885 c -0.727,0.857 -1.492,1.064 -2.064,1.064 z m 1.478,-59.88 c -0.216,0 -0.515,0.027 -0.906,0.107 -1.109,0.229 -2.653,1.667 -2.539,7.98 0.198,-0.066 0.391,-0.133 0.59,-0.211 0.836,-0.317 2.86,-3.005 3.431,-5.847 0.268,-1.32 0.031,-1.879 -0.026,-1.936 0,0 -0.14,-0.093 -0.55,-0.093 z"
             id="path17"
             inkscape:connector-curvature="0"
             style="fill:#ae4c43" /></g><path
           d="m 332.091,469.877 c 0.944,2.318 1.885,5.82 3.379,7.628 5.284,-1.887 15.363,-2.701 18.271,-8.121 -3.233,-1.337 -11.084,-0.624 -14.265,0.458 -0.787,-1.668 -1.727,-3.973 -2.879,-5.314 l -4.506,5.349 z"
           id="path19"
           inkscape:connector-curvature="0"
           style="fill:#b68ad1" /><path
           d="m 273.283,465.587 c -1.817,1.724 -4.734,3.88 -5.873,5.93 3.684,4.232 8.115,13.322 14.221,14.052 0.07,-3.498 -3.456,-10.55 -5.622,-13.118 1.262,-1.338 3.069,-3.054 3.897,-4.616 l -6.623,-2.248 z"
           id="path21"
           inkscape:connector-curvature="0"
           style="fill:#b68ad1" /><path
           d="m 276.343,425.673 c -0.341,3.079 -1.102,6.458 -0.35,9.595 0.59,2.463 2.303,4.575 2.884,6.937 1.355,5.504 -3.322,10.651 -6.491,14.734 -1.572,2.028 -3.953,3.692 -5.263,5.9 -1.615,2.719 0.138,3.524 2.729,5.143 1.951,1.218 4.387,2.626 6.492,3.528 3.306,1.425 3.533,-0.229 5.576,-2.79 3.169,-3.972 6.63,-7.606 9.566,-11.807 3.069,-4.395 3.599,-7.206 4.566,-12.095 1.056,-5.331 4.182,-10.149 5.281,-15.775 0.456,-2.332 2.089,-7.919 0.932,-10.141 -0.671,-1.288 -4.718,-3.273 -6.121,-4.003 -2.222,-1.161 -5.013,-2.181 -7.42,-2.952 -2.646,-0.848 -5.46,-0.906 -8.44,-0.914 l -3.941,14.64 z"
           id="path23"
           inkscape:connector-curvature="0"
           style="fill:#005774" /><path
           d="m 276.343,425.673 c -0.341,3.079 -1.102,6.458 -0.35,9.595 0.59,2.463 2.303,4.575 2.884,6.937 1.355,5.504 -3.322,10.651 -6.491,14.734 -1.572,2.028 -3.953,3.692 -5.263,5.9 -1.615,2.719 0.138,3.524 2.729,5.143 1.951,1.218 4.387,2.626 6.492,3.528 3.306,1.425 3.533,-0.229 5.576,-2.79 3.169,-3.972 6.63,-7.606 9.566,-11.807 3.069,-4.395 3.599,-7.206 4.566,-12.095 1.056,-5.331 4.182,-10.149 5.281,-15.775 0.456,-2.332 2.089,-7.919 0.932,-10.141 -0.671,-1.288 -4.718,-3.273 -6.121,-4.003 -2.222,-1.161 -5.013,-2.181 -7.42,-2.952 -2.646,-0.848 -5.46,-0.906 -8.44,-0.914 l -3.941,14.64 z"
           id="path25"
           inkscape:connector-curvature="0"
           style="opacity:0.23000004;fill:#005774" /><path
           d="m 290.702,429.615 c 2.274,3.955 6.377,7.175 9.298,10.698 1.824,2.195 3.368,4.184 5.343,6.194 4.562,4.638 8.682,9.204 13.515,13.506 2.428,2.164 4.688,4.276 6.397,7.109 1.315,2.177 2.233,5.21 5.076,4.95 2.063,-0.185 5.433,-2.996 7.116,-4.246 2.699,-2.002 2.378,-2.099 1.19,-4.989 -2.09,-5.081 -4.45,-10.11 -6.476,-15.2 -1.069,-2.679 -1.991,-5.362 -3.244,-7.946 -1.54,-3.167 -4.089,-5.846 -5.906,-8.952 -3.04,-5.196 -5.724,-10.506 -8.3,-15.895 -3.154,-6.604 -9.333,-2.058 -14.717,-0.153 -2.862,1.012 -4.312,1.311 -5.842,4.223 -1.193,2.266 -1.39,5.272 -2.886,7.04 l -0.564,3.661 z"
           id="path27"
           inkscape:connector-curvature="0"
           style="fill:#005774" /><path
           d="m 275.687,420.511 c 0.359,2.868 -1.618,4.879 -1.069,7.827 2.213,0.357 3.931,-0.59 5.948,-0.612 2.406,-0.026 4.434,0.809 6.766,1.513 3.311,0.995 3.676,1.162 6.584,-0.4 2.228,-1.193 3.831,-2.852 6.652,-3.093 4.984,-0.432 7.943,3.929 12.305,-0.348 2.252,-2.214 1.892,-4.246 5.339,-5.178 2.01,-0.55 5.868,1.139 5.846,-1.901 -3.634,-1.074 -5.612,-2.723 -8.119,-5.34 -3.169,-3.305 -4.476,-2.262 -8.718,-1.189 -9.005,2.274 -21.079,-1.43 -29.282,1.962 l -2.252,6.759 z"
           id="path29"
           inkscape:connector-curvature="0"
           style="fill:#e95f7d" /><path
           d="m 252.41,368.795 c 1.099,2.202 1.52,4.833 2.549,7.116 1.331,2.95 3.143,5.686 4.85,8.432 2.97,4.784 7.175,8.62 9.494,13.807 2.165,4.844 3.174,9.481 2.191,14.632 -0.737,3.863 0.367,7.369 2.081,10.871 5.512,-0.255 11.339,0.858 16.9,0.612 4.109,-0.185 8.275,-1.192 12.327,-2.177 3.673,-0.893 8.258,-1.751 11.551,-3.524 1.291,-0.695 4.821,-2.952 5.081,-4.43 0.322,-1.826 -2.466,-6.555 -3.391,-8.169 -2.835,-4.945 -4.903,-10.287 -7.813,-15.209 -1.859,-3.141 -3.788,-6.082 -5.763,-8.973 -6.806,-7.927 -10.437,-10.65 -17.664,-17.648 -1.331,-1.289 -8.385,-7.123 -9.79,-8.361 -4.041,-3.557 -9.91,-3.949 -15.011,-4.168 -4.573,-0.196 -4.285,2.686 -5.681,6.491 -0.269,0.726 -0.693,1.36 -0.783,1.69 l -1.128,9.008 z"
           id="path31"
           inkscape:connector-curvature="0"
           style="fill:#ff9db9" /><path
           d="m 280.003,304.318 c 6.672,0.707 4.441,-8.728 4.441,-17.199 -18.503,-4.905 -41.166,-13.235 -56.074,3.427 -17.439,19.496 -13.915,48.136 -4.138,70.762 3.506,8.113 5.203,15.266 14.76,15.241 8.642,-0.022 17.569,-1.984 24.674,-7.344 -1.775,-3.047 -3.583,-15.033 -5.625,-17.771 l 21.962,-47.116 z"
           id="path33"
           inkscape:connector-curvature="0"
           style="fill:#ffad32" /><path
           d="m 256.541,358.565 c 6.245,2.862 18.207,-0.553 23.44,-4.316 7.175,-5.163 7.354,-9.208 5.79,-17.177 1.366,-0.843 4.742,-1.777 6.509,-2.142 -4.017,-21.225 -7.529,-36.22 -23.653,-37.778 5.376,10.596 -0.482,32.742 -14.377,35.135 -3.726,0.643 -18.585,-4.205 -13.657,7.693 1.491,3.598 6.139,2.751 8.31,5.035 1.657,1.742 0.885,10.455 7.638,13.55 z"
           id="path35"
           inkscape:connector-curvature="0"
           style="fill:#ffd5ad" /><path
           d="m 279.873,362.836 c 14.174,2.968 15.032,3.469 27.078,5.666 6.023,1.1 11.784,2.189 17.894,0.761 3.198,-0.748 14.366,-6.619 16.748,-3.128 -1.113,1.617 -5.827,2.644 -6.203,4.552 -0.803,4.067 6.074,2.151 7.017,3.852 3.935,7.074 -11.731,4.802 -13.928,4.063 -5.607,-1.885 -8.94,-3.238 -15.439,-3.141 -7.043,0.101 -13.841,-1.181 -18.772,-1.126 -6.619,0.075 -10.788,0.17 -17.686,-1.746 -6.896,-1.916 -10.92,-2.855 -7.622,-9.729 1.749,-3.648 9.609,-0.296 10.913,-0.024 z"
           id="path37"
           inkscape:connector-curvature="0"
           style="fill:#ffd5ad" /><path
           d="m 462.237,469.877 c -0.942,2.318 -1.883,5.82 -3.378,7.628 -5.285,-1.887 -15.363,-2.701 -18.271,-8.121 3.233,-1.337 11.086,-0.624 14.267,0.458 0.787,-1.668 1.724,-3.973 2.876,-5.314 l 4.506,5.349 z"
           id="path39"
           inkscape:connector-curvature="0"
           style="fill:#7c5761" /><path
           d="m 521.047,465.587 c 1.817,1.724 4.733,3.88 5.873,5.93 -3.688,4.232 -8.117,13.322 -14.224,14.052 -0.07,-3.498 3.458,-10.55 5.622,-13.118 -1.263,-1.338 -3.067,-3.054 -3.898,-4.616 l 6.627,-2.248 z"
           id="path41"
           inkscape:connector-curvature="0"
           style="fill:#7c5761" /><path
           d="m 517.985,425.673 c 0.343,3.079 1.103,6.458 0.352,9.595 -0.589,2.463 -2.305,4.575 -2.886,6.937 -1.355,5.504 3.321,10.651 6.492,14.734 1.571,2.028 3.952,3.692 5.263,5.9 1.614,2.719 -0.137,3.524 -2.728,5.143 -1.953,1.218 -4.386,2.626 -6.493,3.528 -3.305,1.425 -3.533,-0.229 -5.575,-2.79 -3.172,-3.972 -6.629,-7.606 -9.568,-11.807 -3.066,-4.395 -3.598,-7.206 -4.566,-12.095 -1.056,-5.331 -4.18,-10.149 -5.28,-15.775 -0.457,-2.332 -2.089,-7.919 -0.932,-10.141 0.668,-1.288 4.716,-3.273 6.119,-4.003 2.221,-1.161 5.016,-2.181 7.421,-2.952 2.645,-0.848 5.46,-0.906 8.439,-0.914 l 3.942,14.64 z"
           id="path43"
           inkscape:connector-curvature="0"
           style="fill:#404040" /><path
           d="m 517.985,425.673 c 0.343,3.079 1.103,6.458 0.352,9.595 -0.589,2.463 -2.305,4.575 -2.886,6.937 -1.355,5.504 3.321,10.651 6.492,14.734 1.571,2.028 3.952,3.692 5.263,5.9 1.614,2.719 -0.137,3.524 -2.728,5.143 -1.953,1.218 -4.386,2.626 -6.493,3.528 -3.305,1.425 -3.533,-0.229 -5.575,-2.79 -3.172,-3.972 -6.629,-7.606 -9.568,-11.807 -3.066,-4.395 -3.598,-7.206 -4.566,-12.095 -1.056,-5.331 -4.18,-10.149 -5.28,-15.775 -0.457,-2.332 -2.089,-7.919 -0.932,-10.141 0.668,-1.288 4.716,-3.273 6.119,-4.003 2.221,-1.161 5.016,-2.181 7.421,-2.952 2.645,-0.848 5.46,-0.906 8.439,-0.914 l 3.942,14.64 z"
           id="path45"
           inkscape:connector-curvature="0"
           style="opacity:0.17000002;fill:#404040" /><path
           d="m 508.676,423.007 c -2.274,3.955 -11.425,13.783 -14.347,17.306 -1.826,2.195 -3.37,4.184 -5.345,6.194 -4.562,4.638 -8.68,9.204 -13.515,13.506 -2.428,2.164 -4.686,4.276 -6.397,7.109 -1.315,2.177 -2.231,5.21 -5.077,4.95 -2.063,-0.185 -5.433,-2.996 -7.114,-4.246 -2.701,-2.002 -2.38,-2.099 -1.192,-4.989 2.089,-5.081 4.452,-10.11 6.476,-15.2 1.069,-2.679 1.992,-5.362 3.246,-7.946 1.54,-3.167 4.087,-5.846 5.905,-8.952 3.039,-5.196 5.723,-10.506 8.301,-15.895 3.154,-6.604 9.331,-2.058 14.716,-0.153 2.863,1.012 4.311,1.311 5.842,4.223 1.192,2.266 6.441,-1.337 7.937,0.432 l 0.564,3.661 z"
           id="path47"
           inkscape:connector-curvature="0"
           style="fill:#404040" /><path
           d="m 601.569,435.796 c -6.609,10.114 -11.892,20.975 -17.175,31.815 -1.268,2.6 2.617,4.888 3.888,2.275 5.283,-10.84 10.568,-21.701 17.175,-31.816 1.592,-2.438 -2.309,-4.694 -3.888,-2.274 z"
           id="path49"
           inkscape:connector-curvature="0"
           style="fill:#ffd5ad" /><path
           d="m 649.028,467.158 c -4.338,-5.107 -8.464,-10.765 -11.459,-16.779 -1.844,-3.7 -3.318,-8.342 -6.56,-11.095 -2.2,-1.869 -5.403,1.302 -3.185,3.185 3.44,2.921 4.936,8.504 6.995,12.415 2.908,5.517 6.994,10.717 11.024,15.459 1.884,2.218 5.055,-0.985 3.185,-3.185 z"
           id="path51"
           inkscape:connector-curvature="0"
           style="fill:#ffd5ad" /><path
           d="m 541.917,368.795 c -1.099,2.202 -1.517,4.833 -2.547,7.116 -1.333,2.95 -3.145,5.686 -4.852,8.432 -2.97,4.784 -7.176,8.62 -9.494,13.807 -2.164,4.844 -3.172,9.481 -2.19,14.632 0.739,3.863 -0.365,7.369 -2.081,10.871 -5.513,-0.255 -11.338,0.858 -16.898,0.612 -4.11,-0.185 -8.276,-1.192 -12.328,-2.177 -3.673,-0.893 -8.257,-1.751 -11.552,-3.524 -1.289,-0.695 -4.821,-2.952 -5.082,-4.43 -0.321,-1.826 2.469,-6.555 3.392,-8.169 2.838,-4.945 4.906,-10.287 7.813,-15.209 1.861,-3.141 3.788,-6.082 5.764,-8.973 6.806,-7.927 10.44,-10.65 17.663,-17.648 1.333,-1.289 8.386,-7.123 9.794,-8.361 4.039,-3.557 9.907,-3.949 15.011,-4.168 4.57,-0.196 4.284,2.686 5.679,6.491 0.267,0.726 0.694,1.36 0.782,1.69 l 1.126,9.008 z"
           id="path53"
           inkscape:connector-curvature="0"
           style="fill:#00c457" /><path
           d="m 514.457,362.836 c -14.175,2.968 -15.033,3.469 -27.078,5.666 -6.023,1.1 -11.786,2.189 -17.896,0.761 -3.199,-0.748 -14.364,-6.619 -16.748,-3.128 1.113,1.617 5.83,2.644 6.203,4.552 0.805,4.067 -6.071,2.151 -7.017,3.852 -3.932,7.074 11.733,4.802 13.929,4.063 5.609,-1.885 8.94,-3.238 15.442,-3.141 7.044,0.101 13.84,-1.181 18.772,-1.126 6.616,0.075 10.787,0.17 17.685,-1.746 6.893,-1.916 10.919,-2.855 7.62,-9.729 -1.748,-3.648 -9.61,-0.296 -10.912,-0.024 z"
           id="path55"
           inkscape:connector-curvature="0"
           style="fill:#ffd5ad" /><path
           d="m 606.42,414.503 c -0.541,4.276 -7.526,10.738 -10.584,13.893 -2.767,2.847 -5.806,5.842 -8.231,9.01 10.356,9.837 25.613,13.665 39.666,15.785 5.116,0.774 10.68,-0.277 15.564,-1.501 3.502,-0.88 8.76,-1.732 11.584,-3.85 -1.729,-4.905 -2.309,-10.607 -3.238,-15.692 -0.995,-5.442 -3.515,-10.863 -5.033,-16.075 -7.888,-0.758 -14.852,-5.029 -22.556,-6.375 -2.34,-0.409 -13.572,0.901 -13.418,-1.954 l -3.754,6.759 z"
           id="path57"
           inkscape:connector-curvature="0"
           style="fill:#a55a37" /><path
           d="m 669.498,368.795 c -1.099,2.202 -1.522,4.833 -2.551,7.116 -1.329,2.95 -3.141,5.686 -4.848,8.432 -2.97,4.784 -7.176,8.62 -9.493,13.807 -2.165,4.844 -3.176,9.481 -2.191,14.632 0.735,3.863 -0.37,7.369 -2.081,10.871 -5.513,-0.255 -11.341,0.858 -16.902,0.612 -4.109,-0.185 -8.275,-1.192 -12.328,-2.177 -3.674,-0.893 -8.257,-1.751 -11.548,-3.524 -1.294,-0.695 -4.822,-2.952 -5.081,-4.43 -0.321,-1.826 2.463,-6.555 3.391,-8.169 2.833,-4.945 4.901,-10.287 7.814,-15.209 1.856,-3.141 3.787,-6.082 5.763,-8.973 6.805,-7.927 10.436,-10.65 17.664,-17.648 1.328,-1.289 8.384,-7.123 9.787,-8.361 4.044,-3.557 9.913,-3.949 15.011,-4.168 4.576,-0.196 4.285,2.686 5.684,6.491 0.268,0.726 0.691,1.36 0.783,1.69 l 1.126,9.008 z"
           id="path59"
           inkscape:connector-curvature="0"
           style="fill:#b487d7" /><path
           d="m 669.498,368.795 c -1.099,2.202 -1.522,4.833 -2.551,7.116 -1.329,2.95 -3.141,5.686 -4.848,8.432 -2.97,4.784 -7.176,8.62 -9.493,13.807 -2.165,4.844 -3.176,9.481 -2.191,14.632 0.735,3.863 -0.37,7.369 -2.081,10.871 -5.513,-0.255 -11.341,0.858 -16.902,0.612 -4.109,-0.185 -8.275,-1.192 -12.328,-2.177 -3.674,-0.893 -8.257,-1.751 -11.548,-3.524 -1.294,-0.695 -4.822,-2.952 -5.081,-4.43 -0.321,-1.826 2.463,-6.555 3.391,-8.169 2.833,-4.945 4.901,-10.287 7.814,-15.209 1.856,-3.141 3.787,-6.082 5.763,-8.973 6.805,-7.927 10.436,-10.65 17.664,-17.648 1.328,-1.289 8.384,-7.123 9.787,-8.361 4.044,-3.557 9.913,-3.949 15.011,-4.168 4.576,-0.196 4.285,2.686 5.684,6.491 0.268,0.726 0.691,1.36 0.783,1.69 l 1.126,9.008 z"
           id="path61"
           inkscape:connector-curvature="0"
           style="opacity:0.16000001;fill:#b487d7" /><path
           d="m 642.034,362.836 c -14.175,2.968 -15.033,3.469 -27.079,5.666 -6.023,1.1 -11.781,2.189 -17.892,0.761 -3.197,-0.748 -14.368,-6.619 -16.748,-3.128 1.113,1.617 5.825,2.644 6.203,4.552 0.801,4.067 -6.075,2.151 -7.017,3.852 -3.937,7.074 11.729,4.802 13.929,4.063 5.604,-1.885 8.939,-3.238 15.438,-3.141 7.042,0.101 13.84,-1.181 18.77,-1.126 6.622,0.075 10.788,0.17 17.687,-1.746 6.898,-1.916 10.918,-2.855 7.623,-9.729 -1.751,-3.648 -9.608,-0.296 -10.914,-0.024 z"
           id="path63"
           inkscape:connector-curvature="0"
           style="fill:#ffd5ad" /><path
           d="m 496.05,364.949 c -0.471,4.434 1.848,8.585 2.683,12.707 8.23,-0.326 34.218,3.467 31.02,-11.581 -2.556,-12.032 -20.289,-6.449 -28.072,-4.505 l -5.631,3.379 z"
           id="path65"
           inkscape:connector-curvature="0"
           style="fill:#00c457" /><path
           d="m 514.07,307.135 c -4.201,-2.092 -9.027,-6.984 -8.275,-12.277 4.299,9.181 11.913,-2.448 15.125,-5.771 5.574,-5.772 13.018,-11.245 21.587,-10.867 6.955,0.306 14.21,3.469 18.763,8.718 4.065,4.681 6.445,9.366 13.241,9.685 1.638,0.077 3.296,0 4.937,0.002 -2.517,2.004 -4.531,2.348 -2.591,6.278 2.262,4.573 6.093,7.292 7.039,12.565 1.391,7.727 -1.302,14.533 -3.471,21.805 -1.184,3.955 -3.674,12.915 2.213,14.236 -1.557,3.023 -5.108,4.415 -7.998,3.744 1.087,0.935 0.849,1.328 2.459,1.511 -3.365,4.026 -14.025,5.739 -19.018,4.826 -5.332,-0.974 -12.02,-4.399 -15.481,-8.563 -2.485,-2.989 -4.157,-6.835 -6.85,-9.769 -2.86,-3.119 -6.555,-4.837 -9.687,-7.684 -4.131,-3.756 -6.458,-9.682 -7.945,-14.876 -0.497,0.084 -0.378,0.442 -0.669,0.702 l -3.379,-14.265 z"
           id="path67"
           inkscape:connector-curvature="0"
           style="fill:#441124" /><path
           d="m 540.079,332.287 c -13.893,-2.393 -19.754,-24.539 -14.377,-35.135 -16.124,1.557 -19.634,16.552 -23.651,37.778 1.764,0.365 5.143,1.3 6.507,2.142 -0.305,1.564 -0.515,2.943 -0.647,4.243 3.677,0.693 7.554,1.212 10.457,3.049 -1.651,2.455 -5.777,3.914 -8.988,4.923 1.029,1.652 2.587,3.249 4.967,4.962 5.235,3.764 17.197,7.178 23.439,4.316 6.753,-3.096 5.984,-11.809 7.643,-13.55 2.169,-2.283 6.818,-1.437 8.31,-5.035 4.927,-11.898 -9.934,-7.05 -13.66,-7.693 z"
           id="path69"
           inkscape:connector-curvature="0"
           style="fill:#ffd5ad" /><path
           d="m 635.381,343.578 0.097,-2.164 c -0.074,0.754 -0.101,1.478 -0.097,2.164 z"
           id="path71"
           inkscape:connector-curvature="0"
           style="fill:#ffd5ad" /><path
           d="m 635.518,340.547 -0.04,0.867 c 0.026,-0.286 0.057,-0.572 0.093,-0.869 -0.018,-0.002 -0.036,0.005 -0.053,0.002 z"
           id="path73"
           inkscape:connector-curvature="0"
           style="fill:#f6ffff" /><path
           d="m 638.144,315.581 c -4.967,0.944 -2.71,-16.935 -1.487,-19.632 3.312,-7.283 12.102,-15.017 20.272,-15.859 6.67,-0.686 14.966,0.055 21.134,2.527 8.614,3.456 12.464,13.306 14.351,21.634 0.339,1.498 0.445,3.035 0.906,4.472 3.502,-3.458 9.067,-6.458 14.1,-5.317 5.619,1.271 7.489,6.535 6.529,11.832 -1.135,6.296 -4.531,12.564 -2.247,19.15 2.068,5.973 8.706,8.773 12.05,2.099 -0.07,4.768 -0.427,7.266 -4.799,9.854 -3.718,2.2 -7.206,1.353 -10.405,-1.26 -6.256,-5.114 -10.114,-14.252 -11.338,-21.876 -1.336,3.99 0.054,8.944 -1.706,13.211 -1.773,4.296 -3.823,9.065 -7.743,11.825 -5.925,4.173 -15.059,5.717 -21.984,5.589 -0.448,-1.773 -0.316,-3.572 -1.149,-5.332 -1.895,-4.001 -5.92,-7.195 -8.842,-10.398 -2.547,-2.791 -5.499,-5.424 -7.813,-8.398 -0.853,-1.098 -1.465,-2.477 -2.482,-3.318 0.01,0.462 0.348,0.238 0.537,0.458 l -7.884,-11.261 z"
           id="path75"
           inkscape:connector-curvature="0"
           style="fill:#340512" /><path
           d="m 667.66,332.287 c -13.898,-2.393 -19.753,-24.539 -14.378,-35.135 -16.124,1.557 -19.639,16.552 -23.654,37.778 1.768,0.365 5.141,1.3 6.511,2.142 -0.246,1.258 -0.427,2.391 -0.567,3.474 3.484,0.29 7.034,-1.406 10.413,-1.267 1.557,0.064 1.719,0.394 1.552,2.354 -0.084,1.034 -0.598,2.314 -1.078,3.233 -1.544,2.948 -5.961,4.666 -9.493,4.433 1.034,1.65 2.587,3.242 4.962,4.951 5.23,3.764 17.193,7.178 23.44,4.316 6.753,-3.096 5.979,-11.809 7.637,-13.55 2.173,-2.283 6.819,-1.437 8.311,-5.035 4.925,-11.899 -9.93,-7.051 -13.656,-7.694 z"
           id="path77"
           inkscape:connector-curvature="0"
           style="fill:#ffd5ad" /><path
           d="m 646.459,344.865 c 0.48,-0.919 0.994,-2.199 1.078,-3.233 0.167,-1.96 0.004,-2.29 -1.552,-2.354 -3.379,-0.138 -6.929,1.557 -10.413,1.267 -0.036,0.297 -0.067,0.583 -0.093,0.869 l -0.097,2.164 c 0.022,2.116 0.485,3.964 1.584,5.719 3.532,0.234 7.949,-1.484 9.493,-4.432 z"
           id="path79"
           inkscape:connector-curvature="0"
           style="fill:#f6ffff" /><path
           d="m 606.047,365.698 c 0.074,2.996 -0.207,10.275 1.482,12.785 1.773,2.64 6.529,2.378 9.696,2.982 9.124,1.742 18.834,-0.871 27.491,-4.036 5.812,-2.125 15.971,-6.747 12.385,-14.734 -2.267,-5.046 -11.76,-4.381 -16.6,-4.131 -5.957,0.307 -11.944,2.349 -17.544,3.765 -4.786,1.21 -9.995,1.201 -14.659,2.618 l -2.251,0.751 z"
           id="path81"
           inkscape:connector-curvature="0"
           style="fill:#b487d7" /><path
           d="m 187.489,445.883 c 6.054,7.122 10.875,15.705 12.252,25.046 0.42,2.841 -3.92,4.064 -4.342,1.196 -1.267,-8.578 -5.521,-16.493 -11.095,-23.057 -1.87,-2.2 1.302,-5.402 3.185,-3.185 z"
           id="path83"
           inkscape:connector-curvature="0"
           style="fill:#ffd5ad" /><path
           d="m 117.938,451.506 c 1.192,-5.099 5.165,-9.116 8.706,-12.702 2.044,-2.068 5.229,1.118 3.185,3.186 -3.722,3.77 -6.74,7.263 -7.978,12.551 -1.419,6.071 -1.302,12.806 -2.408,19 -0.508,2.856 -4.85,1.641 -4.342,-1.196 1.226,-6.89 1.246,-14.042 2.837,-20.839 z"
           id="path85"
           inkscape:connector-curvature="0"
           style="fill:#ffd5ad" /><path
           d="m 589.817,469.877 c -0.945,2.318 -1.887,5.82 -3.378,7.628 -5.283,-1.887 -15.362,-2.701 -18.27,-8.121 3.234,-1.337 11.081,-0.624 14.262,0.458 0.787,-1.668 1.729,-3.973 2.882,-5.314 l 4.504,5.349 z"
           id="path87"
           inkscape:connector-curvature="0"
           style="fill:#ffad32" /><path
           d="m 105.104,388.366 c 0.627,-1.874 2.834,-1.887 3.887,-0.845 1.482,-0.149 3.044,0.934 2.353,2.676 -1.377,3.479 -3.647,6.832 0.361,9.225 5.118,3.057 12.137,2.679 17.735,1.601 1.621,-0.317 2.678,0.967 2.783,2.226 1.857,0.541 2.33,3.665 -0.009,4.329 -9.093,2.582 -17.523,1.008 -25.721,-3.432 -2.02,-1.091 -5.163,-3.075 -5.266,-5.697 -0.154,-3.911 2.694,-6.55 3.877,-10.083 z"
           id="path89"
           inkscape:connector-curvature="0"
           style="fill:#ffd5ad" /><path
           d="m 177.879,413.754 c 2.162,4.342 7.006,8.157 10.127,12.015 2.791,3.444 5.138,7.307 7.235,11.166 0.589,1.082 3.22,4.597 2.954,5.746 -0.253,1.099 -5.222,4.706 -6.133,5.608 -3.121,3.084 -6.835,7.849 -11.106,9.331 -4.371,-5.495 -6.977,-13.021 -12.558,-17.487 -4.712,-3.77 -11.652,-3.546 -17.549,-3.854 -6.698,-0.352 -10.382,3.62 -13.975,8.987 -1.566,2.341 -2.483,6.156 -4.775,6.392 -2.248,0.229 -7.629,-3.212 -9.774,-4.201 -2.109,-0.972 -4.555,-1.914 -6.049,-3.674 5.752,-8.156 12.417,-16.097 15.116,-25.837 5.895,0.192 13.581,-1.993 19.355,-3.164 4.469,-0.907 12.208,-3.749 16.244,-1.782 l 10.888,0.754 z"
           id="path91"
           inkscape:connector-curvature="0"
           style="fill:#005774" /><path
           d="m 158.526,372.168 c 9.386,3.317 19.252,4.395 28.626,7.694 3.85,1.353 18.185,4.702 21.606,4.715 1.661,0.007 2.871,-1.935 1.945,-3.389 -1.557,-2.444 1.68,-1.723 3.71,-2.066 1.335,-0.224 2.185,-2.211 1.346,-3.309 -2.934,-3.84 -5.51,-4.459 -10.2,-2.541 -11.381,4.65 -26.924,-1.467 -37.077,-7.118 -1.533,-0.854 -2.948,0.228 -3.289,1.526 -2.021,-0.205 -4.045,-0.215 -6.069,0.062 -2.571,0.178 -3.022,3.57 -0.598,4.426 z"
           id="path93"
           inkscape:connector-curvature="0"
           style="fill:#ffd5ad" /><path
           d="m 648.623,465.587 c 1.817,1.724 4.734,3.88 5.873,5.93 -3.682,4.232 -8.112,13.322 -14.219,14.052 -0.07,-3.498 3.453,-10.55 5.622,-13.118 -1.262,-1.338 -3.07,-3.054 -3.897,-4.616 l 6.621,-2.248 z"
           id="path95"
           inkscape:connector-curvature="0"
           style="fill:#ffad32" /><path
           d="m 140.526,357.815 c 3.293,-2.455 9.88,0.86 13.172,2.048 3.979,1.436 8.086,2.813 12.168,3.521 1.632,0.282 4.19,0.238 5.631,1.188 2.508,1.652 0.588,3.878 -0.633,6.461 -1.041,2.204 -1.534,4.472 -3.59,4.863 -1.832,0.35 -5.215,-1.067 -7.017,-1.434 3.519,5.708 7.373,11.211 10.677,17.143 2.526,4.53 2.052,11.565 5.337,15.124 1.388,1.51 6.282,2.336 6.854,4.012 0.908,2.675 -5.273,6.692 -7.123,7.893 -7.505,4.87 -15.299,6.766 -23.941,8.164 -6.392,1.033 -12.661,0.66 -19.137,0.295 -3.741,-0.211 -8.775,-0.721 -11.784,-3.181 0.649,-2.138 2.27,-4.048 2.493,-6.406 0.246,-2.648 -1.007,-5.173 -1.91,-7.536 -2.006,-5.261 -4.756,-10.488 -5.117,-16.299 -0.864,1.218 -1.815,2.275 -2.604,3.528 -3.755,-2.015 -12.954,-6.221 -13.807,-10.948 -0.752,-4.157 5.754,-9.614 7.952,-12.938 1.468,-2.22 2.737,-4.56 4.23,-6.771 1.197,-1.77 1.991,-4.775 3.647,-6.201 4.54,-3.909 10.129,5.358 14.656,6.192 3.148,0.581 7.521,-4.271 5.904,-6.467 l 3.942,-2.251 z"
           id="path97"
           inkscape:connector-curvature="0"
           style="fill:#63c8dd" /><path
           d="m 138.273,356.125 c 2.86,6.172 0.851,15.079 -7.321,14.093 -7.822,-0.946 -9.179,-7.078 -12.952,-12.686 l 20.273,-1.407 z"
           id="path99"
           inkscape:connector-curvature="0"
           style="fill:#ffd5ad" /><path
           d="m 138.273,356.125 c 2.86,6.172 0.851,15.079 -7.321,14.093 -7.822,-0.946 -9.179,-7.078 -12.952,-12.686 l 20.273,-1.407 z"
           id="path101"
           inkscape:connector-curvature="0"
           style="opacity:0.43000004;fill:#ffd5ad" /><path
           d="m 147.847,314.642 c 10.475,12.371 9.912,28.818 -0.471,40.461 -8.893,9.975 -24.152,12.27 -36.395,7.53 -17.213,-6.668 -29.927,-26.92 -13.834,-41.981 10.281,-9.626 26.165,-17.478 40.564,-15.028 0.682,0.117 2.977,0.953 2.627,0.761 l 7.509,8.257 z"
           id="path103"
           inkscape:connector-curvature="0"
           style="fill:#ffd5ad" /><path
           d="m 198.527,471.566 c -1.186,0.409 -1.801,0.585 -3.128,0.559 -1.122,4.087 -1.949,8.302 2.565,8.732 4.138,0.396 8.046,-0.031 12.063,0.238 0.939,-5.341 -10.022,-7.333 -10.257,-10.585 l -1.243,1.056 z"
           id="path105"
           inkscape:connector-curvature="0"
           style="fill:#a55a37" /><path
           d="m 119.409,473.678 c 0.108,1.838 1.755,3.167 1.83,5.064 0.048,1.245 0.325,3.238 -1.126,3.594 -1.028,0.255 -2.064,0.026 -3.111,0.071 -1.232,0.048 -2.459,0.22 -3.698,0.122 -1.713,-0.131 -3.44,-0.329 -5.147,-0.527 -0.629,-0.07 -1.244,-0.185 -1.878,-0.246 -0.266,-0.022 -0.77,0.035 -1.023,-0.049 -2.094,-0.73 4.157,-4.394 4.731,-4.716 1.866,-1.025 4.536,-2.336 5.139,-4.575 0.57,0.572 1.109,0.871 1.96,0.91 0.451,0.018 2.238,0.021 2.44,-0.273 l -0.117,0.625 z"
           id="path107"
           inkscape:connector-curvature="0"
           style="fill:#a55a37" /><path
           d="m 162.873,321.859 c -3.209,7.58 -13.876,6.242 -19.883,3.029 -4.998,-2.675 -8.566,-7.408 -13.37,-10.31 -3.418,3.409 -5.796,6.654 -10.413,8.543 -2.512,1.027 -2.787,0.552 -3.772,3.029 -1.163,2.926 -2.321,5.879 -3.546,8.786 -2.692,6.392 -6.69,11.093 -12.62,14.625 -1.661,0.988 -4.047,2.486 -6.071,2.068 -1.995,-0.414 -2.831,-3.847 -4.545,-5.735 -2.026,-2.235 -1.57,-2.565 -2.01,-5.358 -0.288,-1.835 0.301,-0.887 -1.257,-2.075 -1.212,-0.922 -2.503,-1.208 -3.547,-2.455 -3.467,-4.144 -2.279,-8.671 1.72,-11.431 2.273,-1.569 2.05,-1.025 2.081,-4.23 0.026,-2.413 0.609,-5.448 1.824,-7.572 1.337,-2.34 3.513,-2.831 5.44,-4.291 2.255,-1.709 2.664,-4.965 3.911,-7.824 1.533,-3.521 7.974,-5.979 11.293,-3.132 2.29,-4.063 5.71,-7.43 10.343,-8.737 5.208,-1.469 4.685,2.174 8.317,4.305 1.819,1.067 3.214,-0.218 4.998,-0.833 2.433,-0.84 4.151,-0.939 6.443,0.321 3.993,2.195 3.799,4.481 4.006,8.546 3.509,0.328 7.391,-0.044 8.986,4.074 1.166,3.005 -1.021,4.996 2.783,5.497 2.591,0.343 4.182,-0.222 5.118,3.086 0.348,1.229 -0.301,2.853 0.486,3.741 0.995,1.122 2.813,0.097 3.539,2.064 l -0.254,2.269 z"
           id="path109"
           inkscape:connector-curvature="0"
           style="fill:#ff792d" /><path
           d="m 396.856,391.049 c -0.246,-5.074 -0.979,-9.852 -2.752,-14.652 -0.768,-2.079 -2.886,-6.617 -5.015,-8.966 1.624,-4.85 2.389,-10.644 2.026,-15.103 -0.308,-3.766 -1.427,-7.567 -3.928,-10.514 -0.737,-0.869 -2.361,-2.631 -3.761,-2.032 -0.653,0.279 -1.12,1.861 -1.448,2.439 -0.262,-0.653 -0.68,-0.757 -1.177,-1.089 -3.528,4.318 -4.688,9.973 -4.12,15.411 0.326,3.104 1.445,5.794 2.853,8.596 0.579,1.153 1.986,3.755 3.405,5.53 -1.04,4.322 -3.554,8.486 -4.96,12.761 -1.447,4.39 -2.406,10.536 -1.696,15.199 0.904,5.926 4.209,9.969 6.692,14.998 1.471,2.978 4.109,6.634 4.914,9.771 3.885,-2.336 5.539,-10.475 7.054,-14.474 2.306,-6.084 2.225,-11.473 1.913,-17.875 z"
           id="path111"
           inkscape:connector-curvature="0"
           style="fill:#93a7ab" /></g></g></g></svg>