<svg xmlns="http://www.w3.org/2000/svg" xmlns:xlink="http://www.w3.org/1999/xlink" width="800" height="800" viewBox="0 0 800 800"><path d="M475.598 220.69c11.187 7.372-8.318-45.293-8.318-45.293s-7.772-11.765-58.516-4.486c-35.71 5.126-50.515 14.427-57.384 14.427-6.87 0-20.86-1.488-30.04-1.488s-21.105 2.474-33.108 6.88c-15.28 5.604-10.293 17.29-3.42 16.816 4.614-.317 5.815-2.42 9.63-2.744-3.423 2.6-30.126 12.904-32.995 28.288-2.87 15.383 6.79 13.05 12.786 6.41 6-6.64 19.93-19.595 25.23-18.274-1.88 2.41-15.744 12.522-22.765 26.623-10.962 22.02 3.766 24.49 9.79 20.003 6.023-4.486 17.243-27.05 24.604-33.522 8.65-7.602 18.48-10.486 20.657-9.413-7.557 8.323-11.66 10.255-19.72 27.877-10.947 23.934-8.447 35.667-5.005 41.436 3.443 5.768 9.61 1.762 11.904-1.122 2.294-2.884 4.955-25.522 14.394-40.13 9.44-14.61 28.424-28.23 35.714-17.45 6.384 9.44-1.576 17.112-3.01 28.65-1.435 11.537-4.532 34.65 5.162 36.34 14.58 2.54 9.817-45.996 24.16-53.688 14.34-7.69 26.535-22.117 31.41-33.975 8.894.32 37.655.47 48.842 7.84z" fill="#f1b085"/><path d="M376.056 292.812c-51.132-21.86-99.978-2.87-99.978-2.87s-7.427-26.173-23.853-21.545c-16.425 4.628-8.048 39.02-7.426 41.97-8.57 3.35-22.71 28.404-22.71 28.404s-20.036 2.598-23.445 2.956c-3.41.36-3.94 2.456-4.107 3.535-6.188 39.688 10.752 53.75 16.952 57.49 1.335.804 2.36 1.168 4.835.245 7.907-2.944 24.42-8.915 34.472-17.466 1.24 16.096-16.42 32.195-23.958 38.293-2.028 1.64-2.68 2.877-1.088 5.41 1.244 1.98 8.325 10.803 11.37 14.575.855 1.06 1.55 2.423 1.833 3.635 1.4 6.014 5.844 25.375 8.95 33.172.862 2.165 1.52 3.498 5.612 3.498h23.9c4.19 0 4.31-4.714 4.31-4.714l2.206-16.957s7.57 13.882 39.996 13.882c32.42 0 45.56-13.882 45.56-13.882s-4.15 18.038-3.687 15.986c.46-2.053-2.095 5.347 2.374 5.683 4.468.335 22.353 0 26.213 0 5.256 0 19.907-42.13 28.944-55.182 18.57-26.806 15.14-60.956 12.998-68.137-2.142-7.18-9.14-46.116-60.272-67.978z" fill="#dd532f"/><g transform="matrix(.739 0 0 .715 52.008 30.528)"><defs><path id="a" d="M573.142 426.875c0 86.997-74.41 172.458-201.046 172.458S149.42 498.37 149.42 411.373c0-86.995 96.04-137.045 222.676-137.045 126.636 0 201.046 65.552 201.046 152.547z"/></defs><clipPath id="b"><use xlink:href="#a" overflow="visible" width="100%" height="100%"/></clipPath><path clip-path="url(#b)" d="M438.61 366.963c-69.21-30.587-135.324-4.018-135.324-4.018s-10.052-36.617-32.285-30.14c-22.23 6.474-10.89 54.59-10.05 58.717-11.6 4.687-30.74 39.74-30.74 39.74s-27.114 3.63-31.73 4.13c-4.614.502-5.33 3.436-5.56 4.946-8.372 55.528 14.557 75.203 22.948 80.433 1.808 1.13 3.195 1.64 6.545.35 10.7-4.12 33.055-12.474 46.66-24.438 1.676 22.52-22.226 45.046-32.43 53.578-2.742 2.294-3.626 4.023-1.47 7.57 1.683 2.767 11.268 15.112 15.39 20.39 1.156 1.483 2.1 3.39 2.48 5.085 1.896 8.417 7.91 35.505 12.115 46.413 1.166 3.03 2.055 4.894 7.596 4.894h32.35c5.67 0 5.833-6.597 5.833-6.597l2.987-23.723s10.244 19.423 54.13 19.423c43.882 0 61.667-19.423 61.667-19.423s-5.615 25.236-4.99 22.365c.624-2.87-2.835 7.482 3.214 7.952 6.05.47 30.257 0 35.482 0 7.114 0 26.944-58.946 39.176-77.205 25.134-37.507 20.493-85.285 17.593-95.332-2.9-10.04-12.37-64.52-81.58-95.104z" fill="#dda23d"/><path clip-path="url(#b)" d="M438.61 366.963c-69.21-30.587-135.324-4.018-135.324-4.018s-10.052-36.617-32.285-30.14c-22.23 6.474-10.89 54.59-10.05 58.717-11.6 4.687-30.74 39.74-30.74 39.74s-27.114 3.63-31.73 4.13c-4.614.502-5.33 3.436-5.56 4.946-8.372 55.528 14.557 75.203 22.948 80.433 1.808 1.13 3.195 1.64 6.545.35 10.7-4.12 33.055-12.474 46.66-24.438 1.676 22.52-22.226 45.046-32.43 53.578-2.742 2.294-3.626 4.023-1.47 7.57 1.683 2.767 11.268 15.112 15.39 20.39 1.156 1.483 2.1 3.39 2.48 5.085 1.896 8.417 7.91 35.505 12.115 46.413 1.166 3.03 2.055 4.894 7.596 4.894h32.35c5.67 0 5.833-6.597 5.833-6.597l2.987-23.723s10.244 19.423 54.13 19.423c43.882 0 61.667-19.423 61.667-19.423s-5.615 25.236-4.99 22.365c.624-2.87-2.835 7.482 3.214 7.952 6.05.47 30.257 0 35.482 0 7.114 0 26.944-58.946 39.176-77.205 25.134-37.507 20.493-85.285 17.593-95.332-2.9-10.04-12.37-64.52-81.58-95.104z" fill="#ef5a35"/></g><path d="M373.365 321.275c-.76 0-1.53-.174-2.267-.54-32.25-16.075-68.22-7.253-68.58-7.163-2.995.762-5.98-1.338-6.664-4.688-.682-3.35 1.19-6.682 4.188-7.45 1.61-.41 39.87-9.877 75.596 7.93 2.81 1.402 4.072 5.082 2.82 8.22-.928 2.316-2.96 3.69-5.093 3.69z" fill="#c54a29"/><g transform="matrix(.739 0 0 .715 52.008 30.528)"><defs><path id="c" d="M434.854 416.928c-1.027 0-2.07-.242-3.068-.757-43.64-22.48-92.313-10.14-92.8-10.01-4.054 1.064-8.094-1.872-9.018-6.56-.924-4.683 1.61-9.344 5.666-10.415 2.18-.574 53.95-13.816 102.295 11.088 3.8 1.96 5.51 7.107 3.81 11.5-1.254 3.24-4.005 5.16-6.89 5.16z"/></defs><use xlink:href="#c" overflow="visible" width="100%" height="100%" fill="#ef5a35"/><clipPath id="d"><use xlink:href="#c" overflow="visible" width="100%" height="100%"/></clipPath><path clip-path="url(#d)" d="M434.854 406.64c-1.027 0-2.07-.244-3.068-.758-43.64-22.48-92.313-10.142-92.8-10.016-4.054 1.065-8.094-1.872-9.018-6.557-.924-4.69 1.61-9.35 5.666-10.42 2.18-.577 53.95-13.818 102.295 11.09 3.8 1.96 5.51 7.104 3.81 11.5-1.254 3.232-4.005 5.16-6.89 5.16z" fill="#b24223"/></g><g transform="matrix(.739 0 0 .715 52.008 30.528)"><ellipse cx="285.887" cy="438.183" rx="18.233" ry="21.057" fill="#fff"/><ellipse cx="285.887" cy="438.306" rx="9.897" ry="11.43" fill="#231f20"/><ellipse cx="289.281" cy="430.796" rx="6.503" ry="7.51" fill="#fff"/></g><path d="M376.142 292.907c-51.147-21.87-100.006-2.873-100.006-2.873s-7.428-26.18-23.858-21.55c-16.43 4.628-8.05 39.03-7.43 41.982-8.57 3.35-22.714 28.415-22.714 28.415s-20.04 2.6-23.45 2.958c-3.412.358-3.94 2.456-4.108 3.536-6.19 39.703 10.755 53.77 16.955 57.51 1.334.805 2.36 1.17 4.834.246 7.91-2.946 24.428-8.92 34.48-17.473 1.24 16.103-16.423 32.208-23.963 38.308-2.025 1.64-2.68 2.877-1.085 5.414 1.244 1.976 8.327 10.803 11.373 14.576.853 1.06 1.55 2.424 1.832 3.636 1.4 6.018 5.844 25.386 8.95 33.185.86 2.166 1.52 3.5 5.614 3.5h23.906c4.19 0 4.31-4.716 4.31-4.716l2.21-16.96s7.57 13.886 40 13.886 45.575-13.887 45.575-13.887-4.15 18.043-3.69 15.99c.462-2.05-2.094 5.35 2.376 5.686 4.47.335 22.36 0 26.22 0 5.26 0 19.915-42.146 28.955-55.2 18.573-26.818 14.04-64.817 11.898-72-2.142-7.183-8.04-42.296-59.184-64.165z" fill="none"/><path d="M421.937 354.708c-2.984 1.234-4.508 4.938-3.403 8.274 1.104 3.336 4.42 5.04 7.406 3.807 3.4-1.41-3.73-12.2-4.003-12.086z" fill="#ef5a35"/><g transform="matrix(.739 0 0 .715 52.008 30.528)"><ellipse cx="389.742" cy="361.83" rx="42.813" ry="49.444" fill="#f5b244"/><ellipse cx="389.742" cy="361.83" rx="32.928" ry="38.028" fill="#dda23d"/><path d="M389.743 400.998c-18.7 0-33.917-17.57-33.917-39.17 0-21.597 15.216-39.17 33.917-39.17 18.702 0 33.916 17.573 33.916 39.17 0 21.6-15.22 39.17-33.92 39.17zm0-76.055c-17.61 0-31.94 16.547-31.94 36.886 0 20.334 14.328 36.88 31.94 36.88 17.612 0 31.94-16.546 31.94-36.885 0-20.34-14.328-36.887-31.94-36.887z" opacity=".5" fill="#fff"/></g><path d="M351.65 281.14c0 1.483-.765 2.695-2.13 2.695-2.17 0-3.74-4.535-7.435-4.535-1.166 0-2.17.63-2.17 2.065 0 4.31 12.257 1.752 12.257 12.08 0 5.882-5.706 9.025-8.64 9.296-.965.09-.844.45-.844 1.53 0 2.2-.12 2.157-2.09 2.157-1.85 0-2.33.315-2.33-1.976 0-.72.2-1.57-.603-1.66-1.528-.226-4.663-.99-5.828-1.932-1.406-1.168-2.21-5.165-2.21-6.96 0-1.033.402-2.11 1.447-2.11 2.773 0 2.21 6.285 8.44 6.285.884 0 2.933-.45 2.933-1.93 0-1.347-.362-1.615-4.702-3.37-3.657-1.435-7.475-4.263-7.475-9.113 0-4.49 3.255-8.084 7.073-8.937 1.048-.224.928-.358.928-1.572 0-2.243.12-2.153 2.09-2.153 1.89 0 2.33-.314 2.33 1.976 0 .628-.2 1.527.524 1.706.523.09 2.53.67 2.77.67.486 0 1.088-.45 1.81-.45 1.487 0 3.86 3.46 3.86 6.24z" opacity=".8" fill="#fff"/><path d="M297.912 312.31s14.866-4.097 34.435-4.097c19.57 0 43.872 12.724 43.872 12.724l-9.077 27.98-67.09-20.71-2.14-15.897z" fill="#ef5a35"/><path d="M573.202 162.15l-152.482 3.31s-1.992.407-1.992 1.59c0 1.012 3.114 49.797 4.007 63.754.15 2.334-.076 3.72 3.117 3.72s144.64 1.377 144.64 1.377l2.71-73.75z" fill="#0c5054"/><path d="M317.194 242.804c-1.548 2.688-3.215 5.943-5.1 10.065-10.95 23.94-8.45 35.674-5.006 41.45 3.443 5.77 9.612 1.76 11.907-1.127 2.295-2.886 4.956-25.53 14.398-40.146 2.015-3.113 4.46-6.18 7.13-8.978-7.684-1.078-15.5-1.77-23.325-1.27zm51.128 12.733c-.943 2.694-1.824 5.56-2.217 8.72-.156 1.262-.334 2.664-.512 4.162 3.82 5.84 6.077 13.03 6.077 20.812 0 3.855-.56 7.562-1.58 11.035.372.15.765.266 1.184.34 10.75 1.872 10.328-21.71 15.108-37.318-5.928-2.847-11.887-5.55-18.057-7.757z" fill="#f1b085"/><path d="M425.694 356.918c-.74-.35-1.464-.742-2.172-1.176-1.812-1.107-2.476-3.645-1.484-5.67.99-2.023 3.268-2.757 5.073-1.658 3.694 2.26 8.194 2.918 11.794 1.737-3.666-4.33-4.71-10-2.847-15.98 2.09-6.71 5.286-8.565 7.6-8.938 2.823-.456 5.588 1.065 7.585 4.175 2.61 4.067 4.03 11.508.976 18.234-.125.277-.255.55-.39.817 2.69.488 5.23.158 6.55-.916 1.668-1.36 4.007-.947 5.222.917 1.214 1.865.846 4.478-.82 5.836-4.025 3.27-10.733 3.537-16.55 1.116-1.494 1.15-3.153 2.045-4.958 2.67-4.862 1.68-10.533 1.23-15.583-1.16zm18.98-23.276c-.306.342-.914 1.222-1.552 3.27-1.02 3.275-.426 5.95 1.82 8.146.218-.383.422-.783.612-1.203 1.096-2.415 1.234-5.39.37-7.96-.407-1.21-.926-1.94-1.25-2.253z" fill="#ef5a35"/></svg>