<svg xmlns="http://www.w3.org/2000/svg" width="799.92" height="799.92" viewBox="0 0 799.92 799.92"><path d="M479.526 304.336c1.235-2.272.6-5.13-1.62-5.92l-23.603-8.41c-3.85-1.373-20.256-2.602-22.396 1.336-2.14 3.935 8.21 10.576 12.106 11.857l19.037 6.26c6.332 2.082 13.842-.28 16.476-5.128zm-61.57 139.334c1.227-.225 2.27-.963 2.7-2.173l8.41-23.602c1.37-3.85 2.6-20.256-1.338-22.396-3.935-2.14-10.576 8.21-11.857 12.1l-6.26 19.038c-1.23 3.732-.91 7.873.55 11.184l7.8 5.843z" clip-rule="evenodd" fill="#d5b275" fill-rule="evenodd"/><path d="M236.303 410.876c-1.22-.103-1.986 1.268-1.258 2.257.253.33.594.52 1.007.56l.88.082.945.08.947.076.075.01c1.252.09 1.99-1.4 1.16-2.345-.257-.28-.59-.45-.968-.476l-.057-.005-.93-.074-.927-.08-.88-.08zm-11.103-1.484c-1.302-.223-2.174 1.315-1.312 2.318.22.25.5.415.832.47l.087.016.922.156.92.15.886.138c1.174.185 2.04-1.098 1.43-2.123-.22-.366-.583-.608-1.003-.674l-.87-.136-.906-.147-.904-.153-.087-.015zm-10.965-2.332c-1.26-.31-2.24 1.088-1.512 2.17.207.295.476.484.824.575l.354.09.9.222.9.216.627.146c1.238.282 2.2-1.09 1.5-2.16-.206-.31-.502-.518-.863-.6l-.606-.145-.882-.213-.88-.218-.355-.09zm-10.755-3.17c-1.188-.385-2.25.82-1.72 1.955.174.355.456.602.83.73l.713.24.87.286.874.28.258.087c.55.17 1.155-.008 1.518-.458.628-.778.28-1.95-.678-2.246l-.242-.075-.856-.276-.854-.28-.712-.24zm164.66-225.728c.73.97 2.26.635 2.516-.554.082-.41-.002-.804-.25-1.14l-.494-.664-.54-.717-.542-.713-.144-.186c-.77-.98-2.328-.573-2.518.665-.053.388.044.758.283 1.07l.138.172.533.7.53.703.49.664zm6.31 9.26c.308.484.88.74 1.445.637.988-.18 1.485-1.3.947-2.15l-.31-.497-.482-.76-.488-.754-.26-.398c-.622-.94-2.042-.814-2.485.225-.183.445-.143.924.12 1.33l.252.384.473.74.474.746.31.49zm5.587 9.715c.247.472.754.77 1.287.754 1.05-.03 1.703-1.14 1.216-2.07l-.138-.262-.424-.797-.428-.795-.362-.66c-.614-1.09-2.212-.93-2.59.264-.112.374-.077.755.112 1.1l.353.646.42.78.417.78.137.264zm4.827 10.12c.492 1.104 2.036 1.137 2.57.05.18-.384.192-.792.023-1.183l-.34-.783-.366-.83-.37-.824-.08-.17c-.55-1.2-2.31-1.05-2.65.23-.08.324-.06.646.08.952l.07.155.368.81.36.817.34.78zm4.03 10.455c.418 1.218 2.133 1.28 2.638.096.14-.323.15-.687.037-1.02l-.148-.416-.3-.863-.307-.866-.2-.552c-.3-.802-1.21-1.156-1.974-.774-.64.33-.926 1.07-.684 1.747l.194.534.3.845.296.846.143.417zm3.216 10.74c.316 1.215 1.962 1.438 2.59.35.19-.326.242-.704.147-1.07l-.213-.816-.238-.89-.243-.89-.046-.162c-.368-1.25-2.06-1.397-2.636-.227-.15.324-.18.655-.08 1l.04.146.24.873.232.874.21.815zm2.376 10.948c.194 1.047 1.404 1.516 2.255.873.427-.333.626-.84.536-1.37l-.038-.215-.167-.918-.172-.916-.148-.76c-.1-.504-.47-.92-.96-1.074-1.025-.325-2.03.57-1.818 1.624l.146.743.17.898.162.9.037.215zm1.53 11.105c.054.548.435 1.027.96 1.2.975.324 1.956-.465 1.856-1.486l-.036-.37-.098-.94-.105-.94-.07-.59c-.055-.44-.29-.807-.663-1.04-1.024-.61-2.28.195-2.146 1.375l.067.573.107.92.097.922.037.37zm.68 11.19c.037 1.322 1.71 1.876 2.53.835.2-.263.31-.575.3-.908l-.01-.367-.026-.96-.033-.957-.024-.572c-.053-1.257-1.62-1.823-2.463-.886-.252.28-.38.635-.364 1.012l.023.554.03.94.025.94.006.368zm-.166 11.208c-.025.602.31 1.134.86 1.374.91.382 1.912-.248 1.967-1.23l.014-.26.05-.955.04-.956.024-.685c.027-.913-.806-1.612-1.706-1.424-.635.133-1.103.69-1.12 1.34l-.024.667-.04.94-.044.936-.016.257zm-1.01 11.164c-.073.564.197 1.107.685 1.398.876.514 1.994-.033 2.122-1.04l.04-.31.116-.934.11-.93.073-.66c.133-1.344-1.48-2.1-2.432-1.127-.218.233-.346.508-.382.825l-.07.64-.11.92-.112.916-.04.308zm-1.864 11.055c-.245 1.223 1.084 2.14 2.145 1.478.33-.213.556-.527.63-.91l.107-.503.184-.912.178-.914.09-.47c.103-.56-.137-1.115-.606-1.434-.85-.56-1.99-.08-2.18.92l-.083.456-.175.897-.18.894-.103.504zM390.95 306c-.373 1.35 1.207 2.367 2.286 1.458.215-.19.355-.41.435-.684l.237-.806.25-.887.242-.884.045-.17c.336-1.285-1.123-2.283-2.2-1.505-.263.194-.452.465-.535.783l-.04.154-.24.872-.245.87-.23.805zm-7.884 20.968c-.526 1.14.6 2.354 1.777 1.918.354-.13.636-.393.794-.736l.366-.79.376-.825.37-.828.07-.156c.492-1.15-.62-2.322-1.8-1.89-.364.14-.637.4-.797.76l-.062.14-.363.81-.37.81-.365.79zm-5.126 9.964c-.6 1.063.363 2.348 1.555 2.07.392-.09.718-.34.916-.69l.27-.477.44-.79.435-.79.24-.444c.28-.53.207-1.153-.19-1.61-.66-.73-1.837-.59-2.304.28l-.23.426-.426.776-.43.774-.27.48zm-5.875 9.543c-.322.488-.317 1.112.015 1.593.58.82 1.776.808 2.34-.023l.153-.23.497-.75.492-.75.423-.657c.33-.523.292-1.18-.096-1.66-.62-.745-1.76-.676-2.29.133l-.415.647-.484.738-.486.736-.155.23zm-6.585 9.067c-.346.44-.4 1.033-.143 1.528.478.91 1.733 1.027 2.368.22l.025-.032.552-.706.548-.71.543-.714.08-.106c.8-1.084-.203-2.56-1.51-2.212-.307.087-.563.26-.756.517l-.07.093-.533.7-.537.697-.54.693-.028.032zm-7.264 8.546c-.87.962-.093 2.496 1.2 2.358.348-.042.656-.193.894-.455l.48-.52.6-.665.596-.667.233-.264c.28-.326.392-.735.33-1.16-.2-1.182-1.668-1.6-2.46-.705l-.225.25-.586.655-.59.653-.478.525zm-7.886 7.962c-.945.89-.285 2.484 1.012 2.445.347-.01.675-.146.928-.384l.367-.34.65-.615.646-.62.403-.39c.313-.307.464-.73.418-1.166-.124-1.17-1.557-1.683-2.395-.86l-.396.38-.634.607-.637.604-.367.345zm-8.47 7.34c-1.08.884-.386 2.62 1.007 2.513.29-.026.538-.128.768-.308l.226-.18.7-.565.694-.568.596-.494c1.02-.87.4-2.52-.943-2.5-.33.01-.618.12-.873.328l-.582.484-.68.558-.682.554-.224.18zm-9.003 6.676c-.434.294-.662.804-.608 1.323.124 1.06 1.312 1.61 2.2 1.01l.048-.03.74-.51.737-.517.732-.518.09-.067c1.04-.754.62-2.398-.66-2.553-.363-.04-.693.045-.993.257l-.08.056-.718.51-.723.505-.726.5-.046.03zm-9.493 5.97c-.526.31-.8.916-.672 1.515.2.95 1.264 1.42 2.098.936l.593-.343.777-.456.774-.46.316-.192c1.08-.653.816-2.302-.416-2.586-.36-.085-.738-.023-1.054.17l-.302.18-.76.452-.76.447-.594.343zm-9.914 5.224c-1.19.577-1.01 2.327.277 2.65.324.075.65.045.95-.1l.34-.163.814-.396.816-.4.6-.3c1.11-.56 1.004-2.184-.172-2.594-.37-.125-.752-.103-1.103.073l-.584.29-.796.393-.8.39-.338.16zm-10.285 4.446c-.426.167-.73.508-.854.947-.294 1.125.79 2.103 1.88 1.69l.85-.33.847-.338.844-.34.12-.052c1.13-.478 1.17-2.04.067-2.583-.372-.173-.773-.185-1.153-.03l-.106.044-.828.335-.83.33-.835.322zm-10.605 3.64c-1.218.377-1.36 2.04-.223 2.62.336.164.69.194 1.048.09l.43-.13.877-.27.875-.276.545-.175c1.225-.396 1.32-2.106.144-2.636-.323-.15-.68-.17-1.018-.06l-.53.17-.858.27-.86.264-.43.13zm-10.85 2.814c-1.21.28-1.51 1.846-.484 2.553.338.22.707.294 1.103.21l.78-.174.9-.21.903-.21.197-.05c.74-.18 1.204-.91 1.05-1.655-.157-.786-.942-1.285-1.72-1.094l-.18.044-.884.206-.888.203-.784.173zm-11.03 1.97c-.586.084-1.063.522-1.186 1.104-.204.96.606 1.836 1.58 1.7l.105-.016.924-.133.927-.14.864-.134c1.22-.19 1.622-1.76.642-2.512-.305-.24-.708-.337-1.088-.278l-.847.13-.91.136-.91.13-.104.016zm-11.152 1.12c-1.39.098-1.825 1.918-.626 2.633.25.145.516.208.805.19l.184-.01.95-.063.95-.07.77-.06c1.317-.112 1.778-1.807.69-2.572-.272-.187-.59-.276-.923-.248l-.75.06-.93.067-.932.062-.182.01zm-8.386 3.114c.954-.014 1.613-.912 1.345-1.828-.186-.603-.733-1.002-1.363-1.002l-.817.003-.947-.003-.946-.01-.92-.014c-1.27-.018-1.917 1.536-1.006 2.427.267.256.6.398.97.403l.92.014.964.01.965.002.835-.002zm109.942-245.116c.73.97 2.26.635 2.517-.554.087-.41 0-.804-.25-1.14l-.49-.664-.54-.717-.54-.714-.145-.19c-.77-.98-2.326-.574-2.517.665-.053.387.044.757.283 1.07l.133.172.533.7.53.702.492.662zm27.056 147.23c-.39 1.193.868 2.27 1.987 1.7.337-.17.587-.464.705-.822l.272-.827.28-.868.272-.865.05-.163c.36-1.2-.884-2.24-2-1.672-.346.182-.588.47-.705.843l-.04.145-.27.85-.273.847-.273.828zm139.263-37.348c1.22.103 1.986-1.268 1.258-2.258-.25-.33-.59-.52-1.002-.56l-.88-.082-.945-.08-.946-.076-.075-.005c-1.257-.09-1.994 1.4-1.16 2.34.25.283.584.45.963.478l.06.004.93.074.925.08.88.08zm11.103 1.483c1.303.223 2.175-1.315 1.313-2.318-.226-.25-.506-.414-.837-.47l-.087-.016-.923-.16-.924-.15-.887-.14c-1.175-.183-2.04 1.1-1.43 2.125.22.365.582.607 1.002.673l.87.136.905.146.906.153.086.013zm10.966 2.333c1.26.31 2.24-1.088 1.512-2.17-.207-.295-.476-.484-.824-.575l-.354-.09-.898-.22-.9-.214-.624-.146c-1.238-.288-2.2 1.09-1.5 2.156.206.307.502.516.863.6l.607.142.882.212.88.217.356.09zm10.754 3.17c1.188.384 2.25-.82 1.72-1.955-.174-.35-.455-.6-.83-.73l-.713-.24-.87-.28-.873-.28-.26-.083c-.55-.17-1.154.008-1.517.458-.628.778-.28 1.95.678 2.245l.247.075.856.276.854.28.713.24zm-164.66 225.728c-.73-.97-2.26-.636-2.516.554-.082.41.002.804.25 1.14l.494.664.54.717.542.71.144.184c.77.98 2.327.573 2.518-.666.053-.388-.044-.758-.283-1.07l-.133-.173-.533-.7-.53-.704-.497-.66zm-6.31-9.26c-.306-.484-.88-.74-1.444-.636-.988.18-1.485 1.3-.947 2.15l.31.49.483.76.488.755.26.398c.62.94 2.042.82 2.484-.22.183-.446.143-.925-.12-1.33l-.25-.385-.48-.74-.474-.744-.31-.492zm-5.586-9.714c-.247-.473-.754-.772-1.287-.755-1.05.03-1.703 1.144-1.216 2.075l.138.263.424.797.423.794.362.66c.613 1.09 2.21.93 2.59-.264.112-.375.076-.756-.112-1.1l-.354-.647-.42-.78-.416-.782-.138-.26zm-4.828-10.122c-.492-1.104-2.036-1.136-2.57-.05-.18.384-.19.793-.023 1.184l.34.784.36.83.37.828.08.17c.554 1.202 2.314 1.052 2.654-.228.08-.325.06-.647-.082-.953l-.07-.155-.364-.812-.36-.815-.34-.78zm-4.03-10.454c-.418-1.218-2.133-1.28-2.638-.096-.14.323-.15.687-.037 1.02l.143.417.3.863.307.86.2.553c.3.807 1.208 1.16 1.972.778.64-.33.922-1.07.68-1.746l-.194-.535-.3-.845-.296-.85-.142-.415zm-3.215-10.74c-.316-1.215-1.962-1.438-2.59-.35-.19.326-.242.704-.146 1.07l.218.818.238.89.244.89.044.162c.37 1.25 2.062 1.397 2.637.227.15-.32.18-.65.087-1l-.04-.14-.24-.872-.233-.874-.213-.816zm-2.377-10.948c-.194-1.047-1.403-1.516-2.254-.873-.422.333-.622.84-.53 1.37l.037.215.167.918.173.916.148.76c.106.504.47.92.96 1.074 1.028.325 2.03-.572 1.82-1.624l-.144-.743-.17-.9-.163-.9-.04-.218zm-1.53-11.106c-.053-.547-.434-1.026-.958-1.198-.976-.326-1.957.464-1.857 1.485l.036.37.1.94.108.938.07.59c.055.437.29.804.663 1.037 1.024.61 2.28-.195 2.146-1.375l-.068-.574-.102-.92-.097-.922-.036-.37zm-.68-11.188c-.036-1.323-1.708-1.877-2.528-.836-.202.263-.31.574-.3.908l.008.366.027.96.033.957.024.57c.053 1.258 1.622 1.824 2.463.887.252-.28.38-.635.364-1.012l-.02-.554-.03-.94-.028-.942-.007-.364zm.166-11.21c.025-.6-.308-1.133-.86-1.374-.91-.38-1.91.248-1.966 1.23l-.014.26-.045.954-.04.957-.02.68c-.025.92.808 1.62 1.708 1.43.635-.134 1.103-.69 1.12-1.34l.024-.668.04-.938.043-.937.016-.258zm1.012-11.162c.072-.566-.198-1.108-.686-1.4-.876-.512-1.994.035-2.122 1.042l-.04.308-.116.934-.11.936-.073.658c-.13 1.345 1.486 2.1 2.437 1.128.218-.232.346-.507.382-.824l.07-.64.11-.92.112-.916.04-.307zm1.862-11.056c.245-1.223-1.083-2.14-2.144-1.478-.325.213-.55.527-.628.91l-.104.503-.184.91-.178.91-.09.475c-.103.56.137 1.115.606 1.434.847.56 1.99.08 2.177-.92l.086-.457.18-.896.18-.895.105-.502zm2.708-10.88c.372-1.35-1.208-2.365-2.287-1.456-.21.19-.35.41-.43.684l-.232.806-.25.886-.243.89-.044.17c-.335 1.284 1.124 2.282 2.2 1.504.265-.194.453-.465.536-.783l.04-.153.24-.872.244-.87.23-.805zm7.882-20.966c.527-1.14-.598-2.354-1.776-1.917-.354.136-.636.398-.794.74l-.366.79-.376.827-.37.828-.07.157c-.495 1.15.62 2.327 1.796 1.89.364-.14.638-.4.797-.756l.067-.14.364-.81.37-.81.364-.792zm5.127-9.964c.6-1.063-.363-2.348-1.555-2.07-.392.09-.718.34-.916.69l-.27.476-.437.79-.438.79-.238.443c-.28.532-.207 1.158.19 1.61.66.733 1.837.593 2.305-.274l.23-.43.425-.78.43-.773.27-.477zm5.873-9.544c.323-.486.32-1.11-.014-1.592-.58-.82-1.776-.808-2.34.023l-.154.23-.496.75-.492.756-.423.656c-.33.523-.29 1.18.1 1.66.617.745 1.76.676 2.288-.133l.414-.643.48-.738.49-.736.153-.23zm6.587-9.066c.345-.44.4-1.033.143-1.53-.477-.908-1.733-1.027-2.368-.22l-.025.033-.552.706-.548.71-.543.713-.08.106c-.8 1.084.203 2.558 1.51 2.21.307-.086.563-.26.756-.515l.07-.093.533-.7.537-.697.542-.693.025-.03zm7.263-8.546c.873-.962.094-2.496-1.198-2.36-.35.043-.657.194-.895.456l-.48.526-.6.664-.597.668-.233.264c-.284.326-.397.735-.333 1.16.2 1.183 1.666 1.602 2.46.706l.222-.252.585-.655.59-.652.48-.525zm16.357-15.304c1.08-.883.386-2.618-1.008-2.512-.296.026-.54.127-.77.308l-.23.18-.695.564-.694.568-.594.495c-1.02.87-.4 2.52.942 2.5.33-.01.617-.12.87-.328l.583-.49.68-.556.684-.554.226-.18zm9.003-6.674c.433-.294.66-.804.607-1.322-.13-1.063-1.317-1.616-2.206-1.013l-.042.032-.74.51-.737.513-.733.518-.092.066c-1.04.754-.62 2.398.66 2.553.364.04.694-.044.994-.257l.077-.056.72-.508.72-.504.727-.5.05-.032zm9.492-5.972c.526-.31.8-.915.672-1.514-.2-.945-1.264-1.415-2.098-.93l-.593.342-.777.456-.774.46-.317.192c-1.08.655-.816 2.303.416 2.588.36.084.74.022 1.06-.17l.3-.18.76-.453.76-.45.595-.346zm9.915-5.222c1.19-.576 1.01-2.327-.277-2.65-.325-.075-.65-.045-.95.1l-.34.163-.814.39-.81.4-.6.3c-1.113.565-1.005 2.19.17 2.6.37.125.753.102 1.104-.073l.584-.29.796-.395.8-.388.337-.162zm10.283-4.446c.427-.168.732-.508.856-.948.298-1.125-.79-2.103-1.877-1.69l-.85.33-.85.338-.844.34-.124.05c-1.128.48-1.17 2.042-.066 2.584.373.173.774.185 1.154.03l.108-.044.83-.335.83-.33.83-.325zm10.605-3.642c1.22-.376 1.362-2.04.224-2.618-.34-.165-.69-.195-1.05-.09l-.43.13-.88.27-.874.274-.547.175c-1.225.392-1.32 2.102-.144 2.63.322.146.68.166 1.02.057l.526-.17.86-.27.86-.265.428-.128zm10.853-2.813c1.21-.28 1.508-1.845.483-2.553-.333-.22-.702-.293-1.1-.21l-.78.174-.904.206-.902.21-.196.05c-.74.18-1.203.91-1.05 1.656.158.785.943 1.284 1.72 1.093l.18-.04.885-.205.886-.2.783-.175zm11.028-1.97c.587-.083 1.064-.52 1.187-1.103.204-.96-.606-1.836-1.58-1.7l-.105.015-.93.133-.926.14-.863.134c-1.22.192-1.627 1.764-.648 2.517.304.24.707.34 1.087.28l.846-.13.91-.136.91-.13.106-.013zm11.154-1.12c1.39-.098 1.824-1.918.625-2.633-.25-.145-.516-.208-.805-.19l-.185.01-.95.063-.948.07-.767.06c-1.316.11-1.778 1.807-.69 2.572.273.187.592.276.923.248l.748-.06.936-.067.932-.062.185-.01zm8.385-3.113c-.954.013-1.613.912-1.345 1.828.186.603.733 1.002 1.363 1.002l.817-.003h.947l.946.01.92.01c1.27.02 1.917-1.534 1.006-2.426-.27-.256-.6-.398-.976-.403l-.92-.013-.963-.01-.964-.002h-.836zM402.585 520.63c-.353-.453-.948-.65-1.5-.493-.966.276-1.35 1.44-.732 2.232l.356.46.55.703.56.704.297.37c.71.876 2.112.61 2.45-.467.14-.46.053-.934-.25-1.312l-.287-.355-.55-.69-.543-.694-.356-.46zm152.11-148.46c-1.26.274-1.523 1.96-.405 2.61.307.176.662.23 1.008.156l.288-.062.906-.2.904-.206.688-.16c.608-.15 1.04-.656 1.086-1.28.056-.96-.804-1.692-1.74-1.475l-.67.158-.887.206-.888.197-.29.06zm-11.04 1.94c-.587.084-1.064.522-1.19 1.104-.202.96.61 1.836 1.58 1.7l.517-.07.93-.134.926-.14.455-.07c1.22-.192 1.622-1.764.643-2.517-.304-.24-.707-.337-1.087-.277l-.44.068-.91.136-.91.13-.52.07zM532.5 375.2c-1.39.097-1.825 1.917-.626 2.632.25.145.516.207.805.19l.596-.035.95-.063.948-.07.355-.027c1.316-.11 1.777-1.807.69-2.572-.273-.187-.59-.276-.923-.248l-.337.027-.93.068-.932.062-.598.035zm-11.208.24c-1.27-.018-1.918 1.536-1.007 2.427.268.256.6.398.97.403l.507.008.964.01.965.002h.42c1.13-.017 1.79-1.254 1.17-2.2-.27-.4-.706-.63-1.19-.63h-.403l-.948-.002-.948-.01-.505-.008zm-11.193-.603c-1.22-.103-1.987 1.268-1.26 2.258.25.33.59.52 1.004.56l.47.044.944.08.945.07.487.036c1.256.09 1.992-1.4 1.16-2.347-.254-.28-.586-.45-.965-.477l-.47-.035-.93-.075-.926-.08-.47-.04zm-11.118-1.453c-1.06-.167-1.906.83-1.57 1.85.17.498.592.853 1.11.942l.592.1.924.15.925.144.38.057c.57.08 1.11-.175 1.41-.66.53-.875.01-1.982-1-2.14l-.36-.054-.91-.142-.902-.142-.593-.1zm-10.97-2.302c-1.226-.302-2.208 1.05-1.537 2.124.197.316.504.536.865.625l.843.21.9.22.906.21.133.03c1.2.26 2.136-1 1.543-2.07-.206-.36-.52-.595-.924-.69l-.118-.025-.884-.207-.884-.213-.844-.21zm-50.455-23.622c-1.134-.802-2.618.31-2.154 1.638.1.267.27.49.5.658l.657.473.73.52.733.52.207.14c.466.316 1.04.337 1.527.055.888-.537.93-1.784.085-2.382l-.196-.136-.72-.51-.715-.51-.654-.473zm-8.8-6.94c-.42-.358-1.01-.434-1.506-.205-.94.438-1.11 1.694-.32 2.365l.44.377.686.576.69.572.372.306c.957.79 2.4.04 2.304-1.2-.035-.395-.21-.737-.516-.988l-.36-.295-.676-.562-.673-.564-.444-.377zm-8.245-7.59c-.96-.94-2.56-.148-2.4 1.184.04.316.186.604.41.83l.263.26.64.627.642.63.5.48c.963.906 2.525.13 2.383-1.185-.04-.334-.185-.628-.43-.862l-.49-.47-.63-.61-.627-.615-.26-.262zm-7.647-8.194c-.26-.298-.617-.47-1.01-.487-1.247-.04-1.935 1.39-1.13 2.34l2.14-1.858zm-7.006-8.76c-.73-.97-2.26-.635-2.518.555-.082.41.002.81.25 1.146l.494.663.54.716.542.713.143.185c.77.982 2.324.574 2.515-.664.053-.39-.043-.76-.283-1.07l-.132-.173-.533-.7-.53-.703-.49-.663zm-11.898-18.973c-.248-.472-.755-.77-1.288-.754-1.05.03-1.703 1.14-1.216 2.07l.138.262.424.797.428.795.362.66c.614 1.09 2.212.93 2.59-.264.112-.374.077-.755-.112-1.1l-.353-.646-.42-.78-.417-.782-.137-.262zm-4.828-10.123c-.492-1.103-2.036-1.135-2.57-.05-.18.385-.19.794-.023 1.185l.34.783.363.83.372.83.078.17c.554 1.2 2.314 1.05 2.654-.23.08-.325.058-.647-.083-.953l-.07-.155-.364-.812-.36-.814-.34-.783zm-4.03-10.453c-.418-1.217-2.133-1.28-2.638-.095-.14.323-.15.687-.037 1.02l.142.416.3.863.307.866.2.552c.3.802 1.207 1.156 1.972.774.64-.33.927-1.07.685-1.747l-.194-.534-.3-.845-.29-.846-.145-.418zm-3.216-10.74c-.316-1.215-1.962-1.438-2.59-.35-.19.326-.242.704-.146 1.07l.213.818.238.89.247.89.045.162c.368 1.25 2.06 1.397 2.636.227.15-.324.183-.655.087-1l-.04-.145-.24-.877-.232-.874-.21-.817zm-2.376-10.947c-.195-1.05-1.404-1.517-2.255-.875-.422.333-.62.84-.53 1.37l.037.215.167.918.17.916.15.76c.1.504.466.92.96 1.074 1.02.325 2.024-.57 1.814-1.624l-.145-.743-.17-.894-.164-.9-.038-.213zm-1.53-11.106c-.054-.548-.435-1.027-.96-1.2-.975-.324-1.956.465-1.856 1.486l.036.37.098.94.104.938.07.59c.055.437.29.804.664 1.037 1.024.61 2.28-.195 2.146-1.375l-.068-.574-.102-.92-.097-.922-.035-.37zm-.68-11.19c-.036-1.322-1.708-1.876-2.528-.835-.202.26-.31.57-.3.903l.008.367.027.96.032.958.024.572c.053 1.257 1.62 1.823 2.463.886.25-.28.38-.637.363-1.014l-.02-.554-.032-.94-.026-.942-.007-.365zm.165-11.208c.025-.602-.308-1.134-.86-1.375-.91-.38-1.91.25-1.966 1.236l-.017.26-.045.953-.04.955-.024.686c-.026.918.807 1.618 1.707 1.43.637-.134 1.105-.692 1.12-1.34l.026-.67.04-.936.043-.937.014-.257zm1.012-11.164c.07-.564-.2-1.107-.686-1.398-.876-.514-1.994.033-2.122 1.04l-.04.31-.116.934-.11.936-.073.658c-.13 1.345 1.48 2.1 2.436 1.128.217-.232.345-.507.38-.824l.07-.64.11-.92.114-.916.04-.308zm1.862-11.055c.245-1.223-1.084-2.14-2.145-1.478-.326.21-.55.522-.628.91l-.105.5-.184.91-.18.914-.09.474c-.104.56.136 1.116.605 1.435.847.56 1.99.08 2.177-.92l.087-.457.173-.9.18-.894.106-.5zm2.707-10.88c.37-1.35-1.21-2.365-2.288-1.456-.215.19-.355.41-.436.69l-.232.805-.25.887-.242.89-.046.17c-.335 1.284 1.124 2.28 2.2 1.504.265-.193.453-.464.536-.782l.04-.15.24-.873.244-.87.233-.805zm7.882-20.967c.526-1.14-.6-2.353-1.777-1.916-.354.13-.636.393-.794.736l-.37.79-.375.825-.372.828-.07.156c-.495 1.15.622 2.322 1.797 1.89.364-.14.64-.4.797-.76l.06-.14.365-.81.37-.81.365-.79zm-4.905 10.6c.364-1.194-.868-2.238-1.99-1.683-.344.18-.6.47-.713.845l-.153.49-.276.888-.267.892-.137.463c-.16.547.025 1.124.46 1.487.79.64 1.975.277 2.26-.7l.13-.447.262-.875.267-.873.153-.488zm91.4 190.253c-1.184-.434-2.307.803-1.76 1.943.164.335.444.588.793.716l.815.3.87.312.874.31.13.044c1.163.387 2.23-.76 1.76-1.89-.168-.38-.453-.65-.845-.787l-.113-.034-.857-.303-.854-.307-.816-.3zm-11.378-4.625c-1.15-.517-2.36.638-1.893 1.814.138.346.4.618.74.77l.79.356.847.374.85.37.125.053c1.134.468 2.28-.6 1.89-1.762-.14-.39-.406-.68-.786-.844l-.11-.05-.833-.36-.83-.37-.795-.356zM216.3 252.215c-.954.014-1.613.912-1.345 1.828.186.603.733 1.002 1.363 1.002l.817-.002.947.003.946.01.92.013c1.27.013 1.917-1.54 1.006-2.43-.267-.258-.6-.4-.97-.405l-.92-.015-.964-.01h-.965l-.835.002zm77.3 274.906h-1.218c.406-.19.85-.17 1.217 0zm-85.686-271.79c1.39-.095 1.825-1.915.626-2.63-.25-.145-.516-.207-.805-.19l-.184.01-.95.063-.948.07-.767.06c-1.318.11-1.78 1.808-.692 2.573.273.187.592.276.924.248l.748-.06.93-.067.933-.062.188-.01zm91.43 267.336c-.435.295-.663.804-.61 1.323.13 1.062 1.318 1.615 2.207 1.012l.388-.264.74-.51.74-.513.48-.34c.96-.68.708-2.19-.426-2.514-.41-.122-.862-.04-1.212.206l-.467.33-.722.505-.725.5-.388.263zm9.02-6.647c-1.078.882-.385 2.616 1.008 2.51.29-.027.538-.13.768-.31l.548-.44.697-.56.693-.57.278-.23c1.02-.87.4-2.522-.942-2.502-.33.01-.618.12-.872.33l-.265.22-.68.557-.688.555-.548.435zm8.497-7.323c-.938.885-.317 2.452.973 2.452.362-.007.688-.134.955-.38l.026-.02.653-.61.65-.618.645-.62.107-.104c.313-.305.464-.73.418-1.164-.124-1.17-1.557-1.68-2.395-.86l-.095.094-.634.608-.638.606-.64.6-.022.02zm7.908-7.94c-.933 1.034.01 2.647 1.37 2.333.28-.07.52-.207.717-.42l.162-.175.603-.662.6-.663.553-.618c.855-.964.072-2.484-1.21-2.346-.35.038-.673.205-.906.47l-.54.603-.59.65-.593.65-.163.173zm7.286-8.52c-.345.438-.398 1.032-.142 1.528.478.908 1.734 1.028 2.368.22l.28-.356.554-.707.55-.71.37-.483c.75-.998-.06-2.41-1.307-2.26-.384.053-.718.24-.95.55l-.36.47-.537.697-.54.694-.283.356zm6.612-9.05c-.322.49-.317 1.113.015 1.594.583.82 1.778.808 2.34-.023l.386-.572.495-.75.494-.75.2-.31c.33-.523.29-1.18-.098-1.66-.615-.745-1.76-.676-2.286.132l-.19.295-.482.74-.486.735-.383.573zm19-40.428c-.355 1.206.95 2.247 2.048 1.63.327-.18.565-.483.67-.84l.096-.327.254-.883.25-.888.177-.65c.155-.588-.06-1.18-.554-1.533-.81-.56-1.916-.157-2.176.79l-.173.634-.243.868-.25.87-.096.326zm2.738-10.873c-.2.994.646 1.865 1.646 1.683.567-.114 1-.53 1.123-1.1v-.005l.19-.91.184-.913.177-.913.013-.07c.104-.56-.135-1.117-.605-1.436-.848-.56-1.99-.082-2.177.918l-.01.05-.175.9-.18.894-.184.893v.006zm1.892-11.04c-.072.564.198 1.107.685 1.397.878.515 1.996-.033 2.124-1.04l.093-.717.115-.936.11-.936.027-.246c.13-1.343-1.48-2.098-2.434-1.127-.218.234-.346.508-.382.825l-.025.23-.11.92-.112.916-.092.718zm1.044-11.162c-.025.602.308 1.134.86 1.374.91.38 1.91-.25 1.966-1.23l.036-.673.047-.954.04-.955.01-.272c.025-.918-.81-1.617-1.71-1.43-.635.133-1.103.692-1.12 1.34l-.01.255-.04.94-.044.937-.036.668zm.195-11.208c.037 1.323 1.71 1.877 2.53.836.2-.262.308-.574.3-.907l-.018-.78-.028-.96-.035-.957-.007-.16c-.054-1.256-1.623-1.822-2.464-.885-.25.28-.38.636-.364 1.013l.006.14.032.94.027.942.015.78zm-.648-11.19c.053.547.433 1.026.96 1.198.974.325 1.955-.464 1.855-1.485l-.077-.783-.1-.94-.103-.937-.02-.18c-.056-.438-.292-.805-.665-1.038-1.024-.61-2.28.196-2.146 1.376l.02.164.1.92.1.923.077.782zm-1.5-11.11c.115.617.595 1.072 1.216 1.155.952.113 1.73-.71 1.57-1.653l-.11-.62-.166-.92-.173-.916-.07-.353c-.1-.504-.467-.92-.96-1.074-1.022-.325-2.025.57-1.815 1.624l.064.336.17.898.163.9.107.623zm-2.347-10.963c.325 1.24 1.995 1.45 2.61.33.174-.32.226-.68.133-1.034l-.084-.334-.234-.894-.238-.89-.177-.645c-.145-.528-.57-.906-1.104-1.012-1.03-.187-1.9.76-1.623 1.77l.172.627.233.873.225.875.084.332zm-3.18-10.74c.417 1.218 2.132 1.28 2.637.096.14-.324.15-.688.037-1.02l-.276-.808-.3-.864-.306-.86-.06-.163c-.297-.802-1.206-1.156-1.97-.774-.64.33-.93 1.07-.685 1.747l.052.146.3.846.296.847.275.808zM351.853 344c.256.593.886.942 1.525.837.905-.148 1.435-1.11 1.07-1.956l-.144-.34-.362-.83-.366-.83-.276-.614c-.564-1.223-2.338-1.058-2.666.254-.07.312-.044.617.087.91l.27.598.36.815.354.817.143.34zm-4.795-10.13c.243.47.75.77 1.283.754 1.05-.032 1.704-1.145 1.217-2.076l-.33-.628-.423-.798-.43-.796-.163-.3c-.613-1.087-2.21-.927-2.59.266-.11.375-.076.756.113 1.1l.154.284.42.78.418.78.33.63zm-5.567-9.737c.71 1.122 2.42.753 2.605-.572.04-.32-.03-.65-.205-.923l-.055-.088-.478-.76-.484-.76-.49-.757-.034-.05c-.623-.94-2.043-.815-2.486.224-.182.445-.142.924.12 1.33l.027.038.48.74.473.746.47.748.055.088zm-6.286-9.277c.32.44.85.643 1.385.554 1.034-.19 1.513-1.39.89-2.235l-.207-.283-.535-.72-.54-.716-.43-.564c-.776-1.012-2.394-.557-2.53.718-.04.36.067.715.285 1.004l.42.55.53.704.524.706.206.283zm-6.976-8.77c.26.297.618.468 1.01.486 1.248.04 1.936-1.394 1.13-2.34l-.374-.434-.59-.674-.59-.672-.328-.366c-.398-.44-1.01-.586-1.564-.375-.927.37-1.204 1.52-.544 2.268l.316.353.58.66.578.66.374.436zm-7.622-8.217c.96.94 2.56.145 2.4-1.187-.04-.318-.186-.605-.41-.83l-.557-.552-.637-.626-.642-.622-.2-.195c-.96-.907-2.524-.13-2.38 1.184.04.336.183.63.427.864l.19.184.63.612.628.615.555.553zm-8.23-7.62c.98.835 2.48.032 2.322-1.25-.05-.357-.21-.668-.484-.9l-.082-.07-.682-.58-.686-.578-.69-.572-.052-.042c-.96-.785-2.4-.035-2.305 1.205.035.393.21.736.516.987l.04.033.676.562.672.566.668.57.08.07zm-8.783-6.964c1.063.77 2.51-.192 2.21-1.47-.083-.336-.262-.61-.542-.816l-.264-.2-.728-.526-.73-.522-.596-.42c-.307-.216-.696-.3-1.065-.233-1.235.226-1.585 1.824-.56 2.55l.58.41.717.51.712.517.267.195zm-9.286-6.275c.502.306 1.11.277 1.583-.066.805-.61.753-1.802-.1-2.342l-.494-.306-.768-.47-.77-.465-.408-.24c-.433-.255-.954-.26-1.396-.025-.966.523-.99 1.905-.046 2.46l.392.235.756.458.753.462.494.304zm-9.738-5.545c1.18.6 2.463-.6 1.943-1.82-.13-.306-.36-.544-.655-.698l-.776-.4-.806-.41-.81-.407-.155-.075c-.46-.222-.99-.186-1.414.1-.897.603-.802 1.97.17 2.442l.14.07.795.395.79.402.78.4zm-10.143-4.783c1.15.487 2.327-.658 1.87-1.82-.15-.363-.404-.63-.766-.786l-.3-.127-.837-.35-.84-.348-.66-.267c-.5-.197-1.04-.105-1.45.24-.8.705-.59 1.982.396 2.386l.642.26.825.34.823.348.3.125zm-10.47-3.988c1.19.384 2.25-.82 1.72-1.956-.172-.357-.454-.605-.83-.73l-.71-.24-.87-.288-.874-.28-.26-.08c-.55-.17-1.154.007-1.517.457-.63.776-.28 1.95.676 2.243l.242.075.855.273.853.28.712.24zm-10.753-3.17c1.26.31 2.24-1.09 1.51-2.172-.206-.294-.475-.483-.823-.574l-.353-.09-.897-.224-.9-.216-.624-.144c-1.24-.287-2.2 1.088-1.5 2.157.204.308.5.517.86.6l.608.143.882.21.88.218.356.09zm-10.966-2.334c1.305.225 2.177-1.313 1.315-2.316-.22-.25-.5-.414-.832-.47l-.086-.016-.922-.157-.924-.15-.888-.135c-1.175-.185-2.04 1.098-1.43 2.123.22.366.582.61 1.002.674l.87.138.906.15.905.152.087.016zm-11.1-1.48c1.22.102 1.985-1.27 1.26-2.26-.256-.327-.597-.52-1.01-.56l-.88-.08-.945-.08-.947-.077-.076-.006c-1.256-.088-1.993 1.4-1.16 2.347.253.282.585.45.964.477l.057.006.93.074.928.08.88.08z" fill="#6fadd9"/><path d="M382.178 196.472c-.954.014-1.613.912-1.345 1.828.186.603.733 1.002 1.363 1.002l.817-.003h.947l.946.01.92.01c1.27.02 1.917-1.534 1.006-2.426-.267-.256-.6-.398-.97-.403l-.92-.013-.964-.01-.965-.002h-.835zM273.11 445.892v-1.522l.925-.84c.74.818.305 2.124-.776 2.34-.05.01-.1.018-.15.022zm0-3.4l.34.383.585.656-.924-1.044v.01zm0-193.542v-4.207c.222-.2.493-.318.795-.355 1.292-.137 2.07 1.396 1.2 2.36l-.482.524-.59.652-.584.655-.227.25c-.037.04-.076.08-.116.12zm100.682-49.365c1.39-.098 1.825-1.918.626-2.633-.25-.145-.516-.208-.805-.19l-.185.01-.95.063-.948.07-.766.06c-1.317.11-1.778 1.807-.69 2.572.273.187.59.276.923.248l.75-.06.93-.067.932-.062.18-.01zm-11.153 1.12c.582-.084 1.06-.522 1.182-1.104.204-.96-.606-1.83-1.58-1.694l-.106.014-.93.132-.927.14-.863.134c-1.218.192-1.62 1.764-.64 2.517.303.24.706.338 1.086.278l.846-.13.91-.136.91-.13.106-.016zm-11.03 1.97c1.21-.282 1.51-1.846.48-2.554-.338-.22-.707-.29-1.103-.204l-.78.173-.906.205-.9.212-.198.047c-.74.18-1.203.91-1.05 1.657.158.785.943 1.284 1.72 1.093l.18-.044.885-.208.888-.202.784-.173zm-10.85 2.813c1.214-.376 1.36-2.04.22-2.618-.337-.165-.69-.195-1.05-.09l-.43.13-.876.27-.875.274-.545.175c-1.226.39-1.32 2.102-.144 2.63.324.146.68.166 1.02.057l.53-.17.86-.27.86-.265.43-.128zm-10.61 3.642c.426-.168.73-.508.855-.948.298-1.125-.79-2.103-1.878-1.69l-.85.33-.846.338-.843.342-.12.05c-1.128.48-1.17 2.04-.066 2.583.37.173.774.185 1.154.03l.106-.044.828-.33.83-.33.834-.326zm-10.284 4.446c1.19-.576 1.01-2.327-.278-2.65-.325-.075-.65-.045-.95.1l-.34.163-.815.39-.812.4-.6.3c-1.11.566-1.002 2.19.173 2.6.37.126.753.103 1.104-.072l.583-.293.796-.394.8-.387.335-.162zm-9.915 5.222c.527-.31.8-.915.673-1.514-.2-.945-1.264-1.415-2.098-.93l-.594.342-.776.456-.775.46-.316.192c-1.08.656-.817 2.303.415 2.588.36.084.737.022 1.053-.17l.3-.18.76-.453.76-.45.595-.346zm-9.492 5.972c.433-.294.66-.804.607-1.322-.128-1.063-1.316-1.616-2.205-1.013l-.047.032-.74.51-.736.513-.734.518-.094.066c-1.04.754-.62 2.398.66 2.553.363.04.693-.045.993-.257l.08-.056.718-.508.723-.504.726-.5.046-.032zm-9.004 6.674c1.08-.883.385-2.617-1.01-2.512-.29.027-.537.128-.767.308l-.227.18-.696.564-.692.568-.596.495c-1.02.87-.4 2.52.94 2.5.33-.01.62-.12.873-.33l.582-.483.68-.558.683-.554.225-.178zm-8.47 7.34c.944-.888.284-2.483-1.013-2.443-.346.016-.674.15-.926.39l-.366.343-.65.616-.645.62-.403.39c-.313.306-.464.73-.418 1.165.124 1.17 1.557 1.684 2.395.86l.39-.38.633-.606.638-.605.367-.345zm-3.158 210.843c-.96-.94-2.56-.148-2.4 1.184.04.32.186.61.41.83l.263.26.64.63.64.627.502.48c.96.907 2.523.133 2.38-1.184-.04-.336-.184-.63-.428-.863l-.49-.47-.63-.61-.626-.618-.263-.264zm8.246 7.59c-.42-.358-1.01-.434-1.508-.206-.94.44-1.108 1.7-.32 2.37l.443.378.686.576.69.573.373.306c.957.784 2.4.034 2.304-1.206-.037-.393-.21-.736-.518-.987l-.36-.296-.676-.56-.672-.567-.442-.376zm8.8 6.94c-1.137-.803-2.62.307-2.156 1.637.1.268.27.49.5.66l.654.472.73.523.732.513.208.145c.466.316 1.04.337 1.527.055.89-.536.93-1.783.085-2.38l-.194-.137-.72-.51-.714-.51-.653-.476zm40.31 21.094c-.063.297-.51.72-1.113 1.18.174.356-.764.77-.39.9l.322.11.87.285.873.28.652.206c.55.17 1.155-.01 1.518-.46.628-.775.28-1.95-.678-2.242l-.636-.2-.856-.275-.565.22zm10.142 2.53c-1.226-.3-2.207 1.05-1.536 2.127.197.316.504.536.865.625l.844.21.9.215.902.21.133.032c1.2.256 2.138-1 1.545-2.074-.206-.357-.52-.595-.924-.69l-.116-.026-.883-.207-.883-.212-.844-.207zm10.972 2.3c-1.06-.163-1.907.83-1.572 1.85.17.5.592.857 1.11.946l.59.1.925.15.926.144.38.056c.564.08 1.107-.175 1.41-.66.53-.875.01-1.98-1-2.14l-.364-.054-.907-.142-.907-.147-.593-.1zm11.116 1.457c-1.218-.103-1.985 1.268-1.257 2.258.252.33.593.52 1.006.562l.47.043.945.08.947.075.49.037c1.256.09 1.993-1.4 1.16-2.345-.253-.28-.585-.45-.964-.476l-.47-.033-.928-.073-.927-.08-.47-.043zm11.194.603c-1.27-.02-1.918 1.534-1.007 2.426.27.256.6.398.97.403l.507.006.964.01.966.002h.42c1.13-.018 1.79-1.256 1.17-2.2-.27-.4-.705-.63-1.187-.63h-.405l-.948-.004-.946-.01-.505-.007zm11.207-.24c-1.39.096-1.823 1.916-.624 2.63.25.145.516.208.805.19l.598-.035.95-.063.948-.07.356-.025c1.317-.112 1.78-1.807.69-2.572-.27-.186-.59-.275-.92-.247l-.34.027-.93.068-.93.064-.598.035zm11.16-1.09c-.588.083-1.065.522-1.188 1.103-.204.96.606 1.837 1.58 1.7l.515-.07.93-.134.927-.14.454-.07c1.22-.194 1.623-1.766.643-2.52-.304-.24-.707-.34-1.088-.28l-.438.07-.91.138-.91.13-.517.07zm11.04-1.94c-1.26.274-1.523 1.96-.405 2.61.306.176.662.23 1.008.155l.288-.062.907-.2.905-.205.69-.16c.606-.15 1.04-.656 1.083-1.28.056-.96-.804-1.69-1.74-1.475l-.67.156-.887.2-.887.197-.29.062zm10.853-2.78c-1.22.375-1.362 2.04-.224 2.616.335.165.69.195 1.047.09l.824-.248.878-.27.876-.275.152-.05c1.226-.395 1.32-2.105.144-2.634-.324-.147-.682-.167-1.02-.058l-.134.043-.858.27-.86.265-.826.25zm10.614-3.613c-.426.167-.73.508-.854.947-.3 1.126.79 2.104 1.877 1.692l.385-.148.85-.332.845-.337.575-.235c.814-.333 1.128-1.315.664-2.06-.368-.584-1.1-.82-1.737-.56l-.56.227-.83.33-.83.325-.39.15zm10.298-4.416c-1.19.577-1.01 2.328.277 2.65.324.076.65.046.95-.1l.71-.34.816-.396.81-.4.23-.115c1.11-.565 1.005-2.19-.17-2.6-.37-.126-.752-.103-1.104.073l-.214.108-.797.394-.8.388-.71.34zm9.936-5.2c-.385.226-.635.6-.697 1.04-.14 1.17 1.085 1.99 2.11 1.415l.18-.1.78-.453.774-.456.73-.434c.49-.3.75-.846.674-1.414-.15-1.007-1.254-1.533-2.13-1.016l-.714.427-.762.446-.764.443-.18.1zm9.503-5.94c-.434.295-.66.805-.608 1.324.13 1.064 1.316 1.617 2.205 1.014l.39-.264.74-.51.735-.513.48-.34c.963-.68.708-2.19-.426-2.514-.415-.122-.865-.04-1.215.206l-.47.33-.72.506-.726.5-.387.264zm9.022-6.65c-1.08.885-.387 2.62 1.007 2.514.29-.026.54-.127.77-.307l.55-.44.694-.563.694-.568.278-.23c1.02-.87.4-2.522-.942-2.5-.33.01-.618.12-.873.327l-.264.22-.68.56-.683.553-.548.44zm8.495-7.32c-.938.884-.317 2.45.973 2.45.363-.004.69-.132.956-.38l.02-.02.654-.61.65-.616.646-.62.106-.103c.313-.307.464-.73.418-1.166-.124-1.17-1.557-1.682-2.396-.86l-.094.092-.634.608-.638.604-.64.6-.022.02zm7.91-7.94c-.94 1.034.01 2.647 1.37 2.334.28-.07.514-.205.71-.418l.164-.175.603-.66.6-.666.55-.617c.855-.964.072-2.484-1.21-2.346-.35.038-.673.205-.907.468l-.538.604-.59.655-.592.648-.16.177zm7.28-8.52c-.345.44-.4 1.032-.143 1.53.477.907 1.733 1.026 2.368.22l.28-.358.553-.706.547-.71.368-.484c.753-1-.06-2.41-1.304-2.26-.385.052-.72.24-.952.55l-.358.47-.537.696-.54.693-.28.355zm6.61-9.05c-.32.486-.317 1.11.016 1.59.58.82 1.777.81 2.34-.02l.384-.573.495-.75.49-.75.2-.31c.33-.523.29-1.18-.097-1.66-.616-.745-1.76-.676-2.287.133l-.19.293-.484.738-.485.738-.382.57zm19.002-40.43c-.355 1.206.95 2.247 2.048 1.63.328-.18.566-.482.67-.84l.097-.326.254-.884.25-.89.18-.65c.152-.586-.063-1.18-.557-1.53-.81-.56-1.916-.157-2.177.79l-.174.634-.246.87-.25.867-.096.328zm2.738-10.87c-.2.99.647 1.863 1.647 1.68.566-.112 1-.53 1.123-1.1v-.003l.19-.91.183-.912.18-.914.015-.07c.104-.56-.135-1.113-.605-1.432-.85-.56-1.992-.08-2.18.92l-.01.05-.172.897-.18.895-.186.89v.006zm1.893-11.04c-.07.56.2 1.105.687 1.396.874.514 1.992-.033 2.12-1.04l.094-.72.116-.934.11-.933.03-.248c.13-1.345-1.48-2.1-2.433-1.13-.218.234-.346.508-.382.825l-.025.23-.11.918-.113.917-.095.718zm1.044-11.164c-.026.602.307 1.134.86 1.375.91.38 1.91-.246 1.966-1.23l.037-.67.044-.954.04-.956.01-.275c.025-.918-.808-1.618-1.708-1.43-.635.134-1.103.692-1.12 1.34l-.01.255-.04.94-.043.937-.036.67zm.196-11.208c.038 1.323 1.71 1.876 2.53.836.202-.263.31-.575.3-.908l-.017-.78-.026-.96-.033-.957-.006-.16c-.053-1.258-1.62-1.824-2.463-.887-.25.28-.38.635-.363 1.012l.006.14.033.94.025.942.017.78zm-.647-11.19c.055.547.435 1.026.96 1.198.977.325 1.96-.464 1.86-1.485l-.077-.78-.097-.94-.105-.94-.02-.18c-.055-.435-.29-.802-.663-1.035-1.025-.61-2.28.195-2.147 1.375l.02.16.1.92.1.923.077.783zm-1.5-11.11c.116.617.596 1.072 1.217 1.155.953.114 1.73-.708 1.57-1.653l-.11-.624-.166-.918-.172-.917-.07-.353c-.1-.506-.465-.92-.96-1.076-1.02-.324-2.023.57-1.813 1.625l.066.336.17.9.165.9.11.622zm-2.346-10.963c.323 1.238 1.993 1.45 2.61.33.172-.322.224-.68.13-1.035l-.083-.335-.232-.893-.238-.89-.177-.646c-.146-.53-.57-.906-1.105-1.013-1.03-.187-1.9.76-1.622 1.77l.172.627.233.875.23.876.084.335zm-3.182-10.74c.418 1.217 2.133 1.28 2.638.095.14-.326.15-.69.037-1.02l-.276-.81-.3-.863-.306-.863-.06-.163c-.298-.8-1.207-1.154-1.972-.772-.64.332-.927 1.07-.685 1.748l.053.147.3.845.295.847.277.806zm-4.004-10.474c.256.596.886.945 1.525.84.91-.15 1.44-1.11 1.074-1.956l-.144-.338-.36-.833-.367-.83-.278-.614c-.564-1.224-2.338-1.06-2.665.253-.073.313-.045.618.087.912l.268.598.36.814.354.817.144.34zm-4.795-10.126c.247.472.754.77 1.287.754 1.052-.03 1.703-1.144 1.216-2.075l-.33-.627-.423-.797-.428-.796-.166-.298c-.614-1.088-2.21-.928-2.59.265-.113.376-.077.757.11 1.1l.157.286.42.78.417.782.33.628zm-5.563-9.737c.71 1.122 2.42.753 2.604-.572.04-.323-.03-.65-.203-.926l-.054-.09-.478-.762-.483-.76-.49-.754-.035-.052c-.622-.94-2.042-.81-2.485.23-.182.445-.142.924.12 1.33l.026.04.48.74.474.743.47.748.055.09zm-6.287-9.277c.322.435.852.64 1.386.55 1.035-.187 1.514-1.388.892-2.233l-.208-.284-.536-.72-.54-.717-.43-.566c-.776-1.01-2.395-.556-2.53.72-.04.36.067.714.285 1.003l.42.55.53.704.524.706.21.284zm-6.976-8.775c.26.298.617.47 1.01.487 1.246.038 1.935-1.395 1.13-2.34l-.375-.434-.588-.677-.592-.67-.327-.365c-.398-.44-1.01-.585-1.564-.375-.925.37-1.202 1.52-.542 2.266l.318.353.58.66.58.662.37.433zm-7.623-8.216c.958.94 2.56.15 2.4-1.185-.04-.317-.186-.604-.41-.83l-.556-.55-.64-.628-.64-.626-.202-.194c-.963-.908-2.525-.133-2.383 1.183.04.335.185.63.43.862l.19.183.63.61.627.617.556.552zm-8.232-7.62c.982.837 2.48.034 2.324-1.25-.05-.353-.21-.664-.486-.897l-.08-.07-.683-.58-.684-.577-.69-.572-.052-.044c-.96-.783-2.4-.033-2.304 1.207.035.393.21.736.516.987l.04.033.676.56.674.567.67.57.08.07zm-8.78-6.963c1.063.77 2.51-.194 2.21-1.47-.083-.34-.262-.61-.542-.818l-.267-.197-.727-.527-.73-.524-.597-.42c-.308-.218-.697-.303-1.067-.235-1.235.23-1.585 1.827-.56 2.55l.58.41.717.514.713.518.267.196zm-9.286-6.276c.5.306 1.11.277 1.582-.066.805-.61.753-1.802-.1-2.342l-.494-.306-.77-.47-.77-.467-.408-.243c-.433-.255-.954-.26-1.396-.025-.964.523-.988 1.905-.045 2.462l.393.234.757.456.754.46.494.306zm-9.74-5.545c1.18.6 2.466-.6 1.946-1.82-.13-.308-.36-.546-.654-.7l-.776-.4-.806-.41-.81-.406-.152-.078c-.46-.222-.99-.186-1.415.1-.9.603-.805 1.97.17 2.442l.14.07.792.395.79.4.778.403zm-10.14-4.785c1.148.488 2.326-.656 1.87-1.82-.15-.362-.405-.63-.768-.785l-.3-.13-.837-.35-.84-.348-.66-.267c-.5-.197-1.04-.105-1.45.24-.8.705-.59 1.982.397 2.386l.643.26.825.34.82.344.3.13zm-10.47-3.987c1.188.384 2.25-.82 1.72-1.955-.174-.354-.455-.602-.83-.73l-.713-.24-.87-.285-.873-.28-.26-.08c-.55-.17-1.154.007-1.517.457-.628.777-.28 1.95.678 2.244l.243.076.856.275.853.28.713.24zm-10.754-3.17c1.26.31 2.24-1.09 1.512-2.17-.21-.295-.478-.484-.826-.575l-.354-.09-.9-.22-.9-.218-.622-.146c-1.237-.287-2.2 1.088-1.5 2.157.206.31.502.52.863.6l.61.144.88.212.88.217.355.09zm-10.966-2.333c1.304.223 2.176-1.315 1.31-2.318-.22-.25-.5-.415-.83-.47l-.086-.016-.922-.157-.922-.15-.888-.14c-1.176-.184-2.04 1.1-1.43 2.125.218.364.582.606 1.002.672l.87.135.906.146.904.153.087.014zm-11.1-1.483c1.22.103 1.985-1.268 1.257-2.258-.253-.33-.594-.52-1.008-.56l-.88-.084-.947-.08-.946-.075-.075-.005c-1.256-.09-1.993 1.4-1.16 2.344.253.28.585.45.964.476l.058.006.93.074.927.08.88.08zM273.11 244.74v4.208c-.812.736-2.152.303-2.342-.823-.064-.426.05-.835.333-1.16l.238-.264.596-.666.6-.665.48-.528c.033-.035.067-.07.1-.1zm0 197.74v.01l-.24-.274-.578-.664-.105-.12.924 1.05zm0 1.89v1.523c-.435.04-.873-.132-1.17-.458l-.01-.012-.596-.668-.592-.672-.588-.675-.105-.12 1.89 2.147 1.17-1.064zm-5.27-189.077c.346-.44.4-1.034.143-1.53-.477-.908-1.733-1.026-2.367-.22l-.025.033-.55.706-.55.71-.54.713-.08.105c-.8 1.084.205 2.558 1.51 2.21.31-.086.566-.26.76-.516l.07-.094.532-.7.537-.696.54-.693.025-.03zm-6.586 9.068c.322-.484.318-1.11-.015-1.59-.586-.82-1.78-.81-2.34.023l-.16.23-.495.75-.493.753-.423.656c-.33.523-.29 1.18.097 1.66.615.745 1.76.676 2.286-.133l.414-.643.484-.738.488-.736.153-.23zm-5.874 9.546c.6-1.063-.363-2.348-1.555-2.07-.392.09-.718.34-.916.69l-.27.477-.44.79-.435.79-.24.444c-.28.532-.206 1.157.19 1.61.66.732 1.837.592 2.305-.275l.23-.426.427-.777.43-.775.27-.478zm-5.126 9.964c.526-1.14-.6-2.355-1.777-1.918-.354.132-.636.394-.794.737l-.366.79-.376.823-.37.828-.07.157c-.49 1.15.626 2.327 1.8 1.89.365-.14.64-.4.798-.756l.062-.14.363-.81.37-.81.365-.79zm-7.883 20.966c.377-1.35-1.203-2.367-2.282-1.458-.215.19-.355.41-.436.684l-.23.806-.25.886-.243.89-.046.17c-.333 1.284 1.126 2.282 2.2 1.504.267-.194.455-.465.538-.783l.04-.154.24-.87.244-.87.23-.805zm-2.702 10.88c.245-1.225-1.084-2.143-2.145-1.48-.325.213-.55.527-.63.91l-.102.5-.183.91-.178.917-.09.474c-.104.56.136 1.116.605 1.435.85.56 1.994.08 2.18-.92l.085-.457.174-.897.18-.894.104-.5zm-1.863 11.053c.073-.566-.197-1.11-.685-1.4-.877-.514-1.995.033-2.123 1.04l-.04.31-.116.935-.11.936-.072.66c-.133 1.345 1.48 2.1 2.432 1.128.217-.234.345-.51.38-.826l.07-.64.11-.92.114-.916.04-.31zm-1.01 11.162c.024-.602-.31-1.134-.86-1.375-.91-.383-1.912.247-1.967 1.23l-.014.26-.045.954-.04.957-.024.684c-.025.92.808 1.62 1.708 1.43.635-.133 1.103-.69 1.12-1.34l.024-.667.04-.938.043-.937.014-.257zm-.166 11.208c-.038-1.32-1.71-1.875-2.53-.834-.203.263-.31.575-.3.908l.01.367.025.96.033.96.024.57c.053 1.256 1.62 1.822 2.463.885.25-.28.38-.636.364-1.012l-.024-.554-.032-.94-.025-.943-.007-.367zm.68 11.19c-.055-.546-.436-1.026-.96-1.197-.976-.325-1.957.464-1.857 1.485l.037.37.097.94.104.94.07.59c.056.435.29.802.665 1.035 1.024.61 2.28-.195 2.146-1.375l-.067-.574-.102-.92-.096-.923-.035-.37zm1.53 11.107c-.195-1.046-1.405-1.515-2.256-.872-.422.333-.62.84-.53 1.37l.038.215.168.918.173.917.15.76c.1.504.467.92.96 1.074 1.022.324 2.026-.57 1.815-1.625l-.144-.743-.17-.9-.162-.9-.04-.213zm2.375 10.948c-.316-1.214-1.962-1.437-2.59-.35-.19.327-.242.705-.146 1.072l.212.817.238.89.243.89.047.162c.368 1.25 2.06 1.396 2.636.227.15-.324.18-.655.086-1l-.04-.146-.24-.87-.234-.875-.213-.817zm3.215 10.74c-.42-1.216-2.134-1.28-2.64-.095-.14.323-.15.687-.037 1.02l.143.417.3.863.307.86.2.553c.3.803 1.208 1.157 1.972.775.64-.33.928-1.07.685-1.746l-.196-.534-.3-.845-.296-.846-.143-.417zm4.03 10.455c-.49-1.104-2.036-1.137-2.57-.05-.18.384-.19.792-.023 1.184l.34.783.366.83.37.828.08.17c.553 1.2 2.313 1.05 2.653-.23.08-.324.06-.646-.082-.952l-.07-.154-.363-.815-.36-.816-.34-.783zm4.827 10.12c-.247-.47-.754-.77-1.287-.753-1.05.03-1.704 1.144-1.217 2.075l.138.263.427.797.428.795.362.66c.614 1.09 2.212.93 2.59-.264.112-.374.077-.755-.112-1.1l-.353-.646-.42-.78-.417-.782-.137-.263zm5.586 9.716c-.307-.485-.88-.74-1.444-.637-.99.18-1.487 1.3-.95 2.15l.31.49.48.76.49.754.26.397c.62.94 2.04.815 2.485-.224.183-.447.143-.926-.12-1.33l-.25-.386-.48-.74-.473-.744-.31-.493zm6.31 9.26c-.73-.97-2.26-.637-2.515.552-.082.41.002.803.25 1.14l.494.663.54.72.54.715.146.186c.77.98 2.328.575 2.518-.664.053-.39-.044-.76-.283-1.07l-.133-.174-.533-.7-.53-.703-.492-.663zm7.008 8.757c-.26-.298-.615-.47-1.01-.487-1.245-.038-1.933 1.395-1.13 2.34l2.14-1.853z" fill="#4888b5"/><path d="M479.526 304.336c1.235-2.272.6-5.13-1.62-5.92l-23.603-8.41c-3.85-1.373-20.256-2.602-22.396 1.336-2.14 3.935 8.21 10.576 12.106 11.857l19.037 6.26c6.332 2.082 13.842-.28 16.476-5.128zM286.5 387.12c-1.235 2.272-.6 5.13 1.62 5.92l23.603 8.41c3.85 1.373 20.256 2.602 22.396-1.337 2.134-3.935-8.217-10.576-12.11-11.857l-19.038-6.263c-6.332-2.083-13.84.28-16.476 5.127zm128.235 55.998c2.272 1.235 5.13.6 5.92-1.62l8.41-23.603c1.372-3.85 2.602-20.256-1.337-22.396-3.935-2.14-10.576 8.21-11.857 12.1l-6.26 19.038c-2.082 6.332.28 13.842 5.13 16.476z" clip-rule="evenodd" fill="#d5b275" fill-rule="evenodd"/><path d="M369.37 378.877l195.036 146.115v2.13h-69.62L345.528 415.295c14.83-5.487 24.78-19.948 23.84-36.42z" clip-rule="evenodd" fill="#fec900" fill-rule="evenodd"/><path d="M369.37 378.877l195.036 146.115v2.13H529.35l-166.7-124.885c4.682-6.547 7.215-14.673 6.72-23.36z" clip-rule="evenodd" fill="#ffdb59" fill-rule="evenodd"/><path d="M356.37 371.196l10.663 7.988c.027 15.108-9.277 28.192-22.925 33.476l-9.983-7.48c13.84-5.12 23.124-18.613 22.246-33.984z" clip-rule="evenodd" fill="#de6146" fill-rule="evenodd"/><g clip-rule="evenodd" fill-rule="evenodd"><path d="M381.17 453.61c-6.142 2.042-11.568-5.937-8.055-11.928-6.008 2.956-11.887-4.115-9.762-10.17-5.986 1.815-11.26-6.373-7-12.056l22.183-29.612c3.59-4.79 10.752-9.54 17.648-11.87 15.33-5.183 32.27 9.674 33.078 20.626.553 7.503.04 14.168-2.812 18.138l-33.09 46.057c-4.588 6.387-15.306-1.64-12.19-9.184z" fill="#f7ecd7"/><path d="M381.4 454.754v-3.152c4.51-5.467 11.755-13.568 11.755-13.568l-11.754 16.72zm0-23.64v-.427c1.134-1.31 1.874-2.152 1.874-2.152s-.746 1.02-1.873 2.578zm-8.865-11.32s-.11.12-.307.34v.06c.196-.258.307-.4.307-.4zm8.866 10.893v.426c-2.49 3.452-6.86 9.553-9.17 13.117v-.314c.176-.76.466-1.512.89-2.234-.297.146-.593.266-.89.364v-.307c2.656-3.45 6.788-8.297 9.174-11.057zm0 20.915v3.152l-.762 1.09c.006-.878.293-1.55.526-2.185-.55.16-1.096.25-1.63.262.53-.682 1.17-1.47 1.87-2.324zm-9.17-31.47c-1.35 1.502-6.85 7.642-9.905 11.597.342-.04.687-.116 1.035-.22-.188.53-.31 1.07-.38 1.61 2.71-4.304 7.937-11.205 9.253-12.93v-.06zm0 21.607v.302c-.1.034-.203.065-.305.094l.308-.4zm0 2.172v.314l-.09.14c.027-.154.057-.304.09-.455z" fill="#d5b275"/><path d="M406.492 360.25l146.772-195.915h11.142v57.59L442.91 384.09c-5.486-14.83-19.947-24.782-36.418-23.84z" fill="#de6146"/><path d="M398.81 373.247l7.99-10.662c15.107-.027 28.19 9.277 33.475 22.926l-7.48 9.988c-5.12-13.84-18.614-23.125-33.984-22.247z" fill="#afcf5d"/></g><path d="M564.406 185.812v36.114L442.91 384.09c-2.704-7.31-7.59-13.435-13.822-17.654l135.318-180.624z" clip-rule="evenodd" fill="#eda08e" fill-rule="evenodd"/><path d="M351.292 248.337c-2.272-1.235-5.13-.6-5.92 1.62l-8.41 23.603c-1.373 3.85-2.602 20.256 1.337 22.396 3.93 2.14 10.57-8.212 11.852-12.106l6.263-19.037c2.082-6.33-.282-13.84-5.128-16.476z" clip-rule="evenodd" fill="#d5b275" fill-rule="evenodd"/><g clip-rule="evenodd" fill-rule="evenodd"><path d="M490.02 337.9c2.04 6.142-5.94 11.568-11.93 8.055 2.956 6.008-4.115 11.887-10.17 9.762 1.816 5.986-6.373 11.258-12.056 7l-29.612-22.183c-4.79-3.59-9.54-10.752-11.87-17.648-5.183-15.33 9.674-32.27 20.626-33.078 7.503-.553 14.168-.04 18.138 2.812l46.057 33.09c6.387 4.588-1.64 15.307-9.184 12.19z" fill="#f7ecd7"/><path d="M477.61 346.426v-1.612c1.17.803 2.257 1.532 3.167 2.12-.913-.154-1.82-.47-2.687-.98.197.4.347.8.458 1.196-.3-.23-.615-.472-.938-.724zm0-17.702v-.582l14.644 10.295c-.878-.006-1.552-.293-2.186-.526.166.556.253 1.1.268 1.636-3.325-2.59-9.128-7.646-12.726-10.818zm-10.372 27.32c.31.246.61.483.9.706-.04-.34-.11-.686-.216-1.033.532.186 1.07.31 1.612.38-.706-.446-1.483-.958-2.295-1.51v1.456h-.006zm10.372-27.902v.582c-1.887-1.663-3.168-2.81-3.168-2.81l3.168 2.228zm0 16.672v1.612c-3.34-2.607-7.734-6.355-10.372-8.633v-.328c2.576 1.864 6.856 4.938 10.372 7.35zm-21.41 1.722s6.49 5.88 11.038 9.507v-1.457c-4.877-3.315-11.037-8.05-11.037-8.05zm11.038-9.07v.327c-1.392-1.202-2.295-1.996-2.295-1.996s.897.656 2.295 1.668z" fill="#d5b275"/><path d="M396.657 312.58L201.62 166.463v-2.13h69.62L420.498 276.16c-14.83 5.487-24.78 19.947-23.84 36.42z" fill="#afcf5d"/><path d="M409.656 320.26l-10.662-7.99c-.027-15.107 9.277-28.19 22.926-33.475l9.983 7.48c-13.84 5.12-23.126 18.614-22.247 33.984z" fill="#2d5f82"/></g><g clip-rule="evenodd" fill-rule="evenodd"><path d="M351.292 248.337c-1.3-.707-2.793-.8-3.98-.336l8.993 6.74c-.972-2.8-2.713-5.15-5.013-6.4z" fill="#d5b275"/><path d="M490.02 337.9c2.04 6.142-5.94 11.568-11.93 8.055l.015.032-59.708-44.73c4.44-6.44 11.032-11.04 16.61-11.45 7.503-.553 14.168-.04 18.138 2.812l46.057 33.09c6.388 4.584-1.638 15.303-9.183 12.19z" fill="#fffcf7"/><path d="M478.106 345.987l-.496-.372v-.802c1.17.803 2.257 1.532 3.167 2.12-.913-.154-1.82-.47-2.687-.98l.016.034zm-.496-17.263v-.582l14.644 10.295c-.878-.006-1.552-.293-2.186-.526.166.556.253 1.1.268 1.636-3.325-2.59-9.128-7.646-12.726-10.818zm0 16.892l-9.904-7.42c-1.654-1.425-2.762-2.398-2.762-2.398s7.244 5.298 12.666 9.017v.8zm0-17.474v.582c-1.887-1.663-3.168-2.81-3.168-2.81l3.168 2.228z" fill="#e8cea2"/><path d="M235.63 164.335h35.61L420.498 276.16c-7.213 2.668-13.27 7.46-17.483 13.572L235.63 164.335z" fill="#d0e698"/><path d="M405.506 291.598c4.02-5.7 9.688-10.2 16.413-12.802l9.98 7.48c-6.788 2.51-12.477 7.033-16.41 12.804l-9.988-7.482z" fill="#457191"/></g><g clip-rule="evenodd" fill-rule="evenodd"><path d="M384.855 237.845c6.143-2.04 11.57 5.938 8.056 11.93 6.01-2.957 11.89 4.114 9.766 10.167 5.986-1.814 11.26 6.374 7 12.057l-22.183 29.61c-3.59 4.79-10.752 9.54-17.65 11.87-15.33 5.18-32.27-9.676-33.076-20.628-.553-7.503-.04-14.168 2.812-18.138l33.09-46.057c4.59-6.387 15.307 1.64 12.19 9.184z" fill="#f7ecd7"/><path d="M393.8 271.323c1.35-1.5 6.847-7.64 9.907-11.596-.34.04-.686.11-1.034.216.187-.532.31-1.07.38-1.612-2.712 4.31-7.94 11.21-9.254 12.93v.067zm0-21.606v-.307c.1-.034.204-.065.306-.094l-.307.4zm0-2.177v-.314l.088-.138c-.025.15-.055.3-.09.452zm-.308 24.123s.11-.12.307-.34v-.06l-.31.4zm.307-24.438v.314c-.18.76-.47 1.51-.89 2.23.294-.147.59-.268.89-.366v.307c-2.66 3.45-6.79 8.293-9.178 11.05v-.423c2.495-3.45 6.865-9.55 9.173-13.116zm-9.18-7.372V236.7l.77-1.09c-.006.878-.293 1.552-.526 2.186.55-.166 1.097-.252 1.632-.267-.534.68-1.17 1.47-1.875 2.32zm0-3.15v3.15c-4.51 5.468-11.753 13.57-11.753 13.57l11.754-16.72zm0 23.64v.425c-1.132 1.31-1.872 2.152-1.872 2.152s.746-1.02 1.873-2.577z" fill="#d5b275"/><path d="M359.534 331.206L212.762 527.12H201.62v-57.59l121.496-162.164c5.487 14.83 19.947 24.782 36.418 23.84z" fill="#2d5f82"/><path d="M367.215 318.208l-7.987 10.662c-15.107.027-28.192-9.277-33.476-22.926l7.48-9.983c5.12 13.84 18.613 23.13 33.983 22.25z" fill="#fec900"/></g><path d="M201.62 504.455V469.53l121.496-162.164c2.62 7.08 7.284 13.046 13.235 17.247L201.62 504.455z" clip-rule="evenodd" fill="#457191" fill-rule="evenodd"/><path d="M276.007 353.557c-2.042-6.143 5.938-11.57 11.93-8.056-2.957-6.003 4.113-11.882 10.167-9.76-1.814-5.983 6.374-11.26 12.058-7l29.612 22.186c4.79 3.59 9.54 10.752 11.872 17.648 5.182 15.33-9.675 32.27-20.627 33.08-7.508.552-14.17.04-18.14-2.813l-46.06-33.09c-6.388-4.59 1.64-15.307 9.183-12.19z" clip-rule="evenodd" fill="#f7ecd7" fill-rule="evenodd"/><path d="M309.825 344.92s-6.49-5.88-11.037-9.507v1.457c4.877 3.315 11.037 8.05 11.037 8.05zm-11.037 9.07v-.327c1.392 1.202 2.295 1.996 2.295 1.996s-.897-.66-2.295-1.67zm0-18.577c-.31-.247-.61-.484-.9-.707.04.34.11.686.216 1.034-.532-.187-1.072-.31-1.612-.38.706.446 1.483.958 2.295 1.51v-1.457zm0 18.25v.328c-2.577-1.86-6.856-4.934-10.372-7.344v-1.612c3.34 2.608 7.735 6.356 10.372 8.634zm-10.37 9.65v-.58c1.886 1.663 3.166 2.808 3.166 2.808l-3.167-2.222zm0-18.283v1.612c-1.172-.803-2.258-1.532-3.168-2.12.913.154 1.82.47 2.687.98-.197-.4-.347-.8-.46-1.196.302.23.616.47.94.724zm0 17.702v.582l-14.645-10.295c.88 0 1.553.29 2.186.52-.17-.55-.258-1.096-.27-1.63 3.322 2.59 9.124 7.646 12.723 10.818z" clip-rule="evenodd" fill="#d5b275" fill-rule="evenodd"/><path d="M441.394 195.576c14.147 0 25.615 7.915 25.615 17.68 0 5.602-3.78 10.595-9.67 13.834 1.28 2.677 4.04 4.888 7.612 6.17-.085.002-.17.003-.257.003-4.945 0-9.35-1.59-12.202-4.07-3.36 1.116-7.125 1.742-11.103 1.742-14.146 0-25.614-7.916-25.614-17.68 0-9.763 11.467-17.68 25.614-17.68z" clip-rule="evenodd" fill="#c9e3f5" fill-rule="evenodd"/><path d="M242.38 276.6c-.437.09-.856.223-1.253.39v25.67h3.968v-21.436c0-1.91-1.08-3.608-2.716-4.625z" clip-rule="evenodd" fill="#5197c9" fill-rule="evenodd"/><g clip-rule="evenodd" fill-rule="evenodd"><path fill="#c9e3f5" d="M249.42 335.742v-1.228l-16.586 1.228zm-19.27-31.412h21.952c.43 0 .78.35.78.78v2.69c0 .43-.35.78-.78.78h-21.95c-.43 0-.782-.35-.782-.78v-2.69c0-.43.352-.78.78-.78zm2.684 20.404h16.586c.324 0 3.464-7.73 3.464-10.863v-4.75c0-.43-.35-.78-.78-.78H230.15c-.43 0-.78.35-.78.78v4.755c-.002 3.132 3.137 10.864 3.462 10.864z"/><path d="M240.805 339.75c-1.257 0-3.887-.118-3.966-.51-.01-.043-.03-.103-.057-.178.81.256 2.885.34 3.988.34 1.133 0 3.775-.088 4.705-.36-.027.074-.046.14-.057.198-.077.392-3.36.51-4.618.51z" fill="#5197c9"/><path d="M249.222 302.503v-20.41c0-3.003-2.632-5.46-5.85-5.46-3.216 0-5.85 2.457-5.85 5.46v20.363h11.043c.223 0 .442.016.657.047z" fill="#c9e3f5"/><path d="M242.38 276.6c-2.775.58-4.857 2.82-4.857 5.478v20.584h7.572v-21.437c0-1.912-1.08-3.61-2.716-4.626zm2.276 25.856v-18.573c0-.372.357-.823.357-1.272 0-1.06-.933-1.932-2.074-1.932-1.146 0-2.08.87-2.08 1.937 0 .45.357.9.357 1.273v18.573h3.435z" fill="#5197c9"/><path d="M244.127 302.456v-20.81c0-3.004-2.632-5.46-5.85-5.46-3.217 0-5.85 2.456-5.85 5.46v20.987c.4-.115.823-.177 1.26-.177h10.44z" fill="#c9e3f5"/><path d="M238.556 302.456v-19.27c0-.37.357-.822.357-1.27 0-1.066-.934-1.938-2.075-1.938-1.14 0-2.075.87-2.075 1.937 0 .45.357.9.357 1.272v19.27h3.436z" fill="#5197c9"/><path fill="#c9e3f5" d="M249.42 319.357v14.045l-16.586 1.228v-14.045zm-8.294 21.16c4.58 0 8.293-2.138 8.293-4.775h-16.59c0 2.637 3.71 4.774 8.29 4.774z"/></g><g fill="#c9e3f5" transform="translate(-13.992 -41.323)"><path d="M528.14 476.422h3.627v-3.44c2.787-.512 5.37-1.607 7.62-3.153l2.43 2.43 5.13-5.13-2.432-2.43c1.547-2.25 2.64-4.836 3.155-7.62h3.438v-7.256h-3.438c-.515-2.788-1.608-5.37-3.155-7.62l2.43-2.43-5.127-5.128-2.43 2.43c-2.25-1.548-4.834-2.64-7.62-3.156v-3.44h-3.627v8.303c8.1 0 14.67 6.567 14.67 14.667s-6.565 14.668-14.665 14.668v8.302zM511.767 464.7l-2.43 2.43 5.127 5.13 2.433-2.43c2.248 1.546 4.83 2.64 7.618 3.153v3.44h3.626v-8.302c-8.1 0-14.663-6.56-14.663-14.662 0-8.1 6.566-14.667 14.667-14.667v-8.3h-3.625v3.438c-2.79.514-5.37 1.608-7.62 3.155l-2.433-2.43-5.127 5.13 2.43 2.43c-1.55 2.25-2.64 4.83-3.157 7.62h-3.437v7.253h3.438c.516 2.786 1.61 5.37 3.156 7.618z"/><circle cx="528.14" cy="453.454" r="7.072" clip-rule="evenodd" fill-rule="evenodd"/></g><path d="M326.577 488.104c1.032-.07 2.042-.22 3.024-.445.666-.15 1.31-.337 1.947-.55.306-.105.608-.216.908-.334.6-.238 1.184-.5 1.75-.793.285-.146.565-.298.84-.456 1.24-.714 2.397-1.56 3.45-2.515.235-.213.464-.43.687-.654.223-.224.44-.453.655-.687.32-.35.624-.712.918-1.086.465-.592.895-1.21 1.29-1.85.104-.17.207-.342.307-.514.16-.276.31-.556.454-.84.073-.143.144-.285.215-.43.137-.287.27-.58.395-.874.125-.297.242-.596.353-.898.22-.606.414-1.225.575-1.857.082-.314.156-.633.22-.954.067-.322.124-.646.176-.973.046-.327.09-.657.123-.99.067-.663.1-1.337.1-2.02 0-.682-.034-1.356-.1-2.02-.035-.333-.076-.663-.125-.99-.054-.327-.11-.652-.177-.973-.064-.32-.14-.64-.22-.956-.16-.63-.355-1.25-.576-1.855-.055-.15-.112-.3-.172-.45-.176-.45-.37-.89-.577-1.32l-.213-.43c-.146-.28-.298-.56-.456-.838-.475-.828-1.01-1.618-1.597-2.365-.29-.374-.6-.737-.917-1.087-.212-.233-.43-.462-.654-.685-.226-.223-.455-.442-.69-.654-.453-.41-.925-.8-1.415-1.17-.648-.49-1.328-.936-2.035-1.344-.274-.158-.554-.31-.837-.456-.13-.065-.26-.13-.39-.193-.158-.077-.315-.152-.475-.223l-.2-.09c-.228-.098-.455-.194-.687-.285l-.01-.007c-.244-.096-.493-.187-.743-.274-.05-.02-.1-.036-.153-.053-.583-.198-1.18-.368-1.79-.512-.19-.045-.38-.087-.57-.127l-.418-.08c-.715-.13-1.443-.22-2.183-.27v1.056c.8.058 1.59.168 2.36.325-.05.135-.218.075-.358.14-.13.062-.18.186-.318.213-.386.073-.706-.097-1.04-.085-.016.143.164.227.255.273.302.16.55.137.975.13.22-.005.47.065.66-.064.118-.08.11-.26.21-.36.044-.042.105-.084.175-.12.21.05.42.104.628.16-.036.142-.267.108-.27.3.147.088.49-.05.624-.2l.156.046c.3.09.597.19.89.296.42.15.832.315 1.236.494-.078.047-.162.105-.23.105-.174 0-.25-.236-.446-.15-.017.23.24.32.404.423.177.114.362.227.424.424-.172.366-.448-.02-.72-.02-.302-.003-.742.57-1 .105.064-.247.338-.286.405-.53-.06.01-.115.03-.17.052-.1.04-.2.093-.304.15-.136.072-.278.144-.44.18-.147.032-.292.024-.424.063-.255.073-.43.26-.7.36-.104.04-.23.026-.34.063-.255.087-.563.24-.827.383-.27.147-.576.3-.744.446-.09.077-.327.355-.318.443.01.127.25.17.254.297-.006.078-.138.247-.04.36.085.104.26.02.444.043.324.04.535.308.786.446.187.104.467.227.68.254.29.036.617-.085.657.15.04.222-.276.302-.298.443.16.207-.107.306-.106.488.002.15.183.37.34.38.214.02.53-.21.616-.42.106-.252.06-.6.254-.782.99.027 1.827-.448 1.763-1.462-.008-.1-.065-.23-.044-.34.03-.163.314-.3.276-.507.107-.035.17-.12.225-.218.082-.143.146-.31.295-.363l.032-.015c.086-.02.175-.003.27.026.172.05.354.136.557.12.1-.005.235-.096.34-.082.206.027.33.283.486.4.138.106.285.072.32.213-.042.238-.206.246-.192.46v.008c.016.193.218.34.318.36.157.028.378-.055.53-.128.17-.08.32-.25.467-.37.206.16.41.323.613.49.023.095.04.18.047.237.03.23-.03.406-.02.617.026.357.477.32.7.508.065.057.09.2.148.276.108.144.238.144.254.298.04.366-.333.396-.298.805-.075.16-.27.15-.254.36.025.336.506.08.637.34.07.14-.01.246-.063.445.165.196.163.508-.127.51-.177 0-.225-.19-.404-.234-.1-.023-.235-.02-.36-.04-.107-.02-.236-.05-.338-.064-.263-.03-.547.046-.7-.105.25-.333.587-.663.91-.952.098-.087.306-.146.255-.32-.18-.16-.403.01-.573.105-.18.1-.394.246-.595.276-.35.053-.818-.1-1.106.086-.04.16.328.098.276.34-.14.022-.273.034-.382-.065-.1-.085-.043-.22-.106-.272-.107-.09-.518-.116-.7-.086-.222.038-.42.17-.445.36.265.128.71-.127.805.193-.147.264-.492.41-.447.762.02.137.18.32.297.34.118.02.183-.098.297-.086.12.01.092.15.233.128.205-.087.318-.373.552-.36.28.34-.255.506-.553.615-.34.124-.782.19-1.04.297-.136.056-.65.552-.72.17-.053-.278.254-.198.317-.425-.33-.064-.636.14-.934.254-.427.16-1.15.262-1.253.74-.02.096.042.274-.02.34-.052.05-.357.06-.49.104-.204.07-.383.22-.51.254-.095.025-.236.02-.296.043-.17.066-.23.293-.425.445-.077.062-.252.107-.316.17-.11.11-.124.383-.318.424-.124.01-.223-.093-.34-.02-.015.27.095.636-.02.91-.253.204-.53.35-.85.53-.178.1-.337.125-.552.233-.152.076-.292.257-.467.36-.1.06-.205.12-.307.19v9.234c.104-.094.207-.227.265-.333.12-.217.128-.4.34-.508.227-.12.41-.06.7-.17.13-.05.243-.13.36-.213.103-.07.212-.255.34-.128.17.17-.207.264-.063.444.296.156.445-.29.66-.297.067 0 .302.132.424.213.163.11.22.26.4.297.117.023.305-.045.47-.022.214.033.343.22.51.214.2-.005.294-.222.466-.254.374-.07.514.04.678.275.187.032.193-.213.36-.126-.09.184.035.27.108.423.047.1.04.17.085.212.1.095.297.095.445.19.157.1.245.28.425.487.184.21.495.43.742.445.232.014.423-.065.616-.043.44.053.712.272 1.02.51.17.13.326.222.38.38.04.11.02.26.064.38.096.264.48.39.34.847.065.135.21.183.36.277.126.074.23.232.36.254.088.015.183-.026.257-.02.242.016.406.11.616.19.13.05.296.07.382.128.108.073.122.317.255.38.087.043.28-.015.426 0 .228.028.537.167.744.17.124.004.228-.05.34-.04.257.02.46.18.66.364-2.56 4.122-6.673 7.182-11.518 8.352-.017-.185-.07-.37-.08-.557-.016-.404.045-.688-.02-1.06-.05-.28-.11-.713-.21-.89-.115-.198-.56-.53-.786-.657-.148-.083-.326-.113-.487-.19-.348-.17-1.017-.528-1.17-.87-.044-.1-.04-.23-.086-.34-.044-.1-.11-.197-.18-.29v6.378zm-20.73-23.696c-.067.32-.125.646-.174.973-.05.33-.094.66-.127.99-.067.668-.1 1.34-.1 2.02 0 .687.032 1.36.1 2.02.033.337.076.667.127.99.05.33.106.65.173.978.066.322.14.64.22.955.162.63.356 1.25.577 1.857.11.302.23.6.355.896.124.295.256.587.395.875l.212.43c.146.284.298.564.456.84.48.827 1.01 1.617 1.6 2.364.295.375.6.737.92 1.088.21.235.43.464.655.687.225.223.454.44.687.654 1.053.957 2.208 1.8 3.45 2.515.277.16.557.31.84.456.568.29 1.15.556 1.75.793.3.117.6.23.908.33 1.99.673 4.12 1.04 6.336 1.04.463 0 .92-.017 1.374-.05v-6.384c-.082-.107-.172-.212-.245-.324-.263-.4-.475-.9-.744-1.313-.136-.21-.254-.448-.403-.616-.087-.1-.368-.19-.403-.34-.048-.195-.192-.464-.17-.615.03-.2.425-.366.425-.55 0-.157-.21-.25-.256-.38-.107-.326.063-.516.19-.786.043-.09.084-.233.128-.298.08-.116.238-.15.34-.275.06-.07.095-.22.17-.32.16-.214.423-.294.49-.49.053-.155.085-.942.02-1.204-.037-.153-.18-.28-.234-.424-.096-.255-.117-.535-.382-.53-.162.004-.276.184-.38.297-.026.15-.013.313-.17.36-.242.07-.334-.253-.617-.338-.11-.037-.29-.034-.36-.066-.207-.092-.274-.392-.49-.51-.18-.096-.336-.062-.447-.21-.044-.104-.01-.288-.02-.425-.232-.137-.43-.644-.7-.765-.18-.08-.455-.072-.68-.148-.105-.035-.187-.082-.297-.106-.138-.03-.278-.03-.383-.083-.42-.21-.65-.883-1.17-.868-.22.002-.436.21-.638.21-.2 0-.535-.16-.786-.277-.26-.12-.55-.186-.765-.297-.174-.09-.293-.25-.446-.318-.117-.053-.287-.06-.38-.107-.14-.063-.28-.2-.45-.317-.16-.11-.333-.28-.34-.423-.007-.168.153-.31.17-.468.056-.505-.317-.868-.55-1.166-.175-.22-.38-.408-.553-.614.01-.136.01-.16 0-.297-.132-.13-.243-.32-.383-.51-.124-.174-.37-.358-.4-.55-.04-.24.09-.45 0-.68-.15-.382-.683-.21-.616.297.02.14.216.328.277.466.06.14.05.317.108.487.054.164.22.305.276.49.09.29.085.6.17.782.07.16.34.313.19.507-.2.043-.28-.157-.403-.275-.07-.066-.32-.19-.36-.34-.032-.125.08-.29.04-.446-.07-.297-.674-.304-.68-.612 0-.194.255-.217.257-.404 0-.205-.28-.38-.34-.55-.055-.16-.064-.413-.085-.637-.02-.21.006-.453-.044-.614-.044-.145-.263-.345-.404-.423-.186-.104-.334-.06-.425-.213-.08-.132-.13-.408-.15-.55-.03-.256-.004-.533-.02-.806-.013-.27-.04-.532 0-.825.106-.205.298-.306.406-.51.073-.14.084-.315.17-.465.154-.28.493-.534.72-.807.247-.294.473-.576.617-.91.052-.12.19-.385.168-.53-.026-.205-.41-.373-.38-.616.02-.15.233-.148.3-.296.03-.076.06-.29.06-.38.004-.205-.103-.418-.06-.637.033-.187.31-.26.167-.466-.14-.202-.397.11-.553-.02-.144-.122.03-.267.04-.488.005-.09-.052-.19-.042-.257.013-.096.198-.256.148-.32-.076-.096-.16-.292-.28-.45 2.37-1.893 5.206-3.225 8.31-3.79.038.068.07.144.164.17.183-.093.37.01.573 0 .2-.004.376-.096.594-.06.386.06.926.437 1.23.233.075-.052.06-.14.127-.276.055-.106.14-.225.194-.357.155-.003.31-.006.46-.006.465 0 .92.017 1.376.05v-1.06c-.334-.022-.672-.037-1.01-.043l-.362-.002c-.205 0-.408.003-.61.01-1.998.06-3.92.417-5.727 1.03-.305.1-.608.212-.906.33l-.275.113c-.204.085-.41.17-.61.263-.29.132-.58.27-.864.416-.283.145-.563.3-.84.456-1.107.64-2.15 1.38-3.11 2.215l-.34.3c-.232.214-.46.43-.685.656-.223.223-.442.452-.653.686-.32.35-.624.715-.92 1.087-.583.745-1.12 1.535-1.594 2.363-.16.276-.31.557-.455.84-.073.14-.143.285-.213.43-.207.43-.4.872-.576 1.32-.057.15-.115.3-.17.45-.22.607-.414 1.227-.576 1.86-.077.313-.15.633-.217.954zm20.73-.35v9.234c-.07.063-.143.108-.203.112-.177.013-.348-.248-.51-.318-.485-.21-.722.185-1.124.19-.375.005-.91-.6-.892-.953.013-.214.124-.54.15-.805.02-.21.166-.337.17-.53.002-.257-.343-.457-.51-.487-.396-.07-.946.16-1.4-.02-.087-.14.1-.24.148-.38.027-.08.01-.19.043-.274.05-.135.19-.24.25-.38.047-.11.057-.27.105-.404.055-.154.157-.252.17-.36.016-.143-.038-.31-.15-.403-.352.017-.585.035-.786.127-.46.21-.368.828-.827.974-.16.05-.378.053-.552.085-.15.027-.333.108-.49.105-.18-.004-.504-.18-.612-.297-.1-.104-.336-.627-.36-.72-.184-.624.014-1.197.25-1.63.05-.093.135-.18.17-.276.057-.147.02-.37.065-.53.08-.295.468-.472.743-.615.31-.16.57-.42.932-.443.18-.015.443.046.616.082.16.033.285.14.424.148.392.03.486-.273.806-.443.33.046.55-.057.85-.022.204.025.35.244.51.256.132.01.25-.124.38-.103.125.02.34.293.362.447.024.19-.14.362-.086.57.2.204.563.245.848.36.186-.152.025-.434 0-.655-.01-.098.01-.186 0-.275-.017-.152-.084-.293-.084-.423-.004-.453.273-.725.583-.934z" fill="#c9e3f5"/><path d="M381.17 453.61c-6.142 2.042-11.568-5.937-8.055-11.928-.198.097-.395.183-.592.26l45.042-60.124c6.57 4.44 11.28 11.132 11.697 16.782.553 7.503.04 14.168-2.812 18.138l-33.09 46.057c-4.588 6.387-15.306-1.64-12.19-9.184z" clip-rule="evenodd" fill="#fffcf7" fill-rule="evenodd"/><path d="M381.4 430.688c1.134-1.31 1.874-2.152 1.874-2.152s-.745 1.02-1.873 2.578v-.426zm0 24.066v-3.152c4.51-5.467 11.755-13.568 11.755-13.568l-11.754 16.72zm-8.876-12.814l5.25-7.008c1.355-1.607 2.64-3.103 3.626-4.244v.425c-2.53 3.497-6.98 9.712-9.263 13.256.153-.918.47-1.826.977-2.69-.196.095-.393.18-.59.26zm8.877 9.662v3.152l-.762 1.09c.006-.878.293-1.55.526-2.185-.55.16-1.096.25-1.63.262.53-.682 1.17-1.47 1.87-2.324z" clip-rule="evenodd" fill="#e8cea2" fill-rule="evenodd"/><path d="M427.225 368.923c5.818 4.03 10.408 9.765 13.05 16.588l-7.48 9.988c-2.548-6.884-7.166-12.64-13.056-16.58l7.48-9.99z" clip-rule="evenodd" fill="#d0e698" fill-rule="evenodd"/><path d="M356.37 371.196l10.663 7.988c.014 7.886-2.515 15.22-6.878 21.182l-9.98-7.476c4.32-6.09 6.656-13.634 6.196-21.694z" clip-rule="evenodd" fill="#eda08e" fill-rule="evenodd"/><path d="M336.1 277.873c-.803 6.32-.836 16.434 2.198 18.084 3.054 1.66 7.738-4.205 10.28-8.734l-12.478-9.35z" clip-rule="evenodd" fill="#d5b275" fill-rule="evenodd"/><path d="M285.736 344.615c.748.18 1.488.47 2.2.886-2.956-6.003 4.114-11.882 10.168-9.76-1.814-5.983 6.374-11.26 12.058-7l29.612 22.186c4.79 3.59 9.54 10.752 11.872 17.648 2.613 7.73.13 15.87-4.377 22.143L285.73 344.62z" clip-rule="evenodd" fill="#fffcf7" fill-rule="evenodd"/><path d="M309.825 344.92s-6.49-5.88-11.037-9.507v1.457c4.877 3.315 11.037 8.05 11.037 8.05zm-11.037 9.07v-.327c1.392 1.202 2.295 1.996 2.295 1.996s-.896-.66-2.295-1.67zm0-18.577c-.31-.247-.61-.484-.9-.707.04.34.11.686.216 1.034-.532-.187-1.072-.31-1.612-.38.706.446 1.483.958 2.295 1.51v-1.457zm0 18.25v.328c-2.502-1.81-6.61-4.76-10.064-7.133l-2.976-2.23c.744.176 1.48.463 2.19.878-.198-.4-.348-.798-.46-1.194 3.41 2.59 8.417 6.858 11.31 9.357z" clip-rule="evenodd" fill="#e8cea2" fill-rule="evenodd"/><g fill="#fff"><path d="M514.148 435.1h3.626v-3.44c2.787-.513 5.37-1.608 7.62-3.154l2.43 2.43 5.13-5.128-2.432-2.43c1.547-2.25 2.64-4.833 3.155-7.62h3.438v-7.253h-3.438c-.515-2.788-1.608-5.37-3.155-7.62l2.43-2.43-5.127-5.128-2.43 2.43c-2.25-1.547-4.834-2.64-7.62-3.155v-3.44h-3.627v8.302c8.1 0 14.667 6.567 14.667 14.667 0 8.106-6.567 14.67-14.667 14.67v8.3z"/><path d="M514.148 405.06c3.906 0 7.072 3.165 7.072 7.07 0 3.906-3.166 7.073-7.072 7.073V405.06z" clip-rule="evenodd" fill-rule="evenodd"/></g><path d="M325.68 488.145c1.345-.032 2.656-.198 3.92-.486.66-.15 1.31-.337 1.942-.55.306-.105.608-.216.908-.334.598-.238 1.183-.5 1.75-.793.284-.146.564-.298.84-.456 1.24-.714 2.396-1.56 3.45-2.515.234-.213.463-.43.686-.654.223-.224.442-.453.655-.687.32-.35.63-.712.92-1.086.468-.592.898-1.21 1.29-1.85.107-.17.21-.342.31-.514.16-.276.31-.556.456-.84.073-.143.144-.285.215-.43.138-.287.27-.58.396-.874.125-.297.242-.596.353-.898.22-.606.414-1.225.575-1.857.082-.314.156-.633.22-.954.067-.322.124-.646.176-.973.048-.327.09-.657.125-.99.067-.663.1-1.337.1-2.02 0-.682-.034-1.356-.1-2.02-.035-.333-.076-.663-.125-.99-.055-.327-.11-.652-.178-.973-.065-.32-.14-.64-.22-.956-.162-.63-.356-1.25-.577-1.855-.055-.15-.112-.3-.172-.45-.177-.45-.37-.89-.578-1.32l-.213-.43c-.146-.28-.298-.56-.456-.838-.475-.828-1.01-1.618-1.597-2.365-.294-.374-.6-.737-.92-1.087-.212-.233-.43-.462-.654-.685-.223-.223-.452-.442-.686-.654-.452-.41-.924-.8-1.414-1.17-.648-.49-1.328-.936-2.035-1.344-.274-.158-.554-.31-.84-.456-.13-.065-.26-.13-.39-.193-.155-.077-.312-.152-.472-.223l-.2-.09c-.227-.098-.454-.194-.686-.285l-.01-.007c-.246-.096-.495-.187-.745-.274-.05-.02-.1-.036-.153-.053-.583-.198-1.18-.368-1.79-.512-.19-.045-.38-.087-.57-.127l-.42-.08c-1-.18-2.03-.29-3.08-.314v1.056c1.113.028 2.202.154 3.26.368-.052.135-.218.075-.358.14-.13.06-.18.185-.318.212-.386.074-.706-.096-1.04-.084-.016.145.164.23.255.275.303.16.55.138.976.13.22-.004.47.066.66-.063.117-.08.11-.26.21-.36.043-.044.104-.086.174-.12.21.05.42.102.627.16-.035.14-.266.106-.27.3.148.086.49-.05.625-.2l.156.044c.3.09.598.19.89.297.42.15.833.316 1.237.495-.077.047-.16.105-.228.105-.176-.002-.25-.236-.448-.15-.017.228.24.32.404.423.177.114.36.227.424.424-.172.366-.448-.02-.72-.02-.302-.003-.742.57-1 .105.064-.25.338-.288.405-.53-.06.01-.117.03-.173.05-.1.04-.2.093-.303.15-.136.072-.278.144-.44.18-.146.032-.29.024-.423.063-.254.074-.43.262-.7.36-.103.04-.23.027-.338.064-.257.087-.565.24-.83.383-.27.147-.574.3-.742.446-.09.076-.326.354-.317.442.01.127.25.168.255.297-.004.076-.136.245-.04.36.087.102.26.02.446.04.326.04.537.307.788.445.187.104.467.227.68.254.29.037.617-.084.657.15.04.223-.276.303-.298.444.158.207-.108.306-.107.488 0 .147.182.368.34.38.213.02.528-.21.615-.422.106-.253.06-.6.254-.783.987.028 1.825-.447 1.76-1.46-.006-.1-.063-.23-.042-.34.03-.164.313-.3.275-.508.107-.033.17-.12.225-.216.08-.144.145-.31.294-.364.012-.004.02-.01.032-.013.083-.02.172-.004.27.025.17.05.35.137.554.12.104-.004.237-.095.34-.08.208.027.332.283.488.4.14.105.286.07.32.21-.04.238-.205.246-.19.46v.008c.015.194.217.34.317.36.156.03.377-.054.53-.127.17-.077.32-.247.466-.366.207.16.412.323.614.49.024.095.04.18.048.237.03.23-.03.406-.02.617.024.357.475.32.7.508.063.057.09.2.146.276.108.144.238.144.254.298.04.366-.33.396-.296.805-.076.16-.27.15-.255.36.024.335.505.08.636.34.07.14-.01.245-.063.444.163.196.16.508-.13.51-.176 0-.224-.19-.403-.234-.1-.022-.234-.02-.36-.04-.107-.02-.236-.05-.34-.063-.26-.03-.545.045-.7-.106.253-.333.59-.663.913-.952.097-.086.305-.145.254-.32-.18-.16-.402.01-.572.107-.18.1-.394.246-.595.276-.35.054-.817-.1-1.105.087-.04.16.328.097.276.34-.14.02-.27.033-.38-.066-.1-.086-.042-.22-.105-.273-.108-.09-.52-.116-.7-.086-.223.038-.42.17-.446.36.266.128.71-.13.806.19-.146.267-.49.41-.446.765.02.137.18.32.297.34.118.02.183-.098.297-.086.12.01.09.15.233.127.205-.087.318-.373.552-.36.28.34-.255.506-.553.615-.34.124-.782.19-1.04.297-.136.056-.65.552-.72.17-.053-.278.254-.198.317-.425-.33-.064-.636.14-.934.254-.43.16-1.153.263-1.255.74-.02.097.043.275-.02.34-.05.05-.356.06-.49.105-.203.07-.382.22-.51.254-.094.025-.235.02-.295.043-.17.066-.23.293-.427.445-.08.064-.254.11-.318.17-.11.11-.124.385-.318.426-.124.01-.223-.093-.34-.022-.015.27.095.638-.02.91-.253.206-.53.35-.85.532-.178.098-.337.124-.552.232-.152.076-.292.257-.467.36-.405.24-.894.52-.89 1.124 0 .13.066.27.083.425.01.09-.01.177 0 .275.027.22.188.504 0 .656-.122-.05-.26-.085-.395-.126v6.814c.06.01.12.026.186.055.16.07.33.33.51.317.147-.01.37-.267.467-.444.12-.217.128-.4.34-.508.227-.118.41-.06.7-.17.13-.048.243-.13.36-.212.103-.07.212-.255.34-.128.17.17-.207.265-.063.445.294.157.443-.29.66-.296.065 0 .3.132.422.213.165.107.223.26.402.295.117.024.305-.044.468-.02.216.03.345.216.51.21.2-.004.296-.22.468-.253.375-.07.515.04.68.274.185.032.19-.213.36-.126-.093.183.033.267.106.422.048.1.04.17.086.212.1.096.297.096.445.19.16.1.248.282.428.488.184.21.495.43.742.445.232.014.423-.065.616-.043.44.054.713.273 1.02.51.17.132.327.223.382.38.04.11.02.26.063.382.097.264.48.39.34.847.066.136.21.184.36.278.127.075.23.233.36.255.09.014.184-.027.258-.022.243.018.407.11.617.193.13.05.297.07.383.127.107.072.12.316.254.38.086.042.28-.016.425 0 .227.027.536.166.743.17.124.003.228-.05.34-.04.257.02.46.18.66.363-2.56 4.123-6.673 7.183-11.518 8.353-.016-.188-.07-.374-.078-.56-.018-.403.043-.687-.02-1.06-.05-.28-.11-.712-.213-.89-.113-.197-.56-.53-.784-.656-.15-.082-.327-.112-.488-.19-.347-.17-1.016-.527-1.168-.87-.046-.098-.04-.228-.088-.338-.092-.217-.286-.406-.424-.615-.233-.353-.425-.787-.653-1.167v7.91zm0-12.32v-2.508c.107.095.138.29.206.47.054.145.197.272.234.425.064.263.033 1.05-.02 1.207-.06.16-.262.244-.42.402zm-.475 12.326h.475v-7.92l-.09-.147c-.13-.2-.245-.426-.385-.592v8.665zm.475-39.51h-.116c-.12-.003-.24-.005-.36-.005v1.057c.16 0 .317 0 .475.006v-1.055zm0 17.58c-.174-.05-.34-.114-.452-.23-.056-.21.11-.38.086-.57-.01-.065-.052-.15-.11-.23v7.946c.146-.067.293-.127.476-.1v-6.813zm0 7.1v2.51c-.025.023-.048.05-.07.08-.076.1-.112.247-.17.317-.068.082-.16.125-.235.177v-2.943c.083-.097.177-.2.298-.2.077 0 .133.02.177.06z" fill="#fff"/><path clip-rule="evenodd" fill="#fff" fill-rule="evenodd" d="M249.42 334.514l-8.294.614v.614h8.293zm-8.294-30.184h10.976c.43 0 .78.35.78.78v2.69c0 .43-.35.78-.78.78h-10.976v-4.25zm0 20.404h8.293c.32 0 3.46-7.73 3.46-10.863v-4.75c0-.43-.35-.78-.78-.78h-10.977v16.398zm0 14.666c1.256-.017 3.51-.112 4.353-.36-.03.075-.05.142-.06.2-.07.362-2.88.49-4.298.507v-.348zm8.096-36.897v-20.41c0-3.003-2.632-5.46-5.85-5.46-.794 0-1.552.15-2.245.42v25.403h7.438c.223 0 .442.016.657.047z"/><path d="M244.656 302.456v-18.573c0-.372.357-.823.357-1.272 0-1.06-.933-1.932-2.074-1.932-.78 0-1.46.404-1.817.997v1.812c.054.14.094.274.094.4v18.573h3.435z" clip-rule="evenodd" fill="#c9e3f5" fill-rule="evenodd"/><path clip-rule="evenodd" fill="#fff" fill-rule="evenodd" d="M249.42 319.357v14.045l-8.294.614V319.97zm-8.294 21.16c4.58 0 8.293-2.138 8.293-4.775h-8.298v4.774zm8.294-15.65v1.438l-8.294.738v-1.437zm0 2.95v1.437l-8.294.738v-1.437zm0 2.948v1.438l-8.294.738v-1.433zm191.974-135.19c14.147 0 25.615 7.916 25.615 17.68 0 5.603-3.78 10.596-9.67 13.835 1.28 2.677 4.04 4.888 7.612 6.17-.085.002-.17.003-.257.003-4.945 0-9.35-1.59-12.202-4.07-3.36 1.116-7.125 1.742-11.103 1.742v-35.36z"/><path clip-rule="evenodd" fill="#5197c9" fill-rule="evenodd" d="M226.185 307.568h30.246v1.783h-30.24zm23.235 17.3v1.437l-16.586 1.477v-1.437zm0 2.95v1.436l-16.586 1.476v-1.437zm0 2.947v1.437l-16.586 1.477v-1.44z"/><path d="M384.855 237.845c5.6-1.86 10.603 4.606 8.782 10.303l-45.762 61.085c-6.262-4.436-10.707-10.895-11.11-16.376-.554-7.503-.04-14.168 2.81-18.138l33.09-46.06c4.59-6.39 15.308 1.635 12.19 9.18z" clip-rule="evenodd" fill="#fffcf7" fill-rule="evenodd"/><path d="M393.632 248.155l-6.11 8.157c2.268-3.182 4.817-6.82 6.366-9.224-.06.356-.145.713-.256 1.067zm-8.765-10.36c.55-.165 1.097-.25 1.632-.266-3.95 5.062-13.63 15.89-13.63 15.89l12.52-17.81c-.007.875-.294 1.55-.527 2.182z" clip-rule="evenodd" fill="#e8cea2" fill-rule="evenodd"/><path d="M338.22 322.12c-5.543-4.003-9.916-9.582-12.468-16.176l7.48-9.983c2.46 6.657 6.856 12.256 12.465 16.18l-7.478 9.984z" clip-rule="evenodd" fill="#ffdb59" fill-rule="evenodd"/></svg>