<svg xmlns="http://www.w3.org/2000/svg" width="799.92" height="799.92" viewBox="0 0 799.92 799.92"><defs><filter id="K" color-interpolation-filters="sRGB"><feColorMatrix values="0.21 0.72 0.072 0 0 0.21 0.72 0.072 0 0 0.21 0.72 0.072 0 0 0 0 0 1 0"/></filter><filter id="J" color-interpolation-filters="sRGB"><feColorMatrix values="0.21 0.72 0.072 0 0 0.21 0.72 0.072 0 0 0.21 0.72 0.072 0 0 0 0 0 1 0"/></filter><filter id="I" color-interpolation-filters="sRGB"><feColorMatrix values="0.21 0.72 0.072 0 0 0.21 0.72 0.072 0 0 0.21 0.72 0.072 0 0 0 0 0 1 0"/></filter><filter id="H" color-interpolation-filters="sRGB"><feColorMatrix values="0.21 0.72 0.072 0 0 0.21 0.72 0.072 0 0 0.21 0.72 0.072 0 0 0 0 0 1 0"/></filter><filter id="G" color-interpolation-filters="sRGB"><feColorMatrix values="0.21 0.72 0.072 0 0 0.21 0.72 0.072 0 0 0.21 0.72 0.072 0 0 0 0 0 1 0"/></filter><filter id="F" color-interpolation-filters="sRGB"><feColorMatrix values="0.21 0.72 0.072 0 0 0.21 0.72 0.072 0 0 0.21 0.72 0.072 0 0 0 0 0 1 0"/></filter><filter id="E" color-interpolation-filters="sRGB"><feColorMatrix values="0.21 0.72 0.072 0 0 0.21 0.72 0.072 0 0 0.21 0.72 0.072 0 0 0 0 0 1 0"/></filter><filter id="D" color-interpolation-filters="sRGB"><feColorMatrix values="0.21 0.72 0.072 0 0 0.21 0.72 0.072 0 0 0.21 0.72 0.072 0 0 0 0 0 1 0"/></filter><filter id="C" color-interpolation-filters="sRGB"><feColorMatrix values="0.21 0.72 0.072 0 0 0.21 0.72 0.072 0 0 0.21 0.72 0.072 0 0 0 0 0 1 0"/></filter><filter id="B" color-interpolation-filters="sRGB"><feColorMatrix values="0.21 0.72 0.072 0 0 0.21 0.72 0.072 0 0 0.21 0.72 0.072 0 0 0 0 0 1 0"/></filter><filter id="A" color-interpolation-filters="sRGB"><feColorMatrix values="0.21 0.72 0.072 0 0 0.21 0.72 0.072 0 0 0.21 0.72 0.072 0 0 0 0 0 1 0"/></filter><filter id="z" color-interpolation-filters="sRGB"><feColorMatrix values="0.21 0.72 0.072 0 0 0.21 0.72 0.072 0 0 0.21 0.72 0.072 0 0 0 0 0 1 0"/></filter><filter id="y" color-interpolation-filters="sRGB"><feColorMatrix values="0.21 0.72 0.072 0 0 0.21 0.72 0.072 0 0 0.21 0.72 0.072 0 0 0 0 0 1 0"/></filter><filter id="x" color-interpolation-filters="sRGB"><feColorMatrix values="0.21 0.72 0.072 0 0 0.21 0.72 0.072 0 0 0.21 0.72 0.072 0 0 0 0 0 1 0"/></filter><filter id="w" color-interpolation-filters="sRGB"><feColorMatrix values="0.21 0.72 0.072 0 0 0.21 0.72 0.072 0 0 0.21 0.72 0.072 0 0 0 0 0 1 0"/></filter><filter id="v" color-interpolation-filters="sRGB"><feColorMatrix values="0.21 0.72 0.072 0 0 0.21 0.72 0.072 0 0 0.21 0.72 0.072 0 0 0 0 0 1 0"/></filter><filter id="u" color-interpolation-filters="sRGB"><feColorMatrix values="0.21 0.72 0.072 0 0 0.21 0.72 0.072 0 0 0.21 0.72 0.072 0 0 0 0 0 1 0"/></filter><filter id="t" color-interpolation-filters="sRGB"><feColorMatrix values="0.21 0.72 0.072 0 0 0.21 0.72 0.072 0 0 0.21 0.72 0.072 0 0 0 0 0 1 0"/></filter><filter id="s" color-interpolation-filters="sRGB"><feColorMatrix values="0.21 0.72 0.072 0 0 0.21 0.72 0.072 0 0 0.21 0.72 0.072 0 0 0 0 0 1 0"/></filter><filter id="r" color-interpolation-filters="sRGB"><feColorMatrix values="0.21 0.72 0.072 0 0 0.21 0.72 0.072 0 0 0.21 0.72 0.072 0 0 0 0 0 1 0"/></filter><filter id="q" color-interpolation-filters="sRGB"><feColorMatrix values="0.21 0.72 0.072 0 0 0.21 0.72 0.072 0 0 0.21 0.72 0.072 0 0 0 0 0 1 0"/></filter><filter id="p" color-interpolation-filters="sRGB"><feColorMatrix values="0.21 0.72 0.072 0 0 0.21 0.72 0.072 0 0 0.21 0.72 0.072 0 0 0 0 0 1 0"/></filter><filter id="o" color-interpolation-filters="sRGB"><feColorMatrix values="0.21 0.72 0.072 0 0 0.21 0.72 0.072 0 0 0.21 0.72 0.072 0 0 0 0 0 1 0"/></filter><filter id="n" color-interpolation-filters="sRGB"><feColorMatrix values="0.21 0.72 0.072 0 0 0.21 0.72 0.072 0 0 0.21 0.72 0.072 0 0 0 0 0 1 0"/></filter><filter id="m" color-interpolation-filters="sRGB"><feColorMatrix values="0.21 0.72 0.072 0 0 0.21 0.72 0.072 0 0 0.21 0.72 0.072 0 0 0 0 0 1 0"/></filter><filter id="l" color-interpolation-filters="sRGB"><feColorMatrix values="0.21 0.72 0.072 0 0 0.21 0.72 0.072 0 0 0.21 0.72 0.072 0 0 0 0 0 1 0"/></filter><filter id="k" color-interpolation-filters="sRGB"><feColorMatrix values="0.21 0.72 0.072 0 0 0.21 0.72 0.072 0 0 0.21 0.72 0.072 0 0 0 0 0 1 0"/></filter><filter id="j" color-interpolation-filters="sRGB"><feColorMatrix values="0.21 0.72 0.072 0 0 0.21 0.72 0.072 0 0 0.21 0.72 0.072 0 0 0 0 0 1 0"/></filter><filter id="i" color-interpolation-filters="sRGB"><feColorMatrix values="0.21 0.72 0.072 0 0 0.21 0.72 0.072 0 0 0.21 0.72 0.072 0 0 0 0 0 1 0"/></filter><filter id="h" color-interpolation-filters="sRGB"><feColorMatrix values="0.21 0.72 0.072 0 0 0.21 0.72 0.072 0 0 0.21 0.72 0.072 0 0 0 0 0 1 0"/></filter><filter id="g" color-interpolation-filters="sRGB"><feColorMatrix values="0.21 0.72 0.072 0 0 0.21 0.72 0.072 0 0 0.21 0.72 0.072 0 0 0 0 0 1 0"/></filter><filter id="f" color-interpolation-filters="sRGB"><feColorMatrix values="0.21 0.72 0.072 0 0 0.21 0.72 0.072 0 0 0.21 0.72 0.072 0 0 0 0 0 1 0"/></filter><filter id="e" color-interpolation-filters="sRGB"><feColorMatrix values="0.21 0.72 0.072 0 0 0.21 0.72 0.072 0 0 0.21 0.72 0.072 0 0 0 0 0 1 0"/></filter><filter id="d" color-interpolation-filters="sRGB"><feColorMatrix values="0.21 0.72 0.072 0 0 0.21 0.72 0.072 0 0 0.21 0.72 0.072 0 0 0 0 0 1 0"/></filter><filter id="c" color-interpolation-filters="sRGB"><feColorMatrix values="0.21 0.72 0.072 0 0 0.21 0.72 0.072 0 0 0.21 0.72 0.072 0 0 0 0 0 1 0"/></filter><filter id="b" color-interpolation-filters="sRGB"><feColorMatrix values="0.21 0.72 0.072 0 0 0.21 0.72 0.072 0 0 0.21 0.72 0.072 0 0 0 0 0 1 0"/></filter><filter id="a" color-interpolation-filters="sRGB"><feColorMatrix values="0.21 0.72 0.072 0 0 0.21 0.72 0.072 0 0 0.21 0.72 0.072 0 0 0 0 0 1 0"/></filter></defs><path d="M482.698 293.872c1.19-2.102.578-4.747-1.56-5.478l-22.72-7.78c-3.706-1.272-19.5-2.41-21.56 1.235-2.06 3.64 7.904 9.784 11.654 10.97l18.326 5.792c6.095 1.926 13.325-.26 15.86-4.745zm-59.27 128.92c1.182-.21 2.186-.89 2.6-2.01l8.096-21.84c1.32-3.56 2.503-18.74-1.288-20.72-3.788-1.98-10.18 7.595-11.414 11.195l-6.026 17.615c-1.184 3.453-.876 7.284.53 10.348l7.508 5.406z" clip-rule="evenodd" fill="#d5b275" fill-rule="evenodd" filter="url(#a)"/><path d="M248.565 392.45c-1.175-.097-1.912 1.172-1.21 2.087.242.305.57.48.968.518l.847.076.91.075.912.07.072.01c1.205.083 1.915-1.296 1.116-2.17-.247-.26-.568-.417-.93-.44l-.056-.006-.896-.07-.892-.073-.847-.074zm-10.688-1.374c-1.254-.207-2.093 1.216-1.263 2.144.212.232.48.384.8.435l.084.015.888.144.886.14.853.127c1.13.172 1.963-1.015 1.376-1.964-.21-.338-.56-.562-.964-.623l-.838-.126-.872-.136-.87-.14-.084-.014zm-10.555-2.158c-1.213-.287-2.157 1.007-1.456 2.008.2.273.458.447.793.532l.34.083.866.206.867.2.603.135c1.192.262 2.118-1.007 1.444-1.997-.198-.287-.483-.48-.83-.555l-.584-.135-.85-.197-.846-.2-.342-.085zm-10.354-2.933c-1.143-.356-2.165.76-1.655 1.81.167.327.44.556.8.674l.685.22.838.266.84.26.25.08c.53.157 1.11-.008 1.46-.424.605-.72.27-1.805-.652-2.08l-.233-.068-.823-.255-.822-.26-.686-.222zm158.507-208.857c.703.898 2.175.588 2.422-.512.08-.38-.002-.744-.24-1.055l-.476-.613-.52-.664-.52-.66-.14-.172c-.74-.905-2.24-.53-2.423.617-.05.36.042.7.272.99l.132.16.513.647.51.65.472.614zm6.074 8.568c.295.448.846.685 1.39.59.95-.167 1.43-1.203.912-1.99l-.3-.46-.463-.703-.47-.697-.25-.37c-.6-.868-1.967-.752-2.393.21-.176.41-.138.855.116 1.23l.242.355.455.686.457.69.298.454zm5.377 8.99c.238.436.726.712 1.24.697 1.01-.028 1.638-1.055 1.17-1.916l-.133-.242-.408-.737-.412-.736-.35-.61c-.59-1.01-2.128-.86-2.492.244-.108.346-.074.698.108 1.017l.34.598.404.723.4.722.133.244zm4.647 9.363c.473 1.02 1.96 1.05 2.474.045.173-.355.185-.733.022-1.095l-.327-.724-.353-.768-.356-.762-.077-.158c-.53-1.11-2.224-.97-2.55.213-.078.3-.06.6.076.882l.068.143.355.75.346.756.33.722zm3.88 9.672c.402 1.127 2.052 1.185 2.54.09.133-.3.143-.637.034-.945l-.142-.385-.29-.798-.295-.8-.19-.512c-.29-.742-1.166-1.07-1.9-.716-.617.305-.893.99-.66 1.616l.187.494.29.782.284.783.138.387zm3.095 9.938c.303 1.124 1.888 1.33 2.492.323.183-.3.233-.65.142-.99l-.205-.755-.23-.823-.234-.824-.045-.148c-.353-1.157-1.982-1.293-2.536-.21-.145.3-.173.606-.077.925l.038.135.23.808.225.808.202.754zm2.286 10.13c.187.968 1.352 1.402 2.17.807.412-.308.604-.777.517-1.268l-.037-.2-.16-.85-.166-.846-.142-.704c-.097-.466-.453-.85-.925-.993-.986-.3-1.954.527-1.75 1.502l.14.687.165.83.155.833.036.2zm1.473 10.274c.05.507.418.95.923 1.11.94.3 1.883-.43 1.787-1.374l-.035-.343-.094-.87-.1-.87-.068-.545c-.053-.407-.28-.747-.638-.962-.986-.565-2.195.18-2.066 1.272l.065.53.103.85.093.854.035.343zm.654 10.354c.035 1.223 1.646 1.736 2.435.772.192-.243.297-.532.288-.84l-.01-.34-.025-.887-.032-.886-.022-.53c-.05-1.162-1.56-1.686-2.37-.82-.244.26-.367.59-.35.937l.02.513.03.87.024.87.006.34zm-.16 10.37c-.024.557.298 1.05.828 1.27.876.355 1.84-.228 1.893-1.137l.014-.24.047-.883.038-.884.023-.634c.026-.846-.775-1.493-1.642-1.32-.61.124-1.062.64-1.078 1.24l-.023.618-.04.87-.04.866-.016.238zm-.972 10.33c-.07.522.19 1.024.66 1.293.842.477 1.918-.03 2.042-.96l.038-.288.112-.864.106-.86.07-.61c.128-1.245-1.425-1.944-2.34-1.044-.21.216-.334.47-.37.763l-.066.593-.106.85-.108.848-.038.285zm-1.795 10.228c-.236 1.132 1.044 1.98 2.065 1.368.318-.197.535-.488.607-.842l.102-.465.177-.844.17-.846.087-.435c.1-.518-.132-1.03-.584-1.327-.818-.518-1.915-.074-2.098.852l-.08.422-.17.828-.172.828-.1.466zm-2.605 10.065c-.36 1.25 1.162 2.19 2.2 1.35.208-.175.343-.38.42-.632l.228-.746.24-.82.233-.82.044-.156c.323-1.19-1.08-2.113-2.118-1.393-.254.18-.436.43-.516.725l-.04.142-.23.807-.235.805-.223.745zm-7.59 19.402c-.505 1.055.58 2.178 1.712 1.775.34-.12.612-.364.764-.68l.352-.732.362-.763.356-.767.068-.144c.473-1.063-.597-2.147-1.733-1.748-.35.13-.613.37-.767.704l-.06.13-.35.75-.355.748-.35.73zm-4.933 9.22c-.58.983.348 2.172 1.495 1.915.378-.084.692-.315.882-.64l.26-.44.424-.73.42-.732.23-.41c.27-.49.2-1.068-.182-1.49-.636-.676-1.77-.546-2.218.26l-.222.393-.41.718-.414.716-.26.444zm-5.657 8.83c-.31.45-.305 1.028.015 1.473.558.76 1.71.748 2.252-.02l.147-.214.48-.693.472-.694.407-.608c.317-.484.28-1.092-.093-1.536-.597-.69-1.694-.626-2.204.122l-.4.6-.466.682-.467.68-.15.214zm-6.34 8.388c-.332.408-.384.956-.136 1.414.46.842 1.668.95 2.28.204l.023-.03.532-.653.527-.657.522-.66.077-.1c.77-1.002-.197-2.367-1.455-2.045-.295.08-.542.24-.728.478l-.067.087-.513.648-.517.645-.52.64-.027.03zm-6.99 7.908c-.84.89-.09 2.31 1.154 2.18.335-.037.63-.177.86-.42l.462-.48.577-.616.574-.617.225-.244c.27-.3.377-.68.318-1.073-.193-1.093-1.606-1.48-2.368-.652l-.217.23-.564.607-.568.605-.46.485zm-7.593 7.367c-.91.823-.274 2.298.975 2.262.334-.01.65-.135.893-.355l.353-.315.627-.57.622-.573.387-.36c.3-.285.446-.676.402-1.08-.12-1.082-1.5-1.557-2.306-.795l-.382.35-.61.562-.613.56-.354.318zm-8.153 6.79c-1.04.82-.372 2.425.97 2.326.278-.023.517-.117.74-.284l.216-.166.674-.523.668-.526.574-.456c.98-.805.384-2.33-.91-2.313-.317.01-.594.112-.84.305l-.56.447-.654.517-.657.51-.216.168zm-8.667 6.178c-.417.272-.637.744-.585 1.224.12.98 1.263 1.49 2.118.935l.046-.028.71-.472.71-.478.706-.48.086-.062c1-.697.597-2.218-.635-2.362-.35-.037-.667.042-.956.238l-.076.052-.69.472-.697.467-.7.462-.043.027zm-9.138 5.524c-.506.287-.77.847-.647 1.402.193.878 1.217 1.312 2.02.865l.57-.318.75-.422.744-.425.303-.178c1.04-.604.785-2.13-.4-2.393-.347-.08-.71-.022-1.015.157l-.29.166-.732.418-.732.415-.572.317zm-9.543 4.833c-1.147.534-.974 2.153.265 2.452.312.07.626.042.915-.092l.327-.15.784-.367.786-.37.578-.278c1.068-.518.966-2.02-.166-2.4-.356-.116-.724-.096-1.062.067l-.562.27-.766.362-.77.36-.325.15zm-9.902 4.114c-.41.155-.703.47-.822.876-.283 1.04.76 1.946 1.81 1.564l.818-.305.815-.314.812-.315.115-.047c1.088-.442 1.127-1.887.065-2.39-.358-.16-.744-.17-1.11-.028l-.102.04-.797.31-.8.306-.803.3zm-10.21 3.368c-1.17.35-1.308 1.887-.213 2.424.323.152.664.18 1.01.083l.412-.12.845-.25.842-.256.525-.162c1.178-.366 1.27-1.95.137-2.44-.31-.138-.654-.156-.98-.054l-.51.157-.826.25-.827.244-.414.12zm-10.443 2.604c-1.165.26-1.454 1.708-.466 2.362.324.203.68.272 1.06.194l.752-.16.866-.195.87-.194.19-.047c.71-.166 1.158-.842 1.01-1.53-.152-.728-.907-1.19-1.656-1.013l-.173.04-.852.19-.855.19-.755.16zm-10.618 1.822c-.564.078-1.023.483-1.142 1.022-.196.888.584 1.7 1.52 1.573l.102-.015.89-.123.892-.13.83-.124c1.175-.174 1.562-1.627.62-2.323-.295-.222-.683-.312-1.048-.257l-.816.12-.876.126-.876.12-.1.015zm-10.735 1.037c-1.338.09-1.757 1.774-.603 2.436.24.135.496.193.774.177l.177-.01.916-.058.914-.065.74-.056c1.27-.105 1.713-1.673.666-2.38-.262-.174-.568-.256-.89-.23l-.72.055-.896.062-.897.058-.175.01zm-8.073 2.88c.918-.012 1.552-.843 1.294-1.69-.18-.558-.706-.928-1.312-.928l-.787.003-.91-.003-.912-.01-.885-.012c-1.223-.016-1.846 1.422-.97 2.246.258.238.58.37.935.374l.886.013.927.01H262.85zm105.833-226.794c.702.898 2.175.588 2.422-.512.084-.38 0-.744-.24-1.055l-.472-.614-.52-.665-.52-.66-.14-.176c-.74-.908-2.238-.532-2.422.614-.05.358.043.7.273.99l.128.16.514.647.51.65.474.613zm26.044 136.226c-.375 1.104.836 2.1 1.913 1.573.325-.158.565-.43.68-.76l.26-.767.27-.803.262-.8.048-.15c.347-1.11-.85-2.073-1.925-1.548-.333.17-.566.435-.68.78l-.037.134-.26.787-.263.783-.263.767zm134.06-34.556c1.173.095 1.91-1.173 1.21-2.09-.24-.305-.568-.48-.965-.518l-.847-.076-.91-.074-.91-.07-.072-.005c-1.21-.083-1.92 1.296-1.117 2.165.24.262.562.417.927.443l.058.004.896.067.89.074.848.075zm10.687 1.372c1.254.206 2.094-1.217 1.264-2.145-.218-.23-.487-.383-.806-.435l-.084-.015-.888-.148-.89-.14-.853-.13c-1.132-.168-1.964 1.02-1.377 1.967.212.338.56.562.965.623l.837.126.87.135.873.142.083.012zm10.556 2.16c1.213.285 2.156-1.008 1.456-2.01-.2-.272-.46-.447-.794-.53l-.34-.085-.865-.203-.866-.198-.6-.135c-1.192-.266-2.118 1.01-1.444 1.996.2.284.483.477.83.555l.585.132.85.196.847.2.343.084zm10.352 2.932c1.144.355 2.166-.76 1.656-1.81-.168-.323-.438-.554-.8-.675l-.685-.223-.838-.26-.84-.258-.25-.078c-.53-.157-1.11.007-1.46.424-.605.72-.27 1.804.652 2.077l.238.07.824.255.82.26.687.22zM401.876 485.87c-.703-.898-2.176-.588-2.422.513-.08.38.002.743.24 1.054l.476.615.52.663.522.657.138.17c.74.907 2.24.53 2.424-.616.05-.36-.042-.7-.272-.99l-.128-.16-.513-.648-.51-.65-.478-.612zm-6.074-8.568c-.295-.448-.847-.685-1.39-.588-.95.166-1.43 1.202-.912 1.99l.298.452.465.704.47.698.25.368c.597.87 1.966.76 2.392-.203.176-.413.137-.856-.116-1.23l-.242-.357-.462-.685-.456-.687-.298-.455zm-5.378-8.988c-.237-.437-.725-.714-1.238-.698-1.01.027-1.64 1.058-1.17 1.92l.132.243.408.736.407.735.35.612c.59 1.008 2.126.86 2.492-.245.108-.347.073-.7-.108-1.017l-.34-.6-.405-.72-.4-.724-.133-.24zm-4.647-9.365c-.474-1.023-1.96-1.052-2.474-.048-.173.356-.183.734-.022 1.096l.328.725.347.768.356.767.078.158c.533 1.112 2.227.973 2.555-.21.077-.302.057-.6-.08-.883l-.067-.143-.35-.753-.347-.754-.328-.722zm-3.88-9.674c-.402-1.127-2.053-1.184-2.54-.09-.134.3-.143.637-.035.945l.138.387.29.798.294.796.193.513c.29.746 1.163 1.073 1.898.72.616-.306.888-.99.655-1.616l-.187-.495-.29-.782-.284-.786-.137-.384zm-3.094-9.937c-.305-1.125-1.89-1.332-2.494-.325-.183.302-.234.65-.14.99l.21.757.228.823.235.824.042.15c.356 1.155 1.985 1.29 2.538.21.145-.297.174-.603.084-.927l-.038-.13-.232-.806-.225-.81-.205-.754zm-2.29-10.13c-.185-.97-1.35-1.404-2.168-.81-.407.31-.6.78-.51 1.27l.035.198.16.85.167.847.143.703c.102.466.452.85.924.994.99.3 1.954-.53 1.752-1.503l-.14-.688-.162-.833-.157-.834-.04-.202zm-1.47-10.277c-.052-.506-.42-.95-.924-1.108-.94-.302-1.884.43-1.788 1.374l.035.34.096.87.104.87.067.545c.053.404.28.744.638.96.986.564 2.195-.18 2.066-1.273l-.065-.53-.098-.852-.094-.854-.034-.342zm-.656-10.352c-.035-1.223-1.644-1.735-2.433-.772-.195.243-.3.53-.29.84l.01.34.025.887.03.885.024.528c.05 1.164 1.56 1.687 2.37.82.243-.26.366-.587.35-.936l-.018-.512-.03-.87-.026-.872-.007-.337zm.16-10.37c.024-.556-.297-1.05-.828-1.272-.877-.352-1.84.23-1.894 1.138l-.013.24-.043.883-.04.885-.018.63c-.024.85.778 1.498 1.644 1.322.61-.124 1.062-.638 1.078-1.24l.023-.618.04-.87.04-.866.016-.238zm.974-10.328c.07-.524-.19-1.026-.66-1.296-.843-.474-1.92.033-2.042.964l-.04.285-.11.864-.106.866-.07.608c-.126 1.245 1.43 1.943 2.346 1.044.21-.215.333-.47.367-.762l.068-.593.106-.85.106-.848.04-.284zm1.793-10.23c.236-1.132-1.042-1.98-2.063-1.368-.313.197-.53.488-.605.842l-.1.466-.177.842-.172.842-.086.44c-.1.517.132 1.03.583 1.326.816.518 1.916.074 2.096-.85l.082-.424.173-.83.173-.827.1-.464zm2.607-10.067c.358-1.25-1.163-2.188-2.2-1.347-.203.176-.338.38-.415.633l-.224.747-.24.82-.233.823-.042.157c-.323 1.188 1.082 2.112 2.117 1.392.255-.18.436-.432.516-.726l.04-.14.23-.808.235-.805.22-.744zm7.588-19.4c.507-1.054-.576-2.177-1.71-1.773-.34.126-.612.37-.764.685l-.353.73-.36.766-.357.766-.067.145c-.477 1.064.597 2.153 1.73 1.748.35-.13.613-.37.766-.7l.064-.13.35-.748.357-.75.35-.732zm4.935-9.218c.578-.984-.35-2.173-1.497-1.915-.377.083-.69.314-.882.638l-.26.44-.42.73-.422.732-.23.41c-.268.493-.198 1.072.184 1.49.635.678 1.768.55 2.22-.254l.22-.397.41-.72.413-.716.26-.442zm5.654-8.83c.31-.45.308-1.028-.014-1.474-.558-.758-1.71-.747-2.252.022l-.148.212-.477.694-.474.7-.406.608c-.318.484-.28 1.092.096 1.536.594.69 1.695.625 2.203-.123l.398-.594.463-.683.472-.68.147-.214zm6.34-8.39c.333-.406.385-.955.138-1.415-.46-.84-1.668-.95-2.28-.203l-.024.03-.53.652-.527.657-.523.66-.077.097c-.77 1.003.195 2.367 1.453 2.045.296-.08.542-.24.728-.477l.068-.086.513-.648.517-.645.52-.64.025-.03zm6.992-7.906c.84-.89.09-2.31-1.154-2.183-.337.04-.633.18-.862.422l-.462.486-.577.614-.575.618-.224.244c-.274.302-.383.68-.32 1.074.192 1.094 1.603 1.482 2.367.653l.214-.234.563-.606.568-.604.462-.485zm15.745-14.16c1.04-.816.37-2.422-.97-2.324-.286.024-.52.118-.742.285l-.22.168-.67.522-.668.525-.572.458c-.982.805-.385 2.332.907 2.313.317-.01.594-.11.837-.303l.56-.454.656-.515.658-.513.22-.166zm8.666-6.175c.418-.272.637-.744.586-1.223-.126-.983-1.268-1.495-2.124-.937l-.04.03-.713.47-.71.476-.706.48-.088.06c-1.002.7-.597 2.22.635 2.364.35.037.67-.04.958-.238l.074-.052.693-.47.693-.466.7-.463.048-.03zm9.138-5.525c.507-.287.77-.847.647-1.4-.192-.875-1.216-1.31-2.02-.862l-.57.317-.748.422-.745.425-.305.178c-1.04.606-.786 2.13.4 2.395.347.077.713.02 1.02-.158l.29-.166.73-.418.733-.417.572-.32zm9.545-4.832c1.145-.533.972-2.153-.267-2.452-.313-.07-.625-.042-.914.093l-.327.15-.784.36-.78.37-.576.278c-1.072.523-.968 2.026.163 2.406.356.115.725.094 1.063-.068l.562-.268.766-.366.77-.36.325-.15zm9.9-4.114c.41-.155.703-.47.823-.877.287-1.04-.76-1.946-1.807-1.563l-.82.305-.818.312-.812.314-.12.046c-1.085.445-1.126 1.89-.063 2.39.36.16.745.173 1.11.03l.105-.042.8-.31.798-.305.8-.3zm10.207-3.37c1.175-.347 1.31-1.887.216-2.422-.327-.152-.664-.18-1.01-.083l-.415.12-.846.25-.84.253-.528.16c-1.18.364-1.27 1.946-.138 2.435.31.135.654.153.982.053l.506-.157.828-.25.828-.245.412-.118zm10.448-2.602c1.165-.26 1.45-1.707.465-2.362-.32-.204-.676-.27-1.06-.195l-.75.16-.87.192-.87.194-.187.048c-.713.166-1.158.842-1.01 1.532.15.726.907 1.188 1.655 1.01l.174-.036.852-.19.853-.185.753-.163zm10.616-1.823c.565-.078 1.024-.482 1.142-1.022.197-.888-.583-1.698-1.52-1.572l-.102.013-.895.123-.892.13-.83.123c-1.176.178-1.567 1.632-.625 2.33.293.22.68.313 1.046.258l.814-.12.876-.126.876-.12.102-.012zm10.737-1.037c1.34-.09 1.757-1.775.602-2.436-.24-.135-.496-.193-.775-.176l-.178.01-.915.058-.913.065-.738.055c-1.267.102-1.712 1.672-.664 2.38.263.173.57.255.888.23l.72-.056.9-.062.9-.057.177-.01zm8.072-2.88c-.918.01-1.552.843-1.294 1.69.18.56.705.928 1.312.928l.786-.002h.912l.91.01.886.008c1.223.018 1.845-1.42.968-2.245-.26-.236-.577-.367-.94-.372l-.885-.012-.927-.01H514.498zm-105.87 226.676c-.34-.42-.912-.602-1.443-.457-.93.256-1.3 1.333-.706 2.065l.343.426.53.65.538.652.286.342c.685.81 2.034.565 2.36-.432.134-.426.05-.864-.24-1.214l-.277-.328-.53-.64-.523-.64-.342-.427zM555.06 356.635c-1.213.253-1.466 1.813-.39 2.415.296.163.637.213.97.145l.278-.057.872-.186.87-.19.662-.148c.586-.14 1-.607 1.046-1.185.054-.89-.774-1.566-1.675-1.365l-.644.146-.854.192-.855.182-.28.055zm-10.628 1.795c-.565.078-1.024.484-1.145 1.022-.194.888.587 1.7 1.52 1.573l.5-.065.894-.124.89-.13.438-.064c1.175-.178 1.562-1.632.62-2.33-.293-.22-.68-.31-1.047-.255l-.423.063-.876.125-.875.12-.5.066zm-10.738 1.01c-1.338.09-1.756 1.773-.602 2.434.24.135.496.192.775.176l.573-.032.915-.058.912-.065.342-.025c1.267-.102 1.71-1.672.664-2.38-.26-.173-.567-.255-.887-.23l-.324.026-.897.062-.897.058-.576.032zm-10.79.22c-1.22-.015-1.845 1.422-.968 2.247.258.237.577.368.934.373l.488.007.928.01H525.617c1.088-.015 1.723-1.16 1.126-2.035-.26-.37-.68-.583-1.145-.583h-.388l-.913-.003-.912-.01-.487-.006zm-10.773-.557c-1.176-.095-1.914 1.174-1.214 2.09.24.305.568.48.966.518l.453.04.908.075.91.065.47.033c1.208.084 1.916-1.295 1.115-2.17-.244-.26-.564-.417-.93-.442l-.45-.032-.896-.07-.892-.073-.452-.037zm-10.704-1.344c-1.02-.156-1.835.767-1.51 1.71.162.46.57.79 1.067.872l.57.093.89.14.89.132.366.052c.548.073 1.067-.162 1.356-.61.51-.81.01-1.835-.963-1.98l-.346-.05-.876-.133-.867-.13-.57-.094zm-10.56-2.13c-1.18-.28-2.125.97-1.48 1.964.19.293.486.496.833.578l.81.195.867.203.872.195.127.027c1.155.24 2.056-.925 1.485-1.915-.198-.333-.5-.55-.89-.638l-.113-.024-.852-.192-.85-.197-.813-.194zm-48.57-21.857c-1.09-.743-2.52.286-2.073 1.515.096.247.26.453.48.61l.634.437.703.48.705.482.2.13c.448.292 1 .31 1.47.05.854-.497.895-1.65.08-2.204l-.187-.126-.694-.47-.688-.473-.63-.438zm-8.47-6.422c-.405-.33-.973-.4-1.45-.188-.905.405-1.07 1.567-.308 2.188l.423.35.662.532.664.53.358.282c.92.73 2.31.037 2.218-1.11-.034-.366-.202-.682-.497-.915l-.346-.273-.652-.52-.648-.522-.427-.35zm-7.937-7.02c-.926-.87-2.466-.138-2.312 1.094.04.292.18.56.395.768l.253.24.616.58.618.584.482.444c.927.838 2.43.12 2.293-1.097-.038-.31-.178-.58-.413-.797l-.472-.435-.607-.564-.603-.57-.25-.24zm-7.363-7.583c-.25-.276-.594-.435-.972-.45-1.2-.038-1.863 1.286-1.088 2.164l2.06-1.718zm-6.744-8.105c-.702-.898-2.175-.588-2.424.513-.08.38 0 .75.24 1.06l.476.614.52.662.52.66.14.17c.74.91 2.236.532 2.42-.614.05-.36-.042-.703-.273-.99l-.127-.16-.513-.648-.51-.65-.472-.614zm-11.453-17.555c-.24-.437-.727-.713-1.24-.698-1.01.027-1.64 1.054-1.17 1.914l.132.243.408.737.412.736.35.61c.59 1.01 2.128.86 2.492-.244.108-.346.074-.698-.108-1.017l-.34-.6-.404-.72-.4-.724-.133-.243zm-4.648-9.367c-.473-1.02-1.96-1.05-2.474-.046-.173.356-.183.735-.022 1.097l.328.725.35.768.357.768.076.158c.533 1.11 2.228.972 2.555-.213.078-.3.057-.598-.08-.88l-.066-.145-.35-.75-.347-.754-.328-.725zm-3.88-9.67c-.4-1.127-2.052-1.186-2.538-.09-.135.3-.145.637-.036.945l.137.385.288.798.296.8.19.512c.29.742 1.163 1.07 1.9.716.616-.305.892-.99.66-1.616l-.188-.494-.288-.782-.28-.783-.14-.386zm-3.095-9.938c-.304-1.125-1.89-1.33-2.493-.324-.183.3-.233.65-.14.99l.204.757.23.823.237.824.044.15c.353 1.156 1.982 1.292 2.536.21.144-.3.176-.607.084-.926l-.04-.134-.23-.81-.223-.81-.202-.756zm-2.287-10.13c-.188-.97-1.352-1.403-2.17-.81-.407.31-.598.778-.51 1.27l.035.198.16.85.164.847.143.703c.097.466.45.85.925.993.98.3 1.948-.527 1.746-1.502l-.14-.687-.164-.827-.157-.833-.037-.197zm-1.473-10.275c-.052-.507-.42-.95-.924-1.11-.94-.3-1.883.43-1.787 1.374l.035.344.095.87.1.867.068.547c.053.405.28.744.64.96.985.564 2.194-.18 2.065-1.272l-.066-.532-.098-.85-.093-.854-.033-.343zm-.655-10.354c-.034-1.223-1.644-1.736-2.433-.772-.195.24-.3.528-.29.836l.008.34.026.888.03.886.024.53c.05 1.163 1.56 1.686 2.37.82.242-.26.367-.59.35-.94l-.02-.51-.03-.87-.025-.873-.007-.338zm.16-10.37c.023-.557-.297-1.05-.83-1.272-.875-.35-1.837.232-1.89 1.144l-.017.24-.044.883-.037.883-.023.635c-.025.85.776 1.497 1.643 1.323.613-.124 1.064-.64 1.078-1.24l.026-.62.038-.866.042-.867.013-.237zm.974-10.33c.067-.522-.193-1.024-.66-1.293-.844-.476-1.92.03-2.044.962l-.038.287-.112.863-.106.866-.07.608c-.125 1.244 1.425 1.943 2.345 1.044.21-.215.333-.47.367-.763l.067-.593.106-.85.11-.85.038-.284zm1.792-10.228c.236-1.132-1.044-1.98-2.065-1.368-.314.194-.53.483-.604.842l-.103.462-.177.842-.173.845-.087.438c-.1.518.13 1.033.583 1.328.815.518 1.915.074 2.096-.852l.082-.422.167-.833.172-.828.102-.463zm2.606-10.067c.356-1.25-1.165-2.188-2.203-1.347-.206.176-.34.38-.418.64l-.224.744-.24.82-.233.824-.045.157c-.322 1.188 1.082 2.11 2.118 1.392.255-.18.436-.43.516-.724l.04-.138.23-.808.234-.805.225-.745zm7.587-19.4c.508-1.055-.576-2.177-1.71-1.773-.34.12-.612.364-.764.68l-.356.732-.36.763-.36.767-.066.144c-.477 1.065.598 2.15 1.73 1.75.35-.13.616-.37.767-.704l.058-.13.352-.75.356-.748.35-.73zm-4.72 9.808c.35-1.105-.836-2.07-1.916-1.558-.33.167-.578.435-.686.782l-.148.454-.265.82-.257.827-.132.43c-.154.505.024 1.04.442 1.375.76.592 1.902.256 2.176-.648l.125-.413.25-.81.258-.808.148-.45zM480.673 352.8c-1.14-.403-2.22.742-1.695 1.796.157.31.427.544.763.663l.784.276.838.29.84.286.126.04c1.12.36 2.148-.703 1.696-1.748-.162-.352-.436-.602-.814-.728l-.11-.032-.824-.28-.822-.284-.785-.278zm-10.953-4.28c-1.106-.48-2.27.59-1.82 1.678.132.32.384.572.71.712l.76.33.817.346.818.342.12.05c1.092.432 2.195-.556 1.82-1.63-.135-.362-.39-.63-.757-.782l-.106-.047-.802-.334-.8-.342-.764-.33zM229.31 245.645c-.92.013-1.553.844-1.295 1.692.18.558.705.927 1.312.927l.786-.002.912.003.91.01.886.01c1.224.013 1.846-1.424.97-2.247-.258-.24-.578-.372-.934-.376l-.886-.014-.928-.01h-.93l-.803.003zm74.41 254.36h-1.172c.39-.177.818-.158 1.172 0zM221.238 248.53c1.338-.088 1.757-1.772.602-2.434-.24-.134-.497-.19-.776-.176l-.177.01-.914.058-.913.064-.738.056c-1.27.102-1.714 1.673-.666 2.38.263.174.57.256.89.23l.72-.055.895-.062.9-.057.18-.01zm88.013 247.354c-.42.273-.638.744-.587 1.224.125.983 1.268 1.494 2.124.937l.374-.245.713-.472.712-.474.462-.315c.925-.63.682-2.027-.41-2.327-.394-.113-.83-.037-1.166.19l-.45.306-.694.466-.698.463-.373.242zm8.683-6.15c-1.038.816-.37 2.42.97 2.322.28-.025.518-.12.74-.287l.527-.408.67-.518.668-.527.268-.213c.98-.805.385-2.334-.907-2.315-.32.008-.596.11-.84.304l-.256.204-.654.515-.663.514-.527.402zm8.18-6.776c-.904.82-.306 2.27.936 2.27.347-.007.66-.125.918-.353l.025-.018.63-.565.624-.57.62-.575.104-.096c.303-.28.448-.675.404-1.076-.12-1.083-1.5-1.555-2.306-.796l-.09.087-.612.563-.614.56-.616.555-.02.02zm7.612-7.346c-.898.956.01 2.45 1.318 2.158.27-.065.5-.19.69-.388l.157-.162.58-.613.578-.613.532-.572c.823-.892.07-2.298-1.165-2.17-.337.035-.648.19-.872.434l-.52.558-.568.602-.57.6-.157.16zm7.013-7.884c-.332.406-.383.955-.136 1.414.46.84 1.67.95 2.28.204l.27-.33.532-.654.53-.657.356-.447c.722-.923-.058-2.23-1.26-2.09-.368.048-.69.22-.913.508l-.347.435-.516.646-.52.642-.273.33zm6.365-8.373c-.31.453-.305 1.03.015 1.475.56.758 1.71.747 2.252-.022l.372-.53.476-.693.476-.694.192-.286c.318-.483.28-1.09-.094-1.535-.592-.69-1.694-.627-2.2.12l-.183.274-.465.684-.468.68-.37.53zm18.29-37.406c-.342 1.114.915 2.078 1.972 1.507.314-.167.544-.447.645-.777l.092-.303.245-.817.24-.822.17-.6c.15-.545-.057-1.093-.533-1.42-.78-.518-1.844-.145-2.094.73l-.167.588-.234.803-.242.804-.092.302zm2.636-10.062c-.194.92.62 1.726 1.583 1.558.546-.106.963-.49 1.08-1.018v-.005l.184-.842.177-.844.17-.845.013-.064c.1-.518-.13-1.033-.582-1.328-.816-.518-1.916-.076-2.096.85l-.01.045-.17.833-.172.827-.178.827v.006zm1.82-10.215c-.07.522.19 1.025.66 1.293.845.477 1.92-.03 2.044-.962l.09-.664.11-.866.106-.866.026-.227c.125-1.242-1.424-1.94-2.343-1.042-.21.216-.333.47-.367.763l-.025.214-.104.85-.108.85-.09.663zm1.005-10.327c-.024.557.297 1.05.828 1.27.876.353 1.84-.23 1.893-1.137l.034-.624.045-.882.04-.884.01-.252c.023-.85-.78-1.496-1.647-1.323-.612.123-1.062.64-1.078 1.24l-.01.236-.04.87-.04.868-.036.618zm.188-10.37c.035 1.224 1.646 1.736 2.435.773.193-.243.297-.532.29-.84l-.018-.722-.027-.888-.034-.886-.008-.148c-.052-1.162-1.562-1.686-2.372-.82-.24.26-.366.59-.35.94l.006.128.03.87.027.872.014.72zm-.624-10.354c.05.506.416.95.923 1.108.938.3 1.882-.43 1.786-1.374l-.075-.724-.097-.87-.1-.867-.018-.166c-.054-.407-.28-.746-.64-.962-.986-.564-2.195.18-2.066 1.273l.02.153.096.85.096.855.074.724zm-1.445-10.28c.11.57.573.992 1.17 1.07.917.103 1.666-.658 1.512-1.53l-.106-.574-.16-.85-.165-.85-.068-.326c-.096-.466-.45-.85-.924-.993-.984-.302-1.95.526-1.747 1.5l.062.312.163.83.158.834.103.576zm-2.26-10.143c.314 1.146 1.92 1.34 2.513.304.168-.296.218-.63.128-.957l-.08-.31-.226-.826-.23-.822-.17-.597c-.14-.488-.548-.838-1.062-.936-.992-.173-1.83.704-1.562 1.638l.165.58.225.808.217.81.08.307zm-3.06-9.94c.4 1.128 2.052 1.186 2.538.09.135-.3.145-.636.036-.944l-.267-.747-.29-.8-.293-.796-.058-.15c-.286-.743-1.16-1.07-1.896-.717-.617.305-.896.99-.66 1.616l.05.135.29.783.284.785.265.747zm-3.86-9.69c.248.55.854.873 1.47.776.87-.137 1.38-1.027 1.03-1.81l-.14-.315-.348-.767-.352-.768-.266-.568c-.544-1.13-2.25-.98-2.567.235-.067.29-.042.57.084.842l.26.553.346.755.34.755.14.315zm-4.614-9.372c.235.435.723.713 1.236.698 1.01-.03 1.64-1.06 1.17-1.92l-.316-.582-.408-.738-.414-.737-.156-.278c-.59-1.006-2.128-.858-2.494.246-.106.347-.073.7.11 1.018l.147.262.405.722.402.722.318.583zm-5.358-9.01c.683 1.04 2.33.698 2.507-.528.038-.296-.03-.602-.198-.854l-.053-.082-.46-.703-.467-.702-.472-.7-.03-.047c-.6-.868-1.968-.753-2.394.21-.176.41-.137.853.115 1.23l.027.034.462.685.455.69.452.69.053.083zm-6.05-8.583c.307.408.817.595 1.332.513.995-.176 1.456-1.286.857-2.068l-.2-.262-.514-.666-.52-.662-.413-.522c-.747-.937-2.305-.516-2.436.664-.038.333.065.662.275.93l.404.508.51.65.504.655.2.26zm-6.717-8.114c.25.276.595.434.973.45 1.2.038 1.863-1.29 1.087-2.164l-.36-.402-.568-.624-.568-.62-.316-.34c-.383-.407-.973-.542-1.506-.347-.892.342-1.16 1.406-.524 2.098l.305.328.557.61.556.61.36.405zm-7.337-7.602c.924.87 2.465.134 2.31-1.098-.038-.294-.18-.56-.394-.768l-.536-.51-.614-.58-.618-.576-.192-.18c-.924-.84-2.43-.12-2.29 1.095.037.312.175.584.41.8l.183.17.606.567.605.57.534.51zm-7.922-7.05c.943.772 2.387.03 2.235-1.157-.047-.33-.2-.617-.465-.832l-.08-.064-.655-.537-.66-.535-.665-.53-.05-.038c-.924-.726-2.31-.032-2.22 1.115.035.363.203.68.498.912l.038.03.652.52.647.524.642.528.077.065zm-8.455-6.444c1.024.713 2.417-.177 2.128-1.36-.08-.31-.252-.564-.52-.755l-.255-.186-.7-.487-.704-.483-.575-.388c-.295-.2-.67-.278-1.025-.216-1.19.21-1.526 1.688-.54 2.36l.56.38.69.47.685.48.257.18zm-8.938-5.806c.483.283 1.07.256 1.524-.06.775-.565.725-1.668-.096-2.168l-.476-.283-.74-.435-.74-.43-.393-.222c-.416-.236-.918-.24-1.343-.023-.93.484-.953 1.762-.044 2.276l.377.217.728.424.725.428.475.28zm-9.374-5.13c1.136.555 2.37-.556 1.87-1.684-.125-.283-.346-.504-.63-.646l-.747-.37-.775-.38-.78-.376-.15-.07c-.442-.205-.952-.172-1.36.093-.864.558-.772 1.823.164 2.26l.133.064.766.365.76.372.75.37zm-9.764-4.426c1.107.45 2.24-.61 1.8-1.684-.144-.336-.39-.583-.737-.727l-.29-.117-.805-.323-.808-.322-.636-.247c-.48-.182-1-.097-1.395.223-.77.652-.568 1.833.38 2.207l.62.24.793.315.792.322.29.116zm-10.08-3.69c1.147.355 2.167-.76 1.657-1.81-.165-.33-.436-.56-.798-.675l-.683-.222-.84-.267-.84-.26-.25-.073c-.53-.157-1.11.006-1.46.423-.607.718-.27 1.804.65 2.076l.233.07.823.252.82.26.686.22zm-10.35-2.933c1.213.286 2.156-1.01 1.454-2.01-.2-.273-.458-.447-.793-.532l-.34-.083-.863-.207-.866-.2-.6-.133c-1.194-.266-2.12 1.006-1.445 1.996.198.285.483.48.83.556l.584.132.85.194.847.202.343.083zm-10.556-2.16c1.256.208 2.096-1.215 1.266-2.143-.212-.232-.48-.383-.8-.435l-.084-.015-.887-.145-.89-.14-.855-.124c-1.13-.17-1.963 1.016-1.376 1.964.212.34.56.565.964.624l.838.128.872.138.87.14.085.016zm-10.685-1.37c1.174.095 1.91-1.175 1.213-2.09-.247-.303-.575-.482-.973-.52l-.847-.073-.91-.074-.91-.07-.074-.007c-1.21-.082-1.92 1.295-1.117 2.17.244.262.563.418.928.443l.055.005.895.068.894.074.847.074z" fill="#6fadd9" filter="url(#b)"/><path d="M388.988 194.07c-.918.013-1.553.844-1.295 1.69.18.56.706.928 1.313.928l.786-.003h.912l.91.01.886.008c1.222.02 1.845-1.42.968-2.244-.257-.238-.577-.37-.933-.374l-.886-.012-.93-.01H388.99zM283.996 424.847v-1.408l.89-.778c.713.757.294 1.965-.746 2.165-.048.01-.097.017-.145.02zm0-3.145l.328.354.563.607-.89-.966v.01zm0-179.077v-3.892c.214-.185.475-.294.766-.33 1.243-.125 1.992 1.293 1.155 2.185l-.464.485-.568.603-.562.606-.22.232c-.035.037-.072.074-.11.11zm96.92-45.675c1.338-.09 1.756-1.774.602-2.436-.24-.134-.497-.192-.775-.176l-.178.01-.914.057-.912.065-.737.056c-1.267.102-1.71 1.672-.663 2.38.262.173.567.255.888.23l.722-.057.895-.063.897-.057.173-.01zm-10.737 1.036c.56-.077 1.02-.483 1.137-1.02.197-.89-.583-1.694-1.52-1.568l-.103.012-.895.123-.893.13-.83.123c-1.174.178-1.56 1.632-.617 2.33.29.22.68.312 1.045.256l.815-.12.876-.126.876-.12.102-.015zm-10.618 1.823c1.164-.262 1.453-1.71.462-2.364-.326-.203-.68-.268-1.062-.19l-.75.16-.873.19-.867.197-.19.044c-.713.166-1.16.842-1.012 1.533.153.726.91 1.188 1.657 1.01l.173-.04.852-.192.855-.187.755-.16zm-10.445 2.602c1.17-.348 1.31-1.888.212-2.422-.326-.153-.665-.18-1.012-.084l-.414.12-.843.25-.84.254-.526.162c-1.18.36-1.27 1.945-.14 2.433.313.135.656.154.983.053l.51-.157.828-.25.828-.244.414-.12zm-10.213 3.37c.41-.156.702-.47.823-.877.287-1.04-.76-1.946-1.808-1.564l-.82.306-.814.313-.81.315-.117.047c-1.087.444-1.127 1.887-.064 2.39.356.16.745.17 1.11.027l.103-.04.796-.307.8-.305.8-.302zm-9.9 4.113c1.145-.533.972-2.153-.268-2.452-.313-.07-.625-.04-.914.093l-.327.15-.785.362-.782.37-.577.277c-1.068.524-.964 2.027.167 2.406.356.118.725.096 1.063-.066l.56-.27.767-.365.77-.36.323-.15zm-9.545 4.832c.507-.287.77-.846.647-1.4-.192-.875-1.216-1.31-2.02-.86l-.57.315-.748.422-.747.426-.304.177c-1.04.607-.788 2.13.398 2.395.347.078.71.02 1.014-.157l.29-.167.73-.42.732-.415.573-.32zm-9.138 5.526c.417-.272.636-.744.585-1.223-.124-.984-1.267-1.496-2.123-.938l-.045.03-.714.472-.708.474-.707.48-.09.06c-1 .698-.596 2.22.636 2.363.35.038.667-.04.956-.237l.077-.052.69-.47.696-.465.7-.463.043-.03zm-8.667 6.175c1.04-.817.37-2.42-.973-2.324-.28.025-.516.118-.738.285l-.218.165-.67.522-.667.526-.574.458c-.982.806-.385 2.332.905 2.314.318-.01.597-.11.84-.306l.56-.446.656-.517.657-.512.217-.165zm-8.154 6.79c.91-.82.275-2.296-.974-2.26-.333.016-.65.14-.89.362l-.354.317-.625.57-.62.574-.39.362c-.3.283-.446.675-.402 1.078.12 1.082 1.5 1.558 2.306.795l.376-.35.61-.562.614-.56.353-.32zm-3.04 195.085c-.923-.87-2.463-.137-2.31 1.096.04.295.18.563.396.767l.253.24.615.583.616.58.484.444c.924.84 2.43.124 2.29-1.095-.037-.312-.176-.584-.41-.8l-.472-.434-.607-.565-.602-.57-.254-.245zm7.94 7.023c-.405-.33-.973-.402-1.453-.19-.904.406-1.066 1.572-.308 2.192l.426.35.66.533.664.53.36.284c.92.726 2.31.032 2.217-1.116-.035-.363-.202-.68-.498-.913l-.348-.274-.65-.517-.647-.524-.426-.35zm8.47 6.42c-1.094-.742-2.522.285-2.075 1.516.096.248.26.453.48.61l.63.437.703.483.705.475.2.134c.45.292 1 .312 1.47.05.857-.495.895-1.65.082-2.2l-.187-.128-.693-.472-.687-.472-.63-.44zm38.804 19.52c-.06.273-.49.665-1.072 1.09.168.33-.735.713-.375.833l.31.1.837.265.84.26.628.19c.53.157 1.112-.01 1.462-.426.604-.718.27-1.806-.653-2.076l-.61-.185-.825-.255-.544.203zm9.763 2.34c-1.18-.278-2.125.97-1.48 1.968.19.292.486.495.834.578l.813.194.867.2.868.193.128.03c1.155.236 2.058-.926 1.487-1.92-.198-.33-.5-.55-.89-.638l-.11-.025-.85-.19-.85-.197-.813-.192zM366 465.734c-1.022-.15-1.837.768-1.515 1.71.164.464.57.794 1.07.877l.567.093.89.14.892.132.366.052c.542.074 1.065-.162 1.357-.61.51-.81.01-1.833-.963-1.98l-.35-.05-.873-.132-.872-.136-.57-.094zm10.7 1.348c-1.173-.096-1.912 1.173-1.21 2.09.242.304.57.48.968.52l.452.04.91.073.91.07.473.033c1.21.084 1.92-1.295 1.117-2.17-.244-.258-.563-.416-.928-.44l-.453-.03-.894-.068-.892-.074-.453-.04zm10.775.558c-1.223-.02-1.846 1.42-.97 2.244.26.237.578.37.934.373l.487.006.928.01h1.335c1.087-.016 1.723-1.16 1.126-2.034-.26-.37-.68-.584-1.143-.584h-.39l-.912-.004-.91-.01-.486-.005zm10.788-.222c-1.338.088-1.755 1.772-.6 2.433.24.135.496.193.774.177l.576-.033.914-.058.913-.065.343-.022c1.268-.103 1.713-1.672.664-2.38-.26-.172-.568-.254-.886-.228l-.326.025-.895.063-.896.06-.576.03zm10.743-1.01c-.566.078-1.025.484-1.144 1.022-.196.888.584 1.7 1.52 1.573l.497-.065.894-.124.893-.13.437-.065c1.174-.18 1.562-1.635.62-2.332-.294-.222-.682-.315-1.05-.26l-.42.066-.876.127-.876.12-.498.066zm10.627-1.794c-1.212.254-1.466 1.814-.39 2.415.295.162.638.212.97.142l.278-.057.874-.185.87-.19.666-.148c.583-.14 1-.607 1.042-1.184.054-.888-.774-1.564-1.675-1.365l-.645.144-.854.186-.853.182-.28.057zm10.448-2.572c-1.174.347-1.31 1.887-.215 2.42.323.153.664.18 1.008.084l.793-.23.845-.25.845-.254.146-.046c1.18-.366 1.272-1.948.14-2.438-.312-.136-.657-.154-.982-.053l-.13.04-.825.25-.828.245-.795.23zM440.3 458.7c-.41.153-.703.47-.822.875-.29 1.042.76 1.947 1.807 1.566l.37-.136.82-.307.812-.312.554-.218c.782-.308 1.085-1.216.638-1.906-.354-.54-1.06-.757-1.672-.517l-.54.21-.798.305-.8.3-.375.14zm9.913-4.087c-1.144.534-.97 2.154.268 2.452.312.07.626.042.914-.093l.684-.314.785-.367.78-.37.223-.105c1.068-.523.967-2.026-.164-2.406-.357-.117-.725-.096-1.064.067l-.206.1-.767.364-.77.36-.684.315zm9.566-4.81c-.37.208-.61.554-.67.96-.136 1.083 1.044 1.842 2.03 1.31l.173-.092.75-.42.745-.42.703-.402c.472-.278.722-.783.65-1.308-.145-.932-1.208-1.42-2.05-.94l-.69.395-.732.412-.736.41-.173.093zm9.148-5.497c-.418.273-.635.744-.585 1.225.124.985 1.265 1.497 2.12.94l.377-.245.712-.472.706-.475.463-.315c.926-.63.68-2.026-.412-2.326-.4-.113-.832-.037-1.17.19l-.452.306-.693.468-.7.464-.37.244zm8.685-6.153c-1.04.818-.374 2.424.968 2.326.28-.025.52-.12.74-.285l.53-.407.67-.52.667-.527.267-.212c.982-.805.386-2.333-.906-2.313-.318.01-.595.11-.84.303l-.255.203-.653.52-.658.51-.528.408zm8.176-6.773c-.903.818-.305 2.267.937 2.267.35-.004.664-.123.92-.352l.02-.018.63-.565.625-.57.62-.573.104-.097c.3-.284.446-.675.402-1.08-.12-1.08-1.5-1.555-2.307-.794l-.09.084-.61.562-.615.56-.616.554-.02.02zm7.615-7.347c-.904.957.01 2.45 1.32 2.16.27-.065.494-.19.683-.387l.158-.162.58-.61.58-.617.528-.57c.823-.893.07-2.3-1.165-2.17-.336.034-.647.188-.873.432l-.518.558-.567.606-.57.6-.154.163zm7.01-7.883c-.334.407-.387.955-.14 1.416.46.84 1.67.95 2.28.203l.27-.332.532-.653.527-.657.353-.448c.725-.925-.058-2.23-1.255-2.09-.37.047-.693.22-.917.508l-.343.435-.517.644-.52.64-.27.33zm6.362-8.374c-.31.45-.306 1.027.015 1.472.558.758 1.71.75 2.252-.02l.37-.53.476-.693.47-.694.194-.286c.317-.484.28-1.092-.094-1.536-.593-.69-1.694-.625-2.2.123l-.184.272-.466.683-.467.683-.37.528zm18.29-37.408c-.34 1.116.916 2.08 1.973 1.508.316-.166.545-.446.645-.777l.093-.302.245-.818.24-.824.174-.6c.146-.543-.06-1.093-.537-1.417-.78-.52-1.844-.146-2.095.73l-.168.587-.236.805-.24.802-.094.303zm2.637-10.057c-.193.917.622 1.725 1.585 1.555.544-.103.962-.49 1.08-1.018v-.003l.183-.842.177-.843.173-.847.014-.065c.1-.518-.13-1.03-.582-1.325-.818-.518-1.918-.074-2.1.85l-.01.048-.164.83-.174.83-.18.822v.006zm1.82-10.214c-.066.518.194 1.022.663 1.292.84.475 1.917-.03 2.04-.963l.09-.666.113-.865.105-.863.03-.23c.126-1.244-1.424-1.943-2.342-1.045-.21.216-.333.47-.367.763l-.024.213-.105.85-.108.848-.092.665zm1.006-10.33c-.025.557.296 1.05.828 1.273.876.35 1.84-.23 1.893-1.14l.035-.62.043-.882.038-.885.01-.254c.024-.85-.778-1.498-1.644-1.324-.612.124-1.063.64-1.08 1.24l-.01.236-.038.87-.04.866-.036.62zm.19-10.37c.036 1.224 1.645 1.736 2.434.774.195-.244.3-.532.29-.84l-.017-.722-.025-.888-.032-.886-.006-.148c-.05-1.164-1.56-1.688-2.37-.82-.242.258-.367.587-.35.936l.006.13.03.87.026.87.016.722zm-.624-10.354c.053.507.42.95.924 1.11.94.3 1.887-.43 1.79-1.375l-.073-.722-.094-.87-.102-.87-.02-.166c-.052-.403-.278-.743-.637-.958-.986-.565-2.194.18-2.066 1.272l.02.148.096.85.096.855.074.725zm-1.444-10.28c.112.572.574.993 1.172 1.07.917.105 1.665-.656 1.51-1.53l-.105-.577-.16-.85-.165-.848-.068-.327c-.096-.468-.447-.85-.924-.995-.982-.3-1.947.527-1.745 1.503l.064.31.163.834.16.833.105.575zm-2.258-10.143c.31 1.145 1.918 1.34 2.512.305.166-.298.216-.63.125-.958l-.08-.31-.223-.826-.23-.823-.17-.597c-.14-.49-.548-.84-1.063-.938-.99-.173-1.828.703-1.56 1.638l.165.58.225.81.22.81.082.31zm-3.063-9.938c.402 1.126 2.053 1.184 2.54.088.134-.302.144-.64.035-.944l-.266-.75-.29-.798-.293-.798-.058-.15c-.287-.74-1.162-1.07-1.898-.715-.616.307-.893.99-.66 1.617l.05.136.29.782.284.783.268.746zm-3.855-9.69c.247.55.853.873 1.468.776.876-.14 1.387-1.027 1.034-1.81l-.138-.312-.347-.77-.354-.77-.268-.567c-.543-1.134-2.25-.982-2.565.233-.07.29-.043.572.084.844l.258.553.346.753.342.756.14.314zm-4.615-9.37c.237.436.725.712 1.24.697 1.01-.028 1.638-1.06 1.17-1.92l-.32-.58-.406-.738-.41-.737-.16-.275c-.592-1.007-2.128-.86-2.494.245-.11.348-.074.7.106 1.018l.15.264.406.722.4.722.32.582zm-5.355-9.01c.683 1.04 2.33.697 2.506-.53.04-.298-.03-.6-.195-.856l-.052-.083-.46-.705-.464-.703-.472-.698-.034-.048c-.598-.87-1.965-.75-2.392.212-.175.412-.136.855.116 1.23l.025.038.46.684.457.688.453.692.052.083zm-6.053-8.583c.31.4.82.59 1.334.508.996-.173 1.457-1.285.858-2.066l-.2-.263-.516-.667-.52-.664-.414-.524c-.747-.935-2.305-.515-2.435.666-.04.333.064.66.274.928l.406.51.51.65.504.653.202.263zm-6.716-8.12c.25.275.594.435.972.45 1.2.036 1.863-1.29 1.088-2.165l-.36-.4-.567-.628-.57-.62-.314-.337c-.384-.407-.973-.542-1.506-.347-.89.342-1.157 1.406-.522 2.096l.306.326.56.61.558.613.356.4zm-7.338-7.602c.922.87 2.464.14 2.31-1.097-.038-.292-.18-.557-.394-.767l-.536-.508-.616-.582-.616-.58-.194-.178c-.927-.84-2.43-.123-2.294 1.094.038.31.178.582.414.797l.183.17.606.564.603.572.535.51zm-7.924-7.05c.945.774 2.387.03 2.237-1.157-.05-.326-.203-.614-.47-.83l-.076-.064-.657-.537-.66-.534-.663-.53-.05-.04c-.924-.725-2.31-.03-2.218 1.116.034.364.202.68.497.914l.038.03.652.518.65.525.644.526.077.065zm-8.452-6.443c1.023.712 2.416-.18 2.127-1.36-.08-.315-.252-.565-.52-.757l-.26-.182-.698-.488-.704-.485-.575-.39c-.295-.2-.67-.28-1.026-.216-1.19.213-1.526 1.69-.54 2.36l.56.38.69.474.686.48.257.182zm-8.94-5.807c.482.283 1.07.256 1.524-.06.775-.566.725-1.67-.097-2.168l-.475-.283-.74-.435-.743-.432-.393-.225c-.417-.236-.92-.24-1.344-.023-.928.484-.95 1.762-.043 2.278l.378.216.73.422.724.426.476.283zm-9.375-5.13c1.136.554 2.374-.556 1.873-1.685-.125-.285-.346-.505-.63-.647l-.746-.37-.776-.38-.78-.375-.146-.072c-.443-.205-.953-.172-1.362.093-.867.56-.775 1.824.163 2.26l.136.065.762.366.76.37.75.374zm-9.76-4.428c1.104.452 2.238-.607 1.8-1.684-.145-.335-.39-.583-.74-.726l-.29-.12-.805-.324-.808-.322-.636-.247c-.48-.183-1-.098-1.396.222-.77.65-.568 1.832.383 2.206l.62.24.793.315.79.32.288.12zm-10.08-3.69c1.144.356 2.166-.758 1.656-1.808-.167-.327-.437-.557-.798-.675l-.686-.222-.838-.264-.84-.258-.25-.074c-.53-.157-1.112.006-1.46.423-.605.72-.27 1.805.652 2.077l.234.07.824.255.82.26.687.22zm-10.352-2.932c1.213.287 2.156-1.01 1.456-2.008-.204-.273-.462-.448-.797-.532l-.34-.083-.867-.204-.866-.2-.6-.136c-1.19-.265-2.117 1.007-1.443 1.996.198.287.483.48.83.555l.588.134.847.195.847.2.34.084zm-10.556-2.16c1.255.208 2.095-1.215 1.26-2.143-.21-.232-.48-.384-.798-.435l-.084-.015-.887-.145-.89-.14-.854-.13c-1.132-.17-1.964 1.02-1.376 1.967.21.337.56.56.964.622l.838.124.872.135.87.14.084.014zm-10.685-1.37c1.174.094 1.91-1.174 1.21-2.09-.244-.305-.572-.48-.97-.518l-.848-.078-.91-.074-.912-.07-.072-.004c-1.21-.084-1.92 1.295-1.117 2.168.244.26.563.417.928.44l.057.007.895.067.893.074.847.075zM283.996 238.73v3.894c-.78.68-2.07.28-2.254-.762-.062-.394.048-.772.32-1.073l.23-.245.573-.617.578-.615.462-.488c.032-.033.064-.065.096-.093zm0 182.96v.01l-.23-.254-.557-.614-.102-.11.89.97zm0 1.75v1.408c-.418.037-.84-.122-1.126-.423l-.01-.01-.574-.62-.57-.62-.566-.626-.1-.112 1.82 1.987 1.125-.985zm-5.073-174.946c.333-.407.385-.956.138-1.415-.458-.84-1.667-.95-2.278-.205l-.024.03-.53.654-.53.656-.518.66-.077.097c-.77 1.003.197 2.367 1.453 2.045.3-.08.545-.24.732-.478l.067-.087.512-.648.517-.644.52-.64.024-.028zm-6.34 8.39c.31-.447.306-1.026-.014-1.47-.565-.76-1.715-.75-2.254.02l-.154.214-.476.694-.475.696-.406.607c-.318.484-.28 1.092.093 1.536.593.69 1.695.627 2.2-.122l.4-.595.466-.683.47-.68.147-.214zm-5.654 8.833c.576-.983-.35-2.172-1.498-1.915-.377.083-.69.314-.882.638l-.26.442-.423.73-.42.732-.23.41c-.27.493-.198 1.07.183 1.49.635.677 1.768.548 2.22-.254l.22-.395.41-.72.415-.716.26-.443zm-4.936 9.22c.507-1.055-.577-2.18-1.71-1.775-.34.122-.612.364-.764.682l-.353.73-.362.762-.356.766-.068.145c-.472 1.065.602 2.154 1.732 1.75.352-.13.616-.37.77-.7l.058-.13.35-.75.356-.75.35-.73zm-7.588 19.398c.363-1.25-1.158-2.19-2.197-1.35-.208.177-.342.38-.42.634l-.222.745-.24.82-.234.823-.045.157c-.32 1.19 1.083 2.112 2.117 1.392.257-.18.438-.43.518-.724l.04-.143.23-.805.234-.805.22-.745zm-2.6 10.067c.235-1.133-1.044-1.983-2.066-1.37-.313.198-.53.488-.606.843l-.098.462-.177.842-.172.848-.087.438c-.1.52.132 1.033.584 1.328.818.518 1.92.074 2.098-.85l.082-.424.168-.83.173-.827.1-.463zm-1.794 10.227c.07-.525-.19-1.028-.66-1.296-.844-.476-1.92.03-2.043.962l-.04.287-.112.865-.105.866-.07.61c-.128 1.245 1.425 1.944 2.34 1.044.21-.216.333-.472.367-.764l.068-.592.105-.85.11-.85.04-.286zm-.973 10.327c.022-.557-.3-1.05-.828-1.273-.876-.354-1.84.23-1.894 1.14l-.013.24-.044.882-.037.885-.023.634c-.024.85.777 1.5 1.644 1.323.61-.123 1.062-.638 1.078-1.24l.023-.617.04-.868.04-.867.013-.237zm-.16 10.37c-.037-1.22-1.647-1.735-2.436-.772-.195.244-.298.532-.29.84l.01.34.025.888.03.89.024.526c.05 1.16 1.56 1.685 2.37.818.242-.26.367-.59.352-.937l-.023-.51-.03-.87-.025-.873-.007-.34zm.654 10.354c-.053-.505-.42-.95-.924-1.107-.94-.3-1.884.43-1.788 1.374l.036.342.093.87.102.87.067.545c.053.402.278.742.64.957.985.565 2.194-.18 2.065-1.272l-.065-.53-.098-.852-.092-.854-.034-.342zm1.473 10.277c-.188-.967-1.353-1.4-2.172-.806-.406.31-.597.778-.51 1.268l.037.2.16.85.168.847.144.703c.097.467.45.85.924.994.984.3 1.95-.527 1.748-1.504l-.14-.687-.163-.832-.156-.833-.038-.197zm2.286 10.13c-.304-1.123-1.888-1.33-2.493-.324-.183.303-.233.653-.14.992l.204.756.23.825.233.823.045.15c.354 1.157 1.983 1.292 2.537.21.144-.3.173-.606.082-.925l-.038-.135-.23-.805-.227-.81-.205-.756zm3.095 9.937c-.404-1.125-2.054-1.184-2.54-.088-.136.3-.146.636-.037.944l.14.386.288.8.295.794.193.512c.288.743 1.162 1.07 1.898.717.616-.306.893-.99.66-1.616l-.19-.495-.288-.782-.285-.783-.137-.386zm3.88 9.674c-.472-1.022-1.96-1.052-2.474-.046-.174.355-.183.732-.023 1.095l.33.725.35.768.357.766.077.157c.533 1.11 2.227.972 2.554-.213.077-.3.058-.598-.08-.88l-.066-.143-.35-.754-.346-.755-.328-.725zm4.646 9.364c-.238-.435-.726-.713-1.24-.697-1.01.028-1.64 1.058-1.17 1.92l.133.243.41.738.413.735.348.612c.59 1.008 2.13.86 2.493-.244.11-.347.075-.7-.107-1.018l-.34-.598-.404-.722-.402-.723-.132-.244zm5.377 8.99c-.294-.45-.846-.685-1.39-.59-.952.167-1.43 1.203-.913 1.99l.298.453.462.703.472.697.25.368c.596.87 1.963.754 2.39-.207.178-.414.14-.857-.114-1.23l-.24-.358-.463-.685-.455-.688-.3-.456zm6.075 8.567c-.702-.898-2.175-.59-2.42.51-.08.38 0 .743.24 1.055l.476.613.52.666.52.662.14.172c.742.907 2.242.532 2.425-.614.05-.36-.043-.704-.273-.99l-.128-.16-.513-.65-.51-.65-.473-.613zm6.747 8.102c-.25-.276-.592-.435-.973-.45-1.2-.036-1.86 1.29-1.088 2.164l2.06-1.714z" fill="#4888b5" filter="url(#c)"/><path d="M482.698 293.872c1.19-2.102.578-4.747-1.56-5.478l-22.72-7.78c-3.706-1.272-19.5-2.41-21.56 1.235-2.06 3.64 7.904 9.784 11.654 10.97l18.326 5.792c6.095 1.926 13.325-.26 15.86-4.745zm-185.812 76.596c-1.19 2.102-.578 4.747 1.56 5.478l22.72 7.78c3.706 1.272 19.5 2.41 21.56-1.236 2.053-3.64-7.91-9.785-11.658-10.97l-18.327-5.796c-6.094-1.927-13.32.26-15.86 4.744zm123.442 51.813c2.188 1.143 4.94.556 5.7-1.498l8.095-21.84c1.32-3.56 2.505-18.74-1.287-20.72-3.788-1.98-10.18 7.595-11.414 11.195l-6.026 17.615c-2.004 5.858.27 12.807 4.938 15.244z" clip-rule="evenodd" fill="#d5b275" fill-rule="evenodd" filter="url(#d)"/><path d="M376.66 362.84l187.746 135.195v1.97h-67.018l-143.68-103.468c14.276-5.077 23.854-18.457 22.95-33.698z" clip-rule="evenodd" fill="#fec900" fill-rule="evenodd" filter="url(#e)"/><path d="M376.66 362.84l187.746 135.195v1.97H530.66l-160.47-115.55c4.507-6.057 6.945-13.576 6.47-21.614z" clip-rule="evenodd" fill="#ffdb59" fill-rule="evenodd" filter="url(#f)"/><path d="M364.145 355.734l10.264 7.39c.025 13.98-8.93 26.086-22.07 30.975l-9.61-6.922c13.324-4.737 22.26-17.22 21.416-31.444z" clip-rule="evenodd" fill="#de6146" fill-rule="evenodd" filter="url(#g)"/><g transform="matrix(.963 0 0 .925 21.093 12.283)" clip-rule="evenodd" fill-rule="evenodd" filter="url(#h)"><path d="M381.17 453.61c-6.142 2.042-11.568-5.937-8.055-11.928-6.008 2.956-11.887-4.115-9.762-10.17-5.986 1.815-11.26-6.373-7-12.056l22.183-29.612c3.59-4.79 10.752-9.54 17.648-11.87 15.33-5.183 32.27 9.674 33.078 20.626.553 7.503.04 14.168-2.812 18.138l-33.09 46.057c-4.588 6.387-15.306-1.64-12.19-9.184z" fill="#f7ecd7"/><path d="M381.4 454.754v-3.152c4.51-5.467 11.755-13.568 11.755-13.568l-11.754 16.72zm0-23.64v-.427c1.134-1.31 1.874-2.152 1.874-2.152s-.746 1.02-1.873 2.578zm-8.865-11.32s-.11.12-.307.34v.06c.196-.258.307-.4.307-.4zm8.866 10.893v.426c-2.49 3.452-6.86 9.553-9.17 13.117v-.314c.177-.76.467-1.512.89-2.234-.296.146-.592.266-.89.364v-.307c2.657-3.45 6.79-8.298 9.175-11.058zm0 20.915v3.152l-.76 1.09c.005-.878.292-1.55.525-2.185-.55.16-1.096.25-1.63.26.53-.68 1.17-1.47 1.87-2.323zm-9.17-31.47c-1.35 1.502-6.85 7.642-9.904 11.597.342-.04.687-.117 1.035-.22-.187.53-.31 1.07-.38 1.61 2.71-4.305 7.938-11.206 9.254-12.93v-.06zm0 21.607v.3c-.1.035-.202.066-.304.095l.308-.4zm0 2.17v.315l-.09.14c.028-.154.058-.304.09-.455z" fill="#d5b275"/><path d="M406.492 360.25l146.772-195.915h11.142v57.59L442.91 384.09c-5.486-14.83-19.947-24.782-36.418-23.84z" fill="#de6146"/><path d="M398.81 373.247l7.99-10.662c15.107-.027 28.19 9.277 33.475 22.926l-7.48 9.99c-5.12-13.84-18.614-23.126-33.984-22.248z" fill="#afcf5d"/></g><path d="M564.406 184.207v33.414L447.45 367.666c-2.602-6.764-7.306-12.43-13.305-16.335l130.26-167.123z" clip-rule="evenodd" fill="#eda08e" fill-rule="evenodd" filter="url(#i)"/><path d="M359.256 242.058c-2.187-1.142-4.938-.555-5.698 1.5l-8.096 21.838c-1.322 3.562-2.505 18.742 1.287 20.722 3.782 1.98 10.174-7.598 11.408-11.2l6.03-17.615c2.003-5.857-.272-12.806-4.937-15.245z" clip-rule="evenodd" fill="#d5b275" fill-rule="evenodd" filter="url(#j)"/><g transform="matrix(.963 0 0 .925 21.093 12.283)" clip-rule="evenodd" fill-rule="evenodd" filter="url(#k)"><path d="M490.02 337.9c2.04 6.142-5.94 11.568-11.93 8.055 2.956 6.008-4.115 11.887-10.17 9.762 1.816 5.986-6.373 11.258-12.056 7l-29.612-22.183c-4.79-3.59-9.54-10.752-11.87-17.648-5.183-15.33 9.674-32.27 20.626-33.078 7.503-.553 14.168-.04 18.138 2.812l46.057 33.09c6.387 4.588-1.64 15.307-9.184 12.19z" fill="#f7ecd7"/><path d="M477.61 346.426v-1.612c1.17.803 2.257 1.532 3.167 2.12-.913-.154-1.82-.47-2.687-.98.197.4.347.8.458 1.196-.3-.23-.615-.472-.938-.724zm0-17.702v-.582l14.644 10.295c-.878-.006-1.552-.293-2.186-.526.166.557.253 1.1.268 1.637-3.325-2.59-9.128-7.646-12.726-10.818zm-10.372 27.32c.31.246.61.483.9.706-.04-.34-.11-.686-.216-1.033.532.186 1.07.31 1.612.38-.706-.446-1.483-.958-2.295-1.51v1.456h-.007zm10.372-27.902v.582c-1.887-1.663-3.168-2.81-3.168-2.81l3.168 2.228zm0 16.672v1.612c-3.34-2.607-7.734-6.355-10.372-8.633v-.328c2.576 1.864 6.856 4.938 10.372 7.35zm-21.41 1.722s6.49 5.88 11.038 9.507v-1.457c-4.877-3.315-11.037-8.05-11.037-8.05zm11.038-9.07v.327c-1.392-1.202-2.295-1.996-2.295-1.996s.897.656 2.295 1.668z" fill="#d5b275"/><path d="M396.657 312.58L201.62 166.463v-2.13h69.62L420.498 276.16c-14.83 5.487-24.78 19.947-23.84 36.42z" fill="#afcf5d"/><path d="M409.656 320.26l-10.662-7.99c-.027-15.107 9.277-28.19 22.926-33.475l9.983 7.48c-13.84 5.12-23.126 18.614-22.247 33.984z" fill="#2d5f82"/></g><g transform="matrix(.963 0 0 .925 21.093 12.283)" clip-rule="evenodd" fill-rule="evenodd" filter="url(#l)"><path d="M351.292 248.337c-1.3-.707-2.793-.8-3.98-.336l8.993 6.74c-.972-2.8-2.713-5.15-5.013-6.4z" fill="#d5b275"/><path d="M490.02 337.9c2.04 6.142-5.94 11.568-11.93 8.055l.015.032-59.708-44.73c4.44-6.44 11.032-11.04 16.61-11.45 7.503-.553 14.168-.04 18.138 2.812l46.057 33.09c6.388 4.583-1.638 15.302-9.183 12.19z" fill="#fffcf7"/><path d="M478.106 345.987l-.496-.372v-.802c1.17.803 2.257 1.532 3.167 2.12-.913-.154-1.82-.47-2.687-.98l.016.034zm-.496-17.263v-.582l14.644 10.295c-.878-.006-1.552-.293-2.186-.526.166.557.253 1.1.268 1.637-3.325-2.59-9.128-7.646-12.726-10.818zm0 16.892l-9.904-7.42c-1.654-1.425-2.762-2.398-2.762-2.398s7.244 5.298 12.666 9.017v.8zm0-17.474v.582c-1.887-1.663-3.168-2.81-3.168-2.81l3.168 2.228z" fill="#e8cea2"/><path d="M235.63 164.335h35.61L420.498 276.16c-7.213 2.668-13.27 7.46-17.483 13.572L235.63 164.335z" fill="#d0e698"/><path d="M405.506 291.598c4.02-5.7 9.688-10.2 16.413-12.802l9.98 7.48c-6.79 2.51-12.478 7.033-16.41 12.804l-9.99-7.482z" fill="#457191"/></g><g transform="matrix(.963 0 0 .925 21.093 12.283)" clip-rule="evenodd" fill-rule="evenodd" filter="url(#m)"><path d="M384.855 237.845c6.143-2.04 11.57 5.938 8.056 11.93 6.01-2.957 11.89 4.114 9.767 10.167 5.986-1.814 11.26 6.374 7 12.057l-22.183 29.61c-3.59 4.79-10.752 9.54-17.65 11.87-15.33 5.18-32.27-9.677-33.076-20.63-.553-7.502-.04-14.167 2.812-18.137l33.09-46.057c4.59-6.387 15.307 1.64 12.19 9.184z" fill="#f7ecd7"/><path d="M393.8 271.323c1.35-1.5 6.847-7.64 9.907-11.596-.34.04-.686.11-1.034.216.187-.532.31-1.07.38-1.612-2.712 4.31-7.94 11.21-9.254 12.93v.068zm0-21.606v-.307c.1-.034.204-.065.306-.094l-.307.4zm0-2.177v-.314l.088-.138c-.025.15-.055.3-.09.452zm-.308 24.123s.11-.12.307-.34v-.06l-.31.4zm.307-24.438v.314c-.18.76-.47 1.51-.89 2.23.293-.148.59-.27.89-.367v.307c-2.66 3.45-6.79 8.293-9.18 11.05v-.423c2.496-3.45 6.866-9.55 9.174-13.116zm-9.18-7.372V236.7l.77-1.09c-.007.878-.294 1.552-.527 2.186.55-.166 1.097-.252 1.632-.267-.534.68-1.17 1.47-1.875 2.32zm0-3.15v3.15c-4.51 5.468-11.754 13.57-11.754 13.57l11.754-16.72zm0 23.64v.425c-1.133 1.31-1.873 2.152-1.873 2.152s.746-1.02 1.873-2.577z" fill="#d5b275"/><path d="M359.534 331.206L212.762 527.12H201.62v-57.59l121.496-162.164c5.487 14.83 19.947 24.782 36.418 23.84z" fill="#2d5f82"/><path d="M367.215 318.208l-7.987 10.662c-15.107.027-28.192-9.277-33.476-22.926l7.48-9.983c5.12 13.84 18.613 23.13 33.983 22.25z" fill="#fec900"/></g><path d="M215.178 479.033V446.72l116.955-150.045c2.523 6.55 7.012 12.07 12.74 15.958l-129.695 166.4z" clip-rule="evenodd" fill="#457191" fill-rule="evenodd" filter="url(#n)"/><path d="M286.785 339.414c-1.966-5.684 5.716-10.705 11.484-7.454-2.847-5.554 3.958-10.994 9.786-9.03-1.746-5.536 6.136-10.42 11.608-6.477l28.505 20.527c4.61 3.322 9.182 9.95 11.427 16.33 4.99 14.184-9.313 29.857-19.856 30.607-7.226.51-13.64.037-17.46-2.603l-44.34-30.617c-6.15-4.247 1.58-14.163 8.84-11.28z" clip-rule="evenodd" fill="#f7ecd7" fill-rule="evenodd" filter="url(#o)"/><path d="M319.34 331.422s-6.248-5.44-10.625-8.796v1.348c4.694 3.067 10.624 7.448 10.624 7.448zm-10.625 8.392v-.302c1.34 1.112 2.21 1.847 2.21 1.847s-.865-.612-2.21-1.546zm0-17.188c-.3-.23-.588-.448-.867-.654.04.314.106.635.208.957-.512-.174-1.032-.288-1.552-.353.68.413 1.428.886 2.21 1.397v-1.348zm0 16.886v.303c-2.48-1.72-6.6-4.565-9.985-6.795v-1.49c3.215 2.412 7.446 5.88 9.985 7.987zm-9.983 8.93v-.538c1.816 1.54 3.048 2.598 3.048 2.598l-3.05-2.056zm0-16.918v1.492c-1.128-.743-2.173-1.418-3.05-1.962.88.143 1.753.435 2.587.907-.19-.37-.335-.74-.444-1.106.29.213.593.435.905.67zm0 16.38v.538l-14.098-9.526c.848 0 1.495.268 2.105.48-.165-.508-.25-1.013-.26-1.507 3.197 2.395 8.782 7.074 12.246 10.008z" clip-rule="evenodd" fill="#d5b275" fill-rule="evenodd" filter="url(#p)"/><path d="M445.99 193.24c13.62 0 24.66 7.324 24.66 16.36 0 5.183-3.64 9.802-9.31 12.8 1.232 2.476 3.89 4.522 7.328 5.708-.082.002-.164.003-.248.003-4.76 0-9-1.47-11.746-3.765-3.234 1.033-6.858 1.612-10.688 1.612-13.617 0-24.656-7.324-24.656-16.358 0-9.035 11.038-16.36 24.656-16.36z" clip-rule="evenodd" fill="#c9e3f5" fill-rule="evenodd" filter="url(#q)"/><path d="M254.415 268.21c-.42.082-.824.205-1.206.36v23.75h3.818v-19.833c0-1.767-1.04-3.338-2.614-4.28z" clip-rule="evenodd" fill="#5197c9" fill-rule="evenodd" filter="url(#r)"/><g transform="matrix(.963 0 0 .925 21.093 12.283)" clip-rule="evenodd" fill-rule="evenodd" filter="url(#s)"><path d="M249.42 335.742v-1.228l-16.586 1.228zm-19.27-31.412h21.952c.43 0 .78.35.78.78v2.69c0 .43-.35.78-.78.78h-21.95c-.43 0-.782-.35-.782-.78v-2.69c0-.43.352-.78.78-.78zm2.684 20.404h16.586c.324 0 3.464-7.73 3.464-10.863v-4.75c0-.43-.35-.78-.78-.78H230.15c-.43 0-.78.35-.78.78v4.756c-.002 3.132 3.137 10.864 3.462 10.864z" fill="#c9e3f5"/><path d="M240.805 339.75c-1.257 0-3.887-.118-3.966-.51-.01-.043-.03-.103-.058-.178.81.256 2.885.34 3.988.34 1.133 0 3.775-.088 4.705-.36-.027.074-.046.14-.057.198-.077.392-3.36.51-4.618.51z" fill="#5197c9"/><path d="M249.222 302.503v-20.41c0-3.003-2.632-5.46-5.85-5.46-3.216 0-5.85 2.457-5.85 5.46v20.363h11.043c.223 0 .442.016.657.047z" fill="#c9e3f5"/><path d="M242.38 276.6c-2.775.58-4.857 2.82-4.857 5.478v20.584h7.572v-21.437c0-1.912-1.08-3.61-2.716-4.626zm2.276 25.856v-18.573c0-.372.357-.823.357-1.272 0-1.06-.933-1.93-2.074-1.93-1.147 0-2.08.87-2.08 1.936 0 .45.356.9.356 1.273v18.572h3.435z" fill="#5197c9"/><path d="M244.127 302.456v-20.81c0-3.004-2.632-5.46-5.85-5.46-3.217 0-5.85 2.456-5.85 5.46v20.987c.4-.115.823-.177 1.26-.177h10.44z" fill="#c9e3f5"/><path d="M238.556 302.456v-19.27c0-.37.357-.822.357-1.27 0-1.066-.934-1.938-2.075-1.938-1.14 0-2.075.87-2.075 1.937 0 .45.357.9.357 1.272v19.27h3.436z" fill="#5197c9"/><path d="M249.42 319.357v14.045l-16.586 1.228v-14.045zm-8.294 21.16c4.58 0 8.293-2.138 8.293-4.775h-16.59c0 2.637 3.71 4.774 8.29 4.774z" fill="#c9e3f5"/></g><g transform="matrix(.963 0 0 .925 7.624 -25.952)" fill="#c9e3f5" filter="url(#t)"><path d="M528.14 476.422h3.627v-3.44c2.787-.512 5.37-1.607 7.62-3.153l2.43 2.43 5.13-5.13-2.432-2.43c1.547-2.25 2.64-4.837 3.155-7.62h3.438v-7.257h-3.438c-.515-2.788-1.608-5.37-3.155-7.62l2.43-2.43-5.127-5.128-2.43 2.43c-2.25-1.548-4.834-2.64-7.62-3.156v-3.44h-3.627v8.302c8.1 0 14.67 6.567 14.67 14.667s-6.564 14.667-14.664 14.667v8.302zM511.767 464.7l-2.43 2.43 5.127 5.13 2.433-2.43c2.248 1.546 4.83 2.64 7.618 3.153v3.44h3.626v-8.302c-8.1 0-14.662-6.56-14.662-14.66 0-8.1 6.566-14.668 14.667-14.668v-8.3h-3.625v3.438c-2.79.514-5.37 1.608-7.62 3.155l-2.433-2.43-5.127 5.13 2.43 2.43c-1.55 2.25-2.64 4.83-3.157 7.62h-3.437v7.253h3.438c.516 2.786 1.61 5.37 3.156 7.618z"/><circle cx="528.14" cy="453.454" r="7.072" clip-rule="evenodd" fill-rule="evenodd"/></g><path d="M335.465 463.904c.994-.064 1.966-.203 2.91-.41.642-.14 1.262-.313 1.875-.51.295-.097.586-.2.874-.31.578-.22 1.14-.462 1.685-.733.273-.134.543-.275.808-.42 1.193-.662 2.307-1.444 3.32-2.328.227-.197.447-.398.662-.605.215-.207.424-.42.63-.636.31-.323.6-.658.884-1.004.448-.547.862-1.12 1.242-1.71.1-.16.2-.318.296-.477.154-.256.298-.515.437-.778.07-.132.137-.264.206-.398.13-.265.26-.537.38-.81s.233-.55.34-.83c.21-.56.398-1.133.553-1.718.078-.29.15-.585.21-.882.065-.298.12-.598.17-.9.045-.303.087-.61.12-.917.063-.613.095-1.237.095-1.87 0-.63-.033-1.253-.096-1.868-.035-.31-.075-.614-.122-.917-.052-.302-.106-.603-.17-.9-.062-.296-.135-.592-.212-.885-.154-.582-.342-1.156-.554-1.716-.053-.14-.108-.277-.166-.416-.17-.417-.356-.824-.555-1.222l-.204-.397c-.14-.26-.287-.52-.44-.776-.457-.765-.972-1.496-1.537-2.187-.28-.346-.578-.682-.883-1.006-.204-.215-.414-.427-.63-.634-.217-.206-.438-.41-.664-.605-.436-.38-.89-.74-1.362-1.082-.623-.454-1.278-.866-1.958-1.244-.264-.146-.533-.287-.806-.422-.125-.06-.25-.12-.375-.178-.15-.07-.303-.14-.457-.207l-.192-.083c-.22-.09-.437-.18-.66-.264l-.01-.006c-.235-.088-.475-.173-.716-.253-.048-.02-.096-.034-.147-.05-.56-.183-1.136-.34-1.723-.474-.183-.04-.366-.08-.55-.117l-.4-.075c-.69-.12-1.39-.204-2.103-.25v.977c.772.054 1.532.155 2.273.3-.048.125-.21.07-.344.13-.126.058-.175.172-.307.197-.372.067-.68-.09-1.002-.08-.014.133.16.21.247.253.29.148.53.127.938.12.212-.005.453.06.636-.06.114-.073.107-.24.203-.332.042-.038.1-.077.168-.11.204.046.406.096.606.148-.035.132-.257.1-.26.278.14.08.472-.047.6-.185l.15.043c.29.084.576.176.858.274.404.14.8.292 1.19.457-.076.044-.157.097-.222.097-.168 0-.24-.217-.43-.137-.016.212.232.296.39.39.17.106.348.21.408.393-.166.34-.432-.018-.693-.018-.29-.003-.715.527-.963.097.062-.23.325-.265.39-.49-.058.01-.11.027-.164.048-.096.037-.192.086-.292.138-.13.068-.268.135-.424.168-.14.03-.28.022-.408.058-.246.068-.414.24-.674.333-.1.036-.22.023-.327.058-.246.08-.542.222-.796.354-.26.136-.556.278-.718.413-.086.07-.314.328-.306.41.01.117.24.157.245.274-.005.072-.132.228-.038.332.082.097.25.02.428.04.312.037.515.285.756.413.18.096.45.21.655.235.28.033.595-.08.633.14.04.204-.265.278-.286.41.154.19-.103.282-.103.45.002.14.177.342.328.352.206.018.51-.195.593-.39.102-.232.058-.554.244-.722.952.025 1.758-.415 1.696-1.353-.008-.093-.062-.213-.042-.315.03-.15.302-.277.266-.47.103-.03.163-.11.216-.2.08-.133.14-.287.284-.336l.03-.014c.084-.02.17-.003.26.024.167.046.342.126.537.11.096-.004.226-.088.327-.075.2.026.318.263.468.37.133.1.275.068.308.198-.04.22-.198.228-.185.426v.007c.016.18.21.315.307.334.15.026.363-.05.51-.12.163-.073.308-.23.45-.34.198.147.394.298.59.452.022.088.038.167.045.22.03.212-.03.375-.02.57.026.33.46.297.674.47.064.053.088.186.144.256.104.133.23.133.244.276.04.338-.32.366-.287.744-.07.148-.258.14-.243.334.024.31.487.074.613.314.068.13-.01.228-.06.412.158.18.156.47-.123.472-.17 0-.216-.176-.39-.217-.095-.02-.225-.018-.345-.037-.103-.018-.227-.046-.326-.06-.253-.027-.526.044-.673-.096.24-.308.565-.614.876-.88.093-.08.293-.136.244-.297-.173-.148-.388.01-.55.097-.175.093-.38.228-.574.255-.337.048-.788-.093-1.065.08-.038.147.316.09.266.314-.134.02-.262.03-.367-.06-.096-.08-.04-.204-.102-.252-.102-.083-.498-.107-.673-.08-.214.035-.404.158-.428.333.254.12.682-.117.774.18-.142.243-.474.378-.43.704.02.126.173.295.285.314.113.018.175-.09.285-.08.116.01.09.14.225.118.197-.08.306-.345.53-.333.27.314-.245.468-.53.568-.33.115-.754.176-1.003.275-.13.052-.625.51-.693.157-.05-.257.245-.183.305-.393-.318-.06-.613.13-.9.235-.41.148-1.107.243-1.206.685-.02.09.04.253-.02.315-.05.046-.343.055-.47.096-.197.065-.37.203-.492.235-.09.023-.227.018-.285.04-.163.06-.22.27-.41.41-.073.06-.24.1-.303.16-.106.1-.12.353-.306.39-.12.01-.215-.085-.327-.018-.014.25.092.59-.018.842-.244.19-.51.324-.82.49-.17.093-.323.116-.53.216-.146.07-.28.238-.45.333-.096.056-.197.11-.295.176v8.544c.1-.087.2-.21.255-.308.115-.2.123-.37.327-.47.218-.11.394-.056.673-.157.125-.046.234-.12.347-.196.1-.065.204-.236.327-.12.164.158-.2.245-.06.412.284.144.428-.268.635-.275.064 0 .29.123.408.198.157.102.212.24.385.275.112.02.293-.042.452-.02.206.03.33.203.49.198.194-.004.284-.205.45-.234.36-.065.495.037.652.254.18.03.185-.197.346-.117-.087.17.034.25.104.392.045.092.038.157.082.196.096.09.286.09.428.177.15.092.236.26.41.45.176.195.476.398.714.412.223.012.407-.06.593-.04.423.048.685.25.98.47.165.122.315.207.367.353.04.102.02.24.062.35.092.246.462.362.327.785.063.125.202.17.347.256.12.07.22.215.346.235.085.013.176-.025.248-.02.233.016.39.103.593.177.125.046.284.065.367.118.104.068.118.293.246.352.084.04.27-.014.41 0 .22.026.517.154.716.157.12.004.22-.046.327-.037.248.02.443.167.636.337-2.466 3.814-6.425 6.645-11.09 7.728-.015-.172-.066-.343-.076-.516-.015-.374.043-.636-.02-.98-.047-.26-.105-.66-.2-.824-.112-.183-.54-.49-.758-.608-.142-.077-.314-.104-.47-.176-.334-.157-.978-.488-1.125-.805-.04-.092-.037-.213-.082-.314-.042-.094-.106-.184-.173-.27v5.902zM315.51 441.98c-.065.296-.12.597-.168.9-.048.305-.09.61-.122.916-.064.618-.096 1.24-.096 1.87 0 .634.03 1.257.096 1.868.032.312.073.617.122.916.048.305.102.6.167.905.062.298.134.592.21.883.157.583.343 1.157.556 1.72.106.278.22.554.342.828.12.273.246.543.38.81l.204.397c.14.263.287.522.44.777.46.765.97 1.496 1.54 2.188.283.347.577.68.885 1.006.202.218.414.43.63.636.217.206.437.407.662.605 1.012.885 2.124 1.665 3.32 2.327.266.148.536.287.808.422.547.268 1.107.514 1.685.734.29.108.578.212.874.305 1.916.623 3.966.962 6.1.962.445 0 .885-.015 1.322-.046V458c-.08-.1-.167-.196-.237-.3-.253-.37-.457-.832-.716-1.215-.13-.194-.245-.414-.388-.57-.085-.092-.355-.175-.39-.314-.045-.18-.184-.43-.163-.57.03-.184.41-.338.41-.508 0-.145-.203-.23-.247-.352-.103-.3.06-.477.183-.727.04-.083.08-.215.123-.276.077-.107.23-.138.327-.254.058-.065.092-.204.164-.296.154-.198.407-.272.472-.453.05-.144.08-.872.018-1.114-.036-.142-.173-.26-.225-.393-.093-.236-.113-.495-.368-.49-.156.004-.266.17-.366.275-.026.138-.013.29-.164.333-.233.065-.322-.234-.594-.313-.106-.034-.28-.032-.347-.06-.2-.086-.264-.364-.472-.473-.173-.09-.323-.057-.43-.194-.042-.096-.01-.267-.02-.394-.222-.126-.413-.595-.673-.707-.173-.074-.438-.067-.655-.137-.1-.033-.18-.076-.285-.098-.133-.028-.268-.028-.37-.077-.403-.194-.625-.817-1.125-.803-.212.002-.42.194-.615.194-.192 0-.515-.148-.756-.256-.25-.11-.53-.172-.737-.275-.167-.083-.282-.23-.43-.294-.112-.048-.275-.055-.365-.098-.134-.06-.27-.185-.433-.294-.155-.1-.32-.26-.328-.39-.007-.156.147-.288.163-.434.054-.467-.305-.803-.53-1.08-.167-.202-.365-.376-.53-.567.01-.126.01-.148 0-.275-.128-.12-.235-.296-.37-.472-.12-.16-.356-.33-.385-.51-.04-.22.087-.415 0-.628-.144-.353-.658-.194-.593.275.02.13.208.304.267.43.057.13.048.295.104.452.052.15.21.28.265.452.087.27.082.555.164.724.067.148.327.29.183.47-.193.04-.27-.146-.388-.256-.068-.06-.308-.175-.347-.314-.03-.116.077-.27.04-.413-.07-.275-.65-.28-.656-.566 0-.18.245-.2.247-.374 0-.19-.27-.352-.328-.51-.054-.147-.062-.38-.082-.588-.02-.194.006-.42-.043-.568-.042-.134-.253-.32-.39-.392-.178-.096-.32-.055-.408-.197-.077-.122-.125-.377-.144-.51-.03-.236-.004-.492-.02-.744-.012-.25-.038-.493 0-.764.103-.19.287-.283.39-.472.072-.13.082-.29.165-.43.148-.26.475-.494.693-.747.24-.27.457-.53.595-.84.05-.112.183-.357.162-.49-.025-.19-.395-.346-.366-.57.02-.14.225-.138.29-.275.03-.07.058-.268.058-.35.004-.19-.1-.388-.058-.59.032-.174.298-.24.16-.432-.134-.187-.382.102-.532-.018-.138-.113.03-.247.04-.452.004-.083-.05-.176-.042-.238.013-.09.19-.237.143-.296-.074-.09-.155-.27-.27-.417 2.28-1.752 5.01-2.984 8-3.507.035.063.066.133.157.157.176-.086.356.01.55 0 .194-.004.363-.088.573-.055.372.055.89.404 1.184.215.072-.048.058-.13.122-.255.053-.098.135-.208.187-.33.15-.003.298-.006.443-.006.447 0 .885.015 1.324.046v-.98c-.32-.02-.646-.035-.972-.04l-.348-.002c-.198 0-.393.003-.587.01-1.924.054-3.774.384-5.513.952-.294.092-.586.196-.873.305l-.264.104c-.197.08-.395.158-.588.244-.28.123-.558.25-.83.386-.274.134-.543.277-.81.422-1.065.592-2.07 1.276-2.994 2.05l-.326.277c-.223.198-.443.397-.66.607-.214.206-.425.418-.628.634-.308.324-.6.662-.886 1.006-.56.69-1.078 1.42-1.534 2.186-.154.256-.298.516-.438.778-.07.13-.138.263-.205.398-.2.397-.385.806-.554 1.22-.056.14-.112.278-.165.417-.212.563-.4 1.137-.555 1.722-.074.29-.144.586-.208.883zm19.955-.324v8.543c-.067.058-.138.1-.195.103-.17.012-.335-.23-.49-.294-.468-.195-.696.17-1.083.175-.36.005-.876-.555-.86-.882.014-.198.12-.5.145-.745.02-.194.16-.312.164-.49.002-.238-.33-.423-.49-.45-.382-.066-.91.147-1.348-.02-.084-.13.096-.22.142-.35.026-.075.01-.177.04-.255.05-.124.184-.222.242-.35.045-.103.055-.25.1-.375.054-.142.152-.233.165-.333.015-.132-.037-.287-.145-.373-.338.016-.563.032-.756.118-.443.194-.355.766-.796.9-.154.047-.364.05-.532.08-.144.024-.32.1-.47.096-.175-.004-.487-.166-.59-.274-.097-.097-.324-.58-.347-.666-.176-.578.014-1.108.242-1.51.048-.085.13-.165.163-.254.055-.136.02-.342.063-.49.077-.273.45-.437.715-.57.298-.147.55-.388.897-.41.173-.013.427.043.593.077.154.03.275.128.408.136.38.027.47-.253.777-.41.318.042.53-.053.818-.02.197.022.337.225.49.236.128.01.242-.115.367-.095.12.018.327.27.35.413.022.176-.136.335-.084.528.192.19.542.226.816.333.18-.14.024-.4 0-.605-.01-.09.01-.172 0-.255-.016-.14-.08-.27-.08-.39-.005-.42.262-.672.56-.865z" fill="#c9e3f5" filter="url(#u)"/><path d="M388.018 431.99c-5.913 1.888-11.136-5.495-7.754-11.038-.19.09-.38.17-.57.24l43.36-55.63c6.323 4.11 10.857 10.3 11.26 15.528.53 6.942.037 13.11-2.708 16.783l-31.854 42.614c-4.416 5.91-14.734-1.517-11.734-8.498z" clip-rule="evenodd" fill="#fffcf7" fill-rule="evenodd" filter="url(#v)"/><path d="M388.24 410.78c1.09-1.212 1.803-1.99 1.803-1.99s-.717.942-1.803 2.384v-.394zm0 22.267v-2.916c4.34-5.058 11.315-12.553 11.315-12.553l-11.315 15.47zm-8.545-11.856l5.054-6.483c1.303-1.487 2.54-2.87 3.49-3.927v.393c-2.436 3.236-6.72 8.986-8.918 12.265.148-.85.453-1.69.94-2.49-.188.09-.377.168-.567.242zm8.545 8.94v2.917l-.733 1.01c.006-.814.282-1.436.506-2.023-.53.148-1.055.23-1.57.242.51-.63 1.127-1.36 1.8-2.15z" clip-rule="evenodd" fill="#e8cea2" fill-rule="evenodd" filter="url(#w)"/><path d="M432.352 353.63c5.6 3.73 10.02 9.036 12.562 15.35l-7.2 9.24c-2.453-6.37-6.9-11.694-12.57-15.34l7.202-9.243z" clip-rule="evenodd" fill="#d0e698" fill-rule="evenodd" filter="url(#x)"/><path d="M364.145 355.734l10.264 7.39c.013 7.298-2.422 14.084-6.622 19.6l-9.607-6.917c4.16-5.635 6.408-12.615 5.966-20.073z" clip-rule="evenodd" fill="#eda08e" fill-rule="evenodd" filter="url(#y)"/><path d="M344.632 269.387c-.773 5.847-.805 15.205 2.116 16.732 2.94 1.535 7.45-3.892 9.896-8.082l-12.012-8.65z" clip-rule="evenodd" fill="#d5b275" fill-rule="evenodd" filter="url(#z)"/><path d="M296.15 331.14c.72.167 1.433.435 2.118.82-2.845-5.554 3.96-10.994 9.788-9.03-1.746-5.536 6.136-10.42 11.608-6.477l28.505 20.527c4.61 3.322 9.182 9.95 11.427 16.33 2.516 7.152.125 14.683-4.213 20.487l-59.24-42.652z" clip-rule="evenodd" fill="#fffcf7" fill-rule="evenodd" filter="url(#A)"/><path d="M319.34 331.422s-6.248-5.44-10.625-8.796v1.348c4.694 3.067 10.624 7.448 10.624 7.448zm-10.625 8.392v-.302c1.34 1.112 2.21 1.847 2.21 1.847s-.864-.612-2.21-1.546zm0-17.188c-.3-.23-.588-.448-.867-.654.04.314.106.635.208.957-.512-.174-1.032-.288-1.552-.353.68.413 1.428.886 2.21 1.397v-1.348zm0 16.886v.303c-2.41-1.674-6.363-4.404-9.688-6.6l-2.865-2.063c.716.163 1.425.43 2.108.813-.19-.37-.335-.74-.443-1.105 3.283 2.396 8.103 6.345 10.888 8.657z" clip-rule="evenodd" fill="#e8cea2" fill-rule="evenodd" filter="url(#B)"/><g transform="matrix(.963 0 0 .925 21.093 12.283)" fill="#fff" filter="url(#C)"><path d="M514.148 435.1h3.626v-3.44c2.787-.513 5.37-1.608 7.62-3.154l2.43 2.43 5.13-5.128-2.432-2.43c1.547-2.25 2.64-4.833 3.155-7.62h3.438v-7.253h-3.438c-.515-2.788-1.608-5.37-3.155-7.62l2.43-2.43-5.127-5.128-2.43 2.43c-2.25-1.547-4.834-2.64-7.62-3.155v-3.44h-3.627v8.302c8.1 0 14.667 6.567 14.667 14.667 0 8.107-6.567 14.67-14.667 14.67v8.3z"/><path d="M514.148 405.06c3.906 0 7.072 3.165 7.072 7.07 0 3.906-3.166 7.073-7.072 7.073V405.06z" clip-rule="evenodd" fill-rule="evenodd"/></g><path d="M334.602 463.942c1.294-.03 2.556-.183 3.773-.45.635-.138 1.26-.31 1.87-.508.294-.097.585-.2.874-.31.574-.22 1.137-.462 1.683-.733.274-.134.543-.275.81-.42 1.192-.662 2.305-1.444 3.32-2.328.225-.197.446-.398.66-.605.215-.207.426-.42.63-.636.31-.323.607-.657.886-1.004.45-.547.864-1.12 1.24-1.71.104-.16.203-.318.3-.477.154-.256.298-.515.44-.778.07-.132.137-.264.206-.398.132-.265.26-.537.38-.81s.234-.55.34-.83c.212-.56.4-1.133.554-1.718.08-.29.15-.585.212-.882.064-.298.12-.598.17-.9.045-.303.086-.61.12-.917.064-.613.096-1.237.096-1.87 0-.63-.033-1.253-.096-1.868-.034-.31-.074-.614-.12-.917-.054-.302-.107-.603-.172-.9-.063-.296-.135-.592-.212-.885-.156-.582-.343-1.156-.555-1.716-.053-.14-.108-.277-.166-.416-.17-.417-.356-.824-.556-1.222l-.204-.397c-.14-.26-.287-.52-.44-.776-.457-.765-.972-1.496-1.537-2.187-.284-.346-.578-.682-.886-1.006-.204-.215-.414-.427-.63-.634-.214-.206-.435-.41-.66-.605-.435-.38-.89-.74-1.36-1.082-.625-.454-1.28-.866-1.96-1.244-.264-.146-.534-.287-.81-.422l-.374-.178c-.15-.07-.3-.14-.455-.207l-.192-.083c-.22-.09-.437-.18-.66-.264l-.01-.006c-.237-.088-.477-.173-.718-.253-.048-.02-.096-.034-.147-.05-.56-.183-1.136-.34-1.723-.474-.183-.04-.366-.08-.55-.117l-.403-.075c-.963-.167-1.954-.27-2.965-.29v.976c1.07.027 2.12.144 3.138.342-.05.125-.21.07-.344.13-.125.055-.173.17-.306.195-.37.07-.68-.088-1-.077-.016.134.157.212.245.254.29.148.528.128.938.12.212-.004.453.06.636-.058.112-.074.106-.24.202-.333.04-.04.1-.08.167-.11.202.045.405.093.604.147-.034.13-.256.098-.26.278.142.08.472-.047.602-.185l.15.04c.288.084.574.176.855.275.405.14.802.292 1.19.458-.073.044-.153.097-.218.097-.17-.002-.24-.218-.43-.14-.018.212.23.297.387.393.17.105.347.21.41.392-.167.34-.433-.018-.695-.018-.29-.003-.715.527-.963.097.06-.232.325-.267.39-.49-.058.008-.113.027-.167.046-.096.037-.192.086-.29.138-.132.068-.27.135-.425.168-.14.03-.28.022-.407.058-.245.07-.414.243-.674.333-.1.036-.22.024-.325.058-.25.08-.545.223-.8.355-.26.136-.553.277-.715.413-.086.07-.314.327-.305.408.01.118.24.156.246.275-.004.07-.13.226-.04.332.085.095.25.02.43.037.314.036.517.283.76.41.18.097.45.21.654.236.28.034.594-.078.632.14.04.205-.266.28-.287.41.152.19-.104.283-.103.45 0 .137.175.342.327.353.205.017.508-.195.59-.392.104-.234.06-.555.246-.724.95.026 1.757-.414 1.694-1.35-.006-.093-.06-.214-.04-.316.03-.15.3-.277.265-.47.103-.03.163-.11.216-.2.078-.133.14-.286.284-.336.012-.004.02-.01.03-.012.08-.02.167-.004.26.023.165.046.338.127.534.11.1-.003.228-.087.327-.073.2.025.32.262.47.37.135.097.276.065.308.194-.038.22-.197.228-.183.426v.007c.015.18.21.315.306.333.15.028.362-.05.51-.117.163-.072.308-.23.448-.34.2.15.397.3.59.454.024.088.04.167.048.22.028.212-.03.375-.02.57.023.33.458.296.674.47.06.053.087.185.14.256.105.133.23.133.245.276.04.337-.316.365-.284.743-.073.148-.26.14-.245.333.024.31.487.074.613.315.067.13-.01.228-.06.412.156.18.153.47-.126.472-.17 0-.215-.176-.388-.217-.097-.02-.226-.018-.347-.037-.103-.018-.227-.046-.327-.058-.25-.028-.525.042-.674-.098.243-.308.568-.614.88-.88.092-.08.292-.135.243-.297-.173-.148-.387.01-.55.1-.174.09-.38.227-.573.254-.337.05-.787-.09-1.064.082-.04.148.316.09.266.314-.135.02-.26.03-.366-.06-.096-.08-.04-.204-.1-.253-.105-.084-.502-.108-.675-.08-.215.035-.404.157-.43.333.257.12.684-.12.776.176-.14.247-.472.38-.43.708.02.127.173.296.286.314.114.02.176-.09.286-.08.115.01.087.14.224.118.198-.08.306-.345.532-.333.27.314-.246.467-.533.568-.327.115-.752.176-1 .275-.132.052-.627.51-.694.157-.05-.257.246-.183.306-.393-.317-.06-.612.13-.9.235-.413.148-1.11.243-1.207.685-.02.09.04.254-.02.314-.048.048-.343.057-.472.098-.195.065-.368.204-.49.236-.09.023-.227.018-.285.04-.163.06-.22.27-.41.41-.078.06-.245.103-.307.158-.106.102-.12.357-.306.394-.12.01-.215-.086-.327-.02-.015.25.09.59-.02.842-.243.19-.51.324-.818.492-.17.09-.324.115-.53.215-.147.07-.282.238-.45.333-.39.222-.86.48-.857 1.04 0 .12.063.25.08.393.01.085-.01.165 0 .256.025.203.18.466 0 .607-.118-.047-.25-.08-.38-.117v6.305c.057.01.115.025.178.052.154.065.318.305.49.293.143-.01.357-.247.45-.41.116-.202.124-.37.328-.47.22-.11.395-.056.674-.158.125-.045.234-.12.346-.196.1-.064.205-.235.328-.118.163.158-.2.245-.06.412.282.145.425-.268.634-.274.063 0 .29.122.407.197.158.1.214.24.387.273.112.022.293-.04.45-.018.208.027.332.2.49.194.194-.004.286-.204.452-.234.36-.065.495.037.654.253.178.03.183-.197.347-.116-.09.168.03.246.102.39.046.092.038.157.083.195.096.09.285.09.428.176.154.094.24.262.412.453.177.194.476.398.714.412.223.013.407-.06.593-.04.424.05.686.252.982.472.164.122.315.206.368.35.038.103.02.242.06.355.094.244.462.36.328.783.063.126.202.17.346.258.12.07.22.215.346.236.086.01.177-.026.248-.022.234.017.392.102.594.18.125.045.286.063.37.116.102.067.114.293.243.352.084.04.27-.015.41 0 .22.025.516.153.716.157.12.003.22-.046.327-.037.247.02.443.167.635.336-2.464 3.815-6.423 6.646-11.087 7.73-.015-.175-.067-.347-.074-.52-.018-.372.04-.635-.02-.98-.048-.26-.106-.66-.205-.824-.107-.182-.538-.49-.753-.607-.145-.075-.315-.102-.47-.175-.334-.157-.978-.487-1.124-.805-.045-.09-.04-.21-.085-.312-.09-.2-.276-.376-.408-.57-.225-.326-.41-.727-.63-1.08v7.32zm0-11.4v-2.32c.103.09.132.27.198.435.052.135.19.252.225.394.062.244.032.972-.02 1.118-.057.148-.25.225-.403.37zm-.458 11.406h.458v-7.328l-.087-.136c-.125-.185-.236-.394-.37-.548v8.017zm.458-36.557h-.112c-.116-.002-.23-.004-.347-.004v.978c.154 0 .306 0 .458.006v-.976zm0 16.267c-.168-.046-.328-.105-.435-.213-.054-.194.105-.35.082-.527-.01-.06-.05-.14-.107-.213v7.352c.14-.062.282-.117.46-.092v-6.304zm0 6.57v2.322c-.024.02-.047.045-.068.073-.073.092-.108.228-.163.293-.065.076-.153.116-.226.164v-2.723c.08-.09.17-.185.287-.185.075 0 .13.018.172.055z" fill="#fff" filter="url(#D)"/><path d="M261.192 321.794l-7.984.568v.568h7.983zm-7.984-27.928h10.565c.414 0 .75.324.75.722v2.49c0 .397-.336.72-.75.72h-10.565v-3.932zm0 18.88h7.983c.31 0 3.33-7.153 3.33-10.052V298.3c0-.4-.336-.723-.75-.723h-10.566v15.173zm0 13.57c1.21-.017 3.378-.105 4.19-.334-.03.07-.048.13-.058.185-.067.335-2.772.453-4.137.47v-.323zm7.793-34.14V273.29c0-2.777-2.533-5.05-5.63-5.05-.765 0-1.494.138-2.16.388v23.504h7.16c.213 0 .424.015.63.044z" clip-rule="evenodd" fill="#fff" fill-rule="evenodd" filter="url(#E)"/><path d="M256.606 292.132v-17.185c0-.344.343-.76.343-1.176 0-.98-.9-1.787-1.997-1.787-.75 0-1.406.374-1.75.922v1.677c.053.13.09.254.09.37v17.185h3.308z" clip-rule="evenodd" fill="#c9e3f5" fill-rule="evenodd" filter="url(#F)"/><path d="M261.192 307.77v12.995l-7.984.568v-12.996zm-7.984 19.578c4.408 0 7.983-1.978 7.983-4.418h-7.987v4.418zm7.984-14.48v1.33l-7.984.684v-1.33zm0 2.73v1.33l-7.984.682v-1.33zm0 2.727v1.33l-7.984.684v-1.327zm184.8-125.085c13.617 0 24.657 7.324 24.657 16.358 0 5.185-3.64 9.804-9.31 12.8 1.232 2.478 3.89 4.524 7.328 5.71-.082.002-.164.003-.248.003-4.76 0-9-1.47-11.746-3.765-3.234 1.033-6.858 1.612-10.688 1.612V193.24z" clip-rule="evenodd" fill="#fff" fill-rule="evenodd" filter="url(#G)"/><path d="M238.825 296.862h29.116v1.65h-29.11zm22.367 16.007v1.33l-15.967 1.365v-1.33zm0 2.73v1.327l-15.967 1.366v-1.33zm0 2.725v1.33l-15.967 1.367v-1.333z" clip-rule="evenodd" fill="#5197c9" fill-rule="evenodd" filter="url(#H)"/><path d="M391.565 232.35c5.39-1.72 10.207 4.262 8.454 9.533l-44.053 56.52c-6.028-4.105-10.307-10.08-10.695-15.152-.533-6.94-.038-13.108 2.705-16.782l31.854-42.617c4.42-5.91 14.737 1.514 11.735 8.495z" clip-rule="evenodd" fill="#fffcf7" fill-rule="evenodd" filter="url(#I)"/><path d="M400.014 241.89l-5.882 7.547c2.184-2.944 4.637-6.31 6.13-8.534-.06.33-.14.66-.248.987zm-8.437-9.586c.53-.152 1.056-.23 1.57-.246-3.802 4.684-13.12 14.702-13.12 14.702l12.052-16.478c-.008.81-.284 1.434-.508 2.02z" clip-rule="evenodd" fill="#e8cea2" fill-rule="evenodd" filter="url(#J)"/><path d="M346.673 310.327c-5.336-3.704-9.545-8.866-12.002-14.967l7.2-9.237c2.37 6.16 6.6 11.34 12 14.97l-7.198 9.238z" clip-rule="evenodd" fill="#ffdb59" fill-rule="evenodd" filter="url(#K)"/></svg>