<?xml version="1.0" encoding="UTF-8" standalone="no"?>
<!-- Generator: Adobe Illustrator 17.0.0, SVG Export Plug-In . SVG Version: 6.00 Build 0)  -->

<svg
   xmlns:dc="http://purl.org/dc/elements/1.1/"
   xmlns:cc="http://creativecommons.org/ns#"
   xmlns:rdf="http://www.w3.org/1999/02/22-rdf-syntax-ns#"
   xmlns:svg="http://www.w3.org/2000/svg"
   xmlns="http://www.w3.org/2000/svg"
   xmlns:sodipodi="http://sodipodi.sourceforge.net/DTD/sodipodi-0.dtd"
   xmlns:inkscape="http://www.inkscape.org/namespaces/inkscape"
   version="1.1"
   x="0px"
   y="0px"
   width="799.92px"
   height="799.92px"
   viewBox="0 0 799.92 799.92"
   enable-background="new 0 0 799.92 799.92"
   xml:space="preserve"
   id="svg2"
   inkscape:version="0.91pre3 r13670"
   sodipodi:docname="curiosidad.svg"><metadata
     id="metadata386"><rdf:RDF><cc:Work
         rdf:about=""><dc:format>image/svg+xml</dc:format><dc:type
           rdf:resource="http://purl.org/dc/dcmitype/StillImage" /><dc:title></dc:title></cc:Work></rdf:RDF></metadata><defs
     id="defs384" /><sodipodi:namedview
     pagecolor="#ffffff"
     bordercolor="#666666"
     borderopacity="1"
     objecttolerance="10"
     gridtolerance="10"
     guidetolerance="10"
     inkscape:pageopacity="0"
     inkscape:pageshadow="2"
     inkscape:window-width="1366"
     inkscape:window-height="745"
     id="namedview382"
     showgrid="false"
     inkscape:zoom="0.59005902"
     inkscape:cx="350.09607"
     inkscape:cy="446.39407"
     inkscape:window-x="-8"
     inkscape:window-y="-8"
     inkscape:window-maximized="1"
     inkscape:current-layer="svg2" /><g
     id="Capa_2"
     display="none"><path
       display="inline"
       fill-rule="evenodd"
       clip-rule="evenodd"
       fill="#F06162"
       d="M631.619,567.254   c0,26.883-22.768,48.676-50.855,48.676H210.855c-28.086,0-50.855-21.793-50.855-48.676V217.431   c0-26.883,22.768-48.676,50.855-48.676h369.909c28.086,0,50.855,21.793,50.855,48.676V567.254z"
       id="path5" /><path
       display="inline"
       fill-rule="evenodd"
       clip-rule="evenodd"
       fill="#EFE2C2"
       d="M611.355,552.372   c0,24.596-20.812,44.534-46.485,44.534H226.748c-25.673,0-46.485-19.939-46.485-44.534v-320.06   c0-24.596,20.812-44.534,46.485-44.534H564.87c25.673,0,46.485,19.939,46.485,44.534V552.372z"
       id="path7" /></g><rect
     style="display:inline;fill:#efe2c2;fill-opacity:1"
     id="rect8573"
     width="715.25427"
     height="688.13562"
     x="45.722298"
     y="52.502678"
     rx="49.436573"
     ry="62.123699" /><g
     transform="translate(87.293524,-62.209364)"
     id="Capa_2-2"><path
       style="fill:none;stroke:#f2e7da;stroke-width:6;stroke-miterlimit:10"
       inkscape:connector-curvature="0"
       stroke-miterlimit="10"
       d="m 424.81,392.215 c 0,-69.873 -56.643,-126.516 -126.516,-126.516 -69.873,0 -126.516,56.643 -126.516,126.516"
       id="path15" /><path
       style="fill:none;stroke:#f2e7da;stroke-miterlimit:10"
       inkscape:connector-curvature="0"
       stroke-miterlimit="10"
       d="m 413.058,383.582 c 0,-60.337 -54.426,-109.25 -114.763,-109.25 -60.337,0 -114.762,48.913 -114.762,109.25"
       id="path17" /><g
       id="g19"><path
         style="fill:#0ea89e"
         inkscape:connector-curvature="0"
         d="m 387.324,345.547 c -9.758,0 -18.932,-3.8 -25.832,-10.7 -14.243,-14.245 -14.243,-37.421 0,-51.666 6.9,-6.9 16.075,-10.7 25.833,-10.7 9.758,0 18.932,3.8 25.832,10.7 6.9,6.9 10.7,16.074 10.7,25.833 0,9.759 -3.8,18.933 -10.7,25.833 -6.9,6.9 -16.074,10.7 -25.833,10.7 z"
         id="path21" /><path
         style="fill:#f2e7da"
         inkscape:connector-curvature="0"
         d="m 387.325,274.981 c 8.71,0 17.419,3.323 24.065,9.968 13.29,13.29 13.29,34.839 0,48.13 -6.646,6.645 -15.355,9.968 -24.065,9.968 -8.71,0 -17.419,-3.323 -24.065,-9.968 -13.29,-13.291 -13.29,-34.839 0,-48.13 6.645,-6.645 15.355,-9.968 24.065,-9.968 m 0,-5 c -10.426,0 -20.228,4.06 -27.6,11.432 -15.218,15.219 -15.218,39.982 0,55.201 7.372,7.372 17.174,11.432 27.6,11.432 10.426,0 20.228,-4.06 27.601,-11.432 15.219,-15.22 15.219,-39.983 0,-55.201 -7.374,-7.372 -17.175,-11.432 -27.601,-11.432 l 0,0 z"
         id="path23" /></g><path
       style="fill:none;stroke:#f2e7da;stroke-width:1.33850002;stroke-miterlimit:10;stroke-dasharray:3, 3"
       inkscape:connector-curvature="0"
       stroke-miterlimit="10"
       d="m 437.195,402.075 c 0,-80.764 -58.136,-146.237 -138.9,-146.237 -80.764,0 -138.902,65.473 -138.902,146.237"
       id="path25" /><g
       id="g27"><path
         style="fill:#f7cc52"
         inkscape:connector-curvature="0"
         d="m 299.108,310.124 c -20.144,0 -36.533,-16.389 -36.533,-36.533 0,-20.144 16.389,-36.532 36.533,-36.532 20.144,0 36.533,16.388 36.533,36.532 0,20.144 -16.388,36.533 -36.533,36.533 z"
         id="path29" /><path
         style="fill:#f2e7da"
         inkscape:connector-curvature="0"
         d="m 299.108,239.559 c 18.795,0 34.033,15.237 34.033,34.033 0,18.796 -15.237,34.033 -34.033,34.033 -18.796,0 -34.033,-15.237 -34.033,-34.033 0.001,-18.797 15.238,-34.033 34.033,-34.033 m 0,-5 c -21.523,0 -39.033,17.51 -39.033,39.033 0,21.523 17.51,39.033 39.033,39.033 21.523,0 39.033,-17.51 39.033,-39.033 0,-21.523 -17.51,-39.033 -39.033,-39.033 l 0,0 z"
         id="path31" /></g><g
       id="g33"><path
         style="fill:#e25941"
         inkscape:connector-curvature="0"
         d="m 424.81,433.128 c -20.145,-10e-4 -36.533,-16.389 -36.533,-36.533 0.001,-20.144 16.39,-36.532 36.533,-36.532 20.144,0 36.532,16.389 36.533,36.532 0,20.143 -16.388,36.532 -36.533,36.533 l 0,0 z"
         id="path35" /><path
         style="fill:#f2e7da"
         inkscape:connector-curvature="0"
         d="m 424.81,362.562 c 18.796,0 34.033,15.237 34.034,34.033 0,18.795 -15.238,34.033 -34.033,34.033 -18.796,0 -34.033,-15.238 -34.033,-34.033 0,-18.796 15.236,-34.033 34.032,-34.033 m 0,-5 0,0 c -21.522,0 -39.032,17.51 -39.033,39.032 0,21.522 17.51,39.033 39.033,39.033 21.523,-0.001 39.033,-17.511 39.033,-39.033 -0.001,-21.522 -17.511,-39.031 -39.033,-39.032 l 0,0 z"
         id="path37" /></g><g
       id="g39"><path
         style="fill:#e25941"
         inkscape:connector-curvature="0"
         d="m 210.892,345.547 c -9.758,0 -18.932,-3.8 -25.833,-10.7 -14.244,-14.245 -14.244,-37.422 0,-51.666 6.9,-6.9 16.074,-10.7 25.833,-10.7 9.758,0 18.932,3.8 25.833,10.7 14.243,14.245 14.243,37.421 0,51.666 -6.9,6.899 -16.075,10.7 -25.833,10.7 z"
         id="path41" /><path
         style="fill:#f2e7da"
         inkscape:connector-curvature="0"
         d="m 210.892,274.981 c 8.71,0 17.419,3.323 24.065,9.968 13.29,13.291 13.29,34.839 0,48.13 -6.645,6.645 -15.355,9.968 -24.065,9.968 -8.71,0 -17.42,-3.323 -24.065,-9.968 -13.29,-13.291 -13.29,-34.84 0,-48.13 6.646,-6.645 15.355,-9.968 24.065,-9.968 m 0,-5 c -10.426,0 -20.228,4.06 -27.6,11.432 -15.219,15.219 -15.219,39.982 0,55.201 7.373,7.372 17.175,11.432 27.601,11.432 10.426,0 20.228,-4.06 27.6,-11.432 15.218,-15.219 15.218,-39.982 0,-55.201 -7.373,-7.372 -17.175,-11.432 -27.601,-11.432 l 0,0 z"
         id="path43" /></g><g
       id="g45"><path
         style="fill:#0ea89e"
         inkscape:connector-curvature="0"
         d="m 173.406,433.128 c -20.144,-10e-4 -36.533,-16.389 -36.533,-36.533 0.001,-20.144 16.39,-36.532 36.533,-36.532 20.144,0 36.532,16.388 36.533,36.532 0.001,20.143 -16.388,36.532 -36.533,36.533 l 0,0 z"
         id="path47" /><path
         style="fill:#f2e7da"
         inkscape:connector-curvature="0"
         d="m 173.407,362.562 c 18.796,0 34.032,15.237 34.033,34.033 0,18.795 -15.237,34.033 -34.033,34.033 -18.795,0 -34.033,-15.238 -34.033,-34.033 0,-18.796 15.237,-34.032 34.033,-34.033 m 0,-5 0,0 c -21.522,10e-4 -39.032,17.51 -39.033,39.032 0,21.523 17.51,39.033 39.033,39.033 21.523,-0.001 39.033,-17.511 39.033,-39.033 -0.001,-21.522 -17.511,-39.032 -39.033,-39.032 l 0,0 z"
         id="path49" /></g><g
       id="g51"><g
         id="g53"><line
           style="fill:none;stroke:#f2e7da;stroke-width:2;stroke-miterlimit:10;stroke-dasharray:3, 3"
           stroke-miterlimit="10"
           x1="400.866"
           y1="356.05899"
           x2="436.24701"
           y2="340.43399"
           id="line55" /><g
           id="g57"><circle
             style="fill:#f2e7da"
             cx="401.03799"
             cy="355.983"
             r="3.76"
             id="circle59" /></g><g
           id="g61"><polygon
             style="fill:#f2e7da"
             points="436.915,345.559 442.8,337.51 432.887,336.437 "
             id="polygon63" /></g></g></g><g
       id="g65"><g
         id="g67"><line
           style="fill:none;stroke:#f2e7da;stroke-width:2;stroke-miterlimit:10;stroke-dasharray:3, 3"
           stroke-miterlimit="10"
           x1="342.414"
           y1="294.311"
           x2="358.077"
           y2="258.94699"
           id="line69" /><g
           id="g71"><circle
             style="fill:#f2e7da"
             cx="342.48999"
             cy="294.13901"
             r="3.76"
             id="circle73" /></g><g
           id="g75"><polygon
             style="fill:#f2e7da"
             points="362.019,262.289 360.958,252.375 352.902,258.251 "
             id="polygon77" /></g></g></g><g
       id="g79"><g
         id="g81"><line
           style="fill:none;stroke:#f2e7da;stroke-width:2;stroke-miterlimit:10;stroke-dasharray:3, 3"
           stroke-miterlimit="10"
           x1="198.463"
           y1="356.05899"
           x2="163.082"
           y2="340.43399"
           id="line83" /><g
           id="g85"><circle
             style="fill:#f2e7da"
             cx="198.291"
             cy="355.983"
             r="3.76"
             id="circle87" /></g><g
           id="g89"><polygon
             style="fill:#f2e7da"
             points="166.42,336.488 156.506,337.56 162.391,345.61 "
             id="polygon91" /></g></g></g><g
       id="g93"><g
         id="g95"><line
           style="fill:none;stroke:#f2e7da;stroke-width:2;stroke-miterlimit:10;stroke-dasharray:3, 3"
           stroke-miterlimit="10"
           x1="256.91501"
           y1="294.311"
           x2="241.252"
           y2="258.94699"
           id="line97" /><g
           id="g99"><circle
             style="fill:#f2e7da"
             cx="256.83899"
             cy="294.13901"
             r="3.76"
             id="circle101" /></g><g
           id="g103"><polygon
             style="fill:#f2e7da"
             points="246.376,258.274 238.32,252.397 237.258,262.312 "
             id="polygon105" /></g></g></g><g
       id="g107"><g
         id="g109"><path
           style="fill:#f2e7da"
           inkscape:connector-curvature="0"
           d="m 423.135,394.65 c -0.333,0.605 -1.093,0.826 -1.698,0.492 l -2.893,-1.591 c -0.606,-0.333 -0.826,-1.094 -0.493,-1.699 l 0,0 c 0.333,-0.605 1.093,-0.826 1.699,-0.492 l 2.892,1.592 c 0.606,0.332 0.827,1.093 0.493,1.698 l 0,0 z"
           id="path111" /><rect
           style="fill:#f2e7da"
           x="421.664"
           y="375.953"
           transform="matrix(0.8761,0.4822,-0.4822,0.8761,238.3423,-157.2675)"
           width="6.9039998"
           height="18.160999"
           id="rect113" /><rect
           style="fill:#3f4953"
           x="418.155"
           y="389.60901"
           transform="matrix(0.8761,0.4822,-0.4822,0.8761,240.9824,-154.7848)"
           width="6.9039998"
           height="3.602"
           id="rect115" /><path
           style="fill:#3f4953"
           inkscape:connector-curvature="0"
           d="m 431.844,377.686 c -0.213,0.387 -0.7,0.528 -1.087,0.315 l -2.717,-1.495 c -0.387,-0.213 -0.528,-0.7 -0.316,-1.087 l 0,0 c 0.214,-0.388 0.7,-0.529 1.088,-0.315 l 2.717,1.496 c 0.387,0.212 0.528,0.698 0.315,1.086 l 0,0 z"
           id="path117" /></g><rect
         style="fill:#f2e7da"
         x="416.82901"
         y="406.91199"
         width="7.4590001"
         height="7.632"
         id="rect119" /><rect
         style="fill:#3f4953"
         x="411.06201"
         y="414.54401"
         width="18.993"
         height="3.6429999"
         id="rect121" /><g
         id="g123"><path
           style="fill:#3f4953"
           inkscape:connector-curvature="0"
           d="m 428.282,407.076 -15.335,0 0,-1.821 15.335,0 c 4.663,0 8.456,-3.794 8.456,-8.456 0,-4.663 -3.793,-8.456 -8.456,-8.456 l 0,-1.821 c 5.667,0 10.277,4.61 10.277,10.277 10e-4,5.667 -4.61,10.277 -10.277,10.277 z"
           id="path125" /></g><circle
         style="fill:#3f4953"
         cx="427.323"
         cy="387.35501"
         r="2.2119999"
         id="circle127" /><circle
         style="fill:#f2e7da"
         cx="427.323"
         cy="387.35501"
         r="1.346"
         id="circle129" /></g><g
       id="g131"><circle
         style="fill:#f2e7da"
         cx="299.108"
         cy="280.672"
         r="14.944"
         id="circle133" /><path
         style="fill:#e25941"
         inkscape:connector-curvature="0"
         d="m 286.941,280.672 c 0,6.72 5.447,12.168 12.167,12.168 6.72,0 12.167,-5.447 12.167,-12.168 l -24.334,0 z"
         id="path135" /><circle
         style="fill:#f2e7da"
         cx="302.85699"
         cy="285.09698"
         r="1.4579999"
         id="circle137" /><circle
         style="fill:#f2e7da"
         cx="297.651"
         cy="288.022"
         r="1.4579999"
         id="circle139" /><circle
         style="fill:#f2e7da"
         cx="292.444"
         cy="283.63901"
         r="1.4579999"
         id="circle141" /><rect
         style="fill:#f2e7da"
         x="294.63101"
         y="254.621"
         width="8.9549999"
         height="17.771999"
         id="rect143" /><path
         style="fill:#f2e7da"
         inkscape:connector-curvature="0"
         d="m 304.974,253.648 c 0,1.15 -0.932,2.083 -2.082,2.083 l -7.567,0 c -1.15,0 -2.083,-0.932 -2.083,-2.083 l 0,0 c 0,-1.15 0.932,-2.083 2.083,-2.083 l 7.567,0 c 1.15,0.001 2.082,0.933 2.082,2.083 l 0,0 z"
         id="path145" /></g><g
       id="g147"><path
         style="fill:#f7cc52"
         inkscape:connector-curvature="0"
         d="m 189.908,395.813 c 0,-8.698 -7.051,-15.749 -15.749,-15.749 -8.698,0 -15.749,7.051 -15.749,15.749 l -3.65,0 0,10.535 38.798,0 0,-10.535 -3.65,0 z m -24.354,0 c 0,-4.752 3.853,-8.605 8.605,-8.605 4.752,0 8.605,3.852 8.605,8.605 l -17.21,0 z"
         id="path149" /><rect
         style="fill:#3f4953"
         x="156.71001"
         y="403.11401"
         width="1.095"
         height="3.2190001"
         id="rect151" /><rect
         style="fill:#3f4953"
         x="159.31"
         y="403.11401"
         width="1.095"
         height="3.2190001"
         id="rect153" /><rect
         style="fill:#3f4953"
         x="161.91"
         y="403.11401"
         width="1.095"
         height="3.2190001"
         id="rect155" /><rect
         style="fill:#3f4953"
         x="164.511"
         y="403.11401"
         width="1.095"
         height="3.2190001"
         id="rect157" /><rect
         style="fill:#3f4953"
         x="167.11099"
         y="403.11401"
         width="1.095"
         height="3.2190001"
         id="rect159" /><rect
         style="fill:#3f4953"
         x="169.711"
         y="403.11401"
         width="1.095"
         height="3.2190001"
         id="rect161" /><rect
         style="fill:#3f4953"
         x="172.311"
         y="403.11401"
         width="1.095"
         height="3.2190001"
         id="rect163" /><rect
         style="fill:#3f4953"
         x="174.911"
         y="403.11401"
         width="1.095"
         height="3.2190001"
         id="rect165" /><rect
         style="fill:#3f4953"
         x="177.51199"
         y="403.11401"
         width="1.095"
         height="3.2190001"
         id="rect167" /><rect
         style="fill:#3f4953"
         x="180.112"
         y="403.11401"
         width="1.095"
         height="3.2190001"
         id="rect169" /><rect
         style="fill:#3f4953"
         x="182.71201"
         y="403.11401"
         width="1.095"
         height="3.2190001"
         id="rect171" /><rect
         style="fill:#3f4953"
         x="185.313"
         y="403.11401"
         width="1.095"
         height="3.2190001"
         id="rect173" /><rect
         style="fill:#3f4953"
         x="187.91299"
         y="403.11401"
         width="1.095"
         height="3.2190001"
         id="rect175" /><rect
         style="fill:#3f4953"
         x="190.513"
         y="403.11401"
         width="1.095"
         height="3.2190001"
         id="rect177" /></g><g
       id="g179"><path
         style="fill:#3f4953"
         inkscape:connector-curvature="0"
         d="m 221.514,327.924 -8.911,-20.464 0,-3.29 c 0,-0.945 -0.766,-1.711 -1.711,-1.711 -0.945,0 -1.711,0.766 -1.711,1.711 l 0,3.013 -8.912,20.465 c -0.153,0.464 0.099,0.964 0.563,1.116 0.464,0.153 0.964,-0.099 1.117,-0.563 l 8.037,-17.813 0,19.104 c 0,0.488 0.396,0.884 0.884,0.884 0.488,0 0.884,-0.396 0.884,-0.884 l 0,-18.961 8.081,17.947 c 0.153,0.464 0.653,0.716 1.117,0.563 0.464,-0.154 0.715,-0.653 0.562,-1.117 z"
         id="path181" /><g
         id="g183"><path
           style="fill:#3f4953"
           inkscape:connector-curvature="0"
           d="m 199.736,301.521 c 0.23,0.626 -0.092,1.32 -0.718,1.55 l -3.059,1.122 c -0.626,0.23 -1.32,-0.092 -1.549,-0.718 l 0,0 c -0.23,-0.626 0.092,-1.32 0.717,-1.549 l 3.059,-1.122 c 0.627,-0.231 1.321,0.091 1.55,0.717 l 0,0 z"
           id="path185" /><rect
           style="fill:#f2e7da"
           x="196.145"
           y="292.59399"
           transform="matrix(0.9388,-0.3444,0.3444,0.9388,-89.4489,90.9622)"
           width="30.360001"
           height="9.3529997"
           id="rect187" /><rect
           style="fill:#f7cc52"
           x="222.752"
           y="287.867"
           transform="matrix(0.9388,-0.3444,0.3444,0.9388,-87.0419,95.1238)"
           width="2.9130001"
           height="9.3529997"
           id="rect189" /><rect
           style="fill:#3f4953"
           x="225.554"
           y="288.46701"
           transform="matrix(0.9388,-0.3443,0.3443,0.9388,-86.7002,95.6407)"
           width="0.72899997"
           height="6.8990002"
           id="rect191" /><rect
           style="fill:#f7cc52"
           x="196.98399"
           y="297.32001"
           transform="matrix(0.9388,-0.3444,0.3444,0.9388,-91.8741,86.8271)"
           width="2.9130001"
           height="9.3529997"
           id="rect193" /><rect
           style="fill:#3f4953"
           x="210.96001"
           y="292.59399"
           transform="matrix(0.939,-0.344,0.344,0.939,-89.3715,90.8493)"
           width="0.72899997"
           height="9.3529997"
           id="rect195" /></g></g><g
       id="g197"><g
         id="g199"><circle
           style="fill:#3f4953"
           cx="387.67099"
           cy="306.15799"
           r="14.8"
           id="circle201" /></g><g
         id="g203"><circle
           style="fill:#f2e7da"
           cx="387.67099"
           cy="306.15799"
           r="13.409"
           id="circle205" /></g><path
         style="fill:#3f4953"
         inkscape:connector-curvature="0"
         d="m 401.776,307.052 0,-1.788 -5.788,0 c -0.112,-2.004 -0.575,-3.948 -1.344,-5.78 1.382,-0.92 2.637,-2.119 3.698,-3.573 l -1.444,-1.054 c -0.88,1.206 -1.908,2.213 -3.035,2.998 -1.33,-2.442 -3.242,-4.629 -5.664,-6.397 l -0.434,0.595 -0.186,0 -0.434,-0.595 c -2.367,1.727 -4.245,3.856 -5.57,6.23 -1.025,-0.758 -1.956,-1.704 -2.754,-2.823 l -1.455,1.038 c 0.975,1.368 2.127,2.514 3.403,3.413 -0.812,1.88 -1.299,3.883 -1.414,5.948 l -5.788,0 0,1.788 5.787,0 c 0.091,1.975 0.512,3.89 1.237,5.691 -1.205,0.879 -2.296,1.979 -3.225,3.283 l 1.455,1.038 c 0.742,-1.04 1.6,-1.93 2.539,-2.66 1.336,2.524 3.296,4.765 5.792,6.544 l 0.488,-0.685 0.062,0 0.488,0.685 c 2.554,-1.821 4.545,-4.126 5.882,-6.723 1.044,0.763 2,1.716 2.825,2.847 l 1.444,-1.054 c -1.014,-1.389 -2.205,-2.548 -3.514,-3.452 0.682,-1.749 1.073,-3.604 1.162,-5.514 l 5.787,0 z m -7.582,-1.787 -5.629,0 0,-3.687 c 1.566,-0.098 3.089,-0.51 4.513,-1.197 0.629,1.555 1.011,3.196 1.116,4.884 z m -1.875,-6.504 c -1.189,0.577 -2.456,0.926 -3.754,1.022 l 0,-5.729 c 1.555,1.384 2.819,2.975 3.754,4.707 z m -5.542,-4.706 0,5.699 c -1.282,-0.135 -2.525,-0.514 -3.684,-1.115 0.928,-1.686 2.167,-3.234 3.684,-4.584 z m -4.459,6.196 c 1.398,0.717 2.903,1.161 4.459,1.299 l 0,3.715 -5.629,0 c 0.108,-1.735 0.51,-3.421 1.17,-5.014 z m -1.176,6.801 5.635,0 0,3.328 c -1.625,0.144 -3.195,0.62 -4.644,1.393 -0.57,-1.503 -0.906,-3.089 -0.991,-4.721 z m 1.723,6.358 c 1.224,-0.672 2.546,-1.09 3.913,-1.233 l 0,6.194 c -1.646,-1.437 -2.964,-3.117 -3.913,-4.961 z m 5.7,4.961 0,-6.224 c 1.38,0.103 2.723,0.492 3.977,1.135 -0.954,1.894 -2.294,3.62 -3.977,5.089 z m 4.693,-6.732 c -1.476,-0.741 -3.06,-1.185 -4.692,-1.287 l 0,-3.3 5.635,0 c -0.083,1.583 -0.404,3.123 -0.943,4.587 z"
         id="path207" /><path
         style="fill:#f7cc52"
         inkscape:connector-curvature="0"
         d="m 406.543,306.158 c 0,-10.406 -8.466,-18.872 -18.872,-18.872 -0.494,0 -0.894,0.4 -0.894,0.894 0,0.494 0.4,0.894 0.894,0.894 9.42,0 17.084,7.664 17.084,17.084 0,9.421 -7.664,17.085 -17.084,17.085 -0.494,0 -0.894,0.4 -0.894,0.894 0,0.494 0.4,0.894 0.894,0.894 0.643,0 1.28,-0.033 1.907,-0.096 l 0,3.349 -3.635,0 c -1.358,0 -2.458,1.101 -2.458,2.458 l 6.094,0 1.818,0 6.094,0 c 0,-1.358 -1.101,-2.458 -2.458,-2.458 l -3.636,0 0,-3.624 c 8.627,-1.735 15.146,-9.37 15.146,-18.502 z"
         id="path209" /></g><circle
       style="fill:#a6a6ac"
       cx="300.01401"
       cy="368.20099"
       r="58.749001"
       id="circle211" /><path
       style="fill:#3f4953"
       inkscape:connector-curvature="0"
       d="m 368.137,366.994 c 0,-37.623 -30.5,-68.123 -68.123,-68.123 -37.623,0 -68.123,30.5 -68.123,68.123 0,33.626 24.365,61.559 56.403,67.115 l 0,17.338 23.44,0 0,-17.338 c 32.038,-5.556 56.403,-33.489 56.403,-67.115 z m -68.123,51.182 c -28.267,0 -51.182,-22.915 -51.182,-51.182 0,-28.267 22.915,-51.182 51.182,-51.182 28.267,0 51.182,22.915 51.182,51.182 0,28.266 -22.915,51.182 -51.182,51.182 z"
       id="path213" /><rect
       style="fill:#efa78f"
       x="288.65399"
       y="492.38"
       width="45.110001"
       height="67.318001"
       id="rect215" /><rect
       style="fill:#efa78f"
       x="267.746"
       y="529.22302"
       width="65.499001"
       height="45.313"
       id="rect217" /><path
       style="fill:#efa78f"
       inkscape:connector-curvature="0"
       d="m 250.916,470.244 c 0,-7.37 5.974,-13.343 13.343,-13.343 l 56.162,0 c 7.369,0 13.343,5.974 13.343,13.343 l 0,52.004 c 0,7.369 -5.974,13.343 -13.343,13.343 l -56.162,0 c -7.369,0 -13.343,-5.974 -13.343,-13.343 l 0,-52.004 z"
       id="path219" /><rect
       style="fill:#0ea89e"
       x="287.49701"
       y="446.89499"
       width="25.032"
       height="70.957001"
       id="rect221" /><path
       style="fill:#efa78f"
       inkscape:connector-curvature="0"
       d="m 345.317,448.547 c 1.795,5.359 -1.095,11.16 -6.455,12.954 l -30.49,10.209 c -5.36,1.795 -11.16,-1.095 -12.954,-6.456 l 0,0 c -1.795,-5.359 1.095,-11.159 6.455,-12.954 l 30.49,-10.209 c 5.36,-1.794 11.159,1.096 12.954,6.456 l 0,0 z"
       id="path223" /><path
       style="fill:#efa78f"
       inkscape:connector-curvature="0"
       d="m 333.675,538.449 c 0,0 17.45,-16.71 12.855,-28.827 -5.484,-14.461 -19.83,5.477 -19.83,5.477 l 6.975,23.35 z"
       id="path225" /><path
       style="opacity:0.3;fill:#efa78f"
       inkscape:connector-curvature="0"
       d="m 346.53,509.622 c -2.914,-7.683 -8.33,-5.656 -12.766,-2.067 l 0,-37.31 c 0,-7.37 -3.537,-13.343 -7.899,-13.343 l -33.249,0 c -0.002,0 -0.004,0 -0.007,0 l 7.887,0 0,72.322 0,6.368 0,38.945 33.231,0 0,-36.138 c 1.041,-1.014 17.25,-17.048 12.803,-28.777 z"
       id="path227" /><path
       style="fill:#efa78f"
       inkscape:connector-curvature="0"
       d="m 345.317,448.547 c 1.795,5.359 -1.095,11.16 -6.455,12.954 l -30.49,10.209 c -5.36,1.795 -11.16,-1.095 -12.954,-6.456 l 0,0 c -1.795,-5.359 1.095,-11.159 6.455,-12.954 l 30.49,-10.209 c 5.36,-1.794 11.159,1.096 12.954,6.456 l 0,0 z"
       id="path229" /><path
       style="fill:#efa78f"
       inkscape:connector-curvature="0"
       d="m 345.317,469.016 c 1.795,5.36 -1.095,11.16 -6.455,12.954 l -30.49,10.209 c -5.36,1.795 -11.16,-1.095 -12.954,-6.455 l 0,0 c -1.795,-5.36 1.095,-11.16 6.455,-12.954 l 30.49,-10.209 c 5.36,-1.795 11.159,1.095 12.954,6.455 l 0,0 z"
       id="path231" /><path
       style="fill:#efa78f"
       inkscape:connector-curvature="0"
       d="m 346.53,509.622 c 1.795,5.36 -1.095,11.16 -6.455,12.955 l -30.49,10.209 c -5.36,1.795 -11.16,-1.095 -12.954,-6.456 l 0,0 c -1.795,-5.359 1.095,-11.159 6.455,-12.954 l 30.49,-10.21 c 5.36,-1.794 11.159,1.096 12.954,6.456 l 0,0 z"
       id="path233" /><path
       style="fill:#efa78f"
       inkscape:connector-curvature="0"
       d="m 345.317,489.361 c 1.795,5.359 -1.095,11.16 -6.455,12.954 l -30.49,10.209 c -5.36,1.795 -11.16,-1.095 -12.954,-6.455 l 0,0 c -1.795,-5.359 1.095,-11.159 6.455,-12.954 l 30.49,-10.209 c 5.36,-1.795 11.159,1.095 12.954,6.455 l 0,0 z"
       id="path235" /><path
       style="opacity:0.1;fill:#efa78f"
       inkscape:connector-curvature="0"
       d="m 345.317,448.547 c 1.795,5.359 -1.095,11.16 -6.455,12.954 l -30.49,10.209 c -5.36,1.795 -11.16,-1.095 -12.954,-6.456 l 0,0 c -1.795,-5.359 1.095,-11.159 6.455,-12.954 l 30.49,-10.209 c 5.36,-1.794 11.159,1.096 12.954,6.456 l 0,0 z"
       id="path237" /><path
       style="opacity:0.1;fill:#efa78f"
       inkscape:connector-curvature="0"
       d="m 345.317,469.016 c 1.795,5.36 -1.095,11.16 -6.455,12.954 l -30.49,10.209 c -5.36,1.795 -11.16,-1.095 -12.954,-6.455 l 0,0 c -1.795,-5.36 1.095,-11.16 6.455,-12.954 l 30.49,-10.209 c 5.36,-1.795 11.159,1.095 12.954,6.455 l 0,0 z"
       id="path239" /><path
       style="opacity:0.1;fill:#efa78f"
       inkscape:connector-curvature="0"
       d="m 346.53,509.622 c 1.795,5.36 -1.095,11.16 -6.455,12.955 l -30.49,10.209 c -5.36,1.795 -11.16,-1.095 -12.954,-6.456 l 0,0 c -1.795,-5.359 1.095,-11.159 6.455,-12.954 l 30.49,-10.21 c 5.36,-1.794 11.159,1.096 12.954,6.456 l 0,0 z"
       id="path241" /><path
       style="opacity:0.1;fill:#efa78f"
       inkscape:connector-curvature="0"
       d="m 345.317,489.361 c 1.795,5.359 -1.095,11.16 -6.455,12.954 l -30.49,10.209 c -5.36,1.795 -11.16,-1.095 -12.954,-6.455 l 0,0 c -1.795,-5.359 1.095,-11.159 6.455,-12.954 l 30.49,-10.209 c 5.36,-1.795 11.159,1.095 12.954,6.455 l 0,0 z"
       id="path243" /><rect
       style="fill:#f7cc52"
       x="262.68701"
       y="551.88"
       width="74.652"
       height="22.656"
       id="rect245" /><path
       style="fill:#f7f1ea"
       inkscape:connector-curvature="0"
       d="m 302.372,495.091 c -4.095,1.083 -6.536,5.282 -5.453,9.376 1.083,4.095 5.282,6.537 9.377,5.453 l -3.924,-14.829 z"
       id="path247" /><path
       style="fill:#f7f1ea"
       inkscape:connector-curvature="0"
       d="m 304.432,515.718 c -4.095,1.084 -6.537,5.282 -5.453,9.377 1.083,4.095 5.282,6.536 9.376,5.453 l -3.923,-14.83 z"
       id="path249" /><path
       style="fill:#f7f1ea"
       inkscape:connector-curvature="0"
       d="m 303.585,454.485 c -4.095,1.083 -6.536,5.281 -5.453,9.376 1.084,4.095 5.282,6.537 9.377,5.453 l -3.924,-14.829 z"
       id="path251" /><path
       style="fill:#efa78f"
       inkscape:connector-curvature="0"
       d="m 303.539,467.135 c 0,5.652 -4.582,10.235 -10.234,10.235 l -32.154,0 c -5.652,0 -10.234,-4.583 -10.234,-10.235 l 0,0 c 0,-5.652 4.582,-10.234 10.234,-10.234 l 32.154,0 c 5.652,0 10.234,4.582 10.234,10.234 l 0,0 z"
       id="path253" /><path
       style="fill:#efa78f"
       inkscape:connector-curvature="0"
       d="m 314.854,490.178 c -4.201,3.782 -10.672,3.443 -14.454,-0.758 l -13.055,-15.437 c -3.782,-4.201 -3.443,-10.672 0.758,-14.454 l 0,0 c 4.201,-3.782 10.672,-3.443 14.454,0.758 l 13.055,15.437 c 3.782,4.202 3.443,10.673 -0.758,14.454 l 0,0 z"
       id="path255" /><path
       style="fill:#f7f1ea"
       inkscape:connector-curvature="0"
       d="m 301.298,485.689 c 2.297,3.559 7.045,4.582 10.603,2.284 3.559,-2.297 4.582,-7.044 2.285,-10.603 l -12.888,8.319 z"
       id="path257" /><path
       style="fill:#e25941"
       inkscape:connector-curvature="0"
       d="m 304.467,385.432 c 0,1.147 -0.929,2.076 -2.077,2.076 l -4.753,0 c -1.147,0 -2.076,-0.929 -2.076,-2.076 l 0,0 c 0,-1.147 0.93,-2.075 2.076,-2.075 l 4.753,0 c 1.148,0 2.077,0.929 2.077,2.075 l 0,0 z"
       id="path259" /><rect
       style="fill:#e25941"
       x="267.97299"
       y="347.474"
       width="64.081001"
       height="38.632"
       id="rect261" /><g
       id="g263"><g
         id="g265"><g
           id="g267"><path
             style="fill:#f4eae0"
             inkscape:connector-curvature="0"
             d="m 300.014,384.221 c -10.146,-2.101 -20.614,-2.101 -30.76,0 0,-13.04 0,-26.08 0,-39.121 10.146,-2.101 20.614,-2.101 30.76,0 0,13.041 0,26.081 0,39.121 z"
             id="path269" /><path
             style="fill:#0ea89e"
             inkscape:connector-curvature="0"
             d="m 280.576,359.654 c -2.507,0.134 -5.009,0.393 -7.497,0.777 0,-3.745 0,-7.491 0,-11.236 2.488,-0.384 4.99,-0.642 7.497,-0.777 0,3.745 0,7.49 0,11.236 z"
             id="path271" /><path
             style="fill:#3f4953"
             inkscape:connector-curvature="0"
             d="m 295.189,350.401 c -4.256,-0.598 -8.551,-0.833 -12.837,-0.704 0,-0.451 0,-0.902 0,-1.354 4.286,-0.129 8.581,0.105 12.837,0.704 0,0.451 0,0.903 0,1.354 z"
             id="path273" /><path
             style="fill:#3f4953"
             inkscape:connector-curvature="0"
             d="m 295.189,353.105 c -4.256,-0.598 -8.551,-0.833 -12.837,-0.704 0,-0.451 0,-0.902 0,-1.353 4.286,-0.129 8.581,0.106 12.837,0.704 0,0.451 0,0.902 0,1.353 z"
             id="path275" /><path
             style="fill:#3f4953"
             inkscape:connector-curvature="0"
             d="m 295.189,355.81 c -4.256,-0.598 -8.551,-0.833 -12.837,-0.704 0,-0.451 0,-0.902 0,-1.352 4.286,-0.129 8.581,0.106 12.837,0.704 0,0.45 0,0.901 0,1.352 z"
             id="path277" /><path
             style="fill:#3f4953"
             inkscape:connector-curvature="0"
             d="m 295.189,358.514 c -4.256,-0.598 -8.551,-0.833 -12.837,-0.704 0,-0.451 0,-0.902 0,-1.352 4.286,-0.129 8.581,0.106 12.837,0.704 0,0.451 0,0.902 0,1.352 z"
             id="path279" /><path
             style="fill:#3f4953"
             inkscape:connector-curvature="0"
             d="m 295.189,361.219 c -4.256,-0.598 -8.551,-0.833 -12.837,-0.704 0,-0.451 0,-0.902 0,-1.353 4.286,-0.129 8.581,0.105 12.837,0.704 0,0.451 0,0.902 0,1.353 z"
             id="path281" /><path
             style="fill:#3f4953"
             inkscape:connector-curvature="0"
             d="m 295.189,363.923 c -7.301,-1.026 -14.714,-0.982 -22.006,0.132 0,-0.451 0,-0.901 0,-1.352 7.291,-1.114 14.705,-1.158 22.006,-0.132 0,0.451 0,0.901 0,1.352 z"
             id="path283" /><path
             style="fill:#3f4953"
             inkscape:connector-curvature="0"
             d="m 295.189,366.629 c -7.301,-1.026 -14.714,-0.982 -22.006,0.132 0,-0.451 0,-0.902 0,-1.353 7.291,-1.114 14.705,-1.158 22.006,-0.132 0,0.451 0,0.902 0,1.353 z"
             id="path285" /><path
             style="fill:#3f4953"
             inkscape:connector-curvature="0"
             d="m 295.189,369.333 c -7.301,-1.026 -14.714,-0.982 -22.006,0.132 0,-0.451 0,-0.902 0,-1.353 7.291,-1.114 14.705,-1.158 22.006,-0.132 0,0.452 0,0.903 0,1.353 z"
             id="path287" /><path
             style="fill:#3f4953"
             inkscape:connector-curvature="0"
             d="m 295.189,372.037 c -7.301,-1.026 -14.714,-0.982 -22.006,0.132 0,-0.451 0,-0.901 0,-1.352 7.291,-1.114 14.705,-1.158 22.006,-0.132 0,0.451 0,0.902 0,1.352 z"
             id="path289" /><path
             style="fill:#3f4953"
             inkscape:connector-curvature="0"
             d="m 295.189,374.742 c -7.301,-1.026 -14.714,-0.982 -22.006,0.132 0,-0.451 0,-0.901 0,-1.352 7.291,-1.114 14.705,-1.158 22.006,-0.132 0,0.451 0,0.901 0,1.352 z"
             id="path291" /><path
             style="fill:#3f4953"
             inkscape:connector-curvature="0"
             d="m 295.189,377.448 c -7.301,-1.026 -14.714,-0.982 -22.006,0.132 0,-0.451 0,-0.902 0,-1.353 7.291,-1.114 14.705,-1.158 22.006,-0.132 0,0.451 0,0.902 0,1.353 z"
             id="path293" /></g></g><g
         id="g295"><g
           id="g297"><path
             style="fill:#f4eae0"
             inkscape:connector-curvature="0"
             d="m 330.773,384.221 c -10.145,-2.101 -20.614,-2.101 -30.759,0 0,-13.04 0,-26.08 0,-39.121 10.145,-2.101 20.614,-2.101 30.759,0 0,13.041 0,26.081 0,39.121 z"
             id="path299" /><path
             style="fill:#3f4953"
             inkscape:connector-curvature="0"
             d="m 325.947,350.401 c -7.301,-1.026 -14.715,-0.982 -22.006,0.132 0,-0.451 0,-0.902 0,-1.354 7.292,-1.114 14.705,-1.158 22.006,-0.132 0,0.451 0,0.903 0,1.354 z"
             id="path301" /><path
             style="fill:#3f4953"
             inkscape:connector-curvature="0"
             d="m 325.947,353.105 c -7.301,-1.026 -14.715,-0.982 -22.006,0.132 0,-0.451 0,-0.902 0,-1.353 7.292,-1.114 14.705,-1.158 22.006,-0.132 0,0.451 0,0.902 0,1.353 z"
             id="path303" /><path
             style="fill:#3f4953"
             inkscape:connector-curvature="0"
             d="m 325.947,355.81 c -7.301,-1.026 -14.715,-0.982 -22.006,0.132 0,-0.451 0,-0.902 0,-1.352 7.292,-1.114 14.705,-1.158 22.006,-0.132 0,0.45 0,0.901 0,1.352 z"
             id="path305" /><path
             style="fill:#3f4953"
             inkscape:connector-curvature="0"
             d="m 325.947,358.514 c -7.301,-1.026 -14.715,-0.982 -22.006,0.132 0,-0.451 0,-0.902 0,-1.352 7.292,-1.114 14.705,-1.158 22.006,-0.132 0,0.451 0,0.901 0,1.352 z"
             id="path307" /><path
             style="fill:#3f4953"
             inkscape:connector-curvature="0"
             d="m 325.947,361.219 c -7.301,-1.026 -14.715,-0.982 -22.006,0.132 0,-0.451 0,-0.902 0,-1.353 7.292,-1.114 14.705,-1.158 22.006,-0.132 0,0.451 0,0.902 0,1.353 z"
             id="path309" /><path
             style="fill:#3f4953"
             inkscape:connector-curvature="0"
             d="m 325.947,363.923 c -7.301,-1.026 -14.715,-0.982 -22.006,0.132 0,-0.451 0,-0.901 0,-1.352 7.292,-1.114 14.705,-1.158 22.006,-0.132 0,0.45 0,0.901 0,1.352 z"
             id="path311" /><path
             style="fill:#3f4953"
             inkscape:connector-curvature="0"
             d="m 325.947,366.629 c -7.301,-1.026 -14.715,-0.982 -22.006,0.132 0,-0.451 0,-0.902 0,-1.353 7.292,-1.114 14.705,-1.158 22.006,-0.132 0,0.451 0,0.902 0,1.353 z"
             id="path313" /><path
             style="fill:#3f4953"
             inkscape:connector-curvature="0"
             d="m 325.947,369.333 c -7.301,-1.026 -14.715,-0.982 -22.006,0.132 0,-0.451 0,-0.902 0,-1.353 7.292,-1.114 14.705,-1.158 22.006,-0.132 0,0.452 0,0.902 0,1.353 z"
             id="path315" /><path
             style="fill:#3f4953"
             inkscape:connector-curvature="0"
             d="m 325.947,372.037 c -7.301,-1.026 -14.715,-0.982 -22.006,0.132 0,-0.451 0,-0.901 0,-1.352 7.292,-1.114 14.705,-1.158 22.006,-0.132 0,0.451 0,0.902 0,1.352 z"
             id="path317" /><path
             style="fill:#3f4953"
             inkscape:connector-curvature="0"
             d="m 325.947,374.742 c -7.301,-1.026 -14.715,-0.982 -22.006,0.132 0,-0.451 0,-0.901 0,-1.352 7.292,-1.114 14.705,-1.158 22.006,-0.132 0,0.451 0,0.901 0,1.352 z"
             id="path319" /><path
             style="fill:#3f4953"
             inkscape:connector-curvature="0"
             d="m 325.947,377.448 c -7.301,-1.026 -14.715,-0.982 -22.006,0.132 0,-0.451 0,-0.902 0,-1.353 7.292,-1.114 14.705,-1.158 22.006,-0.132 0,0.451 0,0.902 0,1.353 z"
             id="path321" /></g></g></g></g></svg>