<svg xmlns="http://www.w3.org/2000/svg" width="799.92" height="799.92" viewBox="0 0 799.92 799.92"><g transform="translate(87.294 -62.209)"><path stroke-miterlimit="10" d="M424.81 392.215c0-69.873-56.643-126.516-126.516-126.516s-126.516 56.64-126.516 126.51" fill="none" stroke="#f2e7da" stroke-width="6"/><path stroke-miterlimit="10" d="M413.058 383.582c0-60.337-54.426-109.25-114.763-109.25s-114.762 48.913-114.762 109.25" fill="none" stroke="#f2e7da"/><path d="M387.324 345.547c-9.758 0-18.932-3.8-25.832-10.7-14.243-14.245-14.243-37.42 0-51.666 6.9-6.9 16.075-10.7 25.833-10.7s18.932 3.8 25.832 10.7c6.9 6.9 10.7 16.08 10.7 25.84 0 9.76-3.8 18.932-10.7 25.832-6.9 6.9-16.074 10.7-25.833 10.7z" fill="#0ea89e"/><path d="M387.325 274.98c8.71 0 17.42 3.324 24.065 9.97 13.29 13.29 13.29 34.838 0 48.13-6.646 6.644-15.355 9.967-24.065 9.967s-17.42-3.323-24.065-9.968c-13.29-13.297-13.29-34.84 0-48.13 6.645-6.65 15.355-9.97 24.065-9.97m0-5c-10.426 0-20.228 4.06-27.6 11.43-15.218 15.22-15.218 39.98 0 55.2 7.372 7.37 17.174 11.43 27.6 11.43 10.426 0 20.228-4.06 27.6-11.43 15.22-15.22 15.22-39.983 0-55.2-7.373-7.373-17.174-11.433-27.6-11.433z" fill="#f2e7da"/><path stroke-miterlimit="10" d="M437.195 402.075c0-80.764-58.136-146.237-138.9-146.237-80.764 0-138.902 65.473-138.902 146.237" fill="none" stroke="#f2e7da" stroke-width="1.339" stroke-dasharray="3, 3"/><path d="M299.108 310.124c-20.144 0-36.533-16.39-36.533-36.533s16.39-36.53 36.533-36.53c20.144 0 36.533 16.39 36.533 36.53 0 20.15-16.382 36.54-36.53 36.54z" fill="#f7cc52"/><path d="M299.108 239.56c18.795 0 34.033 15.236 34.033 34.032 0 18.796-15.23 34.033-34.03 34.033s-34.03-15.237-34.03-34.033c0-18.797 15.238-34.033 34.033-34.033m0-5c-21.523 0-39.033 17.51-39.033 39.03s17.51 39.03 39.032 39.03 39.03-17.51 39.03-39.033-17.51-39.033-39.03-39.033z" fill="#f2e7da"/><path d="M424.81 433.128c-20.145 0-36.533-16.39-36.533-36.533 0-20.144 16.39-36.532 36.533-36.532 20.144 0 36.532 16.39 36.533 36.532 0 20.143-16.388 36.532-36.533 36.533z" fill="#e25941"/><path d="M424.81 362.562c18.796 0 34.033 15.237 34.034 34.033 0 18.795-15.238 34.033-34.033 34.033s-34.03-15.238-34.03-34.033c0-18.796 15.24-34.033 34.03-34.033m0-5c-21.52 0-39.03 17.51-39.03 39.032 0 21.522 17.51 39.033 39.035 39.033s39.034-17.51 39.034-39.033c0-21.522-17.51-39.03-39.034-39.032z" fill="#f2e7da"/><path d="M210.892 345.547c-9.758 0-18.932-3.8-25.833-10.7-14.25-14.245-14.25-37.422 0-51.666 6.9-6.9 16.07-10.7 25.83-10.7 9.76 0 18.93 3.8 25.83 10.7 14.243 14.25 14.243 37.427 0 51.67-6.9 6.9-16.075 10.7-25.833 10.7z" fill="#e25941"/><path d="M210.892 274.98c8.71 0 17.42 3.324 24.065 9.97 13.29 13.29 13.29 34.838 0 48.13-6.645 6.644-15.355 9.967-24.065 9.967s-17.42-3.323-24.065-9.968c-13.29-13.297-13.29-34.84 0-48.13 6.646-6.65 15.355-9.97 24.065-9.97m0-5c-10.426 0-20.228 4.06-27.6 11.43-15.22 15.22-15.22 39.98 0 55.2 7.373 7.37 17.175 11.43 27.6 11.43 10.427 0 20.23-4.06 27.6-11.43 15.22-15.22 15.22-39.98 0-55.2-7.372-7.373-17.174-11.433-27.6-11.433z" fill="#f2e7da"/><path d="M173.406 433.128c-20.144 0-36.533-16.39-36.533-36.533 0-20.144 16.39-36.532 36.533-36.532 20.144 0 36.532 16.388 36.533 36.532 0 20.143-16.39 36.532-36.54 36.533z" fill="#0ea89e"/><path d="M173.407 362.562c18.796 0 34.032 15.237 34.033 34.033 0 18.795-15.237 34.033-34.033 34.033-18.795 0-34.033-15.238-34.033-34.033 0-18.796 15.237-34.032 34.033-34.033m0-5c-21.522 0-39.032 17.51-39.033 39.032 0 21.523 17.51 39.033 39.033 39.033s39.033-17.51 39.033-39.033c0-21.522-17.51-39.032-39.033-39.032z" fill="#f2e7da"/><path stroke-miterlimit="10" fill="none" stroke="#f2e7da" stroke-width="2" stroke-dasharray="3, 3" d="M400.866 356.06l35.38-15.626"/><circle cx="401.038" cy="355.983" r="3.76" fill="#f2e7da"/><path fill="#f2e7da" d="M436.915 345.56l5.885-8.05-9.913-1.073z"/><path stroke-miterlimit="10" fill="none" stroke="#f2e7da" stroke-width="2" stroke-dasharray="3, 3" d="M342.414 294.31l15.663-35.363"/><circle cx="342.49" cy="294.139" r="3.76" fill="#f2e7da"/><path fill="#f2e7da" d="M362.02 262.29l-1.062-9.915-8.056 5.876z"/><path stroke-miterlimit="10" fill="none" stroke="#f2e7da" stroke-width="2" stroke-dasharray="3, 3" d="M198.463 356.06l-35.38-15.626"/><circle cx="198.291" cy="355.983" r="3.76" fill="#f2e7da"/><path fill="#f2e7da" d="M166.42 336.488l-9.914 1.072 5.885 8.05z"/><path stroke-miterlimit="10" fill="none" stroke="#f2e7da" stroke-width="2" stroke-dasharray="3, 3" d="M256.915 294.31l-15.663-35.363"/><circle cx="256.839" cy="294.139" r="3.76" fill="#f2e7da"/><path fill="#f2e7da" d="M246.376 258.274l-8.056-5.877-1.062 9.915zm176.76 136.376c-.334.605-1.094.826-1.7.492l-2.892-1.59c-.606-.334-.826-1.095-.493-1.7.34-.605 1.1-.826 1.7-.492l2.897 1.592c.606.332.827 1.093.493 1.698zm3.342-19.22l6.048 3.33-8.757 15.91-6.05-3.328z"/><path fill="#3f4953" d="M419.46 388.186l6.047 3.33-1.737 3.155-6.048-3.323zm12.384-10.5c-.213.387-.7.528-1.087.315l-2.717-1.49c-.387-.212-.528-.7-.316-1.086.214-.39.7-.53 1.088-.315l2.717 1.495c.38.213.522.7.31 1.087z"/><path fill="#f2e7da" d="M416.83 406.912h7.458v7.632h-7.46z"/><path fill="#3f4953" d="M411.062 414.544h18.993v3.643h-18.993zm17.22-7.468h-15.335v-1.82h15.335c4.663 0 8.456-3.795 8.456-8.457 0-4.67-3.793-8.46-8.456-8.46v-1.82c5.667 0 10.277 4.61 10.277 10.274 0 5.666-4.61 10.276-10.28 10.276z"/><circle cx="427.323" cy="387.355" r="2.212" fill="#3f4953"/><circle cx="427.323" cy="387.355" r="1.346" fill="#f2e7da"/><circle cx="299.108" cy="280.672" r="14.944" fill="#f2e7da"/><path d="M286.94 280.672c0 6.72 5.448 12.168 12.168 12.168 6.72 0 12.167-5.447 12.167-12.168H286.94z" fill="#e25941"/><circle cx="302.857" cy="285.097" r="1.458" fill="#f2e7da"/><circle cx="297.651" cy="288.022" r="1.458" fill="#f2e7da"/><circle cx="292.444" cy="283.639" r="1.458" fill="#f2e7da"/><path fill="#f2e7da" d="M294.63 254.62h8.956v17.773h-8.955zm10.344-.972c0 1.15-.932 2.083-2.082 2.083h-7.567c-1.15 0-2.083-.93-2.083-2.08s.932-2.08 2.083-2.08h7.567c1.15 0 2.082.933 2.082 2.083z"/><path d="M189.908 395.813c0-8.698-7.05-15.75-15.75-15.75-8.697 0-15.748 7.052-15.748 15.75h-3.65v10.535h38.798v-10.535h-3.65zm-24.354 0c0-4.752 3.853-8.605 8.605-8.605 4.75 0 8.6 3.852 8.6 8.605h-17.21z" fill="#f7cc52"/><path fill="#3f4953" d="M156.71 403.114h1.095v3.22h-1.095zm2.6 0h1.095v3.22h-1.095zm2.6 0h1.095v3.22h-1.095zm2.6 0h1.096v3.22h-1.095zm2.6 0h1.096v3.22h-1.095zm2.6 0h1.096v3.22h-1.095zm2.6 0h1.096v3.22h-1.095zm2.6 0h1.096v3.22h-1.095zm2.602 0h1.095v3.22h-1.095zm2.6 0h1.095v3.22h-1.095zm2.6 0h1.095v3.22h-1.095zm2.6 0h1.096v3.22h-1.095zm2.6 0h1.096v3.22h-1.095zm2.6 0h1.096v3.22h-1.095zm31.002-75.19l-8.91-20.464v-3.29c0-.945-.767-1.71-1.712-1.71s-1.71.765-1.71 1.71v3.013l-8.913 20.465c-.16.464.093.964.56 1.116.46.153.96-.1 1.114-.563l8.036-17.81v19.107c0 .488.397.884.885.884s.884-.396.884-.884v-18.96l8.08 17.946c.153.465.653.717 1.12.564.46-.153.712-.652.56-1.116zm-21.778-26.404c.23.627-.092 1.32-.718 1.55l-3.06 1.123c-.625.23-1.32-.092-1.548-.718-.23-.626.092-1.32.717-1.55l3.06-1.12c.626-.232 1.32.09 1.55.716z"/><path fill="#f2e7da" d="M195.46 298.097l28.503-10.456 3.222 8.787-28.502 10.456z"/><path fill="#f7cc52" d="M221.22 288.658l2.734-1.004 3.22 8.78-2.734 1.004z"/><path fill="#3f4953" d="M224.37 288.795l.683-.25 2.376 6.476-.69.257z"/><path fill="#f7cc52" d="M195.45 298.11l2.736-1.003 3.22 8.78-2.733 1.003z"/><path fill="#3f4953" d="M209.372 293.025l.685-.25 3.217 8.782-.684.25z"/><circle cx="387.671" cy="306.158" r="14.8" fill="#3f4953"/><circle cx="387.671" cy="306.158" r="13.409" fill="#f2e7da"/><path d="M401.776 307.052v-1.788h-5.788c-.112-2.004-.575-3.948-1.344-5.78 1.382-.92 2.637-2.12 3.698-3.573l-1.444-1.05c-.88 1.208-1.908 2.215-3.035 3-1.33-2.442-3.242-4.63-5.664-6.397l-.44.595h-.186l-.435-.595c-2.367 1.725-4.245 3.854-5.57 6.23-1.025-.76-1.956-1.706-2.754-2.825l-1.455 1.038c.976 1.368 2.128 2.514 3.404 3.413-.813 1.88-1.3 3.882-1.415 5.947h-5.788v1.788h5.787c.09 1.975.51 3.89 1.236 5.69-1.205.88-2.296 1.98-3.225 3.284l1.456 1.037c.743-1.04 1.6-1.93 2.54-2.66 1.336 2.524 3.296 4.765 5.792 6.544l.485-.685h.062l.487.685c2.554-1.82 4.545-4.128 5.882-6.725 1.043.763 2 1.716 2.824 2.847l1.445-1.054c-1.012-1.39-2.203-2.55-3.512-3.453.683-1.75 1.074-3.604 1.163-5.514h5.786zm-7.582-1.787h-5.63v-3.687c1.567-.098 3.09-.51 4.514-1.197.63 1.56 1.01 3.2 1.116 4.89zm-1.875-6.504c-1.19.58-2.46.93-3.76 1.028v-5.73c1.555 1.385 2.82 2.976 3.754 4.708zm-5.548-4.7v5.7c-1.282-.136-2.525-.515-3.684-1.116.93-1.686 2.167-3.234 3.684-4.584zm-4.46 6.196c1.4.718 2.904 1.162 4.46 1.3v3.715h-5.63c.11-1.735.51-3.42 1.17-5.014zm-1.175 6.802h5.635v3.328c-1.625.144-3.195.62-4.644 1.393-.57-1.504-.906-3.09-.99-4.72zm1.723 6.358c1.225-.672 2.547-1.09 3.914-1.233v6.194c-1.646-1.436-2.964-3.116-3.913-4.96zm5.7 4.96v-6.223c1.38.103 2.724.49 3.978 1.135-.952 1.894-2.292 3.62-3.975 5.09zm4.694-6.73c-1.476-.742-3.06-1.186-4.692-1.288v-3.3h5.635c-.083 1.583-.404 3.123-.943 4.587z" fill="#3f4953"/><path d="M406.543 306.158c0-10.406-8.466-18.872-18.872-18.872-.49 0-.89.4-.89.894s.4.894.896.894c9.42 0 17.085 7.664 17.085 17.084s-7.664 17.085-17.084 17.085c-.493 0-.893.4-.893.894s.4.894.895.894c.644 0 1.28-.03 1.908-.09v3.35h-3.635c-1.357 0-2.457 1.1-2.457 2.457h14.004c0-1.358-1.1-2.458-2.457-2.458h-3.64v-3.625c8.627-1.734 15.146-9.37 15.146-18.5z" fill="#f7cc52"/><circle cx="300.014" cy="368.201" r="58.749" fill="#a6a6ac"/><path d="M368.137 366.994c0-37.623-30.5-68.123-68.123-68.123-37.623 0-68.123 30.5-68.123 68.13 0 33.625 24.37 61.56 56.41 67.114v17.338h23.44v-17.34c32.037-5.556 56.402-33.49 56.402-67.115zm-68.123 51.182c-28.267 0-51.182-22.915-51.182-51.182 0-28.267 22.915-51.182 51.182-51.182 28.267 0 51.182 22.915 51.182 51.182 0 28.266-22.915 51.182-51.182 51.182z" fill="#3f4953"/><path fill="#efa78f" d="M288.654 492.38h45.11v67.318h-45.11zm-20.908 36.843h65.5v45.313h-65.5zm-16.83-58.98c0-7.37 5.974-13.342 13.343-13.342h56.16c7.37 0 13.34 5.98 13.34 13.35v52.003c0 7.37-5.975 13.343-13.344 13.343h-56.16c-7.37 0-13.345-5.973-13.345-13.342V470.25z"/><path fill="#0ea89e" d="M287.497 446.895h25.032v70.957H287.49z"/><path d="M345.317 448.547c1.795 5.36-1.095 11.16-6.455 12.954l-30.49 10.21c-5.36 1.8-11.16-1.09-12.954-6.45-1.795-5.36 1.095-11.16 6.455-12.955l30.49-10.21c5.36-1.792 11.16 1.098 12.954 6.458zm-11.642 89.903s17.45-16.71 12.855-28.828c-5.484-14.46-19.83 5.477-19.83 5.477l6.975 23.35z" fill="#efa78f"/><path d="M346.53 509.622c-2.914-7.683-8.33-5.656-12.766-2.067v-37.31c0-7.37-3.537-13.343-7.9-13.343H292.61h7.886v117.635h33.23V538.4c1.042-1.015 17.25-17.05 12.804-28.778z" opacity=".3" fill="#efa78f"/><path d="M345.317 448.547c1.795 5.36-1.095 11.16-6.455 12.954l-30.49 10.21c-5.36 1.8-11.16-1.09-12.954-6.45-1.795-5.36 1.095-11.16 6.455-12.955l30.49-10.21c5.36-1.792 11.16 1.098 12.954 6.458zm0 20.47c1.795 5.36-1.095 11.16-6.455 12.953l-30.49 10.21c-5.36 1.794-11.16-1.096-12.954-6.456-1.795-5.36 1.095-11.16 6.455-12.954l30.49-10.21c5.36-1.794 11.16 1.096 12.954 6.456zm1.213 40.605c1.795 5.36-1.095 11.16-6.455 12.955l-30.49 10.21c-5.36 1.794-11.16-1.096-12.954-6.457-1.79-5.36 1.1-11.16 6.46-12.954l30.49-10.21c5.36-1.794 11.16 1.096 12.955 6.456zm-1.213-20.262c1.795 5.36-1.095 11.16-6.455 12.955l-30.49 10.21c-5.36 1.794-11.16-1.096-12.954-6.456-1.795-5.36 1.095-11.16 6.455-12.96l30.49-10.21c5.36-1.794 11.16 1.096 12.954 6.456z" fill="#efa78f"/><path d="M345.317 448.547c1.795 5.36-1.095 11.16-6.455 12.954l-30.49 10.21c-5.36 1.8-11.16-1.09-12.954-6.45-1.795-5.36 1.095-11.16 6.455-12.955l30.49-10.21c5.36-1.792 11.16 1.098 12.954 6.458zm0 20.47c1.795 5.36-1.095 11.16-6.455 12.953l-30.49 10.21c-5.36 1.794-11.16-1.096-12.954-6.456-1.795-5.36 1.095-11.16 6.455-12.954l30.49-10.21c5.36-1.794 11.16 1.096 12.954 6.456zm1.213 40.605c1.795 5.36-1.095 11.16-6.455 12.955l-30.49 10.21c-5.36 1.794-11.16-1.096-12.954-6.457-1.79-5.36 1.1-11.16 6.46-12.954l30.49-10.21c5.36-1.794 11.16 1.096 12.955 6.456zm-1.213-20.262c1.795 5.36-1.095 11.16-6.455 12.955l-30.49 10.21c-5.36 1.794-11.16-1.096-12.954-6.456-1.795-5.36 1.095-11.16 6.455-12.96l30.49-10.21c5.36-1.794 11.16 1.096 12.954 6.456z" opacity=".1" fill="#efa78f"/><path fill="#f7cc52" d="M262.687 551.88h74.652v22.656H262.68z"/><path d="M302.372 495.09c-4.095 1.084-6.536 5.283-5.453 9.377 1.08 4.095 5.28 6.537 9.37 5.453l-3.923-14.83zm2.06 20.628c-4.095 1.084-6.537 5.282-5.453 9.377 1.08 4.095 5.28 6.536 9.37 5.453l-3.923-14.83zm-.847-61.233c-4.095 1.083-6.536 5.28-5.453 9.376 1.084 4.1 5.282 6.54 9.377 5.46l-3.93-14.83z" fill="#f7f1ea"/><path d="M303.54 467.135c0 5.652-4.583 10.235-10.235 10.235H261.15c-5.65 0-10.233-4.583-10.233-10.235 0-5.652 4.582-10.234 10.234-10.234h32.16c5.65 0 10.234 4.588 10.234 10.24zm11.314 23.043c-4.2 3.782-10.672 3.443-14.454-.758l-13.055-15.437c-3.782-4.2-3.443-10.672.758-14.454 4.2-3.788 10.672-3.45 14.454.752l13.055 15.437c3.782 4.202 3.443 10.673-.758 14.454z" fill="#efa78f"/><path d="M301.298 485.69c2.297 3.558 7.045 4.58 10.603 2.283 3.56-2.297 4.588-7.044 2.29-10.603l-12.89 8.32z" fill="#f7f1ea"/><path d="M304.467 385.432c0 1.147-.93 2.076-2.077 2.076h-4.753c-1.147 0-2.076-.93-2.076-2.076 0-1.147.93-2.075 2.08-2.075h4.755c1.15 0 2.078.93 2.078 2.075zm-36.494-37.958h64.08v38.632h-64.08z" fill="#e25941"/><path d="M300.014 384.22c-10.146-2.1-20.614-2.1-30.76 0V345.1c10.146-2.1 20.614-2.1 30.76 0v39.12z" fill="#f4eae0"/><path d="M280.576 359.654c-2.507.134-5.01.393-7.497.777V349.2c2.482-.384 4.99-.642 7.49-.777v11.236z" fill="#0ea89e"/><path d="M295.19 350.4c-4.257-.597-8.552-.832-12.838-.703v-1.354c4.286-.13 8.58.105 12.837.704v1.354zm0 2.705c-4.257-.598-8.552-.833-12.838-.704v-1.35c4.286-.13 8.58.11 12.837.707v1.353zm0 2.705c-4.257-.598-8.552-.833-12.838-.704v-1.352c4.286-.13 8.58.106 12.837.704v1.352zm0 2.704c-4.257-.598-8.552-.833-12.838-.704v-1.352c4.286-.13 8.58.106 12.837.704v1.352zm0 2.706c-4.257-.6-8.552-.834-12.838-.705v-1.353c4.286-.13 8.58.105 12.837.704v1.353zm0 2.703c-7.302-1.026-14.715-.982-22.007.132v-1.352c7.29-1.114 14.705-1.158 22.006-.132v1.358zm0 2.707c-7.302-1.027-14.715-.983-22.007.13v-1.352c7.29-1.114 14.705-1.158 22.006-.132v1.353zm0 2.703c-7.302-1.026-14.715-.982-22.007.132v-1.353c7.29-1.114 14.705-1.158 22.006-.132v1.353zm0 2.704c-7.302-1.026-14.715-.982-22.007.132v-1.358c7.29-1.114 14.705-1.158 22.006-.132v1.353zm0 2.705c-7.302-1.026-14.715-.982-22.007.132v-1.352c7.29-1.114 14.705-1.158 22.006-.132v1.352zm0 2.706c-7.302-1.026-14.715-.982-22.007.132v-1.353c7.29-1.114 14.705-1.158 22.006-.132v1.353z" fill="#3f4953"/><path d="M330.773 384.22c-10.145-2.1-20.614-2.1-30.76 0V345.1c10.146-2.1 20.615-2.1 30.76 0v39.12z" fill="#f4eae0"/><path d="M325.947 350.4c-7.3-1.025-14.715-.98-22.006.133v-1.354c7.298-1.12 14.71-1.16 22.01-.138v1.354zm0 2.705c-7.3-1.026-14.715-.982-22.006.132v-1.353c7.298-1.114 14.71-1.158 22.01-.132v1.353zm0 2.705c-7.3-1.026-14.715-.982-22.006.132v-1.352c7.298-1.114 14.71-1.158 22.01-.132v1.352zm0 2.704c-7.3-1.026-14.715-.982-22.006.132v-1.352c7.298-1.114 14.71-1.158 22.01-.132v1.352zm0 2.706c-7.3-1.027-14.715-.983-22.006.13V360c7.298-1.114 14.71-1.158 22.01-.132v1.353zm0 2.703c-7.3-1.026-14.715-.982-22.006.132v-1.352c7.298-1.114 14.71-1.158 22.01-.132v1.358zm0 2.707c-7.3-1.027-14.715-.983-22.006.13v-1.352c7.298-1.114 14.71-1.158 22.01-.132v1.353zm0 2.703c-7.3-1.026-14.715-.982-22.006.132v-1.353c7.298-1.114 14.71-1.158 22.01-.132v1.353zm0 2.704c-7.3-1.026-14.715-.982-22.006.132v-1.358c7.298-1.114 14.71-1.158 22.01-.132v1.353zm0 2.705c-7.3-1.026-14.715-.982-22.006.132v-1.352c7.298-1.114 14.71-1.158 22.01-.132v1.352zm0 2.706c-7.3-1.026-14.715-.982-22.006.132v-1.353c7.298-1.114 14.71-1.158 22.01-.132v1.353z" fill="#3f4953"/></g></svg>