<svg xmlns="http://www.w3.org/2000/svg" width="800" height="800" viewBox="0 0 800 800"><path d="M294.943 187.498c3.582 0 5.733 3.598 4.805 8.036-.93 4.44-4.584 8.036-8.166 8.036-3.582 0-5.732-3.598-4.804-8.036.928-4.44 4.584-8.036 8.165-8.036z" clip-rule="evenodd" fill="#d9f5f7" fill-rule="evenodd"/><path d="M567.15 409.27c0-55.866-306.917-65.9-306.917-109.335v92.508c0 59.2 306.916 46.67 306.916 109.335v-92.51z" clip-rule="evenodd" fill="#e0e7be" fill-rule="evenodd"/><path d="M263.036 306.812c-1.8 1.633-2.803 3.563-2.803 5.872v79.76c0 2.742.665 5.31 1.92 7.72 19.79-32.163 245.678 22.577 295.23-15.988-49.008-37.92-267.292-44.687-294.347-77.364zm304.114 105.68c0-.156-.036-.31-.04-.463-1.2 36.07-116.36 39.72-209.87 24.48 89.922 17.68 209.91 29.31 209.91 68.49v-92.51z" clip-rule="evenodd" fill="#d6dbb2" fill-rule="evenodd"/><path d="M566.393 369.675v-99.158c0-54.38-130.417 16.227-204.556-35.945.22 7.18-3.26 10.458-12.73 10.17 36.098 66.38 217.286 58.227 217.286 124.933z" clip-rule="evenodd" fill="#e0e7be" fill-rule="evenodd"/><path d="M566.393 366.507v-90.212c0-.998-.058-1.943-.144-2.86-9.91 33.746-135.85 19.085-182.09 2.625 61.742 35.146 171.99 44.813 181.54 92.583.266-.69.496-1.4.69-2.136z" clip-rule="evenodd" fill="#d6dbb2" fill-rule="evenodd"/><g transform="matrix(.629 0 0 .655 148.591 106.02)"><path d="M236.418 134.252c-2.204-.184-5.203.702-8.36 10.134-3.156 9.433 14.366 9.31 14.366 9.31s13.378 9.243 24.94 16.048c11.563 6.805 36.743 21.283 41.535 22.734 4.79 1.452 8.882 1.467 10.17-4.79 1.286-6.256-1.874-15.13-5.74-14.667-3.863.47-11.362 4.78-13.186 4.39-1.825-.39-13.812-12.575-27.692-21.26-13.88-8.68-33.76-21.703-36.04-21.893zm60.767 43.246l15.983-2.74c4.118-2.356 11.72 3.143 8.954 6.297l-5.324 7.302-19.613-10.86z" clip-rule="evenodd" fill="#8f4c00" fill-rule="evenodd"/><path d="M230.232 135.897l1.652.972c.384.22.514.72.288 1.11-.226.38-.726.51-1.11.282l-1.652-.973c-.384-.226-.514-.725-.288-1.11.226-.384.726-.514 1.11-.287z" clip-rule="evenodd" fill="#ad6500" fill-rule="evenodd"/><path d="M230.232 135.897l1.652.972c.247.14.39.4.398.67-.252.28-.676.35-1.012.152l-1.65-.972c-.25-.144-.39-.404-.4-.672.253-.28.676-.353 1.012-.155z" clip-rule="evenodd" fill="#c77500" fill-rule="evenodd"/><path d="M237.773 126.136l-11.038 19.335s8.44-9.4 11.038-19.33z" clip-rule="evenodd" fill="#8f4c00" fill-rule="evenodd"/><path d="M297.92 176.25l15.984-2.74c4.118-2.356 11.72 3.142 8.954 6.296l-5.324 7.302-19.613-10.86z" clip-rule="evenodd" fill="#ff9f00" fill-rule="evenodd"/><path d="M320.552 174.315l-9.816 9.03.6.332 9.767-8.983c-.178-.132-.36-.26-.55-.38z" clip-rule="evenodd" fill="#c77500" fill-rule="evenodd"/><path d="M287.18 152.058l-51.53 31.453c-11.664 7.12-28.84-6.51-18.33-11.85l56.347-28.62c10.044-5.1 23.44 2.96 13.513 9.02z" clip-rule="evenodd" fill="#8f4c00" fill-rule="evenodd"/><path d="M287.566 151.23l-51.53 31.454c-11.664 7.12-28.84-6.516-18.33-11.854l56.347-28.618c10.045-5.102 23.44 2.96 13.513 9.02z" clip-rule="evenodd" fill="#ff9f00" fill-rule="evenodd"/><path d="M220.492 171.565c-.238-.07-.375-.32-.304-.56.07-.237.32-.374.56-.304l13.207 3.258c.24.07.375.32.305.56-.07.238-.32.374-.56.303l-13.208-3.25z" fill="#c77500"/><path d="M276.79 157.903l-13.57 8.283c-6.026-3.705-12.005-7.648-15.903-10.264L262 148.465c3.768 2.392 7.523 4.776 10.92 6.9 1.307.82 2.6 1.67 3.87 2.538zm-62.306 17.94c-.272-1.884.636-3.7 3.222-5.014l56.347-28.62c1.242-.63 2.535-1.06 3.828-1.32.91 1.85.08 3.985-3.55 5.805l-55.18 27.686c-1.507.758-3.08 1.225-4.66 1.458z" clip-rule="evenodd" fill="#c77500" fill-rule="evenodd"/><path clip-rule="evenodd" fill="#8f4c00" fill-rule="evenodd" d="M256.786 154.454l-.777-2.91 11.34-13.632 2.16 1.27z"/><path clip-rule="evenodd" fill="#c77500" fill-rule="evenodd" d="M274.29 159.335l-16.962 10.353-9.35-9.828-4.72-2.008 16.42-8.34z"/><path d="M274.29 159.335l-12.018 7.335c-6.164-3.805-12.222-7.815-15.993-10.352l13.393-6.805 14.61 9.822z" clip-rule="evenodd" fill="#8f4c00" fill-rule="evenodd"/><path d="M236.724 133.73c-2.204-.183-5.203.703-8.36 10.135-3.156 9.433 14.366 9.31 14.366 9.31s13.378 9.242 24.94 16.048c11.563 6.805 36.743 21.283 41.534 22.734 4.79 1.45 8.888 1.468 10.175-4.79 1.28-6.255-1.88-15.13-5.74-14.667-3.868.463-11.366 4.774-13.19 4.385-1.824-.39-13.81-12.576-27.69-21.258-13.88-8.683-33.76-21.706-36.04-21.896z" clip-rule="evenodd" fill="#ff9f00" fill-rule="evenodd"/><path d="M233.744 134.446c-1.517.974-2.673 2.908-3.733 5.197l25.348 14.426 2.488-6.61-24.096-13.02zm29.436 23.624c-1.074 1.528-32.662-20.638-34.814-14.205-2.153 6.432 14.365 9.31 14.365 9.31s13.38 9.242 24.94 16.048c11.57 6.805 36.75 21.283 41.54 22.734 4.79 1.45 8.888 1.468 10.175-4.79 1.288-6.255-1.872-15.13-5.736-14.667-3.866.463-11.365 4.49-13.188 4.385-1.823-.106-1.2-.05-1.906-.327l-.627-.31-30.424-22.42-4.32 4.24z" clip-rule="evenodd" fill="#c77500" fill-rule="evenodd"/><path d="M272.966 145.705c-.22-.117-.303-.39-.186-.61.117-.22.39-.302.61-.185l8.004 3.758c.22.117.303.39.186.61-.117.218-.39.302-.61.185l-8.004-3.758z" fill="#c77500"/><path d="M231.716 136.605c-1.076 1.53-2.203 3.828-3.35 7.26-3.158 9.433 14.364 9.31 14.364 9.31s13.378 9.242 24.94 16.048c11.563 6.805 36.743 21.283 41.534 22.734 4.79 1.45 8.888 1.468 10.175-4.79 1.28-6.255-1.88-15.13-5.74-14.667-3.868.463-11.327 4.316-13.19 4.385-.805.03-1.81-.26-2.534-.636L269.32 157.9l-37.607-21.297z" clip-rule="evenodd" fill="#ad6500" fill-rule="evenodd"/><path d="M261.337 155.175c.523.65 3.23 2.527 3.23 2.527l3.866-3.912s-1.384-.94-2.416-1.735c-1.032-.795-5.002-3.82-5.002-3.82l-2.05 1.358c.002 0-.336 2.113 2.372 5.582z" clip-rule="evenodd" fill="#4a2700" fill-rule="evenodd"/><ellipse transform="matrix(.507 -.862 .862 .507 -.5 303.658)" cx="265.366" cy="152.266" rx=".371" ry=".358" clip-rule="evenodd" fill="#8f4c00" fill-rule="evenodd"/><path d="M257.02 148.037c-1.752.89-2.317 4.114-.285 5.876 2.032 1.76 3.987 2.83 3.987 2.83l2.165-6.56 2.79-1.587-4.648-.36-1.96-1.242-2.05 1.043z" clip-rule="evenodd" fill="#ad6500" fill-rule="evenodd"/><path d="M257.048 148.02c-1.728.878-2.286 4.06-.28 5.796 2.004 1.737 3.932 2.793 3.932 2.793l2.135-6.477 2.76-1.54-4.592-.38-1.93-1.227-2.025 1.03z" clip-rule="evenodd" fill="#b16800" fill-rule="evenodd"/><path d="M257.075 148.003c-1.704.866-2.255 4.003-.277 5.716 1.977 1.71 3.88 2.75 3.88 2.75.7-2.13 1.403-4.257 2.105-6.38l2.727-1.496-4.534-.4-1.905-1.21c-.66.34-1.33.677-1.99 1.015z" clip-rule="evenodd" fill="#b56b00" fill-rule="evenodd"/><path d="M257.102 147.986c-1.68.854-2.223 3.947-.274 5.636 1.95 1.69 3.825 2.716 3.825 2.716l2.076-6.293 2.69-1.446-4.477-.427-1.878-1.192-1.97 1z" clip-rule="evenodd" fill="#b96d00" fill-rule="evenodd"/><path d="M257.13 147.97c-1.658.84-2.192 3.89-.27 5.555 1.922 1.666 3.77 2.677 3.77 2.677l2.047-6.203 2.663-1.4-4.42-.44-1.85-1.18-1.94.984z" clip-rule="evenodd" fill="#bd7000" fill-rule="evenodd"/><path d="M257.157 147.952c-1.633.83-2.16 3.834-.265 5.476 1.894 1.642 3.716 2.64 3.716 2.64l2.017-6.115 2.63-1.352-4.36-.46-1.826-1.16-1.918.977z" clip-rule="evenodd" fill="#c17300" fill-rule="evenodd"/><path d="M257.185 147.935c-1.61.817-2.13 3.778-.262 5.396 1.867 1.62 3.662 2.6 3.662 2.6l1.988-6.02 2.6-1.304-4.305-.48-1.798-1.142-1.885.958z" clip-rule="evenodd" fill="#c47600" fill-rule="evenodd"/><path d="M257.212 147.918c-1.585.805-2.097 3.723-.258 5.317 1.84 1.594 3.608 2.562 3.608 2.562l1.96-5.936 2.565-1.252-4.247-.503-1.77-1.124c-.62.314-1.24.628-1.858.943z" clip-rule="evenodd" fill="#c87800" fill-rule="evenodd"/><path d="M257.24 147.9c-1.563.793-2.066 3.667-.255 5.237 1.81 1.57 3.553 2.523 3.553 2.523l1.93-5.846 2.534-1.212c-1.397-.174-2.793-.35-4.19-.523l-1.745-1.11-1.828.93z" clip-rule="evenodd" fill="#cc7b00" fill-rule="evenodd"/><path d="M257.266 147.883c-1.537.78-2.033 3.61-.25 5.157 1.784 1.546 3.5 2.485 3.5 2.485l1.9-5.757 2.5-1.165c-1.376-.18-2.754-.362-4.13-.544-.574-.37-1.146-.73-1.72-1.09-.6.3-1.2.61-1.8.91z" clip-rule="evenodd" fill="#d07e00" fill-rule="evenodd"/><path d="M257.294 147.866c-1.514.77-2.002 3.555-.246 5.077 1.756 1.522 3.445 2.446 3.445 2.446l1.87-5.67 2.47-1.12-4.075-.566c-.564-.36-1.128-.716-1.69-1.074l-1.774.9z" clip-rule="evenodd" fill="#d48100" fill-rule="evenodd"/><path d="M257.322 147.85c-1.49.756-1.97 3.498-.243 4.996 1.722 1.498 3.39 2.408 3.39 2.408l1.84-5.58 2.44-1.07-4.02-.584-1.668-1.057-1.745.886z" clip-rule="evenodd" fill="#d88300" fill-rule="evenodd"/><path d="M257.35 147.832c-1.467.745-1.94 3.443-.24 4.917 1.7 1.47 3.337 2.363 3.337 2.363l1.812-5.49c.8-.34 1.6-.68 2.4-1.023l-3.96-.604-1.64-1.04-1.716.87z" clip-rule="evenodd" fill="#dc8600" fill-rule="evenodd"/><path d="M257.376 147.815c-1.442.733-1.908 3.387-.235 4.837 1.68 1.45 3.288 2.33 3.288 2.33l1.782-5.4 2.372-.975c-1.3-.21-2.6-.417-3.902-.625l-1.612-1.023-1.688.85z" clip-rule="evenodd" fill="#e08900" fill-rule="evenodd"/><path d="M257.404 147.798c-1.42.72-1.876 3.33-.23 4.757 1.645 1.426 3.227 2.292 3.227 2.292l1.76-5.31 2.34-.93-3.845-.646-1.584-1c-.554.28-1.11.56-1.66.843z" clip-rule="evenodd" fill="#e48c00" fill-rule="evenodd"/><path d="M257.43 147.78c-1.393.71-1.843 3.276-.226 4.678 1.617 1.402 3.174 2.254 3.174 2.254.574-1.74 1.15-3.48 1.723-5.222l2.31-.882-3.782-.667c-.52-.323-1.04-.653-1.56-.983-.543.276-1.088.552-1.632.83z" clip-rule="evenodd" fill="#e88e00" fill-rule="evenodd"/><path d="M257.458 147.764c-1.37.697-1.813 3.22-.223 4.597 1.59 1.38 3.12 2.22 3.12 2.22l1.694-5.13c.753-.28 1.512-.558 2.27-.837-1.243-.23-2.486-.46-3.73-.687l-1.53-.97c-.536.27-1.07.542-1.607.814z" clip-rule="evenodd" fill="#eb9100" fill-rule="evenodd"/><path d="M257.486 147.747c-1.347.684-1.78 3.163-.22 4.517 1.564 1.354 3.066 2.177 3.066 2.177l1.664-5.04 2.244-.79c-1.224-.233-2.448-.47-3.672-.705-.502-.32-1.004-.636-1.506-.955l-1.576.802z" clip-rule="evenodd" fill="#ef9400" fill-rule="evenodd"/><path d="M257.513 147.73c-1.323.672-1.75 3.107-.216 4.437 1.535 1.33 3.01 2.138 3.01 2.138.546-1.65 1.09-3.303 1.636-4.954l2.213-.74-3.615-.73-1.473-.933c-.516.263-1.032.526-1.55.788z" clip-rule="evenodd" fill="#f39700" fill-rule="evenodd"/><path d="M257.54 147.713c-1.3.66-1.718 3.05-.21 4.358 1.506 1.31 2.956 2.1 2.956 2.1l1.606-4.86c.727-.23 1.453-.462 2.18-.694-1.186-.248-2.37-.498-3.557-.748l-1.452-.922-1.523.773z" clip-rule="evenodd" fill="#f79900" fill-rule="evenodd"/><path d="M257.568 147.695c-1.276.648-1.687 2.996-.208 4.278 1.48 1.282 2.903 2.06 2.903 2.06.526-1.59 1.05-3.183 1.576-4.775l2.142-.648-3.5-.77c-.475-.3-.95-.602-1.425-.904l-1.494.76z" clip-rule="evenodd" fill="#fb9c00" fill-rule="evenodd"/><path d="M257.596 147.68c-1.252.635-1.656 2.938-.204 4.197 1.452 1.258 2.85 2.023 2.85 2.023l1.546-4.687 2.116-.6-3.443-.79-1.393-.89-1.466.746z" clip-rule="evenodd" fill="#ff9f00" fill-rule="evenodd"/><path d="M250.27 154.572c2.82.68 16.505 7.894 24.78 14.304 8.273 6.41-17.498-7.637-24.78-14.304z" clip-rule="evenodd" fill="#c77500" fill-rule="evenodd"/><path clip-rule="evenodd" fill="#8f4c00" fill-rule="evenodd" d="M231.667 166.343l-.777-2.91 11.34-13.632 2.16 1.278z"/><path d="M280.248 130.98c.113-.222.385-.31.606-.197.22.113.31.385.196.606l-6.616 12.98c-.113.22-.385.31-.606.195-.22-.114-.31-.386-.196-.607l6.616-12.985zm-7.564-1.328c-.016-.248.174-.462.422-.478.248-.015.463.174.478.422l.9 14.547c.014.248-.175.462-.423.478-.242.02-.46-.17-.472-.42l-.9-14.543zm7.516 1.556c-.014-.248.177-.46.425-.474.25-.013.46.178.474.426L282 148.8c.013.25-.178.46-.426.475-.248.013-.46-.178-.473-.426l-.91-17.647zm-51.742 23.172c-.06-.242.086-.487.328-.547.24-.06.486.086.546.327l4.987 20.043c.06.24-.09.486-.33.546-.24.06-.49-.09-.55-.33l-4.987-20.04zm-.008-.185c.042-.245.274-.41.52-.37.245.043.41.276.37.52l-2.592 15.356c-.042.25-.274.417-.52.37-.245-.04-.41-.27-.37-.52l2.592-15.35zm-6.824-.972c-.06-.24.083-.486.324-.547.24-.062.486.083.548.324l4.242 16.514c.06.24-.084.486-.324.547-.24.068-.486-.08-.548-.32l-4.242-16.512z" fill="#8f4c00"/><path d="M285.98 133.362L230.8 161.05c-12.493 6.267-29.46-7.155-18.268-11.79l60-24.85c10.697-4.432 24.08 3.618 13.45 8.952z" clip-rule="evenodd" fill="#8f4c00" fill-rule="evenodd"/><path d="M286.43 132.6l-55.184 27.687c-12.493 6.268-29.46-7.154-18.268-11.79l60-24.85c10.698-4.43 24.082 3.618 13.45 8.953z" clip-rule="evenodd" fill="#ffa200" fill-rule="evenodd"/><path clip-rule="evenodd" fill="#c77500" fill-rule="evenodd" d="M266.15 152.173l-5.12-3.935 4.65.36z"/><path clip-rule="evenodd" fill="#ff9f00" fill-rule="evenodd" d="M265.643 151.388l-3.754-2.886 3.403.263z"/><path d="M261.03 148.238l-2.063 1.343c-.136 1.99 1.253 3.89 2.316 5.47l1.604-4.86 2.79-1.59-4.647-.36z" clip-rule="evenodd" fill="#c77500" fill-rule="evenodd"/><path clip-rule="evenodd" fill="#4a2700" fill-rule="evenodd" d="M262.757 149.796l1.74-1.01-3.228-.287-1.25.9z"/><path clip-rule="evenodd" fill="#c77500" fill-rule="evenodd" d="M264.498 148.786l-3.114-.277 1.544 1.18z"/><path clip-rule="evenodd" fill="#ff9f00" fill-rule="evenodd" d="M261.965 148.56l2.533.226-1.277.74z"/><path d="M295.862 178.584l-3.605 13.29c-1.087 4.01 5.593 8.3 9.333 6.334l10.9-5.73-4.334-7.17-12.294-6.724z" clip-rule="evenodd" fill="#8f4c00" fill-rule="evenodd"/><path d="M296.29 177.856l-3.604 13.29c-1.087 4.01 5.593 8.3 9.333 6.334l10.9-5.73-4.34-7.17-12.295-6.724z" clip-rule="evenodd" fill="#ff9f00" fill-rule="evenodd"/><path d="M312.135 190.45l-3.55-5.87-9.25-5.06c.136 1.252.388 3.364.69 4.756.45 2.08 5.796 4.815 12.11 6.175zm-17.385 5.512c.2.168.41.328.628.48l13.61-11.2-.403-.663-13.834 11.38zm7.59-17.662c1.423-.603 6.355-2.62 8.228-3.333 1.873-.714 3.46-1.634 5.247 1.272 1.786 2.9 3.25 8.65 1.828 12.15l-16.486-9.26c.27-.268.5-.548 1.183-.836z" clip-rule="evenodd" fill="#c77500" fill-rule="evenodd"/><path d="M263.91 152.01c.105.71-.274.755-.677.533-.404-.223-.372-.504-.128-.454.123.02-.192-.248.204-.548.24-.186.41.087.6.464z" clip-rule="evenodd" fill="#8f4c00" fill-rule="evenodd"/><path d="M266.462 152.415c-.73.45-1.477.84-2.017.262-.15-.16-.33-.388-.51-.606-.12.198-.28.38-.493.56.364.74 1.01 1.288 1.68 1.605.89.42 4.108-1.944 1.34-1.814z" clip-rule="evenodd" fill="#ad6500" fill-rule="evenodd"/><path d="M267.09 154.145c-.036.954-2.074 3.44-2.916 2.768-.842-.673-1.632-3.437.846-4.04 2.477-.606 2.092-.07 2.07 1.272zm-5.592-.398c-.42-.515-.248-1.12.086-1.225.447-.14.484.178.582.13.278-.132.28-.036.128.47-.15.507.23 1.287-.796.625z" clip-rule="evenodd" fill="#8f4c00" fill-rule="evenodd"/><path d="M266.4 153.105c-.06.038-1.628.357-1.69.393-.77.46-1.544.796-2.114.187-.11-.118-.234-.267-.363-.424-.258.09-.55.168-.877.23.312.886.87 1.49 1.673 1.87.433.207 1.39-.248 2.17-.635.42-.206 1.793-.475 2.193-.73.953-.61.263-.944-.997-.884z" clip-rule="evenodd" fill="#ad6500" fill-rule="evenodd"/><path d="M267.373 151.746c1.577 1.15-.532 3.176-1.84 1.954-1.236-1.157.39-3.01 1.84-1.954z" clip-rule="evenodd" fill="#ffcaa1" fill-rule="evenodd"/><path d="M258.967 149.58c-.136 1.987 1.253 3.884 2.316 5.466l1.604-4.862-3.92-.603z" clip-rule="evenodd" fill="#c77500" fill-rule="evenodd"/><path d="M259.64 149.854c.045 1.37.98 2.65 1.563 3.69l1.083-3.282-2.646-.408z" clip-rule="evenodd" fill="#4a2700" fill-rule="evenodd"/><path d="M262.726 151.02c-.07-.094-.048-.227.047-.296.095-.07.228-.047.297.047.187.26.294.57.333.89.043.345.01.703-.085 1.025-.033.114-.15.18-.263.146-.113-.033-.178-.15-.145-.264.078-.27.108-.568.072-.85-.03-.252-.114-.49-.256-.69z" fill="#301a00"/><path d="M261.4 152.95l.16-.485c-.124-.183-.21-.386-.24-.598-.018-.116-.126-.196-.242-.18-.116.018-.196.126-.18.242.046.31.184.61.376.86.04.054.082.105.126.154z" clip-rule="evenodd" fill="#301a00" fill-rule="evenodd"/><path d="M267.887 153.032c-.103.362-.387.68-.75.864-.445-.03-1.023-.32-1.572-.958-.217-.252-.374-.49-.48-.71.23-.564.874-.965 1.59-.808.148.113.3.247.454.406.45.46.68.873.752 1.206zm-.603-1.13c1.62 1.694-.03 2.69-1.41 1.038-1.308-1.562-.08-2.594 1.41-1.037z" clip-rule="evenodd" fill="#8f4c00" fill-rule="evenodd"/><path d="M267.06 151.807c1.298 1.356-.023 2.153-1.13.83-1.048-1.25-.064-2.077 1.13-.83z" clip-rule="evenodd" fill="#ad6500" fill-rule="evenodd"/><path d="M267.664 151.743c1.327 1.344-.588 3.144-1.514 1.468-.283-.51-.733-.75-.637-1.13.202-.805 1.245-1.25 2.15-.332zm.14 1.183c.55 1.19-2.017 1.794-2.335.64-.3-1.09 1.822-1.735 2.33-.64zm-3.884.93l.23-.575.937 1.83-.43.188z" clip-rule="evenodd" fill="#8f4c00" fill-rule="evenodd"/><path d="M264.125 157.39l.443.312 3.865-3.912s-.133-.09-.346-.238c-.53.473-3.182 2.857-3.962 3.838z" clip-rule="evenodd" fill="#4a2700" fill-rule="evenodd"/><path d="M263.04 151.834c.147-.095.298.65.06.668-.237.02-.263-.63-.06-.668z" clip-rule="evenodd" fill="#8f4c00" fill-rule="evenodd"/><ellipse transform="matrix(.507 -.862 .862 .507 .261 305.575)" cx="267.335" cy="152.56" rx=".654" ry=".701" clip-rule="evenodd" fill="#ad6500" fill-rule="evenodd"/><ellipse transform="matrix(.507 -.862 .862 .507 .451 305.734)" cx="267.567" cy="152.472" rx=".305" ry=".327" clip-rule="evenodd" fill="#c77500" fill-rule="evenodd"/></g><path d="M566.83 364.09v-93.645c-1.448 73.645-306.682-11.91-306.683 29.405v92.47c0-41.317 305.236 45.413 306.682-28.23zM260.147 509.632c-5.14-9.714 39.917-5.23 33.79-16.863-54.16-102.87-31.863-59.21 15.42-46.83 80.54 21.09 257.472 11.482 257.472-32.51v96.196c0 46.01-277.49 55.176-306.688 0z" clip-rule="evenodd" fill="#fcffe8" fill-rule="evenodd"/><path d="M362.573 235.85c-3.218-2.832-8.107-7.502-13.033-10.687-4.84-3.13-9.264-5.25-11.712-3.27-4.893 3.954 12.22 23.288 12.27 23.345l-.472.437c-.05-.058-17.62-19.91-12.184-24.302 2.715-2.193 7.386-.032 12.432 3.23 4.96 3.21 9.874 7.9 13.107 10.745l-.402.502z" fill="#bfc49d"/><g clip-rule="evenodd" fill-rule="evenodd"><path d="M347.12 232.337c1.02-.44 1.788-1.46 2.168-3.38.81-4.1-1.178-9.91-3.61-9.608-2.087.26-5.862 2.38-7.612 2.81l9.054 10.172zm-9.165-10.49l7.618-1.36c2.59-1.544 7.373 2.058 5.632 4.124l-3.35 4.79-6.888-3.973-3.14-3.53.128-.045z" fill="#8f4c00"/><path d="M342.04 220.382l3.996-.713c2.59-1.55 7.372 2.052 5.632 4.12l-3.35 4.78-9.334-5.38-1.157-1.3 4.214-1.51z" fill="#ff9f00"/><path d="M350.218 220.196l-6.174 5.914.378.218 6.143-5.883c-.112-.087-.227-.17-.347-.25z" fill="#c77500"/><path d="M346.935 232.13c1.208-.345 2.12-1.363 2.545-3.515.796-4.028-1.11-9.712-3.484-9.617l-.125.01-4.813 1.728c-1.35.59-2.57 1.114-3.225 1.156l9.108 10.238z" fill="#ff9f00"/><path d="M346.935 232.13c1.208-.345 2.12-1.363 2.545-3.515.796-4.028-1.11-9.712-3.484-9.617l-.125.01-5.962 2.14c-.762.316-1.426.57-1.89.678l-.186.067 9.108 10.237z" fill="#c77500"/><path d="M346.935 232.13c1.208-.345 2.12-1.363 2.545-3.515.796-4.028-1.11-9.712-3.484-9.617l-.125.01-8.04 2.885 9.11 10.237z" fill="#ad6500"/><path fill="#ff9f00" d="M342.692 226.92l-.795-.453 1.53 1.72z"/><path fill="#c77500" d="M342.692 226.92l-.795-.453 1.53 1.72zm0 0l-.223.19.323.37.146-.126zm-3.93-4.114c.896-.394 3.998-1.715 5.176-2.183 1.178-.467 2.177-1.07 3.3.834 1.124 1.903 2.045 5.67 1.15 7.96l-8.064-4.718-1.65-1.86c.03-.012.058-.026.09-.04z"/></g><path d="M347.734 253.27c-19.653-6.94-33.795-18.625-44.06-24.83 6.423 7.696 20.403 19.38 44.06 24.83zm14.993-29.018c-12.246-6.505-21.095-14.965-27.736-18.75 4.18 5.038 12.38 13.46 27.74 18.75zM563.2 528.148c-13.718 15.704-54.144 26.696-93.5 28.267 40.877 4.64 82.28-8.294 93.5-28.267zm-53.535-287.38c18.85-1.57 58.06-9.423 62.583 22.77-6.312-27.194-44.11-22.732-62.583-22.77zm-180.967 40.83c-13.572-4.785-60.322-10.405-67.862 3.925 3.236-18.5 50.552-12.906 67.862-3.926z" clip-rule="evenodd" fill="#d9f5f7" fill-rule="evenodd"/><path d="M383.845 164.465c-1.098-.183-5.838 1.644-7.56 4.67-2.304-1.17-7.41-1.203-8.864-.576 1.798-.38 8.188 1.65 9.528 3.643.045-2.89 4.487-7.743 6.902-7.743zm-.555 19.92c-1.098-.184-5.837 1.643-7.56 4.667-2.304-1.17-7.41-1.202-8.864-.574 1.793-.373 8.183 1.65 9.522 3.648.046-2.89 4.488-7.742 6.902-7.742zm21.095-10.823c-1.1-.183-5.838 1.644-7.56 4.668-2.306-1.17-7.41-1.2-8.866-.574 1.79-.373 8.18 1.65 9.52 3.648.043-2.89 4.49-7.742 6.9-7.742z" clip-rule="evenodd" fill="#638285" fill-rule="evenodd"/><path d="M199.858 433.99c2.594-3.18 7.27-5.3 12.607-5.3 8.155 0 14.764 4.95 14.764 11.057 0 1.95-.68 3.78-1.86 5.37 3.29 1.543 5.48 4.283 5.48 7.407 0 2.244-1.13 4.29-2.99 5.838h-35.22v-26.546c2.733.142 5.23.936 7.216 2.174zm407.117 36.698h-29.73c-2.98-2.344-4.81-5.515-4.81-9.008 0-6.516 6.37-11.916 14.702-12.9-.013-.183-.02-.37-.02-.557 0-6.2 6.712-11.226 14.99-11.226 1.705 0 3.342.213 4.868.605v33.086zm-3.548-104.238c.888-1.087 2.105-2.008 3.548-2.683v22.853h-24.14c-2.442-1.5-4-3.78-4-6.33 0-4.082 3.99-7.466 9.21-8.082-.008-.115-.012-.232-.012-.35 0-3.884 4.204-7.033 9.39-7.033 2.284 0 4.376.612 6.004 1.626zm-376.913-74.83c2.134-2.615 5.982-4.36 10.374-4.36 6.71 0 12.15 4.073 12.15 9.1 0 1.603-.556 3.11-1.528 4.418 2.71 1.27 4.51 3.524 4.51 6.094 0 2.246-1.375 4.25-3.53 5.57h-46.93c-1.505-1.517-2.397-3.395-2.397-5.43 0-4.54 4.438-8.303 10.243-8.987-.008-.13-.013-.258-.013-.39 0-4.32 4.676-7.822 10.444-7.822 2.54 0 4.867.68 6.677 1.808zm-5.394-69.765c-.198-.57-.303-1.17-.303-1.786 0-1.257.433-2.43 1.192-3.45-2.12-.99-3.52-2.75-3.52-4.76 0-3.096 3.35-5.606 7.48-5.606.63 0 1.244.058 1.83.168.093-3.86 4.3-6.97 9.48-6.97 4.62 0 8.463 2.472 9.31 5.747 1.13-.355 2.364-.55 3.664-.55 5.236 0 9.48 3.18 9.48 7.1 0 3.543-3.463 6.48-7.993 7.015.007.1.01.2.01.302 0 1.002-.322 1.95-.893 2.782h-29.74zm218.812-6.95c2.08-2.55 5.83-4.25 10.108-4.25 6.537 0 11.836 3.97 11.836 8.867 0 1.563-.54 3.03-1.487 4.306 2.633 1.237 4.39 3.433 4.39 5.938 0 1.765-.874 3.378-2.314 4.61H414.9c-1.028-1.314-1.616-2.842-1.616-4.474 0-4.423 4.325-8.09 9.98-8.757-.008-.125-.013-.252-.013-.378 0-4.21 4.56-7.622 10.18-7.622 2.476 0 4.74.66 6.507 1.76zM548.19 175.49c3.062-3.756 8.584-6.262 14.888-6.262 9.63 0 17.435 5.847 17.435 13.06 0 2.303-.796 4.465-2.19 6.343 3.887 1.828 6.473 5.06 6.473 8.75 0 2.478-1.165 4.75-3.108 6.527h-70.575c-1.387-1.873-2.18-4.03-2.18-6.324 0-6.516 6.373-11.917 14.703-12.9-.012-.184-.018-.37-.018-.556 0-6.2 6.71-11.228 14.99-11.228 3.643 0 6.983.974 9.58 2.594z" clip-rule="evenodd" fill="#fcffe8" fill-rule="evenodd"/></svg>