<?xml version="1.0" encoding="utf-8"?>
<!-- Generator: Adobe Illustrator 17.0.0, SVG Export Plug-In . SVG Version: 6.00 Build 0)  -->
<!DOCTYPE svg PUBLIC "-//W3C//DTD SVG 1.1//EN" "http://www.w3.org/Graphics/SVG/1.1/DTD/svg11.dtd">
<svg version="1.1" xmlns="http://www.w3.org/2000/svg" xmlns:xlink="http://www.w3.org/1999/xlink" x="0px" y="0px" width="800px"
	 height="800px" viewBox="0 0 800 800" enable-background="new 0 0 800 800" xml:space="preserve">
<g id="Background" display="none">
	<rect x="-0.749" y="-0.832" display="inline" fill="#6AD6EA" width="801.255" height="801.255"/>
</g>
<g id="Capa_3" display="none">
	<path display="inline" fill-rule="evenodd" clip-rule="evenodd" fill="#F06162" d="M760.814,667.793
		c0,41.134-34.838,74.479-77.813,74.479H116.999c-42.975,0-77.813-33.346-77.813-74.479V132.526
		c0-41.134,34.838-74.479,77.813-74.479h566.001c42.975,0,77.813,33.346,77.813,74.479V667.793z"/>
	<path display="inline" fill-rule="evenodd" clip-rule="evenodd" fill="#F0E3C3" d="M729.808,645.022
		c0,37.634-31.844,68.143-71.126,68.143H141.318c-39.282,0-71.126-30.508-71.126-68.143V155.296
		c0-37.634,31.844-68.143,71.126-68.143h517.364c39.282,0,71.126,30.508,71.126,68.143V645.022z"/>
</g>
<g id="Capa_4">
	<path fill-rule="evenodd" clip-rule="evenodd" fill="#C4C4C4" d="M729.751,692.768c0,11.265-31.829,20.397-71.092,20.397H141.546
		c-39.263,0-71.092-9.132-71.092-20.397v-146.59c0-11.265,31.829-20.397,71.092-20.397h517.113c39.263,0,71.092,9.132,71.092,20.397
		V692.768z"/>
</g>
<g id="Capa_5">
	<path fill="#9B9B9A" d="M338.161,376.502l-11.595,99.675c0,0-18.036-26.879-57.974-12.319
		c-39.938,14.559-21.901,48.158-21.901,48.158s-7.73-17.919-30.92-15.679c-23.19,2.24-28.343,25.759-28.343,25.759
		s3.865-34.718-41.226-38.078c-45.091-3.36-34.784,31.358-34.784,31.358s-2.577-21.279-20.613-19.039
		c-18.036,2.24-20.613,11.199-20.613,11.199v153.433h659.616v-207.19c0,0,5.153-35.838-36.073-35.838
		c-41.226,0-36.073,31.358-36.073,31.358s-2.577-21.279-25.766-20.159c-23.19,1.12-27.055,25.759-27.055,25.759
		s-5.153-26.879-59.262-24.639c-54.109,2.24-42.514,44.798-42.514,44.798s-2.577-26.879-34.784-26.879s-39.938,26.879-39.938,26.879
		l-72.145-100.795L338.161,376.502z"/>
</g>
<g id="Capa_6">
	<path fill="#C4C4C4" d="M144.085,613.733c33.035,0,34.306,19.773,34.306,19.773s-10.165-49.432,38.118-51.629
		c48.282-2.197,45.741,28.561,45.741,28.561s-13.976-51.629,38.118-52.728c52.094-1.099,45.741,42.841,45.741,42.841
		s2.541-21.97,31.765-19.773c29.224,2.197,25.412,20.871,25.412,20.871s-15.247-62.614,33.035-62.614
		c48.283,0,43.2,38.447,43.2,38.447s8.894-23.068,39.388-23.068c30.494,0,21.6,27.462,21.6,27.462s8.894-23.068,58.447-19.773
		c49.553,3.295,30.494,48.334,30.494,48.334s7.624-16.477,44.471-12.083c36.847,4.394,26.682,32.955,26.682,32.955
		s11.435-7.689,20.329-7.689s8.894,0,8.894,0v37.349H69.12v-74.697c0,0,7.624-16.477,26.682-9.886s6.353,54.924,6.353,54.924
		S97.073,613.733,144.085,613.733z"/>
</g>
<g id="Objects">
	<path fill="#FFFFFF" d="M474.74,154.321c0,0-29.895-21.525-43.049-3.587c-13.154,17.937,20.329,37.07,20.329,37.07
		s-27.504,9.566-17.937,26.308c9.566,16.741,34.679-1.196,34.679-1.196s0,31.091,39.462,32.287
		c39.462,1.196,33.483-37.07,33.483-37.07s39.462,11.958,46.637-14.35s-45.441-37.07-45.441-37.07s5.979-29.895-31.091-34.679
		C474.74,117.251,474.74,154.321,474.74,154.321z"/>
	<path fill="#FFFFFF" d="M647.325,234.929c0,0-5.798-1.812-6.523,2.537c-0.725,4.348,5.073,5.436,5.073,5.436
		s-8.334,3.624-3.986,10.871c4.348,7.247,10.871-0.725,10.871-0.725s-1.449,10.871,10.509,10.871s11.234-11.958,11.234-11.958
		s14.495,4.348,14.857-7.972c0.362-12.321-16.307-7.972-16.307-7.972s2.537-6.16-2.537-8.697c-5.073-2.537-8.335,5.073-8.335,5.073
		s-2.174-9.784-9.784-7.247C644.788,227.682,647.325,234.929,647.325,234.929z"/>
	<path fill="#FFFFFF" d="M561.447,306.044c0,0-21.378-2.443-20.768,14.049c0.611,16.492,21.378,9.162,21.378,9.162
		s-8.551,12.216,0.611,16.492s11.605-8.551,11.605-8.551s2.443,12.827,16.492,12.827c14.049,0,10.384-19.546,10.384-19.546
		s7.33,6.719,14.049-1.222c6.719-7.941-9.162-16.492-9.162-16.492s12.827-15.27-3.054-20.768c-15.881-5.497-15.27,9.162-15.27,9.162
		s0-20.768-15.881-16.492C555.274,289.123,561.447,306.044,561.447,306.044z"/>
	<g>
		<g>
			<path fill="#E45050" d="M331.152,360.55c0,0-6.498,10.155-7.387,19.221c-0.889,9.066,2.048,14.088,2.048,14.088l6.803-8.416
				c0,0-5.41,11.546,6.92,20.826c12.33,9.28,17.656,8.083,17.656,8.083s-5.11-3.586-3.698-7.261
				c1.412-3.675,7.846-10.286,6.409-16.677c-1.437-6.392-5.025-9.717-5.025-9.717s5.566-0.132,8.023,2.759
				c2.458,2.891,3.176,6.087,3.176,6.087s6.281-9.59-1.788-19.828c-8.069-10.238-11.44-14.129-11.44-14.129L331.152,360.55z"/>
			<path fill="#FFE400" d="M339.393,362.744c0,0-5.173,4.176-7.346,9.829c-2.173,5.653-2.194,8.241-2.194,8.241l10.195-7.112
				c0,0-1.296,28.699,6.334,27.414c7.631-1.285,2.299-21.177,2.299-21.177s3.781-7.306,8.195-5.285
				c4.414,2.021,6.458,3.455,6.458,3.455s-5.288-16.631-11.767-17.499C345.088,359.742,339.393,362.744,339.393,362.744z"/>
		</g>
		<path fill="#3C3C3B" d="M330.496,345.375c0,0-11.475,16.353-2.495,19.155c8.98,2.802,29.764,1.057,32.416-2.466
			c2.651-3.523-2.94-17.675-2.94-17.675L330.496,345.375z"/>
		<path fill="#9B9B9A" d="M322.083,351.225c0,0-24.481-79.806,9.738-86.12c34.219-6.315,31.657,82.239,31.657,82.239
			L322.083,351.225z"/>
	</g>
	<path fill="#006A94" d="M263.098,347.698l-10.994,26.919l27.293,26.06l3.238-5.893l-18.508-21.062c0,0,5.367-10.59,8.715-12.547
		c3.348-1.958,26.285-2.551,27.872-1.617c1.587,0.934,18.247,22.584,18.247,22.584l20.244,8.104l2.521-4.871
		c0,0-14.656-6.605-17.048-8.822c-2.392-2.217-6.856-28.588-6.856-28.588L263.098,347.698z"/>
	<path fill="#FACFC1" d="M225.454,234.609c0,0,1.76-2.892,3.739-2.132c1.979,0.76-0.15,9.675-4.062,11.415
		c-3.913,1.74-7.284-2.15-9.807-5.715c-2.523-3.565-0.263-6.914,1.911-8.349C219.408,228.393,224.257,229.283,225.454,234.609z"/>
	<path fill="#FACFC1" d="M347.32,333.673c-2.275,0.646-5.563,8.568-1.149,10.588c4.414,2.021,8.936-0.459,9.848-3.677
		C356.931,337.367,353.146,332.019,347.32,333.673z"/>
	<path fill="#FFFFFF" d="M256.668,288.454c0,0-26.623-42.997-29.212-47.236c-2.588-4.239-9.066-0.889-6.239,4.415
		c2.828,5.304,26.19,48.346,29.389,60.281c3.199,11.935,11.188,45.176,11.188,45.176s14.872,1.822,30.438,0.992
		c15.567-0.83,25.589-4.116,25.589-4.116l3.858-42.962c0,0,10.546,6.324,16.114,14.628c5.568,8.304,7.592,16.543,7.592,16.543
		s1.261,1.783,3.892,0.847c2.63-0.936,1.934-2.501,0.542-5.631c-1.392-3.13-16.187-40.609-33.538-46.952
		c-17.351-6.344-51.633,11.95-51.633,11.95L256.668,288.454z"/>
	<path fill="#E45050" d="M318.086,284.806c0,0-7.694,9.047-7.865,21.309c-0.17,12.262,9.071,17.76,9.071,17.76l0.802-7.153
		c0,0-4.458-5.282-3.004-14.131c1.454-8.849,5.714-14.025,5.714-14.025L318.086,284.806z"/>
	<path fill="#E45050" d="M258.777,290.563c0,0,1.741,8.131-1.388,13.741c-3.129,5.61-5.238,7.72-5.238,7.72l1.785,7.174
		c0,0,4.152-0.675,8.694-9.96c4.541-9.285,3.169-19.22,3.169-19.22L258.777,290.563z"/>
	<path fill="#FACFC1" d="M318.507,286.197l1.081-34.226c0,0,5.558,0.561,5.133-10.624c-0.425-11.186-7.916-6.716-7.916-6.716
		s10.328-50.093-33.852-47.126c-44.18,2.967-51.661,41.557-42.195,55.167c9.466,13.61,18.361-1.342,18.361-1.342
		s-4.849,18.082,1.765,22.723c6.614,4.641,24.514-10.524,28.001,4.987c3.487,15.511-9.211,18.505-16.95,18.155
		c-7.739-0.35-18.048-9.035-21.387-0.346C247.208,295.539,257.345,318.33,318.507,286.197z"/>
	<path fill="#683C11" d="M304.307,198.861c0,0-2.01,10.238-17.112,14.359c0.607-1.821,0-3.945-1.214-5.766
		c-5.159,7.284-21.677,14.017-25.796,13.353c3.642-4.249,5.159-6.98,5.159-10.622c-6.677,5.463-36.746,7.507-40.364,6.07
		c8.801-11.532,12.561-25.408,17.602-33.383c6.557-10.373,19.187-20.827,46.555-15.559c27.368,5.269,25.964,15.751,25.964,15.751
		s10.377,0.314,11.471,13.856c1.094,13.542-9.768,37.711-9.768,37.711l-0.475,18.042c0,0-7.119,1.174-10.015-5.463
		C303.279,240.255,300.655,207.664,304.307,198.861z"/>
	<path fill="none" stroke="#000000" stroke-width="2" stroke-linecap="round" stroke-miterlimit="10" d="M264.145,229.615
		c0,0,5.66-11.996,9.111,0.877"/>
	<path fill="none" stroke="#000000" stroke-width="2" stroke-linecap="round" stroke-miterlimit="10" d="M278.074,230.244
		c0,0,5.66-11.996,9.111,0.877"/>
	<path d="M270.228,264.144c0,0-0.368,6.023-3.954,11.133c-3.586,5.11-7.933,7.981-7.933,7.981s12.503,5.454,19.786,3.386
		c7.283-2.068,12.413-5.287,11.149-15.505S280.575,260.01,270.228,264.144z"/>
	<polygon points="273.806,312.235 271.588,310.409 272.609,306.908 279.871,307.428 280.481,310.907 278.307,312.342 
		286.312,326.124 285.596,331.364 279.66,329.083 	"/>
	<polygon fill="#3C3C3B" points="341.725,385.376 335.488,394.009 337.706,395.835 345.009,386.962 	"/>
	<polygon fill="#3C3C3B" points="282.635,394.784 276.811,404.874 278.963,406.026 286.614,397.936 	"/>
	<rect x="109.96" y="91.22" fill="none" width="555.039" height="555.039"/>
	<rect x="109.96" y="91.22" fill="none" width="555.039" height="555.039"/>
</g>
</svg>
