<svg xmlns="http://www.w3.org/2000/svg" width="800" height="800" viewBox="0 0 800 800"><path d="M689.106 524.778c0 8.564-27.747 15.506-61.974 15.506H176.326c-34.23 0-61.976-6.942-61.976-15.506V413.343c0-8.564 27.748-15.506 61.976-15.506h450.806c34.227 0 61.974 6.945 61.974 15.508V524.78z" clip-rule="evenodd" fill="#c4c4c4" fill-rule="evenodd"/><path d="M347.73 284.358l-10.108 75.77s-15.724-20.433-50.54-9.364c-34.817 11.068-19.092 36.61-19.092 36.61s-6.74-13.622-26.955-11.92c-20.217 1.703-24.71 19.583-24.71 19.583s3.37-26.394-35.94-28.948c-39.308-2.557-30.323 23.836-30.323 23.836s-2.247-16.176-17.97-14.473c-15.723 1.702-17.97 8.514-17.97 8.514v116.636h575.034v-157.5s4.493-27.246-31.447-27.246-31.45 23.84-31.45 23.84-2.247-16.177-22.46-15.326c-20.22.853-23.588 19.584-23.588 19.584s-4.49-20.434-51.66-18.73c-47.173 1.702-37.063 34.054-37.063 34.054s-2.246-20.436-30.324-20.436c-28.077 0-34.816 20.434-34.816 20.434l-62.893-76.624-15.724 1.703z" fill="#9b9b9a"/><path d="M178.54 464.697c28.8 0 29.907 15.03 29.907 15.03s-8.86-37.576 33.232-39.247c42.086-1.67 39.872 21.712 39.872 21.712s-12.182-39.248 33.232-40.083c45.414-.84 39.875 32.564 39.875 32.564s2.214-16.702 27.692-15.03c25.477 1.67 22.154 15.864 22.154 15.864s-13.292-47.598 28.8-47.598c42.09 0 37.66 29.227 37.66 29.227s7.754-17.537 34.338-17.537c26.583 0 18.83 20.876 18.83 20.876s7.753-17.537 50.952-15.03c43.198 2.503 26.583 36.74 26.583 36.74s6.645-12.525 38.767-9.185c32.123 3.34 23.26 25.053 23.26 25.053s9.97-5.846 17.724-5.846h7.754V500.6H113.188v-56.78s6.646-12.527 23.26-7.517c16.615 5.01 5.54 41.753 5.54 41.753s-4.432-13.362 36.552-13.362z" fill="#c4c4c4"/><path d="M466.796 115.46s-26.062-16.363-37.53-2.727c-11.467 13.635 17.723 28.18 17.723 28.18s-23.98 7.272-15.64 20c8.34 12.724 30.233-.91 30.233-.91s0 23.634 34.4 24.544c34.403.91 29.19-28.18 29.19-28.18s34.402 9.09 40.657-10.91c6.256-19.998-39.612-28.18-39.612-28.18s5.21-22.725-27.106-26.362c-32.318-3.635-32.318 24.545-32.318 24.545zm150.454 61.277s-5.054-1.378-5.686 1.928c-.632 3.305 4.422 4.132 4.422 4.132s-7.265 2.755-3.475 8.264c3.79 5.51 9.48-.55 9.48-.55s-1.265 8.265 9.162 8.265 9.79-9.09 9.79-9.09 12.637 3.307 12.953-6.06c.313-9.364-14.217-6.06-14.217-6.06s2.21-4.68-2.213-6.61c-4.422-1.927-7.266 3.858-7.266 3.858s-1.895-7.437-8.53-5.508c-6.634 1.928-4.42 7.437-4.42 7.437zm-74.866 54.06s-18.636-1.857-18.105 10.68c.53 12.536 18.63 6.964 18.63 6.964s-7.452 9.29.533 12.54c7.986 3.25 10.118-6.5 10.118-6.5s2.13 9.75 14.38 9.75 9.053-14.86 9.053-14.86 6.39 5.11 12.246-.926c5.857-6.036-7.988-12.537-7.988-12.537s11.182-11.608-2.662-15.788c-13.842-4.18-13.31 6.964-13.31 6.964s0-15.788-13.844-12.537c-14.437 3.39-9.054 16.253-9.054 16.253z" fill="#fff"/><path d="M341.62 272.23s-5.665 7.72-6.44 14.612c-.776 6.893 1.785 10.71 1.785 10.71l5.93-6.397s-4.715 8.777 6.034 15.83c10.746 7.056 15.39 6.144 15.39 6.144s-4.456-2.73-3.225-5.52c1.23-2.797 6.84-7.82 5.588-12.68-1.254-4.86-4.382-7.387-4.382-7.387s4.854-.1 6.996 2.098c2.144 2.198 2.772 4.627 2.772 4.627s5.474-7.29-1.56-15.073c-7.037-7.783-9.975-10.74-9.975-10.74l-18.915 3.773z" fill="#e45050"/><path d="M348.804 273.9s-4.51 3.174-6.404 7.472c-1.894 4.296-1.913 6.264-1.913 6.264l8.888-5.407s-1.13 21.815 5.522 20.84c6.65-.98 2.005-16.1 2.005-16.1s3.295-5.558 7.143-4.02c3.848 1.534 5.63 2.625 5.63 2.625s-4.61-12.643-10.258-13.303c-5.65-.66-10.613 1.622-10.613 1.622z" fill="#ffe400"/><path d="M341.048 260.696s-10.005 12.43-2.176 14.56c7.828 2.13 25.948.805 28.26-1.874 2.31-2.678-2.563-13.436-2.563-13.436l-23.52.747z" fill="#3c3c3b"/><path d="M333.714 265.143s-21.34-60.667 8.49-65.467c29.83-4.8 27.6 62.517 27.6 62.517l-36.088 2.95z" fill="#9b9b9a"/><path d="M282.292 262.462l-9.584 20.464 23.793 19.81 2.826-4.48-16.135-16.01s4.68-8.052 7.598-9.54c2.918-1.488 22.914-1.938 24.298-1.23 1.383.71 15.907 17.17 15.907 17.17l17.65 6.16 2.198-3.702s-12.775-5.022-14.86-6.707c-2.087-1.686-5.978-21.732-5.978-21.732l-47.705-.203z" fill="#006a94"/><path d="M249.475 176.494s1.535-2.2 3.26-1.622c1.725.578-.13 7.355-3.54 8.678-3.41 1.323-6.348-1.634-8.548-4.344-2.2-2.71-.23-5.256 1.665-6.348 1.895-1.09 6.122-.414 7.166 3.635zm106.24 75.306c-1.984.49-4.85 6.513-1.003 8.05 3.85 1.537 7.79-.348 8.587-2.794.79-2.446-2.51-6.51-7.588-5.253z" fill="#facfc1"/><path d="M276.687 217.425s-23.21-32.685-25.466-35.908c-2.254-3.223-7.9-.676-5.44 3.356 2.47 4.032 22.834 36.752 25.624 45.824 2.79 9.074 9.753 34.343 9.753 34.343s12.965 1.385 26.535.754c13.57-.63 22.31-3.13 22.31-3.13l3.36-32.658s9.193 4.808 14.047 11.12c4.852 6.313 6.62 12.576 6.62 12.576s1.096 1.355 3.39.644c2.293-.712 1.686-1.9.47-4.28-1.212-2.38-14.11-30.87-29.24-35.693-15.122-4.825-45.01 9.084-45.01 9.084l-6.955-6.034z" fill="#fff"/><path d="M330.23 214.652s-6.708 6.877-6.857 16.2c-.15 9.32 7.91 13.5 7.91 13.5l.7-5.438s-3.887-4.015-2.62-10.74c1.27-6.73 4.983-10.664 4.983-10.664l-4.113-2.858zm-51.706 4.376s1.517 6.18-1.21 10.445c-2.727 4.265-4.567 5.87-4.567 5.87l1.555 5.453s3.62-.513 7.58-7.57c3.957-7.06 2.763-14.612 2.763-14.612l-6.123.414z" fill="#e45050"/><path d="M330.596 215.71l.942-26.02s4.847.43 4.475-8.072c-.368-8.504-6.898-5.106-6.898-5.106s9.004-38.08-29.51-35.823c-38.516 2.252-45.037 31.59-36.786 41.934 8.25 10.346 16.003-1.02 16.003-1.02s-4.228 13.745 1.54 17.273c5.765 3.526 21.37-8 24.408 3.79 3.04 11.79-8.03 14.067-14.775 13.8-6.746-.265-15.733-6.867-18.644-.262-2.91 6.606 5.925 23.93 59.247-.495z" fill="#facfc1"/><path d="M318.217 149.317s-1.752 7.785-14.918 10.917c.526-1.384 0-3-1.06-4.384-4.496 5.538-18.896 10.656-22.487 10.15 3.175-3.23 4.5-5.305 4.5-8.074-5.823 4.153-32.036 5.707-35.19 4.615 7.67-8.764 10.95-19.312 15.345-25.374 5.716-7.886 16.726-15.833 40.585-11.83 23.858 4.007 22.634 11.976 22.634 11.976s9.047.24 10 10.534c.954 10.294-8.515 28.666-8.515 28.666l-.414 13.715s-6.206.893-8.73-4.153c-2.646-5.287-4.934-30.062-1.75-36.755z" fill="#683c11"/><path stroke-miterlimit="10" d="M283.205 172.697s4.934-9.12 7.942.666m4.202-.188s4.93-9.12 7.94.667" fill="none" stroke="#000" stroke-width="1.628" stroke-linecap="round"/><path d="M288.508 198.945s-.32 4.58-3.447 8.463c-3.123 3.885-6.913 6.067-6.913 6.067s10.903 4.146 17.253 2.574c6.347-1.575 10.82-4.02 9.72-11.79-1.1-7.767-7.588-8.46-16.608-5.32zm3.12 36.557l-1.934-1.387.89-2.664 6.33.4.532 2.644-1.892 1.09 6.978 10.478-.624 3.984-5.175-1.733z"/><path d="M350.837 291.104l-5.437 6.562 1.933 1.386 6.367-6.745zm-51.513 7.152l-5.077 7.67 1.878.876 6.67-6.15z" fill="#3c3c3b"/><path d="M148.79 67.49h483.87v421.934H148.79zm0 0h483.87v421.934H148.79z" fill="none"/></svg>