<svg xmlns="http://www.w3.org/2000/svg" width="250" height="250" viewBox="0 0 249.99999 250" enable-background="new 0 0 595.28 841.89"><g><g transform="matrix(.86 0 0 .818 -23.347 -123.023)"><path d="M232.38 342.488c-12.552 5.503-16.316 8.436-17.805 9.753-2.294 2.03-3.562 9.596-4.915 16.02h56.794c-1.353-6.424-2.622-13.99-4.915-16.02-1.49-1.316-5.117-4.174-17.668-9.677l-11.492-.075z" clip-rule="evenodd" fill="#c86553" fill-rule="evenodd"/><path d="M223.6 346.61v21.65h-1.855v-20.68c.574-.31 1.19-.632 1.855-.97zm8.78-4.122l-.38.166v25.605h1.856v-25.762l-1.476-.01zm-3.65 1.64c-.648.3-1.266.59-1.856.87v23.26h1.855v-24.13zm-10.258 5.32c-.73.45-1.34.85-1.855 1.207v17.604h1.855v-18.81zm-5.128 4.56c-.708 1.44-1.308 3.445-1.855 5.69v8.56h1.854v-14.25zm23.786 14.25h1.856v-25.727l-1.855-.01v25.74zm5.128 0h1.855v-25.59l-.24-.105-1.614-.01v25.706h-.002zm5.13 0h1.854v-23.25c-.59-.28-1.208-.57-1.855-.867v24.12zm5.127 0h1.855V347.58c-.573-.307-1.19-.63-1.855-.968v21.647zm5.128 0h1.855v-17.607c-.512-.356-1.123-.756-1.855-1.205v18.814zm5.128 0h1.856v-8.56c-.546-2.245-1.146-4.25-1.855-5.69v14.25z" clip-rule="evenodd" fill="#c44b34" fill-rule="evenodd"/><g clip-rule="evenodd" fill="#c44b34" fill-rule="evenodd"><path d="M213.164 354.39h49.786c.25.554.485 1.178.71 1.856h-51.205c.225-.68.46-1.302.71-1.855z"/><path d="M211.533 359.52h53.05c.147.6.29 1.222.433 1.854H211.1c.14-.632.285-1.253.433-1.855z"/><path d="M210.404 364.647h55.307l.38 1.855h-56.065l.38-1.855z"/></g><g clip-rule="evenodd" fill="#9e3622" fill-rule="evenodd"><path d="M213.164 354.39h.18v1.856h-.89l.074-.22v-.004l.03-.086v-.004l.055-.154.005-.013.006-.018.043-.12.01-.03.03-.083.003-.008.028-.074.005-.014.01-.03.012-.03.003-.007.02-.05.01-.028v-.002l.01-.027.01-.03.01-.023.002-.005.01-.03.012-.028.007-.017.003-.01.01-.03.012-.028.004-.01.006-.02.01-.027.012-.028v-.004l.01-.024.012-.03.01-.025v-.002l.012-.027.01-.028.01-.02.003-.007.01-.026.012-.027.005-.013.006-.015.012-.028.01-.027.003-.006.01-.022.01-.027.012-.026.01-.026.013-.027.01-.02v-.006l.013-.026.013-.026.006-.014.004-.012.02-.025zm3.453 0h1.855v1.856h-1.855v-1.855zm5.128 0h1.855v1.856h-1.855v-1.855zm5.128 0h1.855v1.856h-1.855v-1.855zm5.13 0h1.854v1.856h-1.855v-1.855zm5.127 0h1.855v1.856h-1.855v-1.855zm5.128 0h1.855v1.856h-1.855v-1.855zm5.13 0h1.854v1.856h-1.855v-1.855zm5.127 0h1.855v1.856h-1.855v-1.855zm5.128 0h1.855v1.856h-1.855v-1.855zm5.128 0h.18l.012.027.006.012.006.013.01.026.013.025.003.006.01.02.01.028.013.026.01.027.012.028.01.02v.007l.013.027.01.027.007.014.005.013.012.027.01.027.004.01.008.02.01.027.012.027v.003l.01.025.012.028.01.024v.004l.012.028.01.028.008.018.004.01.01.028.012.03.005.01.006.018.01.03.012.028.002.005.01.025.01.03.01.026v.002l.012.03.02.05.002.007.01.028.012.03.006.015.006.015.022.06.003.007.008.022.012.03.01.03.01.03.002.002.02.05v.007l.023.06.006.02.005.012.01.03.01.03.005.01.03.083v.004l.03.086v.003l.022.063.007.02.014.042.01.03.005.015.007.018.01.032h-.888v-1.856z"/><path d="M211.533 359.52h1.81v1.854h-1.854V359.7l.002-.01.007-.03.006-.027.007-.028.002-.01.005-.018.007-.028.006-.03zm5.084 0h1.855v1.854h-1.855v-1.855zm5.128 0h1.855v1.854h-1.855v-1.855zm5.128 0h1.855v1.854h-1.855v-1.855zm5.13 0h1.854v1.854h-1.855v-1.855zm5.127 0h1.855v1.854h-1.855v-1.855zm5.128 0h1.855v1.854h-1.855v-1.855zm5.13 0h1.854v1.854h-1.855v-1.855zm5.127 0h1.855v1.854h-1.855v-1.855zm5.128 0h1.855v1.854h-1.855v-1.855zm5.128 0h1.81l.008.027.007.028.005.02.002.008.007.028.006.03.007.027.003.01v1.675h-1.855v-1.853z"/><path d="M211.49 364.647h1.854v1.855h-1.855v-1.855zm5.127 0h1.855v1.855h-1.855v-1.855zm5.128 0h1.855v1.855h-1.855v-1.855zm5.128 0h1.855v1.855h-1.855v-1.855zm5.13 0h1.854v1.855h-1.855v-1.855zm5.127 0h1.855v1.855h-1.855v-1.855zm5.128 0h1.855v1.855h-1.855v-1.855zm5.13 0h1.854v1.855h-1.855v-1.855zm5.127 0h1.855v1.855h-1.855v-1.855zm5.128 0h1.855v1.855h-1.855v-1.855zm5.128 0h1.856v1.855h-1.855v-1.855z"/></g><g clip-rule="evenodd" fill="#9e3622" fill-rule="evenodd"><path d="M221.233 368.26h.973c-.043-4.326-.044-7.442-.044-7.442s-.43 3.24-.93 7.44z"/><path d="M254.882 368.26h-.973c.042-4.326.042-7.442.042-7.442s.43 3.24.93 7.44z"/></g><path d="M244.152 331.52v13.913c-3.352 4.105-8.836 3.963-12.188 0V331.52c0-7.512 12.188-7.512 12.188 0z" clip-rule="evenodd" fill="#fddecc" fill-rule="evenodd"/><path d="M244.152 332.896v9.315c-2.306 1.682-4.53 2.624-6.094 2.624-1.565 0-3.788-.942-6.094-2.623v-9.314c0-7.512 12.188-7.512 12.188 0z" clip-rule="evenodd" fill="#f7c6ab" fill-rule="evenodd"/><path d="M251.36 305.82l1.54 11.365c.556 4.098-4.156 6.91-6.483 6.91h-16.833c-2.327 0-7.038-2.812-6.483-6.91l1.542-11.364c1.39-10.26 25.326-10.26 26.718 0z" clip-rule="evenodd" fill="#b9daf3" fill-rule="evenodd"/><path d="M238 325.52c12.196 0 22.144-4.432 22.144-9.868s-9.948-9.87-22.144-9.87c-12.196 0-22.144 4.434-22.144 9.87 0 5.436 9.948 9.87 22.144 9.87z" clip-rule="evenodd" fill="#89bce5" fill-rule="evenodd"/><path d="M228.22 309.132c2.786-4.947 5.728-10.948 9.94-10.78 4.052-.162 6.928 5.383 9.62 10.207-2.61-.48-5.472-.746-8.473-.746-4.04 0-7.825.48-11.086 1.318z" clip-rule="evenodd" fill="#89bce5" fill-rule="evenodd"/><path d="M238.058 308.665c-20.454 0-13.098 22.592-11.762 24.56 1.473 2.168 8.458 7.92 11.762 7.92 3.304 0 10.29-5.75 11.762-7.92 1.336-1.968 8.69-24.56-11.762-24.56z" clip-rule="evenodd" fill="#fddecc" fill-rule="evenodd"/><path d="M231.5 331.06c4.477 1.733 9.535 1.564 13.116 0-1.432 3.707-11.077 3.737-13.116 0z" clip-rule="evenodd" fill="#f7c6ab" fill-rule="evenodd"/><path d="M232.826 330.334c-.825.686-1.34 1.69-1.425 2.56-.566-.954.477-2.858 1.426-2.56z" clip-rule="evenodd" fill="#f7c6ab" fill-rule="evenodd"/><path d="M243.197 330.334c.825.686 1.34 1.69 1.425 2.56.567-.954-.475-2.858-1.425-2.56z" clip-rule="evenodd" fill="#f7c6ab" fill-rule="evenodd"/><path d="M251.04 318.826c-.054-2.464-2.665-7.065-4.376-7.815-1.712-.75-10.37.188-14.84 2.678-4.833 2.693-6.85 5.693-6.752 8.122.07 1.705-.654.658-1.123.508-.1-2.536.027-7.71.712-10.01.733-2.462 7.08-3.933 13.926-3.84 6.847.09 9.46 1.08 11.84 2.51 1.693 1.014 2.55 11.534 1.045 10.98-.568-.208-.4-1.706-.432-3.132z" clip-rule="evenodd" fill="#803019" fill-rule="evenodd"/><ellipse transform="matrix(-.313 -.95 .95 -.313 -14.968 638.705)" cx="223.59" cy="324.768" rx="3.539" ry="2.046" clip-rule="evenodd" fill="#fddecc" fill-rule="evenodd"/><ellipse transform="matrix(.313 -.95 .95 .313 -134.774 463.257)" cx="252.759" cy="324.768" rx="3.539" ry="2.046" clip-rule="evenodd" fill="#fddecc" fill-rule="evenodd"/><path d="M225.37 345.493c-5.892 0-7.12.65-7.365 4.115-.245 3.465.737 11.693 4.42 16.24 3.682 4.55 1.718-.65 2.21-4.33.49-3.68 1.227 5.197 2.945 1.083 1.72-4.114-.49-6.93-2.21-17.107z" clip-rule="evenodd" fill="#89bce5" fill-rule="evenodd"/><path d="M254.693 347.076c2.682 0 5.995 1.358 3.63 4.322-2.367 2.963-3.63 9.754-3.787 12.594-.158 2.84-1.893 4.816-1.893 2.47 0-2.346-2.21-7.78-2.84-5.433-.63 2.345-2.998 4.69-2.682.246.315-4.446 1.577-16.67 7.573-14.2z" clip-rule="evenodd" fill="#89bce5" fill-rule="evenodd"/><path d="M254.31 348.082c-5.105 5.53-20.684 12.958-30.894-.23-1.126-3.43-.81-5.262 2.168-4.412-.213-3.19 2.665-4.38 5.43-2.89 4.04 4.254 13.04 2.064 14.74-.7 2.632-.717 4.272.343 4.272 3.96 5.318-2.553 6.412 1.507 4.285 4.272z" clip-rule="evenodd" fill="#89bce5" fill-rule="evenodd"/><g><path d="M252.478 353.42v-1.846c.904-1.205 1.92-2.054 2.722-2.314-.575.48-1.684 2.096-2.722 4.16zm0-2.612c1.018-.77 1.908-1.893 2.248-3.267-.426.8-1.293 1.597-2.248 2.31v.958zm0-.958v.96c-1.003.757-2.13 1.172-2.98 1.146v-.193c.793-.463 1.94-1.137 2.98-1.913zm0 1.724c-1.467 1.956-2.64 4.85-2.125 7.69.405-1.99 1.24-4.08 2.125-5.844v-1.846zm-2.98-7.36v-.067c.098-.075.194-.15.286-.225-.092.098-.188.195-.286.293zm-25.312 15.663c-.188-.33-.366-.697-.535-1.09v.56c.172.187.35.365.536.53zm25.312-15.73v.068c-4.302 4.302-14.15 8.637-22.762-.01 8.786 7.125 18.582 3.163 22.762-.058zm0 7.615l-.285.166c.09.015.187.024.285.027v-.193zm-25.846-2.422v-1.157c.772 1.04 1.915 2.118 2.617 2.68-.947-.06-2-.613-2.618-1.523zm0 9.446c-1.588-3.713-2.307-9.865-1.77-10.83-1.656 1.267-1.24 8.057 1.77 11.39v-.56zm0-10.604v1.157c-.368-.544-.582-1.212-.526-1.977.138.264.318.54.526.82z" clip-rule="evenodd" fill="#355e83" fill-rule="evenodd"/></g></g><g clip-rule="evenodd" fill-rule="evenodd" transform="matrix(.86 0 0 .818 -23.347 -123.023)"><path d="M171.224 261.407c-12.55 5.503-16.316 8.436-17.804 9.753-2.294 2.03-3.562 9.594-4.915 16.018H205.3c-1.354-6.424-2.623-13.99-4.916-16.018-1.488-1.317-5.116-4.175-17.667-9.678l-11.493-.075z" fill="#fddecc"/><path d="M183.605 250.44v13.912c-3.687 4.105-9.72 3.963-13.407 0V250.44c0-7.514 13.407-7.514 13.407 0z" fill="#fddecc"/><path d="M183.605 250.44v9.314c-2.537 1.68-4.982 2.623-6.703 2.623-1.722 0-4.167-.942-6.704-2.622v-9.315c0-7.514 13.407-7.514 13.407 0z" fill="#f7c6ab"/><ellipse transform="matrix(-.313 -.95 .95 -.313 -16.952 472.32)" cx="162.391" cy="242.293" rx="3.539" ry="2.046" fill="#fddecc"/><ellipse transform="matrix(.313 -.95 .95 .313 -98.494 348.452)" cx="191.56" cy="242.293" rx="3.539" ry="2.046" fill="#fddecc"/><path d="M169.92 249.98c1.886 1.346 12.54 1.272 14.426 0-1.64 7.083-12.252 7.3-14.427 0z" fill="#f7c6ab"/><path d="M166.5 263.547c-8.825 4.144-11.798 6.48-13.08 7.614-2.294 2.03-3.562 9.595-4.915 16.02H205.3c-1.354-6.425-2.623-13.99-4.916-16.02-1.24-1.096-3.963-3.26-12.085-7.132-.06.06-.118.12-.174.18-7.625 8.247-18.427 4.194-21.35-.28-.09-.13-.183-.254-.275-.38z" fill="#89bce5"/><path d="M151.98 273.373c-1.444 3.254-2.435 8.866-3.475 13.805h11.528c-.258-8.057-.272-12.342-8.053-13.805z" fill="#b9daf3"/><path d="M201.824 273.373c1.444 3.254 2.435 8.866 3.475 13.805h-11.53c.26-8.057.273-12.342 8.054-13.805z" fill="#b9daf3"/><path d="M166.51 263.547c-.58.272-1.134.536-1.666.793 4.015 5.682 16.32 11.234 24.762.293-.404-.197-.822-.398-1.256-.605l-.174.18c-7.64 8.247-18.462 4.194-21.39-.28-.092-.13-.184-.254-.276-.38z" fill="#b9daf3"/><path d="M176.902 225.4c-20.454 0-13.098 24.714-11.762 26.68 1.473 2.17 8.458 7.92 11.762 7.92 3.305 0 10.29-5.75 11.762-7.92 1.337-1.967 8.692-26.68-11.762-26.68z" fill="#fddecc"/><path d="M172.16 251.26c1.3.706 8.644.667 9.944 0-1.13 3.717-8.445 3.832-9.944 0z" fill="#fff"/><path d="M199.925 246.833c-3.265-1.19-7.933-7.733-9.32-13.482-2.76-11.436-22.313-11.685-25.3-4.397-6.63 5.858-1.752 21.386-1.752 17.44 0-3.945 1.237-7.337 2.98-10.285 2.166 4.503 7.026 8.578 12.137 8.133-3.502-2.938-5.445-4.207-6.26-8.94 2.51 7.136 15.814 14.303 27.515 11.533z" fill="#f26a21"/></g><g transform="matrix(.86 0 0 .818 -23.347 -123.023)"><path d="M111.14 342.488c-12.55 5.503-16.316 8.436-17.804 9.753-2.294 2.03-3.562 9.596-4.915 16.02h56.794c-1.353-6.424-2.62-13.99-4.915-16.02-1.49-1.316-5.117-4.174-17.668-9.677l-11.492-.075z" clip-rule="evenodd" fill="#ef3f6c" fill-rule="evenodd"/><path d="M122.91 331.52v13.913c-1.704 2.142-3.934 3.446-6.093 3.548-2.302.11-4.528-1.13-6.095-3.547V331.52c0-7.512 12.19-7.512 12.19 0z" clip-rule="evenodd" fill="#fddecc" fill-rule="evenodd"/><path d="M122.91 331.52v9.315c-2.305 1.68-4.528 2.623-6.093 2.623-1.565 0-3.79-.942-6.095-2.622v-9.315c0-7.512 12.19-7.512 12.19 0z" clip-rule="evenodd" fill="#f7c6ab" fill-rule="evenodd"/><path d="M116.818 306.542c-20.454 0-13.098 24.715-11.762 26.682 1.473 2.17 8.457 7.92 11.762 7.92 3.304 0 10.29-5.75 11.762-7.92 1.336-1.967 8.69-26.682-11.762-26.682z" clip-rule="evenodd" fill="#fddecc" fill-rule="evenodd"/><path d="M122.265 333.624c-4.796.22-9.538-1.545-12.437-4.164.18 3.97 9.317 7.06 12.437 4.164z" clip-rule="evenodd" fill="#f7c6ab" fill-rule="evenodd"/><path d="M111.09 329.115c-1 .388-1.81 1.178-2.166 1.975-.234-1.084 1.36-2.56 2.165-1.975z" clip-rule="evenodd" fill="#f7c6ab" fill-rule="evenodd"/><path d="M112.106 311.402c-4.58-.05-7.834 1.66-9.26 5.857.12-3.146.09-8.092.443-11.503.222-2.16 1.888-5.124 6.512-6.007.95-.18-2.405 2.233-1.393 1.855 2.25-.843 4.614-2.165 6.634-2.448 1.386-.195-2.054 2.53-.917 2.02 2.962-1.322 5.21-2.702 7.32-2.76 1.27-.033-3.973 2.955-3.083 2.656 4.67-1.573 6.123-2.857 8.388-3.212.844-.13-5.788 4.207-2.768 3.39 3.334-.9 5.478-3.07 6.885-2.893 1.397.177-1.364 1.982-.85 4.428.585 2.77.446 10.335.605 14.475-1.425-4.198-5.094-6.064-9.26-5.857-3.412.17-5.896.036-9.26 0z" clip-rule="evenodd" fill="#cc7c54" fill-rule="evenodd"/><ellipse transform="matrix(-.313 -.95 .95 -.313 -174.3 523.902)" cx="102.389" cy="325.01" rx="3.539" ry="2.046" clip-rule="evenodd" fill="#fddecc" fill-rule="evenodd"/><ellipse transform="matrix(.313 -.95 .95 .313 -218.294 348.307)" cx="131.558" cy="325.01" rx="3.539" ry="2.046" clip-rule="evenodd" fill="#fddecc" fill-rule="evenodd"/><g clip-rule="evenodd" fill="#f6a6bd" fill-rule="evenodd"><path d="M116.818 348.98l-6.102-6.305-4.92 2.13 6.267 8.687z"/><path d="M116.818 348.98l6.093-6.296 4.93 2.12-6.268 8.688z"/></g><path d="M91.895 354.455c-1.444 3.254-2.435 8.866-3.475 13.805h11.528c-.257-8.057-.272-12.343-8.053-13.805z" clip-rule="evenodd" fill="#f6a6bd" fill-rule="evenodd"/><path d="M141.74 354.455c1.443 3.254 2.434 8.866 3.474 13.805h-11.528c.258-8.057.273-12.343 8.053-13.805z" clip-rule="evenodd" fill="#f6a6bd" fill-rule="evenodd"/><path d="M144.14 363.06c.17.82.906 4.4 1.075 5.2h-11.528c.027-.855.052-1.666.084-2.437l10.37-2.764z" clip-rule="evenodd" fill="#fddecc" fill-rule="evenodd"/><path d="M89.646 362.35c-.168.82-1.057 5.11-1.225 5.91h11.53c-.028-.854-.053-1.665-.084-2.436l-10.22-3.475z" clip-rule="evenodd" fill="#fddecc" fill-rule="evenodd"/><path fill="#fff" d="M88.057 368.23h57.192v12.538H88.056z"/></g><g clip-rule="evenodd" fill-rule="evenodd" transform="matrix(.86 0 0 .818 -23.347 -123.023)"><path d="M98.84 270.307c1.173 2.935 11.145 4.063 4.73-12.094-7.49-18.86 6.615-25.26 13.37-22.297 8.092-2.688 18.012 5.752 13.52 22.297-4.556 16.777 4.295 14.777 5.47 11.842-8.352 21.472-28.57 21.724-37.09.252z" fill="#4b1f0d"/><path d="M121.494 267.556c-.096.15-9.55.302-9.654.45-2.97 4.237-9.385 6.093-14.486 7.233-5.077 1.134-5.273 7.582-5.28 11.877h49.488c-.008-4.295-.102-10.72-5.28-11.878-5.18-1.16-11.972-3.256-14.788-7.684z" fill="#fddecc"/><path d="M121.776 258.51v12.147c-2.727 3.584-7.19 3.46-9.916 0V258.51c0-6.56 9.916-6.56 9.916 0z" fill="#fddecc"/><path d="M121.776 258.51v8.132c-1.876 1.468-3.684 2.29-4.958 2.29-1.273 0-3.082-.822-4.958-2.29v-8.133c0-6.56 9.916-6.56 9.916 0z" fill="#f7c6ab"/><path d="M116.817 266.912c-3.228 0-10.048-5.075-12.156-12.344-2.128-7.34 1.88-17.868 12.157-17.868 10.276 0 14.285 10.527 12.156 17.868-2.108 7.27-8.928 12.344-12.156 12.344z" fill="#fddecc"/><path d="M113.11 259.594c1.647-1.593 2.93-.398 3.89-.398s2.243-1.194 3.89.398c-.885 4.2-6.606 4.33-7.78 0z" fill="#ef3f6c"/><path d="M92.492 281.31c-.382 1.957-.416 4.06-.42 5.807h49.49c-.003-1.75-.02-3.85-.39-5.807h-48.68z" fill="#ef3f6c"/><path d="M113.112 259.594c1.645-1.593 2.928-.398 3.888-.398s2.244-1.194 3.89.398c-2.516 1.24-6.085.66-7.778 0z" fill="#c91f4b"/><path d="M103.57 247.14c.455-14.888 26.377-13.493 26.495 0-7.626 1.83-19.916 1.53-26.495 0z" fill="#4b1f0d"/><ellipse transform="matrix(-.395 -.919 .919 -.395 -87.897 448.87)" cx="103.92" cy="253.39" rx="3.539" ry="2.047" fill="#fddecc"/><ellipse transform="matrix(.395 -.919 .919 .395 -154.259 272.647)" cx="129.782" cy="253.39" rx="3.539" ry="2.047" fill="#fddecc"/><path d="M123.565 244.044c5.22 3.326 5.526 7.794 5.74 11.247 2.347-2.924 2.55-13.28-5.74-11.246z" fill="#4b1f0d"/><path d="M110.145 244.044c-5.22 3.326-5.527 7.794-5.74 11.247-2.348-2.924-2.55-13.28 5.74-11.246z" fill="#4b1f0d"/><g fill="#c31f44"><path d="M100.928 287.117c.03-.973.12-2.145.354-3.573-.438 1.393-.75 2.558-.968 3.573h.614z"/><path d="M132.707 287.117c-.03-.973-.12-2.145-.354-3.573.44 1.393.75 2.558.968 3.573h-.613z"/></g></g><g clip-rule="evenodd" fill-rule="evenodd" transform="matrix(.86 0 0 .818 -23.347 -123.023)"><path d="M238.413 278.525c-14.93.3-16.598-17.314-16.058-26.013 1.008-16.218 15.726-22.722 21.735-17.153 6.388 0 9.38 7.932 10.103 16.996.96 12.062-3.485 25.922-15.78 26.17z" fill="#a24323"/><path d="M242.734 267.556c-.096.15-9.55.302-9.654.45-2.97 4.237-9.385 6.093-14.486 7.233-5.077 1.134-5.273 7.582-5.28 11.877H262.8c-.008-4.295-.102-10.72-5.28-11.878-5.18-1.16-11.972-3.256-14.788-7.684z" fill="#fddecc"/><path d="M243.016 258.51v12.147c-2.727 3.584-7.19 3.46-9.917 0V258.51c0-6.56 9.916-6.56 9.916 0z" fill="#fddecc"/><path d="M243.016 258.51v8.132c-1.876 1.468-3.685 2.29-4.958 2.29-1.273 0-3.082-.822-4.958-2.29v-8.133c0-6.56 9.916-6.56 9.916 0z" fill="#f7c6ab"/><path d="M238.058 266.912c-3.228 0-10.048-5.075-12.156-12.344-2.13-7.34 1.88-17.868 12.156-17.868 10.275 0 14.285 10.527 12.156 17.868-2.11 7.27-8.928 12.344-12.156 12.344z" fill="#fddecc"/><path d="M234.17 259.594c1.645-1.593 2.927-.398 3.888-.398.96 0 2.243-1.194 3.89.398-.886 4.2-6.607 4.33-7.78 0z" fill="#ef3f6c"/><path d="M234.674 259.812c.9-.23 5.48-.277 6.767-.05-1.062 1.957-5.866 1.844-6.766.05z" fill="#fff"/><path d="M234.17 259.594c1.644-1.593 2.927-.398 3.888-.398.96 0 2.243-1.194 3.89.398-2.517 1.24-6.086.66-7.78 0z" fill="#ef3f6c"/><ellipse transform="matrix(-.395 -.919 .919 -.395 81.331 560.367)" cx="225.27" cy="253.39" rx="3.539" ry="2.046" fill="#fddecc"/><ellipse transform="matrix(.395 -.919 .919 .395 -80.796 384.148)" cx="251.131" cy="253.39" rx="3.539" ry="2.047" fill="#fddecc"/><path d="M251.195 254.437c3.902-16.726-7.875-19.57-14.747-19.57-7.74 0-13.573 9.184-12.267 19.88 4.13-2.488 7.767-7.404 16.79-15.423-1.312 2.354-3.87 6.635-12.57 14.395 4.682.772 13.402-5.128 18.05-11.302 1.11 4.39 2.706 9.194 4.745 12.02z" fill="#a24323"/><path d="M227.474 272.4c-2.824 1.354-6.054 2.206-8.88 2.838-5.077 1.135-5.273 7.583-5.28 11.878H262.8c-.008-4.295-.102-10.72-5.28-11.878-2.776-.62-6.012-1.51-8.853-2.883l-.008.01c-4.258 7.084-8.153 10.943-10.605 12.307-2.447-1.362-6.333-5.21-10.583-12.272z" fill="#6bc397"/><g fill="#3c8b65"><path d="M222.168 287.117c.03-.973.12-2.145.354-3.573-.438 1.393-.75 2.558-.968 3.573h.614z"/><path d="M253.947 287.117c-.03-.973-.12-2.145-.354-3.573.438 1.393.75 2.558.968 3.573h-.613z"/></g><path stroke-miterlimit="22.926" d="M226.576 272.77c2.306 4.728 7.07 11.168 11.48 13.285m11.482-13.285c-2.306 4.728-7.07 11.168-11.48 13.285" fill="none" stroke="#fff" stroke-width=".58" stroke-dasharray="1.1606, 1.741"/></g><g clip-rule="evenodd" fill-rule="evenodd" transform="matrix(.86 0 0 .818 -23.347 -123.023)"><path d="M173.82 313.58c.4 0 .782.08 1.133.23.494-1.098 1.55-1.857 2.77-1.857 1.57 0 2.866 1.25 3.047 2.863.51-.405 1.146-.646 1.834-.646 1.667 0 3.023 1.41 3.067 3.164.42-.227.894-.355 1.397-.355 1.695 0 3.068 1.455 3.068 3.252 0 .496-.105.966-.292 1.387.185-.038.376-.058.57-.058 1.695 0 3.07 1.456 3.07 3.253 0 .71-.215 1.366-.58 1.9.448.567.718 1.296.718 2.092 0 .97-.4 1.84-1.033 2.435.553.588.895 1.4.895 2.296 0 1.357-.784 2.52-1.897 3.007.486.576.78 1.335.78 2.168 0 1.478-.93 2.725-2.202 3.12.073.278.11.57.11.872 0 1.796-1.42 3.777-3.067 3.253.123 1.396-2.06 3.924-4.207 2.46-1.15 3.747-9.045 3.115-10.575.01-1.63 1.79-4.445.347-4.536-1.732-1.797.043-3.136-1.512-3.136-3.252 0-.268.03-.528.088-.777-1.472-.24-2.6-1.588-2.6-3.215 0-.35.054-.69.15-1.007-1.293-.383-2.24-1.64-2.24-3.133 0-.4.068-.785.193-1.14-.713-.596-1.17-1.52-1.17-2.556 0-.972.4-1.844 1.04-2.44-.474-.572-.76-1.322-.76-2.144 0-1.278.694-2.384 1.706-2.916-.11-.336-.17-.697-.17-1.074 0-1.796 1.374-3.253 3.068-3.253.098 0 .195.004.29.014.348-1.118 1.25-1.968 2.363-2.183-.003-.066-.005-.132-.005-.2 0-1.796 1.373-3.253 3.068-3.253.632 0 1.22.203 1.71.55.565-.694 1.402-1.137 2.336-1.137z" fill="#4b1f0d"/><path d="M181.578 348.698c-.096.15-9.55.302-9.654.45-2.97 4.237-9.385 6.093-14.486 7.233-5.077 1.136-5.273 7.584-5.28 11.88h49.488c-.008-4.296-.102-10.72-5.28-11.88-5.18-1.157-11.97-3.253-14.788-7.682z" fill="#e7a976"/><path d="M181.86 339.652V351.8c-2.728 3.585-7.19 3.46-9.917 0v-12.147c0-6.56 9.917-6.56 9.917 0z" fill="#e7a976"/><path d="M181.86 339.652v8.133c-1.876 1.468-3.685 2.29-4.958 2.29-1.273 0-3.082-.823-4.958-2.29v-8.133c0-6.56 9.916-6.56 9.916 0z" fill="#b88153"/><path d="M176.902 348.055c-3.228 0-10.048-5.075-12.156-12.344-2.13-7.34 1.88-17.867 12.156-17.867s14.285 10.527 12.156 17.868c-2.11 7.27-8.928 12.345-12.156 12.345z" fill="#e7a976"/><path d="M171.91 340.61c2.178-1.592 4.45-.65 5.21-.65.76 0 2.907-.94 5.084.65-1.084 4.38-8.653 4.49-10.293 0z" fill="#f1698f"/><path d="M172.024 340.588c2.02-.713 3.807.683 5.08.683 1.27 0 3.06-1.873 5.082-.61-2.368 2.413-7.778 2.282-10.162-.072z" fill="#a41f41"/><path d="M172.024 340.588c2.177-.897 3.78-.247 5.05-.247s3.065-.65 5.242.248c-2.368 1.352-7.908 1.307-10.292 0z" fill="#fff"/><path d="M171.932 340.596c2.167-1.572 4.028-.482 5.297-.482 1.268 0 2.796-1.096 4.973.496l-.025.066c-2.775-.05-7.317-.077-10.246-.08z" fill="#f1698f"/><ellipse transform="matrix(-.395 -.919 .919 -.395 -79.821 619.626)" cx="164.202" cy="336.107" rx="3.539" ry="2.046" fill="#e7a976"/><ellipse transform="matrix(.395 -.919 .919 .395 -193.772 378.087)" cx="190.063" cy="336.107" rx="3.539" ry="2.046" fill="#e7a976"/><path d="M188.368 335.634c9.5-12.385-8.79-19.537-13.596-19.537-4.136 0-16.916 11.56-9.26 20.38-.072-1.538.06-3.98 2.357-4.83 1.73.01 3.894-.112 3.93-1.8.366.165.768.258 1.19.258 1.44 0 2.642-1.07 2.94-2.5l.156.003c1.088 0 2.04-.61 2.57-1.528.488-.04.945-.207 1.34-.466.44.836 1.225 1.44 2.15 1.597.297 1.434 1.764 3.822 4.433 2.595 1.322 1.975 1.904 3.858 1.788 5.83z" fill="#4b1f0d"/><path d="M157.138 356.457c2.61 2.715 4.738 6.704 4.797 11.802h30.898c.125-4.018 1.105-8.617 3.44-11.856l.028-.038c-.22-.05-.446-.1-.674-.155-3.72 5.67-9.793 9.823-19.28 9.823-9.143 0-14.684-4.247-18.41-9.765l-.497.112c-.104.024-.204.05-.302.077z" fill="#fec760"/><g fill="#fff"><circle cx="169.409" cy="351.698" r=".947"/><circle cx="170.607" cy="353.206" r=".946"/><circle cx="172.186" cy="354.476" r=".947"/><circle cx="173.925" cy="355.323" r=".947"/><circle cx="175.85" cy="355.774" r=".946"/><circle cx="177.869" cy="355.79" r=".946"/><circle cx="179.852" cy="355.333" r=".946"/><circle cx="181.684" cy="354.434" r=".947"/><circle cx="183.204" cy="353.199" r=".947"/><circle cx="184.42" cy="351.658" r=".947"/><circle cx="165.052" cy="338.741" r=".947"/><circle cx="188.993" cy="338.741" r=".947"/></g></g></g></svg>