<?xml version="1.0" encoding="UTF-8" standalone="no"?>
<!-- Generator: Adobe Illustrator 17.0.0, SVG Export Plug-In . SVG Version: 6.00 Build 0)  -->

<svg
   xmlns:dc="http://purl.org/dc/elements/1.1/"
   xmlns:cc="http://creativecommons.org/ns#"
   xmlns:rdf="http://www.w3.org/1999/02/22-rdf-syntax-ns#"
   xmlns:svg="http://www.w3.org/2000/svg"
   xmlns="http://www.w3.org/2000/svg"
   xmlns:sodipodi="http://sodipodi.sourceforge.net/DTD/sodipodi-0.dtd"
   xmlns:inkscape="http://www.inkscape.org/namespaces/inkscape"
   version="1.1"
   x="0px"
   y="0px"
   width="250"
   height="250"
   viewBox="0 0 249.99999 250"
   enable-background="new 0 0 595.28 841.89"
   xml:space="preserve"
   id="svg2"
   inkscape:version="0.91pre3 r13670"
   sodipodi:docname="avatares.svg"><metadata
     id="metadata262"><rdf:RDF><cc:Work
         rdf:about=""><dc:format>image/svg+xml</dc:format><dc:type
           rdf:resource="http://purl.org/dc/dcmitype/StillImage" /><dc:title></dc:title></cc:Work></rdf:RDF></metadata><defs
     id="defs260" /><sodipodi:namedview
     pagecolor="#ffffff"
     bordercolor="#666666"
     borderopacity="1"
     objecttolerance="10"
     gridtolerance="10"
     guidetolerance="10"
     inkscape:pageopacity="0"
     inkscape:pageshadow="2"
     inkscape:window-width="640"
     inkscape:window-height="480"
     id="namedview258"
     showgrid="false"
     inkscape:zoom="0.28032165"
     inkscape:cx="235.21173"
     inkscape:cy="420.94501"
     inkscape:window-x="0"
     inkscape:window-y="0"
     inkscape:window-maximized="0"
     inkscape:current-layer="svg2" /><g
     id="Capa_1"
     display="none"
     style="display:none"
     transform="translate(0,-591.89002)"><path
       display="inline"
       d="m 289.887,390.341 c 0,13.002 -11.012,23.542 -24.595,23.542 l -178.903,0 c -13.584,0 -24.595,-10.54 -24.595,-23.542 l 0,-169.188 c 0,-13.002 11.012,-23.542 24.595,-23.542 l 178.903,0 c 13.584,0 24.595,10.54 24.595,23.542 l 0,169.188 z"
       id="path5"
       inkscape:connector-curvature="0"
       style="clip-rule:evenodd;display:inline;fill:#80a5c6;fill-rule:evenodd" /><path
       display="inline"
       d="m 280.087,383.144 c 0,11.895 -10.065,21.539 -22.482,21.539 l -163.529,0 c -12.416,0 -22.482,-9.643 -22.482,-21.539 l 0,-154.794 c 0,-11.895 10.065,-21.539 22.482,-21.539 l 163.53,0 c 12.416,0 22.482,9.643 22.482,21.539 l 0,154.794 z"
       id="path7"
       inkscape:connector-curvature="0"
       style="clip-rule:evenodd;display:inline;fill:#cee8ef;fill-rule:evenodd" /></g><g
     id="Capa_2"
     transform="matrix(0.86002391,0,0,0.81793166,-23.347432,-123.0232)"><g
       id="g10"><path
         d="m 232.38,342.488 c -12.552,5.503 -16.316,8.436 -17.805,9.753 -2.294,2.03 -3.562,9.595 -4.915,16.018 l 28.397,0 28.397,0 c -1.353,-6.423 -2.622,-13.989 -4.915,-16.018 -1.488,-1.317 -5.116,-4.175 -17.667,-9.678 l -11.492,-0.075 z"
         id="path12"
         inkscape:connector-curvature="0"
         style="clip-rule:evenodd;fill:#c86553;fill-rule:evenodd" /><path
         d="m 223.6,346.609 0,21.65 -1.855,0 0,-20.68 c 0.574,-0.308 1.191,-0.631 1.855,-0.97 l 0,0 z m 8.78,-4.121 -0.379,0.166 0,25.605 1.855,0 0,-25.761 -1.476,-0.01 0,0 z m -3.651,1.641 c -0.647,0.299 -1.265,0.588 -1.855,0.869 l 0,23.261 1.855,0 0,-24.13 0,0 z m -10.257,5.32 c -0.731,0.448 -1.341,0.849 -1.855,1.206 l 0,17.604 1.855,0 0,-18.81 0,0 z m -5.128,4.56 c -0.708,1.439 -1.308,3.444 -1.855,5.69 l 0,8.56 1.855,0 0,-14.25 0,0 z m 23.786,14.25 0.928,0 0.928,0 0,-25.728 -1.855,-0.012 0,25.74 -0.001,0 z m 5.128,0 1.855,0 0,-25.59 -0.24,-0.106 -1.614,-0.011 0,25.707 -10e-4,0 z m 5.129,0 1.855,0 0,-23.252 c -0.59,-0.28 -1.208,-0.569 -1.855,-0.866 l 0,24.118 0,0 z m 5.128,0 1.855,0 0,-20.679 c -0.573,-0.307 -1.19,-0.629 -1.855,-0.968 l 0,21.647 0,0 z m 5.128,0 1.855,0 0,-17.608 c -0.512,-0.357 -1.123,-0.757 -1.855,-1.206 l 0,18.814 0,0 z m 5.128,0 1.855,0 0,-8.56 c -0.546,-2.246 -1.146,-4.251 -1.855,-5.691 l 0,14.251 z"
         id="path14"
         inkscape:connector-curvature="0"
         style="clip-rule:evenodd;fill:#c44b34;fill-rule:evenodd" /><g
         id="g16"><path
           d="m 213.164,354.391 49.786,0 c 0.249,0.553 0.485,1.177 0.71,1.855 l -51.205,0 c 0.225,-0.679 0.46,-1.302 0.709,-1.855 z"
           id="path18"
           inkscape:connector-curvature="0"
           style="clip-rule:evenodd;fill:#c44b34;fill-rule:evenodd" /><path
           d="m 211.533,359.519 53.049,0 c 0.148,0.602 0.292,1.223 0.434,1.855 l -53.916,0 c 0.141,-0.632 0.285,-1.253 0.433,-1.855 z"
           id="path20"
           inkscape:connector-curvature="0"
           style="clip-rule:evenodd;fill:#c44b34;fill-rule:evenodd" /><path
           d="m 210.404,364.647 55.307,0 c 0.127,0.619 0.254,1.24 0.38,1.855 l -56.066,0 c 0.126,-0.615 0.252,-1.235 0.379,-1.855 z"
           id="path22"
           inkscape:connector-curvature="0"
           style="clip-rule:evenodd;fill:#c44b34;fill-rule:evenodd" /></g><g
         id="g24"><path
           d="m 213.164,354.391 0.179,0 0,1.855 -0.889,0 0.074,-0.221 0.001,-0.003 0.029,-0.086 0.001,-0.004 0.054,-0.154 0.005,-0.013 0.006,-0.018 0.043,-0.121 0.011,-0.029 0,-10e-4 0.03,-0.082 0.002,-0.008 0.028,-0.074 0.005,-0.014 0.011,-0.03 0.011,-0.029 0.003,-0.008 0.019,-0.05 0.011,-0.029 0,-0.002 0.01,-0.027 0.011,-0.029 0.009,-0.024 0.002,-0.005 0.011,-0.029 0.011,-0.029 0.007,-0.017 0.004,-0.011 0.011,-0.029 0.011,-0.028 0.004,-0.011 0.007,-0.018 0.011,-0.028 0.011,-0.028 0.001,-0.004 0.01,-0.024 0.011,-0.028 0.01,-0.026 0.001,-0.002 0.011,-0.027 0.011,-0.028 0.008,-0.019 0.004,-0.008 0.011,-0.027 0.011,-0.027 0.005,-0.013 0.006,-0.015 0.012,-0.027 0.011,-0.027 0.002,-0.006 0.009,-0.021 0.012,-0.027 0.011,-0.027 0,0 0.011,-0.026 0.012,-0.027 0.009,-0.021 0.002,-0.006 0.012,-0.026 0.012,-0.026 0.006,-0.014 0.005,-0.012 0.02,-0.025 0,0 z m 3.453,0 1.855,0 0,1.855 -1.855,0 0,-1.855 0,0 z m 5.128,0 1.855,0 0,1.855 -1.855,0 0,-1.855 0,0 z m 5.128,0 1.855,0 0,1.855 -1.855,0 0,-1.855 0,0 z m 5.129,0 1.855,0 0,1.855 -1.855,0 0,-1.855 0,0 z m 5.128,0 1.855,0 0,1.855 -1.855,0 0,-1.855 0,0 z m 5.128,0 1.855,0 0,1.855 -1.855,0 0,-1.855 0,0 z m 5.129,0 1.855,0 0,1.855 -1.855,0 0,-1.855 0,0 z m 5.128,0 1.855,0 0,1.855 -1.855,0 0,-1.855 0,0 z m 5.128,0 1.855,0 0,1.855 -1.855,0 0,-1.855 0,0 z m 5.128,0 0.179,0 0.012,0.026 0.006,0.012 0.006,0.014 0.011,0.026 0.012,0.026 0.003,0.006 0.009,0.02 0.012,0.027 0.012,0.026 0.011,0.027 0.011,0.027 0.009,0.021 0.002,0.006 0.012,0.027 0.011,0.027 0.006,0.015 0.005,0.013 0.012,0.027 0.011,0.027 0.003,0.009 0.008,0.019 0.011,0.028 0.011,0.027 10e-4,0.003 0.01,0.025 0.011,0.028 0.009,0.024 0.002,0.004 0.011,0.028 0.011,0.028 0.007,0.018 0.004,0.01 0.011,0.028 0.011,0.029 0.005,0.012 0.007,0.017 0.011,0.029 0.011,0.029 0.002,0.005 0.009,0.024 0.011,0.029 0.01,0.027 10e-4,10e-4 0.011,0.029 0.019,0.05 0.003,0.008 0.011,0.029 0.011,0.03 0.006,0.015 0.006,0.015 0.022,0.059 0.003,0.008 0.008,0.022 0.011,0.03 0.011,0.03 0,0.001 0.01,0.029 0.001,0.002 0.019,0.052 0.002,0.006 0.022,0.061 0.006,0.018 0.005,0.013 0.011,0.031 0.01,0.03 0.004,0.011 0.029,0.082 10e-4,0.004 0.029,0.086 0.001,0.003 0.022,0.063 0.007,0.021 0.014,0.042 0.011,0.031 0.004,0.014 0.006,0.018 0.01,0.032 -0.888,0 0,-1.856 z"
           id="path26"
           inkscape:connector-curvature="0"
           style="clip-rule:evenodd;fill:#9e3622;fill-rule:evenodd" /><path
           d="m 211.533,359.519 1.811,0 0,1.855 -1.855,0 0,-1.675 0,0 0.003,-0.01 0.007,-0.028 0.007,-0.028 0.007,-0.028 0.002,-0.009 0.005,-0.019 0.007,-0.028 0.006,-0.03 0,0 z m 5.084,0 1.855,0 0,1.855 -1.855,0 0,-1.855 0,0 z m 5.128,0 1.855,0 0,1.855 -1.855,0 0,-1.855 0,0 z m 5.128,0 1.855,0 0,1.855 -1.855,0 0,-1.855 0,0 z m 5.129,0 1.855,0 0,1.855 -1.855,0 0,-1.855 0,0 z m 5.128,0 1.855,0 0,1.855 -1.855,0 0,-1.855 0,0 z m 5.128,0 1.855,0 0,1.855 -1.855,0 0,-1.855 0,0 z m 5.129,0 1.855,0 0,1.855 -1.855,0 0,-1.855 0,0 z m 5.128,0 1.855,0 0,1.855 -1.855,0 0,-1.855 0,0 z m 5.128,0 1.855,0 0,1.855 -1.855,0 0,-1.855 0,0 z m 5.128,0 1.81,0 0.007,0.028 0.007,0.028 0.005,0.019 0.002,0.009 0.007,0.028 0.007,0.028 0.007,0.028 0.003,0.011 0,0 0,1.674 -1.855,0 0,-1.853 z"
           id="path28"
           inkscape:connector-curvature="0"
           style="clip-rule:evenodd;fill:#9e3622;fill-rule:evenodd" /><path
           d="m 211.489,364.647 1.855,0 0,1.855 -1.855,0 0,-1.855 0,0 z m 5.128,0 1.855,0 0,1.855 -1.855,0 0,-1.855 0,0 z m 5.128,0 1.855,0 0,1.855 -1.855,0 0,-1.855 0,0 z m 5.128,0 1.855,0 0,1.855 -1.855,0 0,-1.855 0,0 z m 5.129,0 1.855,0 0,1.855 -1.855,0 0,-1.855 0,0 z m 5.128,0 1.855,0 0,1.855 -1.855,0 0,-1.855 0,0 z m 5.128,0 1.855,0 0,1.855 -1.855,0 0,-1.855 0,0 z m 5.129,0 1.855,0 0,1.855 -1.855,0 0,-1.855 0,0 z m 5.128,0 1.855,0 0,1.855 -1.855,0 0,-1.855 0,0 z m 5.128,0 1.855,0 0,1.855 -1.855,0 0,-1.855 0,0 z m 5.128,0 1.855,0 0,1.855 -1.855,0 0,-1.855 z"
           id="path30"
           inkscape:connector-curvature="0"
           style="clip-rule:evenodd;fill:#9e3622;fill-rule:evenodd" /></g><g
         id="g32"><path
           d="m 221.233,368.259 0.973,0 c -0.043,-4.325 -0.044,-7.441 -0.044,-7.441 0,0 -0.431,3.239 -0.929,7.441 z"
           id="path34"
           inkscape:connector-curvature="0"
           style="clip-rule:evenodd;fill:#9e3622;fill-rule:evenodd" /><path
           d="m 254.882,368.259 -0.973,0 c 0.043,-4.325 0.043,-7.441 0.043,-7.441 0,0 0.431,3.239 0.93,7.441 z"
           id="path36"
           inkscape:connector-curvature="0"
           style="clip-rule:evenodd;fill:#9e3622;fill-rule:evenodd" /></g><path
         d="m 244.152,331.52 0,13.913 c -3.352,4.105 -8.836,3.963 -12.188,0 l 0,-13.913 c -0.001,-7.512 12.188,-7.512 12.188,0 z"
         id="path38"
         inkscape:connector-curvature="0"
         style="clip-rule:evenodd;fill:#fddecc;fill-rule:evenodd" /><path
         d="m 244.152,332.896 0,9.315 c -2.306,1.681 -4.529,2.623 -6.094,2.623 -1.565,0 -3.788,-0.942 -6.094,-2.623 l 0,-9.315 c -0.001,-7.512 12.188,-7.512 12.188,0 z"
         id="path40"
         inkscape:connector-curvature="0"
         style="clip-rule:evenodd;fill:#f7c6ab;fill-rule:evenodd" /><path
         d="m 251.36,305.821 1.54,11.364 c 0.556,4.098 -4.156,6.911 -6.483,6.911 l -16.833,0 c -2.327,0 -7.038,-2.813 -6.483,-6.911 l 1.541,-11.364 c 1.391,-10.262 25.326,-10.262 26.718,0 z"
         id="path42"
         inkscape:connector-curvature="0"
         style="clip-rule:evenodd;fill:#b9daf3;fill-rule:evenodd" /><path
         d="m 238,325.521 c 12.196,0 22.144,-4.433 22.144,-9.869 0,-5.436 -9.948,-9.869 -22.144,-9.869 -12.196,0 -22.144,4.433 -22.144,9.869 0,5.436 9.948,9.869 22.144,9.869 z"
         id="path44"
         inkscape:connector-curvature="0"
         style="clip-rule:evenodd;fill:#89bce5;fill-rule:evenodd" /><path
         d="m 228.221,309.132 c 2.785,-4.947 5.727,-10.948 9.94,-10.78 4.051,-0.162 6.927,5.383 9.618,10.207 -2.61,-0.48 -5.471,-0.745 -8.472,-0.745 -4.039,0 -7.825,0.48 -11.086,1.318 z"
         id="path46"
         inkscape:connector-curvature="0"
         style="clip-rule:evenodd;fill:#89bce5;fill-rule:evenodd" /><path
         d="m 238.058,308.665 c -20.454,0 -13.098,22.592 -11.762,24.559 1.473,2.169 8.458,7.92 11.762,7.92 3.304,0 10.289,-5.75 11.762,-7.92 1.336,-1.967 8.691,-24.559 -11.762,-24.559 z"
         id="path48"
         inkscape:connector-curvature="0"
         style="clip-rule:evenodd;fill:#fddecc;fill-rule:evenodd" /><path
         d="m 231.5,331.061 c 4.477,1.732 9.535,1.563 13.116,0 -1.432,3.706 -11.077,3.736 -13.116,0 z"
         id="path50"
         inkscape:connector-curvature="0"
         style="clip-rule:evenodd;fill:#f7c6ab;fill-rule:evenodd" /><path
         d="m 232.826,330.334 c -0.825,0.686 -1.341,1.691 -1.425,2.56 -0.567,-0.954 0.476,-2.858 1.425,-2.56 z"
         id="path52"
         inkscape:connector-curvature="0"
         style="clip-rule:evenodd;fill:#f7c6ab;fill-rule:evenodd" /><path
         d="m 243.197,330.334 c 0.825,0.686 1.341,1.691 1.425,2.56 0.567,-0.954 -0.475,-2.858 -1.425,-2.56 z"
         id="path54"
         inkscape:connector-curvature="0"
         style="clip-rule:evenodd;fill:#f7c6ab;fill-rule:evenodd" /><path
         d="m 251.041,318.826 c -0.055,-2.464 -2.666,-7.065 -4.377,-7.815 -1.712,-0.75 -10.369,0.187 -14.839,2.677 -4.834,2.693 -6.852,5.693 -6.753,8.122 0.07,1.705 -0.654,0.658 -1.123,0.508 -0.098,-2.536 0.028,-7.711 0.713,-10.01 0.733,-2.462 7.079,-3.933 13.926,-3.841 6.847,0.092 9.459,1.081 11.841,2.51 1.692,1.015 2.549,11.535 1.044,10.982 -0.568,-0.209 -0.4,-1.707 -0.432,-3.133 z"
         id="path56"
         inkscape:connector-curvature="0"
         style="clip-rule:evenodd;fill:#803019;fill-rule:evenodd" /><ellipse
         transform="matrix(-0.3127,-0.9498,0.9498,-0.3127,-14.9683,638.7048)"
         cx="223.59"
         cy="324.76801"
         rx="3.539"
         ry="2.046"
         id="ellipse58"
         style="clip-rule:evenodd;fill:#fddecc;fill-rule:evenodd" /><ellipse
         transform="matrix(0.3128,-0.9498,0.9498,0.3128,-134.7742,463.2573)"
         cx="252.759"
         cy="324.76801"
         rx="3.539"
         ry="2.046"
         id="ellipse60"
         style="clip-rule:evenodd;fill:#fddecc;fill-rule:evenodd" /><path
         d="m 225.371,345.493 c -5.893,0 -7.12,0.65 -7.366,4.115 -0.245,3.465 0.737,11.693 4.419,16.241 3.683,4.548 1.719,-0.65 2.21,-4.331 0.491,-3.681 1.228,5.197 2.946,1.083 1.719,-4.115 -0.49,-6.931 -2.209,-17.108 z"
         id="path62"
         inkscape:connector-curvature="0"
         style="clip-rule:evenodd;fill:#89bce5;fill-rule:evenodd" /><path
         d="m 254.693,347.076 c 2.682,0 5.995,1.358 3.629,4.322 -2.366,2.963 -3.629,9.754 -3.786,12.594 -0.158,2.84 -1.893,4.816 -1.893,2.47 0,-2.346 -2.209,-7.779 -2.84,-5.433 -0.631,2.346 -2.998,4.692 -2.682,0.247 0.314,-4.446 1.576,-16.669 7.572,-14.2 z"
         id="path64"
         inkscape:connector-curvature="0"
         style="clip-rule:evenodd;fill:#89bce5;fill-rule:evenodd" /><path
         d="m 254.311,348.082 c -5.106,5.531 -20.685,12.958 -30.895,-0.231 -1.126,-3.428 -0.81,-5.261 2.168,-4.411 -0.213,-3.191 2.665,-4.38 5.43,-2.891 4.041,4.255 13.039,2.065 14.741,-0.7 2.631,-0.716 4.271,0.344 4.271,3.961 5.318,-2.553 6.412,1.507 4.285,4.272 z"
         id="path66"
         inkscape:connector-curvature="0"
         style="clip-rule:evenodd;fill:#89bce5;fill-rule:evenodd" /><g
         id="g68"><path
           d="m 252.478,353.42 0,-1.846 c 0.904,-1.205 1.919,-2.054 2.722,-2.314 -0.575,0.48 -1.684,2.096 -2.722,4.16 l 0,0 z m 0,-2.612 c 1.018,-0.77 1.908,-1.893 2.248,-3.267 l 0,0 c -0.426,0.798 -1.293,1.596 -2.248,2.308 l 0,0.959 z m 0,-0.958 0,0.959 c -1.003,0.758 -2.13,1.173 -2.98,1.147 l 0,-0.193 c 0.793,-0.463 1.939,-1.137 2.98,-1.913 l 0,0 z m 0,1.724 c -1.467,1.956 -2.639,4.851 -2.125,7.69 0.405,-1.99 1.239,-4.081 2.125,-5.844 l 0,-1.846 0,0 z m -2.98,-7.359 0,-0.068 c 0.098,-0.075 0.194,-0.151 0.286,-0.225 l 0,0 c -0.092,0.098 -0.188,0.195 -0.286,0.293 z m -25.312,15.662 c -0.188,-0.33 -0.366,-0.697 -0.535,-1.091 l 0,0.56 c 0.171,0.188 0.348,0.366 0.535,0.531 l 0,0 z m 25.312,-15.73 0,0.068 c -4.302,4.302 -14.149,8.637 -22.762,-0.01 8.786,7.125 18.582,3.163 22.762,-0.058 l 0,0 z m 0,7.615 -0.285,0.166 c 0.091,0.015 0.187,0.024 0.285,0.027 l 0,-0.193 0,0 z m -25.846,-2.422 0,-1.157 c 0.772,1.041 1.915,2.118 2.617,2.679 -0.946,-0.058 -2,-0.612 -2.617,-1.522 z m 0,9.446 c -1.588,-3.713 -2.307,-9.865 -1.771,-10.83 -1.655,1.267 -1.238,8.057 1.771,11.39 l 0,-0.56 0,0 z m 0,-10.604 0,1.157 c -0.368,-0.543 -0.582,-1.211 -0.526,-1.976 0.138,0.264 0.318,0.54 0.526,0.819 z"
           id="path70"
           inkscape:connector-curvature="0"
           style="clip-rule:evenodd;fill:#355e83;fill-rule:evenodd" /></g></g><g
       id="g72"><path
         d="m 171.224,261.407 c -12.551,5.503 -16.316,8.436 -17.804,9.753 -2.294,2.03 -3.562,9.594 -4.915,16.018 l 28.397,0 28.397,0 c -1.353,-6.424 -2.622,-13.989 -4.915,-16.018 -1.488,-1.317 -5.116,-4.175 -17.667,-9.678 l -11.493,-0.075 z"
         id="path74"
         inkscape:connector-curvature="0"
         style="clip-rule:evenodd;fill:#fddecc;fill-rule:evenodd" /><path
         d="m 183.605,250.439 0,13.913 c -3.687,4.105 -9.72,3.963 -13.407,0 l 0,-13.913 c 0,-7.513 13.407,-7.513 13.407,0 z"
         id="path76"
         inkscape:connector-curvature="0"
         style="clip-rule:evenodd;fill:#fddecc;fill-rule:evenodd" /><path
         d="m 183.605,250.439 0,9.315 c -2.537,1.681 -4.982,2.623 -6.703,2.623 -1.722,0 -4.167,-0.942 -6.704,-2.622 l 0,-9.315 c 0,-7.514 13.407,-7.514 13.407,-0.001 z"
         id="path78"
         inkscape:connector-curvature="0"
         style="clip-rule:evenodd;fill:#f7c6ab;fill-rule:evenodd" /><ellipse
         transform="matrix(-0.3128,-0.9498,0.9498,-0.3128,-16.9522,472.3203)"
         cx="162.39101"
         cy="242.293"
         rx="3.539"
         ry="2.046"
         id="ellipse80"
         style="clip-rule:evenodd;fill:#fddecc;fill-rule:evenodd" /><ellipse
         transform="matrix(0.3128,-0.9498,0.9498,0.3128,-98.4941,348.4521)"
         cx="191.56"
         cy="242.293"
         rx="3.539"
         ry="2.046"
         id="ellipse82"
         style="clip-rule:evenodd;fill:#fddecc;fill-rule:evenodd" /><path
         d="m 169.919,249.98 c 1.887,1.346 12.54,1.272 14.427,0 -1.64,7.083 -12.252,7.301 -14.427,0 z"
         id="path84"
         inkscape:connector-curvature="0"
         style="clip-rule:evenodd;fill:#f7c6ab;fill-rule:evenodd" /><path
         d="m 166.501,263.547 c -8.826,4.144 -11.799,6.479 -13.081,7.614 -2.294,2.03 -3.562,9.594 -4.915,16.018 l 28.397,0 28.397,0 c -1.353,-6.424 -2.622,-13.989 -4.915,-16.018 -1.239,-1.097 -3.963,-3.262 -12.085,-7.133 -0.058,0.06 -0.117,0.119 -0.173,0.18 -7.625,8.247 -18.427,4.194 -21.349,-0.28 -0.092,-0.13 -0.184,-0.254 -0.276,-0.381 z"
         id="path86"
         inkscape:connector-curvature="0"
         style="clip-rule:evenodd;fill:#89bce5;fill-rule:evenodd" /><path
         d="m 151.98,273.373 c -1.444,3.254 -2.435,8.866 -3.475,13.805 l 11.528,0 c -0.258,-8.057 -0.272,-12.342 -8.053,-13.805 z"
         id="path88"
         inkscape:connector-curvature="0"
         style="clip-rule:evenodd;fill:#b9daf3;fill-rule:evenodd" /><path
         d="m 201.824,273.373 c 1.444,3.254 2.435,8.866 3.475,13.805 l -11.528,0 c 0.258,-8.057 0.272,-12.342 8.053,-13.805 z"
         id="path90"
         inkscape:connector-curvature="0"
         style="clip-rule:evenodd;fill:#b9daf3;fill-rule:evenodd" /><path
         d="m 166.51,263.547 c -0.58,0.272 -1.134,0.536 -1.666,0.793 4.015,5.682 16.32,11.234 24.762,0.293 -0.404,-0.197 -0.822,-0.398 -1.256,-0.605 -0.058,0.06 -0.117,0.119 -0.174,0.18 -7.64,8.247 -18.462,4.194 -21.391,-0.28 -0.091,-0.13 -0.183,-0.254 -0.275,-0.381 z"
         id="path92"
         inkscape:connector-curvature="0"
         style="clip-rule:evenodd;fill:#b9daf3;fill-rule:evenodd" /><path
         d="m 176.902,225.399 c -20.454,0 -13.098,24.715 -11.762,26.682 1.473,2.17 8.458,7.92 11.762,7.92 3.305,0 10.289,-5.751 11.762,-7.92 1.337,-1.968 8.692,-26.682 -11.762,-26.682 z"
         id="path94"
         inkscape:connector-curvature="0"
         style="clip-rule:evenodd;fill:#fddecc;fill-rule:evenodd" /><path
         d="m 172.16,251.259 c 1.301,0.707 8.644,0.668 9.944,0 -1.13,3.718 -8.445,3.833 -9.944,0 z"
         id="path96"
         inkscape:connector-curvature="0"
         style="clip-rule:evenodd;fill:#ffffff;fill-rule:evenodd" /><path
         d="m 199.925,246.833 c -3.265,-1.19 -7.933,-7.733 -9.32,-13.482 -2.761,-11.437 -22.313,-11.686 -25.3,-4.398 -6.63,5.858 -1.752,21.386 -1.752,17.441 0,-3.946 1.237,-7.338 2.98,-10.286 2.166,4.503 7.026,8.578 12.137,8.133 -3.502,-2.939 -5.445,-4.208 -6.259,-8.941 2.508,7.136 15.813,14.303 27.514,11.533 z"
         id="path98"
         inkscape:connector-curvature="0"
         style="clip-rule:evenodd;fill:#f26a21;fill-rule:evenodd" /></g><g
       id="g100"><path
         d="m 111.14,342.488 c -12.551,5.503 -16.316,8.436 -17.804,9.753 -2.294,2.03 -3.562,9.595 -4.915,16.018 l 28.397,0 28.396,0 c -1.353,-6.423 -2.621,-13.989 -4.915,-16.018 -1.488,-1.317 -5.116,-4.175 -17.667,-9.678 l -11.492,-0.075 z"
         id="path102"
         inkscape:connector-curvature="0"
         style="clip-rule:evenodd;fill:#ef3f6c;fill-rule:evenodd" /><path
         d="m 122.911,331.52 0,13.913 c -1.705,2.142 -3.935,3.446 -6.094,3.548 -2.302,0.108 -4.528,-1.13 -6.095,-3.548 l 0,-13.913 c 0.001,-7.512 12.189,-7.512 12.189,0 z"
         id="path104"
         inkscape:connector-curvature="0"
         style="clip-rule:evenodd;fill:#fddecc;fill-rule:evenodd" /><path
         d="m 122.911,331.52 0,9.315 c -2.306,1.681 -4.529,2.623 -6.094,2.623 -1.565,0 -3.789,-0.942 -6.095,-2.622 l 0,-9.315 c 0.001,-7.513 12.189,-7.513 12.189,-0.001 z"
         id="path106"
         inkscape:connector-curvature="0"
         style="clip-rule:evenodd;fill:#f7c6ab;fill-rule:evenodd" /><path
         d="m 116.818,306.542 c -20.454,0 -13.098,24.715 -11.762,26.682 1.473,2.169 8.457,7.92 11.762,7.92 3.304,0 10.289,-5.75 11.762,-7.92 1.336,-1.967 8.691,-26.682 -11.762,-26.682 z"
         id="path108"
         inkscape:connector-curvature="0"
         style="clip-rule:evenodd;fill:#fddecc;fill-rule:evenodd" /><path
         d="m 122.265,333.624 c -4.796,0.221 -9.538,-1.545 -12.437,-4.164 0.181,3.969 9.317,7.059 12.437,4.164 z"
         id="path110"
         inkscape:connector-curvature="0"
         style="clip-rule:evenodd;fill:#f7c6ab;fill-rule:evenodd" /><path
         d="m 111.089,329.115 c -1,0.388 -1.809,1.178 -2.165,1.975 -0.234,-1.084 1.359,-2.559 2.165,-1.975 z"
         id="path112"
         inkscape:connector-curvature="0"
         style="clip-rule:evenodd;fill:#f7c6ab;fill-rule:evenodd" /><path
         d="m 112.106,311.402 c -4.58,-0.049 -7.834,1.659 -9.259,5.857 0.12,-3.145 0.09,-8.091 0.442,-11.502 0.223,-2.16 1.889,-5.124 6.513,-6.007 0.949,-0.181 -2.405,2.233 -1.393,1.855 2.251,-0.843 4.615,-2.165 6.635,-2.448 1.386,-0.195 -2.054,2.529 -0.917,2.021 2.962,-1.323 5.209,-2.703 7.32,-2.76 1.27,-0.034 -3.973,2.954 -3.083,2.655 4.671,-1.573 6.123,-2.857 8.388,-3.212 0.844,-0.132 -5.788,4.206 -2.768,3.39 3.334,-0.901 5.478,-3.072 6.885,-2.894 1.398,0.177 -1.363,1.982 -0.848,4.428 0.584,2.77 0.445,10.335 0.604,14.475 -1.425,-4.198 -5.094,-6.064 -9.259,-5.857 -3.413,0.169 -5.897,0.036 -9.26,-0.001 z"
         id="path114"
         inkscape:connector-curvature="0"
         style="clip-rule:evenodd;fill:#cc7c54;fill-rule:evenodd" /><ellipse
         transform="matrix(-0.3127,-0.9498,0.9498,-0.3127,-174.2997,523.902)"
         cx="102.389"
         cy="325.01001"
         rx="3.539"
         ry="2.046"
         id="ellipse116"
         style="clip-rule:evenodd;fill:#fddecc;fill-rule:evenodd" /><ellipse
         transform="matrix(0.3128,-0.9498,0.9498,0.3128,-218.2939,348.3066)"
         cx="131.558"
         cy="325.01001"
         rx="3.539"
         ry="2.046"
         id="ellipse118"
         style="clip-rule:evenodd;fill:#fddecc;fill-rule:evenodd" /><g
         id="g120"><polygon
           points="116.818,348.981 110.716,342.675 105.795,344.804 112.063,353.492 "
           id="polygon122"
           style="clip-rule:evenodd;fill:#f6a6bd;fill-rule:evenodd" /><polygon
           points="116.818,348.981 122.911,342.684 127.84,344.804 121.572,353.492 "
           id="polygon124"
           style="clip-rule:evenodd;fill:#f6a6bd;fill-rule:evenodd" /></g><path
         d="m 91.895,354.455 c -1.444,3.254 -2.435,8.866 -3.475,13.805 l 11.528,0 c -0.257,-8.057 -0.272,-12.343 -8.053,-13.805 z"
         id="path126"
         inkscape:connector-curvature="0"
         style="clip-rule:evenodd;fill:#f6a6bd;fill-rule:evenodd" /><path
         d="m 141.739,354.455 c 1.444,3.254 2.435,8.866 3.475,13.805 l -11.528,0 c 0.258,-8.057 0.273,-12.343 8.053,-13.805 z"
         id="path128"
         inkscape:connector-curvature="0"
         style="clip-rule:evenodd;fill:#f6a6bd;fill-rule:evenodd" /><path
         d="m 144.141,363.059 c 0.168,0.821 0.905,4.401 1.074,5.2 l -11.528,0 c 0.027,-0.854 0.052,-1.665 0.084,-2.436 l 10.37,-2.764 z"
         id="path130"
         inkscape:connector-curvature="0"
         style="clip-rule:evenodd;fill:#fddecc;fill-rule:evenodd" /><path
         d="m 89.646,362.349 c -0.168,0.821 -1.057,5.112 -1.225,5.911 l 11.528,0 c -0.027,-0.854 -0.052,-1.665 -0.083,-2.436 l -10.22,-3.475 z"
         id="path132"
         inkscape:connector-curvature="0"
         style="clip-rule:evenodd;fill:#fddecc;fill-rule:evenodd" /><rect
         x="88.056999"
         y="368.229"
         width="57.192001"
         height="12.539"
         id="rect134"
         style="fill:#ffffff" /></g><g
       id="g136"><path
         d="m 98.839,270.307 c 1.174,2.935 11.146,4.063 4.73,-12.094 -7.489,-18.861 6.616,-25.26 13.371,-22.297 8.092,-2.688 18.012,5.752 13.519,22.297 -4.555,16.777 4.296,14.777 5.47,11.842 -8.351,21.472 -28.568,21.724 -37.09,0.252 z"
         id="path138"
         inkscape:connector-curvature="0"
         style="clip-rule:evenodd;fill:#4b1f0d;fill-rule:evenodd" /><path
         d="m 121.494,267.556 c -0.096,0.151 -9.55,0.302 -9.654,0.451 -2.969,4.236 -9.385,6.092 -14.486,7.232 -5.077,1.135 -5.273,7.583 -5.281,11.878 l 49.489,0 c -0.008,-4.295 -0.102,-10.72 -5.281,-11.878 -5.179,-1.159 -11.971,-3.255 -14.787,-7.683 z"
         id="path140"
         inkscape:connector-curvature="0"
         style="clip-rule:evenodd;fill:#fddecc;fill-rule:evenodd" /><path
         d="m 121.776,258.509 0,12.148 c -2.727,3.584 -7.189,3.46 -9.916,0 l 0,-12.148 c -0.001,-6.559 9.916,-6.559 9.916,0 z"
         id="path142"
         inkscape:connector-curvature="0"
         style="clip-rule:evenodd;fill:#fddecc;fill-rule:evenodd" /><path
         d="m 121.776,258.509 0,8.133 c -1.876,1.468 -3.684,2.29 -4.958,2.29 -1.273,0 -3.082,-0.822 -4.958,-2.29 l 0,-8.133 c -0.001,-6.559 9.916,-6.559 9.916,0 z"
         id="path144"
         inkscape:connector-curvature="0"
         style="clip-rule:evenodd;fill:#f7c6ab;fill-rule:evenodd" /><path
         d="m 116.817,266.912 c -3.228,0 -10.048,-5.075 -12.156,-12.344 -2.129,-7.34 1.88,-17.868 12.156,-17.868 10.276,0 14.285,10.527 12.156,17.868 -2.108,7.269 -8.928,12.344 -12.156,12.344 z"
         id="path146"
         inkscape:connector-curvature="0"
         style="clip-rule:evenodd;fill:#fddecc;fill-rule:evenodd" /><path
         d="m 113.111,259.594 c 1.646,-1.593 2.928,-0.398 3.889,-0.398 0.961,0 2.243,-1.194 3.889,0.398 -0.884,4.2 -6.605,4.329 -7.778,0 z"
         id="path148"
         inkscape:connector-curvature="0"
         style="clip-rule:evenodd;fill:#ef3f6c;fill-rule:evenodd" /><path
         d="m 92.492,281.31 c -0.382,1.957 -0.416,4.06 -0.419,5.807 l 49.489,0 c -0.003,-1.749 -0.021,-3.851 -0.39,-5.807 l -48.68,0 z"
         id="path150"
         inkscape:connector-curvature="0"
         style="clip-rule:evenodd;fill:#ef3f6c;fill-rule:evenodd" /><path
         d="m 113.112,259.594 c 1.645,-1.593 2.928,-0.398 3.888,-0.398 0.961,0 2.244,-1.194 3.889,0.398 -2.515,1.239 -6.084,0.661 -7.777,0 z"
         id="path152"
         inkscape:connector-curvature="0"
         style="clip-rule:evenodd;fill:#c91f4b;fill-rule:evenodd" /><path
         d="m 103.57,247.14 c 0.455,-14.888 26.377,-13.493 26.495,0 -7.626,1.831 -19.916,1.531 -26.495,0 z"
         id="path154"
         inkscape:connector-curvature="0"
         style="clip-rule:evenodd;fill:#4b1f0d;fill-rule:evenodd" /><ellipse
         transform="matrix(-0.3946,-0.9188,0.9188,-0.3946,-87.8972,448.8698)"
         cx="103.92"
         cy="253.39"
         rx="3.539"
         ry="2.0469999"
         id="ellipse156"
         style="clip-rule:evenodd;fill:#fddecc;fill-rule:evenodd" /><ellipse
         transform="matrix(0.3946,-0.9188,0.9188,0.3946,-154.259,272.6469)"
         cx="129.782"
         cy="253.39"
         rx="3.539"
         ry="2.0469999"
         id="ellipse158"
         style="clip-rule:evenodd;fill:#fddecc;fill-rule:evenodd" /><path
         d="m 123.565,244.044 c 5.22,3.326 5.526,7.794 5.74,11.247 2.347,-2.925 2.55,-13.281 -5.74,-11.247 z"
         id="path160"
         inkscape:connector-curvature="0"
         style="clip-rule:evenodd;fill:#4b1f0d;fill-rule:evenodd" /><path
         d="m 110.145,244.044 c -5.221,3.326 -5.527,7.794 -5.74,11.247 -2.348,-2.925 -2.55,-13.281 5.74,-11.247 z"
         id="path162"
         inkscape:connector-curvature="0"
         style="clip-rule:evenodd;fill:#4b1f0d;fill-rule:evenodd" /><g
         id="g164"><path
           d="m 100.928,287.117 c 0.03,-0.973 0.119,-2.145 0.354,-3.573 -0.438,1.393 -0.749,2.558 -0.968,3.573 l 0.614,0 z"
           id="path166"
           inkscape:connector-curvature="0"
           style="clip-rule:evenodd;fill:#c31f44;fill-rule:evenodd" /><path
           d="m 132.707,287.117 c -0.03,-0.973 -0.119,-2.145 -0.354,-3.573 0.439,1.393 0.749,2.558 0.968,3.573 l -0.614,0 z"
           id="path168"
           inkscape:connector-curvature="0"
           style="clip-rule:evenodd;fill:#c31f44;fill-rule:evenodd" /></g></g><g
       id="g170"><path
         d="m 238.413,278.525 c -14.929,0.299 -16.598,-17.314 -16.058,-26.013 1.008,-16.218 15.726,-22.722 21.735,-17.153 6.388,0 9.381,7.933 10.103,16.997 0.961,12.062 -3.485,25.922 -15.78,26.169 z"
         id="path172"
         inkscape:connector-curvature="0"
         style="clip-rule:evenodd;fill:#a24323;fill-rule:evenodd" /><path
         d="m 242.734,267.556 c -0.096,0.151 -9.55,0.302 -9.654,0.451 -2.969,4.236 -9.385,6.092 -14.486,7.232 -5.077,1.135 -5.273,7.583 -5.281,11.878 l 49.489,0 c -0.008,-4.295 -0.102,-10.72 -5.281,-11.878 -5.18,-1.159 -11.971,-3.255 -14.787,-7.683 z"
         id="path174"
         inkscape:connector-curvature="0"
         style="clip-rule:evenodd;fill:#fddecc;fill-rule:evenodd" /><path
         d="m 243.016,258.509 0,12.148 c -2.727,3.584 -7.189,3.46 -9.917,0 l 0,-12.148 c 0,-6.559 9.917,-6.559 9.917,0 z"
         id="path176"
         inkscape:connector-curvature="0"
         style="clip-rule:evenodd;fill:#fddecc;fill-rule:evenodd" /><path
         d="m 243.016,258.509 0,8.133 c -1.876,1.468 -3.685,2.29 -4.958,2.29 -1.273,0 -3.082,-0.822 -4.958,-2.29 l 0,-8.133 c -0.001,-6.559 9.916,-6.559 9.916,0 z"
         id="path178"
         inkscape:connector-curvature="0"
         style="clip-rule:evenodd;fill:#f7c6ab;fill-rule:evenodd" /><path
         d="m 238.058,266.912 c -3.228,0 -10.048,-5.075 -12.156,-12.344 -2.129,-7.34 1.88,-17.868 12.156,-17.868 10.275,0 14.285,10.527 12.156,17.868 -2.109,7.269 -8.928,12.344 -12.156,12.344 z"
         id="path180"
         inkscape:connector-curvature="0"
         style="clip-rule:evenodd;fill:#fddecc;fill-rule:evenodd" /><path
         d="m 234.169,259.594 c 1.646,-1.593 2.928,-0.398 3.889,-0.398 0.961,0 2.243,-1.194 3.889,0.398 -0.885,4.2 -6.606,4.329 -7.778,0 z"
         id="path182"
         inkscape:connector-curvature="0"
         style="clip-rule:evenodd;fill:#ef3f6c;fill-rule:evenodd" /><path
         d="m 234.674,259.812 c 0.899,-0.23 5.479,-0.277 6.767,-0.05 -1.063,1.957 -5.867,1.844 -6.767,0.05 z"
         id="path184"
         inkscape:connector-curvature="0"
         style="clip-rule:evenodd;fill:#ffffff;fill-rule:evenodd" /><path
         d="m 234.169,259.594 c 1.645,-1.593 2.928,-0.398 3.889,-0.398 0.961,0 2.243,-1.194 3.889,0.398 -2.516,1.239 -6.085,0.661 -7.778,0 z"
         id="path186"
         inkscape:connector-curvature="0"
         style="clip-rule:evenodd;fill:#ef3f6c;fill-rule:evenodd" /><ellipse
         transform="matrix(-0.3946,-0.9189,0.9189,-0.3946,81.3308,560.3671)"
         cx="225.27"
         cy="253.39"
         rx="3.539"
         ry="2.046"
         id="ellipse188"
         style="clip-rule:evenodd;fill:#fddecc;fill-rule:evenodd" /><ellipse
         transform="matrix(0.3946,-0.9188,0.9188,0.3946,-80.7964,384.1482)"
         cx="251.131"
         cy="253.39"
         rx="3.539"
         ry="2.0469999"
         id="ellipse190"
         style="clip-rule:evenodd;fill:#fddecc;fill-rule:evenodd" /><path
         d="m 251.195,254.437 c 3.902,-16.726 -7.875,-19.571 -14.747,-19.571 -7.739,0 -13.573,9.185 -12.267,19.882 4.128,-2.489 7.766,-7.405 16.79,-15.424 -1.313,2.354 -3.872,6.635 -12.57,14.395 4.681,0.773 13.401,-5.127 18.048,-11.301 1.11,4.389 2.707,9.194 4.746,12.019 z"
         id="path192"
         inkscape:connector-curvature="0"
         style="clip-rule:evenodd;fill:#a24323;fill-rule:evenodd" /><path
         d="m 227.474,272.4 c -2.824,1.354 -6.054,2.206 -8.88,2.838 -5.077,1.135 -5.273,7.583 -5.281,11.878 l 49.489,0 c -0.008,-4.295 -0.102,-10.72 -5.281,-11.878 -2.775,-0.62 -6.011,-1.51 -8.852,-2.883 l -0.007,0.011 c -4.258,7.083 -8.153,10.942 -10.605,12.306 -2.447,-1.362 -6.333,-5.211 -10.583,-12.272 z"
         id="path194"
         inkscape:connector-curvature="0"
         style="clip-rule:evenodd;fill:#6bc397;fill-rule:evenodd" /><g
         id="g196"><path
           d="m 222.168,287.117 c 0.03,-0.973 0.119,-2.145 0.354,-3.573 -0.438,1.393 -0.749,2.558 -0.968,3.573 l 0.614,0 z"
           id="path198"
           inkscape:connector-curvature="0"
           style="clip-rule:evenodd;fill:#3c8b65;fill-rule:evenodd" /><path
           d="m 253.947,287.117 c -0.03,-0.973 -0.119,-2.145 -0.354,-3.573 0.438,1.393 0.749,2.558 0.968,3.573 l -0.614,0 z"
           id="path200"
           inkscape:connector-curvature="0"
           style="clip-rule:evenodd;fill:#3c8b65;fill-rule:evenodd" /></g><path
         stroke-miterlimit="22.9256"
         d="m 226.576,272.77 c 2.306,4.728 7.07,11.168 11.481,13.285 m 11.481,-13.285 c -2.306,4.728 -7.07,11.168 -11.481,13.285"
         id="path202"
         inkscape:connector-curvature="0"
         style="clip-rule:evenodd;fill:none;fill-rule:evenodd;stroke:#ffffff;stroke-width:0.58029997;stroke-miterlimit:22.92560005;stroke-dasharray:1.1606, 1.741" /></g><g
       id="g204"><path
         d="m 173.819,313.58 c 0.4,0 0.783,0.081 1.134,0.229 0.494,-1.097 1.549,-1.856 2.771,-1.856 1.57,0 2.865,1.251 3.046,2.863 0.511,-0.405 1.146,-0.646 1.834,-0.646 1.667,0 3.023,1.409 3.067,3.164 0.418,-0.227 0.893,-0.355 1.396,-0.355 1.695,0 3.068,1.456 3.068,3.253 0,0.496 -0.105,0.966 -0.292,1.387 0.185,-0.037 0.376,-0.057 0.571,-0.057 1.694,0 3.068,1.456 3.068,3.253 0,0.71 -0.214,1.366 -0.579,1.901 0.448,0.566 0.718,1.295 0.718,2.091 0,0.969 -0.4,1.839 -1.034,2.435 0.553,0.588 0.895,1.399 0.895,2.296 0,1.357 -0.784,2.519 -1.897,3.007 0.486,0.576 0.781,1.335 0.781,2.168 0,1.478 -0.93,2.725 -2.203,3.121 0.073,0.277 0.111,0.569 0.111,0.871 0,1.796 -1.422,3.777 -3.068,3.253 0.123,1.396 -2.061,3.924 -4.207,2.461 -1.148,3.746 -9.044,3.114 -10.574,0.008 -1.631,1.79 -4.445,0.348 -4.536,-1.731 -1.796,0.043 -3.135,-1.512 -3.135,-3.252 0,-0.268 0.03,-0.528 0.088,-0.777 -1.472,-0.24 -2.599,-1.588 -2.599,-3.215 0,-0.351 0.053,-0.69 0.15,-1.007 -1.294,-0.383 -2.242,-1.64 -2.242,-3.133 0,-0.401 0.069,-0.785 0.194,-1.14 -0.713,-0.596 -1.17,-1.519 -1.17,-2.556 0,-0.972 0.401,-1.844 1.039,-2.44 -0.473,-0.572 -0.76,-1.322 -0.76,-2.144 0,-1.278 0.695,-2.384 1.707,-2.916 -0.111,-0.336 -0.171,-0.697 -0.171,-1.074 0,-1.796 1.374,-3.253 3.068,-3.253 0.098,0 0.195,0.005 0.291,0.015 0.347,-1.118 1.25,-1.968 2.362,-2.183 -0.004,-0.067 -0.006,-0.133 -0.006,-0.201 0,-1.796 1.373,-3.253 3.068,-3.253 0.632,0 1.221,0.203 1.709,0.551 0.566,-0.695 1.403,-1.138 2.337,-1.138 z"
         id="path206"
         inkscape:connector-curvature="0"
         style="clip-rule:evenodd;fill:#4b1f0d;fill-rule:evenodd" /><path
         d="m 181.578,348.698 c -0.096,0.151 -9.55,0.302 -9.654,0.451 -2.969,4.236 -9.385,6.092 -14.486,7.232 -5.077,1.135 -5.273,7.583 -5.281,11.878 l 49.489,0 c -0.008,-4.295 -0.102,-10.72 -5.281,-11.878 -5.179,-1.158 -11.97,-3.254 -14.787,-7.683 z"
         id="path208"
         inkscape:connector-curvature="0"
         style="clip-rule:evenodd;fill:#e7a976;fill-rule:evenodd" /><path
         d="m 181.86,339.652 0,12.148 c -2.728,3.585 -7.189,3.461 -9.917,0 l 0,-12.147 c 10e-4,-6.56 9.917,-6.56 9.917,-0.001 z"
         id="path210"
         inkscape:connector-curvature="0"
         style="clip-rule:evenodd;fill:#e7a976;fill-rule:evenodd" /><path
         d="m 181.86,339.652 0,8.133 c -1.876,1.468 -3.685,2.29 -4.958,2.29 -1.273,0 -3.082,-0.823 -4.958,-2.29 l 0,-8.133 c 0,-6.559 9.916,-6.559 9.916,0 z"
         id="path212"
         inkscape:connector-curvature="0"
         style="clip-rule:evenodd;fill:#b88153;fill-rule:evenodd" /><path
         d="m 176.902,348.055 c -3.228,0 -10.048,-5.075 -12.156,-12.344 -2.129,-7.34 1.88,-17.868 12.156,-17.868 10.276,0 14.285,10.527 12.156,17.868 -2.109,7.269 -8.928,12.344 -12.156,12.344 z"
         id="path214"
         inkscape:connector-curvature="0"
         style="clip-rule:evenodd;fill:#e7a976;fill-rule:evenodd" /><path
         d="m 171.911,340.611 c 2.177,-1.593 4.449,-0.65 5.209,-0.65 0.76,0 2.907,-0.942 5.084,0.65 -1.084,4.379 -8.653,4.489 -10.293,0 z"
         id="path216"
         inkscape:connector-curvature="0"
         style="clip-rule:evenodd;fill:#f1698f;fill-rule:evenodd" /><path
         d="m 172.024,340.588 c 2.021,-0.713 3.807,0.683 5.079,0.683 1.271,0 3.062,-1.874 5.083,-0.611 -2.368,2.413 -7.778,2.282 -10.162,-0.072 z"
         id="path218"
         inkscape:connector-curvature="0"
         style="clip-rule:evenodd;fill:#a41f41;fill-rule:evenodd" /><path
         d="m 172.024,340.588 c 2.177,-0.897 3.779,-0.247 5.05,-0.247 1.271,0 3.065,-0.651 5.242,0.247 -2.368,1.352 -7.908,1.307 -10.292,0 z"
         id="path220"
         inkscape:connector-curvature="0"
         style="clip-rule:evenodd;fill:#ffffff;fill-rule:evenodd" /><path
         d="m 171.932,340.596 c 2.167,-1.572 4.028,-0.482 5.297,-0.482 1.269,0 2.797,-1.096 4.974,0.496 -0.008,0.022 -0.017,0.044 -0.025,0.066 -2.775,-0.049 -7.317,-0.077 -10.246,-0.08 z"
         id="path222"
         inkscape:connector-curvature="0"
         style="clip-rule:evenodd;fill:#f1698f;fill-rule:evenodd" /><ellipse
         transform="matrix(-0.3947,-0.9188,0.9188,-0.3947,-79.8213,619.6265)"
         cx="164.202"
         cy="336.10699"
         rx="3.539"
         ry="2.046"
         id="ellipse224"
         style="clip-rule:evenodd;fill:#e7a976;fill-rule:evenodd" /><ellipse
         transform="matrix(0.3947,-0.9188,0.9188,0.3947,-193.7724,378.0874)"
         cx="190.063"
         cy="336.10699"
         rx="3.539"
         ry="2.046"
         id="ellipse226"
         style="clip-rule:evenodd;fill:#e7a976;fill-rule:evenodd" /><path
         d="m 188.368,335.634 c 9.499,-12.385 -8.789,-19.537 -13.596,-19.537 -4.136,0 -16.916,11.56 -9.261,20.38 -0.071,-1.538 0.06,-3.979 2.358,-4.83 1.731,0.009 3.895,-0.112 3.932,-1.801 0.365,0.166 0.767,0.259 1.189,0.259 1.439,0 2.642,-1.07 2.94,-2.501 0.052,0.003 0.104,0.004 0.156,0.004 1.088,0 2.04,-0.611 2.57,-1.528 0.488,-0.041 0.945,-0.207 1.339,-0.466 0.441,0.836 1.226,1.44 2.152,1.597 0.296,1.433 1.763,3.821 4.432,2.594 1.323,1.975 1.905,3.858 1.789,5.829 z"
         id="path228"
         inkscape:connector-curvature="0"
         style="clip-rule:evenodd;fill:#4b1f0d;fill-rule:evenodd" /><path
         d="m 157.138,356.457 c 2.611,2.715 4.738,6.704 4.797,11.802 l 30.898,0 c 0.125,-4.017 1.105,-8.616 3.441,-11.855 l 0.027,-0.038 c -0.222,-0.05 -0.447,-0.101 -0.675,-0.155 -3.719,5.67 -9.793,9.822 -19.28,9.822 -9.143,0 -14.684,-4.247 -18.411,-9.765 -0.166,0.038 -0.332,0.076 -0.496,0.112 -0.103,0.024 -0.203,0.05 -0.301,0.077 z"
         id="path230"
         inkscape:connector-curvature="0"
         style="clip-rule:evenodd;fill:#fec760;fill-rule:evenodd" /><g
         id="g232"><circle
           cx="169.409"
           cy="351.698"
           r="0.94700003"
           id="circle234"
           style="clip-rule:evenodd;fill:#ffffff;fill-rule:evenodd" /><circle
           cx="170.60699"
           cy="353.20599"
           r="0.94599998"
           id="circle236"
           style="clip-rule:evenodd;fill:#ffffff;fill-rule:evenodd" /><circle
           cx="172.186"
           cy="354.47601"
           r="0.94700003"
           id="circle238"
           style="clip-rule:evenodd;fill:#ffffff;fill-rule:evenodd" /><circle
           cx="173.925"
           cy="355.323"
           r="0.94700003"
           id="circle240"
           style="clip-rule:evenodd;fill:#ffffff;fill-rule:evenodd" /><circle
           cx="175.85001"
           cy="355.77399"
           r="0.94599998"
           id="circle242"
           style="clip-rule:evenodd;fill:#ffffff;fill-rule:evenodd" /><circle
           cx="177.869"
           cy="355.79001"
           r="0.94599998"
           id="circle244"
           style="clip-rule:evenodd;fill:#ffffff;fill-rule:evenodd" /><circle
           cx="179.85201"
           cy="355.33301"
           r="0.94599998"
           id="circle246"
           style="clip-rule:evenodd;fill:#ffffff;fill-rule:evenodd" /><circle
           cx="181.68401"
           cy="354.43399"
           r="0.94700003"
           id="circle248"
           style="clip-rule:evenodd;fill:#ffffff;fill-rule:evenodd" /><circle
           cx="183.20399"
           cy="353.19901"
           r="0.94700003"
           id="circle250"
           style="clip-rule:evenodd;fill:#ffffff;fill-rule:evenodd" /><circle
           cx="184.42"
           cy="351.65799"
           r="0.94700003"
           id="circle252"
           style="clip-rule:evenodd;fill:#ffffff;fill-rule:evenodd" /><circle
           cx="165.052"
           cy="338.741"
           r="0.94700003"
           id="circle254"
           style="clip-rule:evenodd;fill:#ffffff;fill-rule:evenodd" /><circle
           cx="188.993"
           cy="338.741"
           r="0.94700003"
           id="circle256"
           style="clip-rule:evenodd;fill:#ffffff;fill-rule:evenodd" /></g></g></g></svg>