<svg xmlns="http://www.w3.org/2000/svg" width="250" height="250" viewBox="0 0 249.99999 250" enable-background="new 0 0 595.28 841.89"><defs><filter id="a" color-interpolation-filters="sRGB"><feColorMatrix values="0.21 0.72 0.072 0 0 0.21 0.72 0.072 0 0 0.21 0.72 0.072 0 0 0 0 0 1 0"/></filter></defs><g transform="translate(-46.375 -163.81)" filter="url(#a)"><g><g><path stroke-miterlimit="10" d="M177 276.904c-2.014 0-3.5-1.632-3.5-3.646v-42.652c0-1.21.112-1.106-1.097-1.106h-25.52c-1.23 0-3.383.016-3.383 1.106v42.652c0 2.014-1.487 3.646-3.5 3.646-2.014 0-3.5-1.632-3.5-3.646v-42.652c0-5.025 4.957-9.106 10.384-9.106h25.52c5.195 0 8.096 3.91 8.096 9.106v42.652c0 2.014-1.487 3.646-3.5 3.646z" fill="#e6e6e5" stroke="#667f7f"/></g><path stroke-miterlimit="10" d="M166.142 318.5h-13.37l2.567-18.58c-2.63-1.476-4.407-4.584-4.407-7.812 0-4.754 3.852-8.76 8.607-8.76 4.754 0 8.608 3.78 8.608 8.535 0 3.29-1.848 6.71-4.563 8.16l2.557 18.457zm-36.103-45c-5.908 0-9.54 1.787-9.54 7.695v37.44c0 5.908 3.632 12.865 9.54 12.865h58.833c5.908 0 9.627-6.957 9.627-12.865v-37.44c0-5.908-3.718-7.695-9.627-7.695H130.04z" fill="#989898" stroke="#667f7f"/><g><path stroke-miterlimit="10" d="M188.873 273.5H158.5v9.845c6 .054 8.987 3.933 9.076 8.194.07 3.29-1.56 6.88-4.276 8.33l2.842 18.63H158.5v13h30.373c5.908 0 9.627-7.322 9.627-13.23v-37.44c0-5.908-3.718-7.33-9.627-7.33z" fill="#333" stroke="#667f7f"/></g></g><g><g><path stroke-miterlimit="10" fill="#e6e6e5" stroke="#667f7f" stroke-width=".414" d="M205.616 325.994l-7.288 10.976-35.625-23.654-1.728-6.15 9.016-4.826z"/><g><path stroke-miterlimit="10" fill="#989898" stroke="#667f7f" stroke-width=".414" d="M200.567 333.246l.125-.18-39.414-26.17-.24.174-.858 10.045 4.07 2.7 5.13-2.514-.37 5.677 2.918 1.938 5.035-2.493-.354 5.6 2.955 1.964 5.012-2.488-.35 5.583 11.34 7.53z"/></g></g><path stroke-miterlimit="10" d="M200.41 356.088c-8.836-5.868-11.243-17.788-5.375-26.625s17.787-11.244 26.624-5.377c8.836 5.868 11.243 17.788 5.376 26.625-5.868 8.838-17.788 11.245-26.625 5.378zm22.794-7.92c2.12-3.193 1.25-7.5-1.943-9.62-3.192-2.12-7.5-1.25-9.618 1.943-2.12 3.194-1.25 7.5 1.943 9.62 3.193 2.12 7.5 1.25 9.62-1.943z" fill="#e6e6e5" stroke="#667f7f" stroke-width=".414"/></g></g></svg>