<?xml version="1.0" encoding="UTF-8" standalone="no"?>
<!-- Generator: Adobe Illustrator 17.0.0, SVG Export Plug-In . SVG Version: 6.00 Build 0)  -->

<svg
   xmlns:dc="http://purl.org/dc/elements/1.1/"
   xmlns:cc="http://creativecommons.org/ns#"
   xmlns:rdf="http://www.w3.org/1999/02/22-rdf-syntax-ns#"
   xmlns:svg="http://www.w3.org/2000/svg"
   xmlns="http://www.w3.org/2000/svg"
   xmlns:sodipodi="http://sodipodi.sourceforge.net/DTD/sodipodi-0.dtd"
   xmlns:inkscape="http://www.inkscape.org/namespaces/inkscape"
   version="1.1"
   x="0px"
   y="0px"
   width="250"
   height="250"
   viewBox="0 0 249.99999 250"
   enable-background="new 0 0 595.28 841.89"
   xml:space="preserve"
   id="svg2"
   inkscape:version="0.91pre3 r13670"
   sodipodi:docname="desbloqueo.svg"><metadata
     id="metadata38"><rdf:RDF><cc:Work
         rdf:about=""><dc:format>image/svg+xml</dc:format><dc:type
           rdf:resource="http://purl.org/dc/dcmitype/StillImage" /><dc:title></dc:title></cc:Work></rdf:RDF></metadata><defs
     id="defs36" /><sodipodi:namedview
     pagecolor="#ffffff"
     bordercolor="#666666"
     borderopacity="1"
     objecttolerance="10"
     gridtolerance="10"
     guidetolerance="10"
     inkscape:pageopacity="0"
     inkscape:pageshadow="2"
     inkscape:window-width="1366"
     inkscape:window-height="705"
     id="namedview34"
     showgrid="false"
     inkscape:zoom="0.28032165"
     inkscape:cx="235.21173"
     inkscape:cy="420.94501"
     inkscape:window-x="-8"
     inkscape:window-y="-8"
     inkscape:window-maximized="1"
     inkscape:current-layer="svg2" /><g
     id="Capa_1"
     display="none"
     style="display:none"
     transform="translate(0,-591.89001)"><path
       display="inline"
       d="m 257.015,362.565 c 0,11.128 -9.425,20.149 -21.051,20.149 l -153.12,0 c -11.626,0 -21.051,-9.021 -21.051,-20.149 l 0,-144.805 c 0,-11.128 9.425,-20.149 21.051,-20.149 l 153.12,0 c 11.626,0 21.051,9.021 21.051,20.149 l 0,144.805 z"
       id="path5"
       inkscape:connector-curvature="0"
       style="clip-rule:evenodd;display:inline;fill:#80a5c6;fill-rule:evenodd" /><path
       display="inline"
       d="m 248.627,356.405 c 0,10.181 -8.615,18.435 -19.242,18.435 l -139.962,0 c -10.627,0 -19.242,-8.253 -19.242,-18.435 l 0,-132.485 c 0,-10.181 8.615,-18.435 19.242,-18.435 l 139.962,0 c 10.627,0 19.242,8.253 19.242,18.435 l 0,132.485 z"
       id="path7"
       inkscape:connector-curvature="0"
       style="clip-rule:evenodd;display:inline;fill:#cee8ef;fill-rule:evenodd" /></g><g
     id="Capa_2"
     transform="translate(-46.375297,-163.81034)"><g
       id="g10"><g
         id="g12"><path
           stroke-miterlimit="10"
           d="m 177,276.904 c -2.014,0 -3.5,-1.632 -3.5,-3.646 l 0,-42.652 c 0,-1.209 0.112,-1.106 -1.097,-1.106 l -25.519,0 c -1.232,0 -3.384,0.016 -3.384,1.106 l 0,42.652 c 0,2.014 -1.487,3.646 -3.5,3.646 -2.014,0 -3.5,-1.632 -3.5,-3.646 l 0,-42.652 c 0,-5.025 4.957,-9.106 10.384,-9.106 l 25.519,0 c 5.196,0 8.097,3.911 8.097,9.106 l 0,42.652 c 0,2.014 -1.487,3.646 -3.5,3.646 z"
           id="path14"
           inkscape:connector-curvature="0"
           style="fill:#e6e6e5;stroke:#667f7f;stroke-miterlimit:10" /></g><path
         stroke-miterlimit="10"
         d="m 166.142,318.5 -13.371,0 2.568,-18.58 c -2.629,-1.476 -4.406,-4.584 -4.406,-7.812 0,-4.754 3.852,-8.76 8.607,-8.76 4.754,0 8.608,3.781 8.608,8.535 0,3.291 -1.848,6.711 -4.563,8.16 l 2.557,18.457 z m -36.103,-45 c -5.907,0 -9.539,1.787 -9.539,7.695 l 0,37.44 c 0,5.908 3.632,12.865 9.539,12.865 l 58.834,0 c 5.908,0 9.627,-6.957 9.627,-12.865 l 0,-37.44 c 0,-5.908 -3.718,-7.695 -9.627,-7.695 l -58.834,0 z"
         id="path16"
         inkscape:connector-curvature="0"
         style="fill:#989898;stroke:#667f7f;stroke-miterlimit:10" /><g
         id="g18"><path
           stroke-miterlimit="10"
           d="m 188.873,273.5 -30.373,0 0,9.845 c 6,0.054 8.987,3.933 9.076,8.194 0.069,3.29 -1.561,6.882 -4.276,8.332 l 2.842,18.629 -7.642,0 0,13 30.373,0 c 5.908,0 9.627,-7.322 9.627,-13.23 l 0,-37.44 c 0,-5.908 -3.718,-7.33 -9.627,-7.33 z"
           id="path20"
           inkscape:connector-curvature="0"
           style="fill:#333333;stroke:#667f7f;stroke-miterlimit:10" /></g></g><g
       id="g22"><g
         id="g24"><polygon
           stroke-miterlimit="10"
           points="205.616,325.994 198.328,336.97 162.703,313.316 160.975,307.166 169.991,302.34 "
           id="polygon26"
           style="fill:#e6e6e5;stroke:#667f7f;stroke-width:0.41389999;stroke-miterlimit:10" /><g
           id="g28"><polygon
             stroke-miterlimit="10"
             points="200.567,333.246 200.692,333.065 161.278,306.895 161.039,307.07 160.18,317.115 164.249,319.816 169.379,317.301 169.009,322.977 171.928,324.915 176.963,322.422 176.609,328.023 179.565,329.986 184.577,327.498 184.226,333.081 195.567,340.611 "
             id="polygon30"
             style="fill:#989898;stroke:#667f7f;stroke-width:0.41389999;stroke-miterlimit:10" /></g></g><path
         stroke-miterlimit="10"
         d="m 200.411,356.088 c -8.837,-5.868 -11.244,-17.788 -5.376,-26.625 5.868,-8.837 17.787,-11.244 26.624,-5.377 8.837,5.868 11.244,17.788 5.377,26.625 -5.868,8.837 -17.788,11.244 -26.625,5.377 z m 22.793,-7.921 c 2.12,-3.192 1.25,-7.499 -1.943,-9.619 -3.193,-2.12 -7.5,-1.25 -9.619,1.943 -2.12,3.193 -1.25,7.499 1.943,9.619 3.193,2.119 7.499,1.249 9.619,-1.943 z"
         id="path32"
         inkscape:connector-curvature="0"
         style="fill:#e6e6e5;stroke:#667f7f;stroke-width:0.41389999;stroke-miterlimit:10" /></g></g></svg>