<?xml version="1.0" encoding="UTF-8" standalone="no"?>
<!-- Generator: Adobe Illustrator 17.0.0, SVG Export Plug-In . SVG Version: 6.00 Build 0)  -->

<svg
   xmlns:dc="http://purl.org/dc/elements/1.1/"
   xmlns:cc="http://creativecommons.org/ns#"
   xmlns:rdf="http://www.w3.org/1999/02/22-rdf-syntax-ns#"
   xmlns:svg="http://www.w3.org/2000/svg"
   xmlns="http://www.w3.org/2000/svg"
   xmlns:sodipodi="http://sodipodi.sourceforge.net/DTD/sodipodi-0.dtd"
   xmlns:inkscape="http://www.inkscape.org/namespaces/inkscape"
   version="1.1"
   x="0px"
   y="0px"
   width="250"
   height="250"
   viewBox="0 0 249.99999 250"
   enable-background="new 0 0 595.28 841.89"
   xml:space="preserve"
   id="svg2"
   inkscape:version="0.91pre3 r13670"
   sodipodi:docname="epica.svg"><metadata
     id="metadata202"><rdf:RDF><cc:Work
         rdf:about=""><dc:format>image/svg+xml</dc:format><dc:type
           rdf:resource="http://purl.org/dc/dcmitype/StillImage" /><dc:title></dc:title></cc:Work></rdf:RDF></metadata><defs
     id="defs200" /><sodipodi:namedview
     pagecolor="#ffffff"
     bordercolor="#666666"
     borderopacity="1"
     objecttolerance="10"
     gridtolerance="10"
     guidetolerance="10"
     inkscape:pageopacity="0"
     inkscape:pageshadow="2"
     inkscape:window-width="640"
     inkscape:window-height="480"
     id="namedview198"
     showgrid="false"
     inkscape:zoom="0.28032165"
     inkscape:cx="235.21173"
     inkscape:cy="420.94501"
     inkscape:window-x="0"
     inkscape:window-y="0"
     inkscape:window-maximized="0"
     inkscape:current-layer="svg2" /><g
     id="Capa_1"
     display="none"
     style="display:none"
     transform="translate(0,-591.89002)"><path
       display="inline"
       d="m 533.412,596.11 c 0,26.883 -22.768,48.676 -50.855,48.676 l -369.909,0 c -28.086,0 -50.855,-21.793 -50.855,-48.676 l 0,-349.823 c 0,-26.883 22.768,-48.676 50.855,-48.676 l 369.909,0 c 28.086,0 50.855,21.793 50.855,48.676 l 0,349.823 z"
       id="path5"
       inkscape:connector-curvature="0"
       style="clip-rule:evenodd;display:inline;fill:#80a5c6;fill-rule:evenodd" /><path
       display="inline"
       d="m 513.148,581.228 c 0,24.596 -20.812,44.534 -46.485,44.534 l -338.121,0 c -25.673,0 -46.485,-19.939 -46.485,-44.534 l 0,-320.06 c 0,-24.596 20.812,-44.534 46.485,-44.534 l 338.122,0 c 25.673,0 46.485,19.939 46.485,44.534 l 0,320.06 z"
       id="path7"
       inkscape:connector-curvature="0"
       style="clip-rule:evenodd;display:inline;fill:#cee8ef;fill-rule:evenodd" /></g><g
     id="Capa_2"
     transform="matrix(0.4367468,0,0,0.62605089,1.7434486,-149.45923)"><g
       id="g10"><path
         d="m 498.982,420.012 c 2.178,1.446 3.947,3.673 2.95,6.389 -0.967,2.657 -3.097,3.81 -5.539,3.908 4.054,3.204 1.387,10.248 -4.406,10.199 2.686,4.474 -2.149,8.206 -7.327,7.776 1.631,4.249 -2.589,8.001 -6.946,7.151 1.807,6.037 -4.953,11.586 -11.42,8.274 -0.029,-0.02 -0.039,-0.039 -0.068,-0.059 -4.113,2.843 -8.304,5.617 -12.778,7.825 -3.282,1.622 -8.636,4.591 -12.475,3.39 -6.819,-2.12 -10.482,-9.261 -17.907,-10.326 -7.141,-1.026 -14.038,0.313 -21.091,1.309 -4.289,0.606 -10.961,1.417 -16.48,0.234 -0.205,3.341 -4.162,6.233 -7.239,6.819 -3.331,0.635 -5.637,-0.557 -6.907,-3.048 -2.696,4.582 -9.134,5.51 -11.635,1.162 -2.892,5.49 -11.586,5.256 -15.103,-0.166 -2.901,4.992 -10.013,6.399 -12.475,1.514 -2.432,4.406 -7.317,6.692 -12.162,4.093 -2.364,9.613 -0.029,22.205 8.587,25.712 0.391,0.156 0.41,0.567 0.205,0.791 0.352,0.391 0.449,0.967 -0.049,1.426 -7.288,6.614 -15.748,25.077 -2.52,29.737 0.654,0.225 0.674,0.918 0.313,1.29 -0.02,0.391 -0.244,0.772 -0.723,0.967 -18.336,7.493 -39.896,10.551 -58.956,4.035 -8.763,-2.999 -17.242,-7.102 -24.354,-13.12 -5.49,-4.66 -13.335,-11.615 -14.995,-19.049 -0.742,-3.341 0.029,-6.164 1.553,-8.665 -0.342,-0.088 -0.635,-0.381 -0.655,-0.85 -0.498,-8.978 1.163,-18.317 4.103,-27.207 -2.11,-0.996 -3.556,-2.442 -4.396,-4.357 -2.833,4.337 -9.31,4.415 -12.192,0.166 -2.433,5.177 -9.945,4.67 -12.944,-0.479 -1.329,2.774 -3.761,5.07 -7.131,3.927 -1.837,-0.625 -4.181,-1.876 -5.021,-3.781 -0.01,-0.01 -0.01,-0.02 -0.01,-0.029 -0.967,2.237 -3.185,3.8 -5.9,3.751 -3.282,-0.049 -5.549,-1.661 -6.682,-4.24 -3.546,5.236 -11.088,5.021 -13.911,-0.42 -3.194,5.646 -12.133,3.634 -14.614,-2.677 -2.042,2.266 -5.09,4.259 -7.923,2.227 -2.364,-1.7 -3.175,-3.966 -2.97,-6.467 -2.032,1.612 -4.845,2.305 -7.356,1.7 -2.716,-0.645 -3.927,-2.794 -2.735,-4.972 -12.006,4.709 -27.334,3.136 -34.289,-7.62 -0.391,-0.606 0.537,-1.338 0.996,-0.772 0.029,0.029 0.049,0.049 0.078,0.078 0.176,-0.479 0.625,-0.84 1.211,-0.635 6.067,2.178 13.198,2.149 19.528,1.504 3.595,-0.371 8.646,-1.006 12.309,-3.097 -1.241,-1.504 -2.305,-3.107 -3.234,-4.787 -0.02,0.02 -0.029,0.049 -0.049,0.068 -5.353,4.718 -12.934,5.695 -19.655,3.566 -5.295,-1.671 -12.035,-5.373 -13.462,-11.254 -0.049,-0.039 -0.088,-0.068 -0.137,-0.107 -0.322,-0.264 -0.273,-0.664 -0.059,-0.948 0,-0.576 0.742,-0.957 1.094,-0.362 0.088,0.156 0.186,0.293 0.283,0.449 4.582,3.038 10.59,4.982 16.324,4.826 0.01,-0.01 0.01,-0.029 0.02,-0.039 0.195,-0.244 0.606,-0.215 0.84,-0.02 4.122,-0.273 8.059,-1.661 11.156,-4.591 0.088,-0.078 0.186,-0.127 0.283,-0.176 -3.292,-12.768 -0.694,-27.773 3.82,-39.203 6.086,-15.396 18.825,-31.857 37.366,-29.336 0.527,0.078 0.742,0.537 0.713,0.996 0.01,0.01 0.01,0.01 0.02,0.02 0.195,0.02 0.371,0.147 0.43,0.322 1.778,1.397 3.116,3.126 4.64,4.806 0.527,0.567 0.293,1.426 -0.44,1.671 -1.592,0.527 -3.253,0.909 -4.943,0.996 1.299,1.397 2.54,2.833 3.908,4.181 0.42,0.43 0.362,1.25 -0.205,1.534 -1.534,0.772 -3.146,1.397 -4.767,1.944 -0.879,0.293 -1.915,0.83 -2.794,0.391 -0.029,0.068 -0.049,0.137 -0.078,0.205 1.788,1.456 3.331,3.224 5.207,4.562 0.684,0.498 0.606,1.514 -0.234,1.797 -2.56,0.84 -5.178,1.465 -7.835,1.905 -0.029,0.068 -0.059,0.147 -0.078,0.215 0.127,0.078 0.264,0.176 0.381,0.332 0.361,0.488 0.733,0.957 1.094,1.436 0.957,1.28 1.944,2.53 2.921,3.79 0.401,0.508 0.342,1.377 -0.41,1.553 -1.983,0.459 -3.917,1.104 -5.93,1.397 1.016,1.583 2.149,3.204 3.722,4.21 0.645,0.401 0.586,1.221 0,1.641 -1.338,0.967 -2.901,1.671 -4.484,2.12 -0.449,0.117 -0.987,0.293 -1.534,0.4 1.387,1.368 2.345,3.312 4.083,4.103 0.713,0.332 0.576,1.348 0,1.719 -1.055,0.664 -2.217,1.153 -3.38,1.602 -0.567,0.215 -1.182,0.518 -1.807,0.694 1.182,1.641 2.52,3.136 4.21,4.298 0.635,0.43 0.635,1.27 0,1.7 -1.28,0.879 -4.679,2.432 -6.115,1.231 0,0.068 0,0.147 0,0.215 2.061,1.348 4.103,2.765 6.106,4.201 0.508,0.362 0.655,1.036 0.195,1.514 -1.172,1.231 -2.393,2.55 -3.82,3.487 -0.166,0.117 -0.332,0.166 -0.498,0.166 1.534,2.276 3.878,2.784 6.75,2.169 -1.299,-1.465 -1.475,-3.868 0.654,-4.933 1.338,-0.674 2.804,-0.899 4.21,-0.723 1.758,-3.79 4.601,-4.562 7.522,-3.781 -0.039,-0.967 0.059,-1.924 0.068,-2.931 0,-0.557 0.469,-1.045 1.036,-1.036 2.345,0.029 4.914,0.234 7.19,1.006 -0.449,-1.69 -0.821,-3.4 -1.25,-5.099 -0.147,-0.596 0.283,-1.162 0.899,-1.172 2.13,-0.049 4.513,-0.654 6.594,0.059 0.029,0.01 0.049,0.029 0.078,0.049 -1.27,-1.7 -2.227,-3.605 -3.058,-5.559 -0.254,-0.615 0.029,-1.358 0.781,-1.358 2.315,-0.01 4.63,0.195 6.946,0.361 -1.436,-1.524 -2.442,-3.654 -2.98,-5.559 -0.166,-0.586 0.303,-1.221 0.918,-1.202 2.608,0.049 5.539,0.713 7.893,1.915 0.303,-0.127 0.674,-0.147 0.957,0.049 10.961,7.571 3.986,16.187 -0.293,25.585 -2.814,6.184 -3.488,14.956 3.663,18.551 6.242,3.146 13.843,2.208 20.114,-0.41 7.522,-3.146 14.038,-8.157 20.271,-13.55 0.01,-0.352 0.313,-0.547 0.625,-0.547 4.894,-4.259 9.622,-8.714 14.556,-12.651 10.892,-8.704 22.205,-17.017 34.465,-23.699 11.537,-6.291 23.807,-11.078 36.497,-13.813 -0.117,-3.194 -0.127,-6.379 -0.117,-9.466 0.029,-7.19 -0.391,-15.992 1.964,-23.006 -1.036,0 -2.071,0.01 -3.107,0 -0.117,0.107 -0.254,0.195 -0.449,0.244 -1.456,0.361 -2.892,0.234 -4.386,0.518 -0.547,0.107 -1.182,-0.147 -1.319,-0.752 -0.459,-2.042 -0.469,-3.908 -0.068,-5.959 0.068,-0.362 0.44,-0.733 0.801,-0.801 3.419,-0.625 6.838,-1.241 10.257,-1.739 -0.01,-0.029 -0.02,-0.059 -0.02,-0.088 -0.479,-8.401 -0.166,-19.323 5.461,-26.122 0.283,-0.332 0.879,-0.381 1.241,-0.156 8.04,5.051 6.096,17.223 5.871,25.37 3.829,0.01 7.659,0.361 11.508,1.241 0.527,0.127 0.83,0.625 0.86,1.133 0.264,3.996 -5.344,5.207 -9.105,5.773 0.117,0.156 0.205,0.342 0.215,0.576 0.449,10.033 0.977,20.476 0.606,30.743 4.718,-0.137 9.476,0.01 14.253,0.528 12.065,1.319 23.778,5.324 34.055,11.811 10.502,6.633 18.61,14.751 26.249,24.442 7.2,9.134 17.662,22.146 30.987,17.262 11.43,-4.191 17.828,-16.676 18.395,-28.301 0.615,-12.504 -1.934,-26.738 -10.316,-36.526 -1.758,-2.061 -3.829,-4.23 -6.115,-6.301 -0.088,0.01 -0.176,0.02 -0.264,0.02 -0.332,-0.029 -0.527,-0.391 -0.459,-0.654 -6.711,-5.881 -15.191,-10.824 -23.475,-10.072 -1.299,0.117 -1.241,-1.837 0,-1.993 0.078,-0.01 0.156,-0.01 0.234,-0.02 0.147,-0.215 0.371,-0.381 0.703,-0.401 -3.116,-4.132 6.096,-9.486 8.704,-5.031 2.003,-1.954 5.725,-0.869 7.229,2.364 2.765,-4.093 8.851,-3.575 9.876,1.387 3.302,-3.194 6.858,-0.44 7.747,3.976 1.651,-2.071 4.064,-3.741 6.594,-2.423 2.989,1.553 2.97,4.728 2.071,7.532 1.231,-1.612 3.468,-2.354 5.549,-1.387 3.097,1.436 3.829,4.328 3.39,7.239 1.397,-0.84 2.979,-1.065 4.298,0.488 1.544,1.837 2.003,3.947 1.7,6.037 1.182,-0.635 2.491,-0.674 3.829,0.567 2.012,1.856 1.211,5.05 -0.02,7.532 2.178,-0.567 4.562,-0.459 5.177,2.13 0.713,3.019 -0.694,5.705 -2.882,7.59 6.565,-1.28 8.753,6.194 5.031,10.365 4.992,1.075 5.265,7.639 1.094,10.433 4.804,2.254 3.73,9.337 -1.37,11.418 z m -2.257,-12.075 c 5.588,-0.791 6.926,-9.134 -0.01,-7.923 -0.313,0.049 -0.596,-0.068 -0.821,-0.244 0.431,2.706 0.714,5.432 0.831,8.167 z m -0.517,10.658 c 5.988,-0.225 8.02,-8.773 0.742,-8.792 -0.059,0 -0.117,-0.02 -0.176,-0.039 0.039,2.96 -0.146,5.91 -0.566,8.831 z m -0.225,-20.339 c 4.611,-2.227 4.464,-9.915 -1.71,-8.499 -0.293,0.059 -0.537,0 -0.733,-0.127 0.879,2.892 1.602,5.852 2.139,8.851 0.079,-0.088 0.177,-0.156 0.304,-0.225 z m -2.296,30.518 c 6.457,0.459 8.704,-5.676 2.188,-8.138 -0.498,2.756 -1.221,5.471 -2.188,8.138 z m -0.85,-41.342 c 2.794,-3.517 3.849,-9.827 -2.55,-6.633 0.674,1.504 1.289,3.038 1.856,4.601 0.245,0.674 0.47,1.358 0.694,2.032 z m -2.969,50.809 c 6.428,2.208 9.613,-6.067 3.038,-7.444 -1.104,2.686 -2.374,5.217 -3.82,7.59 0.205,-0.166 0.489,-0.254 0.782,-0.146 z m 2.198,-12.71 c 3.771,-13.55 2.345,-27.91 -2.999,-40.854 -4.728,-11.488 -12.026,-21.667 -23.641,-26.904 -4.943,-2.237 -10.111,-3.575 -15.386,-4.445 5.822,2.12 10.775,6.848 14.595,11.527 5.9,7.229 10.912,15.503 13.413,24.559 0.772,2.784 1.387,5.715 1.827,8.704 0.117,0.137 0.195,0.303 0.215,0.479 0.029,0.205 0,0.401 -0.059,0.606 0.479,3.614 0.674,7.307 0.518,10.931 0.01,0.059 0.01,0.117 0.01,0.186 -0.01,0.049 -0.02,0.088 -0.029,0.137 -0.654,12.807 -5.812,24.794 -19.02,29.932 -8.89,3.458 -19.264,4.318 -28.271,0.713 -9.329,-3.732 -17.144,-10.169 -24.764,-16.568 -10.492,-8.802 -21.296,-17.496 -33.556,-22.302 -0.225,0.02 -0.469,-0.059 -0.625,-0.234 -7.151,-2.716 -14.79,-4.103 -23.143,-3.409 0.274,0.527 0.518,1.094 0.684,1.71 0.332,1.231 -1.407,1.631 -1.856,0.508 -1.651,-4.132 -6.614,-5.588 -8.352,-0.469 -0.156,0.469 -0.498,0.684 -0.977,0.742 -1.983,0.225 -2.872,0 -4.67,1.641 -0.479,0.43 -1.211,0.361 -1.553,-0.205 -2.618,-4.259 -7.835,-2.55 -9.329,1.612 -0.254,0.723 -1.289,0.44 -1.133,-0.313 0.107,-0.537 0.273,-1.026 0.469,-1.495 -0.068,0.049 -0.156,0.078 -0.254,0.088 -0.215,0.02 -0.371,-0.098 -0.459,-0.264 -23.455,1.67 -42.309,17.398 -60.949,30.118 -14.429,9.837 -32.931,18.854 -51.072,18.942 -0.371,0.029 -0.742,0.078 -1.114,0.088 -2.54,0.127 -5.295,-0.127 -7.893,-0.84 -0.293,-0.049 -0.586,-0.098 -0.879,-0.147 -0.127,-0.029 -0.215,-0.108 -0.264,-0.205 -1.407,-0.469 -2.755,-1.075 -3.966,-1.866 -5.861,4.943 -13.471,7.971 -20.925,4.484 -7.561,-3.546 -12.807,-10.726 -15.308,-18.551 -4.171,1.876 -9.564,2.393 -11.987,-2.354 -2.706,-5.295 -2.208,-11.996 -1.485,-17.701 0.948,-7.532 2.638,-14.976 5.334,-22.088 2.237,-5.861 4.875,-11.801 5.998,-18.004 0.518,-2.872 0.86,-6.535 3.077,-8.626 -18.326,-1.231 -30.333,14.986 -35.578,30.88 -4.982,15.113 -6.731,34.69 2.511,48.63 1.924,-1.27 3.37,-2.999 3.839,-5.412 0.039,-0.195 0.186,-0.313 0.361,-0.352 0.137,-0.186 0.342,-0.313 0.635,-0.303 3.409,0.117 7.444,2.413 8.304,5.891 0.127,0.518 -0.098,0.909 -0.449,1.114 -0.029,0.059 -0.059,0.127 -0.107,0.195 -1.514,2.198 -3.468,4.152 -5.715,5.813 6.78,5.988 16.676,7.629 25.399,8.352 8.812,0.733 17.623,0.567 26.454,0.664 16.236,0.156 32.423,-0.342 48.561,0.44 1.329,-2.911 2.755,-5.734 4.269,-8.421 0.459,-0.811 1.856,-0.264 1.524,0.645 -5.138,13.979 -11.82,27.099 -12.133,42.173 1.319,-2.345 2.325,-4.855 3.741,-7.18 0.361,-0.596 1.465,-0.576 1.592,0.205 0.195,1.123 0.498,2.188 0.752,3.273 4.22,-3.575 8.245,-7.405 12.035,-11.439 1.143,-1.221 2.54,-2.706 4.044,-4.396 3.146,-7.258 4.191,-14.888 2.53,-22.635 -0.186,-0.889 1.065,-1.514 1.514,-0.645 1.035,1.973 1.534,4.367 1.612,6.907 1.172,-0.098 2.354,-0.117 3.517,-0.244 0.821,-0.078 1.631,-0.293 2.442,-0.274 2.198,-5.353 2.511,-10.677 -1.241,-14.966 -0.459,-0.537 -0.303,-1.192 0.088,-1.573 -0.117,-0.85 1.084,-1.71 1.973,-0.977 1.69,1.397 3.107,3.028 4.269,4.826 2.931,2.999 6.076,5.686 10.013,7.551 5.09,2.413 10.55,3.771 16.099,4.679 9.749,1.602 19.811,2.247 28.975,6.223 0.361,0.166 0.518,0.479 0.537,0.811 4.601,-0.352 9.378,0.371 14.038,0 5.09,-0.4 10.16,-1.084 15.259,-1.397 8.177,-0.508 16.627,0.742 24.5,-1.993 -1.123,-1.231 -1.944,-2.794 -2.315,-4.767 -1.456,-7.678 4.074,-16.011 12.377,-15.366 0.938,0.068 0.928,1.368 0,1.446 -12.104,1.036 -14.536,18.307 -1.485,20.417 10.209,1.661 20.232,-2.354 30.43,-2.198 4.543,0.068 9.359,0.508 13.208,3.204 4.23,2.95 8.333,8.743 14.087,7.327 7.405,-1.817 13.901,-6.32 20.241,-10.531 -1.465,0.059 -2.921,0.264 -4.425,0.547 -0.752,0.137 -1.592,-0.655 -1.084,-1.417 0.469,-0.684 0.938,-1.358 1.416,-2.012 -1.26,0.234 -2.52,0.508 -3.751,0.987 -0.86,0.342 -1.426,-0.742 -1.084,-1.417 0.576,-1.153 1.153,-2.315 1.729,-3.468 -1.123,0.42 -2.257,0.821 -3.341,1.377 -0.977,0.508 -1.944,-0.713 -1.172,-1.524 1.397,-1.26 2.335,-2.813 2.833,-4.66 -5.734,2.276 -9.417,6.487 -12.006,12.211 -0.293,0.645 -1.163,0.606 -1.612,0.205 -10.091,-8.743 -22.635,-12.807 -35.911,-12.338 -1.416,0.049 -1.377,-2.061 0,-2.169 13.208,-1.026 26.181,3.771 36.282,12.153 3.058,-6.115 7.561,-10.375 14.253,-12.495 0.615,-0.195 1.231,0.322 1.241,0.938 0.02,1.807 -0.479,3.224 -1.29,4.523 0.772,-0.283 1.534,-0.586 2.266,-0.967 0.879,-0.459 1.768,0.459 1.328,1.329 -0.635,1.26 -1.27,2.53 -1.905,3.79 1.387,-0.332 2.804,-0.528 4.23,-0.811 0.889,-0.176 1.475,0.723 1.036,1.446 12.974,-7.484 23.896,-17.771 28.038,-32.688 z m -1.241,-49.597 c 1.104,-2.911 -0.254,-3.536 -4.064,-1.876 0.928,1.534 1.798,3.116 2.599,4.748 0.625,-0.869 1.123,-1.827 1.465,-2.872 z m -3.263,70.483 c 3.126,-0.586 3.595,-2.794 1.397,-6.614 -0.244,-0.225 -0.303,-0.537 -0.244,-0.821 -1.602,2.56 -3.4,4.933 -5.373,7.151 1.348,0.509 2.755,0.616 4.22,0.284 z m -1.143,-77.311 c 0.293,-2.804 -1.377,-3.575 -4.982,-2.364 1.495,1.71 2.872,3.527 4.132,5.432 0.489,-0.929 0.782,-1.945 0.85,-3.068 z m -6.184,84.521 c 2.706,-0.879 3.331,-2.872 1.876,-5.998 -0.02,-0.029 -0.029,-0.059 -0.049,-0.088 -1.758,1.856 -3.634,3.605 -5.637,5.256 1.056,0.8 2.326,1.074 3.81,0.83 z m -0.381,-88.614 c 0.801,-2.393 1.241,-5.637 -1.456,-6.868 -2.13,-0.987 -3.38,0.088 -4.396,1.729 2.101,1.553 4.065,3.273 5.852,5.139 z m -1.406,45.357 c 0.147,-3.058 0.029,-6.106 -0.273,-9.017 -0.635,0.469 -1.29,0.85 -1.739,1.094 -0.752,0.42 -1.993,1.192 -2.96,1.026 -0.088,2.882 -0.4,5.734 -0.987,8.509 0.381,0.059 0.996,-0.029 1.27,-0.039 0.723,-0.029 1.426,-0.137 2.12,-0.342 0.752,-0.215 1.504,-0.479 2.159,-0.928 0.146,-0.098 0.283,-0.196 0.41,-0.303 z m -0.723,-11.176 c 0.059,-0.059 0.098,-0.117 0.156,-0.176 -0.127,-0.879 -0.274,-1.749 -0.43,-2.589 -0.332,-1.768 -0.762,-3.507 -1.241,-5.236 -0.195,0.195 -0.381,0.381 -0.557,0.527 -0.84,0.684 -1.846,1.045 -2.892,1.172 0.488,3.038 0.733,6.145 0.723,9.241 0.723,-0.518 1.719,-0.889 2.364,-1.348 0.656,-0.468 1.32,-0.995 1.877,-1.591 z m -0.547,20.183 c 0.547,-2.159 0.889,-4.406 1.104,-6.662 -0.791,0.352 -1.631,0.576 -2.286,0.674 -1.358,0.215 -2.647,0.342 -3.722,-0.371 -0.606,2.598 -1.456,5.109 -2.579,7.483 0.782,0.332 1.544,1.055 2.413,1.055 1.719,-0.01 3.458,-0.928 4.758,-2.012 0.107,-0.079 0.214,-0.128 0.312,-0.167 z m -9.466,43.247 c 5.324,1.289 10.844,-3.136 7.063,-8.499 -2.735,2.12 -5.656,4.074 -8.743,5.891 0.694,0 1.387,0.029 2.1,0.107 0.987,0.117 1.358,1.26 0.498,1.856 -0.303,0.215 -0.616,0.43 -0.918,0.645 z m 7.111,-72.417 c 0.303,-0.332 0.518,-0.781 0.752,-1.211 -0.655,-2.1 -1.426,-4.152 -2.296,-6.164 -0.479,0.528 -1.055,0.997 -1.485,1.29 -0.225,0.166 -0.459,0.303 -0.703,0.43 -0.039,0.02 -0.147,0.059 -0.254,0.088 0.674,2.198 1.231,4.464 1.661,6.789 0.88,-0.167 1.71,-0.509 2.325,-1.222 z m 1.573,31.866 c -0.967,0.723 -2.051,1.231 -3.37,1.309 -0.909,0.049 -1.885,-0.02 -2.716,-0.44 -0.352,-0.186 -0.684,-0.361 -0.997,-0.625 -0.02,-0.01 -0.186,-0.176 -0.352,-0.352 -0.811,1.534 -1.739,3.009 -2.804,4.396 -0.791,1.035 -1.651,2.051 -2.559,3.019 0.889,1.016 1.954,2.032 3.234,2.452 1.241,0.41 2.257,-0.01 3.468,0.166 0.068,0.01 0.117,0.029 0.176,0.059 0.606,-0.615 1.192,-1.25 1.729,-1.934 1.837,-2.365 3.205,-5.11 4.191,-8.05 z m -4.386,-40.346 c 0.156,-0.215 0.313,-0.449 0.488,-0.674 -1.055,-2.257 -2.247,-4.445 -3.556,-6.584 -0.069,0.088 -0.137,0.176 -0.196,0.264 -0.4,0.498 -0.869,0.909 -1.377,1.27 0.44,0.85 0.85,1.7 1.241,2.589 0.684,1.553 1.289,3.194 1.846,4.885 0.147,-0.176 0.303,-0.352 0.449,-0.498 0.382,-0.412 0.763,-0.812 1.105,-1.252 z m -0.342,-23.455 c 0.615,-2.325 1.25,-7.063 -2.403,-6.584 -1.954,0.244 -3.116,1.592 -4.015,3.136 1.202,0.527 2.384,1.084 3.536,1.71 0.997,0.536 1.944,1.132 2.882,1.738 z m -4.034,15.591 c 0.156,-0.264 0.274,-0.576 0.381,-0.889 -0.537,-0.83 -1.094,-1.651 -1.68,-2.452 -0.84,-1.163 -1.729,-2.354 -2.677,-3.546 -0.137,0.293 -0.293,0.557 -0.43,0.752 -0.215,0.283 -0.449,0.527 -0.703,0.742 1.583,2.012 2.999,4.152 4.249,6.438 0.332,-0.312 0.625,-0.654 0.86,-1.045 z m 0.595,60.196 c -0.762,-0.078 -1.524,-0.313 -2.091,-0.586 -1.465,-0.703 -2.599,-1.797 -3.488,-3.116 -2.305,2.276 -4.924,4.24 -7.854,5.529 0.498,1.485 1.651,2.462 3.331,2.804 0.244,0.049 0.401,0.176 0.518,0.332 3.479,-1.123 6.761,-2.745 9.584,-4.963 z m -5.753,-68.294 c 0,-0.078 0.01,-0.147 0.02,-0.215 -1.456,-1.739 -3.038,-3.439 -4.738,-4.972 -0.322,0.567 -0.772,1.084 -1.299,1.495 1.885,1.69 3.644,3.487 5.236,5.402 0.166,-0.186 0.322,-0.381 0.44,-0.606 0.174,-0.342 0.321,-0.714 0.341,-1.104 z m 0.322,-11.938 c -0.371,-3.722 -3.165,-7.161 -6.066,-2.13 -0.049,0.078 -0.107,0.147 -0.176,0.205 2.119,0.528 4.2,1.163 6.242,1.925 z m -7.366,7.346 c 0.459,-0.449 0.801,-1.026 1.104,-1.651 -3.165,-2.599 -6.711,-4.562 -10.687,-5.168 2.696,1.563 5.236,3.39 7.551,5.168 0.694,0.538 1.368,1.085 2.032,1.651 z m -0.449,-9.954 c 0.782,-6.36 -6.096,-6.575 -7.395,-0.909 2.501,0.283 4.972,0.684 7.415,1.221 -0.03,-0.097 -0.04,-0.195 -0.02,-0.312 z m 0.889,88.585 c -1.192,-0.791 -2.012,-2.012 -2.335,-3.419 -1.417,0.518 -2.901,0.889 -4.445,1.045 -1.788,0.186 -3.507,0.117 -5.178,-0.107 -0.283,0.313 -0.586,0.606 -0.703,1.075 -0.215,0.87 -0.049,1.671 0.283,2.481 0.029,0.068 0.029,0.127 0.039,0.186 0.938,0.059 1.885,0.088 2.843,0.049 3.107,-0.119 6.34,-0.539 9.496,-1.31 z m -10.179,-89.699 c -0.098,-3.956 -4.552,-6.34 -5.344,-2.667 0.01,0.528 -0.029,1.124 -0.108,1.778 0,0.01 0,0.029 0,0.049 0,0 0,0 -0.01,0 -0.01,0.088 -0.01,0.156 -0.02,0.244 -0.02,0.107 -0.059,0.176 -0.098,0.254 1.867,0.069 3.723,0.176 5.58,0.342 z m -4.162,87.54 c 0.078,-0.244 0.186,-0.488 0.303,-0.713 -2.677,-0.645 -5.197,-1.758 -7.551,-3.243 -0.791,0.4 -1.612,0.772 -2.257,1.407 -0.733,0.703 -1.231,1.553 -1.631,2.481 3.644,1.7 7.434,2.892 11.39,3.351 -0.43,-1.037 -0.635,-2.209 -0.254,-3.283 z m -8.773,-87.901 c 1.915,-0.049 3.859,-0.068 5.803,-0.02 -0.088,-0.137 -0.166,-0.283 -0.176,-0.459 -0.049,-0.742 -0.01,-1.397 0.088,-1.983 -0.576,-4.836 -7.864,-1.778 -5.803,2.071 0.069,0.137 0.088,0.264 0.088,0.391 z m -2.969,87.539 c 0.186,-1.895 1.241,-3.634 2.774,-4.758 -1.612,-1.172 -3.136,-2.511 -4.562,-3.956 -0.996,-1.016 -1.944,-2.061 -2.872,-3.126 -0.381,0.147 -0.791,0.225 -1.153,0.43 -0.576,0.342 -1.114,0.742 -1.583,1.231 -0.977,1.006 -1.778,2.159 -2.276,3.478 -0.088,0.234 -0.254,0.391 -0.44,0.488 3.254,2.374 6.614,4.513 10.112,6.213 z m -8.48,-11.752 c 0.635,-0.625 1.485,-1.397 2.413,-1.768 -2.511,-3.038 -4.855,-6.223 -7.317,-9.3 -0.078,0.078 -0.166,0.147 -0.283,0.195 -3.644,1.465 -6.233,3.693 -7.424,7.463 3.155,2.735 6.399,5.49 9.749,8.03 0.01,-0.01 0,-0.02 0.01,-0.039 0.576,-1.699 1.543,-3.321 2.852,-4.581 z m -6.105,-12.533 c -1.817,-2.198 -3.712,-4.328 -5.793,-6.262 -1.202,-1.114 -2.432,-2.198 -3.683,-3.263 -0.967,0.586 -2.051,0.987 -2.999,1.671 -1.338,0.957 -2.599,2.032 -3.898,3.058 -0.987,0.781 -1.973,1.631 -3.067,2.257 -0.303,0.176 -0.557,0.264 -0.791,0.322 0.781,0.567 1.553,1.153 2.325,1.739 3.321,2.55 6.711,5.529 10.209,8.567 0.575,-3.85 4.268,-6.683 7.697,-8.089 z m -16.275,-7.483 c 1.338,-1.123 3.136,-2.843 4.992,-3.566 -4.816,-3.947 -9.974,-7.512 -15.484,-10.414 -1.036,0.586 -2.315,0.625 -3.439,1.016 -1.338,0.459 -2.657,1.006 -3.849,1.768 -2.325,1.485 -4.142,3.351 -5.109,5.832 6.233,2.354 12.143,5.793 17.76,9.788 0.039,-0.078 0.088,-0.147 0.156,-0.215 0.479,-0.479 1.104,-0.86 1.622,-1.299 1.123,-0.966 2.217,-1.963 3.351,-2.91 z m -13.53,-15.494 c -0.83,-0.391 -1.651,-0.782 -2.491,-1.143 -6.75,-2.852 -13.823,-4.699 -21.042,-5.676 -3.546,3.82 -5.168,8.304 -4.494,13.559 5.9,-0.117 11.566,0.928 17.008,2.804 0.635,-2.579 2.384,-4.748 4.611,-6.321 1.543,-1.093 4.063,-2.656 6.408,-3.223 z m -1.651,75.748 c 0.01,-0.049 0.039,-0.078 0.068,-0.117 -1.329,-0.41 -2.55,-0.957 -3.624,-1.69 -2.432,1.407 -5.129,2.13 -7.942,2.491 0.049,0.078 0.088,0.166 0.117,0.264 1.514,7.053 9.378,4.181 11.381,-0.948 z m -13.276,0.948 c 0.01,-0.029 0.029,-0.049 0.039,-0.088 -3.4,0.274 -6.936,0.107 -10.345,0.039 0.264,0.137 0.469,0.401 0.498,0.801 0.429,7.346 8.733,4.855 9.808,-0.752 z m -11.205,-0.068 c -1.827,-0.029 -3.605,-0.029 -5.314,0.098 -2.989,0.225 -5.979,0.547 -8.958,0.84 0.234,0.107 0.43,0.303 0.527,0.596 2.061,6.555 12.7,6.965 13.208,-0.713 0.029,-0.421 0.253,-0.685 0.537,-0.821 z m -3.273,-69.839 c -1.475,-4.894 0.059,-10.121 3.351,-13.911 -4.22,-0.449 -8.47,-0.615 -12.729,-0.498 -0.215,4.24 -0.606,8.44 -1.231,12.563 2.032,-0.039 3.8,0.909 5.021,2.472 1.886,-0.323 3.752,-0.528 5.588,-0.626 z m -3.761,-52.801 c 0.879,-0.928 -1.377,-0.606 -2.266,-0.733 -2.276,-0.342 -4.572,-0.586 -6.877,-0.567 -4.699,0.02 -9.349,0.459 -13.989,1.241 -3.595,0.596 -8.45,0.234 -8.069,4.63 1.084,-0.088 2.178,-0.078 3.224,-0.322 0.293,-0.068 0.557,-0.01 0.762,0.117 7.278,-0.996 14.751,-0.654 21.941,-2.325 1.63,-0.38 4.072,-0.751 5.274,-2.041 z m -8.548,36.126 c 0.127,-10.287 0.479,-20.593 0.283,-30.87 0,-0.117 0.029,-0.215 0.059,-0.313 -0.059,0.01 -0.137,0.02 -0.195,0.029 -2.345,0.352 -4.718,0.586 -7.092,0.742 0.83,8.704 0.01,17.555 -0.205,26.269 -0.186,7.874 0.166,15.591 0.801,23.416 0.059,-0.029 0.107,-0.059 0.176,-0.078 0.664,-0.225 2.218,0.293 2.52,-0.625 0.488,-1.436 1.866,-2.94 3.331,-3.409 0.137,-0.039 0.264,-0.068 0.401,-0.107 l 0,-0.01 c -0.127,-4.21 -0.137,-8.44 -0.098,-12.661 -0.088,0.01 -0.176,0.01 -0.264,0.01 0.02,-0.791 0.029,-1.592 0.02,-2.384 0.087,-0.009 0.175,-0.009 0.263,-0.009 z m -0.098,88.047 c 0.068,-0.225 0.186,-0.381 0.342,-0.498 -2.276,0.215 -4.543,0.41 -6.819,0.518 -1.231,0.068 -2.55,0.156 -3.908,0.215 0.107,0.147 0.186,0.313 0.195,0.518 0.441,7.541 8.706,4.444 10.19,-0.753 z m -2.96,-127.621 c 0.088,-6.574 2.286,-17.965 -3.448,-22.625 -2.198,-1.788 -4.591,11.772 -4.718,12.905 -0.381,3.488 -0.537,6.985 -0.762,10.482 2.969,-0.391 5.949,-0.674 8.928,-0.762 z m -5.206,60.001 c 0.186,-0.156 0.371,-0.293 0.557,-0.43 -1.456,-7.893 -1.26,-16.158 -1.036,-24.139 0.235,-8.724 0.361,-17.496 0.83,-26.22 -1.885,0.117 -3.771,0.186 -5.656,0.225 -0.469,8.235 -1.856,16.246 -1.71,24.588 0.137,7.942 1.123,15.757 1.68,23.66 1.896,-0.107 3.86,0.626 5.335,2.316 z m -4.094,68.089 c 0.02,-0.078 0.059,-0.127 0.088,-0.195 -2.217,0 -4.435,-0.176 -6.399,-0.889 -1.084,1.504 -2.237,2.95 -3.458,4.347 -0.42,0.889 -0.781,1.837 -1.104,2.823 5.12,2.657 9.672,-0.889 10.873,-6.086 z m -2.803,-70.121 c -1.114,-4.396 -1.651,-9.036 -1.905,-13.686 -1.739,0.381 -3.458,0.801 -5.178,1.25 0.068,0.156 0.088,0.332 0.039,0.527 -1.289,4.924 1.514,9.789 4.123,13.833 0.801,-0.918 1.807,-1.582 2.921,-1.924 z m -8.734,71.948 c 0.147,-0.303 0.303,-0.596 0.459,-0.879 -17.584,6.545 -34.768,13.149 -53.846,13.745 -0.889,0.029 -1.573,-1.075 -1.055,-1.837 6.145,-9.007 7.962,-23.826 1.846,-33.517 2.169,7.678 -3.136,16.724 -7.62,22.84 -3.976,5.422 -8.45,10.482 -13.247,15.2 -4.132,4.064 -9.036,7.542 -12.954,11.772 -3.39,3.663 -5.256,7.766 -2.706,12.514 2.276,4.22 5.402,8.059 8.821,11.391 7.102,6.955 15.591,12.26 24.95,15.63 16.637,6.008 34.328,5.422 51.013,0.44 -25.995,2.081 -51.121,-6.926 -69.36,-26.552 -0.772,-0.821 -0.01,-2.061 1.065,-1.827 25.458,5.402 51.697,8.04 75.074,-4.503 -13.53,1.729 -26.972,3.732 -40.678,3.458 -8.919,-0.176 -20.075,-0.938 -26.23,-8.313 -0.508,-0.615 -0.4,-1.358 0.235,-1.817 10.013,-7.375 22.83,-5.627 34.191,-9.007 11.579,-3.43 22.149,-9.672 30.042,-18.738 z m 3.419,-70.473 c -2.677,-3.712 -5.529,-9.232 -3.693,-13.384 -5.568,1.563 -11.01,3.517 -16.197,5.842 -1.651,0.733 -3.282,1.504 -4.894,2.296 0.108,0.967 -0.225,1.885 -0.117,2.872 0.117,0.996 0.361,1.973 0.742,2.892 0.664,1.641 1.534,3.175 2.52,4.64 6.947,-2.95 14.166,-4.914 21.639,-5.158 z m -0.351,134.753 c -10.248,-4.377 -5.08,-19.831 1.114,-28.271 -22.947,12.641 -48.698,10.804 -73.824,5.764 19.362,19.136 45.874,26.922 72.71,22.507 z m 2.657,-32.511 c -8.362,-3.741 -10.042,-16.676 -7.59,-26.503 -6.643,6.418 -14.712,11.342 -23.494,14.36 -11.752,4.035 -25.897,2.354 -36.516,9.3 6.877,6.936 19.245,6.887 28.31,6.594 13.236,-0.43 26.17,-2.169 39.29,-3.751 z M 268.66,480.784 c 18.727,-1.045 35.793,-7.766 53.231,-14.214 -15.425,-5.598 -36.966,-3.644 -50.105,-14.165 2.979,9.134 1.406,20.359 -3.126,28.379 z m 31.27,-74.918 c -1.514,-1.739 -2.784,-3.8 -3.351,-6.047 -0.293,-1.172 -0.596,-2.687 -0.342,-3.976 -6.848,3.497 -13.364,7.463 -19.675,11.752 0.342,2.022 1.26,3.868 2.735,5.334 0.889,0.889 2.589,1.592 3.224,2.696 5.569,-3.634 11.382,-7.043 17.409,-9.759 z m -19.079,10.863 c -1.416,-0.567 -2.872,-2.296 -3.624,-3.194 -1.163,-1.397 -1.934,-3.097 -2.218,-4.875 -5.51,3.81 -10.863,7.864 -16.128,12.055 0.645,1.69 1.504,3.429 2.843,4.66 0.674,0.625 1.475,1.221 2.384,1.436 0.645,0.156 1.27,0.068 1.846,0.322 0.615,-0.43 1.221,-0.86 1.837,-1.289 4.18,-2.98 8.547,-6.106 13.06,-9.115 z m -17.896,44.723 c -0.498,0.049 -0.996,0.068 -1.456,0.078 -1.172,0.029 -2.354,0.029 -3.527,-0.068 -0.127,3.673 -1.016,7.532 -2.325,10.844 2.706,-3.313 5.403,-7.054 7.308,-10.854 z m 0.664,-32.697 c -1.153,-0.371 -2.296,-1.143 -2.921,-1.749 -1.504,-1.465 -2.53,-3.302 -3.048,-5.314 -5.236,4.191 -10.384,8.509 -15.533,12.846 0.498,1.104 1.25,2.071 2.208,2.843 0.655,0.518 1.348,0.996 2.11,1.348 0.166,0.078 0.322,0.147 0.479,0.205 5.783,-3.009 11.283,-6.467 16.705,-10.179 z m -18.874,11.283 c -0.899,-0.586 -1.729,-1.348 -2.237,-1.944 -0.684,-0.791 -1.192,-1.651 -1.563,-2.56 -0.381,0.322 -0.772,0.645 -1.153,0.977 -4.611,3.898 -9.691,7.893 -15.23,10.746 4.269,-0.928 8.489,-2.188 12.651,-3.849 2.579,-1.025 5.08,-2.159 7.532,-3.37 z m -10.013,53.26 c -0.127,-0.635 -0.274,-1.27 -0.43,-1.895 -0.733,1.426 -1.397,2.882 -2.139,4.298 0.82,-0.83 1.69,-1.631 2.569,-2.403 z m -1.553,-23.787 c 0.742,-2.091 1.553,-4.152 2.413,-6.164 -2.1,-0.068 -4.201,-0.107 -6.311,-0.147 0.049,0.117 0.088,0.225 0.098,0.362 0.195,2.803 1.348,4.767 3.8,5.949 z m -5.949,-5.949 c 0.02,-0.147 0.068,-0.283 0.127,-0.401 -2.628,-0.029 -5.265,-0.029 -7.903,-0.01 -0.967,0.01 -1.934,0.01 -2.911,0.02 0.059,0.117 0.107,0.244 0.127,0.391 0.8,6.555 9.739,6.447 10.56,0 z m -12.69,0 c 0,-0.147 0.029,-0.274 0.068,-0.391 -3.556,0.02 -7.122,0.039 -10.687,0.039 0.01,0.02 0.02,0.039 0.029,0.068 1.163,6.506 10.56,8.333 10.59,0.284 z m -12.68,-0.284 c 0.01,-0.029 0.02,-0.049 0.029,-0.068 -3.468,-0.01 -6.946,-0.01 -10.423,-0.02 1.143,1.583 1.28,3.79 3.321,4.845 4.103,2.13 6.369,-1.084 7.073,-4.757 z m -7.425,-35.764 c 2.188,-4.425 6.907,-10.189 6.311,-15.376 -0.107,-0.948 -3.175,-8.245 -4.943,-6.399 -1.006,1.045 -1.993,2.11 -2.921,3.234 -2.149,2.608 -4.171,5.305 -6.223,7.981 -2.931,3.829 -6.066,7.336 -9.906,10.238 0.918,0.85 1.758,1.758 2.432,2.657 2.628,3.478 3.79,7.796 6.321,11.322 2.237,3.107 5.627,4.035 9.173,4.484 -1.124,-1.397 -1.944,-3.087 -2.296,-5.109 -0.8,-4.533 0.011,-8.929 2.052,-13.032 z m -3.145,-19.958 c 0.889,-1.055 1.817,-2.071 2.765,-3.067 -1.651,-0.508 -3.234,-1.114 -4.943,-1.387 0.556,1.563 1.318,3.018 2.178,4.454 z m -1.759,55.634 c -1.934,-0.01 -3.868,-0.01 -5.803,-0.01 -1.436,0 -2.882,0.01 -4.318,0 0.049,0.117 0.088,0.244 0.107,0.381 0.703,5.988 10.052,6.995 9.603,0.488 -0.028,-0.419 0.157,-0.693 0.411,-0.859 z m 5.471,-15.483 c -4.992,-0.625 -9.407,-2.012 -12.084,-6.858 -1.934,-3.507 -3.273,-7.61 -6.018,-10.589 -3.126,-3.4 -8.782,-7.952 -11.908,-2.423 0.772,0.332 1.495,0.791 2.139,1.397 2.569,2.393 3.82,5.539 5.129,8.714 2.12,5.129 4.279,7.903 9.857,9.212 0.908,0.215 0.654,1.514 -0.215,1.573 -4.953,0.303 -8.489,-3.282 -10.375,-7.522 -1.094,-2.462 -1.915,-5.109 -3.282,-7.434 -0.674,-1.153 -1.397,-2.345 -2.462,-3.194 -2.423,-1.944 -7.024,-2.149 -6.613,2.11 0.781,-0.234 1.592,-0.518 2.442,-0.879 0.879,-0.371 1.504,0.791 1.123,1.495 2.765,6.311 6.467,13.032 12.719,16.48 6.956,3.828 13.647,2.382 19.548,-2.082 z m -8.812,-33.723 c 1.084,-1.416 2.169,-2.823 3.273,-4.21 -1.739,-0.078 -3.478,-0.313 -5.217,-0.43 0.625,1.553 1.27,3.097 1.944,4.64 z m -1.631,2.11 c -1.671,-0.137 -3.282,-0.049 -4.924,0.01 0.361,1.612 0.645,3.243 0.84,4.875 1.427,-1.563 2.765,-3.214 4.084,-4.885 z m -7.073,47.194 c 0.01,-0.039 0.039,-0.068 0.049,-0.108 -4.044,-0.02 -8.089,-0.088 -12.123,-0.332 1.006,7.356 10.003,7.054 12.074,0.44 z m -2.217,-37.337 c 1.26,-0.996 2.423,-2.081 3.536,-3.204 -2.081,-0.527 -4.083,-0.977 -6.242,-1.104 -0.107,0.85 -0.235,1.7 -0.166,2.55 0.986,0.469 1.963,1.065 2.872,1.758 z m -8.626,-56.279 c -0.869,-1.27 -1.866,-2.472 -2.979,-3.536 -0.772,1.426 -1.182,2.892 -1.495,4.386 0.166,-0.166 0.391,-0.283 0.684,-0.293 1.298,-0.068 2.549,-0.254 3.79,-0.557 z m -4.709,8.226 c 1.065,-0.362 2.149,-0.723 3.204,-1.143 -1.202,-1.397 -2.345,-2.96 -3.282,-4.523 -0.264,1.524 -0.528,3.077 -1.026,4.63 -0.166,0.527 -0.352,1.045 -0.528,1.573 0.509,-0.215 1.065,-0.342 1.632,-0.537 z m 0.713,7.463 c -1.094,-1.299 -2.305,-2.491 -3.409,-3.781 -0.557,1.661 -1.123,3.312 -1.7,4.963 1.719,-0.332 3.419,-0.713 5.109,-1.182 z m -11.459,75.758 c 0.791,6.428 11.078,9.447 12.065,1.583 -2.384,-0.186 -4.757,-0.43 -7.122,-0.781 -1.631,-0.244 -3.292,-0.528 -4.953,-0.869 0,0.028 0.01,0.048 0.01,0.067 z m 7.639,-66.536 c -0.996,-1.338 -2.042,-2.774 -2.647,-4.279 -0.274,0.772 -0.547,1.544 -0.83,2.315 -0.361,0.967 -0.703,1.954 -1.035,2.931 1.523,-0.185 3.008,-0.605 4.512,-0.967 z m -5.392,8.948 c 1.065,-0.322 2.081,-0.703 3.048,-1.231 -1.202,-1.329 -2.159,-2.784 -2.921,-4.406 -0.606,1.954 -1.153,3.917 -1.631,5.891 0.517,-0.087 1.064,-0.127 1.504,-0.254 z m -1.28,7.962 c 0.811,-0.303 1.622,-0.625 2.393,-1.006 -1.026,-1.377 -2.081,-2.774 -3.204,-4.044 -0.264,1.221 -0.518,2.452 -0.723,3.683 -0.107,0.655 -0.215,1.328 -0.322,2.003 0.586,-0.284 1.28,-0.431 1.856,-0.636 z m -0.352,7.845 c 0.537,-0.127 1.036,-0.293 1.524,-0.498 -1.338,-1.348 -2.53,-2.931 -3.341,-4.63 -0.264,1.885 -0.459,3.8 -0.537,5.705 0.635,-0.538 1.514,-0.372 2.354,-0.577 z m -0.908,9.554 c 0.997,-0.655 1.856,-1.534 2.706,-2.393 -1.407,-1.143 -2.784,-2.354 -4.152,-3.566 0.068,1.456 0.235,2.882 0.537,4.279 0.166,0.733 0.371,1.387 0.596,1.983 0.079,-0.118 0.176,-0.215 0.313,-0.303 z m -10.668,28.75 c -0.127,5.774 4.992,8.987 9.007,2.98 -3.067,-0.742 -6.076,-1.749 -8.773,-3.273 -0.068,0.097 -0.155,0.195 -0.234,0.293 z m -0.283,-12.7 c 0.059,-0.078 0.117,-0.137 0.186,-0.195 -1.075,-2.354 -3.575,-3.507 -5.988,-4.191 0.088,2.12 -0.703,3.859 -2.1,5.295 1.163,1.25 2.726,2.11 4.435,2.325 0.166,0.02 0.313,0.078 0.43,0.166 1.122,-1.036 2.138,-2.169 3.037,-3.4 z m -6.858,14.038 c 2.247,-0.098 4.298,-0.938 5.568,-2.784 -1.348,-0.948 -2.589,-2.042 -3.683,-3.341 -0.049,-0.059 -0.068,-0.107 -0.098,-0.166 -1.504,0.996 -3.126,1.876 -4.836,2.628 0,0.049 -0.01,0.098 -0.039,0.156 -1.298,2.501 0.753,3.605 3.088,3.507 z m 2.022,-9.134 c -0.537,-0.137 -1.075,-0.401 -1.475,-0.645 -1.055,-0.625 -1.944,-1.436 -2.647,-2.393 -1.328,1.016 -2.999,1.837 -4.894,2.501 0.254,0.772 0.547,1.553 1.006,2.208 0.469,0.674 1.065,0.733 1.661,1.201 0.225,0.166 0.283,0.42 0.244,0.674 2.188,-0.947 4.259,-2.129 6.105,-3.546 z m -7.873,4.249 c -0.606,-0.254 -1.143,-0.791 -1.446,-1.309 -0.547,-0.957 -0.821,-2.003 -0.977,-3.067 -1.827,0.537 -3.839,0.928 -5.92,1.202 -0.039,1.075 0.029,2.169 0.254,3.214 0.127,0.586 0.381,1.143 0.449,1.739 2.618,-0.303 5.197,-0.89 7.64,-1.779 z m -2.98,-14.477 c 0.147,-0.117 0.313,-0.147 0.469,-0.147 -0.899,-1.768 -1.631,-3.624 -2.227,-5.529 -1.192,1.241 -2.56,2.208 -4.054,2.96 0.156,0.674 0.244,1.368 0.586,1.993 0.518,0.938 1.192,1.641 2.178,2.071 0.186,0.078 0.283,0.195 0.332,0.332 0.948,-0.459 1.856,-1.006 2.716,-1.68 z m -4.445,2.393 c -0.997,-0.42 -1.817,-1.25 -2.354,-2.198 -0.342,-0.606 -0.674,-1.358 -0.83,-2.12 -1.778,0.655 -3.693,1.006 -5.656,1.123 0.029,0.625 0.039,1.26 0.234,1.856 0.274,0.85 0.879,1.964 1.778,2.374 2.335,0.03 4.65,-0.273 6.828,-1.035 z m -2.081,14.019 c -0.156,-0.44 -0.205,-0.948 -0.235,-1.368 -0.107,-1.221 -0.039,-2.413 0.215,-3.595 -2.589,0.274 -5.246,0.371 -7.815,0.303 -0.371,0.625 -0.84,1.201 -0.869,1.973 -0.029,0.889 0.313,1.553 0.85,2.198 2.56,0.479 5.217,0.645 7.854,0.489 z m -7.063,-13.13 c -0.274,-0.264 -0.518,-0.586 -0.723,-0.987 -0.44,-0.84 -0.821,-1.973 -0.86,-3.058 -1.534,-0.02 -3.087,-0.195 -4.621,-0.489 -0.147,0.322 -0.293,0.645 -0.342,0.987 -0.098,0.664 -0.02,1.504 0.371,2.081 0.049,0.059 0.059,0.117 0.049,0.166 0.528,0.186 1.065,0.352 1.631,0.488 1.467,0.382 2.972,0.656 4.495,0.812 z m -3.389,10.443 c 0.029,-0.664 0.205,-1.407 0.518,-2.051 -4.249,-0.244 -8.05,-0.899 -10.502,-1.827 2.892,2.687 6.467,4.523 10.345,5.568 -0.254,-0.517 -0.4,-1.094 -0.361,-1.69 z M 102.9,439.188 c 0.029,-0.352 0.068,-0.742 0.156,-1.114 -2.638,-0.635 -5.197,-1.602 -7.454,-2.843 2.13,2.608 4.66,4.63 7.874,5.949 -0.41,-0.566 -0.625,-1.24 -0.576,-1.992 z"
         id="path12"
         inkscape:connector-curvature="0"
         style="fill:#1d1d1b" /><path
         d="m 496.716,400.015 c 6.936,-1.211 5.598,7.131 0.01,7.923 -0.117,-2.735 -0.401,-5.461 -0.83,-8.167 0.224,0.175 0.507,0.293 0.82,0.244 z"
         id="path14"
         inkscape:connector-curvature="0"
         style="fill:#67c5ee" /><path
         d="m 496.95,409.803 c 7.278,0.02 5.246,8.567 -0.742,8.792 0.42,-2.921 0.606,-5.871 0.567,-8.831 0.058,0.02 0.117,0.039 0.175,0.039 z"
         id="path16"
         inkscape:connector-curvature="0"
         style="fill:#67c5ee" /><path
         d="m 494.273,389.757 c 6.174,-1.416 6.32,6.272 1.71,8.499 -0.127,0.068 -0.225,0.137 -0.303,0.225 -0.537,-2.999 -1.26,-5.959 -2.139,-8.851 0.195,0.127 0.439,0.186 0.732,0.127 z"
         id="path18"
         inkscape:connector-curvature="0"
         style="fill:#67c5ee" /><path
         d="m 495.876,420.637 c 6.516,2.462 4.269,8.597 -2.188,8.138 0.966,-2.668 1.689,-5.383 2.188,-8.138 z"
         id="path20"
         inkscape:connector-curvature="0"
         style="fill:#67c5ee" /><path
         d="m 490.288,380.799 c 6.399,-3.194 5.344,3.116 2.55,6.633 -0.225,-0.674 -0.449,-1.358 -0.694,-2.032 -0.567,-1.563 -1.182,-3.096 -1.856,-4.601 z"
         id="path22"
         inkscape:connector-curvature="0"
         style="fill:#67c5ee" /><path
         d="m 492.906,430.797 c 6.575,1.377 3.39,9.652 -3.038,7.444 -0.293,-0.107 -0.576,-0.02 -0.781,0.147 1.445,-2.375 2.715,-4.905 3.819,-7.591 z"
         id="path24"
         inkscape:connector-curvature="0"
         style="fill:#67c5ee" /><path
         d="m 489.067,384.677 c 5.344,12.944 6.77,27.304 2.999,40.854 -4.142,14.917 -15.064,25.204 -28.037,32.687 0.44,-0.723 -0.147,-1.622 -1.036,-1.446 -1.426,0.283 -2.843,0.479 -4.23,0.811 0.635,-1.26 1.27,-2.53 1.905,-3.79 0.44,-0.87 -0.449,-1.788 -1.328,-1.329 -0.733,0.381 -1.495,0.684 -2.266,0.967 0.811,-1.299 1.309,-2.716 1.29,-4.523 -0.01,-0.615 -0.625,-1.133 -1.241,-0.938 -6.692,2.12 -11.195,6.379 -14.253,12.495 -10.101,-8.382 -23.074,-13.178 -36.282,-12.153 -1.377,0.108 -1.416,2.218 0,2.169 13.276,-0.469 25.819,3.595 35.911,12.338 0.449,0.401 1.319,0.44 1.612,-0.205 2.589,-5.725 6.272,-9.935 12.006,-12.211 -0.498,1.846 -1.436,3.4 -2.833,4.66 -0.772,0.811 0.195,2.032 1.172,1.524 1.084,-0.557 2.218,-0.957 3.341,-1.377 -0.576,1.153 -1.153,2.315 -1.729,3.468 -0.342,0.674 0.225,1.758 1.084,1.417 1.231,-0.479 2.491,-0.752 3.751,-0.987 -0.479,0.654 -0.948,1.328 -1.416,2.012 -0.508,0.762 0.332,1.553 1.084,1.417 1.504,-0.283 2.96,-0.488 4.425,-0.547 -6.34,4.21 -12.836,8.714 -20.241,10.531 -5.754,1.417 -9.857,-4.376 -14.087,-7.327 -3.849,-2.696 -8.665,-3.136 -13.208,-3.204 -10.199,-0.156 -20.222,3.859 -30.43,2.198 -13.051,-2.11 -10.619,-19.382 1.485,-20.417 0.928,-0.078 0.938,-1.377 0,-1.446 -8.304,-0.645 -13.833,7.688 -12.377,15.366 0.371,1.973 1.192,3.536 2.315,4.767 -7.874,2.735 -16.324,1.485 -24.5,1.993 -5.099,0.313 -10.169,0.996 -15.259,1.397 -4.66,0.371 -9.437,-0.352 -14.038,0 -0.02,-0.332 -0.176,-0.645 -0.537,-0.811 -9.163,-3.976 -19.225,-4.621 -28.975,-6.223 -5.549,-0.909 -11.01,-2.266 -16.099,-4.679 -3.937,-1.866 -7.082,-4.552 -10.013,-7.551 -1.163,-1.798 -2.579,-3.429 -4.269,-4.826 -0.889,-0.733 -2.091,0.127 -1.973,0.977 -0.391,0.381 -0.547,1.036 -0.088,1.573 3.751,4.289 3.439,9.613 1.241,14.966 -0.811,-0.02 -1.622,0.195 -2.442,0.274 -1.162,0.127 -2.345,0.147 -3.517,0.244 -0.078,-2.54 -0.576,-4.933 -1.612,-6.907 -0.449,-0.869 -1.7,-0.244 -1.514,0.645 1.661,7.747 0.615,15.376 -2.53,22.635 -1.504,1.69 -2.901,3.175 -4.044,4.396 -3.79,4.035 -7.815,7.864 -12.035,11.439 -0.254,-1.084 -0.557,-2.149 -0.752,-3.273 -0.127,-0.781 -1.231,-0.801 -1.592,-0.205 -1.416,2.325 -2.423,4.836 -3.741,7.18 0.313,-15.073 6.995,-28.193 12.133,-42.173 0.332,-0.909 -1.065,-1.456 -1.524,-0.645 -1.514,2.686 -2.94,5.51 -4.269,8.421 -16.138,-0.782 -32.325,-0.283 -48.561,-0.44 -8.831,-0.098 -17.643,0.068 -26.454,-0.664 -8.724,-0.723 -18.62,-2.364 -25.399,-8.352 2.247,-1.661 4.201,-3.614 5.715,-5.813 0.049,-0.068 0.078,-0.137 0.107,-0.195 0.352,-0.205 0.576,-0.596 0.449,-1.114 -0.86,-3.478 -4.894,-5.773 -8.304,-5.891 -0.293,-0.01 -0.498,0.117 -0.635,0.303 -0.176,0.039 -0.322,0.156 -0.361,0.352 -0.469,2.413 -1.915,4.142 -3.839,5.412 -9.241,-13.94 -7.493,-33.517 -2.511,-48.63 5.246,-15.894 17.252,-32.111 35.578,-30.88 -2.217,2.091 -2.559,5.754 -3.077,8.626 -1.123,6.203 -3.761,12.143 -5.998,18.004 -2.696,7.112 -4.386,14.556 -5.334,22.088 -0.723,5.705 -1.221,12.407 1.485,17.701 2.423,4.748 7.815,4.23 11.987,2.354 2.501,7.825 7.747,15.005 15.308,18.551 7.454,3.488 15.064,0.459 20.925,-4.484 1.211,0.791 2.56,1.397 3.966,1.866 0.049,0.098 0.137,0.176 0.264,0.205 0.293,0.049 0.586,0.098 0.879,0.147 2.599,0.713 5.353,0.967 7.893,0.84 0.371,-0.01 0.742,-0.059 1.114,-0.088 18.141,-0.088 36.643,-9.105 51.072,-18.942 18.639,-12.719 37.493,-28.447 60.949,-30.118 0.088,0.166 0.244,0.283 0.459,0.264 0.098,-0.01 0.186,-0.039 0.254,-0.088 -0.195,0.469 -0.361,0.957 -0.469,1.495 -0.156,0.752 0.879,1.036 1.133,0.313 1.495,-4.162 6.711,-5.871 9.329,-1.612 0.342,0.567 1.075,0.635 1.553,0.205 1.798,-1.641 2.686,-1.417 4.67,-1.641 0.479,-0.059 0.821,-0.274 0.977,-0.742 1.739,-5.119 6.702,-3.663 8.352,0.469 0.449,1.123 2.188,0.723 1.856,-0.508 -0.166,-0.615 -0.41,-1.182 -0.684,-1.71 8.352,-0.694 15.992,0.694 23.143,3.409 0.156,0.176 0.401,0.254 0.625,0.234 12.26,4.806 23.064,13.501 33.556,22.302 7.62,6.399 15.435,12.836 24.764,16.568 9.007,3.605 19.382,2.745 28.271,-0.713 13.208,-5.138 18.366,-17.125 19.02,-29.932 0.01,-0.049 0.02,-0.088 0.029,-0.137 0,-0.068 0,-0.127 -0.01,-0.186 0.156,-3.624 -0.039,-7.317 -0.518,-10.931 0.059,-0.205 0.088,-0.401 0.059,-0.606 -0.02,-0.176 -0.098,-0.342 -0.215,-0.479 -0.44,-2.989 -1.055,-5.92 -1.827,-8.704 -2.501,-9.056 -7.512,-17.33 -13.413,-24.559 -3.82,-4.679 -8.772,-9.408 -14.595,-11.527 5.275,0.869 10.443,2.208 15.386,4.445 11.614,5.238 18.911,15.417 23.64,26.905 z M 152.36,383.222 c 1.807,-1.934 3.751,-6.057 2.911,-8.753 -0.059,-0.176 -0.176,-0.313 -0.313,-0.401 0.303,-0.42 0.049,-1.182 -0.566,-0.948 -3.82,1.436 -5.256,6.35 -3.683,9.886 0.274,0.616 1.222,0.675 1.651,0.216 z m -3.018,-8.089 c 0.811,-1.114 1.817,-2.696 1.612,-4.113 -0.098,-0.694 -0.967,-0.694 -1.387,-0.361 -0.147,0.107 -0.274,0.254 -0.401,0.401 -2.325,0.137 -3.996,3.253 -4.435,5.275 -0.156,0.713 0.498,1.631 1.309,1.309 1.338,-0.538 2.452,-1.348 3.302,-2.511 z m -11.283,58.291 c 0.674,0.332 1.338,-0.332 1.006,-1.006 -0.361,-0.742 -1.172,-1.328 -1.866,-1.885 0.371,-1.289 0.567,-2.628 0.606,-3.116 0.02,-0.342 -0.508,-0.488 -0.654,-0.176 -0.352,0.772 -0.635,1.563 -0.967,2.345 -0.801,-0.791 -1.583,-1.631 -2.335,-2.472 -0.322,-0.361 -0.938,0.108 -0.674,0.518 0.713,1.104 1.514,2.11 2.364,3.097 0.029,0.029 0.049,0.059 0.068,0.078 -0.41,0.625 -1.192,1.25 -1.192,1.983 0,0.205 0.107,0.42 0.293,0.518 0.791,0.401 1.417,-0.225 1.895,-1.202 0.44,0.547 0.909,1.055 1.456,1.318 z m -7.796,-4.21 c 0.029,-0.313 -0.186,-0.586 -0.43,-0.742 -0.479,-0.322 -0.957,-0.664 -1.436,-1.006 0,-0.86 -0.078,-1.719 -0.147,-2.491 -0.068,-0.733 -1.065,-0.733 -1.133,0 -0.049,0.508 -0.088,1.026 -0.117,1.544 -0.625,-0.41 -1.26,-0.811 -1.915,-1.123 -0.635,-0.313 -1.368,0.498 -0.791,1.016 0.782,0.694 1.622,1.358 2.481,1.993 -0.127,0.645 -0.293,1.29 -0.322,1.944 -0.029,0.703 1.075,1.055 1.387,0.371 0.176,-0.391 0.303,-0.83 0.391,-1.28 0.244,0.176 0.488,0.352 0.733,0.518 0.264,0.176 0.615,0.137 0.869,0 0.332,-0.168 0.401,-0.392 0.43,-0.744 z"
         id="path26"
         inkscape:connector-curvature="0"
         style="fill:#209dd8" /><path
         d="m 486.761,374.059 c 3.81,-1.661 5.168,-1.035 4.064,1.876 -0.342,1.045 -0.84,2.003 -1.465,2.872 -0.801,-1.632 -1.671,-3.215 -2.599,-4.748 z"
         id="path28"
         inkscape:connector-curvature="0"
         style="fill:#67c5ee" /><path
         d="m 488.959,439.804 c 2.198,3.82 1.729,6.027 -1.397,6.614 -1.465,0.332 -2.872,0.225 -4.22,-0.283 1.973,-2.217 3.771,-4.591 5.373,-7.151 -0.059,0.282 0,0.595 0.244,0.82 z"
         id="path30"
         inkscape:connector-curvature="0"
         style="fill:#67c5ee" /><path
         d="m 481.437,366.742 c 3.605,-1.211 5.275,-0.44 4.982,2.364 -0.068,1.123 -0.361,2.139 -0.85,3.067 -1.26,-1.905 -2.637,-3.722 -4.132,-5.431 z"
         id="path32"
         inkscape:connector-curvature="0"
         style="fill:#67c5ee" /><path
         d="m 482.111,447.628 c 1.456,3.126 0.83,5.119 -1.876,5.998 -1.485,0.244 -2.755,-0.029 -3.81,-0.83 2.003,-1.651 3.878,-3.4 5.637,-5.256 0.02,0.03 0.03,0.059 0.049,0.088 z"
         id="path34"
         inkscape:connector-curvature="0"
         style="fill:#67c5ee" /><path
         d="m 478.399,358.145 c 2.696,1.231 2.257,4.474 1.456,6.868 -1.788,-1.866 -3.751,-3.585 -5.852,-5.138 1.016,-1.642 2.266,-2.717 4.396,-1.73 z"
         id="path36"
         inkscape:connector-curvature="0"
         style="fill:#67c5ee" /><path
         d="m 478.174,401.353 c 0.303,2.911 0.42,5.959 0.273,9.017 -0.127,0.107 -0.264,0.205 -0.41,0.303 -0.654,0.449 -1.407,0.713 -2.159,0.928 -0.694,0.205 -1.397,0.313 -2.12,0.342 -0.274,0.01 -0.889,0.098 -1.27,0.039 0.586,-2.774 0.899,-5.627 0.987,-8.509 0.967,0.166 2.208,-0.606 2.96,-1.026 0.45,-0.244 1.104,-0.625 1.739,-1.094 z"
         id="path38"
         inkscape:connector-curvature="0"
         style="fill:#9bd8f2" /><path
         d="m 477.881,399.018 c -0.059,0.059 -0.098,0.117 -0.156,0.176 -0.557,0.596 -1.221,1.123 -1.876,1.592 -0.645,0.459 -1.641,0.83 -2.364,1.348 0.01,-3.097 -0.234,-6.203 -0.723,-9.241 1.045,-0.127 2.051,-0.488 2.892,-1.172 0.176,-0.147 0.362,-0.332 0.557,-0.527 0.479,1.729 0.909,3.468 1.241,5.236 0.156,0.84 0.302,1.709 0.429,2.588 z"
         id="path40"
         inkscape:connector-curvature="0"
         style="fill:#9bd8f2" /><path
         d="m 478.282,412.714 c -0.215,2.257 -0.557,4.503 -1.104,6.662 -0.098,0.039 -0.205,0.088 -0.313,0.166 -1.299,1.084 -3.038,2.003 -4.758,2.012 -0.869,0 -1.631,-0.723 -2.413,-1.055 1.123,-2.374 1.973,-4.885 2.579,-7.483 1.075,0.713 2.364,0.586 3.722,0.371 0.655,-0.096 1.495,-0.321 2.287,-0.673 z"
         id="path42"
         inkscape:connector-curvature="0"
         style="fill:#9bd8f2" /><path
         d="m 474.775,454.125 c 3.781,5.363 -1.739,9.788 -7.063,8.499 0.303,-0.215 0.615,-0.43 0.918,-0.645 0.86,-0.596 0.488,-1.739 -0.498,-1.856 -0.713,-0.078 -1.407,-0.107 -2.1,-0.107 3.086,-1.817 6.007,-3.771 8.743,-5.891 z"
         id="path44"
         inkscape:connector-curvature="0"
         style="fill:#67c5ee" /><path
         d="m 475.576,388.995 c -0.234,0.43 -0.449,0.879 -0.752,1.211 -0.615,0.713 -1.446,1.055 -2.325,1.221 -0.43,-2.325 -0.987,-4.591 -1.661,-6.789 0.107,-0.029 0.215,-0.068 0.254,-0.088 0.244,-0.127 0.479,-0.264 0.703,-0.43 0.43,-0.293 1.006,-0.762 1.485,-1.29 0.869,2.013 1.641,4.065 2.296,6.165 z"
         id="path46"
         inkscape:connector-curvature="0"
         style="fill:#9bd8f2" /><path
         d="m 473.026,423.382 c 1.319,-0.078 2.403,-0.586 3.37,-1.309 -0.987,2.94 -2.354,5.686 -4.191,8.05 -0.537,0.684 -1.123,1.319 -1.729,1.934 -0.059,-0.029 -0.108,-0.049 -0.176,-0.059 -1.211,-0.176 -2.227,0.244 -3.468,-0.166 -1.28,-0.42 -2.345,-1.436 -3.234,-2.452 0.909,-0.967 1.768,-1.983 2.559,-3.019 1.065,-1.387 1.993,-2.862 2.804,-4.396 0.166,0.176 0.332,0.342 0.352,0.352 0.313,0.264 0.645,0.44 0.997,0.625 0.831,0.42 1.808,0.489 2.716,0.44 z"
         id="path48"
         inkscape:connector-curvature="0"
         style="fill:#9bd8f2" /><path
         d="m 472.498,381.053 c -0.176,0.225 -0.332,0.459 -0.488,0.674 -0.342,0.44 -0.723,0.84 -1.104,1.25 -0.147,0.147 -0.303,0.322 -0.449,0.498 -0.557,-1.69 -1.163,-3.331 -1.846,-4.885 -0.391,-0.889 -0.801,-1.739 -1.241,-2.589 0.508,-0.361 0.977,-0.772 1.377,-1.27 0.059,-0.088 0.127,-0.176 0.196,-0.264 1.309,2.141 2.5,4.329 3.555,6.586 z"
         id="path50"
         inkscape:connector-curvature="0"
         style="fill:#9bd8f2" /><path
         d="m 469.265,351.688 c 3.654,-0.479 3.019,4.259 2.403,6.584 -0.938,-0.606 -1.885,-1.202 -2.882,-1.739 -1.153,-0.625 -2.335,-1.182 -3.536,-1.71 0.899,-1.543 2.061,-2.891 4.015,-3.135 z"
         id="path52"
         inkscape:connector-curvature="0"
         style="fill:#67c5ee" /><path
         d="m 468.014,372.974 c -0.107,0.313 -0.225,0.625 -0.381,0.889 -0.234,0.391 -0.527,0.733 -0.86,1.045 -1.25,-2.286 -2.667,-4.425 -4.249,-6.438 0.254,-0.215 0.488,-0.459 0.703,-0.742 0.137,-0.195 0.293,-0.459 0.43,-0.752 0.948,1.192 1.837,2.384 2.677,3.546 0.586,0.801 1.143,1.622 1.68,2.452 z"
         id="path54"
         inkscape:connector-curvature="0"
         style="fill:#9bd8f2" /><path
         d="m 466.139,433.473 c 0.567,0.274 1.329,0.508 2.091,0.586 -2.823,2.218 -6.106,3.839 -9.583,4.963 -0.117,-0.156 -0.274,-0.283 -0.518,-0.332 -1.68,-0.342 -2.833,-1.319 -3.331,-2.804 2.931,-1.29 5.549,-3.253 7.854,-5.529 0.888,1.319 2.022,2.413 3.487,3.116 z"
         id="path56"
         inkscape:connector-curvature="0"
         style="fill:#9bd8f2" /><path
         d="m 462.495,365.55 c -0.01,0.068 -0.02,0.137 -0.02,0.215 -0.02,0.391 -0.166,0.762 -0.342,1.104 -0.117,0.225 -0.274,0.42 -0.44,0.606 -1.592,-1.915 -3.351,-3.712 -5.236,-5.402 0.528,-0.41 0.977,-0.928 1.299,-1.495 1.701,1.533 3.283,3.233 4.739,4.972 z"
         id="path58"
         inkscape:connector-curvature="0"
         style="fill:#9bd8f2" /><path
         d="m 456.731,351.697 c 2.901,-5.031 5.695,-1.592 6.066,2.13 -2.042,-0.762 -4.122,-1.397 -6.242,-1.925 0.069,-0.058 0.128,-0.126 0.176,-0.205 z"
         id="path60"
         inkscape:connector-curvature="0"
         style="fill:#67c5ee" /><path
         d="m 456.536,359.522 c -0.303,0.625 -0.645,1.202 -1.104,1.651 -0.664,-0.567 -1.338,-1.114 -2.032,-1.651 -2.315,-1.778 -4.855,-3.605 -7.551,-5.168 3.976,0.606 7.522,2.57 10.687,5.168 z"
         id="path62"
         inkscape:connector-curvature="0"
         style="fill:#9bd8f2" /><path
         d="m 447.588,350.31 c 1.299,-5.666 8.177,-5.451 7.395,0.909 -0.02,0.117 -0.01,0.215 0.02,0.313 -2.443,-0.538 -4.915,-0.938 -7.415,-1.222 z"
         id="path64"
         inkscape:connector-curvature="0"
         style="fill:#67c5ee" /><path
         d="m 453.537,436.384 c 0.322,1.407 1.143,2.628 2.335,3.419 -3.155,0.772 -6.389,1.192 -9.495,1.309 -0.957,0.039 -1.905,0.01 -2.843,-0.049 -0.01,-0.059 -0.01,-0.117 -0.039,-0.186 -0.332,-0.811 -0.498,-1.612 -0.283,-2.481 0.117,-0.469 0.42,-0.762 0.703,-1.075 1.671,0.225 3.39,0.293 5.178,0.107 1.543,-0.155 3.027,-0.526 4.444,-1.044 z"
         id="path66"
         inkscape:connector-curvature="0"
         style="fill:#9bd8f2" /><path
         d="m 440.349,347.438 c 0.791,-3.673 5.246,-1.289 5.344,2.667 -1.856,-0.166 -3.712,-0.273 -5.578,-0.342 0.039,-0.078 0.078,-0.147 0.098,-0.254 0.01,-0.088 0.01,-0.156 0.02,-0.244 0.01,0 0.01,0 0.01,0 0,-0.02 0,-0.039 0,-0.049 0.077,-0.654 0.116,-1.25 0.106,-1.778 z"
         id="path68"
         inkscape:connector-curvature="0"
         style="fill:#67c5ee" /><path
         d="m 441.834,436.931 c -0.117,0.225 -0.225,0.469 -0.303,0.713 -0.381,1.075 -0.176,2.247 0.254,3.282 -3.956,-0.459 -7.747,-1.651 -11.39,-3.351 0.4,-0.928 0.899,-1.778 1.631,-2.481 0.645,-0.635 1.465,-1.006 2.257,-1.407 2.354,1.486 4.874,2.6 7.551,3.244 z"
         id="path70"
         inkscape:connector-curvature="0"
         style="fill:#9bd8f2" /><path
         d="m 438.561,349.724 c -1.944,-0.049 -3.888,-0.029 -5.803,0.02 0,-0.127 -0.02,-0.254 -0.088,-0.391 -2.061,-3.849 5.226,-6.907 5.803,-2.071 -0.098,0.586 -0.137,1.241 -0.088,1.983 0.01,0.176 0.088,0.322 0.176,0.459 z"
         id="path72"
         inkscape:connector-curvature="0"
         style="fill:#67c5ee" /><path
         d="m 432.563,432.526 c -1.534,1.123 -2.589,2.862 -2.774,4.758 -3.497,-1.7 -6.858,-3.839 -10.111,-6.213 0.186,-0.098 0.352,-0.254 0.44,-0.488 0.498,-1.319 1.299,-2.472 2.276,-3.478 0.469,-0.488 1.006,-0.889 1.583,-1.231 0.361,-0.205 0.772,-0.283 1.153,-0.43 0.928,1.065 1.876,2.11 2.872,3.126 1.425,1.445 2.949,2.783 4.561,3.956 z"
         id="path74"
         inkscape:connector-curvature="0"
         style="fill:#9bd8f2" /><path
         d="m 423.722,423.763 c -0.928,0.371 -1.778,1.143 -2.413,1.768 -1.309,1.26 -2.276,2.882 -2.853,4.582 -0.01,0.02 0,0.029 -0.01,0.039 -3.351,-2.54 -6.594,-5.295 -9.749,-8.03 1.192,-3.771 3.781,-5.998 7.424,-7.463 0.117,-0.049 0.205,-0.117 0.283,-0.195 2.463,3.076 4.808,6.261 7.318,9.299 z"
         id="path76"
         inkscape:connector-curvature="0"
         style="fill:#9bd8f2" /><path
         d="m 409.411,406.736 c 2.081,1.934 3.976,4.064 5.793,6.262 -3.429,1.407 -7.122,4.24 -7.698,8.089 -3.497,-3.038 -6.887,-6.018 -10.209,-8.567 -0.772,-0.586 -1.543,-1.172 -2.325,-1.739 0.234,-0.059 0.488,-0.147 0.791,-0.322 1.094,-0.625 2.081,-1.475 3.067,-2.257 1.299,-1.026 2.56,-2.1 3.898,-3.058 0.948,-0.684 2.032,-1.084 2.999,-1.671 1.251,1.065 2.482,2.149 3.684,3.263 z"
         id="path78"
         inkscape:connector-curvature="0"
         style="fill:#9bd8f2" /><path
         d="m 403.921,401.949 c -1.856,0.723 -3.654,2.442 -4.992,3.566 -1.133,0.948 -2.227,1.944 -3.351,2.911 -0.518,0.44 -1.143,0.821 -1.622,1.299 -0.068,0.068 -0.117,0.137 -0.156,0.215 -5.617,-3.996 -11.527,-7.434 -17.76,-9.788 0.967,-2.481 2.784,-4.347 5.109,-5.832 1.192,-0.762 2.511,-1.309 3.849,-1.768 1.123,-0.391 2.403,-0.43 3.439,-1.016 5.509,2.901 10.667,6.466 15.484,10.413 z"
         id="path80"
         inkscape:connector-curvature="0"
         style="fill:#9bd8f2" /><path
         d="m 382.908,388.878 c 0.84,0.362 1.661,0.752 2.491,1.143 -2.345,0.566 -4.865,2.13 -6.408,3.224 -2.227,1.573 -3.976,3.741 -4.611,6.321 -5.441,-1.876 -11.107,-2.921 -17.008,-2.804 -0.674,-5.256 0.948,-9.74 4.494,-13.559 7.218,0.976 14.291,2.823 21.042,5.675 z"
         id="path82"
         inkscape:connector-curvature="0"
         style="fill:#9bd8f2" /><path
         d="m 383.816,465.652 c -0.029,0.039 -0.059,0.068 -0.068,0.117 -2.003,5.129 -9.867,8.001 -11.381,0.948 -0.029,-0.098 -0.068,-0.186 -0.117,-0.264 2.813,-0.362 5.51,-1.084 7.942,-2.491 1.074,0.733 2.295,1.28 3.624,1.69 z"
         id="path84"
         inkscape:connector-curvature="0"
         style="fill:#67c5ee" /><path
         d="m 370.511,466.629 c -0.01,0.039 -0.029,0.059 -0.039,0.088 -1.075,5.607 -9.378,8.098 -9.808,0.752 -0.029,-0.4 -0.235,-0.664 -0.498,-0.801 3.409,0.069 6.945,0.235 10.345,-0.039 z"
         id="path86"
         inkscape:connector-curvature="0"
         style="fill:#67c5ee" /><path
         d="m 353.952,466.746 c 1.71,-0.127 3.488,-0.127 5.314,-0.098 -0.283,0.137 -0.508,0.4 -0.537,0.821 -0.508,7.678 -11.146,7.268 -13.208,0.713 -0.098,-0.293 -0.293,-0.488 -0.527,-0.596 2.98,-0.293 5.969,-0.615 8.958,-0.84 z"
         id="path88"
         inkscape:connector-curvature="0"
         style="fill:#67c5ee" /><path
         d="m 359.345,382.899 c -3.292,3.79 -4.826,9.017 -3.351,13.911 -1.837,0.098 -3.702,0.303 -5.588,0.625 -1.221,-1.563 -2.989,-2.511 -5.021,-2.472 0.625,-4.123 1.016,-8.323 1.231,-12.563 4.259,-0.116 8.509,0.05 12.729,0.499 z"
         id="path90"
         inkscape:connector-curvature="0"
         style="fill:#9bd8f2" /><path
         d="m 349.967,343.277 c 0.889,0.127 3.146,-0.195 2.266,0.733 -1.202,1.29 -3.644,1.661 -5.275,2.042 -7.19,1.671 -14.663,1.329 -21.941,2.325 -0.205,-0.127 -0.469,-0.186 -0.762,-0.117 -1.045,0.244 -2.139,0.234 -3.224,0.322 -0.381,-4.396 4.474,-4.035 8.069,-4.63 4.64,-0.782 9.29,-1.221 13.989,-1.241 2.306,-0.021 4.601,0.224 6.878,0.566 z"
         id="path92"
         inkscape:connector-curvature="0"
         style="fill:#ec7c3c" /><path
         d="m 343.969,349.265 c 0.195,10.277 -0.156,20.583 -0.283,30.87 -0.088,0 -0.176,0 -0.264,0.01 0.01,0.791 0,1.592 -0.02,2.384 0.088,0 0.176,0 0.264,-0.01 -0.039,4.22 -0.029,8.45 0.098,12.661 l 0,0.01 c -0.137,0.039 -0.264,0.068 -0.401,0.107 -1.465,0.469 -2.843,1.973 -3.331,3.409 -0.303,0.918 -1.856,0.401 -2.52,0.625 -0.068,0.02 -0.117,0.049 -0.176,0.078 -0.635,-7.825 -0.987,-15.542 -0.801,-23.416 0.215,-8.714 1.036,-17.564 0.205,-26.269 2.374,-0.156 4.748,-0.391 7.092,-0.742 0.059,-0.01 0.137,-0.02 0.195,-0.029 -0.029,0.097 -0.058,0.195 -0.058,0.312 z"
         id="path94"
         inkscape:connector-curvature="0"
         style="fill:#c6c5c5" /><path
         d="m 343.929,467.684 c -0.156,0.117 -0.274,0.274 -0.342,0.498 -1.485,5.197 -9.749,8.294 -10.189,0.752 -0.01,-0.205 -0.088,-0.371 -0.195,-0.518 1.358,-0.059 2.677,-0.147 3.908,-0.215 2.276,-0.107 4.542,-0.302 6.818,-0.517 z"
         id="path96"
         inkscape:connector-curvature="0"
         style="fill:#67c5ee" /><path
         d="m 337.179,317.936 c 5.734,4.66 3.536,16.05 3.448,22.625 -2.979,0.088 -5.959,0.371 -8.929,0.762 0.225,-3.497 0.381,-6.995 0.762,-10.482 0.128,-1.134 2.521,-14.693 4.719,-12.905 z"
         id="path98"
         inkscape:connector-curvature="0"
         style="fill:#ec7c3c" /><path
         d="m 335.977,400.132 c -0.186,0.137 -0.371,0.274 -0.557,0.43 -1.475,-1.69 -3.439,-2.423 -5.334,-2.315 -0.557,-7.903 -1.543,-15.718 -1.68,-23.66 -0.147,-8.343 1.241,-16.353 1.71,-24.588 1.885,-0.039 3.771,-0.108 5.656,-0.225 -0.469,8.724 -0.596,17.496 -0.83,26.22 -0.225,7.98 -0.42,16.245 1.035,24.138 z"
         id="path100"
         inkscape:connector-curvature="0"
         style="fill:#c6c5c5" /><path
         d="m 331.415,468.456 c -0.029,0.068 -0.068,0.117 -0.088,0.195 -1.202,5.197 -5.754,8.743 -10.873,6.086 0.322,-0.987 0.684,-1.934 1.104,-2.823 1.221,-1.397 2.374,-2.843 3.458,-4.347 1.964,0.713 4.182,0.889 6.399,0.889 z"
         id="path102"
         inkscape:connector-curvature="0"
         style="fill:#67c5ee" /><path
         d="m 326.619,384.843 c 0.254,4.65 0.791,9.29 1.905,13.686 -1.114,0.342 -2.12,1.006 -2.921,1.925 -2.608,-4.044 -5.412,-8.909 -4.123,-13.833 0.049,-0.195 0.029,-0.371 -0.039,-0.527 1.72,-0.45 3.439,-0.87 5.178,-1.251 z"
         id="path104"
         inkscape:connector-curvature="0"
         style="fill:#9bd8f2" /><path
         d="m 320.249,469.599 c -0.156,0.283 -0.313,0.576 -0.459,0.879 -7.893,9.066 -18.463,15.308 -30.04,18.737 -11.361,3.38 -24.178,1.632 -34.191,9.007 -0.635,0.459 -0.742,1.202 -0.235,1.817 6.154,7.376 17.311,8.138 26.23,8.313 13.706,0.274 27.148,-1.729 40.678,-3.458 -23.377,12.543 -49.616,9.906 -75.074,4.503 -1.075,-0.234 -1.837,1.006 -1.065,1.827 18.239,19.626 43.364,28.633 69.36,26.552 -16.685,4.982 -34.377,5.568 -51.013,-0.44 -9.359,-3.37 -17.848,-8.675 -24.95,-15.63 -3.419,-3.331 -6.545,-7.17 -8.821,-11.391 -2.55,-4.748 -0.684,-8.851 2.706,-12.514 3.917,-4.23 8.821,-7.708 12.954,-11.772 4.797,-4.718 9.271,-9.779 13.247,-15.2 4.484,-6.115 9.788,-15.161 7.62,-22.84 6.115,9.691 4.298,24.51 -1.846,33.517 -0.518,0.762 0.166,1.866 1.055,1.837 19.077,-0.595 36.26,-7.199 53.844,-13.744 z"
         id="path106"
         inkscape:connector-curvature="0"
         style="fill:#209dd8" /><path
         d="m 319.517,386.621 c -1.837,4.152 1.016,9.671 3.693,13.384 -7.473,0.244 -14.692,2.208 -21.638,5.158 -0.987,-1.465 -1.856,-2.999 -2.52,-4.64 -0.381,-0.918 -0.625,-1.895 -0.742,-2.892 -0.108,-0.987 0.225,-1.905 0.117,-2.872 1.612,-0.791 3.243,-1.563 4.894,-2.296 5.186,-2.325 10.627,-4.279 16.196,-5.842 z"
         id="path108"
         inkscape:connector-curvature="0"
         style="fill:#9bd8f2" /><path
         d="m 323.971,506.486 c -6.193,8.44 -11.361,23.895 -1.114,28.271 -26.835,4.415 -53.348,-3.37 -72.71,-22.508 25.126,5.042 50.877,6.878 73.824,-5.763 z"
         id="path110"
         inkscape:connector-curvature="0"
         style="fill:#ccebf8" /><path
         d="m 317.924,475.743 c -2.452,9.828 -0.772,22.762 7.59,26.503 -13.12,1.583 -26.054,3.321 -39.291,3.751 -9.066,0.293 -21.433,0.342 -28.31,-6.594 10.619,-6.946 24.764,-5.265 36.516,-9.3 8.783,-3.018 16.853,-7.941 23.495,-14.36 z"
         id="path112"
         inkscape:connector-curvature="0"
         style="fill:#ccebf8" /><path
         d="m 321.891,466.57 c -17.438,6.448 -34.504,13.169 -53.231,14.214 4.533,-8.02 6.106,-19.245 3.126,-28.379 13.139,10.522 34.679,8.568 50.105,14.165 z"
         id="path114"
         inkscape:connector-curvature="0"
         style="fill:#ccebf8" /><path
         d="m 296.579,399.819 c 0.567,2.247 1.837,4.308 3.351,6.047 -6.027,2.716 -11.84,6.125 -17.408,9.759 -0.635,-1.104 -2.335,-1.807 -3.224,-2.696 -1.475,-1.465 -2.393,-3.312 -2.735,-5.334 6.311,-4.289 12.827,-8.255 19.675,-11.752 -0.255,1.29 0.048,2.804 0.341,3.976 z"
         id="path116"
         inkscape:connector-curvature="0"
         style="fill:#9bd8f2" /><path
         d="m 277.227,413.535 c 0.752,0.899 2.208,2.628 3.624,3.194 -4.513,3.009 -8.88,6.135 -13.061,9.114 -0.615,0.43 -1.221,0.86 -1.837,1.289 -0.576,-0.254 -1.202,-0.166 -1.846,-0.322 -0.909,-0.215 -1.71,-0.811 -2.384,-1.436 -1.338,-1.231 -2.198,-2.97 -2.843,-4.66 5.265,-4.191 10.619,-8.245 16.128,-12.055 0.285,1.779 1.056,3.479 2.219,4.876 z"
         id="path118"
         inkscape:connector-curvature="0"
         style="fill:#9bd8f2" /><path
         d="m 261.499,461.53 c 0.459,-0.01 0.957,-0.029 1.456,-0.078 -1.905,3.8 -4.601,7.542 -7.307,10.853 1.309,-3.312 2.198,-7.171 2.325,-10.844 1.172,0.098 2.354,0.098 3.526,0.069 z"
         id="path120"
         inkscape:connector-curvature="0"
         style="fill:#67c5ee" /><path
         d="m 260.698,427.006 c 0.625,0.606 1.768,1.377 2.921,1.749 -5.422,3.712 -10.922,7.17 -16.705,10.179 -0.156,-0.059 -0.313,-0.127 -0.479,-0.205 -0.762,-0.352 -1.456,-0.83 -2.11,-1.348 -0.957,-0.772 -1.71,-1.739 -2.208,-2.843 5.148,-4.337 10.297,-8.655 15.533,-12.846 0.518,2.012 1.544,3.849 3.048,5.314 z"
         id="path122"
         inkscape:connector-curvature="0"
         style="fill:#9bd8f2" /><path
         d="m 242.508,438.094 c 0.508,0.596 1.338,1.358 2.237,1.944 -2.452,1.211 -4.953,2.345 -7.532,3.37 -4.162,1.661 -8.382,2.921 -12.651,3.849 5.539,-2.852 10.619,-6.848 15.23,-10.746 0.381,-0.332 0.772,-0.654 1.153,-0.977 0.371,0.909 0.879,1.769 1.563,2.56 z"
         id="path124"
         inkscape:connector-curvature="0"
         style="fill:#9bd8f2" /><path
         d="m 235.592,463.347 c -0.86,2.012 -1.671,4.074 -2.413,6.164 -2.452,-1.182 -3.605,-3.146 -3.8,-5.949 -0.01,-0.137 -0.049,-0.244 -0.098,-0.362 2.11,0.039 4.21,0.078 6.311,0.147 z"
         id="path126"
         inkscape:connector-curvature="0"
         style="fill:#67c5ee" /><path
         d="m 227.357,463.161 c -0.059,0.117 -0.107,0.254 -0.127,0.401 -0.821,6.447 -9.759,6.555 -10.56,0 -0.02,-0.147 -0.068,-0.274 -0.127,-0.391 0.977,-0.01 1.944,-0.01 2.911,-0.02 2.637,-0.019 5.275,-0.019 7.903,0.01 z"
         id="path128"
         inkscape:connector-curvature="0"
         style="fill:#67c5ee" /><path
         d="m 214.608,463.171 c -0.039,0.117 -0.068,0.244 -0.068,0.391 -0.029,8.05 -9.427,6.223 -10.59,-0.283 -0.01,-0.029 -0.02,-0.049 -0.029,-0.068 3.566,-0.001 7.131,-0.021 10.687,-0.04 z"
         id="path130"
         inkscape:connector-curvature="0"
         style="fill:#67c5ee" /><path
         d="m 201.889,463.21 c -0.01,0.02 -0.02,0.039 -0.029,0.068 -0.703,3.673 -2.97,6.887 -7.073,4.758 -2.042,-1.055 -2.178,-3.263 -3.321,-4.845 3.477,0.009 6.955,0.009 10.423,0.019 z"
         id="path132"
         inkscape:connector-curvature="0"
         style="fill:#67c5ee" /><path
         d="m 200.746,412.138 c 0.596,5.187 -4.123,10.951 -6.311,15.376 -2.042,4.103 -2.853,8.499 -2.052,13.032 0.352,2.022 1.172,3.712 2.296,5.109 -3.546,-0.449 -6.936,-1.377 -9.173,-4.484 -2.53,-3.527 -3.693,-7.844 -6.321,-11.322 -0.674,-0.899 -1.514,-1.807 -2.432,-2.657 3.839,-2.901 6.975,-6.409 9.906,-10.238 2.051,-2.677 4.074,-5.373 6.223,-7.981 0.928,-1.123 1.915,-2.188 2.921,-3.234 1.768,-1.846 4.835,5.451 4.943,6.399 z"
         id="path134"
         inkscape:connector-curvature="0"
         style="fill:#209dd8" /><path
         d="m 194.054,404.489 c -0.948,0.996 -1.876,2.012 -2.765,3.067 -0.86,-1.436 -1.622,-2.892 -2.178,-4.455 1.71,0.274 3.292,0.88 4.943,1.388 z"
         id="path136"
         inkscape:connector-curvature="0"
         style="fill:#f5f6f6" /><path
         d="m 183.728,463.181 c 1.934,0 3.868,0 5.803,0.01 -0.254,0.166 -0.44,0.44 -0.41,0.86 0.449,6.506 -8.9,5.5 -9.603,-0.488 -0.02,-0.137 -0.059,-0.264 -0.107,-0.381 1.436,0.008 2.881,-0.001 4.317,-0.001 z"
         id="path138"
         inkscape:connector-curvature="0"
         style="fill:#67c5ee" /><path
         d="m 182.918,440.849 c 2.677,4.845 7.092,6.233 12.084,6.858 -5.9,4.464 -12.592,5.91 -19.548,2.081 -6.252,-3.448 -9.955,-10.169 -12.719,-16.48 0.381,-0.703 -0.244,-1.866 -1.123,-1.495 -0.85,0.361 -1.661,0.645 -2.442,0.879 -0.41,-4.259 4.191,-4.054 6.613,-2.11 1.065,0.85 1.788,2.042 2.462,3.194 1.368,2.325 2.188,4.972 3.282,7.434 1.885,4.24 5.422,7.825 10.375,7.522 0.869,-0.059 1.123,-1.358 0.215,-1.573 -5.578,-1.309 -7.737,-4.083 -9.857,-9.212 -1.309,-3.175 -2.559,-6.32 -5.129,-8.714 -0.645,-0.606 -1.368,-1.065 -2.139,-1.397 3.126,-5.529 8.782,-0.977 11.908,2.423 2.745,2.98 4.083,7.083 6.018,10.59 z"
         id="path140"
         inkscape:connector-curvature="0"
         style="fill:#ea5d56" /><path
         d="m 189.463,409.774 c -1.104,1.387 -2.188,2.794 -3.273,4.21 -0.674,-1.544 -1.319,-3.087 -1.944,-4.64 1.739,0.117 3.478,0.352 5.217,0.43 z"
         id="path142"
         inkscape:connector-curvature="0"
         style="fill:#f5f6f6" /><path
         d="m 179.635,416.104 c 1.641,-0.059 3.253,-0.147 4.924,-0.01 -1.319,1.671 -2.657,3.321 -4.083,4.885 -0.196,-1.632 -0.479,-3.263 -0.841,-4.875 z"
         id="path144"
         inkscape:connector-curvature="0"
         style="fill:#f5f6f6" /><path
         d="m 177.535,463.181 c -0.01,0.039 -0.039,0.068 -0.049,0.108 -2.071,6.614 -11.068,6.916 -12.074,-0.44 4.034,0.244 8.079,0.312 12.123,0.332 z"
         id="path146"
         inkscape:connector-curvature="0"
         style="fill:#67c5ee" /><path
         d="m 178.805,422.747 c -1.114,1.123 -2.276,2.208 -3.536,3.204 -0.909,-0.694 -1.885,-1.289 -2.872,-1.758 -0.068,-0.85 0.059,-1.7 0.166,-2.55 2.158,0.127 4.161,0.576 6.242,1.104 z"
         id="path148"
         inkscape:connector-curvature="0"
         style="fill:#f5f6f6" /><path
         d="m 163.663,366.136 c 1.114,1.065 2.11,2.266 2.979,3.536 -1.241,0.303 -2.491,0.488 -3.79,0.557 -0.293,0.01 -0.518,0.127 -0.684,0.293 0.313,-1.494 0.723,-2.96 1.495,-4.386 z"
         id="path150"
         inkscape:connector-curvature="0"
         style="fill:#f5f6f6" /><path
         d="m 165.138,376.755 c -1.055,0.42 -2.139,0.782 -3.204,1.143 -0.567,0.195 -1.123,0.322 -1.631,0.537 0.176,-0.528 0.361,-1.045 0.528,-1.573 0.498,-1.553 0.762,-3.107 1.026,-4.63 0.937,1.563 2.08,3.126 3.281,4.523 z"
         id="path152"
         inkscape:connector-curvature="0"
         style="fill:#f5f6f6" /><path
         d="m 159.238,381.581 c 1.104,1.29 2.315,2.481 3.409,3.781 -1.69,0.469 -3.39,0.85 -5.109,1.182 0.576,-1.652 1.143,-3.303 1.7,-4.963 z"
         id="path154"
         inkscape:connector-curvature="0"
         style="fill:#f5f6f6" /><path
         d="m 163.253,462.702 c -0.987,7.864 -11.273,4.845 -12.065,-1.583 0,-0.02 -0.01,-0.039 -0.01,-0.068 1.661,0.342 3.321,0.625 4.953,0.869 2.364,0.352 4.738,0.596 7.122,0.782 z"
         id="path156"
         inkscape:connector-curvature="0"
         style="fill:#67c5ee" /><path
         d="m 156.18,390.304 c 0.606,1.504 1.651,2.94 2.647,4.279 -1.504,0.362 -2.989,0.781 -4.513,0.967 0.332,-0.977 0.674,-1.964 1.035,-2.931 0.284,-0.771 0.558,-1.543 0.831,-2.315 z"
         id="path158"
         inkscape:connector-curvature="0"
         style="fill:#f5f6f6" /><path
         d="m 155.272,374.469 c 0.84,2.696 -1.104,6.819 -2.911,8.753 -0.43,0.459 -1.377,0.401 -1.651,-0.215 -1.573,-3.536 -0.137,-8.45 3.683,-9.886 0.615,-0.235 0.869,0.527 0.566,0.948 0.137,0.087 0.254,0.224 0.313,0.4 z m -2.892,4.533 c -0.059,-0.166 -0.107,-0.332 -0.127,-0.488 -0.01,-0.078 -0.02,-0.147 -0.029,-0.225 -0.117,0.527 -0.195,1.065 -0.176,1.612 0.127,-0.294 0.234,-0.597 0.332,-0.899 z"
         id="path160"
         inkscape:connector-curvature="0"
         style="fill:#1d1d1b" /><path
         d="m 156.483,402.301 c -0.967,0.528 -1.983,0.909 -3.048,1.231 -0.44,0.127 -0.987,0.166 -1.504,0.254 0.479,-1.973 1.026,-3.937 1.631,-5.891 0.762,1.621 1.719,3.077 2.921,4.406 z"
         id="path162"
         inkscape:connector-curvature="0"
         style="fill:#f5f6f6" /><path
         d="m 154.549,410.487 c -0.772,0.381 -1.583,0.703 -2.393,1.006 -0.576,0.205 -1.27,0.352 -1.856,0.635 0.107,-0.674 0.215,-1.348 0.322,-2.003 0.205,-1.231 0.459,-2.462 0.723,-3.683 1.123,1.271 2.178,2.667 3.204,4.045 z"
         id="path164"
         inkscape:connector-curvature="0"
         style="fill:#f5f6f6" /><path
         d="m 153.327,418.839 c -0.488,0.205 -0.987,0.371 -1.524,0.498 -0.84,0.205 -1.719,0.039 -2.354,0.576 0.078,-1.905 0.274,-3.82 0.537,-5.705 0.811,1.701 2.003,3.283 3.341,4.631 z"
         id="path166"
         inkscape:connector-curvature="0"
         style="fill:#f5f6f6" /><path
         d="m 153.601,426.498 c -0.85,0.86 -1.71,1.739 -2.706,2.393 -0.137,0.088 -0.234,0.186 -0.313,0.303 -0.225,-0.596 -0.43,-1.25 -0.596,-1.983 -0.303,-1.397 -0.469,-2.823 -0.537,-4.279 1.368,1.212 2.745,2.423 4.152,3.566 z"
         id="path168"
         inkscape:connector-curvature="0"
         style="fill:#f5f6f6" /><path
         d="m 150.954,371.02 c 0.205,1.417 -0.801,2.999 -1.612,4.113 -0.85,1.162 -1.964,1.973 -3.302,2.511 -0.811,0.322 -1.465,-0.596 -1.309,-1.309 0.44,-2.022 2.11,-5.138 4.435,-5.275 0.127,-0.147 0.254,-0.293 0.401,-0.401 0.419,-0.332 1.289,-0.332 1.387,0.361 z"
         id="path170"
         inkscape:connector-curvature="0"
         style="fill:#1d1d1b" /><path
         d="m 149.234,460.621 c -4.015,6.008 -9.134,2.794 -9.007,-2.98 0.078,-0.098 0.166,-0.195 0.234,-0.293 2.697,1.524 5.706,2.531 8.773,3.273 z"
         id="path172"
         inkscape:connector-curvature="0"
         style="fill:#67c5ee" /><path
         d="m 140.13,444.747 c -0.068,0.059 -0.127,0.117 -0.186,0.195 -0.899,1.231 -1.915,2.364 -3.038,3.4 -0.117,-0.088 -0.264,-0.147 -0.43,-0.166 -1.71,-0.215 -3.273,-1.075 -4.435,-2.325 1.397,-1.436 2.188,-3.175 2.1,-5.295 2.413,0.684 4.914,1.836 5.989,4.191 z"
         id="path174"
         inkscape:connector-curvature="0"
         style="fill:#ccebf8" /><path
         d="m 139.065,432.418 c 0.332,0.674 -0.332,1.338 -1.006,1.006 -0.547,-0.264 -1.016,-0.772 -1.456,-1.319 -0.479,0.977 -1.104,1.602 -1.895,1.202 -0.186,-0.098 -0.293,-0.313 -0.293,-0.518 0,-0.733 0.781,-1.358 1.192,-1.983 -0.02,-0.02 -0.039,-0.049 -0.068,-0.078 -0.85,-0.987 -1.651,-1.993 -2.364,-3.097 -0.264,-0.41 0.352,-0.879 0.674,-0.518 0.752,0.84 1.534,1.68 2.335,2.472 0.332,-0.782 0.615,-1.573 0.967,-2.345 0.147,-0.313 0.674,-0.166 0.654,0.176 -0.039,0.488 -0.235,1.827 -0.606,3.116 0.694,0.558 1.504,1.144 1.866,1.886 z"
         id="path176"
         inkscape:connector-curvature="0"
         style="fill:#1d1d1b" /><path
         d="m 138.655,456.196 c -1.27,1.846 -3.321,2.687 -5.568,2.784 -2.335,0.098 -4.386,-1.006 -3.087,-3.507 0.029,-0.059 0.039,-0.107 0.039,-0.156 1.71,-0.752 3.331,-1.631 4.836,-2.628 0.029,0.059 0.049,0.107 0.098,0.166 1.093,1.299 2.333,2.393 3.682,3.341 z"
         id="path178"
         inkscape:connector-curvature="0"
         style="fill:#67c5ee" /><path
         d="m 133.633,449.201 c 0.401,0.244 0.938,0.508 1.475,0.645 -1.846,1.417 -3.917,2.599 -6.106,3.546 0.039,-0.254 -0.02,-0.508 -0.244,-0.674 -0.596,-0.469 -1.192,-0.527 -1.661,-1.201 -0.459,-0.655 -0.752,-1.436 -1.006,-2.208 1.895,-0.664 3.566,-1.485 4.894,-2.501 0.704,0.957 1.593,1.768 2.648,2.393 z"
         id="path180"
         inkscape:connector-curvature="0"
         style="fill:#ccebf8" /><path
         d="m 129.833,428.472 c 0.244,0.156 0.459,0.43 0.43,0.742 -0.029,0.352 -0.098,0.576 -0.43,0.742 -0.254,0.137 -0.606,0.176 -0.869,0 -0.244,-0.166 -0.488,-0.342 -0.733,-0.518 -0.088,0.449 -0.215,0.889 -0.391,1.28 -0.313,0.684 -1.416,0.332 -1.387,-0.371 0.029,-0.655 0.195,-1.299 0.322,-1.944 -0.86,-0.635 -1.7,-1.299 -2.481,-1.993 -0.576,-0.518 0.156,-1.329 0.791,-1.016 0.655,0.313 1.29,0.713 1.915,1.123 0.029,-0.518 0.068,-1.035 0.117,-1.544 0.068,-0.733 1.065,-0.733 1.133,0 0.068,0.772 0.147,1.632 0.147,2.491 0.479,0.343 0.957,0.685 1.436,1.008 z"
         id="path182"
         inkscape:connector-curvature="0"
         style="fill:#1d1d1b" /><path
         d="m 125.789,452.786 c 0.303,0.518 0.84,1.055 1.446,1.309 -2.442,0.889 -5.021,1.475 -7.639,1.778 -0.068,-0.596 -0.322,-1.153 -0.449,-1.739 -0.225,-1.045 -0.293,-2.139 -0.254,-3.214 2.081,-0.274 4.093,-0.664 5.92,-1.202 0.155,1.066 0.429,2.111 0.976,3.068 z"
         id="path184"
         inkscape:connector-curvature="0"
         style="fill:#ccebf8" /><path
         d="m 124.724,439.471 c -0.156,0 -0.322,0.029 -0.469,0.147 -0.86,0.674 -1.768,1.221 -2.716,1.68 -0.049,-0.137 -0.147,-0.254 -0.332,-0.332 -0.987,-0.43 -1.661,-1.133 -2.178,-2.071 -0.342,-0.625 -0.43,-1.319 -0.586,-1.993 1.495,-0.752 2.862,-1.719 4.054,-2.96 0.596,1.905 1.328,3.761 2.227,5.529 z"
         id="path186"
         inkscape:connector-curvature="0"
         style="fill:#ccebf8" /><path
         d="m 117.456,439.813 c 0.537,0.948 1.358,1.778 2.354,2.198 -2.178,0.762 -4.494,1.065 -6.828,1.035 -0.899,-0.41 -1.504,-1.524 -1.778,-2.374 -0.195,-0.596 -0.205,-1.231 -0.234,-1.856 1.964,-0.117 3.878,-0.469 5.656,-1.123 0.156,0.762 0.488,1.515 0.83,2.12 z"
         id="path188"
         inkscape:connector-curvature="0"
         style="fill:#ccebf8" /><path
         d="m 117.495,454.662 c 0.029,0.42 0.078,0.928 0.235,1.368 -2.638,0.156 -5.295,-0.01 -7.854,-0.488 -0.537,-0.645 -0.879,-1.309 -0.85,-2.198 0.029,-0.772 0.498,-1.348 0.869,-1.973 2.569,0.068 5.226,-0.029 7.815,-0.303 -0.254,1.181 -0.322,2.373 -0.215,3.594 z"
         id="path190"
         inkscape:connector-curvature="0"
         style="fill:#ccebf8" /><path
         d="m 109.944,441.914 c 0.205,0.4 0.449,0.723 0.723,0.987 -1.524,-0.156 -3.028,-0.43 -4.494,-0.811 -0.567,-0.137 -1.104,-0.303 -1.631,-0.488 0.01,-0.049 0,-0.107 -0.049,-0.166 -0.391,-0.576 -0.469,-1.416 -0.371,-2.081 0.049,-0.342 0.195,-0.664 0.342,-0.987 1.534,0.293 3.087,0.469 4.621,0.489 0.038,1.083 0.419,2.217 0.859,3.057 z"
         id="path192"
         inkscape:connector-curvature="0"
         style="fill:#ccebf8" /><path
         d="m 107.794,451.292 c -0.313,0.645 -0.488,1.387 -0.518,2.051 -0.039,0.596 0.108,1.172 0.362,1.69 -3.878,-1.045 -7.454,-2.882 -10.345,-5.568 2.452,0.928 6.252,1.583 10.501,1.827 z"
         id="path194"
         inkscape:connector-curvature="0"
         style="fill:#ccebf8" /><path
         d="m 103.057,438.074 c -0.088,0.371 -0.127,0.762 -0.156,1.114 -0.049,0.752 0.166,1.426 0.576,1.993 -3.214,-1.319 -5.744,-3.341 -7.874,-5.949 2.256,1.24 4.816,2.207 7.454,2.842 z"
         id="path196"
         inkscape:connector-curvature="0"
         style="fill:#ccebf8" /></g></g></svg>