<svg xmlns="http://www.w3.org/2000/svg" width="250" height="250" viewBox="0 0 249.99999 250" enable-background="new 0 0 595.28 841.89"><defs><filter id="a" color-interpolation-filters="sRGB"><feColorMatrix values="0.21 0.72 0.072 0 0 0.21 0.72 0.072 0 0 0.21 0.72 0.072 0 0 0 0 0 1 0"/></filter></defs><g transform="matrix(.437 0 0 .626 1.743 -149.459)" filter="url(#a)"><g><path d="M498.982 420.012c2.178 1.446 3.947 3.673 2.95 6.39-.967 2.656-3.097 3.81-5.54 3.907 4.055 3.203 1.388 10.247-4.405 10.198 2.686 4.474-2.15 8.206-7.327 7.776 1.63 4.25-2.59 8-6.946 7.15 1.807 6.038-4.953 11.587-11.42 8.275-.03-.02-.04-.04-.068-.06-4.113 2.843-8.304 5.617-12.778 7.825-3.282 1.622-8.636 4.59-12.475 3.39-6.82-2.12-10.482-9.26-17.907-10.326-7.14-1.027-14.038.312-21.09 1.308-4.29.606-10.962 1.417-16.48.234-.206 3.34-4.163 6.233-7.24 6.82-3.33.634-5.637-.558-6.907-3.05-2.697 4.583-9.135 5.51-11.636 1.163-2.892 5.49-11.586 5.256-15.103-.166-2.9 4.99-10.012 6.398-12.474 1.513-2.432 4.406-7.317 6.692-12.162 4.093-2.364 9.613-.03 22.205 8.587 25.712.392.156.41.567.206.79.352.392.45.968-.05 1.427-7.287 6.614-15.747 25.077-2.52 29.737.655.225.675.918.314 1.29-.02.39-.244.772-.723.967-18.336 7.492-39.896 10.55-58.956 4.034-8.762-3-17.24-7.102-24.353-13.12-5.49-4.66-13.335-11.615-14.995-19.05-.742-3.34.03-6.163 1.553-8.664-.342-.088-.635-.38-.655-.85-.498-8.978 1.163-18.317 4.103-27.207-2.11-.996-3.556-2.442-4.396-4.357-2.833 4.337-9.31 4.415-12.192.166-2.433 5.177-9.945 4.67-12.944-.48-1.328 2.775-3.76 5.07-7.13 3.928-1.837-.625-4.18-1.876-5.02-3.78-.01-.01-.01-.02-.01-.03-.968 2.237-3.186 3.8-5.9 3.75-3.283-.048-5.55-1.66-6.683-4.24-3.546 5.237-11.088 5.022-13.91-.42-3.195 5.647-12.134 3.635-14.615-2.676-2.042 2.266-5.09 4.26-7.923 2.227-2.365-1.7-3.176-3.965-2.97-6.466-2.033 1.612-4.846 2.305-7.357 1.7-2.716-.645-3.927-2.794-2.735-4.972-12.006 4.71-27.334 3.136-34.29-7.62-.39-.606.538-1.338.997-.772l.078.078c.176-.48.625-.84 1.21-.635 6.068 2.178 13.2 2.15 19.53 1.504 3.594-.37 8.645-1.006 12.308-3.097-1.24-1.504-2.304-3.107-3.233-4.787-.02.02-.03.05-.05.068-5.352 4.72-12.933 5.696-19.654 3.567-5.295-1.67-12.035-5.373-13.462-11.254-.048-.04-.087-.068-.136-.107-.322-.264-.273-.664-.06-.948 0-.576.743-.957 1.095-.362.087.156.185.293.282.45 4.582 3.037 10.59 4.98 16.324 4.825.01-.01.01-.028.02-.038.195-.244.606-.215.84-.02 4.122-.273 8.06-1.66 11.156-4.59.088-.08.186-.128.283-.177-3.292-12.768-.694-27.773 3.82-39.203 6.086-15.396 18.825-31.857 37.366-29.336.528.078.743.537.714.996l.02.02c.195.02.37.147.43.322 1.778 1.397 3.116 3.126 4.64 4.806.527.567.293 1.426-.44 1.67-1.592.528-3.253.91-4.943.997 1.3 1.397 2.54 2.833 3.91 4.18.42.43.36 1.25-.206 1.535-1.534.772-3.146 1.397-4.767 1.944-.88.293-1.915.83-2.794.39-.03.07-.05.138-.078.206 1.788 1.456 3.33 3.224 5.207 4.562.684.498.606 1.514-.234 1.797-2.56.84-5.178 1.466-7.835 1.906-.03.068-.06.147-.078.215.127.08.264.177.38.333.362.488.734.957 1.095 1.436.957 1.28 1.944 2.53 2.92 3.79.402.507.343 1.376-.41 1.552-1.982.46-3.916 1.104-5.93 1.397 1.017 1.582 2.15 3.203 3.723 4.21.645.4.586 1.22 0 1.64-1.338.967-2.9 1.67-4.484 2.12-.45.117-.988.293-1.535.4 1.387 1.368 2.345 3.312 4.083 4.103.713.332.576 1.348 0 1.72-1.055.663-2.217 1.152-3.38 1.6-.567.216-1.182.52-1.807.695 1.183 1.64 2.52 3.136 4.21 4.298.636.43.636 1.27 0 1.7-1.28.88-4.678 2.432-6.114 1.23v.216c2.06 1.348 4.103 2.765 6.106 4.2.508.363.655 1.037.195 1.515-1.172 1.23-2.393 2.55-3.82 3.487-.166.117-.332.166-.498.166 1.533 2.276 3.877 2.784 6.75 2.17-1.3-1.466-1.476-3.87.653-4.934 1.338-.674 2.804-.9 4.21-.723 1.758-3.79 4.6-4.562 7.522-3.78-.04-.968.06-1.925.068-2.932 0-.556.47-1.044 1.036-1.035 2.344.03 4.913.234 7.19 1.006-.45-1.69-.822-3.4-1.25-5.098-.148-.596.282-1.162.898-1.172 2.13-.05 4.513-.654 6.594.06.03.01.05.028.078.048-1.27-1.7-2.227-3.605-3.058-5.56-.254-.614.03-1.357.78-1.357 2.316-.01 4.63.196 6.947.362-1.437-1.524-2.443-3.654-2.98-5.56-.167-.585.302-1.22.917-1.2 2.608.048 5.54.712 7.893 1.914.303-.127.674-.147.957.05 10.96 7.57 3.986 16.186-.293 25.584-2.814 6.184-3.488 14.956 3.663 18.55 6.242 3.147 13.843 2.21 20.114-.41 7.523-3.145 14.04-8.156 20.272-13.55.01-.35.313-.546.625-.546 4.894-4.26 9.622-8.714 14.556-12.65 10.892-8.705 22.205-17.018 34.465-23.7 11.537-6.29 23.807-11.078 36.497-13.813-.117-3.193-.127-6.378-.117-9.465.03-7.19-.39-15.992 1.964-23.006-1.036 0-2.07.01-3.107 0-.117.106-.254.194-.45.243-1.455.36-2.89.234-4.385.518-.547.108-1.182-.146-1.32-.75-.458-2.043-.468-3.91-.067-5.96.068-.362.44-.733.8-.8 3.42-.626 6.84-1.242 10.258-1.74-.01-.03-.02-.06-.02-.088-.478-8.4-.165-19.323 5.462-26.122.283-.332.88-.38 1.24-.156 8.04 5.05 6.097 17.223 5.872 25.37 3.83.01 7.66.36 11.508 1.24.527.128.83.626.86 1.134.264 3.996-5.344 5.207-9.105 5.773.117.157.205.343.215.577.45 10.033.977 20.476.606 30.743 4.718-.137 9.476.01 14.253.528 12.066 1.32 23.78 5.324 34.056 11.81 10.502 6.634 18.61 14.752 26.25 24.443 7.2 9.135 17.66 22.147 30.986 17.263 11.43-4.19 17.828-16.676 18.395-28.3.615-12.505-1.934-26.74-10.316-36.527-1.757-2.06-3.828-4.23-6.114-6.3-.088.01-.176.02-.264.02-.332-.03-.527-.392-.46-.655-6.71-5.88-15.19-10.823-23.474-10.07-1.3.116-1.24-1.838 0-1.994.078-.01.156-.01.234-.02.147-.215.37-.38.703-.4-3.116-4.133 6.096-9.487 8.704-5.032 2.002-1.954 5.724-.87 7.228 2.364 2.765-4.093 8.85-3.575 9.876 1.387 3.302-3.194 6.858-.44 7.747 3.976 1.652-2.07 4.065-3.74 6.595-2.422 2.99 1.553 2.97 4.728 2.07 7.532 1.232-1.612 3.47-2.354 5.55-1.387 3.097 1.436 3.83 4.328 3.39 7.24 1.397-.84 2.98-1.066 4.298.487 1.544 1.837 2.003 3.947 1.7 6.037 1.182-.635 2.49-.674 3.83.567 2.01 1.856 1.21 5.05-.02 7.532 2.177-.567 4.56-.46 5.176 2.13.712 3.02-.695 5.705-2.883 7.59 6.565-1.28 8.753 6.194 5.03 10.365 4.993 1.076 5.266 7.64 1.095 10.434 4.804 2.254 3.73 9.337-1.37 11.418zm-2.257-12.075c5.588-.79 6.926-9.134-.01-7.923-.313.05-.596-.068-.82-.244.43 2.706.713 5.432.83 8.167zm-.517 10.658c5.988-.225 8.02-8.773.742-8.792-.06 0-.117-.02-.176-.04.04 2.96-.146 5.91-.566 8.832zm-.225-20.34c4.61-2.226 4.464-9.914-1.71-8.498-.293.06-.537 0-.733-.127.88 2.892 1.602 5.852 2.14 8.85.078-.087.176-.155.303-.224zm-2.296 30.52c6.457.458 8.704-5.677 2.188-8.14-.498 2.757-1.22 5.472-2.188 8.14zm-.85-41.343c2.794-3.517 3.85-9.827-2.55-6.633.674 1.503 1.29 3.037 1.856 4.6.245.674.47 1.358.694 2.032zm-2.97 50.81c6.43 2.207 9.614-6.068 3.04-7.445-1.105 2.686-2.375 5.217-3.82 7.59.204-.166.488-.254.78-.146zm2.2-12.71c3.77-13.55 2.344-27.91-3-40.855-4.728-11.488-12.026-21.667-23.64-26.904-4.944-2.237-10.112-3.575-15.387-4.445 5.822 2.12 10.775 6.848 14.595 11.527 5.9 7.23 10.912 15.503 13.413 24.56.772 2.783 1.387 5.714 1.827 8.703.117.137.195.303.215.48.03.204 0 .4-.06.605.48 3.614.675 7.307.52 10.93.01.06.01.118.01.187l-.03.137c-.654 12.807-5.812 24.794-19.02 29.932-8.89 3.457-19.264 4.317-28.27.712-9.33-3.732-17.145-10.17-24.765-16.568-10.492-8.802-21.296-17.496-33.556-22.302-.226.02-.47-.06-.626-.234-7.15-2.716-14.79-4.103-23.143-3.41.275.528.52 1.095.685 1.71.332 1.232-1.407 1.632-1.856.51-1.652-4.133-6.615-5.59-8.353-.47-.156.47-.498.684-.977.742-1.983.225-2.872 0-4.67 1.64-.48.43-1.21.362-1.553-.204-2.618-4.26-7.835-2.55-9.33 1.612-.253.723-1.288.44-1.132-.313.107-.537.273-1.026.47-1.495-.07.05-.157.078-.255.088-.215.02-.37-.098-.46-.264-23.454 1.67-42.308 17.398-60.948 30.118-14.43 9.837-32.93 18.854-51.072 18.942-.37.03-.742.078-1.114.088-2.54.127-5.295-.127-7.893-.84-.293-.05-.586-.098-.88-.147-.126-.03-.214-.108-.263-.205-1.407-.47-2.755-1.075-3.966-1.866-5.86 4.943-13.47 7.97-20.925 4.484-7.562-3.546-12.808-10.726-15.31-18.55-4.17 1.875-9.563 2.392-11.986-2.355-2.706-5.295-2.208-11.996-1.485-17.7.947-7.533 2.637-14.977 5.333-22.09 2.237-5.86 4.875-11.8 5.998-18.003.52-2.872.86-6.535 3.078-8.626-18.326-1.23-30.333 14.986-35.578 30.88-4.982 15.113-6.73 34.69 2.51 48.63 1.925-1.27 3.37-3 3.84-5.412.04-.195.186-.313.36-.352.138-.186.343-.313.636-.303 3.41.117 7.444 2.413 8.304 5.89.127.52-.098.91-.45 1.115-.028.06-.058.127-.106.195-1.514 2.198-3.468 4.152-5.715 5.813 6.78 5.988 16.675 7.63 25.398 8.352 8.812.733 17.623.567 26.454.664 16.236.156 32.423-.342 48.56.44 1.33-2.91 2.756-5.734 4.27-8.42.46-.812 1.856-.265 1.524.644-5.138 13.98-11.82 27.1-12.133 42.173 1.32-2.345 2.325-4.855 3.74-7.18.362-.596 1.466-.576 1.593.205.195 1.123.498 2.188.752 3.273 4.22-3.574 8.245-7.404 12.035-11.438 1.143-1.22 2.54-2.706 4.044-4.396 3.146-7.258 4.19-14.888 2.53-22.635-.186-.888 1.065-1.513 1.514-.644 1.036 1.973 1.535 4.367 1.613 6.907 1.172-.098 2.354-.117 3.517-.244.82-.08 1.63-.294 2.442-.275 2.198-5.353 2.51-10.677-1.24-14.966-.46-.538-.304-1.193.087-1.574-.118-.85 1.083-1.71 1.972-.977 1.69 1.396 3.107 3.027 4.27 4.825 2.93 3 6.075 5.686 10.012 7.55 5.09 2.414 10.55 3.772 16.1 4.68 9.748 1.602 19.81 2.247 28.974 6.223.36.166.518.48.537.81 4.6-.35 9.378.372 14.038 0 5.09-.4 10.16-1.083 15.26-1.396 8.176-.508 16.626.742 24.5-1.993-1.124-1.232-1.945-2.795-2.316-4.768-1.456-7.678 4.074-16.01 12.377-15.366.938.068.928 1.368 0 1.446-12.104 1.036-14.536 18.307-1.485 20.417 10.208 1.66 20.23-2.355 30.43-2.2 4.542.07 9.358.51 13.207 3.205 4.23 2.95 8.333 8.743 14.087 7.327 7.405-1.817 13.9-6.32 20.24-10.53-1.464.058-2.92.263-4.424.546-.752.137-1.592-.655-1.084-1.417.47-.683.938-1.357 1.416-2.01-1.26.233-2.52.507-3.75.986-.86.342-1.427-.742-1.085-1.417.576-1.154 1.153-2.316 1.73-3.47-1.124.42-2.258.822-3.342 1.378-.977.508-1.944-.713-1.172-1.524 1.397-1.26 2.335-2.813 2.833-4.66-5.734 2.276-9.417 6.487-12.006 12.21-.293.646-1.163.607-1.612.206-10.09-8.743-22.635-12.807-35.91-12.338-1.417.05-1.378-2.06 0-2.17 13.207-1.025 26.18 3.772 36.28 12.154 3.06-6.115 7.562-10.375 14.254-12.495.615-.194 1.23.323 1.24.94.02 1.806-.478 3.223-1.29 4.522.773-.283 1.535-.586 2.267-.967.878-.46 1.767.46 1.327 1.33-.635 1.26-1.27 2.53-1.905 3.79 1.387-.333 2.804-.53 4.23-.812.89-.176 1.475.723 1.036 1.446 12.974-7.485 23.896-17.772 28.038-32.69zm-1.242-49.598c1.104-2.91-.254-3.536-4.064-1.876.93 1.534 1.8 3.116 2.6 4.748.625-.87 1.123-1.827 1.465-2.872zm-3.263 70.483c3.126-.586 3.595-2.794 1.397-6.614-.245-.225-.304-.537-.245-.82-1.602 2.56-3.4 4.932-5.373 7.15 1.348.51 2.755.616 4.22.284zm-1.143-77.31c.292-2.805-1.378-3.576-4.983-2.365 1.495 1.71 2.872 3.527 4.132 5.432.488-.93.78-1.945.85-3.068zm-6.185 84.52c2.706-.88 3.33-2.872 1.876-5.998-.02-.03-.028-.06-.048-.09-1.758 1.857-3.634 3.606-5.637 5.257 1.056.8 2.326 1.074 3.81.83zm-.38-88.614c.8-2.393 1.24-5.637-1.457-6.868-2.13-.987-3.38.088-4.396 1.73 2.1 1.552 4.065 3.272 5.852 5.138zm-1.407 45.357c.147-3.058.03-6.106-.273-9.017-.635.47-1.29.85-1.74 1.094-.75.42-1.992 1.192-2.96 1.026-.087 2.882-.4 5.734-.986 8.51.38.058.995-.03 1.27-.04.722-.03 1.425-.137 2.12-.342.75-.214 1.503-.478 2.158-.927.146-.098.283-.196.41-.303zm-.723-11.176c.06-.06.098-.117.156-.176-.126-.88-.273-1.75-.43-2.59-.33-1.767-.76-3.506-1.24-5.235-.195.195-.38.38-.557.527-.84.684-1.846 1.045-2.892 1.172.49 3.038.734 6.145.724 9.24.723-.517 1.72-.888 2.364-1.347.656-.468 1.32-.995 1.877-1.59zm-.547 20.183c.547-2.16.89-4.406 1.104-6.662-.79.352-1.63.576-2.286.674-1.358.214-2.647.34-3.722-.372-.606 2.598-1.456 5.11-2.58 7.483.783.333 1.545 1.056 2.414 1.056 1.72-.01 3.458-.928 4.758-2.012.107-.08.214-.128.312-.167zm-9.466 43.247c5.324 1.29 10.844-3.136 7.063-8.5-2.735 2.12-5.656 4.075-8.743 5.892.694 0 1.387.03 2.1.107.987.117 1.358 1.26.498 1.856-.303.214-.616.43-.918.644zm7.11-72.417c.304-.332.52-.78.753-1.21-.655-2.1-1.426-4.153-2.296-6.165-.48.528-1.056.997-1.486 1.29-.225.166-.46.303-.703.43-.038.02-.146.06-.253.088.674 2.198 1.23 4.464 1.66 6.79.88-.168 1.71-.51 2.326-1.223zm1.574 31.866c-.967.723-2.05 1.23-3.37 1.31-.91.048-1.885-.02-2.716-.44-.352-.187-.684-.362-.997-.626-.02-.01-.186-.176-.352-.352-.81 1.534-1.738 3.01-2.803 4.396-.79 1.036-1.65 2.052-2.56 3.02.89 1.016 1.955 2.032 3.235 2.452 1.24.41 2.257-.01 3.468.166.068.01.117.03.176.06.606-.616 1.192-1.25 1.73-1.935 1.836-2.365 3.204-5.11 4.19-8.05zm-4.386-40.346c.156-.215.313-.45.488-.674-1.055-2.257-2.247-4.445-3.556-6.584-.07.087-.137.175-.196.263-.4.498-.87.91-1.377 1.27.44.85.85 1.7 1.24 2.59.684 1.552 1.29 3.193 1.846 4.884.147-.176.303-.352.45-.498.38-.413.762-.813 1.104-1.253zm-.342-23.455c.615-2.325 1.25-7.063-2.403-6.584-1.954.244-3.116 1.592-4.015 3.136 1.202.527 2.384 1.084 3.536 1.71.997.536 1.944 1.132 2.882 1.738zm-4.034 15.59c.156-.263.274-.575.38-.888-.536-.83-1.093-1.65-1.68-2.452-.84-1.163-1.728-2.354-2.676-3.546-.137.293-.293.557-.43.752-.215.283-.45.527-.703.742 1.583 2.012 3 4.152 4.25 6.438.33-.312.624-.654.86-1.045zm.595 60.197c-.763-.08-1.525-.314-2.092-.587-1.465-.703-2.6-1.797-3.488-3.116-2.305 2.276-4.924 4.24-7.854 5.53.498 1.484 1.65 2.46 3.33 2.803.245.05.402.176.52.332 3.478-1.123 6.76-2.745 9.583-4.963zm-5.754-68.295c0-.078.01-.147.02-.215-1.456-1.74-3.038-3.44-4.738-4.972-.322.567-.772 1.084-1.3 1.495 1.886 1.69 3.645 3.487 5.237 5.402.166-.186.322-.38.44-.606.174-.343.32-.715.34-1.105zm.322-11.938c-.37-3.722-3.165-7.16-6.066-2.13-.05.078-.107.147-.176.205 2.12.528 4.2 1.163 6.242 1.925zm-7.366 7.346c.46-.45.8-1.026 1.104-1.65-3.165-2.6-6.71-4.563-10.687-5.17 2.695 1.564 5.235 3.39 7.55 5.17.694.537 1.368 1.084 2.032 1.65zm-.45-9.954c.783-6.36-6.095-6.576-7.394-.91 2.5.283 4.972.684 7.415 1.22-.03-.096-.04-.194-.02-.31zm.89 88.584c-1.192-.79-2.012-2.012-2.335-3.42-1.417.52-2.9.89-4.445 1.046-1.788.186-3.507.117-5.178-.107-.283.313-.586.606-.703 1.075-.214.87-.048 1.67.284 2.48.03.07.03.128.04.187.937.06 1.884.088 2.842.05 3.107-.12 6.34-.54 9.496-1.31zm-10.18-89.7c-.097-3.955-4.55-6.34-5.343-2.666.01.528-.03 1.124-.11 1.778v.05h-.01c-.01.087-.01.155-.02.243-.02.106-.058.175-.097.253 1.867.07 3.723.176 5.58.342zm-4.16 87.54c.077-.243.185-.487.302-.712-2.677-.645-5.197-1.758-7.55-3.243-.792.4-1.613.77-2.258 1.406-.733.703-1.23 1.553-1.63 2.48 3.643 1.7 7.433 2.893 11.39 3.352-.43-1.037-.636-2.21-.255-3.283zm-8.774-87.9c1.915-.05 3.86-.068 5.803-.02-.087-.137-.165-.283-.175-.46-.05-.74-.01-1.396.088-1.982-.576-4.836-7.864-1.778-5.803 2.07.07.138.088.265.088.392zm-2.97 87.54c.187-1.896 1.242-3.635 2.775-4.76-1.612-1.17-3.136-2.51-4.562-3.955-.995-1.017-1.943-2.062-2.87-3.127-.382.147-.792.225-1.154.43-.576.342-1.114.742-1.583 1.23-.977 1.007-1.778 2.16-2.276 3.48-.088.233-.254.39-.44.487 3.254 2.374 6.614 4.513 10.112 6.213zm-8.48-11.753c.636-.624 1.486-1.396 2.414-1.767-2.51-3.038-4.855-6.223-7.317-9.3-.078.078-.166.147-.283.195-3.644 1.465-6.233 3.693-7.424 7.463 3.155 2.736 6.4 5.49 9.75 8.03.01-.01 0-.02.01-.038.575-1.7 1.542-3.32 2.85-4.58zM415.205 413c-1.817-2.198-3.712-4.328-5.793-6.262-1.2-1.114-2.43-2.198-3.682-3.263-.967.586-2.05.987-3 1.67-1.337.958-2.598 2.033-3.897 3.06-.986.78-1.972 1.63-3.066 2.256-.303.175-.557.263-.79.32.78.568 1.552 1.154 2.324 1.74 3.32 2.55 6.71 5.53 10.21 8.567.574-3.85 4.267-6.683 7.696-8.09zm-16.275-7.483c1.337-1.123 3.135-2.843 4.99-3.566-4.815-3.948-9.973-7.513-15.483-10.415-1.036.586-2.315.625-3.44 1.016-1.337.46-2.656 1.007-3.848 1.77-2.326 1.484-4.143 3.35-5.11 5.83 6.233 2.355 12.143 5.794 17.76 9.79.04-.08.088-.148.156-.216.48-.48 1.104-.86 1.622-1.3 1.123-.965 2.217-1.962 3.35-2.91zM385.4 390.02c-.83-.39-1.652-.78-2.492-1.142-6.75-2.852-13.823-4.7-21.042-5.676-3.546 3.82-5.168 8.304-4.494 13.56 5.9-.118 11.566.927 17.008 2.803.635-2.58 2.384-4.748 4.61-6.32 1.544-1.094 4.064-2.657 6.41-3.224zm-1.652 75.75c.01-.05.04-.08.068-.118-1.33-.41-2.55-.957-3.624-1.69-2.432 1.407-5.13 2.13-7.942 2.49.05.08.088.167.117.265 1.514 7.053 9.378 4.18 11.38-.948zm-13.276.947c.01-.03.03-.05.04-.088-3.4.273-6.937.106-10.346.038.264.137.47.4.498.8.43 7.347 8.733 4.856 9.808-.75zm-11.205-.068c-1.827-.03-3.605-.03-5.314.097-2.99.225-5.98.547-8.958.84.234.107.43.303.527.596 2.06 6.555 12.7 6.965 13.208-.713.03-.42.253-.685.537-.82zm-3.273-69.84c-1.475-4.894.06-10.12 3.35-13.91-4.22-.45-8.47-.616-12.728-.5-.215 4.24-.606 8.44-1.23 12.564 2.03-.04 3.8.91 5.02 2.472 1.886-.323 3.752-.528 5.588-.626zm-3.76-52.8c.878-.93-1.378-.607-2.267-.734-2.276-.342-4.572-.586-6.877-.567-4.7.02-9.35.458-13.99 1.24-3.594.596-8.45.234-8.068 4.63 1.084-.088 2.178-.078 3.224-.322.293-.068.557-.01.762.117 7.278-.996 14.75-.654 21.94-2.325 1.63-.38 4.073-.75 5.275-2.04zm-8.55 36.125c.128-10.287.48-20.593.284-30.87 0-.117.03-.215.06-.313-.06.01-.138.02-.196.03-2.345.35-4.718.585-7.092.74.83 8.705.01 17.556-.205 26.27-.186 7.874.166 15.59.8 23.416.06-.03.108-.06.177-.078.664-.225 2.218.293 2.52-.625.488-1.436 1.866-2.94 3.33-3.41.138-.038.265-.067.402-.106v-.01c-.127-4.21-.137-8.44-.098-12.662-.088.01-.176.01-.264.01.02-.79.03-1.592.02-2.384.087-.01.175-.01.263-.01zm-.097 88.047c.068-.225.186-.38.342-.498-2.277.215-4.544.41-6.82.518-1.23.068-2.55.156-3.908.215.107.147.186.313.195.518.44 7.54 8.706 4.444 10.19-.753zm-2.96-127.62c.088-6.575 2.286-17.966-3.448-22.626-2.2-1.788-4.592 11.772-4.72 12.905-.38 3.49-.536 6.986-.76 10.483 2.968-.39 5.948-.674 8.927-.762zm-5.206 60c.187-.156.372-.293.558-.43-1.456-7.893-1.26-16.158-1.036-24.14.235-8.723.36-17.495.83-26.22-1.885.118-3.77.187-5.656.226-.47 8.235-1.856 16.246-1.71 24.588.137 7.942 1.123 15.757 1.68 23.66 1.896-.107 3.86.626 5.335 2.316zm-4.093 68.09c.02-.08.06-.128.088-.196-2.217 0-4.435-.176-6.4-.89-1.083 1.505-2.236 2.95-3.457 4.348-.42.89-.78 1.837-1.104 2.823 5.12 2.657 9.672-.89 10.873-6.086zm-2.803-70.122c-1.114-4.396-1.65-9.036-1.905-13.686-1.74.38-3.46.8-5.18 1.25.07.156.09.332.04.527-1.29 4.925 1.514 9.79 4.123 13.834.8-.918 1.807-1.582 2.92-1.924zm-8.734 71.948c.147-.303.303-.596.46-.88-17.585 6.546-34.77 13.15-53.847 13.746-.89.03-1.573-1.075-1.055-1.837 6.145-9.007 7.962-23.826 1.846-33.517 2.17 7.678-3.136 16.724-7.62 22.84-3.976 5.422-8.45 10.482-13.247 15.2-4.132 4.064-9.036 7.542-12.954 11.772-3.39 3.663-5.256 7.766-2.706 12.514 2.276 4.22 5.402 8.06 8.82 11.39 7.103 6.956 15.592 12.26 24.95 15.63 16.638 6.01 34.33 5.423 51.014.44-25.994 2.082-51.12-6.925-69.36-26.55-.77-.822-.01-2.062 1.066-1.828 25.458 5.402 51.697 8.04 75.074-4.503-13.53 1.73-26.972 3.732-40.678 3.458-8.92-.176-20.075-.938-26.23-8.313-.508-.615-.4-1.358.235-1.817 10.013-7.375 22.83-5.627 34.19-9.007 11.58-3.43 22.15-9.672 30.043-18.738zm3.42-70.473c-2.678-3.712-5.53-9.232-3.694-13.384-5.568 1.564-11.01 3.518-16.197 5.843-1.652.733-3.283 1.504-4.895 2.296.108.966-.225 1.884-.117 2.87.117.997.36 1.974.742 2.893.664 1.64 1.534 3.175 2.52 4.64 6.947-2.95 14.166-4.914 21.64-5.158zm-.352 134.753c-10.248-4.377-5.08-19.83 1.114-28.27-22.947 12.64-48.698 10.803-73.824 5.763 19.362 19.137 45.874 26.923 72.71 22.508zm2.657-32.51c-8.362-3.742-10.042-16.677-7.59-26.504-6.643 6.418-14.712 11.342-23.494 14.36-11.75 4.035-25.896 2.354-36.515 9.3 6.877 6.936 19.245 6.887 28.31 6.594 13.236-.43 26.17-2.17 39.29-3.75zm-56.855-21.464c18.727-1.045 35.793-7.766 53.23-14.214-15.424-5.598-36.965-3.644-50.104-14.165 2.98 9.134 1.406 20.36-3.126 28.38zm31.27-74.918c-1.514-1.74-2.784-3.8-3.35-6.047-.294-1.173-.597-2.688-.343-3.977-6.848 3.497-13.364 7.463-19.675 11.752.342 2.022 1.26 3.868 2.735 5.334.89.888 2.59 1.59 3.224 2.695 5.57-3.634 11.383-7.043 17.41-9.76zm-19.08 10.863c-1.415-.568-2.87-2.297-3.623-3.195-1.163-1.397-1.934-3.097-2.218-4.875-5.51 3.81-10.864 7.864-16.13 12.055.646 1.69 1.505 3.43 2.844 4.66.674.625 1.475 1.22 2.384 1.436.645.157 1.27.07 1.846.323.615-.43 1.22-.86 1.837-1.29 4.18-2.98 8.548-6.105 13.06-9.114zm-17.895 44.722c-.498.05-.996.068-1.456.078-1.173.03-2.355.03-3.528-.068-.127 3.673-1.016 7.532-2.325 10.844 2.706-3.313 5.403-7.054 7.308-10.854zm.664-32.697c-1.154-.37-2.297-1.143-2.922-1.75-1.504-1.464-2.53-3.3-3.048-5.313-5.236 4.19-10.384 8.51-15.533 12.846.498 1.104 1.25 2.07 2.208 2.843.655.52 1.348.997 2.11 1.35.166.077.322.146.48.204 5.782-3.01 11.282-6.467 16.704-10.18zm-18.875 11.283c-.9-.586-1.73-1.348-2.237-1.944-.684-.79-1.192-1.65-1.563-2.56-.38.322-.772.645-1.153.977-4.61 3.9-9.69 7.894-15.23 10.747 4.27-.928 8.49-2.188 12.65-3.85 2.58-1.024 5.08-2.158 7.533-3.37zm-10.013 53.26c-.127-.635-.274-1.27-.43-1.895-.733 1.426-1.397 2.882-2.14 4.298.82-.83 1.69-1.63 2.57-2.402zm-1.553-23.787c.74-2.09 1.552-4.15 2.412-6.163-2.1-.068-4.2-.107-6.31-.147.048.117.087.225.097.362.194 2.803 1.347 4.767 3.8 5.95zm-5.95-5.948c.02-.147.068-.283.127-.4-2.628-.03-5.265-.03-7.903-.01-.967.01-1.934.01-2.91.02.058.116.106.243.126.39.8 6.555 9.74 6.447 10.56 0zm-12.69 0c0-.147.03-.274.068-.39-3.556.02-7.122.038-10.687.038.01.02.02.04.03.068 1.163 6.506 10.56 8.333 10.59.284zm-12.68-.284c.01-.03.02-.05.03-.068-3.47-.01-6.947-.01-10.424-.02 1.143 1.583 1.28 3.79 3.32 4.845 4.104 2.13 6.37-1.084 7.074-4.757zm-7.425-35.764c2.188-4.425 6.907-10.19 6.31-15.376-.106-.948-3.174-8.245-4.942-6.4-1.006 1.046-1.993 2.11-2.92 3.235-2.15 2.608-4.172 5.305-6.224 7.98-2.932 3.83-6.067 7.337-9.907 10.24.918.85 1.758 1.757 2.432 2.656 2.628 3.477 3.79 7.795 6.32 11.32 2.238 3.108 5.628 4.036 9.174 4.485-1.125-1.397-1.945-3.087-2.297-5.11-.8-4.532.01-8.928 2.052-13.03zm-3.145-19.958c.89-1.055 1.817-2.07 2.765-3.067-1.65-.51-3.234-1.115-4.943-1.388.556 1.563 1.318 3.018 2.178 4.454zm-1.76 55.634c-1.933-.01-3.867-.01-5.802-.01-1.436 0-2.882.01-4.318 0 .05.117.088.244.107.38.703 5.99 10.052 6.996 9.603.49-.028-.42.157-.694.41-.86zm5.472-15.483c-4.992-.625-9.407-2.012-12.084-6.858-1.934-3.508-3.273-7.61-6.018-10.59-3.126-3.4-8.782-7.952-11.908-2.423.772.332 1.495.79 2.14 1.397 2.568 2.393 3.82 5.54 5.128 8.714 2.12 5.13 4.28 7.903 9.857 9.212.908.215.654 1.514-.215 1.573-4.953.303-8.49-3.282-10.375-7.522-1.094-2.46-1.915-5.108-3.282-7.433-.674-1.153-1.397-2.345-2.462-3.194-2.423-1.944-7.024-2.15-6.613 2.11.78-.234 1.592-.518 2.442-.88.88-.37 1.504.792 1.123 1.496 2.765 6.31 6.467 13.03 12.72 16.48 6.955 3.827 13.646 2.38 19.547-2.083zm-8.812-33.723c1.084-1.416 2.17-2.823 3.273-4.21-1.74-.078-3.478-.313-5.217-.43.625 1.553 1.27 3.097 1.944 4.64zm-1.63 2.11c-1.672-.137-3.283-.05-4.925.01.36 1.612.645 3.243.84 4.875 1.427-1.564 2.765-3.215 4.084-4.886zm-7.074 47.194c.01-.04.04-.068.05-.108-4.045-.02-8.09-.088-12.124-.332 1.006 7.356 10.003 7.054 12.074.44zm-2.217-37.337c1.26-.995 2.422-2.08 3.535-3.203-2.08-.527-4.083-.977-6.242-1.104-.107.85-.235 1.7-.166 2.55.986.47 1.963 1.065 2.872 1.758zm-8.627-56.278c-.87-1.27-1.866-2.472-2.98-3.536-.77 1.426-1.18 2.892-1.494 4.386.165-.166.39-.283.683-.293 1.298-.07 2.55-.255 3.79-.558zm-4.71 8.226c1.066-.362 2.15-.723 3.205-1.143-1.202-1.397-2.345-2.96-3.282-4.523-.264 1.524-.528 3.077-1.026 4.63-.166.527-.352 1.045-.528 1.573.51-.215 1.065-.342 1.632-.537zm.714 7.463c-1.094-1.298-2.305-2.49-3.41-3.78-.556 1.66-1.122 3.312-1.7 4.963 1.72-.332 3.42-.713 5.11-1.182zm-11.46 75.76c.792 6.427 11.08 9.446 12.066 1.582-2.384-.186-4.757-.43-7.122-.78-1.63-.245-3.29-.53-4.952-.87 0 .028.01.048.01.067zm7.64-66.537c-.996-1.338-2.042-2.774-2.647-4.28-.274.773-.547 1.545-.83 2.316-.36.966-.703 1.953-1.035 2.93 1.523-.185 3.008-.605 4.512-.967zm-5.392 8.948c1.065-.32 2.08-.702 3.048-1.23-1.202-1.33-2.16-2.784-2.92-4.406-.607 1.954-1.154 3.917-1.632 5.89.518-.086 1.065-.126 1.505-.253zm-1.28 7.963c.81-.303 1.622-.625 2.393-1.006-1.026-1.377-2.08-2.774-3.204-4.044-.264 1.22-.518 2.452-.723 3.683-.106.655-.214 1.328-.32 2.003.585-.285 1.28-.432 1.855-.637zm-.352 7.845c.537-.127 1.036-.293 1.524-.498-1.338-1.348-2.53-2.93-3.34-4.63-.265 1.885-.46 3.8-.538 5.705.634-.538 1.513-.372 2.353-.577zm-.908 9.554c.997-.655 1.856-1.534 2.706-2.393-1.406-1.144-2.783-2.355-4.15-3.567.067 1.456.234 2.882.536 4.28.166.732.37 1.386.596 1.982.08-.118.176-.215.313-.303zm-10.668 28.75c-.127 5.774 4.992 8.987 9.007 2.98-3.067-.742-6.076-1.75-8.773-3.273-.067.096-.154.194-.233.292zm-.283-12.7c.06-.078.117-.137.186-.195-1.075-2.354-3.575-3.507-5.988-4.19.088 2.12-.703 3.858-2.1 5.294 1.163 1.25 2.726 2.11 4.435 2.326.166.02.313.078.43.166 1.122-1.036 2.138-2.17 3.037-3.4zm-6.858 14.038c2.247-.098 4.298-.938 5.568-2.784-1.348-.948-2.59-2.042-3.683-3.34-.048-.06-.067-.108-.097-.167-1.504.995-3.126 1.875-4.836 2.627 0 .05-.01.098-.04.156-1.297 2.5.754 3.605 3.09 3.507zm2.022-9.134c-.537-.137-1.075-.4-1.475-.645-1.055-.624-1.944-1.435-2.647-2.392-1.328 1.016-3 1.837-4.894 2.5.254.773.547 1.554 1.006 2.21.47.673 1.065.732 1.66 1.2.226.166.284.42.245.674 2.188-.947 4.26-2.13 6.105-3.546zm-7.873 4.25c-.606-.255-1.143-.792-1.446-1.31-.548-.957-.822-2.003-.978-3.067-1.827.536-3.84.927-5.92 1.2-.04 1.076.03 2.17.254 3.215.127.586.38 1.143.45 1.74 2.617-.304 5.196-.89 7.64-1.78zm-2.98-14.478c.147-.117.313-.147.47-.147-.9-1.767-1.632-3.623-2.228-5.528-1.192 1.24-2.56 2.208-4.054 2.96.156.674.244 1.368.586 1.993.517.938 1.19 1.64 2.177 2.07.186.08.283.196.332.333.947-.46 1.855-1.006 2.715-1.68zm-4.445 2.393c-.997-.42-1.817-1.25-2.354-2.197-.342-.606-.674-1.358-.83-2.12-1.778.655-3.693 1.006-5.656 1.123.03.625.04 1.26.234 1.856.274.85.88 1.964 1.778 2.374 2.335.03 4.65-.273 6.828-1.035zm-2.08 14.02c-.157-.44-.206-.948-.236-1.368-.107-1.22-.04-2.413.215-3.595-2.59.274-5.247.37-7.816.303-.37.625-.84 1.2-.87 1.973-.028.89.314 1.553.85 2.198 2.56.48 5.218.646 7.855.49zm-7.064-13.13c-.274-.264-.518-.586-.723-.987-.44-.84-.82-1.973-.86-3.058-1.534-.02-3.087-.195-4.62-.49-.148.323-.294.646-.343.988-.098.664-.02 1.504.37 2.08.05.06.06.118.05.167.528.186 1.065.352 1.63.488 1.468.382 2.973.656 4.496.812zm-3.39 10.443c.03-.664.206-1.407.52-2.05-4.25-.245-8.05-.9-10.503-1.828 2.892 2.687 6.467 4.523 10.345 5.568-.254-.517-.4-1.094-.36-1.69zm-4.376-14.155c.03-.352.068-.742.156-1.114-2.638-.635-5.197-1.602-7.454-2.843 2.13 2.61 4.66 4.63 7.874 5.95-.41-.566-.625-1.24-.576-1.992z" fill="#1d1d1b"/><path d="M496.716 400.015c6.936-1.21 5.598 7.13.01 7.923-.117-2.735-.4-5.46-.83-8.167.224.176.507.294.82.245z" fill="#67c5ee"/><path d="M496.95 409.803c7.278.02 5.246 8.567-.742 8.792.42-2.92.606-5.87.567-8.83.058.02.117.038.175.038z" fill="#67c5ee"/><path d="M494.273 389.757c6.174-1.416 6.32 6.272 1.71 8.5-.127.067-.225.136-.303.224-.537-2.998-1.26-5.958-2.14-8.85.196.127.44.186.733.127z" fill="#67c5ee"/><path d="M495.876 420.637c6.516 2.462 4.27 8.597-2.188 8.138.966-2.668 1.69-5.383 2.188-8.138z" fill="#67c5ee"/><path d="M490.288 380.8c6.4-3.195 5.344 3.115 2.55 6.632-.225-.674-.45-1.358-.694-2.032-.567-1.563-1.182-3.096-1.856-4.6z" fill="#67c5ee"/><path d="M492.906 430.797c6.575 1.377 3.39 9.652-3.038 7.444-.293-.106-.576-.02-.78.148 1.444-2.375 2.714-4.905 3.818-7.59z" fill="#67c5ee"/><path d="M489.067 384.677c5.344 12.944 6.77 27.304 3 40.854-4.143 14.918-15.065 25.205-28.038 32.688.44-.723-.148-1.622-1.037-1.446-1.426.283-2.843.48-4.23.81.635-1.26 1.27-2.53 1.905-3.79.44-.87-.45-1.787-1.328-1.328-.733.38-1.495.684-2.266.967.81-1.298 1.31-2.715 1.29-4.522-.01-.615-.625-1.133-1.24-.938-6.693 2.12-11.196 6.38-14.254 12.495-10.1-8.382-23.074-13.178-36.282-12.153-1.377.108-1.416 2.218 0 2.17 13.276-.47 25.82 3.594 35.91 12.337.45.4 1.32.44 1.613-.206 2.59-5.725 6.273-9.935 12.007-12.21-.498 1.845-1.436 3.4-2.833 4.66-.772.81.195 2.03 1.172 1.523 1.084-.557 2.218-.957 3.34-1.377-.575 1.153-1.152 2.315-1.728 3.468-.342.674.225 1.758 1.084 1.417 1.23-.48 2.49-.752 3.75-.987-.478.654-.947 1.328-1.415 2.012-.508.762.332 1.553 1.084 1.417 1.505-.283 2.96-.488 4.426-.547-6.34 4.21-12.836 8.714-20.24 10.53-5.755 1.418-9.858-4.375-14.088-7.326-3.85-2.696-8.665-3.136-13.208-3.204-10.2-.156-20.222 3.86-30.43 2.198-13.05-2.11-10.62-19.382 1.485-20.417.928-.077.938-1.376 0-1.445-8.304-.645-13.833 7.688-12.377 15.366.37 1.974 1.192 3.537 2.315 4.768-7.874 2.735-16.324 1.485-24.5 1.993-5.1.314-10.17.997-15.26 1.398-4.66.37-9.436-.352-14.037 0-.02-.332-.176-.645-.537-.81-9.164-3.977-19.226-4.622-28.976-6.224-5.55-.91-11.01-2.266-16.1-4.68-3.936-1.865-7.08-4.55-10.012-7.55-1.163-1.798-2.58-3.43-4.27-4.826-.888-.733-2.09.127-1.972.977-.39.38-.547 1.036-.088 1.573 3.75 4.29 3.44 9.613 1.24 14.966-.81-.02-1.62.195-2.44.274-1.163.127-2.346.147-3.518.244-.078-2.54-.576-4.933-1.612-6.907-.45-.87-1.7-.244-1.514.645 1.66 7.747.615 15.376-2.53 22.635-1.504 1.69-2.9 3.175-4.044 4.396-3.79 4.036-7.815 7.865-12.035 11.44-.255-1.084-.558-2.15-.753-3.273-.127-.78-1.23-.8-1.592-.205-1.416 2.325-2.423 4.836-3.74 7.18.312-15.073 6.994-28.193 12.132-42.173.332-.91-1.065-1.457-1.524-.646-1.514 2.686-2.94 5.51-4.27 8.42-16.137-.78-32.324-.282-48.56-.44-8.83-.097-17.643.07-26.454-.663-8.725-.722-18.62-2.363-25.4-8.35 2.247-1.662 4.2-3.615 5.715-5.814.05-.068.078-.137.107-.195.352-.204.576-.595.45-1.113-.86-3.478-4.895-5.773-8.305-5.89-.293-.01-.498.116-.635.302-.176.038-.322.155-.36.35-.47 2.414-1.916 4.143-3.84 5.413-9.24-13.94-7.493-33.517-2.51-48.63 5.245-15.894 17.25-32.11 35.577-30.88-2.218 2.09-2.56 5.754-3.078 8.626-1.123 6.202-3.76 12.142-5.998 18.003-2.696 7.112-4.386 14.556-5.334 22.088-.723 5.706-1.22 12.408 1.485 17.702 2.423 4.748 7.815 4.23 11.987 2.354 2.5 7.825 7.747 15.005 15.308 18.55 7.454 3.49 15.064.46 20.925-4.483 1.21.79 2.56 1.397 3.966 1.866.05.097.138.175.265.204.293.05.586.098.88.147 2.598.714 5.352.968 7.892.84.37-.01.742-.058 1.114-.087 18.142-.088 36.644-9.105 51.073-18.942 18.64-12.718 37.493-28.446 60.95-30.117.087.166.243.283.458.264.1-.01.187-.04.255-.088-.195.468-.36.956-.47 1.494-.155.752.88 1.036 1.134.313 1.494-4.162 6.71-5.87 9.328-1.612.342.567 1.075.635 1.553.205 1.8-1.64 2.687-1.417 4.67-1.64.48-.06.822-.275.978-.743 1.74-5.12 6.702-3.663 8.352.47.45 1.122 2.188.722 1.856-.51-.166-.614-.41-1.18-.684-1.71 8.352-.693 15.992.695 23.143 3.41.156.176.4.254.625.234 12.26 4.807 23.064 13.502 33.556 22.303 7.62 6.4 15.435 12.836 24.764 16.568 9.007 3.606 19.382 2.746 28.27-.712 13.21-5.138 18.367-17.125 19.02-29.932l.03-.137c0-.07 0-.128-.01-.187.156-3.624-.04-7.317-.518-10.93.06-.206.088-.402.06-.607-.02-.176-.1-.342-.216-.48-.44-2.988-1.055-5.92-1.827-8.703-2.502-9.056-7.513-17.33-13.414-24.56-3.82-4.678-8.772-9.407-14.595-11.526 5.276.87 10.444 2.208 15.387 4.445 11.614 5.238 18.91 15.417 23.64 26.905zm-336.707-1.455c1.807-1.934 3.75-6.057 2.91-8.753-.058-.177-.175-.314-.312-.402.303-.42.05-1.182-.566-.948-3.82 1.436-5.256 6.35-3.683 9.886.273.616 1.22.675 1.65.216zm-3.018-8.09c.81-1.113 1.817-2.695 1.612-4.112-.098-.694-.967-.694-1.387-.36-.147.106-.274.253-.4.4-2.326.137-3.997 3.253-4.436 5.275-.155.713.5 1.63 1.31 1.31 1.338-.54 2.452-1.35 3.302-2.512zm-11.283 58.292c.673.332 1.337-.332 1.005-1.006-.36-.742-1.172-1.328-1.866-1.885.37-1.29.566-2.628.605-3.116.02-.342-.508-.488-.654-.176-.35.773-.634 1.564-.966 2.346-.8-.79-1.583-1.63-2.335-2.472-.323-.36-.94.108-.675.518.713 1.104 1.514 2.11 2.364 3.097.028.028.048.058.067.077-.41.625-1.192 1.25-1.192 1.983 0 .205.107.42.293.518.79.4 1.417-.225 1.895-1.202.44.547.91 1.055 1.456 1.318zm-7.797-4.21c.03-.313-.186-.586-.43-.742-.48-.322-.957-.664-1.436-1.006 0-.86-.078-1.72-.147-2.49-.068-.734-1.065-.734-1.133 0-.05.507-.088 1.025-.117 1.543-.625-.41-1.26-.812-1.915-1.124-.635-.313-1.368.498-.79 1.016.78.694 1.62 1.358 2.48 1.993-.127.645-.293 1.29-.322 1.944-.03.702 1.075 1.054 1.387.37.176-.39.303-.83.39-1.28.245.176.49.352.734.518.264.176.615.137.87 0 .33-.168.4-.392.43-.744z" fill="#209dd8"/><path d="M486.76 374.06c3.81-1.662 5.17-1.036 4.065 1.875-.342 1.045-.84 2.003-1.465 2.872-.8-1.632-1.67-3.215-2.6-4.748z" fill="#67c5ee"/><path d="M488.96 439.804c2.197 3.82 1.728 6.027-1.398 6.614-1.465.332-2.872.225-4.22-.283 1.973-2.217 3.77-4.59 5.373-7.15-.06.28 0 .594.244.82z" fill="#67c5ee"/><path d="M481.437 366.742c3.605-1.21 5.275-.44 4.982 2.364-.07 1.123-.362 2.14-.85 3.067-1.26-1.905-2.638-3.722-4.133-5.43z" fill="#67c5ee"/><path d="M482.11 447.628c1.457 3.126.83 5.12-1.875 5.998-1.485.244-2.755-.03-3.81-.83 2.003-1.65 3.878-3.4 5.637-5.256.02.03.03.06.05.088z" fill="#67c5ee"/><path d="M478.4 358.145c2.695 1.23 2.256 4.474 1.455 6.868-1.788-1.866-3.75-3.585-5.852-5.138 1.016-1.642 2.266-2.717 4.396-1.73z" fill="#67c5ee"/><path d="M478.174 401.353c.303 2.91.42 5.96.273 9.017-.127.107-.264.205-.41.303-.654.45-1.407.713-2.16.928-.693.206-1.396.314-2.12.343-.273.01-.888.098-1.27.04.587-2.775.9-5.628.988-8.51.967.166 2.208-.606 2.96-1.026.45-.244 1.104-.625 1.74-1.094z" fill="#9bd8f2"/><path d="M477.88 399.018c-.058.06-.097.117-.155.176-.557.596-1.22 1.123-1.876 1.592-.646.46-1.642.83-2.365 1.348.01-3.097-.234-6.203-.723-9.24 1.045-.128 2.05-.49 2.892-1.173.176-.146.362-.33.557-.526.48 1.73.91 3.468 1.242 5.236.156.84.302 1.71.43 2.588z" fill="#9bd8f2"/><path d="M478.282 412.714c-.215 2.257-.557 4.503-1.104 6.662-.098.04-.205.088-.313.166-1.3 1.084-3.038 2.003-4.758 2.012-.87 0-1.63-.723-2.413-1.055 1.123-2.375 1.973-4.886 2.58-7.484 1.074.713 2.363.586 3.72.37.656-.095 1.496-.32 2.288-.672z" fill="#9bd8f2"/><path d="M474.775 454.125c3.78 5.363-1.74 9.788-7.063 8.5.303-.216.615-.43.918-.646.86-.597.488-1.74-.498-1.857-.713-.078-1.407-.107-2.1-.107 3.086-1.817 6.007-3.77 8.743-5.89z" fill="#67c5ee"/><path d="M475.576 388.995c-.234.43-.45.88-.752 1.21-.615.714-1.446 1.056-2.325 1.222-.43-2.325-.988-4.59-1.662-6.79.107-.028.215-.067.254-.087.244-.127.48-.264.703-.43.43-.293 1.006-.762 1.485-1.29.87 2.013 1.64 4.065 2.296 6.165z" fill="#9bd8f2"/><path d="M473.026 423.382c1.32-.078 2.403-.586 3.37-1.31-.987 2.94-2.354 5.687-4.19 8.05-.538.685-1.124 1.32-1.73 1.935-.06-.03-.108-.05-.176-.06-1.21-.175-2.227.245-3.468-.165-1.28-.42-2.345-1.436-3.234-2.452.91-.967 1.768-1.983 2.56-3.02 1.064-1.386 1.992-2.86 2.803-4.395.167.176.333.342.353.352.313.264.645.44.997.625.83.42 1.808.49 2.716.44z" fill="#9bd8f2"/><path d="M472.498 381.053c-.176.225-.332.46-.488.674-.342.44-.723.84-1.104 1.25-.147.147-.303.322-.45.498-.556-1.69-1.162-3.33-1.845-4.885-.39-.89-.8-1.74-1.24-2.59.508-.36.977-.77 1.377-1.27.06-.087.127-.175.196-.263 1.31 2.14 2.5 4.33 3.555 6.586z" fill="#9bd8f2"/><path d="M469.265 351.688c3.654-.48 3.02 4.26 2.403 6.584-.938-.606-1.885-1.202-2.882-1.74-1.153-.624-2.335-1.18-3.536-1.71.9-1.542 2.06-2.89 4.015-3.134z" fill="#67c5ee"/><path d="M468.014 372.974c-.107.313-.225.625-.38.89-.235.39-.528.732-.86 1.044-1.25-2.286-2.668-4.425-4.25-6.438.254-.215.488-.46.703-.742.137-.195.293-.46.43-.752.948 1.192 1.837 2.384 2.677 3.546.586.8 1.143 1.622 1.68 2.452z" fill="#9bd8f2"/><path d="M466.14 433.473c.566.274 1.328.508 2.09.586-2.823 2.217-6.106 3.838-9.583 4.962-.117-.156-.274-.283-.518-.332-1.68-.342-2.834-1.32-3.332-2.804 2.93-1.29 5.55-3.253 7.854-5.53.888 1.32 2.022 2.414 3.487 3.117z" fill="#9bd8f2"/><path d="M462.495 365.55c-.01.068-.02.137-.02.215-.02.39-.166.762-.342 1.104-.117.224-.274.42-.44.605-1.592-1.915-3.35-3.712-5.236-5.402.528-.41.977-.928 1.3-1.495 1.7 1.533 3.282 3.233 4.738 4.972z" fill="#9bd8f2"/><path d="M456.73 351.697c2.902-5.03 5.696-1.592 6.067 2.13-2.042-.762-4.122-1.397-6.242-1.925.07-.058.128-.126.176-.205z" fill="#67c5ee"/><path d="M456.536 359.522c-.303.625-.645 1.202-1.104 1.65-.664-.566-1.338-1.113-2.032-1.65-2.315-1.778-4.855-3.605-7.55-5.168 3.975.606 7.52 2.57 10.686 5.168z" fill="#9bd8f2"/><path d="M447.588 350.31c1.3-5.666 8.177-5.45 7.395.91-.02.116-.01.214.02.312-2.443-.538-4.915-.938-7.415-1.222z" fill="#67c5ee"/><path d="M453.537 436.384c.322 1.407 1.143 2.628 2.335 3.42-3.155.77-6.39 1.19-9.495 1.308-.957.04-1.905.01-2.843-.05-.01-.058-.01-.116-.04-.185-.33-.81-.497-1.612-.282-2.48.117-.47.42-.763.703-1.076 1.67.226 3.39.294 5.178.108 1.543-.155 3.027-.526 4.444-1.044z" fill="#9bd8f2"/><path d="M440.35 347.438c.79-3.673 5.245-1.29 5.343 2.667-1.856-.166-3.712-.273-5.578-.342.04-.078.078-.147.098-.254.01-.09.01-.157.02-.245h.01v-.05c.077-.653.116-1.25.106-1.777z" fill="#67c5ee"/><path d="M441.834 436.93c-.117.226-.225.47-.303.714-.38 1.075-.175 2.247.255 3.282-3.956-.46-7.747-1.65-11.39-3.35.4-.93.9-1.78 1.63-2.482.646-.635 1.466-1.006 2.258-1.407 2.354 1.486 4.874 2.6 7.55 3.244z" fill="#9bd8f2"/><path d="M438.56 349.724c-1.943-.05-3.887-.03-5.802.02 0-.127-.02-.254-.088-.39-2.06-3.85 5.226-6.908 5.803-2.072-.098.586-.137 1.24-.088 1.983.01.176.088.322.176.46z" fill="#67c5ee"/><path d="M432.563 432.526c-1.534 1.123-2.59 2.862-2.774 4.758-3.498-1.7-6.86-3.84-10.112-6.213.186-.097.352-.253.44-.487.498-1.32 1.3-2.472 2.276-3.478.47-.488 1.006-.89 1.583-1.23.36-.206.772-.284 1.153-.43.928 1.064 1.876 2.11 2.872 3.125 1.425 1.445 2.95 2.783 4.56 3.956z" fill="#9bd8f2"/><path d="M423.722 423.763c-.928.37-1.778 1.143-2.413 1.768-1.31 1.26-2.277 2.883-2.854 4.583-.01.02 0 .03-.01.04-3.35-2.54-6.594-5.296-9.75-8.03 1.193-3.772 3.782-6 7.425-7.464.118-.05.206-.118.284-.196 2.463 3.076 4.808 6.26 7.318 9.3z" fill="#9bd8f2"/><path d="M409.41 406.736c2.082 1.934 3.977 4.064 5.794 6.262-3.43 1.407-7.122 4.24-7.698 8.09-3.497-3.04-6.887-6.02-10.21-8.568-.77-.586-1.542-1.172-2.324-1.74.234-.058.488-.146.79-.32 1.095-.626 2.082-1.476 3.068-2.258 1.3-1.026 2.56-2.1 3.898-3.058.948-.684 2.032-1.084 3-1.67 1.25 1.064 2.48 2.148 3.683 3.262z" fill="#9bd8f2"/><path d="M403.92 401.95c-1.855.722-3.653 2.44-4.99 3.565-1.134.948-2.228 1.944-3.352 2.91-.518.44-1.143.822-1.622 1.3-.068.068-.117.137-.156.215-5.617-3.996-11.527-7.434-17.76-9.788.967-2.48 2.784-4.347 5.11-5.832 1.19-.762 2.51-1.31 3.848-1.768 1.123-.39 2.403-.43 3.44-1.016 5.508 2.9 10.666 6.466 15.483 10.413z" fill="#9bd8f2"/><path d="M382.908 388.878c.84.362 1.66.752 2.49 1.143-2.344.567-4.864 2.13-6.407 3.225-2.226 1.573-3.975 3.74-4.61 6.32-5.44-1.875-11.107-2.92-17.008-2.803-.674-5.256.948-9.74 4.494-13.56 7.218.977 14.29 2.824 21.042 5.676z" fill="#9bd8f2"/><path d="M383.816 465.652c-.03.04-.06.068-.068.117-2.003 5.128-9.867 8-11.38.947-.03-.098-.07-.186-.118-.264 2.813-.362 5.51-1.084 7.942-2.49 1.074.732 2.295 1.28 3.624 1.69z" fill="#67c5ee"/><path d="M370.51 466.63c-.01.038-.028.058-.038.087-1.075 5.607-9.378 8.098-9.808.752-.03-.4-.235-.665-.498-.802 3.41.07 6.945.235 10.345-.04z" fill="#67c5ee"/><path d="M353.952 466.746c1.71-.127 3.488-.127 5.314-.098-.283.137-.508.4-.537.82-.51 7.68-11.147 7.27-13.21.714-.097-.293-.292-.488-.526-.596 2.98-.293 5.97-.615 8.958-.84z" fill="#67c5ee"/><path d="M359.345 382.9c-3.292 3.79-4.826 9.016-3.35 13.91-1.838.098-3.703.303-5.59.625-1.22-1.563-2.988-2.51-5.02-2.472.625-4.123 1.016-8.323 1.23-12.563 4.26-.116 8.51.05 12.73.5z" fill="#9bd8f2"/><path d="M349.967 343.277c.89.127 3.146-.195 2.266.733-1.202 1.29-3.644 1.66-5.275 2.042-7.19 1.67-14.663 1.33-21.94 2.325-.206-.127-.47-.186-.763-.117-1.045.244-2.14.234-3.224.322-.38-4.396 4.475-4.035 8.07-4.63 4.64-.782 9.29-1.22 13.99-1.24 2.305-.022 4.6.223 6.877.565z" fill="#ec7c3c"/><path d="M343.97 349.265c.194 10.277-.157 20.583-.284 30.87-.088 0-.176 0-.264.01.01.79 0 1.592-.02 2.384.088 0 .176 0 .264-.01-.04 4.22-.03 8.45.098 12.66v.01c-.137.04-.264.068-.4.107-1.466.47-2.844 1.973-3.332 3.41-.303.917-1.856.4-2.52.624-.068.02-.117.05-.176.08-.635-7.826-.987-15.543-.8-23.417.214-8.714 1.035-17.564.204-26.27 2.374-.155 4.748-.39 7.092-.74.06-.01.137-.02.195-.03-.03.097-.058.195-.058.312z" fill="#c6c5c5"/><path d="M343.93 467.684c-.157.117-.275.274-.343.498-1.485 5.197-9.75 8.294-10.19.752-.01-.205-.087-.37-.194-.518 1.358-.06 2.677-.147 3.908-.215 2.277-.106 4.543-.3 6.82-.516z" fill="#67c5ee"/><path d="M337.18 317.936c5.733 4.66 3.535 16.05 3.447 22.625-2.98.09-5.96.372-8.93.763.226-3.497.382-6.995.763-10.482.128-1.133 2.52-14.692 4.72-12.904z" fill="#ec7c3c"/><path d="M335.977 400.132c-.186.137-.37.274-.557.43-1.475-1.69-3.44-2.423-5.334-2.315-.557-7.903-1.543-15.718-1.68-23.66-.147-8.343 1.24-16.353 1.71-24.588 1.885-.04 3.77-.11 5.656-.226-.47 8.724-.596 17.496-.83 26.22-.225 7.98-.42 16.245 1.035 24.138z" fill="#c6c5c5"/><path d="M331.415 468.456c-.03.068-.068.117-.088.195-1.202 5.198-5.754 8.744-10.873 6.087.322-.987.684-1.934 1.104-2.823 1.22-1.397 2.374-2.843 3.458-4.347 1.964.713 4.182.89 6.4.89z" fill="#67c5ee"/><path d="M326.62 384.843c.253 4.65.79 9.29 1.904 13.686-1.114.34-2.12 1.005-2.92 1.924-2.61-4.044-5.413-8.91-4.124-13.833.05-.194.03-.37-.04-.526 1.72-.45 3.44-.87 5.18-1.25z" fill="#9bd8f2"/><path d="M320.25 469.6c-.157.282-.314.575-.46.878-7.893 9.066-18.463 15.308-30.04 18.737-11.36 3.38-24.178 1.632-34.19 9.007-.636.46-.743 1.202-.236 1.817 6.154 7.375 17.31 8.137 26.23 8.312 13.706.274 27.148-1.73 40.678-3.458-23.377 12.543-49.616 9.906-75.074 4.503-1.075-.234-1.837 1.006-1.065 1.827 18.24 19.626 43.364 28.633 69.36 26.552-16.685 4.982-34.377 5.568-51.013-.44-9.36-3.37-17.848-8.675-24.95-15.63-3.42-3.33-6.545-7.17-8.82-11.39-2.55-4.75-.685-8.852 2.705-12.515 3.917-4.23 8.82-7.707 12.954-11.77 4.796-4.72 9.27-9.78 13.246-15.2 4.484-6.116 9.788-15.162 7.62-22.84 6.115 9.69 4.298 24.51-1.846 33.516-.518.762.166 1.866 1.055 1.837 19.077-.595 36.26-7.2 53.844-13.744z" fill="#209dd8"/><path d="M319.517 386.62c-1.837 4.153 1.016 9.672 3.693 13.385-7.473.244-14.692 2.208-21.638 5.158-.987-1.465-1.856-3-2.52-4.64-.38-.918-.625-1.895-.742-2.892-.108-.986.225-1.904.117-2.87 1.612-.792 3.243-1.564 4.894-2.297 5.187-2.325 10.628-4.28 16.197-5.842z" fill="#9bd8f2"/><path d="M323.97 506.486c-6.192 8.44-11.36 23.895-1.113 28.27-26.835 4.416-53.348-3.37-72.71-22.507 25.126 5.04 50.877 6.877 73.824-5.764z" fill="#ccebf8"/><path d="M317.924 475.743c-2.452 9.828-.772 22.762 7.59 26.503-13.12 1.583-26.054 3.32-39.29 3.75-9.067.294-21.434.343-28.31-6.593 10.618-6.946 24.763-5.265 36.515-9.3 8.782-3.018 16.852-7.94 23.494-14.36z" fill="#ccebf8"/><path d="M321.89 466.57c-17.437 6.448-34.503 13.17-53.23 14.214 4.533-8.02 6.106-19.245 3.126-28.38 13.14 10.523 34.68 8.57 50.105 14.166z" fill="#ccebf8"/><path d="M296.58 399.82c.566 2.246 1.836 4.307 3.35 6.046-6.027 2.716-11.84 6.125-17.408 9.76-.635-1.105-2.335-1.808-3.224-2.697-1.475-1.466-2.393-3.313-2.735-5.335 6.31-4.29 12.827-8.255 19.675-11.752-.255 1.29.048 2.804.34 3.976z" fill="#9bd8f2"/><path d="M277.227 413.535c.752.9 2.208 2.628 3.624 3.194-4.512 3.008-8.88 6.134-13.06 9.113-.615.43-1.22.86-1.837 1.29-.576-.255-1.202-.167-1.846-.323-.91-.215-1.71-.81-2.384-1.436-1.338-1.23-2.198-2.97-2.843-4.66 5.265-4.19 10.62-8.245 16.128-12.055.285 1.778 1.056 3.478 2.22 4.875z" fill="#9bd8f2"/><path d="M261.5 461.53c.458-.01.956-.03 1.455-.078-1.905 3.8-4.6 7.542-7.307 10.853 1.31-3.312 2.198-7.17 2.325-10.844 1.172.1 2.354.1 3.526.07z" fill="#67c5ee"/><path d="M260.698 427.006c.625.606 1.768 1.377 2.92 1.75-5.42 3.71-10.92 7.17-16.704 10.178-.156-.06-.313-.127-.48-.205-.76-.353-1.455-.83-2.11-1.35-.956-.77-1.71-1.738-2.207-2.842 5.148-4.337 10.297-8.655 15.533-12.846.518 2.012 1.544 3.85 3.048 5.314z" fill="#9bd8f2"/><path d="M242.508 438.094c.508.596 1.338 1.358 2.237 1.944-2.452 1.21-4.953 2.345-7.532 3.37-4.162 1.66-8.382 2.92-12.65 3.85 5.538-2.853 10.618-6.85 15.23-10.747.38-.33.77-.653 1.152-.976.37.91.88 1.77 1.563 2.56z" fill="#9bd8f2"/><path d="M235.592 463.347c-.86 2.012-1.67 4.074-2.413 6.164-2.453-1.18-3.606-3.145-3.8-5.948-.01-.137-.05-.244-.1-.362 2.11.04 4.21.078 6.312.147z" fill="#67c5ee"/><path d="M227.357 463.16c-.06.118-.107.255-.127.402-.82 6.447-9.76 6.555-10.56 0-.02-.147-.068-.274-.127-.39.977-.01 1.944-.01 2.91-.02 2.638-.02 5.276-.02 7.904.01z" fill="#67c5ee"/><path d="M214.608 463.17c-.04.118-.068.245-.068.392-.03 8.05-9.427 6.223-10.59-.283-.01-.03-.02-.05-.03-.07 3.567 0 7.132-.02 10.688-.04z" fill="#67c5ee"/><path d="M201.89 463.21c-.01.02-.02.04-.03.068-.703 3.673-2.97 6.887-7.073 4.758-2.042-1.055-2.178-3.263-3.32-4.845 3.476.01 6.954.01 10.422.02z" fill="#67c5ee"/><path d="M200.746 412.138c.596 5.187-4.123 10.95-6.31 15.376-2.043 4.103-2.854 8.5-2.053 13.032.352 2.022 1.172 3.712 2.296 5.11-3.547-.45-6.937-1.378-9.174-4.485-2.53-3.526-3.693-7.843-6.32-11.32-.675-.9-1.515-1.808-2.433-2.658 3.84-2.9 6.975-6.41 9.906-10.238 2.05-2.677 4.073-5.373 6.222-7.98.928-1.124 1.915-2.19 2.92-3.235 1.77-1.847 4.836 5.45 4.944 6.398z" fill="#209dd8"/><path d="M194.054 404.49c-.948.995-1.876 2.01-2.765 3.066-.86-1.436-1.623-2.892-2.18-4.455 1.71.275 3.293.88 4.944 1.39z" fill="#f5f6f6"/><path d="M183.728 463.18c1.934 0 3.868 0 5.803.01-.253.167-.44.44-.41.86.45 6.507-8.9 5.5-9.602-.487-.02-.137-.06-.264-.107-.38 1.437.007 2.882-.002 4.318-.002z" fill="#67c5ee"/><path d="M182.918 440.85c2.677 4.844 7.092 6.232 12.084 6.857-5.9 4.464-12.592 5.91-19.548 2.08-6.252-3.447-9.955-10.168-12.72-16.48.382-.702-.243-1.865-1.122-1.494-.85.36-1.66.645-2.442.88-.41-4.26 4.19-4.055 6.613-2.11 1.065.85 1.788 2.04 2.462 3.193 1.368 2.325 2.188 4.972 3.282 7.434 1.885 4.24 5.422 7.825 10.375 7.522.87-.06 1.123-1.358.215-1.573-5.578-1.31-7.737-4.084-9.857-9.213-1.31-3.175-2.56-6.32-5.13-8.714-.644-.606-1.367-1.065-2.138-1.397 3.126-5.53 8.782-.977 11.908 2.423 2.745 2.98 4.083 7.082 6.018 10.59z" fill="#ea5d56"/><path d="M189.463 409.774c-1.104 1.387-2.188 2.794-3.273 4.21-.674-1.544-1.32-3.087-1.944-4.64 1.74.117 3.478.352 5.217.43z" fill="#f5f6f6"/><path d="M179.635 416.104c1.64-.06 3.253-.147 4.924-.01-1.32 1.67-2.658 3.32-4.084 4.885-.196-1.633-.48-3.264-.84-4.876z" fill="#f5f6f6"/><path d="M177.535 463.18c-.01.04-.04.07-.05.11-2.07 6.613-11.067 6.915-12.073-.44 4.034.243 8.08.31 12.123.33z" fill="#67c5ee"/><path d="M178.805 422.747c-1.114 1.123-2.276 2.208-3.536 3.204-.91-.693-1.886-1.288-2.873-1.757-.068-.85.06-1.7.166-2.55 2.158.127 4.16.576 6.242 1.104z" fill="#f5f6f6"/><path d="M163.663 366.136c1.114 1.065 2.11 2.266 2.98 3.536-1.242.303-2.492.488-3.79.557-.294.01-.52.126-.685.292.313-1.494.723-2.96 1.495-4.386z" fill="#f5f6f6"/><path d="M165.138 376.755c-1.055.42-2.14.782-3.204 1.143-.567.195-1.123.322-1.63.537.175-.528.36-1.045.527-1.573.5-1.553.763-3.107 1.027-4.63.937 1.563 2.08 3.126 3.28 4.523z" fill="#f5f6f6"/><path d="M159.238 381.58c1.104 1.29 2.315 2.482 3.41 3.782-1.69.47-3.39.85-5.11 1.182.576-1.652 1.143-3.303 1.7-4.963z" fill="#f5f6f6"/><path d="M163.253 462.702c-.987 7.864-11.273 4.845-12.065-1.583 0-.02-.01-.04-.01-.07 1.66.343 3.32.626 4.953.87 2.365.352 4.74.596 7.123.782z" fill="#67c5ee"/><path d="M156.18 390.304c.606 1.504 1.65 2.94 2.647 4.28-1.504.36-2.99.78-4.513.966.332-.977.674-1.964 1.035-2.93.283-.772.557-1.544.83-2.316z" fill="#f5f6f6"/><path d="M155.272 374.47c.84 2.695-1.104 6.818-2.91 8.752-.43.46-1.378.4-1.652-.215-1.573-3.536-.137-8.45 3.683-9.886.615-.234.87.528.566.95.136.086.253.223.312.4zM152.38 379c-.06-.166-.107-.332-.127-.488l-.03-.225c-.116.526-.194 1.064-.175 1.61.127-.293.234-.596.332-.898z" fill="#1d1d1b"/><path d="M156.483 402.3c-.967.53-1.983.91-3.048 1.232-.44.127-.987.166-1.504.254.48-1.973 1.027-3.937 1.632-5.89.762 1.62 1.72 3.076 2.92 4.405z" fill="#f5f6f6"/><path d="M154.55 410.487c-.773.38-1.584.703-2.394 1.006-.576.205-1.27.352-1.856.635.107-.674.215-1.348.322-2.003.205-1.23.46-2.462.723-3.683 1.123 1.27 2.178 2.667 3.204 4.045z" fill="#f5f6f6"/><path d="M153.327 418.84c-.488.204-.987.37-1.524.497-.84.205-1.72.04-2.354.576.077-1.905.273-3.82.536-5.705.81 1.7 2.003 3.283 3.34 4.63z" fill="#f5f6f6"/><path d="M153.6 426.498c-.85.86-1.71 1.74-2.705 2.393-.137.09-.234.187-.313.304-.225-.596-.43-1.25-.596-1.983-.303-1.396-.47-2.822-.537-4.278 1.367 1.212 2.744 2.423 4.15 3.566z" fill="#f5f6f6"/><path d="M150.954 371.02c.205 1.417-.8 3-1.612 4.113-.85 1.162-1.964 1.973-3.302 2.51-.81.323-1.465-.595-1.31-1.308.44-2.022 2.11-5.138 4.436-5.275.127-.147.254-.293.4-.4.42-.333 1.29-.333 1.388.36z" fill="#1d1d1b"/><path d="M149.234 460.62c-4.015 6.01-9.134 2.795-9.007-2.98.078-.097.166-.194.234-.292 2.698 1.524 5.707 2.53 8.774 3.273z" fill="#67c5ee"/><path d="M140.13 444.747c-.068.06-.127.117-.186.195-.9 1.23-1.915 2.364-3.038 3.4-.117-.088-.264-.147-.43-.166-1.71-.215-3.273-1.075-4.435-2.325 1.398-1.435 2.19-3.174 2.1-5.294 2.414.684 4.915 1.836 5.99 4.19z" fill="#ccebf8"/><path d="M139.065 432.418c.332.674-.332 1.338-1.006 1.006-.548-.264-1.017-.772-1.457-1.32-.48.978-1.104 1.603-1.895 1.203-.186-.098-.293-.313-.293-.518 0-.734.78-1.36 1.192-1.984-.02-.02-.04-.05-.068-.078-.85-.987-1.652-1.993-2.365-3.097-.264-.41.352-.878.674-.517.75.84 1.533 1.68 2.334 2.472.332-.782.615-1.573.967-2.345.148-.313.675-.166.655.176-.04.488-.235 1.827-.606 3.116.693.558 1.503 1.144 1.865 1.886z" fill="#1d1d1b"/><path d="M138.655 456.196c-1.27 1.846-3.32 2.687-5.568 2.784-2.335.098-4.386-1.006-3.087-3.507.03-.06.04-.107.04-.156 1.71-.752 3.33-1.63 4.835-2.628.03.058.05.106.098.165 1.093 1.3 2.333 2.393 3.682 3.34z" fill="#67c5ee"/><path d="M133.633 449.2c.4.245.938.51 1.475.646-1.846 1.417-3.917 2.6-6.106 3.546.04-.254-.02-.508-.244-.674-.596-.47-1.192-.527-1.66-1.2-.46-.656-.753-1.437-1.007-2.21 1.896-.663 3.567-1.484 4.895-2.5.704.957 1.593 1.768 2.648 2.393z" fill="#ccebf8"/><path d="M129.833 428.472c.244.156.46.43.43.742-.03.352-.098.576-.43.742-.254.137-.606.176-.87 0-.243-.166-.487-.342-.732-.518-.087.45-.214.89-.39 1.28-.313.684-1.416.332-1.387-.37.03-.656.195-1.3.322-1.945-.86-.635-1.7-1.3-2.48-1.993-.577-.518.155-1.33.79-1.016.655.313 1.29.713 1.915 1.123.03-.518.068-1.035.117-1.544.068-.733 1.065-.733 1.133 0 .068.772.147 1.632.147 2.49.48.344.957.686 1.436 1.01z" fill="#1d1d1b"/><path d="M125.79 452.786c.302.518.84 1.055 1.445 1.31-2.442.888-5.02 1.474-7.64 1.777-.067-.596-.32-1.153-.448-1.74-.225-1.044-.293-2.138-.254-3.213 2.08-.274 4.093-.664 5.92-1.202.155 1.066.43 2.11.976 3.068z" fill="#ccebf8"/><path d="M124.724 439.47c-.156 0-.322.03-.47.148-.86.674-1.767 1.22-2.715 1.68-.05-.137-.148-.254-.333-.332-.987-.43-1.66-1.133-2.178-2.07-.343-.626-.43-1.32-.587-1.994 1.495-.752 2.862-1.72 4.054-2.96.596 1.905 1.328 3.76 2.227 5.53z" fill="#ccebf8"/><path d="M117.456 439.813c.537.948 1.358 1.778 2.354 2.198-2.178.763-4.494 1.066-6.828 1.036-.9-.41-1.504-1.524-1.778-2.374-.195-.596-.205-1.23-.234-1.856 1.964-.117 3.878-.47 5.656-1.123.156.762.488 1.515.83 2.12z" fill="#ccebf8"/><path d="M117.495 454.662c.03.42.078.928.235 1.368-2.638.156-5.295-.01-7.854-.488-.537-.645-.88-1.31-.85-2.198.03-.772.498-1.348.87-1.973 2.568.07 5.225-.028 7.814-.302-.254 1.18-.322 2.373-.215 3.594z" fill="#ccebf8"/><path d="M109.944 441.914c.205.4.45.723.723.987-1.524-.155-3.028-.43-4.494-.81-.567-.137-1.104-.303-1.63-.488.01-.05 0-.107-.05-.166-.39-.576-.47-1.416-.37-2.08.048-.343.194-.665.34-.988 1.535.293 3.088.47 4.622.49.038 1.082.42 2.216.86 3.056z" fill="#ccebf8"/><path d="M107.794 451.292c-.313.645-.488 1.387-.518 2.05-.04.597.108 1.173.362 1.69-3.878-1.044-7.454-2.88-10.345-5.567 2.452.928 6.252 1.583 10.5 1.827z" fill="#ccebf8"/><path d="M103.057 438.074c-.088.37-.127.762-.156 1.114-.048.752.167 1.426.577 1.993-3.214-1.318-5.744-3.34-7.874-5.948 2.256 1.24 4.816 2.207 7.454 2.842z" fill="#ccebf8"/></g></g></svg>