<svg xmlns="http://www.w3.org/2000/svg" width="250" height="250" viewBox="0 0 249.99999 250" enable-background="new 0 0 595.28 841.89"><g><g><path d="M219.672 113.49c.95.905 1.724 2.3 1.29 4-.424 1.663-1.354 2.385-2.42 2.446 1.77 2.006.605 6.416-1.925 6.385 1.173 2.802-.938 5.14-3.2 4.87.712 2.66-1.13 5.008-3.033 4.476.79 3.78-2.164 7.254-4.988 5.18-.013-.012-.017-.024-.03-.037-1.796 1.78-3.627 3.516-5.58 4.898-1.434 1.016-3.772 2.874-5.45 2.122-2.977-1.327-4.577-5.797-7.82-6.464-3.12-.643-6.13.196-9.21.82-1.874.38-4.788.886-7.2.146-.088 2.09-1.817 3.902-3.16 4.27-1.455.396-2.462-.35-3.017-1.91-1.18 2.87-3.99 3.45-5.083.728-1.263 3.437-5.06 3.29-6.596-.104-1.266 3.125-4.372 4.006-5.447.948-1.062 2.758-3.196 4.19-5.312 2.562-1.03 6.02-.012 13.902 3.75 16.097.172.098.18.355.09.496.155.243.197.604-.02.89-3.183 4.142-6.878 15.7-1.1 18.618.285.14.293.575.136.808-.01.245-.107.483-.316.605-8.008 4.692-17.425 6.607-25.75 2.527-3.826-1.877-7.53-4.446-10.635-8.213-2.398-2.918-5.825-7.272-6.55-11.926-.324-2.092.013-3.86.68-5.425-.15-.055-.28-.238-.287-.532-.218-5.62.508-11.466 1.792-17.032-.922-.623-1.553-1.53-1.92-2.728-1.238 2.716-4.066 2.764-5.325.104-1.063 3.24-4.344 2.924-5.653-.3-.58 1.737-1.643 3.175-3.115 2.46-.802-.392-1.826-1.175-2.193-2.368-.004-.006-.004-.013-.004-.018-.422 1.4-1.39 2.38-2.577 2.348-1.433-.03-2.423-1.04-2.918-2.654-1.55 3.278-4.843 3.143-6.076-.263-1.396 3.533-5.3 2.274-6.383-1.677-.892 1.418-2.223 2.666-3.46 1.394-1.033-1.064-1.387-2.483-1.298-4.05-.888 1.01-2.117 1.444-3.214 1.066-1.186-.404-1.715-1.75-1.194-3.113-5.244 2.948-11.938 1.963-14.976-4.77-.17-.38.235-.838.435-.484.014.018.023.03.035.05.077-.3.273-.527.53-.4 2.65 1.365 5.763 1.347 8.528.943 1.57-.233 3.776-.63 5.376-1.94-.543-.942-1.008-1.945-1.413-2.997-.01.013-.013.03-.022.043-2.338 2.953-5.65 3.565-8.584 2.232-2.312-1.046-5.255-3.364-5.88-7.045-.02-.025-.037-.043-.058-.067-.14-.166-.12-.416-.026-.594 0-.36.324-.6.478-.227.038.098.08.184.123.282 2 1.902 4.625 3.12 7.13 3.02.004-.005.004-.017.008-.024.086-.152.265-.134.367-.012 1.8-.17 3.52-1.04 4.873-2.873.038-.05.08-.08.123-.11-1.438-7.994-.303-17.388 1.67-24.543 2.657-9.64 8.22-19.945 16.318-18.366.23.05.324.336.31.623l.01.014c.085.012.162.092.188.2.776.876 1.36 1.958 2.026 3.01.23.355.128.893-.192 1.046-.695.33-1.42.57-2.16.624.57.874 1.11 1.773 1.708 2.617.184.27.158.784-.09.962-.67.483-1.373.874-2.08 1.217-.385.182-.838.518-1.222.244-.012.042-.02.085-.034.128.78.91 1.455 2.018 2.275 2.856.298.312.264.948-.103 1.125-1.118.526-2.26.917-3.422 1.193-.012.042-.025.092-.034.134.056.05.116.11.167.208.157.306.32.6.478.9.42.8.85 1.583 1.276 2.372.175.318.15.862-.18.972-.865.287-1.71.69-2.59.875.445.99.94 2.005 1.627 2.635.282.25.256.765 0 1.028-.584.605-1.267 1.046-1.958 1.327-.197.073-.432.183-.67.25.605.857 1.024 2.074 1.783 2.57.31.207.25.843 0 1.075-.46.416-.968.722-1.476 1.003-.248.135-.517.324-.79.435.517 1.027 1.1 1.963 1.84 2.69.276.27.276.795 0 1.065-.56.55-2.044 1.522-2.672.77v.135c.9.844 1.792 1.73 2.667 2.63.222.227.286.648.085.948-.512.77-1.045 1.596-1.668 2.183-.073.074-.145.105-.218.105.67 1.425 1.694 1.743 2.95 1.358-.57-.918-.646-2.422.284-3.09.585-.42 1.225-.562 1.84-.45.767-2.374 2.008-2.857 3.284-2.368-.017-.606.026-1.205.03-1.835 0-.35.205-.655.452-.65 1.024.02 2.146.148 3.14.63-.196-1.057-.358-2.128-.545-3.19-.064-.375.124-.73.393-.735.93-.03 1.97-.41 2.88.037.013.006.02.018.034.03-.555-1.064-.973-2.256-1.335-3.48-.11-.385.012-.85.34-.85 1.012-.006 2.023.122 3.034.226-.627-.954-1.066-2.287-1.3-3.48-.074-.367.13-.765.4-.753 1.14.03 2.42.447 3.447 1.2.132-.08.294-.093.418.03 4.788 4.74 1.742 10.134-.127 16.017-1.23 3.872-1.523 9.364 1.6 11.614 2.726 1.97 6.046 1.383 8.784-.256 3.286-1.97 6.132-5.107 8.854-8.483.005-.22.137-.343.274-.343 2.137-2.666 4.202-5.455 6.357-7.92 4.758-5.45 9.7-10.653 15.054-14.837 5.038-3.938 10.397-6.935 15.94-8.647-.052-2-.056-3.994-.052-5.927.013-4.5-.17-10.01.858-14.403-.452 0-.904.007-1.357 0-.05.067-.11.123-.196.153-.636.226-1.263.147-1.916.325-.237.067-.515-.093-.575-.47-.2-1.28-.204-2.448-.03-3.732.03-.227.193-.46.35-.5 1.494-.393 2.987-.778 4.48-1.09-.004-.018-.008-.037-.008-.055-.21-5.26-.073-12.096 2.385-16.353.123-.208.384-.238.542-.098 3.51 3.162 2.662 10.782 2.564 15.882 1.672.007 3.345.226 5.026.777.23.08.362.39.375.71.115 2.5-2.335 3.258-3.977 3.613.05.097.09.214.094.36.196 6.282.426 12.82.264 19.247 2.062-.086 4.14.006 6.226.33 5.27.826 10.385 3.334 14.874 7.395 4.587 4.153 8.128 9.235 11.464 15.302 3.145 5.718 7.714 13.864 13.533 10.807 4.992-2.624 7.787-10.44 8.034-17.718.27-7.828-.843-16.74-4.504-22.867-.768-1.292-1.672-2.65-2.67-3.946-.04.006-.078.013-.116.013-.145-.02-.23-.245-.2-.41-2.932-3.682-6.635-6.776-10.253-6.305-.568.073-.542-1.15 0-1.248.034-.006.068-.006.102-.013.063-.133.16-.237.306-.25-1.36-2.587 2.662-5.938 3.8-3.15.876-1.223 2.502-.543 3.16 1.48 1.206-2.562 3.864-2.238 4.312.87 1.442-2 2.995-.277 3.384 2.488.72-1.296 1.774-2.342 2.88-1.517 1.305.973 1.297 2.96.904 4.717.538-1.01 1.515-1.474 2.423-.87 1.352.9 1.672 2.71 1.48 4.533.61-.526 1.3-.667 1.877.306.674 1.15.875 2.47.743 3.78.516-.398 1.088-.423 1.672.354.88 1.162.53 3.162-.01 4.716.952-.355 1.994-.288 2.262 1.333.312 1.89-.303 3.57-1.258 4.75 2.867-.8 3.822 3.88 2.197 6.49 2.18.673 2.3 4.782.478 6.53 2.1 1.413 1.63 5.847-.598 7.15zm-.985-7.56c2.44-.495 3.024-5.718-.005-4.96-.137.03-.26-.043-.358-.153.188 1.694.31 3.4.363 5.113zm-.226 6.673c2.616-.14 3.503-5.493.325-5.505-.026 0-.05-.012-.077-.024.017 1.853-.064 3.7-.247 5.53zm-.098-12.734c2.014-1.395 1.95-6.208-.746-5.322-.128.037-.235 0-.32-.08.383 1.812.7 3.665.934 5.542.034-.055.077-.098.132-.14zm-1.002 19.105c2.82.287 3.8-3.553.955-5.095-.217 1.726-.533 3.425-.955 5.095zm-.372-25.882c1.22-2.202 1.68-6.152-1.113-4.153.294.942.563 1.902.81 2.88.107.423.206.85.303 1.273zm-1.296 31.81c2.807 1.38 4.198-3.8 1.327-4.66-.484 1.68-1.038 3.265-1.67 4.75.09-.104.214-.16.342-.09zm.96-7.958c1.647-8.483 1.024-17.473-1.31-25.577-2.065-7.192-5.252-13.564-10.325-16.843-2.16-1.4-4.416-2.238-6.72-2.783 2.543 1.327 4.706 4.287 6.374 7.217 2.578 4.524 4.767 9.704 5.86 15.374.337 1.743.605 3.578.797 5.45.05.085.085.19.094.3.014.127 0 .25-.025.378.21 2.263.295 4.575.227 6.844.004.036.004.073.004.116-.004.03-.01.055-.013.086-.285 8.018-2.538 15.522-8.307 18.74-3.882 2.164-8.413 2.702-12.347.445-4.075-2.336-7.488-6.366-10.816-10.372-4.583-5.51-9.3-10.953-14.656-13.962-.098.013-.205-.036-.273-.146-3.123-1.7-6.46-2.57-10.107-2.134.12.33.226.685.298 1.07.145.77-.614 1.02-.81.318-.72-2.586-2.89-3.498-3.648-.293-.068.293-.218.428-.427.464-.865.14-1.253 0-2.038 1.028-.21.27-.53.226-.68-.13-1.142-2.665-3.42-1.595-4.073 1.01-.112.453-.564.276-.496-.195.047-.337.12-.643.205-.936-.03.03-.07.048-.112.055-.094.01-.162-.063-.2-.167-10.244 1.046-18.48 10.892-26.62 18.856-6.302 6.157-14.382 11.802-22.305 11.857-.162.02-.324.05-.487.056-1.11.08-2.312-.08-3.447-.526-.13-.03-.257-.062-.385-.092-.055-.02-.094-.068-.115-.13-.615-.292-1.203-.672-1.732-1.167-2.56 3.095-5.884 4.99-9.14 2.807-3.302-2.22-5.593-6.715-6.685-11.614-1.822 1.176-4.177 1.5-5.235-1.472-1.182-3.315-.965-7.51-.65-11.082.415-4.715 1.153-9.376 2.33-13.828.978-3.67 2.13-7.388 2.62-11.272.227-1.798.376-4.09 1.344-5.4-8.004-.77-13.248 9.382-15.538 19.332-2.176 9.462-2.94 21.718 1.096 30.445.84-.795 1.472-1.877 1.677-3.388.017-.122.08-.196.158-.22.06-.117.15-.196.277-.19 1.49.073 3.25 1.51 3.627 3.688.054.324-.044.57-.197.698-.013.037-.026.08-.047.123-.66 1.376-1.515 2.6-2.496 3.64 2.96 3.748 7.283 4.775 11.093 5.228 3.848.46 7.697.356 11.554.416 7.09.098 14.16-.214 21.208.276.58-1.823 1.204-3.59 1.865-5.272.2-.508.81-.165.665.404-2.244 8.75-5.162 16.965-5.3 26.402.577-1.468 1.017-3.04 1.635-4.495.158-.372.64-.36.696.13.085.702.217 1.37.328 2.048 1.843-2.238 3.6-4.635 5.256-7.16.5-.765 1.11-1.695 1.766-2.753 1.374-4.544 1.83-9.32 1.105-14.17-.08-.557.467-.95.663-.405.452 1.236.67 2.734.704 4.325.512-.062 1.028-.074 1.536-.153.358-.05.712-.184 1.066-.172.96-3.35 1.096-6.684-.543-9.37-.2-.335-.132-.745.04-.984-.052-.532.472-1.07.86-.612.74.875 1.357 1.896 1.865 3.022 1.28 1.877 2.654 3.56 4.373 4.727 2.223 1.51 4.608 2.36 7.03 2.93 4.26 1.002 8.654 1.406 12.656 3.895.16.104.227.3.235.508 2.01-.22 4.096.232 6.132 0 2.223-.25 4.437-.68 6.664-.875 3.572-.317 7.263.466 10.7-1.246-.49-.77-.848-1.75-1.01-2.985-.636-4.808 1.78-10.024 5.406-9.62.41.042.405.856 0 .905-5.287.648-6.35 11.46-.65 12.782 4.46 1.04 8.837-1.474 13.29-1.376 1.985.043 4.09.32 5.77 2.007 1.847 1.846 3.64 5.473 6.152 4.587 3.234-1.138 6.072-3.957 8.84-6.593-.64.038-1.275.166-1.932.343-.33.086-.695-.41-.474-.887.205-.428.41-.85.62-1.26-.55.147-1.102.318-1.64.618-.375.214-.622-.464-.473-.887l.754-2.17c-.49.262-.985.513-1.46.86-.425.32-.848-.445-.51-.953.61-.79 1.02-1.76 1.237-2.917-2.504 1.424-4.112 4.06-5.243 7.644-.128.405-.508.38-.704.13-4.407-5.474-9.886-8.018-15.684-7.725-.62.03-.602-1.29 0-1.357 5.768-.643 11.433 2.36 15.845 7.608 1.336-3.828 3.302-6.495 6.225-7.823.27-.122.538.202.542.588.01 1.132-.21 2.02-.563 2.832.336-.177.67-.367.988-.605.384-.287.772.287.58.832-.277.788-.554 1.583-.832 2.372.606-.208 1.225-.33 1.848-.508.388-.11.644.453.452.905 5.667-4.686 10.437-11.126 12.246-20.465zm-.542-31.05c.482-1.823-.11-2.214-1.775-1.175.405.96.785 1.95 1.135 2.973.273-.544.49-1.144.64-1.798zm-1.425 44.126c1.365-.366 1.57-1.75.61-4.14-.107-.14-.133-.336-.107-.514-.7 1.603-1.485 3.088-2.346 4.477.588.318 1.203.385 1.843.178zm-.5-48.4c.128-1.756-.6-2.238-2.175-1.48.652 1.07 1.254 2.208 1.804 3.4.214-.58.342-1.217.37-1.92zm-2.7 52.914c1.18-.55 1.454-1.798.82-3.755-.01-.02-.014-.038-.023-.056-.767 1.162-1.587 2.257-2.46 3.29.46.502 1.014.673 1.663.52zm-.167-55.477c.35-1.498.542-3.53-.636-4.3-.93-.617-1.476.056-1.92 1.083.918.972 1.776 2.05 2.556 3.217zm-.614 28.396c.064-1.914.013-3.822-.12-5.645-.276.294-.563.532-.76.685-.327.263-.87.746-1.29.642-.04 1.805-.176 3.59-.432 5.327.166.037.435-.018.554-.024.316-.018.623-.086.926-.214.33-.135.657-.3.943-.58.064-.062.124-.124.18-.19zm-.316-6.996c.026-.037.043-.074.068-.11-.055-.55-.12-1.096-.187-1.622-.146-1.106-.334-2.195-.543-3.278-.086.123-.167.24-.244.33-.366.43-.806.655-1.263.734.213 1.903.32 3.848.316 5.786.316-.324.75-.556 1.033-.843.285-.293.575-.623.818-.996zm-.24 12.635c.24-1.352.39-2.758.484-4.17-.346.22-.713.36-1 .42-.592.136-1.155.215-1.624-.23-.265 1.626-.636 3.198-1.127 4.684.343.208.676.66 1.055.66.75-.006 1.51-.58 2.078-1.26.047-.05.094-.08.136-.104zm-4.133 27.075c2.325.807 4.736-1.963 3.085-5.32-1.195 1.326-2.47 2.55-3.82 3.687.305 0 .607.018.92.067.43.074.592.79.216 1.163-.132.135-.27.27-.4.404zm3.106-45.337c.133-.208.227-.49.33-.758-.287-1.315-.623-2.6-1.003-3.86-.21.332-.46.625-.65.81-.097.103-.2.188-.306.268-.016.012-.063.037-.11.055.294 1.376.538 2.795.725 4.25.385-.104.747-.318 1.016-.765zm.688 19.95c-.422.453-.896.77-1.472.82-.397.03-.823-.013-1.186-.276-.154-.116-.3-.226-.436-.39-.008-.008-.08-.11-.153-.222-.354.96-.76 1.884-1.224 2.752-.345.648-.72 1.284-1.118 1.89.39.637.854 1.273 1.413 1.536.543.256.987-.007 1.515.104.03.006.052.018.077.036.265-.385.52-.782.755-1.21.803-1.48 1.4-3.2 1.83-5.04zm-1.916-25.26c.068-.133.137-.28.213-.42-.46-1.414-.98-2.783-1.553-4.123-.03.056-.06.11-.085.166-.175.31-.38.57-.602.795.193.532.372 1.064.542 1.62.3.973.563 2 .807 3.06.064-.11.132-.22.196-.313.167-.258.333-.508.482-.784zm-.15-14.683c.27-1.455.547-4.422-1.05-4.122-.852.153-1.36.997-1.752 1.964.525.33 1.04.677 1.544 1.07.436.335.85.708 1.26 1.087zm-1.76 9.76c.067-.164.12-.36.166-.556-.235-.518-.478-1.032-.734-1.534-.367-.728-.755-1.473-1.17-2.22-.06.184-.127.35-.187.47-.094.178-.196.33-.307.466.69 1.26 1.31 2.6 1.855 4.03.145-.195.273-.41.376-.654zm.26 37.687c-.334-.05-.667-.196-.914-.367-.64-.44-1.135-1.125-1.524-1.95-1.006 1.424-2.15 2.654-3.43 3.46.218.93.72 1.542 1.455 1.756.106.03.174.11.225.208 1.52-.702 2.953-1.718 4.186-3.106zm-2.514-42.756c0-.05.005-.092.01-.134-.637-1.09-1.328-2.153-2.07-3.113-.14.356-.337.68-.568.937.824 1.058 1.592 2.183 2.287 3.382.073-.118.14-.24.192-.38.075-.215.14-.448.148-.692zm.14-7.474c-.16-2.33-1.38-4.483-2.648-1.333-.022.05-.047.093-.077.13.925.33 1.834.727 2.726 1.204zm-3.216 4.6c.2-.282.35-.643.482-1.034-1.382-1.627-2.93-2.856-4.667-3.236 1.177.98 2.286 2.123 3.297 3.236.304.337.598.68.888 1.033zm-.196-6.232c.34-3.982-2.663-4.117-3.23-.57 1.092.178 2.172.43 3.24.765-.015-.06-.02-.122-.01-.195zm.388 55.458c-.52-.495-.88-1.26-1.02-2.14-.62.324-1.267.557-1.94.654-.782.117-1.533.073-2.263-.067-.122.196-.254.38-.306.673-.093.545-.02 1.046.124 1.553.013.043.013.08.017.117.41.037.823.055 1.242.03 1.357-.074 2.77-.337 4.147-.82zm-4.446-56.156c-.042-2.476-1.988-3.97-2.334-1.67.005.33-.012.704-.047 1.114v.03h-.004c-.004.056-.004.098-.01.153-.008.068-.025.11-.042.16.817.043 1.627.11 2.438.214zm-1.817 54.805c.035-.154.082-.307.133-.448-1.17-.403-2.27-1.1-3.298-2.03-.345.25-.704.483-.986.88-.32.44-.538.973-.713 1.554 1.592 1.065 3.247 1.81 4.975 2.098-.188-.65-.278-1.383-.11-2.055zm-3.83-55.032c.835-.03 1.685-.042 2.534-.012-.04-.086-.073-.177-.077-.288-.022-.464-.005-.874.038-1.24-.25-3.03-3.434-1.114-2.534 1.296.03.085.04.165.04.244zm-1.298 54.804c.082-1.186.542-2.275 1.212-2.98-.704-.732-1.37-1.57-1.992-2.475-.435-.636-.85-1.29-1.255-1.957-.166.092-.345.14-.503.27-.252.213-.487.463-.692.77-.426.63-.776 1.35-.994 2.177-.038.147-.11.245-.192.306 1.42 1.486 2.89 2.825 4.416 3.89zm-3.703-7.357c.276-.39.647-.875 1.053-1.107-1.097-1.902-2.12-3.896-3.196-5.822-.034.05-.073.092-.124.122-1.59.917-2.722 2.312-3.242 4.672 1.38 1.712 2.796 3.437 4.26 5.027.003-.006 0-.012.003-.024.252-1.064.674-2.08 1.246-2.868zm-2.668-7.846c-.793-1.378-1.62-2.71-2.53-3.922-.525-.697-1.062-1.376-1.608-2.043-.422.367-.896.618-1.31 1.047-.584.6-1.135 1.272-1.702 1.914-.43.49-.862 1.02-1.34 1.413-.132.11-.243.164-.345.2.34.356.678.722 1.015 1.09 1.45 1.596 2.93 3.46 4.46 5.363.25-2.41 1.863-4.184 3.36-5.064zm-7.108-4.686c.585-.703 1.37-1.78 2.18-2.233-2.103-2.47-4.355-4.702-6.762-6.518-.452.366-1.01.39-1.502.636-.584.287-1.16.63-1.68 1.107-1.016.93-1.81 2.097-2.232 3.65 2.722 1.474 5.303 3.627 7.756 6.128.017-.048.04-.092.068-.134.21-.3.483-.54.71-.814.49-.605.967-1.23 1.462-1.822zm-5.91-9.7c-.36-.245-.72-.49-1.087-.716-2.948-1.785-6.037-2.942-9.19-3.553-1.548 2.39-2.257 5.198-1.962 8.488 2.576-.073 5.05.58 7.428 1.756.277-1.616 1.04-2.974 2.014-3.958.673-.685 1.774-1.663 2.798-2.018zm-.72 47.422c.005-.03.017-.05.03-.073-.58-.257-1.114-.6-1.583-1.058-1.06.88-2.24 1.333-3.468 1.56.022.048.04.103.052.164.66 4.415 4.095 2.617 4.97-.594zm-5.798.593c.004-.02.013-.03.017-.056-1.485.172-3.03.067-4.518.025.115.084.205.25.217.5.188 4.6 3.814 3.04 4.284-.47zm-4.894-.043c-.798-.018-1.574-.018-2.32.06-1.306.142-2.612.344-3.913.527.1.067.187.19.23.373.9 4.104 5.546 4.36 5.768-.446.012-.263.11-.428.234-.513zm-1.43-43.723c-.644-3.064.026-6.336 1.464-8.71-1.843-.28-3.7-.384-5.56-.31-.093 2.654-.264 5.283-.537 7.864.887-.024 1.66.57 2.192 1.548.824-.202 1.64-.33 2.44-.392zm-1.642-33.056c.384-.58-.6-.38-.99-.46-.994-.213-1.996-.366-3.003-.354-2.052.013-4.083.287-6.11.777-1.57.374-3.69.147-3.524 2.9.474-.056.95-.05 1.408-.202.13-.043.244-.006.334.073 3.18-.622 6.442-.408 9.583-1.454.712-.238 1.778-.47 2.303-1.278zm-3.733 22.617c.055-6.44.21-12.893.123-19.327 0-.073.013-.134.026-.196-.026.007-.06.013-.085.02-1.023.22-2.06.366-3.096.463.362 5.45.004 10.99-.09 16.446-.08 4.93.073 9.762.35 14.66.026-.018.047-.036.077-.048.29-.14.97.183 1.1-.392.214-.9.816-1.84 1.456-2.134.06-.024.115-.042.175-.067v-.007c-.054-2.636-.06-5.284-.042-7.926-.038.006-.076.006-.115.006.01-.495.013-.997.01-1.493.037-.005.075-.005.114-.005zm-.043 55.122c.03-.14.08-.24.15-.312-.995.134-1.985.256-2.98.324-.536.042-1.113.097-1.706.134.047.092.082.196.086.324.192 4.72 3.802 2.782 4.45-.47zM150.51 63.75c.04-4.116 1-11.248-1.505-14.165-.96-1.12-2.005 7.37-2.06 8.08-.167 2.183-.235 4.372-.333 6.56 1.297-.243 2.598-.42 3.9-.476zm-2.273 37.563c.082-.098.163-.183.244-.27-.635-4.94-.55-10.115-.452-15.11.103-5.463.158-10.955.363-16.417-.822.074-1.646.117-2.47.14-.204 5.157-.81 10.172-.746 15.395.06 4.973.49 9.865.733 14.813.83-.067 1.686.392 2.33 1.45zm-1.788 42.627c.008-.05.025-.08.038-.122-.968 0-1.937-.11-2.795-.556-.473.94-.977 1.846-1.51 2.72-.184.558-.34 1.15-.482 1.768 2.237 1.664 4.225-.556 4.75-3.81zm-1.225-43.9c-.486-2.75-.72-5.656-.832-8.567-.76.238-1.51.5-2.26.782.028.098.037.208.016.33-.564 3.083.66 6.13 1.8 8.66.35-.574.79-.99 1.275-1.204zm-3.814 45.044c.065-.19.133-.373.2-.55-7.68 4.097-15.184 8.232-23.516 8.605-.388.017-.687-.674-.46-1.15 2.683-5.64 3.477-14.918.806-20.985.947 4.807-1.37 10.47-3.328 14.3-1.737 3.394-3.69 6.562-5.786 9.515-1.805 2.545-3.946 4.722-5.658 7.37-1.48 2.293-2.295 4.862-1.18 7.835.993 2.64 2.358 5.045 3.85 7.13 3.103 4.355 6.81 7.676 10.898 9.786 7.266 3.762 14.993 3.396 22.28.277-11.354 1.302-22.327-4.336-30.293-16.623-.337-.514-.004-1.29.465-1.144 11.12 3.382 22.58 5.033 32.788-2.82-5.91 1.083-11.78 2.337-17.766 2.166-3.895-.11-8.767-.588-11.455-5.205-.222-.384-.175-.85.102-1.136 4.373-4.617 9.97-3.523 14.933-5.64 5.057-2.146 9.673-6.054 13.12-11.73zm1.494-44.12c-1.17-2.324-2.415-5.78-1.613-8.38-2.43.98-4.808 2.203-7.073 3.66-.72.457-1.433.94-2.137 1.436.047.605-.1 1.18-.05 1.798.05.624.156 1.235.323 1.81.29 1.028.67 1.988 1.1 2.905 3.034-1.846 6.187-3.076 9.45-3.23zm-.153 84.362c-4.475-2.74-2.218-12.415.487-17.7-10.022 7.915-21.27 6.765-32.242 3.61 8.456 11.98 20.035 16.855 31.756 14.09zm1.16-20.353c-3.65-2.342-4.385-10.44-3.314-16.592-2.9 4.02-6.425 7.1-10.26 8.99-5.133 2.527-11.31 1.475-15.95 5.823 3.005 4.342 8.406 4.312 12.365 4.128 5.782-.268 11.43-1.357 17.16-2.347zm-24.83-13.437c8.18-.654 15.632-4.862 23.248-8.9-6.737-3.503-16.144-2.28-21.883-8.867 1.3 5.718.614 12.745-1.365 17.766zm13.657-46.902c-.66-1.09-1.216-2.38-1.464-3.786-.128-.734-.26-1.682-.15-2.49-2.99 2.19-5.836 4.673-8.592 7.358.15 1.266.55 2.422 1.196 3.34.388.556 1.13.996 1.408 1.687 2.432-2.275 4.97-4.41 7.603-6.11zm-8.333 6.8c-.618-.355-1.254-1.437-1.583-2-.506-.874-.843-1.938-.967-3.05-2.407 2.384-4.745 4.922-7.044 7.546.28 1.058.656 2.146 1.24 2.917.295.39.645.765 1.042.9.28.097.554.042.806.2.27-.268.533-.538.802-.806 1.826-1.865 3.733-3.822 5.704-5.706zm-7.816 28c-.217.03-.435.042-.636.048-.512.018-1.028.018-1.54-.043-.056 2.3-.444 4.715-1.016 6.788 1.182-2.074 2.36-4.416 3.192-6.795zm.29-20.47c-.503-.233-1.003-.716-1.276-1.096-.656-.917-1.105-2.067-1.33-3.327-2.288 2.625-4.536 5.328-6.785 8.044.218.69.546 1.296.965 1.78.286.324.588.623.92.843.074.05.142.092.21.13 2.526-1.885 4.928-4.05 7.296-6.374zm-8.243 7.063c-.393-.367-.755-.844-.977-1.217-.3-.495-.52-1.034-.683-1.603-.166.202-.337.404-.503.612-2.014 2.44-4.233 4.94-6.652 6.726 1.865-.58 3.708-1.37 5.525-2.41 1.127-.64 2.22-1.35 3.29-2.11zm-4.373 33.343c-.056-.397-.12-.795-.188-1.186-.32.893-.61 1.804-.934 2.69.358-.52.738-1.02 1.122-1.504zm-.678-14.89c.324-1.31.678-2.6 1.054-3.86-.918-.043-1.835-.067-2.757-.092.023.073.04.14.044.226.085 1.755.59 2.985 1.66 3.725zm-2.6-3.726c.01-.092.03-.177.057-.25-1.147-.02-2.3-.02-3.45-.007-.423.006-.845.006-1.272.012.026.073.047.152.055.244.35 4.104 4.254 4.036 4.612 0zm-5.54 0c0-.092.012-.17.03-.245-1.554.012-3.112.024-4.67.024.006.012.01.024.014.042.508 4.073 4.612 5.217 4.625.178zm-5.54-.178l.014-.042c-1.515-.006-3.034-.006-4.552-.013.5.992.56 2.374 1.45 3.034 1.792 1.334 2.782-.678 3.09-2.978zm-3.242-22.39c.956-2.77 3.017-6.38 2.757-9.626-.048-.593-1.388-5.162-2.16-4.006-.44.654-.87 1.32-1.276 2.025-.94 1.63-1.822 3.32-2.718 4.995-1.28 2.397-2.65 4.593-4.326 6.41.4.532.768 1.1 1.062 1.663 1.148 2.178 1.655 4.88 2.76 7.088.978 1.945 2.458 2.526 4.007 2.807-.492-.874-.85-1.932-1.004-3.198-.35-2.838.005-5.59.896-8.16zm-1.373-12.494c.387-.66.792-1.297 1.206-1.92-.72-.32-1.412-.698-2.158-.87.242.98.575 1.89.95 2.79zm-.77 34.83c-.844-.007-1.69-.007-2.534-.007-.627 0-1.26.006-1.886 0 .022.073.04.153.047.24.307 3.747 4.39 4.378 4.194.304-.01-.263.07-.435.18-.54zm2.39-9.694c-2.18-.39-4.11-1.26-5.278-4.293-.844-2.196-1.43-4.765-2.628-6.63-1.365-2.128-3.836-4.978-5.2-1.516.336.206.652.494.933.873 1.122 1.498 1.67 3.468 2.24 5.456.926 3.21 1.87 4.946 4.305 5.766.397.134.286.948-.093.984-2.165.19-3.71-2.054-4.533-4.71-.477-1.54-.836-3.197-1.433-4.653-.294-.722-.61-1.468-1.075-2-1.06-1.216-3.07-1.345-2.89 1.322.342-.148.696-.326 1.067-.552.384-.232.657.496.49.936 1.208 3.95 2.825 8.16 5.555 10.318 3.038 2.396 5.96 1.49 8.538-1.304zm-3.85-21.112c.475-.887.95-1.768 1.43-2.636-.76-.05-1.518-.196-2.278-.27.273.973.555 1.94.85 2.906zm-.71 1.32c-.73-.085-1.434-.03-2.152.007.158 1.01.282 2.03.367 3.052.624-.978 1.208-2.012 1.784-3.058zm-3.09 29.547c.004-.025.017-.043.02-.068-1.765-.012-3.532-.055-5.293-.208.44 4.605 4.368 4.416 5.273.276zm-.968-23.375c.55-.624 1.058-1.303 1.544-2.006-.91-.33-1.783-.612-2.726-.69-.047.53-.103 1.063-.073 1.595.43.294.858.667 1.255 1.1zm-3.768-35.234c-.38-.795-.815-1.547-1.3-2.213-.338.893-.517 1.81-.654 2.746.073-.104.17-.177.3-.183.566-.043 1.112-.16 1.654-.35zm-2.056 5.15c.465-.226.938-.452 1.4-.715-.526-.876-1.025-1.855-1.434-2.833-.116.954-.23 1.926-.45 2.9-.07.328-.152.653-.23.983.223-.134.466-.214.714-.336zm.31 4.672c-.477-.813-1.006-1.56-1.488-2.367-.243 1.04-.49 2.073-.742 3.106.75-.207 1.493-.446 2.23-.74zm-5.004 47.43c.346 4.023 4.84 5.913 5.27.99-1.042-.117-2.078-.27-3.11-.49-.713-.152-1.44-.33-2.164-.543 0 .017.004.03.004.042zM71.11 97.57c-.434-.838-.89-1.737-1.155-2.68-.12.484-.24.968-.363 1.45-.158.606-.307 1.224-.452 1.835.665-.116 1.314-.38 1.97-.605zm-2.354 5.602c.465-.202.91-.44 1.33-.77-.524-.833-.942-1.744-1.275-2.76-.264 1.224-.502 2.453-.71 3.69.225-.056.464-.08.656-.16zm-.56 4.984c.355-.19.71-.39 1.046-.63-.448-.862-.91-1.736-1.4-2.53-.115.763-.226 1.534-.315 2.305-.047.41-.094.832-.14 1.254.255-.177.558-.27.81-.398zm-.153 4.912c.234-.08.452-.184.666-.312-.586-.844-1.106-1.835-1.46-2.9-.116 1.18-.2 2.38-.235 3.573.277-.338.66-.234 1.028-.362zm-.397 5.98c.436-.41.81-.96 1.182-1.497-.614-.715-1.216-1.473-1.813-2.232.03.912.102 1.805.234 2.68.072.458.16.868.26 1.24.034-.073.077-.134.136-.19zm-4.66 18c-.054 3.615 2.18 5.626 3.935 1.866-1.34-.465-2.653-1.095-3.83-2.05-.03.06-.068.123-.103.184zm-.122-7.95c.025-.05.05-.087.08-.123-.47-1.474-1.56-2.196-2.614-2.624.038 1.328-.307 2.417-.918 3.316.508.783 1.19 1.32 1.937 1.456.072.012.136.05.187.104.49-.65.934-1.358 1.327-2.13zm-2.996 8.788c.982-.062 1.877-.588 2.432-1.743-.59-.594-1.13-1.28-1.608-2.092-.022-.036-.03-.066-.043-.103-.658.624-1.366 1.175-2.113 1.645 0 .03-.005.062-.017.098-.567 1.566.33 2.257 1.348 2.196zm.883-5.72c-.233-.085-.468-.25-.643-.403-.46-.39-.85-.9-1.156-1.498-.58.636-1.31 1.15-2.136 1.566.11.484.24.973.44 1.383.204.422.464.46.725.752.097.104.122.263.105.422.956-.593 1.86-1.333 2.666-2.22zm-3.437 2.66c-.265-.158-.5-.494-.632-.818-.238-.6-.357-1.254-.425-1.92-.798.336-1.677.58-2.586.752-.018.673.012 1.358.11 2.012.056.367.166.716.196 1.09 1.144-.19 2.27-.558 3.337-1.115zm-1.302-9.062c.066-.073.138-.092.206-.092-.392-1.107-.712-2.27-.972-3.46-.52.775-1.118 1.38-1.77 1.852.067.422.106.856.255 1.247.225.59.52 1.03.95 1.298.08.05.124.122.145.208.414-.288.81-.63 1.186-1.052zm-1.94 1.498c-.435-.263-.793-.782-1.028-1.376-.15-.38-.294-.85-.363-1.327-.777.41-1.613.63-2.47.702.012.39.016.79.1 1.162.12.532.385 1.23.778 1.486 1.02.02 2.03-.17 2.982-.648zm-.91 8.777c-.067-.277-.088-.595-.1-.858-.048-.764-.018-1.51.092-2.25-1.13.17-2.29.232-3.413.19-.163.39-.368.75-.38 1.235-.013.556.136.972.37 1.376 1.12.3 2.28.403 3.43.306zm-3.084-8.22c-.12-.167-.226-.368-.315-.62-.19-.525-.358-1.234-.375-1.914-.67-.012-1.348-.122-2.018-.306-.064.202-.128.404-.15.618-.042.416-.008.942.163 1.303.02.038.025.074.02.105.232.116.466.22.713.305.64.24 1.298.41 1.963.51zm-1.48 6.537c.013-.416.09-.88.227-1.284-1.856-.153-3.516-.563-4.587-1.144 1.263 1.68 2.824 2.83 4.518 3.485-.11-.324-.175-.685-.158-1.058zm-1.91-8.862c.01-.22.028-.465.067-.698-1.152-.397-2.27-1.003-3.256-1.78.93 1.633 2.036 2.9 3.44 3.725-.18-.354-.274-.776-.252-1.247z" fill="#1d1d1b"/><path d="M218.683 100.97c3.03-.758 2.444 4.465.004 4.96-.05-1.712-.175-3.418-.363-5.112.098.11.222.183.36.153z" fill="#67c5ee"/><path d="M218.785 107.098c3.178.013 2.29 5.364-.324 5.505.184-1.83.265-3.676.248-5.53.026.013.05.025.077.025z" fill="#67c5ee"/><path d="M217.616 94.548c2.696-.886 2.76 3.927.746 5.32-.055.044-.098.087-.132.142-.234-1.877-.55-3.73-.934-5.54.085.078.192.115.32.078z" fill="#67c5ee"/><path d="M218.316 113.88c2.846 1.542 1.864 5.383-.956 5.096.422-1.67.738-3.37.956-5.095z" fill="#67c5ee"/><path d="M215.875 88.94c2.795-2 2.334 1.95 1.114 4.153-.1-.422-.197-.85-.304-1.272-.248-.978-.516-1.937-.81-2.88z" fill="#67c5ee"/><path d="M217.02 120.242c2.87.862 1.48 6.042-1.328 4.66-.128-.067-.252-.013-.34.092.63-1.487 1.184-3.07 1.667-4.752z" fill="#67c5ee"/><path d="M215.342 91.368c2.334 8.104 2.957 17.094 1.31 25.577-1.81 9.34-6.58 15.78-12.245 20.464.192-.454-.065-1.017-.453-.907-.623.177-1.242.3-1.847.508.277-.788.554-1.583.832-2.372.19-.544-.197-1.12-.58-.832-.32.24-.654.428-.99.606.353-.814.57-1.7.562-2.832-.004-.385-.273-.71-.542-.587-2.922 1.327-4.89 3.993-6.224 7.822-4.412-5.247-10.078-8.25-15.847-7.608-.602.068-.62 1.388 0 1.358 5.798-.294 11.276 2.25 15.683 7.724.197.25.577.274.705-.13 1.13-3.583 2.74-6.22 5.243-7.644-.216 1.156-.626 2.13-1.236 2.917-.337.508.085 1.273.512.954.473-.348.968-.6 1.46-.862-.253.722-.505 1.45-.756 2.172-.15.42.098 1.1.473.887.538-.3 1.088-.47 1.638-.618-.208.41-.413.83-.617 1.26-.222.476.145.972.473.886.657-.177 1.293-.305 1.933-.342-2.77 2.636-5.607 5.455-8.84 6.593-2.514.887-4.306-2.74-6.154-4.587-1.68-1.688-3.784-1.963-5.768-2.006-4.455-.098-8.832 2.416-13.29 1.376-5.7-1.32-4.638-12.134.648-12.782.405-.05.41-.862 0-.905-3.627-.405-6.04 4.812-5.405 9.62.163 1.234.52 2.212 1.012 2.983-3.44 1.712-7.13.93-10.7 1.248-2.228.197-4.442.624-6.665.875-2.035.233-4.122-.22-6.13 0-.01-.208-.078-.403-.236-.507-4-2.49-8.395-2.893-12.653-3.896-2.424-.57-4.81-1.42-7.032-2.93-1.72-1.168-3.093-2.85-4.373-4.727-.508-1.126-1.126-2.147-1.864-3.02-.388-.46-.913.078-.862.61-.17.24-.24.65-.038.985 1.638 2.685 1.502 6.018.542 9.37-.354-.013-.71.122-1.067.17-.507.08-1.024.093-1.536.154-.034-1.59-.25-3.088-.704-4.324-.196-.544-.742-.153-.66.404.724 4.85.267 9.626-1.106 14.17-.657 1.058-1.267 1.988-1.766 2.752-1.655 2.527-3.412 4.924-5.256 7.162-.11-.68-.243-1.346-.328-2.05-.055-.488-.538-.5-.695-.128-.618 1.456-1.058 3.028-1.633 4.495.137-9.436 3.055-17.65 5.3-26.402.144-.57-.466-.912-.667-.404-.66 1.68-1.284 3.45-1.864 5.27-7.048-.488-14.118-.176-21.21-.274-3.856-.062-7.705.042-11.553-.416-3.81-.453-8.132-1.48-11.093-5.23.982-1.04 1.835-2.26 2.496-3.638.022-.043.034-.086.047-.122.154-.128.252-.373.196-.697-.376-2.178-2.138-3.615-3.628-3.69-.128-.005-.217.075-.277.19-.077.026-.14.1-.158.222-.204 1.51-.836 2.593-1.676 3.388-4.035-8.727-3.272-20.984-1.096-30.445 2.29-9.95 7.535-20.103 15.54-19.333-.97 1.31-1.12 3.603-1.345 5.4-.492 3.884-1.644 7.603-2.62 11.272-1.178 4.453-1.916 9.113-2.33 13.828-.316 3.572-.534 7.768.648 11.082 1.058 2.973 3.413 2.648 5.235 1.474 1.093 4.9 3.384 9.395 6.686 11.615 3.255 2.183 6.578.287 9.138-2.808.53.496 1.118.875 1.732 1.17.022.06.06.11.116.127.127.03.255.06.383.092 1.135.446 2.337.605 3.447.526.162-.006.324-.037.486-.055 7.923-.055 16.004-5.7 22.306-11.86 8.14-7.962 16.374-17.808 26.618-18.854.038.104.107.177.2.165.043-.006.082-.024.11-.055-.084.294-.156.6-.203.936-.07.47.383.647.494.195.652-2.606 2.93-3.676 4.074-1.01.15.356.47.398.678.13.785-1.028 1.173-.888 2.04-1.028.21-.037.358-.172.426-.465.76-3.205 2.927-2.293 3.648.294.196.703.956.452.81-.318-.072-.385-.178-.74-.298-1.07 3.648-.435 6.984.434 10.108 2.133.068.112.175.16.273.148 5.353 3.01 10.072 8.452 14.654 13.962 3.328 4.006 6.74 8.036 10.816 10.372 3.933 2.257 8.465 1.72 12.347-.446 5.768-3.217 8.02-10.72 8.307-18.74.004-.03.01-.054.012-.085 0-.04 0-.078-.004-.115.068-2.27-.017-4.58-.226-6.843.026-.13.038-.252.026-.38-.01-.11-.043-.214-.094-.3-.192-1.87-.46-3.706-.798-5.45-1.092-5.668-3.28-10.848-5.858-15.374-1.67-2.93-3.83-5.89-6.375-7.217 2.304.545 4.56 1.384 6.72 2.784 5.073 3.28 8.26 9.652 10.325 16.844zm-147.056-.91c.79-1.212 1.638-3.793 1.272-5.48-.026-.11-.077-.197-.137-.252.133-.263.022-.74-.246-.593-1.67.9-2.296 3.975-1.61 6.19.12.385.535.422.722.134zm-1.318-5.065c.354-.697.794-1.688.704-2.575-.043-.434-.422-.434-.606-.226-.064.067-.12.16-.175.25-1.014.087-1.744 2.038-1.936 3.304-.068.446.218 1.02.572.82.584-.338 1.07-.845 1.442-1.573zm-4.928 36.493c.295.208.585-.208.44-.63-.158-.464-.512-.83-.815-1.18.162-.807.247-1.645.264-1.95.008-.215-.223-.306-.286-.11-.154.483-.278.978-.423 1.467-.348-.495-.69-1.02-1.018-1.547-.14-.226-.41.067-.295.324.312.69.66 1.32 1.033 1.94.012.017.02.036.03.048-.18.39-.52.782-.52 1.24 0 .13.046.264.127.326.345.25.62-.14.827-.753.193.344.397.662.636.826zm-3.405-2.635c.013-.195-.08-.366-.187-.464-.21-.202-.418-.416-.628-.63 0-.538-.034-1.076-.064-1.56-.03-.458-.465-.458-.495 0-.02.32-.037.643-.05.967-.273-.256-.55-.507-.836-.703-.277-.196-.598.312-.346.636.342.435.71.85 1.084 1.248-.055.404-.128.808-.14 1.217-.013.44.47.662.605.233.077-.244.132-.52.17-.8.107.11.214.22.32.323.116.11.27.086.38 0 .146-.105.176-.245.188-.465z" fill="#209dd8"/><path d="M214.335 84.72c1.664-1.04 2.257-.647 1.775 1.175-.15.654-.367 1.254-.64 1.798-.35-1.02-.73-2.013-1.135-2.972z" fill="#67c5ee"/><path d="M215.295 125.88c.96 2.392.755 3.774-.61 4.14-.64.21-1.255.142-1.843-.176.86-1.388 1.646-2.874 2.346-4.477-.026.177 0 .373.107.513z" fill="#67c5ee"/><path d="M212.01 80.14c1.574-.758 2.303-.276 2.175 1.48-.03.703-.157 1.34-.37 1.92-.55-1.193-1.153-2.33-1.805-3.4z" fill="#67c5ee"/><path d="M212.304 130.78c.636 1.956.362 3.203-.82 3.754-.648.152-1.203-.018-1.663-.52.875-1.034 1.694-2.128 2.462-3.29.01.018.014.037.022.055z" fill="#67c5ee"/><path d="M210.683 74.758c1.177.77.985 2.8.636 4.3-.782-1.17-1.64-2.245-2.557-3.217.443-1.027.99-1.7 1.92-1.082z" fill="#67c5ee"/><path d="M210.584 101.808c.133 1.823.184 3.73.12 5.645-.056.067-.116.13-.18.19-.285.28-.614.446-.942.58-.303.13-.61.197-.926.215-.12.006-.39.06-.555.024.257-1.736.394-3.522.432-5.327.422.104.964-.38 1.293-.642.196-.153.482-.39.76-.685z" fill="#9bd8f2"/><path d="M210.456 100.346c-.025.037-.042.074-.068.11-.243.374-.533.704-.82.997-.28.288-.716.52-1.03.844.003-1.94-.104-3.883-.317-5.785.457-.08.897-.306 1.264-.734.077-.092.158-.208.243-.33.21 1.083.397 2.17.542 3.278.067.526.13 1.07.186 1.62z" fill="#9bd8f2"/><path d="M210.632 108.92c-.094 1.414-.244 2.82-.483 4.17-.043.026-.09.057-.137.105-.568.68-1.327 1.254-2.078 1.26-.38 0-.713-.453-1.054-.66.49-1.487.863-3.06 1.127-4.685.47.446 1.033.367 1.626.232.286-.06.653-.2 1-.42z" fill="#9bd8f2"/><path d="M209.1 134.846c1.65 3.358-.76 6.128-3.085 5.32.133-.134.27-.268.4-.403.377-.373.214-1.09-.216-1.162-.313-.048-.616-.066-.92-.066 1.35-1.137 2.625-2.36 3.82-3.688z" fill="#67c5ee"/><path d="M209.45 94.07c-.102.27-.196.552-.33.76-.267.446-.63.66-1.014.764-.188-1.456-.43-2.874-.726-4.25.047-.018.094-.043.11-.055.108-.08.21-.167.308-.27.188-.184.44-.478.65-.808.38 1.26.716 2.545 1.002 3.86z" fill="#9bd8f2"/><path d="M208.336 115.6c.576-.05 1.05-.367 1.472-.82-.43 1.84-1.028 3.56-1.83 5.04-.235.428-.49.825-.756 1.21-.025-.018-.047-.03-.077-.036-.528-.11-.972.152-1.514-.104-.558-.263-1.023-.9-1.412-1.535.397-.606.773-1.242 1.118-1.89.465-.87.87-1.792 1.225-2.753.073.11.146.214.154.22.137.166.282.276.436.392.363.263.79.306 1.186.275z" fill="#9bd8f2"/><path d="M208.105 89.1c-.076.14-.145.287-.213.42-.15.277-.315.527-.482.784-.064.092-.132.2-.196.312-.243-1.058-.508-2.086-.806-3.06-.17-.555-.35-1.087-.542-1.62.222-.225.427-.483.6-.795.027-.054.057-.11.087-.164.572 1.34 1.092 2.71 1.552 4.123z" fill="#9bd8f2"/><path d="M206.693 70.715c1.596-.3 1.32 2.667 1.05 4.122-.41-.38-.823-.752-1.26-1.088-.502-.393-1.02-.74-1.543-1.072.393-.966.9-1.81 1.753-1.963z" fill="#67c5ee"/><path d="M206.147 84.04c-.047.197-.098.393-.166.558-.102.245-.23.46-.375.654-.546-1.43-1.165-2.77-1.856-4.03.11-.135.212-.288.306-.465.06-.122.128-.287.188-.47.414.746.802 1.492 1.17 2.22.255.5.5 1.015.733 1.534z" fill="#9bd8f2"/><path d="M205.328 121.917c.248.17.58.318.913.367-1.232 1.388-2.665 2.403-4.184 3.107-.05-.097-.12-.176-.226-.207-.734-.214-1.237-.826-1.455-1.755 1.28-.808 2.424-2.037 3.43-3.462.388.826.883 1.51 1.523 1.95z" fill="#9bd8f2"/><path d="M203.737 79.394c-.005.042-.01.085-.01.134-.008.245-.072.477-.148.69-.053.142-.12.264-.194.38-.695-1.198-1.463-2.323-2.286-3.38.23-.258.426-.582.567-.937.743.96 1.434 2.025 2.07 3.114z" fill="#9bd8f2"/><path d="M201.22 70.72c1.266-3.15 2.487-.996 2.65 1.334-.893-.477-1.802-.874-2.728-1.205.03-.037.056-.08.077-.13z" fill="#67c5ee"/><path d="M201.134 75.62c-.132.39-.282.752-.482 1.033-.29-.355-.584-.697-.888-1.033-1.01-1.113-2.12-2.257-3.297-3.236 1.736.38 3.285 1.61 4.667 3.236z" fill="#9bd8f2"/><path d="M197.226 69.853c.567-3.548 3.57-3.413 3.23.57-.01.072-.005.133.01.195-1.068-.337-2.148-.588-3.24-.765z" fill="#67c5ee"/><path d="M199.824 123.74c.14.88.5 1.645 1.02 2.14-1.378.483-2.79.746-4.147.82-.418.024-.832.006-1.24-.03-.006-.038-.006-.075-.02-.118-.144-.508-.216-1.01-.122-1.553.05-.295.183-.478.307-.674.73.14 1.48.183 2.26.067.675-.097 1.323-.33 1.942-.654z" fill="#9bd8f2"/><path d="M194.064 68.055c.346-2.3 2.292-.807 2.334 1.67-.81-.105-1.62-.172-2.436-.215.017-.05.034-.092.043-.16.004-.054.004-.096.01-.152h.003v-.03c.034-.41.05-.783.046-1.113z" fill="#67c5ee"/><path d="M194.713 124.082c-.05.14-.098.293-.132.446-.166.673-.076 1.407.112 2.055-1.728-.287-3.384-1.034-4.975-2.098.175-.58.393-1.113.712-1.553.28-.398.64-.63.985-.88 1.028.93 2.13 1.627 3.298 2.03z" fill="#9bd8f2"/><path d="M193.284 69.486c-.85-.03-1.7-.018-2.535.012 0-.08-.01-.16-.04-.244-.9-2.41 2.283-4.325 2.535-1.297-.043.367-.06.777-.038 1.24.004.112.038.203.077.29z" fill="#67c5ee"/><path d="M190.664 121.324c-.67.703-1.13 1.792-1.212 2.98-1.527-1.065-2.995-2.405-4.416-3.89.082-.062.154-.16.193-.306.216-.826.566-1.548.993-2.178.205-.305.44-.556.69-.77.16-.13.338-.178.505-.27.405.667.82 1.32 1.254 1.957.622.905 1.288 1.743 1.992 2.477z" fill="#9bd8f2"/><path d="M186.803 115.838c-.406.232-.777.716-1.054 1.107-.573.79-.995 1.804-1.247 2.868-.005.013 0 .02-.005.025-1.463-1.59-2.88-3.315-4.257-5.027.52-2.36 1.652-3.754 3.243-4.672.05-.03.09-.073.124-.122 1.075 1.926 2.1 3.92 3.196 5.822z" fill="#9bd8f2"/><path d="M180.552 105.178c.91 1.21 1.737 2.544 2.53 3.92-1.497.88-3.11 2.655-3.362 5.065-1.527-1.902-3.007-3.768-4.458-5.364-.338-.368-.674-.734-1.016-1.09.102-.036.213-.09.346-.2.477-.392.91-.924 1.34-1.414.567-.642 1.117-1.315 1.702-1.914.414-.43.887-.68 1.31-1.047.546.667 1.083 1.346 1.608 2.043z" fill="#9bd8f2"/><path d="M178.155 102.18c-.81.454-1.596 1.53-2.18 2.234-.495.593-.973 1.217-1.464 1.822-.225.276-.498.514-.708.813-.03.042-.05.085-.068.134-2.453-2.502-5.034-4.654-7.756-6.128.422-1.553 1.216-2.72 2.23-3.65.522-.478 1.098-.82 1.682-1.108.49-.244 1.05-.27 1.502-.636 2.406 1.816 4.66 4.048 6.763 6.52z" fill="#9bd8f2"/><path d="M168.977 93.998c.367.227.726.47 1.088.716-1.024.354-2.125 1.333-2.798 2.018-.973.985-1.737 2.342-2.014 3.957-2.377-1.175-4.85-1.83-7.428-1.756-.295-3.29.414-6.098 1.962-8.49 3.153.612 6.242 1.77 9.19 3.554z" fill="#9bd8f2"/><path d="M169.374 142.063c-.013.024-.026.042-.03.073-.875 3.21-4.31 5.01-4.97.593-.013-.062-.03-.117-.052-.166 1.23-.227 2.407-.68 3.47-1.56.468.46 1 .802 1.582 1.06z" fill="#67c5ee"/><path d="M163.563 142.674c-.004.025-.013.037-.017.055-.47 3.51-4.096 5.07-4.284.47-.012-.25-.102-.416-.217-.5 1.49.042 3.033.146 4.518-.026z" fill="#67c5ee"/><path d="M156.33 142.748c.748-.08 1.524-.08 2.322-.062-.124.086-.222.25-.235.514-.222 4.807-4.868 4.55-5.768.447-.044-.184-.13-.306-.232-.374 1.302-.183 2.607-.385 3.913-.525z" fill="#67c5ee"/><path d="M158.686 90.255c-1.438 2.373-2.108 5.645-1.463 8.71-.803.06-1.617.19-2.44.39-.534-.978-1.306-1.572-2.194-1.547.272-2.582.443-5.21.537-7.865 1.86-.073 3.716.03 5.56.312z" fill="#9bd8f2"/><path d="M154.59 65.45c.39.08 1.374-.122.99.46-.525.806-1.59 1.038-2.304 1.277-3.14 1.046-6.404.832-9.582 1.456-.09-.08-.205-.117-.333-.074-.456.152-.933.146-1.407.2-.167-2.75 1.954-2.525 3.524-2.898 2.026-.49 4.057-.764 6.11-.777 1.007-.013 2.01.14 3.003.355z" fill="#ec7c3c"/><path d="M151.97 69.198c.086 6.434-.067 12.886-.123 19.327-.038 0-.077 0-.115.006.004.496 0 .998-.01 1.493.04 0 .078 0 .116-.006-.017 2.642-.012 5.29.043 7.927v.006c-.06.024-.114.042-.174.067-.64.293-1.242 1.235-1.455 2.134-.13.576-.81.252-1.1.392-.03.013-.05.03-.076.05-.277-4.9-.43-9.73-.35-14.66.094-5.456.453-10.996.09-16.446 1.036-.098 2.073-.245 3.097-.465.027-.005.06-.01.086-.017-.013.06-.025.122-.025.195z" fill="#c6c5c5"/><path d="M151.953 143.335c-.068.073-.12.17-.15.312-.648 3.253-4.257 5.192-4.45.47-.003-.128-.037-.232-.084-.324.592-.037 1.168-.092 1.706-.135.994-.067 1.983-.19 2.977-.323z" fill="#67c5ee"/><path d="M149.005 49.585c2.505 2.917 1.545 10.048 1.506 14.164-1.3.054-2.6.232-3.9.476.1-2.19.168-4.38.334-6.562.056-.71 1.1-9.198 2.06-8.08z" fill="#ec7c3c"/><path d="M148.48 101.044c-.08.086-.162.17-.243.27-.644-1.06-1.502-1.518-2.33-1.45-.243-4.948-.673-9.84-.733-14.813-.064-5.222.542-10.237.747-15.392.824-.024 1.648-.068 2.47-.14-.204 5.46-.26 10.952-.362 16.414-.098 4.996-.183 10.17.452 15.112z" fill="#c6c5c5"/><path d="M146.488 143.818c-.013.043-.03.073-.04.122-.524 3.254-2.512 5.474-4.747 3.81.14-.618.3-1.21.483-1.767.533-.875 1.037-1.78 1.51-2.72.858.445 1.827.555 2.795.555z" fill="#67c5ee"/><path d="M144.393 91.472c.11 2.91.346 5.816.832 8.568-.486.214-.926.63-1.275 1.205-1.14-2.53-2.364-5.577-1.8-8.66.02-.122.01-.232-.018-.33.75-.28 1.502-.544 2.26-.783z" fill="#9bd8f2"/><path d="M141.61 144.534c-.067.177-.136.36-.2.55-3.447 5.676-8.063 9.584-13.12 11.73-4.96 2.116-10.56 1.022-14.932 5.64-.277.286-.324.752-.103 1.137 2.688 4.618 7.56 5.095 11.456 5.205 5.987.172 11.858-1.082 17.767-2.165-10.21 7.853-21.67 6.202-32.788 2.82-.47-.147-.803.63-.466 1.143 7.966 12.287 18.94 17.926 30.293 16.623-7.288 3.12-15.015 3.486-22.28-.276-4.088-2.11-7.795-5.43-10.897-9.785-1.493-2.085-2.86-4.49-3.853-7.13-1.113-2.974-.298-5.542 1.182-7.835 1.71-2.65 3.852-4.826 5.657-7.37 2.095-2.954 4.05-6.122 5.785-9.516 1.96-3.83 4.275-9.492 3.328-14.3 2.67 6.068 1.878 15.345-.806 20.984-.226.477.073 1.168.46 1.15 8.333-.372 15.837-4.507 23.517-8.604z" fill="#209dd8"/><path d="M141.29 92.585c-.8 2.6.445 6.055 1.614 8.38-3.263.152-6.416 1.382-9.45 3.228-.43-.917-.81-1.877-1.1-2.904-.167-.576-.274-1.188-.325-1.812-.048-.618.098-1.193.05-1.798.705-.495 1.417-.98 2.138-1.437 2.265-1.456 4.64-2.68 7.073-3.658z" fill="#9bd8f2"/><path d="M143.237 167.627c-2.705 5.284-4.962 14.96-.487 17.7-11.72 2.763-23.3-2.11-31.756-14.092 10.974 3.156 22.22 4.306 32.243-3.608z" fill="#ccebf8"/><path d="M140.596 148.38c-1.07 6.153-.337 14.25 3.315 16.592-5.73.99-11.378 2.08-17.16 2.35-3.96.182-9.36.213-12.364-4.13 4.638-4.348 10.816-3.296 15.948-5.822 3.836-1.89 7.36-4.97 10.262-8.99z" fill="#ccebf8"/><path d="M142.328 142.637c-7.616 4.037-15.07 8.245-23.248 8.9 1.98-5.022 2.667-12.05 1.365-17.768 5.74 6.587 15.146 5.363 21.883 8.867z" fill="#ccebf8"/><path d="M131.273 100.848c.248 1.407.803 2.697 1.464 3.786-2.632 1.7-5.17 3.834-7.603 6.11-.277-.692-1.02-1.132-1.408-1.69-.644-.916-1.045-2.072-1.195-3.338 2.758-2.685 5.604-5.168 8.594-7.357-.11.806.02 1.754.15 2.488z" fill="#9bd8f2"/><path d="M122.82 109.435c.33.563.966 1.645 1.584 2-1.97 1.883-3.878 3.84-5.704 5.705-.27.27-.533.54-.802.807-.252-.16-.525-.104-.807-.2-.396-.136-.746-.51-1.04-.9-.584-.77-.96-1.86-1.242-2.918 2.3-2.625 4.638-5.163 7.044-7.548.125 1.114.462 2.178.97 3.053z" fill="#9bd8f2"/><path d="M115.952 139.482c.2-.006.418-.018.636-.05-.832 2.38-2.01 4.723-3.19 6.796.57-2.074.96-4.49 1.014-6.79.512.062 1.028.062 1.54.044z" fill="#67c5ee"/><path d="M115.602 117.868c.273.38.773.862 1.276 1.095-2.368 2.324-4.77 4.49-7.296 6.373-.068-.037-.136-.08-.21-.13-.332-.22-.635-.518-.92-.842-.418-.484-.747-1.09-.965-1.78 2.25-2.716 4.497-5.42 6.784-8.043.227 1.26.676 2.41 1.332 3.328z" fill="#9bd8f2"/><path d="M107.658 124.81c.222.373.584.85.977 1.217-1.07.758-2.163 1.468-3.29 2.11-1.817 1.04-3.66 1.828-5.525 2.41 2.42-1.786 4.638-4.288 6.652-6.728.166-.21.337-.41.503-.613.162.57.384 1.108.683 1.603z" fill="#9bd8f2"/><path d="M104.638 140.62c-.376 1.26-.73 2.55-1.054 3.86-1.07-.74-1.575-1.97-1.66-3.726-.004-.086-.02-.153-.043-.226.923.024 1.84.048 2.758.092z" fill="#67c5ee"/><path d="M101.04 140.503c-.025.073-.046.16-.055.25-.358 4.037-4.262 4.105-4.612 0-.008-.09-.03-.17-.055-.244.427-.007.85-.007 1.27-.013 1.153-.012 2.305-.012 3.453.006z" fill="#67c5ee"/><path d="M95.473 140.51c-.017.073-.03.152-.03.244-.013 5.04-4.117 3.896-4.625-.177-.004-.018-.01-.03-.013-.043 1.558 0 3.115-.013 4.668-.025z" fill="#67c5ee"/><path d="M89.918 140.534c-.005.012-.01.024-.013.042-.307 2.3-1.297 4.312-3.09 2.98-.89-.66-.95-2.044-1.45-3.034 1.52.006 3.038.006 4.553.012z" fill="#67c5ee"/><path d="M89.42 108.56c.26 3.247-1.802 6.856-2.758 9.626-.892 2.57-1.246 5.32-.896 8.16.154 1.265.512 2.323 1.003 3.197-1.55-.28-3.03-.862-4.007-2.807-1.105-2.208-1.613-4.91-2.76-7.088-.295-.563-.662-1.13-1.063-1.663 1.676-1.816 3.046-4.013 4.326-6.41.896-1.676 1.78-3.364 2.718-4.996.405-.704.836-1.37 1.276-2.026.772-1.156 2.11 3.413 2.16 4.006z" fill="#209dd8"/><path d="M86.496 103.77c-.414.625-.82 1.26-1.208 1.922-.375-.9-.708-1.81-.95-2.79.746.172 1.437.55 2.158.87z" fill="#f5f6f6"/><path d="M81.986 140.516c.845 0 1.69 0 2.535.006-.11.104-.192.275-.18.538.198 4.073-3.886 3.444-4.193-.305-.008-.086-.025-.165-.046-.24.628.006 1.26 0 1.886 0z" fill="#67c5ee"/><path d="M81.632 126.535c1.17 3.033 3.098 3.902 5.278 4.293-2.577 2.795-5.5 3.7-8.538 1.303-2.73-2.158-4.347-6.365-5.555-10.316.167-.44-.106-1.17-.49-.936-.37.226-.725.403-1.067.55-.18-2.666 1.83-2.538 2.89-1.32.464.53.78 1.277 1.074 2 .597 1.454.956 3.11 1.433 4.653.824 2.655 2.368 4.9 4.532 4.71.378-.037.49-.85.092-.985-2.436-.82-3.38-2.556-4.305-5.767-.57-1.988-1.117-3.957-2.24-5.456-.28-.38-.597-.666-.934-.874 1.365-3.462 3.836-.612 5.2 1.517 1.2 1.865 1.784 4.434 2.63 6.63z" fill="#ea5d56"/><path d="M84.49 107.08c-.48.868-.955 1.75-1.43 2.636-.293-.967-.575-1.933-.848-2.905.76.074 1.52.22 2.28.27z" fill="#f5f6f6"/><path d="M80.198 111.043c.717-.037 1.42-.092 2.15-.006-.575 1.046-1.16 2.08-1.782 3.058-.086-1.022-.21-2.043-.368-3.052z" fill="#f5f6f6"/><path d="M79.28 140.516c-.003.024-.016.042-.02.067-.905 4.14-4.834 4.33-5.273-.275 1.76.153 3.528.195 5.294.208z" fill="#67c5ee"/><path d="M79.836 115.202c-.487.703-.994 1.382-1.544 2.006-.397-.435-.824-.807-1.255-1.1-.03-.533.026-1.065.073-1.597.942.08 1.817.36 2.726.692z" fill="#f5f6f6"/><path d="M73.223 79.76c.486.667.92 1.42 1.3 2.214-.54.19-1.087.306-1.654.35-.13.005-.228.078-.3.182.137-.935.316-1.853.653-2.745z" fill="#f5f6f6"/><path d="M73.867 86.41c-.46.262-.934.488-1.4.714-.247.122-.49.202-.712.336.077-.33.158-.654.23-.984.218-.973.334-1.946.45-2.9.408.98.907 1.958 1.432 2.833z" fill="#f5f6f6"/><path d="M71.29 89.43c.482.808 1.01 1.553 1.49 2.367-.74.294-1.482.532-2.232.74.25-1.034.5-2.068.742-3.107z" fill="#f5f6f6"/><path d="M73.044 140.216c-.43 4.923-4.924 3.033-5.27-.99 0-.014-.004-.026-.004-.044.725.214 1.45.39 2.163.544 1.033.22 2.07.373 3.11.49z" fill="#67c5ee"/><path d="M69.955 94.89c.264.943.72 1.842 1.156 2.68-.656.226-1.305.49-1.97.605.145-.61.294-1.23.452-1.835.124-.482.243-.966.363-1.45z" fill="#f5f6f6"/><path d="M69.558 84.977c.367 1.688-.482 4.27-1.27 5.48-.19.288-.603.25-.722-.134-.687-2.214-.06-5.29 1.608-6.19.27-.147.38.33.247.594.06.054.112.14.138.25zm-1.263 2.838c-.026-.104-.047-.208-.056-.305-.005-.05-.01-.092-.013-.14-.05.33-.085.666-.077 1.008.055-.184.102-.374.145-.563z" fill="#1d1d1b"/><path d="M70.087 102.402c-.422.33-.866.57-1.33.77-.193.08-.432.104-.658.16.208-1.236.447-2.465.71-3.69.334 1.016.752 1.928 1.277 2.76z" fill="#f5f6f6"/><path d="M69.242 107.527c-.337.238-.69.44-1.045.63-.25.128-.555.22-.81.397.046-.422.093-.844.14-1.254.09-.77.2-1.54.316-2.306.49.796.95 1.67 1.4 2.533z" fill="#f5f6f6"/><path d="M68.71 112.755c-.215.13-.433.233-.667.312-.367.128-.75.024-1.028.36.034-1.192.12-2.39.234-3.57.354 1.064.874 2.054 1.46 2.898z" fill="#f5f6f6"/><path d="M68.828 117.55c-.37.54-.747 1.09-1.182 1.498-.06.055-.102.117-.136.19-.1-.373-.188-.783-.26-1.24-.133-.876-.205-1.77-.235-2.68.597.758 1.2 1.517 1.813 2.232z" fill="#f5f6f6"/><path d="M67.672 82.818c.09.887-.35 1.878-.704 2.575-.37.728-.858 1.235-1.442 1.572-.354.202-.64-.373-.572-.82.192-1.265.922-3.216 1.937-3.302.057-.092.112-.183.176-.25.183-.21.563-.21.606.225z" fill="#1d1d1b"/><path d="M66.92 138.913c-1.753 3.76-3.988 1.75-3.933-1.866.034-.06.073-.122.102-.183 1.177.954 2.49 1.584 3.83 2.05z" fill="#67c5ee"/><path d="M62.945 128.975c-.03.037-.056.073-.08.122-.394.77-.838 1.48-1.328 2.13-.05-.056-.116-.093-.188-.105-.748-.135-1.43-.673-1.938-1.456.61-.9.956-1.988.917-3.315 1.053.43 2.145 1.15 2.615 2.625z" fill="#ccebf8"/><path d="M62.48 121.256c.145.422-.145.838-.44.63-.24-.165-.443-.483-.636-.826-.21.612-.482 1.003-.827.753-.08-.06-.128-.196-.128-.324 0-.46.34-.85.52-1.243-.01-.012-.018-.03-.03-.05-.372-.616-.72-1.246-1.033-1.937-.115-.257.154-.55.295-.325.328.526.67 1.052 1.02 1.548.144-.49.268-.985.422-1.468.064-.196.294-.104.285.11-.018.305-.103 1.144-.265 1.95.303.35.657.717.815 1.18z" fill="#1d1d1b"/><path d="M62.3 136.143c-.554 1.155-1.45 1.682-2.43 1.743-1.02.06-1.917-.63-1.35-2.196.013-.037.018-.067.018-.098.746-.47 1.454-1.02 2.112-1.645.012.037.02.067.042.104.478.814 1.02 1.5 1.61 2.093z" fill="#67c5ee"/><path d="M60.107 131.763c.175.153.41.318.644.404-.805.887-1.71 1.627-2.665 2.22.017-.16-.01-.318-.107-.422-.26-.293-.52-.33-.725-.752-.2-.41-.33-.9-.44-1.382.828-.415 1.558-.93 2.138-1.565.308.6.696 1.107 1.157 1.498z" fill="#ccebf8"/><path d="M58.448 118.786c.106.098.2.27.187.465-.012.22-.042.36-.187.465-.11.086-.265.11-.38 0-.107-.104-.213-.214-.32-.324-.04.282-.094.557-.17.802-.138.428-.62.208-.607-.232.014-.41.087-.813.142-1.217-.376-.398-.742-.813-1.084-1.248-.25-.324.07-.832.346-.636.286.195.563.445.836.702.013-.324.03-.648.05-.967.03-.458.467-.458.496 0 .03.484.064 1.022.064 1.56.21.215.418.43.628.63z" fill="#1d1d1b"/><path d="M56.68 134.008c.134.324.368.66.633.82-1.067.556-2.193.923-3.336 1.112-.03-.373-.14-.72-.196-1.088-.098-.654-.127-1.34-.11-2.012.908-.172 1.787-.416 2.585-.753.068.667.187 1.322.426 1.92z" fill="#ccebf8"/><path d="M56.216 125.672c-.068 0-.14.018-.205.092-.374.422-.77.764-1.185 1.052-.02-.086-.064-.16-.145-.208-.43-.27-.725-.71-.95-1.297-.15-.39-.19-.824-.257-1.246.653-.47 1.25-1.077 1.77-1.853.26 1.193.58 2.355.973 3.462z" fill="#ccebf8"/><path d="M53.042 125.886c.235.594.593 1.113 1.028 1.376-.95.477-1.963.667-2.982.648-.393-.257-.657-.954-.777-1.486-.084-.373-.088-.77-.1-1.162.857-.073 1.693-.294 2.47-.703.068.476.213.947.362 1.326z" fill="#ccebf8"/><path d="M53.06 135.182c.012.263.033.58.102.857-1.152.096-2.313-.008-3.43-.307-.235-.404-.384-.82-.372-1.376.013-.483.218-.844.38-1.235 1.122.043 2.282-.018 3.413-.19-.11.74-.14 1.486-.094 2.25z" fill="#ccebf8"/><path d="M49.76 127.2c.09.252.197.454.317.62-.666-.098-1.323-.27-1.963-.508-.247-.086-.482-.19-.712-.306.004-.03 0-.067-.022-.104-.17-.36-.204-.886-.162-1.303.022-.215.086-.416.15-.62.67.185 1.348.295 2.018.308.017.678.183 1.388.375 1.913z" fill="#ccebf8"/><path d="M48.822 133.073c-.137.403-.213.868-.226 1.284-.017.373.047.733.158 1.058-1.694-.655-3.256-1.805-4.518-3.486 1.07.58 2.73.99 4.586 1.143z" fill="#ccebf8"/><path d="M46.753 124.797c-.038.233-.055.477-.068.698-.02.47.073.893.252 1.248-1.404-.826-2.51-2.092-3.44-3.725.986.776 2.104 1.382 3.256 1.78z" fill="#ccebf8"/></g></g></svg>