<svg xmlns="http://www.w3.org/2000/svg" xmlns:xlink="http://www.w3.org/1999/xlink" width="250" height="250" viewBox="0 0 249.99999 250" enable-background="new 0 0 595.28 841.89"><defs><filter id="a" color-interpolation-filters="sRGB"><feColorMatrix values="0.21 0.72 0.072 0 0 0.21 0.72 0.072 0 0 0.21 0.72 0.072 0 0 0 0 0 1 0"/></filter></defs><g transform="translate(-67.779 -203.051)" filter="url(#a)"><g><g><path d="M202.69 351.827c.354-.324 1.656-.693 1.718-.707.575-.128.614-.23.616-.683 0-.298-.13-.436-.237-.728-.124-.336-.252-.683-.232-1.087.04-.72.356-1.347.85-1.677.197-.15.456-.24.703-.24.366 0 .64.19.75.525.08.226.067.446.053.678l-.008.177c-.014.32.026.583.123.833.184.5.552.963.853 1.312l.164.2c.23.278.468.568.738.8.133.1.274.137.457.175l1.093.012 1.933.02v4.428s-1.177 0-1.933-.006c-.27-.002-.468-.004-.505-.006-.12-.007-.238-.014-.345-.014h-.05c-.1.02-.203.03-.31.043-.094.01-.193.02-.296.04-.115.02-.235.13-.35.234-.067.06-.133.12-.198.164l-.196.137c-.2.14-.408.286-.644.388-.29.12-.61.16-.923.2-.15.018-.69.146-.94.146-.172 0-.322-.012-.46-.038-.497-.136-.814-.524-.814-.97-.253-.097-.48-.3-.622-.56-.128-.233-.31-.48-.263-.702-.48-.302-.774-.87-.64-1.355-.212-.14-.36-.375-.41-.66-.07-.402.058-.823.325-1.078z" fill="#f4dec1"/><g><path fill="#fff" d="M211.855 350.886l-1.29-.05.263 5.527 1.205-.067z"/><path fill="#6cae7e" d="M211.84 350.575l.035 6.032 31.78.58v-6.82z"/><g fill="#fff"><circle cx="213.425" cy="355.483" r=".552" opacity=".1"/><circle cx="215.214" cy="355.544" r=".552" opacity=".1"/></g></g><g><defs><path id="b" d="M211.98 350.892l-1.47-.044.106 5.532 1.417-.084z"/></defs><clipPath id="c"><use xlink:href="#b" overflow="visible" width="100%" height="100%"/></clipPath><path clip-path="url(#c)" opacity=".1" fill="#231f20" d="M211.647 350.57l-.042 6.04 11.07.902 3.665-6.718z"/></g></g><g><path d="M195.925 317.813c.354-.324 1.656-.693 1.718-.707.575-.128.614-.23.616-.683 0-.298-.13-.436-.238-.728-.124-.335-.252-.682-.232-1.086.04-.72.356-1.348.85-1.678.197-.15.456-.24.703-.24.366 0 .64.19.75.525.08.226.067.445.053.677l-.01.177c-.013.32.027.584.124.834.184.5.552.963.853 1.312l.164.2c.23.278.468.568.738.8.133.1.274.137.457.175.02.002.506.007 1.093.013l1.933.02v4.427s-1.177 0-1.933-.006c-.27 0-.468-.003-.504-.005-.12-.008-.237-.015-.344-.015h-.05c-.1.02-.203.03-.31.043-.094.01-.193.02-.296.04-.115.02-.235.13-.35.234-.067.06-.133.12-.198.164-.066.044-.13.09-.196.136-.2.14-.408.286-.644.388-.29.12-.61.16-.923.2-.153.018-.69.146-.942.146-.17 0-.32-.013-.46-.04-.496-.135-.813-.523-.813-.97-.252-.096-.478-.3-.62-.56-.13-.232-.31-.48-.264-.7-.48-.303-.773-.87-.64-1.356-.21-.14-.358-.375-.41-.66-.07-.4.058-.822.325-1.077z" fill="#f4dec1"/><g><path fill="#fff" d="M205.09 316.873l-1.29-.05.262 5.526 1.205-.067z"/><path fill="#f15d43" d="M205.075 316.56l.035 6.033 30.432.58v-6.818z"/><g fill="#fff"><circle cx="206.659" cy="321.47" r=".552" opacity=".1"/><circle cx="208.448" cy="321.531" r=".552" opacity=".1"/></g></g><g><defs><path id="d" d="M205.215 316.878l-1.472-.043.107 5.532 1.417-.084z"/></defs><clipPath id="e"><use xlink:href="#d" overflow="visible" width="100%" height="100%"/></clipPath><path clip-path="url(#e)" opacity=".1" fill="#231f20" d="M204.88 316.557l-.04 6.038 11.07.904 3.665-6.72z"/></g></g><g><path d="M192.257 334.51c.354-.325 1.655-.694 1.718-.708.575-.128.614-.23.616-.683.002-.3-.128-.437-.236-.73-.124-.334-.252-.68-.232-1.086.04-.72.356-1.347.85-1.677.197-.15.456-.24.703-.24.366 0 .64.19.75.525.08.226.067.445.053.677l-.01.176c-.013.32.027.583.124.833.184.497.552.962.853 1.31l.164.2c.23.28.467.57.737.8.133.1.274.138.457.176l1.093.012 1.933.02v4.428s-1.177 0-1.933-.006c-.27 0-.468-.003-.504-.005-.12-.007-.238-.014-.345-.014h-.05c-.1.022-.203.032-.31.044-.094.01-.193.02-.296.04-.115.02-.235.13-.35.234-.067.06-.133.12-.198.164-.066.044-.13.09-.196.136-.2.14-.408.286-.644.388-.29.12-.612.16-.923.198-.15.02-.688.147-.94.147-.17 0-.32-.012-.46-.038-.496-.136-.813-.524-.813-.97-.253-.097-.478-.3-.62-.56-.13-.233-.31-.48-.264-.702-.48-.302-.774-.87-.64-1.356-.212-.14-.36-.375-.41-.66-.07-.4.058-.82.324-1.075z" fill="#f4dec1"/><g><path fill="#fff" d="M201.422 333.57l-1.29-.05.263 5.525 1.206-.066z"/><path fill="#102f41" d="M201.408 333.257l.034 6.032 34.1.58v-6.82z"/><g fill="#fff"><circle cx="202.992" cy="338.166" r=".552" opacity=".1"/><circle cx="204.781" cy="338.226" r=".553" opacity=".1"/></g></g><g><defs><path id="f" d="M201.548 333.574l-1.472-.043.107 5.532 1.418-.083z"/></defs><clipPath id="g"><use xlink:href="#f" overflow="visible" width="100%" height="100%"/></clipPath><path clip-path="url(#g)" opacity=".1" fill="#231f20" d="M201.214 333.253l-.042 6.038 11.07.905 3.666-6.718z"/></g></g><g><path d="M214.314 346.823c.354.324 1.655.693 1.718.707.575.128.614.23.616.683 0 .298-.13.436-.237.728-.123.336-.25.683-.23 1.088.038.72.355 1.347.85 1.677.196.15.455.24.702.24.366 0 .64-.19.75-.525.08-.226.067-.445.053-.677l-.01-.177c-.013-.32.027-.583.124-.833.183-.5.55-.963.852-1.312l.164-.198c.23-.28.468-.57.738-.8.133-.1.274-.138.457-.176l1.094-.012 1.933-.02v-4.427s-1.177 0-1.933.005c-.27 0-.468.003-.505.005-.122.007-.24.013-.346.013h-.05c-.1-.02-.203-.03-.31-.043-.094-.01-.193-.02-.296-.04-.115-.02-.235-.13-.35-.234-.067-.06-.133-.12-.198-.164l-.196-.137c-.2-.14-.408-.286-.644-.388-.29-.12-.61-.16-.923-.198-.15-.02-.69-.147-.94-.147-.172 0-.322.013-.46.04-.497.135-.814.523-.814.97-.252.096-.478.3-.62.56-.13.232-.31.48-.264.7-.48.303-.775.87-.642 1.357-.21.14-.358.375-.41.66-.068.4.06.82.326 1.076z" fill="#f4dec1"/><g><path fill="#fff" d="M223.015 342.22l-1.29-.048.263 5.526 1.205-.066z"/><path fill="#272625" d="M223 341.91l.035 6.032 29.03.58v-6.818z"/><g fill="#fff"><circle cx="224.585" cy="346.819" r=".552" opacity=".1"/><circle cx="226.374" cy="346.88" r=".552" opacity=".1"/></g></g><g><defs><path id="h" d="M223.14 342.227l-1.47-.043.106 5.532 1.417-.084z"/></defs><clipPath id="i"><use xlink:href="#h" overflow="visible" width="100%" height="100%"/></clipPath><path clip-path="url(#i)" opacity=".1" fill="#231f20" d="M222.807 341.906l-.042 6.038 11.07.904 3.665-6.718z"/></g></g><g><path d="M201.358 330.66c.354.324 1.655.693 1.718.707.575.128.614.23.616.683 0 .298-.13.436-.237.728-.124.335-.252.682-.232 1.086.04.72.356 1.347.85 1.677.197.152.456.242.703.242.366 0 .64-.192.75-.526.08-.226.067-.445.052-.677l-.01-.178c-.013-.32.027-.583.124-.833.184-.5.552-.964.853-1.313l.164-.2c.23-.278.467-.568.737-.8.133-.1.274-.137.457-.175l1.093-.012 1.933-.02v-4.427s-1.177 0-1.933.006c-.27 0-.468.002-.504.004-.12.007-.238.014-.345.014h-.05c-.1-.02-.203-.03-.31-.043-.094-.01-.193-.02-.296-.04-.115-.02-.235-.13-.35-.234-.067-.06-.133-.12-.198-.163-.066-.044-.13-.09-.196-.136-.2-.14-.408-.285-.644-.386-.29-.12-.61-.16-.923-.2-.15-.018-.688-.146-.94-.146-.17 0-.32.013-.46.04-.496.135-.813.523-.813.97-.252.096-.478.3-.62.56-.13.232-.31.48-.264.7-.48.303-.774.87-.64 1.356-.212.14-.36.376-.41.66-.07.4.058.82.325 1.076z" fill="#f4dec1"/><g><path fill="#fff" d="M210.06 326.06l-1.29-.05.263 5.526 1.205-.067z"/><path fill="#0c8486" d="M210.045 325.747l.035 6.032 29.03.58v-6.82z"/><g fill="#fff"><circle cx="211.629" cy="330.656" r=".552" opacity=".1"/><circle cx="213.419" cy="330.717" r=".552" opacity=".1"/></g></g><g><defs><path id="j" d="M210.185 326.065l-1.472-.044.107 5.533 1.418-.084z"/></defs><clipPath id="k"><use xlink:href="#j" overflow="visible" width="100%" height="100%"/></clipPath><path clip-path="url(#k)" opacity=".1" fill="#231f20" d="M209.85 325.743l-.04 6.04 11.07.902 3.665-6.718z"/></g></g></g><path d="M227.05 287.363c0 9.82-7.96 17.78-17.78 17.78-5.25 0-9.97-2.276-13.225-5.896-.785-.873-4.404-.313-5.006-1.328-.602-1.017 1.815-3.608 1.423-4.74-.63-1.823-.973-3.78-.973-5.817 0-9.82 7.96-17.78 17.78-17.78s17.78 7.96 17.78 17.78z" fill="#fff"/><ellipse cx="158.037" cy="362.627" rx="25.418" ry="3.69" opacity=".1" fill="#231f20"/><g><ellipse transform="matrix(.965 -.263 .263 .965 -84.771 48.902)" cx="140.128" cy="340.835" rx="2.602" ry="2.023" fill="#f3dcc0"/><ellipse transform="matrix(1 -.006 .006 1 -1.806 1.122)" cx="183.914" cy="298.055" rx="2.448" ry="1.904" fill="#f3dcc0"/><path d="M185.883 299.186l-3.913.03c0 .043.028 4.218-.34 8.664-.67 8.113-1.786 8.598-1.934 8.726-1.973 1.7-6.836 1.256-8.364 1.086-1.432-.19-3.7-.337-6.35-.24-1.463.053-3.927.824-6.28.81-2.674-.017-7.3-.865-8.24-.88-2.55-.037-4.718.07-6.085.227-2.556.155-8.6 2.63-9.228 9.282-.547 5.786 2.44 13.194 2.568 13.507l3.624-1.478c-.028-.068-2.404-6.286-1.95-11.11.372-3.93 5.078-5.06 5.135-5.077.787-.122 1.568.013 2.29 1.062 1.07 1.554.217 15.997.217 15.997s5.373 1.024 11.638.717c6.265-.306 11-1.59 11-1.59s-.343-14.562-.168-15.382c.175-.82 5.744-1.077 5.75-1.078l.782-.032c1.976 0 4.216-.443 6.01-1.99 1.143-.985 2.75-3.33 3.485-12.263.383-4.618.354-8.813.353-8.99z" fill="#272625"/><path d="M147.034 339.782c0 3.026.263 8.99.186 10.324-.077 1.334-.384 9.735-.384 9.735l3.173.325s.706-8.92.724-10.06c.018-1.137-.07-4.26.907-5.378.978-1.117 13.102-1.84 13.924-1.262.822.58.874 7.104.874 8.48l.004 9.346h3.283l.357-10.144-.41-12.226s-9.26 1.57-22.638.862z" fill="#1c1c1b"/><g><path d="M148.6 362.393c-1.906.06-4.104.2-3.465-1.677.36-1.062 1.714-1.893 3.615-1.73 1.9.16 3.365 1.2 3.27 2.317-.095 1.117-.987 1.01-3.42 1.09z" fill="#272625"/><path d="M152.37 362.153c-.002.274-.226.493-.5.49l-6.584-.002c-.273-.002-.492-.226-.49-.5.003-.274.227-.493.5-.49l6.585.002c.274.003.493.227.49.5z" fill="#050505"/></g><g><path d="M168.384 362.88c-1.907.062-4.105.202-3.466-1.676.36-1.062 1.714-1.893 3.615-1.73 1.9.16 3.365 1.2 3.27 2.317-.096 1.118-.987 1.013-3.42 1.09z" fill="#272625"/><path d="M172.153 362.64c-.003.275-.227.494-.5.49h-6.585c-.273-.004-.492-.228-.49-.502.004-.274.228-.493.502-.49l6.584.002c.273.004.492.228.49.5z" fill="#050505"/></g><path stroke-miterlimit="10" fill="none" stroke="#010101" stroke-width="1.597" d="M159.38 328.357l.096 11.49"/><circle cx="161.048" cy="332.59" r=".543" fill="#010101"/><circle cx="161.048" cy="330.074" r=".543" fill="#010101"/><circle cx="161.048" cy="335.482" r=".543" fill="#010101"/><circle cx="161.048" cy="338.398" r=".543" fill="#010101"/><path d="M151.39 318.172c2.47 1.968 7.99 10.84 7.99 10.84s5.8-8.542 7.886-10.945c-.928 0-13.557.105-15.876.105z" fill="#fff"/><g><g><ellipse transform="matrix(.999 -.052 .052 .999 -16.377 8.715)" cx="159.534" cy="319.552" rx="2.205" ry="1.346" fill="#002e40"/></g></g><path fill="#002e40" d="M159.38 329.012l1.348-3.328-.21-5.697h-1.595l-.886 5.706z"/><path d="M167.473 317.963s-1.93 7.372-2.668 8.804c-.738 1.432-5.425 2.244-5.425 2.244s.94-3.778 3.7-6.58c2.757-2.805 4.393-4.467 4.393-4.467z" fill="#3a3b3b"/><path d="M151.287 317.963s1.93 7.372 2.668 8.804c.738 1.432 5.425 2.244 5.425 2.244s-.94-3.778-3.7-6.58l-4.393-4.467z" fill="#3a3b3b"/><g><path d="M147.385 316.868c1.428 2.06 9.783 1.996 16.195 1.954 7.715-.05 7.63-7.16 7.636-10.156.024-11.09-3.66-14.49-5.485-17.534-1.825-3.045-14.36-.72-16.9 2.482-2.54 3.2-3.985 6.484-4.634 11.344-.65 4.862 1.62 9.646 3.19 11.91z" fill="#f3dcc0"/><path d="M150.938 296.762c27.784 1.135 16.535-13.232 16.535-13.232s-4.166 7.08-12.137 1.312c-3.71-2.685-14.07.73-13.12 8.68-11.408 13.06 4.52 22.825 5.745 23.87.718-2.634.337-3.108.402-3.99.064-.858-.688-1.74-.908-1.956-2.337-2.3-3.397-5.284-1.588-6.68 1.98-1.527 3.57 1.845 4.016 1.022 1.797-3.313 1.512-5.665 1.056-9.026z" fill="#272625"/><g fill="#272625"><ellipse transform="matrix(.999 -.055 .055 .999 -16.266 9.541)" cx="166.443" cy="302.4" rx=".875" ry="1.673"/><ellipse transform="matrix(.994 -.112 .112 .994 -32.959 19.594)" cx="158.464" cy="304.071" rx=".901" ry="1.724"/></g><path d="M158.85 310.757c-.134.392.027 2.483 3.942 2.78 4.142.316 4.79-2.987 4.476-3.504-.313-.517-8.575.108-8.418.724" fill="#f0582e"/><path d="M161.356 308.177s7.603-.56 10.135-1.087c2.534-.525 2.91-4.514.374-4.295-2.536.22-4.186.524-4.186.524l-6.322 4.857z" fill="#f3dcc0"/></g></g><path fill="none" d="M127.612 261.03h115.943V376.97H127.612z"/></g></svg>