<?xml version="1.0" encoding="UTF-8" standalone="no"?>
<!-- Generator: Adobe Illustrator 17.0.0, SVG Export Plug-In . SVG Version: 6.00 Build 0)  -->

<svg
   xmlns:dc="http://purl.org/dc/elements/1.1/"
   xmlns:cc="http://creativecommons.org/ns#"
   xmlns:rdf="http://www.w3.org/1999/02/22-rdf-syntax-ns#"
   xmlns:svg="http://www.w3.org/2000/svg"
   xmlns="http://www.w3.org/2000/svg"
   xmlns:xlink="http://www.w3.org/1999/xlink"
   xmlns:sodipodi="http://sodipodi.sourceforge.net/DTD/sodipodi-0.dtd"
   xmlns:inkscape="http://www.inkscape.org/namespaces/inkscape"
   version="1.1"
   x="0px"
   y="0px"
   width="250"
   height="250"
   viewBox="0 0 249.99999 250"
   enable-background="new 0 0 595.28 841.89"
   xml:space="preserve"
   id="svg2"
   inkscape:version="0.91pre3 r13670"
   sodipodi:docname="equipos.svg"><metadata
     id="metadata214"><rdf:RDF><cc:Work
         rdf:about=""><dc:format>image/svg+xml</dc:format><dc:type
           rdf:resource="http://purl.org/dc/dcmitype/StillImage" /><dc:title></dc:title></cc:Work></rdf:RDF></metadata><defs
     id="defs212" /><sodipodi:namedview
     pagecolor="#ffffff"
     bordercolor="#666666"
     borderopacity="1"
     objecttolerance="10"
     gridtolerance="10"
     guidetolerance="10"
     inkscape:pageopacity="0"
     inkscape:pageshadow="2"
     inkscape:window-width="640"
     inkscape:window-height="480"
     id="namedview210"
     showgrid="false"
     inkscape:zoom="0.28032165"
     inkscape:cx="235.21173"
     inkscape:cy="420.94501"
     inkscape:window-x="0"
     inkscape:window-y="0"
     inkscape:window-maximized="0"
     inkscape:current-layer="svg2" /><g
     id="Capa_1"
     display="none"
     style="display:none"
     transform="translate(0,-591.89001)"><path
       display="inline"
       d="m 261.115,371.399 c 0,8.238 -6.977,14.916 -15.583,14.916 l -113.35,0 c -8.606,0 -15.583,-6.678 -15.583,-14.916 l 0,-107.195 c 0,-8.238 6.977,-14.916 15.583,-14.916 l 113.35,0 c 8.606,0 15.583,6.678 15.583,14.916 l 0,107.195 z"
       id="path5"
       inkscape:connector-curvature="0"
       style="clip-rule:evenodd;display:inline;fill:#80a5c6;fill-rule:evenodd" /><path
       display="inline"
       d="m 254.906,366.839 c 0,7.537 -6.377,13.647 -14.244,13.647 l -103.61,0 c -7.867,0 -14.244,-6.11 -14.244,-13.647 l 0,-98.075 c 0,-7.537 6.377,-13.647 14.244,-13.647 l 103.61,0 c 7.867,0 14.244,6.11 14.244,13.647 l 0,98.075 z"
       id="path7"
       inkscape:connector-curvature="0"
       style="clip-rule:evenodd;display:inline;fill:#cee8ef;fill-rule:evenodd" /></g><g
     id="Capa_2"
     transform="translate(-67.779281,-203.05098)"><g
       id="g10"><g
         id="g12"><path
           d="m 202.69,351.827 c 0.354,-0.324 1.656,-0.693 1.718,-0.707 0.575,-0.128 0.614,-0.231 0.616,-0.683 0.001,-0.298 -0.129,-0.436 -0.237,-0.728 -0.124,-0.335 -0.252,-0.682 -0.232,-1.086 0.039,-0.72 0.356,-1.347 0.85,-1.677 0.197,-0.151 0.456,-0.241 0.703,-0.241 0.366,0 0.64,0.192 0.751,0.526 0.079,0.225 0.066,0.445 0.052,0.677 -0.003,0.057 -0.007,0.116 -0.009,0.177 -0.014,0.319 0.026,0.583 0.123,0.833 0.184,0.499 0.552,0.963 0.853,1.312 l 0.164,0.199 c 0.23,0.279 0.468,0.569 0.738,0.8 0.133,0.101 0.274,0.138 0.457,0.176 0.02,0.001 0.506,0.006 1.093,0.012 0.921,0.009 1.933,0.021 1.933,0.021 l 0,4.427 c 0,0 -1.177,-0.001 -1.933,-0.006 -0.271,-10e-4 -0.468,-0.003 -0.505,-0.005 -0.121,-0.007 -0.238,-0.014 -0.345,-0.014 l -0.05,0 c -0.101,0.021 -0.203,0.031 -0.31,0.043 -0.094,0.01 -0.193,0.02 -0.296,0.039 -0.115,0.021 -0.235,0.13 -0.351,0.235 -0.066,0.061 -0.132,0.12 -0.197,0.164 -0.066,0.044 -0.131,0.09 -0.196,0.136 -0.201,0.14 -0.408,0.286 -0.644,0.388 -0.291,0.12 -0.611,0.16 -0.923,0.199 -0.151,0.019 -0.689,0.147 -0.941,0.147 -0.171,0 -0.321,-0.013 -0.459,-0.039 -0.497,-0.136 -0.814,-0.524 -0.814,-0.97 -0.252,-0.097 -0.478,-0.3 -0.621,-0.56 -0.128,-0.233 -0.309,-0.481 -0.263,-0.702 -0.48,-0.302 -0.774,-0.869 -0.641,-1.355 -0.211,-0.14 -0.358,-0.375 -0.409,-0.661 -0.069,-0.401 0.058,-0.822 0.325,-1.077 z"
           id="path14"
           inkscape:connector-curvature="0"
           style="fill:#f4dec1" /><g
           id="g16"><polygon
             points="211.855,350.886 210.564,350.836 210.828,356.363 212.033,356.296 "
             id="polygon18"
             style="fill:#ffffff" /><polygon
             points="211.841,350.575 211.875,356.607 243.654,357.187 243.654,350.368 "
             id="polygon20"
             style="fill:#6cae7e" /><g
             id="g22"><circle
               cx="213.425"
               cy="355.483"
               r="0.55199999"
               id="circle24"
               style="opacity:0.1;fill:#ffffff" /><circle
               cx="215.214"
               cy="355.54401"
               r="0.55199999"
               id="circle26"
               style="opacity:0.1;fill:#ffffff" /></g></g><g
           id="g28"><defs
             id="defs30"><polygon
               id="SVGID_1_"
               points="211.981,350.892 210.509,350.848 210.616,356.38 212.033,356.296 " /></defs><clipPath
             id="SVGID_2_"><use
               xlink:href="#SVGID_1_"
               overflow="visible"
               id="use34"
               style="overflow:visible"
               x="0"
               y="0"
               width="100%"
               height="100%" /></clipPath><polygon
             clip-path="url(#SVGID_2_)"
             points="211.647,350.571 211.605,356.609 222.675,357.512 226.34,350.794 "
             id="polygon36"
             style="opacity:0.1;fill:#231f20" /></g></g><g
         id="g38"><path
           d="m 195.925,317.813 c 0.354,-0.324 1.656,-0.693 1.718,-0.707 0.575,-0.128 0.614,-0.231 0.616,-0.683 0.001,-0.298 -0.129,-0.436 -0.237,-0.728 -0.124,-0.335 -0.252,-0.682 -0.232,-1.086 0.039,-0.72 0.356,-1.347 0.85,-1.677 0.197,-0.151 0.456,-0.241 0.703,-0.241 0.366,0 0.64,0.192 0.751,0.526 0.079,0.226 0.066,0.445 0.052,0.677 -0.003,0.057 -0.007,0.115 -0.009,0.177 -0.014,0.319 0.026,0.583 0.123,0.833 0.184,0.499 0.552,0.963 0.853,1.312 l 0.164,0.199 c 0.23,0.279 0.468,0.569 0.738,0.8 0.133,0.101 0.274,0.138 0.457,0.176 0.02,10e-4 0.506,0.006 1.093,0.012 0.921,0.009 1.933,0.02 1.933,0.02 l 0,4.427 c 0,0 -1.177,-0.001 -1.933,-0.006 -0.271,-10e-4 -0.468,-0.003 -0.504,-0.005 -0.121,-0.007 -0.238,-0.014 -0.345,-0.014 l -0.05,0 c -0.101,0.021 -0.203,0.031 -0.31,0.043 -0.094,0.01 -0.193,0.02 -0.296,0.039 -0.115,0.021 -0.235,0.13 -0.351,0.235 -0.066,0.061 -0.132,0.12 -0.197,0.164 -0.066,0.044 -0.131,0.09 -0.196,0.136 -0.201,0.14 -0.408,0.286 -0.644,0.388 -0.291,0.121 -0.611,0.16 -0.923,0.199 -0.152,0.019 -0.689,0.147 -0.941,0.147 -0.171,0 -0.321,-0.013 -0.459,-0.039 -0.497,-0.136 -0.814,-0.524 -0.814,-0.97 -0.252,-0.097 -0.478,-0.3 -0.621,-0.56 -0.128,-0.233 -0.309,-0.482 -0.263,-0.702 -0.48,-0.302 -0.774,-0.869 -0.641,-1.355 -0.211,-0.14 -0.358,-0.375 -0.409,-0.661 -0.07,-0.4 0.057,-0.821 0.324,-1.076 z"
           id="path40"
           inkscape:connector-curvature="0"
           style="fill:#f4dec1" /><g
           id="g42"><polygon
             points="205.089,316.873 203.799,316.823 204.062,322.349 205.267,322.283 "
             id="polygon44"
             style="fill:#ffffff" /><polygon
             points="205.075,316.561 205.11,322.593 235.542,323.174 235.542,316.355 "
             id="polygon46"
             style="fill:#f15d43" /><g
             id="g48"><circle
               cx="206.659"
               cy="321.47"
               r="0.55199999"
               id="circle50"
               style="opacity:0.1;fill:#ffffff" /><circle
               cx="208.448"
               cy="321.53101"
               r="0.55199999"
               id="circle52"
               style="opacity:0.1;fill:#ffffff" /></g></g><g
           id="g54"><defs
             id="defs56"><polygon
               id="SVGID_3_"
               points="205.215,316.878 203.743,316.835 203.85,322.367 205.267,322.283 " /></defs><clipPath
             id="SVGID_4_"><use
               xlink:href="#SVGID_3_"
               overflow="visible"
               id="use60"
               style="overflow:visible"
               x="0"
               y="0"
               width="100%"
               height="100%" /></clipPath><polygon
             clip-path="url(#SVGID_4_)"
             points="204.881,316.557 204.839,322.595 215.91,323.499 219.575,316.781 "
             id="polygon62"
             style="opacity:0.1;fill:#231f20" /></g></g><g
         id="g64"><path
           d="m 192.257,334.509 c 0.354,-0.324 1.655,-0.693 1.718,-0.707 0.575,-0.128 0.614,-0.231 0.616,-0.683 0.001,-0.298 -0.129,-0.436 -0.237,-0.728 -0.124,-0.335 -0.252,-0.682 -0.232,-1.087 0.039,-0.72 0.356,-1.347 0.85,-1.677 0.197,-0.151 0.456,-0.241 0.703,-0.241 0.366,0 0.64,0.192 0.751,0.526 0.079,0.226 0.066,0.445 0.052,0.677 -0.003,0.057 -0.007,0.115 -0.009,0.177 -0.014,0.319 0.026,0.583 0.123,0.833 0.184,0.498 0.552,0.963 0.853,1.312 l 0.164,0.199 c 0.23,0.279 0.468,0.569 0.738,0.8 0.133,0.101 0.274,0.138 0.457,0.176 0.02,10e-4 0.506,0.006 1.093,0.012 0.921,0.009 1.933,0.021 1.933,0.021 l 0,4.427 c 0,0 -1.177,-10e-4 -1.933,-0.006 -0.271,-0.001 -0.468,-0.003 -0.504,-0.005 -0.121,-0.007 -0.238,-0.014 -0.345,-0.014 l -0.05,0 c -0.101,0.021 -0.203,0.031 -0.31,0.043 -0.094,0.01 -0.193,0.02 -0.296,0.039 -0.115,0.021 -0.235,0.13 -0.351,0.235 -0.066,0.061 -0.132,0.12 -0.197,0.164 -0.066,0.044 -0.131,0.09 -0.196,0.136 -0.201,0.14 -0.408,0.286 -0.644,0.388 -0.291,0.121 -0.612,0.16 -0.923,0.198 -0.151,0.019 -0.689,0.147 -0.941,0.147 -0.171,0 -0.321,-0.013 -0.459,-0.039 -0.497,-0.136 -0.814,-0.524 -0.814,-0.97 -0.253,-0.097 -0.478,-0.3 -0.621,-0.56 -0.128,-0.233 -0.309,-0.481 -0.263,-0.702 -0.48,-0.302 -0.774,-0.869 -0.641,-1.356 -0.211,-0.14 -0.358,-0.375 -0.409,-0.661 -0.069,-0.398 0.058,-0.819 0.324,-1.074 z"
           id="path66"
           inkscape:connector-curvature="0"
           style="fill:#f4dec1" /><g
           id="g68"><polygon
             points="201.422,333.569 200.132,333.519 200.395,339.045 201.601,338.979 "
             id="polygon70"
             style="fill:#ffffff" /><polygon
             points="201.408,333.257 201.442,339.289 235.542,339.87 235.542,333.051 "
             id="polygon72"
             style="fill:#102f41" /><g
             id="g74"><circle
               cx="202.992"
               cy="338.16599"
               r="0.55199999"
               id="circle76"
               style="opacity:0.1;fill:#ffffff" /><circle
               cx="204.78101"
               cy="338.22601"
               r="0.55299997"
               id="circle78"
               style="opacity:0.1;fill:#ffffff" /></g></g><g
           id="g80"><defs
             id="defs82"><polygon
               id="SVGID_5_"
               points="201.548,333.574 200.076,333.531 200.183,339.062 201.601,338.979 " /></defs><clipPath
             id="SVGID_6_"><use
               xlink:href="#SVGID_5_"
               overflow="visible"
               id="use86"
               style="overflow:visible"
               x="0"
               y="0"
               width="100%"
               height="100%" /></clipPath><polygon
             clip-path="url(#SVGID_6_)"
             points="201.214,333.253 201.172,339.291 212.243,340.195 215.908,333.477 "
             id="polygon88"
             style="opacity:0.1;fill:#231f20" /></g></g><g
         id="g90"><path
           d="m 214.314,346.823 c 0.354,0.324 1.655,0.693 1.718,0.707 0.575,0.128 0.614,0.231 0.616,0.683 0.001,0.298 -0.129,0.436 -0.237,0.728 -0.124,0.335 -0.252,0.682 -0.232,1.087 0.039,0.72 0.356,1.347 0.85,1.677 0.197,0.151 0.456,0.241 0.703,0.241 0.366,0 0.64,-0.192 0.751,-0.526 0.079,-0.226 0.066,-0.445 0.052,-0.677 -0.003,-0.057 -0.007,-0.115 -0.009,-0.177 -0.014,-0.319 0.026,-0.583 0.123,-0.833 0.184,-0.499 0.552,-0.963 0.853,-1.312 l 0.164,-0.199 c 0.23,-0.279 0.468,-0.569 0.738,-0.8 0.133,-0.101 0.274,-0.138 0.457,-0.176 0.02,-10e-4 0.506,-0.006 1.093,-0.012 0.921,-0.009 1.933,-0.021 1.933,-0.021 l 0,-4.426 c 0,0 -1.177,0.001 -1.933,0.005 -0.271,0.001 -0.468,0.003 -0.505,0.005 -0.121,0.007 -0.238,0.013 -0.345,0.013 l -0.05,0 c -0.101,-0.021 -0.203,-0.031 -0.31,-0.043 -0.094,-0.01 -0.193,-0.02 -0.296,-0.039 -0.115,-0.021 -0.235,-0.13 -0.351,-0.235 -0.066,-0.061 -0.132,-0.12 -0.197,-0.164 -0.066,-0.044 -0.131,-0.09 -0.196,-0.136 -0.201,-0.14 -0.408,-0.286 -0.644,-0.388 -0.291,-0.12 -0.611,-0.16 -0.923,-0.198 -0.151,-0.019 -0.689,-0.147 -0.941,-0.147 -0.171,0 -0.321,0.013 -0.459,0.039 -0.497,0.136 -0.814,0.524 -0.814,0.97 -0.252,0.097 -0.478,0.3 -0.621,0.56 -0.128,0.233 -0.309,0.481 -0.263,0.702 -0.48,0.302 -0.774,0.869 -0.641,1.356 -0.211,0.14 -0.358,0.375 -0.409,0.661 -0.069,0.399 0.058,0.82 0.325,1.075 z"
           id="path92"
           inkscape:connector-curvature="0"
           style="fill:#f4dec1" /><g
           id="g94"><polygon
             points="223.015,342.221 221.724,342.172 221.988,347.698 223.193,347.632 "
             id="polygon96"
             style="fill:#ffffff" /><polygon
             points="223.001,341.91 223.035,347.942 252.065,348.523 252.065,341.704 "
             id="polygon98"
             style="fill:#272625" /><g
             id="g100"><circle
               cx="224.58501"
               cy="346.819"
               r="0.55199999"
               id="circle102"
               style="opacity:0.1;fill:#ffffff" /><circle
               cx="226.37399"
               cy="346.88"
               r="0.55199999"
               id="circle104"
               style="opacity:0.1;fill:#ffffff" /></g></g><g
           id="g106"><defs
             id="defs108"><polygon
               id="SVGID_7_"
               points="223.141,342.227 221.669,342.184 221.776,347.716 223.193,347.632 " /></defs><clipPath
             id="SVGID_8_"><use
               xlink:href="#SVGID_7_"
               overflow="visible"
               id="use112"
               style="overflow:visible"
               x="0"
               y="0"
               width="100%"
               height="100%" /></clipPath><polygon
             clip-path="url(#SVGID_8_)"
             points="222.807,341.906 222.765,347.944 233.835,348.848 237.5,342.13 "
             id="polygon114"
             style="opacity:0.1;fill:#231f20" /></g></g><g
         id="g116"><path
           d="m 201.358,330.66 c 0.354,0.324 1.655,0.693 1.718,0.707 0.575,0.128 0.614,0.231 0.616,0.683 0.001,0.298 -0.129,0.436 -0.237,0.728 -0.124,0.335 -0.252,0.682 -0.232,1.086 0.039,0.72 0.356,1.347 0.85,1.677 0.197,0.151 0.456,0.241 0.703,0.241 0.366,0 0.64,-0.192 0.751,-0.526 0.079,-0.226 0.066,-0.445 0.051,-0.677 -0.003,-0.057 -0.007,-0.116 -0.009,-0.177 -0.014,-0.319 0.026,-0.583 0.123,-0.833 0.184,-0.499 0.552,-0.963 0.853,-1.312 l 0.164,-0.199 c 0.23,-0.279 0.468,-0.569 0.738,-0.8 0.133,-0.101 0.274,-0.138 0.457,-0.176 0.02,-10e-4 0.506,-0.006 1.093,-0.012 0.921,-0.009 1.933,-0.02 1.933,-0.02 l 0,-4.427 c 0,0 -1.177,0.001 -1.933,0.006 -0.271,10e-4 -0.468,0.003 -0.504,0.005 -0.121,0.007 -0.238,0.014 -0.345,0.014 l -0.05,0 c -0.101,-0.021 -0.203,-0.031 -0.31,-0.043 -0.094,-0.01 -0.193,-0.02 -0.296,-0.039 -0.115,-0.021 -0.235,-0.13 -0.351,-0.235 -0.066,-0.061 -0.132,-0.12 -0.197,-0.164 -0.066,-0.044 -0.131,-0.09 -0.196,-0.136 -0.201,-0.14 -0.408,-0.286 -0.644,-0.387 -0.291,-0.121 -0.611,-0.16 -0.923,-0.199 -0.152,-0.019 -0.689,-0.147 -0.941,-0.147 -0.171,0 -0.321,0.013 -0.459,0.039 -0.497,0.136 -0.814,0.524 -0.814,0.97 -0.252,0.097 -0.478,0.3 -0.621,0.56 -0.128,0.233 -0.309,0.481 -0.263,0.702 -0.48,0.302 -0.774,0.869 -0.641,1.355 -0.211,0.14 -0.358,0.376 -0.409,0.661 -0.069,0.399 0.058,0.82 0.325,1.075 z"
           id="path118"
           inkscape:connector-curvature="0"
           style="fill:#f4dec1" /><g
           id="g120"><polygon
             points="210.06,326.059 208.769,326.009 209.033,331.536 210.238,331.469 "
             id="polygon122"
             style="fill:#ffffff" /><polygon
             points="210.045,325.747 210.08,331.779 239.109,332.36 239.109,325.541 "
             id="polygon124"
             style="fill:#0c8486" /><g
             id="g126"><circle
               cx="211.629"
               cy="330.65601"
               r="0.55199999"
               id="circle128"
               style="opacity:0.1;fill:#ffffff" /><circle
               cx="213.41901"
               cy="330.71701"
               r="0.55199999"
               id="circle130"
               style="opacity:0.1;fill:#ffffff" /></g></g><g
           id="g132"><defs
             id="defs134"><polygon
               id="SVGID_9_"
               points="210.185,326.065 208.713,326.021 208.82,331.553 210.238,331.469 " /></defs><clipPath
             id="SVGID_10_"><use
               xlink:href="#SVGID_9_"
               overflow="visible"
               id="use138"
               style="overflow:visible"
               x="0"
               y="0"
               width="100%"
               height="100%" /></clipPath><polygon
             clip-path="url(#SVGID_10_)"
             points="209.851,325.743 209.809,331.782 220.88,332.685 224.545,325.967 "
             id="polygon140"
             style="opacity:0.1;fill:#231f20" /></g></g></g><path
       d="m 227.05,287.363 c 0,9.82 -7.96,17.78 -17.78,17.78 -5.251,0 -9.97,-2.276 -13.225,-5.896 -0.785,-0.873 -4.404,-0.313 -5.006,-1.328 -0.601,-1.016 1.816,-3.607 1.424,-4.74 -0.631,-1.822 -0.973,-3.779 -0.973,-5.816 0,-9.82 7.96,-17.78 17.78,-17.78 9.82,0 17.78,7.96 17.78,17.78 z"
       id="path142"
       inkscape:connector-curvature="0"
       style="fill:#ffffff" /><ellipse
       cx="158.037"
       cy="362.62701"
       rx="25.417999"
       ry="3.6900001"
       id="ellipse144"
       style="opacity:0.1;fill:#231f20" /><g
       id="g146"><ellipse
         transform="matrix(0.9647,-0.2632,0.2632,0.9647,-84.771,48.9021)"
         cx="140.12801"
         cy="340.83499"
         rx="2.602"
         ry="2.023"
         id="ellipse148"
         style="fill:#f3dcc0" /><ellipse
         transform="matrix(1,-0.0061,0.0061,1,-1.8059,1.1219)"
         cx="183.914"
         cy="298.05499"
         rx="2.448"
         ry="1.904"
         id="ellipse150"
         style="fill:#f3dcc0" /><path
         d="m 185.883,299.186 -3.913,0.031 c 0,0.042 0.028,4.217 -0.34,8.663 -0.671,8.113 -1.786,8.598 -1.934,8.726 -1.973,1.701 -6.836,1.256 -8.364,1.086 l 0,0 c -1.432,-0.191 -3.7,-0.337 -6.349,-0.24 -1.464,0.053 -3.928,0.824 -6.28,0.81 -2.675,-0.017 -7.301,-0.865 -8.24,-0.879 -2.55,-0.038 -4.719,0.068 -6.086,0.226 l 0,0 c -2.556,0.156 -8.6,2.631 -9.228,9.283 -0.546,5.786 2.441,13.194 2.569,13.507 l 3.624,-1.477 c -0.028,-0.068 -2.404,-6.286 -1.949,-11.109 0.371,-3.931 5.077,-5.062 5.134,-5.078 0.787,-0.122 1.568,0.013 2.29,1.062 1.07,1.554 0.217,15.997 0.217,15.997 0,0 5.373,1.024 11.638,0.717 6.265,-0.307 11,-1.591 11,-1.591 0,0 -0.343,-14.562 -0.168,-15.382 0.175,-0.819 5.744,-1.077 5.749,-1.078 0.252,-0.01 0.513,-0.021 0.783,-0.032 1.976,0 4.216,-0.443 6.009,-1.989 1.144,-0.986 2.75,-3.331 3.486,-12.264 0.382,-4.618 0.353,-8.813 0.352,-8.989 z"
         id="path152"
         inkscape:connector-curvature="0"
         style="fill:#272625" /><path
         d="m 147.034,339.782 c 0,3.026 0.263,8.99 0.186,10.324 -0.077,1.334 -0.384,9.735 -0.384,9.735 l 3.173,0.324 c 0,0 0.707,-8.92 0.725,-10.059 0.018,-1.138 -0.07,-4.262 0.907,-5.379 0.977,-1.117 13.101,-1.841 13.923,-1.262 0.822,0.58 0.874,7.104 0.874,8.481 0,1.377 0.004,9.345 0.004,9.345 l 3.283,0 0.357,-10.145 -0.41,-12.226 c 0,10e-4 -9.26,1.569 -22.638,0.862 z"
         id="path154"
         inkscape:connector-curvature="0"
         style="fill:#1c1c1b" /><g
         id="g156"><path
           d="m 148.601,362.393 c -1.907,0.061 -4.105,0.201 -3.466,-1.677 0.361,-1.062 1.714,-1.893 3.615,-1.731 1.901,0.162 3.365,1.2 3.27,2.318 -0.095,1.117 -0.987,1.011 -3.419,1.09 z"
           id="path158"
           inkscape:connector-curvature="0"
           style="fill:#272625" /><path
           d="m 152.371,362.153 c -0.003,0.274 -0.227,0.493 -0.501,0.49 l -6.584,-0.002 c -0.273,-0.003 -0.492,-0.227 -0.49,-0.501 l 0,0 c 0.003,-0.274 0.227,-0.493 0.501,-0.49 l 6.584,0.002 c 0.273,0.003 0.492,0.227 0.49,0.501 l 0,0 z"
           id="path160"
           inkscape:connector-curvature="0"
           style="fill:#050505" /></g><g
         id="g162"><path
           d="m 168.384,362.881 c -1.907,0.061 -4.105,0.201 -3.466,-1.677 0.361,-1.062 1.714,-1.893 3.615,-1.731 1.901,0.162 3.365,1.2 3.27,2.318 -0.096,1.117 -0.987,1.012 -3.419,1.09 z"
           id="path164"
           inkscape:connector-curvature="0"
           style="fill:#272625" /><path
           d="m 172.153,362.641 c -0.003,0.274 -0.227,0.493 -0.501,0.49 l -6.584,-0.002 c -0.273,-0.003 -0.492,-0.227 -0.489,-0.501 l 0,0 c 0.003,-0.274 0.227,-0.493 0.501,-0.49 l 6.584,0.002 c 0.273,0.004 0.492,0.228 0.489,0.501 l 0,0 z"
           id="path166"
           inkscape:connector-curvature="0"
           style="fill:#050505" /></g><line
         stroke-miterlimit="10"
         x1="159.38"
         y1="328.35699"
         x2="159.476"
         y2="339.84799"
         id="line168"
         style="fill:none;stroke:#010101;stroke-width:1.59720004;stroke-miterlimit:10" /><circle
         cx="161.048"
         cy="332.59"
         r="0.54299998"
         id="circle170"
         style="fill:#010101" /><circle
         cx="161.048"
         cy="330.07401"
         r="0.54299998"
         id="circle172"
         style="fill:#010101" /><circle
         cx="161.048"
         cy="335.48199"
         r="0.54299998"
         id="circle174"
         style="fill:#010101" /><circle
         cx="161.048"
         cy="338.39801"
         r="0.54299998"
         id="circle176"
         style="fill:#010101" /><path
         d="m 151.39,318.172 c 2.47,1.968 7.99,10.84 7.99,10.84 0,0 5.799,-8.542 7.886,-10.945 -0.928,0 -13.557,0.105 -15.876,0.105 z"
         id="path178"
         inkscape:connector-curvature="0"
         style="fill:#ffffff" /><g
         id="g180"><g
           id="g182"><ellipse
             transform="matrix(0.9987,-0.0519,0.0519,0.9987,-16.3771,8.7146)"
             cx="159.534"
             cy="319.552"
             rx="2.2049999"
             ry="1.346"
             id="ellipse184"
             style="fill:#002e40" /></g></g><polygon
         points="159.38,329.012 160.728,325.684 160.517,319.987 158.923,319.987 158.037,325.693 "
         id="polygon186"
         style="fill:#002e40" /><path
         d="m 167.473,317.963 c 0,0 -1.93,7.372 -2.668,8.804 -0.738,1.432 -5.425,2.244 -5.425,2.244 0,0 0.94,-3.779 3.699,-6.582 2.758,-2.804 4.394,-4.466 4.394,-4.466 z"
         id="path188"
         inkscape:connector-curvature="0"
         style="fill:#3a3b3b" /><path
         d="m 151.287,317.963 c 0,0 1.93,7.372 2.668,8.804 0.738,1.432 5.425,2.244 5.425,2.244 0,0 -0.94,-3.779 -3.699,-6.582 -2.759,-2.803 -4.394,-4.466 -4.394,-4.466 z"
         id="path190"
         inkscape:connector-curvature="0"
         style="fill:#3a3b3b" /><g
         id="g192"><path
           d="m 147.385,316.868 c 1.428,2.06 9.783,1.996 16.195,1.954 7.715,-0.051 7.629,-7.159 7.636,-10.156 0.024,-11.09 -3.659,-14.489 -5.485,-17.534 -1.826,-3.045 -14.362,-0.719 -16.902,2.482 -2.54,3.2 -3.984,6.484 -4.633,11.344 -0.65,4.862 1.619,9.646 3.189,11.91 z"
           id="path194"
           inkscape:connector-curvature="0"
           style="fill:#f3dcc0" /><path
           d="m 150.938,296.762 c 27.784,1.135 16.535,-13.232 16.535,-13.232 0,0 -4.166,7.08 -12.137,1.312 -3.711,-2.685 -14.071,0.73 -13.12,8.68 -11.408,13.059 4.521,22.825 5.745,23.87 0.717,-2.634 0.336,-3.108 0.401,-3.991 0.064,-0.857 -0.688,-1.739 -0.908,-1.955 -2.337,-2.3 -3.397,-5.284 -1.588,-6.68 1.979,-1.527 3.569,1.845 4.016,1.022 1.797,-3.313 1.512,-5.665 1.056,-9.026 z"
           id="path196"
           inkscape:connector-curvature="0"
           style="fill:#272625" /><g
           id="g198"><ellipse
             transform="matrix(0.9985,-0.0546,0.0546,0.9985,-16.266,9.5409)"
             cx="166.44299"
             cy="302.39999"
             rx="0.875"
             ry="1.673"
             id="ellipse200"
             style="fill:#272625" /><ellipse
             transform="matrix(0.9937,-0.1117,0.1117,0.9937,-32.9595,19.5942)"
             cx="158.464"
             cy="304.07101"
             rx="0.90100002"
             ry="1.724"
             id="ellipse202"
             style="fill:#272625" /></g><path
           d="m 158.85,310.757 c -0.134,0.392 0.027,2.483 3.942,2.781 4.142,0.315 4.79,-2.988 4.476,-3.505 -0.313,-0.517 -8.575,0.108 -8.418,0.724"
           id="path204"
           inkscape:connector-curvature="0"
           style="fill:#f0582e" /><path
           d="m 161.356,308.177 c 0,0 7.603,-0.561 10.135,-1.087 2.533,-0.525 2.91,-4.514 0.373,-4.295 -2.536,0.22 -4.186,0.524 -4.186,0.524 l -6.322,4.858 z"
           id="path206"
           inkscape:connector-curvature="0"
           style="fill:#f3dcc0" /></g></g><rect
       x="127.612"
       y="261.02899"
       width="115.943"
       height="115.943"
       id="rect208"
       style="fill:none" /></g></svg>