<?xml version="1.0" encoding="UTF-8" standalone="no"?>
<!-- Generator: Adobe Illustrator 17.0.0, SVG Export Plug-In . SVG Version: 6.00 Build 0)  -->

<svg
   xmlns:dc="http://purl.org/dc/elements/1.1/"
   xmlns:cc="http://creativecommons.org/ns#"
   xmlns:rdf="http://www.w3.org/1999/02/22-rdf-syntax-ns#"
   xmlns:svg="http://www.w3.org/2000/svg"
   xmlns="http://www.w3.org/2000/svg"
   xmlns:sodipodi="http://sodipodi.sourceforge.net/DTD/sodipodi-0.dtd"
   xmlns:inkscape="http://www.inkscape.org/namespaces/inkscape"
   version="1.1"
   x="0px"
   y="0px"
   width="250"
   height="250"
   viewBox="0 0 249.99999 250"
   enable-background="new 0 0 595.28 841.89"
   xml:space="preserve"
   id="svg2"
   inkscape:version="0.91pre3 r13670"
   sodipodi:docname="logros.svg"><metadata
     id="metadata46"><rdf:RDF><cc:Work
         rdf:about=""><dc:format>image/svg+xml</dc:format><dc:type
           rdf:resource="http://purl.org/dc/dcmitype/StillImage" /><dc:title></dc:title></cc:Work></rdf:RDF></metadata><defs
     id="defs44" /><sodipodi:namedview
     pagecolor="#ffffff"
     bordercolor="#666666"
     borderopacity="1"
     objecttolerance="10"
     gridtolerance="10"
     guidetolerance="10"
     inkscape:pageopacity="0"
     inkscape:pageshadow="2"
     inkscape:window-width="640"
     inkscape:window-height="480"
     id="namedview42"
     showgrid="false"
     inkscape:zoom="0.28032165"
     inkscape:cx="235.21173"
     inkscape:cy="420.94501"
     inkscape:window-x="0"
     inkscape:window-y="0"
     inkscape:window-maximized="0"
     inkscape:current-layer="svg2" /><g
     id="Capa_1"
     display="none"
     style="display:none"
     transform="translate(0,-591.89001)"><path
       display="inline"
       d="m 252.386,358.654 c 0,10.864 -9.201,19.671 -20.552,19.671 l -149.489,0 c -11.35,0 -20.552,-8.807 -20.552,-19.671 l 0,-141.372 c 0,-10.864 9.201,-19.671 20.552,-19.671 l 149.49,0 c 11.35,0 20.552,8.807 20.552,19.671 l 0,141.372 z"
       id="path5"
       inkscape:connector-curvature="0"
       style="clip-rule:evenodd;display:inline;fill:#80a5c6;fill-rule:evenodd" /><path
       display="inline"
       d="m 244.197,352.64 c 0,9.94 -8.411,17.997 -18.786,17.997 l -136.643,0 c -10.375,0 -18.786,-8.058 -18.786,-17.997 l 0,-129.344 c 0,-9.94 8.411,-17.997 18.786,-17.997 l 136.644,0 c 10.375,0 18.786,8.058 18.786,17.997 l 0,129.344 z"
       id="path7"
       inkscape:connector-curvature="0"
       style="clip-rule:evenodd;display:inline;fill:#cee8ef;fill-rule:evenodd" /></g><g
     id="Capa_2"
     transform="matrix(0.9179924,0,0,0.87861764,-12.096121,-130.26652)"><polygon
       points="179.521,312.995 110.057,338.425 150.012,356.183 133.738,361.38 145.708,360.943 148.491,364.516 156.621,359.12 168.427,364.367 235.501,331.598 "
       id="polygon10"
       style="fill:#80a5c6" /><polygon
       points="235.501,329.55 168.427,362.319 110.057,336.377 179.521,310.947 "
       id="polygon12"
       style="fill:#e8e3be" /><polygon
       stroke-miterlimit="10"
       points="228.416,330.35 168.919,359.418 117.142,336.406 178.759,313.849 "
       id="polygon14"
       style="fill:none;stroke:#c1282d;stroke-width:1.07539999;stroke-linecap:round;stroke-linejoin:round;stroke-miterlimit:10" /><ellipse
       cx="165.067"
       cy="349.73199"
       rx="9.1199999"
       ry="3.8399999"
       id="ellipse16"
       style="fill:#c1282d" /><polygon
       points="158.187,351.524 133.738,359.332 145.708,358.895 148.491,362.468 163.243,352.676 "
       id="polygon18"
       style="fill:#c1282d" /><path
       d="m 238.118,285.182 -87.443,-16.22 -75.845,21.113 c 0,0 9.516,2.29 12.621,2.93 3.444,0.71 1.789,2.396 1.157,2.824 -0.852,0.577 -1.459,0.948 -1.459,1.487 0,1.711 5.802,2.81 12.367,2.81 6.868,0 8.02,-2.449 13.329,-1.247 14.95,3.386 50.879,11.835 50.879,11.835 l 74.394,-25.532 z"
       id="path20"
       inkscape:connector-curvature="0"
       style="fill:#80a5c6" /><path
       d="m 111,238 0,42 -0.135,0 c 0.164,8 23.461,15.336 46.816,15.336 23.355,0 46.651,-7.336 46.815,-15.336 l 0.504,0 0,-42 -94,0 z"
       id="path22"
       inkscape:connector-curvature="0"
       style="fill:#333333" /><polygon
       points="164.684,264.71 244,237.645 244,234.764 150.853,217.57 70,239.95 70,242.832 "
       id="polygon24"
       style="fill:#4e4e4e" /><polygon
       points="243.593,234.764 164.734,261.828 70.508,239.95 150.903,217.57 "
       id="polygon26"
       style="fill:#333333" /><polygon
       points="151.525,237.448 153.798,239.193 101.255,247.103 97.791,246.316 "
       id="polygon28"
       style="fill:#d9cd78" /><ellipse
       cx="157.05"
       cy="238.547"
       rx="13.255"
       ry="3.6819999"
       id="ellipse30"
       style="fill:#4e4e4e" /><polygon
       points="93.564,238.737 96.596,239.255 96.513,262 93.6,262 "
       id="polygon32"
       style="fill:#e9dc80" /><path
       d="m 101.28,281.978 c 0,0.599 -0.486,1.022 -1.084,1.022 l -10.12,0 c -0.599,0 -1.084,-0.423 -1.084,-1.022 l 3.614,-22.742 c 0,-0.599 0.486,-1.237 1.084,-1.237 l 2.891,0 c 0.599,0 1.084,0.638 1.084,1.237 l 3.615,22.742 z"
       id="path34"
       inkscape:connector-curvature="0"
       style="fill:#e9dc80" /><path
       d="M 97,257.488 C 97,257.771 96.771,258 96.488,258 l -2.976,0 C 93.229,258 93,257.771 93,257.488 l 0,-0.976 C 93,256.229 93.229,256 93.512,256 l 2.976,0 c 0.283,0 0.512,0.229 0.512,0.512 l 0,0.976 z"
       id="path36"
       inkscape:connector-curvature="0"
       style="fill:#d9cd78" /><path
       d="M 97,259.488 C 97,259.771 96.771,260 96.488,260 l -2.976,0 C 93.229,260 93,259.771 93,259.488 l 0,-0.976 C 93,258.229 93.229,258 93.512,258 l 2.976,0 c 0.283,0 0.512,0.229 0.512,0.512 l 0,0.976 z"
       id="path38"
       inkscape:connector-curvature="0"
       style="fill:#d9cd78" /><path
       d="M 97,256.488 C 97,256.771 96.771,257 96.488,257 l -2.976,0 C 93.229,257 93,256.771 93,256.488 l 0,-0.976 C 93,255.229 93.229,255 93.512,255 l 2.976,0 c 0.283,0 0.512,0.229 0.512,0.512 l 0,0.976 z"
       id="path40"
       inkscape:connector-curvature="0"
       style="fill:#d9cd78" /></g></svg>