<svg xmlns="http://www.w3.org/2000/svg" width="250" height="250" viewBox="0 0 249.99999 250" enable-background="new 0 0 595.28 841.89"><defs><filter id="a" color-interpolation-filters="sRGB"><feColorMatrix values="0.21 0.72 0.072 0 0 0.21 0.72 0.072 0 0 0.21 0.72 0.072 0 0 0 0 0 1 0"/></filter></defs><g transform="matrix(.918 0 0 .879 -12.096 -130.267)" filter="url(#a)"><path fill="#80a5c6" d="M179.52 312.995l-69.463 25.43 39.955 17.758-16.274 5.197 11.97-.437 2.783 3.573 8.13-5.396 11.807 5.247 67.074-32.77z"/><path fill="#e8e3be" d="M235.5 329.55l-67.073 32.77-58.37-25.943 69.464-25.43z"/><path stroke-miterlimit="10" fill="none" stroke="#c1282d" stroke-width="1.075" stroke-linecap="round" stroke-linejoin="round" d="M228.416 330.35l-59.497 29.068-51.778-23.012 61.617-22.557z"/><ellipse cx="165.067" cy="349.732" rx="9.12" ry="3.84" fill="#c1282d"/><path fill="#c1282d" d="M158.187 351.524l-24.45 7.808 11.97-.437 2.784 3.573 14.753-9.792z"/><path d="M238.118 285.182l-87.443-16.22-75.845 21.113s9.516 2.29 12.62 2.93c3.445.71 1.79 2.396 1.158 2.824-.852.576-1.46.947-1.46 1.486 0 1.71 5.803 2.81 12.368 2.81 6.868 0 8.02-2.45 13.33-1.247 14.95 3.385 50.878 11.834 50.878 11.834l74.394-25.532z" fill="#80a5c6"/><path d="M111 238v42h-.135c.164 8 23.46 15.336 46.816 15.336S204.333 288 204.497 280H205v-42h-94z" fill="#333"/><path fill="#4e4e4e" d="M164.684 264.71L244 237.645v-2.88l-93.147-17.195L70 239.95v2.882z"/><path fill="#333" d="M243.593 234.764l-78.86 27.064L70.51 239.95l80.395-22.38z"/><path fill="#d9cd78" d="M151.525 237.448l2.273 1.745-52.543 7.91-3.464-.787z"/><ellipse cx="157.05" cy="238.547" rx="13.255" ry="3.682" fill="#4e4e4e"/><path fill="#e9dc80" d="M93.564 238.737l3.032.518L96.513 262H93.6z"/><path d="M101.28 281.978c0 .6-.486 1.022-1.084 1.022h-10.12c-.6 0-1.084-.423-1.084-1.022l3.614-22.742c0-.6.486-1.237 1.084-1.237h2.89c.6 0 1.085.637 1.085 1.236l3.615 22.742z" fill="#e9dc80"/><path d="M97 257.488c0 .283-.23.512-.512.512h-2.976c-.283 0-.512-.23-.512-.512v-.976c0-.283.23-.512.512-.512h2.976c.283 0 .512.23.512.512v.976z" fill="#d9cd78"/><path d="M97 259.488c0 .283-.23.512-.512.512h-2.976c-.283 0-.512-.23-.512-.512v-.976c0-.283.23-.512.512-.512h2.976c.283 0 .512.23.512.512v.976z" fill="#d9cd78"/><path d="M97 256.488c0 .283-.23.512-.512.512h-2.976c-.283 0-.512-.23-.512-.512v-.976c0-.283.23-.512.512-.512h2.976c.283 0 .512.23.512.512v.976z" fill="#d9cd78"/></g></svg>