<svg xmlns="http://www.w3.org/2000/svg" xmlns:xlink="http://www.w3.org/1999/xlink" width="250" height="250" viewBox="0 0 249.99999 250" enable-background="new 0 0 595.28 841.89"><g><g transform="matrix(.737 0 0 .783 -11.615 -133.562)"><g><path fill="#346e52" d="M121.13 237.565h44.975v15.376H121.13z"/><path d="M136.122 284.845l-23.832-31.52 8.84-15.76 31.137 44.974-16.145 2.305z" fill="#6ec499"/><g><defs><path id="a" d="M136.123 284.845l-23.832-31.52 8.842-15.76 31.136 44.974-16.145 2.305z"/></defs><clipPath id="b"><use xlink:href="#a" overflow="visible" width="100%" height="100%"/></clipPath><path clip-path="url(#b)" stroke-miterlimit="10" fill="none" stroke="#e3d5b9" stroke-width=".553" d="M149.45 285.358l-32.546-46.383"/><path clip-path="url(#b)" stroke-miterlimit="10" fill="none" stroke="#e3d5b9" stroke-width=".553" d="M143.555 288.69l-32.545-46.383"/></g><path fill="#51ac83" d="M174.56 253.325l-23.83 31.52-16.146-2.306 31.136-44.975z"/><g><defs><path id="c" d="M174.562 253.325l-23.832 31.52-16.145-2.306 31.136-44.975z"/></defs><clipPath id="d"><use xlink:href="#c" overflow="visible" width="100%" height="100%"/></clipPath><path clip-path="url(#d)" stroke-miterlimit="10" fill="none" stroke="#e3d5b9" stroke-width=".553" d="M137.66 285.614l32.545-46.383"/><path clip-path="url(#d)" stroke-miterlimit="10" fill="none" stroke="#e3d5b9" stroke-width=".553" d="M143.554 288.946l32.546-46.383"/></g></g><circle cx="143.425" cy="292.268" r="17.874" fill="#e7af3a"/><circle cx="143.425" cy="292.268" r="15.375" fill="#fee582"/><path fill="#e7af3a" d="M143.426 282.913l3.04 6.158 6.796.99-4.918 4.794 1.16 6.768-6.078-3.196-6.08 3.196 1.16-6.768-4.917-4.795 6.796-.99z"/></g><g><path fill="#e7af3a" d="M166.146 159.196h11.82v14.596h-11.82z"/><path fill="#fee582" d="M157.68 167.343h28.755v13.577H157.68z"/><g><path d="M182.924 145.576l-.49-2.497c9.236-2.078 10.484-7.218 10.496-7.27.45-1.75.317-3.04-.397-3.99-1.454-1.93-5.07-2.17-6.34-2.095l-.126-2.548c.237-.013 5.82-.287 8.328 3.045 1.213 1.612 1.498 3.706.848 6.223-.05.23-1.616 6.724-12.32 9.13z" fill="#e7af3a"/></g><g><path d="M161.415 145.86c-10.703-2.408-12.267-8.9-12.33-9.176-.638-2.473-.352-4.567.86-6.18 2.508-3.332 8.093-3.056 8.328-3.045l-.124 2.548c-1.28-.068-4.903.177-6.346 2.098-.712.95-.844 2.24-.405 3.942.06.242 1.402 5.266 10.507 7.313l-.492 2.5z" fill="#e7af3a"/></g><g transform="matrix(.737 0 0 .783 -11.615 -133.562)"><defs><path id="e" d="M225.99 329.06h50.236v56.52H225.99z"/></defs><clipPath id="f"><use xlink:href="#e" overflow="visible" width="100%" height="100%"/></clipPath><ellipse clip-path="url(#f)" cx="249.217" cy="329.06" rx="22.148" ry="49.132" fill="#fee582"/></g><path fill="#e7af3a" d="M161.894 171.502h20.326v5.853h-20.326z"/></g><g transform="matrix(.737 0 0 .783 -11.615 -133.562)"><path d="M136.1 397.085c.068-.82.062-2.43-.694-4.25-.873-2.1-3.506-3.006-3.506-3.006s-.637 3.035.604 5.034c.4.644 1.158 1.276 1.87 1.776-1.137-.327-2.402-.762-3.76-1.34.208-.775.483-2.34.06-4.236-.484-2.177-2.874-3.498-2.874-3.498s-1.13 2.82-.273 4.962c.28.698.918 1.45 1.53 2.058-.74-.36-1.5-.762-2.275-1.215-.428-.23-.855-.483-1.283-.752.327-.694.884-2.177.797-4.122-.1-2.184-2.177-3.866-2.177-3.866s-1.573 2.532-1.11 4.742c.163.776.714 1.68 1.23 2.398-1.112-.798-2.215-1.718-3.28-2.745.43-.608 1.23-1.95 1.48-3.857.277-2.122-1.445-4.1-1.445-4.1s-1.946 2.175-1.877 4.387c.026.764.39 1.708.76 2.48-.95-1.005-1.86-2.1-2.716-3.268.53-.53 1.498-1.678 2.05-3.436.627-2-.697-4.202-.697-4.202s-2.25 1.767-2.557 3.915c-.1.703.066 1.615.277 2.4-.746-1.125-1.437-2.31-2.06-3.545.593-.412 1.743-1.36 2.586-2.984.95-1.825.045-4.176.045-4.176s-2.472 1.323-3.134 3.344c-.227.696-.208 1.666-.128 2.485-.574-1.27-1.07-2.59-1.48-3.948.628-.286 1.933-1.003 3.047-2.46 1.225-1.6.753-4.022.753-4.022s-2.61.857-3.594 2.694c-.362.673-.505 1.696-.56 2.53-.36-1.407-.625-2.854-.776-4.333.644-.16 2.044-.63 3.385-1.862 1.455-1.337 1.412-3.754 1.412-3.754s-2.666.38-3.926 1.99c-.47.593-.783 1.57-.977 2.37-.145-1.54-.158-3.07-.06-4.578.622-.038 2.092-.236 3.635-1.224 1.632-1.042 2.002-3.383 2.002-3.383s-2.638-.086-4.13 1.25c-.595.535-1.095 1.528-1.42 2.298.163-1.623.45-3.218.852-4.766.613.068 2.057.122 3.705-.564 1.752-.728 2.507-2.925 2.507-2.925s-2.532-.53-4.197.505c-.645.4-1.276 1.232-1.72 1.91.456-1.546 1.016-3.04 1.662-4.47.58.17 1.965.47 3.67.086 1.816-.404 2.92-2.395 2.92-2.395s-2.354-.944-4.138-.228c-.696.278-1.452.98-1.996 1.56.72-1.466 1.526-2.852 2.397-4.143.49.25 1.808.82 3.592.738 1.82-.08 3.223-1.816 3.223-1.816s-2.11-1.31-3.953-.922c-.796.167-1.752.822-2.384 1.314 1.003-1.408 2.08-2.686 3.2-3.812.377.295 1.582 1.13 3.396 1.366 1.77.232 3.422-1.203 3.422-1.203s-1.815-1.624-3.66-1.564c-.874.03-2.036.592-2.717.968.62-.596 1.25-1.144 1.887-1.638.714-.594 1.42-1.132 2.112-1.625.323.36 1.34 1.357 3.035 1.888 1.67.525 3.507-.58 3.507-.58s-1.476-1.874-3.267-2.13c-.835-.12-2.028.214-2.753.458 1.565-1.067 3.046-1.89 4.366-2.525.202.334 1.014 1.55 2.642 2.392 1.522.792 3.482.038 3.482.038s-1.105-2.06-2.788-2.613c-.88-.287-2.287-.105-2.977.013 1.176-.548 2.21-.943 3.044-1.23.358.176 1.546.69 2.62.32 1.605-.55 2.4-1.633 2.4-1.633s-1.658-.634-2.644-.468c-1.233.21-2.238 1.41-2.445 1.67-.686.216-1.503.5-2.423.882.594-.407 1.682-1.226 2.103-2.02.828-1.57.192-3.82.192-3.82s-1.934.82-2.48 2.445c-.595 1.762-.32 3.22-.237 3.575-1.34.58-2.874 1.354-4.51 2.393.536-.54 1.384-1.48 1.647-2.297.557-1.723-.482-3.87-.482-3.87s-1.797 1.165-2.06 2.895c-.278 1.83.223 3.22.384 3.604-.876.578-1.778 1.23-2.693 1.967-.406.306-.81.635-1.21.982.43-.65.965-1.582 1.07-2.338.252-1.83-1.172-3.803-1.172-3.803s-1.6 1.488-1.558 3.273c.043 1.77.705 3.032.976 3.478-1.126 1.047-2.218 2.25-3.246 3.58.305-.72.64-1.69.613-2.43-.07-1.883-1.85-3.615-1.85-3.615s-1.345 1.78-.986 3.567c.356 1.766 1.24 2.914 1.594 3.317-.94 1.296-1.813 2.7-2.6 4.196.186-.784.363-1.85.2-2.61-.404-1.88-2.5-3.303-2.5-3.303s-1.037 2.028-.358 3.76c.675 1.724 1.778 2.723 2.2 3.058-.687 1.4-1.294 2.867-1.8 4.39.035-.794.006-1.786-.27-2.463-.738-1.816-3.098-2.876-3.098-2.876s-.68 2.22.308 3.84c.952 1.562 2.187 2.37 2.703 2.657-.416 1.42-.742 2.884-.964 4.378-.115-.743-.315-1.584-.666-2.143-1.064-1.694-3.622-2.342-3.622-2.342s-.292 2.353.988 3.804c1.184 1.344 2.506 1.945 3.114 2.167-.144 1.442-.188 2.907-.12 4.386-.247-.717-.593-1.507-1.036-1.997-1.37-1.516-4.056-1.714-4.056-1.714s.122 2.417 1.666 3.65c1.44 1.15 2.89 1.516 3.532 1.627.092 1.398.28 2.775.56 4.12-.37-.658-.847-1.36-1.363-1.762-1.646-1.278-4.38-1-4.38-1s.553 2.405 2.324 3.37c1.626.887 3.124 1.007 3.805 1.01.357 1.353.803 2.67 1.322 3.946-.494-.604-1.105-1.24-1.704-1.557-1.88-.995-4.58-.23-4.58-.23s.982 2.318 2.932 2.975c1.8.605 3.332.457 4.012.338.596 1.283 1.266 2.517 1.994 3.694-.607-.53-1.347-1.075-2.017-1.29-2.065-.667-4.64.58-4.64.58s1.396 2.156 3.47 2.47c1.92.29 3.437-.133 4.096-.372.77 1.126 1.593 2.188 2.454 3.182-.664-.384-1.42-.74-2.072-.83-2.194-.303-4.56 1.405-4.56 1.405s1.785 1.92 3.926 1.868c1.907-.047 3.32-.69 3.976-1.06.915.948 1.863 1.817 2.828 2.597-.683-.237-1.426-.42-2.038-.398-2.257.082-4.335 2.22-4.335 2.22s2.134 1.612 4.276 1.18c1.874-.378 3.166-1.25 3.775-1.742.684.47 1.37.9 2.054 1.277.433.26.86.5 1.286.73-.757-.127-1.573-.192-2.21-.055-2.253.484-3.962 2.998-3.962 2.998s2.432 1.243 4.508.43c1.843-.723 2.993-1.853 3.507-2.447 1.25.585 2.43 1.05 3.525 1.418-.77.01-1.584.092-2.19.337-2.18.887-3.45 3.716-3.45 3.716s2.663.818 4.606-.368c1.712-1.045 2.668-2.373 3.084-3.066 3.118.827 5.04.948 5.04.948l.057-.56.058-.56c0 .004-1.502-.1-4.022-.67zm43.463-24.114c1.77-.964 2.322-3.37 2.322-3.37s-2.733-.277-4.38 1.002c-.517.403-.993 1.104-1.363 1.763.28-1.346.47-2.723.56-4.12.642-.112 2.092-.478 3.532-1.628 1.545-1.233 1.667-3.65 1.667-3.65s-2.684.198-4.054 1.713c-.444.49-.79 1.28-1.036 1.997.07-1.48.024-2.944-.122-4.385.608-.22 1.932-.823 3.116-2.167 1.28-1.45.988-3.804.988-3.804s-2.558.65-3.622 2.343c-.35.56-.552 1.4-.667 2.144-.222-1.494-.547-2.96-.963-4.38.515-.287 1.75-1.094 2.702-2.656.99-1.62.307-3.838.307-3.838s-2.36 1.06-3.1 2.876c-.275.678-.306 1.67-.27 2.462-.505-1.523-1.113-2.99-1.8-4.388.423-.335 1.527-1.334 2.2-3.06.68-1.73-.357-3.758-.357-3.758s-2.096 1.425-2.5 3.304c-.163.758.015 1.826.2 2.61-.786-1.494-1.662-2.9-2.602-4.197.355-.402 1.24-1.55 1.595-3.316.36-1.786-.983-3.567-.983-3.567s-1.78 1.732-1.852 3.615c-.026.74.307 1.71.614 2.43-1.03-1.33-2.12-2.533-3.247-3.58.272-.445.933-1.706.976-3.477.044-1.785-1.558-3.274-1.558-3.274s-1.423 1.975-1.17 3.804c.104.757.64 1.688 1.07 2.337-.402-.346-.806-.675-1.212-.98-.915-.74-1.816-1.39-2.693-1.97.16-.382.663-1.773.387-3.603-.263-1.73-2.06-2.895-2.06-2.895s-1.04 2.147-.485 3.87c.264.817 1.11 1.76 1.65 2.3-1.637-1.04-3.17-1.816-4.51-2.395.08-.355.356-1.812-.237-3.574-.548-1.625-2.482-2.444-2.482-2.444s-.635 2.25.194 3.817c.42.795 1.508 1.614 2.103 2.02-.92-.38-1.74-.666-2.424-.88-.206-.26-1.214-1.46-2.446-1.67-.986-.168-2.643.467-2.643.467s.795 1.082 2.4 1.633c1.075.37 2.262-.143 2.62-.32.832.287 1.867.683 3.044 1.23-.69-.118-2.096-.3-2.978-.013-1.684.552-2.788 2.613-2.788 2.613s1.96.754 3.482-.038c1.63-.844 2.44-2.06 2.643-2.393 1.318.634 2.8 1.458 4.364 2.527-.724-.245-1.916-.58-2.754-.46-1.79.257-3.264 2.132-3.264 2.132s1.837 1.104 3.506.58c1.693-.532 2.712-1.53 3.036-1.89.692.494 1.398 1.03 2.11 1.626.637.495 1.27 1.042 1.89 1.638-.68-.375-1.842-.94-2.72-.967-1.843-.06-3.658 1.564-3.658 1.564s1.65 1.435 3.422 1.203c1.814-.236 3.02-1.072 3.395-1.367 1.12 1.126 2.198 2.405 3.2 3.812-.63-.492-1.588-1.148-2.384-1.314-1.843-.387-3.953.923-3.953.923s1.403 1.735 3.223 1.816c1.784.08 3.104-.49 3.59-.74.872 1.29 1.68 2.678 2.397 4.145-.543-.58-1.298-1.284-1.993-1.562-1.784-.716-4.137.227-4.137.227s1.103 1.99 2.917 2.395c1.707.382 3.09.084 3.672-.086.644 1.427 1.205 2.923 1.66 4.47-.444-.678-1.075-1.51-1.72-1.91-1.664-1.037-4.196-.506-4.196-.506s.755 2.197 2.507 2.925c1.648.685 3.093.63 3.707.563.4 1.548.688 3.143.852 4.766-.327-.77-.827-1.764-1.424-2.3-1.49-1.335-4.13-1.25-4.13-1.25s.373 2.34 2.003 3.383c1.543.988 3.015 1.186 3.636 1.224.097 1.508.083 3.04-.06 4.578-.195-.8-.51-1.777-.976-2.37-1.26-1.608-3.928-1.99-3.928-1.99s-.044 2.417 1.413 3.754c1.34 1.23 2.74 1.7 3.384 1.86-.15 1.478-.416 2.926-.776 4.334-.054-.835-.198-1.858-.56-2.53-.98-1.838-3.594-2.695-3.594-2.695s-.472 2.422.753 4.02c1.115 1.458 2.42 2.176 3.048 2.46-.41 1.358-.906 2.677-1.478 3.948.08-.82.1-1.79-.13-2.485-.662-2.02-3.133-3.344-3.133-3.344s-.905 2.35.043 4.175c.843 1.625 1.992 2.57 2.586 2.984-.624 1.234-1.316 2.42-2.063 3.543.21-.784.378-1.695.277-2.4-.307-2.147-2.555-3.914-2.555-3.914s-1.327 2.2-.7 4.202c.55 1.758 1.52 2.906 2.05 3.435-.856 1.17-1.766 2.263-2.716 3.27.37-.774.734-1.718.76-2.482.07-2.212-1.878-4.387-1.878-4.387s-1.72 1.978-1.442 4.1c.247 1.906 1.046 3.25 1.478 3.857-1.065 1.027-2.165 1.947-3.28 2.745.517-.718 1.068-1.62 1.23-2.398.464-2.21-1.108-4.742-1.108-4.742s-2.08 1.682-2.177 3.866c-.09 1.945.47 3.427.797 4.122-.428.27-.856.522-1.284.753-.777.455-1.534.856-2.274 1.216.61-.608 1.248-1.36 1.53-2.058.856-2.14-.275-4.962-.275-4.962s-2.387 1.32-2.873 3.498c-.423 1.896-.147 3.46.06 4.236-1.357.58-2.623 1.013-3.76 1.34.712-.5 1.47-1.132 1.87-1.776 1.24-2 .604-5.035.604-5.035s-2.633.904-3.506 3.006c-.755 1.817-.76 3.428-.695 4.25-2.52.57-4.02.672-4.02.672l.056.56.057.56s1.92-.122 5.04-.95c.414.693 1.37 2.022 3.085 3.067 1.942 1.186 4.606.37 4.606.37s-1.272-2.83-3.452-3.717c-.604-.246-1.418-.327-2.188-.337 1.093-.367 2.277-.832 3.525-1.416.513.595 1.664 1.724 3.506 2.446 2.077.814 4.51-.43 4.51-.43s-1.71-2.513-3.964-2.997c-.637-.137-1.452-.072-2.21.054.425-.228.852-.47 1.286-.73.683-.377 1.37-.805 2.05-1.276.61.49 1.904 1.365 3.777 1.743 2.143.432 4.278-1.18 4.278-1.18s-2.077-2.137-4.336-2.22c-.61-.024-1.353.16-2.037.397.965-.78 1.912-1.65 2.83-2.596.655.368 2.068 1.012 3.975 1.06 2.14.05 3.927-1.87 3.927-1.87s-2.37-1.707-4.563-1.404c-.65.09-1.41.446-2.073.83.863-.994 1.685-2.056 2.456-3.182.66.24 2.175.663 4.095.372 2.075-.314 3.473-2.47 3.473-2.47s-2.575-1.247-4.642-.58c-.67.215-1.41.76-2.018 1.29.728-1.177 1.398-2.41 1.994-3.694.68.118 2.213.267 4.012-.338 1.95-.657 2.93-2.976 2.93-2.976s-2.697-.764-4.578.23c-.6.318-1.21.954-1.702 1.557.518-1.276.963-2.595 1.32-3.948.682-.003 2.18-.124 3.807-1.01z" fill="#51ac83"/><circle cx="143.425" cy="365.349" r="21.542" fill="#e7af3a"/><circle cx="143.426" cy="365.349" r="18.531" fill="#fee582"/><path fill="#e7af3a" d="M143.426 354.075l3.663 7.422 8.19 1.19-5.926 5.78 1.4 8.157-7.328-3.852-7.328 3.852 1.4-8.158-5.927-5.78 8.19-1.19z"/></g><g transform="matrix(.737 0 0 .783 -11.615 -133.562)"><path fill="#975b29" d="M247.6 309.46l-6.878-5.172-8.177.726 14.278-48.33 7.547 2.177 7.507 2.272z"/><path fill="#bc712d" d="M268.997 300.76l-8.596-.38-6.334 5.22-15.545-47.935 7.456-2.47 7.475-2.372z"/><path fill="#e7af3a" d="M227.545 278.214l-.972-5.1-2.85-4.34 1.056-5.086-.975-5.1 2.92-4.293 1.055-5.085 4.34-2.85 2.92-4.294 5.1-.97 4.343-2.85 5.083 1.054 5.1-.972 4.293 2.92 5.085 1.054 2.85 4.34 4.293 2.92.97 5.1 2.85 4.34-1.053 5.085.972 5.1-2.92 4.294-1.054 5.087-4.34 2.85-2.92 4.292-5.102.97-4.34 2.85-5.084-1.053-5.1.972-4.293-2.92-5.085-1.056-2.85-4.34z"/><circle cx="249.367" cy="263.888" r="16.995" fill="#fee582"/><g><text transform="translate(238.354 271.216)" font-size="21.807" font-family="College" fill="#bc712d">#1</text></g></g></g></svg>