<?xml version="1.0" encoding="UTF-8" standalone="no"?>
<!-- Generator: Adobe Illustrator 17.0.0, SVG Export Plug-In . SVG Version: 6.00 Build 0)  -->

<svg
   xmlns:dc="http://purl.org/dc/elements/1.1/"
   xmlns:cc="http://creativecommons.org/ns#"
   xmlns:rdf="http://www.w3.org/1999/02/22-rdf-syntax-ns#"
   xmlns:svg="http://www.w3.org/2000/svg"
   xmlns="http://www.w3.org/2000/svg"
   xmlns:xlink="http://www.w3.org/1999/xlink"
   xmlns:sodipodi="http://sodipodi.sourceforge.net/DTD/sodipodi-0.dtd"
   xmlns:inkscape="http://www.inkscape.org/namespaces/inkscape"
   version="1.1"
   x="0px"
   y="0px"
   width="250"
   height="250"
   viewBox="0 0 249.99999 250"
   enable-background="new 0 0 595.28 841.89"
   xml:space="preserve"
   id="svg2"
   inkscape:version="0.91pre3 r13670"
   sodipodi:docname="medallas.svg"><metadata
     id="metadata104"><rdf:RDF><cc:Work
         rdf:about=""><dc:format>image/svg+xml</dc:format><dc:type
           rdf:resource="http://purl.org/dc/dcmitype/StillImage" /><dc:title></dc:title></cc:Work></rdf:RDF></metadata><defs
     id="defs102" /><sodipodi:namedview
     pagecolor="#ffffff"
     bordercolor="#666666"
     borderopacity="1"
     objecttolerance="10"
     gridtolerance="10"
     guidetolerance="10"
     inkscape:pageopacity="0"
     inkscape:pageshadow="2"
     inkscape:window-width="640"
     inkscape:window-height="480"
     id="namedview100"
     showgrid="false"
     inkscape:zoom="0.28032165"
     inkscape:cx="235.21173"
     inkscape:cy="420.94501"
     inkscape:window-x="0"
     inkscape:window-y="0"
     inkscape:window-maximized="0"
     inkscape:current-layer="svg2" /><g
     id="Capa_1"
     display="none"
     style="display:none"
     transform="translate(0,-591.89001)"><path
       display="inline"
       d="m 322.802,418.152 c 0,14.878 -12.601,26.939 -28.145,26.939 l -204.719,0 c -15.544,0 -28.144,-12.061 -28.144,-26.939 l 0,-193.602 c 0,-14.878 12.601,-26.939 28.144,-26.939 l 204.719,0 c 15.544,0 28.145,12.061 28.145,26.939 l 0,193.602 z"
       id="path5"
       inkscape:connector-curvature="0"
       style="clip-rule:evenodd;display:inline;fill:#80a5c6;fill-rule:evenodd" /><path
       display="inline"
       d="m 311.587,409.916 c 0,13.612 -11.518,24.647 -25.726,24.647 l -187.127,0 c -14.208,0 -25.726,-11.035 -25.726,-24.647 l 0,-177.13 c 0,-13.612 11.518,-24.647 25.726,-24.647 l 187.127,0 c 14.208,0 25.726,11.035 25.726,24.647 l 0,177.13 z"
       id="path7"
       inkscape:connector-curvature="0"
       style="clip-rule:evenodd;display:inline;fill:#cee8ef;fill-rule:evenodd" /></g><g
     id="Capa_2"
     transform="matrix(0.73677946,0,0,0.78257702,-11.615113,-133.56223)"><g
       id="g10"><g
         id="g12"><rect
           x="121.131"
           y="237.565"
           width="44.973999"
           height="15.376"
           id="rect14"
           style="fill:#346e52" /><path
           d="m 136.122,284.845 -23.832,-31.52 8.841,-15.76 31.136,44.974 -16.145,2.306 z"
           id="path16"
           inkscape:connector-curvature="0"
           style="fill:#6ec499" /><g
           id="g18"><defs
             id="defs20"><path
               id="SVGID_1_"
               d="m 136.123,284.845 -23.832,-31.52 8.841,-15.76 31.136,44.974 -16.145,2.306 z"
               inkscape:connector-curvature="0" /></defs><clipPath
             id="SVGID_2_"><use
               xlink:href="#SVGID_1_"
               overflow="visible"
               id="use24"
               style="overflow:visible"
               x="0"
               y="0"
               width="100%"
               height="100%" /></clipPath><line
             clip-path="url(#SVGID_2_)"
             stroke-miterlimit="10"
             x1="149.44901"
             y1="285.358"
             x2="116.904"
             y2="238.97501"
             id="line26"
             style="fill:none;stroke:#e3d5b9;stroke-width:0.55339998;stroke-miterlimit:10" /><line
             clip-path="url(#SVGID_2_)"
             stroke-miterlimit="10"
             x1="143.55499"
             y1="288.69"
             x2="111.01"
             y2="242.30701"
             id="line28"
             style="fill:none;stroke:#e3d5b9;stroke-width:0.55339998;stroke-miterlimit:10" /></g><polygon
           points="174.561,253.325 150.729,284.845 134.584,282.539 165.72,237.565 "
           id="polygon30"
           style="fill:#51ac83" /><g
           id="g32"><defs
             id="defs34"><polygon
               id="SVGID_3_"
               points="174.562,253.325 150.73,284.845 134.585,282.539 165.721,237.565 " /></defs><clipPath
             id="SVGID_4_"><use
               xlink:href="#SVGID_3_"
               overflow="visible"
               id="use38"
               style="overflow:visible"
               x="0"
               y="0"
               width="100%"
               height="100%" /></clipPath><line
             clip-path="url(#SVGID_4_)"
             stroke-miterlimit="10"
             x1="137.659"
             y1="285.61401"
             x2="170.205"
             y2="239.231"
             id="line40"
             style="fill:none;stroke:#e3d5b9;stroke-width:0.55339998;stroke-miterlimit:10" /><line
             clip-path="url(#SVGID_4_)"
             stroke-miterlimit="10"
             x1="143.554"
             y1="288.94601"
             x2="176.10001"
             y2="242.563"
             id="line42"
             style="fill:none;stroke:#e3d5b9;stroke-width:0.55339998;stroke-miterlimit:10" /></g></g><circle
         cx="143.425"
         cy="292.26801"
         r="17.874001"
         id="circle44"
         style="fill:#e7af3a" /><circle
         cx="143.425"
         cy="292.26801"
         r="15.375"
         id="circle46"
         style="fill:#fee582" /><polygon
         points="143.426,282.913 146.465,289.071 153.262,290.059 148.344,294.854 149.505,301.622 143.426,298.426 137.345,301.622 138.507,294.854 133.589,290.059 140.386,289.071 "
         id="polygon48"
         style="fill:#e7af3a" /></g><g
       id="g50"><rect
         x="241.196"
         y="373.89301"
         width="16.039"
         height="18.641001"
         id="rect52"
         style="fill:#e7af3a" /><rect
         x="229.70799"
         y="384.297"
         width="39.015999"
         height="17.34"
         id="rect54"
         style="fill:#fee582" /><g
         id="g56"><path
           d="m 263.961,356.498 -0.667,-3.189 c 12.534,-2.653 14.227,-9.217 14.243,-9.284 0.611,-2.233 0.43,-3.882 -0.539,-5.094 -1.972,-2.465 -6.879,-2.771 -8.603,-2.677 L 268.225,333 c 0.322,-0.017 7.897,-0.367 11.3,3.889 1.646,2.059 2.033,4.733 1.151,7.947 -0.07,0.296 -2.193,8.588 -16.715,11.662 z"
           id="path58"
           inkscape:connector-curvature="0"
           style="fill:#e7af3a" /></g><g
         id="g60"><path
           d="m 234.776,356.859 c -14.522,-3.074 -16.645,-11.366 -16.728,-11.717 -0.867,-3.159 -0.48,-5.833 1.166,-7.892 3.402,-4.256 10.98,-3.904 11.299,-3.89 l -0.168,3.255 c -1.736,-0.086 -6.652,0.226 -8.609,2.68 -0.966,1.213 -1.146,2.86 -0.55,5.035 0.082,0.309 1.903,6.725 14.258,9.339 l -0.668,3.19 z"
           id="path62"
           inkscape:connector-curvature="0"
           style="fill:#e7af3a" /></g><g
         id="g64"><defs
           id="defs66"><rect
             id="SVGID_5_"
             x="225.989"
             y="329.06"
             width="50.237"
             height="56.521" /></defs><clipPath
           id="SVGID_6_"><use
             xlink:href="#SVGID_5_"
             overflow="visible"
             id="use70"
             style="overflow:visible"
             x="0"
             y="0"
             width="100%"
             height="100%" /></clipPath><ellipse
           clip-path="url(#SVGID_6_)"
           cx="249.217"
           cy="329.06"
           rx="22.148001"
           ry="49.132"
           id="ellipse72"
           style="fill:#fee582" /></g><rect
         x="235.42599"
         y="389.60901"
         width="27.579"
         height="7.4749999"
         id="rect74"
         style="fill:#e7af3a" /></g><g
       id="g76"><path
         d="m 136.101,397.085 c 0.067,-0.821 0.061,-2.431 -0.695,-4.249 -0.873,-2.101 -3.506,-3.007 -3.506,-3.007 0,0 -0.637,3.036 0.604,5.035 0.4,0.644 1.158,1.276 1.871,1.776 -1.138,-0.327 -2.403,-0.762 -3.76,-1.34 0.207,-0.775 0.482,-2.34 0.059,-4.236 -0.484,-2.177 -2.874,-3.498 -2.874,-3.498 0,0 -1.13,2.821 -0.273,4.962 0.281,0.698 0.918,1.449 1.529,2.058 -0.74,-0.36 -1.499,-0.762 -2.274,-1.215 -0.428,-0.231 -0.855,-0.484 -1.283,-0.753 0.328,-0.694 0.885,-2.177 0.798,-4.122 -0.099,-2.184 -2.177,-3.866 -2.177,-3.866 0,0 -1.573,2.532 -1.109,4.742 0.162,0.776 0.713,1.68 1.23,2.398 -1.113,-0.798 -2.216,-1.718 -3.281,-2.745 0.431,-0.608 1.231,-1.951 1.479,-3.857 0.278,-2.122 -1.444,-4.1 -1.444,-4.1 0,0 -1.946,2.175 -1.877,4.387 0.026,0.764 0.391,1.708 0.76,2.481 -0.95,-1.006 -1.861,-2.101 -2.716,-3.269 0.53,-0.53 1.498,-1.678 2.049,-3.436 0.628,-2.001 -0.696,-4.203 -0.696,-4.203 0,0 -2.25,1.767 -2.557,3.915 -0.101,0.703 0.066,1.615 0.277,2.399 -0.746,-1.124 -1.437,-2.308 -2.06,-3.544 0.593,-0.412 1.743,-1.359 2.586,-2.984 0.948,-1.825 0.044,-4.176 0.044,-4.176 0,0 -2.472,1.323 -3.134,3.344 -0.228,0.696 -0.209,1.666 -0.129,2.485 -0.574,-1.271 -1.07,-2.59 -1.48,-3.948 0.628,-0.285 1.933,-1.002 3.047,-2.459 1.226,-1.6 0.754,-4.022 0.754,-4.022 0,0 -2.611,0.857 -3.594,2.694 -0.361,0.673 -0.504,1.696 -0.56,2.531 -0.36,-1.408 -0.624,-2.855 -0.775,-4.334 0.644,-0.16 2.044,-0.629 3.385,-1.861 1.456,-1.337 1.413,-3.754 1.413,-3.754 0,0 -2.666,0.381 -3.926,1.989 -0.469,0.594 -0.783,1.57 -0.977,2.37 -0.144,-1.538 -0.157,-3.069 -0.059,-4.577 0.622,-0.038 2.092,-0.236 3.635,-1.224 1.632,-1.042 2.002,-3.383 2.002,-3.383 0,0 -2.638,-0.085 -4.129,1.25 -0.596,0.536 -1.096,1.529 -1.421,2.299 0.163,-1.623 0.451,-3.218 0.852,-4.766 0.614,0.068 2.058,0.122 3.706,-0.564 1.752,-0.728 2.507,-2.925 2.507,-2.925 0,0 -2.532,-0.531 -4.197,0.505 -0.645,0.401 -1.276,1.232 -1.719,1.909 0.455,-1.545 1.015,-3.04 1.661,-4.469 0.581,0.171 1.965,0.469 3.671,0.086 1.815,-0.404 2.918,-2.395 2.918,-2.395 0,0 -2.353,-0.943 -4.137,-0.227 -0.695,0.278 -1.451,0.981 -1.995,1.561 0.719,-1.467 1.526,-2.853 2.397,-4.144 0.489,0.25 1.807,0.82 3.591,0.739 1.82,-0.081 3.223,-1.816 3.223,-1.816 0,0 -2.109,-1.31 -3.953,-0.922 -0.796,0.167 -1.752,0.822 -2.384,1.314 1.003,-1.408 2.081,-2.686 3.201,-3.812 0.376,0.295 1.581,1.13 3.395,1.366 1.771,0.232 3.422,-1.203 3.422,-1.203 0,0 -1.815,-1.624 -3.661,-1.564 -0.873,0.028 -2.035,0.591 -2.716,0.967 0.62,-0.596 1.252,-1.144 1.888,-1.638 0.714,-0.594 1.419,-1.132 2.112,-1.625 0.324,0.359 1.342,1.357 3.036,1.888 1.669,0.525 3.507,-0.579 3.507,-0.579 0,0 -1.476,-1.875 -3.267,-2.131 -0.835,-0.12 -2.028,0.214 -2.753,0.458 1.565,-1.068 3.046,-1.892 4.366,-2.526 0.202,0.334 1.014,1.549 2.642,2.392 1.522,0.792 3.482,0.038 3.482,0.038 0,0 -1.105,-2.061 -2.788,-2.613 -0.88,-0.287 -2.287,-0.105 -2.977,0.013 1.176,-0.548 2.21,-0.943 3.044,-1.23 0.357,0.176 1.545,0.689 2.62,0.32 1.604,-0.551 2.398,-1.633 2.398,-1.633 0,0 -1.657,-0.634 -2.643,-0.468 -1.233,0.211 -2.238,1.41 -2.445,1.67 -0.687,0.216 -1.504,0.501 -2.424,0.882 0.594,-0.407 1.682,-1.226 2.103,-2.021 0.828,-1.568 0.192,-3.818 0.192,-3.818 0,0 -1.934,0.819 -2.481,2.444 -0.594,1.761 -0.319,3.219 -0.236,3.574 -1.341,0.579 -2.874,1.354 -4.511,2.393 0.537,-0.539 1.385,-1.481 1.648,-2.297 0.557,-1.724 -0.482,-3.871 -0.482,-3.871 0,0 -1.797,1.165 -2.061,2.895 -0.277,1.83 0.224,3.22 0.385,3.604 -0.876,0.579 -1.778,1.23 -2.693,1.968 -0.407,0.306 -0.811,0.635 -1.212,0.982 0.431,-0.649 0.966,-1.581 1.07,-2.337 0.253,-1.83 -1.171,-3.803 -1.171,-3.803 0,0 -1.601,1.489 -1.558,3.274 0.043,1.771 0.705,3.032 0.976,3.478 -1.126,1.046 -2.218,2.249 -3.246,3.579 0.305,-0.72 0.641,-1.689 0.613,-2.43 -0.069,-1.883 -1.851,-3.615 -1.851,-3.615 0,0 -1.344,1.781 -0.985,3.567 0.356,1.766 1.24,2.914 1.594,3.317 -0.94,1.297 -1.814,2.702 -2.601,4.197 0.186,-0.784 0.363,-1.851 0.2,-2.609 -0.404,-1.88 -2.5,-3.304 -2.5,-3.304 0,0 -1.037,2.028 -0.358,3.759 0.675,1.725 1.778,2.724 2.199,3.059 -0.686,1.399 -1.293,2.866 -1.798,4.388 0.034,-0.793 0.005,-1.785 -0.27,-2.462 -0.739,-1.816 -3.099,-2.876 -3.099,-2.876 0,0 -0.681,2.22 0.308,3.839 0.952,1.562 2.187,2.369 2.703,2.657 -0.416,1.42 -0.742,2.884 -0.964,4.378 -0.116,-0.743 -0.316,-1.584 -0.667,-2.143 -1.064,-1.694 -3.622,-2.342 -3.622,-2.342 0,0 -0.292,2.353 0.988,3.804 1.184,1.344 2.506,1.945 3.114,2.167 -0.144,1.441 -0.188,2.906 -0.12,4.385 -0.247,-0.717 -0.593,-1.507 -1.036,-1.997 -1.371,-1.515 -4.056,-1.713 -4.056,-1.713 0,0 0.122,2.417 1.666,3.65 1.439,1.151 2.89,1.516 3.532,1.627 0.092,1.398 0.281,2.775 0.56,4.121 -0.369,-0.659 -0.847,-1.36 -1.363,-1.763 -1.646,-1.279 -4.38,-1.001 -4.38,-1.001 0,0 0.553,2.405 2.324,3.37 1.625,0.887 3.123,1.007 3.804,1.009 0.357,1.354 0.803,2.672 1.322,3.947 -0.494,-0.604 -1.105,-1.24 -1.704,-1.557 -1.881,-0.994 -4.579,-0.23 -4.579,-0.23 0,0 0.981,2.319 2.931,2.976 1.8,0.605 3.332,0.457 4.012,0.338 0.596,1.283 1.266,2.517 1.994,3.694 -0.608,-0.53 -1.348,-1.075 -2.018,-1.29 -2.065,-0.667 -4.641,0.579 -4.641,0.579 0,0 1.397,2.157 3.472,2.471 1.919,0.29 3.436,-0.133 4.095,-0.372 0.771,1.126 1.594,2.188 2.455,3.182 -0.664,-0.384 -1.421,-0.74 -2.072,-0.83 -2.194,-0.303 -4.561,1.405 -4.561,1.405 0,0 1.786,1.92 3.927,1.868 1.907,-0.047 3.319,-0.691 3.976,-1.059 0.915,0.947 1.863,1.816 2.828,2.596 -0.683,-0.237 -1.426,-0.421 -2.038,-0.398 -2.257,0.083 -4.335,2.22 -4.335,2.22 0,0 2.135,1.613 4.277,1.181 1.874,-0.378 3.166,-1.25 3.775,-1.742 0.683,0.471 1.368,0.899 2.053,1.277 0.433,0.259 0.86,0.5 1.286,0.729 -0.757,-0.126 -1.573,-0.191 -2.209,-0.054 -2.254,0.484 -3.963,2.998 -3.963,2.998 0,0 2.432,1.243 4.508,0.429 1.843,-0.722 2.993,-1.852 3.507,-2.446 1.249,0.584 2.431,1.048 3.525,1.417 -0.77,0.01 -1.584,0.092 -2.189,0.337 -2.18,0.887 -3.452,3.716 -3.452,3.716 0,0 2.664,0.817 4.607,-0.369 1.712,-1.045 2.668,-2.373 3.084,-3.066 3.118,0.827 5.041,0.948 5.041,0.948 l 0.056,-0.56 0.058,-0.559 c -10e-4,0.003 -1.502,-0.1 -4.022,-0.67 z m 43.462,-24.114 c 1.769,-0.965 2.322,-3.37 2.322,-3.37 0,0 -2.733,-0.278 -4.38,1.001 -0.517,0.403 -0.993,1.104 -1.363,1.763 0.28,-1.346 0.469,-2.723 0.561,-4.121 0.641,-0.111 2.091,-0.477 3.531,-1.627 1.545,-1.233 1.667,-3.65 1.667,-3.65 0,0 -2.685,0.198 -4.055,1.713 -0.444,0.491 -0.79,1.28 -1.036,1.997 0.069,-1.479 0.024,-2.944 -0.122,-4.385 0.608,-0.221 1.932,-0.823 3.116,-2.167 1.279,-1.451 0.988,-3.804 0.988,-3.804 0,0 -2.558,0.648 -3.622,2.342 -0.351,0.559 -0.552,1.4 -0.667,2.144 -0.222,-1.494 -0.547,-2.959 -0.963,-4.379 0.515,-0.288 1.749,-1.095 2.702,-2.657 0.99,-1.62 0.307,-3.839 0.307,-3.839 0,0 -2.36,1.06 -3.099,2.876 -0.275,0.678 -0.306,1.669 -0.27,2.462 -0.505,-1.523 -1.113,-2.989 -1.799,-4.388 0.422,-0.335 1.526,-1.334 2.199,-3.059 0.679,-1.731 -0.357,-3.759 -0.357,-3.759 0,0 -2.096,1.425 -2.501,3.304 -0.162,0.758 0.016,1.826 0.201,2.61 -0.786,-1.494 -1.662,-2.9 -2.602,-4.197 0.354,-0.403 1.238,-1.551 1.594,-3.317 0.36,-1.786 -0.983,-3.567 -0.983,-3.567 0,0 -1.781,1.732 -1.852,3.615 -0.026,0.74 0.307,1.709 0.614,2.43 -1.029,-1.33 -2.121,-2.533 -3.247,-3.579 0.272,-0.446 0.933,-1.707 0.976,-3.478 0.044,-1.785 -1.558,-3.274 -1.558,-3.274 0,0 -1.423,1.974 -1.17,3.803 0.104,0.757 0.639,1.688 1.07,2.337 -0.402,-0.347 -0.806,-0.676 -1.212,-0.982 -0.915,-0.738 -1.816,-1.389 -2.693,-1.968 0.161,-0.383 0.663,-1.774 0.387,-3.604 -0.263,-1.731 -2.061,-2.895 -2.061,-2.895 0,0 -1.04,2.147 -0.484,3.871 0.264,0.816 1.111,1.758 1.65,2.298 -1.637,-1.04 -3.171,-1.815 -4.511,-2.394 0.082,-0.355 0.357,-1.812 -0.236,-3.574 -0.548,-1.625 -2.482,-2.444 -2.482,-2.444 0,0 -0.635,2.25 0.194,3.818 0.42,0.795 1.508,1.614 2.103,2.021 -0.921,-0.381 -1.739,-0.667 -2.424,-0.882 -0.206,-0.26 -1.214,-1.459 -2.446,-1.67 -0.986,-0.167 -2.643,0.468 -2.643,0.468 0,0 0.795,1.082 2.399,1.633 1.076,0.369 2.263,-0.143 2.621,-0.32 0.832,0.287 1.867,0.683 3.044,1.23 -0.691,-0.118 -2.097,-0.301 -2.979,-0.013 -1.684,0.552 -2.788,2.613 -2.788,2.613 0,0 1.96,0.754 3.482,-0.038 1.629,-0.843 2.44,-2.058 2.643,-2.392 1.319,0.634 2.801,1.458 4.365,2.527 -0.724,-0.245 -1.916,-0.579 -2.754,-0.459 -1.789,0.256 -3.264,2.131 -3.264,2.131 0,0 1.837,1.104 3.506,0.579 1.693,-0.531 2.712,-1.529 3.036,-1.888 0.692,0.493 1.398,1.03 2.111,1.625 0.636,0.495 1.268,1.042 1.888,1.638 -0.68,-0.375 -1.841,-0.939 -2.718,-0.967 -1.844,-0.061 -3.659,1.564 -3.659,1.564 0,0 1.65,1.435 3.422,1.203 1.814,-0.236 3.019,-1.072 3.395,-1.367 1.119,1.126 2.198,2.405 3.199,3.812 -0.63,-0.492 -1.587,-1.148 -2.383,-1.314 -1.843,-0.388 -3.953,0.922 -3.953,0.922 0,0 1.403,1.735 3.223,1.816 1.784,0.081 3.104,-0.489 3.59,-0.739 0.872,1.291 1.679,2.678 2.397,4.145 -0.543,-0.58 -1.298,-1.284 -1.993,-1.562 -1.784,-0.716 -4.137,0.227 -4.137,0.227 0,0 1.103,1.991 2.917,2.395 1.707,0.382 3.091,0.084 3.672,-0.086 0.645,1.428 1.206,2.924 1.661,4.47 -0.444,-0.677 -1.075,-1.509 -1.721,-1.91 -1.663,-1.036 -4.195,-0.505 -4.195,-0.505 0,0 0.755,2.197 2.507,2.925 1.647,0.686 3.092,0.632 3.706,0.564 0.4,1.548 0.688,3.143 0.852,4.766 -0.326,-0.77 -0.826,-1.763 -1.423,-2.299 -1.489,-1.335 -4.129,-1.25 -4.129,-1.25 0,0 0.372,2.341 2.002,3.383 1.544,0.988 3.016,1.186 3.637,1.224 0.097,1.508 0.083,3.039 -0.061,4.578 -0.194,-0.801 -0.51,-1.777 -0.975,-2.371 -1.261,-1.607 -3.928,-1.989 -3.928,-1.989 0,0 -0.044,2.417 1.413,3.754 1.34,1.232 2.741,1.701 3.384,1.861 -0.15,1.478 -0.415,2.926 -0.775,4.334 -0.054,-0.835 -0.198,-1.858 -0.56,-2.531 -0.981,-1.837 -3.594,-2.694 -3.594,-2.694 0,0 -0.472,2.423 0.753,4.022 1.115,1.457 2.419,2.175 3.048,2.459 -0.41,1.358 -0.907,2.677 -1.479,3.948 0.08,-0.819 0.099,-1.789 -0.129,-2.485 -0.663,-2.021 -3.134,-3.344 -3.134,-3.344 0,0 -0.904,2.351 0.044,4.176 0.843,1.625 1.992,2.571 2.586,2.984 -0.623,1.235 -1.315,2.42 -2.062,3.544 0.211,-0.784 0.378,-1.695 0.277,-2.399 -0.307,-2.148 -2.555,-3.915 -2.555,-3.915 0,0 -1.326,2.202 -0.698,4.203 0.55,1.758 1.519,2.906 2.05,3.435 -0.857,1.169 -1.767,2.263 -2.717,3.269 0.369,-0.773 0.734,-1.717 0.759,-2.481 0.072,-2.212 -1.877,-4.387 -1.877,-4.387 0,0 -1.721,1.978 -1.442,4.1 0.247,1.906 1.046,3.249 1.478,3.857 -1.065,1.027 -2.165,1.947 -3.281,2.745 0.518,-0.718 1.069,-1.621 1.231,-2.398 0.464,-2.21 -1.108,-4.742 -1.108,-4.742 0,0 -2.08,1.682 -2.177,3.866 -0.089,1.945 0.47,3.427 0.797,4.122 -0.428,0.269 -0.856,0.522 -1.284,0.753 -0.777,0.454 -1.534,0.855 -2.274,1.215 0.61,-0.608 1.248,-1.359 1.529,-2.058 0.857,-2.14 -0.274,-4.962 -0.274,-4.962 0,0 -2.388,1.321 -2.874,3.498 -0.423,1.896 -0.147,3.461 0.059,4.236 -1.356,0.579 -2.622,1.013 -3.759,1.34 0.712,-0.501 1.47,-1.132 1.869,-1.776 1.241,-1.999 0.605,-5.035 0.605,-5.035 0,0 -2.634,0.905 -3.507,3.007 -0.755,1.817 -0.761,3.428 -0.695,4.249 -2.519,0.57 -4.02,0.673 -4.02,0.673 l 0.057,0.559 0.057,0.56 c 0,0 1.921,-0.121 5.039,-0.948 0.415,0.692 1.371,2.021 3.086,3.066 1.942,1.186 4.606,0.369 4.606,0.369 0,0 -1.272,-2.83 -3.452,-3.716 -0.604,-0.246 -1.418,-0.327 -2.188,-0.337 1.093,-0.368 2.277,-0.833 3.525,-1.417 0.514,0.595 1.665,1.724 3.507,2.446 2.077,0.814 4.509,-0.429 4.509,-0.429 0,0 -1.709,-2.514 -3.963,-2.998 -0.637,-0.137 -1.452,-0.072 -2.21,0.054 0.425,-0.228 0.852,-0.47 1.286,-0.729 0.683,-0.378 1.37,-0.806 2.051,-1.277 0.61,0.49 1.903,1.364 3.776,1.742 2.143,0.432 4.278,-1.181 4.278,-1.181 0,0 -2.077,-2.136 -4.336,-2.22 -0.611,-0.023 -1.353,0.161 -2.037,0.398 0.965,-0.781 1.912,-1.65 2.83,-2.596 0.655,0.368 2.068,1.012 3.975,1.059 2.14,0.051 3.927,-1.868 3.927,-1.868 0,0 -2.369,-1.708 -4.563,-1.405 -0.65,0.09 -1.408,0.446 -2.072,0.83 0.863,-0.994 1.685,-2.056 2.456,-3.182 0.659,0.24 2.175,0.663 4.095,0.372 2.075,-0.314 3.473,-2.471 3.473,-2.471 0,0 -2.576,-1.246 -4.643,-0.579 -0.67,0.215 -1.409,0.761 -2.018,1.29 0.728,-1.177 1.398,-2.411 1.994,-3.694 0.679,0.118 2.213,0.267 4.012,-0.338 1.95,-0.657 2.93,-2.976 2.93,-2.976 0,0 -2.697,-0.764 -4.578,0.23 -0.599,0.318 -1.21,0.954 -1.702,1.557 0.518,-1.275 0.963,-2.594 1.321,-3.947 0.681,-0.003 2.179,-0.124 3.806,-1.011 z"
         id="path78"
         inkscape:connector-curvature="0"
         style="fill:#51ac83" /><circle
         cx="143.425"
         cy="365.349"
         r="21.542"
         id="circle80"
         style="fill:#e7af3a" /><circle
         cx="143.42599"
         cy="365.349"
         r="18.531"
         id="circle82"
         style="fill:#fee582" /><polygon
         points="143.426,354.075 147.089,361.497 155.281,362.687 149.354,368.466 150.753,376.624 143.426,372.772 136.098,376.624 137.498,368.466 131.571,362.687 139.761,361.497 "
         id="polygon84"
         style="fill:#e7af3a" /></g><g
       id="g86"><polygon
         points="247.599,309.461 240.722,304.288 232.545,305.014 246.823,256.684 254.37,258.861 261.877,261.132 "
         id="polygon88"
         style="fill:#975b29" /><polygon
         points="268.997,300.759 260.401,300.38 254.066,305.601 238.521,257.665 245.976,255.195 253.451,252.823 "
         id="polygon90"
         style="fill:#bc712d" /><polygon
         points="227.545,278.214 226.573,273.113 223.724,268.773 224.779,263.688 223.805,258.588 226.726,254.295 227.78,249.21 232.121,246.36 235.04,242.066 240.141,241.095 244.483,238.246 249.566,239.3 254.666,238.328 258.959,241.248 264.045,242.302 266.894,246.642 271.188,249.562 272.159,254.662 275.009,259.003 273.955,264.087 274.927,269.188 272.007,273.481 270.953,278.567 266.612,281.416 263.692,285.709 258.591,286.681 254.251,289.531 249.166,288.477 244.067,289.449 239.773,286.529 234.688,285.474 231.839,281.134 "
         id="polygon92"
         style="fill:#e7af3a" /><circle
         cx="249.367"
         cy="263.888"
         r="16.995001"
         id="circle94"
         style="fill:#fee582" /><g
         id="g96"><text
           transform="translate(238.3539,271.2165)"
           font-size="21.8068"
           id="text98"
           style="font-size:21.80680084px;font-family:College;fill:#bc712d">#1</text>
</g></g></g></svg>