<svg xmlns="http://www.w3.org/2000/svg" width="250" height="250" viewBox="0 0 249.99999 250" enable-background="new 0 0 595.28 841.89"><g><path d="M134.71 132.175c-2.015 0-3.653 1.638-3.653 3.652 0 2.013 1.638 3.652 3.652 3.652 2.012 0 3.65-1.64 3.65-3.653s-1.638-3.652-3.65-3.652z" fill="#80a5c6"/><path d="M112.102 132.175c-2.013 0-3.652 1.638-3.652 3.652 0 2.013 1.64 3.652 3.652 3.652 2.013 0 3.652-1.64 3.652-3.653s-1.64-3.652-3.652-3.652z" fill="#80a5c6"/><path d="M124.04 59.388c-28.525 0-51.65 23.125-51.65 51.652 0 28.526 23.124 51.65 51.65 51.65 28.527 0 51.652-23.124 51.652-51.65 0-28.527-23.125-51.652-51.65-51.652zm-11.938 82.873c-3.547 0-6.434-2.885-6.434-6.433s2.886-6.434 6.434-6.434 6.434 2.886 6.434 6.434-2.886 6.434-6.434 6.434zm22.607 0c-3.55 0-6.435-2.885-6.435-6.433s2.886-6.434 6.434-6.434c3.546 0 6.433 2.886 6.433 6.434s-2.887 6.434-6.434 6.434zm15.95-50.444l-6.14 23.66c-.64 2.472-3.14 4.41-5.697 4.41h-31.315c-.242 0-.484.042-.716.127-.818.302-1.37 1.09-1.37 1.96v.928c0 1.15.936 2.088 2.087 2.088H142.3c2.867 0 4.87 1.19 4.87 2.897v1.51h-2.783v-1.208c-.29-.164-1.004-.418-2.088-.418H107.51c-2.686 0-4.87-2.185-4.87-4.87v-.93c0-1.59.793-3.062 2.056-3.964h-.123v-29.55c-1.18-.895-1.92-2.267-1.984-3.772l-.02-.444c-.05-1.167-1.07-2.148-2.232-2.148H96.86V79.31h3.478c2.652 0 4.9 2.157 5.01 4.808l.02.442c.036.82.55 1.577 1.31 1.937.295.14.604.21.926.21h39.105c1.345 0 2.548.558 3.3 1.53.75.973.987 2.277.65 3.58z" fill="#80a5c6"/><path d="M147.806 89.94c-.224-.29-.615-.45-1.1-.45H107.6c-.083 0-.165-.008-.246-.012v27.63c.05 0 .102-.005.153-.005h31.315c1.28 0 2.683-1.086 3.004-2.324l6.138-23.662c.123-.47.067-.888-.158-1.178z" fill="#fff"/><path d="M146.707 86.71h-39.105c-.322 0-.63-.07-.925-.212-.76-.36-1.275-1.118-1.31-1.937l-.02-.44c-.112-2.652-2.36-4.81-5.01-4.81h-3.48v2.783h3.48c1.16 0 2.18.98 2.23 2.148l.02.445c.065 1.505.804 2.876 1.984 3.773v29.55h.124c-1.263.9-2.056 2.372-2.056 3.964v.93c0 2.684 2.184 4.868 4.87 4.868H142.3c1.084 0 1.798.254 2.087.418v1.207h2.782v-1.51c0-1.705-2.003-2.896-4.87-2.896h-34.793c-1.15 0-2.087-.937-2.087-2.088v-.93c0-.868.553-1.656 1.37-1.958.232-.085.475-.128.716-.128h31.315c2.557 0 5.06-1.937 5.7-4.41l6.137-23.66c.338-1.3.1-2.605-.652-3.577-.75-.974-1.952-1.53-3.298-1.53zm-7.884 30.392h-31.315c-.05 0-.102.005-.153.006v-27.63c.08.003.163.012.247.012h39.105c.485 0 .875.16 1.1.45.224.29.28.707.16 1.176l-6.14 23.66c-.32 1.24-1.724 2.326-3.004 2.326z" fill="#fff"/><path d="M112.102 129.393c-3.547 0-6.434 2.886-6.434 6.434s2.886 6.434 6.434 6.434 6.434-2.885 6.434-6.433-2.886-6.434-6.434-6.434zm0 10.086c-2.013 0-3.652-1.64-3.652-3.653s1.64-3.652 3.652-3.652c2.013 0 3.652 1.638 3.652 3.652 0 2.013-1.64 3.652-3.652 3.652z" fill="#fff"/><path d="M134.71 129.393c-3.55 0-6.435 2.886-6.435 6.434s2.886 6.434 6.434 6.434c3.546 0 6.433-2.885 6.433-6.433s-2.887-6.434-6.434-6.434zm0 10.086c-2.015 0-3.653-1.64-3.653-3.653s1.638-3.652 3.652-3.652c2.012 0 3.65 1.638 3.65 3.652 0 2.013-1.638 3.652-3.65 3.652z" fill="#fff"/></g></svg>