<?xml version="1.0" encoding="UTF-8" standalone="no"?>
<!-- Generator: Adobe Illustrator 17.0.0, SVG Export Plug-In . SVG Version: 6.00 Build 0)  -->

<svg
   xmlns:dc="http://purl.org/dc/elements/1.1/"
   xmlns:cc="http://creativecommons.org/ns#"
   xmlns:rdf="http://www.w3.org/1999/02/22-rdf-syntax-ns#"
   xmlns:svg="http://www.w3.org/2000/svg"
   xmlns="http://www.w3.org/2000/svg"
   xmlns:sodipodi="http://sodipodi.sourceforge.net/DTD/sodipodi-0.dtd"
   xmlns:inkscape="http://www.inkscape.org/namespaces/inkscape"
   version="1.1"
   x="0px"
   y="0px"
   width="250"
   height="250"
   viewBox="0 0 249.99999 250"
   enable-background="new 0 0 595.28 841.89"
   xml:space="preserve"
   id="svg2"
   inkscape:version="0.91pre3 r13670"
   sodipodi:docname="mercado.svg"><metadata
     id="metadata28"><rdf:RDF><cc:Work
         rdf:about=""><dc:format>image/svg+xml</dc:format><dc:type
           rdf:resource="http://purl.org/dc/dcmitype/StillImage" /><dc:title></dc:title></cc:Work></rdf:RDF></metadata><defs
     id="defs26" /><sodipodi:namedview
     pagecolor="#ffffff"
     bordercolor="#666666"
     borderopacity="1"
     objecttolerance="10"
     gridtolerance="10"
     guidetolerance="10"
     inkscape:pageopacity="0"
     inkscape:pageshadow="2"
     inkscape:window-width="640"
     inkscape:window-height="480"
     id="namedview24"
     showgrid="false"
     inkscape:zoom="0.28032165"
     inkscape:cx="235.21173"
     inkscape:cy="420.94501"
     inkscape:window-x="0"
     inkscape:window-y="0"
     inkscape:window-maximized="0"
     inkscape:current-layer="svg2" /><g
     id="Capa_1"
     display="none"
     style="display:none"
     transform="translate(0,-591.89001)"><path
       display="inline"
       d="m 329.867,426.668 c 0,9.535 -8.075,17.264 -18.036,17.264 l -131.196,0 c -9.961,0 -18.036,-7.729 -18.036,-17.264 l 0,-124.071 c 0,-9.535 8.075,-17.264 18.036,-17.264 l 131.195,0 c 9.961,0 18.036,7.729 18.036,17.264 l 0,124.071 z"
       id="path5"
       inkscape:connector-curvature="0"
       style="clip-rule:evenodd;display:inline;fill:#80a5c6;fill-rule:evenodd" /><path
       display="inline"
       d="m 322.68,421.39 c 0,8.723 -7.381,15.795 -16.487,15.795 l -119.921,0 c -9.105,0 -16.487,-7.072 -16.487,-15.795 l 0,-113.515 c 0,-8.723 7.381,-15.795 16.487,-15.795 l 119.921,0 c 9.105,0 16.487,7.072 16.487,15.795 l 0,113.515 z"
       id="path7"
       inkscape:connector-curvature="0"
       style="clip-rule:evenodd;display:inline;fill:#cee8ef;fill-rule:evenodd" /></g><g
     id="Capa_2"
     transform="translate(-124.85657,-249.42628)"><path
       d="m 259.566,381.601 c -2.014,0 -3.652,1.638 -3.652,3.652 0,2.013 1.638,3.652 3.652,3.652 2.013,0 3.652,-1.639 3.652,-3.652 0,-2.013 -1.639,-3.652 -3.652,-3.652 z"
       id="path10"
       inkscape:connector-curvature="0"
       style="fill:#80a5c6" /><path
       d="m 236.959,381.601 c -2.013,0 -3.652,1.638 -3.652,3.652 0,2.013 1.639,3.652 3.652,3.652 2.013,0 3.652,-1.639 3.652,-3.652 0,-2.013 -1.639,-3.652 -3.652,-3.652 z"
       id="path12"
       inkscape:connector-curvature="0"
       style="fill:#80a5c6" /><path
       d="m 248.898,308.814 c -28.526,0 -51.652,23.125 -51.652,51.652 0,28.526 23.125,51.651 51.652,51.651 28.526,0 51.651,-23.125 51.651,-51.651 0.001,-28.527 -23.125,-51.652 -51.651,-51.652 z m -11.939,82.873 c -3.547,0 -6.434,-2.886 -6.434,-6.434 0,-3.548 2.886,-6.434 6.434,-6.434 3.548,0 6.434,2.886 6.434,6.434 0,3.548 -2.886,6.434 -6.434,6.434 z m 22.607,0 c -3.548,0 -6.434,-2.886 -6.434,-6.434 0,-3.548 2.886,-6.434 6.434,-6.434 3.547,0 6.434,2.886 6.434,6.434 -10e-4,3.548 -2.887,6.434 -6.434,6.434 z m 15.95,-50.445 -6.138,23.66 c -0.64,2.472 -3.142,4.409 -5.698,4.409 l -31.315,0 c -0.242,0 -0.484,0.043 -0.716,0.128 -0.818,0.302 -1.37,1.089 -1.37,1.959 l 0,0.929 c 0,1.15 0.936,2.087 2.087,2.087 l 34.793,0 c 2.867,0 4.869,1.191 4.869,2.897 l 0,1.509 -2.782,0 0,-1.207 c -0.289,-0.164 -1.003,-0.418 -2.087,-0.418 l -34.793,0 c -2.685,0 -4.869,-2.184 -4.869,-4.869 l 0,-0.929 c 0,-1.592 0.793,-3.063 2.056,-3.965 l -0.123,0 0,-29.549 c -1.181,-0.896 -1.92,-2.268 -1.984,-3.773 l -0.02,-0.444 c -0.049,-1.167 -1.07,-2.148 -2.231,-2.148 l -3.478,0 0,-2.782 3.478,0 c 2.652,0 4.899,2.157 5.01,4.808 l 0.021,0.442 c 0.035,0.819 0.549,1.577 1.31,1.937 0.294,0.14 0.603,0.211 0.925,0.211 l 39.105,0 c 1.346,0 2.549,0.557 3.3,1.529 0.75,0.973 0.988,2.277 0.65,3.579 z"
       id="path14"
       inkscape:connector-curvature="0"
       style="fill:#80a5c6" /><path
       d="m 272.663,339.366 c -0.224,-0.29 -0.615,-0.449 -1.1,-0.449 l -39.105,0 c -0.084,0 -0.166,-0.009 -0.247,-0.013 l 0,27.631 c 0.05,-0.002 0.102,-0.006 0.153,-0.006 l 31.315,0 c 1.281,0 2.683,-1.086 3.004,-2.324 l 6.138,-23.661 c 0.123,-0.47 0.067,-0.888 -0.158,-1.178 z"
       id="path16"
       inkscape:connector-curvature="0"
       style="fill:#ffffff" /><path
       d="m 271.564,336.135 -39.105,0 c -0.322,0 -0.631,-0.07 -0.925,-0.211 -0.76,-0.36 -1.275,-1.118 -1.31,-1.937 l -0.021,-0.442 c -0.111,-2.651 -2.358,-4.808 -5.01,-4.808 l -3.478,0 0,2.782 3.478,0 c 1.16,0 2.182,0.981 2.231,2.148 l 0.02,0.444 c 0.065,1.505 0.804,2.876 1.984,3.773 l 0,29.549 0.123,0 c -1.263,0.902 -2.056,2.373 -2.056,3.965 l 0,0.929 c 0,2.685 2.184,4.869 4.869,4.869 l 34.793,0 c 1.084,0 1.798,0.254 2.087,0.418 l 0,1.207 2.782,0 0,-1.509 c 0,-1.706 -2.002,-2.897 -4.869,-2.897 l -34.793,0 c -1.151,0 -2.087,-0.936 -2.087,-2.087 l 0,-0.929 c 0,-0.869 0.553,-1.657 1.37,-1.959 0.232,-0.085 0.475,-0.128 0.716,-0.128 l 31.315,0 c 2.556,0 5.058,-1.937 5.698,-4.409 l 6.138,-23.66 c 0.338,-1.302 0.1,-2.606 -0.652,-3.578 -0.749,-0.973 -1.952,-1.53 -3.298,-1.53 z m -7.884,30.393 -31.315,0 c -0.051,0 -0.102,0.005 -0.153,0.006 l 0,-27.631 c 0.081,0.004 0.163,0.013 0.247,0.013 l 39.105,0 c 0.485,0 0.875,0.16 1.1,0.449 0.224,0.29 0.28,0.708 0.159,1.177 l -6.138,23.661 c -0.322,1.239 -1.725,2.325 -3.005,2.325 z"
       id="path18"
       inkscape:connector-curvature="0"
       style="fill:#ffffff" /><path
       d="m 236.959,378.819 c -3.547,0 -6.434,2.886 -6.434,6.434 0,3.548 2.886,6.434 6.434,6.434 3.548,0 6.434,-2.886 6.434,-6.434 0,-3.548 -2.886,-6.434 -6.434,-6.434 z m 0,10.086 c -2.013,0 -3.652,-1.639 -3.652,-3.652 0,-2.013 1.639,-3.652 3.652,-3.652 2.013,0 3.652,1.638 3.652,3.652 0,2.013 -1.639,3.652 -3.652,3.652 z"
       id="path20"
       inkscape:connector-curvature="0"
       style="fill:#ffffff" /><path
       d="m 259.566,378.819 c -3.548,0 -6.434,2.886 -6.434,6.434 0,3.548 2.886,6.434 6.434,6.434 3.547,0 6.434,-2.886 6.434,-6.434 -10e-4,-3.548 -2.887,-6.434 -6.434,-6.434 z m 0,10.086 c -2.014,0 -3.652,-1.639 -3.652,-3.652 0,-2.013 1.638,-3.652 3.652,-3.652 2.013,0 3.652,1.638 3.652,3.652 0,2.013 -1.639,3.652 -3.652,3.652 z"
       id="path22"
       inkscape:connector-curvature="0"
       style="fill:#ffffff" /></g></svg>