<svg xmlns="http://www.w3.org/2000/svg" width="250" height="250" viewBox="0 0 249.99999 250" enable-background="new 0 0 595.28 841.89"><defs><filter id="a" color-interpolation-filters="sRGB"><feColorMatrix values="0.21 0.72 0.072 0 0 0.21 0.72 0.072 0 0 0.21 0.72 0.072 0 0 0 0 0 1 0"/></filter></defs><g transform="translate(-124.857 -249.426)" filter="url(#a)"><path d="M259.566 381.6c-2.014 0-3.652 1.64-3.652 3.653s1.638 3.652 3.652 3.652c2.013 0 3.652-1.64 3.652-3.652 0-2.013-1.64-3.652-3.652-3.652z" fill="#80a5c6"/><path d="M236.96 381.6c-2.014 0-3.653 1.64-3.653 3.653s1.64 3.652 3.652 3.652c2.012 0 3.65-1.64 3.65-3.652 0-2.013-1.638-3.652-3.65-3.652z" fill="#80a5c6"/><path d="M248.898 308.814c-28.526 0-51.652 23.125-51.652 51.652 0 28.526 23.125 51.65 51.652 51.65 28.526 0 51.65-23.124 51.65-51.65.002-28.527-23.124-51.652-51.65-51.652zm-11.94 82.873c-3.546 0-6.433-2.886-6.433-6.434s2.886-6.434 6.434-6.434c3.547 0 6.433 2.885 6.433 6.433s-2.886 6.434-6.434 6.434zm22.608 0c-3.548 0-6.434-2.886-6.434-6.434s2.886-6.434 6.434-6.434c3.547 0 6.434 2.885 6.434 6.433s-2.887 6.434-6.434 6.434zm15.95-50.445l-6.138 23.66c-.64 2.472-3.142 4.41-5.698 4.41h-31.315c-.242 0-.484.042-.716.127-.82.3-1.37 1.088-1.37 1.958v.93c0 1.15.935 2.086 2.086 2.086h34.793c2.866 0 4.868 1.19 4.868 2.897v1.51h-2.782v-1.207c-.29-.164-1.003-.418-2.087-.418h-34.794c-2.685 0-4.87-2.184-4.87-4.87v-.928c0-1.592.794-3.063 2.057-3.965h-.123v-29.55c-1.18-.895-1.92-2.267-1.984-3.772l-.02-.444c-.05-1.167-1.07-2.148-2.23-2.148h-3.48v-2.782h3.48c2.65 0 4.898 2.157 5.01 4.808l.02.442c.035.82.55 1.577 1.31 1.937.294.14.603.21.925.21h39.106c1.346 0 2.55.558 3.3 1.53.75.973.988 2.277.65 3.58z" fill="#80a5c6"/><path d="M272.663 339.366c-.224-.29-.615-.45-1.1-.45h-39.105c-.084 0-.166-.008-.247-.012v27.63c.05 0 .103-.005.154-.005h31.315c1.28 0 2.682-1.087 3.003-2.325l6.138-23.66c.124-.47.068-.89-.157-1.18z" fill="#fff"/><path d="M271.564 336.135H232.46c-.323 0-.632-.07-.926-.21-.76-.36-1.275-1.12-1.31-1.938l-.02-.442c-.112-2.65-2.36-4.808-5.01-4.808h-3.48v2.782h3.48c1.16 0 2.18.98 2.23 2.147l.02.444c.065 1.506.804 2.877 1.984 3.774v29.55h.123c-1.262.9-2.055 2.372-2.055 3.964v.93c0 2.684 2.184 4.868 4.87 4.868h34.792c1.084 0 1.798.254 2.087.418v1.207h2.782v-1.508c0-1.706-2.002-2.897-4.87-2.897h-34.792c-1.15 0-2.087-.936-2.087-2.087v-.93c0-.868.553-1.656 1.37-1.958.232-.085.475-.128.716-.128h31.315c2.556 0 5.058-1.937 5.698-4.41l6.138-23.66c.338-1.3.1-2.605-.652-3.577-.75-.973-1.952-1.53-3.298-1.53zm-7.884 30.393h-31.315c-.05 0-.102.005-.153.006v-27.63c.08.003.163.012.247.012h39.104c.485 0 .875.16 1.1.45.224.29.28.707.16 1.176l-6.14 23.66c-.32 1.24-1.724 2.326-3.004 2.326z" fill="#fff"/><path d="M236.96 378.82c-3.548 0-6.435 2.885-6.435 6.433s2.886 6.434 6.434 6.434c3.547 0 6.433-2.886 6.433-6.434s-2.886-6.434-6.434-6.434zm0 10.085c-2.014 0-3.653-1.64-3.653-3.652 0-2.013 1.64-3.652 3.652-3.652 2.012 0 3.65 1.64 3.65 3.653s-1.638 3.652-3.65 3.652z" fill="#fff"/><path d="M259.566 378.82c-3.548 0-6.434 2.885-6.434 6.433s2.886 6.434 6.434 6.434c3.547 0 6.434-2.886 6.434-6.434s-2.887-6.434-6.434-6.434zm0 10.085c-2.014 0-3.652-1.64-3.652-3.652 0-2.013 1.638-3.652 3.652-3.652 2.013 0 3.652 1.64 3.652 3.653s-1.64 3.652-3.652 3.652z" fill="#fff"/></g></svg>