<svg xmlns="http://www.w3.org/2000/svg" width="250" height="250" viewBox="0 0 249.99999 250" enable-background="new 0 0 595.28 841.89"><g><path fill="#b0832d" d="M47.584 127.39h175.21v48.09H47.584z"/><g transform="matrix(.491 0 0 .57 -7.262 -162.502)"><path fill="#10425b" d="M223.172 491.14h147.795v45.96H223.172z"/><path d="M329.062 528.988c0 17.666-14.326 31.993-31.993 31.993-17.668 0-31.992-14.327-31.992-31.992 0-17.672 14.324-31.99 31.99-31.99 17.67 0 31.994 14.318 31.994 31.99z" fill="#cd6666"/><path d="M255.165 528.988c0 17.666-14.324 31.993-31.993 31.993-17.667 0-31.99-14.327-31.99-31.992 0-17.672 14.323-31.99 31.99-31.99 17.67 0 31.993 14.318 31.993 31.99z" fill="#cd6666"/><path d="M297.07 496.998c17.666 0 31.992 14.318 31.992 31.99 0 17.666-14.326 31.993-31.993 31.993" fill="#ab5656"/><path d="M402.96 528.988c0 17.666-14.324 31.993-31.993 31.993-17.67 0-31.99-14.327-31.99-31.992 0-17.672 14.32-31.99 31.99-31.99 17.67 0 31.993 14.318 31.993 31.99z" fill="#ab5656"/><path d="M313.29 528.988c0 8.956-7.262 16.22-16.22 16.22-8.96 0-16.222-7.263-16.222-16.22 0-8.963 7.262-16.22 16.22-16.22 8.96 0 16.222 7.257 16.222 16.22z" fill="#10425b"/><path d="M239.395 528.988c0 8.956-7.264 16.22-16.223 16.22-8.957 0-16.22-7.263-16.22-16.22 0-8.963 7.263-16.22 16.22-16.22 8.96 0 16.223 7.257 16.223 16.22z" fill="#10425b"/><path d="M387.187 528.988c0 8.956-7.26 16.22-16.22 16.22-8.96 0-16.222-7.263-16.222-16.22 0-8.963 7.262-16.22 16.22-16.22 8.962 0 16.222 7.257 16.222 16.22z" fill="#10425b"/><path fill="#10425b" d="M360.603 378.49h11.715v79.306h-11.715z"/><path fill="#10425b" d="M223.172 407.33h31.993v50.466h-31.993z"/><path fill="#2a8eb1" d="M189.152 376.688h100.033v36.048H189.152z"/><path fill="#18668d" d="M239.395 376.688h49.79v36.048h-49.79"/><circle cx="264.853" cy="396.289" r="9.688" fill="#f8b83d"/><path fill="#cd6666" d="M193.433 448.784h208.174l-10.814 42.355h-190.15z"/><path fill="#ab5656" d="M390.793 491.14h-93.277l.006-42.356h104.085z"/></g></g></svg>