<?xml version="1.0" encoding="UTF-8" standalone="no"?>
<!-- Generator: Adobe Illustrator 17.0.0, SVG Export Plug-In . SVG Version: 6.00 Build 0)  -->

<svg
   xmlns:dc="http://purl.org/dc/elements/1.1/"
   xmlns:cc="http://creativecommons.org/ns#"
   xmlns:rdf="http://www.w3.org/1999/02/22-rdf-syntax-ns#"
   xmlns:svg="http://www.w3.org/2000/svg"
   xmlns="http://www.w3.org/2000/svg"
   xmlns:sodipodi="http://sodipodi.sourceforge.net/DTD/sodipodi-0.dtd"
   xmlns:inkscape="http://www.inkscape.org/namespaces/inkscape"
   version="1.1"
   x="0px"
   y="0px"
   width="250"
   height="250"
   viewBox="0 0 249.99999 250"
   enable-background="new 0 0 595.28 841.89"
   xml:space="preserve"
   id="svg2"
   inkscape:version="0.91pre3 r13670"
   sodipodi:docname="mision.svg"><metadata
     id="metadata48"><rdf:RDF><cc:Work
         rdf:about=""><dc:format>image/svg+xml</dc:format><dc:type
           rdf:resource="http://purl.org/dc/dcmitype/StillImage" /><dc:title></dc:title></cc:Work></rdf:RDF></metadata><defs
     id="defs46" /><sodipodi:namedview
     pagecolor="#ffffff"
     bordercolor="#666666"
     borderopacity="1"
     objecttolerance="10"
     gridtolerance="10"
     guidetolerance="10"
     inkscape:pageopacity="0"
     inkscape:pageshadow="2"
     inkscape:window-width="640"
     inkscape:window-height="480"
     id="namedview44"
     showgrid="false"
     inkscape:zoom="0.28032165"
     inkscape:cx="235.21173"
     inkscape:cy="420.94501"
     inkscape:window-x="0"
     inkscape:window-y="0"
     inkscape:window-maximized="0"
     inkscape:current-layer="svg2" /><g
     id="Capa_1"
     display="none"
     style="display:none"
     transform="translate(0,-591.89001)"><path
       display="inline"
       d="m 533.412,596.11 c 0,26.883 -22.768,48.676 -50.855,48.676 l -369.909,0 c -28.086,0 -50.855,-21.793 -50.855,-48.676 l 0,-349.823 c 0,-26.883 22.768,-48.676 50.855,-48.676 l 369.909,0 c 28.086,0 50.855,21.793 50.855,48.676 l 0,349.823 z"
       id="path5"
       inkscape:connector-curvature="0"
       style="clip-rule:evenodd;display:inline;fill:#80a5c6;fill-rule:evenodd" /><path
       display="inline"
       d="m 513.148,581.228 c 0,24.596 -20.812,44.534 -46.485,44.534 l -338.121,0 c -25.673,0 -46.485,-19.939 -46.485,-44.534 l 0,-320.06 c 0,-24.596 20.812,-44.534 46.485,-44.534 l 338.122,0 c 25.673,0 46.485,19.939 46.485,44.534 l 0,320.06 z"
       id="path7"
       inkscape:connector-curvature="0"
       style="clip-rule:evenodd;display:inline;fill:#cee8ef;fill-rule:evenodd" /></g><g
     id="Capa_2"
     transform="matrix(0.49058684,0,0,0.5703664,-7.2615998,-162.5024)"><rect
       x="111.796"
       y="508.258"
       width="357.14401"
       height="84.313004"
       id="rect10"
       style="fill:#b0832d" /><g
       id="g12"><rect
         x="223.172"
         y="491.13901"
         width="147.795"
         height="45.960999"
         id="rect14"
         style="fill:#10425b" /><path
         d="m 329.062,528.988 c 0,17.666 -14.326,31.993 -31.993,31.993 -17.667,0 -31.991,-14.328 -31.991,-31.993 0,-17.672 14.324,-31.99 31.991,-31.99 17.668,0 31.993,14.318 31.993,31.99 z"
         id="path16"
         inkscape:connector-curvature="0"
         style="fill:#cd6666" /><path
         d="m 255.165,528.988 c 0,17.666 -14.324,31.993 -31.993,31.993 -17.667,0 -31.991,-14.328 -31.991,-31.993 0,-17.672 14.324,-31.99 31.991,-31.99 17.669,0 31.993,14.318 31.993,31.99 z"
         id="path18"
         inkscape:connector-curvature="0"
         style="fill:#cd6666" /><path
         d="m 297.069,496.998 c 17.667,0 31.993,14.318 31.993,31.99 0,17.666 -14.326,31.993 -31.993,31.993"
         id="path20"
         inkscape:connector-curvature="0"
         style="fill:#ab5656" /><path
         d="m 402.96,528.988 c 0,17.666 -14.324,31.993 -31.993,31.993 -17.669,0 -31.991,-14.328 -31.991,-31.993 0,-17.672 14.322,-31.99 31.991,-31.99 17.669,0 31.993,14.318 31.993,31.99 z"
         id="path22"
         inkscape:connector-curvature="0"
         style="fill:#ab5656" /><path
         d="m 313.29,528.988 c 0,8.956 -7.262,16.221 -16.221,16.221 -8.959,0 -16.221,-7.264 -16.221,-16.221 0,-8.963 7.262,-16.221 16.221,-16.221 8.959,0 16.221,7.258 16.221,16.221 z"
         id="path24"
         inkscape:connector-curvature="0"
         style="fill:#10425b" /><path
         d="m 239.395,528.988 c 0,8.956 -7.264,16.221 -16.223,16.221 -8.957,0 -16.221,-7.264 -16.221,-16.221 0,-8.963 7.264,-16.221 16.221,-16.221 8.959,0 16.223,7.258 16.223,16.221 z"
         id="path26"
         inkscape:connector-curvature="0"
         style="fill:#10425b" /><path
         d="m 387.187,528.988 c 0,8.956 -7.26,16.221 -16.221,16.221 -8.959,0 -16.221,-7.264 -16.221,-16.221 0,-8.963 7.262,-16.221 16.221,-16.221 8.961,0 16.221,7.258 16.221,16.221 z"
         id="path28"
         inkscape:connector-curvature="0"
         style="fill:#10425b" /><rect
         x="360.603"
         y="378.48999"
         width="11.715"
         height="79.306"
         id="rect30"
         style="fill:#10425b" /><rect
         x="223.172"
         y="407.32901"
         width="31.993"
         height="50.466999"
         id="rect32"
         style="fill:#10425b" /><rect
         x="189.15199"
         y="376.68799"
         width="100.033"
         height="36.048"
         id="rect34"
         style="fill:#2a8eb1" /><polyline
         points="239.395,376.688 289.185,376.688 289.185,412.736 239.395,412.736   "
         id="polyline36"
         style="fill:#18668d" /><circle
         cx="264.853"
         cy="396.289"
         r="9.6879997"
         id="circle38"
         style="fill:#f8b83d" /><polygon
         points="193.433,448.784 401.607,448.784 390.793,491.139 200.643,491.139 "
         id="polygon40"
         style="fill:#cd6666" /><polygon
         points="390.793,491.139 297.516,491.139 297.522,448.784 401.607,448.784 "
         id="polygon42"
         style="fill:#ab5656" /></g></g></svg>