<?xml version="1.0" encoding="UTF-8" standalone="no"?>
<!-- Generator: Adobe Illustrator 17.0.0, SVG Export Plug-In . SVG Version: 6.00 Build 0)  -->

<svg
   xmlns:dc="http://purl.org/dc/elements/1.1/"
   xmlns:cc="http://creativecommons.org/ns#"
   xmlns:rdf="http://www.w3.org/1999/02/22-rdf-syntax-ns#"
   xmlns:svg="http://www.w3.org/2000/svg"
   xmlns="http://www.w3.org/2000/svg"
   xmlns:sodipodi="http://sodipodi.sourceforge.net/DTD/sodipodi-0.dtd"
   xmlns:inkscape="http://www.inkscape.org/namespaces/inkscape"
   version="1.1"
   x="0px"
   y="0px"
   width="250"
   height="250"
   viewBox="0 0 249.99999 250"
   enable-background="new 0 0 595.28 841.89"
   xml:space="preserve"
   id="svg2"
   inkscape:version="0.91pre3 r13670"
   sodipodi:docname="niveles.svg"><metadata
     id="metadata251"><rdf:RDF><cc:Work
         rdf:about=""><dc:format>image/svg+xml</dc:format><dc:type
           rdf:resource="http://purl.org/dc/dcmitype/StillImage" /><dc:title></dc:title></cc:Work></rdf:RDF></metadata><defs
     id="defs249" /><sodipodi:namedview
     pagecolor="#ffffff"
     bordercolor="#666666"
     borderopacity="1"
     objecttolerance="10"
     gridtolerance="10"
     guidetolerance="10"
     inkscape:pageopacity="0"
     inkscape:pageshadow="2"
     inkscape:window-width="640"
     inkscape:window-height="480"
     id="namedview247"
     showgrid="false"
     inkscape:zoom="0.28032165"
     inkscape:cx="235.21173"
     inkscape:cy="420.94501"
     inkscape:window-x="0"
     inkscape:window-y="0"
     inkscape:window-maximized="0"
     inkscape:current-layer="svg2" /><g
     id="Capa_1"
     display="none"
     style="display:none"
     transform="translate(0,-591.89001)"><path
       display="inline"
       d="m 540.555,595.856 c 0,26.883 -22.768,48.676 -50.855,48.676 l -369.909,0 c -28.086,0 -50.855,-21.793 -50.855,-48.676 l 0,-349.822 c 0,-26.883 22.768,-48.676 50.855,-48.676 l 369.909,0 c 28.086,0 50.855,21.793 50.855,48.676 l 0,349.822 z"
       id="path5"
       inkscape:connector-curvature="0"
       style="clip-rule:evenodd;display:inline;fill:#80a5c6;fill-rule:evenodd" /><path
       display="inline"
       d="m 520.291,580.975 c 0,24.596 -20.812,44.534 -46.485,44.534 l -338.122,0 c -25.673,0 -46.485,-19.939 -46.485,-44.534 l 0,-320.06 c 0,-24.596 20.812,-44.534 46.485,-44.534 l 338.122,0 c 25.673,0 46.485,19.939 46.485,44.534 l 0,320.06 z"
       id="path7"
       inkscape:connector-curvature="0"
       style="clip-rule:evenodd;display:inline;fill:#cee8ef;fill-rule:evenodd" /></g><g
     id="Capa_2"
     transform="matrix(0.32287068,0,0,0.38858175,35.842371,-42.595552)"><g
       id="g10"><g
         id="g12"><path
           d="m 180.847,485.035 -28.601,-3.265 0,-36.9 c 0,-2.986 -2.42,-5.406 -5.406,-5.406 -2.986,0 -5.406,2.42 -5.406,5.406 l 0,45.57 c 0,0.499 0.033,0.963 0.033,1.43 -0.178,0 0.044,0.007 -2.341,0.007 -2.892,0 -2.892,3.284 -2.892,3.284 l 0,22.99 11.359,7.116 0,16.833 38.591,0 c 0,0 0,-45.57 0,-50.907 0,-5.337 -5.337,-6.158 -5.337,-6.158 z"
           id="path14"
           inkscape:connector-curvature="0"
           style="fill:#f5d3ae" /></g><g
         id="g16"><polyline
           points="141.468,491.87 141.468,511.857 139.127,491.878    "
           id="polyline18"
           style="fill:#e7c196" /></g><g
         id="g20"><rect
           x="143.28101"
           y="540.04199"
           width="45.308998"
           height="5.9559999"
           id="rect22"
           style="fill:#f6f6f6" /></g><g
         id="g24"><rect
           x="140.298"
           y="545.99799"
           width="51.057999"
           height="37.332001"
           id="rect26"
           style="fill:#333333" /></g><g
         id="g28"><path
           d="m 331.843,432.281 -28.601,-3.265 0,-36.9 c 0,-2.986 -2.42,-5.406 -5.406,-5.406 -2.986,0 -5.406,2.42 -5.406,5.406 l 0,45.57 c 0,0.499 0.033,0.963 0.033,1.43 -0.178,0 0.044,0.007 -2.341,0.007 -2.892,0 -2.892,3.284 -2.892,3.284 l 0,22.99 11.359,7.116 0,16.832 38.591,0 c 0,0 0,-45.57 0,-50.907 0,-5.337 -5.337,-6.157 -5.337,-6.157 z"
           id="path30"
           inkscape:connector-curvature="0"
           style="fill:#f5d3ae" /></g><g
         id="g32"><polyline
           points="292.464,439.116 292.464,459.103 290.122,439.124    "
           id="polyline34"
           style="fill:#e7c196" /></g><g
         id="g36"><rect
           x="294.276"
           y="487.28799"
           width="45.308998"
           height="5.9559999"
           id="rect38"
           style="fill:#f6f6f6" /></g><g
         id="g40"><rect
           x="291.293"
           y="493.24399"
           width="51.057999"
           height="90.085999"
           id="rect42"
           style="fill:#333333" /></g><g
         id="g44"><circle
           cx="330.758"
           cy="504.517"
           r="4.467"
           id="circle46"
           style="fill:#f6f6f6" /></g><g
         id="g48"><circle
           cx="330.758"
           cy="519.51398"
           r="4.467"
           id="circle50"
           style="fill:#f6f6f6" /></g><g
         id="g52"><g
           id="g54"><path
             d="m 329.127,503.372 0.485,-0.485 1.146,1.147 1.126,-1.126 0.482,0.482 -1.126,1.126 1.147,1.147 -0.485,0.485 -1.146,-1.148 -1.126,1.126 -0.482,-0.482 1.126,-1.125 -1.147,-1.147 z"
             id="path56"
             inkscape:connector-curvature="0"
             style="fill:#333333" /></g></g><g
         id="g58"><g
           id="g60"><path
             d="m 329.127,518.368 0.485,-0.485 1.146,1.147 1.126,-1.126 0.482,0.482 -1.126,1.126 1.147,1.147 -0.485,0.485 -1.147,-1.147 -1.126,1.126 -0.482,-0.482 1.126,-1.125 -1.146,-1.148 z"
             id="path62"
             inkscape:connector-curvature="0"
             style="fill:#333333" /></g></g><g
         id="g64"><path
           d="m 484.147,376.124 -28.601,-3.265 0,-36.9 c 0,-2.986 -2.42,-5.406 -5.406,-5.406 -2.986,0 -5.406,2.42 -5.406,5.406 l 0,45.57 c 0,0.499 0.033,0.963 0.033,1.43 -0.178,0 0.044,0.007 -2.341,0.007 -2.892,0 -2.892,3.284 -2.892,3.284 l 0,22.99 11.359,7.116 0,16.832 38.591,0 c 0,0 0,-45.57 0,-50.907 0,-5.337 -5.337,-6.157 -5.337,-6.157 z"
           id="path66"
           inkscape:connector-curvature="0"
           style="fill:#f5d3ae" /></g><g
         id="g68"><polyline
           points="444.768,382.959 444.768,402.946 442.427,382.966    "
           id="polyline70"
           style="fill:#e7c196" /></g><g
         id="g72"><rect
           x="446.58099"
           y="431.13101"
           width="45.308998"
           height="5.9559999"
           id="rect74"
           style="fill:#f6f6f6" /></g><g
         id="g76"><rect
           x="443.59799"
           y="437.086"
           width="51.057999"
           height="146.243"
           id="rect78"
           style="fill:#333333" /></g><g
         id="g80"><circle
           cx="483.06201"
           cy="448.35999"
           r="4.467"
           id="circle82"
           style="fill:#f6f6f6" /></g><g
         id="g84"><circle
           cx="483.06201"
           cy="463.35599"
           r="4.467"
           id="circle86"
           style="fill:#f6f6f6" /></g><g
         id="g88"><g
           id="g90"><path
             d="m 481.432,447.215 0.485,-0.485 1.146,1.147 1.126,-1.126 0.482,0.482 -1.126,1.126 1.147,1.147 -0.485,0.485 -1.147,-1.147 -1.126,1.126 -0.482,-0.482 1.126,-1.125 -1.146,-1.148 z"
             id="path92"
             inkscape:connector-curvature="0"
             style="fill:#333333" /></g></g><g
         id="g94"><g
           id="g96"><path
             d="m 481.432,462.211 0.485,-0.485 1.146,1.147 1.126,-1.126 0.482,0.482 -1.126,1.126 1.147,1.147 -0.485,0.485 -1.147,-1.147 -1.126,1.126 -0.482,-0.482 1.126,-1.125 -1.146,-1.148 z"
             id="path98"
             inkscape:connector-curvature="0"
             style="fill:#333333" /></g></g><g
         id="g100"><path
           d="m 103.222,443.764 c -0.915,0 -1.816,-0.437 -2.372,-1.249 -0.896,-1.309 -0.561,-3.096 0.747,-3.992 l 46.086,-31.549 c 0.691,-0.473 1.555,-0.622 2.363,-0.405 l 71.456,19.075 75.235,-70.361 c 0.716,-0.671 1.726,-0.927 2.677,-0.684 l 71.775,18.474 78.648,-73.771 c 0.323,-0.303 0.712,-0.527 1.136,-0.655 12.819,-3.861 54.817,-16.48 57.025,-16.796 1.573,-0.221 3.025,0.867 3.249,2.437 0.222,1.553 -0.844,2.993 -2.386,3.241 -2.334,0.473 -34.241,9.997 -55.586,16.423 l -79.308,74.39 c -0.717,0.673 -1.728,0.93 -2.681,0.687 l -71.778,-18.475 -75.246,70.372 c -0.725,0.677 -1.746,0.932 -2.703,0.677 l -71.72,-19.146 -44.997,30.803 c -0.497,0.341 -1.061,0.504 -1.62,0.504 z"
           id="path102"
           inkscape:connector-curvature="0"
           style="fill:#f6f6f6" /></g><g
         id="g104"><g
           id="g106"><circle
             cx="147.09599"
             cy="409.68301"
             r="16.391001"
             id="circle108"
             style="fill:#91a26e" /></g><g
           id="g110"><g
             id="g112"><circle
               cx="146.841"
               cy="409.258"
               r="16.391001"
               id="circle114"
               style="fill:#c2d891" /></g><g
             id="g116"><path
               d="m 146.841,425.968 c -9.214,0 -16.71,-7.496 -16.71,-16.71 0,-9.214 7.496,-16.71 16.71,-16.71 9.214,0 16.71,7.496 16.71,16.71 0,9.214 -7.496,16.71 -16.71,16.71 z m 0,-32.782 c -8.862,0 -16.072,7.21 -16.072,16.072 0,8.862 7.21,16.072 16.072,16.072 8.862,0 16.072,-7.21 16.072,-16.072 10e-4,-8.863 -7.209,-16.072 -16.072,-16.072 z"
               id="path118"
               inkscape:connector-curvature="0"
               style="fill:#91a26e" /></g></g></g><g
         id="g120"><g
           id="g122"><circle
             cx="298.52899"
             cy="360.82001"
             r="16.391001"
             id="circle124"
             style="fill:#91a26e" /></g><g
           id="g126"><g
             id="g128"><circle
               cx="298.27399"
               cy="360.39499"
               r="16.391001"
               id="circle130"
               style="fill:#c2d891" /></g><g
             id="g132"><path
               d="m 298.274,377.105 c -9.214,0 -16.71,-7.496 -16.71,-16.71 0,-9.214 7.496,-16.71 16.71,-16.71 9.214,0 16.71,7.496 16.71,16.71 0,9.214 -7.496,16.71 -16.71,16.71 z m 0,-32.782 c -8.862,0 -16.072,7.21 -16.072,16.072 0,8.862 7.21,16.072 16.072,16.072 8.862,0 16.072,-7.21 16.072,-16.072 0,-8.862 -7.209,-16.072 -16.072,-16.072 z"
               id="path134"
               inkscape:connector-curvature="0"
               style="fill:#91a26e" /></g></g></g><g
         id="g136"><g
           id="g138"><circle
             cx="449.57901"
             cy="304.98199"
             r="16.391001"
             id="circle140"
             style="fill:#91a26e" /></g><g
           id="g142"><g
             id="g144"><circle
               cx="449.32401"
               cy="304.55701"
               r="16.391001"
               id="circle146"
               style="fill:#c2d891" /></g><g
             id="g148"><path
               d="m 449.324,321.267 c -9.214,0 -16.71,-7.496 -16.71,-16.71 0,-9.214 7.496,-16.71 16.71,-16.71 9.214,0 16.71,7.496 16.71,16.71 0,9.214 -7.496,16.71 -16.71,16.71 z m 0,-32.782 c -8.862,0 -16.072,7.21 -16.072,16.072 0,8.862 7.21,16.072 16.072,16.072 8.862,0 16.072,-7.21 16.072,-16.072 0,-8.863 -7.21,-16.072 -16.072,-16.072 z"
               id="path150"
               inkscape:connector-curvature="0"
               style="fill:#91a26e" /></g></g></g><g
         id="g152"><g
           id="g154"><circle
             cx="374.06799"
             cy="377.42401"
             r="16.391001"
             id="circle156"
             style="fill:#8e203b" /></g><g
           id="g158"><circle
             cx="373.81299"
             cy="376.99899"
             r="16.391001"
             id="circle160"
             style="fill:#be4442" /><path
             d="m 373.813,393.709 c -9.214,0 -16.71,-7.496 -16.71,-16.71 0,-9.214 7.496,-16.71 16.71,-16.71 9.214,0 16.71,7.496 16.71,16.71 10e-4,9.214 -7.496,16.71 -16.71,16.71 z m 0,-32.782 c -8.862,0 -16.072,7.21 -16.072,16.072 0,8.862 7.21,16.072 16.072,16.072 8.862,0 16.072,-7.21 16.072,-16.072 0.001,-8.863 -7.209,-16.072 -16.072,-16.072 z"
             id="path162"
             inkscape:connector-curvature="0"
             style="fill:#8e203b" /></g></g><g
         id="g164"><g
           id="g166"><circle
             cx="222.66"
             cy="429.06201"
             r="16.391001"
             id="circle168"
             style="fill:#8e203b" /></g><g
           id="g170"><circle
             cx="222.405"
             cy="428.63699"
             r="16.391001"
             id="circle172"
             style="fill:#be4442" /><path
             d="m 222.405,445.347 c -9.214,0 -16.71,-7.496 -16.71,-16.71 0,-9.214 7.496,-16.71 16.71,-16.71 9.214,0 16.71,7.496 16.71,16.71 0,9.214 -7.496,16.71 -16.71,16.71 z m 0,-32.782 c -8.862,0 -16.072,7.21 -16.072,16.072 0,8.862 7.21,16.072 16.072,16.072 8.862,0 16.072,-7.21 16.072,-16.072 0,-8.862 -7.21,-16.072 -16.072,-16.072 z"
             id="path174"
             inkscape:connector-curvature="0"
             style="fill:#8e203b" /></g></g><g
         id="_x34_95._Up"><g
           id="g177"><path
             d="m 147.801,403.063 c -0.637,-0.638 -1.672,-0.638 -2.31,0 l 0,0 c -0.002,0.002 -0.003,0.004 -0.003,0.004 l -4.617,4.615 c -0.638,0.638 -0.638,1.673 0,2.311 l 0,-0.002 c 0.639,0.638 1.672,0.638 2.311,0 l 1.831,-1.83 0,6.813 c 0,0.904 0.732,1.634 1.634,1.634 0.902,0 1.633,-0.73 1.633,-1.634 l 0,-6.813 1.83,1.83 c 0.638,0.638 1.674,0.638 2.31,0 l 0,0.002 c 0.638,-0.639 0.638,-1.674 0,-2.311 l -4.619,-4.619 z m 12.991,-1.973 c -4.509,-7.812 -14.501,-10.489 -22.313,-5.979 -7.812,4.511 -10.49,14.502 -5.978,22.313 4.509,7.814 14.5,10.49 22.312,5.98 7.813,-4.512 10.49,-14.502 5.979,-22.314 z m -7.612,19.484 c -6.25,3.608 -14.242,1.468 -17.85,-4.782 -3.608,-6.25 -1.467,-14.241 4.782,-17.851 6.249,-3.608 14.242,-1.466 17.851,4.784 3.609,6.249 1.467,14.24 -4.783,17.849 z"
             id="path179"
             inkscape:connector-curvature="0"
             style="fill:#778f62" /></g></g><g
         id="_x34_95._Up_1_"><g
           id="g182"><path
             d="m 299.429,354.2 c -0.637,-0.638 -1.672,-0.638 -2.31,0 l 0,0 c -0.002,0.002 -0.003,0.004 -0.003,0.004 l -4.617,4.615 c -0.638,0.638 -0.638,1.673 0,2.311 l 0,-0.002 c 0.639,0.638 1.672,0.638 2.311,0 l 1.831,-1.83 0,6.813 c 0,0.904 0.732,1.634 1.634,1.634 0.902,0 1.633,-0.73 1.633,-1.634 l 0,-6.813 1.83,1.83 c 0.638,0.638 1.674,0.638 2.31,0 l 0,0.002 c 0.638,-0.639 0.638,-1.674 0,-2.311 l -4.619,-4.619 z m 12.991,-1.973 c -4.509,-7.812 -14.501,-10.489 -22.313,-5.979 -7.812,4.511 -10.49,14.502 -5.978,22.313 4.509,7.814 14.5,10.49 22.312,5.98 7.813,-4.511 10.49,-14.501 5.979,-22.314 z m -7.612,19.484 c -6.25,3.608 -14.242,1.468 -17.849,-4.782 -3.608,-6.25 -1.467,-14.241 4.782,-17.851 6.249,-3.608 14.242,-1.466 17.851,4.784 3.608,6.249 1.466,14.241 -4.784,17.849 z"
             id="path184"
             inkscape:connector-curvature="0"
             style="fill:#778f62" /></g></g><g
         id="_x34_95._Up_4_"><g
           id="g187"><path
             d="m 450.733,298.362 c -0.637,-0.638 -1.672,-0.638 -2.31,0 l 0,0 c -0.002,0.002 -0.003,0.004 -0.003,0.004 l -4.617,4.615 c -0.638,0.638 -0.638,1.673 0,2.311 l 0,-0.002 c 0.639,0.638 1.672,0.638 2.311,0 l 1.831,-1.83 0,6.813 c 0,0.904 0.732,1.634 1.634,1.634 0.902,0 1.633,-0.73 1.633,-1.634 l 0,-6.813 1.83,1.83 c 0.638,0.638 1.674,0.638 2.31,0 l 0,0.002 c 0.638,-0.639 0.638,-1.674 0,-2.311 l -4.619,-4.619 z m 12.991,-1.973 c -4.509,-7.812 -14.501,-10.489 -22.313,-5.979 -7.812,4.511 -10.49,14.502 -5.978,22.313 4.509,7.814 14.5,10.49 22.312,5.98 7.813,-4.512 10.49,-14.501 5.979,-22.314 z m -7.612,19.484 c -6.25,3.608 -14.242,1.468 -17.85,-4.782 -3.608,-6.25 -1.467,-14.241 4.782,-17.851 6.249,-3.608 14.242,-1.466 17.851,4.784 3.609,6.249 1.467,14.24 -4.783,17.849 z"
             id="path189"
             inkscape:connector-curvature="0"
             style="fill:#778f62" /></g></g><g
         id="_x34_95._Up_6_"><g
           id="g192"><g
             id="g194"><path
               d="m 372.659,382.981 c 0.637,0.638 1.672,0.638 2.31,0 l 0,0 c 0.002,-0.002 0.003,-0.004 0.003,-0.004 l 4.617,-4.615 c 0.638,-0.638 0.638,-1.673 0,-2.311 l 0,0.002 c -0.639,-0.638 -1.672,-0.638 -2.311,0 l -1.831,1.83 0,-6.813 c 0,-0.904 -0.732,-1.634 -1.634,-1.634 -0.902,0 -1.633,0.73 -1.633,1.634 l 0,6.813 -1.83,-1.83 c -0.638,-0.638 -1.674,-0.638 -2.31,0 l 0,-0.002 c -0.638,0.639 -0.638,1.674 0,2.311 l 4.619,4.619 z m -12.991,1.973 c 4.509,7.812 14.501,10.489 22.313,5.979 7.812,-4.511 10.49,-14.502 5.978,-22.313 -4.509,-7.814 -14.5,-10.49 -22.312,-5.98 -7.813,4.512 -10.49,14.501 -5.979,22.314 z m 7.612,-19.484 c 6.25,-3.608 14.242,-1.468 17.85,4.782 3.608,6.25 1.467,14.241 -4.782,17.851 -6.249,3.608 -14.242,1.466 -17.851,-4.784 -3.609,-6.249 -1.467,-14.24 4.783,-17.849 z"
               id="path196"
               inkscape:connector-curvature="0"
               style="fill:#8e203b" /></g></g></g><g
         id="_x34_95._Up_7_"><g
           id="g199"><g
             id="g201"><path
               d="m 221.506,435.257 c 0.637,0.638 1.672,0.638 2.31,0 l 0,0 c 0.002,-0.002 0.003,-0.004 0.003,-0.004 l 4.617,-4.615 c 0.638,-0.638 0.638,-1.673 0,-2.311 l 0,0.002 c -0.639,-0.638 -1.672,-0.638 -2.311,0 l -1.831,1.83 0,-6.813 c 0,-0.904 -0.732,-1.634 -1.634,-1.634 -0.902,0 -1.633,0.73 -1.633,1.634 l 0,6.813 -1.83,-1.83 c -0.638,-0.638 -1.674,-0.638 -2.31,0 l 0,-0.002 c -0.638,0.639 -0.638,1.674 0,2.311 l 4.619,4.619 z m -12.991,1.973 c 4.509,7.812 14.501,10.489 22.313,5.979 7.812,-4.511 10.49,-14.502 5.978,-22.313 -4.509,-7.814 -14.5,-10.49 -22.312,-5.98 -7.813,4.512 -10.49,14.501 -5.979,22.314 z m 7.612,-19.484 c 6.25,-3.608 14.242,-1.468 17.85,4.782 3.608,6.25 1.467,14.241 -4.782,17.851 -6.249,3.608 -14.242,1.466 -17.851,-4.784 -3.609,-6.249 -1.467,-14.24 4.783,-17.849 z"
               id="path203"
               inkscape:connector-curvature="0"
               style="fill:#8e203b" /></g></g></g><g
         id="g205"><g
           id="g207"><path
             d="m 146.969,368.177 -6.162,6.163 c -0.444,0.442 -1.162,0.442 -1.605,0 -0.443,-0.443 -0.443,-1.162 0,-1.604 l 6.965,-6.966 c 0.221,-0.221 0.511,-0.332 0.801,-0.332 0.29,0 0.581,0.111 0.802,0.332 l 6.965,6.966 c 0.443,0.443 0.443,1.161 0,1.604 -0.443,0.442 -1.162,0.442 -1.604,0 l -6.162,-6.163 z m 6.163,13.225 c 0.442,0.443 1.161,0.443 1.604,0 0.443,-0.442 0.443,-1.16 0,-1.604 l -6.965,-6.965 c -0.221,-0.221 -0.512,-0.332 -0.802,-0.332 -0.29,0 -0.58,0.11 -0.801,0.332 l -6.965,6.965 c -0.443,0.444 -0.443,1.162 0,1.604 0.443,0.443 1.161,0.443 1.605,0 l 6.162,-6.163 6.162,6.163 z"
             id="path209"
             inkscape:connector-curvature="0"
             style="fill:#778f62" /></g></g><g
         id="g211"><g
           id="g213"><path
             d="m 298.401,315.964 -6.162,6.163 c -0.444,0.442 -1.162,0.442 -1.605,0 -0.443,-0.443 -0.443,-1.162 0,-1.604 l 6.965,-6.966 c 0.221,-0.221 0.511,-0.332 0.801,-0.332 0.29,0 0.581,0.111 0.802,0.332 l 6.965,6.966 c 0.443,0.442 0.443,1.161 0,1.604 -0.443,0.442 -1.162,0.442 -1.604,0 l -6.162,-6.163 z m 6.164,13.224 c 0.442,0.443 1.161,0.443 1.604,0 0.443,-0.442 0.443,-1.16 0,-1.604 l -6.965,-6.965 c -0.221,-0.221 -0.512,-0.332 -0.802,-0.332 -0.29,0 -0.58,0.11 -0.801,0.332 l -6.965,6.965 c -0.443,0.444 -0.443,1.162 0,1.604 0.443,0.443 1.161,0.443 1.605,0 l 6.162,-6.163 6.162,6.163 z"
             id="path215"
             inkscape:connector-curvature="0"
             style="fill:#778f62" /></g></g><g
         id="g217"><g
           id="g219"><path
             d="m 449.578,259.336 -6.162,6.163 c -0.444,0.442 -1.162,0.442 -1.605,0 -0.443,-0.443 -0.443,-1.162 0,-1.604 l 6.965,-6.966 c 0.221,-0.221 0.511,-0.332 0.801,-0.332 0.29,0 0.581,0.111 0.802,0.332 l 6.965,6.966 c 0.443,0.443 0.443,1.161 0,1.604 -0.443,0.442 -1.162,0.442 -1.604,0 l -6.162,-6.163 z m 6.164,13.224 c 0.442,0.443 1.161,0.443 1.604,0 0.443,-0.442 0.443,-1.16 0,-1.604 l -6.965,-6.965 c -0.221,-0.221 -0.512,-0.332 -0.802,-0.332 -0.29,0 -0.58,0.11 -0.801,0.332 l -6.965,6.965 c -0.443,0.444 -0.443,1.162 0,1.604 0.443,0.443 1.161,0.443 1.605,0 l 6.162,-6.163 6.162,6.163 z"
             id="path221"
             inkscape:connector-curvature="0"
             style="fill:#778f62" /></g></g><g
         id="g223"><path
           d="m 373.814,421.321 6.162,-6.163 c 0.444,-0.443 1.162,-0.443 1.605,0 0.443,0.443 0.443,1.162 0,1.604 l -6.965,6.966 c -0.221,0.221 -0.511,0.332 -0.801,0.332 -0.29,0 -0.581,-0.111 -0.802,-0.332 l -6.965,-6.966 c -0.443,-0.443 -0.443,-1.161 0,-1.604 0.443,-0.443 1.162,-0.443 1.604,0 l 6.162,6.163 z m -6.163,-13.224 c -0.443,-0.443 -1.161,-0.443 -1.604,0 -0.443,0.442 -0.443,1.16 0,1.604 l 6.965,6.965 c 0.221,0.221 0.512,0.332 0.802,0.332 0.29,0 0.58,-0.11 0.801,-0.332 l 6.965,-6.965 c 0.443,-0.444 0.443,-1.162 0,-1.604 -0.443,-0.443 -1.161,-0.443 -1.605,0 l -6.162,6.163 -6.162,-6.163 z"
           id="path225"
           inkscape:connector-curvature="0"
           style="fill:#8e203b" /></g><g
         id="g227"><path
           d="m 222.66,473.233 6.162,-6.163 c 0.444,-0.443 1.162,-0.443 1.605,0 0.443,0.443 0.443,1.162 0,1.604 l -6.965,6.966 c -0.221,0.221 -0.511,0.332 -0.801,0.332 -0.29,0 -0.581,-0.111 -0.802,-0.332 l -6.965,-6.966 c -0.443,-0.443 -0.443,-1.161 0,-1.604 0.443,-0.443 1.162,-0.443 1.604,0 l 6.162,6.163 z m -6.163,-13.224 c -0.442,-0.443 -1.161,-0.443 -1.604,0 -0.443,0.443 -0.443,1.16 0,1.604 l 6.965,6.965 c 0.221,0.221 0.512,0.332 0.802,0.332 0.29,0 0.58,-0.11 0.801,-0.332 l 6.965,-6.965 c 0.443,-0.444 0.443,-1.162 0,-1.604 -0.443,-0.443 -1.161,-0.443 -1.605,0 l -6.162,6.163 -6.162,-6.163 z"
           id="path229"
           inkscape:connector-curvature="0"
           style="fill:#8e203b" /></g></g><circle
       cx="181.07899"
       cy="556.20801"
       r="4.467"
       id="circle231"
       style="fill:#f6f6f6" /><circle
       cx="181.07899"
       cy="571.20398"
       r="4.467"
       id="circle233"
       style="fill:#f6f6f6" /><g
       id="g235"><g
         id="g237"><path
           d="m 179.449,555.063 0.485,-0.485 1.146,1.147 1.126,-1.126 0.482,0.482 -1.126,1.126 1.147,1.147 -0.485,0.485 -1.147,-1.147 -1.126,1.126 -0.482,-0.482 1.126,-1.125 -1.146,-1.148 z"
           id="path239"
           inkscape:connector-curvature="0"
           style="fill:#333333" /></g></g><g
       id="g241"><g
         id="g243"><path
           d="m 179.449,570.059 0.485,-0.485 1.146,1.147 1.126,-1.126 0.482,0.482 -1.126,1.126 1.147,1.147 -0.485,0.485 -1.147,-1.147 -1.126,1.126 -0.482,-0.482 1.126,-1.125 -1.146,-1.148 z"
           id="path245"
           inkscape:connector-curvature="0"
           style="fill:#333333" /></g></g></g></svg>