<svg xmlns="http://www.w3.org/2000/svg" width="250" height="250" viewBox="0 0 249.99999 250" enable-background="new 0 0 595.28 841.89"><defs><filter id="a" color-interpolation-filters="sRGB"><feColorMatrix values="0.21 0.72 0.072 0 0 0.21 0.72 0.072 0 0 0.21 0.72 0.072 0 0 0 0 0 1 0"/></filter></defs><g transform="matrix(.323 0 0 .389 35.842 -42.596)" filter="url(#a)"><g><g><path d="M180.847 485.035l-28.6-3.265v-36.9c0-2.986-2.42-5.406-5.407-5.406-2.986 0-5.406 2.42-5.406 5.406v45.57c0 .5.033.963.033 1.43-.178 0 .044.007-2.34.007-2.893 0-2.893 3.284-2.893 3.284v22.99l11.36 7.117V542.1h38.59v-50.907c0-5.337-5.337-6.158-5.337-6.158z" fill="#f5d3ae"/></g><g><path fill="#e7c196" d="M141.468 491.87v19.987l-2.34-19.98"/></g><g><path fill="#f6f6f6" d="M143.28 540.042h45.31v5.956h-45.31z"/></g><g><path fill="#333" d="M140.298 545.998h51.058v37.332h-51.058z"/></g><g><path d="M331.843 432.28l-28.6-3.264v-36.9c0-2.986-2.42-5.406-5.407-5.406-2.986 0-5.406 2.42-5.406 5.406v45.57c0 .5.033.963.033 1.43-.178 0 .044.007-2.34.007-2.893 0-2.893 3.284-2.893 3.284v22.99l11.36 7.116v16.832h38.59v-50.907c0-5.337-5.337-6.157-5.337-6.157z" fill="#f5d3ae"/></g><g><path fill="#e7c196" d="M292.464 439.116v19.987l-2.342-19.98"/></g><g><path fill="#f6f6f6" d="M294.276 487.288h45.31v5.956h-45.31z"/></g><g><path fill="#333" d="M291.293 493.244h51.058v90.086h-51.057z"/></g><g><circle cx="330.758" cy="504.517" r="4.467" fill="#f6f6f6"/></g><g><circle cx="330.758" cy="519.514" r="4.467" fill="#f6f6f6"/></g><g><g><path d="M329.127 503.372l.485-.485 1.146 1.147 1.126-1.126.482.482-1.126 1.126 1.147 1.147-.485.485-1.146-1.148-1.126 1.126-.482-.482 1.126-1.125-1.147-1.148z" fill="#333"/></g></g><g><g><path d="M329.127 518.368l.485-.485 1.146 1.147 1.126-1.126.482.482-1.126 1.126 1.147 1.147-.485.484-1.147-1.147-1.126 1.126-.483-.482 1.126-1.124-1.146-1.148z" fill="#333"/></g></g><g><path d="M484.147 376.124l-28.6-3.265v-36.9c0-2.987-2.42-5.407-5.407-5.407-2.986 0-5.406 2.42-5.406 5.406v45.57c0 .498.033.962.033 1.43-.178 0 .044.006-2.34.006-2.893 0-2.893 3.284-2.893 3.284v22.99l11.36 7.116v16.832h38.59V382.28c0-5.336-5.337-6.156-5.337-6.156z" fill="#f5d3ae"/></g><g><path fill="#e7c196" d="M444.768 382.96v19.986l-2.34-19.98"/></g><g><path fill="#f6f6f6" d="M446.58 431.13h45.31v5.957h-45.31z"/></g><g><path fill="#333" d="M443.598 437.086h51.058V583.33h-51.058z"/></g><g><circle cx="483.062" cy="448.36" r="4.467" fill="#f6f6f6"/></g><g><circle cx="483.062" cy="463.356" r="4.467" fill="#f6f6f6"/></g><g><g><path d="M481.432 447.215l.485-.485 1.146 1.147 1.126-1.126.48.483-1.125 1.126 1.147 1.146-.485.485-1.147-1.146-1.126 1.126-.482-.482 1.126-1.125-1.146-1.148z" fill="#333"/></g></g><g><g><path d="M481.432 462.21l.485-.484 1.146 1.147 1.126-1.126.48.482-1.125 1.125 1.147 1.147-.485.485-1.147-1.147-1.126 1.126-.482-.482 1.126-1.125-1.146-1.15z" fill="#333"/></g></g><g><path d="M103.222 443.764c-.915 0-1.816-.437-2.372-1.25-.896-1.308-.56-3.095.747-3.99l46.086-31.55c.69-.473 1.555-.622 2.363-.405l71.456 19.074 75.235-70.36c.716-.672 1.726-.928 2.677-.685l71.775 18.473 78.647-73.77c.323-.304.712-.528 1.136-.656 12.82-3.86 54.817-16.48 57.025-16.796 1.573-.22 3.025.868 3.25 2.438.22 1.553-.845 2.993-2.387 3.24-2.333.474-34.24 9.998-55.585 16.424l-79.308 74.39c-.717.673-1.728.93-2.68.687l-71.78-18.476-75.245 70.372c-.725.677-1.746.932-2.703.677l-71.72-19.146-44.998 30.803c-.497.34-1.06.504-1.62.504z" fill="#f6f6f6"/></g><g><g><circle cx="147.096" cy="409.683" r="16.391" fill="#91a26e"/></g><g><g><circle cx="146.841" cy="409.258" r="16.391" fill="#c2d891"/></g><g><path d="M146.84 425.968c-9.213 0-16.71-7.496-16.71-16.71s7.497-16.71 16.71-16.71c9.215 0 16.71 7.496 16.71 16.71s-7.495 16.71-16.71 16.71zm0-32.782c-8.86 0-16.07 7.21-16.07 16.072 0 8.862 7.21 16.072 16.07 16.072 8.863 0 16.073-7.21 16.073-16.072 0-8.863-7.21-16.072-16.072-16.072z" fill="#91a26e"/></g></g></g><g><g><circle cx="298.529" cy="360.82" r="16.391" fill="#91a26e"/></g><g><g><circle cx="298.274" cy="360.395" r="16.391" fill="#c2d891"/></g><g><path d="M298.274 377.105c-9.214 0-16.71-7.496-16.71-16.71s7.496-16.71 16.71-16.71 16.71 7.496 16.71 16.71-7.496 16.71-16.71 16.71zm0-32.782c-8.862 0-16.072 7.21-16.072 16.072 0 8.862 7.21 16.072 16.072 16.072 8.862 0 16.072-7.21 16.072-16.072 0-8.862-7.21-16.072-16.072-16.072z" fill="#91a26e"/></g></g></g><g><g><circle cx="449.579" cy="304.982" r="16.391" fill="#91a26e"/></g><g><g><circle cx="449.324" cy="304.557" r="16.391" fill="#c2d891"/></g><g><path d="M449.324 321.267c-9.214 0-16.71-7.496-16.71-16.71s7.496-16.71 16.71-16.71 16.71 7.496 16.71 16.71-7.496 16.71-16.71 16.71zm0-32.782c-8.862 0-16.072 7.21-16.072 16.072 0 8.862 7.21 16.072 16.072 16.072 8.862 0 16.072-7.21 16.072-16.073s-7.21-16.072-16.072-16.072z" fill="#91a26e"/></g></g></g><g><g><circle cx="374.068" cy="377.424" r="16.391" fill="#8e203b"/></g><g><circle cx="373.813" cy="376.999" r="16.391" fill="#be4442"/><path d="M373.813 393.71c-9.214 0-16.71-7.497-16.71-16.71 0-9.215 7.496-16.71 16.71-16.71s16.71 7.495 16.71 16.71c0 9.213-7.496 16.71-16.71 16.71zm0-32.783c-8.862 0-16.072 7.21-16.072 16.072 0 8.86 7.21 16.07 16.073 16.07 8.862 0 16.072-7.21 16.072-16.07 0-8.864-7.21-16.073-16.072-16.073z" fill="#8e203b"/></g></g><g><g><circle cx="222.66" cy="429.062" r="16.391" fill="#8e203b"/></g><g><circle cx="222.405" cy="428.637" r="16.391" fill="#be4442"/><path d="M222.405 445.347c-9.214 0-16.71-7.496-16.71-16.71s7.496-16.71 16.71-16.71 16.71 7.496 16.71 16.71-7.496 16.71-16.71 16.71zm0-32.782c-8.862 0-16.072 7.21-16.072 16.072 0 8.862 7.21 16.072 16.072 16.072 8.862 0 16.072-7.21 16.072-16.073 0-8.862-7.21-16.072-16.072-16.072z" fill="#8e203b"/></g></g><g><g><path d="M147.8 403.063c-.636-.638-1.67-.638-2.31 0l-.002.004-4.617 4.615c-.637.638-.637 1.673 0 2.31.64.637 1.673.637 2.312 0l1.83-1.83v6.812c0 .904.733 1.634 1.635 1.634s1.633-.73 1.633-1.634v-6.813l1.83 1.83c.638.64 1.674.64 2.31 0v.003c.638-.64.638-1.674 0-2.31l-4.62-4.62zm12.992-1.973c-4.51-7.812-14.5-10.49-22.313-5.98-7.813 4.512-10.49 14.503-5.98 22.314 4.51 7.814 14.5 10.49 22.313 5.98 7.813-4.512 10.49-14.502 5.98-22.314zm-7.612 19.484c-6.25 3.608-14.242 1.468-17.85-4.782-3.608-6.25-1.467-14.24 4.782-17.85 6.25-3.61 14.242-1.467 17.85 4.783 3.61 6.25 1.468 14.24-4.782 17.85z" fill="#778f62"/></g></g><g><g><path d="M299.43 354.2c-.638-.638-1.673-.638-2.31 0l-.004.004-4.617 4.615c-.64.637-.64 1.672 0 2.31v-.002c.638.638 1.67.638 2.31 0l1.83-1.83v6.813c0 .905.733 1.635 1.635 1.635s1.633-.73 1.633-1.634V359.3l1.83 1.83c.638.638 1.674.638 2.31 0v.002c.638-.64.638-1.674 0-2.31l-4.62-4.62zm12.99-1.973c-4.51-7.812-14.5-10.49-22.313-5.98-7.812 4.512-10.49 14.503-5.978 22.314 4.508 7.815 14.5 10.49 22.31 5.98 7.814-4.51 10.49-14.5 5.98-22.313zm-7.612 19.484c-6.25 3.61-14.242 1.47-17.85-4.78-3.607-6.25-1.466-14.242 4.783-17.852 6.25-3.608 14.243-1.466 17.852 4.784 3.608 6.25 1.466 14.24-4.784 17.85z" fill="#778f62"/></g></g><g><g><path d="M450.733 298.362c-.637-.638-1.672-.638-2.31 0l-.003.004-4.617 4.615c-.638.64-.638 1.674 0 2.312v-.002c.64.638 1.672.638 2.31 0l1.832-1.83v6.813c0 .904.732 1.634 1.634 1.634.9 0 1.632-.73 1.632-1.634v-6.813l1.83 1.83c.638.638 1.674.638 2.31 0v.002c.638-.64.638-1.674 0-2.31l-4.62-4.62zm12.99-1.973c-4.508-7.813-14.5-10.49-22.312-5.98-7.81 4.51-10.49 14.502-5.977 22.313 4.51 7.814 14.5 10.49 22.312 5.98 7.813-4.512 10.49-14.5 5.98-22.314zm-7.61 19.483c-6.25 3.608-14.243 1.468-17.85-4.782-3.61-6.25-1.468-14.24 4.78-17.85 6.25-3.608 14.243-1.466 17.852 4.784 3.61 6.25 1.467 14.24-4.783 17.85z" fill="#778f62"/></g></g><g><g><g><path d="M372.66 382.98c.636.64 1.67.64 2.31 0l.002-.003 4.617-4.615c.637-.638.637-1.673 0-2.31-.64-.637-1.673-.637-2.312 0l-1.83 1.83v-6.812c0-.904-.733-1.634-1.635-1.634s-1.633.73-1.633 1.634v6.813l-1.83-1.83c-.638-.638-1.674-.638-2.31 0v-.002c-.638.64-.638 1.675 0 2.312l4.62 4.62zm-12.992 1.974c4.51 7.812 14.5 10.49 22.313 5.98 7.813-4.512 10.49-14.503 5.98-22.314-4.51-7.814-14.5-10.49-22.313-5.98-7.813 4.512-10.49 14.5-5.98 22.314zm7.612-19.484c6.25-3.608 14.242-1.468 17.85 4.782 3.608 6.25 1.467 14.24-4.782 17.85-6.25 3.61-14.242 1.467-17.85-4.783-3.61-6.25-1.468-14.24 4.782-17.85z" fill="#8e203b"/></g></g></g><g><g><g><path d="M221.506 435.257c.637.638 1.672.638 2.31 0l.003-.004 4.616-4.615c.638-.638.638-1.673 0-2.31-.64-.637-1.672-.637-2.31 0l-1.832 1.83v-6.812c0-.904-.732-1.634-1.634-1.634-.902 0-1.633.73-1.633 1.634v6.813l-1.83-1.83c-.638-.64-1.674-.64-2.31 0v-.003c-.638.64-.638 1.674 0 2.31l4.62 4.62zm-12.99 1.973c4.508 7.812 14.5 10.49 22.312 5.98 7.812-4.512 10.49-14.503 5.978-22.314-4.51-7.814-14.5-10.49-22.312-5.98-7.813 4.512-10.49 14.5-5.98 22.314zm7.61-19.484c6.25-3.608 14.243-1.468 17.85 4.782 3.61 6.25 1.468 14.24-4.78 17.85-6.25 3.61-14.243 1.467-17.852-4.783-3.61-6.25-1.467-14.24 4.783-17.85z" fill="#8e203b"/></g></g></g><g><g><path d="M146.97 368.177l-6.163 6.163c-.444.442-1.162.442-1.605 0-.443-.443-.443-1.162 0-1.604l6.965-6.966c.22-.22.51-.332.8-.332.29 0 .582.11.803.332l6.965 6.966c.443.443.443 1.16 0 1.604-.443.442-1.162.442-1.604 0l-6.16-6.163zm6.162 13.225c.442.443 1.16.443 1.604 0 .443-.442.443-1.16 0-1.604l-6.965-6.965c-.22-.22-.51-.332-.8-.332-.29 0-.58.11-.802.333l-6.965 6.965c-.443.444-.443 1.162 0 1.604.443.443 1.16.443 1.605 0l6.162-6.163 6.162 6.162z" fill="#778f62"/></g></g><g><g><path d="M298.4 315.964l-6.16 6.163c-.445.442-1.163.442-1.606 0-.443-.443-.443-1.162 0-1.604l6.965-6.966c.22-.22.51-.332.8-.332.29 0 .58.11.802.332l6.965 6.966c.443.442.443 1.16 0 1.604-.443.442-1.162.442-1.604 0l-6.162-6.163zm6.165 13.224c.442.443 1.16.443 1.604 0 .442-.442.442-1.16 0-1.604l-6.966-6.965c-.22-.222-.512-.333-.802-.333-.29 0-.58.11-.8.332l-6.966 6.964c-.443.444-.443 1.162 0 1.604.443.443 1.16.443 1.605 0l6.163-6.163 6.162 6.163z" fill="#778f62"/></g></g><g><g><path d="M449.578 259.336l-6.162 6.163c-.444.44-1.162.44-1.605 0-.442-.444-.442-1.163 0-1.605l6.966-6.966c.22-.222.51-.333.8-.333.29 0 .582.11.803.332l6.964 6.965c.443.443.443 1.16 0 1.604-.443.44-1.162.44-1.604 0l-6.162-6.164zm6.164 13.224c.442.443 1.16.443 1.604 0 .443-.442.443-1.16 0-1.604l-6.965-6.965c-.22-.22-.51-.33-.8-.33-.29 0-.58.11-.802.33l-6.965 6.966c-.443.444-.443 1.162 0 1.604.443.443 1.16.443 1.605 0l6.162-6.163 6.162 6.163z" fill="#778f62"/></g></g><g><path d="M373.814 421.32l6.162-6.162c.444-.443 1.162-.443 1.605 0 .444.443.444 1.162 0 1.604l-6.964 6.966c-.22.22-.51.332-.8.332-.29 0-.582-.11-.803-.332l-6.965-6.966c-.443-.443-.443-1.16 0-1.604.443-.443 1.162-.443 1.604 0l6.162 6.163zm-6.163-13.223c-.442-.443-1.16-.443-1.603 0-.443.442-.443 1.16 0 1.604l6.965 6.966c.22.22.512.332.802.332.29 0 .58-.11.8-.332l6.966-6.965c.443-.443.443-1.16 0-1.603-.443-.443-1.16-.443-1.605 0l-6.162 6.163-6.162-6.163z" fill="#8e203b"/></g><g><path d="M222.66 473.233l6.162-6.163c.444-.443 1.162-.443 1.605 0 .443.443.443 1.162 0 1.604l-6.965 6.966c-.22.22-.51.332-.8.332-.29 0-.582-.11-.803-.332l-6.966-6.966c-.443-.443-.443-1.16 0-1.604.443-.443 1.162-.443 1.604 0l6.162 6.163zm-6.163-13.224c-.442-.444-1.16-.444-1.604 0-.443.442-.443 1.16 0 1.603l6.965 6.965c.22.22.512.332.802.332.29 0 .58-.11.8-.332l6.966-6.965c.443-.444.443-1.162 0-1.604-.443-.444-1.16-.444-1.605 0l-6.16 6.162-6.163-6.163z" fill="#8e203b"/></g></g><circle cx="181.079" cy="556.208" r="4.467" fill="#f6f6f6"/><circle cx="181.079" cy="571.204" r="4.467" fill="#f6f6f6"/><g><g><path d="M179.45 555.063l.484-.485 1.146 1.147 1.126-1.126.482.48-1.126 1.127 1.147 1.147-.486.485-1.147-1.148-1.126 1.126-.48-.482 1.125-1.125-1.146-1.147z" fill="#333"/></g></g><g><g><path d="M179.45 570.06l.484-.486 1.146 1.147 1.126-1.125.482.482-1.126 1.126 1.147 1.147-.486.485-1.147-1.147-1.126 1.126-.48-.482 1.125-1.125-1.146-1.148z" fill="#333"/></g></g></g></svg>