<svg xmlns="http://www.w3.org/2000/svg" xmlns:xlink="http://www.w3.org/1999/xlink" width="250" height="250"><defs><linearGradient id="d"><stop offset="0" stop-color="#fff"/><stop offset="1" stop-color="#fff" stop-opacity="0"/></linearGradient><linearGradient id="c"><stop offset="0" stop-color="#181818"/><stop offset="1" stop-color="#181818" stop-opacity="0"/></linearGradient><linearGradient id="b"><stop offset="0" stop-color="#fff"/><stop offset="1" stop-color="#fff" stop-opacity="0"/></linearGradient><linearGradient id="a"><stop offset="0" stop-color="#ededed"/><stop offset="1" stop-color="#ededed" stop-opacity="0"/></linearGradient><linearGradient xlink:href="#a" id="k" x1="190.25" y1="446.25" x2="190.25" y2="470.502" gradientUnits="userSpaceOnUse" gradientTransform="matrix(.599 0 0 .898 -.29 -86.773)"/><linearGradient xlink:href="#b" id="h" x1="148.25" y1="447.75" x2="148.25" y2="479.774" gradientUnits="userSpaceOnUse" gradientTransform="matrix(.599 0 0 .898 -.29 -86.773)"/><filter id="f" x="-.028" width="1.057" y="-1.546" height="4.093" color-interpolation-filters="sRGB"><feGaussianBlur stdDeviation="3.866" result="fbSourceGraphic"/><feColorMatrix result="fbSourceGraphicAlpha" in="fbSourceGraphic" values="0 0 0 -1 0 0 0 0 -1 0 0 0 0 -1 0 0 0 0 1 0"/><feColorMatrix values="0.21 0.72 0.072 0 0 0.21 0.72 0.072 0 0 0.21 0.72 0.072 0 0 0 0 0 1 0" in="fbSourceGraphic" result="fbSourceGraphic"/><feColorMatrix result="fbSourceGraphicAlpha" in="fbSourceGraphic" values="0 0 0 -1 0 0 0 0 -1 0 0 0 0 -1 0 0 0 0 1 0"/><feColorMatrix values="0.21 0.72 0.072 0 0 0.21 0.72 0.072 0 0 0.21 0.72 0.072 0 0 0 0 0 1 0" in="fbSourceGraphic"/></filter><radialGradient xlink:href="#c" id="e" cx="210" cy="479" fx="210" fy="479" r="173.278" gradientTransform="matrix(1 0 0 .06 0 450.123)" gradientUnits="userSpaceOnUse"/><linearGradient xlink:href="#d" id="p" x1="441.21" y1="235.5" x2="182.989" y2="235.5" gradientUnits="userSpaceOnUse" gradientTransform="matrix(.599 0 0 .898 -66.204 116.204)"/><filter id="s" color-interpolation-filters="sRGB"><feColorMatrix values="0.21 0.72 0.072 0 0 0.21 0.72 0.072 0 0 0.21 0.72 0.072 0 0 0 0 0 1 0"/></filter><filter id="r" color-interpolation-filters="sRGB"><feColorMatrix values="0.21 0.72 0.072 0 0 0.21 0.72 0.072 0 0 0.21 0.72 0.072 0 0 0 0 0 1 0"/></filter><filter id="q" color-interpolation-filters="sRGB"><feColorMatrix values="0.21 0.72 0.072 0 0 0.21 0.72 0.072 0 0 0.21 0.72 0.072 0 0 0 0 0 1 0"/></filter><filter id="o" color-interpolation-filters="sRGB"><feColorMatrix values="0.21 0.72 0.072 0 0 0.21 0.72 0.072 0 0 0.21 0.72 0.072 0 0 0 0 0 1 0"/></filter><filter id="n" color-interpolation-filters="sRGB"><feColorMatrix values="0.21 0.72 0.072 0 0 0.21 0.72 0.072 0 0 0.21 0.72 0.072 0 0 0 0 0 1 0"/></filter><filter id="m" color-interpolation-filters="sRGB"><feColorMatrix values="0.21 0.72 0.072 0 0 0.21 0.72 0.072 0 0 0.21 0.72 0.072 0 0 0 0 0 1 0"/></filter><filter id="l" color-interpolation-filters="sRGB"><feColorMatrix values="0.21 0.72 0.072 0 0 0.21 0.72 0.072 0 0 0.21 0.72 0.072 0 0 0 0 0 1 0"/></filter><filter id="j" color-interpolation-filters="sRGB"><feColorMatrix values="0.21 0.72 0.072 0 0 0.21 0.72 0.072 0 0 0.21 0.72 0.072 0 0 0 0 0 1 0"/></filter><filter id="i" color-interpolation-filters="sRGB"><feColorMatrix values="0.21 0.72 0.072 0 0 0.21 0.72 0.072 0 0 0.21 0.72 0.072 0 0 0 0 0 1 0"/></filter><filter id="g" color-interpolation-filters="sRGB"><feColorMatrix values="0.21 0.72 0.072 0 0 0.21 0.72 0.072 0 0 0.21 0.72 0.072 0 0 0 0 0 1 0"/></filter></defs><g transform="translate(0 -230)" fill-rule="evenodd"><path transform="matrix(.599 0 0 .721 -.29 -2.595)" d="M374 476v6H46v-6z" fill="url(#e)" filter="url(#f)"/><path d="M374 476v6H46v-6z" transform="matrix(.599 0 0 .293 -.29 201.157)" fill="#181818" filter="url(#f)"/><path d="M32.667 312.894h185.758c1.99 0 3.595 2.403 3.595 5.39v17.96c0 2.987-1.604 5.39-3.595 5.39H32.667c-1.992 0-3.596-2.403-3.596-5.39v-17.96c0-2.987 1.605-5.39 3.597-5.39z" fill="#a0a0a0" filter="url(#g)"/><path d="M32.667 312.894h185.758c1.99 0 3.595 2.403 3.595 5.39v17.96c0 2.987-1.604 5.39-3.595 5.39H32.667c-1.992 0-3.596-2.403-3.596-5.39v-17.96c0-2.987 1.605-5.39 3.597-5.39z" fill="url(#h)" filter="url(#i)"/><rect width="191.75" height="26.944" x="29.671" y="313.792" rx="3.595" ry="5.389" fill="#d7d7d7" filter="url(#j)"/><rect ry="5.389" rx="3.595" y="313.792" x="29.671" height="26.944" width="191.75" fill="url(#k)" filter="url(#l)"/><path d="M35.663 317.385h179.765c1.992 0 3.596 2.403 3.596 5.388v8.982c0 2.985-1.604 5.39-3.596 5.39H35.663c-1.992 0-3.595-2.405-3.595-5.39v-8.982c0-2.985 1.603-5.388 3.595-5.388z" fill="#f7f7f7" filter="url(#m)"/><path d="M51.243 318.283h94.676c1.99 0 3.594 2.403 3.594 5.39v8.082c0 2.985-1.603 5.39-3.595 5.39H51.242c-1.992 0-3.596-2.405-3.596-5.39v-8.083c0-2.986 1.604-5.39 3.596-5.39z" opacity=".2" fill="#4897ff" filter="url(#n)"/><path d="M35.663 318.283h92.28c1.99 0 3.595 2.403 3.595 5.39v8.082c0 2.985-1.604 5.39-3.595 5.39h-92.28c-1.992 0-3.595-2.405-3.595-5.39v-8.083c0-2.986 1.603-5.39 3.595-5.39z" fill="#4897ff" filter="url(#o)"/><path d="M35.663 318.283h92.28c1.99 0 3.595 2.403 3.595 5.39v8.082c0 2.985-1.604 5.39-3.595 5.39h-92.28c-1.992 0-3.595-2.405-3.595-5.39v-8.083c0-2.986 1.603-5.39 3.595-5.39z" fill="url(#p)" filter="url(#q)"/><path d="M35.663 318.283h179.765c1.992 0 3.596 1.505 3.596 4.49-.352-1.97-1.322-3.592-3.596-3.592H35.663c-2.422 0-3.276 1.806-3.595 3.593 0-2.985 1.603-4.49 3.595-4.49z" opacity=".2" fill="#3b3b3b" filter="url(#r)"/><path d="M35.663 337.144h179.765c1.992 0 3.596-1.506 3.596-4.49-.352 1.97-1.322 3.59-3.596 3.59H35.663c-2.422 0-3.276-1.804-3.595-3.59 0 2.984 1.603 4.49 3.595 4.49z" opacity=".8" fill="#fff" filter="url(#s)"/></g></svg>