<?xml version="1.0" encoding="UTF-8" standalone="no"?>
<!-- Created with Inkscape (http://www.inkscape.org/) -->

<svg
   xmlns:dc="http://purl.org/dc/elements/1.1/"
   xmlns:cc="http://creativecommons.org/ns#"
   xmlns:rdf="http://www.w3.org/1999/02/22-rdf-syntax-ns#"
   xmlns:svg="http://www.w3.org/2000/svg"
   xmlns="http://www.w3.org/2000/svg"
   xmlns:xlink="http://www.w3.org/1999/xlink"
   xmlns:sodipodi="http://sodipodi.sourceforge.net/DTD/sodipodi-0.dtd"
   xmlns:inkscape="http://www.inkscape.org/namespaces/inkscape"
   width="250"
   height="250"
   id="svg2985"
   version="1.1"
   inkscape:version="0.91pre3 r13670"
   sodipodi:docname="progreso.svg">
  <defs
     id="defs2987">
    <linearGradient
       inkscape:collect="always"
       id="linearGradient3981">
      <stop
         style="stop-color:#ffffff;stop-opacity:1;"
         offset="0"
         id="stop3983" />
      <stop
         style="stop-color:#ffffff;stop-opacity:0;"
         offset="1"
         id="stop3985" />
    </linearGradient>
    <linearGradient
       inkscape:collect="always"
       id="linearGradient3926">
      <stop
         style="stop-color:#181818;stop-opacity:1;"
         offset="0"
         id="stop3928" />
      <stop
         style="stop-color:#181818;stop-opacity:0;"
         offset="1"
         id="stop3930" />
    </linearGradient>
    <linearGradient
       inkscape:collect="always"
       id="linearGradient3859">
      <stop
         style="stop-color:#ffffff;stop-opacity:1;"
         offset="0"
         id="stop3861" />
      <stop
         style="stop-color:#ffffff;stop-opacity:0;"
         offset="1"
         id="stop3863" />
    </linearGradient>
    <linearGradient
       inkscape:collect="always"
       id="linearGradient3846">
      <stop
         style="stop-color:#ededed;stop-opacity:1;"
         offset="0"
         id="stop3848" />
      <stop
         style="stop-color:#ededed;stop-opacity:0;"
         offset="1"
         id="stop3850" />
    </linearGradient>
    <linearGradient
       inkscape:collect="always"
       xlink:href="#linearGradient3846"
       id="linearGradient3852"
       x1="190.25"
       y1="446.25"
       x2="190.25"
       y2="470.50235"
       gradientUnits="userSpaceOnUse"
       gradientTransform="matrix(0.59921861,0,0,0.89812717,-0.29027102,-86.772507)" />
    <linearGradient
       inkscape:collect="always"
       xlink:href="#linearGradient3859"
       id="linearGradient3865"
       x1="148.25"
       y1="447.75"
       x2="148.25"
       y2="479.77441"
       gradientUnits="userSpaceOnUse"
       gradientTransform="matrix(0.59921861,0,0,0.89812717,-0.29027102,-86.772507)" />
    <filter
       inkscape:collect="always"
       id="filter3920"
       x="-0.028285908"
       width="1.0565718"
       y="-1.5462964"
       height="4.0925927">
      <feGaussianBlur
         inkscape:collect="always"
         stdDeviation="3.8657407"
         id="feGaussianBlur3922" />
    </filter>
    <radialGradient
       inkscape:collect="always"
       xlink:href="#linearGradient3926"
       id="radialGradient3932"
       cx="210"
       cy="479"
       fx="210"
       fy="479"
       r="173.27779"
       gradientTransform="matrix(1,0,0,0.06028585,0,450.12308)"
       gradientUnits="userSpaceOnUse" />
    <linearGradient
       inkscape:collect="always"
       xlink:href="#linearGradient3981"
       id="linearGradient3987"
       x1="441.21011"
       y1="235.5"
       x2="182.98926"
       y2="235.5"
       gradientUnits="userSpaceOnUse"
       gradientTransform="matrix(0.59921861,0,0,0.89812717,-66.20431,116.20422)" />
  </defs>
  <sodipodi:namedview
     id="base"
     pagecolor="#ffffff"
     bordercolor="#666666"
     borderopacity="1.0"
     inkscape:pageopacity="0.0"
     inkscape:pageshadow="2"
     inkscape:zoom="0.45254834"
     inkscape:cx="-60.77723"
     inkscape:cy="161.08327"
     inkscape:current-layer="layer1"
     inkscape:document-units="px"
     showgrid="true"
     inkscape:window-width="1366"
     inkscape:window-height="705"
     inkscape:window-x="-8"
     inkscape:window-y="-8"
     inkscape:window-maximized="1"
     showborder="false">
    <inkscape:grid
       type="xygrid"
       id="grid8096" />
  </sodipodi:namedview>
  <metadata
     id="metadata2990">
    <rdf:RDF>
      <cc:Work
         rdf:about="">
        <dc:format>image/svg+xml</dc:format>
        <dc:type
           rdf:resource="http://purl.org/dc/dcmitype/StillImage" />
        <dc:title></dc:title>
      </cc:Work>
    </rdf:RDF>
  </metadata>
  <g
     id="layer1"
     inkscape:label="Layer 1"
     inkscape:groupmode="layer"
     transform="translate(0,-230)">
    <path
       transform="matrix(0.59921861,0,0,0.72082267,-0.29027102,-2.5950384)"
       sodipodi:nodetypes="ccccc"
       inkscape:connector-curvature="0"
       id="path3924"
       d="m 374,476 0,6 -328,0 0,-6 z"
       style="fill:url(#radialGradient3932);fill-opacity:1;fill-rule:evenodd;stroke:none;filter:url(#filter3920)" />
    <path
       style="fill:#181818;fill-opacity:1;fill-rule:evenodd;stroke:none;filter:url(#filter3920)"
       d="m 374,476 0,6 -328,0 0,-6 z"
       id="rect3867"
       inkscape:connector-curvature="0"
       sodipodi:nodetypes="ccccc"
       transform="matrix(0.59921861,0,0,0.29277184,-0.29027102,201.15716)" />
    <path
       style="fill:#a0a0a0;fill-opacity:1;fill-rule:evenodd;stroke:none"
       d="m 32.666752,312.89406 185.757768,0 c 1.99181,0 3.59532,2.40339 3.59532,5.38878 l 0,17.96253 c 0,2.98538 -1.60351,5.38876 -3.59532,5.38876 l -185.757768,0 c -1.991802,0 -3.59531,-2.40338 -3.59531,-5.38876 l 0,-17.96253 c 0,-2.98539 1.603508,-5.38878 3.59531,-5.38878 z"
       id="rect3854"
       inkscape:connector-curvature="0"
       sodipodi:nodetypes="sssssssss" />
    <path
       sodipodi:nodetypes="sssssssss"
       inkscape:connector-curvature="0"
       id="path3857"
       d="m 32.666752,312.89406 185.757768,0 c 1.99181,0 3.59532,2.40339 3.59532,5.38878 l 0,17.96253 c 0,2.98538 -1.60351,5.38876 -3.59532,5.38876 l -185.757768,0 c -1.991802,0 -3.59531,-2.40338 -3.59531,-5.38876 l 0,-17.96253 c 0,-2.98539 1.603508,-5.38878 3.59531,-5.38878 z"
       style="fill:url(#linearGradient3865);fill-opacity:1;fill-rule:evenodd;stroke:none" />
    <rect
       style="fill:#d7d7d7;fill-opacity:1;fill-rule:evenodd;stroke:none"
       id="rect3074"
       width="191.74994"
       height="26.943815"
       x="29.67066"
       y="313.79218"
       rx="3.5953116"
       ry="5.388763" />
    <rect
       ry="5.388763"
       rx="3.5953116"
       y="313.79218"
       x="29.67066"
       height="26.943815"
       width="191.74994"
       id="rect3844"
       style="fill:url(#linearGradient3852);fill-opacity:1;fill-rule:evenodd;stroke:none" />
    <path
       style="fill:#f7f7f7;fill-opacity:1;fill-rule:evenodd;stroke:none"
       d="m 35.662845,317.3847 179.765595,0 c 1.99179,0 3.59531,2.40338 3.59531,5.38876 l 0,8.98128 c 0,2.98538 -1.60352,5.38876 -3.59531,5.38876 l -179.765595,0 c -1.991802,0 -3.595311,-2.40338 -3.595311,-5.38876 l 0,-8.98128 c 0,-2.98538 1.603509,-5.38876 3.595311,-5.38876 z"
       id="rect3950"
       inkscape:connector-curvature="0"
       sodipodi:nodetypes="sssssssss" />
    <path
       style="opacity:0.2;fill:#4897ff;fill-opacity:1;fill-rule:evenodd;stroke:none"
       d="m 51.242529,318.28284 94.676541,0 c 1.99181,0 3.59532,2.40338 3.59532,5.38875 l 0,8.08315 c 0,2.98538 -1.60351,5.38876 -3.59532,5.38876 l -94.676541,0 c -1.991802,0 -3.595312,-2.40338 -3.595312,-5.38876 l 0,-8.08315 c 0,-2.98537 1.60351,-5.38875 3.595312,-5.38875 z"
       id="path3991"
       inkscape:connector-curvature="0"
       sodipodi:nodetypes="sssssssss" />
    <path
       sodipodi:nodetypes="sssssssss"
       inkscape:connector-curvature="0"
       id="path3955"
       d="m 35.662845,318.28284 92.279665,0 c 1.99181,0 3.59531,2.40338 3.59531,5.38875 l 0,8.08315 c 0,2.98538 -1.6035,5.38876 -3.59531,5.38876 l -92.279665,0 c -1.991802,0 -3.595311,-2.40338 -3.595311,-5.38876 l 0,-8.08315 c 0,-2.98537 1.603509,-5.38875 3.595311,-5.38875 z"
       style="fill:#4897ff;fill-opacity:1;fill-rule:evenodd;stroke:none" />
    <path
       sodipodi:nodetypes="sssssssss"
       inkscape:connector-curvature="0"
       id="path3979"
       d="m 35.662845,318.28284 92.279665,0 c 1.99181,0 3.59531,2.40338 3.59531,5.38875 l 0,8.08315 c 0,2.98538 -1.6035,5.38876 -3.59531,5.38876 l -92.279665,0 c -1.991802,0 -3.595311,-2.40338 -3.595311,-5.38876 l 0,-8.08315 c 0,-2.98537 1.603509,-5.38875 3.595311,-5.38875 z"
       style="fill:url(#linearGradient3987);fill-opacity:1;fill-rule:evenodd;stroke:none" />
    <path
       sodipodi:nodetypes="ssccccs"
       inkscape:connector-curvature="0"
       id="path3953"
       d="m 35.662845,318.28284 179.765595,0 c 1.99179,0 3.59531,1.50524 3.59531,4.49062 -0.35221,-1.97014 -1.32181,-3.5925 -3.59531,-3.5925 l -179.765595,0 c -2.42191,0 -3.275795,1.80522 -3.595311,3.5925 0,-2.98538 1.603509,-4.49062 3.595311,-4.49062 z"
       style="opacity:0.2;fill:#3b3b3b;fill-opacity:1;fill-rule:evenodd;stroke:none" />
    <path
       style="opacity:0.8;fill:#ffffff;fill-opacity:1;fill-rule:evenodd;stroke:none"
       d="m 35.662845,337.1435 179.765595,0 c 1.99179,0 3.59531,-1.50525 3.59531,-4.49064 -0.35221,1.97016 -1.32181,3.59251 -3.59531,3.59251 l -179.765595,0 c -2.42191,0 -3.275795,-1.80522 -3.595311,-3.59251 0,2.98539 1.603509,4.49064 3.595311,4.49064 z"
       id="path3977"
       inkscape:connector-curvature="0"
       sodipodi:nodetypes="ssccccs" />
  </g>
</svg>
