<svg xmlns="http://www.w3.org/2000/svg" width="60" height="60" viewBox="0 0 60 60"><g><g><g><g transform="matrix(.813 0 0 .851 5.448 4.939)"><ellipse cx="46.128" cy="41.75" rx="8.774" ry="10.133" fill="#f5b244"/><ellipse cx="46.128" cy="41.75" rx="6.748" ry="7.794" fill="#dea33d"/><path d="M46.128 49.777c-3.833 0-6.95-3.6-6.95-8.027 0-4.426 3.117-8.028 6.95-8.028s6.95 3.6 6.95 8.028c0 4.427-3.117 8.027-6.95 8.027zm0-15.587c-3.61 0-6.546 3.39-6.546 7.56 0 4.168 2.937 7.56 6.546 7.56 3.61 0 6.546-3.39 6.546-7.56s-2.937-7.56-6.546-7.56z" opacity=".5" fill="#fff"/></g><g opacity=".8"><path d="M45.57 38.493c0 .362-.172.657-.48.657-.49 0-.843-1.106-1.677-1.106-.262 0-.49.153-.49.504 0 1.05 2.764.427 2.764 2.946 0 1.434-1.286 2.2-1.948 2.267-.218.023-.19.11-.19.373 0 .537-.028.526-.472.526-.417 0-.525.075-.525-.484 0-.175.045-.383-.136-.405-.345-.053-1.05-.24-1.314-.47-.317-.285-.498-1.26-.498-1.697 0-.252.09-.515.326-.515.626 0 .5 1.533 1.903 1.533.2 0 .662-.108.662-.47 0-.328-.082-.393-1.06-.82-.825-.35-1.686-1.04-1.686-2.224 0-1.095.733-1.972 1.594-2.18.236-.054.21-.087.21-.383 0-.548.025-.526.47-.526.426 0 .525-.077.525.48 0 .155-.046.374.117.417.118.023.57.165.625.165.11 0 .245-.11.408-.11.335 0 .87.844.87 1.523z" fill="#fff"/></g></g></g></g><g><g stroke-miterlimit="10" fill="#80a5c6" stroke="#98c2cc" stroke-width="1.281"><path d="M14.662 15.09v2.85h2.61v1.23h-2.61v2.877h-1.224V19.17h-2.61v-1.23h2.61v-2.85h1.224z"/><path d="M23.246 15.313h-.026l-1.548.772-.312-1.49 2.148-1.047h1.573v8.5h-1.834v-6.735z"/><path d="M33.75 17.76c0 2.627-1.01 4.43-3.084 4.43-2.098 0-3.02-1.973-3.034-4.38 0-2.458.998-4.406 3.097-4.406 2.17 0 3.02 2.027 3.02 4.355zm-4.208.05c-.012 1.95.437 2.878 1.174 2.878.736 0 1.137-.967 1.137-2.903 0-1.883-.388-2.877-1.15-2.877-.698 0-1.173.93-1.16 2.903z"/><path d="M40.685 17.76c0 2.627-1.01 4.43-3.084 4.43-2.097 0-3.02-1.973-3.033-4.38 0-2.458 1-4.406 3.097-4.406 2.172 0 3.02 2.027 3.02 4.355zm-4.208.05c-.013 1.95.437 2.878 1.173 2.878.737 0 1.137-.967 1.137-2.903 0-1.883-.388-2.877-1.15-2.877-.7 0-1.173.93-1.16 2.903z"/><path d="M47.62 17.76c0 2.627-1.012 4.43-3.085 4.43-2.098 0-3.022-1.973-3.034-4.38 0-2.458 1-4.406 3.098-4.406 2.173 0 3.022 2.027 3.022 4.355zm-4.21.05c-.01 1.95.438 2.878 1.175 2.878.737 0 1.136-.967 1.136-2.903 0-1.883-.386-2.877-1.148-2.877-.7 0-1.173.93-1.16 2.903z"/><path d="M13.614 33.5c0-.838-.025-1.558-.05-2.147h1.65l.086.89h.026c.45-.68 1.15-1.034 2.035-1.034 1.337 0 2.536 1.216 2.536 3.256 0 2.327-1.41 3.426-2.772 3.426-.736 0-1.31-.314-1.586-.733h-.025v3.178h-1.898v-6.84zm1.898 1.503c0 .156.012.3.037.418.123.537.56.942 1.11.942.824 0 1.31-.72 1.31-1.805 0-1.02-.437-1.79-1.286-1.79-.537 0-1.01.42-1.136 1.007-.025.105-.037.236-.037.353v.876z"/><path d="M27.154 34.48c0 2.34-1.586 3.413-3.222 3.413-1.786 0-3.158-1.23-3.158-3.296 0-2.065 1.298-3.387 3.258-3.387 1.874 0 3.122 1.347 3.122 3.27zm-4.42.065c0 1.098.437 1.92 1.248 1.92.736 0 1.212-.77 1.212-1.92 0-.954-.35-1.922-1.212-1.922-.912 0-1.248.98-1.248 1.922z"/><path d="M30.292 29.576c0 .55-.4.994-1.025.994-.598 0-.998-.445-.986-.994-.01-.576.39-1.006 1-1.006.612 0 1 .43 1.012 1.006zm-1.96 8.173v-6.396h1.898v6.395h-1.9z"/><path d="M31.755 33.394c0-.797-.025-1.476-.05-2.04h1.65l.086.877h.04c.248-.404.872-1.02 1.884-1.02 1.25 0 2.186.864 2.186 2.747v3.793h-1.898v-3.544c0-.824-.275-1.386-.962-1.386-.525 0-.837.378-.963.745-.05.118-.074.314-.074.497v3.688h-1.898v-4.356z"/><path d="M41.124 29.524v1.83h1.36v1.466h-1.36v2.314c0 .77.175 1.125.75 1.125.237 0 .424-.028.562-.053l.012 1.503c-.25.105-.7.17-1.236.17-.612 0-1.124-.22-1.424-.55-.35-.378-.525-.992-.525-1.895V32.82h-.81v-1.467h.81v-1.385l1.86-.444z"/><path d="M43.575 36.01c.35.22 1.074.484 1.636.484.576 0 .812-.21.812-.537 0-.327-.187-.484-.9-.732-1.26-.445-1.748-1.164-1.735-1.924 0-1.188.975-2.09 2.486-2.09.71 0 1.348.17 1.722.365l-.337 1.374c-.275-.158-.8-.367-1.324-.367-.46 0-.724.196-.724.523 0 .3.238.457.987.732 1.16.42 1.648 1.033 1.66 1.975 0 1.19-.9 2.066-2.647 2.066-.8 0-1.51-.184-1.973-.446l.338-1.424z"/></g></g></svg>