<svg xmlns="http://www.w3.org/2000/svg" width="60" height="60" viewBox="0 0 60 60"><defs><filter id="b" color-interpolation-filters="sRGB"><feColorMatrix values="0.21 0.72 0.072 0 0 0.21 0.72 0.072 0 0 0.21 0.72 0.072 0 0 0 0 0 1 0"/></filter><filter id="a" color-interpolation-filters="sRGB"><feColorMatrix values="0.21 0.72 0.072 0 0 0.21 0.72 0.072 0 0 0.21 0.72 0.072 0 0 0 0 0 1 0"/></filter></defs><g transform="matrix(.813 0 0 .851 5.448 4.939)" filter="url(#a)"><g><g><g><ellipse cx="46.128" cy="41.75" rx="8.774" ry="10.133" fill="#f5b244"/><ellipse cx="46.128" cy="41.75" rx="6.748" ry="7.794" fill="#dea33d"/><path d="M46.128 49.777c-3.833 0-6.95-3.6-6.95-8.027 0-4.426 3.117-8.028 6.95-8.028s6.95 3.6 6.95 8.028c0 4.427-3.117 8.027-6.95 8.027zm0-15.587c-3.61 0-6.546 3.39-6.546 7.56 0 4.168 2.937 7.56 6.546 7.56 3.61 0 6.546-3.39 6.546-7.56s-2.937-7.56-6.546-7.56z" opacity=".5" fill="#fff"/></g><g opacity=".8"><path d="M49.35 39.43c0 .424-.21.77-.59.77-.602 0-1.037-1.3-2.062-1.3-.323 0-.602.18-.602.593 0 1.236 3.4.502 3.4 3.462 0 1.686-1.583 2.587-2.397 2.664-.27.025-.235.128-.235.436 0 .63-.033.618-.58.618-.513 0-.646.09-.646-.567 0-.206.055-.45-.168-.476-.424-.063-1.293-.282-1.616-.552-.39-.335-.613-1.48-.613-1.995 0-.296.11-.605.4-.605.77 0 .614 1.802 2.34 1.802.246 0 .815-.13.815-.553 0-.386-.1-.463-1.304-.965-1.014-.412-2.073-1.223-2.073-2.613 0-1.288.904-2.318 1.963-2.562.29-.064.256-.103.256-.45 0-.645.032-.62.58-.62.523 0 .645-.09.645.567 0 .18-.056.438.145.49.145.025.702.192.77.192.133 0 .3-.13.5-.13.413.003 1.07.994 1.07 1.792z" fill="#fff"/></g></g></g></g><g transform="matrix(.813 0 0 .851 5.448 4.939)" filter="url(#b)"><g stroke-miterlimit="10" fill="#80a5c6" stroke="#98c2cc" stroke-width="1.281"><path d="M11.337 11.93v3.348h3.212v1.444h-3.213v3.38H9.83v-3.38H6.62v-1.444h3.21v-3.35h1.507z"/><path d="M21.9 12.19h-.03l-1.906.907-.384-1.752 2.643-1.23h1.936v9.99H21.9V12.19z"/><path d="M34.827 15.064c0 3.088-1.245 5.208-3.796 5.208-2.58 0-3.717-2.32-3.733-5.147 0-2.89 1.23-5.178 3.81-5.178 2.674 0 3.72 2.38 3.72 5.117zm-5.18.06c-.014 2.29.54 3.382 1.445 3.382.906 0 1.4-1.137 1.4-3.41 0-2.214-.478-3.382-1.415-3.382-.86 0-1.444 1.09-1.43 3.41z"/><path d="M43.36 15.064c0 3.088-1.245 5.208-3.796 5.208-2.58 0-3.718-2.32-3.733-5.147 0-2.89 1.23-5.178 3.812-5.178 2.673 0 3.718 2.38 3.718 5.117zm-5.18.06c-.014 2.29.54 3.382 1.445 3.382.907 0 1.4-1.137 1.4-3.41 0-2.214-.478-3.382-1.415-3.382-.86 0-1.444 1.09-1.43 3.41z"/><path d="M51.893 15.064c0 3.088-1.245 5.208-3.796 5.208-2.58 0-3.718-2.32-3.733-5.147 0-2.89 1.23-5.178 3.81-5.178 2.674 0 3.72 2.38 3.72 5.117zm-5.18.06c-.014 2.29.54 3.382 1.445 3.382.907 0 1.4-1.137 1.4-3.41 0-2.214-.478-3.382-1.415-3.382-.86 0-1.444 1.09-1.43 3.41z"/><path d="M10.048 33.56c0-.984-.03-1.83-.06-2.522h2.027l.108 1.046h.03c.555-.8 1.415-1.215 2.506-1.215 1.643 0 3.118 1.43 3.118 3.825 0 2.735-1.736 4.026-3.41 4.026-.907 0-1.614-.368-1.952-.86h-.03v3.735h-2.337V33.56zm2.335 1.766c0 .184.015.353.046.492.152.63.69 1.106 1.366 1.106 1.014 0 1.613-.845 1.613-2.12 0-1.2-.54-2.105-1.584-2.105-.66 0-1.245.49-1.398 1.183-.03.123-.046.277-.046.414v1.03z"/><path d="M26.71 34.712c0 2.75-1.952 4.01-3.965 4.01-2.198 0-3.887-1.444-3.887-3.872 0-2.427 1.598-3.98 4.01-3.98 2.305 0 3.84 1.582 3.84 3.842zm-5.44.076c0 1.29.538 2.258 1.536 2.258.906 0 1.49-.906 1.49-2.258 0-1.12-.43-2.258-1.49-2.258-1.122 0-1.536 1.152-1.536 2.258z"/><path d="M30.57 28.95c0 .645-.49 1.168-1.26 1.168-.737 0-1.23-.523-1.214-1.17-.015-.675.477-1.18 1.23-1.18s1.23.505 1.245 1.18zm-2.412 9.603V31.04h2.336v7.513h-2.336z"/><path d="M32.37 33.436c0-.937-.03-1.735-.06-2.397h2.028l.108 1.03h.046c.307-.476 1.075-1.2 2.32-1.2 1.538 0 2.69 1.015 2.69 3.227v4.457h-2.336V34.39c0-.968-.338-1.63-1.184-1.63-.646 0-1.03.446-1.184.877-.06.14-.09.37-.09.584v4.334H32.37v-5.118z"/><path d="M43.9 28.888v2.15h1.675v1.723H43.9v2.72c0 .907.215 1.322.922 1.322.292 0 .522-.03.692-.06l.015 1.766c-.31.123-.862.2-1.522.2-.753 0-1.383-.26-1.752-.646-.43-.445-.646-1.167-.646-2.228V32.76h-.998v-1.722h.998V29.41l2.29-.522z"/><path d="M46.916 36.51c.43.26 1.32.568 2.013.568.706 0 .997-.245.997-.63s-.23-.57-1.106-.86c-1.552-.524-2.15-1.368-2.135-2.26 0-1.4 1.2-2.46 3.058-2.46.876 0 1.66.2 2.12.43l-.415 1.615c-.338-.185-.983-.43-1.63-.43-.567 0-.89.23-.89.614 0 .354.292.538 1.214.86 1.43.493 2.028 1.215 2.043 2.32 0 1.4-1.106 2.43-3.257 2.43-.983 0-1.86-.216-2.428-.524l.416-1.673z"/></g></g></svg>