<?xml version="1.0" encoding="UTF-8" standalone="no"?>
<!-- Generator: Adobe Illustrator 17.0.0, SVG Export Plug-In . SVG Version: 6.00 Build 0)  -->

<svg
   xmlns:dc="http://purl.org/dc/elements/1.1/"
   xmlns:cc="http://creativecommons.org/ns#"
   xmlns:rdf="http://www.w3.org/1999/02/22-rdf-syntax-ns#"
   xmlns:svg="http://www.w3.org/2000/svg"
   xmlns="http://www.w3.org/2000/svg"
   xmlns:sodipodi="http://sodipodi.sourceforge.net/DTD/sodipodi-0.dtd"
   xmlns:inkscape="http://www.inkscape.org/namespaces/inkscape"
   version="1.1"
   x="0px"
   y="0px"
   width="250"
   height="250"
   viewBox="0 0 249.99999 250"
   enable-background="new 0 0 595.28 841.89"
   xml:space="preserve"
   id="svg2"
   inkscape:version="0.91pre3 r13670"
   sodipodi:docname="ranking.svg"><metadata
     id="metadata273"><rdf:RDF><cc:Work
         rdf:about=""><dc:format>image/svg+xml</dc:format><dc:type
           rdf:resource="http://purl.org/dc/dcmitype/StillImage" /><dc:title></dc:title></cc:Work></rdf:RDF></metadata><defs
     id="defs271" /><sodipodi:namedview
     pagecolor="#ffffff"
     bordercolor="#666666"
     borderopacity="1"
     objecttolerance="10"
     gridtolerance="10"
     guidetolerance="10"
     inkscape:pageopacity="0"
     inkscape:pageshadow="2"
     inkscape:window-width="1366"
     inkscape:window-height="705"
     id="namedview269"
     showgrid="false"
     inkscape:zoom="0.28032165"
     inkscape:cx="235.21173"
     inkscape:cy="420.94501"
     inkscape:window-x="-8"
     inkscape:window-y="-8"
     inkscape:window-maximized="1"
     inkscape:current-layer="svg2" /><g
     id="Capa_1"
     display="none"
     style="display:none"
     transform="translate(0,-591.89001)"><path
       display="inline"
       d="m 248.859,355.673 c 0,10.663 -9.031,19.307 -20.171,19.307 l -146.723,0 c -11.14,0 -20.171,-8.644 -20.171,-19.307 l 0,-138.755 c 0,-10.663 9.031,-19.307 20.171,-19.307 l 146.723,0 c 11.14,0 20.171,8.644 20.171,19.307 l 0,138.755 z"
       id="path5"
       inkscape:connector-curvature="0"
       style="clip-rule:evenodd;display:inline;fill:#80a5c6;fill-rule:evenodd" /><path
       display="inline"
       d="m 240.821,349.771 c 0,9.756 -8.255,17.664 -18.438,17.664 l -134.114,0 c -10.183,0 -18.438,-7.909 -18.438,-17.664 l 0,-126.95 c 0,-9.756 8.255,-17.664 18.438,-17.664 l 134.114,0 c 10.183,0 18.438,7.909 18.438,17.664 l 0,126.95 z"
       id="path7"
       inkscape:connector-curvature="0"
       style="clip-rule:evenodd;display:inline;fill:#cee8ef;fill-rule:evenodd" /></g><g
     id="Capa_2"
     transform="translate(-21.403983,-174.51233)"><g
       id="g10"><g
         id="g12"><path
           d="m 161.332,307.946 0,-10.715 c 8.56,0 15.523,-6.964 15.523,-15.524 0,-8.56 -6.964,-15.523 -15.523,-15.523 -8.56,0 -15.524,6.964 -15.524,15.523 l -10.715,0 c 0,-14.468 11.771,-26.238 26.239,-26.238 14.468,0 26.238,11.77 26.238,26.238 0.001,14.468 -11.77,26.239 -26.238,26.239 z"
           id="path14"
           inkscape:connector-curvature="0"
           style="fill:#f5a61c" /></g><polygon
         points="140.448,288.09 147.776,280.762 133.12,280.762 "
         id="polygon16"
         style="fill:#f5a61c" /></g><g
       id="g18"><g
         id="g20"><path
           d="m 161.332,323.133 0,-10.715 c 16.934,0 30.71,-13.777 30.71,-30.71 0,-16.934 -13.777,-30.71 -30.71,-30.71 -16.934,0 -30.712,13.777 -30.712,30.71 l -10.715,0 c 0,-22.842 18.584,-41.425 41.426,-41.425 22.842,0 41.425,18.583 41.425,41.425 0.002,22.841 -18.582,41.425 -41.424,41.425 z"
           id="path22"
           inkscape:connector-curvature="0"
           style="fill:#ee5d23" /></g><polygon
         points="125.279,288.123 132.607,280.795 117.952,280.795 "
         id="polygon24"
         style="fill:#ee5d23" /></g><g
       id="g26"><g
         id="g28"><path
           d="m 161.333,338.318 0,-10.715 c 25.307,0 45.896,-20.589 45.896,-45.896 0,-25.307 -20.589,-45.896 -45.896,-45.896 -25.308,0 -45.898,20.589 -45.898,45.896 l -10.715,0 c 0,-15.122 5.888,-29.339 16.581,-40.031 10.692,-10.691 24.909,-16.58 40.032,-16.58 15.123,0 29.339,5.888 40.031,16.58 10.691,10.692 16.58,24.908 16.58,40.031 0,15.123 -5.888,29.339 -16.58,40.031 -10.692,10.692 -24.908,16.58 -40.031,16.58 z"
           id="path30"
           inkscape:connector-curvature="0"
           style="fill:#603a17" /></g><polygon
         points="110.078,288.123 117.406,280.795 102.75,280.795 "
         id="polygon32"
         style="fill:#603a17" /></g><radialGradient
       id="SVGID_1_"
       cx="161.6179"
       cy="282.46661"
       r="117.0969"
       gradientUnits="userSpaceOnUse"><stop
         offset="0"
         style="stop-color:#DBCDAD"
         id="stop35" /><stop
         offset="0.1871"
         style="stop-color:#D7C7A8"
         id="stop37" /><stop
         offset="0.414"
         style="stop-color:#CBB799"
         id="stop39" /><stop
         offset="0.6604"
         style="stop-color:#BBA083"
         id="stop41" /><stop
         offset="0.903"
         style="stop-color:#A8856C"
         id="stop43" /></radialGradient><rect
       x="81.602997"
       y="297.23099"
       width="79.728996"
       height="10.715"
       id="rect45"
       style="fill:url(#SVGID_1_)" /><radialGradient
       id="SVGID_2_"
       cx="161.6179"
       cy="312.83871"
       r="117.0969"
       gradientUnits="userSpaceOnUse"><stop
         offset="0"
         style="stop-color:#DBCDAD"
         id="stop48" /><stop
         offset="0.1871"
         style="stop-color:#D7C7A8"
         id="stop50" /><stop
         offset="0.414"
         style="stop-color:#CBB799"
         id="stop52" /><stop
         offset="0.6604"
         style="stop-color:#BBA083"
         id="stop54" /><stop
         offset="0.903"
         style="stop-color:#A8856C"
         id="stop56" /></radialGradient><rect
       x="81.602997"
       y="327.603"
       width="79.728996"
       height="10.715"
       id="rect58"
       style="fill:url(#SVGID_2_)" /><radialGradient
       id="SVGID_3_"
       cx="161.6179"
       cy="297.6535"
       r="117.0969"
       gradientUnits="userSpaceOnUse"><stop
         offset="0"
         style="stop-color:#DBCDAD"
         id="stop61" /><stop
         offset="0.1871"
         style="stop-color:#D7C7A8"
         id="stop63" /><stop
         offset="0.414"
         style="stop-color:#CBB799"
         id="stop65" /><stop
         offset="0.6604"
         style="stop-color:#BBA083"
         id="stop67" /><stop
         offset="0.903"
         style="stop-color:#A8856C"
         id="stop69" /></radialGradient><rect
       x="81.602997"
       y="312.418"
       width="79.728996"
       height="10.715"
       id="rect71"
       style="fill:url(#SVGID_3_)" /><g
       id="g73"><linearGradient
         id="SVGID_4_"
         gradientUnits="userSpaceOnUse"
         x1="124.2038"
         y1="294.5209"
         x2="124.2038"
         y2="311.46591"><stop
           offset="0"
           style="stop-color:#603A17"
           id="stop76" /><stop
           offset="0.3817"
           style="stop-color:#5E3917"
           id="stop78" /><stop
           offset="0.5758"
           style="stop-color:#583617"
           id="stop80" /><stop
           offset="0.7276"
           style="stop-color:#4F3118"
           id="stop82" /><stop
           offset="0.8567"
           style="stop-color:#422918"
           id="stop84" /><stop
           offset="0.903"
           style="stop-color:#3C2517"
           id="stop86" /></linearGradient><path
         d="m 139.261,307.946 -30.114,0 0,-7.439 c 0,0 24.909,0 27.464,0 1.49,0 2.649,0.877 2.649,2.509 0.001,1.987 0.001,4.93 0.001,4.93 z"
         id="path88"
         inkscape:connector-curvature="0"
         style="fill:url(#SVGID_4_)" /><linearGradient
         id="SVGID_5_"
         gradientUnits="userSpaceOnUse"
         x1="107.5957"
         y1="295.8602"
         x2="107.5957"
         y2="313.0723"><stop
           offset="0"
           style="stop-color:#3BB0AB"
           id="stop91" /><stop
           offset="0.3461"
           style="stop-color:#3DADA8"
           id="stop93" /><stop
           offset="0.4729"
           style="stop-color:#43A69F"
           id="stop95" /><stop
           offset="0.5637"
           style="stop-color:#4A9C93"
           id="stop97" /><stop
           offset="0.6373"
           style="stop-color:#508D82"
           id="stop99" /><stop
           offset="0.7004"
           style="stop-color:#547B6E"
           id="stop101" /><stop
           offset="0.7564"
           style="stop-color:#526457"
           id="stop103" /><stop
           offset="0.8071"
           style="stop-color:#4D4C3E"
           id="stop105" /><stop
           offset="0.8522"
           style="stop-color:#433325"
           id="stop107" /><stop
           offset="0.8727"
           style="stop-color:#3C2517"
           id="stop109" /></linearGradient><path
         d="m 112.441,307.946 -9.692,0 0,-10.836 c 0,-1.26 1.021,-2.28 2.28,-2.28 l 5.131,0 c 1.259,0 2.28,1.021 2.28,2.28 l 0,10.836 z"
         id="path111"
         inkscape:connector-curvature="0"
         style="fill:url(#SVGID_5_)" /><g
         id="g113"><path
           d="m 107.006,305.954 0,-4.173 -1.181,1.026 0,-1.36 1.181,-1.026 1.274,0 0,5.532 -1.274,0 z"
           id="path115"
           inkscape:connector-curvature="0"
           style="fill:#f7eddb" /><path
           d="m 109.888,305.954 0,-1.399 1.399,0 0,1.399 -1.399,0 z"
           id="path117"
           inkscape:connector-curvature="0"
           style="fill:#f7eddb" /><path
           d="m 116.127,304.661 -0.661,0 0,1.293 -0.67,0 0,-3.434 1.331,0 c 0.709,0 1.133,0.487 1.133,1.071 0,0.584 -0.424,1.07 -1.133,1.07 z m -0.034,-1.543 -0.627,0 0,0.94 0.627,0 c 0.304,0 0.497,-0.188 0.497,-0.468 0,-0.28 -0.193,-0.472 -0.497,-0.472 z"
           id="path119"
           inkscape:connector-curvature="0"
           style="fill:#f7eddb" /><path
           d="m 119.902,305.606 c -0.241,0.241 -0.535,0.376 -0.926,0.376 -0.391,0 -0.69,-0.135 -0.931,-0.376 -0.347,-0.347 -0.338,-0.776 -0.338,-1.37 0,-0.593 -0.01,-1.022 0.338,-1.37 0.241,-0.241 0.54,-0.376 0.931,-0.376 0.391,0 0.685,0.135 0.926,0.376 0.347,0.347 0.342,0.776 0.342,1.37 0.001,0.594 0.005,1.023 -0.342,1.37 z m -0.497,-2.334 c -0.097,-0.111 -0.246,-0.183 -0.429,-0.183 -0.183,0 -0.338,0.072 -0.434,0.183 -0.13,0.145 -0.164,0.304 -0.164,0.965 0,0.661 0.034,0.82 0.164,0.965 0.097,0.111 0.251,0.183 0.434,0.183 0.183,0 0.333,-0.072 0.429,-0.183 0.13,-0.145 0.169,-0.304 0.169,-0.965 0,-0.661 -0.039,-0.82 -0.169,-0.965 z"
           id="path121"
           inkscape:connector-curvature="0"
           style="fill:#f7eddb" /><path
           d="m 121.874,305.983 c -0.521,0 -0.916,-0.111 -1.254,-0.453 l 0.434,-0.434 c 0.217,0.217 0.511,0.289 0.83,0.289 0.396,0 0.608,-0.149 0.608,-0.424 0,-0.121 -0.034,-0.222 -0.106,-0.289 -0.067,-0.063 -0.145,-0.097 -0.304,-0.121 l -0.415,-0.058 c -0.294,-0.043 -0.511,-0.135 -0.666,-0.284 -0.164,-0.164 -0.246,-0.386 -0.246,-0.675 0,-0.612 0.453,-1.042 1.196,-1.042 0.473,0 0.815,0.116 1.109,0.4 l -0.424,0.42 c -0.217,-0.207 -0.477,-0.236 -0.704,-0.236 -0.357,0 -0.531,0.198 -0.531,0.434 0,0.087 0.029,0.178 0.101,0.246 0.067,0.063 0.178,0.116 0.318,0.135 l 0.405,0.058 c 0.314,0.043 0.511,0.13 0.656,0.265 0.183,0.174 0.265,0.425 0.265,0.728 0.001,0.664 -0.554,1.041 -1.272,1.041 z"
           id="path123"
           inkscape:connector-curvature="0"
           style="fill:#f7eddb" /><path
           d="m 123.778,305.954 0,-3.434 0.67,0 0,3.434 -0.67,0 z"
           id="path125"
           inkscape:connector-curvature="0"
           style="fill:#f7eddb" /><path
           d="m 126.56,303.118 0,2.836 -0.67,0 0,-2.836 -0.897,0 0,-0.598 2.465,0 0,0.598 -0.898,0 z"
           id="path127"
           inkscape:connector-curvature="0"
           style="fill:#f7eddb" /><path
           d="m 128.002,305.954 0,-3.434 0.67,0 0,3.434 -0.67,0 z"
           id="path129"
           inkscape:connector-curvature="0"
           style="fill:#f7eddb" /><path
           d="m 131.551,305.606 c -0.241,0.241 -0.535,0.376 -0.926,0.376 -0.391,0 -0.69,-0.135 -0.931,-0.376 -0.347,-0.347 -0.337,-0.776 -0.337,-1.37 0,-0.593 -0.01,-1.022 0.337,-1.37 0.241,-0.241 0.54,-0.376 0.931,-0.376 0.391,0 0.685,0.135 0.926,0.376 0.347,0.347 0.342,0.776 0.342,1.37 0.001,0.594 0.005,1.023 -0.342,1.37 z m -0.496,-2.334 c -0.097,-0.111 -0.246,-0.183 -0.429,-0.183 -0.183,0 -0.338,0.072 -0.434,0.183 -0.13,0.145 -0.164,0.304 -0.164,0.965 0,0.661 0.034,0.82 0.164,0.965 0.096,0.111 0.251,0.183 0.434,0.183 0.183,0 0.333,-0.072 0.429,-0.183 0.13,-0.145 0.169,-0.304 0.169,-0.965 -10e-4,-0.661 -0.039,-0.82 -0.169,-0.965 z"
           id="path131"
           inkscape:connector-curvature="0"
           style="fill:#f7eddb" /><path
           d="m 134.608,305.954 -1.36,-2.108 0,2.108 -0.67,0 0,-3.434 0.598,0 1.36,2.103 0,-2.103 0.67,0 0,3.434 -0.598,0 z"
           id="path133"
           inkscape:connector-curvature="0"
           style="fill:#f7eddb" /></g><polygon
         points="107.596,298.606 109.976,294.83 105.215,294.83 "
         id="polygon135"
         style="fill:#603a17" /></g><g
       id="g137"><linearGradient
         id="SVGID_6_"
         gradientUnits="userSpaceOnUse"
         x1="132.9767"
         y1="314.61151"
         x2="132.9767"
         y2="324.52289"><stop
           offset="0"
           style="stop-color:#EE5D23"
           id="stop140" /><stop
           offset="0.3483"
           style="stop-color:#E85B23"
           id="stop142" /><stop
           offset="0.5255"
           style="stop-color:#DC5424"
           id="stop144" /><stop
           offset="0.664"
           style="stop-color:#CA4B24"
           id="stop146" /><stop
           offset="0.7825"
           style="stop-color:#B23D23"
           id="stop148" /><stop
           offset="0.8872"
           style="stop-color:#962D20"
           id="stop150" /><stop
           offset="0.903"
           style="stop-color:#912B20"
           id="stop152" /></linearGradient><path
         d="m 148.033,323.133 -30.113,0 0,-7.439 c 0,0 24.909,0 27.464,0 1.49,0 2.649,0.877 2.649,2.509 0,1.987 0,4.93 0,4.93 z"
         id="path154"
         inkscape:connector-curvature="0"
         style="fill:url(#SVGID_6_)" /><linearGradient
         id="SVGID_7_"
         gradientUnits="userSpaceOnUse"
         x1="116.3685"
         y1="311.04709"
         x2="116.3685"
         y2="328.25919"><stop
           offset="0"
           style="stop-color:#3BB0AB"
           id="stop157" /><stop
           offset="0.3461"
           style="stop-color:#3DADA8"
           id="stop159" /><stop
           offset="0.4729"
           style="stop-color:#43A69F"
           id="stop161" /><stop
           offset="0.5637"
           style="stop-color:#4A9C93"
           id="stop163" /><stop
           offset="0.6373"
           style="stop-color:#508D82"
           id="stop165" /><stop
           offset="0.7004"
           style="stop-color:#547B6E"
           id="stop167" /><stop
           offset="0.7564"
           style="stop-color:#526457"
           id="stop169" /><stop
           offset="0.8071"
           style="stop-color:#4D4C3E"
           id="stop171" /><stop
           offset="0.8522"
           style="stop-color:#433325"
           id="stop173" /><stop
           offset="0.8727"
           style="stop-color:#3C2517"
           id="stop175" /></linearGradient><path
         d="m 121.214,323.133 -9.692,0 0,-10.835 c 0,-1.26 1.021,-2.28 2.28,-2.28 l 5.131,0 c 1.259,0 2.28,1.021 2.28,2.28 l 0,10.835 z"
         id="path177"
         inkscape:connector-curvature="0"
         style="fill:url(#SVGID_7_)" /><g
         id="g179"><path
           d="m 114.311,321.14 0,-1.15 2.005,-2.176 c 0.202,-0.218 0.28,-0.357 0.28,-0.59 0,-0.303 -0.171,-0.513 -0.497,-0.513 -0.233,0 -0.513,0.109 -0.513,0.536 l -1.274,0 c 0,-1.088 0.824,-1.686 1.787,-1.686 1.026,0 1.772,0.629 1.772,1.671 0,0.583 -0.241,0.894 -0.684,1.36 l -1.321,1.399 2.005,0 0,1.15 -3.56,0 z"
           id="path181"
           inkscape:connector-curvature="0"
           style="fill:#f7eddb" /><path
           d="m 118.661,321.14 0,-1.399 1.399,0 0,1.399 -1.399,0 z"
           id="path183"
           inkscape:connector-curvature="0"
           style="fill:#f7eddb" /><path
           d="m 124.899,319.848 -0.661,0 0,1.293 -0.67,0 0,-3.434 1.331,0 c 0.709,0 1.133,0.487 1.133,1.071 0,0.584 -0.424,1.07 -1.133,1.07 z m -0.033,-1.544 -0.627,0 0,0.94 0.627,0 c 0.304,0 0.497,-0.188 0.497,-0.468 -0.001,-0.279 -0.194,-0.472 -0.497,-0.472 z"
           id="path185"
           inkscape:connector-curvature="0"
           style="fill:#f7eddb" /><path
           d="m 128.675,320.793 c -0.241,0.241 -0.535,0.376 -0.926,0.376 -0.391,0 -0.69,-0.135 -0.931,-0.376 -0.347,-0.347 -0.338,-0.776 -0.338,-1.37 0,-0.593 -0.01,-1.022 0.338,-1.37 0.241,-0.241 0.54,-0.376 0.931,-0.376 0.391,0 0.685,0.135 0.926,0.376 0.347,0.347 0.342,0.776 0.342,1.37 0,0.594 0.005,1.023 -0.342,1.37 z m -0.497,-2.334 c -0.097,-0.111 -0.246,-0.183 -0.429,-0.183 -0.183,0 -0.338,0.072 -0.434,0.183 -0.13,0.145 -0.164,0.304 -0.164,0.965 0,0.661 0.034,0.82 0.164,0.965 0.097,0.111 0.251,0.183 0.434,0.183 0.183,0 0.333,-0.072 0.429,-0.183 0.13,-0.145 0.169,-0.304 0.169,-0.965 0,-0.661 -0.039,-0.821 -0.169,-0.965 z"
           id="path187"
           inkscape:connector-curvature="0"
           style="fill:#f7eddb" /><path
           d="m 130.647,321.169 c -0.521,0 -0.916,-0.111 -1.254,-0.453 l 0.434,-0.434 c 0.217,0.217 0.511,0.289 0.83,0.289 0.396,0 0.608,-0.149 0.608,-0.424 0,-0.121 -0.034,-0.222 -0.106,-0.289 -0.067,-0.063 -0.145,-0.097 -0.304,-0.121 l -0.415,-0.058 c -0.294,-0.043 -0.511,-0.135 -0.666,-0.284 -0.164,-0.164 -0.246,-0.386 -0.246,-0.675 0,-0.612 0.453,-1.042 1.196,-1.042 0.473,0 0.815,0.116 1.109,0.4 l -0.424,0.42 c -0.217,-0.207 -0.477,-0.236 -0.704,-0.236 -0.357,0 -0.531,0.198 -0.531,0.434 0,0.087 0.029,0.178 0.101,0.246 0.068,0.063 0.178,0.116 0.318,0.135 l 0.405,0.058 c 0.314,0.043 0.511,0.13 0.656,0.265 0.183,0.174 0.265,0.425 0.265,0.728 10e-4,0.665 -0.554,1.041 -1.272,1.041 z"
           id="path189"
           inkscape:connector-curvature="0"
           style="fill:#f7eddb" /><path
           d="m 132.551,321.14 0,-3.434 0.67,0 0,3.434 -0.67,0 z"
           id="path191"
           inkscape:connector-curvature="0"
           style="fill:#f7eddb" /><path
           d="m 135.333,318.304 0,2.836 -0.67,0 0,-2.836 -0.897,0 0,-0.598 2.465,0 0,0.598 -0.898,0 z"
           id="path193"
           inkscape:connector-curvature="0"
           style="fill:#f7eddb" /><path
           d="m 136.775,321.14 0,-3.434 0.67,0 0,3.434 -0.67,0 z"
           id="path195"
           inkscape:connector-curvature="0"
           style="fill:#f7eddb" /><path
           d="m 140.324,320.793 c -0.241,0.241 -0.535,0.376 -0.926,0.376 -0.391,0 -0.69,-0.135 -0.931,-0.376 -0.347,-0.347 -0.337,-0.776 -0.337,-1.37 0,-0.593 -0.01,-1.022 0.337,-1.37 0.241,-0.241 0.54,-0.376 0.931,-0.376 0.391,0 0.685,0.135 0.926,0.376 0.347,0.347 0.342,0.776 0.342,1.37 0.001,0.594 0.005,1.023 -0.342,1.37 z m -0.497,-2.334 c -0.097,-0.111 -0.246,-0.183 -0.429,-0.183 -0.183,0 -0.338,0.072 -0.434,0.183 -0.13,0.145 -0.164,0.304 -0.164,0.965 0,0.661 0.034,0.82 0.164,0.965 0.096,0.111 0.251,0.183 0.434,0.183 0.183,0 0.333,-0.072 0.429,-0.183 0.13,-0.145 0.169,-0.304 0.169,-0.965 0,-0.661 -0.038,-0.821 -0.169,-0.965 z"
           id="path197"
           inkscape:connector-curvature="0"
           style="fill:#f7eddb" /><path
           d="m 143.381,321.14 -1.36,-2.108 0,2.108 -0.67,0 0,-3.434 0.598,0 1.36,2.103 0,-2.103 0.67,0 0,3.434 -0.598,0 z"
           id="path199"
           inkscape:connector-curvature="0"
           style="fill:#f7eddb" /></g><polygon
         points="116.369,313.793 118.749,310.017 113.988,310.017 "
         id="polygon201"
         style="fill:#ee5d23" /></g><g
       id="g203"><linearGradient
         id="SVGID_8_"
         gradientUnits="userSpaceOnUse"
         x1="141.7494"
         y1="328.7193"
         x2="141.7494"
         y2="340.50601"><stop
           offset="0"
           style="stop-color:#F5A61C"
           id="stop206" /><stop
           offset="0.3851"
           style="stop-color:#F2A31E"
           id="stop208" /><stop
           offset="0.5557"
           style="stop-color:#E89A21"
           id="stop210" /><stop
           offset="0.6839"
           style="stop-color:#DA8D25"
           id="stop212" /><stop
           offset="0.7909"
           style="stop-color:#C77B28"
           id="stop214" /><stop
           offset="0.8838"
           style="stop-color:#B1672A"
           id="stop216" /><stop
           offset="0.9152"
           style="stop-color:#A95F2B"
           id="stop218" /></linearGradient><path
         d="m 156.806,338.318 -30.114,0 0,-7.439 c 0,0 24.909,0 27.464,0 1.49,0 2.649,0.877 2.649,2.509 0.001,1.987 0.001,4.93 0.001,4.93 z"
         id="path220"
         inkscape:connector-curvature="0"
         style="fill:url(#SVGID_8_)" /><linearGradient
         id="SVGID_9_"
         gradientUnits="userSpaceOnUse"
         x1="125.1413"
         y1="326.2323"
         x2="125.1413"
         y2="343.4444"><stop
           offset="0"
           style="stop-color:#3BB0AB"
           id="stop223" /><stop
           offset="0.3461"
           style="stop-color:#3DADA8"
           id="stop225" /><stop
           offset="0.4729"
           style="stop-color:#43A69F"
           id="stop227" /><stop
           offset="0.5637"
           style="stop-color:#4A9C93"
           id="stop229" /><stop
           offset="0.6373"
           style="stop-color:#508D82"
           id="stop231" /><stop
           offset="0.7004"
           style="stop-color:#547B6E"
           id="stop233" /><stop
           offset="0.7564"
           style="stop-color:#526457"
           id="stop235" /><stop
           offset="0.8071"
           style="stop-color:#4D4C3E"
           id="stop237" /><stop
           offset="0.8522"
           style="stop-color:#433325"
           id="stop239" /><stop
           offset="0.8727"
           style="stop-color:#3C2517"
           id="stop241" /></linearGradient><path
         d="m 129.987,338.318 -9.692,0 0,-10.835 c 0,-1.26 1.021,-2.28 2.28,-2.28 l 5.131,0 c 1.26,0 2.28,1.021 2.28,2.28 l 0,10.835 z"
         id="path243"
         inkscape:connector-curvature="0"
         style="fill:url(#SVGID_9_)" /><g
         id="g245"><path
           d="m 124.839,336.372 c -0.917,0 -1.841,-0.489 -1.841,-1.733 l 1.274,0 c 0,0.389 0.249,0.583 0.567,0.583 0.334,0 0.567,-0.194 0.567,-0.59 0,-0.334 -0.249,-0.583 -0.591,-0.583 l -0.179,0 0,-1.103 0.179,0 c 0.381,0 0.528,-0.272 0.528,-0.521 0,-0.35 -0.241,-0.528 -0.505,-0.528 -0.264,0 -0.505,0.186 -0.505,0.521 l -1.274,0 c 0,-1.041 0.793,-1.671 1.779,-1.671 1.026,0 1.779,0.684 1.779,1.64 0,0.606 -0.295,0.901 -0.575,1.08 0.303,0.21 0.637,0.544 0.637,1.204 0.002,1.157 -0.868,1.701 -1.84,1.701 z"
           id="path247"
           inkscape:connector-curvature="0"
           style="fill:#f7eddb" /><path
           d="m 127.434,336.326 0,-1.399 1.399,0 0,1.399 -1.399,0 z"
           id="path249"
           inkscape:connector-curvature="0"
           style="fill:#f7eddb" /><path
           d="m 133.672,335.033 -0.661,0 0,1.293 -0.67,0 0,-3.434 1.331,0 c 0.709,0 1.133,0.487 1.133,1.071 0,0.584 -0.424,1.07 -1.133,1.07 z m -0.034,-1.543 -0.627,0 0,0.94 0.627,0 c 0.304,0 0.497,-0.188 0.497,-0.468 0,-0.28 -0.193,-0.472 -0.497,-0.472 z"
           id="path251"
           inkscape:connector-curvature="0"
           style="fill:#f7eddb" /><path
           d="m 137.448,335.978 c -0.241,0.241 -0.535,0.376 -0.926,0.376 -0.391,0 -0.69,-0.135 -0.931,-0.376 -0.347,-0.347 -0.338,-0.776 -0.338,-1.37 0,-0.594 -0.01,-1.022 0.338,-1.37 0.241,-0.241 0.54,-0.376 0.931,-0.376 0.391,0 0.685,0.135 0.926,0.376 0.347,0.347 0.342,0.776 0.342,1.37 0,0.594 0.005,1.023 -0.342,1.37 z m -0.497,-2.334 c -0.097,-0.111 -0.246,-0.183 -0.429,-0.183 -0.183,0 -0.338,0.072 -0.434,0.183 -0.13,0.145 -0.164,0.304 -0.164,0.964 0,0.661 0.034,0.82 0.164,0.965 0.097,0.111 0.251,0.183 0.434,0.183 0.183,0 0.333,-0.072 0.429,-0.183 0.13,-0.145 0.169,-0.304 0.169,-0.965 0,-0.66 -0.039,-0.819 -0.169,-0.964 z"
           id="path253"
           inkscape:connector-curvature="0"
           style="fill:#f7eddb" /><path
           d="m 139.419,336.355 c -0.521,0 -0.916,-0.111 -1.254,-0.453 l 0.434,-0.434 c 0.217,0.217 0.511,0.289 0.83,0.289 0.396,0 0.608,-0.149 0.608,-0.424 0,-0.121 -0.034,-0.222 -0.106,-0.289 -0.067,-0.063 -0.145,-0.097 -0.304,-0.121 l -0.415,-0.058 c -0.294,-0.043 -0.511,-0.135 -0.666,-0.284 -0.164,-0.164 -0.246,-0.386 -0.246,-0.675 0,-0.612 0.453,-1.042 1.196,-1.042 0.473,0 0.815,0.116 1.109,0.4 l -0.424,0.42 c -0.217,-0.207 -0.477,-0.236 -0.704,-0.236 -0.357,0 -0.531,0.198 -0.531,0.434 0,0.087 0.029,0.178 0.101,0.246 0.068,0.063 0.178,0.116 0.318,0.135 l 0.405,0.058 c 0.314,0.043 0.511,0.13 0.656,0.265 0.183,0.174 0.265,0.425 0.265,0.728 0.002,0.664 -0.553,1.041 -1.272,1.041 z"
           id="path255"
           inkscape:connector-curvature="0"
           style="fill:#f7eddb" /><path
           d="m 141.324,336.326 0,-3.434 0.67,0 0,3.434 -0.67,0 z"
           id="path257"
           inkscape:connector-curvature="0"
           style="fill:#f7eddb" /><path
           d="m 144.106,333.49 0,2.836 -0.67,0 0,-2.836 -0.897,0 0,-0.598 2.465,0 0,0.598 -0.898,0 z"
           id="path259"
           inkscape:connector-curvature="0"
           style="fill:#f7eddb" /><path
           d="m 145.547,336.326 0,-3.434 0.67,0 0,3.434 -0.67,0 z"
           id="path261"
           inkscape:connector-curvature="0"
           style="fill:#f7eddb" /><path
           d="m 149.097,335.978 c -0.241,0.241 -0.535,0.376 -0.926,0.376 -0.391,0 -0.69,-0.135 -0.931,-0.376 -0.347,-0.347 -0.337,-0.776 -0.337,-1.37 0,-0.594 -0.01,-1.022 0.337,-1.37 0.241,-0.241 0.54,-0.376 0.931,-0.376 0.391,0 0.685,0.135 0.926,0.376 0.347,0.347 0.342,0.776 0.342,1.37 0,0.594 0.005,1.023 -0.342,1.37 z m -0.497,-2.334 c -0.097,-0.111 -0.246,-0.183 -0.429,-0.183 -0.183,0 -0.338,0.072 -0.434,0.183 -0.13,0.145 -0.164,0.304 -0.164,0.964 0,0.661 0.034,0.82 0.164,0.965 0.096,0.111 0.251,0.183 0.434,0.183 0.183,0 0.333,-0.072 0.429,-0.183 0.13,-0.145 0.169,-0.304 0.169,-0.965 0,-0.66 -0.039,-0.819 -0.169,-0.964 z"
           id="path263"
           inkscape:connector-curvature="0"
           style="fill:#f7eddb" /><path
           d="m 152.154,336.326 -1.36,-2.108 0,2.108 -0.67,0 0,-3.434 0.598,0 1.36,2.103 0,-2.103 0.67,0 0,3.434 -0.598,0 z"
           id="path265"
           inkscape:connector-curvature="0"
           style="fill:#f7eddb" /></g><polygon
         points="125.141,328.978 127.522,325.202 122.761,325.202 "
         id="polygon267"
         style="fill:#f5a61c" /></g></g></svg>