<svg xmlns="http://www.w3.org/2000/svg" width="250" height="250" viewBox="0 0 249.99999 250" enable-background="new 0 0 595.28 841.89"><g transform="translate(-21.404 -174.512)"><g><g><path d="M161.332 307.946V297.23c8.56 0 15.523-6.963 15.523-15.523 0-8.56-6.964-15.523-15.523-15.523-8.56 0-15.524 6.964-15.524 15.523h-10.715c0-14.468 11.77-26.238 26.24-26.238 14.467 0 26.237 11.77 26.237 26.237 0 14.468-11.77 26.24-26.238 26.24z" fill="#f5a61c"/></g><path fill="#f5a61c" d="M140.448 288.09l7.328-7.328H133.12z"/></g><g><g><path d="M161.332 323.133v-10.715c16.934 0 30.71-13.777 30.71-30.71 0-16.934-13.777-30.71-30.71-30.71-16.934 0-30.712 13.777-30.712 30.71h-10.715c0-22.842 18.584-41.425 41.426-41.425 22.843 0 41.426 18.583 41.426 41.425.002 22.84-18.582 41.425-41.424 41.425z" fill="#ee5d23"/></g><path fill="#ee5d23" d="M125.28 288.123l7.327-7.328h-14.655z"/></g><g><g><path d="M161.333 338.318v-10.715c25.307 0 45.896-20.59 45.896-45.896 0-25.307-20.59-45.896-45.897-45.896-25.308 0-45.898 20.59-45.898 45.897H104.72c0-15.122 5.888-29.34 16.58-40.03 10.693-10.692 24.91-16.58 40.033-16.58 15.123 0 29.34 5.887 40.03 16.58 10.692 10.69 16.58 24.907 16.58 40.03 0 15.123-5.887 29.34-16.58 40.03-10.69 10.693-24.907 16.58-40.03 16.58z" fill="#603a17"/></g><path fill="#603a17" d="M110.078 288.123l7.328-7.328H102.75z"/></g><radialGradient id="a" cx="161.618" cy="282.467" r="117.097" gradientUnits="userSpaceOnUse"><stop offset="0" stop-color="#DBCDAD"/><stop offset=".187" stop-color="#D7C7A8"/><stop offset=".414" stop-color="#CBB799"/><stop offset=".66" stop-color="#BBA083"/><stop offset=".903" stop-color="#A8856C"/></radialGradient><path fill="url(#a)" d="M81.603 297.23h79.73v10.716h-79.73z"/><radialGradient id="b" cx="161.618" cy="312.839" r="117.097" gradientUnits="userSpaceOnUse"><stop offset="0" stop-color="#DBCDAD"/><stop offset=".187" stop-color="#D7C7A8"/><stop offset=".414" stop-color="#CBB799"/><stop offset=".66" stop-color="#BBA083"/><stop offset=".903" stop-color="#A8856C"/></radialGradient><path fill="url(#b)" d="M81.603 327.603h79.73v10.715h-79.73z"/><radialGradient id="c" cx="161.618" cy="297.654" r="117.097" gradientUnits="userSpaceOnUse"><stop offset="0" stop-color="#DBCDAD"/><stop offset=".187" stop-color="#D7C7A8"/><stop offset=".414" stop-color="#CBB799"/><stop offset=".66" stop-color="#BBA083"/><stop offset=".903" stop-color="#A8856C"/></radialGradient><path fill="url(#c)" d="M81.603 312.418h79.73v10.715h-79.73z"/><g><linearGradient id="d" gradientUnits="userSpaceOnUse" x1="124.204" y1="294.521" x2="124.204" y2="311.466"><stop offset="0" stop-color="#603A17"/><stop offset=".382" stop-color="#5E3917"/><stop offset=".576" stop-color="#583617"/><stop offset=".728" stop-color="#4F3118"/><stop offset=".857" stop-color="#422918"/><stop offset=".903" stop-color="#3C2517"/></linearGradient><path d="M139.26 307.946h-30.113v-7.44h27.464c1.49 0 2.65.878 2.65 2.51v4.93z" fill="url(#d)"/><linearGradient id="e" gradientUnits="userSpaceOnUse" x1="107.596" y1="295.86" x2="107.596" y2="313.072"><stop offset="0" stop-color="#3BB0AB"/><stop offset=".346" stop-color="#3DADA8"/><stop offset=".473" stop-color="#43A69F"/><stop offset=".564" stop-color="#4A9C93"/><stop offset=".637" stop-color="#508D82"/><stop offset=".7" stop-color="#547B6E"/><stop offset=".756" stop-color="#526457"/><stop offset=".807" stop-color="#4D4C3E"/><stop offset=".852" stop-color="#433325"/><stop offset=".873" stop-color="#3C2517"/></linearGradient><path d="M112.44 307.946h-9.69V297.11c0-1.26 1.02-2.28 2.28-2.28h5.13c1.26 0 2.28 1.02 2.28 2.28v10.836z" fill="url(#e)"/><g fill="#f7eddb"><path d="M107.006 305.954v-4.173l-1.18 1.027v-1.36l1.18-1.026h1.274v5.533h-1.274z"/><path d="M109.888 305.954v-1.4h1.4v1.4h-1.4z"/><path d="M116.127 304.66h-.66v1.294h-.67v-3.434h1.33c.71 0 1.133.487 1.133 1.07 0 .585-.424 1.07-1.133 1.07zm-.034-1.542h-.627v.94h.627c.304 0 .497-.188.497-.468s-.193-.472-.497-.472z"/><path d="M119.902 305.606c-.24.24-.535.376-.926.376-.39 0-.69-.135-.93-.376-.348-.347-.34-.776-.34-1.37 0-.593-.01-1.022.34-1.37.24-.24.54-.376.93-.376s.685.135.926.376c.347.347.342.776.342 1.37 0 .594.005 1.023-.342 1.37zm-.497-2.334c-.097-.11-.246-.183-.43-.183-.182 0-.337.07-.433.182-.13.145-.164.304-.164.965 0 .66.034.82.164.965.097.11.25.183.434.183.183 0 .333-.072.43-.183.13-.145.168-.304.168-.965 0-.66-.04-.82-.17-.965z"/><path d="M121.874 305.983c-.52 0-.916-.11-1.254-.453l.434-.434c.217.217.51.29.83.29.396 0 .608-.15.608-.425 0-.12-.034-.22-.106-.288-.067-.063-.145-.097-.304-.12l-.415-.06c-.294-.042-.51-.134-.666-.283-.163-.165-.245-.387-.245-.676 0-.612.453-1.042 1.196-1.042.474 0 .816.116 1.11.4l-.424.42c-.217-.207-.477-.236-.704-.236-.357 0-.53.198-.53.434 0 .087.028.178.1.246.067.063.178.116.318.135l.405.06c.314.042.51.13.656.264.184.174.266.425.266.728 0 .664-.554 1.04-1.272 1.04z"/><path d="M123.778 305.954v-3.434h.67v3.434h-.67z"/><path d="M126.56 303.118v2.836h-.67v-2.836h-.897v-.598h2.465v.598h-.898z"/><path d="M128.002 305.954v-3.434h.67v3.434h-.67z"/><path d="M131.55 305.606c-.24.24-.534.376-.925.376-.39 0-.69-.135-.93-.376-.348-.347-.338-.776-.338-1.37 0-.593-.01-1.022.337-1.37.24-.24.54-.376.93-.376.392 0 .686.135.927.376.348.347.343.776.343 1.37 0 .594.005 1.023-.342 1.37zm-.495-2.334c-.097-.11-.246-.183-.43-.183-.182 0-.337.07-.433.182-.13.145-.164.304-.164.965 0 .66.034.82.164.965.096.11.25.183.434.183.183 0 .333-.072.43-.183.13-.145.168-.304.168-.965 0-.66-.04-.82-.17-.965z"/><path d="M134.608 305.954l-1.36-2.108v2.108h-.67v-3.434h.598l1.36 2.103v-2.103h.67v3.434h-.598z"/></g><path fill="#603a17" d="M107.596 298.606l2.38-3.776h-4.76z"/></g><g><linearGradient id="f" gradientUnits="userSpaceOnUse" x1="132.977" y1="314.612" x2="132.977" y2="324.523"><stop offset="0" stop-color="#EE5D23"/><stop offset=".348" stop-color="#E85B23"/><stop offset=".525" stop-color="#DC5424"/><stop offset=".664" stop-color="#CA4B24"/><stop offset=".782" stop-color="#B23D23"/><stop offset=".887" stop-color="#962D20"/><stop offset=".903" stop-color="#912B20"/></linearGradient><path d="M148.033 323.133H117.92v-7.44h27.464c1.49 0 2.65.878 2.65 2.51v4.93z" fill="url(#f)"/><linearGradient id="g" gradientUnits="userSpaceOnUse" x1="116.368" y1="311.047" x2="116.368" y2="328.259"><stop offset="0" stop-color="#3BB0AB"/><stop offset=".346" stop-color="#3DADA8"/><stop offset=".473" stop-color="#43A69F"/><stop offset=".564" stop-color="#4A9C93"/><stop offset=".637" stop-color="#508D82"/><stop offset=".7" stop-color="#547B6E"/><stop offset=".756" stop-color="#526457"/><stop offset=".807" stop-color="#4D4C3E"/><stop offset=".852" stop-color="#433325"/><stop offset=".873" stop-color="#3C2517"/></linearGradient><path d="M121.214 323.133h-9.692v-10.835c0-1.26 1.02-2.28 2.28-2.28h5.13c1.26 0 2.28 1.02 2.28 2.28v10.835z" fill="url(#g)"/><g fill="#f7eddb"><path d="M114.31 321.14v-1.15l2.006-2.176c.202-.218.28-.357.28-.59 0-.303-.17-.513-.497-.513-.234 0-.514.11-.514.537h-1.274c0-1.088.824-1.686 1.787-1.686 1.025 0 1.77.63 1.77 1.672 0 .583-.24.894-.683 1.36l-1.32 1.4h2.004v1.15h-3.56z"/><path d="M118.66 321.14v-1.4h1.4v1.4h-1.4z"/><path d="M124.9 319.848h-.662v1.293h-.67v-3.433h1.33c.71 0 1.134.487 1.134 1.07 0 .585-.424 1.07-1.133 1.07zm-.034-1.544h-.627v.94h.626c.304 0 .497-.188.497-.468s-.194-.472-.497-.472z"/><path d="M128.675 320.793c-.24.24-.535.376-.926.376-.392 0-.69-.136-.932-.377-.347-.347-.338-.776-.338-1.37 0-.593-.01-1.022.338-1.37.24-.24.54-.376.93-.376.392 0 .686.135.927.376.347.347.342.776.342 1.37 0 .594.005 1.023-.342 1.37zm-.497-2.334c-.097-.112-.246-.184-.43-.184-.182 0-.337.072-.433.183-.13.144-.164.303-.164.964 0 .66.035.82.165.965.097.11.25.182.434.182.182 0 .332-.072.428-.183.13-.146.17-.305.17-.966 0-.66-.04-.82-.17-.965z"/><path d="M130.647 321.17c-.52 0-.916-.112-1.254-.454l.434-.434c.217.217.51.29.83.29.396 0 .608-.15.608-.425 0-.12-.034-.222-.106-.29-.068-.062-.146-.096-.305-.12l-.415-.058c-.294-.044-.51-.136-.666-.285-.164-.164-.246-.386-.246-.675 0-.612.453-1.042 1.196-1.042.473 0 .815.116 1.11.4l-.425.42c-.218-.207-.478-.236-.705-.236-.357 0-.53.198-.53.434 0 .087.028.178.1.246.068.063.178.116.318.135l.405.058c.314.043.51.13.656.265.183.174.265.425.265.728 0 .665-.555 1.04-1.273 1.04z"/><path d="M132.55 321.14v-3.434h.67v3.434h-.67z"/><path d="M135.333 318.304v2.836h-.67v-2.836h-.897v-.598h2.465v.598h-.897z"/><path d="M136.775 321.14v-3.434h.67v3.434h-.67z"/><path d="M140.324 320.793c-.24.24-.535.376-.926.376-.39 0-.69-.136-.93-.377-.348-.347-.338-.776-.338-1.37 0-.593-.01-1.022.337-1.37.24-.24.54-.376.93-.376.392 0 .686.135.927.376.347.347.342.776.342 1.37 0 .594.005 1.023-.342 1.37zm-.497-2.334c-.097-.112-.246-.184-.43-.184-.182 0-.337.072-.433.183-.13.144-.164.303-.164.964 0 .66.034.82.164.965.096.11.25.182.434.182.183 0 .333-.072.43-.183.13-.146.168-.305.168-.966 0-.66-.038-.82-.17-.965z"/><path d="M143.38 321.14l-1.36-2.108v2.108h-.67v-3.434h.6l1.36 2.103v-2.104h.67v3.434h-.6z"/></g><path fill="#ee5d23" d="M116.37 313.793l2.38-3.776h-4.762z"/></g><g><linearGradient id="h" gradientUnits="userSpaceOnUse" x1="141.749" y1="328.719" x2="141.749" y2="340.506"><stop offset="0" stop-color="#F5A61C"/><stop offset=".385" stop-color="#F2A31E"/><stop offset=".556" stop-color="#E89A21"/><stop offset=".684" stop-color="#DA8D25"/><stop offset=".791" stop-color="#C77B28"/><stop offset=".884" stop-color="#B1672A"/><stop offset=".915" stop-color="#A95F2B"/></linearGradient><path d="M156.806 338.318h-30.114v-7.44h27.464c1.49 0 2.65.878 2.65 2.51v4.93z" fill="url(#h)"/><linearGradient id="i" gradientUnits="userSpaceOnUse" x1="125.141" y1="326.232" x2="125.141" y2="343.444"><stop offset="0" stop-color="#3BB0AB"/><stop offset=".346" stop-color="#3DADA8"/><stop offset=".473" stop-color="#43A69F"/><stop offset=".564" stop-color="#4A9C93"/><stop offset=".637" stop-color="#508D82"/><stop offset=".7" stop-color="#547B6E"/><stop offset=".756" stop-color="#526457"/><stop offset=".807" stop-color="#4D4C3E"/><stop offset=".852" stop-color="#433325"/><stop offset=".873" stop-color="#3C2517"/></linearGradient><path d="M129.987 338.318h-9.692v-10.835c0-1.26 1.02-2.28 2.28-2.28h5.13c1.26 0 2.28 1.02 2.28 2.28v10.835z" fill="url(#i)"/><g fill="#f7eddb"><path d="M124.84 336.372c-.918 0-1.842-.49-1.842-1.733h1.274c0 .388.25.582.567.582.333 0 .566-.194.566-.59 0-.334-.25-.583-.59-.583h-.18v-1.104h.18c.38 0 .527-.272.527-.52 0-.35-.24-.53-.505-.53-.264 0-.505.187-.505.522h-1.274c0-1.04.792-1.67 1.778-1.67 1.026 0 1.78.683 1.78 1.64 0 .605-.296.9-.576 1.08.303.21.637.543.637 1.203 0 1.158-.87 1.702-1.84 1.702z"/><path d="M127.434 336.326v-1.4h1.4v1.4h-1.4z"/><path d="M133.672 335.033h-.66v1.293h-.67v-3.434h1.33c.71 0 1.133.487 1.133 1.07 0 .585-.424 1.07-1.133 1.07zm-.034-1.543h-.627v.94h.628c.304 0 .497-.188.497-.468s-.193-.472-.497-.472z"/><path d="M137.448 335.978c-.24.24-.535.376-.926.376-.39 0-.69-.135-.93-.376-.348-.347-.34-.776-.34-1.37 0-.594-.01-1.022.34-1.37.24-.24.54-.376.93-.376s.685.135.926.376c.347.347.342.776.342 1.37 0 .594.005 1.023-.342 1.37zm-.497-2.334c-.096-.11-.245-.183-.428-.183s-.338.073-.434.184c-.13.145-.164.304-.164.964 0 .66.034.82.164.965.097.11.25.183.434.183.183 0 .333-.072.43-.183.13-.145.168-.304.168-.965 0-.66-.04-.82-.17-.964z"/><path d="M139.42 336.355c-.522 0-.917-.11-1.255-.453l.434-.434c.216.217.51.29.83.29.395 0 .607-.15.607-.425 0-.12-.034-.222-.106-.29-.066-.062-.144-.096-.303-.12l-.415-.058c-.294-.043-.51-.135-.666-.284-.164-.163-.246-.385-.246-.674 0-.612.453-1.042 1.196-1.042.473 0 .815.116 1.11.4l-.425.42c-.216-.207-.476-.236-.703-.236-.357 0-.53.198-.53.434 0 .087.028.178.1.246.068.063.178.116.318.135l.405.058c.314.044.51.13.656.266.183.174.265.425.265.728.003.664-.552 1.04-1.27 1.04z"/><path d="M141.324 336.326v-3.434h.67v3.434h-.67z"/><path d="M144.106 333.49v2.836h-.67v-2.836h-.897v-.598h2.464v.598h-.898z"/><path d="M145.547 336.326v-3.434h.67v3.434h-.67z"/><path d="M149.097 335.978c-.24.24-.535.376-.926.376-.39 0-.69-.135-.93-.376-.347-.347-.337-.776-.337-1.37 0-.594-.01-1.022.337-1.37.24-.24.54-.376.93-.376.392 0 .686.135.927.376.347.347.342.776.342 1.37 0 .594.004 1.023-.343 1.37zm-.497-2.334c-.097-.11-.246-.183-.43-.183-.182 0-.337.073-.433.184-.13.145-.164.304-.164.964 0 .66.034.82.164.965.096.11.25.183.434.183s.334-.072.43-.183c.13-.145.17-.304.17-.965 0-.66-.04-.82-.17-.964z"/><path d="M152.154 336.326l-1.36-2.108v2.108h-.67v-3.434h.598l1.36 2.103v-2.103h.67v3.434h-.598z"/></g><path fill="#f5a61c" d="M125.14 328.978l2.382-3.776h-4.76z"/></g></g></svg>