<svg xmlns="http://www.w3.org/2000/svg" xmlns:xlink="http://www.w3.org/1999/xlink" width="250" height="250" viewBox="0 0 249.99999 250" enable-background="new 0 0 595.28 841.89"><g><g transform="matrix(.803 0 0 .775 -18.225 -133.343)"><g><defs><path id="a" d="M226.64 322.622h63.244v33.182H226.64z"/></defs><clipPath id="b"><use xlink:href="#a" overflow="visible" width="100%" height="100%"/></clipPath><g clip-path="url(#b)"><path d="M250.358 352.335l-22.76-30.102 8.442-15.05 29.736 42.95-15.418 2.202z" fill="#6ec499"/><g><defs><path id="c" d="M250.358 352.335l-22.76-30.102 8.443-15.05 29.736 42.95-15.418 2.202z"/></defs><clipPath><use xlink:href="#c" overflow="visible" width="100%" height="100%"/></clipPath></g><path fill="#51ac83" d="M278.624 307.182l8.443 15.05-22.76 30.103-15.417-2.202z"/></g></g><circle cx="256.264" cy="366.146" r="20.68" fill="#e7af3a"/><circle cx="256.264" cy="366.146" r="17.789" fill="#fee582"/><path fill="#e7af3a" d="M252.747 362.447l3.517-7.125 3.517 7.125 7.864 1.144-5.69 5.547 1.344 7.832-7.034-3.7-7.034 3.7 1.344-7.833-5.69-5.546z"/></g><g><g><path fill="#e7af3a" d="M182.963 90.59h9.405v10.55h-9.405z"/><path fill="#fee582" d="M176.225 96.477h22.88v9.814h-22.88z"/><path fill="#fee582" d="M180.42 84.945h14.49v7.607h-14.49z"/><path fill="#e7af3a" d="M172.92 104.818h29.49v1.473h-29.49z"/></g><g transform="matrix(.803 0 0 .775 -18.225 -133.343)"><circle cx="256.136" cy="266.784" r="20.894" fill="#bc712d"/><g><defs><circle id="d" cx="256.361" cy="266.392" r="20.893"/></defs><clipPath><use xlink:href="#d" overflow="visible" width="100%" height="100%"/></clipPath></g></g><path d="M178.513 59.73c-.68.418-1.32.875-1.914 1.366-.62 1.176-.982 2.548-.855 4.06-1.084.347-2.19.725-3.305 1.134-.167.33-.322.666-.464 1.004 5.994-2.27 11.91-3.623 15.12-4.357.75-.172 1.35-.31 1.786-.42 1.225 1.1 3.255 2.97 4.695 5.597-2.923.1-10.655.59-16.66 2.454-2.505.778-4.717 1.8-6.186 3.14.006.352.025.706.054 1.06 1.313-1.49 3.66-2.616 6.378-3.46 6.19-1.923 14.256-2.363 16.805-2.43.613 1.29 1.07 2.75 1.23 4.368-2.482 1.23-9.874 4.35-16.082 5.722-2.916.644-5.55.908-7.23.4.12.295.247.587.386.876 1.83.344 4.325.077 7.023-.52 6.037-1.333 13.178-4.3 15.956-5.636.067 2.236-.442 4.762-1.864 7.576-1.317.35-4.195.996-7.415 1.72-3.278.736-6.908 1.55-9.596 2.21.247.214.5.42.76.617 1.087-.265 2.3-.55 3.563-.838.628 1.32 1.593 2.48 2.637 3.39.22.192.445.373.673.543.623.127 1.255.217 1.89.274-.655-.337-1.36-.81-2.03-1.395-.933-.813-1.795-1.834-2.375-2.995 1.226-.28 2.486-.563 3.715-.84 3.153 3.11 5.802 4.1 7.698 4.395.555-.188 1.106-.41 1.647-.66-1.642.01-4.606-.325-8.426-3.94l.027-.007c3.188-.716 6.046-1.358 7.394-1.714 2.332 2.28 4.124 2.795 5.527 2.603.408-.386.793-.792 1.153-1.21-.43.215-.914.38-1.47.414.595-1.133 1.064-2.26 1.42-3.372 1.72-5.345.864-10.34-.96-14.284-1.827-3.952-4.64-6.86-6.82-8.012l-.085-.044c.413-.107.835-.147 1.244-.144-.547-.21-1.103-.392-1.666-.545-1.387.427-2.676 1.52-3.237 3.943-.407.103-1.003.24-1.742.408-1.486.342-3.552.814-5.94 1.45 1.048-2.925 2.557-4.558 3.995-5.48.71-.453 1.404-.735 2.016-.914-.796.02-1.595.094-2.388.227-.02.012-.042.025-.062.04-1.644 1.05-3.37 2.942-4.485 6.376-1.12.306-2.3.648-3.516 1.027-.08-1.41.32-2.684.948-3.762.302-.52.656-.993 1.035-1.415zm10.917 2.218c.368-1.588 1.072-2.508 1.893-3.015.217.077.45.18.69.31 2.057 1.088 4.723 3.86 6.476 7.647 1.753 3.795 2.575 8.6.925 13.736-.375 1.168-.88 2.354-1.53 3.55-1.025-.183-2.252-.824-3.737-2.264 5.343-10.683-1.835-17.37-4.718-19.964z" clip-rule="evenodd" fill="#fee582" fill-rule="evenodd"/></g><g><g><path fill="#e7af3a" d="M121.375 149.24h9.465v13.16h-9.465z"/><path fill="#fee582" d="M114.597 157.707h23.022v9.876h-23.023z"/><path fill="#e7af3a" d="M111.27 166.102h29.675v1.48H111.27z"/></g><g><g><g transform="matrix(.803 0 0 .775 -18.225 -133.343)"><circle cx="179.741" cy="345.611" r="21.026" fill="#fee582"/></g></g><g transform="matrix(.803 0 0 .775 -18.225 -133.343)"><defs><circle id="e" cx="179.741" cy="345.612" r="21.026"/></defs><clipPath id="f"><use xlink:href="#e" overflow="visible" width="100%" height="100%"/></clipPath><ellipse transform="matrix(.914 -.405 .405 .914 -118.361 111.092)" clip-path="url(#f)" stroke-miterlimit="10" cx="203.281" cy="335.181" rx="18.256" ry="23.173" fill="none" stroke="#bc712d" stroke-width=".54"/><ellipse transform="matrix(.914 -.405 .405 .914 -130.849 93.808)" clip-path="url(#f)" stroke-miterlimit="10" cx="156.202" cy="356.043" rx="18.257" ry="23.172" fill="none" stroke="#bc712d" stroke-width=".54"/></g></g></g><g transform="matrix(.803 0 0 .775 -18.225 -133.343)"><path fill="#6ec499" d="M108.015 253.884v63.648l-9.59-3.805-9.09 3.805v-63.648l9.348-.063z"/><path fill="#e7af3a" d="M83.447 300.66l-3.732-2.535-.844-4.432-2.475-3.772.917-4.416-.846-4.433 2.538-3.73.916-4.417 3.772-2.475 2.535-3.733 4.433-.843 3.772-2.476 4.417.916 4.43-.844 3.732 2.537 4.418.916 2.475 3.772 3.732 2.536.843 4.433 2.477 3.773-.916 4.417.845 4.43-2.536 3.733-.918 4.417-3.772 2.477-2.536 3.73-4.433.845-3.77 2.476-4.417-.916-4.432.844-3.73-2.536-4.418-.917z"/><circle cx="98.676" cy="285.677" r="14.767" fill="#fee582"/><g><text transform="translate(89.107 292.044)" font-size="18.948" font-family="College" fill="#bc712d">#1</text></g></g><g><path fill="#e7af3a" d="M150.766 105.13V86.705h-16.863V73.194H117.04v7.676h-15.59v24.259z"/><g><text transform="matrix(.803 0 0 .775 104.449 77.307)" font-size="21.734" font-family="College" fill="#51ac83">2</text></g><g><text transform="matrix(.803 0 0 .775 121.313 69.937)" font-size="21.734" font-family="College" fill="#51ac83">1</text></g><g><text transform="matrix(.803 0 0 .775 137.539 82.22)" font-size="21.734" font-family="College" fill="#51ac83">3</text></g><path fill="#fee582" d="M123.1 94.016l1.893-3.703 1.895 3.703 4.232.593-3.062 2.882.722 4.068-3.787-1.92-3.787 1.92.724-4.068-3.063-2.883z"/></g><g><path d="M61.8 135.145c-3.375 9.086-5.498 18.227-5.498 18.227-1.29-4.688-4.51-11.906-5.43-13.93-.074.015-.154.02-.233.024.036 4.965-2.414 14.652-2.414 14.652-1.475-4.156-7.51-11.32-7.81-11.673-.002 0-.005.003-.01.003.756 4.413 1.386 20.925 1.386 20.925h20.062V135.15c-.018 0-.036-.004-.054-.005" fill="#fee582"/><path d="M62.582 135c.628-.27 1.07-.877 1.07-1.584 0-.958-.805-1.735-1.798-1.735s-1.798.78-1.798 1.736c0 .94.777 1.7 1.744 1.73l.053-.146h.73z" fill="#51ac83"/><path d="M61.854 135l-.054.145c.018 0 .036.005.054.005V135z" fill="#f26525"/><path d="M50.623 138.897s.092.198.25.547c.826-.16 1.446-.86 1.446-1.7 0-.958-.805-1.735-1.8-1.735-.992 0-1.796.776-1.796 1.733 0 .958.804 1.736 1.797 1.736.042 0 .08-.01.12-.013-.002-.198-.007-.388-.017-.57" fill="#51ac83"/><path d="M50.623 138.897c.01.182.015.372.016.57.078-.005.158-.01.233-.024-.158-.348-.25-.546-.25-.546" fill="#51ac83"/><path d="M40.417 142.445c.8-.176 1.398-.863 1.398-1.688 0-.957-.805-1.734-1.798-1.734s-1.798.777-1.798 1.734c0 .958.803 1.735 1.797 1.735.134 0 .264-.016.39-.044-.002-.006-.003-.014-.003-.02l.013.017" fill="#51ac83"/><path d="M40.404 142.428c0 .007 0 .015.003.02.004 0 .006-.002.01-.003l-.013-.017" fill="#f26525"/><path d="M75.482 154.118s-2.45-9.692-2.413-14.656c-.08-.007-.156-.013-.23-.03-.912 2.008-4.14 9.244-5.433 13.94 0 0-2.124-9.14-5.5-18.227-.018 0-.034.005-.053.005v28.224h20.062s.632-16.563 1.39-20.946c0 0-6.31 7.43-7.824 11.69" fill="#e7af3a"/><path d="M61.908 135.145c.238-.007.467-.057.674-.146h-.728c.02.048.036.097.054.145" fill="#f26525"/><path d="M61.854 135.15c.02 0 .036-.004.054-.005l-.054-.146v.15z" fill="#f26525"/><path d="M73.07 139.462c.054.004.107.016.163.016.993 0 1.798-.777 1.798-1.735 0-.958-.804-1.735-1.797-1.735-.993 0-1.797.777-1.797 1.735 0 .827.6 1.516 1.404 1.69.155-.342.245-.536.245-.536-.01.18-.014.37-.016.565" fill="#51ac83"/><path d="M73.084 138.897s-.09.194-.245.536c.074.016.15.022.23.03 0-.197.005-.387.014-.566" fill="#f26525"/><path d="M84.022 139.023c-.993 0-1.797.777-1.797 1.734 0 .958.804 1.735 1.797 1.735.993 0 1.798-.777 1.798-1.735 0-.957-.806-1.734-1.798-1.734" fill="#51ac83"/></g></g></svg>