<?xml version="1.0" encoding="UTF-8" standalone="no"?>
<!-- Generator: Adobe Illustrator 17.0.0, SVG Export Plug-In . SVG Version: 6.00 Build 0)  -->

<svg
   xmlns:dc="http://purl.org/dc/elements/1.1/"
   xmlns:cc="http://creativecommons.org/ns#"
   xmlns:rdf="http://www.w3.org/1999/02/22-rdf-syntax-ns#"
   xmlns:svg="http://www.w3.org/2000/svg"
   xmlns="http://www.w3.org/2000/svg"
   xmlns:xlink="http://www.w3.org/1999/xlink"
   xmlns:sodipodi="http://sodipodi.sourceforge.net/DTD/sodipodi-0.dtd"
   xmlns:inkscape="http://www.inkscape.org/namespaces/inkscape"
   version="1.1"
   x="0px"
   y="0px"
   width="250"
   height="250"
   viewBox="0 0 249.99999 250"
   enable-background="new 0 0 595.28 841.89"
   xml:space="preserve"
   id="svg2"
   inkscape:version="0.91pre3 r13670"
   sodipodi:docname="recompensas.svg"><metadata
     id="metadata158"><rdf:RDF><cc:Work
         rdf:about=""><dc:format>image/svg+xml</dc:format><dc:type
           rdf:resource="http://purl.org/dc/dcmitype/StillImage" /><dc:title></dc:title></cc:Work></rdf:RDF></metadata><defs
     id="defs156" /><sodipodi:namedview
     pagecolor="#ffffff"
     bordercolor="#666666"
     borderopacity="1"
     objecttolerance="10"
     gridtolerance="10"
     guidetolerance="10"
     inkscape:pageopacity="0"
     inkscape:pageshadow="2"
     inkscape:window-width="640"
     inkscape:window-height="480"
     id="namedview154"
     showgrid="false"
     inkscape:zoom="0.28032165"
     inkscape:cx="235.21173"
     inkscape:cy="420.94501"
     inkscape:window-x="0"
     inkscape:window-y="0"
     inkscape:window-maximized="0"
     inkscape:current-layer="svg2" /><g
     id="Capa_1"
     display="none"
     style="display:none"
     transform="translate(0,-591.89001)"><path
       display="inline"
       d="m 305.646,412.788 c 0,14.516 -12.294,26.283 -27.46,26.283 l -199.739,0 c -15.166,0 -27.46,-11.767 -27.46,-26.283 l 0,-188.894 c 0,-14.516 12.294,-26.283 27.46,-26.283 l 199.739,0 c 15.166,0 27.46,11.767 27.46,26.283 l 0,188.894 z"
       id="path5"
       inkscape:connector-curvature="0"
       style="clip-rule:evenodd;display:inline;fill:#80a5c6;fill-rule:evenodd" /><path
       display="inline"
       d="m 294.704,404.752 c 0,13.281 -11.238,24.047 -25.1,24.047 l -182.575,0 c -13.862,0 -25.1,-10.766 -25.1,-24.047 l 0,-172.822 c 0,-13.281 11.238,-24.047 25.1,-24.047 l 182.575,0 c 13.862,0 25.1,10.766 25.1,24.047 l 0,172.822 z"
       id="path7"
       inkscape:connector-curvature="0"
       style="clip-rule:evenodd;display:inline;fill:#cee8ef;fill-rule:evenodd" /></g><g
     id="Capa_2"
     transform="matrix(0.80252351,0,0,0.77453987,-18.224958,-133.34327)"><g
       id="g10"><g
         id="g12"><defs
           id="defs14"><rect
             id="SVGID_1_"
             x="226.64"
             y="322.62201"
             width="63.243999"
             height="33.181999" /></defs><clipPath
           id="SVGID_2_"><use
             xlink:href="#SVGID_1_"
             overflow="visible"
             id="use18"
             style="overflow:visible"
             x="0"
             y="0"
             width="100%"
             height="100%" /></clipPath><g
           clip-path="url(#SVGID_2_)"
           id="g20"><path
             d="m 250.358,352.335 -22.761,-30.102 8.443,-15.051 29.736,42.951 -15.418,2.202 z"
             id="path22"
             inkscape:connector-curvature="0"
             style="fill:#6ec499" /><g
             id="g24"><defs
               id="defs26"><path
                 id="SVGID_3_"
                 d="m 250.358,352.335 -22.76,-30.102 8.443,-15.051 29.735,42.951 -15.418,2.202 z"
                 inkscape:connector-curvature="0" /></defs><clipPath
               id="SVGID_4_"><use
                 xlink:href="#SVGID_3_"
                 overflow="visible"
                 id="use30"
                 style="overflow:visible"
                 x="0"
                 y="0"
                 width="100%"
                 height="100%" /></clipPath></g><polygon
             points="278.624,307.182 287.067,322.233 264.308,352.335 248.89,350.133 "
             id="polygon32"
             style="fill:#51ac83" /></g></g><circle
         cx="256.26401"
         cy="366.146"
         r="20.68"
         id="circle34"
         style="fill:#e7af3a" /><circle
         cx="256.26401"
         cy="366.146"
         r="17.789"
         id="circle36"
         style="fill:#fee582" /><polygon
         points="252.747,362.447 256.264,355.322 259.781,362.447 267.644,363.591 261.954,369.137 263.298,376.969 256.264,373.271 249.23,376.969 250.574,369.137 244.883,363.591 "
         id="polygon38"
         style="fill:#e7af3a" /></g><g
       id="g40"><g
         id="g42"><rect
           x="250.545"
           y="288.944"
           width="11.713"
           height="13.613"
           id="rect44"
           style="fill:#e7af3a" /><rect
           x="242.155"
           y="296.54199"
           width="28.492001"
           height="12.663"
           id="rect46"
           style="fill:#fee582" /><rect
           x="247.379"
           y="281.66199"
           width="18.045"
           height="9.8149996"
           id="rect48"
           style="fill:#fee582" /><rect
           x="238.039"
           y="307.30499"
           width="36.723"
           height="1.9"
           id="rect50"
           style="fill:#e7af3a" /></g><g
         id="g52"><circle
           cx="256.13599"
           cy="266.784"
           r="20.893999"
           id="circle54"
           style="fill:#bc712d" /><g
           id="g56"><defs
             id="defs58"><circle
               id="SVGID_5_"
               cx="256.36099"
               cy="266.392"
               r="20.893" /></defs><clipPath
             id="SVGID_6_"><use
               xlink:href="#SVGID_5_"
               overflow="visible"
               id="use62"
               style="overflow:visible"
               x="0"
               y="0"
               width="100%"
               height="100%" /></clipPath></g></g><path
         d="m 245.004,249.127 c -0.847,0.539 -1.643,1.128 -2.384,1.762 -0.769,1.518 -1.222,3.288 -1.063,5.238 -1.35,0.449 -2.729,0.936 -4.116,1.464 -0.208,0.426 -0.401,0.859 -0.578,1.296 7.465,-2.93 14.833,-4.675 18.829,-5.623 0.933,-0.221 1.682,-0.398 2.225,-0.543 1.525,1.42 4.053,3.834 5.846,7.224 -3.64,0.127 -13.268,0.76 -20.745,3.166 -3.121,1.004 -5.876,2.322 -7.706,4.051 0.007,0.455 0.03,0.912 0.066,1.367 1.636,-1.923 4.557,-3.374 7.943,-4.463 7.71,-2.481 17.754,-3.049 20.928,-3.136 0.764,1.666 1.333,3.547 1.53,5.636 -3.089,1.588 -12.294,5.614 -20.025,7.384 -3.632,0.831 -6.914,1.171 -9.005,0.517 0.149,0.379 0.308,0.756 0.481,1.129 2.279,0.444 5.385,0.099 8.745,-0.671 7.518,-1.72 16.411,-5.548 19.871,-7.272 0.084,2.885 -0.55,6.145 -2.32,9.775 -1.64,0.452 -5.225,1.285 -9.234,2.219 -4.084,0.95 -8.604,2.002 -11.952,2.854 0.308,0.274 0.624,0.539 0.945,0.794 1.355,-0.343 2.866,-0.709 4.438,-1.082 0.783,1.705 1.984,3.199 3.285,4.374 0.275,0.248 0.554,0.482 0.837,0.701 0.777,0.164 1.564,0.28 2.356,0.353 -0.818,-0.433 -1.694,-1.044 -2.529,-1.799 -1.163,-1.048 -2.236,-2.366 -2.959,-3.864 1.527,-0.362 3.097,-0.727 4.627,-1.084 3.926,4.012 7.226,5.289 9.586,5.671 0.692,-0.243 1.378,-0.53 2.052,-0.851 -2.045,0.012 -5.737,-0.42 -10.494,-5.086 l 0.034,-0.007 c 3.97,-0.924 7.529,-1.753 9.208,-2.212 2.904,2.943 5.136,3.606 6.883,3.359 0.508,-0.498 0.987,-1.022 1.436,-1.563 -0.535,0.279 -1.138,0.493 -1.83,0.536 0.74,-1.463 1.324,-2.917 1.769,-4.352 2.139,-6.898 1.074,-13.343 -1.197,-18.432 -2.275,-5.099 -5.778,-8.85 -8.494,-10.338 -0.035,-0.02 -0.071,-0.039 -0.105,-0.057 0.514,-0.138 1.04,-0.189 1.549,-0.185 -0.681,-0.271 -1.373,-0.506 -2.075,-0.704 -1.727,0.553 -3.332,1.963 -4.031,5.089 -0.507,0.134 -1.249,0.309 -2.169,0.527 -1.852,0.44 -4.425,1.049 -7.398,1.868 1.305,-3.773 3.184,-5.88 4.975,-7.069 0.883,-0.585 1.748,-0.949 2.51,-1.179 -0.992,0.025 -1.987,0.121 -2.975,0.292 -0.026,0.016 -0.052,0.033 -0.077,0.05 -2.048,1.358 -4.197,3.798 -5.586,8.229 -1.396,0.396 -2.865,0.838 -4.378,1.327 -0.098,-1.821 0.4,-3.464 1.182,-4.855 0.376,-0.67 0.817,-1.281 1.289,-1.825 l 0,0 z m 13.595,2.861 c 0.458,-2.049 1.335,-3.236 2.357,-3.89 0.271,0.1 0.56,0.234 0.86,0.399 2.561,1.405 5.881,4.981 8.064,9.868 2.185,4.897 3.209,11.095 1.154,17.724 -0.467,1.507 -1.095,3.038 -1.906,4.582 -1.276,-0.238 -2.804,-1.065 -4.653,-2.923 6.653,-13.784 -2.286,-22.413 -5.876,-25.76 l 0,0 z"
         id="path64"
         inkscape:connector-curvature="0"
         style="clip-rule:evenodd;fill:#fee582;fill-rule:evenodd" /></g><g
       id="g66"><g
         id="g68"><rect
           x="173.84801"
           y="364.62399"
           width="11.787"
           height="16.978001"
           id="rect70"
           style="fill:#e7af3a" /><rect
           x="165.407"
           y="375.548"
           width="28.67"
           height="12.743"
           id="rect72"
           style="fill:#fee582" /><rect
           x="161.26401"
           y="386.38"
           width="36.955002"
           height="1.9119999"
           id="rect74"
           style="fill:#e7af3a" /></g><g
         id="g76"><g
           id="g78"><g
             id="g80"><circle
               cx="179.741"
               cy="345.61099"
               r="21.025999"
               id="circle82"
               style="fill:#fee582" /></g></g><g
           id="g84"><defs
             id="defs86"><circle
               id="SVGID_7_"
               cx="179.741"
               cy="345.612"
               r="21.025999" /></defs><clipPath
             id="SVGID_8_"><use
               xlink:href="#SVGID_7_"
               overflow="visible"
               id="use90"
               style="overflow:visible"
               x="0"
               y="0"
               width="100%"
               height="100%" /></clipPath><ellipse
             transform="matrix(0.9143,-0.4051,0.4051,0.9143,-118.3611,111.0918)"
             clip-path="url(#SVGID_8_)"
             stroke-miterlimit="10"
             cx="203.28101"
             cy="335.181"
             rx="18.256001"
             ry="23.173"
             id="ellipse92"
             style="fill:none;stroke:#bc712d;stroke-width:0.54000002;stroke-miterlimit:10" /><ellipse
             transform="matrix(0.9143,-0.4051,0.4051,0.9143,-130.8491,93.8079)"
             clip-path="url(#SVGID_8_)"
             stroke-miterlimit="10"
             cx="156.202"
             cy="356.043"
             rx="18.257"
             ry="23.172001"
             id="ellipse94"
             style="fill:none;stroke:#bc712d;stroke-width:0.54000002;stroke-miterlimit:10" /></g></g></g><g
       id="g96"><polygon
         points="108.015,253.884 108.015,317.532 98.424,313.727 89.336,317.532 89.336,253.884 98.683,253.821 "
         id="polygon98"
         style="fill:#6ec499" /><polygon
         points="83.447,300.661 79.715,298.125 78.871,293.693 76.395,289.921 77.312,285.504 76.466,281.071 79.004,277.341 79.92,272.923 83.692,270.448 86.227,266.715 90.66,265.872 94.432,263.396 98.849,264.312 103.281,263.468 107.012,266.005 111.43,266.921 113.905,270.692 117.637,273.228 118.48,277.661 120.957,281.433 120.041,285.85 120.885,290.281 118.349,294.013 117.432,298.43 113.66,300.907 111.124,304.637 106.691,305.482 102.92,307.958 98.503,307.042 94.071,307.886 90.34,305.35 85.922,304.433 "
         id="polygon100"
         style="fill:#e7af3a" /><circle
         cx="98.676003"
         cy="285.677"
         r="14.767"
         id="circle102"
         style="fill:#fee582" /><g
         id="g104"><text
           transform="translate(89.1074,292.0439)"
           font-size="18.9479"
           id="text106"
           style="font-size:18.94790077px;font-family:College;fill:#bc712d">#1</text>
</g></g><g
       id="g108"><polygon
         points="210.45,307.707 210.45,283.933 189.45,283.933 189.45,276.404 189.45,266.499 168.449,266.499 168.449,276.404 149.034,276.404 149.034,283.933 149.034,295.422 149.034,307.707 "
         id="polygon110"
         style="fill:#e7af3a" /><g
         id="g112"><text
           transform="translate(152.7704,271.8065)"
           font-size="21.7344"
           id="text114"
           style="font-size:21.7343998px;font-family:College;fill:#51ac83">2</text>
</g><g
         id="g116"><text
           transform="translate(173.7709,262.2968)"
           font-size="21.7344"
           id="text118"
           style="font-size:21.7343998px;font-family:College;fill:#51ac83">1</text>
</g><g
         id="g120"><text
           transform="translate(193.9779,278.1464)"
           font-size="21.7344"
           id="text122"
           style="font-size:21.7343998px;font-family:College;fill:#51ac83">3</text>
</g><polygon
         points="175.998,293.367 178.354,288.589 180.713,293.367 185.984,294.132 182.17,297.851 183.07,303.101 178.354,300.622 173.638,303.101 174.539,297.851 170.725,294.132 "
         id="polygon124"
         style="fill:#fee582" /></g><g
       id="g126"><path
         d="m 99.658,346.436 c -4.203,11.724 -6.847,23.519 -6.847,23.519 -1.608,-6.049 -5.616,-15.363 -6.761,-17.973 -0.093,0.018 -0.193,0.024 -0.291,0.03 0.046,6.406 -3.005,18.906 -3.005,18.906 -1.838,-5.363 -9.353,-14.607 -9.725,-15.063 -0.004,0.002 -0.008,0.004 -0.013,0.004 0.941,5.694 1.725,27.001 1.725,27.001 l 24.984,0 0,-36.417 c -0.023,0 -0.045,-0.006 -0.067,-0.007"
         id="path128"
         inkscape:connector-curvature="0"
         style="fill:#fee582" /><path
         d="m 100.631,346.248 c 0.783,-0.348 1.332,-1.13 1.332,-2.043 0,-1.236 -1.001,-2.238 -2.238,-2.238 -1.237,0 -2.239,1.003 -2.239,2.238 0,1.214 0.967,2.195 2.171,2.232 0.022,-0.062 0.044,-0.125 0.067,-0.188 l 0.907,0 z"
         id="path130"
         inkscape:connector-curvature="0"
         style="fill:#51ac83" /><path
         d="m 99.725,346.248 c -0.023,0.063 -0.045,0.126 -0.067,0.188 0.022,0.001 0.044,0.007 0.067,0.007 l 0,-0.195 z"
         id="path132"
         inkscape:connector-curvature="0"
         style="fill:#f26525" /><path
         d="m 85.739,351.277 c 0,0 0.114,0.256 0.311,0.706 1.028,-0.205 1.8,-1.108 1.8,-2.194 0,-1.236 -1.001,-2.238 -2.238,-2.238 -1.237,0 -2.238,1.002 -2.238,2.238 0,1.236 1.001,2.239 2.238,2.239 0.05,0 0.098,-0.012 0.147,-0.015 -0.002,-0.255 -0.008,-0.501 -0.02,-0.736"
         id="path134"
         inkscape:connector-curvature="0"
         style="fill:#51ac83" /><path
         d="m 85.739,351.277 c 0.012,0.235 0.018,0.481 0.02,0.735 0.098,-0.006 0.198,-0.012 0.291,-0.03 -0.197,-0.449 -0.311,-0.705 -0.311,-0.705"
         id="path136"
         inkscape:connector-curvature="0"
         style="fill:#51ac83" /><path
         d="m 73.029,355.855 c 0.996,-0.227 1.74,-1.113 1.74,-2.177 0,-1.236 -1.002,-2.238 -2.239,-2.238 -1.236,0 -2.238,1.003 -2.238,2.238 0,1.236 1.001,2.238 2.238,2.238 0.168,0 0.329,-0.021 0.486,-0.057 -0.002,-0.007 -0.004,-0.018 -0.004,-0.026 0,10e-4 0.008,0.011 0.017,0.022"
         id="path138"
         inkscape:connector-curvature="0"
         style="fill:#51ac83" /><path
         d="m 73.012,355.834 c 0,0.008 0.002,0.019 0.004,0.026 0.005,0 0.008,-0.003 0.013,-0.004 -0.009,-0.012 -0.017,-0.022 -0.017,-0.022"
         id="path140"
         inkscape:connector-curvature="0"
         style="fill:#f26525" /><path
         d="m 116.696,370.918 c 0,0 -3.052,-12.507 -3.005,-18.912 -0.097,-0.009 -0.193,-0.016 -0.286,-0.037 -1.135,2.59 -5.155,11.927 -6.765,17.986 0,0 -2.645,-11.795 -6.848,-23.519 -0.024,0.001 -0.044,0.007 -0.067,0.007 l 0,36.417 24.984,0 c 0,0 0.787,-21.371 1.73,-27.027 0,10e-4 -7.858,9.586 -9.743,15.085"
         id="path142"
         inkscape:connector-curvature="0"
         style="fill:#e7af3a" /><path
         d="m 99.792,346.436 c 0.297,-0.009 0.581,-0.074 0.839,-0.188 l -0.906,0 c 0.023,0.063 0.044,0.126 0.067,0.188"
         id="path144"
         inkscape:connector-curvature="0"
         style="fill:#f26525" /><path
         d="m 99.725,346.443 c 0.023,0 0.044,-0.006 0.067,-0.007 -0.023,-0.062 -0.044,-0.125 -0.067,-0.188 l 0,0.195 z"
         id="path146"
         inkscape:connector-curvature="0"
         style="fill:#f26525" /><path
         d="m 113.691,352.006 c 0.069,0.006 0.135,0.021 0.205,0.021 1.236,0 2.239,-1.003 2.239,-2.239 0,-1.236 -1.003,-2.238 -2.239,-2.238 -1.237,0 -2.238,1.002 -2.238,2.238 0,1.068 0.747,1.957 1.748,2.181 0.193,-0.441 0.305,-0.692 0.305,-0.692 -0.012,0.232 -0.017,0.477 -0.02,0.729"
         id="path148"
         inkscape:connector-curvature="0"
         style="fill:#51ac83" /><path
         d="m 113.71,351.277 c 0,0 -0.112,0.251 -0.305,0.692 0.093,0.021 0.189,0.029 0.286,0.037 0.003,-0.252 0.008,-0.497 0.019,-0.729"
         id="path150"
         inkscape:connector-curvature="0"
         style="fill:#f26525" /><path
         d="m 127.331,351.44 c -1.236,0 -2.238,1.003 -2.238,2.238 0,1.236 1.002,2.238 2.238,2.238 1.237,0 2.239,-1.003 2.239,-2.238 -0.001,-1.236 -1.003,-2.238 -2.239,-2.238"
         id="path152"
         inkscape:connector-curvature="0"
         style="fill:#51ac83" /></g></g></svg>