<svg xmlns="http://www.w3.org/2000/svg" xmlns:xlink="http://www.w3.org/1999/xlink" width="250" height="250" viewBox="0 0 249.99999 250" enable-background="new 0 0 595.28 841.89"><defs><filter id="a" color-interpolation-filters="sRGB"><feColorMatrix values="0.21 0.72 0.072 0 0 0.21 0.72 0.072 0 0 0.21 0.72 0.072 0 0 0 0 0 1 0"/></filter></defs><g transform="matrix(.803 0 0 .775 -18.225 -133.343)" filter="url(#a)"><g><g><defs><path id="b" d="M226.64 322.622h63.244v33.182H226.64z"/></defs><clipPath id="c"><use xlink:href="#b" overflow="visible" width="100%" height="100%"/></clipPath><g clip-path="url(#c)"><path d="M250.358 352.335l-22.76-30.102 8.442-15.05 29.736 42.95-15.418 2.202z" fill="#6ec499"/><g><defs><path id="d" d="M250.358 352.335l-22.76-30.102 8.443-15.05 29.736 42.95-15.418 2.202z"/></defs><clipPath><use xlink:href="#d" overflow="visible" width="100%" height="100%"/></clipPath></g><path fill="#51ac83" d="M278.624 307.182l8.443 15.05-22.76 30.103-15.417-2.202z"/></g></g><circle cx="256.264" cy="366.146" r="20.68" fill="#e7af3a"/><circle cx="256.264" cy="366.146" r="17.789" fill="#fee582"/><path fill="#e7af3a" d="M252.747 362.447l3.517-7.125 3.517 7.125 7.864 1.144-5.69 5.547 1.344 7.832-7.034-3.7-7.034 3.7 1.344-7.833-5.69-5.546z"/></g><g><g><path fill="#e7af3a" d="M250.545 288.944h11.713v13.613h-11.713z"/><path fill="#fee582" d="M242.155 296.542h28.492v12.663h-28.492z"/><path fill="#fee582" d="M247.38 281.662h18.044v9.815H247.38z"/><path fill="#e7af3a" d="M238.04 307.305h36.722v1.9H238.04z"/></g><g><circle cx="256.136" cy="266.784" r="20.894" fill="#bc712d"/><g><defs><circle id="e" cx="256.361" cy="266.392" r="20.893"/></defs><clipPath><use xlink:href="#e" overflow="visible" width="100%" height="100%"/></clipPath></g></g><path d="M245.004 249.127c-.847.54-1.643 1.128-2.384 1.762-.77 1.517-1.222 3.287-1.063 5.237-1.35.45-2.73.936-4.116 1.464-.207.427-.4.86-.577 1.297 7.465-2.93 14.833-4.675 18.83-5.623.932-.22 1.68-.398 2.224-.543 1.525 1.42 4.053 3.835 5.846 7.225-3.64.127-13.268.76-20.745 3.166-3.12 1.005-5.876 2.323-7.706 4.052.007.455.03.912.066 1.367 1.636-1.924 4.557-3.375 7.943-4.464 7.71-2.48 17.755-3.05 20.93-3.136.763 1.666 1.332 3.547 1.53 5.636-3.09 1.588-12.295 5.614-20.026 7.384-3.632.83-6.914 1.17-9.005.517.148.38.307.756.48 1.13 2.28.443 5.385.098 8.745-.672 7.518-1.72 16.41-5.548 19.87-7.272.085 2.885-.55 6.145-2.32 9.775-1.64.452-5.224 1.285-9.233 2.22-4.084.95-8.604 2-11.952 2.853.308.275.624.54.945.795 1.355-.343 2.866-.71 4.438-1.082.783 1.705 1.984 3.2 3.285 4.374.275.248.554.482.837.7.777.165 1.564.28 2.356.354-.817-.432-1.693-1.043-2.528-1.798-1.163-1.048-2.236-2.366-2.96-3.864 1.528-.362 3.098-.727 4.628-1.084 3.926 4.012 7.226 5.29 9.586 5.67.692-.242 1.378-.53 2.052-.85-2.045.012-5.737-.42-10.494-5.086l.034-.007c3.97-.923 7.53-1.752 9.208-2.21 2.904 2.942 5.136 3.605 6.883 3.358.507-.498.986-1.022 1.435-1.563-.535.28-1.138.493-1.83.536.74-1.462 1.324-2.916 1.77-4.35 2.138-6.9 1.073-13.344-1.198-18.433-2.275-5.1-5.778-8.85-8.494-10.338-.035-.02-.07-.04-.105-.058.514-.138 1.04-.19 1.55-.185-.682-.27-1.374-.506-2.076-.704-1.727.553-3.332 1.963-4.03 5.09-.508.133-1.25.308-2.17.526-1.852.44-4.425 1.048-7.398 1.867 1.305-3.773 3.184-5.88 4.975-7.07.882-.584 1.747-.948 2.51-1.178-.993.024-1.988.12-2.976.29l-.077.05c-2.048 1.36-4.197 3.8-5.586 8.23-1.395.396-2.864.838-4.377 1.327-.098-1.82.4-3.464 1.182-4.855.376-.67.817-1.28 1.29-1.825zm13.595 2.86c.457-2.048 1.334-3.235 2.356-3.89.27.1.56.235.86.4 2.56 1.405 5.88 4.98 8.064 9.868 2.185 4.897 3.21 11.095 1.154 17.724-.467 1.506-1.095 3.037-1.906 4.58-1.276-.237-2.804-1.064-4.653-2.922 6.653-13.784-2.286-22.413-5.876-25.76z" clip-rule="evenodd" fill="#fee582" fill-rule="evenodd"/></g><g><g><path fill="#e7af3a" d="M173.848 364.624h11.787v16.978h-11.787z"/><path fill="#fee582" d="M165.407 375.548h28.67v12.743h-28.67z"/><path fill="#e7af3a" d="M161.264 386.38h36.955v1.912h-36.956z"/></g><g><g><g><circle cx="179.741" cy="345.611" r="21.026" fill="#fee582"/></g></g><g><defs><circle id="f" cx="179.741" cy="345.612" r="21.026"/></defs><clipPath id="g"><use xlink:href="#f" overflow="visible" width="100%" height="100%"/></clipPath><ellipse transform="matrix(.914 -.405 .405 .914 -118.361 111.092)" clip-path="url(#g)" stroke-miterlimit="10" cx="203.281" cy="335.181" rx="18.256" ry="23.173" fill="none" stroke="#bc712d" stroke-width=".54"/><ellipse transform="matrix(.914 -.405 .405 .914 -130.849 93.808)" clip-path="url(#g)" stroke-miterlimit="10" cx="156.202" cy="356.043" rx="18.257" ry="23.172" fill="none" stroke="#bc712d" stroke-width=".54"/></g></g></g><g><path fill="#6ec499" d="M108.015 253.884v63.648l-9.59-3.805-9.09 3.805v-63.648l9.348-.063z"/><path fill="#e7af3a" d="M83.447 300.66l-3.732-2.535-.844-4.432-2.475-3.772.917-4.416-.846-4.433 2.538-3.73.916-4.417 3.772-2.475 2.535-3.733 4.433-.843 3.772-2.476 4.417.916 4.43-.844 3.732 2.537 4.418.916 2.475 3.772 3.732 2.536.843 4.433 2.477 3.773-.916 4.417.845 4.43-2.536 3.733-.918 4.417-3.772 2.477-2.536 3.73-4.433.845-3.77 2.476-4.417-.916-4.432.844-3.73-2.536-4.418-.917z"/><circle cx="98.676" cy="285.677" r="14.767" fill="#fee582"/><g><text transform="translate(89.107 292.044)" font-size="18.948" font-family="College" fill="#bc712d">#1</text></g></g><g><path fill="#e7af3a" d="M210.45 307.707v-23.774h-21V266.5h-21v9.904h-19.416v31.303z"/><g><text transform="translate(152.77 271.807)" font-size="21.734" font-family="College" fill="#51ac83">2</text></g><g><text transform="translate(173.771 262.297)" font-size="21.734" font-family="College" fill="#51ac83">1</text></g><g><text transform="translate(193.978 278.146)" font-size="21.734" font-family="College" fill="#51ac83">3</text></g><path fill="#fee582" d="M175.998 293.367l2.356-4.778 2.36 4.777 5.27.765-3.814 3.72.9 5.25-4.716-2.48-4.716 2.48.9-5.25-3.813-3.72z"/></g><g><path d="M99.658 346.436c-4.203 11.724-6.847 23.52-6.847 23.52-1.607-6.05-5.615-15.364-6.76-17.974-.093.018-.193.024-.29.03.045 6.406-3.006 18.906-3.006 18.906-1.838-5.363-9.353-14.607-9.725-15.063-.005.002-.01.004-.014.004.94 5.693 1.725 27 1.725 27h24.985v-36.417c-.023 0-.045-.006-.067-.007" fill="#fee582"/><path d="M100.63 346.248c.784-.348 1.333-1.13 1.333-2.043 0-1.236-1-2.238-2.238-2.238-1.237 0-2.24 1.003-2.24 2.238 0 1.214.968 2.195 2.172 2.232l.067-.188h.907z" fill="#51ac83"/><path d="M99.725 346.248l-.067.188c.022 0 .044.007.067.007v-.195z" fill="#f26525"/><path d="M85.74 351.277l.31.706c1.028-.205 1.8-1.108 1.8-2.194 0-1.237-1-2.24-2.238-2.24-1.237 0-2.238 1.003-2.238 2.24 0 1.235 1 2.238 2.238 2.238.05 0 .098-.012.147-.015-.003-.255-.01-.5-.02-.736" fill="#51ac83"/><path d="M85.74 351.277c.01.235.017.48.02.735.097-.006.197-.012.29-.03l-.31-.705" fill="#51ac83"/><path d="M73.03 355.855c.995-.227 1.74-1.113 1.74-2.177 0-1.236-1.003-2.238-2.24-2.238-1.236 0-2.238 1.003-2.238 2.238 0 1.236 1 2.238 2.238 2.238.168 0 .33-.02.486-.057-.002-.008-.004-.02-.004-.027l.017.022" fill="#51ac83"/><path d="M73.012 355.834c0 .008.002.02.004.026.005 0 .008-.003.013-.004l-.018-.022" fill="#f26525"/><path d="M116.696 370.918s-3.052-12.507-3.005-18.912c-.096-.01-.192-.016-.285-.037-1.135 2.59-5.155 11.926-6.765 17.985 0 0-2.645-11.795-6.848-23.52-.024.002-.044.008-.067.008v36.417h24.984s.786-21.37 1.73-27.027c0 0-7.86 9.586-9.744 15.085" fill="#e7af3a"/><path d="M99.792 346.436c.297-.01.58-.074.84-.188h-.907l.067.188" fill="#f26525"/><path d="M99.725 346.443c.023 0 .044-.006.067-.007l-.067-.188v.195z" fill="#f26525"/><path d="M113.69 352.006c.07.006.136.02.206.02 1.236 0 2.24-1.002 2.24-2.238s-1.004-2.238-2.24-2.238c-1.237 0-2.238 1.002-2.238 2.238 0 1.068.747 1.957 1.748 2.18.193-.44.305-.69.305-.69-.01.23-.016.476-.02.728" fill="#51ac83"/><path d="M113.71 351.277s-.112.25-.305.692c.093.02.19.028.286.036.004-.252.01-.497.02-.73" fill="#f26525"/><path d="M127.33 351.44c-1.235 0-2.237 1.003-2.237 2.238 0 1.236 1.002 2.238 2.238 2.238 1.238 0 2.24-1.003 2.24-2.238 0-1.236-1.003-2.238-2.24-2.238" fill="#51ac83"/></g></g></svg>