<?xml version="1.0" encoding="utf-8"?>
<!-- Generator: Adobe Illustrator 17.0.0, SVG Export Plug-In . SVG Version: 6.00 Build 0)  -->
<!DOCTYPE svg PUBLIC "-//W3C//DTD SVG 1.1//EN" "http://www.w3.org/Graphics/SVG/1.1/DTD/svg11.dtd">
<svg version="1.1" xmlns="http://www.w3.org/2000/svg" xmlns:xlink="http://www.w3.org/1999/xlink" x="0px" y="0px"
	 width="595.28px" height="841.89px" viewBox="0 0 595.28 841.89" enable-background="new 0 0 595.28 841.89" xml:space="preserve">
<g id="Capa_1" display="none">
	<path display="inline" fill-rule="evenodd" clip-rule="evenodd" fill="#80A5C6" d="M284.89,342.329
		c0,11.768-9.967,21.307-22.261,21.307H100.705c-12.294,0-22.261-9.54-22.261-21.307V189.197c0-11.768,9.967-21.307,22.261-21.307
		h161.924c12.294,0,22.261,9.54,22.261,21.307V342.329z"/>
	<path display="inline" fill-rule="evenodd" clip-rule="evenodd" fill="#CEE8EF" d="M276.019,335.815
		c0,10.767-9.11,19.495-20.348,19.495H107.662c-11.238,0-20.348-8.728-20.348-19.495V195.712c0-10.767,9.11-19.494,20.348-19.494
		h148.009c11.238,0,20.348,8.728,20.348,19.494V335.815z"/>
</g>
<g id="Capa_2">
	<g>
		<g>
			<g>
				<circle fill="#7F6C67" cx="234.233" cy="263.367" r="18.137"/>
				<g>
					<defs>
						<circle id="SVGID_1_" cx="234.233" cy="263.367" r="18.137"/>
					</defs>
					<clipPath id="SVGID_2_">
						<use xlink:href="#SVGID_1_"  overflow="visible"/>
					</clipPath>
					<g clip-path="url(#SVGID_2_)">
						<g>
							<g>
								<g>
									<path fill="#89CCA2" d="M227.086,269.3h-2.644c0,0-2.521-0.34-2.521,2.835s0,10.649,0,10.649h12.312v-13.494L227.086,269.3
										z"/>
									<path fill="#FFFFFF" d="M230.465,268.594c0.02,0.43,3.768,14.189,3.768,14.189v-11.238L230.465,268.594z"/>
									<path fill="#FFFFFF" d="M230.465,268.594c0.02,0.43,3.768,14.189,3.768,14.189v-11.238L230.465,268.594z"/>
								</g>
								<g>
									<path fill="#5DBF86" d="M241.381,269.3h2.644c0,0,2.521-0.34,2.521,2.835s0,10.649,0,10.649h-12.312v-13.494L241.381,269.3
										z"/>
									<path fill="#FFFFFF" d="M238.002,268.594c-0.02,0.43-3.768,14.189-3.768,14.189v-11.238L238.002,268.594z"/>
									<path fill="#FFFFFF" d="M230.465,268.594c0.02,0.43,3.768,14.189,3.768,14.189v-11.238L230.465,268.594z"/>
									<path fill="#FFFFFF" d="M238.002,268.594c-0.02,0.43-3.768,14.189-3.768,14.189"/>
									<path fill="#FFFFFF" d="M230.465,268.594c0.02,0.43,3.768,14.189,3.768,14.189v-11.238L230.465,268.594z"/>
									<path fill="#FFFFFF" d="M238.002,268.594c-0.02,0.43-3.768,14.189-3.768,14.189"/>
									<path fill="#FFFFFF" d="M230.465,268.594c0.02,0.43,3.768,14.189,3.768,14.189v-11.238L230.465,268.594z"/>
									<path fill="#FFFFFF" d="M238.002,268.594c-0.02,0.43-3.768,14.189-3.768,14.189"/>
								</g>
							</g>
							<g>
								<path fill="#FFEEBD" d="M227.246,260.137c-0.209,0.18-0.408,0.376-0.593,0.594c0,0-0.255,2.548,0,2.803
									c0.255,0.255,0.701,0.255,0.764,0.446c0.064,0.191,3.504,6.625,6.816,6.816v-12.358v-6.79
									C227.486,251.042,227.199,258.175,227.246,260.137z"/>
								<path fill="#F4DAAA" d="M241.814,260.73c0,0-0.107-9.72-7.581-9.083v6.79v12.358c3.313-0.191,6.752-6.625,6.816-6.816
									c0.064-0.191,0.51-0.191,0.764-0.446C242.069,263.279,241.814,260.73,241.814,260.73z"/>
							</g>
							<g>
								<path fill="#FFEEBD" d="M227.246,260.137c-0.209,0.18-0.408,0.376-0.593,0.594c0,0-0.255,2.548,0,2.803
									c0.255,0.255,0.701,0.255,0.764,0.446c0.064,0.191,3.504,6.625,6.816,6.816v-12.358v-6.79
									C227.486,251.042,227.199,258.175,227.246,260.137z"/>
								<path fill="#F4DAAA" d="M241.814,260.73c0,0-0.107-9.72-7.581-9.083v6.79v12.358c3.313-0.191,6.752-6.625,6.816-6.816
									c0.064-0.191,0.51-0.191,0.764-0.446C242.069,263.279,241.814,260.73,241.814,260.73z"/>
							</g>
							<g>
								<path fill="#FFEEBD" d="M227.246,260.137c-0.209,0.18-0.408,0.376-0.593,0.594c0,0-0.255,2.548,0,2.803
									c0.255,0.255,0.701,0.255,0.764,0.446c0.064,0.191,3.504,6.625,6.816,6.816v-12.358v-6.79
									C227.486,251.042,227.199,258.175,227.246,260.137z"/>
								<path fill="#F4DAAA" d="M241.814,260.73c0,0-0.107-9.72-7.581-9.083v6.79v12.358c3.313-0.191,6.752-6.625,6.816-6.816
									c0.064-0.191,0.51-0.191,0.764-0.446C242.069,263.279,241.814,260.73,241.814,260.73z"/>
							</g>
							<g>
								<path fill="#FFEEBD" d="M227.246,260.137c-0.209,0.18-0.408,0.376-0.593,0.594c0,0-0.255,2.548,0,2.803
									c0.255,0.255,0.701,0.255,0.764,0.446c0.064,0.191,3.504,6.625,6.816,6.816v-12.358v-6.79
									C227.486,251.042,227.199,258.175,227.246,260.137z"/>
								<path fill="#F4DAAA" d="M241.814,260.73c0,0-0.107-9.72-7.581-9.083v6.79v12.358c3.313-0.191,6.752-6.625,6.816-6.816
									c0.064-0.191,0.51-0.191,0.764-0.446C242.069,263.279,241.814,260.73,241.814,260.73z"/>
							</g>
							<g>
								<path fill="#FFEEBD" d="M227.246,260.137c-0.209,0.18-0.408,0.376-0.593,0.594c0,0-0.255,2.548,0,2.803
									c0.255,0.255,0.701,0.255,0.764,0.446c0.064,0.191,3.504,6.625,6.816,6.816v-12.358v-6.79
									C227.486,251.042,227.199,258.175,227.246,260.137z"/>
								<path fill="#F4DAAA" d="M241.814,260.73c0,0-0.107-9.72-7.581-9.083v6.79v12.358c3.313-0.191,6.752-6.625,6.816-6.816
									c0.064-0.191,0.51-0.191,0.764-0.446C242.069,263.279,241.814,260.73,241.814,260.73z"/>
							</g>
							<g>
								<path fill="#FFEEBD" d="M227.469,260.137c-0.209,0.18-0.408,0.376-0.593,0.594c0,0-0.255,2.548,0,2.803
									c0.255,0.255,0.701,0.255,0.764,0.446c0.064,0.191,3.504,6.625,6.816,6.816v-12.358v-6.79
									C227.71,251.042,227.422,258.175,227.469,260.137z"/>
								<path fill="#F4DAAA" d="M241.814,260.73c0,0-0.107-9.72-7.581-9.083v6.79v12.358c3.313-0.191,6.752-6.625,6.816-6.816
									c0.064-0.191,0.51-0.191,0.764-0.446C242.069,263.279,241.814,260.73,241.814,260.73z"/>
							</g>
						</g>
						<path fill="#403D34" d="M230.386,257.584c0,0,4.341,2.227,9.564,2.354c0,0,0.637,3.058,0,4.332
							c-0.637,1.274-3.058,6.753-2.293,9.81c0.764,3.058,2.421,4.969,1.529,6.243c0,0,4.671-2.833,2.166-8.154
							c-2.505-5.32-1.274-4.841-0.382-5.988c0.892-1.147,4.459-8.154,0.892-12.103c-3.567-3.95-7.415-4.204-7.415-4.204
							s-11.186,1.529-9.148,10.829c0,0-0.382,2.039,3.44,5.606c0,0,1.019,2.548-0.127,4.332s-2.166,8.154,2.421,9.683
							c0,0-0.51-2.676,0.255-3.822c0.764-1.147,1.019-5.733,0-7.007c-1.019-1.274-1.529-3.567-1.529-3.567v-1.401
							C229.758,264.525,229.24,258.221,230.386,257.584z"/>
						<path fill="#DD4A4A" d="M239.783,268.283h-1.044c-0.229,0-0.416-0.187-0.416-0.416v-0.117c0-0.229,0.187-0.416,0.416-0.416
							h1.044c0.229,0,0.416,0.187,0.416,0.416v0.117C240.199,268.096,240.012,268.283,239.783,268.283z"/>
						<path fill="#DD4A4A" d="M229.97,267.137h-1.044c-0.229,0-0.416-0.187-0.416-0.416v-0.117c0-0.229,0.187-0.416,0.416-0.416
							h1.044c0.229,0,0.416,0.187,0.416,0.416v0.117C230.386,266.949,230.199,267.137,229.97,267.137z"/>
					</g>
				</g>
			</g>
		</g>
		<g>
			<g>
				<circle fill="#7F817A" cx="234.233" cy="216.667" r="18.137"/>
				<g>
					<defs>
						<circle id="SVGID_3_" cx="234.233" cy="216.667" r="18.137"/>
					</defs>
					<use xlink:href="#SVGID_3_"  overflow="visible" fill="#8BA18D"/>
					<clipPath id="SVGID_4_">
						<use xlink:href="#SVGID_3_"  overflow="visible"/>
					</clipPath>
					<g clip-path="url(#SVGID_4_)">
						<g>
							<g>
								<path fill="#4C4D52" d="M226.196,221.945h-2.973c0,0-2.835-0.34-2.835,2.835c0,3.174,0,10.649,0,10.649h13.845v-13.494
									L226.196,221.945z"/>
								<path fill="#FFFFFF" d="M229.996,221.239c0.022,0.429,4.237,14.189,4.237,14.189v-11.238L229.996,221.239z"/>
							</g>
							<g>
								<path fill="#3F3F43" d="M242.271,221.945h2.973c0,0,2.835-0.34,2.835,2.835c0,3.174,0,10.649,0,10.649h-13.845v-13.494
									L242.271,221.945z"/>
								<path fill="#FFFFFF" d="M238.471,221.239c-0.022,0.429-4.237,14.189-4.237,14.189v-11.238L238.471,221.239z"/>
							</g>
						</g>
						<g>
							<g>
								<path fill="#FFEEBD" d="M227.246,213.041c-0.209,0.18-0.408,0.376-0.593,0.594c0,0-0.255,2.548,0,2.803
									c0.255,0.255,0.701,0.255,0.764,0.446c0.064,0.191,3.504,6.625,6.816,6.816v-12.358v-6.79
									C227.486,203.946,227.199,211.079,227.246,213.041z"/>
								<path fill="#F4DAAA" d="M241.814,213.635c0,0-0.107-9.72-7.581-9.083v6.79V223.7c3.313-0.191,6.753-6.625,6.816-6.816
									c0.064-0.191,0.51-0.191,0.764-0.446C242.069,216.183,241.814,213.635,241.814,213.635z"/>
							</g>
							<g>
								<path fill="#FFEEBD" d="M227.246,213.041c-0.209,0.18-0.408,0.376-0.593,0.594c0,0-0.255,2.548,0,2.803
									c0.255,0.255,0.701,0.255,0.764,0.446c0.064,0.191,3.504,6.625,6.816,6.816v-12.358v-6.79
									C227.486,203.946,227.199,211.079,227.246,213.041z"/>
								<path fill="#F4DAAA" d="M241.814,213.635c0,0-0.107-9.72-7.581-9.083v6.79V223.7c3.313-0.191,6.753-6.625,6.816-6.816
									c0.064-0.191,0.51-0.191,0.764-0.446C242.069,216.183,241.814,213.635,241.814,213.635z"/>
							</g>
							<g>
								<path fill="#FFEEBD" d="M227.246,213.041c-0.209,0.18-0.408,0.376-0.593,0.594c0,0-0.255,2.548,0,2.803
									c0.255,0.255,0.701,0.255,0.764,0.446c0.064,0.191,3.504,6.625,6.816,6.816v-12.358v-6.79
									C227.486,203.946,227.199,211.079,227.246,213.041z"/>
								<path fill="#F4DAAA" d="M241.814,213.635c0,0-0.107-9.72-7.581-9.083v6.79V223.7c3.313-0.191,6.753-6.625,6.816-6.816
									c0.064-0.191,0.51-0.191,0.764-0.446C242.069,216.183,241.814,213.635,241.814,213.635z"/>
							</g>
							<g>
								<path fill="#FFEEBD" d="M227.246,213.041c-0.209,0.18-0.408,0.376-0.593,0.594c0,0-0.255,2.548,0,2.803
									c0.255,0.255,0.701,0.255,0.764,0.446c0.064,0.191,3.504,6.625,6.816,6.816v-12.358v-6.79
									C227.486,203.946,227.199,211.079,227.246,213.041z"/>
								<path fill="#F4DAAA" d="M241.814,213.635c0,0-0.107-9.72-7.581-9.083v6.79V223.7c3.313-0.191,6.753-6.625,6.816-6.816
									c0.064-0.191,0.51-0.191,0.764-0.446C242.069,216.183,241.814,213.635,241.814,213.635z"/>
							</g>
							<g>
								<path fill="#FFEEBD" d="M227.246,213.041c-0.209,0.18-0.408,0.376-0.593,0.594c0,0-0.255,2.548,0,2.803
									c0.255,0.255,0.701,0.255,0.764,0.446c0.064,0.191,3.504,6.625,6.816,6.816v-12.358v-6.79
									C227.486,203.946,227.199,211.079,227.246,213.041z"/>
								<path fill="#F4DAAA" d="M241.814,213.635c0,0-0.107-9.72-7.581-9.083v6.79V223.7c3.313-0.191,6.753-6.625,6.816-6.816
									c0.064-0.191,0.51-0.191,0.764-0.446C242.069,216.183,241.814,213.635,241.814,213.635z"/>
							</g>
							<g>
								<path fill="#FFEEBD" d="M227.246,213.041c-0.209,0.18-0.408,0.376-0.593,0.594c0,0-0.255,2.548,0,2.803
									c0.255,0.255,0.701,0.255,0.764,0.446c0.064,0.191,3.504,6.625,6.816,6.816v-12.358v-6.79
									C227.486,203.946,227.199,211.079,227.246,213.041z"/>
								<path fill="#F4DAAA" d="M241.814,213.635c0,0-0.107-9.72-7.581-9.083v6.79V223.7c3.313-0.191,6.753-6.625,6.816-6.816
									c0.064-0.191,0.51-0.191,0.764-0.446C242.069,216.183,241.814,213.635,241.814,213.635z"/>
							</g>
							<path fill="#252627" d="M238.484,205.081c0,0-0.51-1.529-1.529-2.038c-1.019-0.51-5.733-1.784-9.173,2.676
								c-3.44,4.459-0.764,8.154-0.764,8.154s0.764-0.573,0.764-0.382c0,0.191,0.127,2.994,0.318,2.803
								c0.191-0.191,0.956-3.949,1.656-3.949c0.701,0,5.67,0.956,8.727-3.95c0,0,0.382,3.95,1.911,5.287
								c0.021,0.018,0.042,0.033,0.062,0.05c-0.065,1.219-0.126,2.571-0.126,2.571s0.631-1.159,1.13-2.299
								c0.792-0.274,1.164-1.724,1.164-1.724S244.089,203.871,238.484,205.081z"/>
						</g>
						<path fill="#333535" d="M234.233,218.266l-2.188,0.807v3.712c0,0,1.063,0.913,2.188,0.915v-2.419l-1.381,0.043v-1.189
							l1.37-1.37L234.233,218.266z"/>
						<path fill="#252627" d="M234.233,218.266l2.188,0.807v3.712c0,0-1.064,0.913-2.188,0.915v-2.419l1.381,0.043v-1.189
							l-1.37-1.37L234.233,218.266z"/>
						<polygon fill="#B1D237" points="233.215,223.481 232.744,230.543 234.233,235.428 234.233,223.7 						"/>
						<polygon fill="#96AE3C" points="235.252,223.481 235.723,230.543 234.233,235.428 234.233,223.7 						"/>
						<rect x="238.471" y="229.455" fill="#4C4D52" width="5.505" height="1.517"/>
					</g>
				</g>
			</g>
		</g>
		<g>
			<circle fill="#425B77" cx="234.233" cy="310.422" r="18.137"/>
			<g>
				<defs>
					<circle id="SVGID_5_" cx="234.233" cy="310.422" r="18.137"/>
				</defs>
				<clipPath id="SVGID_6_">
					<use xlink:href="#SVGID_5_"  overflow="visible"/>
				</clipPath>
				<g clip-path="url(#SVGID_6_)">
					<g>
						<path fill="#FAC753" d="M226.748,315.306h-2.973c0,0-2.835-0.34-2.835,2.835c0,3.174,0,10.649,0,10.649h13.845v-13.494
							L226.748,315.306z"/>
						<path fill="#FFFFFF" d="M230.548,314.6c0.022,0.43,4.237,14.189,4.237,14.189v-11.238L230.548,314.6z"/>
						<path fill="#D5973D" d="M231.277,314.429l-3.744,0.877c0,0,4.672,4.395,6.031,4.565v-2.319
							C233.563,317.551,230.775,314.848,231.277,314.429z"/>
					</g>
					<path fill="#FFEEBD" d="M227.097,307.486c0,0-0.255,2.548,0,2.803c0.255,0.255,0.701,0.255,0.764,0.446
						c0.064,0.191,3.504,6.625,6.816,6.816v-12.358C234.678,305.193,229.645,304.493,227.097,307.486z"/>
					<g>
						<path fill="#FAC753" d="M242.823,315.306h2.973c0,0,2.835-0.34,2.835,2.835c0,3.174,0,10.649,0,10.649h-13.845v-13.494
							L242.823,315.306z"/>
						<path fill="#FFFFFF" d="M239.022,314.6c-0.022,0.43-4.237,14.189-4.237,14.189v-11.238L239.022,314.6z"/>
						<path fill="#FFFFFF" d="M230.548,314.6c0.022,0.43,4.237,14.189,4.237,14.189v-11.238L230.548,314.6z"/>
						<path fill="#FFFFFF" d="M239.022,314.6c-0.022,0.43-4.237,14.189-4.237,14.189v-11.238L239.022,314.6z"/>
						<path fill="#FFFFFF" d="M230.548,314.6c0.022,0.43,4.237,14.189,4.237,14.189v-11.238L230.548,314.6z"/>
						<path fill="#FFFFFF" d="M239.022,314.6c-0.022,0.43-4.237,14.189-4.237,14.189v-11.238L239.022,314.6z"/>
						<path fill="#D5973D" d="M238.293,314.429l3.744,0.877c0,0-4.671,4.395-6.03,4.565v-2.319
							C236.007,317.551,238.796,314.848,238.293,314.429z"/>
					</g>
					<path fill="#F4DAAA" d="M242.258,307.486c0,0,0.255,2.548,0,2.803c-0.255,0.255-0.701,0.255-0.764,0.446
						c-0.064,0.191-3.504,6.625-6.816,6.816v-12.358C234.678,305.193,239.71,304.493,242.258,307.486z"/>
					<path fill="#FFEEBD" d="M227.097,307.486c0,0-0.255,2.548,0,2.803c0.255,0.255,0.701,0.255,0.764,0.446
						c0.064,0.191,3.504,6.625,6.816,6.816v-12.358C234.678,305.193,229.645,304.493,227.097,307.486z"/>
					<path fill="#F4DAAA" d="M242.258,307.486c0,0,0.255,2.548,0,2.803c-0.255,0.255-0.701,0.255-0.764,0.446
						c-0.064,0.191-3.504,6.625-6.816,6.816v-12.358C234.678,305.193,239.71,304.493,242.258,307.486z"/>
					<path fill="#FFEEBD" d="M227.097,307.486c0,0-0.255,2.548,0,2.803c0.255,0.255,0.701,0.255,0.764,0.446
						c0.064,0.191,3.504,6.625,6.816,6.816v-12.358C234.678,305.193,229.645,304.493,227.097,307.486z"/>
					<path fill="#F4DAAA" d="M242.258,307.486c0,0,0.255,2.548,0,2.803c-0.255,0.255-0.701,0.255-0.764,0.446
						c-0.064,0.191-3.504,6.625-6.816,6.816v-12.358C234.678,305.193,239.71,304.493,242.258,307.486z"/>
					<path fill="#FFEEBD" d="M227.097,307.486c0,0-0.255,2.548,0,2.803c0.255,0.255,0.701,0.255,0.764,0.446
						c0.064,0.191,3.504,6.625,6.816,6.816v-12.358C234.678,305.193,229.645,304.493,227.097,307.486z"/>
					<path fill="#F4DAAA" d="M242.258,307.486c0,0,0.255,2.548,0,2.803c-0.255,0.255-0.701,0.255-0.764,0.446
						c-0.064,0.191-3.504,6.625-6.816,6.816v-12.358C234.678,305.193,239.71,304.493,242.258,307.486z"/>
					<path fill="#FFEEBD" d="M227.097,307.486c0,0-0.255,2.548,0,2.803c0.255,0.255,0.701,0.255,0.764,0.446
						c0.064,0.191,3.504,6.625,6.816,6.816v-12.358C234.678,305.193,229.645,304.493,227.097,307.486z"/>
					<path fill="#F4DAAA" d="M242.258,307.486c0,0,0.255,2.548,0,2.803c-0.255,0.255-0.701,0.255-0.764,0.446
						c-0.064,0.191-3.504,6.625-6.816,6.816v-12.358C234.678,305.193,239.71,304.493,242.258,307.486z"/>
					<path fill="#FFEEBD" d="M227.097,307.486c0,0-0.255,2.548,0,2.803c0.255,0.255,0.701,0.255,0.764,0.446
						c0.064,0.191,3.504,6.625,6.816,6.816v-12.358C234.678,305.193,229.645,304.493,227.097,307.486z"/>
					<path fill="#F4DAAA" d="M242.258,307.486c0,0,0.255,2.548,0,2.803c-0.255,0.255-0.701,0.255-0.764,0.446
						c-0.064,0.191-3.504,6.625-6.816,6.816v-12.358C234.678,305.193,239.71,304.493,242.258,307.486z"/>
					<path fill="#FFEEBD" d="M227.097,307.486c0,0-0.255,2.548,0,2.803c0.255,0.255,0.701,0.255,0.764,0.446
						c0.064,0.191,3.504,6.625,6.816,6.816v-12.358C234.678,305.193,229.645,304.493,227.097,307.486z"/>
					<path fill="#F4DAAA" d="M242.258,307.486c0,0,0.255,2.548,0,2.803c-0.255,0.255-0.701,0.255-0.764,0.446
						c-0.064,0.191-3.504,6.625-6.816,6.816v-12.358C234.678,305.193,239.71,304.493,242.258,307.486z"/>
					<path fill="#FFEEBD" d="M227.097,307.486c0,0-0.255,2.548,0,2.803c0.255,0.255,0.701,0.255,0.764,0.446
						c0.064,0.191,3.504,6.625,6.816,6.816v-12.358C234.678,305.193,229.645,304.493,227.097,307.486z"/>
					<path fill="#D5973D" d="M231.165,314.541l-3.744,0.877c0,0,4.672,4.395,6.031,4.565v-2.319
						C233.452,317.663,230.663,314.96,231.165,314.541z"/>
					<path fill="#F4DAAA" d="M242.258,307.486c0,0,0.255,2.548,0,2.803c-0.255,0.255-0.701,0.255-0.764,0.446
						c-0.064,0.191-3.504,6.625-6.816,6.816v-12.358C234.678,305.193,239.71,304.493,242.258,307.486z"/>
					<path fill="#FFEEBD" d="M227.097,307.486c0,0-0.255,2.548,0,2.803c0.255,0.255,0.701,0.255,0.764,0.446
						c0.064,0.191,3.504,6.625,6.816,6.816v-12.358C234.678,305.193,229.645,304.493,227.097,307.486z"/>
					<path fill="#F4DAAA" d="M242.258,307.486c0,0,0.255,2.548,0,2.803c-0.255,0.255-0.701,0.255-0.764,0.446
						c-0.064,0.191-3.504,6.625-6.816,6.816v-12.358C234.678,305.193,239.71,304.493,242.258,307.486z"/>
					<path fill="#FFEEBD" d="M234.678,305.193v-3.032c0,0-5.885,0.453-6.971,4.717C226.621,311.143,234.678,305.193,234.678,305.193
						z"/>
					<path fill="#F4DAAA" d="M234.678,305.193v-3.032c0,0,5.885,0.453,6.971,4.717C242.734,311.143,234.678,305.193,234.678,305.193
						z"/>
					<path fill="#464646" d="M227.707,306.879c0,0-2.236-7.202,6.971-7.839v3.121C234.678,302.161,228.92,303.952,227.707,306.879z"
						/>
					<g>
						<path fill="#D5973D" d="M228.163,300.109c0,0-0.432-3.68,0-3.808c0.432-0.127,6.514-3.143,6.514-3.143v6.95H228.163z"/>
						<path fill="#D1932C" d="M241.192,300.109c0,0,0.433-3.68,0-3.808c-0.432-0.127-6.514-3.143-6.514-3.143v6.95H241.192z"/>
					</g>
					<path fill="#383938" d="M234.678,302.161c0,0,0.913,5.167,6.971,4.717c0,0,2.869-7.711-6.971-7.839"/>
					<path fill="#FAC753" d="M227.821,302.959c0,0,6.76-6.018,13.928,0v-2.675c0,0-6.93-3.724-13.928,0V302.959z"/>
					<rect x="242.823" y="315.306" fill="#383938" width="3.822" height="1.083"/>
					<rect x="223.162" y="315.306" fill="#464646" width="3.822" height="1.083"/>
					<rect x="238.358" y="323.121" fill="#D5973D" width="6.376" height="1.244"/>
				</g>
				<g clip-path="url(#SVGID_6_)">
					<g>
						<path fill="#FAC753" d="M226.748,315.306h-2.973c0,0-2.835-0.34-2.835,2.835c0,3.174,0,10.649,0,10.649h13.845v-13.494
							L226.748,315.306z"/>
						<path fill="#FFFFFF" d="M230.548,314.6c0.022,0.43,4.237,14.189,4.237,14.189v-11.238L230.548,314.6z"/>
						<path fill="#D5973D" d="M231.277,314.429l-3.744,0.877c0,0,4.672,4.395,6.031,4.565v-2.319
							C233.563,317.551,230.775,314.848,231.277,314.429z"/>
					</g>
					<path fill="#FFEEBD" d="M227.097,307.486c0,0-0.255,2.548,0,2.803c0.255,0.255,0.701,0.255,0.764,0.446
						c0.064,0.191,3.504,6.625,6.816,6.816v-12.358C234.678,305.193,229.645,304.493,227.097,307.486z"/>
					<g>
						<path fill="#FAC753" d="M242.823,315.306h2.973c0,0,2.835-0.34,2.835,2.835c0,3.174,0,10.649,0,10.649h-13.845v-13.494
							L242.823,315.306z"/>
						<path fill="#FFFFFF" d="M239.022,314.6c-0.022,0.43-4.237,14.189-4.237,14.189v-11.238L239.022,314.6z"/>
						<path fill="#FFFFFF" d="M230.548,314.6c0.022,0.43,4.237,14.189,4.237,14.189v-11.238L230.548,314.6z"/>
						<path fill="#FFFFFF" d="M239.022,314.6c-0.022,0.43-4.237,14.189-4.237,14.189v-11.238L239.022,314.6z"/>
						<path fill="#FFFFFF" d="M230.548,314.6c0.022,0.43,4.237,14.189,4.237,14.189v-11.238L230.548,314.6z"/>
						<path fill="#FFFFFF" d="M239.022,314.6c-0.022,0.43-4.237,14.189-4.237,14.189v-11.238L239.022,314.6z"/>
						<path fill="#D5973D" d="M238.293,314.429l3.744,0.877c0,0-4.671,4.395-6.03,4.565v-2.319
							C236.007,317.551,238.796,314.848,238.293,314.429z"/>
					</g>
					<path fill="#F4DAAA" d="M242.258,307.486c0,0,0.255,2.548,0,2.803c-0.255,0.255-0.701,0.255-0.764,0.446
						c-0.064,0.191-3.504,6.625-6.816,6.816v-12.358C234.678,305.193,239.71,304.493,242.258,307.486z"/>
					<path fill="#FFEEBD" d="M227.097,307.486c0,0-0.255,2.548,0,2.803c0.255,0.255,0.701,0.255,0.764,0.446
						c0.064,0.191,3.504,6.625,6.816,6.816v-12.358C234.678,305.193,229.645,304.493,227.097,307.486z"/>
					<path fill="#F4DAAA" d="M242.258,307.486c0,0,0.255,2.548,0,2.803c-0.255,0.255-0.701,0.255-0.764,0.446
						c-0.064,0.191-3.504,6.625-6.816,6.816v-12.358C234.678,305.193,239.71,304.493,242.258,307.486z"/>
					<path fill="#FFEEBD" d="M227.097,307.486c0,0-0.255,2.548,0,2.803c0.255,0.255,0.701,0.255,0.764,0.446
						c0.064,0.191,3.504,6.625,6.816,6.816v-12.358C234.678,305.193,229.645,304.493,227.097,307.486z"/>
					<path fill="#F4DAAA" d="M242.258,307.486c0,0,0.255,2.548,0,2.803c-0.255,0.255-0.701,0.255-0.764,0.446
						c-0.064,0.191-3.504,6.625-6.816,6.816v-12.358C234.678,305.193,239.71,304.493,242.258,307.486z"/>
					<path fill="#FFEEBD" d="M227.097,307.486c0,0-0.255,2.548,0,2.803c0.255,0.255,0.701,0.255,0.764,0.446
						c0.064,0.191,3.504,6.625,6.816,6.816v-12.358C234.678,305.193,229.645,304.493,227.097,307.486z"/>
					<path fill="#F4DAAA" d="M242.258,307.486c0,0,0.255,2.548,0,2.803c-0.255,0.255-0.701,0.255-0.764,0.446
						c-0.064,0.191-3.504,6.625-6.816,6.816v-12.358C234.678,305.193,239.71,304.493,242.258,307.486z"/>
					<path fill="#FFEEBD" d="M227.097,307.486c0,0-0.255,2.548,0,2.803c0.255,0.255,0.701,0.255,0.764,0.446
						c0.064,0.191,3.504,6.625,6.816,6.816v-12.358C234.678,305.193,229.645,304.493,227.097,307.486z"/>
					<path fill="#F4DAAA" d="M242.258,307.486c0,0,0.255,2.548,0,2.803c-0.255,0.255-0.701,0.255-0.764,0.446
						c-0.064,0.191-3.504,6.625-6.816,6.816v-12.358C234.678,305.193,239.71,304.493,242.258,307.486z"/>
					<path fill="#FFEEBD" d="M227.097,307.486c0,0-0.255,2.548,0,2.803c0.255,0.255,0.701,0.255,0.764,0.446
						c0.064,0.191,3.504,6.625,6.816,6.816v-12.358C234.678,305.193,229.645,304.493,227.097,307.486z"/>
					<path fill="#F4DAAA" d="M242.258,307.486c0,0,0.255,2.548,0,2.803c-0.255,0.255-0.701,0.255-0.764,0.446
						c-0.064,0.191-3.504,6.625-6.816,6.816v-12.358C234.678,305.193,239.71,304.493,242.258,307.486z"/>
					<path fill="#FFEEBD" d="M227.097,307.486c0,0-0.255,2.548,0,2.803c0.255,0.255,0.701,0.255,0.764,0.446
						c0.064,0.191,3.504,6.625,6.816,6.816v-12.358C234.678,305.193,229.645,304.493,227.097,307.486z"/>
					<path fill="#F4DAAA" d="M242.258,307.486c0,0,0.255,2.548,0,2.803c-0.255,0.255-0.701,0.255-0.764,0.446
						c-0.064,0.191-3.504,6.625-6.816,6.816v-12.358C234.678,305.193,239.71,304.493,242.258,307.486z"/>
					<path fill="#FFEEBD" d="M227.097,307.486c0,0-0.255,2.548,0,2.803c0.255,0.255,0.701,0.255,0.764,0.446
						c0.064,0.191,3.504,6.625,6.816,6.816v-12.358C234.678,305.193,229.645,304.493,227.097,307.486z"/>
					<path fill="#D5973D" d="M231.165,314.541l-3.744,0.877c0,0,4.672,4.395,6.031,4.565v-2.319
						C233.452,317.663,230.663,314.96,231.165,314.541z"/>
					<path fill="#F4DAAA" d="M242.258,307.486c0,0,0.255,2.548,0,2.803c-0.255,0.255-0.701,0.255-0.764,0.446
						c-0.064,0.191-3.504,6.625-6.816,6.816v-12.358C234.678,305.193,239.71,304.493,242.258,307.486z"/>
					<path fill="#FFEEBD" d="M227.097,307.486c0,0-0.255,2.548,0,2.803c0.255,0.255,0.701,0.255,0.764,0.446
						c0.064,0.191,3.504,6.625,6.816,6.816v-12.358C234.678,305.193,229.645,304.493,227.097,307.486z"/>
					<path fill="#F4DAAA" d="M242.258,307.486c0,0,0.255,2.548,0,2.803c-0.255,0.255-0.701,0.255-0.764,0.446
						c-0.064,0.191-3.504,6.625-6.816,6.816v-12.358C234.678,305.193,239.71,304.493,242.258,307.486z"/>
					<path fill="#FFEEBD" d="M234.678,305.193v-3.032c0,0-5.885,0.453-6.971,4.717C226.621,311.143,234.678,305.193,234.678,305.193
						z"/>
					<path fill="#F4DAAA" d="M234.678,305.193v-3.032c0,0,5.885,0.453,6.971,4.717C242.734,311.143,234.678,305.193,234.678,305.193
						z"/>
					<path fill="#464646" d="M227.707,306.879c0,0-2.236-7.202,6.971-7.839v3.121C234.678,302.161,228.92,303.952,227.707,306.879z"
						/>
					<g>
						<path fill="#D5973D" d="M228.163,300.109c0,0-0.432-3.68,0-3.808c0.432-0.127,6.514-3.143,6.514-3.143v6.95H228.163z"/>
						<path fill="#D1932C" d="M241.192,300.109c0,0,0.433-3.68,0-3.808c-0.432-0.127-6.514-3.143-6.514-3.143v6.95H241.192z"/>
					</g>
					<path fill="#383938" d="M234.678,302.161c0,0,0.913,5.167,6.971,4.717c0,0,2.869-7.711-6.971-7.839"/>
					<path fill="#FAC753" d="M227.821,302.959c0,0,6.76-6.018,13.928,0v-2.675c0,0-6.93-3.724-13.928,0V302.959z"/>
					<rect x="242.823" y="315.306" fill="#383938" width="3.822" height="1.083"/>
					<rect x="223.162" y="315.306" fill="#464646" width="3.822" height="1.083"/>
					<rect x="238.358" y="323.121" fill="#D5973D" width="6.376" height="1.244"/>
				</g>
				<g clip-path="url(#SVGID_6_)">
					<polygon fill="#464646" points="228.22,305.99 228.22,309.996 227.375,309.151 227.616,306.302 					"/>
					<polygon fill="#383938" points="240.756,305.99 240.756,309.996 241.601,309.151 241.36,306.302 					"/>
				</g>
			</g>
		</g>
		<g>
			<g>
				<g>
					<defs>
						<circle id="SVGID_7_" cx="179.45" cy="310.422" r="18.137"/>
					</defs>
					<use xlink:href="#SVGID_7_"  overflow="visible" fill="#425C75"/>
					<clipPath id="SVGID_8_">
						<use xlink:href="#SVGID_7_"  overflow="visible"/>
					</clipPath>
					<g clip-path="url(#SVGID_8_)">
						<path fill="#BE802B" d="M179.45,316.467h9.237c0,0,3.354-0.234,3.354,2.739c0,2.973,0,9.428,0,9.428H179.45V316.467z"/>
						<path fill="#BE802B" d="M179.45,316.467h-9.237c0,0-3.354-0.234-3.354,2.739c0,2.973,0,9.428,0,9.428h12.592V316.467z"/>
						<rect x="166.859" y="323.793" fill="#CE9041" width="25.184" height="4.841"/>
						<path fill="#383938" d="M175.345,314.874h8.21c0,0-2.682,13.25-4.105,13.76C178.028,329.144,175.345,314.874,175.345,314.874z
							"/>
						<path fill="#8D4B41" d="M170.214,307.485"/>
						<path fill="#FFEEBD" d="M171.87,306.402c0,0-0.255,2.548,0,2.803c0.255,0.255,0.701,0.255,0.764,0.446
							c0.064,0.191,3.504,6.625,6.816,6.816v-12.358C179.45,304.108,174.418,303.408,171.87,306.402z"/>
						<path fill="#F4DAAA" d="M187.031,306.402c0,0,0.255,2.548,0,2.803c-0.255,0.255-0.701,0.255-0.764,0.446
							c-0.064,0.191-3.504,6.625-6.816,6.816v-12.358C179.45,304.108,184.483,303.408,187.031,306.402z"/>
						<path fill="#FFEEBD" d="M171.87,306.402c0,0-0.255,2.548,0,2.803c0.255,0.255,0.701,0.255,0.764,0.446
							c0.064,0.191,3.504,6.625,6.816,6.816v-12.358C179.45,304.108,174.418,303.408,171.87,306.402z"/>
						<path fill="#F4DAAA" d="M187.031,306.402c0,0,0.255,2.548,0,2.803c-0.255,0.255-0.701,0.255-0.764,0.446
							c-0.064,0.191-3.504,6.625-6.816,6.816v-12.358C179.45,304.108,184.483,303.408,187.031,306.402z"/>
						<path fill="#FFEEBD" d="M171.87,306.402c0,0-0.255,2.548,0,2.803c0.255,0.255,0.701,0.255,0.764,0.446
							c0.064,0.191,3.504,6.625,6.816,6.816v-12.358C179.45,304.108,174.418,303.408,171.87,306.402z"/>
						<path fill="#F4DAAA" d="M187.031,306.402c0,0,0.255,2.548,0,2.803c-0.255,0.255-0.701,0.255-0.764,0.446
							c-0.064,0.191-3.504,6.625-6.816,6.816v-12.358C179.45,304.108,184.483,303.408,187.031,306.402z"/>
						<path fill="#FFEEBD" d="M171.87,306.402c0,0-0.255,2.548,0,2.803c0.255,0.255,0.701,0.255,0.764,0.446
							c0.064,0.191,3.504,6.625,6.816,6.816v-12.358C179.45,304.108,174.418,303.408,171.87,306.402z"/>
						<path fill="#F4DAAA" d="M187.031,306.402c0,0,0.255,2.548,0,2.803c-0.255,0.255-0.701,0.255-0.764,0.446
							c-0.064,0.191-3.504,6.625-6.816,6.816v-12.358C179.45,304.108,184.483,303.408,187.031,306.402z"/>
						<path fill="#FFEEBD" d="M171.87,306.402c0,0-0.255,2.548,0,2.803c0.255,0.255,0.701,0.255,0.764,0.446
							c0.064,0.191,3.504,6.625,6.816,6.816v-12.358C179.45,304.108,174.418,303.408,171.87,306.402z"/>
						<path fill="#F4DAAA" d="M187.031,306.402c0,0,0.255,2.548,0,2.803c-0.255,0.255-0.701,0.255-0.764,0.446
							c-0.064,0.191-3.504,6.625-6.816,6.816v-12.358C179.45,304.108,184.483,303.408,187.031,306.402z"/>
						<path fill="#FFEEBD" d="M171.87,306.402c0,0-0.255,2.548,0,2.803c0.255,0.255,0.701,0.255,0.764,0.446
							c0.064,0.191,3.504,6.625,6.816,6.816v-12.358C179.45,304.108,174.418,303.408,171.87,306.402z"/>
						<path fill="#F4DAAA" d="M187.031,306.402c0,0,0.255,2.548,0,2.803c-0.255,0.255-0.701,0.255-0.764,0.446
							c-0.064,0.191-3.504,6.625-6.816,6.816v-12.358C179.45,304.108,184.483,303.408,187.031,306.402z"/>
						<path fill="#FFEEBD" d="M171.87,306.402c0,0-0.255,2.548,0,2.803c0.255,0.255,0.701,0.255,0.764,0.446
							c0.064,0.191,3.504,6.625,6.816,6.816v-12.358C179.45,304.108,174.418,303.408,171.87,306.402z"/>
						<path fill="#F4DAAA" d="M187.031,306.402c0,0,0.255,2.548,0,2.803c-0.255,0.255-0.701,0.255-0.764,0.446
							c-0.064,0.191-3.504,6.625-6.816,6.816v-12.358C179.45,304.108,184.483,303.408,187.031,306.402z"/>
						<path fill="#FFEEBD" d="M171.87,306.402c0,0-0.255,2.548,0,2.803c0.255,0.255,0.701,0.255,0.764,0.446
							c0.064,0.191,3.504,6.625,6.816,6.816v-12.358C179.45,304.108,174.418,303.408,171.87,306.402z"/>
						<path fill="#F4DAAA" d="M187.031,306.402c0,0,0.255,2.548,0,2.803c-0.255,0.255-0.701,0.255-0.764,0.446
							c-0.064,0.191-3.504,6.625-6.816,6.816v-12.358C179.45,304.108,184.483,303.408,187.031,306.402z"/>
						<path fill="#FFEEBD" d="M171.87,306.402c0,0-0.255,2.548,0,2.803c0.255,0.255,0.701,0.255,0.764,0.446
							c0.064,0.191,3.504,6.625,6.816,6.816v-12.358C179.45,304.108,174.418,303.408,171.87,306.402z"/>
						<path fill="#F4DAAA" d="M187.031,306.402c0,0,0.255,2.548,0,2.803c-0.255,0.255-0.701,0.255-0.764,0.446
							c-0.064,0.191-3.504,6.625-6.816,6.816v-12.358C179.45,304.108,184.483,303.408,187.031,306.402z"/>
					</g>
				</g>
			</g>
			<path fill="#5A3F28" d="M171.87,306.402c0,0,0.545,1.085,0.657,1.476c0.112,0.391-0.655-1.719,1.508-2.848
				c2.568-1.34,10.665-1.252,12.228,1.188v2.05l0.769-1.867c0,0,0.051-5.001-1.383-6.397c-1.434-1.396-2.457-2.233-6.198-2.68
				c-2.158-0.258-4.299,0.469-5.751-0.034c0,0,0.558,2.044,0.726,2.1s-2.903-0.168-3.294-1.34c0,0-0.782,1.508,0,2.066
				s-1.005,0.614-1.117,0.391c-0.112-0.223-0.223,0.614,0.558,1.508C171.354,302.908,171.87,306.402,171.87,306.402z"/>
			<path fill="#E4B84E" d="M175.345,314.874l-3.768,1.593c0,0,5.282,10.863,7.303,11.745L175.345,314.874z"/>
			<path fill="#E4B84E" d="M183.533,314.874l3.767,1.593c0,0-5.281,10.863-7.303,11.745L183.533,314.874z"/>
		</g>
		<g>
			<g>
				<g>
					<circle fill="#7F6C67" cx="179.45" cy="263.367" r="18.137"/>
					<g>
						<defs>
							<circle id="SVGID_9_" cx="179.45" cy="263.367" r="18.137"/>
						</defs>
						<clipPath id="SVGID_10_">
							<use xlink:href="#SVGID_9_"  overflow="visible"/>
						</clipPath>
						<g clip-path="url(#SVGID_10_)">
							<g>
								<g>
									<path fill="#EB635B" d="M172.303,268.347h-2.644c0,0-2.521-0.34-2.521,2.835s0,10.649,0,10.649h12.312v-13.494
										L172.303,268.347z"/>
									<path fill="#FFFFFF" d="M175.682,267.641c0.02,0.43,3.768,14.189,3.768,14.189v-11.238L175.682,267.641z"/>
								</g>
								<g>
									<path fill="#CC5B51" d="M186.598,268.347h2.644c0,0,2.521-0.34,2.521,2.835s0,10.649,0,10.649H179.45v-13.494
										L186.598,268.347z"/>
									<path fill="#FFFFFF" d="M183.219,267.641c-0.02,0.43-3.768,14.189-3.768,14.189v-11.238L183.219,267.641z"/>
								</g>
							</g>
							<g>
								<path fill="#FFEEBD" d="M172.463,259.184c-0.208,0.18-0.408,0.376-0.593,0.594c0,0-0.255,2.548,0,2.803
									c0.255,0.255,0.701,0.255,0.764,0.446c0.064,0.191,3.504,6.625,6.816,6.816v-12.358v-6.79
									C172.704,250.09,172.416,257.223,172.463,259.184z"/>
								<path fill="#F4DAAA" d="M187.031,259.778c0,0-0.107-9.72-7.581-9.083v6.79v12.358c3.313-0.191,6.753-6.625,6.816-6.816
									c0.064-0.191,0.51-0.191,0.764-0.446C187.286,262.326,187.031,259.778,187.031,259.778z"/>
							</g>
							<path fill="#252627" d="M188.114,256.381c-2.123-7.559-8.664-6.45-8.664-6.45c-12.74,2.213-8.409,15.199-8.409,15.199v9.428
								l3.313,2.718v-16.733c0.537-0.145,1.016-0.314,1.446-0.498c1.743-0.651,4.692-1.919,6.745-3.683
								c0.576,0.38,1.149,1.018,1.642,2.058c1.849,3.907-0.89,18.856-0.89,18.856l4.222-2.463v-9.258
								C187.52,265.554,190.237,263.94,188.114,256.381z"/>
							<path fill="#252627" d="M185.721,261.745l-0.229-0.112c-0.01,0.02-0.984,1.984-2.996,4.242
								c-0.075-0.042-0.164-0.067-0.259-0.067c-0.267,0-0.484,0.19-0.484,0.425c0,0.235,0.217,0.425,0.484,0.425
								c0.267,0,0.484-0.19,0.484-0.425c0-0.063-0.017-0.123-0.045-0.176C184.72,263.766,185.711,261.765,185.721,261.745z"/>
						</g>
						<g clip-path="url(#SVGID_10_)">
							<path fill="#252627" d="M187.157,253.953c0,0,4.347,8.327,0.375,20.856L187.157,253.953z"/>
							<path fill="#252627" d="M172.194,253.953c0,0-4.133,4.08-1.14,20.601L172.194,253.953z"/>
						</g>
					</g>
				</g>
			</g>
			<g>
				<g>
					<circle fill="#7F6C67" cx="179.45" cy="263.367" r="18.137"/>
					<g>
						<defs>
							<circle id="SVGID_11_" cx="179.45" cy="263.367" r="18.137"/>
						</defs>
						<clipPath id="SVGID_12_">
							<use xlink:href="#SVGID_11_"  overflow="visible"/>
						</clipPath>
						<g clip-path="url(#SVGID_12_)">
							<g>
								<g>
									<path fill="#EB635B" d="M172.303,268.347h-2.644c0,0-2.521-0.34-2.521,2.835s0,10.649,0,10.649h12.312v-13.494
										L172.303,268.347z"/>
									<path fill="#FFFFFF" d="M175.682,267.641c0.02,0.43,3.768,14.189,3.768,14.189v-11.238L175.682,267.641z"/>
								</g>
								<g>
									<path fill="#CC5B51" d="M186.598,268.347h2.644c0,0,2.521-0.34,2.521,2.835s0,10.649,0,10.649H179.45v-13.494
										L186.598,268.347z"/>
									<path fill="#FFFFFF" d="M183.219,267.641c-0.02,0.43-3.768,14.189-3.768,14.189v-11.238L183.219,267.641z"/>
								</g>
							</g>
							<g>
								<path fill="#FFEEBD" d="M172.463,259.184c-0.208,0.18-0.408,0.376-0.593,0.594c0,0-0.255,2.548,0,2.803
									c0.255,0.255,0.701,0.255,0.764,0.446c0.064,0.191,3.504,6.625,6.816,6.816v-12.358v-6.79
									C172.704,250.09,172.416,257.223,172.463,259.184z"/>
								<path fill="#F4DAAA" d="M187.031,259.778c0,0-0.107-9.72-7.581-9.083v6.79v12.358c3.313-0.191,6.753-6.625,6.816-6.816
									c0.064-0.191,0.51-0.191,0.764-0.446C187.286,262.326,187.031,259.778,187.031,259.778z"/>
							</g>
							<path fill="#252627" d="M188.114,256.381c-2.123-7.559-8.664-6.45-8.664-6.45c-12.74,2.213-8.409,15.199-8.409,15.199v9.428
								l3.313,2.718v-16.733c0.537-0.145,1.016-0.314,1.446-0.498c1.743-0.651,4.692-1.919,6.745-3.683
								c0.576,0.38,1.149,1.018,1.642,2.058c1.849,3.907-0.89,18.856-0.89,18.856l4.222-2.463v-9.258
								C187.52,265.554,190.237,263.94,188.114,256.381z"/>
							<path fill="#252627" d="M185.721,261.745l-0.229-0.112c-0.01,0.02-0.984,1.984-2.996,4.242
								c-0.075-0.042-0.164-0.067-0.259-0.067c-0.267,0-0.484,0.19-0.484,0.425c0,0.235,0.217,0.425,0.484,0.425
								c0.267,0,0.484-0.19,0.484-0.425c0-0.063-0.017-0.123-0.045-0.176C184.72,263.766,185.711,261.765,185.721,261.745z"/>
						</g>
						<g clip-path="url(#SVGID_12_)">
							<path fill="#252627" d="M187.157,253.953c0,0,4.347,8.327,0.375,20.856L187.157,253.953z"/>
							<path fill="#252627" d="M172.194,253.953c0,0-4.133,4.08-1.14,20.601L172.194,253.953z"/>
						</g>
					</g>
				</g>
			</g>
			<g>
				<g>
					<circle fill="#7F6C67" cx="179.45" cy="263.367" r="18.137"/>
					<g>
						<defs>
							<circle id="SVGID_13_" cx="179.45" cy="263.367" r="18.137"/>
						</defs>
						<clipPath id="SVGID_14_">
							<use xlink:href="#SVGID_13_"  overflow="visible"/>
						</clipPath>
						<g clip-path="url(#SVGID_14_)">
							<g>
								<g>
									<path fill="#EB635B" d="M172.303,268.347h-2.644c0,0-2.521-0.34-2.521,2.835s0,10.649,0,10.649h12.312v-13.494
										L172.303,268.347z"/>
									<path fill="#FFFFFF" d="M175.682,267.641c0.02,0.43,3.768,14.189,3.768,14.189v-11.238L175.682,267.641z"/>
								</g>
								<g>
									<path fill="#CC5B51" d="M186.598,268.347h2.644c0,0,2.521-0.34,2.521,2.835s0,10.649,0,10.649H179.45v-13.494
										L186.598,268.347z"/>
									<path fill="#FFFFFF" d="M183.219,267.641c-0.02,0.43-3.768,14.189-3.768,14.189v-11.238L183.219,267.641z"/>
								</g>
							</g>
							<g>
								<path fill="#FFEEBD" d="M172.463,259.184c-0.208,0.18-0.408,0.376-0.593,0.594c0,0-0.255,2.548,0,2.803
									c0.255,0.255,0.701,0.255,0.764,0.446c0.064,0.191,3.504,6.625,6.816,6.816v-12.358v-6.79
									C172.704,250.09,172.416,257.223,172.463,259.184z"/>
								<path fill="#F4DAAA" d="M187.031,259.778c0,0-0.107-9.72-7.581-9.083v6.79v12.358c3.313-0.191,6.753-6.625,6.816-6.816
									c0.064-0.191,0.51-0.191,0.764-0.446C187.286,262.326,187.031,259.778,187.031,259.778z"/>
							</g>
							<g>
								<path fill="#FFEEBD" d="M172.463,259.184c-0.208,0.18-0.408,0.376-0.593,0.594c0,0-0.255,2.548,0,2.803
									c0.255,0.255,0.701,0.255,0.764,0.446c0.064,0.191,3.504,6.625,6.816,6.816v-12.358v-6.79
									C172.704,250.09,172.416,257.223,172.463,259.184z"/>
								<path fill="#F4DAAA" d="M187.031,259.778c0,0-0.107-9.72-7.581-9.083v6.79v12.358c3.313-0.191,6.753-6.625,6.816-6.816
									c0.064-0.191,0.51-0.191,0.764-0.446C187.286,262.326,187.031,259.778,187.031,259.778z"/>
							</g>
							<g>
								<path fill="#FFEEBD" d="M172.463,259.184c-0.208,0.18-0.408,0.376-0.593,0.594c0,0-0.255,2.548,0,2.803
									c0.255,0.255,0.701,0.255,0.764,0.446c0.064,0.191,3.504,6.625,6.816,6.816v-12.358v-6.79
									C172.704,250.09,172.416,257.223,172.463,259.184z"/>
								<path fill="#F4DAAA" d="M187.031,259.778c0,0-0.107-9.72-7.581-9.083v6.79v12.358c3.313-0.191,6.753-6.625,6.816-6.816
									c0.064-0.191,0.51-0.191,0.764-0.446C187.286,262.326,187.031,259.778,187.031,259.778z"/>
							</g>
							<g>
								<path fill="#FFEEBD" d="M172.463,259.184c-0.208,0.18-0.408,0.376-0.593,0.594c0,0-0.255,2.548,0,2.803
									c0.255,0.255,0.701,0.255,0.764,0.446c0.064,0.191,3.504,6.625,6.816,6.816v-12.358v-6.79
									C172.704,250.09,172.416,257.223,172.463,259.184z"/>
								<path fill="#F4DAAA" d="M187.031,259.778c0,0-0.107-9.72-7.581-9.083v6.79v12.358c3.313-0.191,6.753-6.625,6.816-6.816
									c0.064-0.191,0.51-0.191,0.764-0.446C187.286,262.326,187.031,259.778,187.031,259.778z"/>
							</g>
							<g>
								<path fill="#FFEEBD" d="M172.463,259.184c-0.208,0.18-0.408,0.376-0.593,0.594c0,0-0.255,2.548,0,2.803
									c0.255,0.255,0.701,0.255,0.764,0.446c0.064,0.191,3.504,6.625,6.816,6.816v-12.358v-6.79
									C172.704,250.09,172.416,257.223,172.463,259.184z"/>
								<path fill="#F4DAAA" d="M187.031,259.778c0,0-0.107-9.72-7.581-9.083v6.79v12.358c3.313-0.191,6.753-6.625,6.816-6.816
									c0.064-0.191,0.51-0.191,0.764-0.446C187.286,262.326,187.031,259.778,187.031,259.778z"/>
							</g>
							<g>
								<path fill="#FFEEBD" d="M172.463,259.184c-0.208,0.18-0.408,0.376-0.593,0.594c0,0-0.255,2.548,0,2.803
									c0.255,0.255,0.701,0.255,0.764,0.446c0.064,0.191,3.504,6.625,6.816,6.816v-12.358v-6.79
									C172.704,250.09,172.416,257.223,172.463,259.184z"/>
								<path fill="#F4DAAA" d="M187.031,259.778c0,0-0.107-9.72-7.581-9.083v6.79v12.358c3.313-0.191,6.753-6.625,6.816-6.816
									c0.064-0.191,0.51-0.191,0.764-0.446C187.286,262.326,187.031,259.778,187.031,259.778z"/>
							</g>
							<g>
								<path fill="#FFEEBD" d="M172.463,259.184c-0.208,0.18-0.408,0.376-0.593,0.594c0,0-0.255,2.548,0,2.803
									c0.255,0.255,0.701,0.255,0.764,0.446c0.064,0.191,3.504,6.625,6.816,6.816v-12.358v-6.79
									C172.704,250.09,172.416,257.223,172.463,259.184z"/>
								<path fill="#F4DAAA" d="M187.031,259.778c0,0-0.107-9.72-7.581-9.083v6.79v12.358c3.313-0.191,6.753-6.625,6.816-6.816
									c0.064-0.191,0.51-0.191,0.764-0.446C187.286,262.326,187.031,259.778,187.031,259.778z"/>
							</g>
							<g>
								<path fill="#FFEEBD" d="M172.463,259.184c-0.208,0.18-0.408,0.376-0.593,0.594c0,0-0.255,2.548,0,2.803
									c0.255,0.255,0.701,0.255,0.764,0.446c0.064,0.191,3.504,6.625,6.816,6.816v-12.358v-6.79
									C172.704,250.09,172.416,257.223,172.463,259.184z"/>
								<path fill="#F4DAAA" d="M187.031,259.778c0,0-0.107-9.72-7.581-9.083v6.79v12.358c3.313-0.191,6.753-6.625,6.816-6.816
									c0.064-0.191,0.51-0.191,0.764-0.446C187.286,262.326,187.031,259.778,187.031,259.778z"/>
							</g>
							<g>
								<path fill="#FFEEBD" d="M172.463,259.184c-0.208,0.18-0.408,0.376-0.593,0.594c0,0-0.255,2.548,0,2.803
									c0.255,0.255,0.701,0.255,0.764,0.446c0.064,0.191,3.504,6.625,6.816,6.816v-12.358v-6.79
									C172.704,250.09,172.416,257.223,172.463,259.184z"/>
								<path fill="#F4DAAA" d="M186.808,259.815c0,0-0.107-9.72-7.581-9.083v6.79v12.358c3.313-0.191,6.753-6.625,6.816-6.816
									c0.064-0.191,0.51-0.191,0.764-0.446C187.063,262.363,186.808,259.815,186.808,259.815z"/>
							</g>
							<path fill="#252627" d="M188.114,256.381c-2.123-7.559-8.664-6.45-8.664-6.45c-12.74,2.213-8.409,15.199-8.409,15.199v9.428
								l3.313,2.718v-16.733c0.537-0.145,1.016-0.314,1.446-0.498c1.743-0.651,4.692-1.919,6.745-3.683
								c0.576,0.38,1.149,1.018,1.642,2.058c1.849,3.907-0.89,18.856-0.89,18.856l4.222-2.463v-9.258
								C187.52,265.554,190.237,263.94,188.114,256.381z"/>
							<path fill="#252627" d="M185.721,261.745l-0.229-0.112c-0.01,0.02-0.984,1.984-2.996,4.242
								c-0.075-0.042-0.164-0.067-0.259-0.067c-0.267,0-0.484,0.19-0.484,0.425c0,0.235,0.217,0.425,0.484,0.425
								c0.267,0,0.484-0.19,0.484-0.425c0-0.063-0.017-0.123-0.045-0.176C184.72,263.766,185.711,261.765,185.721,261.745z"/>
						</g>
						<g clip-path="url(#SVGID_14_)">
							<path fill="#252627" d="M187.157,253.953c0,0,4.347,8.327,0.375,20.856L187.157,253.953z"/>
							<path fill="#252627" d="M172.194,253.953c0,0-4.133,4.08-1.14,20.601L172.194,253.953z"/>
						</g>
					</g>
				</g>
			</g>
			<path fill="#CC5B51" d="M179.395,269.865l-1.087-0.167c0,0,1.142,11.973,1.142,11.806c0,0.167,1.142-11.806,1.142-11.806
				L179.395,269.865z"/>
		</g>
		<g>
			<g>
				<circle fill="#7F6C67" cx="124.668" cy="263.367" r="18.137"/>
				<g>
					<defs>
						<circle id="SVGID_15_" cx="124.668" cy="263.367" r="18.137"/>
					</defs>
					<clipPath id="SVGID_16_">
						<use xlink:href="#SVGID_15_"  overflow="visible"/>
					</clipPath>
					<g clip-path="url(#SVGID_16_)">
						<g>
							<path fill="#F3F3F3" d="M116.63,271.598h-2.973c0,0-2.835-0.34-2.835,2.835s0,10.649,0,10.649h13.845v-13.494L116.63,271.598
								z"/>
							<path fill="#FFFFFF" d="M120.43,270.892c0.022,0.43,4.237,14.189,4.237,14.189v-11.238L120.43,270.892z"/>
							<path fill="#E0E1E0" d="M121.159,270.722l-3.744,0.877c0,0,4.672,4.395,6.031,4.565v-2.319
								C123.445,273.844,120.657,271.141,121.159,270.722z"/>
						</g>
						<g>
							<path fill="#E5E5E5" d="M132.705,271.598h2.973c0,0,2.835-0.34,2.835,2.835s0,10.649,0,10.649h-13.845v-13.494
								L132.705,271.598z"/>
							<path fill="#FFFFFF" d="M128.905,270.892c-0.022,0.43-4.237,14.189-4.237,14.189v-11.238L128.905,270.892z"/>
							<path fill="#D1D2D1" d="M128.176,270.722l3.744,0.877c0,0-4.672,4.395-6.031,4.565v-2.319
								C125.89,273.844,128.678,271.141,128.176,270.722z"/>
						</g>
						<rect x="132.705" y="271.598" fill="#D1D2D1" width="3.822" height="1.082"/>
						<rect x="113.044" y="271.598" fill="#E0E1E0" width="3.822" height="1.082"/>
						<g>
							<path fill="#FFEEBD" d="M117.087,263.777c0,0-0.255,2.548,0,2.803c0.255,0.255,0.701,0.255,0.764,0.446
								c0.064,0.191,3.504,6.625,6.816,6.816v-12.358C124.668,261.484,119.635,260.783,117.087,263.777z"/>
							<path fill="#F4DAAA" d="M132.248,263.777c0,0,0.255,2.548,0,2.803c-0.255,0.255-0.701,0.255-0.764,0.446
								c-0.064,0.191-3.504,6.625-6.816,6.816v-12.358C124.668,261.484,129.7,260.783,132.248,263.777z"/>
							<path fill="#E0E1E0" d="M117.087,263.777c0,0,6.638-5.082,15.161,0v-5.705c0,0-7.929-4.756-15.161,0V263.777z"/>
							<path fill="#F3F3F3" d="M124.893,248.145c0-1.478-1.198-2.676-2.676-2.676c-1.457,0-2.639,1.165-2.672,2.614
								c-0.21-0.068-0.434-0.106-0.667-0.106c-1.196,0-2.166,0.97-2.166,2.166c0,0.887,0.534,1.649,1.298,1.984v5.738
								c2.8-1.449,6.881-1.684,6.881-1.684v-7.399c-0.026,0-0.052,0.001-0.078,0.002
								C124.863,248.579,124.893,248.366,124.893,248.145z"/>
							<path fill="#E5E5E5" d="M124.669,248.145c0-1.478,1.198-2.676,2.676-2.676c1.457,0,2.639,1.165,2.672,2.614
								c0.21-0.068,0.434-0.106,0.667-0.106c1.196,0,2.166,0.97,2.166,2.166c0,0.887-0.534,1.649-1.298,1.984v5.738
								c-2.8-1.449-6.881-1.684-6.881-1.684v-7.399c0.026,0,0.052,0.001,0.078,0.002
								C124.699,248.579,124.669,248.366,124.669,248.145z"/>
						</g>
						<path fill="#D7983E" d="M118.861,262.765c0,0,0.117,2.144-0.775,2.781v-2.392L118.861,262.765z"/>
						<path fill="#D7983E" d="M130.425,262.765c0,0-0.117,2.144,0.775,2.781v-2.392L130.425,262.765z"/>
					</g>
				</g>
				<g>
					<defs>
						<circle id="SVGID_17_" cx="124.668" cy="263.367" r="18.137"/>
					</defs>
					<clipPath id="SVGID_18_">
						<use xlink:href="#SVGID_17_"  overflow="visible"/>
					</clipPath>
					<g clip-path="url(#SVGID_18_)">
						<g>
							<path fill="#F3F3F3" d="M116.63,271.598h-2.973c0,0-2.835-0.34-2.835,2.835s0,10.649,0,10.649h13.845v-13.494L116.63,271.598
								z"/>
							<path fill="#FFFFFF" d="M120.43,270.892c0.022,0.43,4.237,14.189,4.237,14.189v-11.238L120.43,270.892z"/>
							<path fill="#E0E1E0" d="M121.159,270.722l-3.744,0.877c0,0,4.672,4.395,6.031,4.565v-2.319
								C123.445,273.844,120.657,271.141,121.159,270.722z"/>
						</g>
						<g>
							<path fill="#E5E5E5" d="M132.705,271.598h2.973c0,0,2.835-0.34,2.835,2.835s0,10.649,0,10.649h-13.845v-13.494
								L132.705,271.598z"/>
							<path fill="#FFFFFF" d="M128.905,270.892c-0.022,0.43-4.237,14.189-4.237,14.189v-11.238L128.905,270.892z"/>
							<path fill="#D1D2D1" d="M128.176,270.722l3.744,0.877c0,0-4.672,4.395-6.031,4.565v-2.319
								C125.89,273.844,128.678,271.141,128.176,270.722z"/>
						</g>
						<rect x="132.705" y="271.598" fill="#D1D2D1" width="3.822" height="1.082"/>
						<rect x="113.044" y="271.598" fill="#E0E1E0" width="3.822" height="1.082"/>
						<g>
							<path fill="#FFEEBD" d="M117.087,263.777c0,0-0.255,2.548,0,2.803c0.255,0.255,0.701,0.255,0.764,0.446
								c0.064,0.191,3.504,6.625,6.816,6.816v-12.358C124.668,261.484,119.635,260.783,117.087,263.777z"/>
							<path fill="#F4DAAA" d="M132.248,263.777c0,0,0.255,2.548,0,2.803c-0.255,0.255-0.701,0.255-0.764,0.446
								c-0.064,0.191-3.504,6.625-6.816,6.816v-12.358C124.668,261.484,129.7,260.783,132.248,263.777z"/>
							<path fill="#FFEEBD" d="M117.087,263.777c0,0-0.255,2.548,0,2.803c0.255,0.255,0.701,0.255,0.764,0.446
								c0.064,0.191,3.504,6.625,6.816,6.816v-12.358C124.668,261.484,119.635,260.783,117.087,263.777z"/>
							<path fill="#F4DAAA" d="M132.248,263.777c0,0,0.255,2.548,0,2.803c-0.255,0.255-0.701,0.255-0.764,0.446
								c-0.064,0.191-3.504,6.625-6.816,6.816v-12.358C124.668,261.484,129.7,260.783,132.248,263.777z"/>
							<path fill="#FFEEBD" d="M117.087,263.777c0,0-0.255,2.548,0,2.803c0.255,0.255,0.701,0.255,0.764,0.446
								c0.064,0.191,3.504,6.625,6.816,6.816v-12.358C124.668,261.484,119.635,260.783,117.087,263.777z"/>
							<path fill="#F4DAAA" d="M132.248,263.777c0,0,0.255,2.548,0,2.803c-0.255,0.255-0.701,0.255-0.764,0.446
								c-0.064,0.191-3.504,6.625-6.816,6.816v-12.358C124.668,261.484,129.7,260.783,132.248,263.777z"/>
							<path fill="#FFEEBD" d="M117.087,263.777c0,0-0.255,2.548,0,2.803c0.255,0.255,0.701,0.255,0.764,0.446
								c0.064,0.191,3.504,6.625,6.816,6.816v-12.358C124.668,261.484,119.635,260.783,117.087,263.777z"/>
							<path fill="#F4DAAA" d="M132.248,263.777c0,0,0.255,2.548,0,2.803c-0.255,0.255-0.701,0.255-0.764,0.446
								c-0.064,0.191-3.504,6.625-6.816,6.816v-12.358C124.668,261.484,129.7,260.783,132.248,263.777z"/>
							<path fill="#FFEEBD" d="M117.087,263.777c0,0-0.255,2.548,0,2.803c0.255,0.255,0.701,0.255,0.764,0.446
								c0.064,0.191,3.504,6.625,6.816,6.816v-12.358C124.668,261.484,119.635,260.783,117.087,263.777z"/>
							<path fill="#F4DAAA" d="M132.248,263.777c0,0,0.255,2.548,0,2.803c-0.255,0.255-0.701,0.255-0.764,0.446
								c-0.064,0.191-3.504,6.625-6.816,6.816v-12.358C124.668,261.484,129.7,260.783,132.248,263.777z"/>
							<path fill="#FFEEBD" d="M117.087,263.777c0,0-0.255,2.548,0,2.803c0.255,0.255,0.701,0.255,0.764,0.446
								c0.064,0.191,3.504,6.625,6.816,6.816v-12.358C124.668,261.484,119.635,260.783,117.087,263.777z"/>
							<path fill="#F4DAAA" d="M132.248,263.777c0,0,0.255,2.548,0,2.803c-0.255,0.255-0.701,0.255-0.764,0.446
								c-0.064,0.191-3.504,6.625-6.816,6.816v-12.358C124.668,261.484,129.7,260.783,132.248,263.777z"/>
							<path fill="#FFEEBD" d="M117.087,263.777c0,0-0.255,2.548,0,2.803c0.255,0.255,0.701,0.255,0.764,0.446
								c0.064,0.191,3.504,6.625,6.816,6.816v-12.358C124.668,261.484,119.635,260.783,117.087,263.777z"/>
							<path fill="#F4DAAA" d="M132.248,263.777c0,0,0.255,2.548,0,2.803c-0.255,0.255-0.701,0.255-0.764,0.446
								c-0.064,0.191-3.504,6.625-6.816,6.816v-12.358C124.668,261.484,129.7,260.783,132.248,263.777z"/>
							<path fill="#E0E1E0" d="M117.087,263.777c0,0,6.638-5.082,15.161,0v-5.705c0,0-7.929-4.756-15.161,0V263.777z"/>
						</g>
						<path fill="#D7983E" d="M118.861,262.765c0,0,0.117,2.144-0.775,2.781v-2.392L118.861,262.765z"/>
						<path fill="#D7983E" d="M130.425,262.765c0,0-0.117,2.144,0.775,2.781v-2.392L130.425,262.765z"/>
					</g>
				</g>
			</g>
			<polygon fill="#FFFFFF" points="124.28,273.791 124.668,273.842 125.056,273.791 124.668,281.504 			"/>
		</g>
		<g>
			<g>
				<circle fill="#8BA18D" cx="179.45" cy="216.667" r="18.137"/>
				<g>
					<defs>
						<circle id="SVGID_19_" cx="179.45" cy="216.667" r="18.137"/>
					</defs>
					<clipPath id="SVGID_20_">
						<use xlink:href="#SVGID_19_"  overflow="visible"/>
					</clipPath>
					<g clip-path="url(#SVGID_20_)">
						<g>
							<g>
								<path fill="#775233" d="M171.413,221.183h-2.973c0,0-2.835-0.34-2.835,2.835c0,3.174,0,10.649,0,10.649h13.845v-13.494
									L171.413,221.183z"/>
								<path fill="#FFFFFF" d="M175.213,220.477c0.022,0.43,4.237,14.189,4.237,14.189v-11.238L175.213,220.477z"/>
								<path fill="#5A3F28" d="M175.942,220.306l-3.744,0.877c0,0,4.672,4.395,6.031,4.565v-2.319
									C178.228,223.429,175.44,220.725,175.942,220.306z"/>
							</g>
							<path fill="#FFEEBD" d="M171.762,213.364c0,0-0.255,2.548,0,2.803c0.255,0.255,0.701,0.255,0.764,0.446
								c0.064,0.191,3.504,6.625,6.816,6.816V211.07C179.343,211.07,174.31,210.37,171.762,213.364z"/>
							<g>
								<path fill="#5A3F28" d="M187.488,221.183h2.973c0,0,2.835-0.34,2.835,2.835c0,3.174,0,10.649,0,10.649H179.45v-13.494
									L187.488,221.183z"/>
								<path fill="#FFFFFF" d="M183.688,220.477c-0.022,0.43-4.237,14.189-4.237,14.189v-11.238L183.688,220.477z"/>
								<path fill="#5A3F28" d="M182.959,220.306l3.744,0.877c0,0-4.671,4.395-6.03,4.565v-2.319
									C180.672,223.429,183.461,220.725,182.959,220.306z"/>
							</g>
							<path fill="#F4DAAA" d="M186.923,213.364c0,0,0.255,2.548,0,2.803c-0.255,0.255-0.701,0.255-0.764,0.446
								c-0.064,0.191-3.504,6.625-6.816,6.816V211.07C179.343,211.07,184.375,210.37,186.923,213.364z"/>
							<path fill="#FFEEBD" d="M171.762,213.364c0,0-0.255,2.548,0,2.803c0.255,0.255,0.701,0.255,0.764,0.446
								c0.064,0.191,3.504,6.625,6.816,6.816V211.07C179.343,211.07,174.31,210.37,171.762,213.364z"/>
							<path fill="#F4DAAA" d="M186.923,213.364c0,0,0.255,2.548,0,2.803c-0.255,0.255-0.701,0.255-0.764,0.446
								c-0.064,0.191-3.504,6.625-6.816,6.816V211.07C179.343,211.07,184.375,210.37,186.923,213.364z"/>
							<path fill="#FFEEBD" d="M171.762,213.364c0,0-0.255,2.548,0,2.803c0.255,0.255,0.701,0.255,0.764,0.446
								c0.064,0.191,3.504,6.625,6.816,6.816V211.07C179.343,211.07,174.31,210.37,171.762,213.364z"/>
							<path fill="#F4DAAA" d="M186.923,213.364c0,0,0.255,2.548,0,2.803c-0.255,0.255-0.701,0.255-0.764,0.446
								c-0.064,0.191-3.504,6.625-6.816,6.816V211.07C179.343,211.07,184.375,210.37,186.923,213.364z"/>
							<path fill="#FFEEBD" d="M171.762,213.364c0,0-0.255,2.548,0,2.803c0.255,0.255,0.701,0.255,0.764,0.446
								c0.064,0.191,3.504,6.625,6.816,6.816V211.07C179.343,211.07,174.31,210.37,171.762,213.364z"/>
							<path fill="#F4DAAA" d="M186.923,213.364c0,0,0.255,2.548,0,2.803c-0.255,0.255-0.701,0.255-0.764,0.446
								c-0.064,0.191-3.504,6.625-6.816,6.816V211.07C179.343,211.07,184.375,210.37,186.923,213.364z"/>
							<path fill="#FFEEBD" d="M171.762,213.364c0,0-0.255,2.548,0,2.803c0.255,0.255,0.701,0.255,0.764,0.446
								c0.064,0.191,3.504,6.625,6.816,6.816V211.07C179.343,211.07,174.31,210.37,171.762,213.364z"/>
							<path fill="#F4DAAA" d="M186.923,213.364c0,0,0.255,2.548,0,2.803c-0.255,0.255-0.701,0.255-0.764,0.446
								c-0.064,0.191-3.504,6.625-6.816,6.816V211.07C179.343,211.07,184.375,210.37,186.923,213.364z"/>
							<path fill="#FFEEBD" d="M171.762,213.364c0,0-0.255,2.548,0,2.803c0.255,0.255,0.701,0.255,0.764,0.446
								c0.064,0.191,3.504,6.625,6.816,6.816V211.07C179.343,211.07,174.31,210.37,171.762,213.364z"/>
							<path fill="#F4DAAA" d="M186.923,213.364c0,0,0.255,2.548,0,2.803c-0.255,0.255-0.701,0.255-0.764,0.446
								c-0.064,0.191-3.504,6.625-6.816,6.816V211.07C179.343,211.07,184.375,210.37,186.923,213.364z"/>
							<path fill="#FFEEBD" d="M171.762,213.364c0,0-0.255,2.548,0,2.803c0.255,0.255,0.701,0.255,0.764,0.446
								c0.064,0.191,3.504,6.625,6.816,6.816V211.07C179.343,211.07,174.31,210.37,171.762,213.364z"/>
							<path fill="#F4DAAA" d="M186.923,213.364c0,0,0.255,2.548,0,2.803c-0.255,0.255-0.701,0.255-0.764,0.446
								c-0.064,0.191-3.504,6.625-6.816,6.816V211.07C179.343,211.07,184.375,210.37,186.923,213.364z"/>
							<path fill="#FFEEBD" d="M171.762,213.364c0,0-0.255,2.548,0,2.803c0.255,0.255,0.701,0.255,0.764,0.446
								c0.064,0.191,3.504,6.625,6.816,6.816V211.07C179.343,211.07,174.31,210.37,171.762,213.364z"/>
							<path fill="#F4DAAA" d="M186.923,213.364c0,0,0.255,2.548,0,2.803c-0.255,0.255-0.701,0.255-0.764,0.446
								c-0.064,0.191-3.504,6.625-6.816,6.816V211.07C179.343,211.07,184.375,210.37,186.923,213.364z"/>
							<path fill="#FFEEBD" d="M171.762,213.364c0,0-0.255,2.548,0,2.803c0.255,0.255,0.701,0.255,0.764,0.446
								c0.064,0.191,3.504,6.625,6.816,6.816V211.07C179.343,211.07,174.31,210.37,171.762,213.364z"/>
							<path fill="#F4DAAA" d="M186.96,213.364c0,0,0.255,2.548,0,2.803c-0.255,0.255-0.701,0.255-0.764,0.446
								c-0.064,0.191-3.503,6.625-6.816,6.816V211.07C179.38,211.07,184.412,210.37,186.96,213.364z"/>
							<path fill="#FFEEBD" d="M179.343,211.07v-3.032c0,0-5.885,0.453-6.971,4.717C171.286,217.021,179.343,211.07,179.343,211.07z
								"/>
							<path fill="#F4DAAA" d="M179.343,211.07v-3.032c0,0,5.885,0.453,6.971,4.717C187.399,217.021,179.343,211.07,179.343,211.07z
								"/>
							<rect x="187.488" y="221.183" fill="#C2C1C0" width="3.822" height="1.082"/>
							<rect x="167.827" y="221.183" fill="#C2C1C0" width="3.822" height="1.082"/>
						</g>
						<path fill="#464646" d="M186.386,211.186c-0.133-6.485-6.157-6.281-8.304-6.002c-0.091-0.222-0.029-0.458,0.477-0.597
							c1.159-0.319-10.857,1.367-6.187,8.169l0.156,2.088c0,0,0.476-4.219,2.592-4.78c1.385,1.072,5.549,3.866,10.293,2.916
							c0.373,0.918,0.547,2.195,0.547,2.395c0-0.204,0-1.89,0-2.522c0.118-0.031,0.235-0.061,0.354-0.097
							C186.314,212.756,186.472,212.099,186.386,211.186z"/>
						<g>
							<path fill="#464646" d="M174.03,214.05h4.661c0,0-0.102,2.474-1.361,2.474C176.072,216.524,174.098,216.237,174.03,214.05z"
								/>
							<path fill="#464646" d="M184.87,214.05h-4.661c0,0,0.102,2.474,1.361,2.474C182.829,216.524,184.802,216.237,184.87,214.05z"
								/>
						</g>
						<path fill="none" stroke="#464646" stroke-width="0.4377" stroke-miterlimit="10" d="M178.356,214.761c0,0,0.787-1.237,2.19,0
							"/>
					</g>
				</g>
			</g>
			<path fill="#FFFFFF" d="M180.344,223.175l-0.893,11.491l-1.153-11.491C178.297,223.175,179.646,223.901,180.344,223.175z"/>
		</g>
		<g>
			<g>
				<g>
					<circle fill="#8BA18D" cx="124.668" cy="216.667" r="18.137"/>
					<g>
						<defs>
							<circle id="SVGID_21_" cx="124.668" cy="216.667" r="18.137"/>
						</defs>
						<clipPath id="SVGID_22_">
							<use xlink:href="#SVGID_21_"  overflow="visible"/>
						</clipPath>
						<g clip-path="url(#SVGID_22_)">
							<path fill="#3F4F60" d="M133.905,224.467h-9.238h-9.237c0,0-3.354-0.234-3.354,2.739c0,2.973,0,9.428,0,9.428h12.592h12.592
								c0,0,0-6.455,0-9.428C137.259,224.233,133.905,224.467,133.905,224.467z"/>
							<rect x="112.076" y="231.792" fill="#2F3740" width="25.184" height="4.841"/>
							<path fill="#FFEEBD" d="M117.31,214.402c0,0-0.255,2.548,0,2.803c0.255,0.255,0.701,0.255,0.764,0.446
								c0.064,0.191,3.504,6.625,6.816,6.816v-12.358C124.891,212.108,119.858,211.408,117.31,214.402z"/>
							<path fill="#F4DAAA" d="M132.248,214.402c0,0,0.255,2.548,0,2.803c-0.255,0.255-0.701,0.255-0.764,0.446
								c-0.064,0.191-3.504,6.625-6.816,6.816v-12.358C124.668,212.108,129.7,211.408,132.248,214.402z"/>
							<polygon fill="#464646" points="129.576,212.959 130.528,217.491 131.038,216.44 131.038,213.615 							"/>
							<polygon fill="#464646" points="119.699,212.959 118.747,217.491 118.237,216.44 118.237,213.615 							"/>
						</g>
					</g>
				</g>
			</g>
			<path fill="#3F4F60" d="M128.791,205.005c0,0-3.333,1.301-4.123-0.795c-0.79,2.096-4.123,0.795-4.123,0.795
				c-0.838,2.385-5.081,1.446-5.081,1.446l1.624,7.002l7.581-1.291l7.581,1.291l1.624-7.002
				C133.872,206.451,129.628,207.391,128.791,205.005z"/>
			<path fill="#2F3740" d="M117.087,213.452c0,0,9.165,3.733,15.161,0C132.248,213.452,125.802,208.419,117.087,213.452z"/>
			<path fill="#E8BF42" d="M126.129,207.543l-1.462-0.578l-1.462,0.578c0,0,0.02,2.776,1.462,3.181l0,0l0,0l0,0l0,0
				C126.109,210.319,126.129,207.543,126.129,207.543z"/>
			<polygon fill="#2A2B2D" points="124.864,225.8 125.399,225.055 124.668,224.467 123.937,225.055 124.471,225.8 123.206,234.746 
				124.668,234.804 126.129,234.746 			"/>
			<g>
				<polygon fill="#2F3740" points="125.096,224.467 126.422,224.299 131.525,224.311 126.129,226.73 				"/>
				<polygon fill="#2F3740" points="124.24,224.467 122.903,224.132 117.81,224.311 123.615,227.065 				"/>
			</g>
			<g>
				<rect x="132.248" y="224.467" fill="#E8BF42" width="0.636" height="2.078"/>
				<rect x="133.872" y="224.467" fill="#E8BF42" width="0.636" height="2.078"/>
			</g>
			<g>
				<rect x="115.051" y="224.467" fill="#E8BF42" width="0.636" height="2.078"/>
				<rect x="116.675" y="224.467" fill="#E8BF42" width="0.636" height="2.078"/>
			</g>
		</g>
		<g>
			<g>
				<circle fill="#425B77" cx="124.668" cy="310.422" r="18.137"/>
				<g>
					<defs>
						<circle id="SVGID_23_" cx="124.668" cy="310.422" r="18.137"/>
					</defs>
					<clipPath id="SVGID_24_">
						<use xlink:href="#SVGID_23_"  overflow="visible"/>
					</clipPath>
					<g clip-path="url(#SVGID_24_)">
						<path fill="#FFEEBD" d="M117.68,305.638c-0.209,0.18-0.408,0.376-0.593,0.594c0,0-0.255,2.548,0,2.803
							c0.255,0.255,0.701,0.255,0.764,0.446c0.064,0.191,3.504,6.625,6.816,6.816v-12.358v-6.79
							C117.921,296.543,117.633,303.676,117.68,305.638z"/>
						<path fill="#F4DAAA" d="M132.248,306.231c0,0-0.107-9.72-7.581-9.083v6.79v12.358c3.313-0.191,6.752-6.625,6.816-6.816
							c0.064-0.191,0.51-0.191,0.764-0.446C132.503,308.78,132.248,306.231,132.248,306.231z"/>
						<path fill="#F5F9FA" d="M118.468,298.167c0,0,1.401,0.637,1.529,0.956c0.127,0.318-0.255,0.764,0,0.956
							c0.255,0.191-1.72,3.185-1.529,3.758c0.191,0.573,0.191,0.892,0.318,1.402c0.127,0.509,0.587,1.656,0.453,2.548
							c-0.134,0.892-0.325,1.593-0.325,1.593s-0.637-1.529-0.764-1.784c-0.127-0.255-0.469-1.957-0.469-1.957
							s-0.481-0.399-0.707-0.399c-0.226,0-0.226,0-0.226,0S115.665,301.926,118.468,298.167z"/>
						<path fill="#F5F9FA" d="M130.954,298.167c0,0-1.402,0.637-1.529,0.956c-0.127,0.318,0.255,0.764,0,0.956
							c-0.255,0.191,1.72,3.185,1.529,3.758c-0.191,0.573-0.191,0.892-0.319,1.402c-0.127,0.509-0.587,1.656-0.453,2.548
							c0.134,0.892,0.325,1.593,0.325,1.593s0.637-1.529,0.764-1.784c0.127-0.255,0.469-1.957,0.469-1.957s0.481-0.399,0.707-0.399
							c0.226,0,0.226,0,0.226,0S133.757,301.926,130.954,298.167z"/>
						<g>
							<path fill="#2E3138" d="M123.883,316.386v1.975h0.785v10.638c0,0-6.391,1.083-12.379-4.905v-3.058
								c0,0,1.72-2.484,4.969-3.121l4.077-0.956v-1.465C121.335,315.494,123.182,316.45,123.883,316.386z"/>
							<rect x="123.883" y="316.386" fill="#FFFFFF" width="0.785" height="1.975"/>
						</g>
						<g>
							<path fill="#2E3138" d="M125.452,316.386v1.975h-0.785v10.638c0,0,6.391,1.083,12.379-4.905v-3.058
								c0,0-1.72-2.484-4.969-3.121L128,316.96v-1.465C128,315.494,126.153,316.45,125.452,316.386z"/>
							<rect x="124.668" y="316.386" fill="#FFFFFF" width="0.785" height="1.975"/>
						</g>
						<path fill="#937A62" d="M128.453,317.374c0-0.14-0.005-0.278-0.012-0.415h-0.257c0.007,0.137,0.014,0.275,0.014,0.415
							c0,2.933-1.584,5.319-3.531,5.319s-3.531-2.386-3.531-5.319c0-0.14,0.007-0.278,0.014-0.415h-0.257
							c-0.007,0.137-0.012,0.276-0.012,0.415c0,2.983,1.6,5.425,3.603,5.567v0.325h-0.488v0.297h0.488v1.295h0.276v-1.295h0.488
							v-0.297h-0.488v-0.321C126.805,322.87,128.453,320.401,128.453,317.374z"/>
					</g>
				</g>
				<g>
					<defs>
						<circle id="SVGID_25_" cx="124.668" cy="310.422" r="18.137"/>
					</defs>
					<clipPath id="SVGID_26_">
						<use xlink:href="#SVGID_25_"  overflow="visible"/>
					</clipPath>
					<path clip-path="url(#SVGID_26_)" fill="#FFEEBD" d="M117.68,305.638c-0.209,0.18-0.408,0.376-0.593,0.594
						c0,0-0.255,2.548,0,2.803c0.255,0.255,0.701,0.255,0.764,0.446c0.064,0.191,3.504,6.625,6.816,6.816v-12.358v-6.79
						C117.921,296.543,117.633,303.676,117.68,305.638z"/>
					<path clip-path="url(#SVGID_26_)" fill="#F4DAAA" d="M132.248,306.231c0,0-0.107-9.72-7.581-9.083v6.79v12.358
						c3.313-0.191,6.752-6.625,6.816-6.816c0.064-0.191,0.51-0.191,0.764-0.446C132.503,308.78,132.248,306.231,132.248,306.231z"/>
					<path clip-path="url(#SVGID_26_)" fill="#F4DAAA" d="M132.248,306.231c0,0-0.107-9.72-7.581-9.083v6.79v12.358
						c3.313-0.191,6.752-6.625,6.816-6.816c0.064-0.191,0.51-0.191,0.764-0.446C132.503,308.78,132.248,306.231,132.248,306.231z"/>
					<path clip-path="url(#SVGID_26_)" fill="#F4DAAA" d="M132.248,306.231c0,0-0.107-9.72-7.581-9.083v6.79v12.358
						c3.313-0.191,6.752-6.625,6.816-6.816c0.064-0.191,0.51-0.191,0.764-0.446C132.503,308.78,132.248,306.231,132.248,306.231z"/>
					<path clip-path="url(#SVGID_26_)" fill="#F4DAAA" d="M132.248,306.231c0,0-0.107-9.72-7.581-9.083v6.79v12.358
						c3.313-0.191,6.752-6.625,6.816-6.816c0.064-0.191,0.51-0.191,0.764-0.446C132.503,308.78,132.248,306.231,132.248,306.231z"/>
					<path clip-path="url(#SVGID_26_)" fill="#F4DAAA" d="M132.248,306.231c0,0-0.107-9.72-7.581-9.083v6.79v12.358
						c3.313-0.191,6.752-6.625,6.816-6.816c0.064-0.191,0.51-0.191,0.764-0.446C132.503,308.78,132.248,306.231,132.248,306.231z"/>
					<path clip-path="url(#SVGID_26_)" fill="#F4DAAA" d="M132.248,306.231c0,0-0.107-9.72-7.581-9.083v6.79v12.358
						c3.313-0.191,6.752-6.625,6.816-6.816c0.064-0.191,0.51-0.191,0.764-0.446C132.503,308.78,132.248,306.231,132.248,306.231z"/>
					<path clip-path="url(#SVGID_26_)" fill="#FFEEBD" d="M117.68,305.638c-0.209,0.18-0.408,0.376-0.593,0.594
						c0,0-0.255,2.548,0,2.803c0.255,0.255,0.701,0.255,0.764,0.446c0.064,0.191,3.504,6.625,6.816,6.816v-12.358v-6.79
						C117.921,296.543,117.633,303.676,117.68,305.638z"/>
					<line clip-path="url(#SVGID_26_)" fill="#F4DAAA" x1="124.668" y1="303.938" x2="124.668" y2="316.296"/>
					<path clip-path="url(#SVGID_26_)" fill="#FFEEBD" d="M117.68,305.638c-0.209,0.18-0.408,0.376-0.593,0.594
						c0,0-0.255,2.548,0,2.803c0.255,0.255,0.701,0.255,0.764,0.446c0.064,0.191,3.504,6.625,6.816,6.816v-12.358v-6.79
						C117.921,296.543,117.633,303.676,117.68,305.638z"/>
					<line clip-path="url(#SVGID_26_)" fill="#F4DAAA" x1="124.668" y1="303.938" x2="124.668" y2="316.296"/>
					<path clip-path="url(#SVGID_26_)" fill="#FFEEBD" d="M117.68,305.638c-0.209,0.18-0.408,0.376-0.593,0.594
						c0,0-0.255,2.548,0,2.803c0.255,0.255,0.701,0.255,0.764,0.446c0.064,0.191,3.504,6.625,6.816,6.816v-12.358v-6.79
						C117.921,296.543,117.633,303.676,117.68,305.638z"/>
					<line clip-path="url(#SVGID_26_)" fill="#F4DAAA" x1="124.668" y1="303.938" x2="124.668" y2="316.296"/>
					<path clip-path="url(#SVGID_26_)" fill="#FFEEBD" d="M117.68,305.638c-0.209,0.18-0.408,0.376-0.593,0.594
						c0,0-0.255,2.548,0,2.803c0.255,0.255,0.701,0.255,0.764,0.446c0.064,0.191,3.504,6.625,6.816,6.816v-12.358v-6.79
						C117.921,296.543,117.633,303.676,117.68,305.638z"/>
					<line clip-path="url(#SVGID_26_)" fill="#F4DAAA" x1="124.668" y1="303.938" x2="124.668" y2="316.296"/>
					<path clip-path="url(#SVGID_26_)" fill="#FFEEBD" d="M117.68,305.638c-0.209,0.18-0.408,0.376-0.593,0.594
						c0,0-0.255,2.548,0,2.803c0.255,0.255,0.701,0.255,0.764,0.446c0.064,0.191,3.504,6.625,6.816,6.816v-12.358v-6.79
						C117.921,296.543,117.633,303.676,117.68,305.638z"/>
					<line clip-path="url(#SVGID_26_)" fill="#F4DAAA" x1="124.668" y1="303.938" x2="124.668" y2="316.296"/>
					<path clip-path="url(#SVGID_26_)" fill="#FFEEBD" d="M117.68,305.638c-0.209,0.18-0.408,0.376-0.593,0.594
						c0,0-0.255,2.548,0,2.803c0.255,0.255,0.701,0.255,0.764,0.446c0.064,0.191,3.504,6.625,6.816,6.816v-12.358v-6.79
						C117.921,296.543,117.633,303.676,117.68,305.638z"/>
					<line clip-path="url(#SVGID_26_)" fill="#F4DAAA" x1="124.668" y1="316.296" x2="124.668" y2="303.938"/>
					<path clip-path="url(#SVGID_26_)" fill="#2E3138" d="M123.883,316.386v1.975h0.785v10.638c0,0-6.391,1.083-12.379-4.905v-3.058
						c0,0,1.72-2.484,4.969-3.121l4.077-0.956v-1.465C121.335,315.494,123.182,316.45,123.883,316.386z"/>
					<path clip-path="url(#SVGID_26_)" fill="#2E3138" d="M125.452,316.386v1.975h-0.785v10.638c0,0,6.391,1.083,12.379-4.905
						v-3.058c0,0-1.72-2.484-4.969-3.121L128,316.96v-1.465C128,315.494,126.153,316.45,125.452,316.386z"/>
					<path clip-path="url(#SVGID_26_)" fill="#2E3138" d="M123.883,316.386v1.975h0.785v10.638c0,0-6.391,1.083-12.379-4.905v-3.058
						c0,0,1.72-2.484,4.969-3.121l4.077-0.956v-1.465C121.335,315.494,123.182,316.45,123.883,316.386z"/>
					<path clip-path="url(#SVGID_26_)" fill="#2E3138" d="M125.452,316.386v1.975h-0.785v10.638c0,0,6.391,1.083,12.379-4.905
						v-3.058c0,0-1.72-2.484-4.969-3.121L128,316.96v-1.465C128,315.494,126.153,316.45,125.452,316.386z"/>
					<polygon clip-path="url(#SVGID_26_)" fill="#FFFFFF" points="124.668,316.386 123.883,316.386 123.883,318.361 
						124.668,318.361 125.452,318.361 125.452,316.386 					"/>
				</g>
				<path fill="#E5C48F" d="M124.699,316.163c0,0-1.868-0.326-3.277-1.695v1.072c0,0,1.324,0.987,3.231,0.987"/>
				<path fill="#E5C48F" d="M124.668,316.169c0,0,1.836-0.333,3.245-1.702v1.072c0,0-1.42,0.987-3.327,0.987"/>
			</g>
			<path fill="#5A3F28" d="M119.997,300.078c0,0,1.672,0.708,4.572,0.82c2.899,0.112,4.856-0.82,4.856-0.82l0.229-1.193
				c0,0-1.604-2.228-4.987-1.737c0,0-3.956-0.626-4.989,1.674C118.646,301.121,119.997,300.078,119.997,300.078z"/>
			<path fill="#5A3F28" d="M130.954,298.167c0,0-6.801-4.35-12.486,0c-2.803,3.758-1.72,7.071-1.72,7.071s0,0,0.226,0
				c0.226,0,0.707,0.399,0.707,0.399s0.342,1.703,0.469,1.957c0.127,0.255,0.764,1.784,0.764,1.784s0.191-0.701,0.325-1.593
				c0.134-0.892-0.325-2.038-0.453-2.548c-0.127-0.51-0.127-0.828-0.318-1.402c-0.118-0.354,0.587-1.627,1.086-2.596
				c1.891,0.626,6.402,1.758,10.302-0.022c0.499,0.972,1.216,2.262,1.097,2.618c-0.191,0.573-0.191,0.892-0.319,1.402
				c-0.127,0.509-0.587,1.656-0.453,2.548s0.325,1.593,0.325,1.593s0.637-1.529,0.764-1.784c0.127-0.255,0.469-1.957,0.469-1.957
				s0.481-0.399,0.707-0.399c0.226,0,0.226,0,0.226,0S133.757,301.926,130.954,298.167z"/>
		</g>
	</g>
</g>
</svg>
