<svg xmlns="http://www.w3.org/2000/svg" xmlns:xlink="http://www.w3.org/1999/xlink" width="250" height="250" viewBox="0 0 249.99999 250" enable-background="new 0 0 595.28 841.89"><g><g><g><g transform="matrix(.645 0 0 .561 3.895 -55.26)"><circle cx="234.233" cy="263.367" r="18.137" fill="#7f6c67"/><g><defs><circle id="a" cx="234.233" cy="263.367" r="18.137"/></defs><clipPath id="b"><use xlink:href="#a" overflow="visible" width="100%" height="100%"/></clipPath><g clip-path="url(#b)"><g><g><g><path d="M227.086 269.3h-2.644s-2.52-.34-2.52 2.835v10.65h12.31V269.29l-7.146.01z" fill="#89cca2"/><path d="M230.465 268.594c.02.43 3.768 14.19 3.768 14.19v-11.24l-3.768-2.95z" fill="#fff"/><path d="M230.465 268.594c.02.43 3.768 14.19 3.768 14.19v-11.24l-3.768-2.95z" fill="#fff"/></g><g><path d="M241.38 269.3h2.645s2.52-.34 2.52 2.835v10.65h-12.31V269.29l7.146.01z" fill="#5dbf86"/><path d="M238.002 268.594c-.02.43-3.768 14.19-3.768 14.19v-11.24l3.768-2.95z" fill="#fff"/><path d="M230.465 268.594c.02.43 3.768 14.19 3.768 14.19v-11.24l-3.768-2.95z" fill="#fff"/><path d="M238.002 268.594c-.02.43-3.768 14.19-3.768 14.19" fill="#fff"/><path d="M230.465 268.594c.02.43 3.768 14.19 3.768 14.19v-11.24l-3.768-2.95z" fill="#fff"/><path d="M238.002 268.594c-.02.43-3.768 14.19-3.768 14.19" fill="#fff"/><path d="M230.465 268.594c.02.43 3.768 14.19 3.768 14.19v-11.24l-3.768-2.95z" fill="#fff"/><path d="M238.002 268.594c-.02.43-3.768 14.19-3.768 14.19" fill="#fff"/></g></g><g><path d="M227.246 260.137c-.21.18-.408.376-.593.594 0 0-.255 2.55 0 2.804.255.255.7.255.764.446.064.19 3.504 6.625 6.816 6.816v-19.148c-6.747-.606-7.034 6.527-6.987 8.49z" fill="#ffeebd"/><path d="M241.814 260.73s-.107-9.72-7.58-9.083v19.148c3.312-.19 6.75-6.625 6.815-6.816.063-.192.51-.192.763-.447.256-.254 0-2.803 0-2.803z" fill="#f4daaa"/></g><g><path d="M227.246 260.137c-.21.18-.408.376-.593.594 0 0-.255 2.55 0 2.804.255.255.7.255.764.446.064.19 3.504 6.625 6.816 6.816v-19.148c-6.747-.606-7.034 6.527-6.987 8.49z" fill="#ffeebd"/><path d="M241.814 260.73s-.107-9.72-7.58-9.083v19.148c3.312-.19 6.75-6.625 6.815-6.816.063-.192.51-.192.763-.447.256-.254 0-2.803 0-2.803z" fill="#f4daaa"/></g><g><path d="M227.246 260.137c-.21.18-.408.376-.593.594 0 0-.255 2.55 0 2.804.255.255.7.255.764.446.064.19 3.504 6.625 6.816 6.816v-19.148c-6.747-.606-7.034 6.527-6.987 8.49z" fill="#ffeebd"/><path d="M241.814 260.73s-.107-9.72-7.58-9.083v19.148c3.312-.19 6.75-6.625 6.815-6.816.063-.192.51-.192.763-.447.256-.254 0-2.803 0-2.803z" fill="#f4daaa"/></g><g><path d="M227.246 260.137c-.21.18-.408.376-.593.594 0 0-.255 2.55 0 2.804.255.255.7.255.764.446.064.19 3.504 6.625 6.816 6.816v-19.148c-6.747-.606-7.034 6.527-6.987 8.49z" fill="#ffeebd"/><path d="M241.814 260.73s-.107-9.72-7.58-9.083v19.148c3.312-.19 6.75-6.625 6.815-6.816.063-.192.51-.192.763-.447.256-.254 0-2.803 0-2.803z" fill="#f4daaa"/></g><g><path d="M227.246 260.137c-.21.18-.408.376-.593.594 0 0-.255 2.55 0 2.804.255.255.7.255.764.446.064.19 3.504 6.625 6.816 6.816v-19.148c-6.747-.606-7.034 6.527-6.987 8.49z" fill="#ffeebd"/><path d="M241.814 260.73s-.107-9.72-7.58-9.083v19.148c3.312-.19 6.75-6.625 6.815-6.816.063-.192.51-.192.763-.447.256-.254 0-2.803 0-2.803z" fill="#f4daaa"/></g><g><path d="M227.47 260.137c-.21.18-.41.376-.594.594 0 0-.255 2.55 0 2.804.255.255.7.255.764.446.064.19 3.504 6.625 6.816 6.816v-19.148c-6.746-.606-7.034 6.527-6.987 8.49z" fill="#ffeebd"/><path d="M241.814 260.73s-.107-9.72-7.58-9.083v19.148c3.312-.19 6.75-6.625 6.815-6.816.063-.192.51-.192.763-.447.256-.254 0-2.803 0-2.803z" fill="#f4daaa"/></g></g><path d="M230.386 257.584s4.34 2.227 9.564 2.354c0 0 .637 3.058 0 4.332s-3.058 6.753-2.293 9.81c.764 3.058 2.42 4.97 1.53 6.243 0 0 4.67-2.833 2.165-8.154-2.505-5.32-1.274-4.842-.382-5.99.892-1.146 4.46-8.153.892-12.102-3.567-3.95-7.415-4.204-7.415-4.204s-11.186 1.53-9.148 10.83c0 0-.383 2.038 3.44 5.605 0 0 1.018 2.547-.128 4.33-1.146 1.785-2.166 8.155 2.42 9.684 0 0-.51-2.676.256-3.822.764-1.147 1.02-5.733 0-7.007s-1.53-3.567-1.53-3.567v-1.4c0-.003-.518-6.307.628-6.944z" fill="#403d34"/><path d="M239.783 268.283h-1.044c-.23 0-.417-.187-.417-.416v-.117c0-.23.187-.416.416-.416h1.043c.23 0 .416.187.416.416v.117c0 .23-.188.416-.417.416z" fill="#dd4a4a"/><path d="M229.97 267.137h-1.044c-.23 0-.416-.187-.416-.416v-.116c0-.23.187-.416.416-.416h1.044c.23 0 .416.187.416.416v.117c0 .23-.187.417-.416.417z" fill="#dd4a4a"/></g></g></g></g><g><g transform="matrix(.645 0 0 .561 3.895 -55.26)"><circle cx="234.233" cy="216.667" r="18.137" fill="#7f817a"/><g><defs><circle id="c" cx="234.233" cy="216.667" r="18.137"/></defs><use xlink:href="#c" overflow="visible" width="100%" height="100%" fill="#8ba18d"/><clipPath id="d"><use xlink:href="#c" overflow="visible" width="100%" height="100%"/></clipPath><g clip-path="url(#d)"><g><g><path d="M226.196 221.945h-2.973s-2.835-.34-2.835 2.835v10.65h13.845v-13.495l-8.037.01z" fill="#4c4d52"/><path d="M229.996 221.24c.022.428 4.237 14.188 4.237 14.188V224.19l-4.237-2.95z" fill="#fff"/></g><g><path d="M242.27 221.945h2.974s2.835-.34 2.835 2.835v10.65h-13.846v-13.495l8.037.01z" fill="#3f3f43"/><path d="M238.47 221.24c-.02.428-4.236 14.188-4.236 14.188V224.19l4.237-2.95z" fill="#fff"/></g></g><g><g><path d="M227.246 213.04c-.21.18-.408.377-.593.595 0 0-.255 2.548 0 2.803.255.255.7.255.764.446.064.19 3.504 6.625 6.816 6.816v-19.148c-6.747-.606-7.034 6.527-6.987 8.49z" fill="#ffeebd"/><path d="M241.814 213.635s-.107-9.72-7.58-9.083V223.7c3.312-.19 6.752-6.625 6.815-6.816.063-.19.51-.19.763-.446.256-.255 0-2.803 0-2.803z" fill="#f4daaa"/></g><g><path d="M227.246 213.04c-.21.18-.408.377-.593.595 0 0-.255 2.548 0 2.803.255.255.7.255.764.446.064.19 3.504 6.625 6.816 6.816v-19.148c-6.747-.606-7.034 6.527-6.987 8.49z" fill="#ffeebd"/><path d="M241.814 213.635s-.107-9.72-7.58-9.083V223.7c3.312-.19 6.752-6.625 6.815-6.816.063-.19.51-.19.763-.446.256-.255 0-2.803 0-2.803z" fill="#f4daaa"/></g><g><path d="M227.246 213.04c-.21.18-.408.377-.593.595 0 0-.255 2.548 0 2.803.255.255.7.255.764.446.064.19 3.504 6.625 6.816 6.816v-19.148c-6.747-.606-7.034 6.527-6.987 8.49z" fill="#ffeebd"/><path d="M241.814 213.635s-.107-9.72-7.58-9.083V223.7c3.312-.19 6.752-6.625 6.815-6.816.063-.19.51-.19.763-.446.256-.255 0-2.803 0-2.803z" fill="#f4daaa"/></g><g><path d="M227.246 213.04c-.21.18-.408.377-.593.595 0 0-.255 2.548 0 2.803.255.255.7.255.764.446.064.19 3.504 6.625 6.816 6.816v-19.148c-6.747-.606-7.034 6.527-6.987 8.49z" fill="#ffeebd"/><path d="M241.814 213.635s-.107-9.72-7.58-9.083V223.7c3.312-.19 6.752-6.625 6.815-6.816.063-.19.51-.19.763-.446.256-.255 0-2.803 0-2.803z" fill="#f4daaa"/></g><g><path d="M227.246 213.04c-.21.18-.408.377-.593.595 0 0-.255 2.548 0 2.803.255.255.7.255.764.446.064.19 3.504 6.625 6.816 6.816v-19.148c-6.747-.606-7.034 6.527-6.987 8.49z" fill="#ffeebd"/><path d="M241.814 213.635s-.107-9.72-7.58-9.083V223.7c3.312-.19 6.752-6.625 6.815-6.816.063-.19.51-.19.763-.446.256-.255 0-2.803 0-2.803z" fill="#f4daaa"/></g><g><path d="M227.246 213.04c-.21.18-.408.377-.593.595 0 0-.255 2.548 0 2.803.255.255.7.255.764.446.064.19 3.504 6.625 6.816 6.816v-19.148c-6.747-.606-7.034 6.527-6.987 8.49z" fill="#ffeebd"/><path d="M241.814 213.635s-.107-9.72-7.58-9.083V223.7c3.312-.19 6.752-6.625 6.815-6.816.063-.19.51-.19.763-.446.256-.255 0-2.803 0-2.803z" fill="#f4daaa"/></g><path d="M238.484 205.08s-.51-1.528-1.53-2.037c-1.018-.51-5.732-1.784-9.172 2.676-3.44 4.458-.764 8.153-.764 8.153s.764-.573.764-.382c0 .192.127 2.995.318 2.804.19-.19.956-3.95 1.656-3.95s5.67.957 8.727-3.95c0 0 .382 3.95 1.91 5.288l.063.05c-.065 1.22-.126 2.57-.126 2.57s.63-1.158 1.13-2.298c.792-.274 1.164-1.724 1.164-1.724s1.465-8.41-4.14-7.2z" fill="#252627"/></g><path d="M234.233 218.266l-2.188.807v3.712s1.063.913 2.188.915v-2.42l-1.38.044v-1.19l1.37-1.37.01-.498z" fill="#333535"/><path d="M234.233 218.266l2.188.807v3.712s-1.063.913-2.187.915v-2.42l1.38.044v-1.19l-1.37-1.37-.01-.498z" fill="#252627"/><path fill="#b1d237" d="M234.233 223.7l-1.018-.22-.47 7.063 1.488 4.885z"/><path fill="#96ae3c" d="M234.233 223.7l1.02-.22.47 7.063-1.49 4.885z"/><path fill="#4c4d52" d="M238.47 229.455h5.506v1.517h-5.505z"/></g></g></g></g><g transform="matrix(.645 0 0 .561 3.895 -55.26)"><circle cx="234.233" cy="310.422" r="18.137" fill="#425b77"/><g><defs><circle id="e" cx="234.233" cy="310.422" r="18.137"/></defs><clipPath id="f"><use xlink:href="#e" overflow="visible" width="100%" height="100%"/></clipPath><g clip-path="url(#f)"><g><path d="M226.748 315.306h-2.973s-2.835-.34-2.835 2.835v10.65h13.845v-13.494l-8.037.01z" fill="#fac753"/><path d="M230.548 314.6c.022.43 4.237 14.19 4.237 14.19v-11.24l-4.237-2.95z" fill="#fff"/><path d="M231.277 314.43l-3.744.876s4.672 4.395 6.03 4.565v-2.318s-2.788-2.704-2.286-3.123z" fill="#d5973d"/></g><path d="M227.097 307.486s-.255 2.548 0 2.803c.255.254.7.254.764.445.065.19 3.505 6.625 6.817 6.816v-12.357s-5.032-.7-7.58 2.293z" fill="#ffeebd"/><g><path d="M242.823 315.306h2.973s2.835-.34 2.835 2.835v10.65h-13.844v-13.494l8.037.01z" fill="#fac753"/><path d="M239.022 314.6c-.022.43-4.237 14.19-4.237 14.19v-11.24l4.237-2.95z" fill="#fff"/><path d="M230.548 314.6c.022.43 4.237 14.19 4.237 14.19v-11.24l-4.237-2.95z" fill="#fff"/><path d="M239.022 314.6c-.022.43-4.237 14.19-4.237 14.19v-11.24l4.237-2.95z" fill="#fff"/><path d="M230.548 314.6c.022.43 4.237 14.19 4.237 14.19v-11.24l-4.237-2.95z" fill="#fff"/><path d="M239.022 314.6c-.022.43-4.237 14.19-4.237 14.19v-11.24l4.237-2.95z" fill="#fff"/><path d="M238.293 314.43l3.744.876s-4.67 4.395-6.03 4.565v-2.318s2.79-2.704 2.286-3.123z" fill="#d5973d"/></g><path d="M242.258 307.486s.255 2.548 0 2.803c-.255.254-.7.254-.764.445-.064.19-3.504 6.625-6.816 6.816v-12.357s5.032-.7 7.58 2.293z" fill="#f4daaa"/><path d="M227.097 307.486s-.255 2.548 0 2.803c.255.254.7.254.764.445.065.19 3.505 6.625 6.817 6.816v-12.357s-5.032-.7-7.58 2.293z" fill="#ffeebd"/><path d="M242.258 307.486s.255 2.548 0 2.803c-.255.254-.7.254-.764.445-.064.19-3.504 6.625-6.816 6.816v-12.357s5.032-.7 7.58 2.293z" fill="#f4daaa"/><path d="M227.097 307.486s-.255 2.548 0 2.803c.255.254.7.254.764.445.065.19 3.505 6.625 6.817 6.816v-12.357s-5.032-.7-7.58 2.293z" fill="#ffeebd"/><path d="M242.258 307.486s.255 2.548 0 2.803c-.255.254-.7.254-.764.445-.064.19-3.504 6.625-6.816 6.816v-12.357s5.032-.7 7.58 2.293z" fill="#f4daaa"/><path d="M227.097 307.486s-.255 2.548 0 2.803c.255.254.7.254.764.445.065.19 3.505 6.625 6.817 6.816v-12.357s-5.032-.7-7.58 2.293z" fill="#ffeebd"/><path d="M242.258 307.486s.255 2.548 0 2.803c-.255.254-.7.254-.764.445-.064.19-3.504 6.625-6.816 6.816v-12.357s5.032-.7 7.58 2.293z" fill="#f4daaa"/><path d="M227.097 307.486s-.255 2.548 0 2.803c.255.254.7.254.764.445.065.19 3.505 6.625 6.817 6.816v-12.357s-5.032-.7-7.58 2.293z" fill="#ffeebd"/><path d="M242.258 307.486s.255 2.548 0 2.803c-.255.254-.7.254-.764.445-.064.19-3.504 6.625-6.816 6.816v-12.357s5.032-.7 7.58 2.293z" fill="#f4daaa"/><path d="M227.097 307.486s-.255 2.548 0 2.803c.255.254.7.254.764.445.065.19 3.505 6.625 6.817 6.816v-12.357s-5.032-.7-7.58 2.293z" fill="#ffeebd"/><path d="M242.258 307.486s.255 2.548 0 2.803c-.255.254-.7.254-.764.445-.064.19-3.504 6.625-6.816 6.816v-12.357s5.032-.7 7.58 2.293z" fill="#f4daaa"/><path d="M227.097 307.486s-.255 2.548 0 2.803c.255.254.7.254.764.445.065.19 3.505 6.625 6.817 6.816v-12.357s-5.032-.7-7.58 2.293z" fill="#ffeebd"/><path d="M242.258 307.486s.255 2.548 0 2.803c-.255.254-.7.254-.764.445-.064.19-3.504 6.625-6.816 6.816v-12.357s5.032-.7 7.58 2.293z" fill="#f4daaa"/><path d="M227.097 307.486s-.255 2.548 0 2.803c.255.254.7.254.764.445.065.19 3.505 6.625 6.817 6.816v-12.357s-5.032-.7-7.58 2.293z" fill="#ffeebd"/><path d="M231.165 314.54l-3.744.878s4.673 4.395 6.032 4.565v-2.32s-2.79-2.703-2.287-3.122z" fill="#d5973d"/><path d="M242.258 307.486s.255 2.548 0 2.803c-.255.254-.7.254-.764.445-.064.19-3.504 6.625-6.816 6.816v-12.357s5.032-.7 7.58 2.293z" fill="#f4daaa"/><path d="M227.097 307.486s-.255 2.548 0 2.803c.255.254.7.254.764.445.065.19 3.505 6.625 6.817 6.816v-12.357s-5.032-.7-7.58 2.293z" fill="#ffeebd"/><path d="M242.258 307.486s.255 2.548 0 2.803c-.255.254-.7.254-.764.445-.064.19-3.504 6.625-6.816 6.816v-12.357s5.032-.7 7.58 2.293z" fill="#f4daaa"/><path d="M234.678 305.193v-3.032s-5.885.454-6.97 4.718c-1.087 4.265 6.97-1.685 6.97-1.685z" fill="#ffeebd"/><path d="M234.678 305.193v-3.032s5.885.454 6.97 4.718c1.086 4.265-6.97-1.685-6.97-1.685z" fill="#f4daaa"/><path d="M227.707 306.88s-2.236-7.203 6.97-7.84v3.12s-5.757 1.792-6.97 4.72z" fill="#464646"/><g><path d="M228.163 300.11s-.432-3.68 0-3.81c.432-.126 6.514-3.142 6.514-3.142v6.95h-6.514z" fill="#d5973d"/><path d="M241.192 300.11s.433-3.68 0-3.81c-.432-.126-6.514-3.142-6.514-3.142v6.95h6.514z" fill="#d1932c"/></g><path d="M234.678 302.16s.913 5.168 6.97 4.718c0 0 2.87-7.71-6.97-7.84" fill="#383938"/><path d="M227.82 302.96s6.76-6.02 13.93 0v-2.676s-6.93-3.724-13.93 0v2.675z" fill="#fac753"/><path fill="#383938" d="M242.823 315.306h3.822v1.083h-3.822z"/><path fill="#464646" d="M223.162 315.306h3.822v1.083h-3.822z"/><path fill="#d5973d" d="M238.358 323.12h6.376v1.245h-6.376z"/></g><g clip-path="url(#f)"><g><path d="M226.748 315.306h-2.973s-2.835-.34-2.835 2.835v10.65h13.845v-13.494l-8.037.01z" fill="#fac753"/><path d="M230.548 314.6c.022.43 4.237 14.19 4.237 14.19v-11.24l-4.237-2.95z" fill="#fff"/><path d="M231.277 314.43l-3.744.876s4.672 4.395 6.03 4.565v-2.318s-2.788-2.704-2.286-3.123z" fill="#d5973d"/></g><path d="M227.097 307.486s-.255 2.548 0 2.803c.255.254.7.254.764.445.065.19 3.505 6.625 6.817 6.816v-12.357s-5.032-.7-7.58 2.293z" fill="#ffeebd"/><g><path d="M242.823 315.306h2.973s2.835-.34 2.835 2.835v10.65h-13.844v-13.494l8.037.01z" fill="#fac753"/><path d="M239.022 314.6c-.022.43-4.237 14.19-4.237 14.19v-11.24l4.237-2.95z" fill="#fff"/><path d="M230.548 314.6c.022.43 4.237 14.19 4.237 14.19v-11.24l-4.237-2.95z" fill="#fff"/><path d="M239.022 314.6c-.022.43-4.237 14.19-4.237 14.19v-11.24l4.237-2.95z" fill="#fff"/><path d="M230.548 314.6c.022.43 4.237 14.19 4.237 14.19v-11.24l-4.237-2.95z" fill="#fff"/><path d="M239.022 314.6c-.022.43-4.237 14.19-4.237 14.19v-11.24l4.237-2.95z" fill="#fff"/><path d="M238.293 314.43l3.744.876s-4.67 4.395-6.03 4.565v-2.318s2.79-2.704 2.286-3.123z" fill="#d5973d"/></g><path d="M242.258 307.486s.255 2.548 0 2.803c-.255.254-.7.254-.764.445-.064.19-3.504 6.625-6.816 6.816v-12.357s5.032-.7 7.58 2.293z" fill="#f4daaa"/><path d="M227.097 307.486s-.255 2.548 0 2.803c.255.254.7.254.764.445.065.19 3.505 6.625 6.817 6.816v-12.357s-5.032-.7-7.58 2.293z" fill="#ffeebd"/><path d="M242.258 307.486s.255 2.548 0 2.803c-.255.254-.7.254-.764.445-.064.19-3.504 6.625-6.816 6.816v-12.357s5.032-.7 7.58 2.293z" fill="#f4daaa"/><path d="M227.097 307.486s-.255 2.548 0 2.803c.255.254.7.254.764.445.065.19 3.505 6.625 6.817 6.816v-12.357s-5.032-.7-7.58 2.293z" fill="#ffeebd"/><path d="M242.258 307.486s.255 2.548 0 2.803c-.255.254-.7.254-.764.445-.064.19-3.504 6.625-6.816 6.816v-12.357s5.032-.7 7.58 2.293z" fill="#f4daaa"/><path d="M227.097 307.486s-.255 2.548 0 2.803c.255.254.7.254.764.445.065.19 3.505 6.625 6.817 6.816v-12.357s-5.032-.7-7.58 2.293z" fill="#ffeebd"/><path d="M242.258 307.486s.255 2.548 0 2.803c-.255.254-.7.254-.764.445-.064.19-3.504 6.625-6.816 6.816v-12.357s5.032-.7 7.58 2.293z" fill="#f4daaa"/><path d="M227.097 307.486s-.255 2.548 0 2.803c.255.254.7.254.764.445.065.19 3.505 6.625 6.817 6.816v-12.357s-5.032-.7-7.58 2.293z" fill="#ffeebd"/><path d="M242.258 307.486s.255 2.548 0 2.803c-.255.254-.7.254-.764.445-.064.19-3.504 6.625-6.816 6.816v-12.357s5.032-.7 7.58 2.293z" fill="#f4daaa"/><path d="M227.097 307.486s-.255 2.548 0 2.803c.255.254.7.254.764.445.065.19 3.505 6.625 6.817 6.816v-12.357s-5.032-.7-7.58 2.293z" fill="#ffeebd"/><path d="M242.258 307.486s.255 2.548 0 2.803c-.255.254-.7.254-.764.445-.064.19-3.504 6.625-6.816 6.816v-12.357s5.032-.7 7.58 2.293z" fill="#f4daaa"/><path d="M227.097 307.486s-.255 2.548 0 2.803c.255.254.7.254.764.445.065.19 3.505 6.625 6.817 6.816v-12.357s-5.032-.7-7.58 2.293z" fill="#ffeebd"/><path d="M242.258 307.486s.255 2.548 0 2.803c-.255.254-.7.254-.764.445-.064.19-3.504 6.625-6.816 6.816v-12.357s5.032-.7 7.58 2.293z" fill="#f4daaa"/><path d="M227.097 307.486s-.255 2.548 0 2.803c.255.254.7.254.764.445.065.19 3.505 6.625 6.817 6.816v-12.357s-5.032-.7-7.58 2.293z" fill="#ffeebd"/><path d="M231.165 314.54l-3.744.878s4.673 4.395 6.032 4.565v-2.32s-2.79-2.703-2.287-3.122z" fill="#d5973d"/><path d="M242.258 307.486s.255 2.548 0 2.803c-.255.254-.7.254-.764.445-.064.19-3.504 6.625-6.816 6.816v-12.357s5.032-.7 7.58 2.293z" fill="#f4daaa"/><path d="M227.097 307.486s-.255 2.548 0 2.803c.255.254.7.254.764.445.065.19 3.505 6.625 6.817 6.816v-12.357s-5.032-.7-7.58 2.293z" fill="#ffeebd"/><path d="M242.258 307.486s.255 2.548 0 2.803c-.255.254-.7.254-.764.445-.064.19-3.504 6.625-6.816 6.816v-12.357s5.032-.7 7.58 2.293z" fill="#f4daaa"/><path d="M234.678 305.193v-3.032s-5.885.454-6.97 4.718c-1.087 4.265 6.97-1.685 6.97-1.685z" fill="#ffeebd"/><path d="M234.678 305.193v-3.032s5.885.454 6.97 4.718c1.086 4.265-6.97-1.685-6.97-1.685z" fill="#f4daaa"/><path d="M227.707 306.88s-2.236-7.203 6.97-7.84v3.12s-5.757 1.792-6.97 4.72z" fill="#464646"/><g><path d="M228.163 300.11s-.432-3.68 0-3.81c.432-.126 6.514-3.142 6.514-3.142v6.95h-6.514z" fill="#d5973d"/><path d="M241.192 300.11s.433-3.68 0-3.81c-.432-.126-6.514-3.142-6.514-3.142v6.95h6.514z" fill="#d1932c"/></g><path d="M234.678 302.16s.913 5.168 6.97 4.718c0 0 2.87-7.71-6.97-7.84" fill="#383938"/><path d="M227.82 302.96s6.76-6.02 13.93 0v-2.676s-6.93-3.724-13.93 0v2.675z" fill="#fac753"/><path fill="#383938" d="M242.823 315.306h3.822v1.083h-3.822z"/><path fill="#464646" d="M223.162 315.306h3.822v1.083h-3.822z"/><path fill="#d5973d" d="M238.358 323.12h6.376v1.245h-6.376z"/></g><g clip-path="url(#f)"><path fill="#464646" d="M227.616 306.302l.604-.312v4.006l-.845-.845z"/><path fill="#383938" d="M241.36 306.302l-.604-.312v4.006l.845-.845z"/></g></g></g><g><g><g transform="matrix(.645 0 0 .561 3.895 -55.26)"><defs><circle id="g" cx="179.45" cy="310.422" r="18.137"/></defs><use xlink:href="#g" overflow="visible" width="100%" height="100%" fill="#425c75"/><clipPath id="h"><use xlink:href="#g" overflow="visible" width="100%" height="100%"/></clipPath><g clip-path="url(#h)"><path d="M179.45 316.467h9.237s3.354-.234 3.354 2.74v9.427h-12.59v-12.167z" fill="#be802b"/><path d="M179.45 316.467h-9.237s-3.354-.234-3.354 2.74v9.427h12.59v-12.167z" fill="#be802b"/><path fill="#ce9041" d="M166.86 323.793h25.183v4.84H166.86z"/><path d="M175.345 314.874h8.21s-2.682 13.25-4.105 13.76c-1.422.51-4.105-13.76-4.105-13.76z" fill="#383938"/><path d="M170.214 307.485" fill="#8d4b41"/><path d="M171.87 306.402s-.255 2.548 0 2.803c.255.255.7.255.764.446.064.192 3.504 6.626 6.816 6.817V304.11c0-.002-5.032-.702-7.58 2.292z" fill="#ffeebd"/><path d="M187.03 306.402s.256 2.548 0 2.803c-.254.255-.7.255-.763.446-.064.192-3.504 6.626-6.816 6.817V304.11c0-.002 5.033-.702 7.58 2.292z" fill="#f4daaa"/><path d="M171.87 306.402s-.255 2.548 0 2.803c.255.255.7.255.764.446.064.192 3.504 6.626 6.816 6.817V304.11c0-.002-5.032-.702-7.58 2.292z" fill="#ffeebd"/><path d="M187.03 306.402s.256 2.548 0 2.803c-.254.255-.7.255-.763.446-.064.192-3.504 6.626-6.816 6.817V304.11c0-.002 5.033-.702 7.58 2.292z" fill="#f4daaa"/><path d="M171.87 306.402s-.255 2.548 0 2.803c.255.255.7.255.764.446.064.192 3.504 6.626 6.816 6.817V304.11c0-.002-5.032-.702-7.58 2.292z" fill="#ffeebd"/><path d="M187.03 306.402s.256 2.548 0 2.803c-.254.255-.7.255-.763.446-.064.192-3.504 6.626-6.816 6.817V304.11c0-.002 5.033-.702 7.58 2.292z" fill="#f4daaa"/><path d="M171.87 306.402s-.255 2.548 0 2.803c.255.255.7.255.764.446.064.192 3.504 6.626 6.816 6.817V304.11c0-.002-5.032-.702-7.58 2.292z" fill="#ffeebd"/><path d="M187.03 306.402s.256 2.548 0 2.803c-.254.255-.7.255-.763.446-.064.192-3.504 6.626-6.816 6.817V304.11c0-.002 5.033-.702 7.58 2.292z" fill="#f4daaa"/><path d="M171.87 306.402s-.255 2.548 0 2.803c.255.255.7.255.764.446.064.192 3.504 6.626 6.816 6.817V304.11c0-.002-5.032-.702-7.58 2.292z" fill="#ffeebd"/><path d="M187.03 306.402s.256 2.548 0 2.803c-.254.255-.7.255-.763.446-.064.192-3.504 6.626-6.816 6.817V304.11c0-.002 5.033-.702 7.58 2.292z" fill="#f4daaa"/><path d="M171.87 306.402s-.255 2.548 0 2.803c.255.255.7.255.764.446.064.192 3.504 6.626 6.816 6.817V304.11c0-.002-5.032-.702-7.58 2.292z" fill="#ffeebd"/><path d="M187.03 306.402s.256 2.548 0 2.803c-.254.255-.7.255-.763.446-.064.192-3.504 6.626-6.816 6.817V304.11c0-.002 5.033-.702 7.58 2.292z" fill="#f4daaa"/><path d="M171.87 306.402s-.255 2.548 0 2.803c.255.255.7.255.764.446.064.192 3.504 6.626 6.816 6.817V304.11c0-.002-5.032-.702-7.58 2.292z" fill="#ffeebd"/><path d="M187.03 306.402s.256 2.548 0 2.803c-.254.255-.7.255-.763.446-.064.192-3.504 6.626-6.816 6.817V304.11c0-.002 5.033-.702 7.58 2.292z" fill="#f4daaa"/><path d="M171.87 306.402s-.255 2.548 0 2.803c.255.255.7.255.764.446.064.192 3.504 6.626 6.816 6.817V304.11c0-.002-5.032-.702-7.58 2.292z" fill="#ffeebd"/><path d="M187.03 306.402s.256 2.548 0 2.803c-.254.255-.7.255-.763.446-.064.192-3.504 6.626-6.816 6.817V304.11c0-.002 5.033-.702 7.58 2.292z" fill="#f4daaa"/><path d="M171.87 306.402s-.255 2.548 0 2.803c.255.255.7.255.764.446.064.192 3.504 6.626 6.816 6.817V304.11c0-.002-5.032-.702-7.58 2.292z" fill="#ffeebd"/><path d="M187.03 306.402s.256 2.548 0 2.803c-.254.255-.7.255-.763.446-.064.192-3.504 6.626-6.816 6.817V304.11c0-.002 5.033-.702 7.58 2.292z" fill="#f4daaa"/></g></g></g><path d="M114.75 116.632s.353.608.425.828c.072.22-.423-.965.973-1.598 1.656-.752 6.88-.703 7.887.666v1.15l.496-1.047s.034-2.805-.89-3.588c-.926-.783-1.586-1.252-4-1.503-1.39-.146-2.772.262-3.71-.02 0 0 .36 1.146.47 1.178.108.03-1.873-.094-2.125-.752 0 0-.504.846 0 1.16.505.312-.648.344-.72.218-.073-.125-.144.345.36.846.503.5.836 2.462.836 2.462z" fill="#5a3f28"/><path d="M116.993 121.384l-2.43.894s3.406 6.094 4.71 6.59l-2.28-7.484z" fill="#e4b84e"/><path d="M122.274 121.384l2.43.894s-3.407 6.094-4.71 6.59l2.28-7.484z" fill="#e4b84e"/></g><g><g><g transform="matrix(.645 0 0 .561 3.895 -55.26)"><circle cx="179.45" cy="263.367" r="18.137" fill="#7f6c67"/><g><defs><circle id="i" cx="179.45" cy="263.367" r="18.137"/></defs><clipPath id="j"><use xlink:href="#i" overflow="visible" width="100%" height="100%"/></clipPath><g clip-path="url(#j)"><g><g><path d="M172.303 268.347h-2.644s-2.522-.34-2.522 2.835v10.65h12.312v-13.495l-7.147.01z" fill="#eb635b"/><path d="M175.682 267.64c.02.43 3.768 14.19 3.768 14.19v-11.238l-3.768-2.95z" fill="#fff"/></g><g><path d="M186.598 268.347h2.644s2.52-.34 2.52 2.835v10.65H179.45v-13.495l7.148.01z" fill="#cc5b51"/><path d="M183.22 267.64c-.02.43-3.77 14.19-3.77 14.19v-11.238l3.77-2.95z" fill="#fff"/></g></g><g><path d="M172.463 259.184c-.208.18-.408.376-.593.594 0 0-.255 2.548 0 2.803.255.256.7.256.764.447.064.19 3.504 6.625 6.816 6.816v-19.148c-6.746-.605-7.034 6.528-6.987 8.49z" fill="#ffeebd"/><path d="M187.03 259.778s-.106-9.72-7.58-9.083v19.148c3.313-.19 6.753-6.625 6.816-6.816.064-.19.51-.19.764-.446.256-.254 0-2.802 0-2.802z" fill="#f4daaa"/></g><path d="M188.114 256.38c-2.123-7.558-8.664-6.45-8.664-6.45-12.74 2.214-8.41 15.2-8.41 15.2v9.428l3.314 2.718v-16.733c.537-.145 1.016-.314 1.446-.498 1.743-.65 4.692-1.92 6.745-3.683.576.38 1.15 1.018 1.642 2.058 1.85 3.907-.89 18.856-.89 18.856l4.222-2.463v-9.258s2.717-1.615.594-9.174z" fill="#252627"/><path d="M185.72 261.745l-.228-.112c-.01.02-.984 1.984-2.996 4.242-.075-.042-.164-.067-.26-.067-.266 0-.483.19-.483.425s.217.425.484.425.484-.19.484-.425c0-.063-.016-.123-.044-.176 2.044-2.29 3.035-4.292 3.045-4.312z" fill="#252627"/></g><g clip-path="url(#j)" fill="#252627"><path d="M187.157 253.953s4.347 8.327.375 20.856l-.375-20.857z"/><path d="M172.194 253.953s-4.133 4.08-1.14 20.6l1.14-20.6z"/></g></g></g></g><g><g transform="matrix(.645 0 0 .561 3.895 -55.26)"><circle cx="179.45" cy="263.367" r="18.137" fill="#7f6c67"/><g><defs><circle id="k" cx="179.45" cy="263.367" r="18.137"/></defs><clipPath id="l"><use xlink:href="#k" overflow="visible" width="100%" height="100%"/></clipPath><g clip-path="url(#l)"><g><g><path d="M172.303 268.347h-2.644s-2.522-.34-2.522 2.835v10.65h12.312v-13.495l-7.147.01z" fill="#eb635b"/><path d="M175.682 267.64c.02.43 3.768 14.19 3.768 14.19v-11.238l-3.768-2.95z" fill="#fff"/></g><g><path d="M186.598 268.347h2.644s2.52-.34 2.52 2.835v10.65H179.45v-13.495l7.148.01z" fill="#cc5b51"/><path d="M183.22 267.64c-.02.43-3.77 14.19-3.77 14.19v-11.238l3.77-2.95z" fill="#fff"/></g></g><g><path d="M172.463 259.184c-.208.18-.408.376-.593.594 0 0-.255 2.548 0 2.803.255.256.7.256.764.447.064.19 3.504 6.625 6.816 6.816v-19.148c-6.746-.605-7.034 6.528-6.987 8.49z" fill="#ffeebd"/><path d="M187.03 259.778s-.106-9.72-7.58-9.083v19.148c3.313-.19 6.753-6.625 6.816-6.816.064-.19.51-.19.764-.446.256-.254 0-2.802 0-2.802z" fill="#f4daaa"/></g><path d="M188.114 256.38c-2.123-7.558-8.664-6.45-8.664-6.45-12.74 2.214-8.41 15.2-8.41 15.2v9.428l3.314 2.718v-16.733c.537-.145 1.016-.314 1.446-.498 1.743-.65 4.692-1.92 6.745-3.683.576.38 1.15 1.018 1.642 2.058 1.85 3.907-.89 18.856-.89 18.856l4.222-2.463v-9.258s2.717-1.615.594-9.174z" fill="#252627"/><path d="M185.72 261.745l-.228-.112c-.01.02-.984 1.984-2.996 4.242-.075-.042-.164-.067-.26-.067-.266 0-.483.19-.483.425s.217.425.484.425.484-.19.484-.425c0-.063-.016-.123-.044-.176 2.044-2.29 3.035-4.292 3.045-4.312z" fill="#252627"/></g><g clip-path="url(#l)" fill="#252627"><path d="M187.157 253.953s4.347 8.327.375 20.856l-.375-20.857z"/><path d="M172.194 253.953s-4.133 4.08-1.14 20.6l1.14-20.6z"/></g></g></g></g><g><g transform="matrix(.645 0 0 .561 3.895 -55.26)"><circle cx="179.45" cy="263.367" r="18.137" fill="#7f6c67"/><g><defs><circle id="m" cx="179.45" cy="263.367" r="18.137"/></defs><clipPath id="n"><use xlink:href="#m" overflow="visible" width="100%" height="100%"/></clipPath><g clip-path="url(#n)"><g><g><path d="M172.303 268.347h-2.644s-2.522-.34-2.522 2.835v10.65h12.312v-13.495l-7.147.01z" fill="#eb635b"/><path d="M175.682 267.64c.02.43 3.768 14.19 3.768 14.19v-11.238l-3.768-2.95z" fill="#fff"/></g><g><path d="M186.598 268.347h2.644s2.52-.34 2.52 2.835v10.65H179.45v-13.495l7.148.01z" fill="#cc5b51"/><path d="M183.22 267.64c-.02.43-3.77 14.19-3.77 14.19v-11.238l3.77-2.95z" fill="#fff"/></g></g><g><path d="M172.463 259.184c-.208.18-.408.376-.593.594 0 0-.255 2.548 0 2.803.255.256.7.256.764.447.064.19 3.504 6.625 6.816 6.816v-19.148c-6.746-.605-7.034 6.528-6.987 8.49z" fill="#ffeebd"/><path d="M187.03 259.778s-.106-9.72-7.58-9.083v19.148c3.313-.19 6.753-6.625 6.816-6.816.064-.19.51-.19.764-.446.256-.254 0-2.802 0-2.802z" fill="#f4daaa"/></g><g><path d="M172.463 259.184c-.208.18-.408.376-.593.594 0 0-.255 2.548 0 2.803.255.256.7.256.764.447.064.19 3.504 6.625 6.816 6.816v-19.148c-6.746-.605-7.034 6.528-6.987 8.49z" fill="#ffeebd"/><path d="M187.03 259.778s-.106-9.72-7.58-9.083v19.148c3.313-.19 6.753-6.625 6.816-6.816.064-.19.51-.19.764-.446.256-.254 0-2.802 0-2.802z" fill="#f4daaa"/></g><g><path d="M172.463 259.184c-.208.18-.408.376-.593.594 0 0-.255 2.548 0 2.803.255.256.7.256.764.447.064.19 3.504 6.625 6.816 6.816v-19.148c-6.746-.605-7.034 6.528-6.987 8.49z" fill="#ffeebd"/><path d="M187.03 259.778s-.106-9.72-7.58-9.083v19.148c3.313-.19 6.753-6.625 6.816-6.816.064-.19.51-.19.764-.446.256-.254 0-2.802 0-2.802z" fill="#f4daaa"/></g><g><path d="M172.463 259.184c-.208.18-.408.376-.593.594 0 0-.255 2.548 0 2.803.255.256.7.256.764.447.064.19 3.504 6.625 6.816 6.816v-19.148c-6.746-.605-7.034 6.528-6.987 8.49z" fill="#ffeebd"/><path d="M187.03 259.778s-.106-9.72-7.58-9.083v19.148c3.313-.19 6.753-6.625 6.816-6.816.064-.19.51-.19.764-.446.256-.254 0-2.802 0-2.802z" fill="#f4daaa"/></g><g><path d="M172.463 259.184c-.208.18-.408.376-.593.594 0 0-.255 2.548 0 2.803.255.256.7.256.764.447.064.19 3.504 6.625 6.816 6.816v-19.148c-6.746-.605-7.034 6.528-6.987 8.49z" fill="#ffeebd"/><path d="M187.03 259.778s-.106-9.72-7.58-9.083v19.148c3.313-.19 6.753-6.625 6.816-6.816.064-.19.51-.19.764-.446.256-.254 0-2.802 0-2.802z" fill="#f4daaa"/></g><g><path d="M172.463 259.184c-.208.18-.408.376-.593.594 0 0-.255 2.548 0 2.803.255.256.7.256.764.447.064.19 3.504 6.625 6.816 6.816v-19.148c-6.746-.605-7.034 6.528-6.987 8.49z" fill="#ffeebd"/><path d="M187.03 259.778s-.106-9.72-7.58-9.083v19.148c3.313-.19 6.753-6.625 6.816-6.816.064-.19.51-.19.764-.446.256-.254 0-2.802 0-2.802z" fill="#f4daaa"/></g><g><path d="M172.463 259.184c-.208.18-.408.376-.593.594 0 0-.255 2.548 0 2.803.255.256.7.256.764.447.064.19 3.504 6.625 6.816 6.816v-19.148c-6.746-.605-7.034 6.528-6.987 8.49z" fill="#ffeebd"/><path d="M187.03 259.778s-.106-9.72-7.58-9.083v19.148c3.313-.19 6.753-6.625 6.816-6.816.064-.19.51-.19.764-.446.256-.254 0-2.802 0-2.802z" fill="#f4daaa"/></g><g><path d="M172.463 259.184c-.208.18-.408.376-.593.594 0 0-.255 2.548 0 2.803.255.256.7.256.764.447.064.19 3.504 6.625 6.816 6.816v-19.148c-6.746-.605-7.034 6.528-6.987 8.49z" fill="#ffeebd"/><path d="M187.03 259.778s-.106-9.72-7.58-9.083v19.148c3.313-.19 6.753-6.625 6.816-6.816.064-.19.51-.19.764-.446.256-.254 0-2.802 0-2.802z" fill="#f4daaa"/></g><g><path d="M172.463 259.184c-.208.18-.408.376-.593.594 0 0-.255 2.548 0 2.803.255.256.7.256.764.447.064.19 3.504 6.625 6.816 6.816v-19.148c-6.746-.605-7.034 6.528-6.987 8.49z" fill="#ffeebd"/><path d="M186.808 259.815s-.107-9.72-7.58-9.083v19.148c3.312-.19 6.752-6.625 6.815-6.816.064-.19.51-.19.764-.446.256-.255 0-2.803 0-2.803z" fill="#f4daaa"/></g><path d="M188.114 256.38c-2.123-7.558-8.664-6.45-8.664-6.45-12.74 2.214-8.41 15.2-8.41 15.2v9.428l3.314 2.718v-16.733c.537-.145 1.016-.314 1.446-.498 1.743-.65 4.692-1.92 6.745-3.683.576.38 1.15 1.018 1.642 2.058 1.85 3.907-.89 18.856-.89 18.856l4.222-2.463v-9.258s2.717-1.615.594-9.174z" fill="#252627"/><path d="M185.72 261.745l-.228-.112c-.01.02-.984 1.984-2.996 4.242-.075-.042-.164-.067-.26-.067-.266 0-.483.19-.483.425s.217.425.484.425.484-.19.484-.425c0-.063-.016-.123-.044-.176 2.044-2.29 3.035-4.292 3.045-4.312z" fill="#252627"/></g><g clip-path="url(#n)" fill="#252627"><path d="M187.157 253.953s4.347 8.327.375 20.856l-.375-20.857z"/><path d="M172.194 253.953s-4.133 4.08-1.14 20.6l1.14-20.6z"/></g></g></g></g><path d="M119.605 96.134l-.7-.093s.735 6.717.735 6.624c0 .093.737-6.623.737-6.623l-.772.094z" fill="#cc5b51"/></g><g><g transform="matrix(.645 0 0 .561 3.895 -55.26)"><circle cx="124.668" cy="263.367" r="18.137" fill="#7f6c67"/><g><defs><circle id="o" cx="124.668" cy="263.367" r="18.137"/></defs><clipPath id="p"><use xlink:href="#o" overflow="visible" width="100%" height="100%"/></clipPath><g clip-path="url(#p)"><g><path d="M116.63 271.598h-2.973s-2.835-.34-2.835 2.835v10.65h13.845v-13.495l-8.037.01z" fill="#f3f3f3"/><path d="M120.43 270.892c.022.43 4.237 14.19 4.237 14.19v-11.24l-4.237-2.95z" fill="#fff"/><path d="M121.16 270.722l-3.745.877s4.672 4.394 6.03 4.564v-2.32s-2.788-2.703-2.286-3.122z" fill="#e0e1e0"/></g><g><path d="M132.705 271.598h2.973s2.835-.34 2.835 2.835v10.65h-13.845v-13.495l8.037.01z" fill="#e5e5e5"/><path d="M128.905 270.892c-.022.43-4.237 14.19-4.237 14.19v-11.24l4.237-2.95z" fill="#fff"/><path d="M128.176 270.722l3.744.877s-4.672 4.394-6.03 4.564v-2.32s2.788-2.703 2.286-3.122z" fill="#d1d2d1"/></g><path fill="#d1d2d1" d="M132.705 271.598h3.822v1.082h-3.822z"/><path fill="#e0e1e0" d="M113.044 271.598h3.822v1.082h-3.822z"/><g><path d="M117.087 263.777s-.255 2.548 0 2.803c.255.255.7.255.764.446.065.19 3.505 6.625 6.817 6.816v-12.358s-5.032-.7-7.58 2.293z" fill="#ffeebd"/><path d="M132.248 263.777s.255 2.548 0 2.803c-.255.255-.7.255-.764.446-.064.19-3.504 6.625-6.816 6.816v-12.358s5.032-.7 7.58 2.293z" fill="#f4daaa"/><path d="M117.087 263.777s6.638-5.082 15.16 0v-5.705s-7.928-4.756-15.16 0v5.705z" fill="#e0e1e0"/><path d="M124.893 248.145c0-1.478-1.198-2.676-2.676-2.676-1.457 0-2.64 1.164-2.672 2.613-.21-.068-.434-.106-.667-.106-1.196 0-2.166.97-2.166 2.166 0 .887.534 1.65 1.298 1.984v5.738c2.8-1.45 6.88-1.684 6.88-1.684v-7.398c-.025 0-.05 0-.077.002.05-.205.08-.418.08-.64z" fill="#f3f3f3"/><path d="M124.67 248.145c0-1.478 1.197-2.676 2.675-2.676 1.457 0 2.64 1.164 2.672 2.613.21-.068.434-.106.667-.106 1.196 0 2.166.97 2.166 2.166 0 .887-.534 1.65-1.298 1.984v5.738c-2.8-1.45-6.88-1.684-6.88-1.684v-7.398c.025 0 .05 0 .077.002-.05-.205-.08-.418-.08-.64z" fill="#e5e5e5"/></g><path d="M118.86 262.765s.118 2.144-.774 2.78v-2.39l.775-.39z" fill="#d7983e"/><path d="M130.425 262.765s-.117 2.144.775 2.78v-2.39l-.775-.39z" fill="#d7983e"/></g></g><g><defs><circle id="q" cx="124.668" cy="263.367" r="18.137"/></defs><clipPath id="r"><use xlink:href="#q" overflow="visible" width="100%" height="100%"/></clipPath><g clip-path="url(#r)"><g><path d="M116.63 271.598h-2.973s-2.835-.34-2.835 2.835v10.65h13.845v-13.495l-8.037.01z" fill="#f3f3f3"/><path d="M120.43 270.892c.022.43 4.237 14.19 4.237 14.19v-11.24l-4.237-2.95z" fill="#fff"/><path d="M121.16 270.722l-3.745.877s4.672 4.394 6.03 4.564v-2.32s-2.788-2.703-2.286-3.122z" fill="#e0e1e0"/></g><g><path d="M132.705 271.598h2.973s2.835-.34 2.835 2.835v10.65h-13.845v-13.495l8.037.01z" fill="#e5e5e5"/><path d="M128.905 270.892c-.022.43-4.237 14.19-4.237 14.19v-11.24l4.237-2.95z" fill="#fff"/><path d="M128.176 270.722l3.744.877s-4.672 4.394-6.03 4.564v-2.32s2.788-2.703 2.286-3.122z" fill="#d1d2d1"/></g><path fill="#d1d2d1" d="M132.705 271.598h3.822v1.082h-3.822z"/><path fill="#e0e1e0" d="M113.044 271.598h3.822v1.082h-3.822z"/><g><path d="M117.087 263.777s-.255 2.548 0 2.803c.255.255.7.255.764.446.065.19 3.505 6.625 6.817 6.816v-12.358s-5.032-.7-7.58 2.293z" fill="#ffeebd"/><path d="M132.248 263.777s.255 2.548 0 2.803c-.255.255-.7.255-.764.446-.064.19-3.504 6.625-6.816 6.816v-12.358s5.032-.7 7.58 2.293z" fill="#f4daaa"/><path d="M117.087 263.777s-.255 2.548 0 2.803c.255.255.7.255.764.446.065.19 3.505 6.625 6.817 6.816v-12.358s-5.032-.7-7.58 2.293z" fill="#ffeebd"/><path d="M132.248 263.777s.255 2.548 0 2.803c-.255.255-.7.255-.764.446-.064.19-3.504 6.625-6.816 6.816v-12.358s5.032-.7 7.58 2.293z" fill="#f4daaa"/><path d="M117.087 263.777s-.255 2.548 0 2.803c.255.255.7.255.764.446.065.19 3.505 6.625 6.817 6.816v-12.358s-5.032-.7-7.58 2.293z" fill="#ffeebd"/><path d="M132.248 263.777s.255 2.548 0 2.803c-.255.255-.7.255-.764.446-.064.19-3.504 6.625-6.816 6.816v-12.358s5.032-.7 7.58 2.293z" fill="#f4daaa"/><path d="M117.087 263.777s-.255 2.548 0 2.803c.255.255.7.255.764.446.065.19 3.505 6.625 6.817 6.816v-12.358s-5.032-.7-7.58 2.293z" fill="#ffeebd"/><path d="M132.248 263.777s.255 2.548 0 2.803c-.255.255-.7.255-.764.446-.064.19-3.504 6.625-6.816 6.816v-12.358s5.032-.7 7.58 2.293z" fill="#f4daaa"/><path d="M117.087 263.777s-.255 2.548 0 2.803c.255.255.7.255.764.446.065.19 3.505 6.625 6.817 6.816v-12.358s-5.032-.7-7.58 2.293z" fill="#ffeebd"/><path d="M132.248 263.777s.255 2.548 0 2.803c-.255.255-.7.255-.764.446-.064.19-3.504 6.625-6.816 6.816v-12.358s5.032-.7 7.58 2.293z" fill="#f4daaa"/><path d="M117.087 263.777s-.255 2.548 0 2.803c.255.255.7.255.764.446.065.19 3.505 6.625 6.817 6.816v-12.358s-5.032-.7-7.58 2.293z" fill="#ffeebd"/><path d="M132.248 263.777s.255 2.548 0 2.803c-.255.255-.7.255-.764.446-.064.19-3.504 6.625-6.816 6.816v-12.358s5.032-.7 7.58 2.293z" fill="#f4daaa"/><path d="M117.087 263.777s-.255 2.548 0 2.803c.255.255.7.255.764.446.065.19 3.505 6.625 6.817 6.816v-12.358s-5.032-.7-7.58 2.293z" fill="#ffeebd"/><path d="M132.248 263.777s.255 2.548 0 2.803c-.255.255-.7.255-.764.446-.064.19-3.504 6.625-6.816 6.816v-12.358s5.032-.7 7.58 2.293z" fill="#f4daaa"/><path d="M117.087 263.777s6.638-5.082 15.16 0v-5.705s-7.928-4.756-15.16 0v5.705z" fill="#e0e1e0"/></g><path d="M118.86 262.765s.118 2.144-.774 2.78v-2.39l.775-.39z" fill="#d7983e"/><path d="M130.425 262.765s-.117 2.144.775 2.78v-2.39l-.775-.39z" fill="#d7983e"/></g></g></g><path fill="#fff" d="M84.306 102.664l-.25-4.327.25.028.25-.028z"/></g><g><g transform="matrix(.645 0 0 .561 3.895 -55.26)"><circle cx="179.45" cy="216.667" r="18.137" fill="#8ba18d"/><g><defs><circle id="s" cx="179.45" cy="216.667" r="18.137"/></defs><clipPath id="t"><use xlink:href="#s" overflow="visible" width="100%" height="100%"/></clipPath><g clip-path="url(#t)"><g><g><path d="M171.413 221.183h-2.973s-2.835-.34-2.835 2.835v10.65h13.845v-13.495l-8.037.01z" fill="#775233"/><path d="M175.213 220.477c.022.43 4.237 14.19 4.237 14.19v-11.24l-4.237-2.95z" fill="#fff"/><path d="M175.942 220.306l-3.744.877s4.672 4.395 6.03 4.565v-2.32s-2.788-2.703-2.286-3.122z" fill="#5a3f28"/></g><path d="M171.762 213.364s-.255 2.548 0 2.803c.255.255.7.255.764.446.064.19 3.504 6.625 6.816 6.816v-12.36s-5.032-.7-7.58 2.294z" fill="#ffeebd"/><g><path d="M187.488 221.183h2.973s2.836-.34 2.836 2.835v10.65H179.45v-13.495l8.038.01z" fill="#5a3f28"/><path d="M183.688 220.477c-.022.43-4.237 14.19-4.237 14.19v-11.24l4.238-2.95z" fill="#fff"/><path d="M182.96 220.306l3.743.877s-4.67 4.395-6.03 4.565v-2.32s2.788-2.703 2.286-3.122z" fill="#5a3f28"/></g><path d="M186.923 213.364s.255 2.548 0 2.803c-.255.255-.7.255-.764.446-.065.19-3.505 6.625-6.817 6.816v-12.36s5.032-.7 7.58 2.294z" fill="#f4daaa"/><path d="M171.762 213.364s-.255 2.548 0 2.803c.255.255.7.255.764.446.064.19 3.504 6.625 6.816 6.816v-12.36s-5.032-.7-7.58 2.294z" fill="#ffeebd"/><path d="M186.923 213.364s.255 2.548 0 2.803c-.255.255-.7.255-.764.446-.065.19-3.505 6.625-6.817 6.816v-12.36s5.032-.7 7.58 2.294z" fill="#f4daaa"/><path d="M171.762 213.364s-.255 2.548 0 2.803c.255.255.7.255.764.446.064.19 3.504 6.625 6.816 6.816v-12.36s-5.032-.7-7.58 2.294z" fill="#ffeebd"/><path d="M186.923 213.364s.255 2.548 0 2.803c-.255.255-.7.255-.764.446-.065.19-3.505 6.625-6.817 6.816v-12.36s5.032-.7 7.58 2.294z" fill="#f4daaa"/><path d="M171.762 213.364s-.255 2.548 0 2.803c.255.255.7.255.764.446.064.19 3.504 6.625 6.816 6.816v-12.36s-5.032-.7-7.58 2.294z" fill="#ffeebd"/><path d="M186.923 213.364s.255 2.548 0 2.803c-.255.255-.7.255-.764.446-.065.19-3.505 6.625-6.817 6.816v-12.36s5.032-.7 7.58 2.294z" fill="#f4daaa"/><path d="M171.762 213.364s-.255 2.548 0 2.803c.255.255.7.255.764.446.064.19 3.504 6.625 6.816 6.816v-12.36s-5.032-.7-7.58 2.294z" fill="#ffeebd"/><path d="M186.923 213.364s.255 2.548 0 2.803c-.255.255-.7.255-.764.446-.065.19-3.505 6.625-6.817 6.816v-12.36s5.032-.7 7.58 2.294z" fill="#f4daaa"/><path d="M171.762 213.364s-.255 2.548 0 2.803c.255.255.7.255.764.446.064.19 3.504 6.625 6.816 6.816v-12.36s-5.032-.7-7.58 2.294z" fill="#ffeebd"/><path d="M186.923 213.364s.255 2.548 0 2.803c-.255.255-.7.255-.764.446-.065.19-3.505 6.625-6.817 6.816v-12.36s5.032-.7 7.58 2.294z" fill="#f4daaa"/><path d="M171.762 213.364s-.255 2.548 0 2.803c.255.255.7.255.764.446.064.19 3.504 6.625 6.816 6.816v-12.36s-5.032-.7-7.58 2.294z" fill="#ffeebd"/><path d="M186.923 213.364s.255 2.548 0 2.803c-.255.255-.7.255-.764.446-.065.19-3.505 6.625-6.817 6.816v-12.36s5.032-.7 7.58 2.294z" fill="#f4daaa"/><path d="M171.762 213.364s-.255 2.548 0 2.803c.255.255.7.255.764.446.064.19 3.504 6.625 6.816 6.816v-12.36s-5.032-.7-7.58 2.294z" fill="#ffeebd"/><path d="M186.923 213.364s.255 2.548 0 2.803c-.255.255-.7.255-.764.446-.065.19-3.505 6.625-6.817 6.816v-12.36s5.032-.7 7.58 2.294z" fill="#f4daaa"/><path d="M171.762 213.364s-.255 2.548 0 2.803c.255.255.7.255.764.446.064.19 3.504 6.625 6.816 6.816v-12.36s-5.032-.7-7.58 2.294z" fill="#ffeebd"/><path d="M186.96 213.364s.255 2.548 0 2.803c-.255.255-.7.255-.764.446-.064.19-3.503 6.625-6.816 6.816v-12.36s5.032-.7 7.58 2.294z" fill="#f4daaa"/><path d="M179.343 211.07v-3.032s-5.885.453-6.97 4.717c-1.087 4.266 6.97-1.685 6.97-1.685z" fill="#ffeebd"/><path d="M179.343 211.07v-3.032s5.885.453 6.97 4.717c1.086 4.266-6.97-1.685-6.97-1.685z" fill="#f4daaa"/><path fill="#c2c1c0" d="M187.488 221.183h3.822v1.082h-3.822z"/><path fill="#c2c1c0" d="M167.827 221.183h3.822v1.082h-3.823z"/></g><path d="M186.386 211.186c-.133-6.485-6.157-6.28-8.304-6.002-.09-.222-.03-.458.477-.597 1.158-.32-10.858 1.367-6.188 8.17l.156 2.087s.476-4.22 2.592-4.78c1.385 1.072 5.55 3.866 10.293 2.916.373.918.547 2.195.547 2.395v-2.522c.118-.03.235-.06.354-.097 0 0 .158-.657.072-1.57z" fill="#464646"/><g fill="#464646"><path d="M174.03 214.05h4.66s-.1 2.474-1.36 2.474c-1.258 0-3.232-.287-3.3-2.474z"/><path d="M184.87 214.05h-4.66s.1 2.474 1.36 2.474 3.232-.287 3.3-2.474z"/></g><path stroke-miterlimit="10" d="M178.356 214.76s.787-1.236 2.19 0" fill="none" stroke="#464646" stroke-width=".438"/></g></g></g><path d="M120.217 69.94l-.576 6.448-.743-6.447s.87.408 1.32 0z" fill="#fff"/></g><g><g><g transform="matrix(.645 0 0 .561 3.895 -55.26)"><circle cx="124.668" cy="216.667" r="18.137" fill="#8ba18d"/><g><defs><circle id="u" cx="124.668" cy="216.667" r="18.137"/></defs><clipPath id="v"><use xlink:href="#u" overflow="visible" width="100%" height="100%"/></clipPath><g clip-path="url(#v)"><path d="M133.905 224.467H115.43s-3.354-.234-3.354 2.74v9.427h25.184v-9.428c0-2.973-3.355-2.74-3.355-2.74z" fill="#3f4f60"/><path fill="#2f3740" d="M112.076 231.792h25.184v4.84h-25.184z"/><path d="M117.31 214.402s-.255 2.548 0 2.803c.255.255.7.255.764.446.064.192 3.504 6.626 6.816 6.817V212.11c0-.002-5.032-.702-7.58 2.292z" fill="#ffeebd"/><path d="M132.248 214.402s.255 2.548 0 2.803c-.255.255-.7.255-.764.446-.064.192-3.504 6.626-6.816 6.817V212.11c0-.002 5.032-.702 7.58 2.292z" fill="#f4daaa"/><path fill="#464646" d="M131.038 213.615l-1.462-.656.952 4.53.51-1.05z"/><path fill="#464646" d="M118.237 213.615l1.462-.656-.953 4.53-.51-1.05z"/></g></g></g></g><path d="M86.965 59.748s-2.15.73-2.66-.446c-.51 1.176-2.658.446-2.658.446-.54 1.338-3.278.81-3.278.81l1.047 3.93 4.89-.725 4.89.724 1.047-3.928c-.002 0-2.74.526-3.28-.812z" fill="#3f4f60"/><path d="M79.416 64.487s5.912 2.094 9.78 0c0 0-4.16-2.824-9.78 0z" fill="#2f3740"/><path d="M85.248 61.172l-.943-.325-.943.325s.013 1.557.943 1.784c.93-.227.943-1.784.943-1.784z" fill="#e8bf42"/><path fill="#2a2b2d" d="M83.834 70.996l.345.418-.817 5.02.943.03.942-.03-.816-5.02.345-.418-.47-.33z"/><g fill="#2f3740"><path d="M85.248 71.936l-.666-1.27.855-.094 3.292.006z"/><path d="M83.627 72.123l.403-1.457-.863-.188-3.285.1z"/></g><g fill="#e8bf42"><path d="M89.195 70.666h.41v1.166h-.41z"/><path d="M90.242 70.666h.41v1.166h-.41z"/></g><g fill="#e8bf42"><path d="M78.103 70.666h.41v1.166h-.41z"/><path d="M79.15 70.666h.41v1.166h-.41z"/></g></g><g><g transform="matrix(.645 0 0 .561 3.895 -55.26)"><circle cx="124.668" cy="310.422" r="18.137" fill="#425b77"/><g><defs><circle id="w" cx="124.668" cy="310.422" r="18.137"/></defs><clipPath id="x"><use xlink:href="#w" overflow="visible" width="100%" height="100%"/></clipPath><g clip-path="url(#x)"><path d="M117.68 305.638c-.21.18-.408.376-.593.594 0 0-.255 2.548 0 2.803.255.255.7.255.764.446.065.192 3.505 6.626 6.817 6.817V297.15c-6.746-.607-7.034 6.526-6.987 8.488z" fill="#ffeebd"/><path d="M132.248 306.23s-.107-9.72-7.58-9.082v19.148c3.312-.19 6.75-6.625 6.815-6.816.064-.19.51-.19.764-.446.256-.254 0-2.803 0-2.803z" fill="#f4daaa"/><path d="M118.468 298.167s1.4.637 1.53.956c.126.318-.256.764 0 .956.254.19-1.72 3.184-1.53 3.757.19.573.19.892.318 1.402.127.508.587 1.655.453 2.547-.135.892-.326 1.593-.326 1.593s-.637-1.53-.764-1.784c-.127-.255-.47-1.957-.47-1.957s-.48-.4-.706-.4h-.226s-1.083-3.314 1.72-7.073z" fill="#f5f9fa"/><path d="M130.954 298.167s-1.402.637-1.53.956c-.126.318.256.764 0 .956-.254.19 1.72 3.184 1.53 3.757-.19.573-.19.892-.32 1.402-.126.508-.586 1.655-.452 2.547.134.892.325 1.593.325 1.593s.637-1.53.764-1.784c.128-.255.47-1.957.47-1.957s.48-.4.707-.4h.226s1.084-3.314-1.72-7.073z" fill="#f5f9fa"/><g><path d="M123.883 316.386v1.975h.785V329s-6.39 1.082-12.38-4.906v-3.058s1.72-2.484 4.97-3.12l4.077-.957v-1.466s1.847.956 2.548.892z" fill="#2e3138"/><path fill="#fff" d="M123.883 316.386h.785v1.975h-.785z"/></g><g><path d="M125.452 316.386v1.975h-.785V329s6.39 1.082 12.38-4.906v-3.058s-1.72-2.484-4.97-3.12L128 316.96v-1.465s-1.847.955-2.548.89z" fill="#2e3138"/><path fill="#fff" d="M124.668 316.386h.785v1.975h-.785z"/></g><path d="M128.453 317.374c0-.14-.005-.278-.012-.415h-.256c.007.136.014.274.014.414 0 2.933-1.584 5.32-3.53 5.32-1.948 0-3.532-2.387-3.532-5.32 0-.14.007-.278.014-.415h-.257c-.007.136-.012.275-.012.414 0 2.983 1.6 5.425 3.604 5.567v.326h-.488v.297h.488v1.295h.276v-1.295h.488v-.297h-.488v-.32c2.045-.076 3.693-2.545 3.693-5.572z" fill="#937a62"/></g></g><g><defs><circle id="y" cx="124.668" cy="310.422" r="18.137"/></defs><clipPath id="z"><use xlink:href="#y" overflow="visible" width="100%" height="100%"/></clipPath><path clip-path="url(#z)" d="M117.68 305.638c-.21.18-.408.376-.593.594 0 0-.255 2.548 0 2.803.255.255.7.255.764.446.065.192 3.505 6.626 6.817 6.817V297.15c-6.746-.607-7.034 6.526-6.987 8.488z" fill="#ffeebd"/><path clip-path="url(#z)" d="M132.248 306.23s-.107-9.72-7.58-9.082v19.148c3.312-.19 6.75-6.625 6.815-6.816.064-.19.51-.19.764-.446.256-.254 0-2.803 0-2.803z" fill="#f4daaa"/><path clip-path="url(#z)" d="M132.248 306.23s-.107-9.72-7.58-9.082v19.148c3.312-.19 6.75-6.625 6.815-6.816.064-.19.51-.19.764-.446.256-.254 0-2.803 0-2.803z" fill="#f4daaa"/><path clip-path="url(#z)" d="M132.248 306.23s-.107-9.72-7.58-9.082v19.148c3.312-.19 6.75-6.625 6.815-6.816.064-.19.51-.19.764-.446.256-.254 0-2.803 0-2.803z" fill="#f4daaa"/><path clip-path="url(#z)" d="M132.248 306.23s-.107-9.72-7.58-9.082v19.148c3.312-.19 6.75-6.625 6.815-6.816.064-.19.51-.19.764-.446.256-.254 0-2.803 0-2.803z" fill="#f4daaa"/><path clip-path="url(#z)" d="M132.248 306.23s-.107-9.72-7.58-9.082v19.148c3.312-.19 6.75-6.625 6.815-6.816.064-.19.51-.19.764-.446.256-.254 0-2.803 0-2.803z" fill="#f4daaa"/><path clip-path="url(#z)" d="M132.248 306.23s-.107-9.72-7.58-9.082v19.148c3.312-.19 6.75-6.625 6.815-6.816.064-.19.51-.19.764-.446.256-.254 0-2.803 0-2.803z" fill="#f4daaa"/><path clip-path="url(#z)" d="M117.68 305.638c-.21.18-.408.376-.593.594 0 0-.255 2.548 0 2.803.255.255.7.255.764.446.065.192 3.505 6.626 6.817 6.817V297.15c-6.746-.607-7.034 6.526-6.987 8.488z" fill="#ffeebd"/><path clip-path="url(#z)" fill="#f4daaa" d="M124.668 303.938v12.358"/><path clip-path="url(#z)" d="M117.68 305.638c-.21.18-.408.376-.593.594 0 0-.255 2.548 0 2.803.255.255.7.255.764.446.065.192 3.505 6.626 6.817 6.817V297.15c-6.746-.607-7.034 6.526-6.987 8.488z" fill="#ffeebd"/><path clip-path="url(#z)" fill="#f4daaa" d="M124.668 303.938v12.358"/><path clip-path="url(#z)" d="M117.68 305.638c-.21.18-.408.376-.593.594 0 0-.255 2.548 0 2.803.255.255.7.255.764.446.065.192 3.505 6.626 6.817 6.817V297.15c-6.746-.607-7.034 6.526-6.987 8.488z" fill="#ffeebd"/><path clip-path="url(#z)" fill="#f4daaa" d="M124.668 303.938v12.358"/><path clip-path="url(#z)" d="M117.68 305.638c-.21.18-.408.376-.593.594 0 0-.255 2.548 0 2.803.255.255.7.255.764.446.065.192 3.505 6.626 6.817 6.817V297.15c-6.746-.607-7.034 6.526-6.987 8.488z" fill="#ffeebd"/><path clip-path="url(#z)" fill="#f4daaa" d="M124.668 303.938v12.358"/><path clip-path="url(#z)" d="M117.68 305.638c-.21.18-.408.376-.593.594 0 0-.255 2.548 0 2.803.255.255.7.255.764.446.065.192 3.505 6.626 6.817 6.817V297.15c-6.746-.607-7.034 6.526-6.987 8.488z" fill="#ffeebd"/><path clip-path="url(#z)" fill="#f4daaa" d="M124.668 303.938v12.358"/><path clip-path="url(#z)" d="M117.68 305.638c-.21.18-.408.376-.593.594 0 0-.255 2.548 0 2.803.255.255.7.255.764.446.065.192 3.505 6.626 6.817 6.817V297.15c-6.746-.607-7.034 6.526-6.987 8.488z" fill="#ffeebd"/><path clip-path="url(#z)" fill="#f4daaa" d="M124.668 316.296v-12.358"/><path clip-path="url(#z)" d="M123.883 316.386v1.975h.785V329s-6.39 1.082-12.38-4.906v-3.058s1.72-2.484 4.97-3.12l4.077-.957v-1.466s1.847.956 2.548.892z" fill="#2e3138"/><path clip-path="url(#z)" d="M125.452 316.386v1.975h-.785V329s6.39 1.082 12.38-4.906v-3.058s-1.72-2.484-4.97-3.12L128 316.96v-1.465s-1.847.955-2.548.89z" fill="#2e3138"/><path clip-path="url(#z)" d="M123.883 316.386v1.975h.785V329s-6.39 1.082-12.38-4.906v-3.058s1.72-2.484 4.97-3.12l4.077-.957v-1.466s1.847.956 2.548.892z" fill="#2e3138"/><path clip-path="url(#z)" d="M125.452 316.386v1.975h-.785V329s6.39 1.082 12.38-4.906v-3.058s-1.72-2.484-4.97-3.12L128 316.96v-1.465s-1.847.955-2.548.89z" fill="#2e3138"/><path clip-path="url(#z)" fill="#fff" d="M125.452 316.386h-1.569v1.975h1.569z"/></g><path d="M124.7 316.163s-1.87-.326-3.278-1.695v1.072s1.324.987 3.23.987" fill="#e5c48f"/><path d="M124.668 316.17s1.836-.334 3.245-1.703v1.072s-1.42.986-3.327.986" fill="#e5c48f"/></g><path d="M81.293 113.084s1.08.397 2.95.46 3.13-.46 3.13-.46l.15-.67s-1.036-1.25-3.218-.974c0 0-2.55-.35-3.218.94-.665 1.29.206.704.206.704z" fill="#5a3f28"/><path d="M88.36 112.012s-4.386-2.44-8.053 0c-1.808 2.108-1.11 3.967-1.11 3.967h.146c.146 0 .456.222.456.222s.22.956.302 1.098c.082.143.493 1 .493 1s.123-.392.21-.893c.086-.5-.21-1.143-.293-1.43-.082-.285-.082-.464-.205-.786-.076-.197.378-.91.7-1.455 1.22.35 4.13.986 6.645-.012.322.545.784 1.27.708 1.468-.124.323-.124.502-.206.788-.082.286-.38.93-.292 1.43.086.5.21.893.21.893s.41-.857.492-1c.082-.143.303-1.098.303-1.098s.31-.223.456-.223h.145s.7-1.86-1.108-3.968z" fill="#5a3f28"/></g></g></g></svg>