<svg xmlns="http://www.w3.org/2000/svg" width="250" height="250" viewBox="0 0 249.99999 250" enable-background="new 0 0 595.28 841.89"><defs><filter id="a" color-interpolation-filters="sRGB"><feColorMatrix values="0.21 0.72 0.072 0 0 0.21 0.72 0.072 0 0 0.21 0.72 0.072 0 0 0 0 0 1 0"/></filter></defs><g transform="translate(-46.375 -192.349)" filter="url(#a)"><g><path d="M91.607 276.4s9.158 2.406 10.888 11.35l-5.328-3.516s36.37 62.337 31.83 74.824c-4.54 12.486 10.764 6.433 33.945-4.136 23.18-10.568 33.8-9.012 51.595-5.62 17.796 3.39 42.136-6.553 50.607-10.47 8.47-3.92-13.056-2.213-24.593-14.62-11.536-12.404 9.35-2.29 17.892 1.14 0 0-11.864-24.78-24.136-30.805 0 0-.022-10.876-9.29-25.46-9.27-14.58-11.252-23.096-15.696-31.57-4.444-8.475-8.588 7.175-27.293 9.53-7.134.9-11.774 4.17-23.364 4.258 0 0-.582 2.43 5.458 3.777 0 0-33.065 7.418-49.61 3.335 0 0-.352 2.382 5.023 3.29 0 0-21.293-.5-35.927 4.258 0 0 2.263 1.842 8.58 2.844l-9.34 3.664 8.76 3.927z" fill="#faa84a"/><path d="M225.015 269.09c-9.27-14.582-11.25-23.098-15.695-31.573-4.444-8.474-8.588 7.176-27.293 9.532-7.134.897-11.774 4.167-23.364 4.256 0 0-.582 2.43 5.458 3.777 0 0-33.065 7.418-49.61 3.335 0 0-.352 2.382 5.023 3.29 0 0-21.293-.5-35.927 4.258 0 0 2.263 1.842 8.58 2.844l-9.34 3.665 7.78 3.488c8.478-1.4 16.448-3.19 19.31-3.832 1.467 11.17 28.047-3.998 35.485-6.173.6-.175 4.4 1.517 6.264 1.106 2.542-.56 4.92-5.125 6.73-5.147 7.228-.09 8.978 1.868 12.82 7.052 5.947-3.28 7.493-9.024 14.37-11.45.5 1.682 2.576 3.53 3 5.218 2.022-1.887 7.543-4.837 9.578-6.32 1.468 2.722 3.86 5.8 3.692 8.773 10.566-2.258 10.412 28.745 29.57 30.542-1.275 5.317-5.647 10.43-2.482 15.795 5.452.932 10.512.146 14.036-3.224 1.572 2.873 6.962 8.022 13.125 12.578-4.046-7.424-12.82-21.914-21.816-26.33 0-.002-.023-10.878-9.292-25.46z" fill="#fbb569"/><path d="M128.998 359.058c-4.54 12.486 10.764 6.433 33.945-4.136 23.18-10.568 33.8-9.012 51.595-5.62 17.796 3.39 42.136-6.553 50.607-10.47.89-.413 1.432-.76 1.706-1.07-8.954-.21-18.63.714-25.02 2.277-1.84-1.56-4.192-1.994-5.794-3.084-.207 1.262-1.793 2.992-1.944 4.66-8.983.48-45.84-5.18-48.582-.97-18.695-6.088-42.17 11.763-54.44 19.792 5.583-17.17 1.46-27.03-10.013-42.73-2.025-2.772-6.126-6.865-11.115-10.23 9.983 19.09 21.755 44.153 19.056 51.58z" fill="#fbb569"/><path d="M111.885 302.256c.71-1.24 1.98-2.493 2.467-3.796.865.876 1.206.636 2.215 1.16.468-1.427.88-2.772.424-4.21.328.89 1.432 1.68 1.948 2.537 4.544-1.086 4.512-7.66-1.246-6.117-1.46-2.213-2.17-4.628-3.175-6.92-.752.4-2.442.603-3.236.983-2.415-4.84-6.274-6.107-13.625-6.22 2.104 1.754 4.12 4.344 4.84 8.076l-5.328-3.518s5.47 9.378 11.904 21.586c-.344-2.635-.95-5.285 2.815-3.562z" fill="#f19737"/><path d="M254.583 334.51c1.993.11 4.033.46 6.19 1.295-4.67-.247-8.896 1.078-13.406 1.82-4.178.688-5.14-.55-8.843-1.21-4.543-.807-4.45 1.243-6.468 3.17-1.114 1.063-.198 1.226-2.827 1.144-1.687-.053-3.686-.995-5.23-1.396-4.082-1.06-8.227-2.176-12.612-2.584-3.85-.358-6.635.5-10.315.642-3.86.147-15.46-2.24-16.21 1.75-3.56-1.29-.946-3.183 1.624-3.696 6.283-1.256 12.203 1.98 17.665-.21 2.393-.96 2.846-1.658 6.21-1.345 2.372.222 4.77.906 6.884 1.612 5.777 1.93 9.08 3.935 14.063.39 3.09-2.2 4.05-2.035 8.522-1.324 5.328.847 9.902-.32 14.75-.057z" fill="#f19737"/><path d="M147.41 282.487c-5.268 9.864-33.003 17.642-12.672 28.8 5.515 3.027 8.56 4.86 8.903 9.807.437 6.35-.24 12.93 12.834 10.46 6.873-1.297 8.952-2.29 16.175-.792 5.662 1.174 7.138 1.997 12.5.613 3.412-.88 3.293-2.262 7.824-2.43 5.548-.206 10.86 2.8 16.584 2.333 10.165-.83 9.457-5.96 21.31-2.185-5.655-8.86-12.283-11.638-24.218-15.733-12.42-4.263-.06-15.357-7.006-23.025-3.59-3.963-7.332-6.337-14.725-5.94-6.34.34-6.57 2.246-11.493-1.69-5.2-4.155-5.507-7.048-15.867-6.598-9.576.415-7.876 2.118-10.15 6.38z" fill="#d66027"/><g><g><path d="M225.097 325.112c-6.376-2.453-16.292-5.173-23.252-4.763-2.608.152-5.14.455-7.59.748-3.947.473-8.03.96-12.586.85-5.168-.126-9.537-.57-10.656-4.73-.652-2.423 1.218-5.108 3.026-7.703 1.988-2.854 3.865-5.55 2.32-7.638-1.047-1.415-3.605-2.45-7.82-3.17-1.75-.297-3.422-.365-5.04-.43-4.05-.16-7.547-.302-9.397-4.083-1.782-3.644.886-6.7 3.466-9.66.83-.95 1.69-1.935 2.357-2.905l.78.222c-.686.993-1.555 1.99-2.396 2.953-2.49 2.854-5.065 5.806-3.395 9.222 1.672 3.422 4.745 3.545 8.636 3.7 1.583.064 3.377.136 5.206.448 4.473.76 7.21 1.895 8.372 3.464 1.715 2.317-.24 5.126-2.312 8.098-1.756 2.52-3.57 5.127-2.963 7.384.93 3.452 3.915 4.13 9.847 4.275 4.46.108 8.496-.374 12.398-.84 2.468-.296 5.02-.602 7.668-.758 7.164-.422 17.28 2.344 23.765 4.838l-.433.474z" fill="#faa84a"/></g><g><path d="M175.038 321.11c-9.555.875-11.754-2.775-14.3-7-.43-.715-.876-1.453-1.368-2.186-5.16-7.684-16.492-8.57-25.09-7.96l-.094-.55c12.738-.9 21.718 1.966 25.966 8.292.498.743.947 1.486 1.38 2.204 2.514 4.174 4.5 7.47 13.385 6.656l.12.544z" fill="#faa84a"/></g><g><path d="M194.895 320.977c-4.82-1.674-7.747-3.87-8.693-6.53-.988-2.778.355-5.992 3.783-9.05 7.036-6.278 4.468-8.885-1.736-15.183l-.58-.588.72-.294.578.587c6.236 6.33 9.083 9.22 1.708 15.8-3.28 2.927-4.575 5.983-3.642 8.605.888 2.498 3.67 4.573 8.265 6.168l-.405.484z" fill="#faa84a"/></g><g><path d="M151.26 329.852l-.844.08c-.25-1.113.083-2.063.99-2.823 2.13-1.787 6.908-2.144 10.07-2.38 2.405-.18 4.563-.052 6.467.06 2.413.143 4.32.255 5.36-.386.855-.527 1.194-1.578 1.07-3.305l.85-.026c.138 1.897-.285 3.082-1.33 3.727-1.322.816-3.398.693-6.026.538-1.863-.11-3.974-.234-6.293-.062-3.018.225-7.58.565-9.49 2.17-.774.644-1.043 1.432-.824 2.406z" fill="#faa84a"/></g><g><path d="M184.978 330.743c-3.362-.93-4.606-3.235-5.702-5.268-1.04-1.925-2.02-3.744-4.574-4.122l.19-.537c3.012.447 4.07 2.405 5.188 4.478 1.09 2.02 2.217 4.108 5.234 4.944l-.336.505z" fill="#faa84a"/></g><g><path d="M212.515 329.678c-.974-.222-1.944-.43-2.9-.635-6.835-1.467-13.29-2.852-14.936-8.254l.835-.108c1.55 5.088 7.492 6.363 14.37 7.84.96.206 1.935.415 2.914.64l-.285.516z" fill="#faa84a"/></g></g><g><g><path d="M170.083 323.363c1.128-.325 2.898-.294 4.042-.345 1.533-.068 3.05-.09 4.567-.113.614-.008 1.454-.37 1.928-.577.075-.033 1.258-.59.744-.584-3.093.045-7.085-.112-10.195.782-.665.192-1.473.493-1.9.82-.432.333.598.08.813.017z" fill="#010101"/></g><g><path d="M174.01 320.59c-.807 1.93-.435 3.804-.215 5.636.08.653 3.1-.32 3.03-.9-.208-1.735-.62-3.532.144-5.362.338-.813-2.722.05-2.96.626z" fill="#010101"/></g></g></g></g></svg>