<?xml version="1.0" encoding="UTF-8" standalone="no"?>
<!-- Generator: Adobe Illustrator 17.0.0, SVG Export Plug-In . SVG Version: 6.00 Build 0)  -->

<svg
   xmlns:dc="http://purl.org/dc/elements/1.1/"
   xmlns:cc="http://creativecommons.org/ns#"
   xmlns:rdf="http://www.w3.org/1999/02/22-rdf-syntax-ns#"
   xmlns:svg="http://www.w3.org/2000/svg"
   xmlns="http://www.w3.org/2000/svg"
   xmlns:sodipodi="http://sodipodi.sourceforge.net/DTD/sodipodi-0.dtd"
   xmlns:inkscape="http://www.inkscape.org/namespaces/inkscape"
   version="1.1"
   x="0px"
   y="0px"
   width="250"
   height="250"
   viewBox="0 0 249.99999 250"
   enable-background="new 0 0 595.28 841.89"
   xml:space="preserve"
   id="svg2"
   inkscape:version="0.91pre3 r13670"
   sodipodi:docname="tesoros.svg"><metadata
     id="metadata64"><rdf:RDF><cc:Work
         rdf:about=""><dc:format>image/svg+xml</dc:format><dc:type
           rdf:resource="http://purl.org/dc/dcmitype/StillImage" /><dc:title></dc:title></cc:Work></rdf:RDF></metadata><defs
     id="defs62" /><sodipodi:namedview
     pagecolor="#ffffff"
     bordercolor="#666666"
     borderopacity="1"
     objecttolerance="10"
     gridtolerance="10"
     guidetolerance="10"
     inkscape:pageopacity="0"
     inkscape:pageshadow="2"
     inkscape:window-width="640"
     inkscape:window-height="480"
     id="namedview60"
     showgrid="false"
     inkscape:zoom="0.28032165"
     inkscape:cx="235.21173"
     inkscape:cy="420.94501"
     inkscape:window-x="0"
     inkscape:window-y="0"
     inkscape:window-maximized="0"
     inkscape:current-layer="svg2" /><g
     id="Capa_2"
     display="none"
     style="display:none"
     transform="translate(0,-591.89001)"><path
       display="inline"
       d="m 278.466,381.265 c 0,12.371 -10.477,22.399 -23.401,22.399 l -170.22,0 c -12.924,0 -23.401,-10.028 -23.401,-22.399 l 0,-160.976 c 0,-12.371 10.477,-22.399 23.401,-22.399 l 170.219,0 c 12.924,0 23.401,10.028 23.401,22.399 l 0,160.976 z"
       id="path5"
       inkscape:connector-curvature="0"
       style="clip-rule:evenodd;display:inline;fill:#80a5c6;fill-rule:evenodd" /><path
       display="inline"
       d="m 269.141,374.417 c 0,11.318 -9.577,20.493 -21.391,20.493 l -155.591,0 c -11.814,0 -21.391,-9.175 -21.391,-20.493 l 0,-147.28 c 0,-11.318 9.577,-20.493 21.391,-20.493 l 155.591,0 c 11.814,0 21.391,9.175 21.391,20.493 l 0,147.28 z"
       id="path7"
       inkscape:connector-curvature="0"
       style="clip-rule:evenodd;display:inline;fill:#cee8ef;fill-rule:evenodd" /></g><g
     id="Capa_1"
     transform="translate(-46.375297,-192.34899)"><g
       id="g10"><path
         d="m 91.607,276.401 c 0,0 9.158,2.405 10.888,11.35 l -5.328,-3.517 c 0,0 36.37,62.337 31.83,74.824 -4.539,12.486 10.764,6.433 33.945,-4.136 23.18,-10.568 33.799,-9.012 51.595,-5.621 17.796,3.391 42.136,-6.552 50.607,-10.47 8.471,-3.918 -13.056,-2.212 -24.593,-14.618 -11.537,-12.405 9.348,-2.291 17.891,1.138 0,0 -11.864,-24.779 -24.136,-30.804 0,0 -0.022,-10.876 -9.291,-25.459 -9.27,-14.581 -11.251,-23.097 -15.695,-31.572 -4.444,-8.474 -8.588,7.176 -27.293,9.532 -7.134,0.898 -11.774,4.168 -23.364,4.257 0,0 -0.582,2.429 5.458,3.777 0,0 -33.066,7.418 -49.61,3.335 0,0 -0.353,2.382 5.022,3.291 0,0 -21.293,-0.502 -35.927,4.257 0,0 2.263,1.842 8.579,2.844 l -9.339,3.665 8.761,3.927 z"
         id="path12"
         inkscape:connector-curvature="0"
         style="fill:#faa84a" /><path
         d="m 225.015,269.089 c -9.27,-14.581 -11.251,-23.097 -15.695,-31.572 -4.444,-8.474 -8.588,7.176 -27.293,9.532 -7.134,0.898 -11.774,4.168 -23.364,4.257 0,0 -0.582,2.429 5.458,3.777 0,0 -33.066,7.418 -49.61,3.335 0,0 -0.353,2.382 5.022,3.291 0,0 -21.293,-0.502 -35.927,4.257 0,0 2.263,1.842 8.579,2.844 l -9.339,3.665 7.78,3.488 c 8.478,-1.399 16.448,-3.191 19.311,-3.832 1.466,11.169 28.046,-3.999 35.484,-6.174 0.6,-0.175 4.4,1.517 6.263,1.106 2.542,-0.559 4.92,-5.125 6.729,-5.147 7.229,-0.089 8.979,1.868 12.822,7.052 5.946,-3.279 7.492,-9.024 14.37,-11.449 0.498,1.681 2.575,3.528 2.999,5.217 2.022,-1.887 7.543,-4.837 9.578,-6.319 1.468,2.721 3.861,5.8 3.692,8.772 10.566,-2.257 10.412,28.746 29.57,30.543 -1.275,5.317 -5.647,10.43 -2.482,15.795 5.452,0.932 10.512,0.146 14.036,-3.224 1.572,2.873 6.962,8.022 13.125,12.578 -4.046,-7.425 -12.821,-21.915 -21.816,-26.332 -10e-4,-10e-4 -0.023,-10.877 -9.292,-25.46 z"
         id="path14"
         inkscape:connector-curvature="0"
         style="fill:#fbb569" /><path
         d="m 128.998,359.058 c -4.539,12.486 10.764,6.433 33.945,-4.136 23.18,-10.568 33.799,-9.012 51.595,-5.621 17.796,3.391 42.136,-6.552 50.607,-10.47 0.89,-0.412 1.432,-0.759 1.706,-1.068 -8.955,-0.212 -18.631,0.713 -25.022,2.276 -1.838,-1.56 -4.191,-1.993 -5.793,-3.083 -0.207,1.262 -1.793,2.992 -1.944,4.661 -8.983,0.479 -45.841,-5.182 -48.582,-0.971 -18.695,-6.088 -42.169,11.763 -54.441,19.792 5.584,-17.171 1.461,-27.03 -10.012,-42.731 -2.025,-2.771 -6.126,-6.864 -11.115,-10.23 9.983,19.091 21.755,44.154 19.056,51.581 z"
         id="path16"
         inkscape:connector-curvature="0"
         style="fill:#fbb569" /><path
         d="m 111.885,302.256 c 0.71,-1.241 1.98,-2.493 2.467,-3.796 0.865,0.876 1.206,0.636 2.215,1.16 0.468,-1.427 0.88,-2.772 0.424,-4.21 0.327,0.89 1.431,1.68 1.947,2.537 4.544,-1.086 4.512,-7.661 -1.246,-6.117 -1.461,-2.213 -2.17,-4.628 -3.175,-6.921 -0.752,0.402 -2.442,0.604 -3.236,0.984 -2.416,-4.839 -6.275,-6.107 -13.626,-6.221 2.104,1.755 4.119,4.345 4.84,8.077 l -5.328,-3.517 c 0,0 5.471,9.378 11.904,21.586 -0.345,-2.635 -0.95,-5.285 2.814,-3.562 z"
         id="path18"
         inkscape:connector-curvature="0"
         style="fill:#f19737" /><path
         d="m 254.583,334.511 c 1.993,0.109 4.033,0.46 6.191,1.294 -4.671,-0.247 -8.897,1.078 -13.407,1.82 -4.178,0.688 -5.141,-0.55 -8.843,-1.209 -4.543,-0.808 -4.45,1.242 -6.468,3.169 -1.114,1.063 -0.198,1.226 -2.827,1.144 -1.686,-0.052 -3.685,-0.994 -5.229,-1.395 -4.082,-1.059 -8.227,-2.176 -12.612,-2.584 -3.85,-0.358 -6.635,0.5 -10.315,0.642 -3.861,0.147 -15.459,-2.24 -16.211,1.749 -3.558,-1.289 -0.945,-3.182 1.625,-3.695 6.283,-1.256 12.203,1.981 17.665,-0.211 2.393,-0.96 2.846,-1.657 6.21,-1.344 2.372,0.221 4.771,0.905 6.884,1.611 5.777,1.929 9.08,3.935 14.063,0.39 3.09,-2.199 4.052,-2.035 8.523,-1.324 5.328,0.847 9.902,-0.321 14.751,-0.057 z"
         id="path20"
         inkscape:connector-curvature="0"
         style="fill:#f19737" /><path
         d="m 147.409,282.487 c -5.267,9.864 -33.002,17.642 -12.671,28.8 5.515,3.027 8.561,4.861 8.903,9.807 0.436,6.35 -0.242,12.931 12.833,10.461 6.873,-1.298 8.952,-2.292 16.175,-0.793 5.663,1.174 7.139,1.997 12.501,0.613 3.412,-0.88 3.293,-2.262 7.824,-2.43 5.548,-0.206 10.859,2.8 16.584,2.333 10.165,-0.83 9.457,-5.961 21.31,-2.185 -5.655,-8.861 -12.283,-11.638 -24.218,-15.733 -12.42,-4.263 -0.061,-15.357 -7.006,-23.025 -3.59,-3.963 -7.332,-6.337 -14.725,-5.94 -6.338,0.34 -6.57,2.246 -11.492,-1.689 -5.201,-4.156 -5.507,-7.049 -15.867,-6.599 -9.576,0.415 -7.876,2.118 -10.151,6.38 z"
         id="path22"
         inkscape:connector-curvature="0"
         style="fill:#d66027" /><g
         id="g24"><g
           id="g26"><path
             d="m 225.097,325.112 c -6.376,-2.453 -16.292,-5.173 -23.252,-4.763 -2.608,0.153 -5.14,0.456 -7.591,0.749 -3.946,0.473 -8.029,0.961 -12.585,0.85 -5.167,-0.126 -9.536,-0.569 -10.655,-4.73 -0.652,-2.423 1.218,-5.108 3.026,-7.703 1.988,-2.854 3.865,-5.55 2.32,-7.638 -1.047,-1.415 -3.605,-2.451 -7.82,-3.169 -1.749,-0.298 -3.422,-0.366 -5.041,-0.43 -4.049,-0.162 -7.546,-0.303 -9.396,-4.084 -1.782,-3.644 0.886,-6.701 3.466,-9.659 0.831,-0.952 1.69,-1.936 2.358,-2.906 l 0.779,0.223 c -0.685,0.993 -1.554,1.989 -2.395,2.953 -2.49,2.854 -5.066,5.806 -3.396,9.222 1.672,3.422 4.745,3.545 8.636,3.701 1.582,0.063 3.376,0.135 5.205,0.447 4.473,0.761 7.211,1.895 8.372,3.464 1.715,2.318 -0.241,5.127 -2.312,8.099 -1.756,2.52 -3.571,5.127 -2.963,7.384 0.929,3.452 3.915,4.129 9.847,4.275 4.461,0.108 8.496,-0.374 12.398,-0.841 2.468,-0.295 5.021,-0.601 7.668,-0.757 7.164,-0.421 17.28,2.345 23.765,4.839 l -0.434,0.474 z"
             id="path28"
             inkscape:connector-curvature="0"
             style="fill:#faa84a" /></g><g
           id="g30"><path
             d="m 175.038,321.11 c -9.555,0.875 -11.754,-2.775 -14.3,-7.001 -0.43,-0.714 -0.876,-1.452 -1.368,-2.185 -5.16,-7.684 -16.492,-8.571 -25.09,-7.961 l -0.094,-0.548 c 12.738,-0.901 21.718,1.965 25.966,8.291 0.498,0.743 0.947,1.486 1.38,2.204 2.514,4.174 4.5,7.469 13.385,6.656 l 0.121,0.544 z"
             id="path32"
             inkscape:connector-curvature="0"
             style="fill:#faa84a" /></g><g
           id="g34"><path
             d="m 194.895,320.977 c -4.821,-1.674 -7.747,-3.87 -8.693,-6.529 -0.988,-2.779 0.355,-5.993 3.783,-9.051 7.036,-6.278 4.468,-8.885 -1.736,-15.183 l -0.579,-0.588 0.72,-0.294 0.578,0.587 c 6.236,6.331 9.083,9.22 1.708,15.8 -3.281,2.928 -4.575,5.984 -3.642,8.606 0.888,2.498 3.669,4.573 8.265,6.168 l -0.404,0.484 z"
             id="path36"
             inkscape:connector-curvature="0"
             style="fill:#faa84a" /></g><g
           id="g38"><path
             d="m 151.26,329.852 -0.844,0.079 c -0.25,-1.112 0.083,-2.062 0.989,-2.822 2.132,-1.786 6.909,-2.143 10.07,-2.378 2.406,-0.18 4.564,-0.053 6.468,0.06 2.413,0.142 4.321,0.254 5.36,-0.387 0.855,-0.527 1.194,-1.578 1.069,-3.305 l 0.852,-0.025 c 0.137,1.897 -0.286,3.082 -1.332,3.727 -1.321,0.815 -3.397,0.692 -6.025,0.537 -1.863,-0.109 -3.974,-0.234 -6.293,-0.062 -3.018,0.225 -7.58,0.565 -9.491,2.169 -0.773,0.645 -1.042,1.433 -0.823,2.407 z"
             id="path40"
             inkscape:connector-curvature="0"
             style="fill:#faa84a" /></g><g
           id="g42"><path
             d="m 184.978,330.743 c -3.362,-0.931 -4.606,-3.235 -5.702,-5.268 -1.04,-1.925 -2.021,-3.744 -4.574,-4.122 l 0.19,-0.537 c 3.012,0.447 4.069,2.405 5.188,4.478 1.09,2.02 2.217,4.108 5.234,4.944 l -0.336,0.505 z"
             id="path44"
             inkscape:connector-curvature="0"
             style="fill:#faa84a" /></g><g
           id="g46"><path
             d="m 212.515,329.678 c -0.974,-0.222 -1.944,-0.43 -2.9,-0.635 -6.835,-1.467 -13.29,-2.852 -14.936,-8.254 l 0.836,-0.107 c 1.551,5.088 7.492,6.363 14.369,7.839 0.961,0.207 1.936,0.416 2.915,0.64 l -0.284,0.517 z"
             id="path48"
             inkscape:connector-curvature="0"
             style="fill:#faa84a" /></g></g><g
         id="g50"><g
           id="g52"><path
             d="m 170.083,323.363 c 1.128,-0.325 2.898,-0.294 4.042,-0.345 1.533,-0.068 3.051,-0.09 4.567,-0.113 0.614,-0.008 1.454,-0.37 1.928,-0.577 0.075,-0.033 1.258,-0.591 0.744,-0.584 -3.093,0.045 -7.085,-0.112 -10.195,0.782 -0.664,0.192 -1.472,0.493 -1.899,0.82 -0.432,0.333 0.598,0.079 0.813,0.017 l 0,0 z"
             id="path54"
             inkscape:connector-curvature="0"
             style="fill:#010101" /></g><g
           id="g56"><path
             d="m 174.009,320.59 c -0.806,1.931 -0.434,3.804 -0.214,5.636 0.079,0.653 3.101,-0.32 3.031,-0.899 -0.209,-1.736 -0.621,-3.533 0.143,-5.363 0.339,-0.813 -2.721,0.051 -2.96,0.626 l 0,0 z"
             id="path58"
             inkscape:connector-curvature="0"
             style="fill:#010101" /></g></g></g></g></svg>