<svg xmlns="http://www.w3.org/2000/svg" width="250" height="250" viewBox="0 0 249.99999 250" enable-background="new 0 0 595.28 841.89"><g><g><path d="M45.232 84.052s9.158 2.405 10.888 11.35l-5.328-3.517s36.37 62.337 31.83 74.824c-4.54 12.485 10.764 6.432 33.945-4.137 23.18-10.568 33.8-9.012 51.595-5.62 17.796 3.39 42.136-6.553 50.607-10.47 8.47-3.92-13.057-2.213-24.594-14.62-11.537-12.404 9.348-2.29 17.89 1.14 0 0-11.863-24.78-24.135-30.805 0 0-.02-10.876-9.29-25.46-9.27-14.58-11.25-23.096-15.695-31.57-4.444-8.475-8.588 7.175-27.293 9.53-7.134.9-11.774 4.17-23.364 4.258 0 0-.582 2.43 5.458 3.777 0 0-33.066 7.418-49.61 3.335 0 0-.353 2.382 5.022 3.29 0 0-21.293-.5-35.927 4.258 0 0 2.264 1.842 8.58 2.844l-9.34 3.665 8.762 3.927z" fill="#faa84a"/><path d="M178.64 76.74c-9.27-14.58-11.25-23.097-15.695-31.572-4.444-8.474-8.588 7.176-27.293 9.532-7.134.898-11.774 4.168-23.364 4.257 0 0-.582 2.43 5.458 3.777 0 0-33.066 7.418-49.61 3.335 0 0-.353 2.38 5.022 3.29 0 0-21.293-.502-35.927 4.257 0 0 2.264 1.842 8.58 2.844l-9.34 3.666 7.78 3.488c8.48-1.4 16.45-3.19 19.312-3.832 1.466 11.17 28.046-4 35.484-6.174.6-.175 4.4 1.517 6.263 1.106 2.54-.56 4.92-5.125 6.728-5.147 7.23-.09 8.98 1.868 12.822 7.052 5.946-3.28 7.492-9.025 14.37-11.45.498 1.68 2.575 3.528 3 5.217 2.02-1.887 7.542-4.837 9.577-6.32 1.468 2.722 3.86 5.8 3.692 8.773 10.565-2.257 10.41 28.746 29.57 30.543-1.276 5.317-5.648 10.43-2.483 15.795 5.452.932 10.512.146 14.036-3.224 1.572 2.873 6.962 8.022 13.125 12.578-4.046-7.425-12.82-21.915-21.816-26.332 0 0-.023-10.877-9.292-25.46z" fill="#fbb569"/><path d="M82.623 166.71c-4.54 12.485 10.764 6.432 33.945-4.137 23.18-10.568 33.8-9.012 51.595-5.62 17.796 3.39 42.136-6.553 50.607-10.47.89-.413 1.432-.76 1.706-1.07-8.955-.21-18.63.714-25.022 2.277-1.838-1.56-4.19-1.993-5.793-3.083-.206 1.262-1.792 2.992-1.943 4.66-8.983.48-45.84-5.18-48.582-.97-18.695-6.088-42.17 11.763-54.44 19.792 5.583-17.172 1.46-27.03-10.013-42.732-2.025-2.77-6.126-6.864-11.115-10.23 9.983 19.09 21.755 44.154 19.056 51.58z" fill="#fbb569"/><path d="M65.51 109.907c.71-1.24 1.98-2.493 2.467-3.796.865.877 1.206.637 2.215 1.16.468-1.426.88-2.77.424-4.21.327.89 1.43 1.68 1.947 2.538 4.544-1.086 4.512-7.66-1.246-6.117-1.46-2.212-2.17-4.627-3.175-6.92-.752.402-2.442.604-3.236.984-2.416-4.84-6.275-6.107-13.626-6.22 2.104 1.754 4.12 4.344 4.84 8.076l-5.328-3.517s5.47 9.378 11.904 21.586c-.345-2.636-.95-5.286 2.814-3.563z" fill="#f19737"/><path d="M208.208 142.162c1.993.11 4.033.46 6.19 1.294-4.67-.247-8.896 1.078-13.406 1.82-4.178.688-5.14-.55-8.843-1.21-4.544-.807-4.45 1.243-6.47 3.17-1.113 1.063-.197 1.226-2.826 1.144-1.686-.052-3.685-.994-5.23-1.395-4.08-1.06-8.226-2.176-12.61-2.584-3.85-.357-6.636.5-10.316.643-3.86.147-15.46-2.24-16.21 1.75-3.56-1.29-.946-3.183 1.624-3.696 6.283-1.256 12.203 1.98 17.665-.21 2.393-.96 2.846-1.658 6.21-1.345 2.372.22 4.77.905 6.884 1.61 5.778 1.93 9.08 3.936 14.064.39 3.09-2.198 4.052-2.034 8.523-1.323 5.328.846 9.902-.322 14.75-.058z" fill="#f19737"/><path d="M101.034 90.138c-5.267 9.864-33.002 17.642-12.67 28.8 5.514 3.027 8.56 4.86 8.902 9.807.436 6.35-.242 12.93 12.833 10.46 6.872-1.297 8.95-2.29 16.174-.792 5.663 1.174 7.14 1.997 12.5.613 3.413-.88 3.294-2.262 7.825-2.43 5.547-.206 10.858 2.8 16.583 2.333 10.165-.83 9.457-5.962 21.31-2.186-5.655-8.86-12.283-11.638-24.218-15.733-12.42-4.262-.06-15.356-7.006-23.024-3.59-3.963-7.333-6.337-14.726-5.94-6.338.34-6.57 2.246-11.492-1.69-5.2-4.155-5.507-7.048-15.867-6.598-9.576.415-7.876 2.118-10.15 6.38z" fill="#d66027"/><g><g><path d="M178.722 132.763c-6.376-2.453-16.292-5.173-23.252-4.763-2.608.153-5.14.456-7.59.75-3.947.472-8.03.96-12.586.85-5.167-.127-9.536-.57-10.655-4.73-.653-2.424 1.217-5.11 3.025-7.704 1.988-2.854 3.865-5.55 2.32-7.638-1.047-1.415-3.605-2.45-7.82-3.17-1.75-.297-3.422-.365-5.04-.43-4.05-.16-7.547-.302-9.397-4.083-1.782-3.644.886-6.7 3.466-9.66.83-.95 1.69-1.935 2.358-2.905l.78.223c-.686.993-1.555 1.99-2.396 2.953-2.49 2.854-5.066 5.806-3.396 9.222 1.672 3.422 4.745 3.545 8.636 3.7 1.582.064 3.376.136 5.205.448 4.474.76 7.212 1.895 8.373 3.464 1.715 2.318-.24 5.127-2.312 8.1-1.755 2.52-3.57 5.126-2.962 7.383.93 3.452 3.915 4.13 9.847 4.275 4.46.108 8.496-.374 12.398-.84 2.468-.296 5.02-.602 7.668-.758 7.165-.42 17.28 2.345 23.766 4.84l-.434.473z" fill="#faa84a"/></g><g><path d="M128.663 128.76c-9.555.876-11.754-2.774-14.3-7-.43-.714-.876-1.452-1.368-2.185-5.16-7.684-16.492-8.57-25.09-7.96l-.094-.55c12.74-.9 21.72 1.966 25.967 8.292.498.743.947 1.486 1.38 2.204 2.514 4.175 4.5 7.47 13.385 6.657l.12.544z" fill="#faa84a"/></g><g><path d="M148.52 128.628c-4.82-1.674-7.747-3.87-8.693-6.53-.988-2.778.355-5.992 3.783-9.05 7.036-6.278 4.468-8.885-1.736-15.183l-.58-.588.72-.294.58.587c6.235 6.33 9.082 9.22 1.707 15.8-3.28 2.928-4.574 5.984-3.64 8.606.887 2.498 3.668 4.573 8.264 6.168l-.404.484z" fill="#faa84a"/></g><g><path d="M104.885 137.503l-.844.08c-.25-1.113.084-2.063.99-2.823 2.132-1.786 6.91-2.143 10.07-2.378 2.406-.18 4.564-.053 6.468.06 2.413.142 4.32.254 5.36-.387.855-.527 1.194-1.578 1.07-3.305l.85-.025c.138 1.897-.285 3.082-1.33 3.727-1.322.815-3.398.692-6.026.537-1.863-.11-3.974-.235-6.293-.063-3.02.225-7.58.565-9.492 2.17-.773.644-1.042 1.432-.823 2.406z" fill="#faa84a"/></g><g><path d="M138.603 138.394c-3.362-.93-4.606-3.235-5.702-5.268-1.04-1.925-2.02-3.744-4.573-4.122l.19-.537c3.012.447 4.07 2.405 5.188 4.478 1.09 2.02 2.217 4.108 5.234 4.944l-.337.504z" fill="#faa84a"/></g><g><path d="M166.14 137.33c-.974-.223-1.944-.43-2.9-.636-6.835-1.467-13.29-2.852-14.936-8.254l.836-.107c1.55 5.088 7.492 6.363 14.37 7.84.96.206 1.935.415 2.914.64l-.284.516z" fill="#faa84a"/></g></g><g><g><path d="M123.708 131.014c1.128-.325 2.898-.294 4.042-.345 1.533-.07 3.05-.09 4.567-.114.614-.008 1.454-.37 1.928-.577.075-.034 1.258-.592.744-.585-3.094.045-7.086-.112-10.196.782-.664.192-1.472.493-1.9.82-.43.333.6.08.814.017z" fill="#010101"/></g><g><path d="M127.634 128.24c-.806 1.932-.434 3.805-.214 5.637.08.653 3.1-.32 3.03-.9-.208-1.735-.62-3.532.144-5.362.34-.813-2.72.05-2.96.626z" fill="#010101"/></g></g></g></g></svg>