<?xml version="1.0" encoding="utf-8"?>
<!-- Generator: Adobe Illustrator 17.0.0, SVG Export Plug-In . SVG Version: 6.00 Build 0)  -->
<!DOCTYPE svg PUBLIC "-//W3C//DTD SVG 1.1//EN" "http://www.w3.org/Graphics/SVG/1.1/DTD/svg11.dtd">
<svg version="1.1" xmlns="http://www.w3.org/2000/svg" xmlns:xlink="http://www.w3.org/1999/xlink" x="0px" y="0px"
	 width="595.28px" height="841.89px" viewBox="0 0 595.28 841.89" enable-background="new 0 0 595.28 841.89" xml:space="preserve">
<g id="Capa_2" display="none">
	<path display="inline" fill-rule="evenodd" clip-rule="evenodd" fill="#80A5C6" d="M278.466,381.265
		c0,12.371-10.477,22.399-23.401,22.399H84.845c-12.924,0-23.401-10.028-23.401-22.399V220.289
		c0-12.371,10.477-22.399,23.401-22.399h170.219c12.924,0,23.401,10.028,23.401,22.399V381.265z"/>
	<path display="inline" fill-rule="evenodd" clip-rule="evenodd" fill="#CEE8EF" d="M269.141,374.417
		c0,11.318-9.577,20.493-21.391,20.493H92.159c-11.814,0-21.391-9.175-21.391-20.493v-147.28c0-11.318,9.577-20.493,21.391-20.493
		H247.75c11.814,0,21.391,9.175,21.391,20.493V374.417z"/>
</g>
<g id="Capa_1">
	<g>
		<path fill="#FAA84A" d="M91.607,276.401c0,0,9.158,2.405,10.888,11.35l-5.328-3.517c0,0,36.37,62.337,31.83,74.824
			c-4.539,12.486,10.764,6.433,33.945-4.136c23.18-10.568,33.799-9.012,51.595-5.621c17.796,3.391,42.136-6.552,50.607-10.47
			c8.471-3.918-13.056-2.212-24.593-14.618c-11.537-12.405,9.348-2.291,17.891,1.138c0,0-11.864-24.779-24.136-30.804
			c0,0-0.022-10.876-9.291-25.459c-9.27-14.581-11.251-23.097-15.695-31.572c-4.444-8.474-8.588,7.176-27.293,9.532
			c-7.134,0.898-11.774,4.168-23.364,4.257c0,0-0.582,2.429,5.458,3.777c0,0-33.066,7.418-49.61,3.335c0,0-0.353,2.382,5.022,3.291
			c0,0-21.293-0.502-35.927,4.257c0,0,2.263,1.842,8.579,2.844l-9.339,3.665L91.607,276.401z"/>
		<path fill="#FBB569" d="M225.015,269.089c-9.27-14.581-11.251-23.097-15.695-31.572c-4.444-8.474-8.588,7.176-27.293,9.532
			c-7.134,0.898-11.774,4.168-23.364,4.257c0,0-0.582,2.429,5.458,3.777c0,0-33.066,7.418-49.61,3.335c0,0-0.353,2.382,5.022,3.291
			c0,0-21.293-0.502-35.927,4.257c0,0,2.263,1.842,8.579,2.844l-9.339,3.665l7.78,3.488c8.478-1.399,16.448-3.191,19.311-3.832
			c1.466,11.169,28.046-3.999,35.484-6.174c0.6-0.175,4.4,1.517,6.263,1.106c2.542-0.559,4.92-5.125,6.729-5.147
			c7.229-0.089,8.979,1.868,12.822,7.052c5.946-3.279,7.492-9.024,14.37-11.449c0.498,1.681,2.575,3.528,2.999,5.217
			c2.022-1.887,7.543-4.837,9.578-6.319c1.468,2.721,3.861,5.8,3.692,8.772c10.566-2.257,10.412,28.746,29.57,30.543
			c-1.275,5.317-5.647,10.43-2.482,15.795c5.452,0.932,10.512,0.146,14.036-3.224c1.572,2.873,6.962,8.022,13.125,12.578
			c-4.046-7.425-12.821-21.915-21.816-26.332C234.306,294.548,234.284,283.672,225.015,269.089z"/>
		<path fill="#FBB569" d="M128.998,359.058c-4.539,12.486,10.764,6.433,33.945-4.136c23.18-10.568,33.799-9.012,51.595-5.621
			c17.796,3.391,42.136-6.552,50.607-10.47c0.89-0.412,1.432-0.759,1.706-1.068c-8.955-0.212-18.631,0.713-25.022,2.276
			c-1.838-1.56-4.191-1.993-5.793-3.083c-0.207,1.262-1.793,2.992-1.944,4.661c-8.983,0.479-45.841-5.182-48.582-0.971
			c-18.695-6.088-42.169,11.763-54.441,19.792c5.584-17.171,1.461-27.03-10.012-42.731c-2.025-2.771-6.126-6.864-11.115-10.23
			C119.925,326.568,131.697,351.631,128.998,359.058z"/>
		<path fill="#F19737" d="M111.885,302.256c0.71-1.241,1.98-2.493,2.467-3.796c0.865,0.876,1.206,0.636,2.215,1.16
			c0.468-1.427,0.88-2.772,0.424-4.21c0.327,0.89,1.431,1.68,1.947,2.537c4.544-1.086,4.512-7.661-1.246-6.117
			c-1.461-2.213-2.17-4.628-3.175-6.921c-0.752,0.402-2.442,0.604-3.236,0.984c-2.416-4.839-6.275-6.107-13.626-6.221
			c2.104,1.755,4.119,4.345,4.84,8.077l-5.328-3.517c0,0,5.471,9.378,11.904,21.586
			C108.726,303.183,108.121,300.533,111.885,302.256z"/>
		<path fill="#F19737" d="M254.583,334.511c1.993,0.109,4.033,0.46,6.191,1.294c-4.671-0.247-8.897,1.078-13.407,1.82
			c-4.178,0.688-5.141-0.55-8.843-1.209c-4.543-0.808-4.45,1.242-6.468,3.169c-1.114,1.063-0.198,1.226-2.827,1.144
			c-1.686-0.052-3.685-0.994-5.229-1.395c-4.082-1.059-8.227-2.176-12.612-2.584c-3.85-0.358-6.635,0.5-10.315,0.642
			c-3.861,0.147-15.459-2.24-16.211,1.749c-3.558-1.289-0.945-3.182,1.625-3.695c6.283-1.256,12.203,1.981,17.665-0.211
			c2.393-0.96,2.846-1.657,6.21-1.344c2.372,0.221,4.771,0.905,6.884,1.611c5.777,1.929,9.08,3.935,14.063,0.39
			c3.09-2.199,4.052-2.035,8.523-1.324C245.16,335.415,249.734,334.247,254.583,334.511z"/>
		<path fill="#D66027" d="M147.409,282.487c-5.267,9.864-33.002,17.642-12.671,28.8c5.515,3.027,8.561,4.861,8.903,9.807
			c0.436,6.35-0.242,12.931,12.833,10.461c6.873-1.298,8.952-2.292,16.175-0.793c5.663,1.174,7.139,1.997,12.501,0.613
			c3.412-0.88,3.293-2.262,7.824-2.43c5.548-0.206,10.859,2.8,16.584,2.333c10.165-0.83,9.457-5.961,21.31-2.185
			c-5.655-8.861-12.283-11.638-24.218-15.733c-12.42-4.263-0.061-15.357-7.006-23.025c-3.59-3.963-7.332-6.337-14.725-5.94
			c-6.338,0.34-6.57,2.246-11.492-1.689c-5.201-4.156-5.507-7.049-15.867-6.599C147.984,276.522,149.684,278.225,147.409,282.487z"
			/>
		<g>
			<g>
				<path fill="#FAA84A" d="M225.097,325.112c-6.376-2.453-16.292-5.173-23.252-4.763c-2.608,0.153-5.14,0.456-7.591,0.749
					c-3.946,0.473-8.029,0.961-12.585,0.85c-5.167-0.126-9.536-0.569-10.655-4.73c-0.652-2.423,1.218-5.108,3.026-7.703
					c1.988-2.854,3.865-5.55,2.32-7.638c-1.047-1.415-3.605-2.451-7.82-3.169c-1.749-0.298-3.422-0.366-5.041-0.43
					c-4.049-0.162-7.546-0.303-9.396-4.084c-1.782-3.644,0.886-6.701,3.466-9.659c0.831-0.952,1.69-1.936,2.358-2.906l0.779,0.223
					c-0.685,0.993-1.554,1.989-2.395,2.953c-2.49,2.854-5.066,5.806-3.396,9.222c1.672,3.422,4.745,3.545,8.636,3.701
					c1.582,0.063,3.376,0.135,5.205,0.447c4.473,0.761,7.211,1.895,8.372,3.464c1.715,2.318-0.241,5.127-2.312,8.099
					c-1.756,2.52-3.571,5.127-2.963,7.384c0.929,3.452,3.915,4.129,9.847,4.275c4.461,0.108,8.496-0.374,12.398-0.841
					c2.468-0.295,5.021-0.601,7.668-0.757c7.164-0.421,17.28,2.345,23.765,4.839L225.097,325.112z"/>
			</g>
			<g>
				<path fill="#FAA84A" d="M175.038,321.11c-9.555,0.875-11.754-2.775-14.3-7.001c-0.43-0.714-0.876-1.452-1.368-2.185
					c-5.16-7.684-16.492-8.571-25.09-7.961l-0.094-0.548c12.738-0.901,21.718,1.965,25.966,8.291
					c0.498,0.743,0.947,1.486,1.38,2.204c2.514,4.174,4.5,7.469,13.385,6.656L175.038,321.11z"/>
			</g>
			<g>
				<path fill="#FAA84A" d="M194.895,320.977c-4.821-1.674-7.747-3.87-8.693-6.529c-0.988-2.779,0.355-5.993,3.783-9.051
					c7.036-6.278,4.468-8.885-1.736-15.183l-0.579-0.588l0.72-0.294l0.578,0.587c6.236,6.331,9.083,9.22,1.708,15.8
					c-3.281,2.928-4.575,5.984-3.642,8.606c0.888,2.498,3.669,4.573,8.265,6.168L194.895,320.977z"/>
			</g>
			<g>
				<path fill="#FAA84A" d="M151.26,329.852l-0.844,0.079c-0.25-1.112,0.083-2.062,0.989-2.822c2.132-1.786,6.909-2.143,10.07-2.378
					c2.406-0.18,4.564-0.053,6.468,0.06c2.413,0.142,4.321,0.254,5.36-0.387c0.855-0.527,1.194-1.578,1.069-3.305l0.852-0.025
					c0.137,1.897-0.286,3.082-1.332,3.727c-1.321,0.815-3.397,0.692-6.025,0.537c-1.863-0.109-3.974-0.234-6.293-0.062
					c-3.018,0.225-7.58,0.565-9.491,2.169C151.31,328.09,151.041,328.878,151.26,329.852z"/>
			</g>
			<g>
				<path fill="#FAA84A" d="M184.978,330.743c-3.362-0.931-4.606-3.235-5.702-5.268c-1.04-1.925-2.021-3.744-4.574-4.122l0.19-0.537
					c3.012,0.447,4.069,2.405,5.188,4.478c1.09,2.02,2.217,4.108,5.234,4.944L184.978,330.743z"/>
			</g>
			<g>
				<path fill="#FAA84A" d="M212.515,329.678c-0.974-0.222-1.944-0.43-2.9-0.635c-6.835-1.467-13.29-2.852-14.936-8.254l0.836-0.107
					c1.551,5.088,7.492,6.363,14.369,7.839c0.961,0.207,1.936,0.416,2.915,0.64L212.515,329.678z"/>
			</g>
		</g>
		<g>
			<g>
				<path fill="#010101" d="M170.083,323.363c1.128-0.325,2.898-0.294,4.042-0.345c1.533-0.068,3.051-0.09,4.567-0.113
					c0.614-0.008,1.454-0.37,1.928-0.577c0.075-0.033,1.258-0.591,0.744-0.584c-3.093,0.045-7.085-0.112-10.195,0.782
					c-0.664,0.192-1.472,0.493-1.899,0.82C168.838,323.679,169.868,323.425,170.083,323.363L170.083,323.363z"/>
			</g>
			<g>
				<path fill="#010101" d="M174.009,320.59c-0.806,1.931-0.434,3.804-0.214,5.636c0.079,0.653,3.101-0.32,3.031-0.899
					c-0.209-1.736-0.621-3.533,0.143-5.363C177.308,319.151,174.248,320.015,174.009,320.59L174.009,320.59z"/>
			</g>
		</g>
	</g>
</g>
</svg>
