<svg xmlns="http://www.w3.org/2000/svg" xmlns:xlink="http://www.w3.org/1999/xlink" width="250" height="250" viewBox="0 0 249.99999 250" enable-background="new 0 0 595.28 841.89"><defs><filter id="a" color-interpolation-filters="sRGB"><feColorMatrix values="0.21 0.72 0.072 0 0 0.21 0.72 0.072 0 0 0.21 0.72 0.072 0 0 0 0 0 1 0"/></filter></defs><g transform="matrix(1.331 0 0 .743 -127.035 -109.163)" filter="url(#a)"><g><path d="M191.157 423.937c-23.242 0-56.027-15.505-59.518-36.365-5.394-32.223-4.344-62.098-.043-94.334.297-2.224.875-4.397 1.722-6.475 8.172-20.043 37.487-25.618 56.597-25.61 20.924.01 53.842 6.935 58.11 31.768 5.555 32.327 5.173 62.242.017 94.587-3.033 19.023-34.847 36.43-56.887 36.43z" clip-rule="evenodd" fill="#ccc" fill-rule="evenodd"/><g><defs><path id="b" d="M246.066 387.19c2.5-15.677 3.958-31.453 3.984-47.336.026-15.652-1.346-31.17-3.997-46.595-4.062-23.636-36.26-30.095-56.138-30.105-18.206-.01-46.943 5.235-54.744 24.363-.782 1.92-1.317 3.93-1.59 5.984-2.108 15.794-3.51 31.667-3.602 47.61-.09 15.488 1.076 30.85 3.634 46.13 3.31 19.775 35.87 34.693 57.544 34.693 20.515 0 52.106-17.15 54.91-34.744z"/></defs><clipPath id="c"><use xlink:href="#b" overflow="visible" width="100%" height="100%"/></clipPath><radialGradient id="d" cx="235.908" cy="282.895" r="26.011" gradientUnits="userSpaceOnUse"><stop offset="0" stop-color="#fff" stop-opacity=".8"/><stop offset="1" stop-color="#fff" stop-opacity="0"/></radialGradient><circle clip-path="url(#c)" cx="235.908" cy="282.895" r="26.011" clip-rule="evenodd" fill="url(#d)" fill-rule="evenodd"/><radialGradient id="e" cx="146.285" cy="282.895" r="26.011" gradientUnits="userSpaceOnUse"><stop offset="0" stop-color="#fff" stop-opacity=".8"/><stop offset="1" stop-color="#fff" stop-opacity="0"/></radialGradient><circle clip-path="url(#c)" cx="146.285" cy="282.895" r="26.011" clip-rule="evenodd" fill="url(#e)" fill-rule="evenodd"/><radialGradient id="f" cx="235.908" cy="395.669" r="26.011" gradientUnits="userSpaceOnUse"><stop offset="0" stop-color="#fff" stop-opacity=".8"/><stop offset="1" stop-color="#fff" stop-opacity="0"/></radialGradient><circle clip-path="url(#c)" cx="235.908" cy="395.669" r="26.011" clip-rule="evenodd" fill="url(#f)" fill-rule="evenodd"/><radialGradient id="g" cx="146.285" cy="395.669" r="26.011" gradientUnits="userSpaceOnUse"><stop offset="0" stop-color="#fff" stop-opacity=".8"/><stop offset="1" stop-color="#fff" stop-opacity="0"/></radialGradient><circle clip-path="url(#c)" cx="146.285" cy="395.669" r="26.011" clip-rule="evenodd" fill="url(#g)" fill-rule="evenodd"/></g><linearGradient id="h" gradientUnits="userSpaceOnUse" x1="205.465" y1="263.976" x2="205.465" y2="246.542"><stop offset="0" stop-color="#4D4D4E" stop-opacity=".2"/><stop offset="1" stop-color="#B3B4B4" stop-opacity=".8"/></linearGradient><path d="M205.465 246.542c-4.555 0-8.28 3.726-8.28 8.28v6.6c5.313.424 11.002 1.11 16.56 2.553v-9.152c0-4.554-3.725-8.28-8.28-8.28z" clip-rule="evenodd" fill="url(#h)" fill-rule="evenodd"/><linearGradient id="i" gradientUnits="userSpaceOnUse" x1="188.903" y1="261.622" x2="188.903" y2="237.813"><stop offset="0" stop-color="#4D4D4E" stop-opacity=".2"/><stop offset="1" stop-color="#B3B4B4" stop-opacity=".8"/></linearGradient><path d="M188.903 237.812c4.555 0 8.28 3.726 8.28 8.28v15.33c-2.96-.248-5.81-.114-8.465-.115-2.542 0-5.266.098-8.096.315v-15.53c0-4.553 3.726-8.28 8.28-8.28z" clip-rule="evenodd" fill="url(#i)" fill-rule="evenodd"/><linearGradient id="j" gradientUnits="userSpaceOnUse" x1="172.34" y1="264.43" x2="172.34" y2="246.542"><stop offset="0" stop-color="#4D4D4E" stop-opacity=".2"/><stop offset="1" stop-color="#B3B4B4" stop-opacity=".8"/></linearGradient><path d="M172.34 246.542c-4.555 0-8.28 3.726-8.28 8.28v9.607c5.57-1.39 11.254-2.4 16.562-2.81v-6.798c0-4.553-3.727-8.28-8.282-8.28z" clip-rule="evenodd" fill="url(#j)" fill-rule="evenodd"/><linearGradient id="k" gradientUnits="userSpaceOnUse" x1="188.761" y1="258.44" x2="188.761" y2="239.476"><stop offset="0" stop-color="#4D4D4E" stop-opacity=".3"/><stop offset="1" stop-color="#fff" stop-opacity=".9"/></linearGradient><path d="M188.76 239.477c3.59 0 6.526 2.61 6.526 5.803v13.16c-2.332-.172-4.578-.25-6.67-.252-2.004 0-4.15.068-6.38.22V245.28c0-3.193 2.936-5.803 6.525-5.803z" clip-rule="evenodd" fill="url(#k)" fill-rule="evenodd"/><linearGradient id="l" gradientUnits="userSpaceOnUse" x1="205.465" y1="263.521" x2="205.465" y2="248.073"><stop offset="0" stop-color="#4D4D4E" stop-opacity=".3"/><stop offset="1" stop-color="#fff" stop-opacity=".9"/></linearGradient><path d="M205.465 248.073c3.59 0 6.525 2.427 6.525 5.394v10.053c-1.73-.37-3.015-.547-6.186-1.092-2.076-.356-4.58-.447-6.865-.807v-8.153c0-2.967 2.936-5.394 6.525-5.394z" clip-rule="evenodd" fill="url(#l)" fill-rule="evenodd"/><linearGradient id="m" gradientUnits="userSpaceOnUse" x1="487.371" y1="263.966" x2="487.371" y2="248.073" gradientTransform="matrix(-.973 0 0 1 646.747 0)"><stop offset="0" stop-color="#4D4D4E" stop-opacity=".3"/><stop offset="1" stop-color="#fff" stop-opacity=".9"/></linearGradient><path d="M172.34 248.073c-3.493 0-6.35 2.427-6.35 5.394v10.498c1.684-.37 3.11-.72 6.198-1.263 2.02-.356 4.28-.547 6.505-.907v-8.327c0-2.968-2.86-5.395-6.353-5.395z" clip-rule="evenodd" fill="url(#m)" fill-rule="evenodd"/></g><g><path d="M187.21 259.755c0-9.728-.31-28.335-3.588-50.777h4.35c3.222 22.532 3.53 41.04 3.53 50.777h-4.293z" fill="#a11e22"/><path d="M167.022 266.81v-14.714h10.627v14.266c0 1.655.578 3.602 2.59 3.388.56-.06 1.718-.12 2.204-.392 1.07-.6 1.056-4.415 1.056-5.388v-21.118h10.627v20.82c0 .937-.048 4.963.817 5.624.398.304 1.474.423 1.956.484.668.085 1.344.02 1.88-.422.95-.786 1.197-2.44 1.197-3.594v-13.67h10.627v13.37c0 1.975.385 3.89 1.825 5.33 1.464 1.463 3.824 2.258 5.763 2.85 2.844.87 5.67 1.56 8.42 2.73 8.477 3.612 12.223 10.296 13.708 19.17 2.54 15.17 3.735 30.36 3.62 45.74-.117 15.587-1.55 31.085-3.61 46.525-.22 1.638-.645 3.236-1.27 4.767-3.273 8.026-11.442 13.075-19.195 16.07-9.606 3.712-20.698 5.215-30.958 5.21-10.058-.006-20.873-1.46-30.303-5.063-7.79-2.978-15.795-7.94-19.377-15.807-.744-1.634-1.273-3.35-1.577-5.12-2.06-11.99-3.383-24.06-3.815-36.222-.67-18.86.844-37.47 3.812-56.09 1.5-9.41 5.942-15.707 14.62-19.62 2.884-1.3 5.848-2.165 8.792-3.272 1.733-.652 4.117-1.623 5.21-3.202.555-.796.752-1.69.752-2.65z" clip-rule="evenodd" fill="#8a181d" fill-rule="evenodd"/><path d="M168.612 266.81v-13.124h7.447v12.676c-.067 2.595 1.27 5.297 4.35 4.97 2.944-.315 4.68-.15 4.68-7.362v-19.528h7.448v19.23c0 6.805.906 7.272 4.164 7.686 3.433.436 4.954-2.41 4.868-5.594v-12.078h7.447v11.78c0 16.328 25.146 2.896 29.74 30.34 5.33 31.86 4.25 59.932 0 91.793-4.32 32.366-93.794 33.408-99.536 0-5.31-30.896-5.23-58.983 0-91.794 4.014-25.18 29.656-17.026 29.392-28.995z" clip-rule="evenodd" fill="#a11e22" fill-rule="evenodd"/><path d="M161.784 261.607v3.43c9.237-2.576 18.97-3.918 26.93-3.914 8.042.004 17.802.71 27.124 3.393v-2.752c-9.31-2.58-19.08-3.58-27.126-3.582-7.967-.005-17.658.935-26.928 3.425z" clip-rule="evenodd" opacity=".33" fill="#b3b4b4" fill-rule="evenodd"/><path d="M189.488 274.163c19.588 0 37.754 6.07 43.816 23.008 7.67 21.427-3.77 16.7-6.425 15.444-5.608-2.65-9.477-2.997-18.896-3.124-12.277-.166-24.805.33-37.986-.12-5.58-.192-15.61 1.78-18.373 2.502-3.75.98-13.627 5.088-6.67-14.07 5.01-13.79 24.945-23.64 44.533-23.64z" clip-rule="evenodd" opacity=".33" fill="#a11e22" fill-rule="evenodd"/><g clip-rule="evenodd" fill-rule="evenodd"><path d="M189.48 274.36c19.444 0 37.475 6.012 43.48 22.778 7.586 21.182-3.728 16.526-6.37 15.303-5.548-2.608-9.397-2.947-18.748-3.073-12.194-.164-24.633.33-37.72-.12-5.553-.19-15.512 1.75-18.255 2.458-3.72.96-13.476 4.987-6.595-13.946 4.98-13.663 24.762-23.4 44.207-23.4z" opacity=".33" fill="#a21e22"/><path d="M189.47 274.56c19.302 0 37.197 5.95 43.15 22.545 7.5 20.938-3.688 16.354-6.315 15.164-5.49-2.567-9.32-2.9-18.604-3.024-12.11-.16-24.46.33-37.453-.118-5.526-.19-15.416 1.72-18.136 2.412-3.687.94-13.325 4.885-6.52-13.824 4.95-13.534 24.578-23.157 43.88-23.157z" opacity=".33" fill="#a31e22"/><path d="M189.46 274.758c19.158 0 36.92 5.894 42.815 22.315 7.417 20.694-3.645 16.183-6.258 15.024-5.433-2.523-9.243-2.85-18.46-2.972-12.028-.16-24.287.328-37.187-.116-5.498-.19-15.32 1.69-18.017 2.366-3.658.92-13.176 4.783-6.448-13.7 4.922-13.41 24.397-22.918 43.555-22.918z" opacity=".33" fill="#a31e22"/><path d="M189.45 274.956c19.016 0 36.642 5.835 42.483 22.085 7.333 20.45-3.604 16.012-6.203 14.886-5.375-2.48-9.165-2.802-18.314-2.922-11.946-.156-24.116.327-36.922-.114-5.47-.19-15.222 1.66-17.9 2.322-3.626.9-13.024 4.68-6.373-13.578 4.894-13.283 24.216-22.678 43.23-22.678z" opacity=".33" fill="#a41e23"/><path d="M189.44 275.155c18.873 0 36.363 5.777 42.15 21.854 7.248 20.204-3.563 15.838-6.148 14.745-5.317-2.438-9.087-2.753-18.17-2.87-11.862-.155-23.943.326-36.655-.113-5.443-.19-15.125 1.63-17.78 2.277-3.597.88-12.875 4.578-6.3-13.457 4.863-13.158 24.032-22.438 42.904-22.438z" opacity=".33" fill="#a51e23"/><path d="M189.432 275.353c18.73 0 36.084 5.718 41.814 21.623 7.165 19.96-3.52 15.667-6.09 14.606-5.26-2.395-9.01-2.705-18.024-2.82-11.78-.152-23.772.325-36.39-.112-5.415-.188-15.028 1.6-17.662 2.232-3.566.86-12.725 4.477-6.227-13.333 4.834-13.03 23.85-22.197 42.58-22.197z" opacity=".33" fill="#a61e23"/><path d="M189.422 275.55c18.585 0 35.806 5.66 41.48 21.393 7.082 19.716-3.477 15.495-6.034 14.467-5.2-2.353-8.932-2.656-17.878-2.77-11.697-.148-23.6.325-36.124-.11-5.387-.186-14.93 1.572-17.543 2.188-3.536.84-12.575 4.376-6.154-13.21 4.805-12.904 23.667-21.957 42.252-21.957z" opacity=".33" fill="#a61e23"/><path d="M189.413 275.75c18.442 0 35.527 5.6 41.147 21.16 6.997 19.473-3.436 15.325-5.98 14.328-5.143-2.31-8.854-2.607-17.733-2.72-11.614-.146-23.428.325-35.858-.107-5.36-.186-14.836 1.542-17.426 2.143-3.505.82-12.424 4.274-6.08-13.088 4.778-12.777 23.486-21.715 41.93-21.715z" opacity=".33" fill="#a71f23"/><path d="M189.403 275.95c18.3 0 35.25 5.54 40.813 20.93 6.913 19.227-3.394 15.15-5.924 14.187-5.085-2.268-8.776-2.56-17.588-2.67-11.532-.142-23.255.325-35.593-.105-5.33-.187-14.737 1.51-17.305 2.097-3.474.798-12.274 4.17-6.007-12.966 4.75-12.65 23.306-21.475 41.605-21.475z" opacity=".33" fill="#a81f23"/><path d="M189.394 276.147c18.156 0 34.97 5.483 40.48 20.7 6.83 18.983-3.352 14.98-5.87 14.048-5.026-2.225-8.697-2.51-17.44-2.618-11.45-.14-23.084.323-35.328-.104-5.304-.186-14.64 1.48-17.188 2.052-3.444.78-12.123 4.07-5.933-12.843 4.72-12.525 23.123-21.235 41.28-21.235z" opacity=".33" fill="#a91f23"/><path d="M189.384 276.345c18.012 0 34.692 5.424 40.146 20.468 6.745 18.74-3.31 14.81-5.813 13.91-4.97-2.183-8.62-2.462-17.297-2.57-11.366-.137-22.91.324-35.06-.1-5.277-.187-14.545 1.45-17.07 2.006-3.413.758-11.973 3.967-5.86-12.72 4.693-12.398 22.942-20.995 40.954-20.995z" opacity=".33" fill="#aa1f23"/><path d="M189.375 276.544c17.87 0 34.414 5.365 39.813 20.237 6.66 18.496-3.27 14.638-5.757 13.77-4.91-2.14-8.542-2.412-17.15-2.516-11.284-.136-22.74.322-34.796-.1-5.25-.186-14.447 1.42-16.95 1.96-3.384.74-11.824 3.867-5.787-12.596 4.663-12.272 22.76-20.754 40.628-20.754z" opacity=".33" fill="#aa1f23"/><path d="M189.365 276.742c17.726 0 34.136 5.307 39.48 20.006 6.576 18.25-3.228 14.465-5.703 13.63-4.853-2.096-8.465-2.363-17.007-2.465-11.2-.133-22.567.32-34.53-.1-5.22-.184-14.35 1.392-16.83 1.918-3.353.72-11.673 3.765-5.714-12.474 4.637-12.145 22.58-20.514 40.305-20.514z" opacity=".33" fill="#ab1f24"/><path d="M189.356 276.94c17.583 0 33.857 5.25 39.145 19.776 6.495 18.007-3.184 14.294-5.645 13.49-4.795-2.053-8.387-2.314-16.862-2.415-11.118-.13-22.395.32-34.263-.096-5.193-.184-14.253 1.362-16.714 1.872-3.322.7-11.522 3.662-5.64-12.353 4.607-12.018 22.397-20.272 39.98-20.272z" opacity=".33" fill="#ac1f24"/><path d="M189.346 277.14c17.44 0 33.58 5.188 38.812 19.543 6.41 17.762-3.143 14.122-5.59 13.352-4.736-2.01-8.31-2.267-16.716-2.365-11.035-.128-22.223.32-33.997-.095-5.166-.184-14.157 1.332-16.595 1.826-3.29.68-11.372 3.56-5.566-12.23 4.577-11.89 22.213-20.03 39.652-20.03z" opacity=".33" fill="#ad1f24"/><path d="M189.337 277.338c17.296 0 33.3 5.13 38.478 19.314 6.325 17.518-3.1 13.95-5.534 13.212-4.678-1.97-8.23-2.218-16.57-2.315-10.952-.127-22.05.318-33.73-.095-5.14-.183-14.06 1.302-16.477 1.78-3.26.66-11.222 3.46-5.492-12.106 4.548-11.766 22.03-19.792 39.327-19.792z" opacity=".33" fill="#ad1f24"/><path d="M189.328 277.536c17.153 0 33.022 5.072 38.144 19.083 6.242 17.273-3.06 13.777-5.48 13.072-4.62-1.926-8.153-2.17-16.425-2.264-10.87-.123-21.878.318-33.465-.092-5.11-.183-13.963 1.272-16.358 1.736-3.23.64-11.07 3.357-5.42-11.984 4.52-11.64 21.85-19.552 39.004-19.552z" opacity=".33" fill="#ae1f24"/><path d="M189.318 277.735c17.01 0 32.744 5.013 37.81 18.852 6.16 17.03-3.017 13.607-5.422 12.933-4.562-1.883-8.076-2.12-16.28-2.213-10.786-.12-21.706.317-33.2-.09-5.082-.182-13.865 1.243-16.238 1.692-3.2.618-10.92 3.254-5.345-11.863 4.49-11.514 21.665-19.312 38.675-19.312z" opacity=".33" fill="#af2025"/><path d="M189.308 277.933c16.867 0 32.466 4.954 37.477 18.62 6.074 16.787-2.976 13.436-5.367 12.795-4.504-1.84-8-2.072-16.136-2.163-10.703-.118-21.534.317-32.933-.09-5.056-.18-13.77 1.213-16.122 1.648-3.17.6-10.77 3.153-5.272-11.74 4.463-11.386 21.486-19.07 38.352-19.07z" opacity=".33" fill="#b02025"/><path d="M189.3 278.132c16.722 0 32.186 4.895 37.142 18.39 5.99 16.54-2.934 13.264-5.312 12.655-4.446-1.798-7.92-2.023-15.99-2.113-10.62-.115-21.362.316-32.667-.087-5.027-.18-13.672 1.183-16.002 1.6-3.138.58-10.62 3.052-5.197-11.616 4.433-11.258 21.303-18.828 38.026-18.828z" opacity=".33" fill="#b12025"/><path d="M189.29 278.33c16.58 0 31.908 4.837 36.81 18.16 5.905 16.296-2.893 13.09-5.257 12.515-4.388-1.756-7.843-1.975-15.845-2.062-10.538-.113-21.19.315-32.4-.085-5-.18-13.576 1.153-15.885 1.556-3.108.56-10.47 2.95-5.125-11.494 4.405-11.134 21.12-18.59 37.7-18.59z" opacity=".33" fill="#b12025"/><path d="M189.28 278.528c16.437 0 31.63 4.778 36.476 17.928 5.822 16.053-2.85 12.92-5.2 12.376-4.33-1.713-7.765-1.926-15.7-2.01-10.455-.11-21.017.313-32.135-.085-4.97-.18-13.478 1.123-15.764 1.51-3.078.54-10.32 2.848-5.05-11.37 4.374-11.006 20.937-18.35 37.374-18.35z" opacity=".33" fill="#b22025"/><path d="M189.27 278.727c16.295 0 31.353 4.72 36.144 17.697 5.738 15.81-2.808 12.748-5.145 12.237-4.273-1.67-7.69-1.876-15.556-1.96-10.372-.108-20.845.314-31.87-.082-4.943-.18-13.38 1.093-15.646 1.466-3.047.52-10.17 2.745-4.978-11.25 4.347-10.88 20.757-18.107 37.05-18.107z" opacity=".33" fill="#b32025"/><path d="M189.26 278.925c16.15 0 31.075 4.66 35.81 17.466 5.654 15.565-2.766 12.578-5.09 12.098-4.213-1.628-7.61-1.83-15.41-1.91-10.288-.105-20.672.313-31.603-.08-4.917-.18-13.285 1.063-15.528 1.42-3.018.5-10.02 2.644-4.905-11.126 4.32-10.752 20.576-17.867 36.726-17.867z" opacity=".33" fill="#b42026"/><path d="M189.252 279.124c16.007 0 30.795 4.602 35.475 17.235 5.57 15.32-2.725 12.404-5.033 11.957-4.156-1.585-7.532-1.78-15.264-1.86-10.207-.102-20.5.313-31.338-.077-4.89-.18-13.188 1.033-15.41 1.376-2.986.48-9.87 2.542-4.83-11.004 4.29-10.628 20.392-17.628 36.4-17.628z" opacity=".33" fill="#b42026"/><path d="M189.242 279.322c15.864 0 30.517 4.543 35.142 17.004 5.486 15.076-2.683 12.234-4.978 11.818-4.098-1.542-7.454-1.73-15.12-1.81-10.123-.1-20.328.313-31.07-.075-4.862-.18-13.092 1.002-15.292 1.33-2.956.46-9.718 2.44-4.757-10.88 4.26-10.5 20.21-17.388 36.075-17.388z" opacity=".33" fill="#b52026"/><path d="M189.233 279.52c15.72 0 30.24 4.485 34.808 16.774 5.403 14.832-2.64 12.062-4.92 11.68-4.04-1.5-7.378-1.684-14.975-1.76-10.04-.097-20.157.312-30.806-.074-4.835-.178-12.995.974-15.174 1.286-2.925.438-9.568 2.337-4.684-10.76 4.233-10.373 20.03-17.145 35.75-17.145z" opacity=".33" fill="#b62026"/><path d="M189.223 279.72c15.578 0 29.96 4.425 34.474 16.54 5.318 14.588-2.6 11.89-4.866 11.54-3.98-1.456-7.298-1.633-14.827-1.707-9.958-.095-19.985.31-30.54-.073-4.806-.178-12.897.944-15.054 1.24-2.896.42-9.42 2.237-4.61-10.635 4.202-10.247 19.846-16.906 35.423-16.906z" opacity=".33" fill="#b72026"/><path d="M189.214 279.918c15.434 0 29.682 4.367 34.14 16.31 5.235 14.344-2.556 11.72-4.81 11.4-3.923-1.414-7.22-1.584-14.682-1.656-9.875-.093-19.812.31-30.274-.072-4.778-.177-12.8.914-14.935 1.196-2.864.398-9.267 2.134-4.537-10.513 4.173-10.12 19.663-16.665 35.098-16.665z" opacity=".33" fill="#b82026"/><path d="M189.204 280.116c15.29 0 29.404 4.308 33.807 16.08 5.15 14.1-2.514 11.547-4.754 11.26-3.866-1.37-7.143-1.536-14.538-1.605-9.793-.09-19.64.31-30.008-.07-4.75-.175-12.704.885-14.817 1.152-2.833.378-9.117 2.032-4.463-10.39 4.145-9.996 19.483-16.426 34.774-16.426z" opacity=".33" fill="#b82026"/><path d="M189.195 280.315c15.148 0 29.126 4.25 33.473 15.85 5.067 13.855-2.473 11.375-4.7 11.12-3.807-1.328-7.064-1.487-14.392-1.555-9.71-.087-19.468.308-29.742-.068-4.723-.176-12.607.854-14.698 1.106-2.803.358-8.967 1.93-4.39-10.27 4.117-9.867 19.3-16.183 34.45-16.183z" opacity=".33" fill="#b92027"/><path d="M189.185 280.513c15.005 0 28.847 4.19 33.14 15.62 4.982 13.61-2.432 11.202-4.643 10.98-3.75-1.286-6.988-1.438-14.248-1.504-9.627-.086-19.296.306-29.476-.067-4.695-.176-12.51.824-14.58 1.06-2.773.34-8.816 1.83-4.316-10.145 4.088-9.743 19.12-15.945 34.123-15.945z" opacity=".33" fill="#ba2027"/><path d="M189.176 280.712c14.86 0 28.57 4.132 32.806 15.387 4.898 13.365-2.39 11.03-4.588 10.842-3.692-1.244-6.91-1.39-14.102-1.455-9.544-.082-19.124.307-29.21-.065-4.668-.175-12.413.794-14.46 1.016-2.743.318-8.667 1.727-4.243-10.023 4.057-9.615 18.934-15.703 33.796-15.703z" opacity=".33" fill="#bb2027"/><path d="M189.166 280.91c14.718 0 28.29 4.073 32.472 15.157 4.815 13.122-2.348 10.86-4.532 10.704-3.634-1.2-6.832-1.34-13.957-1.403-9.462-.08-18.953.306-28.945-.063-4.64-.175-12.316.765-14.343.97-2.712.3-8.516 1.626-4.17-9.9 4.032-9.49 18.756-15.464 33.474-15.464z" opacity=".33" fill="#bb2027"/><path d="M189.157 281.108c14.575 0 28.012 4.015 32.14 14.926 4.73 12.878-2.307 10.688-4.477 10.564-3.576-1.16-6.755-1.293-13.812-1.353-9.38-.077-18.78.305-28.678-.06-4.612-.175-12.22.734-14.224.924-2.68.277-8.365 1.522-4.096-9.78 4-9.36 18.572-15.222 33.147-15.222z" opacity=".33" fill="#bc2027"/><path d="M189.147 281.307c14.432 0 27.734 3.956 31.805 14.695 4.647 12.633-2.264 10.516-4.42 10.425-3.518-1.116-6.678-1.245-13.667-1.303-9.296-.075-18.607.304-28.413-.06-4.585-.174-12.123.705-14.106.88-2.65.258-8.215 1.42-4.022-9.656 3.974-9.235 18.392-14.98 32.823-14.98z" opacity=".33" fill="#bd2127"/><path d="M189.138 281.505c14.288 0 27.456 3.897 31.472 14.464 4.563 12.388-2.222 10.344-4.365 10.284-3.46-1.073-6.6-1.196-13.522-1.252-9.213-.072-18.435.304-28.147-.058-4.557-.173-12.026.675-13.987.835-2.62.237-8.066 1.318-3.95-9.534 3.945-9.108 18.21-14.74 32.498-14.74z" opacity=".33" fill="#be2127"/><path d="M189.128 281.704c14.145 0 27.177 3.838 31.138 14.233 4.48 12.145-2.18 10.173-4.31 10.146-3.4-1.03-6.52-1.147-13.375-1.202-9.13-.068-18.262.304-27.88-.055-4.53-.173-11.93.645-13.87.79-2.588.218-7.913 1.217-3.874-9.41 3.916-8.983 18.027-14.5 32.172-14.5z" opacity=".33" fill="#bf2127"/><path d="M189.12 281.903c14 0 26.898 3.78 30.803 14.002 4.395 11.9-2.138 10-4.254 10.006-3.345-.987-6.445-1.098-13.232-1.15-9.047-.067-18.09.302-27.615-.055-4.5-.172-11.832.615-13.75.745-2.56.198-7.764 1.115-3.8-9.288 3.886-8.855 17.844-14.26 31.846-14.26z" opacity=".33" fill="#bf2127"/><path d="M189.11 282.1c13.858 0 26.62 3.722 30.47 13.772 4.31 11.657-2.097 9.83-4.198 9.867-3.285-.946-6.366-1.05-13.086-1.1-8.965-.066-17.92.3-27.35-.054-4.473-.172-11.734.586-13.63.7-2.53.177-7.615 1.013-3.73-9.165 3.86-8.73 17.665-14.02 31.523-14.02z" opacity=".33" fill="#c02127"/><path d="M189.1 282.3c13.715 0 26.342 3.66 30.137 13.54 4.227 11.41-2.055 9.657-4.142 9.727-3.227-.903-6.288-1-12.94-1.05-8.882-.062-17.747.3-27.083-.05-4.446-.173-11.64.555-13.513.654-2.5.16-7.465.913-3.655-9.04 3.828-8.605 17.48-13.78 31.195-13.78z" opacity=".33" fill="#c12127"/><path d="M189.09 282.498c13.573 0 26.065 3.603 29.804 13.31 4.143 11.167-2.013 9.485-4.087 9.587-3.17-.86-6.21-.952-12.795-1-8.8-.058-17.574.3-26.817-.048-4.418-.17-11.542.526-13.394.61-2.466.137-7.312.81-3.58-8.92 3.8-8.477 17.298-13.54 30.87-13.54z" opacity=".33" fill="#c22128"/><path d="M189.08 282.696c13.43 0 25.787 3.545 29.47 13.08 4.06 10.923-1.97 9.313-4.03 9.448-3.11-.817-6.132-.904-12.65-.95-8.716-.056-17.402.3-26.55-.047-4.392-.17-11.446.496-13.277.565-2.437.117-7.163.708-3.508-8.797 3.772-8.35 17.117-13.3 30.546-13.3z" opacity=".33" fill="#c22128"/><path d="M189.072 282.895c13.286 0 25.507 3.486 29.136 12.847 3.975 10.68-1.93 9.143-3.975 9.31-3.053-.775-6.055-.855-12.505-.898-8.633-.054-17.23.298-26.285-.046-4.363-.17-11.348.466-13.157.52-2.406.097-7.013.605-3.434-8.675 3.742-8.224 16.934-13.058 30.22-13.058z" opacity=".33" fill="#c32128"/><path d="M189.062 283.093c13.143 0 25.23 3.427 28.803 12.616 3.89 10.434-1.887 8.97-3.92 9.17-2.995-.733-5.977-.807-12.36-.848-8.55-.052-17.058.298-26.02-.044-4.334-.17-11.25.436-13.038.475-2.376.077-6.862.504-3.36-8.552 3.714-8.097 16.753-12.817 29.895-12.817z" opacity=".33" fill="#c42128"/><path d="M189.053 283.29c13 0 24.95 3.37 28.47 12.387 3.806 10.19-1.847 8.8-3.865 9.03-2.937-.69-5.9-.758-12.214-.797-8.468-.05-16.886.297-25.753-.042-4.307-.17-11.153.406-12.92.43-2.344.057-6.71.402-3.286-8.43 3.684-7.97 16.57-12.577 29.57-12.577z" opacity=".33" fill="#c52128"/><path d="M189.043 283.49c12.856 0 24.672 3.31 28.135 12.155 3.723 9.947-1.804 8.628-3.81 8.89-2.878-.646-5.82-.708-12.068-.745-8.385-.047-16.714.296-25.487-.04-4.28-.17-11.057.375-12.802.384-2.314.037-6.56.3-3.212-8.307 3.657-7.845 16.39-12.337 29.245-12.337z" opacity=".33" fill="#c62128"/><path d="M189.034 283.688c12.713 0 24.394 3.25 27.8 11.924 3.64 9.702-1.76 8.456-3.752 8.752-2.82-.604-5.743-.66-11.924-.696-8.302-.044-16.54.295-25.22-.04-4.253-.167-10.962.348-12.684.34-2.284.018-6.41.2-3.14-8.183 3.628-7.72 16.207-12.097 28.92-12.097z" opacity=".33" fill="#c62128"/><path d="M189.024 283.887c12.57 0 24.116 3.192 27.468 11.693 3.556 9.458-1.72 8.284-3.697 8.613-2.763-.56-5.666-.612-11.78-.645-8.218-.042-16.368.295-24.954-.037-4.224-.167-10.863.318-12.564.296-2.254-.003-6.26.096-3.066-8.062 3.6-7.593 16.024-11.857 28.594-11.857z" opacity=".33" fill="#c72128"/><path d="M189.015 284.085c12.426 0 23.837 3.134 27.134 11.462 3.47 9.214-1.68 8.113-3.642 8.473-2.705-.52-5.588-.563-11.633-.594-8.136-.04-16.197.295-24.69-.036-4.197-.167-10.767.287-12.446.25-2.224-.023-6.112-.005-2.994-7.94 3.57-7.465 15.842-11.615 28.27-11.615z" opacity=".33" fill="#c82128"/><path d="M189.005 284.284c12.283 0 23.56 3.075 26.8 11.23 3.39 8.97-1.635 7.942-3.584 8.335-2.646-.477-5.51-.515-11.487-.545-8.054-.037-16.025.293-24.424-.034-4.17-.166-10.67.258-12.33.206-2.192-.043-5.96-.107-2.918-7.816 3.54-7.34 15.66-11.376 27.943-11.376z" opacity=".33" fill="#c92129"/><path d="M188.996 284.482c12.14 0 23.28 3.016 26.467 11 3.304 8.725-1.594 7.77-3.53 8.194-2.59-.433-5.432-.466-11.343-.493-7.97-.034-15.853.293-24.158-.032-4.142-.165-10.573.228-12.21.16-2.16-.063-5.81-.21-2.845-7.694 3.513-7.212 15.48-11.134 27.62-11.134z" opacity=".33" fill="#c92129"/><path d="M188.986 284.68c11.997 0 23.003 2.958 26.134 10.77 3.22 8.48-1.553 7.598-3.474 8.055-2.53-.39-5.355-.417-11.197-.443-7.89-.032-15.682.292-23.893-.03-4.114-.167-10.476.196-12.09.113-2.132-.083-5.66-.31-2.772-7.57 3.482-7.086 15.294-10.894 27.29-10.894z" opacity=".33" fill="#ca2129"/><path d="M188.977 284.88c11.854 0 22.724 2.898 25.8 10.537 3.136 8.237-1.51 7.426-3.42 7.916-2.47-.348-5.276-.368-11.05-.392-7.806-.028-15.51.292-23.627-.028-4.086-.165-10.38.168-11.972.07-2.1-.104-5.51-.414-2.7-7.45 3.456-6.96 15.115-10.653 26.97-10.653z" opacity=".33" fill="#cb2029"/><path d="M188.967 285.078c11.71 0 22.446 2.84 25.466 10.307 3.052 7.993-1.47 7.254-3.363 7.776-2.414-.304-5.2-.32-10.907-.34-7.722-.026-15.336.29-23.36-.027-4.06-.165-10.283.138-11.853.024-2.07-.124-5.36-.515-2.625-7.326 3.426-6.833 14.932-10.412 26.642-10.412z" opacity=".33" fill="#cc2029"/><path d="M188.958 285.276c11.567 0 22.168 2.78 25.133 10.076 2.97 7.75-1.426 7.082-3.306 7.637-2.357-.264-5.12-.272-10.762-.292-7.64-.024-15.164.29-23.094-.026-4.03-.164-10.186.108-11.735-.02-2.04-.144-5.21-.618-2.552-7.205 3.398-6.705 14.75-10.17 26.318-10.17z" opacity=".33" fill="#cd2029"/><path d="M188.948 285.474c11.424 0 21.89 2.723 24.8 9.845 2.883 7.503-1.386 6.91-3.253 7.497-2.298-.22-5.044-.222-10.617-.24-7.557-.02-14.992.29-22.828-.024-4.003-.164-10.09.078-11.616-.066-2.01-.164-5.06-.72-2.478-7.08 3.37-6.58 14.57-9.933 25.992-9.933z" opacity=".33" fill="#cd2029"/><path d="M188.94 285.673c11.28 0 21.61 2.664 24.464 9.614 2.8 7.26-1.343 6.74-3.196 7.358-2.24-.177-4.966-.174-10.47-.19-7.475-.02-14.82.29-22.563-.022-3.975-.163-9.992.048-11.498-.11-1.98-.185-4.908-.822-2.405-6.96 3.34-6.452 14.386-9.69 25.667-9.69z" opacity=".33" fill="#ce202a"/><path d="M188.93 285.87c11.136 0 21.33 2.606 24.13 9.384 2.717 7.016-1.3 6.567-3.14 7.22-2.18-.136-4.887-.126-10.325-.14-7.39-.016-14.648.288-22.296-.02-3.95-.163-9.896.018-11.38-.156-1.948-.204-4.758-.922-2.33-6.836 3.31-6.327 14.202-9.45 25.34-9.45z" opacity=".33" fill="#cf202a"/><path d="M188.92 286.07c10.994 0 21.054 2.547 23.798 9.153 2.632 6.772-1.26 6.395-3.085 7.08-2.124-.093-4.81-.077-10.18-.09-7.31-.013-14.477.288-22.03-.018-3.92-.162-9.8-.012-11.262-.2-1.917-.225-4.606-1.025-2.257-6.714 3.283-6.2 14.023-9.21 25.017-9.21z" opacity=".33" fill="#d0202a"/><path d="M188.91 286.268c10.85 0 20.776 2.488 23.464 8.922 2.548 6.527-1.217 6.224-3.028 6.94-2.066-.05-4.733-.028-10.036-.038-7.226-.01-14.304.286-21.765-.017-3.892-.162-9.7-.04-11.142-.246-1.887-.245-4.457-1.127-2.184-6.592 3.253-6.074 13.84-8.97 24.69-8.97z" opacity=".33" fill="#d0202a"/><path d="M188.9 286.467c10.71 0 20.498 2.43 23.132 8.69 2.464 6.284-1.176 6.053-2.973 6.8-2.01-.006-4.656.022-9.892.014-7.143-.008-14.13.287-21.5-.015-3.864-.16-9.604-.07-11.023-.29-1.857-.265-4.307-1.23-2.11-6.47 3.225-5.946 13.658-8.728 24.366-8.728z" opacity=".33" fill="#d1202a"/><path d="M188.89 286.665c10.565 0 20.22 2.37 22.798 8.46 2.38 6.038-1.134 5.88-2.917 6.66-1.95.036-4.576.07-9.744.063-7.06-.006-13.96.285-21.233-.014-3.837-.16-9.508-.1-10.905-.336-1.827-.284-4.157-1.33-2.037-6.345 3.197-5.82 13.477-8.488 24.04-8.488z" opacity=".33" fill="#d2202a"/><path d="M188.882 286.864c10.42 0 19.94 2.31 22.464 8.23 2.296 5.793-1.092 5.708-2.862 6.52-1.892.08-4.5.12-9.6.115-6.977-.004-13.787.283-20.967-.013-3.81-.16-9.41-.13-10.786-.38-1.795-.305-4.005-1.433-1.963-6.224 3.167-5.695 13.294-8.25 23.715-8.25z" opacity=".33" fill="#d3202a"/><path d="M188.873 287.062c10.278 0 19.662 2.253 22.13 7.998 2.213 5.55-1.05 5.537-2.806 6.382-1.834.12-4.422.167-9.455.165-6.894 0-13.615.284-20.7-.01-3.783-.16-9.315-.16-10.67-.426-1.764-.323-3.855-1.533-1.89-6.1 3.14-5.568 13.113-8.008 23.39-8.008z" opacity=".33" fill="#d4202b"/><path d="M188.863 287.26c10.135 0 19.384 2.195 21.796 7.768 2.128 5.306-1.01 5.365-2.75 6.243-1.777.165-4.345.217-9.31.216-6.813 0-13.444.283-20.436-.01-3.754-.16-9.217-.19-10.55-.47-1.734-.344-3.704-1.636-1.816-5.978 3.11-5.44 12.93-7.767 23.065-7.767z" opacity=".33" fill="#d4202a"/><path d="M188.854 287.46c9.992 0 19.106 2.135 21.463 7.535 2.044 5.062-.966 5.194-2.695 6.104-1.718.205-4.266.263-9.165.265-6.73.004-13.27.282-20.17-.007-3.725-.16-9.12-.22-10.43-.517-1.704-.363-3.555-1.736-1.743-5.854 3.08-5.315 12.748-7.527 22.74-7.527z" opacity=".33" fill="#d5202a"/><path d="M188.844 287.658c9.848 0 18.827 2.077 21.13 7.305 1.96 4.818-.925 5.022-2.64 5.964-1.66.25-4.19.313-9.02.316-6.645.007-13.097.28-19.902-.005-3.7-.16-9.024-.25-10.312-.56-1.674-.385-3.405-1.84-1.67-5.733 3.052-5.19 12.566-7.287 22.414-7.287z" opacity=".33" fill="#d61f2a"/><path d="M188.835 287.856c9.705 0 18.55 2.018 20.795 7.074 1.877 4.573-.883 4.85-2.583 5.825-1.602.292-4.11.362-8.874.367-6.563.01-12.926.28-19.637-.003-3.67-.16-8.927-.28-10.194-.607-1.643-.404-3.255-1.94-1.596-5.61 3.023-5.063 12.384-7.047 22.09-7.047z" opacity=".33" fill="#d71f2a"/><path d="M188.825 288.055c9.562 0 18.27 1.96 20.462 6.843 1.793 4.33-.84 4.68-2.528 5.685-1.545.334-4.034.41-8.73.417-6.48.012-12.754.28-19.37 0-3.644-.16-8.83-.31-10.076-.653-1.613-.424-3.104-2.043-1.523-5.487 2.996-4.936 12.203-6.805 21.765-6.805z" opacity=".33" fill="#d71f2a"/><path d="M188.816 288.253c9.418 0 17.993 1.9 20.128 6.612 1.71 4.085-.8 4.507-2.472 5.546-1.486.378-3.955.46-8.584.47-6.397.013-12.582.278-19.105 0-3.616-.158-8.733-.34-9.956-.698-1.582-.444-2.954-2.145-1.45-5.365 2.966-4.808 12.02-6.564 21.44-6.564z" opacity=".33" fill="#d81f2b"/><path d="M188.806 288.452c9.275 0 17.714 1.842 19.794 6.38 1.625 3.842-.757 4.336-2.416 5.408-1.428.42-3.877.508-8.438.52-6.315.016-12.41.278-18.84 0-3.587-.155-8.635-.37-9.837-.74-1.553-.464-2.805-2.247-1.377-5.242 2.937-4.685 11.838-6.326 21.113-6.326z" opacity=".33" fill="#d91f2b"/><path d="M188.797 288.65c9.132 0 17.436 1.783 19.46 6.15 1.542 3.597-.714 4.165-2.36 5.268-1.37.462-3.8.556-8.293.57-6.232.018-12.238.277-18.573.002-3.56-.156-8.538-.4-9.718-.787-1.52-.484-2.654-2.35-1.302-5.12 2.907-4.555 11.655-6.083 20.787-6.083z" opacity=".33" fill="#da1f2b"/><path d="M188.787 288.848c8.99 0 17.157 1.724 19.127 5.92 1.457 3.35-.673 3.99-2.305 5.127-1.313.505-3.723.605-8.15.62-6.148.022-12.064.277-18.306.005-3.533-.156-8.443-.43-9.6-.832-1.492-.504-2.504-2.45-1.23-4.997 2.88-4.428 11.474-5.842 20.463-5.842z" opacity=".33" fill="#db1f2b"/><path d="M188.778 289.047c8.846 0 16.88 1.666 18.793 5.69 1.374 3.107-.63 3.82-2.248 4.987-1.254.548-3.644.654-8.002.67-6.067.025-11.894.277-18.042.008-3.505-.155-8.346-.46-9.482-.877-1.46-.525-2.353-2.552-1.155-4.874 2.85-4.303 11.292-5.603 20.138-5.603z" opacity=".33" fill="#db1f2b"/><path d="M188.768 289.245c8.702 0 16.6 1.607 18.46 5.458 1.29 2.864-.59 3.648-2.193 4.85-1.196.59-3.566.702-7.858.72-5.984.027-11.72.276-17.776.01-3.476-.156-8.248-.49-9.363-.923-1.43-.545-2.202-2.654-1.082-4.752 2.823-4.177 11.11-5.363 19.813-5.363z" opacity=".33" fill="#dc202b"/><path d="M188.76 289.444c8.558 0 16.32 1.548 18.125 5.226 1.205 2.62-.548 3.477-2.138 4.71-1.137.633-3.488.75-7.712.772-5.9.03-11.55.275-17.51.01-3.45-.154-8.152-.52-9.245-.967-1.4-.565-2.052-2.756-1.008-4.63 2.793-4.05 10.928-5.12 19.487-5.12z" opacity=".33" fill="#dd212b"/><path d="M188.75 289.642c8.415 0 16.043 1.49 17.792 4.995 1.12 2.375-.506 3.305-2.082 4.57-1.08.676-3.41.8-7.567.823-5.818.032-11.377.274-17.244.012-3.423-.154-8.056-.55-9.128-1.012-1.37-.585-1.902-2.858-.935-4.506 2.765-3.924 10.746-4.882 19.162-4.882z" opacity=".33" fill="#de212c"/><path d="M188.74 289.84c8.273 0 15.766 1.43 17.46 4.765 1.036 2.13-.465 3.133-2.028 4.43-1.02.72-3.333.85-7.422.874-5.735.034-11.205.272-16.978.013-3.394-.154-7.958-.58-9.008-1.057-1.338-.605-1.75-2.96-.86-4.384 2.735-3.798 10.563-4.642 18.836-4.642z" opacity=".33" fill="#de212c"/><path d="M188.73 290.04c8.13 0 15.487 1.37 17.125 4.533.953 1.887-.422 2.962-1.97 4.292-.964.76-3.256.897-7.277.923-5.652.037-11.033.273-16.712.015-3.367-.153-7.862-.61-8.89-1.102-1.308-.624-1.6-3.06-.788-4.26 2.708-3.67 10.383-4.4 18.512-4.4z" opacity=".33" fill="#df212c"/></g><path d="M188.72 290.238c7.987 0 15.21 1.313 16.793 4.303.87 1.644-.38 2.79-1.915 4.153-.905.804-3.177.946-7.13.974-5.57.04-10.862.272-16.447.017-3.338-.152-7.764-.64-8.77-1.147-1.277-.645-1.45-3.164-.714-4.14 2.677-3.544 10.198-4.16 18.185-4.16z" clip-rule="evenodd" opacity=".33" fill="#e0212c" fill-rule="evenodd"/><path d="M189.488 409.876c19.588 0 39.008-4.314 45.07-19.503 3.995-10.01 2.028-15.52.02-17.06-3.306-2.538-12.542.72-26.327.034-12.27-.61-26.407.608-39.587.427-10.22-.14-19.978-1.432-23.758.924-2.634 1.642-5.77 4.728-1.344 15.313 5.458 13.055 26.34 19.866 45.928 19.866z" clip-rule="evenodd" opacity=".33" fill="#a11e22" fill-rule="evenodd"/><g clip-rule="evenodd" fill-rule="evenodd"><path d="M189.48 409.81c19.467 0 38.756-4.29 44.767-19.357 3.96-9.923 1.998-15.39-.01-16.943-3.278-2.523-12.434.692-26.108.012-12.203-.605-26.246.595-39.348.42-10.143-.134-19.836-1.416-23.594.93-2.63 1.645-5.722 4.75-1.34 15.225 5.43 12.972 26.167 19.713 45.633 19.713z" opacity=".33" fill="#a21e22"/><path d="M189.474 409.745c19.344 0 38.502-4.267 44.462-19.212 3.923-9.836 1.967-15.26-.037-16.824-3.253-2.51-12.33.66-25.892-.01-12.134-.6-26.082.58-39.105.415-10.067-.13-19.695-1.403-23.43.936-2.623 1.647-5.674 4.77-1.337 15.136 5.4 12.887 25.994 19.56 45.338 19.56z" opacity=".33" fill="#a31e22"/><path d="M189.467 409.68c19.223 0 38.25-4.243 44.158-19.068 3.887-9.748 1.936-15.132-.067-16.706-3.225-2.496-12.22.632-25.674-.032-12.066-.592-25.92.568-38.864.41-9.99-.125-19.553-1.388-23.267.942-2.617 1.648-5.627 4.788-1.333 15.046 5.376 12.806 25.824 19.407 45.047 19.407z" opacity=".33" fill="#a31e22"/><path d="M189.46 409.613c19.1 0 37.995-4.218 43.853-18.922 3.85-9.66 1.905-15-.096-16.586-3.197-2.483-12.114.602-25.456-.054-11.997-.585-25.756.554-38.62.405-9.916-.12-19.413-1.373-23.104.948-2.612 1.65-5.58 4.808-1.33 14.957 5.35 12.723 25.653 19.253 44.753 19.253z" opacity=".33" fill="#a41e23"/><path d="M189.452 409.547c18.98 0 37.743-4.194 43.55-18.776 3.814-9.573 1.875-14.87-.125-16.468-3.17-2.47-12.007.572-25.238-.075-11.932-.578-25.595.54-38.38.4-9.84-.116-19.27-1.36-22.94.953-2.607 1.65-5.533 4.828-1.326 14.868 5.32 12.64 25.48 19.1 44.458 19.1z" opacity=".33" fill="#a51e23"/><path d="M189.445 409.48c18.857 0 37.49-4.17 43.246-18.63 3.78-9.487 1.845-14.742-.153-16.35-3.143-2.456-11.9.542-25.02-.098-11.863-.572-25.43.527-38.14.393-9.762-.11-19.128-1.344-22.775.96-2.6 1.652-5.485 4.847-1.322 14.778 5.294 12.56 25.308 18.948 44.165 18.948z" opacity=".33" fill="#a61e23"/><path d="M189.438 409.415c18.735 0 37.237-4.146 42.942-18.485 3.742-9.4 1.813-14.613-.183-16.232-3.116-2.442-11.793.512-24.802-.12-11.795-.565-25.268.514-37.897.387-9.687-.105-18.987-1.33-22.612.965-2.595 1.655-5.438 4.868-1.318 14.69 5.265 12.476 25.134 18.795 43.87 18.795z" opacity=".33" fill="#a61e23"/><path d="M189.43 409.35c18.614 0 36.984-4.122 42.637-18.34 3.705-9.314 1.783-14.484-.212-16.114-3.09-2.43-11.686.483-24.584-.142-11.727-.558-25.105.5-37.655.382-9.61-.1-18.846-1.315-22.45.97-2.59 1.658-5.39 4.89-1.313 14.602 5.24 12.393 24.965 18.642 43.578 18.642z" opacity=".33" fill="#a71f23"/><path d="M189.423 409.284c18.492 0 36.73-4.098 42.334-18.195 3.67-9.226 1.752-14.354-.24-15.996-3.062-2.415-11.58.453-24.367-.164-11.66-.55-24.943.486-37.414.376-9.535-.095-18.704-1.3-22.285.977-2.583 1.66-5.342 4.91-1.31 14.512 5.212 12.31 24.79 18.49 43.283 18.49z" opacity=".33" fill="#a81f23"/><path d="M189.416 409.218c18.37 0 36.478-4.074 42.03-18.05 3.632-9.138 1.72-14.223-.27-15.876-3.035-2.402-11.473.423-24.15-.186-11.592-.545-24.78.473-37.173.37-9.46-.09-18.563-1.284-22.122.983-2.578 1.66-5.295 4.928-1.306 14.422 5.187 12.228 24.622 18.336 42.992 18.336z" opacity=".33" fill="#a91f23"/><path d="M189.41 409.152c18.247 0 36.224-4.05 41.724-17.904 3.597-9.052 1.69-14.094-.3-15.758-3.006-2.388-11.364.393-23.93-.208-11.524-.54-24.617.46-36.93.365-9.384-.084-18.422-1.27-21.96.988-2.572 1.662-5.248 4.95-1.302 14.334 5.158 12.145 24.448 18.182 42.697 18.182z" opacity=".33" fill="#aa1f23"/><path d="M189.4 409.086c18.127 0 35.973-4.025 41.422-17.76 3.56-8.963 1.66-13.963-.328-15.638-2.98-2.375-11.257.363-23.713-.23-11.455-.532-24.453.446-36.688.36-9.307-.08-18.28-1.256-21.795.993-2.567 1.665-5.2 4.97-1.3 14.246 5.132 12.063 24.278 18.03 42.404 18.03z" opacity=".33" fill="#aa1f23"/><path d="M189.394 409.02c18.005 0 35.72-4 41.117-17.614 3.525-8.877 1.63-13.834-.356-15.52-2.953-2.362-11.15.332-23.495-.253-11.39-.525-24.293.432-36.45.353-9.23-.074-18.137-1.24-21.63 1-2.562 1.666-5.154 4.99-1.295 14.156 5.104 11.982 24.104 17.878 42.11 17.878z" opacity=".33" fill="#ab1f24"/><path d="M189.387 408.954c17.883 0 35.466-3.977 40.814-17.47 3.49-8.79 1.6-13.704-.385-15.4-2.925-2.35-11.043.302-23.277-.275-11.32-.52-24.13.418-36.207.347-9.154-.07-17.996-1.226-21.467 1.006-2.556 1.668-5.106 5.01-1.29 14.067 5.075 11.9 23.93 17.724 41.814 17.724z" opacity=".33" fill="#ac1f24"/><path d="M189.38 408.888c17.76 0 35.213-3.953 40.51-17.323 3.45-8.703 1.566-13.575-.416-15.284-2.898-2.333-10.936.274-23.06-.295-11.253-.512-23.966.406-35.965.342-9.08-.064-17.856-1.21-21.305 1.012-2.55 1.67-5.06 5.028-1.288 13.977 5.05 11.816 23.76 17.57 41.523 17.57z" opacity=".33" fill="#ad1f24"/><path d="M189.372 408.823c17.64 0 34.96-3.93 40.205-17.178 3.415-8.616 1.537-13.445-.444-15.165-2.87-2.32-10.83.243-22.842-.318-11.184-.505-23.802.392-35.722.337-9.003-.06-17.714-1.197-21.14 1.017-2.546 1.67-5.013 5.05-1.285 13.89 5.024 11.73 23.59 17.416 41.23 17.416z" opacity=".33" fill="#ad1f24"/><path d="M189.365 408.757c17.518 0 34.707-3.905 39.9-17.033 3.38-8.53 1.507-13.315-.472-15.047-2.844-2.307-10.722.213-22.624-.34-11.12-.498-23.642.378-35.483.33-8.927-.053-17.572-1.18-20.977 1.025-2.54 1.673-4.964 5.07-1.28 13.8 4.996 11.65 23.417 17.265 40.935 17.265z" opacity=".33" fill="#ae1f24"/><path d="M189.358 408.69c17.396 0 34.454-3.88 39.597-16.886 3.343-8.44 1.475-13.186-.502-14.928-2.817-2.294-10.615.184-22.406-.362-11.05-.492-23.478.365-35.24.325-8.85-.05-17.43-1.168-20.813 1.028-2.534 1.675-4.917 5.09-1.276 13.71 4.967 11.57 23.244 17.113 40.64 17.113z" opacity=".33" fill="#af2025"/><path d="M189.35 408.625c17.274 0 34.2-3.856 39.293-16.742 3.307-8.354 1.444-13.056-.53-14.81-2.79-2.28-10.51.154-22.19-.384-10.98-.486-23.314.35-34.998.32-8.775-.044-17.29-1.153-20.65 1.034-2.528 1.677-4.87 5.11-1.272 13.622 4.94 11.485 23.073 16.96 40.347 16.96z" opacity=".33" fill="#b02025"/><path d="M189.343 408.56c17.152 0 33.948-3.833 38.99-16.598 3.27-8.267 1.413-12.927-.56-14.69-2.763-2.268-10.402.123-21.97-.407-10.915-.478-23.153.337-34.758.314-8.7-.04-17.147-1.138-20.486 1.04-2.524 1.678-4.823 5.13-1.27 13.533 4.914 11.403 22.9 16.806 40.053 16.806z" opacity=".33" fill="#b12025"/><path d="M189.336 408.493c17.03 0 33.695-3.808 38.685-16.452 3.235-8.18 1.384-12.795-.588-14.572-2.735-2.253-10.294.094-21.753-.428-10.847-.472-22.99.324-34.517.31-8.623-.034-17.006-1.124-20.323 1.046-2.517 1.68-4.775 5.15-1.265 13.444 4.888 11.32 22.73 16.653 39.76 16.653z" opacity=".33" fill="#b12025"/><path d="M189.33 408.427c16.908 0 33.44-3.784 38.38-16.306 3.198-8.092 1.352-12.666-.618-14.453-2.708-2.24-10.187.064-21.535-.45-10.78-.465-22.827.31-34.274.303-8.547-.028-16.865-1.108-20.16 1.052-2.51 1.682-4.727 5.17-1.26 13.355 4.86 11.238 22.557 16.5 39.466 16.5z" opacity=".33" fill="#b22025"/><path d="M189.32 408.36c16.788 0 33.19-3.758 38.078-16.16 3.16-8.006 1.32-12.537-.647-14.336-2.68-2.227-10.08.034-21.316-.472-10.71-.458-22.664.297-34.032.297-8.472-.024-16.723-1.094-19.996 1.057-2.506 1.684-4.68 5.19-1.257 13.266 4.83 11.157 22.385 16.348 39.17 16.348z" opacity=".33" fill="#b32025"/><path d="M189.314 408.296c16.665 0 32.936-3.736 37.773-16.016 3.125-7.92 1.29-12.408-.677-14.217-2.653-2.213-9.973.004-21.1-.494-10.642-.453-22.5.282-33.79.29-8.395-.018-16.582-1.078-19.832 1.064-2.5 1.686-4.633 5.21-1.254 13.177 4.807 11.074 22.215 16.196 38.88 16.196z" opacity=".33" fill="#b42026"/><path d="M189.307 408.23c16.543 0 32.683-3.712 37.47-15.87 3.088-7.832 1.26-12.278-.706-14.1-2.625-2.198-9.864-.025-20.88-.515-10.576-.445-22.338.27-33.55.286-8.32-.012-16.44-1.062-19.668 1.07-2.495 1.688-4.586 5.23-1.25 13.09 4.778 10.99 22.042 16.04 38.585 16.04z" opacity=".33" fill="#b42026"/><path d="M189.3 408.164c16.42 0 32.43-3.687 37.165-15.725 3.053-7.745 1.23-12.15-.734-13.98-2.598-2.187-9.757-.057-20.663-.54-10.507-.437-22.175.257-33.308.28-8.244-.006-16.3-1.048-19.506 1.077-2.49 1.69-4.538 5.25-1.246 13 4.75 10.906 21.87 15.887 38.292 15.887z" opacity=".33" fill="#b52026"/><path d="M189.292 408.098c16.3 0 32.177-3.663 36.86-15.58 3.018-7.657 1.2-12.018-.763-13.862-2.572-2.173-9.652-.086-20.446-.56-10.44-.432-22.013.242-33.066.273-8.167-.003-16.157-1.035-19.34 1.08-2.485 1.692-4.492 5.27-1.243 12.91 4.724 10.828 21.698 15.738 37.997 15.738z" opacity=".33" fill="#b62026"/><path d="M189.285 408.032c16.178 0 31.924-3.64 36.557-15.434 2.98-7.57 1.168-11.89-.793-13.743-2.545-2.16-9.545-.115-20.23-.583-10.37-.425-21.85.23-32.824.27-8.092.002-16.015-1.02-19.178 1.087-2.478 1.692-4.444 5.288-1.24 12.82 4.7 10.743 21.53 15.582 37.707 15.582z" opacity=".33" fill="#b72026"/><path d="M189.278 407.966c16.056 0 31.67-3.615 36.253-15.29 2.945-7.482 1.138-11.758-.82-13.624-2.518-2.146-9.438-.146-20.01-.605-10.305-.418-21.688.216-32.584.263-8.016.008-15.874-1.004-19.014 1.094-2.472 1.694-4.397 5.31-1.235 12.732 4.67 10.66 21.355 15.43 37.41 15.43z" opacity=".33" fill="#b82026"/><path d="M189.27 407.9c15.934 0 31.418-3.59 35.95-15.143 2.907-7.396 1.105-11.63-.852-13.506-2.49-2.13-9.33-.174-19.792-.625-10.237-.41-21.524.202-32.342.257-7.94.013-15.732-.99-18.85 1.1-2.468 1.695-4.35 5.328-1.232 12.642 4.644 10.578 21.184 15.277 37.118 15.277z" opacity=".33" fill="#b82026"/><path d="M189.263 407.835c15.812 0 31.165-3.567 35.645-15 2.87-7.308 1.075-11.498-.88-13.387-2.463-2.12-9.223-.205-19.574-.65-10.17-.404-21.362.19-32.1.253-7.863.02-15.59-.974-18.687 1.106-2.46 1.698-4.302 5.35-1.227 12.554 4.616 10.497 21.01 15.125 36.823 15.125z" opacity=".33" fill="#b92027"/><path d="M189.256 407.77c15.69 0 30.912-3.544 35.34-14.854 2.836-7.222 1.045-11.37-.908-13.27-2.436-2.104-9.116-.234-19.356-.67-10.1-.398-21.2.175-31.858.246-7.788.023-15.45-.96-18.524 1.11-2.456 1.7-4.254 5.37-1.223 12.466 4.588 10.413 20.838 14.97 36.53 14.97z" opacity=".33" fill="#ba2027"/><path d="M189.25 407.703c15.568 0 30.658-3.518 35.036-14.708 2.8-7.134 1.013-11.24-.938-13.15-2.408-2.092-9.01-.266-19.138-.694-10.033-.39-21.036.163-31.617.242-7.712.028-15.308-.946-18.36 1.117-2.45 1.7-4.207 5.388-1.22 12.375 4.56 10.33 20.667 14.818 36.236 14.818z" opacity=".33" fill="#bb2027"/><path d="M189.242 407.637c15.447 0 30.406-3.494 34.733-14.562 2.763-7.048.983-11.11-.967-13.032-2.38-2.078-8.902-.295-18.92-.715-9.967-.385-20.874.148-31.377.235-7.635.034-15.165-.93-18.195 1.123-2.445 1.704-4.16 5.41-1.216 12.287 4.534 10.247 20.494 14.664 35.942 14.664z" opacity=".33" fill="#bb2027"/><path d="M189.234 407.57c15.325 0 30.154-3.47 34.43-14.416 2.725-6.96.95-10.98-.997-12.914-2.354-2.065-8.794-.325-18.703-.737-9.898-.378-20.71.134-31.134.23-7.56.037-15.025-.917-18.033 1.127-2.44 1.706-4.112 5.43-1.212 12.198 4.508 10.167 20.324 14.513 35.65 14.513z" opacity=".33" fill="#bc2027"/><path d="M189.227 407.505c15.203 0 29.9-3.446 34.125-14.272 2.69-6.873.92-10.85-1.025-12.796-2.327-2.05-8.687-.355-18.485-.76-9.83-.37-20.547.122-30.892.225-7.484.043-14.883-.9-17.87 1.134-2.432 1.707-4.064 5.45-1.207 12.11 4.48 10.083 20.15 14.36 35.354 14.36z" opacity=".33" fill="#bd2127"/><path d="M189.22 407.44c15.082 0 29.648-3.422 33.82-14.127 2.655-6.786.892-10.72-1.053-12.677-2.3-2.038-8.58-.385-18.267-.78-9.762-.366-20.385.106-30.65.217-7.41.05-14.743-.886-17.707 1.14-2.428 1.71-4.018 5.47-1.205 12.02 4.453 10 19.98 14.207 35.062 14.207z" opacity=".33" fill="#be2127"/><path d="M189.212 407.374c14.96 0 29.395-3.398 33.517-13.982 2.617-6.7.86-10.592-1.084-12.558-2.272-2.024-8.473-.414-18.05-.803-9.694-.357-20.22.095-30.408.213-7.332.054-14.6-.872-17.542 1.146-2.422 1.71-3.97 5.49-1.2 11.93 4.425 9.918 19.806 14.054 34.766 14.054z" opacity=".33" fill="#bf2127"/><path d="M189.205 407.308c14.838 0 29.142-3.374 33.213-13.836 2.58-6.612.83-10.462-1.112-12.44-2.245-2.01-8.366-.444-17.832-.825-9.627-.35-20.06.08-30.168.207-7.256.06-14.46-.857-17.38 1.152-2.416 1.712-3.922 5.51-1.196 11.842 4.4 9.835 19.637 13.9 34.475 13.9z" opacity=".33" fill="#bf2127"/><path d="M189.198 407.242c14.717 0 28.89-3.35 32.91-13.69 2.544-6.526.797-10.333-1.142-12.322-2.218-1.997-8.26-.474-17.613-.847-9.56-.345-19.897.067-29.926.2-7.18.065-14.317-.84-17.215 1.16-2.41 1.713-3.876 5.53-1.193 11.752 4.37 9.753 19.46 13.747 34.178 13.747z" opacity=".33" fill="#c02127"/><path d="M189.19 407.176c14.596 0 28.636-3.326 32.606-13.546 2.51-6.437.767-10.202-1.17-12.203-2.19-1.984-8.152-.504-17.396-.87-9.49-.337-19.734.054-29.685.196-7.104.07-14.176-.827-17.052 1.163-2.405 1.716-3.83 5.55-1.19 11.664 4.345 9.672 19.293 13.596 33.888 13.596z" opacity=".33" fill="#c12127"/><path d="M189.183 407.11c14.473 0 28.383-3.3 32.3-13.4 2.474-6.35.738-10.073-1.198-12.084-2.163-1.97-8.045-.534-17.178-.89-9.424-.332-19.57.04-29.443.19-7.028.073-14.034-.814-16.888 1.168-2.4 1.718-3.78 5.57-1.186 11.575 4.318 9.586 19.12 13.44 33.593 13.44z" opacity=".33" fill="#c22128"/><path d="M189.176 407.044c14.35 0 28.13-3.277 31.996-13.255 2.436-6.264.706-9.944-1.228-11.967-2.136-1.957-7.938-.564-16.96-.913-9.356-.325-19.408.026-29.202.184-6.952.08-13.893-.798-16.724 1.175-2.394 1.72-3.734 5.59-1.182 11.485 4.29 9.506 18.95 13.29 33.3 13.29z" opacity=".33" fill="#c22128"/><path d="M189.17 406.98c14.228 0 27.876-3.254 31.69-13.11 2.4-6.177.676-9.815-1.256-11.848-2.11-1.943-7.83-.594-16.742-.935-9.288-.318-19.245.013-28.96.178-6.876.085-13.75-.783-16.56 1.18-2.39 1.723-3.688 5.61-1.18 11.398 4.264 9.423 18.778 13.136 33.007 13.136z" opacity=".33" fill="#c32128"/><path d="M189.162 406.913c14.107 0 27.624-3.23 31.388-12.964 2.364-6.09.644-9.685-1.286-11.73-2.082-1.93-7.724-.624-16.524-.957-9.22-.312-19.083 0-28.718.173-6.8.09-13.61-.768-16.397 1.187-2.383 1.723-3.64 5.63-1.174 11.308 4.235 9.34 18.604 12.983 32.712 12.983z" opacity=".33" fill="#c42128"/><path d="M189.154 406.847c13.986 0 27.37-3.205 31.084-12.82 2.328-6 .614-9.553-1.315-11.61-2.055-1.915-7.617-.653-16.307-.978-9.152-.306-18.92-.015-28.477.166-6.725.095-13.47-.754-16.235 1.193-2.378 1.724-3.592 5.65-1.17 11.218 4.21 9.257 18.433 12.83 32.42 12.83z" opacity=".33" fill="#c52128"/><path d="M189.147 406.78c13.864 0 27.118-3.18 30.78-12.673 2.29-5.915.583-9.424-1.344-11.492-2.027-1.903-7.51-.683-16.09-1-9.084-.3-18.756-.03-28.234.16-6.65.1-13.328-.74-16.07 1.2-2.373 1.726-3.546 5.67-1.168 11.13 4.182 9.175 18.26 12.676 32.125 12.676z" opacity=".33" fill="#c62128"/><path d="M189.14 406.715c13.742 0 26.865-3.157 30.476-12.528 2.255-5.828.552-9.295-1.373-11.374-2-1.89-7.402-.714-15.87-1.023-9.018-.29-18.595-.042-27.995.156-6.572.105-13.185-.724-15.907 1.204-2.365 1.73-3.496 5.69-1.162 11.04 4.155 9.094 18.09 12.525 31.832 12.525z" opacity=".33" fill="#c62128"/><path d="M189.133 406.65c13.62 0 26.612-3.134 30.172-12.384 2.22-5.74.52-9.165-1.402-11.255-1.973-1.875-7.295-.743-15.653-1.044-8.95-.285-18.43-.055-27.752.15-6.496.11-13.043-.71-15.743 1.21-2.36 1.73-3.45 5.71-1.16 10.952 4.128 9.01 17.917 12.37 31.538 12.37z" opacity=".33" fill="#c72128"/><path d="M189.125 406.583c13.498 0 26.36-3.108 29.868-12.238 2.182-5.653.49-9.035-1.43-11.136-1.947-1.864-7.19-.774-15.436-1.07-8.88-.277-18.27-.067-27.51.146-6.42.115-12.903-.694-15.58 1.216-2.356 1.732-3.404 5.73-1.157 10.863 4.102 8.928 17.747 12.218 31.245 12.218z" opacity=".33" fill="#c82128"/><path d="M189.118 406.518c13.377 0 26.106-3.084 29.564-12.093 2.146-5.566.46-8.905-1.46-11.017-1.92-1.85-7.082-.803-15.218-1.09-8.814-.27-18.106-.082-27.27.14-6.343.12-12.76-.68-15.415 1.22-2.35 1.735-3.356 5.75-1.153 10.775 4.074 8.845 17.574 12.065 30.95 12.065z" opacity=".33" fill="#c92129"/><path d="M189.11 406.452c13.256 0 25.854-3.06 29.26-11.947 2.11-5.48.43-8.776-1.49-10.9-1.89-1.835-6.973-.833-14.998-1.11-8.746-.266-17.943-.097-27.028.132-6.268.126-12.62-.665-15.252 1.228-2.344 1.736-3.308 5.77-1.148 10.685 4.046 8.762 17.402 11.912 30.657 11.912z" opacity=".33" fill="#c92129"/><path d="M189.104 406.386c13.133 0 25.6-3.036 28.956-11.802 2.074-5.392.398-8.646-1.518-10.78-1.864-1.823-6.867-.864-14.782-1.135-8.678-.26-17.78-.11-26.786.127-6.192.13-12.477-.65-15.09 1.233-2.338 1.738-3.26 5.79-1.143 10.596 4.02 8.68 17.23 11.76 30.364 11.76z" opacity=".33" fill="#ca2129"/><path d="M189.096 406.32c13.01 0 25.347-3.012 28.652-11.657 2.037-5.305.367-8.516-1.548-10.663-1.837-1.808-6.76-.893-14.564-1.155-8.61-.252-17.617-.123-26.544.122-6.116.135-12.336-.636-14.925 1.24-2.333 1.738-3.213 5.81-1.14 10.506 3.992 8.6 17.058 11.607 30.07 11.607z" opacity=".33" fill="#cb2029"/><path d="M189.09 406.254c12.888 0 25.093-2.988 28.347-11.512 2-5.217.337-8.387-1.577-10.544-1.81-1.795-6.652-.923-14.346-1.178-8.543-.245-17.455-.136-26.303.116-6.04.14-12.193-.62-14.76 1.245-2.328 1.742-3.167 5.83-1.138 10.42 3.966 8.516 16.887 11.454 29.777 11.454z" opacity=".33" fill="#cc2029"/><path d="M189.082 406.188c12.768 0 24.84-2.964 28.044-11.366 1.965-5.13.306-8.257-1.606-10.425-1.783-1.782-6.546-.953-14.128-1.2-8.475-.238-17.292-.15-26.062.11-5.964.146-12.053-.606-14.598 1.25-2.322 1.744-3.12 5.85-1.133 10.33 3.937 8.434 16.714 11.3 29.482 11.3z" opacity=".33" fill="#cd2029"/><path d="M189.074 406.122c12.646 0 24.588-2.94 27.74-11.22 1.93-5.044.275-8.128-1.635-10.308-1.756-1.768-6.44-.982-13.91-1.22-8.408-.232-17.13-.164-25.82.104-5.89.15-11.912-.592-14.436 1.257-2.316 1.745-3.07 5.87-1.13 10.24 3.913 8.35 16.544 11.147 29.19 11.147z" opacity=".33" fill="#cd2029"/><path d="M189.067 406.057c12.524 0 24.335-2.915 27.436-11.075 1.892-4.957.245-7.998-1.664-10.19-1.73-1.754-6.332-1.01-13.693-1.243-8.34-.226-16.966-.178-25.578.098-5.813.156-11.77-.577-14.272 1.262-2.31 1.747-3.024 5.89-1.125 10.15 3.883 8.27 16.37 10.997 28.894 10.997z" opacity=".33" fill="#ce202a"/><path d="M189.06 405.99c12.402 0 24.082-2.89 27.132-10.93 1.856-4.868.214-7.867-1.693-10.07-1.702-1.74-6.225-1.042-13.476-1.265-8.27-.218-16.803-.19-25.337.093-5.736.16-11.628-.562-14.107 1.27-2.305 1.747-2.977 5.91-1.122 10.06 3.857 8.186 16.2 10.843 28.602 10.843z" opacity=".33" fill="#cf202a"/><path d="M189.053 405.925c12.28 0 23.83-2.867 26.828-10.785 1.82-4.782.184-7.738-1.72-9.952-1.675-1.728-6.118-1.072-13.258-1.288-8.204-.21-16.64-.204-25.095.088-5.66.166-11.487-.547-13.944 1.274-2.3 1.75-2.93 5.93-1.118 9.973 3.83 8.104 16.027 10.69 28.308 10.69z" opacity=".33" fill="#d0202a"/><path d="M189.045 405.86c12.16 0 23.576-2.844 26.524-10.64 1.783-4.696.15-7.61-1.752-9.834-1.646-1.714-6.01-1.102-13.04-1.31-8.135-.205-16.477-.218-24.853.082-5.584.17-11.345-.532-13.78 1.28-2.294 1.752-2.882 5.95-1.114 9.884 3.804 8.02 15.856 10.537 28.015 10.537z" opacity=".33" fill="#d0202a"/><path d="M189.038 405.793c12.037 0 23.323-2.82 26.22-10.494 1.747-4.608.122-7.48-1.78-9.715-1.62-1.7-5.903-1.132-12.82-1.332-8.07-.198-16.316-.23-24.613.077-5.508.176-11.204-.517-13.617 1.286-2.288 1.754-2.835 5.97-1.11 9.795 3.775 7.938 15.683 10.383 27.72 10.383z" opacity=".33" fill="#d1202a"/><path d="M189.03 405.727c11.916 0 23.07-2.795 25.917-10.35 1.71-4.52.09-7.348-1.81-9.595-1.59-1.687-5.795-1.162-12.602-1.354-8-.19-16.152-.245-24.37.07-5.433.182-11.063-.502-13.454 1.293-2.282 1.756-2.786 5.992-1.106 9.707 3.748 7.856 15.512 10.23 27.427 10.23z" opacity=".33" fill="#d2202a"/><path d="M189.023 405.662c11.793 0 22.817-2.77 25.612-10.204 1.675-4.433.06-7.22-1.838-9.477-1.565-1.673-5.69-1.19-12.385-1.375-7.933-.185-15.99-.258-24.13.065-5.355.187-10.92-.488-13.29 1.298-2.276 1.757-2.74 6.01-1.102 9.617 3.722 7.772 15.34 10.077 27.133 10.077z" opacity=".33" fill="#d3202a"/><path d="M189.016 405.596c11.67 0 22.564-2.746 25.308-10.06 1.64-4.345.03-7.088-1.867-9.358-1.538-1.66-5.582-1.222-12.168-1.398-7.866-.178-15.828-.272-23.888.06-5.28.192-10.78-.473-13.126 1.304-2.27 1.76-2.693 6.03-1.1 9.528 3.695 7.69 15.17 9.924 26.84 9.924z" opacity=".33" fill="#d4202b"/><path d="M189.01 405.53c11.55 0 22.31-2.722 25.003-9.913 1.602-4.26 0-6.96-1.896-9.24-1.51-1.647-5.475-1.252-11.95-1.42-7.797-.17-15.664-.285-23.646.054-5.203.198-10.637-.458-12.962 1.31-2.266 1.76-2.645 6.05-1.095 9.44 3.667 7.606 14.996 9.77 26.546 9.77z" opacity=".33" fill="#d4202a"/><path d="M189.002 405.464c11.428 0 22.058-2.698 24.7-9.768 1.566-4.172-.032-6.83-1.925-9.122-1.483-1.633-5.368-1.282-11.732-1.442-7.73-.165-15.5-.3-23.404.048-5.127.202-10.495-.444-12.798 1.315-2.26 1.763-2.598 6.07-1.09 9.35 3.638 7.526 14.822 9.62 26.25 9.62z" opacity=".33" fill="#d5202a"/><path d="M188.994 405.398c11.306 0 21.805-2.674 24.396-9.623 1.53-4.085-.063-6.7-1.954-9.004-1.456-1.62-5.26-1.31-11.514-1.463-7.66-.158-15.338-.312-23.163.043-5.053.207-10.356-.43-12.637 1.32-2.254 1.766-2.55 6.092-1.088 9.262 3.614 7.443 14.653 9.466 25.96 9.466z" opacity=".33" fill="#d61f2a"/><path d="M188.987 405.332c11.184 0 21.552-2.65 24.09-9.477 1.495-3.998-.093-6.57-1.982-8.885-1.43-1.606-5.153-1.34-11.296-1.486-7.595-.15-15.177-.326-22.922.037-4.977.213-10.213-.413-12.472 1.328-2.25 1.766-2.503 6.11-1.084 9.172 3.586 7.36 14.48 9.312 25.665 9.312z" opacity=".33" fill="#d71f2a"/><path d="M188.98 405.266c11.063 0 21.3-2.626 23.788-9.332 1.457-3.91-.125-6.44-2.012-8.766-1.402-1.593-5.046-1.37-11.078-1.508-7.526-.145-15.013-.34-22.68.032-4.9.217-10.072-.4-12.308 1.333-2.244 1.768-2.456 6.13-1.08 9.082 3.557 7.278 14.307 9.16 25.37 9.16z" opacity=".33" fill="#d71f2a"/><path d="M188.973 405.2c10.94 0 21.046-2.6 23.484-9.186 1.42-3.823-.155-6.31-2.04-8.648-1.375-1.58-4.94-1.4-10.862-1.53-7.458-.138-14.85-.353-22.438.026-4.824.222-9.93-.385-12.145 1.338-2.238 1.77-2.41 6.15-1.076 8.994 3.53 7.195 14.136 9.007 25.077 9.007z" opacity=".33" fill="#d81f2b"/><path d="M188.965 405.135c10.82 0 20.793-2.577 23.18-9.04 1.384-3.738-.187-6.183-2.07-8.53-1.348-1.566-4.833-1.43-10.644-1.553-7.39-.13-14.686-.367-22.196.02-4.748.228-9.788-.37-11.98 1.344-2.233 1.772-2.362 6.17-1.074 8.905 3.506 7.114 13.966 8.855 24.785 8.855z" opacity=".33" fill="#d91f2b"/><path d="M188.958 405.07c10.697 0 20.54-2.554 22.875-8.897 1.348-3.65-.217-6.052-2.1-8.41-1.32-1.553-4.724-1.462-10.424-1.575-7.324-.125-14.525-.38-21.956.014-4.673.233-9.647-.355-11.818 1.35-2.227 1.773-2.314 6.19-1.07 8.816 3.48 7.03 13.795 8.7 24.492 8.7z" opacity=".33" fill="#da1f2b"/><path d="M188.95 405.003c10.576 0 20.288-2.53 22.572-8.75 1.313-3.563-.248-5.923-2.128-8.293-1.293-1.54-4.618-1.49-10.207-1.596-7.255-.118-14.362-.394-21.713.01-4.597.237-9.505-.34-11.654 1.355-2.22 1.774-2.267 6.21-1.065 8.726 3.45 6.947 13.62 8.547 24.196 8.547z" opacity=".33" fill="#db1f2b"/><path d="M188.944 404.937c10.454 0 20.034-2.505 22.267-8.606 1.277-3.474-.278-5.792-2.157-8.173-1.265-1.526-4.51-1.52-9.99-1.618-7.186-.112-14.198-.408-21.47.002-4.522.243-9.365-.326-11.49 1.362-2.217 1.777-2.22 6.23-1.062 8.637 3.424 6.868 13.45 8.397 23.904 8.397z" opacity=".33" fill="#db1f2b"/><path d="M188.936 404.87c10.332 0 19.782-2.48 21.964-8.46 1.24-3.387-.31-5.662-2.186-8.054-1.238-1.512-4.404-1.55-9.77-1.64-7.12-.105-14.037-.42-21.232-.003-4.445.248-9.223-.31-11.327 1.368-2.21 1.78-2.172 6.252-1.057 8.55 3.395 6.782 13.276 8.24 23.608 8.24z" opacity=".33" fill="#dc202b"/><path d="M188.93 404.805c10.21 0 19.528-2.457 21.658-8.315 1.204-3.3-.34-5.533-2.215-7.937-1.21-1.498-4.297-1.58-9.554-1.663-7.053-.098-13.874-.434-20.99-.008-4.37.253-9.08-.296-11.163 1.373-2.204 1.78-2.125 6.27-1.054 8.46 3.37 6.702 13.106 8.09 23.316 8.09z" opacity=".33" fill="#dd212b"/><path d="M188.922 404.74c10.088 0 19.276-2.434 21.355-8.17 1.167-3.215-.37-5.404-2.244-7.82-1.184-1.485-4.19-1.61-9.335-1.684-6.984-.09-13.71-.448-20.747-.014-4.292.258-8.938-.28-11 1.38-2.198 1.78-2.076 6.29-1.05 8.37 3.342 6.62 12.934 7.937 23.022 7.937z" opacity=".33" fill="#de212c"/><path d="M188.915 404.674c9.967 0 19.023-2.41 21.05-8.024 1.132-3.126-.4-5.274-2.273-7.7-1.157-1.47-4.083-1.64-9.118-1.707-6.916-.084-13.548-.46-20.506-.02-4.217.264-8.798-.266-10.836 1.386-2.193 1.783-2.03 6.31-1.046 8.28 3.315 6.536 12.762 7.784 22.73 7.784z" opacity=".33" fill="#de212c"/><path d="M188.907 404.608c9.845 0 18.77-2.385 20.747-7.88 1.095-3.038-.432-5.143-2.302-7.58-1.13-1.458-3.975-1.67-8.9-1.73-6.848-.077-13.385-.474-20.264-.024-4.14.27-8.656-.252-10.673 1.39-2.188 1.787-1.983 6.332-1.042 8.194 3.287 6.452 12.59 7.63 22.434 7.63z" opacity=".33" fill="#df212c"/></g><path d="M188.9 404.542c9.723 0 18.517-2.36 20.443-7.734 1.06-2.952-.463-5.014-2.332-7.463-1.1-1.445-3.867-1.7-8.68-1.75-6.782-.072-13.223-.49-20.024-.032-4.065.274-8.515-.237-10.51 1.397-2.18 1.788-1.935 6.35-1.038 8.104 3.26 6.37 12.42 7.478 22.142 7.478z" clip-rule="evenodd" opacity=".33" fill="#e0212c" fill-rule="evenodd"/><path d="M235.298 369.85c5.237-4.58 7.915-43.623.472-51.338-6.49-6.727-14.398 7.815-14.887 23.962-.59 19.523 11.15 30.23 14.415 27.376z" clip-rule="evenodd" opacity=".33" fill="#a11e22" fill-rule="evenodd"/><g clip-rule="evenodd" fill-rule="evenodd"><path d="M235.28 369.67c5.19-4.55 7.84-43.327.467-50.987-6.426-6.675-14.25 7.767-14.735 23.798-.585 19.385 11.036 30.02 14.268 27.19z" opacity=".33" fill="#a11e22"/><path d="M235.262 369.488c5.142-4.516 7.764-43.03.462-50.634-6.362-6.622-14.104 7.72-14.583 23.635-.578 19.243 10.922 29.806 14.122 26.998z" opacity=".33" fill="#a21e22"/><path d="M235.244 369.307c5.094-4.483 7.69-42.732.457-50.283-6.298-6.57-13.956 7.67-14.43 23.472-.573 19.106 10.805 29.596 13.974 26.81z" opacity=".33" fill="#a21e22"/><path d="M235.225 369.126c5.047-4.45 7.614-42.436.452-49.93-6.235-6.52-13.81 7.62-14.28 23.308-.564 18.966 10.692 29.383 13.828 26.622z" opacity=".33" fill="#a31e22"/><path d="M235.207 368.945c5-4.418 7.538-42.14.447-49.58-6.17-6.465-13.663 7.576-14.126 23.147-.56 18.826 10.574 29.17 13.68 26.433z" opacity=".33" fill="#a31e22"/><path d="M235.19 368.764c4.95-4.385 7.462-41.842.44-49.227-6.107-6.413-13.515 7.526-13.973 22.982-.554 18.686 10.46 28.958 13.532 26.244z" opacity=".33" fill="#a41e23"/><path d="M235.17 368.583c4.905-4.352 7.39-41.545.438-48.875-6.044-6.36-13.37 7.478-13.822 22.82-.548 18.546 10.344 28.746 13.385 26.055z" opacity=".33" fill="#a41e23"/><path d="M235.153 368.402c4.857-4.32 7.312-41.25.433-48.523-5.98-6.31-13.222 7.43-13.67 22.655-.543 18.408 10.227 28.534 13.237 25.867z" opacity=".33" fill="#a51e23"/><path d="M235.134 368.22c4.81-4.286 7.237-40.95.428-48.17-5.917-6.258-13.075 7.38-13.518 22.492-.536 18.27 10.113 28.323 13.09 25.68z" opacity=".33" fill="#a51e23"/><path d="M235.116 368.04c4.762-4.255 7.162-40.655.423-47.82-5.854-6.205-12.93 7.334-13.367 22.33-.53 18.13 9.997 28.11 12.943 25.49z" opacity=".33" fill="#a61e23"/><path d="M235.098 367.858c4.714-4.222 7.087-40.358.418-47.468-5.79-6.153-12.78 7.285-13.214 22.166-.523 17.99 9.882 27.9 12.796 25.302z" opacity=".33" fill="#a61e23"/><path d="M235.08 367.677c4.667-4.19 7.01-40.06.413-47.116-5.726-6.1-12.634 7.24-13.062 22.004-.516 17.852 9.768 27.688 12.65 25.113z" opacity=".33" fill="#a71f23"/><path d="M235.062 367.496c4.62-4.156 6.936-39.765.408-46.764-5.662-6.048-12.487 7.19-12.91 21.84-.51 17.712 9.65 27.475 12.502 24.924z" opacity=".33" fill="#a71f23"/><path d="M235.044 367.315c4.572-4.124 6.86-39.468.403-46.413-5.598-5.995-12.34 7.14-12.757 21.676-.506 17.574 9.535 27.265 12.354 24.737z" opacity=".33" fill="#a81f23"/><path d="M235.026 367.134c4.524-4.09 6.785-39.17.398-46.06-5.535-5.944-12.193 7.092-12.606 21.512-.5 17.435 9.42 27.052 12.208 24.548z" opacity=".33" fill="#a81f23"/><path d="M235.007 366.953c4.477-4.058 6.71-38.874.393-45.71-5.47-5.89-12.046 7.046-12.453 21.35-.493 17.296 9.305 26.84 12.06 24.36z" opacity=".33" fill="#a91f23"/><path d="M234.99 366.772c4.428-4.026 6.634-38.578.387-45.358-5.408-5.84-11.9 6.997-12.3 21.187-.487 17.157 9.19 26.63 11.912 24.172z" opacity=".33" fill="#a91f23"/><path d="M234.97 366.59c4.383-3.992 6.56-38.28.384-45.005-5.344-5.786-11.752 6.95-12.15 21.023-.48 17.018 9.075 26.417 11.767 23.983z" opacity=".33" fill="#aa1f23"/><path d="M234.953 366.41c4.334-3.96 6.484-37.984.378-44.654-5.28-5.734-11.604 6.9-11.996 20.86-.474 16.878 8.96 26.205 11.62 23.794z" opacity=".33" fill="#aa1f23"/><path d="M234.934 366.23c4.287-3.93 6.41-37.688.373-44.303-5.217-5.682-11.458 6.853-11.845 20.697-.467 16.738 8.844 25.992 11.472 23.605z" opacity=".33" fill="#ab1f24"/><path d="M234.916 366.048c4.24-3.895 6.334-37.39.368-43.95-5.153-5.63-11.31 6.805-11.693 20.534-.46 16.598 8.73 25.78 11.326 23.416z" opacity=".33" fill="#ab1f24"/><path d="M234.898 365.867c4.192-3.863 6.258-37.094.364-43.6-5.09-5.577-11.164 6.758-11.54 20.37-.457 16.462 8.612 25.57 11.176 23.23z" opacity=".33" fill="#ac1f24"/><path d="M234.88 365.686c4.144-3.83 6.183-36.797.36-43.247-5.027-5.526-11.018 6.707-11.39 20.206-.45 16.32 8.497 25.357 11.03 23.04z" opacity=".33" fill="#ac1f24"/><path d="M234.862 365.505c4.097-3.797 6.108-36.5.354-42.895-4.962-5.473-10.87 6.66-11.236 20.044-.444 16.18 8.38 25.144 10.882 22.85z" opacity=".33" fill="#ad1f24"/><path d="M234.843 365.324c4.05-3.765 6.032-36.203.35-42.543-4.9-5.42-10.724 6.613-11.086 19.882-.436 16.04 8.267 24.932 10.736 22.662z" opacity=".33" fill="#ad1f24"/><path d="M234.825 365.143c4.002-3.732 5.957-35.906.344-42.19-4.836-5.37-10.577 6.563-10.933 19.717-.43 15.902 8.15 24.72 10.588 22.473z" opacity=".33" fill="#ae1f24"/><path d="M234.807 364.962c3.954-3.7 5.882-35.61.34-41.84-4.772-5.316-10.43 6.516-10.78 19.554-.426 15.764 8.035 24.51 10.44 22.286z" opacity=".33" fill="#ae1f24"/><path d="M234.79 364.78c3.905-3.665 5.805-35.312.333-41.487-4.707-5.264-10.282 6.468-10.628 19.39-.42 15.625 7.92 24.298 10.294 22.098z" opacity=".33" fill="#af2025"/><path d="M234.77 364.6c3.86-3.634 5.732-35.016.33-41.136-4.644-5.212-10.135 6.42-10.476 19.228-.413 15.484 7.805 24.084 10.147 21.908z" opacity=".33" fill="#af2025"/><path d="M234.752 364.42c3.812-3.602 5.656-34.72.324-40.785-4.58-5.16-9.988 6.372-10.324 19.064-.406 15.345 7.69 23.872 10 21.72z" opacity=".33" fill="#b02025"/><path d="M234.735 364.237c3.764-3.568 5.58-34.423.32-40.432-4.517-5.107-9.842 6.324-10.173 18.9-.4 15.208 7.574 23.663 9.853 21.532z" opacity=".33" fill="#b02025"/><path d="M234.716 364.056c3.717-3.536 5.505-34.126.314-40.08-4.453-5.055-9.694 6.276-10.02 18.738-.393 15.067 7.46 23.45 9.706 21.342z" opacity=".33" fill="#b12025"/><path d="M234.698 363.875c3.67-3.503 5.43-33.83.31-39.73-4.39-5.002-9.548 6.228-9.87 18.575-.386 14.93 7.345 23.24 9.56 21.155z" opacity=".33" fill="#b12025"/><path d="M234.68 363.694c3.62-3.47 5.355-33.533.305-39.377-4.325-4.95-9.4 6.18-9.716 18.41-.383 14.79 7.227 23.027 9.41 20.967z" opacity=".33" fill="#b22025"/><path d="M234.662 363.513c3.574-3.438 5.28-33.236.3-39.025-4.262-4.898-9.253 6.132-9.564 18.248-.376 14.65 7.112 22.814 9.264 20.777z" opacity=".33" fill="#b22025"/><path d="M234.643 363.332c3.526-3.405 5.204-32.94.295-38.673-4.198-4.847-9.106 6.082-9.41 18.084-.37 14.51 6.996 22.6 9.115 20.588z" opacity=".33" fill="#b32026"/><path d="M234.625 363.15c3.48-3.37 5.128-32.64.29-38.32-4.134-4.795-8.96 6.034-9.26 17.92-.362 14.373 6.882 22.39 8.97 20.4z" opacity=".33" fill="#b32026"/><path d="M234.607 362.97c3.43-3.34 5.053-32.345.285-37.97-4.07-4.742-8.812 5.987-9.107 17.758-.357 14.233 6.766 22.178 8.822 20.212z" opacity=".33" fill="#b42026"/><path d="M234.59 362.79c3.383-3.308 4.977-32.05.28-37.62-4.008-4.688-8.666 5.94-8.956 17.596-.35 14.093 6.65 21.966 8.675 20.023z" opacity=".33" fill="#b42026"/><path d="M234.57 362.608c3.337-3.274 4.904-31.75.276-37.266-3.943-4.637-8.518 5.89-8.803 17.432-.345 13.953 6.535 21.754 8.528 19.834z" opacity=".33" fill="#b52026"/><path d="M234.552 362.427c3.29-3.242 4.828-31.455.27-36.915-3.88-4.585-8.37 5.843-8.65 17.27-.34 13.814 6.42 21.54 8.38 19.645z" opacity=".33" fill="#b52026"/><path d="M234.534 362.246c3.24-3.21 4.752-31.158.265-36.563-3.817-4.533-8.225 5.794-8.5 17.105-.332 13.676 6.305 21.33 8.234 19.458z" opacity=".33" fill="#b62026"/><path d="M234.516 362.065c3.194-3.176 4.677-30.86.26-36.21-3.753-4.48-8.077 5.745-8.347 16.94-.327 13.537 6.19 21.12 8.086 19.27z" opacity=".33" fill="#b62026"/><path d="M234.498 361.884c3.146-3.144 4.602-30.565.255-35.86-3.69-4.427-7.93 5.7-8.195 16.78-.32 13.397 6.075 20.906 7.94 19.08z" opacity=".33" fill="#b72026"/><path d="M234.48 361.703c3.1-3.11 4.526-30.268.25-35.507-3.624-4.376-7.782 5.65-8.042 16.615-.314 13.26 5.958 20.695 7.792 18.893z" opacity=".33" fill="#b72026"/><path d="M234.462 361.522c3.05-3.078 4.45-29.97.245-35.156-3.562-4.323-7.636 5.602-7.89 16.453-.308 13.117 5.843 20.48 7.645 18.702z" opacity=".33" fill="#b82027"/><path d="M234.444 361.34c3.004-3.046 4.375-29.674.24-34.803-3.498-4.27-7.49 5.554-7.74 16.29-.3 12.978 5.73 20.27 7.5 18.513z" opacity=".33" fill="#b82027"/><path d="M234.425 361.16c2.956-3.014 4.3-29.378.236-34.453-3.433-4.22-7.34 5.506-7.585 16.126-.296 12.84 5.612 20.06 7.35 18.326z" opacity=".33" fill="#b92027"/><path d="M234.407 360.978c2.91-2.98 4.225-29.08.23-34.1-3.37-4.167-7.194 5.458-7.433 15.963-.29 12.702 5.497 19.848 7.203 18.138z" opacity=".33" fill="#b92027"/><path d="M234.39 360.798c2.86-2.948 4.15-28.784.225-33.75-3.307-4.113-7.048 5.41-7.282 15.8-.284 12.562 5.38 19.635 7.056 17.95z" opacity=".33" fill="#ba2027"/><path d="M234.37 360.616c2.815-2.915 4.076-28.487.222-33.397-3.243-4.063-6.9 5.36-7.13 15.636-.277 12.423 5.266 19.423 6.91 17.76z" opacity=".33" fill="#ba2027"/><path d="M234.352 360.435c2.766-2.882 4-28.19.216-33.045-3.18-4.01-6.754 5.314-6.978 15.473-.27 12.284 5.152 19.21 6.762 17.572z" opacity=".33" fill="#bb2027"/><path d="M234.334 360.254c2.72-2.85 3.924-27.894.21-32.693-3.115-3.957-6.606 5.266-6.825 15.31-.265 12.145 5.035 19 6.614 17.384z" opacity=".33" fill="#bb2027"/><path d="M234.316 360.073c2.67-2.817 3.848-27.597.206-32.34-3.052-3.907-6.46 5.216-6.674 15.145-.258 12.005 4.92 18.787 6.468 17.195z" opacity=".33" fill="#bc2027"/><path d="M234.298 359.892c2.623-2.784 3.773-27.3.2-31.99-2.988-3.852-6.312 5.17-6.52 14.984-.253 11.865 4.804 18.575 6.32 17.006z" opacity=".33" fill="#bc2027"/><path d="M234.28 359.71c2.576-2.75 3.698-27.002.196-31.637-2.925-3.8-6.166 5.12-6.37 14.82-.246 11.727 4.69 18.364 6.174 16.818z" opacity=".33" fill="#bd2028"/><path d="M234.26 359.53c2.53-2.72 3.624-26.706.193-31.286-2.86-3.75-6.02 5.073-6.218 14.657-.24 11.588 4.574 18.152 6.026 16.63z" opacity=".33" fill="#bd2027"/><path d="M234.243 359.35c2.48-2.688 3.547-26.41.187-30.935-2.797-3.696-5.872 5.025-6.065 14.494-.234 11.447 4.458 17.938 5.878 16.44z" opacity=".33" fill="#be2127"/><path d="M234.225 359.168c2.434-2.654 3.472-26.113.182-30.582-2.734-3.644-5.725 4.977-5.913 14.33-.228 11.31 4.343 17.727 5.73 16.252z" opacity=".33" fill="#be2127"/><path d="M234.207 358.987c2.386-2.62 3.397-25.816.177-30.23-2.67-3.592-5.578 4.93-5.76 14.167-.223 11.17 4.226 17.515 5.583 16.063z" opacity=".33" fill="#bf2127"/><path d="M234.19 358.806c2.337-2.588 3.32-25.52.17-29.88-2.606-3.54-5.43 4.882-5.608 14.005-.216 11.03 4.112 17.305 5.437 15.876z" opacity=".33" fill="#bf2127"/><path d="M234.17 358.625c2.292-2.556 3.247-25.223.168-29.527-2.543-3.488-5.284 4.833-5.457 13.84-.21 10.892 3.997 17.092 5.29 15.687z" opacity=".33" fill="#c02127"/><path d="M234.153 358.444c2.243-2.523 3.17-24.926.162-29.175-2.48-3.436-5.137 4.784-5.305 13.677-.204 10.75 3.88 16.88 5.143 15.497z" opacity=".33" fill="#c02127"/><path d="M234.134 358.263c2.196-2.49 3.095-24.63.157-28.823-2.415-3.383-4.99 4.736-5.152 13.514-.197 10.612 3.766 16.667 4.996 15.31z" opacity=".33" fill="#c12127"/><path d="M234.116 358.082c2.15-2.458 3.02-24.333.152-28.47-2.352-3.332-4.843 4.687-5 13.35-.192 10.473 3.65 16.455 4.848 15.12z" opacity=".33" fill="#c12127"/><path d="M234.098 357.9c2.1-2.424 2.945-24.035.147-28.12-2.288-3.278-4.696 4.64-4.85 13.188-.183 10.335 3.536 16.244 4.703 14.933z" opacity=".33" fill="#c22128"/><path d="M234.08 357.72c2.053-2.393 2.87-23.74.142-27.77-2.225-3.226-4.55 4.593-4.697 13.025-.178 10.196 3.42 16.033 4.555 14.744z" opacity=".33" fill="#c22128"/><path d="M234.06 357.538c2.007-2.36 2.795-23.442.138-27.416-2.16-3.174-4.402 4.544-4.545 12.86-.17 10.057 3.306 15.82 4.408 14.556z" opacity=".33" fill="#c32128"/><path d="M234.043 357.357c1.958-2.327 2.72-23.145.132-27.064-2.097-3.122-4.255 4.496-4.393 12.698-.165 9.918 3.19 15.61 4.26 14.367z" opacity=".33" fill="#c32128"/><path d="M234.025 357.176c1.91-2.294 2.643-22.848.127-26.713-2.034-3.07-4.11 4.448-4.24 12.535-.16 9.778 3.074 15.397 4.113 14.178z" opacity=".33" fill="#c42128"/><path d="M234.007 356.995c1.863-2.262 2.568-22.552.123-26.36-1.97-3.018-3.962 4.4-4.09 12.37-.152 9.64 2.96 15.185 3.967 13.99z" opacity=".33" fill="#c42128"/><path d="M233.99 356.814c1.815-2.23 2.492-22.255.117-26.01-1.906-2.964-3.815 4.353-3.936 12.21-.147 9.498 2.843 14.972 3.82 13.8z" opacity=".33" fill="#c52128"/><path d="M233.97 356.633c1.77-2.196 2.418-21.958.113-25.657-1.843-2.913-3.668 4.304-3.784 12.045-.142 9.36 2.727 14.76 3.67 13.613z" opacity=".33" fill="#c52128"/><path d="M233.952 356.452c1.72-2.164 2.343-21.66.108-25.306-1.78-2.86-3.52 4.255-3.632 11.882-.135 9.22 2.612 14.55 3.524 13.424z" opacity=".33" fill="#c62128"/><path d="M233.934 356.27c1.673-2.13 2.267-21.364.103-24.953-1.716-2.808-3.374 4.207-3.48 11.718-.13 9.082 2.497 14.338 3.377 13.236z" opacity=".33" fill="#c62128"/><path d="M233.916 356.09c1.626-2.1 2.192-21.068.098-24.602-1.652-2.756-3.227 4.16-3.328 11.555-.123 8.942 2.38 14.125 3.23 13.047z" opacity=".33" fill="#c72129"/><path d="M233.898 355.91c1.578-2.067 2.116-20.772.093-24.25-1.587-2.705-3.078 4.11-3.175 11.39-.117 8.804 2.266 13.913 3.083 12.86z" opacity=".33" fill="#c72129"/><path d="M233.88 355.728c1.53-2.033 2.04-20.475.088-23.898-1.525-2.65-2.933 4.063-3.024 11.23-.11 8.662 2.15 13.7 2.936 12.668z" opacity=".33" fill="#c82129"/><path d="M233.86 355.547c1.484-2 1.967-20.178.084-23.546-1.46-2.598-2.786 4.016-2.872 11.066-.103 8.524 2.036 13.49 2.79 12.48z" opacity=".33" fill="#c82129"/><path d="M233.843 355.366c1.436-1.967 1.89-19.88.078-23.194-1.396-2.547-2.637 3.967-2.72 10.902-.096 8.385 1.922 13.276 2.643 12.292z" opacity=".33" fill="#c92129"/></g><path d="M233.825 355.185c1.388-1.935 1.815-19.584.073-22.843-1.333-2.495-2.49 3.92-2.567 10.74-.09 8.245 1.806 13.064 2.495 12.103z" clip-rule="evenodd" opacity=".33" fill="#c92129" fill-rule="evenodd"/><path d="M141.864 369.85c-5.237-4.58-7.915-43.623-.472-51.338 6.49-6.727 14.398 7.815 14.887 23.962.59 19.523-11.152 30.23-14.416 27.376z" clip-rule="evenodd" opacity=".33" fill="#a11e22" fill-rule="evenodd"/><g clip-rule="evenodd" fill-rule="evenodd"><path d="M141.883 369.67c-5.19-4.55-7.84-43.327-.467-50.987 6.426-6.675 14.25 7.767 14.735 23.798.585 19.385-11.036 30.02-14.267 27.19z" opacity=".33" fill="#a11e22"/><path d="M141.9 369.488c-5.14-4.516-7.763-43.03-.46-50.634 6.36-6.622 14.103 7.72 14.582 23.635.578 19.243-10.92 29.806-14.12 26.998z" opacity=".33" fill="#a21e22"/><path d="M141.92 369.307c-5.096-4.483-7.69-42.732-.458-50.283 6.3-6.57 13.957 7.67 14.43 23.472.573 19.106-10.805 29.596-13.973 26.81z" opacity=".33" fill="#a21e22"/><path d="M141.937 369.126c-5.047-4.45-7.614-42.436-.452-49.93 6.235-6.52 13.81 7.62 14.278 23.308.567 18.966-10.69 29.383-13.826 26.622z" opacity=".33" fill="#a31e22"/><path d="M141.955 368.945c-5-4.418-7.538-42.14-.447-49.58 6.172-6.465 13.663 7.576 14.126 23.147.56 18.826-10.574 29.17-13.68 26.433z" opacity=".33" fill="#a31e22"/><path d="M141.974 368.764c-4.952-4.385-7.463-41.842-.442-49.227 6.108-6.413 13.516 7.526 13.974 22.982.554 18.686-10.46 28.958-13.532 26.244z" opacity=".33" fill="#a41e23"/><path d="M141.992 368.583c-4.904-4.352-7.388-41.545-.437-48.875 6.044-6.36 13.37 7.478 13.822 22.82.548 18.546-10.344 28.746-13.385 26.055z" opacity=".33" fill="#a41e23"/><path d="M142.01 368.402c-4.857-4.32-7.313-41.25-.432-48.523 5.98-6.31 13.222 7.43 13.67 22.655.54 18.408-10.23 28.534-13.238 25.867z" opacity=".33" fill="#a51e23"/><path d="M142.028 368.22c-4.81-4.286-7.237-40.95-.428-48.17 5.917-6.258 13.075 7.38 13.518 22.492.536 18.27-10.112 28.323-13.09 25.68z" opacity=".33" fill="#a51e23"/><path d="M142.046 368.04c-4.762-4.255-7.162-40.655-.423-47.82 5.853-6.205 12.928 7.334 13.366 22.33.53 18.13-9.998 28.11-12.944 25.49z" opacity=".33" fill="#a61e23"/><path d="M142.064 367.858c-4.714-4.222-7.087-40.358-.418-47.468 5.79-6.153 12.78 7.285 13.214 22.166.524 17.99-9.88 27.9-12.796 25.302z" opacity=".33" fill="#a61e23"/><path d="M142.083 367.677c-4.667-4.19-7.01-40.06-.413-47.116 5.726-6.1 12.634 7.24 13.062 22.004.517 17.852-9.767 27.688-12.65 25.113z" opacity=".33" fill="#a71f23"/><path d="M142.1 367.496c-4.618-4.156-6.935-39.765-.407-46.764 5.662-6.048 12.487 7.19 12.91 21.84.51 17.712-9.652 27.475-12.502 24.924z" opacity=".33" fill="#a71f23"/><path d="M142.12 367.315c-4.573-4.124-6.862-39.468-.404-46.413 5.598-5.995 12.34 7.14 12.757 21.676.505 17.574-9.535 27.265-12.354 24.737z" opacity=".33" fill="#a81f23"/><path d="M142.137 367.134c-4.524-4.09-6.785-39.17-.398-46.06 5.534-5.944 12.192 7.092 12.604 21.512.5 17.435-9.42 27.052-12.207 24.548z" opacity=".33" fill="#a81f23"/><path d="M142.155 366.953c-4.477-4.058-6.71-38.874-.393-45.71 5.47-5.89 12.046 7.046 12.453 21.35.493 17.296-9.305 26.84-12.06 24.36z" opacity=".33" fill="#a91f23"/><path d="M142.173 366.772c-4.43-4.026-6.635-38.578-.388-45.358 5.408-5.84 11.9 6.997 12.3 21.187.488 17.157-9.188 26.63-11.912 24.172z" opacity=".33" fill="#a91f23"/><path d="M142.192 366.59c-4.382-3.992-6.56-38.28-.383-45.005 5.343-5.786 11.75 6.95 12.148 21.023.48 17.018-9.075 26.417-11.766 23.983z" opacity=".33" fill="#aa1f23"/><path d="M142.21 366.41c-4.334-3.96-6.484-37.984-.378-44.654 5.28-5.734 11.605 6.9 11.997 20.86.473 16.878-8.96 26.205-11.62 23.794z" opacity=".33" fill="#aa1f23"/><path d="M142.228 366.23c-4.287-3.93-6.41-37.688-.373-44.303 5.217-5.682 11.458 6.853 11.845 20.697.468 16.738-8.844 25.992-11.472 23.605z" opacity=".33" fill="#ab1f24"/><path d="M142.246 366.048c-4.24-3.895-6.334-37.39-.37-43.95 5.154-5.63 11.312 6.805 11.694 20.534.463 16.598-8.727 25.78-11.324 23.416z" opacity=".33" fill="#ab1f24"/><path d="M142.265 365.867c-4.192-3.863-6.258-37.094-.364-43.6 5.09-5.577 11.165 6.758 11.542 20.37.455 16.462-8.613 25.57-11.177 23.23z" opacity=".33" fill="#ac1f24"/><path d="M142.283 365.686c-4.144-3.83-6.183-36.797-.36-43.247 5.027-5.526 11.018 6.707 11.39 20.206.45 16.32-8.498 25.357-11.03 23.04z" opacity=".33" fill="#ac1f24"/><path d="M142.3 365.505c-4.096-3.797-6.107-36.5-.353-42.895 4.962-5.473 10.87 6.66 11.237 20.044.443 16.18-8.382 25.144-10.883 22.85z" opacity=".33" fill="#ad1f24"/><path d="M142.32 365.324c-4.05-3.765-6.033-36.203-.35-42.543 4.898-5.42 10.723 6.613 11.084 19.882.438 16.04-8.266 24.932-10.735 22.662z" opacity=".33" fill="#ad1f24"/><path d="M142.337 365.143c-4.002-3.732-5.957-35.906-.344-42.19 4.835-5.37 10.576 6.563 10.933 19.717.43 15.902-8.15 24.72-10.59 22.473z" opacity=".33" fill="#ae1f24"/><path d="M142.355 364.962c-3.954-3.7-5.882-35.61-.34-41.84 4.772-5.316 10.43 6.516 10.78 19.554.427 15.764-8.034 24.51-10.44 22.286z" opacity=".33" fill="#ae1f24"/><path d="M142.374 364.78c-3.907-3.665-5.807-35.312-.334-41.487 4.707-5.264 10.282 6.468 10.628 19.39.42 15.625-7.92 24.298-10.294 22.098z" opacity=".33" fill="#af2025"/><path d="M142.392 364.6c-3.86-3.634-5.73-35.016-.33-41.136 4.645-5.212 10.136 6.42 10.477 19.228.41 15.484-7.806 24.084-10.148 21.908z" opacity=".33" fill="#af2025"/><path d="M142.41 364.42c-3.812-3.602-5.656-34.72-.324-40.785 4.58-5.16 9.988 6.372 10.324 19.064.406 15.345-7.69 23.872-10 21.72z" opacity=".33" fill="#b02025"/><path d="M142.428 364.237c-3.764-3.568-5.58-34.423-.32-40.432 4.517-5.107 9.842 6.324 10.173 18.9.4 15.208-7.573 23.663-9.852 21.532z" opacity=".33" fill="#b02025"/><path d="M142.446 364.056c-3.716-3.536-5.505-34.126-.314-40.08 4.453-5.055 9.694 6.276 10.02 18.738.394 15.067-7.46 23.45-9.706 21.342z" opacity=".33" fill="#b12025"/><path d="M142.465 363.875c-3.67-3.503-5.43-33.83-.31-39.73 4.39-5.002 9.548 6.228 9.87 18.575.386 14.93-7.346 23.24-9.56 21.155z" opacity=".33" fill="#b12025"/><path d="M142.483 363.694c-3.622-3.47-5.355-33.533-.305-39.377 4.325-4.95 9.4 6.18 9.716 18.41.382 14.79-7.228 23.027-9.41 20.967z" opacity=".33" fill="#b22025"/><path d="M142.5 363.513c-3.573-3.438-5.278-33.236-.3-39.025 4.263-4.898 9.254 6.132 9.565 18.248.375 14.65-7.113 22.814-9.264 20.777z" opacity=".33" fill="#b22025"/><path d="M142.52 363.332c-3.527-3.405-5.205-32.94-.296-38.673 4.198-4.847 9.106 6.082 9.41 18.084.37 14.51-6.995 22.6-9.115 20.588z" opacity=".33" fill="#b32026"/><path d="M142.537 363.15c-3.48-3.37-5.13-32.64-.29-38.32 4.135-4.795 8.96 6.034 9.26 17.92.363 14.373-6.882 22.39-8.97 20.4z" opacity=".33" fill="#b32026"/><path d="M142.556 362.97c-3.43-3.34-5.053-32.345-.285-37.97 4.072-4.742 8.813 5.987 9.108 17.758.357 14.233-6.767 22.178-8.822 20.212z" opacity=".33" fill="#b42026"/><path d="M142.574 362.79c-3.384-3.308-4.978-32.05-.28-37.62 4.007-4.688 8.665 5.94 8.955 17.596.35 14.093-6.652 21.966-8.676 20.023z" opacity=".33" fill="#b42026"/><path d="M142.592 362.608c-3.336-3.274-4.903-31.75-.275-37.266 3.944-4.637 8.518 5.89 8.803 17.432.345 13.953-6.536 21.754-8.528 19.834z" opacity=".33" fill="#b52026"/><path d="M142.61 362.427c-3.29-3.242-4.827-31.455-.27-36.915 3.88-4.585 8.37 5.843 8.65 17.27.34 13.814-6.42 21.54-8.38 19.645z" opacity=".33" fill="#b52026"/><path d="M142.628 362.246c-3.24-3.21-4.752-31.158-.265-36.563 3.816-4.533 8.224 5.794 8.5 17.105.33 13.676-6.306 21.33-8.235 19.458z" opacity=".33" fill="#b62026"/><path d="M142.646 362.065c-3.194-3.176-4.677-30.86-.26-36.21 3.752-4.48 8.077 5.745 8.347 16.94.326 13.537-6.19 21.12-8.087 19.27z" opacity=".33" fill="#b62026"/><path d="M142.665 361.884c-3.146-3.144-4.602-30.565-.255-35.86 3.69-4.427 7.93 5.7 8.195 16.78.32 13.397-6.075 20.906-7.94 19.08z" opacity=".33" fill="#b72026"/><path d="M142.683 361.703c-3.1-3.11-4.526-30.268-.25-35.507 3.625-4.376 7.783 5.65 8.043 16.615.313 13.26-5.96 20.695-7.793 18.893z" opacity=".33" fill="#b72026"/><path d="M142.7 361.522c-3.05-3.078-4.45-29.97-.245-35.156 3.56-4.323 7.636 5.602 7.89 16.453.31 13.117-5.842 20.48-7.644 18.702z" opacity=".33" fill="#b82027"/><path d="M142.72 361.34c-3.005-3.046-4.377-29.674-.242-34.803 3.498-4.27 7.49 5.554 7.74 16.29.3 12.978-5.73 20.27-7.5 18.513z" opacity=".33" fill="#b82027"/><path d="M142.737 361.16c-2.956-3.014-4.3-29.378-.236-34.453 3.435-4.22 7.343 5.506 7.587 16.126.296 12.84-5.61 20.06-7.35 18.326z" opacity=".33" fill="#b92027"/><path d="M142.756 360.978c-2.91-2.98-4.225-29.08-.23-34.1 3.37-4.167 7.194 5.458 7.433 15.963.288 12.702-5.498 19.848-7.204 18.138z" opacity=".33" fill="#b92027"/><path d="M142.774 360.798c-2.86-2.948-4.15-28.784-.226-33.75 3.307-4.113 7.048 5.41 7.282 15.8.283 12.562-5.382 19.635-7.056 17.95z" opacity=".33" fill="#ba2027"/><path d="M142.792 360.616c-2.814-2.915-4.074-28.487-.22-33.397 3.242-4.063 6.9 5.36 7.13 15.636.276 12.423-5.267 19.423-6.91 17.76z" opacity=".33" fill="#ba2027"/><path d="M142.81 360.435c-2.766-2.882-4-28.19-.216-33.045 3.18-4.01 6.754 5.314 6.978 15.473.27 12.284-5.15 19.21-6.762 17.572z" opacity=".33" fill="#bb2027"/><path d="M142.828 360.254c-2.72-2.85-3.924-27.894-.21-32.693 3.115-3.957 6.606 5.266 6.825 15.31.265 12.145-5.035 19-6.615 17.384z" opacity=".33" fill="#bb2027"/><path d="M142.846 360.073c-2.67-2.817-3.848-27.597-.206-32.34 3.052-3.907 6.46 5.216 6.674 15.145.26 12.005-4.92 18.787-6.468 17.195z" opacity=".33" fill="#bc2027"/><path d="M142.865 359.892c-2.624-2.784-3.773-27.3-.2-31.99 2.988-3.852 6.312 5.17 6.52 14.984.252 11.865-4.805 18.575-6.32 17.006z" opacity=".33" fill="#bc2027"/><path d="M142.883 359.71c-2.576-2.75-3.698-27.002-.196-31.637 2.925-3.8 6.166 5.12 6.37 14.82.245 11.727-4.69 18.364-6.174 16.818z" opacity=".33" fill="#bd2028"/><path d="M142.9 359.53c-2.528-2.72-3.62-26.706-.19-31.286 2.86-3.75 6.02 5.073 6.218 14.657.24 11.588-4.575 18.152-6.027 16.63z" opacity=".33" fill="#bd2027"/><path d="M142.92 359.35c-2.482-2.688-3.548-26.41-.187-30.935 2.798-3.696 5.872 5.025 6.066 14.494.232 11.447-4.46 17.938-5.88 16.44z" opacity=".33" fill="#be2127"/><path d="M142.937 359.168c-2.434-2.654-3.472-26.113-.182-30.582 2.734-3.644 5.725 4.977 5.914 14.33.227 11.31-4.344 17.727-5.733 16.252z" opacity=".33" fill="#be2127"/><path d="M142.956 358.987c-2.386-2.62-3.397-25.816-.177-30.23 2.67-3.592 5.577 4.93 5.76 14.167.222 11.17-4.228 17.515-5.584 16.063z" opacity=".33" fill="#bf2127"/><path d="M142.974 358.806c-2.338-2.588-3.32-25.52-.172-29.88 2.607-3.54 5.43 4.882 5.61 14.005.214 11.03-4.113 17.305-5.438 15.876z" opacity=".33" fill="#bf2127"/><path d="M142.992 358.625c-2.29-2.556-3.246-25.223-.167-29.527 2.543-3.488 5.284 4.833 5.457 13.84.21 10.892-3.997 17.092-5.29 15.687z" opacity=".33" fill="#c02127"/><path d="M143.01 358.444c-2.244-2.523-3.17-24.926-.162-29.175 2.48-3.436 5.137 4.784 5.305 13.677.203 10.75-3.88 16.88-5.143 15.497z" opacity=".33" fill="#c02127"/><path d="M143.03 358.263c-2.197-2.49-3.097-24.63-.158-28.823 2.416-3.383 4.99 4.736 5.153 13.514.196 10.612-3.767 16.667-4.996 15.31z" opacity=".33" fill="#c12127"/><path d="M143.047 358.082c-2.148-2.458-3.02-24.333-.152-28.47 2.352-3.332 4.843 4.687 5 13.35.19 10.473-3.65 16.455-4.848 15.12z" opacity=".33" fill="#c12127"/><path d="M143.065 357.9c-2.1-2.424-2.945-24.035-.147-28.12 2.288-3.278 4.696 4.64 4.85 13.188.183 10.335-3.537 16.244-4.703 14.933z" opacity=".33" fill="#c22128"/><path d="M143.083 357.72c-2.053-2.393-2.87-23.74-.142-27.77 2.226-3.226 4.55 4.593 4.698 13.025.178 10.196-3.42 16.033-4.555 14.744z" opacity=".33" fill="#c22128"/><path d="M143.1 357.538c-2.005-2.36-2.793-23.442-.136-27.416 2.16-3.174 4.402 4.544 4.545 12.86.17 10.057-3.306 15.82-4.41 14.556z" opacity=".33" fill="#c32128"/><path d="M143.12 357.357c-1.96-2.327-2.72-23.145-.133-27.064 2.098-3.122 4.255 4.496 4.393 12.698.165 9.918-3.19 15.61-4.26 14.367z" opacity=".33" fill="#c32128"/><path d="M143.137 357.176c-1.91-2.294-2.644-22.848-.127-26.713 2.034-3.07 4.108 4.448 4.24 12.535.16 9.778-3.073 15.397-4.113 14.178z" opacity=".33" fill="#c42128"/><path d="M143.156 356.995c-1.863-2.262-2.568-22.552-.122-26.36 1.97-3.018 3.96 4.4 4.088 12.37.153 9.64-2.96 15.185-3.966 13.99z" opacity=".33" fill="#c42128"/><path d="M143.174 356.814c-1.816-2.23-2.493-22.255-.118-26.01 1.906-2.964 3.814 4.353 3.936 12.21.148 9.498-2.843 14.972-3.818 13.8z" opacity=".33" fill="#c52128"/><path d="M143.192 356.633c-1.768-2.196-2.418-21.958-.113-25.657 1.842-2.913 3.666 4.304 3.783 12.045.142 9.36-2.727 14.76-3.67 13.613z" opacity=".33" fill="#c52128"/><path d="M143.21 356.452c-1.72-2.164-2.342-21.66-.108-25.306 1.78-2.86 3.52 4.255 3.632 11.882.136 9.22-2.612 14.55-3.524 13.424z" opacity=".33" fill="#c62128"/><path d="M143.228 356.27c-1.673-2.13-2.267-21.364-.103-24.953 1.715-2.808 3.373 4.207 3.48 11.718.13 9.082-2.496 14.338-3.377 13.236z" opacity=".33" fill="#c62128"/><path d="M143.247 356.09c-1.626-2.1-2.192-21.068-.098-24.602 1.65-2.756 3.226 4.16 3.327 11.555.122 8.942-2.382 14.125-3.23 13.047z" opacity=".33" fill="#c72129"/><path d="M143.265 355.91c-1.578-2.067-2.116-20.772-.093-24.25 1.588-2.705 3.08 4.11 3.176 11.39.116 8.804-2.267 13.913-3.083 12.86z" opacity=".33" fill="#c72129"/><path d="M143.283 355.728c-1.53-2.033-2.04-20.475-.088-23.898 1.524-2.65 2.932 4.063 3.024 11.23.11 8.662-2.152 13.7-2.937 12.668z" opacity=".33" fill="#c82129"/><path d="M143.3 355.547c-1.482-2-1.965-20.178-.082-23.546 1.46-2.598 2.786 4.016 2.872 11.066.104 8.524-2.036 13.49-2.79 12.48z" opacity=".33" fill="#c82129"/><path d="M143.32 355.366c-1.437-1.967-1.89-19.88-.08-23.194 1.398-2.547 2.64 3.967 2.72 10.902.1 8.385-1.92 13.276-2.64 12.292z" opacity=".33" fill="#c92129"/></g><path d="M143.337 355.185c-1.388-1.935-1.815-19.584-.073-22.843 1.333-2.495 2.492 3.92 2.567 10.74.093 8.245-1.803 13.064-2.493 12.103z" clip-rule="evenodd" opacity=".33" fill="#c92129" fill-rule="evenodd"/><path d="M156.606 302.026h64.414c3.062 0 5.567 2.505 5.567 5.567v67.19c0 3.06-2.505 5.567-5.567 5.567h-64.414c-3.062 0-5.567-2.505-5.567-5.567v-67.19c0-3.062 2.505-5.567 5.566-5.567z" clip-rule="evenodd" opacity=".33" fill="#a11e22" fill-rule="evenodd"/><path d="M157.553 303.178h62.52c2.973 0 5.404 2.43 5.404 5.403v65.217c0 2.972-2.43 5.403-5.403 5.403h-62.52c-2.973 0-5.404-2.43-5.404-5.403V308.58c0-2.97 2.432-5.402 5.403-5.402z" clip-rule="evenodd" opacity=".33" fill="#8a181d" fill-rule="evenodd"/></g><g><path d="M158.62 304.474h60.388c2.87 0 5.22 2.35 5.22 5.22v62.99c0 2.87-2.35 5.218-5.22 5.218H158.62c-2.87 0-5.22-2.348-5.22-5.22v-62.99c0-2.87 2.35-5.218 5.22-5.218z" clip-rule="evenodd" fill="#fff" fill-rule="evenodd"/><text transform="translate(160.283 323.138)" font-size="12.095" font-family="Dosis-Bold" fill="#a11e22">GIVE</text><text transform="translate(160.283 333.317)" font-size="8.824" font-family="Dosis-Bold" fill="#4d4d4e">BLOOD</text><g stroke-miterlimit="22.926" clip-rule="evenodd" fill="none" fill-rule="evenodd" stroke="#4d4d4e" stroke-width="1.273"><path d="M160.255 343.5h22.023"/><path d="M160.255 349.894h22.023"/><path d="M160.255 356.29h22.023"/><path d="M160.255 362.684h22.023"/><path d="M160.255 369.08h22.023"/></g><path stroke-miterlimit="22.926" clip-rule="evenodd" fill="none" fill-rule="evenodd" stroke="#4d4d4e" stroke-width="1.273" d="M188.814 310.85v65.3"/><text transform="translate(195.643 321.247)" font-size="9.538" font-family="Dosis-Bold" fill="#4d4d4e">SAVE</text><text transform="translate(195.643 332.711)" font-size="11.238" font-family="Dosis-Bold" fill="#a11e22">LIVE</text><g stroke-miterlimit="22.926" clip-rule="evenodd" fill="none" fill-rule="evenodd" stroke="#4d4d4e" stroke-width="1.273"><path d="M194.723 343.5h22.022"/><path d="M194.723 349.894h22.022"/><path d="M194.723 356.29h22.022"/><path d="M194.723 362.684h22.022"/><path d="M194.723 369.08h22.022"/></g></g></g></svg>