<svg xmlns="http://www.w3.org/2000/svg" xmlns:xlink="http://www.w3.org/1999/xlink" width="250" height="250" viewBox="0 0 249.99999 250" enable-background="new 0 0 595.28 841.89"><g><g transform="matrix(1.331 0 0 .743 -127.035 -109.163)"><path d="M191.157 423.937c-23.242 0-56.027-15.505-59.518-36.365-5.394-32.223-4.344-62.098-.043-94.334.297-2.224.875-4.397 1.722-6.475 8.172-20.043 37.487-25.618 56.597-25.61 20.924.01 53.842 6.935 58.11 31.768 5.555 32.327 5.173 62.242.017 94.587-3.033 19.023-34.847 36.43-56.887 36.43z" clip-rule="evenodd" fill="#ccc" fill-rule="evenodd"/><g><defs><path id="a" d="M246.066 387.19c2.5-15.677 3.958-31.453 3.984-47.336.026-15.652-1.346-31.17-3.997-46.595-4.062-23.636-36.26-30.095-56.138-30.105-18.206-.01-46.943 5.235-54.744 24.363-.782 1.92-1.317 3.93-1.59 5.984-2.108 15.794-3.51 31.667-3.602 47.61-.09 15.488 1.076 30.85 3.634 46.13 3.31 19.775 35.87 34.693 57.544 34.693 20.515 0 52.106-17.15 54.91-34.744z"/></defs><clipPath id="b"><use xlink:href="#a" overflow="visible" width="100%" height="100%"/></clipPath><radialGradient id="c" cx="235.908" cy="282.895" r="26.011" gradientUnits="userSpaceOnUse"><stop offset="0" stop-color="#fff" stop-opacity=".8"/><stop offset="1" stop-color="#fff" stop-opacity="0"/></radialGradient><circle clip-path="url(#b)" cx="235.908" cy="282.895" r="26.011" clip-rule="evenodd" fill="url(#c)" fill-rule="evenodd"/><radialGradient id="d" cx="146.285" cy="282.895" r="26.011" gradientUnits="userSpaceOnUse"><stop offset="0" stop-color="#fff" stop-opacity=".8"/><stop offset="1" stop-color="#fff" stop-opacity="0"/></radialGradient><circle clip-path="url(#b)" cx="146.285" cy="282.895" r="26.011" clip-rule="evenodd" fill="url(#d)" fill-rule="evenodd"/><radialGradient id="e" cx="235.908" cy="395.669" r="26.011" gradientUnits="userSpaceOnUse"><stop offset="0" stop-color="#fff" stop-opacity=".8"/><stop offset="1" stop-color="#fff" stop-opacity="0"/></radialGradient><circle clip-path="url(#b)" cx="235.908" cy="395.669" r="26.011" clip-rule="evenodd" fill="url(#e)" fill-rule="evenodd"/><radialGradient id="f" cx="146.285" cy="395.669" r="26.011" gradientUnits="userSpaceOnUse"><stop offset="0" stop-color="#fff" stop-opacity=".8"/><stop offset="1" stop-color="#fff" stop-opacity="0"/></radialGradient><circle clip-path="url(#b)" cx="146.285" cy="395.669" r="26.011" clip-rule="evenodd" fill="url(#f)" fill-rule="evenodd"/></g><linearGradient id="g" gradientUnits="userSpaceOnUse" x1="205.465" y1="263.976" x2="205.465" y2="246.542"><stop offset="0" stop-color="#4D4D4E" stop-opacity=".2"/><stop offset="1" stop-color="#B3B4B4" stop-opacity=".8"/></linearGradient><path d="M205.465 246.542c-4.555 0-8.28 3.726-8.28 8.28v6.6c5.313.424 11.002 1.11 16.56 2.553v-9.152c0-4.554-3.725-8.28-8.28-8.28z" clip-rule="evenodd" fill="url(#g)" fill-rule="evenodd"/><linearGradient id="h" gradientUnits="userSpaceOnUse" x1="188.903" y1="261.622" x2="188.903" y2="237.813"><stop offset="0" stop-color="#4D4D4E" stop-opacity=".2"/><stop offset="1" stop-color="#B3B4B4" stop-opacity=".8"/></linearGradient><path d="M188.903 237.812c4.555 0 8.28 3.726 8.28 8.28v15.33c-2.96-.248-5.81-.114-8.465-.115-2.542 0-5.266.098-8.096.315v-15.53c0-4.553 3.726-8.28 8.28-8.28z" clip-rule="evenodd" fill="url(#h)" fill-rule="evenodd"/><linearGradient id="i" gradientUnits="userSpaceOnUse" x1="172.34" y1="264.43" x2="172.34" y2="246.542"><stop offset="0" stop-color="#4D4D4E" stop-opacity=".2"/><stop offset="1" stop-color="#B3B4B4" stop-opacity=".8"/></linearGradient><path d="M172.34 246.542c-4.555 0-8.28 3.726-8.28 8.28v9.607c5.57-1.39 11.254-2.4 16.562-2.81v-6.798c0-4.553-3.727-8.28-8.282-8.28z" clip-rule="evenodd" fill="url(#i)" fill-rule="evenodd"/><linearGradient id="j" gradientUnits="userSpaceOnUse" x1="188.761" y1="258.44" x2="188.761" y2="239.476"><stop offset="0" stop-color="#4D4D4E" stop-opacity=".3"/><stop offset="1" stop-color="#fff" stop-opacity=".9"/></linearGradient><path d="M188.76 239.477c3.59 0 6.526 2.61 6.526 5.803v13.16c-2.332-.172-4.578-.25-6.67-.252-2.004 0-4.15.068-6.38.22V245.28c0-3.193 2.936-5.803 6.525-5.803z" clip-rule="evenodd" fill="url(#j)" fill-rule="evenodd"/><linearGradient id="k" gradientUnits="userSpaceOnUse" x1="205.465" y1="263.521" x2="205.465" y2="248.073"><stop offset="0" stop-color="#4D4D4E" stop-opacity=".3"/><stop offset="1" stop-color="#fff" stop-opacity=".9"/></linearGradient><path d="M205.465 248.073c3.59 0 6.525 2.427 6.525 5.394v10.053c-1.73-.37-3.015-.547-6.186-1.092-2.076-.356-4.58-.447-6.865-.807v-8.153c0-2.967 2.936-5.394 6.525-5.394z" clip-rule="evenodd" fill="url(#k)" fill-rule="evenodd"/><linearGradient id="l" gradientUnits="userSpaceOnUse" x1="487.371" y1="263.966" x2="487.371" y2="248.073" gradientTransform="matrix(-.973 0 0 1 646.747 0)"><stop offset="0" stop-color="#4D4D4E" stop-opacity=".3"/><stop offset="1" stop-color="#fff" stop-opacity=".9"/></linearGradient><path d="M172.34 248.073c-3.493 0-6.35 2.427-6.35 5.394v10.498c1.684-.37 3.11-.72 6.198-1.263 2.02-.356 4.28-.547 6.505-.907v-8.327c0-2.968-2.86-5.395-6.353-5.395z" clip-rule="evenodd" fill="url(#l)" fill-rule="evenodd"/></g><g><path d="M122.14 83.835c0-7.228-.41-21.053-4.774-37.727h5.788c4.29 16.74 4.7 30.493 4.7 37.727h-5.714z" fill="#a11e22"/><path d="M95.27 89.078V78.144h14.146v10.6c0 1.23.77 2.676 3.448 2.517.744-.043 2.287-.087 2.934-.29 1.424-.445 1.405-3.28 1.405-4.003v-15.69h14.145v15.468c0 .696-.064 3.688 1.087 4.18.53.225 1.962.313 2.604.36.888.062 1.788.013 2.5-.315 1.264-.584 1.594-1.814 1.594-2.67V78.144h14.145v9.933c0 1.467.51 2.89 2.428 3.96 1.95 1.087 5.09 1.678 7.672 2.117 3.785.646 7.545 1.16 11.207 2.03 11.283 2.683 16.27 7.65 18.245 14.24 3.38 11.273 4.97 22.56 4.817 33.988-.157 11.58-2.065 23.095-4.807 34.567-.292 1.217-.857 2.404-1.69 3.542-4.356 5.963-15.228 9.714-25.548 11.94-12.785 2.758-27.55 3.874-41.205 3.87-13.387-.004-27.782-1.083-40.333-3.76-10.37-2.214-21.023-5.9-25.79-11.746-.99-1.214-1.695-2.49-2.1-3.803-2.743-8.91-4.503-17.877-5.078-26.914-.892-14.014 1.123-27.84 5.073-41.675 1.997-6.992 7.91-11.67 19.46-14.578 3.838-.966 7.783-1.61 11.702-2.43 2.307-.486 5.48-1.207 6.935-2.38.74-.593 1-1.256 1-1.97z" clip-rule="evenodd" fill="#8a181d" fill-rule="evenodd"/><path d="M97.388 89.078v-9.752h9.912v9.418c-.088 1.928 1.693 3.936 5.79 3.692 3.92-.233 6.23-.11 6.23-5.47v-14.51h9.913v14.29c0 5.055 1.206 5.402 5.542 5.71 4.57.324 6.594-1.79 6.48-4.156v-8.974h9.912v8.75c0 12.134 33.47 2.154 39.582 22.545 7.096 23.674 5.657 44.53 0 68.203-5.75 24.05-124.84 24.823-132.482 0-7.067-22.955-6.96-43.824 0-68.202 5.34-18.707 39.47-12.65 39.12-21.542z" clip-rule="evenodd" fill="#a11e22" fill-rule="evenodd"/><path d="M88.3 85.21v2.55c12.294-1.914 25.25-2.912 35.845-2.91 10.702.004 23.693.53 36.1 2.522v-2.044c-12.393-1.918-25.395-2.66-36.104-2.662-10.603-.003-23.502.695-35.84 2.545z" clip-rule="evenodd" opacity=".33" fill="#b3b4b4" fill-rule="evenodd"/><path d="M125.174 94.54c26.07 0 50.25 4.51 58.32 17.095 10.206 15.92-5.02 12.407-8.553 11.474-7.462-1.97-12.612-2.228-25.148-2.322-16.34-.123-33.016.245-50.56-.09-7.428-.142-20.775 1.323-24.454 1.86-4.99.728-18.138 3.78-8.877-10.453C72.57 101.86 99.103 94.54 125.175 94.54z" clip-rule="evenodd" opacity=".33" fill="#a11e22" fill-rule="evenodd"/><g clip-rule="evenodd" fill-rule="evenodd"><path d="M125.162 94.687c25.88 0 49.88 4.466 57.874 16.924 10.096 15.74-4.963 12.28-8.478 11.37-7.386-1.938-12.51-2.19-24.955-2.283-16.23-.122-32.787.245-50.206-.09-7.39-.14-20.646 1.302-24.297 1.827-4.95.713-17.937 3.705-8.778-10.362 6.628-10.15 32.958-17.385 58.84-17.385z" opacity=".33" fill="#a21e22"/><path d="M125.15 94.834c25.69 0 49.51 4.423 57.43 16.752 9.985 15.557-4.907 12.15-8.403 11.267-7.31-1.907-12.406-2.155-24.762-2.246-16.12-.12-32.558.244-49.85-.088-7.356-.142-20.52 1.277-24.14 1.79-4.91.7-17.737 3.63-8.68-10.27 6.587-10.056 32.714-17.206 58.405-17.206z" opacity=".33" fill="#a31e22"/><path d="M125.136 94.982c25.5 0 49.14 4.38 56.987 16.58 9.872 15.376-4.85 12.024-8.33 11.163-7.23-1.875-12.302-2.118-24.568-2.208-16.01-.118-32.328.244-49.498-.086-7.317-.14-20.39 1.256-23.98 1.76-4.87.683-17.537 3.553-8.582-10.18 6.55-9.963 32.472-17.028 57.97-17.028z" opacity=".33" fill="#a31e22"/><path d="M125.124 95.13c25.31 0 48.77 4.335 56.544 16.408 9.76 15.194-4.797 11.897-8.256 11.06-7.154-1.843-12.2-2.082-24.376-2.17-15.9-.117-32.1.242-49.143-.086-7.28-.14-20.26 1.234-23.824 1.726-4.83.668-17.337 3.477-8.485-10.09 6.513-9.868 32.23-16.85 57.54-16.85z" opacity=".33" fill="#a41e23"/><path d="M125.11 95.277c25.12 0 48.4 4.292 56.1 16.238 9.648 15.012-4.74 11.768-8.182 10.956-7.077-1.81-12.094-2.045-24.183-2.132-15.79-.115-31.87.243-48.79-.083-7.243-.14-20.13 1.21-23.664 1.69-4.787.655-17.136 3.404-8.386-9.996 6.474-9.778 31.988-16.673 57.107-16.673z" opacity=".33" fill="#a51e23"/><path d="M125.1 95.424c24.927 0 48.027 4.25 55.653 16.066 9.537 14.83-4.685 11.64-8.107 10.852-7-1.78-11.992-2.01-23.988-2.096-15.68-.112-31.64.243-48.435-.082-7.208-.14-20.003 1.19-23.51 1.658-4.745.64-16.935 3.327-8.287-9.906 6.434-9.68 31.745-16.492 56.673-16.492z" opacity=".33" fill="#a61e23"/><path d="M125.086 95.57c24.736 0 47.657 4.206 55.21 15.896 9.426 14.65-4.628 11.512-8.032 10.75-6.922-1.75-11.888-1.975-23.795-2.06-15.57-.11-31.413.242-48.082-.08-7.17-.14-19.874 1.167-23.35 1.624-4.707.625-16.737 3.252-8.19-9.815 6.396-9.587 31.5-16.314 56.238-16.314z" opacity=".33" fill="#a61e23"/><path d="M125.074 95.72c24.546 0 47.286 4.16 54.766 15.722 9.313 14.468-4.573 11.386-7.96 10.645-6.844-1.716-11.784-1.937-23.602-2.02-15.458-.11-31.182.24-47.727-.08-7.133-.14-19.744 1.144-23.19 1.59-4.666.61-16.538 3.176-8.094-9.724 6.36-9.493 31.26-16.134 55.808-16.134z" opacity=".33" fill="#a71f23"/><path d="M125.06 95.867c24.356 0 46.917 4.117 54.322 15.55 9.202 14.288-4.517 11.26-7.884 10.543-6.768-1.685-11.68-1.902-23.41-1.983-15.35-.107-30.952.24-47.374-.08-7.097-.138-19.617 1.124-23.035 1.56-4.624.593-16.337 3.1-7.996-9.634 6.324-9.4 31.02-15.956 55.376-15.956z" opacity=".33" fill="#a81f23"/><path d="M125.048 96.014c24.166 0 46.547 4.074 53.88 15.38 9.09 14.105-4.462 11.13-7.812 10.438-6.69-1.653-11.577-1.865-23.216-1.945-15.238-.105-30.723.24-47.02-.077-7.06-.14-19.487 1.1-22.877 1.524-4.584.58-16.136 3.023-7.897-9.542 6.282-9.306 30.777-15.778 54.942-15.778z" opacity=".33" fill="#a91f23"/><path d="M125.035 96.16c23.974 0 46.175 4.03 53.434 15.21 8.977 13.922-4.406 11.002-7.738 10.333-6.613-1.62-11.474-1.828-23.022-1.908-15.128-.102-30.495.24-46.666-.075-7.023-.14-19.358 1.078-22.72 1.49-4.542.565-15.935 2.95-7.8-9.45 6.248-9.21 30.537-15.6 54.51-15.6z" opacity=".33" fill="#aa1f23"/><path d="M125.023 96.31c23.784 0 45.805 3.985 52.99 15.035 8.867 13.742-4.35 10.876-7.66 10.23-6.538-1.59-11.372-1.79-22.83-1.87-15.018-.1-30.266.24-46.313-.074-6.986-.136-19.23 1.057-22.562 1.46-4.502.548-15.736 2.87-7.7-9.36 6.206-9.12 30.29-15.42 54.075-15.42z" opacity=".33" fill="#aa1f23"/><path d="M125.01 96.456c23.593 0 45.435 3.943 52.546 14.865 8.754 13.56-4.295 10.748-7.59 10.13-6.458-1.56-11.266-1.758-22.635-1.834-14.907-.098-30.036.24-45.957-.073-6.95-.138-19.1 1.033-22.404 1.424-4.462.534-15.536 2.797-7.605-9.27 6.17-9.023 30.052-15.24 53.645-15.24z" opacity=".33" fill="#ab1f24"/><path d="M124.998 96.604c23.403 0 45.064 3.9 52.102 14.693 8.643 13.38-4.24 10.62-7.515 10.024-6.382-1.525-11.163-1.72-22.443-1.794-14.798-.098-29.808.237-45.604-.072-6.912-.137-18.97 1.012-22.247 1.39-4.42.52-15.334 2.72-7.504-9.178 6.13-8.93 29.81-15.062 53.212-15.062z" opacity=".33" fill="#ac1f24"/><path d="M124.985 96.75c23.212 0 44.693 3.857 51.658 14.522 8.532 13.198-4.183 10.493-7.44 9.92-6.304-1.493-11.06-1.683-22.25-1.756-14.687-.095-29.578.238-45.25-.07-6.875-.137-18.842.99-22.087 1.356-4.38.505-15.136 2.645-7.408-9.087C78.3 102.8 101.773 96.75 124.985 96.75z" opacity=".33" fill="#ad1f24"/><path d="M124.973 96.9c23.02 0 44.322 3.81 51.214 14.35 8.418 13.015-4.128 10.364-7.366 9.816-6.227-1.463-10.956-1.648-22.055-1.72-14.577-.094-29.35.237-44.896-.07-6.84-.136-18.715.967-21.93 1.323-4.34.49-14.937 2.57-7.31-8.996 6.052-8.742 29.322-14.705 52.343-14.705z" opacity=".33" fill="#ad1f24"/><path d="M124.96 97.046c22.83 0 43.953 3.77 50.77 14.18 8.308 12.833-4.07 10.236-7.292 9.712-6.15-1.43-10.853-1.61-21.863-1.682-14.467-.09-29.12.236-44.542-.068-6.802-.136-18.585.945-21.773 1.29-4.3.474-14.735 2.494-7.212-8.905 6.016-8.647 29.08-14.527 51.913-14.527z" opacity=".33" fill="#ae1f24"/><path d="M124.947 97.194c22.64 0 43.583 3.725 50.327 14.007 8.196 12.654-4.017 10.11-7.218 9.61-6.072-1.4-10.75-1.576-21.67-1.644-14.355-.09-28.89.236-44.187-.067-6.766-.136-18.457.923-21.615 1.256-4.26.46-14.536 2.42-7.114-8.813 5.976-8.555 28.837-14.35 51.477-14.35z" opacity=".33" fill="#af2025"/><path d="M124.934 97.34c22.45 0 43.212 3.682 49.882 13.837 8.084 12.472-3.96 9.982-7.144 9.506-5.994-1.368-10.646-1.54-21.477-1.608-14.245-.087-28.66.236-43.833-.066-6.73-.136-18.327.9-21.458 1.223-4.217.445-14.336 2.343-7.017-8.723 5.94-8.46 28.598-14.17 51.047-14.17z" opacity=".33" fill="#b02025"/><path d="M124.922 97.49c22.258 0 42.84 3.636 49.437 13.663 7.972 12.29-3.906 9.855-7.07 9.403-5.92-1.336-10.544-1.504-21.284-1.57-14.136-.086-28.432.234-43.48-.065-6.69-.134-18.197.88-21.298 1.19-4.178.43-14.135 2.267-6.92-8.63 5.902-8.366 28.356-13.99 50.614-13.99z" opacity=".33" fill="#b12025"/><path d="M124.91 97.636c22.067 0 42.47 3.594 48.993 13.492 7.86 12.11-3.85 9.728-6.996 9.3-5.84-1.305-10.44-1.468-21.09-1.532-14.026-.084-28.204.234-43.125-.064-6.655-.134-18.07.857-21.142 1.157-4.137.414-13.936 2.19-6.82-8.54 5.862-8.274 28.11-13.814 50.18-13.814z" opacity=".33" fill="#b12025"/><path d="M124.897 97.783c21.877 0 42.1 3.55 48.55 13.32 7.748 11.928-3.794 9.6-6.922 9.196-5.763-1.274-10.335-1.432-20.897-1.495-13.915-.082-27.973.233-42.77-.062-6.62-.135-17.942.834-20.985 1.122-4.096.4-13.735 2.116-6.722-8.45 5.824-8.176 27.87-13.632 49.747-13.632z" opacity=".33" fill="#b22025"/><path d="M124.885 97.93c21.687 0 41.73 3.507 48.106 13.15 7.638 11.746-3.736 9.472-6.847 9.092-5.686-1.24-10.233-1.394-20.704-1.457-13.806-.08-27.745.233-42.418-.06-6.58-.135-17.812.81-20.826 1.088-4.056.386-13.535 2.04-6.626-8.358 5.786-8.083 27.627-13.454 49.315-13.454z" opacity=".33" fill="#b32025"/><path d="M124.87 98.078c21.497 0 41.36 3.463 47.663 12.978 7.526 11.564-3.68 9.344-6.773 8.988-5.61-1.21-10.13-1.36-20.51-1.42-13.696-.078-27.517.233-42.066-.06-6.544-.133-17.682.79-20.668 1.057-4.015.372-13.335 1.965-6.527-8.267 5.748-7.988 27.386-13.275 48.88-13.275z" opacity=".33" fill="#b42026"/><path d="M124.86 98.226c21.305 0 40.988 3.42 47.217 12.806 7.413 11.382-3.627 9.217-6.7 8.885-5.53-1.178-10.024-1.323-20.316-1.382-13.584-.076-27.286.232-41.71-.058-6.507-.133-17.553.768-20.51 1.023-3.975.356-13.136 1.888-6.43-8.176 5.71-7.897 27.143-13.098 48.45-13.098z" opacity=".33" fill="#b42026"/><path d="M124.846 98.373c21.115 0 40.618 3.376 46.774 12.634 7.302 11.202-3.57 9.09-6.626 8.78-5.454-1.145-9.92-1.285-20.123-1.343-13.474-.074-27.057.232-41.356-.057-6.47-.133-17.424.746-20.352.99-3.935.34-12.935 1.812-6.332-8.085 5.672-7.802 26.9-12.92 48.016-12.92z" opacity=".33" fill="#b52026"/><path d="M124.834 98.52c20.925 0 40.248 3.333 46.33 12.463 7.19 11.02-3.516 8.963-6.552 8.678-5.377-1.114-9.818-1.25-19.93-1.305-13.365-.073-26.83.23-41.003-.056-6.435-.133-17.296.723-20.196.955-3.893.325-12.735 1.736-6.234-7.994 5.634-7.707 26.66-12.74 47.584-12.74z" opacity=".33" fill="#b62026"/><path d="M124.82 98.668c20.735 0 39.88 3.29 45.886 12.29 7.078 10.84-3.46 8.835-6.477 8.575-5.3-1.082-9.716-1.214-19.737-1.27-13.254-.07-26.6.23-40.65-.053-6.396-.132-17.165.7-20.036.922-3.853.31-12.535 1.66-6.136-7.903 5.596-7.614 26.418-12.562 47.15-12.562z" opacity=".33" fill="#b72026"/><path d="M124.81 98.816c20.54 0 39.506 3.245 45.44 12.12 6.967 10.656-3.403 8.706-6.402 8.47-5.222-1.052-9.61-1.178-19.543-1.232-13.143-.07-26.37.23-40.294-.053-6.36-.13-17.038.68-19.878.89-3.812.295-12.334 1.585-6.04-7.812 5.556-7.52 26.173-12.382 46.717-12.382z" opacity=".33" fill="#b82026"/><path d="M124.796 98.963c20.352 0 39.136 3.2 44.997 11.948 6.854 10.476-3.348 8.58-6.33 8.368-5.145-1.02-9.507-1.142-19.35-1.194-13.034-.067-26.14.23-39.94-.052-6.324-.13-16.91.657-19.72.855-3.772.28-12.136 1.51-5.942-7.72 5.518-7.426 25.933-12.204 46.286-12.204z" opacity=".33" fill="#b82026"/><path d="M124.784 99.11c20.162 0 38.766 3.16 44.552 11.778 6.744 10.294-3.29 8.45-6.254 8.262-5.07-.987-9.404-1.105-19.157-1.156-12.924-.064-25.912.23-39.587-.05-6.286-.13-16.78.634-19.563.822-3.73.266-11.935 1.434-5.843-7.63 5.48-7.332 25.69-12.025 45.852-12.025z" opacity=".33" fill="#b92027"/><path d="M124.77 99.258c19.972 0 38.396 3.114 44.11 11.605 6.63 10.112-3.237 8.324-6.18 8.16-4.992-.957-9.3-1.07-18.964-1.12-12.814-.062-25.683.23-39.233-.048-6.25-.13-16.65.613-19.406.79-3.69.25-11.734 1.357-5.744-7.54 5.44-7.24 25.447-11.847 45.417-11.847z" opacity=".33" fill="#ba2027"/><path d="M124.758 99.406c19.78 0 38.026 3.07 43.665 11.433 6.52 9.93-3.18 8.195-6.107 8.055-4.914-.924-9.197-1.033-18.77-1.08-12.702-.062-25.453.227-38.878-.05-6.213-.13-16.522.59-19.247.755-3.65.237-11.534 1.284-5.646-7.447 5.402-7.144 25.203-11.667 44.984-11.667z" opacity=".33" fill="#bb2027"/><path d="M124.745 99.553c19.59 0 37.655 3.026 43.22 11.262 6.41 9.75-3.125 8.07-6.032 7.953-4.837-.892-9.093-.997-18.577-1.043-12.592-.06-25.225.227-38.524-.047-6.176-.13-16.393.568-19.09.72-3.61.223-11.335 1.21-5.55-7.354 5.366-7.052 24.963-11.49 44.553-11.49z" opacity=".33" fill="#bb2027"/><path d="M124.733 99.7c19.4 0 37.284 2.983 42.777 11.09 6.297 9.57-3.07 7.94-5.958 7.85-4.76-.862-8.99-.96-18.383-1.006-12.485-.057-24.996.227-38.172-.045-6.138-.13-16.265.545-18.932.686-3.568.207-11.134 1.132-5.452-7.265 5.326-6.955 24.72-11.31 44.12-11.31z" opacity=".33" fill="#bc2027"/><path d="M124.72 99.848c19.21 0 36.914 2.94 42.332 10.918 6.185 9.387-3.013 7.814-5.884 7.746-4.68-.83-8.887-.925-18.19-.968-12.373-.056-24.766.226-37.817-.044-6.102-.13-16.135.523-18.774.653-3.528.192-10.935 1.056-5.354-7.174 5.29-6.863 24.48-11.132 43.688-11.132z" opacity=".33" fill="#bd2127"/><path d="M124.708 99.995c19.017 0 36.544 2.896 41.89 10.747 6.072 9.205-2.96 7.686-5.81 7.642-4.606-.798-8.784-.89-18-.93-12.26-.054-24.536.225-37.462-.044-6.066-.128-16.007.502-18.617.62-3.488.178-10.736.98-5.257-7.082 5.25-6.767 24.236-10.953 43.255-10.953z" opacity=".33" fill="#be2127"/><path d="M124.694 100.143c18.827 0 36.173 2.852 41.445 10.575 5.96 9.024-2.903 7.56-5.736 7.54-4.528-.767-8.68-.854-17.804-.894-12.152-.052-24.308.225-37.11-.042-6.027-.13-15.877.48-18.46.587-3.445.16-10.532.903-5.157-6.993 5.213-6.674 23.994-10.774 42.82-10.774z" opacity=".33" fill="#bf2127"/><path d="M124.682 100.29c18.637 0 35.803 2.81 41 10.404 5.85 8.843-2.845 7.43-5.662 7.435-4.45-.735-8.577-.818-17.61-.856-12.042-.05-24.08.224-36.756-.04-5.99-.13-15.748.456-18.3.552-3.407.147-10.335.83-5.06-6.9 5.174-6.58 23.752-10.595 42.388-10.595z" opacity=".33" fill="#bf2127"/><path d="M124.67 100.438c18.445 0 35.432 2.765 40.556 10.232 5.738 8.66-2.79 7.304-5.588 7.33-4.372-.7-8.473-.78-17.417-.816-11.93-.05-23.85.223-36.4-.04-5.955-.127-15.62.436-18.145.52-3.365.132-10.134.753-4.962-6.81 5.137-6.485 23.51-10.416 41.956-10.416z" opacity=".33" fill="#c02127"/><path d="M124.657 100.585c18.255 0 35.06 2.72 40.112 10.06 5.626 8.48-2.736 7.176-5.514 7.228-4.295-.67-8.37-.743-17.223-.78-11.822-.046-23.62.224-36.047-.038-5.918-.128-15.492.413-17.986.487-3.325.117-9.935.678-4.863-6.718 5.095-6.393 23.264-10.24 41.52-10.24z" opacity=".33" fill="#c12127"/><path d="M124.645 100.733c18.064 0 34.69 2.677 39.668 9.89 5.514 8.296-2.68 7.047-5.44 7.122-4.218-.638-8.265-.707-17.03-.742-11.71-.044-23.39.223-35.693-.036-5.88-.127-15.363.39-17.828.453-3.283.102-9.733.602-4.766-6.628 5.058-6.298 23.023-10.06 41.09-10.06z" opacity=".33" fill="#c22128"/><path d="M124.632 100.88c17.874 0 34.32 2.634 39.224 9.718 5.403 8.116-2.623 6.92-5.365 7.02-4.14-.607-8.16-.67-16.836-.705-11.6-.042-23.162.222-35.34-.035-5.844-.127-15.233.368-17.67.42-3.243.086-9.534.526-4.67-6.537 5.022-6.204 22.784-9.88 40.658-9.88z" opacity=".33" fill="#c22128"/><path d="M124.62 101.028c17.683 0 33.95 2.59 38.78 9.545 5.29 7.935-2.568 6.794-5.29 6.918-4.064-.575-8.06-.635-16.645-.667-11.49-.04-22.933.222-34.985-.034-5.808-.127-15.105.345-17.512.386-3.203.072-9.335.45-4.57-6.446 4.98-6.11 22.538-9.702 40.222-9.702z" opacity=".33" fill="#c32128"/><path d="M124.607 101.175c17.493 0 33.58 2.546 38.336 9.374 5.18 7.752-2.51 6.664-5.217 6.812-3.987-.544-7.956-.6-16.45-.63-11.383-.038-22.706.222-34.633-.032-5.77-.125-14.975.324-17.355.353-3.162.057-9.133.374-4.472-6.354 4.944-6.018 22.3-9.525 39.79-9.525z" opacity=".33" fill="#c42128"/><path d="M124.595 101.322c17.3 0 33.21 2.503 37.892 9.203 5.067 7.572-2.457 6.538-5.143 6.71-3.91-.513-7.852-.564-16.257-.593-11.27-.036-22.475.22-34.277-.03-5.734-.127-14.846.3-17.197.318-3.12.043-8.933.3-4.375-6.262 4.904-5.924 22.054-9.346 39.357-9.346z" opacity=".33" fill="#c52128"/><path d="M124.58 101.47c17.113 0 32.84 2.46 37.45 9.03 4.954 7.392-2.402 6.412-5.07 6.607-3.833-.48-7.75-.527-16.065-.554-11.16-.035-22.246.22-33.923-.03-5.697-.126-14.717.28-17.04.286-3.08.026-8.733.22-4.276-6.174 4.868-5.828 21.814-9.166 38.925-9.166z" opacity=".33" fill="#c62128"/><path d="M124.57 101.617c16.92 0 32.468 2.416 37.002 8.86 4.845 7.208-2.345 6.283-4.995 6.502-3.755-.45-7.644-.492-15.87-.518-11.05-.032-22.017.22-33.57-.03-5.66-.123-14.59.26-16.88.254-3.04.013-8.534.147-4.18-6.08 4.83-5.736 21.57-8.99 38.492-8.99z" opacity=".33" fill="#c62128"/><path d="M124.556 101.765c16.73 0 32.098 2.372 36.56 8.688 4.733 7.027-2.29 6.155-4.92 6.4-3.678-.417-7.542-.455-15.68-.48-10.938-.03-21.786.22-33.214-.027-5.623-.125-14.46.235-16.724.22-3-.003-8.333.07-4.08-5.99 4.79-5.643 21.327-8.81 38.058-8.81z" opacity=".33" fill="#c72128"/><path d="M124.544 101.912c16.54 0 31.727 2.33 36.115 8.516 4.62 6.846-2.234 6.028-4.847 6.296-3.6-.386-7.437-.418-15.483-.44-10.83-.03-21.56.218-32.863-.028-5.586-.124-14.33.213-16.565.186-2.96-.018-8.134-.004-3.984-5.9 4.752-5.546 21.086-8.63 37.626-8.63z" opacity=".33" fill="#c82128"/><path d="M124.53 102.06c16.35 0 31.358 2.285 35.673 8.345 4.51 6.664-2.178 5.9-4.772 6.192-3.522-.354-7.333-.382-15.29-.404-10.72-.028-21.33.217-32.508-.026-5.55-.124-14.2.19-16.408.153-2.92-.032-7.933-.08-3.885-5.808 4.712-5.453 20.842-8.452 37.19-8.452z" opacity=".33" fill="#c92129"/><path d="M124.52 102.207c16.157 0 30.986 2.24 35.226 8.173 4.398 6.483-2.12 5.772-4.698 6.088-3.446-.32-7.23-.346-15.098-.366-10.61-.025-21.1.218-32.154-.024-5.513-.123-14.073.17-16.25.118-2.878-.046-7.733-.155-3.788-5.716 4.676-5.36 20.602-8.273 36.76-8.273z" opacity=".33" fill="#c92129"/><path d="M124.505 102.355c15.968 0 30.617 2.197 34.785 8 4.286 6.303-2.067 5.647-4.624 5.986-3.368-.29-7.128-.31-14.903-.328-10.5-.024-20.872.217-31.8-.023-5.476-.124-13.944.145-16.092.084-2.837-.062-7.533-.23-3.69-5.626 4.636-5.264 20.357-8.093 36.325-8.093z" opacity=".33" fill="#ca2129"/><path d="M124.493 102.502c15.778 0 30.246 2.154 34.34 7.83 4.174 6.12-2.01 5.517-4.55 5.88-3.29-.257-7.024-.272-14.71-.29-10.39-.02-20.643.216-31.447-.02-5.438-.124-13.814.123-15.935.05-2.795-.077-7.33-.307-3.59-5.535 4.598-5.17 20.116-7.915 35.893-7.915z" opacity=".33" fill="#cb2029"/><path d="M124.48 102.65c15.586 0 29.876 2.11 33.895 7.658 4.063 5.94-1.955 5.39-4.476 5.778-3.214-.227-6.92-.238-14.518-.254-10.278-.02-20.412.216-31.092-.02-5.403-.122-13.687.103-15.777.018-2.756-.092-7.132-.383-3.493-5.443 4.56-5.078 19.874-7.737 35.46-7.737z" opacity=".33" fill="#cc2029"/><path d="M124.468 102.797c15.396 0 29.506 2.066 33.452 7.487 3.95 5.757-1.9 5.26-4.4 5.674-3.14-.196-6.818-.202-14.326-.216-10.17-.018-20.183.215-30.738-.02-5.365-.122-13.557.08-15.62-.015-2.714-.107-6.932-.46-3.396-5.353 4.522-4.982 19.632-7.557 35.028-7.557z" opacity=".33" fill="#cd2029"/><path d="M124.455 102.944c15.205 0 29.134 2.023 33.007 7.315 3.84 5.574-1.843 5.133-4.328 5.57-3.06-.163-6.714-.165-14.13-.178-10.06-.016-19.956.214-30.385-.018-5.33-.122-13.43.058-15.462-.05-2.674-.12-6.734-.533-3.3-5.26 4.486-4.89 19.393-7.38 34.597-7.38z" opacity=".33" fill="#cd2029"/><path d="M124.443 103.092c15.015 0 28.764 1.98 32.563 7.143 3.727 5.394-1.788 5.007-4.254 5.467-2.982-.13-6.61-.13-13.937-.14-9.948-.015-19.725.214-30.03-.017-5.29-.12-13.3.035-15.304-.083-2.633-.136-6.53-.61-3.2-5.17 4.446-4.794 19.148-7.2 34.163-7.2z" opacity=".33" fill="#ce202a"/><path d="M124.43 103.24c14.823 0 28.392 1.935 32.12 6.97 3.614 5.214-1.732 4.88-4.18 5.364-2.904-.1-6.506-.092-13.744-.103-9.837-.01-19.497.215-29.676-.014-5.255-.12-13.17.014-15.145-.116-2.593-.15-6.333-.685-3.103-5.08 4.406-4.7 18.904-7.02 33.727-7.02z" opacity=".33" fill="#cf202a"/><path d="M124.418 103.387c14.633 0 28.022 1.892 31.675 6.8 3.503 5.032-1.676 4.752-4.106 5.26-2.828-.068-6.403-.056-13.55-.065-9.728-.01-19.27.213-29.323-.014-5.218-.12-13.04-.01-14.99-.15-2.552-.166-6.13-.76-3.004-4.987 4.37-4.607 18.665-6.843 33.298-6.843z" opacity=".33" fill="#d0202a"/><path d="M124.404 103.534c14.443 0 27.653 1.85 31.23 6.63 3.392 4.85-1.62 4.624-4.03 5.156-2.75-.037-6.3-.02-13.357-.03-9.618-.007-19.04.214-28.97-.01-5.18-.122-12.912-.032-14.83-.184-2.51-.18-5.932-.837-2.907-4.897 4.332-4.514 18.423-6.666 32.864-6.666z" opacity=".33" fill="#d0202a"/><path d="M124.392 103.682c14.253 0 27.282 1.805 30.788 6.457 3.28 4.668-1.566 4.496-3.957 5.052-2.673-.005-6.196.015-13.165.01-9.508-.007-18.81.212-28.616-.012-5.144-.12-12.784-.053-14.673-.217-2.472-.196-5.733-.912-2.81-4.805 4.294-4.42 18.18-6.486 32.432-6.486z" opacity=".33" fill="#d1202a"/><path d="M124.38 103.83c14.06 0 26.91 1.76 30.342 6.284 3.168 4.487-1.51 4.37-3.883 4.95-2.596.026-6.093.05-12.97.046-9.398-.004-18.58.212-28.263-.01-5.107-.12-12.655-.075-14.514-.25-2.432-.21-5.533-.988-2.71-4.714 4.253-4.325 17.935-6.307 31.996-6.307z" opacity=".33" fill="#d2202a"/><path d="M124.367 103.977c13.87 0 26.54 1.717 29.9 6.114 3.056 4.306-1.454 4.243-3.81 4.847-2.518.06-5.988.088-12.777.085-9.287-.003-18.35.21-27.907-.01-5.07-.118-12.527-.097-14.357-.282-2.39-.226-5.332-1.064-2.614-4.624 4.216-4.23 17.695-6.13 31.565-6.13z" opacity=".33" fill="#d3202a"/><path d="M124.355 104.124c13.68 0 26.17 1.674 29.455 5.943 2.945 4.123-1.398 4.114-3.735 4.74-2.44.09-5.885.125-12.584.124-9.175 0-18.12.212-27.552-.006-5.034-.12-12.397-.12-14.2-.317-2.35-.24-5.132-1.14-2.515-4.532 4.177-4.138 17.452-5.95 31.132-5.95z" opacity=".33" fill="#d4202b"/><path d="M124.342 104.272c13.49 0 25.8 1.63 29.01 5.77 2.834 3.943-1.342 3.987-3.66 4.64-2.364.12-5.782.16-12.392.16-9.067 0-17.892.21-27.2-.008-4.995-.118-12.267-.142-14.04-.35-2.31-.255-4.93-1.215-2.418-4.44 4.14-4.044 17.21-5.772 30.7-5.772z" opacity=".33" fill="#d4202a"/><path d="M124.33 104.42c13.3 0 25.43 1.586 28.567 5.598 2.72 3.76-1.286 3.86-3.587 4.536-2.287.153-5.678.196-12.2.197-8.955.004-17.662.21-26.844-.004-4.96-.118-12.138-.164-13.883-.384-2.268-.27-4.732-1.29-2.32-4.35 4.1-3.95 16.967-5.593 30.267-5.593z" opacity=".33" fill="#d5202a"/><path d="M124.316 104.567c13.108 0 25.06 1.543 28.123 5.428 2.61 3.58-1.23 3.73-3.513 4.43-2.21.186-5.576.233-12.005.236-8.846.006-17.433.21-26.49-.003-4.924-.118-12.012-.187-13.726-.417-2.228-.285-4.532-1.366-2.223-4.26 4.063-3.855 16.726-5.413 29.833-5.413z" opacity=".33" fill="#d61f2a"/><path d="M124.304 104.714c12.918 0 24.69 1.5 27.68 5.256 2.497 3.398-1.177 3.604-3.44 4.328-2.132.217-5.47.27-11.81.273-8.736.007-17.205.21-26.138-.002-4.886-.117-11.88-.208-13.568-.45-2.187-.3-4.332-1.442-2.124-4.168 4.024-3.762 16.483-5.236 29.4-5.236z" opacity=".33" fill="#d71f2a"/><path d="M124.29 104.862c12.728 0 24.32 1.455 27.236 5.084 2.386 3.217-1.12 3.477-3.365 4.224-2.054.248-5.367.306-11.617.31-8.625.01-16.976.208-25.783 0-4.85-.118-11.753-.23-13.41-.485-2.147-.315-4.13-1.518-2.027-4.077 3.987-3.667 16.24-5.056 28.968-5.056z" opacity=".33" fill="#d71f2a"/><path d="M124.28 105.01c12.534 0 23.948 1.41 26.79 4.912 2.274 3.035-1.064 3.348-3.29 4.12-1.98.28-5.265.34-11.426.348-8.514.01-16.747.207-25.43 0-4.812-.117-11.622-.253-13.25-.518-2.106-.33-3.932-1.594-1.93-3.986 3.948-3.572 15.998-4.877 28.535-4.877z" opacity=".33" fill="#d81f2b"/><path d="M124.266 105.157c12.345 0 23.577 1.368 26.346 4.74 2.162 2.855-1.008 3.222-3.216 4.018-1.9.312-5.16.378-11.23.386-8.406.014-16.52.208-25.076.002-4.775-.115-11.494-.274-13.094-.55-2.066-.345-3.732-1.67-1.832-3.895 3.91-3.48 15.757-4.7 28.102-4.7z" opacity=".33" fill="#d91f2b"/><path d="M124.254 105.304c12.154 0 23.207 1.325 25.902 4.57 2.05 2.672-.95 3.094-3.142 3.914-1.824.343-5.057.413-11.038.422-8.295.014-16.29.207-24.72.003-4.74-.116-11.366-.298-12.937-.585-2.025-.36-3.533-1.746-1.734-3.804 3.87-3.385 15.513-4.52 27.668-4.52z" opacity=".33" fill="#da1f2b"/><path d="M124.24 105.45c11.965 0 22.836 1.282 25.46 4.4 1.938 2.49-.897 2.965-3.07 3.81-1.746.374-4.953.45-10.844.46-8.185.016-16.06.205-24.367.003-4.703-.116-11.24-.32-12.78-.618-1.984-.374-3.33-1.82-1.636-3.713 3.834-3.29 15.272-4.34 27.236-4.34z" opacity=".33" fill="#db1f2b"/><path d="M124.23 105.6c11.773 0 22.464 1.237 25.012 4.226 1.827 2.31-.84 2.838-2.993 3.706-1.67.407-4.852.486-10.652.498-8.075.018-15.83.206-24.014.006-4.665-.115-11.11-.34-12.62-.652-1.944-.39-3.132-1.896-1.538-3.62 3.794-3.2 15.028-4.165 26.803-4.165z" opacity=".33" fill="#db1f2b"/><path d="M124.215 105.746c11.583 0 22.096 1.194 24.57 4.055 1.716 2.13-.785 2.712-2.918 3.604-1.592.44-4.747.522-10.46.536-7.964.02-15.6.205-23.66.007-4.627-.116-10.98-.364-12.463-.686-1.903-.403-2.93-1.97-1.44-3.53 3.758-3.103 14.79-3.984 26.37-3.984z" opacity=".33" fill="#dc202b"/><path d="M124.203 105.894c11.392 0 21.725 1.15 24.126 3.883 1.603 1.946-.73 2.583-2.847 3.5-1.513.47-4.642.557-10.264.573-7.856.022-15.373.204-23.307.007-4.592-.114-10.85-.385-12.305-.718-1.862-.42-2.732-2.05-1.342-3.44 3.718-3.01 14.545-3.806 25.937-3.806z" opacity=".33" fill="#dd212b"/><path d="M124.19 106.04c11.202 0 21.354 1.107 23.682 3.712 1.492 1.765-.673 2.456-2.77 3.397-1.437.5-4.54.593-10.072.61-7.744.023-15.143.203-22.952.008-4.555-.114-10.72-.408-12.148-.752-1.822-.434-2.532-2.123-1.245-3.348 3.68-2.915 14.303-3.627 25.505-3.627z" opacity=".33" fill="#de212c"/><path d="M124.178 106.188c11.01 0 20.984 1.063 23.238 3.54 1.38 1.584-.618 2.328-2.698 3.293-1.36.534-4.436.632-9.88.65-7.632.025-14.913.202-22.596.01-4.518-.115-10.593-.43-11.99-.786-1.78-.45-2.33-2.2-1.146-3.257 3.642-2.822 14.06-3.45 25.072-3.45z" opacity=".33" fill="#de212c"/><path d="M124.165 106.336c10.82 0 20.613 1.02 22.793 3.37 1.268 1.4-.562 2.2-2.623 3.188-1.282.565-4.333.666-9.685.685-7.523.027-14.685.202-22.243.01-4.482-.113-10.465-.452-11.833-.818-1.74-.465-2.13-2.275-1.05-3.166 3.606-2.728 13.82-3.27 24.64-3.27z" opacity=".33" fill="#df212c"/></g><path d="M124.153 106.484c10.63 0 20.243.975 22.35 3.197 1.156 1.222-.506 2.074-2.55 3.086-1.204.597-4.228.703-9.49.724-7.414.03-14.456.202-21.89.012-4.444-.113-10.335-.475-11.674-.852-1.7-.48-1.933-2.35-.952-3.075 3.564-2.634 13.574-3.09 24.205-3.09z" clip-rule="evenodd" opacity=".33" fill="#e0212c" fill-rule="evenodd"/><path d="M125.174 195.375c26.07 0 51.92-3.205 59.988-14.49 5.317-7.438 2.7-11.533.026-12.677-4.4-1.885-16.693.536-35.04.026-16.332-.454-35.15.452-52.693.317-13.6-.104-26.59-1.063-31.62.688-3.507 1.22-7.68 3.513-1.79 11.377 7.263 9.7 35.057 14.76 61.13 14.76z" clip-rule="evenodd" opacity=".33" fill="#a11e22" fill-rule="evenodd"/><g clip-rule="evenodd" fill-rule="evenodd"><path d="M125.164 195.326c25.91 0 51.583-3.188 59.584-14.382 5.27-7.373 2.66-11.436-.012-12.59-4.365-1.874-16.55.515-34.75.01-16.242-.45-34.933.442-52.372.313-13.5-.1-26.402-1.053-31.404.69-3.5 1.222-7.616 3.528-1.783 11.312 7.226 9.637 34.828 14.646 60.737 14.646z" opacity=".33" fill="#a21e22"/><path d="M125.155 195.278c25.747 0 51.246-3.17 59.18-14.275 5.22-7.308 2.617-11.34-.05-12.5-4.33-1.865-16.41.492-34.46-.008-16.152-.444-34.716.432-52.05.31-13.4-.097-26.214-1.043-31.185.695-3.492 1.223-7.553 3.543-1.78 11.245 7.19 9.575 34.598 14.533 60.345 14.533z" opacity=".33" fill="#a31e22"/><path d="M125.146 195.228c25.585 0 50.91-3.15 58.774-14.166 5.173-7.243 2.577-11.243-.09-12.413-4.292-1.855-16.265.47-34.17-.025-16.06-.44-34.5.422-51.73.305-13.297-.093-26.024-1.03-30.968.7-3.483 1.224-7.49 3.557-1.774 11.18 7.155 9.514 34.372 14.418 59.958 14.418z" opacity=".33" fill="#a31e22"/><path d="M125.135 195.18c25.423 0 50.573-3.135 58.37-14.06 5.124-7.178 2.535-11.146-.128-12.324-4.255-1.845-16.124.448-33.882-.04-15.97-.435-34.283.412-51.406.3-13.198-.088-25.838-1.02-30.75.705-3.478 1.227-7.428 3.574-1.77 11.114 7.118 9.454 34.143 14.305 59.565 14.305z" opacity=".33" fill="#a41e23"/><path d="M125.126 195.13c25.26 0 50.236-3.116 57.965-13.95 5.077-7.114 2.496-11.05-.166-12.237-4.22-1.834-15.98.425-33.59-.055-15.882-.43-34.067.402-51.085.296-13.097-.085-25.65-1.01-30.534.71-3.47 1.226-7.364 3.586-1.764 11.046 7.082 9.39 33.913 14.19 59.174 14.19z" opacity=".33" fill="#a51e23"/><path d="M125.116 195.08c25.1 0 49.9-3.097 57.56-13.84 5.03-7.05 2.455-10.955-.204-12.15-4.184-1.824-15.84.403-33.302-.072-15.79-.425-33.85.39-50.763.292-12.994-.082-25.46-1-30.315.712-3.462 1.228-7.3 3.602-1.76 10.98 7.047 9.332 33.686 14.08 58.784 14.08z" opacity=".33" fill="#a61e23"/><path d="M125.107 195.032c24.936 0 49.562-3.08 57.156-13.734 4.98-6.984 2.413-10.857-.244-12.06-4.148-1.815-15.697.38-33.012-.09-15.7-.42-33.632.382-50.44.288-12.895-.078-25.273-.987-30.098.717-3.454 1.23-7.238 3.617-1.754 10.915 7.008 9.27 33.453 13.964 58.39 13.964z" opacity=".33" fill="#a61e23"/><path d="M125.096 194.984c24.776 0 49.226-3.063 56.75-13.627 4.932-6.92 2.373-10.76-.282-11.972-4.11-1.805-15.554.36-32.72-.106-15.61-.415-33.417.37-50.12.283-12.794-.074-25.085-.977-29.88.722-3.448 1.23-7.175 3.632-1.75 10.848 6.976 9.208 33.228 13.85 58.002 13.85z" opacity=".33" fill="#a71f23"/><path d="M125.087 194.935c24.613 0 48.89-3.045 56.347-13.52 4.883-6.853 2.33-10.663-.32-11.883-4.075-1.795-15.413.336-32.432-.122-15.52-.41-33.2.36-49.798.28-12.69-.07-24.895-.967-29.662.725-3.44 1.233-7.11 3.648-1.743 10.783 6.935 9.147 32.994 13.737 57.607 13.737z" opacity=".33" fill="#a81f23"/><path d="M125.078 194.886c24.45 0 48.552-3.027 55.94-13.41 4.836-6.79 2.29-10.57-.36-11.797-4.037-1.786-15.268.313-32.14-.14-15.43-.404-32.984.352-49.48.276-12.59-.066-24.706-.954-29.443.73-3.433 1.233-7.05 3.662-1.74 10.716 6.904 9.086 32.772 13.624 57.223 13.624z" opacity=".33" fill="#a91f23"/><path d="M125.068 194.837c24.288 0 48.216-3.008 55.536-13.303 4.788-6.725 2.25-10.472-.398-11.708-4.002-1.774-15.126.292-31.852-.154-15.338-.4-32.765.34-49.155.27-12.49-.062-24.52-.943-29.227.735-3.425 1.235-6.986 3.677-1.734 10.65 6.864 9.024 32.54 13.51 56.828 13.51z" opacity=".33" fill="#aa1f23"/><path d="M125.058 194.788c24.125 0 47.878-2.99 55.13-13.195 4.74-6.66 2.21-10.375-.435-11.62-3.967-1.764-14.984.27-31.562-.17-15.247-.396-32.548.33-48.833.266-12.387-.06-24.33-.933-29.01.738-3.415 1.236-6.92 3.692-1.728 10.584 6.83 8.962 32.312 13.396 56.438 13.396z" opacity=".33" fill="#aa1f23"/><path d="M125.048 194.74c23.965 0 47.542-2.974 54.727-13.088 4.69-6.596 2.168-10.28-.475-11.532-3.93-1.755-14.84.247-31.272-.188-15.16-.39-32.333.32-48.512.263-12.287-.055-24.142-.922-28.79.743-3.41 1.237-6.86 3.706-1.725 10.518 6.795 8.902 32.084 13.283 56.048 13.283z" opacity=".33" fill="#ab1f24"/><path d="M125.04 194.69c23.8 0 47.204-2.955 54.323-12.98 4.642-6.53 2.126-10.182-.514-11.443-3.894-1.745-14.7.225-30.983-.204-15.068-.385-32.116.31-48.19.26-12.187-.053-23.955-.912-28.575.746-3.402 1.238-6.796 3.72-1.72 10.45 6.757 8.842 31.855 13.17 55.657 13.17z" opacity=".33" fill="#ac1f24"/><path d="M125.03 194.64c23.64 0 46.868-2.936 53.917-12.87 4.595-6.467 2.086-10.086-.552-11.356-3.857-1.734-14.556.203-30.693-.22-14.978-.38-31.9.302-47.87.254-12.084-.048-23.764-.9-28.355.752-3.395 1.24-6.734 3.736-1.714 10.386 6.72 8.78 31.626 13.055 55.267 13.055z" opacity=".33" fill="#ad1f24"/><path d="M125.02 194.592c23.477 0 46.53-2.92 53.512-12.763 4.545-6.402 2.046-9.99-.59-11.268-3.822-1.725-14.414.18-30.404-.237-14.887-.375-31.68.292-47.547.25-11.982-.043-23.576-.888-28.138.757-3.387 1.242-6.67 3.752-1.71 10.32 6.688 8.716 31.4 12.94 54.877 12.94z" opacity=".33" fill="#ad1f24"/><path d="M125.01 194.543c23.316 0 46.195-2.9 53.108-12.655 4.497-6.337 2.005-9.893-.63-11.18-3.785-1.714-14.27.158-30.112-.253-14.798-.37-31.466.28-47.227.246-11.882-.04-23.39-.877-27.92.762-3.38 1.243-6.608 3.766-1.705 10.254 6.65 8.656 31.168 12.827 54.485 12.827z" opacity=".33" fill="#ae1f24"/><path d="M125 194.494c23.155 0 45.86-2.882 52.704-12.547 4.45-6.27 1.963-9.797-.668-11.09-3.75-1.706-14.13.136-29.822-.27-14.708-.366-31.25.27-46.905.24-11.782-.034-23.202-.866-27.703.766-3.373 1.244-6.545 3.78-1.698 10.187 6.61 8.595 30.936 12.714 54.09 12.714z" opacity=".33" fill="#af2025"/><path d="M124.99 194.445c22.992 0 45.52-2.865 52.3-12.44 4.4-6.206 1.92-9.7-.708-11.003-3.712-1.694-13.986.115-29.532-.285-14.617-.36-31.032.26-46.584.238-11.68-.032-23.01-.856-27.485.77-3.364 1.245-6.48 3.795-1.692 10.12 6.576 8.533 30.71 12.6 53.702 12.6z" opacity=".33" fill="#b02025"/><path d="M124.98 194.396c22.83 0 45.185-2.847 51.895-12.33 4.352-6.144 1.882-9.606-.745-10.917-3.677-1.685-13.844.09-29.243-.302-14.526-.355-30.815.25-46.26.233-11.58-.027-22.824-.844-27.268.774-3.36 1.247-6.42 3.81-1.69 10.055 6.54 8.472 30.48 12.486 53.31 12.486z" opacity=".33" fill="#b12025"/><path d="M124.97 194.347c22.668 0 44.85-2.83 51.49-12.224 4.305-6.077 1.842-9.507-.783-10.827-3.64-1.674-13.7.07-28.953-.318-14.436-.35-30.6.24-45.94.23-11.478-.025-22.636-.835-27.05.777-3.35 1.248-6.356 3.826-1.685 9.99 6.505 8.41 30.253 12.372 52.92 12.372z" opacity=".33" fill="#b12025"/><path d="M124.962 194.298c22.506 0 44.51-2.81 51.085-12.115 4.257-6.013 1.8-9.412-.823-10.74-3.604-1.664-13.558.048-28.663-.334-14.345-.346-30.38.23-45.617.224-11.376-.02-22.448-.823-26.832.782-3.342 1.25-6.292 3.84-1.677 9.923 6.467 8.35 30.023 12.258 52.53 12.258z" opacity=".33" fill="#b22025"/><path d="M124.95 194.25c22.345 0 44.176-2.794 50.682-12.008 4.207-5.95 1.758-9.315-.86-10.652-3.57-1.655-13.418.025-28.374-.35-14.257-.34-30.166.22-45.297.22-11.275-.017-22.257-.812-26.614.786-3.335 1.25-6.23 3.855-1.673 9.857 6.432 8.29 29.796 12.146 52.138 12.146z" opacity=".33" fill="#b32025"/><path d="M124.942 194.2c22.18 0 43.838-2.775 50.276-11.9 4.16-5.883 1.717-9.218-.9-10.562-3.532-1.644-13.275.003-28.084-.367-14.166-.335-29.95.21-44.976.217-11.174-.013-22.07-.8-26.396.79-3.328 1.253-6.167 3.87-1.67 9.79 6.4 8.228 29.57 12.034 51.75 12.034z" opacity=".33" fill="#b42026"/><path d="M124.933 194.152c22.018 0 43.5-2.758 49.87-11.792 4.112-5.82 1.678-9.122-.937-10.475-3.496-1.634-13.13-.02-27.793-.383-14.077-.33-29.732.2-44.655.212-11.073-.01-21.882-.79-26.178.795-3.32 1.252-6.104 3.884-1.664 9.723 6.36 8.166 29.338 11.92 51.357 11.92z" opacity=".33" fill="#b42026"/><path d="M124.923 194.103c21.857 0 43.165-2.74 49.467-11.684 4.063-5.755 1.636-9.027-.977-10.388-3.46-1.624-12.988-.042-27.504-.4-13.986-.325-29.516.19-44.334.208-10.97-.005-21.694-.78-25.96.8-3.314 1.255-6.04 3.9-1.66 9.658 6.324 8.104 29.11 11.805 50.967 11.805z" opacity=".33" fill="#b52026"/><path d="M124.913 194.054c21.694 0 42.827-2.722 49.062-11.576 4.015-5.69 1.594-8.93-1.017-10.3-3.422-1.614-12.846-.063-27.213-.416-13.895-.32-29.3.18-44.01.203-10.87 0-21.505-.768-25.743.804-3.306 1.256-5.978 3.915-1.653 9.59 6.286 8.046 28.88 11.694 50.573 11.694z" opacity=".33" fill="#b62026"/><path d="M124.903 194.005c21.533 0 42.49-2.704 48.658-11.468 3.967-5.624 1.555-8.833-1.055-10.21-3.386-1.605-12.703-.086-26.923-.434-13.805-.316-29.083.17-43.69.2-10.77.002-21.316-.757-25.526.808-3.298 1.26-5.915 3.93-1.65 9.527 6.255 7.982 28.654 11.578 50.187 11.578z" opacity=".33" fill="#b72026"/><path d="M124.894 193.956c21.37 0 42.154-2.686 48.253-11.36 3.918-5.56 1.513-8.737-1.094-10.123-3.35-1.595-12.56-.11-26.634-.45-13.715-.31-28.866.16-43.37.196-10.668.004-21.127-.747-25.306.81-3.29 1.26-5.853 3.946-1.644 9.46 6.216 7.922 28.423 11.466 49.794 11.466z" opacity=".33" fill="#b82026"/><path d="M124.883 193.907c21.21 0 41.818-2.668 47.848-11.252 3.872-5.495 1.474-8.64-1.13-10.035-3.315-1.584-12.42-.13-26.344-.465-13.626-.305-28.65.15-43.048.19-10.568.01-20.94-.734-25.09.818-3.284 1.26-5.79 3.96-1.64 9.394 6.182 7.86 28.197 11.35 49.405 11.35z" opacity=".33" fill="#b82026"/><path d="M124.874 193.858c21.046 0 41.48-2.65 47.444-11.144 3.82-5.43 1.43-8.544-1.172-9.947-3.278-1.575-12.276-.152-26.053-.482-13.535-.3-28.433.14-42.725.187-10.465.013-20.75-.725-24.872.82-3.276 1.263-5.726 3.975-1.633 9.33 6.144 7.798 27.965 11.236 49.01 11.236z" opacity=".33" fill="#b92027"/><path d="M124.865 193.81c20.884 0 41.144-2.633 47.04-11.036 3.772-5.366 1.388-8.448-1.21-9.86-3.244-1.563-12.135-.174-25.764-.498-13.444-.296-28.215.13-42.402.183-10.366.016-20.564-.714-24.656.824-3.268 1.264-5.662 3.99-1.627 9.262 6.106 7.737 27.735 11.123 48.62 11.123z" opacity=".33" fill="#ba2027"/><path d="M124.855 193.76c20.723 0 40.808-2.614 46.635-10.928 3.725-5.3 1.348-8.35-1.25-9.77-3.204-1.555-11.99-.198-25.47-.516-13.355-.29-28 .12-42.084.18-10.264.02-20.375-.704-24.437.83-3.262 1.264-5.6 4.003-1.625 9.195 6.07 7.676 27.508 11.01 48.23 11.01z" opacity=".33" fill="#bb2027"/><path d="M124.846 193.71c20.56 0 40.47-2.595 46.23-10.818 3.677-5.237 1.308-8.256-1.287-9.683-3.17-1.545-11.85-.22-25.185-.532-13.265-.286-27.782.11-41.762.174-10.163.026-20.186-.69-24.22.835-3.253 1.266-5.535 4.02-1.617 9.13 6.036 7.612 27.28 10.894 47.84 10.894z" opacity=".33" fill="#bb2027"/><path d="M124.835 193.662c20.398 0 40.135-2.578 45.825-10.712 3.63-5.17 1.268-8.158-1.325-9.595-3.133-1.534-11.705-.24-24.894-.547-13.173-.28-27.564.1-41.438.17-10.063.028-20-.68-24.002.838-3.247 1.268-5.473 4.034-1.613 9.063 6 7.553 27.05 10.782 47.448 10.782z" opacity=".33" fill="#bc2027"/><path d="M124.826 193.613c20.235 0 39.798-2.56 45.42-10.604 3.58-5.108 1.226-8.063-1.364-9.508-3.097-1.524-11.562-.264-24.603-.564-13.085-.276-27.35.09-41.12.166-9.96.032-19.808-.67-23.782.843-3.24 1.268-5.41 4.05-1.608 8.997 5.962 7.492 26.82 10.67 47.056 10.67z" opacity=".33" fill="#bd2127"/><path d="M124.817 193.565c20.074 0 39.46-2.543 45.016-10.496 3.532-5.043 1.185-7.967-1.403-9.42-3.06-1.515-11.42-.287-24.314-.58-12.993-.272-27.132.08-40.796.16-9.86.038-19.622-.657-23.567.848-3.232 1.27-5.348 4.064-1.604 8.93 5.926 7.432 26.593 10.557 46.667 10.557z" opacity=".33" fill="#be2127"/><path d="M124.806 193.516c19.912 0 39.125-2.525 44.61-10.39 3.486-4.976 1.146-7.87-1.44-9.33-3.024-1.503-11.278-.307-24.023-.596-12.904-.266-26.916.07-40.475.158-9.76.04-19.432-.648-23.348.85-3.224 1.272-5.286 4.08-1.6 8.866 5.892 7.37 26.364 10.442 46.276 10.442z" opacity=".33" fill="#bf2127"/><path d="M124.797 193.467c19.75 0 38.788-2.507 44.206-10.28 3.436-4.913 1.104-7.774-1.48-9.243-2.988-1.494-11.135-.33-23.734-.613-12.815-.26-26.7.06-40.155.155-9.657.043-19.245-.637-23.13.856-3.218 1.273-5.223 4.094-1.594 8.8 5.857 7.307 26.137 10.327 45.887 10.327z" opacity=".33" fill="#bf2127"/><path d="M124.788 193.418c19.588 0 38.45-2.49 43.8-10.173 3.39-4.848 1.064-7.676-1.517-9.154-2.95-1.483-10.992-.35-23.442-.628-12.723-.257-26.483.05-39.832.15-9.556.046-19.056-.627-22.913.86-3.21 1.273-5.16 4.108-1.588 8.732 5.817 7.246 25.904 10.214 45.493 10.214z" opacity=".33" fill="#c02127"/><path d="M124.778 193.37c19.426 0 38.113-2.472 43.397-10.066 3.34-4.783 1.02-7.58-1.557-9.067-2.916-1.474-10.85-.374-23.154-.645-12.632-.252-26.266.04-39.51.144-9.456.052-18.87-.614-22.697.865-3.2 1.276-5.096 4.124-1.584 8.667 5.783 7.186 25.68 10.102 45.105 10.102z" opacity=".33" fill="#c12127"/><path d="M124.768 193.32c19.263 0 37.777-2.453 42.992-9.956 3.292-4.72.98-7.485-1.596-8.98-2.88-1.463-10.708-.396-22.864-.66-12.543-.247-26.05.03-39.188.14-9.354.055-18.68-.604-22.478.87-3.195 1.275-5.033 4.137-1.58 8.6 5.75 7.122 25.45 9.986 44.714 9.986z" opacity=".33" fill="#c22128"/><path d="M124.758 193.27c19.1 0 37.44-2.434 42.587-9.848 3.242-4.653.94-7.387-1.635-8.89-2.843-1.455-10.565-.42-22.573-.68-12.453-.24-25.832.02-38.868.138-9.254.06-18.493-.593-22.26.873-3.187 1.278-4.97 4.153-1.574 8.534 5.71 7.063 25.22 9.874 44.322 9.874z" opacity=".33" fill="#c22128"/><path d="M124.75 193.222c18.938 0 37.103-2.417 42.18-9.74 3.195-4.59.9-7.292-1.672-8.803-2.807-1.444-10.423-.442-22.284-.695-12.362-.237-25.615.01-38.545.132-9.153.063-18.304-.582-22.044.877-3.18 1.28-4.908 4.17-1.568 8.468 5.674 7.002 24.992 9.76 43.93 9.76z" opacity=".33" fill="#c32128"/><path d="M124.74 193.173c18.776 0 36.767-2.4 41.777-9.632 3.147-4.523.857-7.194-1.712-8.714-2.77-1.434-10.28-.463-21.993-.71-12.272-.232-25.4 0-38.224.128-9.05.067-18.115-.57-21.824.882-3.172 1.28-4.844 4.183-1.563 8.402 5.637 6.94 24.762 9.645 43.54 9.645z" opacity=".33" fill="#c42128"/><path d="M124.73 193.124c18.614 0 36.43-2.38 41.372-9.524 3.098-4.46.817-7.1-1.75-8.626-2.736-1.424-10.14-.486-21.705-.728-12.18-.226-25.183-.01-37.903.124-8.95.07-17.926-.56-21.607.887-3.166 1.28-4.78 4.198-1.56 8.335 5.606 6.878 24.537 9.532 43.152 9.532z" opacity=".33" fill="#c52128"/><path d="M124.72 193.075c18.453 0 36.094-2.363 40.968-9.416 3.05-4.396.776-7.004-1.79-8.54-2.697-1.414-9.994-.508-21.413-.744-12.093-.22-24.966-.02-37.58.12-8.85.074-17.74-.55-21.39.89-3.158 1.284-4.72 4.213-1.554 8.27 5.568 6.818 24.307 9.42 42.76 9.42z" opacity=".33" fill="#c62128"/><path d="M124.71 193.026c18.29 0 35.758-2.345 40.564-9.308 3-4.33.735-6.906-1.828-8.45-2.662-1.404-9.852-.53-21.124-.76-12-.217-24.748-.032-37.26.115-8.747.078-17.55-.538-21.172.894-3.15 1.285-4.655 4.228-1.548 8.204 5.53 6.757 24.078 9.306 42.368 9.306z" opacity=".33" fill="#c62128"/><path d="M124.7 192.977c18.13 0 35.422-2.328 40.16-9.2 2.953-4.266.693-6.81-1.866-8.363-2.626-1.394-9.71-.553-20.834-.776-11.91-.212-24.532-.04-36.938.11-8.646.083-17.36-.526-20.954.9-3.143 1.286-4.592 4.243-1.543 8.138 5.493 6.695 23.846 9.19 41.976 9.19z" opacity=".33" fill="#c72128"/><path d="M124.69 192.928c17.966 0 35.084-2.31 39.755-9.093 2.904-4.2.652-6.713-1.905-8.274-2.59-1.383-9.567-.573-20.544-.792-11.82-.207-24.316-.05-36.617.107-8.546.086-17.174-.515-20.738.904-3.135 1.286-4.53 4.256-1.54 8.07 5.46 6.634 23.623 9.078 41.588 9.078z" opacity=".33" fill="#c82128"/><path d="M124.68 192.88c17.806 0 34.748-2.292 39.35-8.985 2.857-4.136.613-6.617-1.944-8.186-2.554-1.375-9.425-.597-20.254-.81-11.73-.202-24.1-.062-36.295.103-8.444.09-16.983-.506-20.518.907-3.13 1.29-4.467 4.273-1.535 8.006 5.423 6.57 23.39 8.964 41.196 8.964z" opacity=".33" fill="#c92129"/><path d="M124.672 192.83c17.642 0 34.41-2.273 38.945-8.876 2.808-4.07.57-6.52-1.983-8.098-2.517-1.364-9.283-.62-19.964-.826-11.64-.197-23.882-.07-35.974.1-8.343.092-16.796-.495-20.3.91-3.12 1.29-4.404 4.288-1.53 7.94 5.386 6.51 23.163 8.85 40.806 8.85z" opacity=".33" fill="#c92129"/><path d="M124.662 192.782c17.48 0 34.074-2.256 38.54-8.77 2.76-4.005.53-6.423-2.02-8.01-2.48-1.353-9.14-.64-19.674-.842-11.55-.192-23.666-.08-35.653.095-8.24.097-16.606-.483-20.083.916-3.113 1.293-4.34 4.303-1.523 7.874 5.35 6.45 22.93 8.738 40.412 8.738z" opacity=".33" fill="#ca2129"/><path d="M124.652 192.733c17.317 0 33.737-2.238 38.136-8.66 2.71-3.943.488-6.33-2.06-7.924-2.446-1.344-8.998-.664-19.385-.86-11.46-.186-23.45-.09-35.33.09-8.14.102-16.42-.47-19.866.922-3.105 1.292-4.276 4.317-1.517 7.807 5.313 6.388 22.704 8.623 40.022 8.623z" opacity=".33" fill="#cb2029"/><path d="M124.642 192.684c17.156 0 33.4-2.22 37.732-8.554 2.663-3.876.448-6.23-2.1-7.834-2.407-1.334-8.853-.686-19.094-.875-11.37-.18-23.232-.1-35.01.087-8.038.105-16.23-.46-19.647.925-3.098 1.294-4.214 4.332-1.514 7.74 5.278 6.33 22.476 8.512 39.632 8.512z" opacity=".33" fill="#cc2029"/><path d="M124.633 192.635c16.994 0 33.064-2.203 37.327-8.445 2.615-3.813.407-6.135-2.138-7.746-2.373-1.324-8.713-.708-18.804-.892-11.28-.176-23.016-.11-34.69.082-7.937.11-16.04-.45-19.43.93-3.09 1.295-4.15 4.346-1.507 7.674 5.243 6.267 22.25 8.397 39.243 8.397z" opacity=".33" fill="#cd2029"/><path d="M124.622 192.586c16.832 0 32.727-2.184 36.922-8.338 2.568-3.747.366-6.038-2.176-7.658-2.336-1.313-8.57-.73-18.514-.907-11.19-.17-22.8-.12-34.366.078-7.837.113-15.854-.44-19.213.935-3.083 1.297-4.088 4.362-1.503 7.608 5.207 6.204 22.02 8.283 38.85 8.283z" opacity=".33" fill="#cd2029"/><path d="M124.613 192.537c16.67 0 32.39-2.165 36.517-8.228 2.52-3.684.327-5.944-2.214-7.572-2.3-1.304-8.427-.752-18.224-.924-11.1-.167-22.582-.132-34.045.073-7.735.116-15.666-.428-18.994.938-3.075 1.298-4.025 4.376-1.498 7.542 5.17 6.144 21.79 8.17 38.458 8.17z" opacity=".33" fill="#ce202a"/><path d="M124.604 192.488c16.507 0 32.053-2.148 36.113-8.12 2.47-3.618.284-5.847-2.254-7.483-2.264-1.293-8.284-.775-17.935-.94-11.01-.162-22.365-.142-33.724.07-7.634.118-15.476-.42-18.776.942-3.068 1.298-3.962 4.39-1.493 7.476 5.133 6.08 21.56 8.055 38.07 8.055z" opacity=".33" fill="#cf202a"/><path d="M124.595 192.44c16.344 0 31.716-2.13 35.708-8.014 2.422-3.553.243-5.75-2.292-7.394-2.227-1.284-8.14-.797-17.644-.957-10.92-.157-22.15-.152-33.402.065-7.533.123-15.29-.406-18.56.947-3.06 1.3-3.898 4.406-1.487 7.41 5.097 6.02 21.332 7.942 37.678 7.942z" opacity=".33" fill="#d0202a"/><path d="M124.584 192.39c16.184 0 31.38-2.112 35.303-7.905 2.375-3.49.203-5.653-2.33-7.306-2.19-1.275-8-.82-17.355-.975-10.83-.152-21.932-.162-33.08.06-7.433.128-15.1-.394-18.342.952-3.053 1.302-3.836 4.422-1.483 7.344 5.062 5.96 21.103 7.83 37.287 7.83z" opacity=".33" fill="#d0202a"/><path d="M124.575 192.34c16.02 0 31.042-2.093 34.898-7.796 2.326-3.423.163-5.557-2.37-7.217-2.154-1.264-7.856-.84-17.064-.99-10.74-.147-21.716-.172-32.76.057-7.33.13-14.912-.384-18.123.956-3.046 1.303-3.774 4.436-1.478 7.277 5.024 5.898 20.873 7.714 36.895 7.714z" opacity=".33" fill="#d1202a"/><path d="M124.565 192.292c15.86 0 30.706-2.077 34.494-7.69 2.277-3.358.12-5.46-2.408-7.13-2.12-1.252-7.715-.862-16.775-1.005-10.65-.142-21.498-.182-32.438.053-7.23.134-14.724-.374-17.907.96-3.038 1.304-3.71 4.45-1.473 7.21 4.99 5.838 20.646 7.602 36.505 7.602z" opacity=".33" fill="#d2202a"/><path d="M124.555 192.244c15.696 0 30.37-2.058 34.09-7.582 2.23-3.293.08-5.363-2.447-7.04-2.083-1.245-7.572-.887-16.485-1.023-10.558-.14-21.282-.193-32.115.047-7.13.14-14.536-.363-17.69.964-3.03 1.307-3.646 4.467-1.467 7.147 4.955 5.774 20.418 7.487 36.115 7.487z" opacity=".33" fill="#d3202a"/><path d="M124.545 192.195c15.534 0 30.033-2.04 33.685-7.474 2.182-3.228.04-5.266-2.485-6.953-2.047-1.233-7.43-.908-16.195-1.038-10.47-.134-21.066-.204-31.794.043-7.03.143-14.347-.35-17.47.97-3.023 1.306-3.585 4.48-1.463 7.078 4.916 5.715 20.188 7.375 35.722 7.375z" opacity=".33" fill="#d4202b"/><path d="M124.536 192.146c15.373 0 29.696-2.023 33.28-7.366 2.133-3.164 0-5.17-2.523-6.865-2.01-1.224-7.287-.93-15.906-1.055-10.378-.127-20.85-.212-31.473.04-6.926.147-14.16-.34-17.253.973-3.015 1.308-3.52 4.496-1.457 7.013 4.88 5.652 19.96 7.26 35.333 7.26z" opacity=".33" fill="#d4202a"/><path d="M124.527 192.097c15.21 0 29.36-2.005 32.875-7.258 2.085-3.1-.042-5.076-2.562-6.78-1.974-1.212-7.145-.95-15.615-1.07-10.287-.123-20.632-.222-31.15.036-6.826.15-13.97-.33-17.036.977-3.01 1.31-3.46 4.51-1.453 6.946 4.843 5.592 19.73 7.147 34.94 7.147z" opacity=".33" fill="#d5202a"/><path d="M124.516 192.048c15.048 0 29.022-1.987 32.47-7.15 2.038-3.035-.083-4.98-2.6-6.69-1.938-1.204-7.002-.974-15.325-1.088-10.196-.117-20.414-.232-30.83.032-6.723.154-13.78-.32-16.817.982-3 1.31-3.396 4.525-1.448 6.88 4.81 5.53 19.503 7.034 34.55 7.034z" opacity=".33" fill="#d61f2a"/><path d="M124.507 192c14.886 0 28.685-1.97 32.065-7.043 1.988-2.97-.125-4.882-2.64-6.6-1.902-1.195-6.858-.998-15.035-1.105-10.107-.113-20.2-.243-30.507.027-6.625.157-13.594-.308-16.6.985-2.994 1.312-3.332 4.54-1.443 6.815 4.773 5.468 19.274 6.92 34.16 6.92z" opacity=".33" fill="#d71f2a"/><path d="M124.497 191.95c14.725 0 28.35-1.95 31.662-6.934 1.938-2.906-.167-4.786-2.68-6.513-1.865-1.184-6.715-1.02-14.744-1.12-10.017-.108-19.982-.252-30.187.023-6.524.16-13.406-.297-16.383.99-2.986 1.314-3.27 4.556-1.437 6.75 4.734 5.406 19.043 6.804 33.767 6.804z" opacity=".33" fill="#d71f2a"/><path d="M124.488 191.9c14.563 0 28.012-1.932 31.257-6.825 1.892-2.84-.206-4.69-2.716-6.425-1.83-1.173-6.575-1.04-14.457-1.137-9.927-.102-19.766-.262-29.865.02-6.42.164-13.217-.287-16.165.994-2.98 1.315-3.207 4.57-1.432 6.682 4.7 5.345 18.816 6.69 33.378 6.69z" opacity=".33" fill="#d81f2b"/><path d="M124.477 191.852c14.4 0 27.676-1.914 30.852-6.717 1.842-2.777-.25-4.593-2.757-6.337-1.792-1.164-6.43-1.063-14.165-1.154-9.836-.097-19.55-.273-29.545.015-6.32.168-13.027-.276-15.946.997-2.97 1.317-3.143 4.585-1.428 6.617 4.665 5.285 18.587 6.578 32.987 6.578z" opacity=".33" fill="#d91f2b"/><path d="M124.468 191.803c14.238 0 27.34-1.897 30.447-6.61 1.794-2.71-.29-4.496-2.794-6.25-1.756-1.152-6.288-1.084-13.875-1.168-9.747-.093-19.33-.283-29.222.01-6.22.173-12.84-.264-15.73 1.003-2.964 1.317-3.08 4.6-1.422 6.55 4.63 5.224 18.36 6.465 32.598 6.465z" opacity=".33" fill="#da1f2b"/><path d="M124.46 191.754c14.074 0 27-1.88 30.04-6.502 1.748-2.646-.33-4.4-2.832-6.16-1.72-1.144-6.146-1.11-13.585-1.187-9.657-.087-19.116-.292-28.9.007-6.12.177-12.65-.252-15.512 1.008-2.955 1.318-3.016 4.614-1.416 6.484 4.59 5.16 18.128 6.35 32.205 6.35z" opacity=".33" fill="#db1f2b"/><path d="M124.45 191.705c13.914 0 26.665-1.86 29.637-6.394 1.698-2.58-.372-4.303-2.872-6.072-1.684-1.134-6.005-1.13-13.296-1.203-9.567-.082-18.9-.302-28.58.003-6.017.18-12.464-.243-15.293 1.012-2.95 1.32-2.954 4.63-1.412 6.417 4.556 5.102 17.9 6.238 31.814 6.238z" opacity=".33" fill="#db1f2b"/><path d="M124.44 191.656c13.75 0 26.33-1.843 29.233-6.286 1.65-2.517-.41-4.207-2.91-5.984-1.647-1.124-5.86-1.153-13.005-1.22-9.477-.077-18.682-.312-28.258 0-5.917.183-12.276-.232-15.077 1.015-2.94 1.323-2.89 4.646-1.406 6.353 4.518 5.04 17.67 6.123 31.422 6.123z" opacity=".33" fill="#dc202b"/><path d="M124.43 191.607c13.59 0 25.993-1.825 28.828-6.178 1.602-2.454-.453-4.112-2.95-5.898-1.61-1.113-5.718-1.175-12.715-1.236-9.386-.073-18.465-.322-27.936-.006-5.815.188-12.087-.22-14.858 1.02-2.935 1.324-2.83 4.66-1.404 6.286 4.484 4.98 17.444 6.01 31.033 6.01z" opacity=".33" fill="#dd212b"/><path d="M124.42 191.558c13.427 0 25.657-1.808 28.424-6.07 1.553-2.388-.493-4.015-2.987-5.81-1.576-1.103-5.576-1.196-12.425-1.25-9.296-.07-18.25-.334-27.614-.01-5.714.19-11.898-.21-14.64 1.023-2.928 1.325-2.766 4.675-1.4 6.22 4.448 4.92 17.215 5.898 30.642 5.898z" opacity=".33" fill="#de212c"/><path d="M124.41 191.51c13.267 0 25.32-1.79 28.02-5.962 1.505-2.323-.534-3.92-3.027-5.72-1.54-1.094-5.434-1.22-12.136-1.27-9.205-.062-18.032-.342-27.293-.014-5.613.196-11.71-.198-14.423 1.03-2.918 1.325-2.7 4.69-1.39 6.153 4.41 4.856 16.985 5.783 30.25 5.783z" opacity=".33" fill="#de212c"/><path d="M124.4 191.46c13.104 0 24.982-1.77 27.614-5.853 1.458-2.258-.575-3.822-3.063-5.633-1.502-1.083-5.29-1.24-11.845-1.285-9.115-.06-17.816-.354-26.972-.02-5.51.2-11.52-.186-14.206 1.034-2.912 1.327-2.64 4.704-1.386 6.088 4.376 4.793 16.758 5.67 29.86 5.67z" opacity=".33" fill="#df212c"/></g><path d="M124.39 191.412c12.942 0 24.647-1.754 27.21-5.747 1.41-2.193-.616-3.725-3.103-5.545-1.467-1.073-5.15-1.263-11.556-1.3-9.025-.053-17.598-.363-26.65-.024-5.41.204-11.333-.176-13.987 1.038-2.904 1.33-2.577 4.72-1.383 6.022 4.34 4.733 16.53 5.556 29.47 5.556z" clip-rule="evenodd" opacity=".33" fill="#e0212c" fill-rule="evenodd"/><path d="M186.147 165.636c6.97-3.404 10.535-32.412.628-38.145-8.638-4.997-19.164 5.808-19.815 17.805-.786 14.506 14.842 22.462 19.187 20.34z" clip-rule="evenodd" opacity=".33" fill="#a11e22" fill-rule="evenodd"/><g clip-rule="evenodd" fill-rule="evenodd"><path d="M186.123 165.5c6.906-3.38 10.435-32.19.62-37.882-8.552-4.96-18.967 5.77-19.61 17.682-.78 14.403 14.688 22.305 18.99 20.2z" opacity=".33" fill="#a11e22"/><path d="M186.1 165.367c6.843-3.356 10.333-31.97.614-37.62-8.468-4.922-18.773 5.734-19.41 17.56-.77 14.298 14.536 22.146 18.795 20.06z" opacity=".33" fill="#a21e22"/><path d="M186.075 165.232c6.78-3.33 10.234-31.75.608-37.36-8.384-4.882-18.577 5.7-19.208 17.44-.762 14.195 14.382 21.99 18.6 19.92z" opacity=".33" fill="#a21e22"/><path d="M186.05 165.098c6.717-3.307 10.134-31.53.6-37.1-8.298-4.842-18.38 5.664-19.004 17.32-.752 14.09 14.23 21.83 18.403 19.78z" opacity=".33" fill="#a31e22"/><path d="M186.026 164.963c6.653-3.282 10.033-31.31.594-36.837-8.213-4.804-18.185 5.628-18.8 17.197-.747 13.988 14.073 21.674 18.206 19.64z" opacity=".33" fill="#a31e22"/><path d="M186.002 164.83c6.59-3.26 9.933-31.09.588-36.577-8.13-4.765-17.99 5.592-18.6 17.076-.737 13.883 13.92 21.515 18.012 19.5z" opacity=".33" fill="#a41e23"/><path d="M185.978 164.694c6.527-3.233 9.833-30.868.58-36.314-8.043-4.726-17.793 5.556-18.396 16.955-.73 13.78 13.768 21.36 17.816 19.36z" opacity=".33" fill="#a41e23"/><path d="M185.954 164.56c6.464-3.21 9.732-30.648.576-36.053-7.96-4.687-17.6 5.52-18.195 16.834-.723 13.678 13.612 21.2 17.62 19.22z" opacity=".33" fill="#a51e23"/><path d="M185.928 164.425c6.4-3.185 9.633-30.427.57-35.792-7.876-4.65-17.403 5.485-17.992 16.713-.714 13.574 13.46 21.044 17.422 19.08z" opacity=".33" fill="#a51e23"/><path d="M185.904 164.29c6.34-3.16 9.533-30.206.563-35.53-7.79-4.61-17.207 5.45-17.79 16.59-.705 13.47 13.306 20.888 17.227 18.94z" opacity=".33" fill="#a61e23"/><path d="M185.88 164.155c6.275-3.136 9.433-29.986.557-35.268-7.707-4.572-17.012 5.413-17.588 16.47-.697 13.366 13.152 20.73 17.03 18.798z" opacity=".33" fill="#a61e23"/><path d="M185.856 164.02c6.212-3.11 9.332-29.764.55-35.006-7.62-4.532-16.816 5.378-17.385 16.348-.687 13.264 13 20.572 16.836 18.66z" opacity=".33" fill="#a71f23"/><path d="M185.833 163.887c6.147-3.088 9.23-29.546.543-34.746-7.537-4.493-16.62 5.342-17.184 16.227-.68 13.16 12.846 20.415 16.64 18.52z" opacity=".33" fill="#a71f23"/><path d="M185.81 163.752c6.084-3.064 9.13-29.325.535-34.485-7.45-4.454-16.425 5.306-16.98 16.105-.673 13.058 12.69 20.258 16.444 18.38z" opacity=".33" fill="#a81f23"/><path d="M185.785 163.618c6.02-3.04 9.03-29.104.53-34.224-7.368-4.415-16.23 5.27-16.78 15.984-.663 12.955 12.54 20.1 16.25 18.24z" opacity=".33" fill="#a81f23"/><path d="M185.76 163.483c5.958-3.015 8.93-28.883.522-33.962-7.282-4.376-16.033 5.236-16.575 15.864-.656 12.85 12.385 19.942 16.052 18.1z" opacity=".33" fill="#a91f23"/><path d="M185.735 163.35c5.895-2.993 8.832-28.665.517-33.702-7.198-4.34-15.838 5.198-16.373 15.742-.648 12.746 12.23 19.784 15.855 17.96z" opacity=".33" fill="#a91f23"/><path d="M185.71 163.214c5.834-2.967 8.733-28.443.51-33.44-7.112-4.298-15.64 5.164-16.17 15.62-.638 12.645 12.078 19.63 15.66 17.82z" opacity=".33" fill="#aa1f23"/><path d="M185.687 163.08c5.77-2.943 8.63-28.222.504-33.178-7.027-4.26-15.446 5.127-15.967 15.5-.63 12.54 11.924 19.47 15.464 17.678z" opacity=".33" fill="#aa1f23"/><path d="M185.662 162.945c5.706-2.918 8.53-28 .497-32.916-6.945-4.223-15.252 5.09-15.767 15.377-.622 12.436 11.77 19.312 15.27 17.538z" opacity=".33" fill="#ab1f24"/><path d="M185.638 162.81c5.642-2.893 8.43-27.78.49-32.654-6.86-4.183-15.055 5.056-15.563 15.257-.614 12.332 11.618 19.154 15.073 17.398z" opacity=".33" fill="#ab1f24"/><path d="M185.614 162.676c5.58-2.87 8.33-27.56.485-32.394-6.775-4.144-14.86 5.02-15.362 15.135-.607 12.23 11.464 19 14.876 17.26z" opacity=".33" fill="#ac1f24"/><path d="M185.59 162.542c5.516-2.846 8.23-27.34.478-32.133-6.69-4.106-14.664 4.983-15.16 15.013-.598 12.126 11.31 18.84 14.682 17.12z" opacity=".33" fill="#ac1f24"/><path d="M185.566 162.407c5.453-2.82 8.13-27.12.47-31.87-6.603-4.067-14.466 4.948-14.954 14.892-.59 12.02 11.155 18.68 14.484 16.977z" opacity=".33" fill="#ad1f24"/><path d="M185.54 162.273c5.39-2.798 8.03-26.9.466-31.61-6.52-4.028-14.273 4.913-14.755 14.772-.58 11.918 11.005 18.524 14.29 16.838z" opacity=".33" fill="#ad1f24"/><path d="M185.517 162.138c5.327-2.773 7.93-26.678.458-31.348-6.435-3.988-14.077 4.877-14.55 14.65-.574 11.816 10.848 18.368 14.092 16.698z" opacity=".33" fill="#ae1f24"/><path d="M185.493 162.004c5.263-2.75 7.83-26.458.45-31.087-6.35-3.95-13.88 4.84-14.347 14.528-.566 11.713 10.696 18.21 13.897 16.56z" opacity=".33" fill="#ae1f24"/><path d="M185.47 161.87c5.198-2.725 7.727-26.238.444-30.826-6.265-3.91-13.686 4.805-14.146 14.407-.558 11.61 10.54 18.054 13.7 16.42z" opacity=".33" fill="#af2025"/><path d="M185.445 161.735c5.137-2.7 7.628-26.017.438-30.564-6.18-3.872-13.49 4.77-13.943 14.287-.55 11.505 10.388 17.895 13.505 16.278z" opacity=".33" fill="#af2025"/><path d="M185.42 161.6c5.074-2.675 7.528-25.797.43-30.302-6.095-3.833-13.293 4.734-13.74 14.164-.54 11.402 10.235 17.738 13.31 16.138z" opacity=".33" fill="#b02025"/><path d="M185.397 161.465c5.01-2.65 7.427-25.576.425-30.04-6.01-3.795-13.098 4.698-13.54 14.043-.533 11.298 10.082 17.58 13.115 15.997z" opacity=".33" fill="#b02025"/><path d="M185.372 161.33c4.947-2.627 7.327-25.355.418-29.78-5.927-3.755-12.903 4.664-13.337 13.924-.523 11.194 9.93 17.422 12.92 15.857z" opacity=".33" fill="#b12025"/><path d="M185.348 161.196c4.883-2.603 7.227-25.135.41-29.52-5.84-3.716-12.706 4.628-13.133 13.802-.515 11.093 9.775 17.267 12.723 15.718z" opacity=".33" fill="#b12025"/><path d="M185.324 161.062c4.82-2.58 7.128-24.915.406-29.257-5.757-3.68-12.51 4.59-12.932 13.68-.508 10.988 9.62 17.107 12.526 15.577z" opacity=".33" fill="#b22025"/><path d="M185.3 160.927c4.757-2.554 7.026-24.694.4-28.995-5.673-3.64-12.316 4.556-12.73 13.558-.5 10.885 9.466 16.95 12.33 15.437z" opacity=".33" fill="#b22025"/><path d="M185.275 160.793c4.693-2.53 6.926-24.474.392-28.734-5.587-3.602-12.12 4.518-12.526 13.436-.49 10.78 9.314 16.792 12.135 15.297z" opacity=".33" fill="#b32026"/><path d="M185.25 160.658c4.63-2.505 6.826-24.253.387-28.473-5.502-3.562-11.925 4.484-12.325 13.316-.482 10.68 9.16 16.637 11.94 15.158z" opacity=".33" fill="#b32026"/><path d="M185.227 160.524c4.567-2.482 6.725-24.033.38-28.212-5.42-3.523-11.73 4.448-12.122 13.194-.475 10.575 9.005 16.478 11.742 15.018z" opacity=".33" fill="#b42026"/><path d="M185.203 160.39c4.504-2.458 6.626-23.812.373-27.95-5.334-3.485-11.533 4.412-11.92 13.072-.467 10.47 8.853 16.32 11.547 14.877z" opacity=".33" fill="#b42026"/><path d="M185.18 160.255c4.44-2.433 6.525-23.59.365-27.69-5.248-3.444-11.337 4.378-11.717 12.953-.46 10.367 8.698 16.163 11.35 14.737z" opacity=".33" fill="#b52026"/><path d="M185.154 160.12c4.377-2.41 6.426-23.37.36-27.428-5.165-3.406-11.143 4.342-11.515 12.83-.45 10.266 8.545 16.007 11.154 14.598z" opacity=".33" fill="#b52026"/><path d="M185.13 159.986c4.314-2.385 6.325-23.15.352-27.167-5.08-3.37-10.946 4.304-11.312 12.708-.442 10.162 8.392 15.85 10.96 14.458z" opacity=".33" fill="#b62026"/><path d="M185.106 159.85c4.25-2.358 6.225-22.928.346-26.903-4.995-3.33-10.75 4.27-11.11 12.587-.434 10.058 8.24 15.69 10.764 14.317z" opacity=".33" fill="#b62026"/><path d="M185.082 159.717c4.187-2.336 6.125-22.71.34-26.643-4.91-3.29-10.556 4.233-10.908 12.466-.426 9.954 8.086 15.534 10.568 14.177z" opacity=".33" fill="#b72026"/><path d="M185.058 159.582c4.125-2.31 6.024-22.49.334-26.38-4.825-3.253-10.36 4.197-10.705 12.344-.418 9.85 7.93 15.375 10.37 14.036z" opacity=".33" fill="#b72026"/><path d="M185.034 159.448c4.06-2.287 5.924-22.27.326-26.12-4.74-3.213-10.163 4.16-10.503 12.224-.41 9.746 7.778 15.218 10.177 13.896z" opacity=".33" fill="#b82027"/><path d="M185.01 159.313c3.998-2.264 5.823-22.048.32-25.86-4.656-3.172-9.968 4.128-10.3 12.104-.402 9.643 7.623 15.06 9.98 13.756z" opacity=".33" fill="#b82027"/><path d="M184.985 159.178c3.934-2.24 5.723-21.827.314-25.598-4.572-3.134-9.773 4.09-10.098 11.982-.394 9.54 7.47 14.904 9.783 13.616z" opacity=".33" fill="#b92027"/><path d="M184.96 159.044c3.873-2.214 5.624-21.608.308-25.337-4.487-3.096-9.576 4.056-9.894 11.86-.386 9.438 7.316 14.747 9.587 13.477z" opacity=".33" fill="#b92027"/><path d="M184.937 158.91c3.808-2.19 5.523-21.387.3-25.076-4.4-3.056-9.38 4.02-9.692 11.74-.378 9.333 7.162 14.588 9.392 13.336z" opacity=".33" fill="#ba2027"/><path d="M184.913 158.775c3.745-2.166 5.424-21.166.294-24.814-4.316-3.017-9.185 3.985-9.49 11.62-.37 9.23 7.01 14.43 9.196 13.195z" opacity=".33" fill="#ba2027"/><path d="M184.888 158.64c3.68-2.14 5.322-20.945.287-24.552-4.233-2.98-8.99 3.948-9.288 11.496-.36 9.127 6.858 14.274 9 13.056z" opacity=".33" fill="#bb2027"/><path d="M184.864 158.506c3.62-2.118 5.222-20.726.28-24.29-4.147-2.942-8.794 3.91-9.085 11.374-.352 9.023 6.702 14.116 8.804 12.916z" opacity=".33" fill="#bb2027"/><path d="M184.84 158.37c3.555-2.092 5.12-20.503.274-24.028-4.062-2.902-8.598 3.876-8.883 11.253-.343 8.92 6.55 13.96 8.61 12.776z" opacity=".33" fill="#bc2027"/><path d="M184.816 158.237c3.49-2.07 5.022-20.284.267-23.768-3.978-2.864-8.402 3.84-8.68 11.13-.336 8.817 6.395 13.803 8.413 12.637z" opacity=".33" fill="#bc2027"/><path d="M184.792 158.102c3.428-2.044 4.922-20.063.26-23.507-3.893-2.824-8.206 3.805-8.478 11.01-.327 8.715 6.242 13.646 8.218 12.497z" opacity=".33" fill="#bd2028"/><path d="M184.766 157.968c3.366-2.02 4.823-19.843.256-23.246-3.808-2.785-8.01 3.77-8.276 10.89-.32 8.61 6.088 13.487 8.02 12.356z" opacity=".33" fill="#bd2027"/><path d="M184.742 157.833c3.303-1.996 4.72-19.622.25-22.984-3.723-2.747-7.816 3.733-8.073 10.768-.313 8.506 5.932 13.33 7.822 12.215z" opacity=".33" fill="#be2127"/><path d="M184.718 157.7c3.24-1.973 4.622-19.403.243-22.724-3.638-2.707-7.62 3.698-7.87 10.648-.303 8.402 5.78 13.17 7.628 12.075z" opacity=".33" fill="#be2127"/><path d="M184.695 157.564c3.175-1.947 4.52-19.18.235-22.46-3.554-2.67-7.424 3.662-7.668 10.526-.295 8.298 5.626 13.013 7.433 11.934z" opacity=".33" fill="#bf2127"/><path d="M184.67 157.43c3.112-1.923 4.42-18.96.23-22.2-3.47-2.63-7.23 3.626-7.466 10.405-.288 8.195 5.473 12.857 7.237 11.795z" opacity=".33" fill="#bf2127"/><path d="M184.647 157.295c3.05-1.9 4.32-18.74.222-21.938-3.386-2.592-7.034 3.59-7.264 10.284-.28 8.093 5.318 12.7 7.04 11.655z" opacity=".33" fill="#c02127"/><path d="M184.623 157.16c2.985-1.874 4.22-18.52.215-21.676-3.3-2.552-6.837 3.555-7.06 10.163-.272 7.988 5.165 12.54 6.845 11.514z" opacity=".33" fill="#c02127"/><path d="M184.597 157.026c2.923-1.85 4.12-18.3.21-21.415-3.216-2.513-6.642 3.52-6.86 10.042-.262 7.885 5.013 12.383 6.65 11.374z" opacity=".33" fill="#c12127"/><path d="M184.573 156.892c2.86-1.826 4.02-18.08.203-21.154-3.13-2.475-6.446 3.483-6.657 9.92-.255 7.78 4.86 12.226 6.453 11.234z" opacity=".33" fill="#c12127"/><path d="M184.55 156.757c2.796-1.8 3.92-17.858.195-20.893-3.045-2.436-6.25 3.448-6.454 9.798-.244 7.68 4.706 12.07 6.26 11.095z" opacity=".33" fill="#c22128"/><path d="M184.525 156.622c2.733-1.777 3.82-17.638.19-20.63-2.962-2.4-6.055 3.41-6.252 9.675-.237 7.576 4.552 11.913 6.062 10.955z" opacity=".33" fill="#c22128"/><path d="M184.5 156.488c2.67-1.754 3.72-17.418.183-20.37-2.877-2.36-5.86 3.376-6.05 9.555-.227 7.472 4.4 11.755 5.867 10.815z" opacity=".33" fill="#c32128"/><path d="M184.476 156.353c2.606-1.73 3.62-17.196.176-20.108-2.79-2.32-5.663 3.34-5.847 9.434-.22 7.368 4.246 11.596 5.67 10.673z" opacity=".33" fill="#c32128"/><path d="M184.452 156.22c2.544-1.706 3.518-16.977.17-19.85-2.708-2.28-5.47 3.306-5.645 9.315-.212 7.265 4.092 11.44 5.475 10.534z" opacity=".33" fill="#c42128"/><path d="M184.428 156.084c2.48-1.68 3.418-16.756.164-19.586-2.622-2.242-5.273 3.27-5.442 9.192-.204 7.16 3.938 11.282 5.278 10.394z" opacity=".33" fill="#c42128"/><path d="M184.404 155.95c2.417-1.656 3.32-16.536.157-19.325-2.535-2.203-5.076 3.234-5.237 9.07-.197 7.058 3.782 11.126 5.08 10.255z" opacity=".33" fill="#c52128"/><path d="M184.38 155.815c2.354-1.63 3.217-16.314.15-19.063-2.454-2.164-4.883 3.198-5.037 8.95-.188 6.954 3.63 10.966 4.886 10.113z" opacity=".33" fill="#c52128"/><path d="M184.355 155.68c2.29-1.607 3.12-16.093.144-18.802-2.37-2.125-4.686 3.162-4.835 8.83-.18 6.85 3.476 10.81 4.69 9.973z" opacity=".33" fill="#c62128"/><path d="M184.33 155.546c2.228-1.583 3.02-15.874.138-18.54-2.284-2.087-4.49 3.125-4.632 8.706-.17 6.748 3.324 10.653 4.495 9.834z" opacity=".33" fill="#c62128"/><path d="M184.307 155.412c2.164-1.56 2.918-15.654.13-18.28-2.198-2.047-4.295 3.09-4.43 8.586-.163 6.644 3.17 10.495 4.3 9.694z" opacity=".33" fill="#c72129"/><path d="M184.283 155.277c2.1-1.535 2.817-15.432.124-18.017-2.114-2.01-4.098 3.054-4.227 8.464-.156 6.54 3.016 10.337 4.103 9.553z" opacity=".33" fill="#c72129"/><path d="M184.26 155.143c2.037-1.51 2.716-15.213.116-17.756-2.03-1.97-3.903 3.018-4.025 8.343-.146 6.436 2.864 10.18 3.91 9.413z" opacity=".33" fill="#c82129"/><path d="M184.234 155.008c1.974-1.486 2.617-14.992.11-17.494-1.944-1.93-3.708 2.983-3.822 8.22-.137 6.334 2.71 10.023 3.712 9.274z" opacity=".33" fill="#c82129"/><path d="M184.21 154.874c1.91-1.462 2.516-14.772.104-17.233-1.86-1.892-3.51 2.948-3.62 8.1-.13 6.23 2.556 9.865 3.516 9.134z" opacity=".33" fill="#c92129"/></g><path d="M184.186 154.74c1.848-1.438 2.416-14.55.097-16.973-1.774-1.854-3.315 2.912-3.416 7.98-.123 6.126 2.402 9.706 3.32 8.992z" clip-rule="evenodd" opacity=".33" fill="#c92129" fill-rule="evenodd"/><path d="M61.786 165.636c-6.97-3.404-10.535-32.412-.628-38.145 8.638-4.997 19.163 5.808 19.814 17.805.788 14.506-14.842 22.462-19.186 20.34z" clip-rule="evenodd" opacity=".33" fill="#a11e22" fill-rule="evenodd"/><g clip-rule="evenodd" fill-rule="evenodd"><path d="M61.81 165.5c-6.905-3.38-10.434-32.19-.62-37.882 8.553-4.96 18.968 5.77 19.612 17.682.777 14.403-14.69 22.305-18.99 20.2z" opacity=".33" fill="#a11e22"/><path d="M61.835 165.367c-6.844-3.356-10.334-31.97-.615-37.62 8.468-4.922 18.773 5.734 19.41 17.56.77 14.298-14.536 22.146-18.795 20.06z" opacity=".33" fill="#a21e22"/><path d="M61.86 165.232c-6.782-3.33-10.235-31.75-.61-37.36 8.385-4.882 18.578 5.7 19.207 17.44.763 14.195-14.38 21.99-18.598 19.92z" opacity=".33" fill="#a21e22"/><path d="M61.883 165.098c-6.717-3.307-10.134-31.53-.6-37.1 8.297-4.842 18.38 5.664 19.003 17.32.754 14.09-14.228 21.83-18.403 19.78z" opacity=".33" fill="#a31e22"/><path d="M61.907 164.963c-6.654-3.282-10.033-31.31-.595-36.837 8.215-4.804 18.186 5.628 18.802 17.197.747 13.988-14.074 21.674-18.207 19.64z" opacity=".33" fill="#a31e22"/><path d="M61.932 164.83c-6.59-3.26-9.933-31.09-.588-36.577 8.13-4.765 17.99 5.592 18.6 17.076.737 13.883-13.92 21.515-18.012 19.5z" opacity=".33" fill="#a41e23"/><path d="M61.956 164.694c-6.527-3.233-9.833-30.868-.58-36.314 8.043-4.726 17.793 5.556 18.396 16.955.73 13.78-13.768 21.36-17.816 19.36z" opacity=".33" fill="#a41e23"/><path d="M61.98 164.56c-6.464-3.21-9.733-30.648-.575-36.053 7.96-4.687 17.6 5.52 18.195 16.834.72 13.678-13.615 21.2-17.62 19.22z" opacity=".33" fill="#a51e23"/><path d="M62.004 164.425c-6.4-3.185-9.632-30.427-.57-35.792 7.876-4.65 17.403 5.485 17.993 16.713.713 13.574-13.46 21.044-17.423 19.08z" opacity=".33" fill="#a51e23"/><path d="M62.028 164.29c-6.338-3.16-9.532-30.206-.563-35.53 7.79-4.61 17.207 5.45 17.79 16.59.706 13.47-13.306 20.888-17.227 18.94z" opacity=".33" fill="#a61e23"/><path d="M62.052 164.155c-6.274-3.136-9.433-29.986-.556-35.268 7.705-4.572 17.01 5.413 17.588 16.47.697 13.366-13.152 20.73-17.032 18.798z" opacity=".33" fill="#a61e23"/><path d="M62.077 164.02c-6.21-3.11-9.33-29.764-.55-35.006 7.622-4.532 16.817 5.378 17.386 16.348.688 13.264-13 20.572-16.836 18.66z" opacity=".33" fill="#a71f23"/><path d="M62.1 163.887c-6.146-3.088-9.23-29.546-.542-34.746 7.537-4.493 16.62 5.342 17.184 16.227.68 13.16-12.847 20.415-16.64 18.52z" opacity=".33" fill="#a71f23"/><path d="M62.125 163.752c-6.085-3.064-9.132-29.325-.536-34.485 7.45-4.454 16.424 5.306 16.98 16.105.67 13.058-12.693 20.258-16.445 18.38z" opacity=".33" fill="#a81f23"/><path d="M62.15 163.618c-6.022-3.04-9.03-29.104-.53-34.224 7.367-4.415 16.228 5.27 16.777 15.984.664 12.955-12.538 20.1-16.248 18.24z" opacity=".33" fill="#a81f23"/><path d="M62.173 163.483c-5.96-3.015-8.93-28.883-.523-33.962 7.282-4.376 16.033 5.236 16.575 15.864.656 12.85-12.385 19.942-16.052 18.1z" opacity=".33" fill="#a91f23"/><path d="M62.197 163.35c-5.895-2.993-8.83-28.665-.516-33.702 7.2-4.34 15.838 5.198 16.373 15.742.65 12.746-12.23 19.784-15.856 17.96z" opacity=".33" fill="#a91f23"/><path d="M62.223 163.214c-5.833-2.967-8.73-28.443-.51-33.44 7.113-4.298 15.642 5.164 16.17 15.62.64 12.645-12.08 19.63-15.66 17.82z" opacity=".33" fill="#aa1f23"/><path d="M62.247 163.08c-5.77-2.943-8.63-28.222-.504-33.178 7.028-4.26 15.447 5.127 15.968 15.5.632 12.54-11.923 19.47-15.463 17.678z" opacity=".33" fill="#aa1f23"/><path d="M62.27 162.945c-5.706-2.918-8.53-28-.496-32.916 6.944-4.223 15.25 5.09 15.766 15.377.623 12.436-11.772 19.312-15.27 17.538z" opacity=".33" fill="#ab1f24"/><path d="M62.294 162.81c-5.642-2.893-8.43-27.78-.49-32.654 6.858-4.183 15.054 5.056 15.563 15.257.616 12.332-11.616 19.154-15.073 17.398z" opacity=".33" fill="#ab1f24"/><path d="M62.32 162.676c-5.58-2.87-8.33-27.56-.485-32.394 6.774-4.144 14.86 5.02 15.36 15.135.607 12.23-11.463 19-14.875 17.26z" opacity=".33" fill="#ac1f24"/><path d="M62.344 162.542c-5.516-2.846-8.23-27.34-.478-32.133 6.69-4.106 14.663 4.983 15.16 15.013.596 12.126-11.312 18.84-14.682 17.12z" opacity=".33" fill="#ac1f24"/><path d="M62.368 162.407c-5.453-2.82-8.13-27.12-.472-31.87 6.605-4.067 14.468 4.948 14.957 14.892.59 12.02-11.157 18.68-14.485 16.977z" opacity=".33" fill="#ad1f24"/><path d="M62.392 162.273c-5.39-2.798-8.03-26.9-.465-31.61 6.52-4.028 14.272 4.913 14.753 14.772.583 11.918-11.002 18.524-14.288 16.838z" opacity=".33" fill="#ad1f24"/><path d="M62.416 162.138c-5.327-2.773-7.93-26.678-.458-31.348 6.435-3.988 14.076 4.877 14.552 14.65.573 11.816-10.85 18.368-14.094 16.698z" opacity=".33" fill="#ae1f24"/><path d="M62.44 162.004c-5.263-2.75-7.83-26.458-.452-31.087 6.35-3.95 13.88 4.84 14.348 14.528.567 11.713-10.694 18.21-13.896 16.56z" opacity=".33" fill="#ae1f24"/><path d="M62.465 161.87c-5.2-2.725-7.73-26.238-.445-30.826 6.265-3.91 13.686 4.805 14.146 14.407.558 11.61-10.543 18.054-13.7 16.42z" opacity=".33" fill="#af2025"/><path d="M62.49 161.735c-5.138-2.7-7.63-26.017-.44-30.564 6.182-3.872 13.49 4.77 13.944 14.287.55 11.505-10.388 17.895-13.505 16.278z" opacity=".33" fill="#af2025"/><path d="M62.513 161.6c-5.074-2.675-7.528-25.797-.432-30.302 6.097-3.833 13.295 4.734 13.743 14.164.54 11.402-10.236 17.738-13.31 16.138z" opacity=".33" fill="#b02025"/><path d="M62.537 161.465c-5.01-2.65-7.427-25.576-.425-30.04 6.01-3.795 13.098 4.698 13.54 14.043.53 11.298-10.082 17.58-13.115 15.997z" opacity=".33" fill="#b02025"/><path d="M62.56 161.33c-4.945-2.627-7.327-25.355-.417-29.78 5.927-3.755 12.902 4.664 13.336 13.924.524 11.194-9.93 17.422-12.92 15.857z" opacity=".33" fill="#b12025"/><path d="M62.586 161.196c-4.884-2.603-7.227-25.135-.41-29.52 5.84-3.716 12.706 4.628 13.133 13.802.514 11.093-9.777 17.267-12.724 15.718z" opacity=".33" fill="#b12025"/><path d="M62.61 161.062c-4.82-2.58-7.128-24.915-.406-29.257 5.756-3.68 12.51 4.59 12.932 13.68.508 10.988-9.62 17.107-12.526 15.577z" opacity=".33" fill="#b22025"/><path d="M62.634 160.927c-4.757-2.554-7.027-24.694-.4-28.995 5.673-3.64 12.316 4.556 12.73 13.558.5 10.885-9.467 16.95-12.33 15.437z" opacity=".33" fill="#b22025"/><path d="M62.658 160.793c-4.693-2.53-6.927-24.474-.393-28.734 5.588-3.602 12.12 4.518 12.526 13.436.494 10.78-9.31 16.792-12.132 15.297z" opacity=".33" fill="#b32026"/><path d="M62.682 160.658c-4.63-2.505-6.827-24.253-.386-28.473C67.8 128.623 74.22 136.67 74.62 145.5c.484 10.68-9.16 16.637-11.938 15.158z" opacity=".33" fill="#b32026"/><path d="M62.707 160.524c-4.567-2.482-6.726-24.033-.38-28.212 5.42-3.523 11.73 4.448 12.122 13.194.474 10.575-9.008 16.478-11.743 15.018z" opacity=".33" fill="#b42026"/><path d="M62.73 160.39c-4.503-2.458-6.625-23.812-.372-27.95 5.334-3.485 11.533 4.412 11.92 13.072.467 10.47-8.853 16.32-11.547 14.877z" opacity=".33" fill="#b42026"/><path d="M62.755 160.255c-4.44-2.433-6.526-23.59-.366-27.69 5.248-3.444 11.336 4.378 11.716 12.953.46 10.367-8.7 16.163-11.35 14.737z" opacity=".33" fill="#b52026"/><path d="M62.78 160.12c-4.38-2.41-6.426-23.37-.36-27.428 5.164-3.406 11.14 4.342 11.514 12.83.45 10.266-8.545 16.007-11.155 14.598z" opacity=".33" fill="#b52026"/><path d="M62.803 159.986c-4.314-2.385-6.325-23.15-.353-27.167 5.08-3.37 10.946 4.304 11.312 12.708.442 10.162-8.392 15.85-10.96 14.458z" opacity=".33" fill="#b62026"/><path d="M62.827 159.85c-4.25-2.358-6.225-22.928-.346-26.903 4.995-3.33 10.75 4.27 11.11 12.587.435 10.058-8.237 15.69-10.763 14.317z" opacity=".33" fill="#b62026"/><path d="M62.852 159.717c-4.187-2.336-6.125-22.71-.34-26.643 4.91-3.29 10.556 4.233 10.908 12.466.425 9.954-8.086 15.534-10.568 14.177z" opacity=".33" fill="#b72026"/><path d="M62.876 159.582c-4.125-2.31-6.024-22.49-.333-26.38 4.825-3.253 10.36 4.197 10.706 12.344.415 9.85-7.934 15.375-10.374 14.036z" opacity=".33" fill="#b72026"/><path d="M62.9 159.448c-4.06-2.287-5.924-22.27-.327-26.12 4.74-3.213 10.163 4.16 10.503 12.224.41 9.746-7.778 15.218-10.176 13.896z" opacity=".33" fill="#b82027"/><path d="M62.924 159.313c-3.998-2.264-5.824-22.048-.32-25.86 4.655-3.172 9.967 4.128 10.3 12.104.402 9.643-7.624 15.06-9.98 13.756z" opacity=".33" fill="#b82027"/><path d="M62.948 159.178c-3.934-2.24-5.723-21.827-.314-25.598 4.57-3.134 9.772 4.09 10.097 11.982.395 9.54-7.467 14.904-9.782 13.616z" opacity=".33" fill="#b92027"/><path d="M62.973 159.044c-3.872-2.214-5.623-21.608-.307-25.337 4.487-3.096 9.576 4.056 9.894 11.86.385 9.438-7.316 14.747-9.587 13.477z" opacity=".33" fill="#b92027"/><path d="M62.997 158.91c-3.808-2.19-5.523-21.387-.3-25.076 4.4-3.056 9.38 4.02 9.692 11.74.375 9.333-7.165 14.588-9.393 13.336z" opacity=".33" fill="#ba2027"/><path d="M63.02 158.775c-3.744-2.166-5.42-21.166-.293-24.814 4.316-3.017 9.185 3.985 9.49 11.62.37 9.23-7.01 14.43-9.196 13.195z" opacity=".33" fill="#ba2027"/><path d="M63.045 158.64c-3.68-2.14-5.323-20.945-.287-24.552 4.23-2.98 8.99 3.948 9.287 11.496.36 9.127-6.856 14.274-9 13.056z" opacity=".33" fill="#bb2027"/><path d="M63.07 158.506c-3.62-2.118-5.224-20.726-.282-24.29 4.148-2.942 8.794 3.91 9.086 11.374.352 9.023-6.702 14.116-8.805 12.916z" opacity=".33" fill="#bb2027"/><path d="M63.093 158.37c-3.555-2.092-5.122-20.503-.274-24.028 4.06-2.902 8.597 3.876 8.882 11.253.345 8.92-6.55 13.96-8.61 12.776z" opacity=".33" fill="#bc2027"/><path d="M63.118 158.237c-3.492-2.07-5.022-20.284-.267-23.768 3.98-2.864 8.403 3.84 8.682 11.13.334 8.817-6.397 13.803-8.414 12.637z" opacity=".33" fill="#bc2027"/><path d="M63.142 158.102c-3.428-2.044-4.922-20.063-.26-23.507 3.893-2.824 8.206 3.805 8.478 11.01.326 8.715-6.243 13.646-8.218 12.497z" opacity=".33" fill="#bd2028"/><path d="M63.166 157.968c-3.366-2.02-4.82-19.843-.254-23.246 3.808-2.785 8.01 3.77 8.276 10.89.318 8.61-6.09 13.487-8.022 12.356z" opacity=".33" fill="#bd2027"/><path d="M63.19 157.833c-3.302-1.996-4.72-19.622-.247-22.984 3.724-2.747 7.815 3.733 8.073 10.768.31 8.506-5.934 13.33-7.826 12.215z" opacity=".33" fill="#be2127"/><path d="M63.214 157.7c-3.24-1.973-4.62-19.403-.242-22.724 3.64-2.707 7.62 3.698 7.87 10.648.305 8.402-5.78 13.17-7.628 12.075z" opacity=".33" fill="#be2127"/><path d="M63.24 157.564c-3.176-1.947-4.522-19.18-.236-22.46 3.554-2.67 7.424 3.662 7.668 10.526.295 8.298-5.628 13.013-7.433 11.934z" opacity=".33" fill="#bf2127"/><path d="M63.263 157.43c-3.11-1.923-4.42-18.96-.23-22.2 3.47-2.63 7.23 3.626 7.467 10.405.286 8.195-5.473 12.857-7.237 11.795z" opacity=".33" fill="#bf2127"/><path d="M63.287 157.295c-3.05-1.9-4.32-18.74-.222-21.938 3.385-2.592 7.033 3.59 7.263 10.284.28 8.093-5.32 12.7-7.04 11.655z" opacity=".33" fill="#c02127"/><path d="M63.31 157.16c-2.985-1.874-4.22-18.52-.214-21.676 3.3-2.552 6.837 3.555 7.06 10.163.27 7.988-5.165 12.54-6.845 11.514z" opacity=".33" fill="#c02127"/><path d="M63.337 157.026c-2.923-1.85-4.12-18.3-.21-21.415 3.216-2.513 6.642 3.52 6.86 10.042.26 7.885-5.015 12.383-6.65 11.374z" opacity=".33" fill="#c12127"/><path d="M63.36 156.892c-2.858-1.826-4.02-18.08-.202-21.154 3.13-2.475 6.446 3.483 6.657 9.92.252 7.78-4.86 12.226-6.454 11.234z" opacity=".33" fill="#c12127"/><path d="M63.385 156.757c-2.797-1.8-3.92-17.858-.196-20.893 3.044-2.436 6.25 3.448 6.453 9.798.245 7.68-4.707 12.07-6.258 11.095z" opacity=".33" fill="#c22128"/><path d="M63.408 156.622c-2.732-1.777-3.818-17.638-.19-20.63 2.963-2.4 6.056 3.41 6.253 9.675.238 7.576-4.552 11.913-6.062 10.955z" opacity=".33" fill="#c22128"/><path d="M63.432 156.488c-2.67-1.754-3.718-17.418-.182-20.37 2.876-2.36 5.86 3.376 6.05 9.555.228 7.472-4.4 11.755-5.868 10.815z" opacity=".33" fill="#c32128"/><path d="M63.456 156.353c-2.606-1.73-3.62-17.196-.175-20.108 2.793-2.32 5.664 3.34 5.848 9.434.22 7.368-4.246 11.596-5.672 10.673z" opacity=".33" fill="#c32128"/><path d="M63.48 156.22c-2.543-1.706-3.52-16.977-.17-19.85 2.71-2.28 5.47 3.306 5.645 9.315.213 7.265-4.09 11.44-5.475 10.534z" opacity=".33" fill="#c42128"/><path d="M63.506 156.084c-2.48-1.68-3.418-16.756-.163-19.586 2.622-2.242 5.272 3.27 5.44 9.192.205 7.16-3.937 11.282-5.277 10.394z" opacity=".33" fill="#c42128"/><path d="M63.53 155.95c-2.418-1.656-3.32-16.536-.157-19.325 2.536-2.203 5.076 3.234 5.238 9.07.198 7.058-3.783 11.126-5.08 10.255z" opacity=".33" fill="#c52128"/><path d="M63.554 155.815c-2.354-1.63-3.22-16.314-.15-19.063 2.452-2.164 4.88 3.198 5.036 8.95.19 6.954-3.63 10.966-4.886 10.113z" opacity=".33" fill="#c52128"/><path d="M63.578 155.68c-2.29-1.607-3.118-16.093-.144-18.802 2.368-2.125 4.686 3.162 4.834 8.83.18 6.85-3.477 10.81-4.69 9.973z" opacity=".33" fill="#c62128"/><path d="M63.6 155.546c-2.225-1.583-3.016-15.874-.136-18.54 2.283-2.087 4.49 3.125 4.632 8.706.172 6.748-3.322 10.653-4.495 9.834z" opacity=".33" fill="#c62128"/><path d="M63.627 155.412c-2.164-1.56-2.918-15.654-.13-18.28 2.198-2.047 4.294 3.09 4.43 8.586.16 6.644-3.172 10.495-4.3 9.694z" opacity=".33" fill="#c72129"/><path d="M63.65 155.277c-2.1-1.535-2.816-15.432-.123-18.017 2.114-2.01 4.098 3.054 4.227 8.464.155 6.54-3.017 10.337-4.103 9.553z" opacity=".33" fill="#c72129"/><path d="M63.675 155.143c-2.038-1.51-2.717-15.213-.117-17.756 2.028-1.97 3.902 3.018 4.024 8.343.147 6.436-2.862 10.18-3.907 9.413z" opacity=".33" fill="#c82129"/><path d="M63.7 155.008c-1.975-1.486-2.618-14.992-.112-17.494 1.945-1.93 3.708 2.983 3.823 8.22.14 6.334-2.71 10.023-3.71 9.274z" opacity=".33" fill="#c82129"/><path d="M63.723 154.874c-1.912-1.462-2.516-14.772-.104-17.233 1.858-1.892 3.51 2.948 3.618 8.1.132 6.23-2.554 9.865-3.515 9.134z" opacity=".33" fill="#c92129"/></g><path d="M63.747 154.74c-1.848-1.438-2.416-14.55-.098-16.973 1.774-1.854 3.316 2.912 3.416 7.98.123 6.126-2.4 9.706-3.32 8.992z" clip-rule="evenodd" opacity=".33" fill="#c92129" fill-rule="evenodd"/><path d="M81.408 115.242h85.735c4.075 0 7.41 1.862 7.41 4.137v49.92c0 2.275-3.335 4.137-7.41 4.137H81.408c-4.076 0-7.41-1.86-7.41-4.136v-49.92c0-2.276 3.335-4.138 7.41-4.138z" clip-rule="evenodd" opacity=".33" fill="#a11e22" fill-rule="evenodd"/><path d="M82.668 116.098h83.215c3.956 0 7.192 1.806 7.192 4.015v48.455c0 2.208-3.236 4.015-7.192 4.015H82.668c-3.956 0-7.19-1.807-7.19-4.015v-48.456c0-2.208 3.236-4.014 7.19-4.014z" clip-rule="evenodd" opacity=".33" fill="#8a181d" fill-rule="evenodd"/></g><g><path d="M84.088 117.06h80.377c3.82 0 6.946 1.746 6.946 3.88v46.8c0 2.133-3.124 3.878-6.945 3.878H84.088c-3.82 0-6.946-1.744-6.946-3.878v-46.8c0-2.134 3.126-3.88 6.946-3.88z" clip-rule="evenodd" fill="#fff" fill-rule="evenodd"/><text transform="matrix(1.331 0 0 .743 86.302 130.929)" font-size="12.095" font-family="Dosis-Bold" fill="#a11e22">GIVE</text><text transform="matrix(1.331 0 0 .743 86.302 138.492)" font-size="8.824" font-family="Dosis-Bold" fill="#4d4d4e">BLOOD</text><g stroke-miterlimit="22.926" clip-rule="evenodd" fill="none" fill-rule="evenodd" stroke="#4d4d4e" stroke-width="1.273"><path d="M86.264 146.057h29.313"/><path d="M86.264 150.808h29.313"/><path d="M86.264 155.56h29.313"/><path d="M86.264 160.31h29.313"/><path d="M86.264 165.063h29.313"/></g><path stroke-miterlimit="22.926" clip-rule="evenodd" fill="none" fill-rule="evenodd" stroke="#4d4d4e" stroke-width="1.273" d="M188.814 310.85v65.3" transform="matrix(1.331 0 0 .743 -127.035 -109.163)"/><text transform="matrix(1.331 0 0 .743 133.366 129.524)" font-size="9.538" font-family="Dosis-Bold" fill="#4d4d4e">SAVE</text><text transform="matrix(1.331 0 0 .743 133.366 138.041)" font-size="11.238" font-family="Dosis-Bold" fill="#a11e22">LIVE</text><g stroke-miterlimit="22.926" clip-rule="evenodd" fill="none" fill-rule="evenodd" stroke="#4d4d4e" stroke-width="1.273"><path d="M132.14 146.057h29.313"/><path d="M132.14 150.808h29.313"/><path d="M132.14 155.56h29.313"/><path d="M132.14 160.31h29.313"/><path d="M132.14 165.063h29.313"/></g></g></g></svg>