<svg xmlns="http://www.w3.org/2000/svg" width="800" height="800" viewBox="0 0 800 800"><title>Analizar</title><defs><filter id="a" x="-1.037" width="3.074" y="-1.117" height="3.233" color-interpolation-filters="sRGB"><feGaussianBlur stdDeviation="307.525"/></filter><clipPath><path d="M483.41 554.55l-135.95 1.346-.657-66.415 135.95-1.342z"/></clipPath><clipPath><path d="M290.907 557.09l-135.952 1.345-.658-66.413 135.953-1.346z"/></clipPath><radialGradient cx="286.342" cy="1010.726" r="8.723" gradientTransform="matrix(-2.333 -.031 .008 -.417 957.597 665.313)" gradientUnits="userSpaceOnUse"><stop offset="0" stop-color="#D7D6D5"/><stop offset=".095" stop-color="#CCCBCA"/><stop offset=".231" stop-color="#B5B3B3"/><stop offset=".393" stop-color="#939191"/><stop offset=".575" stop-color="#696767"/><stop offset=".773" stop-color="#3E3C3C"/><stop offset=".982" stop-color="#060606"/><stop offset=".994" stop-color="#010101"/></radialGradient><radialGradient cx="288.603" cy="929.008" r="13.677" gradientTransform="matrix(-2.059 -.023 .009 -.383 883.659 596.01)" gradientUnits="userSpaceOnUse"><stop offset="0" stop-color="#fff"/><stop offset=".859" stop-color="#fff"/><stop offset="1" stop-color="#fff"/></radialGradient><clipPath><path d="M143.348 496s2.305 8.896 0 23.717c-2.305 14.82-5.856 44.96 1.025 67.027 0 0 25.49 1.236 38.994-4.034 13.504-5.27 27.667-4.65 41.83.948 14.163 5.6 42.027 6.565 51.233 1.626 11.346-6.088 29.956-6.268 45.107.65 15.15 6.916 47.003 4.918 57.64-1.324 15.15-8.89 32.442-4.942 39.03-1.65 11.105 5.554 21.742 7 41.005 5.598 0 0-2.965-15.154-3.294-29.317-.33-14.16 4.94-39.24.988-63.24H143.348z"/></clipPath><clipPath><path d="M364.25 300.93c-23.78-17.457-97.887-17.457-121.67 0-25.19 18.49-35.006 56.7-5.033 87.66 0 0-24.334 44.486 8.932 74.788C264 479.34 279 481.808 303 481.84v.002c24-.034 39.658-2.48 57.183-18.444 33.266-30.302 8.997-74.808 8.997-74.808 29.973-30.96 20.26-69.17-4.93-87.66z"/></clipPath><clipPath><path d="M364.25 300.93c-23.78-17.457-97.887-17.457-121.67 0-25.19 18.49-35.006 56.7-5.033 87.66 0 0-24.334 44.486 8.932 74.788C264 479.34 279 481.808 303 481.84v.002c24-.034 39.658-2.48 57.183-18.444 33.266-30.302 8.997-74.808 8.997-74.808 29.973-30.96 20.26-69.17-4.93-87.66z"/></clipPath><clipPath><path d="M364.25 300.93c-23.78-17.457-97.887-17.457-121.67 0-25.19 18.49-35.006 56.7-5.033 87.66 0 0-24.334 44.486 8.932 74.788C264 479.34 279 481.808 303 481.84v.002c24-.034 39.658-2.48 57.183-18.444 33.266-30.302 8.997-74.808 8.997-74.808 29.973-30.96 20.26-69.17-4.93-87.66z"/></clipPath><clipPath><path d="M364.25 300.93c-23.78-17.457-97.887-17.457-121.67 0-25.19 18.49-35.006 56.7-5.033 87.66 0 0-24.334 44.486 8.932 74.788C264 479.34 279 481.808 303 481.84v.002c24-.034 39.658-2.48 57.183-18.444 33.266-30.302 8.997-74.808 8.997-74.808 29.973-30.96 20.26-69.17-4.93-87.66z"/></clipPath><clipPath><path d="M364.25 300.93c-23.78-17.457-97.887-17.457-121.67 0-25.19 18.49-35.006 56.7-5.033 87.66 0 0-24.334 44.486 8.932 74.788C264 479.34 279 481.808 303 481.84v.002c24-.034 39.658-2.48 57.183-18.444 33.266-30.302 8.997-74.808 8.997-74.808 29.973-30.96 20.26-69.17-4.93-87.66z"/></clipPath><clipPath><path d="M364.25 300.93c-23.78-17.457-97.887-17.457-121.67 0-25.19 18.49-35.006 56.7-5.033 87.66 0 0-24.334 44.486 8.932 74.788C264 479.34 279 481.808 303 481.84v.002c24-.034 39.658-2.48 57.183-18.444 33.266-30.302 8.997-74.808 8.997-74.808 29.973-30.96 20.26-69.17-4.93-87.66z"/></clipPath><clipPath><path d="M364.25 300.93c-23.78-17.457-97.887-17.457-121.67 0-25.19 18.49-35.006 56.7-5.033 87.66 0 0-24.334 44.486 8.932 74.788C264 479.34 279 481.808 303 481.84v.002c24-.034 39.658-2.48 57.183-18.444 33.266-30.302 8.997-74.808 8.997-74.808 29.973-30.96 20.26-69.17-4.93-87.66z"/></clipPath><clipPath><path d="M364.25 300.93c-23.78-17.457-97.887-17.457-121.67 0-25.19 18.49-35.006 56.7-5.033 87.66 0 0-24.334 44.486 8.932 74.788C264 479.34 279 481.808 303 481.84v.002c24-.034 39.658-2.48 57.183-18.444 33.266-30.302 8.997-74.808 8.997-74.808 29.973-30.96 20.26-69.17-4.93-87.66z"/></clipPath><clipPath><path d="M364.25 300.93c-23.78-17.457-97.887-17.457-121.67 0-25.19 18.49-35.006 56.7-5.033 87.66 0 0-24.334 44.486 8.932 74.788C264 479.34 279 481.808 303 481.84v.002c24-.034 39.658-2.48 57.183-18.444 33.266-30.302 8.997-74.808 8.997-74.808 29.973-30.96 20.26-69.17-4.93-87.66z"/></clipPath><clipPath><path d="M364.25 300.93c-23.78-17.457-97.887-17.457-121.67 0-25.19 18.49-35.006 56.7-5.033 87.66 0 0-24.334 44.486 8.932 74.788C264 479.34 279 481.808 303 481.84v.002c24-.034 39.658-2.48 57.183-18.444 33.266-30.302 8.997-74.808 8.997-74.808 29.973-30.96 20.26-69.17-4.93-87.66z"/></clipPath><clipPath><path d="M364.25 300.93c-23.78-17.457-97.887-17.457-121.67 0-25.19 18.49-35.006 56.7-5.033 87.66 0 0-24.334 44.486 8.932 74.788C264 479.34 279 481.808 303 481.84v.002c24-.034 39.658-2.48 57.183-18.444 33.266-30.302 8.997-74.808 8.997-74.808 29.973-30.96 20.26-69.17-4.93-87.66z"/></clipPath><clipPath><path d="M364.25 300.93c-23.78-17.457-97.887-17.457-121.67 0-25.19 18.49-35.006 56.7-5.033 87.66 0 0-24.334 44.486 8.932 74.788C264 479.34 279 481.808 303 481.84v.002c24-.034 39.658-2.48 57.183-18.444 33.266-30.302 8.997-74.808 8.997-74.808 29.973-30.96 20.26-69.17-4.93-87.66z"/></clipPath><clipPath><path d="M364.25 300.93c-23.78-17.457-97.887-17.457-121.67 0-25.19 18.49-35.006 56.7-5.033 87.66 0 0-24.334 44.486 8.932 74.788C264 479.34 279 481.808 303 481.84v.002c24-.034 39.658-2.48 57.183-18.444 33.266-30.302 8.997-74.808 8.997-74.808 29.973-30.96 20.26-69.17-4.93-87.66z"/></clipPath><clipPath><path d="M364.25 300.93c-23.78-17.457-97.887-17.457-121.67 0-25.19 18.49-35.006 56.7-5.033 87.66 0 0-24.334 44.486 8.932 74.788C264 479.34 279 481.808 303 481.84v.002c24-.034 39.658-2.48 57.183-18.444 33.266-30.302 8.997-74.808 8.997-74.808 29.973-30.96 20.26-69.17-4.93-87.66z"/></clipPath><clipPath><path d="M364.25 300.93c-23.78-17.457-97.887-17.457-121.67 0-25.19 18.49-35.006 56.7-5.033 87.66 0 0-24.334 44.486 8.932 74.788C264 479.34 279 481.808 303 481.84v.002c24-.034 39.658-2.48 57.183-18.444 33.266-30.302 8.997-74.808 8.997-74.808 29.973-30.96 20.26-69.17-4.93-87.66z"/></clipPath><clipPath><path d="M364.25 300.93c-23.78-17.457-97.887-17.457-121.67 0-25.19 18.49-35.006 56.7-5.033 87.66 0 0-24.334 44.486 8.932 74.788C264 479.34 279 481.808 303 481.84v.002c24-.034 39.658-2.48 57.183-18.444 33.266-30.302 8.997-74.808 8.997-74.808 29.973-30.96 20.26-69.17-4.93-87.66z"/></clipPath><clipPath><path d="M364.25 300.93c-23.78-17.457-97.887-17.457-121.67 0-25.19 18.49-35.006 56.7-5.033 87.66 0 0-24.334 44.486 8.932 74.788C264 479.34 279 481.808 303 481.84v.002c24-.034 39.658-2.48 57.183-18.444 33.266-30.302 8.997-74.808 8.997-74.808 29.973-30.96 20.26-69.17-4.93-87.66z"/></clipPath><clipPath><path d="M144.658 369.334c-.213-.266 15.51-.972 15.51-.972s-6.363 12.353-15.51.972z"/></clipPath><clipPath><path d="M263.16 409.113c0-7.137-5.57-12.923-12.44-12.923-6.87 0-12.44 5.786-12.44 12.923 0 3.35 1.23 6.404 3.243 8.7 0 0 5.354 7.06 5.658 10.738h7.085c.304-3.673 5.66-10.733 5.66-10.733 2.01-2.297 3.24-5.35 3.24-8.7z"/></clipPath><clipPath><path d="M345.41 379.523l-1.435-.186c-.068-.804-.262-1.576-.562-2.294l1.192-.963c.128-.103.15-.297.052-.43l-1.662-2.22c-.1-.133-.286-.157-.413-.054l-1.142.923c-.58-.507-1.236-.92-1.957-1.216l.187-1.555c.02-.167-.095-.32-.256-.34l-2.686-.35c-.16-.02-.31.1-.33.265l-.178 1.49c-.773.072-1.517.273-2.208.585l-.927-1.236c-.1-.133-.285-.157-.413-.054l-2.136 1.726c-.128.103-.15.297-.052.43l.89 1.187c-.486.6-.883 1.284-1.167 2.034l-1.496-.194c-.16-.02-.305.1-.325.266l-.336 2.79c-.02.164.094.32.255.34l1.435.185c.067.804.26 1.576.56 2.294l-1.192.963c-.128.103-.15.297-.052.43l1.662 2.22c.1.133.286.157.413.054l1.144-.924c.58.504 1.236.917 1.957 1.212l-.19 1.555c-.02.17.097.32.258.344l2.686.35c.16.02.31-.1.33-.267l.178-1.49c.775-.072 1.52-.273 2.21-.585l.927 1.24c.1.133.285.157.412.054l2.135-1.727c.128-.105.15-.3.052-.43l-.89-1.19c.485-.6.882-1.282 1.167-2.032l1.496.193c.16.024.31-.096.33-.263l.337-2.79c.02-.168-.096-.32-.257-.343zm-8.893 3.285c-1.494-.194-2.554-1.61-2.367-3.162.187-1.552 1.55-2.653 3.043-2.46 1.494.195 2.554 1.61 2.367 3.163-.187 1.55-1.55 2.65-3.043 2.455z"/></clipPath><linearGradient gradientUnits="userSpaceOnUse" x1="340.484" y1="493.008" x2="293.65" y2="418.346"><stop offset="0" stop-color="#fff" stop-opacity="0"/><stop offset="1" stop-color="#002D3F"/></linearGradient><linearGradient gradientUnits="userSpaceOnUse" x1="155.502" y1="472.692" x2="141.33" y2="447.749"><stop offset="0" stop-color="#fff" stop-opacity="0"/><stop offset="1" stop-color="#002D3F"/></linearGradient><linearGradient gradientUnits="userSpaceOnUse" x1="306.121" y1="568.75" x2="292.813" y2="545.327"><stop offset="0" stop-color="#fff" stop-opacity="0"/><stop offset="1" stop-color="#002D3F"/></linearGradient><linearGradient gradientUnits="userSpaceOnUse" x1="485.452" y1="539.392" x2="459.88" y2="486.219"><stop offset="0" stop-color="#fff" stop-opacity="0"/><stop offset="1" stop-color="#002D3F"/></linearGradient><linearGradient gradientUnits="userSpaceOnUse" x1="403.59" y1="610.142" x2="385.936" y2="573.431"><stop offset="0" stop-color="#fff" stop-opacity="0"/><stop offset="1" stop-color="#002D3F"/></linearGradient><linearGradient gradientUnits="userSpaceOnUse" x1="242.337" y1="592.741" x2="229.488" y2="569.688"><stop offset="0" stop-color="#fff" stop-opacity="0"/><stop offset="1" stop-color="#002D3F"/></linearGradient><linearGradient gradientUnits="userSpaceOnUse" x1="173.55" y1="573.1" x2="151.867" y2="528.012"><stop offset="0" stop-color="#fff" stop-opacity="0"/><stop offset="1" stop-color="#002D3F"/></linearGradient><linearGradient gradientUnits="userSpaceOnUse" x1="151.699" y1="398.772" x2="141.495" y2="374.586"><stop offset="0" stop-color="#fff" stop-opacity="0"/><stop offset="1" stop-color="#002D3F"/></linearGradient><linearGradient gradientUnits="userSpaceOnUse" x1="163.873" y1="331.586" x2="154.32" y2="314.469"><stop offset="0" stop-color="#fff" stop-opacity="0"/><stop offset="1" stop-color="#002D3F"/></linearGradient><linearGradient gradientUnits="userSpaceOnUse" x1="448.18" y1="362.812" x2="439.11" y2="330.5"><stop offset="0" stop-color="#fff" stop-opacity="0"/><stop offset="1" stop-color="#002D3F"/></linearGradient><linearGradient gradientUnits="userSpaceOnUse" x1="480.342" y1="435.964" x2="452.565" y2="376.441"><stop offset="0" stop-color="#fff" stop-opacity="0"/><stop offset="1" stop-color="#002D3F"/></linearGradient><linearGradient gradientUnits="userSpaceOnUse" x1="253.297" y1="337.978" x2="250.862" y2="305.71"><stop offset="0" stop-color="#fff" stop-opacity="0"/><stop offset="1" stop-color="#002D3F"/></linearGradient><linearGradient gradientUnits="userSpaceOnUse" x1="379.649" y1="321.783" x2="367.714" y2="285.409"><stop offset="0" stop-color="#fff" stop-opacity="0"/><stop offset="1" stop-color="#002D3F"/></linearGradient></defs><rect width="711.864" height="661.017" x="57.627" y="54.237" rx="1.542" ry="1.143" fill="#efe2c2" fill-opacity="0" filter="url(#a)"/><path d="M406.812 482.352c-82.31 0-149.034-66.73-149.034-149.042 0-82.313 66.725-149.042 149.034-149.042 82.317 0 149.043 66.73 149.043 149.042 0 82.314-66.726 149.042-149.043 149.042z" fill="#7bc0c9"/><path d="M597.29 302.41H495.747c.192.813 1.176 1.45 2.41 1.552h99.134v-1.552z" fill="#f8a81b"/><path d="M597.29 307.653v-3.69h-99.134.002c-.01 0-.02.003-.03.004h.033c-1.38.114-2.45.893-2.45 1.84.005.948 1.07 1.726 2.45 1.838-.005 0-.02 0-.03.002.01 0 .02.004.03.005h99.133z" fill="#f5e6b6"/><path d="M498.157 307.653c-1.235.1-2.22.738-2.41 1.55H597.29v-1.55h-99.133z" fill="#f8a81b"/><path d="M495.745 309.208c.19-.814 1.174-1.453 2.41-1.555h.002l-.03-.006c.01 0 .024 0 .033-.002-1.38-.112-2.45-.89-2.452-1.838.002-.947 1.072-1.726 2.452-1.84h-.034c.01-.002.02-.004.03-.004-1.238-.102-2.222-.74-2.412-1.556l-6.505 3.4 6.502 3.4z" fill="#f0b16d"/><path d="M492.433 304.138l-3.193 1.67 3.192 1.67c.195-.54.303-1.096.3-1.67.003-.575-.105-1.134-.3-1.67z" fill="#103754"/><path fill="#c6232a" d="M597.328 302.41h3.08v1.553h-3.08z"/><path fill="#f15c69" d="M597.328 303.962h3.078v3.69h-3.078z"/><path fill="#c6232a" d="M597.328 307.653h3.08v1.55h-3.08z"/><path d="M602.814 282.784c-.325 0-.657-.077-.96-.246l-17.036-9.154c-3.277-1.762-6.77-3.114-10.374-4.022-3.606-.913-7.323-1.37-11.044-1.37h-74.89v-4.062h74.89c4.055 0 8.102.506 12.036 1.493 3.927.99 7.73 2.466 11.302 4.39l17.038 9.154c.99.53 1.357 1.76.827 2.747-.367.68-1.067 1.07-1.79 1.07zm-116.447 0c.324 0 .655-.077.96-.246l17.036-9.154c3.277-1.762 6.768-3.114 10.372-4.022 3.607-.913 7.325-1.37 11.045-1.37h74.892v-4.062H525.78c-4.056 0-8.104.506-12.034 1.493-3.93.99-7.73 2.466-11.306 4.39l-17.036 9.154c-.987.53-1.357 1.76-.827 2.747.368.68 1.068 1.07 1.79 1.07z" fill="#51677f"/><path d="M539.254 267.162c0-2.942 2.394-5.332 5.334-5.332 2.945 0 5.34 2.39 5.34 5.332h4.056c0-5.188-4.203-9.393-9.396-9.393-5.187 0-9.392 4.2-9.392 9.39h4.058z" fill="#21374d"/><path d="M535.196 273.516c0 4.276-3.5 7.775-7.774 7.775h-27.08c-4.276 0-7.773-3.494-7.773-7.77v-14.6c0-4.276 3.494-7.775 7.77-7.775h27.08c4.275 0 7.773 3.5 7.773 7.775v14.6z" fill="#e1effa"/><path d="M527.422 251.142h-14.9v30.148h14.9c4.276 0 7.774-3.498 7.774-7.775v-14.6c0-4.274-3.498-7.773-7.774-7.773z" fill="#cee2f1"/><path d="M596.493 273.516c0 4.276-3.5 7.775-7.775 7.775h-27.08c-4.276 0-7.773-3.494-7.773-7.77v-14.6c0-4.276 3.498-7.775 7.773-7.775h27.08c4.276 0 7.775 3.5 7.775 7.775v14.6z" fill="#e1effa"/><path d="M588.718 251.142H573.82v30.148h14.898c4.276 0 7.775-3.498 7.775-7.775v-14.6c0-4.274-3.5-7.773-7.775-7.773z" fill="#cee2f1"/><path d="M529.438 247.185h-31.113c-5.4 0-9.815 4.417-9.815 9.815v18.432c0 5.398 4.416 9.815 9.815 9.815h31.113c5.4 0 9.816-4.417 9.816-9.815V257c0-5.398-4.417-9.815-9.816-9.815zm5.758 26.33c0 4.277-3.5 7.776-7.774 7.776h-27.08c-4.276 0-7.773-3.494-7.773-7.77v-14.6c0-4.276 3.494-7.775 7.77-7.775h27.08c4.275 0 7.773 3.5 7.773 7.775v14.6zm55.54-26.33H559.62c-5.4 0-9.816 4.417-9.816 9.815v18.432c0 5.398 4.417 9.815 9.816 9.815h31.113c5.4 0 9.815-4.417 9.815-9.815V257c0-5.398-4.416-9.815-9.815-9.815zm5.757 26.33c0 4.277-3.5 7.776-7.775 7.776h-27.08c-4.276 0-7.773-3.494-7.773-7.77v-14.6c0-4.276 3.498-7.775 7.773-7.775h27.08c4.276 0 7.775 3.5 7.775 7.775v14.6z" fill="#2b455f"/><path d="M185.823 249.096l168.877.093-.133 238.84-168.878-.095.13-238.842z" clip-rule="evenodd" fill="#fff" fill-rule="evenodd"/><path d="M289.396 374.73c-.908 2.804-2.37 5.327-4.33 7.438l14.767 20.616c7.463-6.432 12.825-15.22 14.855-25.25l-25.292-2.805z" fill="#a7dae9"/><path d="M274.326 348.582c8.603 1.793 15.122 9.05 15.978 17.947l25.256 2.782c0-.284.036-.56.036-.853 0-23.67-18.133-43.095-41.27-45.19v25.31z" fill="#f99b1f"/><path d="M255.252 354.852c2.812-3.115 6.534-5.38 10.83-6.27v-25.31c-13.486 1.212-25.204 8.32-32.703 18.705l21.87 12.875z" fill="#19b0bf"/><path d="M278.388 386.995c-2.51 1.122-5.273 1.764-8.194 1.764-11.204 0-20.288-9.098-20.288-20.3 0-2.29.464-4.447 1.16-6.494l-21.874-12.888c-2.778 5.885-4.4 12.433-4.4 19.38 0 25.076 20.32 45.39 45.4 45.39 8.37 0 16.194-2.287 22.924-6.26l-14.728-20.6z" fill="#4e8eb4"/><path fill="#f99b1f" d="M203.28 265.194h21.133v6.15H203.28z"/><path fill="#19b0bf" d="M203.28 279.21h21.133v6.148H203.28z"/><path fill="#a7dae9" d="M203.28 293.224h21.133v6.15H203.28z"/><path fill="#4e8eb4" d="M203.28 307.24h21.133v6.148H203.28z"/><path fill="#cdcccc" d="M238.722 265.5h98.386v6.92h-98.386zm0 20.68h98.386v6.914h-98.386zm0 20.68h98.386v6.908h-98.386zm0-10.34h98.386v6.91h-98.386zm0-20.676h98.386v6.908h-98.386zm-35.44 144.323h4.472v47.517h-4.472zm-.002 47.518h133.828v4.472H203.28z"/><path fill="#19b0bf" d="M219.494 446.555h11.98v21.13h-11.98z"/><path fill="#a7dae9" d="M219.494 435.99h11.98v10.564h-11.98z"/><path fill="#19b0bf" d="M241.836 437.405h11.982v30.28h-11.982z"/><path fill="#a7dae9" d="M241.836 431.35h11.982v6.055h-11.982z"/><path fill="#19b0bf" d="M264.178 452.31h11.98v15.375h-11.98z"/><path fill="#a7dae9" d="M264.178 441.273h11.98v11.038h-11.98z"/><path fill="#19b0bf" d="M286.52 458.88h11.98v8.805h-11.98z"/><path fill="#a7dae9" d="M286.52 450.077h11.98v8.803h-11.98z"/><path clip-rule="evenodd" opacity=".1" fill="#010101" fill-rule="evenodd" d="M354.72 457.263l-48.655-.05.21-208.16 48.654.05z"/><g transform="translate(97.627 -83.246)"><path d="M216.58 295.93l167.305.092-.132 236.616-167.304-.094.13-236.615z" clip-rule="evenodd" fill="#fff" fill-rule="evenodd"/><g clip-rule="evenodd" fill-rule="evenodd"><path fill="#4e8eb4" d="M252 431.394l-14.45-.01.027-13.143 14.45.01z"/><path fill="#609dc1" d="M268.707 431.402l-14.45-.008.016-18.81 14.45.006z"/><path fill="#74accd" d="M285.412 431.41l-14.45-.006.016-31.996 14.45.007z"/><path fill="#88bbda" d="M302.12 431.42l-14.45-.01.018-27.556 14.45.01z"/><path fill="#9bcae6" d="M318.83 431.43l-14.45-.01.008-13.793 14.45.01z"/><path fill="#74accd" d="M335.11 431.41l-14.448-.007.01-18.994 14.448.004z"/><path fill="#88bbda" d="M351.815 431.42l-14.448-.01.018-27.56 14.448.01z"/><path fill="#9bcae6" d="M368.524 431.43l-14.45-.008.01-45.77 14.45.007z"/></g><path clip-rule="evenodd" fill="#cdcccc" fill-rule="evenodd" d="M294.53 455.056l-62.686-.035.002-4.16 62.687.034zm-.004 7.287l-62.69-.033.002-4.165 62.69.033zm-.004 7.29l-62.687-.035.002-4.165 62.687.035zm-.005 7.287l-62.688-.034v-4.164l62.69.035zm-.004 7.29l-62.688-.033.002-4.165 62.688.034zm-.003 7.29l-62.69-.034.003-4.166 62.69.035zm-.005 7.292l-62.69-.035.002-4.168 62.69.03zm-31.345 7.27l-31.345-.018.002-4.165 31.344.014zm105.277-50.965l-62.688-.034v-4.165l62.69.034zm-.004 7.288l-62.69-.034.002-4.16 62.69.033zm-.005 7.29l-62.688-.034.002-4.163 62.688.033zm-.004 7.288l-62.69-.035.004-4.163 62.69.035zm-.004 7.29l-62.687-.036.002-4.164 62.687.036zm-.004 7.287l-62.69-.034.004-4.165 62.69.04zm-.004 7.29l-62.69-.033.002-4.167 62.69.034zm-18.567 7.28l-44.125-.025.002-4.165 44.125.024z"/><path fill="#fdc015" d="M315.73 363.493l-30.866-21.103-44.006 32.457-3.844-5.21 47.707-35.186 31.01 21.2 49.52-33.91 3.655 5.34zm53.625-25.073h-5.18V327h-11.42v-5.178h16.6z"/><circle cx="315.318" cy="358.356" r="7.121" fill="#19b0bf"/><circle cx="284.899" cy="338.421" r="7.12" fill="#19b0bf"/></g><path d="M408.536 368.4c-6.713 6.713-10.42 15.628-10.44 25.093-.037 19.62 15.896 35.612 35.52 35.642 9.518.02 18.475-3.688 25.237-10.444 6.71-6.71 10.414-15.61 10.43-25.07.02-9.49-3.676-18.43-10.398-25.172-6.72-6.746-15.646-10.465-25.14-10.485-9.505-.014-18.46 3.694-25.21 10.44z" opacity=".1" fill="#fff"/><path d="M463.463 423.302" fill="none"/><path d="M456.474 420.864c.395-.33.785-.67 1.167-1.018-.38.35-.77.688-1.163 1.018zm1.246-1.09c.383-.35.76-.712 1.132-1.083-.37.375-.75.735-1.133 1.088z" fill="#a7dae9"/><path d="M408.536 368.4c6.03-6.027 13.82-9.626 22.19-10.315-1.636.136-3.248.385-4.83.74-3.875 1.752-7.443 4.198-10.544 7.304-6.712 6.71-10.416 15.62-10.434 25.09-.038 19.62 15.897 35.61 35.52 35.65 2.67 0 5.304-.297 7.854-.867 2.9-1.312 5.63-3.014 8.12-5.088-6.407 5.34-14.382 8.236-22.797 8.22-19.624-.03-35.556-16.022-35.52-35.642.022-9.47 3.728-18.384 10.44-25.096z" opacity=".6" fill="#fff"/><path d="M430.786 358.08c.28-.023.56-.042.842-.06-.28.02-.56.036-.842.06zm1.02-.07c.25-.012.502-.022.753-.03-.255.008-.507.018-.758.03zm.982-.037c.318-.008.637-.013.956-.013-.32 0-.638.005-.956.013z" fill="#a7dae9"/><path d="M477.482 437.718c-2.39 2.387-6.263 2.375-8.647-.017l-7.622-7.865c-2.38-2.393-2.377-6.257.005-8.64l.02-.01c2.39-2.383 6.26-2.378 8.646.02l7.62 7.865c2.38 2.39 2.378 6.254-.008 8.64 0 0-.012.006-.014.01z" fill="#0f303f"/><path d="M385.863 393.47c-.05 26.364 21.366 47.857 47.732 47.904 12.794.02 24.84-4.96 33.907-14.028v-.004c9.017-9.013 13.99-20.985 14.01-33.703.027-12.76-4.935-24.777-13.96-33.83-9.028-9.06-21.028-14.06-33.78-14.085-12.79-.018-24.823 4.957-33.89 14.02-9.018 9.02-14 21-14.02 33.723zm12.233.023c.02-9.466 3.727-18.38 10.44-25.093 6.75-6.747 15.704-10.455 25.21-10.44 9.493.02 18.42 3.74 25.14 10.485 6.72 6.743 10.416 15.68 10.398 25.173-.017 9.46-3.72 18.363-10.43 25.073-6.763 6.76-15.72 10.467-25.24 10.448-19.623-.03-35.555-16.02-35.518-35.642z" fill="#2d5972"/><path fill="#103754" d="M536.123 478.77l-17.39 17.392-54.465-54.464 17.39-17.39z"/><path fill="#2d5972" d="M532.52 482.373l-10.186 10.185-54.465-54.465 10.18-10.185z"/><path fill="#0f303f" d="M536.13 478.775l-17.39 17.39-8.354-8.352 17.392-17.39z"/><path fill="#164967" d="M532.523 482.398l-10.185 10.185-8.353-8.353 10.185-10.185z"/><path d="M449.835 368.28c-8.512-4.205-18.145-4.854-27.116-1.836-3.12 1.05-5.986 2.497-8.58 4.255l2.63 6.965c3.024-2.326 6.473-4.208 10.29-5.492 8.973-3.022 18.6-2.374 27.112 1.83 3.927 1.937 7.443 4.628 10.342 7.727-3.47-5.742-8.504-10.4-14.682-13.453z" opacity=".6" fill="#fff"/><path d="M581.48 356.016h-73.313v69.915c0 .87.332 1.74.998 2.405.662.66 1.53.993 2.4.993h66.52c.867 0 1.736-.332 2.4-.993.66-.662.996-1.532.996-2.4V356.02z" fill="#627b93"/><path opacity=".1" fill="#fff" d="M517.44 356.016h64.04v61.51z"/><path d="M541.31 371.745c0 .327-.268.596-.593.596h-24.422c-.327 0-.592-.264-.592-.592v-7.86c0-.322.266-.59.592-.59h24.422c.325 0 .594.268.594.59v7.86z" fill="#50c4d0"/><path d="M557.88 371.745c0 .327-.267.596-.595.596h-7.85c-.325 0-.592-.264-.592-.592v-7.86c0-.322.267-.59.592-.59h7.85c.327 0 .596.268.596.59v7.86z" fill="#e44925"/><path d="M574.445 371.745c0 .327-.265.596-.59.596h-7.853c-.324 0-.59-.264-.59-.592v-7.86c0-.322.266-.59.59-.59h7.853c.325 0 .59.268.59.59v7.86zM524.74 388.32c0 .322-.264.587-.59.587h-7.855c-.327 0-.592-.265-.592-.588v-7.86c0-.33.266-.59.592-.59h7.854c.323 0 .59.26.59.59v7.86zm16.57 0c0 .322-.268.587-.593.587h-7.853c-.327 0-.594-.265-.594-.588v-7.86c0-.33.266-.59.594-.59h7.853c.325 0 .594.26.594.59v7.86zm16.57 0c0 .322-.267.587-.595.587h-7.85c-.325 0-.592-.265-.592-.588v-7.86c0-.33.267-.59.592-.59h7.85c.327 0 .596.26.596.59v7.86zm16.565 0c0 .322-.265.587-.59.587h-7.853c-.324 0-.59-.265-.59-.588v-7.86c0-.33.266-.59.59-.59h7.853c.325 0 .59.26.59.59v7.86zm-49.705 16.565c0 .327-.264.592-.59.592h-7.855c-.327 0-.592-.266-.592-.592v-7.855c0-.327.266-.592.592-.592h7.854c.323 0 .59.265.59.592v7.855zm16.57 0c0 .327-.268.592-.593.592h-7.853c-.327 0-.594-.266-.594-.592v-7.855c0-.327.266-.592.594-.592h7.853c.325 0 .594.265.594.592v7.855z" fill="#f3f9fd"/><path d="M557.88 404.885c0 .327-.267.592-.595.592h-7.85c-.325 0-.592-.266-.592-.592v-7.855c0-.327.267-.592.592-.592h7.85c.327 0 .596.265.596.592v7.855z" fill="#21374d"/><path d="M524.74 421.454c0 .327-.264.592-.59.592h-7.855c-.327 0-.592-.265-.592-.592v-7.85c0-.328.266-.597.592-.597h7.854c.323 0 .59.27.59.596v7.85zm16.57 0c0 .327-.268.592-.593.592h-7.853c-.327 0-.594-.265-.594-.592v-7.85c0-.328.266-.597.594-.597h7.853c.325 0 .594.27.594.596v7.85z" fill="#f3f9fd"/><path d="M557.88 421.454c0 .327-.267.592-.595.592h-7.85c-.325 0-.592-.265-.592-.592v-7.85c0-.328.267-.597.592-.597h7.85c.327 0 .596.27.596.596v7.85zm16.565 0c0 .327-.265.592-.59.592h-7.853c-.324 0-.59-.265-.59-.592v-7.85c0-.328.266-.597.59-.597h7.853c.325 0 .59.27.59.596v7.85zm0-16.57c0 .328-.265.593-.59.593h-7.853c-.324 0-.59-.266-.59-.592v-7.855c0-.327.266-.592.59-.592h7.853c.325 0 .59.265.59.592v7.855z" fill="#21374d"/><path d="M581.48 326.78c0-.87-.334-1.74-.995-2.402-.664-.664-1.533-.995-2.4-.995h-66.52c-.87 0-1.738.33-2.4.995-.666.663-.998 1.532-.998 2.403v29.24h73.314v-29.24z" fill="#375872"/><path d="M516.295 350.15c-.534 0-1.04-.206-1.417-.586-.378-.378-.588-.88-.588-1.416v-16.892c0-.534.21-1.04.588-1.415s.883-.584 1.417-.584h57.56c.54 0 1.046.21 1.423.592.373.372.583.877.583 1.41v16.893c0 .536-.21 1.037-.583 1.416-.373.376-.88.587-1.42.587h-57.56z" fill="#2f506c"/><path d="M516.295 330.664c-.15 0-.302.058-.418.174-.116.115-.174.268-.174.418v16.892c0 .15.058.302.174.418.116.116.267.174.418.174h57.56c.152 0 .302-.058.42-.174.113-.116.17-.27.17-.418v-16.892c0-.15-.057-.303-.17-.418-.117-.116-.268-.174-.42-.174h-57.56z" fill="#fdc015"/><path fill="#2f506c" d="M508.167 354.604h73.314v1.412h-73.31z"/></svg>