<?xml version="1.0" encoding="UTF-8" standalone="no"?>
<!-- Generator: Adobe Illustrator 17.0.0, SVG Export Plug-In . SVG Version: 6.00 Build 0)  -->

<svg
   xmlns:dc="http://purl.org/dc/elements/1.1/"
   xmlns:cc="http://creativecommons.org/ns#"
   xmlns:rdf="http://www.w3.org/1999/02/22-rdf-syntax-ns#"
   xmlns:svg="http://www.w3.org/2000/svg"
   xmlns="http://www.w3.org/2000/svg"
   xmlns:xlink="http://www.w3.org/1999/xlink"
   xmlns:sodipodi="http://sodipodi.sourceforge.net/DTD/sodipodi-0.dtd"
   xmlns:inkscape="http://www.inkscape.org/namespaces/inkscape"
   version="1.1"
   x="0px"
   y="0px"
   width="800px"
   height="800px"
   viewBox="0 0 800 800"
   enable-background="new 0 0 800 800"
   xml:space="preserve"
   id="svg2"
   inkscape:version="0.91pre3 r13670"
   sodipodi:docname="asustarse.svg"><metadata
     id="metadata393"><rdf:RDF><cc:Work
         rdf:about=""><dc:format>image/svg+xml</dc:format><dc:type
           rdf:resource="http://purl.org/dc/dcmitype/StillImage" /></cc:Work></rdf:RDF></metadata><defs
     id="defs391"><inkscape:perspective
       sodipodi:type="inkscape:persp3d"
       inkscape:vp_x="0 : 400 : 1"
       inkscape:vp_y="0 : 1000 : 0"
       inkscape:vp_z="800 : 400 : 1"
       inkscape:persp3d-origin="400 : 266.66667 : 1"
       id="perspective8563" /><filter
       inkscape:collect="always"
       style="color-interpolation-filters:sRGB"
       id="filter8459"
       x="-1.0368"
       width="3.0736001"
       y="-1.1165538"
       height="3.2331076"><feGaussianBlur
         inkscape:collect="always"
         stdDeviation="307.52542"
         id="feGaussianBlur8461" /></filter></defs><sodipodi:namedview
     pagecolor="#ffffff"
     bordercolor="#666666"
     borderopacity="1"
     objecttolerance="10"
     gridtolerance="10"
     guidetolerance="10"
     inkscape:pageopacity="0"
     inkscape:pageshadow="2"
     inkscape:window-width="1366"
     inkscape:window-height="705"
     id="namedview389"
     showgrid="false"
     inkscape:zoom="0.295"
     inkscape:cx="-923.72881"
     inkscape:cy="400"
     inkscape:window-x="-8"
     inkscape:window-y="-8"
     inkscape:window-maximized="1"
     inkscape:current-layer="layer2" /><g
     id="Capa_3"
     display="none"><path
       display="inline"
       fill-rule="evenodd"
       clip-rule="evenodd"
       fill="#F06162"
       d="M760.814,655.793   c0,41.134-34.838,74.479-77.813,74.479H116.999c-42.975,0-77.813-33.346-77.813-74.479V120.526   c0-41.134,34.838-74.479,77.813-74.479h566.001c42.975,0,77.813,33.346,77.813,74.479V655.793z"
       id="path5" /><path
       display="inline"
       fill-rule="evenodd"
       clip-rule="evenodd"
       fill="#F0E3C3"
       d="M729.808,633.022   c0,37.634-31.844,68.143-71.126,68.143H141.318c-39.282,0-71.126-30.508-71.126-68.143V143.296   c0-37.634,31.844-68.143,71.126-68.143h517.364c39.282,0,71.126,30.508,71.126,68.143V633.022z"
       id="path7" /></g><g
     id="Capa_4"
     display="none"><rect
       x="73.766"
       y="269.778"
       display="inline"
       fill="#DFE5E6"
       width="652.467"
       height="219.525"
       id="rect10" /></g><g
     id="background"
     display="none"><g
       display="inline"
       id="g13"><g
         id="g15"><path
           fill="#AE4C43"
           d="M693.356,473.801c-0.211,0-0.395-0.026-0.541-0.06l-1.343-0.313l-0.515-1.724     c0.018,0.039,0.212,0.395,0.617,0.645l0.872-1.398l-0.924-0.246c0.299-1.127,0.598-2.191,0.885-3.217     c1.543-5.49,2.662-9.458,0.99-15.23c-0.536-1.856-1.1-3.677-1.659-5.485c-1.667-5.389-3.391-10.968-4.184-16.955     c-0.106-0.774-0.233-1.716-0.347-2.767c-2.011-0.14-3.947-0.756-5.785-1.848c-8.425-4.979-12.42-18.903-13.449-26.347     c-1.544-11.126-3-21.638-14.342-25.208c-9.077-2.86-20.751-2.627-31.056-2.422c-2.7,0.053-5.345,0.106-7.879,0.106     c-6.563,0-10.342,0.38-14.346,0.785c-3.731,0.378-7.593,0.768-13.814,0.825c-2.965,0.028-8.288,0.17-13.66,0.314     c-5.662,0.152-11.377,0.304-14.491,0.328c-3.428,0.053-6.92-0.196-10.287-0.416c-4.218-0.275-8.587-0.561-12.872-0.336     c-11.662,0.587-24.456,0.53-39.113-0.167c-9.833-0.469-18.799,0.106-28.284,0.715c-13.885,0.895-28.24,1.819-46.4-0.565     c-7.884-1.032-15.977-0.995-23.803-0.94c-6.7,0.033-13.623,0.075-20.451-0.55c-10.074-0.933-20.452,0.161-30.496,1.221     c-3.724,0.394-7.424,0.783-11.088,1.071c-20.079,1.581-40.325,3.594-59.906,5.543c-7.05,0.702-14.107,1.403-21.181,2.088     c-11.904,1.152-25.808,1.097-40.206-0.163c-5.109-0.447-9.72-1.534-14.179-2.585c-7.041-1.657-13.695-3.22-21.552-2.103     c-14.967,2.136-29.299,4.767-40.177,13.387c-9.344,7.408-11.477,14.843-14.181,24.254c-1.04,3.624-2.116,7.368-3.7,11.442     c-2.782,7.163-6.324,12.182-14.555,13.401c-1.305,0.197-2.768,0.176-4.186,0.168c-2.028-0.027-4.846-0.054-5.501,0.822     c-0.15,0.198-0.579,1.056,0.215,3.678c0.541,1.791,2.092,2.961,3.885,4.317c2.778,2.094,6.234,4.703,5.237,10.21     c-1.311,7.242-7.93,7.11-11.856,7.044c-1.472-0.026-3.487-0.066-4.008,0.343l-2.767-3.555c1.78-1.386,4.237-1.342,6.859-1.293     c4.656,0.106,6.773-0.207,7.338-3.339c0.482-2.661-0.801-3.766-3.515-5.816c-2.119-1.597-4.518-3.41-5.484-6.608     c-1.021-3.371-0.86-5.882,0.493-7.686c2.024-2.697,5.812-2.649,9.151-2.622c1.3,0.017,2.523,0.027,3.48-0.119     c6.159-0.91,8.625-4.421,11.018-10.575c1.507-3.88,2.554-7.527,3.566-11.052c2.695-9.379,5.237-18.239,15.714-26.544     c11.759-9.319,26.737-12.089,42.337-14.317c8.7-1.239,16.082,0.499,23.222,2.18c4.305,1.014,8.754,2.063,13.539,2.481     c14.126,1.234,27.74,1.293,39.379,0.167c7.072-0.686,14.124-1.388,21.171-2.087c19.601-1.952,39.871-3.966,59.998-5.552     c3.623-0.286,7.285-0.671,10.97-1.058c10.261-1.082,20.873-2.198,31.38-1.23c6.608,0.61,13.409,0.563,20.01,0.532     c7.98-0.057,16.227-0.094,24.415,0.979c17.724,2.318,31.855,1.417,45.524,0.534c9.616-0.616,18.705-1.201,28.789-0.719     c14.505,0.695,27.162,0.754,38.67,0.167c4.549-0.229,9.045,0.06,13.392,0.341c3.437,0.222,6.662,0.458,9.961,0.407     c3.097-0.024,8.781-0.176,14.408-0.326c5.402-0.145,10.752-0.288,13.739-0.317c6.01-0.055,9.772-0.435,13.405-0.801     c3.933-0.398,8.007-0.81,14.795-0.81c2.503,0,5.116-0.052,7.791-0.105c10.646-0.216,22.714-0.451,32.498,2.628     c14.061,4.428,15.86,17.421,17.447,28.887c0.858,6.184,4.32,18.974,11.28,23.092c1.021,0.603,2.077,0.985,3.172,1.152     c-0.136-5.601,0.867-11.79,6.147-12.864c5.094-1.038,6.458,2.284,6.761,3.326c1.201,4.14-2.336,11.592-6.208,13.066     c-0.634,0.242-1.263,0.444-1.888,0.603c0.08,0.721,0.167,1.483,0.277,2.288c0.787,5.939,2.379,11.09,4.07,16.546     c0.563,1.83,1.135,3.678,1.68,5.56c2.029,7.007,0.634,11.966-0.98,17.707c-0.281,0.999-0.576,2.04-0.866,3.141l-0.458,0.885     C694.693,473.594,693.928,473.801,693.356,473.801z M694.834,413.921c-0.216,0-0.515,0.027-0.906,0.107     c-1.109,0.229-2.653,1.667-2.539,7.98c0.198-0.066,0.391-0.133,0.59-0.211c0.836-0.317,2.86-3.005,3.431-5.847     c0.268-1.32,0.031-1.879-0.026-1.936C695.384,414.014,695.244,413.921,694.834,413.921z"
           id="path17" /></g><path
         fill="#B68AD1"
         d="M332.091,469.877c0.944,2.318,1.885,5.82,3.379,7.628c5.284-1.887,15.363-2.701,18.271-8.121    c-3.233-1.337-11.084-0.624-14.265,0.458c-0.787-1.668-1.727-3.973-2.879-5.314L332.091,469.877z"
         id="path19" /><path
         fill="#B68AD1"
         d="M273.283,465.587c-1.817,1.724-4.734,3.88-5.873,5.93c3.684,4.232,8.115,13.322,14.221,14.052    c0.07-3.498-3.456-10.55-5.622-13.118c1.262-1.338,3.069-3.054,3.897-4.616L273.283,465.587z"
         id="path21" /><path
         fill="#005774"
         d="M276.343,425.673c-0.341,3.079-1.102,6.458-0.35,9.595c0.59,2.463,2.303,4.575,2.884,6.937    c1.355,5.504-3.322,10.651-6.491,14.734c-1.572,2.028-3.953,3.692-5.263,5.9c-1.615,2.719,0.138,3.524,2.729,5.143    c1.951,1.218,4.387,2.626,6.492,3.528c3.306,1.425,3.533-0.229,5.576-2.79c3.169-3.972,6.63-7.606,9.566-11.807    c3.069-4.395,3.599-7.206,4.566-12.095c1.056-5.331,4.182-10.149,5.281-15.775c0.456-2.332,2.089-7.919,0.932-10.141    c-0.671-1.288-4.718-3.273-6.121-4.003c-2.222-1.161-5.013-2.181-7.42-2.952c-2.646-0.848-5.46-0.906-8.44-0.914L276.343,425.673z    "
         id="path23" /><path
         opacity="0.23"
         fill="#005774"
         d="M276.343,425.673c-0.341,3.079-1.102,6.458-0.35,9.595c0.59,2.463,2.303,4.575,2.884,6.937    c1.355,5.504-3.322,10.651-6.491,14.734c-1.572,2.028-3.953,3.692-5.263,5.9c-1.615,2.719,0.138,3.524,2.729,5.143    c1.951,1.218,4.387,2.626,6.492,3.528c3.306,1.425,3.533-0.229,5.576-2.79c3.169-3.972,6.63-7.606,9.566-11.807    c3.069-4.395,3.599-7.206,4.566-12.095c1.056-5.331,4.182-10.149,5.281-15.775c0.456-2.332,2.089-7.919,0.932-10.141    c-0.671-1.288-4.718-3.273-6.121-4.003c-2.222-1.161-5.013-2.181-7.42-2.952c-2.646-0.848-5.46-0.906-8.44-0.914L276.343,425.673z    "
         id="path25" /><path
         fill="#005774"
         d="M290.702,429.615c2.274,3.955,6.377,7.175,9.298,10.698c1.824,2.195,3.368,4.184,5.343,6.194    c4.562,4.638,8.682,9.204,13.515,13.506c2.428,2.164,4.688,4.276,6.397,7.109c1.315,2.177,2.233,5.21,5.076,4.95    c2.063-0.185,5.433-2.996,7.116-4.246c2.699-2.002,2.378-2.099,1.19-4.989c-2.09-5.081-4.45-10.11-6.476-15.2    c-1.069-2.679-1.991-5.362-3.244-7.946c-1.54-3.167-4.089-5.846-5.906-8.952c-3.04-5.196-5.724-10.506-8.3-15.895    c-3.154-6.604-9.333-2.058-14.717-0.153c-2.862,1.012-4.312,1.311-5.842,4.223c-1.193,2.266-1.39,5.272-2.886,7.04    L290.702,429.615z"
         id="path27" /><path
         fill="#E95F7D"
         d="M275.687,420.511c0.359,2.868-1.618,4.879-1.069,7.827c2.213,0.357,3.931-0.59,5.948-0.612    c2.406-0.026,4.434,0.809,6.766,1.513c3.311,0.995,3.676,1.162,6.584-0.4c2.228-1.193,3.831-2.852,6.652-3.093    c4.984-0.432,7.943,3.929,12.305-0.348c2.252-2.214,1.892-4.246,5.339-5.178c2.01-0.55,5.868,1.139,5.846-1.901    c-3.634-1.074-5.612-2.723-8.119-5.34c-3.169-3.305-4.476-2.262-8.718-1.189c-9.005,2.274-21.079-1.43-29.282,1.962    L275.687,420.511z"
         id="path29" /><path
         fill="#FF9DB9"
         d="M252.41,368.795c1.099,2.202,1.52,4.833,2.549,7.116c1.331,2.95,3.143,5.686,4.85,8.432    c2.97,4.784,7.175,8.62,9.494,13.807c2.165,4.844,3.174,9.481,2.191,14.632c-0.737,3.863,0.367,7.369,2.081,10.871    c5.512-0.255,11.339,0.858,16.9,0.612c4.109-0.185,8.275-1.192,12.327-2.177c3.673-0.893,8.258-1.751,11.551-3.524    c1.291-0.695,4.821-2.952,5.081-4.43c0.322-1.826-2.466-6.555-3.391-8.169c-2.835-4.945-4.903-10.287-7.813-15.209    c-1.859-3.141-3.788-6.082-5.763-8.973c-6.806-7.927-10.437-10.65-17.664-17.648c-1.331-1.289-8.385-7.123-9.79-8.361    c-4.041-3.557-9.91-3.949-15.011-4.168c-4.573-0.196-4.285,2.686-5.681,6.491c-0.269,0.726-0.693,1.36-0.783,1.69L252.41,368.795z    "
         id="path31" /><path
         fill="#FFAD32"
         d="M280.003,304.318c6.672,0.707,4.441-8.728,4.441-17.199c-18.503-4.905-41.166-13.235-56.074,3.427    c-17.439,19.496-13.915,48.136-4.138,70.762c3.506,8.113,5.203,15.266,14.76,15.241c8.642-0.022,17.569-1.984,24.674-7.344    c-1.775-3.047-3.583-15.033-5.625-17.771L280.003,304.318z"
         id="path33" /><path
         fill="#FFD5AD"
         d="M256.541,358.565c6.245,2.862,18.207-0.553,23.44-4.316c7.175-5.163,7.354-9.208,5.79-17.177    c1.366-0.843,4.742-1.777,6.509-2.142c-4.017-21.225-7.529-36.22-23.653-37.778c5.376,10.596-0.482,32.742-14.377,35.135    c-3.726,0.643-18.585-4.205-13.657,7.693c1.491,3.598,6.139,2.751,8.31,5.035C250.56,346.757,249.788,355.47,256.541,358.565z"
         id="path35" /><path
         fill="#FFD5AD"
         d="M279.873,362.836c14.174,2.968,15.032,3.469,27.078,5.666c6.023,1.1,11.784,2.189,17.894,0.761    c3.198-0.748,14.366-6.619,16.748-3.128c-1.113,1.617-5.827,2.644-6.203,4.552c-0.803,4.067,6.074,2.151,7.017,3.852    c3.935,7.074-11.731,4.802-13.928,4.063c-5.607-1.885-8.94-3.238-15.439-3.141c-7.043,0.101-13.841-1.181-18.772-1.126    c-6.619,0.075-10.788,0.17-17.686-1.746c-6.896-1.916-10.92-2.855-7.622-9.729C270.709,359.212,278.569,362.564,279.873,362.836z"
         id="path37" /><path
         fill="#7C5761"
         d="M462.237,469.877c-0.942,2.318-1.883,5.82-3.378,7.628c-5.285-1.887-15.363-2.701-18.271-8.121    c3.233-1.337,11.086-0.624,14.267,0.458c0.787-1.668,1.724-3.973,2.876-5.314L462.237,469.877z"
         id="path39" /><path
         fill="#7C5761"
         d="M521.047,465.587c1.817,1.724,4.733,3.88,5.873,5.93c-3.688,4.232-8.117,13.322-14.224,14.052    c-0.07-3.498,3.458-10.55,5.622-13.118c-1.263-1.338-3.067-3.054-3.898-4.616L521.047,465.587z"
         id="path41" /><path
         fill="#404040"
         d="M517.985,425.673c0.343,3.079,1.103,6.458,0.352,9.595c-0.589,2.463-2.305,4.575-2.886,6.937    c-1.355,5.504,3.321,10.651,6.492,14.734c1.571,2.028,3.952,3.692,5.263,5.9c1.614,2.719-0.137,3.524-2.728,5.143    c-1.953,1.218-4.386,2.626-6.493,3.528c-3.305,1.425-3.533-0.229-5.575-2.79c-3.172-3.972-6.629-7.606-9.568-11.807    c-3.066-4.395-3.598-7.206-4.566-12.095c-1.056-5.331-4.18-10.149-5.28-15.775c-0.457-2.332-2.089-7.919-0.932-10.141    c0.668-1.288,4.716-3.273,6.119-4.003c2.221-1.161,5.016-2.181,7.421-2.952c2.645-0.848,5.46-0.906,8.439-0.914L517.985,425.673z"
         id="path43" /><path
         opacity="0.17"
         fill="#404040"
         d="M517.985,425.673c0.343,3.079,1.103,6.458,0.352,9.595    c-0.589,2.463-2.305,4.575-2.886,6.937c-1.355,5.504,3.321,10.651,6.492,14.734c1.571,2.028,3.952,3.692,5.263,5.9    c1.614,2.719-0.137,3.524-2.728,5.143c-1.953,1.218-4.386,2.626-6.493,3.528c-3.305,1.425-3.533-0.229-5.575-2.79    c-3.172-3.972-6.629-7.606-9.568-11.807c-3.066-4.395-3.598-7.206-4.566-12.095c-1.056-5.331-4.18-10.149-5.28-15.775    c-0.457-2.332-2.089-7.919-0.932-10.141c0.668-1.288,4.716-3.273,6.119-4.003c2.221-1.161,5.016-2.181,7.421-2.952    c2.645-0.848,5.46-0.906,8.439-0.914L517.985,425.673z"
         id="path45" /><path
         fill="#404040"
         d="M508.676,423.007c-2.274,3.955-11.425,13.783-14.347,17.306c-1.826,2.195-3.37,4.184-5.345,6.194    c-4.562,4.638-8.68,9.204-13.515,13.506c-2.428,2.164-4.686,4.276-6.397,7.109c-1.315,2.177-2.231,5.21-5.077,4.95    c-2.063-0.185-5.433-2.996-7.114-4.246c-2.701-2.002-2.38-2.099-1.192-4.989c2.089-5.081,4.452-10.11,6.476-15.2    c1.069-2.679,1.992-5.362,3.246-7.946c1.54-3.167,4.087-5.846,5.905-8.952c3.039-5.196,5.723-10.506,8.301-15.895    c3.154-6.604,9.331-2.058,14.716-0.153c2.863,1.012,4.311,1.311,5.842,4.223c1.192,2.266,6.441-1.337,7.937,0.432L508.676,423.007    z"
         id="path47" /><path
         fill="#FFD5AD"
         d="M601.569,435.796c-6.609,10.114-11.892,20.975-17.175,31.815c-1.268,2.6,2.617,4.888,3.888,2.275    c5.283-10.84,10.568-21.701,17.175-31.816C607.049,435.632,603.148,433.376,601.569,435.796z"
         id="path49" /><path
         fill="#FFD5AD"
         d="M649.028,467.158c-4.338-5.107-8.464-10.765-11.459-16.779c-1.844-3.7-3.318-8.342-6.56-11.095    c-2.2-1.869-5.403,1.302-3.185,3.185c3.44,2.921,4.936,8.504,6.995,12.415c2.908,5.517,6.994,10.717,11.024,15.459    C647.727,472.561,650.898,469.358,649.028,467.158z"
         id="path51" /><path
         fill="#00C457"
         d="M541.917,368.795c-1.099,2.202-1.517,4.833-2.547,7.116c-1.333,2.95-3.145,5.686-4.852,8.432    c-2.97,4.784-7.176,8.62-9.494,13.807c-2.164,4.844-3.172,9.481-2.19,14.632c0.739,3.863-0.365,7.369-2.081,10.871    c-5.513-0.255-11.338,0.858-16.898,0.612c-4.11-0.185-8.276-1.192-12.328-2.177c-3.673-0.893-8.257-1.751-11.552-3.524    c-1.289-0.695-4.821-2.952-5.082-4.43c-0.321-1.826,2.469-6.555,3.392-8.169c2.838-4.945,4.906-10.287,7.813-15.209    c1.861-3.141,3.788-6.082,5.764-8.973c6.806-7.927,10.44-10.65,17.663-17.648c1.333-1.289,8.386-7.123,9.794-8.361    c4.039-3.557,9.907-3.949,15.011-4.168c4.57-0.196,4.284,2.686,5.679,6.491c0.267,0.726,0.694,1.36,0.782,1.69L541.917,368.795z"
         id="path53" /><path
         fill="#FFD5AD"
         d="M514.457,362.836c-14.175,2.968-15.033,3.469-27.078,5.666c-6.023,1.1-11.786,2.189-17.896,0.761    c-3.199-0.748-14.364-6.619-16.748-3.128c1.113,1.617,5.83,2.644,6.203,4.552c0.805,4.067-6.071,2.151-7.017,3.852    c-3.932,7.074,11.733,4.802,13.929,4.063c5.609-1.885,8.94-3.238,15.442-3.141c7.044,0.101,13.84-1.181,18.772-1.126    c6.616,0.075,10.787,0.17,17.685-1.746c6.893-1.916,10.919-2.855,7.62-9.729C523.621,359.212,515.759,362.564,514.457,362.836z"
         id="path55" /><path
         fill="#A55A37"
         d="M606.42,414.503c-0.541,4.276-7.526,10.738-10.584,13.893c-2.767,2.847-5.806,5.842-8.231,9.01    c10.356,9.837,25.613,13.665,39.666,15.785c5.116,0.774,10.68-0.277,15.564-1.501c3.502-0.88,8.76-1.732,11.584-3.85    c-1.729-4.905-2.309-10.607-3.238-15.692c-0.995-5.442-3.515-10.863-5.033-16.075c-7.888-0.758-14.852-5.029-22.556-6.375    c-2.34-0.409-13.572,0.901-13.418-1.954L606.42,414.503z"
         id="path57" /><path
         fill="#B487D7"
         d="M669.498,368.795c-1.099,2.202-1.522,4.833-2.551,7.116c-1.329,2.95-3.141,5.686-4.848,8.432    c-2.97,4.784-7.176,8.62-9.493,13.807c-2.165,4.844-3.176,9.481-2.191,14.632c0.735,3.863-0.37,7.369-2.081,10.871    c-5.513-0.255-11.341,0.858-16.902,0.612c-4.109-0.185-8.275-1.192-12.328-2.177c-3.674-0.893-8.257-1.751-11.548-3.524    c-1.294-0.695-4.822-2.952-5.081-4.43c-0.321-1.826,2.463-6.555,3.391-8.169c2.833-4.945,4.901-10.287,7.814-15.209    c1.856-3.141,3.787-6.082,5.763-8.973c6.805-7.927,10.436-10.65,17.664-17.648c1.328-1.289,8.384-7.123,9.787-8.361    c4.044-3.557,9.913-3.949,15.011-4.168c4.576-0.196,4.285,2.686,5.684,6.491c0.268,0.726,0.691,1.36,0.783,1.69L669.498,368.795z"
         id="path59" /><path
         opacity="0.16"
         fill="#B487D7"
         d="M669.498,368.795c-1.099,2.202-1.522,4.833-2.551,7.116    c-1.329,2.95-3.141,5.686-4.848,8.432c-2.97,4.784-7.176,8.62-9.493,13.807c-2.165,4.844-3.176,9.481-2.191,14.632    c0.735,3.863-0.37,7.369-2.081,10.871c-5.513-0.255-11.341,0.858-16.902,0.612c-4.109-0.185-8.275-1.192-12.328-2.177    c-3.674-0.893-8.257-1.751-11.548-3.524c-1.294-0.695-4.822-2.952-5.081-4.43c-0.321-1.826,2.463-6.555,3.391-8.169    c2.833-4.945,4.901-10.287,7.814-15.209c1.856-3.141,3.787-6.082,5.763-8.973c6.805-7.927,10.436-10.65,17.664-17.648    c1.328-1.289,8.384-7.123,9.787-8.361c4.044-3.557,9.913-3.949,15.011-4.168c4.576-0.196,4.285,2.686,5.684,6.491    c0.268,0.726,0.691,1.36,0.783,1.69L669.498,368.795z"
         id="path61" /><path
         fill="#FFD5AD"
         d="M642.034,362.836c-14.175,2.968-15.033,3.469-27.079,5.666c-6.023,1.1-11.781,2.189-17.892,0.761    c-3.197-0.748-14.368-6.619-16.748-3.128c1.113,1.617,5.825,2.644,6.203,4.552c0.801,4.067-6.075,2.151-7.017,3.852    c-3.937,7.074,11.729,4.802,13.929,4.063c5.604-1.885,8.939-3.238,15.438-3.141c7.042,0.101,13.84-1.181,18.77-1.126    c6.622,0.075,10.788,0.17,17.687-1.746c6.898-1.916,10.918-2.855,7.623-9.729C651.197,359.212,643.34,362.564,642.034,362.836z"
         id="path63" /><path
         fill="#00C457"
         d="M496.05,364.949c-0.471,4.434,1.848,8.585,2.683,12.707c8.23-0.326,34.218,3.467,31.02-11.581    c-2.556-12.032-20.289-6.449-28.072-4.505L496.05,364.949z"
         id="path65" /><path
         fill="#441124"
         d="M514.07,307.135c-4.201-2.092-9.027-6.984-8.275-12.277c4.299,9.181,11.913-2.448,15.125-5.771    c5.574-5.772,13.018-11.245,21.587-10.867c6.955,0.306,14.21,3.469,18.763,8.718c4.065,4.681,6.445,9.366,13.241,9.685    c1.638,0.077,3.296,0,4.937,0.002c-2.517,2.004-4.531,2.348-2.591,6.278c2.262,4.573,6.093,7.292,7.039,12.565    c1.391,7.727-1.302,14.533-3.471,21.805c-1.184,3.955-3.674,12.915,2.213,14.236c-1.557,3.023-5.108,4.415-7.998,3.744    c1.087,0.935,0.849,1.328,2.459,1.511c-3.365,4.026-14.025,5.739-19.018,4.826c-5.332-0.974-12.02-4.399-15.481-8.563    c-2.485-2.989-4.157-6.835-6.85-9.769c-2.86-3.119-6.555-4.837-9.687-7.684c-4.131-3.756-6.458-9.682-7.945-14.876    c-0.497,0.084-0.378,0.442-0.669,0.702L514.07,307.135z"
         id="path67" /><path
         fill="#FFD5AD"
         d="M540.079,332.287c-13.893-2.393-19.754-24.539-14.377-35.135c-16.124,1.557-19.634,16.552-23.651,37.778    c1.764,0.365,5.143,1.3,6.507,2.142c-0.305,1.564-0.515,2.943-0.647,4.243c3.677,0.693,7.554,1.212,10.457,3.049    c-1.651,2.455-5.777,3.914-8.988,4.923c1.029,1.652,2.587,3.249,4.967,4.962c5.235,3.764,17.197,7.178,23.439,4.316    c6.753-3.096,5.984-11.809,7.643-13.55c2.169-2.283,6.818-1.437,8.31-5.035C558.666,328.082,543.805,332.93,540.079,332.287z"
         id="path69" /><path
         fill="#FFD5AD"
         d="M635.381,343.578l0.097-2.164C635.404,342.168,635.377,342.892,635.381,343.578z"
         id="path71" /><path
         fill="#F6FFFF"
         d="M635.518,340.547l-0.04,0.867c0.026-0.286,0.057-0.572,0.093-0.869    C635.553,340.543,635.535,340.55,635.518,340.547z"
         id="path73" /><path
         fill="#340512"
         d="M638.144,315.581c-4.967,0.944-2.71-16.935-1.487-19.632c3.312-7.283,12.102-15.017,20.272-15.859    c6.67-0.686,14.966,0.055,21.134,2.527c8.614,3.456,12.464,13.306,14.351,21.634c0.339,1.498,0.445,3.035,0.906,4.472    c3.502-3.458,9.067-6.458,14.1-5.317c5.619,1.271,7.489,6.535,6.529,11.832c-1.135,6.296-4.531,12.564-2.247,19.15    c2.068,5.973,8.706,8.773,12.05,2.099c-0.07,4.768-0.427,7.266-4.799,9.854c-3.718,2.2-7.206,1.353-10.405-1.26    c-6.256-5.114-10.114-14.252-11.338-21.876c-1.336,3.99,0.054,8.944-1.706,13.211c-1.773,4.296-3.823,9.065-7.743,11.825    c-5.925,4.173-15.059,5.717-21.984,5.589c-0.448-1.773-0.316-3.572-1.149-5.332c-1.895-4.001-5.92-7.195-8.842-10.398    c-2.547-2.791-5.499-5.424-7.813-8.398c-0.853-1.098-1.465-2.477-2.482-3.318c0.01,0.462,0.348,0.238,0.537,0.458L638.144,315.581    z"
         id="path75" /><path
         fill="#FFD5AD"
         d="M667.66,332.287c-13.898-2.393-19.753-24.539-14.378-35.135c-16.124,1.557-19.639,16.552-23.654,37.778    c1.768,0.365,5.141,1.3,6.511,2.142c-0.246,1.258-0.427,2.391-0.567,3.474c3.484,0.29,7.034-1.406,10.413-1.267    c1.557,0.064,1.719,0.394,1.552,2.354c-0.084,1.034-0.598,2.314-1.078,3.233c-1.544,2.948-5.961,4.666-9.493,4.433    c1.034,1.65,2.587,3.242,4.962,4.951c5.23,3.764,17.193,7.178,23.44,4.316c6.753-3.096,5.979-11.809,7.637-13.55    c2.173-2.283,6.819-1.437,8.311-5.035C686.241,328.082,671.386,332.93,667.66,332.287z"
         id="path77" /><path
         fill="#F6FFFF"
         d="M646.459,344.865c0.48-0.919,0.994-2.199,1.078-3.233c0.167-1.96,0.004-2.29-1.552-2.354    c-3.379-0.138-6.929,1.557-10.413,1.267c-0.036,0.297-0.067,0.583-0.093,0.869l-0.097,2.164c0.022,2.116,0.485,3.964,1.584,5.719    C640.498,349.531,644.915,347.813,646.459,344.865z"
         id="path79" /><path
         fill="#B487D7"
         d="M606.047,365.698c0.074,2.996-0.207,10.275,1.482,12.785c1.773,2.64,6.529,2.378,9.696,2.982    c9.124,1.742,18.834-0.871,27.491-4.036c5.812-2.125,15.971-6.747,12.385-14.734c-2.267-5.046-11.76-4.381-16.6-4.131    c-5.957,0.307-11.944,2.349-17.544,3.765c-4.786,1.21-9.995,1.201-14.659,2.618L606.047,365.698z"
         id="path81" /><path
         fill="#FFD5AD"
         d="M187.489,445.883c6.054,7.122,10.875,15.705,12.252,25.046c0.42,2.841-3.92,4.064-4.342,1.196    c-1.267-8.578-5.521-16.493-11.095-23.057C182.434,446.868,185.606,443.666,187.489,445.883z"
         id="path83" /><path
         fill="#FFD5AD"
         d="M117.938,451.506c1.192-5.099,5.165-9.116,8.706-12.702c2.044-2.068,5.229,1.118,3.185,3.186    c-3.722,3.77-6.74,7.263-7.978,12.551c-1.419,6.071-1.302,12.806-2.408,19c-0.508,2.856-4.85,1.641-4.342-1.196    C116.327,465.455,116.347,458.303,117.938,451.506z"
         id="path85" /><path
         fill="#FFAD32"
         d="M589.817,469.877c-0.945,2.318-1.887,5.82-3.378,7.628c-5.283-1.887-15.362-2.701-18.27-8.121    c3.234-1.337,11.081-0.624,14.262,0.458c0.787-1.668,1.729-3.973,2.882-5.314L589.817,469.877z"
         id="path87" /><path
         fill="#FFD5AD"
         d="M105.104,388.366c0.627-1.874,2.834-1.887,3.887-0.845c1.482-0.149,3.044,0.934,2.353,2.676    c-1.377,3.479-3.647,6.832,0.361,9.225c5.118,3.057,12.137,2.679,17.735,1.601c1.621-0.317,2.678,0.967,2.783,2.226    c1.857,0.541,2.33,3.665-0.009,4.329c-9.093,2.582-17.523,1.008-25.721-3.432c-2.02-1.091-5.163-3.075-5.266-5.697    C101.073,394.538,103.921,391.899,105.104,388.366z"
         id="path89" /><path
         fill="#005774"
         d="M177.879,413.754c2.162,4.342,7.006,8.157,10.127,12.015c2.791,3.444,5.138,7.307,7.235,11.166    c0.589,1.082,3.22,4.597,2.954,5.746c-0.253,1.099-5.222,4.706-6.133,5.608c-3.121,3.084-6.835,7.849-11.106,9.331    c-4.371-5.495-6.977-13.021-12.558-17.487c-4.712-3.77-11.652-3.546-17.549-3.854c-6.698-0.352-10.382,3.62-13.975,8.987    c-1.566,2.341-2.483,6.156-4.775,6.392c-2.248,0.229-7.629-3.212-9.774-4.201c-2.109-0.972-4.555-1.914-6.049-3.674    c5.752-8.156,12.417-16.097,15.116-25.837c5.895,0.192,13.581-1.993,19.355-3.164c4.469-0.907,12.208-3.749,16.244-1.782    L177.879,413.754z"
         id="path91" /><path
         fill="#FFD5AD"
         d="M158.526,372.168c9.386,3.317,19.252,4.395,28.626,7.694c3.85,1.353,18.185,4.702,21.606,4.715    c1.661,0.007,2.871-1.935,1.945-3.389c-1.557-2.444,1.68-1.723,3.71-2.066c1.335-0.224,2.185-2.211,1.346-3.309    c-2.934-3.84-5.51-4.459-10.2-2.541c-11.381,4.65-26.924-1.467-37.077-7.118c-1.533-0.854-2.948,0.228-3.289,1.526    c-2.021-0.205-4.045-0.215-6.069,0.062C156.553,367.92,156.102,371.312,158.526,372.168z"
         id="path93" /><path
         fill="#FFAD32"
         d="M648.623,465.587c1.817,1.724,4.734,3.88,5.873,5.93c-3.682,4.232-8.112,13.322-14.219,14.052    c-0.07-3.498,3.453-10.55,5.622-13.118c-1.262-1.338-3.07-3.054-3.897-4.616L648.623,465.587z"
         id="path95" /><path
         fill="#63C8DD"
         d="M140.526,357.815c3.293-2.455,9.88,0.86,13.172,2.048c3.979,1.436,8.086,2.813,12.168,3.521    c1.632,0.282,4.19,0.238,5.631,1.188c2.508,1.652,0.588,3.878-0.633,6.461c-1.041,2.204-1.534,4.472-3.59,4.863    c-1.832,0.35-5.215-1.067-7.017-1.434c3.519,5.708,7.373,11.211,10.677,17.143c2.526,4.53,2.052,11.565,5.337,15.124    c1.388,1.51,6.282,2.336,6.854,4.012c0.908,2.675-5.273,6.692-7.123,7.893c-7.505,4.87-15.299,6.766-23.941,8.164    c-6.392,1.033-12.661,0.66-19.137,0.295c-3.741-0.211-8.775-0.721-11.784-3.181c0.649-2.138,2.27-4.048,2.493-6.406    c0.246-2.648-1.007-5.173-1.91-7.536c-2.006-5.261-4.756-10.488-5.117-16.299c-0.864,1.218-1.815,2.275-2.604,3.528    c-3.755-2.015-12.954-6.221-13.807-10.948c-0.752-4.157,5.754-9.614,7.952-12.938c1.468-2.22,2.737-4.56,4.23-6.771    c1.197-1.77,1.991-4.775,3.647-6.201c4.54-3.909,10.129,5.358,14.656,6.192c3.148,0.581,7.521-4.271,5.904-6.467L140.526,357.815z    "
         id="path97" /><path
         fill="#FFD5AD"
         d="M138.273,356.125c2.86,6.172,0.851,15.079-7.321,14.093c-7.822-0.946-9.179-7.078-12.952-12.686    L138.273,356.125z"
         id="path99" /><path
         opacity="0.43"
         fill="#FFD5AD"
         d="M138.273,356.125c2.86,6.172,0.851,15.079-7.321,14.093    c-7.822-0.946-9.179-7.078-12.952-12.686L138.273,356.125z"
         id="path101" /><path
         fill="#FFD5AD"
         d="M147.847,314.642c10.475,12.371,9.912,28.818-0.471,40.461c-8.893,9.975-24.152,12.27-36.395,7.53    c-17.213-6.668-29.927-26.92-13.834-41.981c10.281-9.626,26.165-17.478,40.564-15.028c0.682,0.117,2.977,0.953,2.627,0.761    L147.847,314.642z"
         id="path103" /><path
         fill="#A55A37"
         d="M198.527,471.566c-1.186,0.409-1.801,0.585-3.128,0.559c-1.122,4.087-1.949,8.302,2.565,8.732    c4.138,0.396,8.046-0.031,12.063,0.238c0.939-5.341-10.022-7.333-10.257-10.585L198.527,471.566z"
         id="path105" /><path
         fill="#A55A37"
         d="M119.409,473.678c0.108,1.838,1.755,3.167,1.83,5.064c0.048,1.245,0.325,3.238-1.126,3.594    c-1.028,0.255-2.064,0.026-3.111,0.071c-1.232,0.048-2.459,0.22-3.698,0.122c-1.713-0.131-3.44-0.329-5.147-0.527    c-0.629-0.07-1.244-0.185-1.878-0.246c-0.266-0.022-0.77,0.035-1.023-0.049c-2.094-0.73,4.157-4.394,4.731-4.716    c1.866-1.025,4.536-2.336,5.139-4.575c0.57,0.572,1.109,0.871,1.96,0.91c0.451,0.018,2.238,0.021,2.44-0.273L119.409,473.678z"
         id="path107" /><path
         fill="#FF792D"
         d="M162.873,321.859c-3.209,7.58-13.876,6.242-19.883,3.029c-4.998-2.675-8.566-7.408-13.37-10.31    c-3.418,3.409-5.796,6.654-10.413,8.543c-2.512,1.027-2.787,0.552-3.772,3.029c-1.163,2.926-2.321,5.879-3.546,8.786    c-2.692,6.392-6.69,11.093-12.62,14.625c-1.661,0.988-4.047,2.486-6.071,2.068c-1.995-0.414-2.831-3.847-4.545-5.735    c-2.026-2.235-1.57-2.565-2.01-5.358c-0.288-1.835,0.301-0.887-1.257-2.075c-1.212-0.922-2.503-1.208-3.547-2.455    c-3.467-4.144-2.279-8.671,1.72-11.431c2.273-1.569,2.05-1.025,2.081-4.23c0.026-2.413,0.609-5.448,1.824-7.572    c1.337-2.34,3.513-2.831,5.44-4.291c2.255-1.709,2.664-4.965,3.911-7.824c1.533-3.521,7.974-5.979,11.293-3.132    c2.29-4.063,5.71-7.43,10.343-8.737c5.208-1.469,4.685,2.174,8.317,4.305c1.819,1.067,3.214-0.218,4.998-0.833    c2.433-0.84,4.151-0.939,6.443,0.321c3.993,2.195,3.799,4.481,4.006,8.546c3.509,0.328,7.391-0.044,8.986,4.074    c1.166,3.005-1.021,4.996,2.783,5.497c2.591,0.343,4.182-0.222,5.118,3.086c0.348,1.229-0.301,2.853,0.486,3.741    c0.995,1.122,2.813,0.097,3.539,2.064L162.873,321.859z"
         id="path109" /><path
         fill="#93A7AB"
         d="M396.856,391.049c-0.246-5.074-0.979-9.852-2.752-14.652c-0.768-2.079-2.886-6.617-5.015-8.966    c1.624-4.85,2.389-10.644,2.026-15.103c-0.308-3.766-1.427-7.567-3.928-10.514c-0.737-0.869-2.361-2.631-3.761-2.032    c-0.653,0.279-1.12,1.861-1.448,2.439c-0.262-0.653-0.68-0.757-1.177-1.089c-3.528,4.318-4.688,9.973-4.12,15.411    c0.326,3.104,1.445,5.794,2.853,8.596c0.579,1.153,1.986,3.755,3.405,5.53c-1.04,4.322-3.554,8.486-4.96,12.761    c-1.447,4.39-2.406,10.536-1.696,15.199c0.904,5.926,4.209,9.969,6.692,14.998c1.471,2.978,4.109,6.634,4.914,9.771    c3.885-2.336,5.539-10.475,7.054-14.474C397.249,402.84,397.168,397.451,396.856,391.049z"
         id="path111" /></g></g><g
     id="object"
     display="none"><g
       display="inline"
       id="g114"><path
         fill="#F1B085"
         d="M573.344,266.058c15.142,10.313-11.259-63.371-11.259-63.371s-10.52-16.46-79.204-6.277    c-48.336,7.166-68.373,20.178-77.671,20.178c-9.299,0-28.236-2.082-40.66-2.082c-12.424,0-28.566,3.464-44.813,9.626    c-20.682,7.843-13.931,24.189-4.63,23.529c6.246-0.443,7.872-3.387,13.034-3.839c-4.631,3.639-40.775,18.054-44.658,39.577    c-3.883,21.523,9.191,18.259,17.306,8.968c8.115-9.291,26.974-27.415,34.15-25.566c-2.55,3.373-21.316,17.519-30.818,37.248    c-14.838,30.807,5.097,34.265,13.25,27.988c8.153-6.277,23.34-37.848,33.303-46.901c11.706-10.637,25.015-14.673,27.961-13.171    c-10.227,11.644-15.781,14.348-26.691,39.003c-14.817,33.484-11.433,49.9-6.774,57.971c4.659,8.07,13.007,2.466,16.112-1.569    c3.106-4.035,6.707-35.708,19.483-56.148c12.776-20.44,38.474-39.497,48.34-24.414c8.642,13.21-2.133,23.943-4.075,40.085    c-1.941,16.142-6.133,48.481,6.988,50.844c19.735,3.554,13.288-64.353,32.7-75.115c19.413-10.761,35.918-30.944,42.518-47.534    C519.273,255.536,558.201,255.746,573.344,266.058z"
         id="path116" /><g
         id="g118"><path
           fill="#DD532F"
           d="M438.61,366.963c-69.209-30.587-135.324-4.018-135.324-4.018s-10.052-36.617-32.285-30.141     c-22.232,6.475-10.894,54.591-10.052,58.718c-11.6,4.687-30.738,39.741-30.738,39.741s-27.119,3.628-31.733,4.13     c-4.616,0.501-5.331,3.435-5.558,4.945c-8.376,55.528,14.553,75.203,22.944,80.433c1.808,1.126,3.195,1.635,6.545,0.344     c10.702-4.119,33.055-12.473,46.659-24.437c1.677,22.522-22.225,45.046-32.428,53.578c-2.743,2.294-3.627,4.023-1.471,7.57     c1.683,2.767,11.268,15.112,15.39,20.39c1.156,1.483,2.099,3.39,2.48,5.085c1.896,8.416,7.911,35.504,12.115,46.412     c1.166,3.029,2.055,4.894,7.596,4.894c5.542,0,27.835,0,32.349,0c5.671,0,5.833-6.595,5.833-6.595l2.987-23.723     c0,0,10.246,19.423,54.13,19.423c43.884,0,61.669-19.423,61.669-19.423s-5.616,25.237-4.991,22.366     c0.624-2.871-2.835,7.482,3.214,7.952c6.048,0.469,30.256,0,35.481,0c7.114,0,26.944-58.945,39.176-77.204     c25.133-37.507,20.492-85.285,17.592-95.332C517.291,452.026,507.82,397.549,438.61,366.963z"
           id="path120" /><g
           id="g122"><defs
             id="defs124"><path
               id="SVGID_1_"
               d="M573.142,426.875c0,86.997-74.41,172.458-201.046,172.458c-126.636,0-222.676-100.963-222.676-187.96       c0-86.995,96.04-137.045,222.676-137.045C498.732,274.329,573.142,339.88,573.142,426.875z" /></defs><clipPath
             id="SVGID_2_"><use
               xlink:href="#SVGID_1_"
               overflow="visible"
               id="use128" /></clipPath><path
             clip-path="url(#SVGID_2_)"
             fill="#DDA23D"
             d="M438.61,366.963c-69.209-30.587-135.324-4.018-135.324-4.018      s-10.052-36.617-32.285-30.141c-22.232,6.475-10.894,54.591-10.052,58.718c-11.6,4.687-30.738,39.741-30.738,39.741      s-27.119,3.628-31.733,4.13c-4.616,0.501-5.331,3.435-5.558,4.945c-8.376,55.528,14.553,75.203,22.944,80.433      c1.808,1.126,3.195,1.635,6.545,0.344c10.702-4.119,33.055-12.473,46.659-24.437c1.677,22.522-22.225,45.046-32.428,53.578      c-2.743,2.294-3.627,4.023-1.471,7.57c1.683,2.767,11.268,15.112,15.39,20.39c1.156,1.483,2.099,3.39,2.48,5.085      c1.896,8.416,7.911,35.504,12.115,46.412c1.166,3.029,2.055,4.894,7.596,4.894c5.542,0,27.835,0,32.349,0      c5.671,0,5.833-6.595,5.833-6.595l2.987-23.723c0,0,10.246,19.423,54.13,19.423c43.884,0,61.669-19.423,61.669-19.423      s-5.616,25.237-4.991,22.366c0.624-2.871-2.835,7.482,3.214,7.952c6.048,0.469,30.256,0,35.481,0      c7.114,0,26.944-58.945,39.176-77.204c25.133-37.507,20.492-85.285,17.592-95.332      C517.291,452.026,507.82,397.549,438.61,366.963z"
             id="path130" /><path
             clip-path="url(#SVGID_2_)"
             fill="#EF5A35"
             d="M438.61,366.963c-69.209-30.587-135.324-4.018-135.324-4.018      s-10.052-36.617-32.285-30.141c-22.232,6.475-10.894,54.591-10.052,58.718c-11.6,4.687-30.738,39.741-30.738,39.741      s-27.119,3.628-31.733,4.13c-4.616,0.501-5.331,3.435-5.558,4.945c-8.376,55.528,14.553,75.203,22.944,80.433      c1.808,1.126,3.195,1.635,6.545,0.344c10.702-4.119,33.055-12.473,46.659-24.437c1.677,22.522-22.225,45.046-32.428,53.578      c-2.743,2.294-3.627,4.023-1.471,7.57c1.683,2.767,11.268,15.112,15.39,20.39c1.156,1.483,2.099,3.39,2.48,5.085      c1.896,8.416,7.911,35.504,12.115,46.412c1.166,3.029,2.055,4.894,7.596,4.894c5.542,0,27.835,0,32.349,0      c5.671,0,5.833-6.595,5.833-6.595l2.987-23.723c0,0,10.246,19.423,54.13,19.423c43.884,0,61.669-19.423,61.669-19.423      s-5.616,25.237-4.991,22.366c0.624-2.871-2.835,7.482,3.214,7.952c6.048,0.469,30.256,0,35.481,0      c7.114,0,26.944-58.945,39.176-77.204c25.133-37.507,20.492-85.285,17.592-95.332      C517.291,452.026,507.82,397.549,438.61,366.963z"
             id="path132" /></g><path
           fill="#C54A29"
           d="M434.854,406.639c-1.027,0-2.07-0.243-3.068-0.757c-43.639-22.48-92.313-10.142-92.799-10.016     c-4.055,1.065-8.095-1.872-9.019-6.557c-0.924-4.684,1.61-9.346,5.666-10.418c2.181-0.574,53.951-13.815,102.295,11.089     c3.803,1.961,5.511,7.108,3.815,11.499C440.49,404.716,437.739,406.639,434.854,406.639z"
           id="path134" /><g
           id="g136"><defs
             id="defs138"><path
               id="SVGID_3_"
               d="M434.854,416.928c-1.027,0-2.07-0.242-3.068-0.757c-43.639-22.481-92.313-10.142-92.799-10.014       c-4.055,1.063-8.095-1.873-9.019-6.559c-0.924-4.685,1.61-9.346,5.666-10.417c2.181-0.575,53.951-13.817,102.295,11.087       c3.803,1.96,5.511,7.106,3.815,11.498C440.49,415.005,437.739,416.928,434.854,416.928z" /></defs><use
             xlink:href="#SVGID_3_"
             overflow="visible"
             fill="#EF5A35"
             id="use141" /><clipPath
             id="SVGID_4_"><use
               xlink:href="#SVGID_3_"
               overflow="visible"
               id="use144" /></clipPath><path
             clip-path="url(#SVGID_4_)"
             fill="#B24223"
             d="M434.854,406.639c-1.027,0-2.07-0.243-3.068-0.757      c-43.639-22.48-92.313-10.142-92.799-10.016c-4.055,1.065-8.095-1.872-9.019-6.557c-0.924-4.684,1.61-9.346,5.666-10.418      c2.181-0.574,53.951-13.815,102.295,11.089c3.803,1.961,5.511,7.108,3.815,11.499      C440.49,404.716,437.739,406.639,434.854,406.639z"
             id="path146" /></g><g
           id="g148"><ellipse
             fill="#FFFFFF"
             cx="285.887"
             cy="438.183"
             rx="18.233"
             ry="21.057"
             id="ellipse150" /><ellipse
             fill="#231F20"
             cx="285.887"
             cy="438.306"
             rx="9.897"
             ry="11.43"
             id="ellipse152" /><ellipse
             fill="#FFFFFF"
             cx="289.281"
             cy="430.796"
             rx="6.503"
             ry="7.51"
             id="ellipse154" /></g><path
           fill="none"
           d="M438.61,366.963c-69.209-30.587-135.324-4.018-135.324-4.018s-10.052-36.617-32.285-30.141     c-22.232,6.475-10.894,54.591-10.052,58.718c-11.6,4.687-30.738,39.741-30.738,39.741s-27.119,3.628-31.733,4.13     c-4.616,0.501-5.331,3.435-5.558,4.945c-8.376,55.528,14.553,75.203,22.944,80.433c1.808,1.126,3.195,1.635,6.545,0.344     c10.702-4.119,33.055-12.473,46.659-24.437c1.677,22.522-22.225,45.046-32.428,53.578c-2.743,2.294-3.627,4.023-1.471,7.57     c1.683,2.767,11.268,15.112,15.39,20.39c1.156,1.483,2.099,3.39,2.48,5.085c1.896,8.416,7.911,35.504,12.115,46.412     c1.166,3.029,2.055,4.894,7.596,4.894c5.542,0,27.835,0,32.349,0c5.671,0,5.833-6.595,5.833-6.595l2.987-23.723     c0,0,10.246,19.423,54.13,19.423c43.884,0,61.669-19.423,61.669-19.423s-5.616,25.237-4.991,22.366     c0.624-2.871-2.835,7.482,3.214,7.952c6.048,0.469,30.256,0,35.481,0c7.114,0,26.944-58.945,39.176-77.204     c25.133-37.507,19-90.652,16.1-100.699C515.798,446.659,507.82,397.549,438.61,366.963z"
           id="path156" /><path
           fill="#EF5A35"
           d="M500.581,453.398c-4.039,1.727-6.1,6.907-4.605,11.572c1.493,4.667,5.98,7.05,10.021,5.325     C510.598,468.332,500.949,453.241,500.581,453.398z"
           id="path158" /></g><g
         id="g160"><g
           id="g162"><g
             id="g164"><g
               id="g166"><ellipse
                 fill="#F5B244"
                 cx="389.742"
                 cy="361.83"
                 rx="42.813"
                 ry="49.444"
                 id="ellipse168" /><ellipse
                 fill="#DDA23D"
                 cx="389.742"
                 cy="361.83"
                 rx="32.928"
                 ry="38.028"
                 id="ellipse170" /><path
                 opacity="0.5"
                 fill="#FFFFFF"
                 d="M389.743,400.998c-18.701,0-33.917-17.57-33.917-39.169        c0-21.598,15.216-39.17,33.917-39.17c18.702,0,33.916,17.572,33.916,39.17C423.659,383.428,408.445,400.998,389.743,400.998z         M389.743,324.943c-17.611,0-31.94,16.547-31.94,36.886c0,20.339,14.328,36.886,31.94,36.886        c17.612,0,31.94-16.547,31.94-36.886C421.682,341.49,407.355,324.943,389.743,324.943z"
                 id="path172" /></g><g
               opacity="0.8"
               id="g174"><path
                 fill="#FFFFFF"
                 d="M405.468,350.508c0,2.073-1.033,3.768-2.882,3.768c-2.937,0-5.058-6.343-10.06-6.343        c-1.577,0-2.936,0.879-2.936,2.888c0,6.029,16.586,2.45,16.586,16.895c0,8.226-7.722,12.623-11.692,13.001        c-1.305,0.125-1.142,0.627-1.142,2.134c0,3.078-0.163,3.016-2.829,3.016c-2.501,0-3.153,0.44-3.153-2.764        c0-1.005,0.273-2.196-0.815-2.323c-2.067-0.314-6.309-1.382-7.886-2.7c-1.903-1.634-2.99-7.224-2.99-9.736        c0-1.443,0.543-2.951,1.957-2.951c3.753,0,2.991,8.792,11.42,8.792c1.197,0,3.97-0.628,3.97-2.7        c0-1.885-0.489-2.26-6.363-4.711c-4.948-2.01-10.114-5.965-10.114-12.749c0-6.28,4.404-11.304,9.571-12.497        c1.413-0.314,1.25-0.502,1.25-2.199c0-3.14,0.163-3.014,2.828-3.014c2.555,0,3.154-0.44,3.154,2.763        c0,0.879-0.271,2.136,0.707,2.386c0.707,0.126,3.425,0.942,3.751,0.942c0.654,0,1.469-0.627,2.447-0.627        C402.259,341.779,405.468,346.615,405.468,350.508z"
                 id="path176" /></g></g></g><path
           fill="#EF5A35"
           d="M332.753,394.099c0,0,20.116-5.729,46.596-5.729c26.48,0,59.367,17.797,59.367,17.797l-12.282,39.131     l-90.79-28.962L332.753,394.099z"
           id="path178" /></g><g
         id="g180"><path
           fill="#0C5054"
           d="M705.268,184.088l-206.334,4.626c0,0-2.696,0.572-2.696,2.225c0,1.416,4.214,69.647,5.422,89.167     c0.202,3.264-0.103,5.203,4.218,5.203c4.321,0,195.724,1.926,195.724,1.926L705.268,184.088z"
           id="path182" /></g><path
         fill="#F1B085"
         d="M358.844,296.889c-2.094,3.76-4.35,8.313-6.901,14.078c-14.817,33.484-11.433,49.9-6.774,57.971    c4.659,8.07,13.007,2.466,16.112-1.569c3.106-4.035,6.707-35.708,19.483-56.148c2.722-4.354,6.031-8.645,9.648-12.557    C380.009,297.158,369.439,296.188,358.844,296.889z"
         id="path184" /><path
         fill="#F1B085"
         d="M428.029,314.698c-1.275,3.768-2.468,7.778-2.999,12.194c-0.212,1.767-0.452,3.728-0.693,5.822    c5.163,8.168,8.218,18.228,8.218,29.116c0,5.391-0.757,10.575-2.138,15.433c0.503,0.21,1.035,0.372,1.602,0.474    c14.548,2.62,13.975-30.361,20.444-52.191C444.441,321.565,436.378,317.784,428.029,314.698z"
         id="path186" /><path
         fill="#EF5A35"
         d="M505.665,456.49c-1.001-0.49-1.982-1.038-2.94-1.645c-2.451-1.548-3.35-5.098-2.008-7.929    c1.34-2.831,4.422-3.857,6.865-2.32c5.002,3.161,11.092,4.081,15.963,2.429c-4.961-6.056-6.375-13.991-3.852-22.358    c2.829-9.384,7.154-11.977,10.285-12.499c3.82-0.638,7.562,1.49,10.264,5.839c3.534,5.688,5.454,16.095,1.319,25.502    c-0.169,0.388-0.345,0.769-0.526,1.143c3.639,0.682,7.074,0.221,8.861-1.281c2.258-1.9,5.423-1.324,7.067,1.283    c1.645,2.609,1.147,6.263-1.111,8.163c-5.443,4.575-14.521,4.947-22.392,1.561c-2.022,1.608-4.267,2.863-6.709,3.736    C520.172,460.463,512.498,459.835,505.665,456.49z M531.348,423.936c-0.414,0.478-1.237,1.709-2.101,4.571    c-1.381,4.582-0.576,8.322,2.465,11.395c0.294-0.535,0.57-1.095,0.827-1.682c1.483-3.378,1.67-7.539,0.5-11.135    C532.489,425.393,531.786,424.374,531.348,423.936z"
         id="path188" /><rect
         x="121.246"
         y="107.019"
         fill="none"
         width="493.91"
         height="570.408"
         id="rect190" /></g></g><rect
     style="fill:#efe2c2;fill-opacity:0;filter:url(#filter8459)"
     id="rect8453"
     width="711.86438"
     height="661.01697"
     x="57.627117"
     y="54.237289"
     rx="1.5423501"
     ry="1.1428601" /><g
     inkscape:groupmode="layer"
     id="layer2"
     inkscape:label="Layer 2"
     style="display:inline"><g
       transform="translate(111.71923,-59.386552)"
       id="Capa_3-7"><g
         id="g1096"><g
           id="g1098"><path
             style="fill:#b6dbd8"
             inkscape:connector-curvature="0"
             d="m 504.181,455.772 c -3.834,-8.018 -19.172,-6.973 -20.567,4.182 -1.394,11.155 -6.945,14.736 -6.945,14.736 l -0.149,0.723 2.103,-19.808 c 0.543,-2.545 0.834,-5.171 0.834,-7.861 0,-22.519 -19.924,-40.775 -44.503,-40.775 -0.008,0 -0.016,0 -0.024,0 l 0,153.961 17.888,0 c 0,0 9.843,2.007 17.119,-4.628 1.408,-1.181 2.519,-2.626 3.426,-4.201 0.086,-0.139 0.175,-0.273 0.258,-0.417 6.995,-12.062 0.286,-0.535 0.286,-0.535 0.304,-0.612 0.61,-1.233 0.921,-1.863 0.283,-0.625 0.542,-1.272 0.841,-1.881 0.285,-0.633 0.596,-1.274 0.904,-1.895 0.34,-0.626 0.529,-1.138 0.848,-1.684 l 0.216,-0.407 c 0.027,-0.036 -0.043,0.044 0.064,-0.087 l 0.011,-0.018 0.022,-0.039 0.043,-0.075 0.085,-0.154 0.345,-0.628 c 0.222,-0.455 0.496,-0.755 0.751,-1.159 0.523,-0.669 1.119,-1.315 1.658,-1.637 0.55,-0.348 0.998,-0.499 1.393,-0.538 0.396,-0.046 0.85,0.065 1.274,0.422 l 0.165,0.131 c 0.021,0.02 0.039,0.029 0.072,0.041 0.031,-0.098 0.24,0.337 0.381,0.585 l 0.059,0.105 c -0.034,-0.088 -0.052,-0.131 -0.065,-0.162 l 0.011,0.02 c 0.016,0.028 0.044,0.038 0.073,0.078 l 0.113,0.53 c 0.124,0.895 0.061,2.193 0.05,3.482 -0.017,1.302 -0.025,2.693 0.178,4.146 0.065,0.71 0.271,1.467 0.446,2.185 0.275,0.736 0.499,1.459 0.934,2.134 0.348,0.703 0.897,1.282 1.394,1.856 0.573,0.5 1.115,0.988 1.769,1.357 0.638,0.33 1.389,0.778 1.875,0.877 l 0.804,0.253 0.397,0.126 c 0.234,0.087 0.082,0.028 0.141,0.049 l 0.032,0.005 0.06,0.013 0.12,0.025 0.239,0.049 c 1.263,0.265 2.628,0.276 3.862,-0.105 1.238,-0.368 2.267,-1.097 3.002,-1.905 1.466,-1.647 2.105,-3.418 2.576,-4.945 0.456,-1.542 0.671,-2.906 0.813,-4.026 0.268,-2.244 0.232,-3.526 0.232,-3.526 0,0 -0.165,1.277 -0.769,3.418 -0.309,1.063 -0.724,2.35 -1.375,3.717 -0.643,1.351 -1.533,2.862 -2.862,3.873 -1.326,1.03 -2.958,1.205 -4.635,0.5 -1.881,-0.811 -3.301,-1.892 -3.791,-3.513 -0.292,-0.77 -0.367,-1.689 -0.309,-2.711 0.035,-1.006 0.227,-2.111 0.456,-3.307 0.213,-1.212 0.528,-2.427 0.642,-4.08 0.017,-0.43 0.002,-0.914 -0.01,-1.372 -0.031,-0.271 -0.088,-0.569 -0.145,-0.854 l -0.092,-0.43 -0.024,-0.106 -0.014,-0.056 c -0.039,-0.103 0.071,0.159 -0.091,-0.245 l -0.039,-0.114 c -0.126,-0.332 -0.128,-0.502 -0.461,-1.13 -0.132,-0.26 -0.277,-0.527 -0.424,-0.774 l -0.434,-0.62 c -1.174,-1.634 -3.023,-2.94 -5.133,-3.451 -2.107,-0.541 -4.259,-0.26 -6.022,0.339 -1.821,0.584 -3.229,1.49 -4.594,2.383 -0.612,0.468 -1.304,0.934 -1.857,1.419 l -0.711,0.605 c 0.998,-3.117 1.541,-6.417 1.541,-9.837 0,-1.483 -0.112,-2.94 -0.307,-4.373 l 1.314,-12.378 c 1.219,-0.442 2.56,-0.509 3.799,0.366 3.502,2.476 2.414,8.715 6.249,10.11 3.835,1.393 9.412,1.045 11.382,-7.541 1.971,-8.586 -2.319,-8.496 -2.319,-21.702 0,-13.207 6.623,-5.5 6.623,-5.5 5.927,14.41 -4.88,25.679 2.092,27.073 6.972,1.395 9.063,-8.945 9.063,-8.945 5.926,-16.269 -1.743,-39.859 -5.578,-47.876 z"
             id="path1100" /><path
             style="fill:#95afaf"
             inkscape:connector-curvature="0"
             d="m 390.45,447.744 c 0,2.69 0.293,5.317 0.835,7.861 l 2.105,19.819 -0.151,-0.734 c 0,0 -5.552,-3.581 -6.947,-14.736 -1.393,-11.155 -16.731,-12.2 -20.566,-4.182 -3.835,8.017 -11.503,31.607 -5.577,47.875 0,0 2.092,10.34 9.063,8.945 6.972,-1.393 -3.834,-12.663 2.092,-27.073 0,0 6.623,-7.708 6.623,5.5 0,13.206 -4.289,13.116 -2.319,21.702 1.971,8.586 7.548,8.934 11.383,7.541 3.834,-1.395 2.746,-7.634 6.249,-10.11 1.239,-0.875 2.581,-0.808 3.8,-0.365 l 1.293,12.174 c -0.214,1.498 -0.335,3.024 -0.335,4.576 0,18.995 16.536,34.394 36.933,34.394 l 0.001,0 0,-153.961 c -24.569,0.013 -44.482,18.262 -44.482,40.774 z"
             id="path1102" /></g><g
           id="g1104"><g
             id="g1106"><g
               id="g1108"><g
                 id="g1110"><path
                   style="fill:#1e3136"
                   inkscape:connector-curvature="0"
                   d="m 417.095,452.808 c 4.096,0 7.559,2.702 8.708,6.42 0.261,-0.852 0.405,-1.755 0.405,-2.69 0,-5.03 -4.082,-9.109 -9.113,-9.109 -5.028,0 -9.11,4.079 -9.11,9.109 0,0.935 0.144,1.838 0.405,2.69 1.148,-3.719 4.612,-6.42 8.705,-6.42 z"
                   id="path1112" /></g></g><g
               id="g1114"><g
                 id="g1116"><path
                   style="fill:#1e3136"
                   inkscape:connector-curvature="0"
                   d="m 453.456,452.808 c 4.094,0 7.559,2.702 8.705,6.42 0.262,-0.852 0.404,-1.755 0.404,-2.69 0,-5.03 -4.078,-9.109 -9.109,-9.109 -5.032,0 -9.111,4.079 -9.111,9.109 0,0.935 0.141,1.838 0.403,2.69 1.15,-3.719 4.612,-6.42 8.708,-6.42 z"
                   id="path1118" /></g></g></g><g
             id="g1120"><path
               style="fill:#1e3136"
               inkscape:connector-curvature="0"
               d="m 457.175,481.081 c 0.019,-8.726 -9.961,-15.803 -22.246,-15.803 -12.284,0 -22.244,7.076 -22.244,15.803 0,0 -0.202,18.727 8.282,20.24 0,0 3.371,0.234 4.299,-3.021 0.929,-3.255 1.626,-6.74 4.066,-7.322 2.44,-0.581 1.394,6.74 1.394,6.74 0,0 -0.116,4.998 3.371,4.416 3.486,-0.581 3.601,-4.762 2.904,-8.714 -0.697,-3.953 0.697,-6.509 2.324,-5.811 1.627,0.697 3.022,5.112 2.674,8.715 -0.349,3.602 1.302,5.442 2.684,5.859 1.383,0.416 12.445,-0.206 12.492,-21.102 z"
               id="path1122" /></g></g></g><g
         id="g1124"><g
           id="g1126"><path
             style="fill:#5b8293"
             inkscape:connector-curvature="0"
             d="m 147.921,479.579 c -5.073,0 -9.762,1.808 -13.573,4.866 -1.13,0.21 -2.22,0.716 -3.139,1.54 -0.072,0.065 -7.528,6.523 -16.164,5.938 -4.519,-0.308 -8.622,-2.498 -12.506,-6.636 1.723,-4.245 0,-9.652 -3.67,-12.813 -0.052,-0.044 -0.13,0.011 -0.096,0.074 0.935,1.671 1.212,4.36 1.303,6.24 0.024,0.515 -0.04,2.482 -0.517,3.763 -0.874,-0.478 -1.84,-0.742 -2.816,-0.789 -2.618,-4.89 -4.231,-9.947 -0.998,-15.199 0.126,-0.204 -0.18,-0.369 -0.314,-0.184 -3.045,4.19 -4.524,9.508 -3.551,14.661 0.123,0.652 0.288,1.388 0.486,2.162 -0.034,0.027 -0.071,0.047 -0.104,0.075 -0.088,0.075 -0.153,0.166 -0.236,0.245 -0.612,-0.532 -1.205,-1.086 -1.756,-1.662 -3.202,-3.346 -4.57,-8.496 -3.973,-13.014 0.054,-0.414 -0.626,-0.591 -0.792,-0.215 -2.065,4.679 -1.374,9.123 0.939,13.59 0.713,1.377 2.052,3.227 3.673,4.797 -0.001,0.004 -0.001,0.008 -0.001,0.011 -4.542,-0.696 -9.004,-3.519 -11.695,-7.017 -0.077,-0.099 -0.272,-0.048 -0.223,0.094 1.904,5.35 6.739,9.408 12.256,10.519 0.248,0.632 0.597,1.235 1.061,1.782 6.512,7.675 14.133,11.861 22.65,12.441 0.667,0.046 1.326,0.067 1.979,0.067 3.107,0 6.036,-0.495 8.711,-1.253 -0.022,0.463 -0.036,0.928 -0.036,1.396 0,5.367 1.508,10.343 4.078,14.449 -4.28,5.242 -9.302,13.471 -10.689,24.331 -4.05,-0.857 -9.313,0.282 -12.689,1.382 -5.149,1.679 -8.44,5.021 -8.756,10.427 -0.008,0.122 0.171,0.166 0.226,0.062 2.256,-4.214 6.265,-6.612 10.783,-7.498 -0.272,0.121 -0.529,0.24 -0.759,0.351 -2.719,1.308 -4.864,3.431 -6.183,6.13 -0.093,0.19 0.126,0.355 0.286,0.221 1.805,-1.519 4.157,-2.68 6.354,-3.512 0.213,-0.081 0.426,-0.147 0.642,-0.212 0.164,0.916 0.552,1.749 1.079,2.471 -1.58,0.395 -3.159,0.781 -4.781,1.007 -0.109,0.015 -0.11,0.173 -0.028,0.222 1.774,1.043 3.346,1.176 5.395,1.197 0.896,0.009 1.792,-0.09 2.683,-0.185 0.493,0.131 1.002,0.223 1.537,0.223 l 11.878,0 c 3.308,0 5.992,-2.683 5.992,-5.993 0,-1.19 -0.357,-2.291 -0.955,-3.224 0.691,-8.266 4.339,-14.584 7.515,-18.624 2.898,1.444 6.11,2.253 9.496,2.253 l 0.001,0 -0.003,-50.957 0,0 z"
             id="path1128" /><path
             style="fill:#6a9bb7"
             inkscape:connector-curvature="0"
             d="m 164.934,546.908 c -0.598,0.933 -0.955,2.035 -0.955,3.224 0,3.309 2.683,5.993 5.992,5.993 l 11.878,0 c 0.535,0 1.043,-0.093 1.537,-0.223 0.892,0.095 1.788,0.195 2.683,0.185 2.048,-0.021 3.621,-0.154 5.395,-1.197 0.082,-0.049 0.081,-0.207 -0.028,-0.222 -1.622,-0.226 -3.201,-0.612 -4.781,-1.007 0.527,-0.722 0.915,-1.555 1.079,-2.471 0.216,0.065 0.429,0.131 0.642,0.212 2.196,0.832 4.548,1.993 6.354,3.512 0.16,0.134 0.379,-0.031 0.286,-0.221 -1.32,-2.699 -3.464,-4.822 -6.183,-6.13 -0.23,-0.111 -0.487,-0.23 -0.759,-0.351 4.518,0.886 8.527,3.284 10.783,7.498 0.055,0.104 0.234,0.06 0.226,-0.062 -0.316,-5.406 -3.607,-8.748 -8.756,-10.427 -3.376,-1.1 -8.639,-2.239 -12.689,-1.382 -1.387,-10.86 -6.409,-19.091 -10.69,-24.331 2.569,-4.106 4.077,-9.082 4.077,-14.449 0,-0.469 -0.013,-0.934 -0.036,-1.396 2.675,0.758 5.605,1.254 8.713,1.254 0.653,0 1.311,-0.021 1.978,-0.067 8.517,-0.58 16.139,-4.767 22.651,-12.441 0.464,-0.547 0.814,-1.15 1.061,-1.782 5.517,-1.111 10.351,-5.169 12.256,-10.519 0.049,-0.142 -0.146,-0.193 -0.223,-0.094 -2.692,3.499 -7.154,6.321 -11.695,7.017 0,-0.004 0,-0.008 -0.002,-0.011 1.621,-1.57 2.959,-3.42 3.673,-4.797 2.313,-4.467 3.004,-8.911 0.939,-13.59 -0.166,-0.376 -0.846,-0.199 -0.792,0.215 0.597,4.518 -0.77,9.668 -3.973,13.014 -0.551,0.576 -1.143,1.13 -1.756,1.662 -0.084,-0.079 -0.148,-0.17 -0.236,-0.245 -0.033,-0.028 -0.07,-0.047 -0.104,-0.075 0.198,-0.774 0.363,-1.51 0.486,-2.162 0.972,-5.153 -0.507,-10.471 -3.552,-14.661 -0.134,-0.186 -0.44,-0.02 -0.314,0.184 3.233,5.252 1.62,10.309 -0.998,15.199 -0.976,0.048 -1.942,0.311 -2.816,0.789 -0.477,-1.282 -0.542,-3.248 -0.517,-3.763 0.091,-1.88 0.368,-4.569 1.303,-6.24 0.034,-0.062 -0.044,-0.118 -0.096,-0.074 -3.67,3.161 -5.393,8.569 -3.67,12.813 -3.885,4.138 -7.987,6.328 -12.507,6.636 -8.636,0.585 -16.092,-5.873 -16.163,-5.938 -0.919,-0.824 -2.01,-1.33 -3.14,-1.54 -3.812,-3.058 -8.499,-4.865 -13.573,-4.866 l 0,50.958 c 3.386,0 6.599,-0.81 9.497,-2.253 3.175,4.037 6.824,10.356 7.515,18.622 z"
             id="path1130" /></g><g
           id="g1132"><ellipse
             style="fill:#ebdccc"
             cx="147.92101"
             cy="505.05801"
             rx="13.819"
             ry="15.24"
             id="ellipse1134" /></g><g
           id="g1136"><path
             style="fill:#5b8293"
             inkscape:connector-curvature="0"
             d="m 147.921,415.234 c -5.152,0 -9.748,0.743 -13.816,2.036 l -6.185,-23.348 c -15.253,7.167 -12.883,29.62 -11.838,36.151 -2.913,4.014 -4.777,8.426 -5.624,12.683 0,0 -1.189,10.761 -7.667,15.079 0,0 13.351,47.081 45.13,47.224 l 0.001,0 -0.001,-89.825 0,0 z"
             id="path1138" /><path
             style="fill:#6a9bb7"
             inkscape:connector-curvature="0"
             d="m 193.052,457.834 c -6.478,-4.318 -7.667,-15.079 -7.667,-15.079 l -0.001,0 c -0.59,-4.67 -2.445,-9.312 -5.51,-13.418 1.075,-7.333 2.775,-28.497 -11.95,-35.416 l -6.152,23.226 c -4.108,-1.222 -8.726,-1.914 -13.849,-1.914 l 0,89.825 c 27.314,-0.344 45.129,-47.224 45.129,-47.224 z"
             id="path1140" /></g><g
           id="g1142"><g
             id="g1144"><g
               id="g1146"><path
                 style="fill:#e88683"
                 inkscape:connector-curvature="0"
                 d="m 165.601,420.735 5.344,-16.018 c 0,0 6.694,5.543 4.212,23.716 l 0.552,0.445 -10.108,-8.143 z"
                 id="path1148" /></g><g
               id="g1150"><path
                 style="fill:#e88683"
                 inkscape:connector-curvature="0"
                 d="m 130.243,420.735 -5.344,-16.018 c 0,0 -6.694,5.543 -4.212,23.716 l -0.552,0.445 10.108,-8.143 z"
                 id="path1152" /></g></g><g
             id="g1154"><g
               id="g1156"><path
                 style="fill:#dedc9c"
                 inkscape:connector-curvature="0"
                 d="m 120.607,454.828 c 0,0 2.089,9.465 14.864,9.465 0,0 3.49,10e-4 6.296,-2.159 0,0 -8.204,-9.213 -21.16,-7.306 z"
                 id="path1158" /></g><g
               id="g1160"><path
                 style="fill:#dedc9c"
                 inkscape:connector-curvature="0"
                 d="m 175.237,454.828 c 0,0 -2.089,9.465 -14.864,9.465 0,0 -3.489,10e-4 -6.297,-2.159 0.001,0 8.205,-9.213 21.161,-7.306 z"
                 id="path1162" /></g></g><g
             id="g1164"><ellipse
               style="fill:#38454a"
               cx="147.922"
               cy="488.742"
               rx="7.3870001"
               ry="4.6500001"
               id="ellipse1166" /></g></g></g><g
         id="g1168"><g
           id="g1170"><g
             id="g1172"><g
               id="g1174"><path
                 style="fill:#f6f6f6"
                 inkscape:connector-curvature="0"
                 d="m 161.446,282.369 c 5.568,-6.109 15.939,-9.244 27.051,-7.35 11.066,1.891 19.778,8.242 23.036,15.81 6.893,-3.779 16.98,-3.964 26.621,0.26 8.165,3.577 14.212,9.531 17.034,15.901 l 8.772,-23.595 c 0,0 -77.967,-46.828 -134.764,-13.38 1.994,-0.324 4.055,-0.511 6.18,-0.511 11.845,-0.001 21.956,5.334 26.07,12.865 z"
                 id="path1176" /></g><g
               id="g1178"><path
                 style="fill:#c7c6c6"
                 inkscape:connector-curvature="0"
                 d="m 108.61,287.087 c 0,0 73.392,-14.119 142.473,30.942 l 4.105,-11.038 c -2.822,-6.369 -8.869,-12.324 -17.034,-15.901 -9.642,-4.224 -19.729,-4.04 -26.621,-0.26 -3.257,-7.568 -11.97,-13.919 -23.036,-15.81 -11.112,-1.894 -21.484,1.241 -27.051,7.35 -4.114,-7.531 -14.224,-12.866 -26.069,-12.866 -2.126,0 -4.186,0.188 -6.18,0.511 -7.279,4.287 -14.212,9.879 -20.587,17.072 z"
                 id="path1180" /></g></g><g
             id="g1182"><path
               style="fill:#946138"
               inkscape:connector-curvature="0"
               d="m 148.867,599.396 c -0.746,0 -1.505,-0.133 -2.245,-0.405 -3.341,-1.244 -5.039,-4.956 -3.799,-8.294 L 257.914,281.15 c 1.242,-3.34 4.952,-5.044 8.294,-3.8 3.339,1.241 5.038,4.956 3.797,8.294 L 154.914,595.19 c -0.966,2.596 -3.428,4.206 -6.047,4.206 z"
               id="path1184" /></g></g><g
           id="g1186"><g
             id="g1188"><path
               style="fill:#1e3136"
               inkscape:connector-curvature="0"
               d="m 299.993,472.468 c -9.972,0 -18.058,-8.085 -18.058,-18.061 l 0,-3.915 c -20.676,-2.965 -37.626,-12.073 -41.118,-38.235 -0.856,-6.418 -0.917,-13.979 -0.011,-22.927 0.171,-1.646 0.409,-3.265 0.681,-4.875 5.226,-30.555 29.664,-53.615 63.163,-53.615 0.159,0 0.313,0.006 0.47,0.006 l 0,-17.547 c -0.035,0.006 -0.057,0.009 -0.057,0.009 -43.205,0 -74.728,29.744 -81.465,69.153 -0.352,2.076 -0.66,4.17 -0.876,6.291 -1.17,11.538 -1.094,21.293 0.009,29.569 3.447,25.807 17.048,38.746 35.182,45.118 -8.583,6.984 -15.25,15.774 -18.831,25.671 -2.162,0.275 -4.389,0.378 -6.662,0.224 -9.89,-0.678 -18.783,-5.819 -27.19,-15.731 -4.608,-5.425 -12.746,-6.1 -18.184,-1.489 -5.431,4.608 -6.099,12.748 -1.489,18.182 12.967,15.284 28.145,23.62 45.106,24.776 1.327,0.091 2.64,0.133 3.94,0.133 0.846,0 1.684,-0.021 2.515,-0.055 4.596,23.826 28.031,83.885 28.031,83.885 l 39.971,0.372 0,-126.94 -5.127,0 z"
               id="path1190" /><path
               style="fill:#c7c6c6"
               inkscape:connector-curvature="0"
               d="m 241.487,384.455 c -0.272,1.61 -0.51,3.229 -0.681,4.875 -0.906,8.947 -0.846,16.509 0.011,22.927 3.492,26.161 20.443,35.269 41.118,38.235 l 0,3.915 c 0,9.976 8.087,18.061 18.058,18.061 l 5.127,0 0,-141.622 c -0.157,0 -0.312,-0.006 -0.47,-0.006 -33.499,0 -57.938,23.06 -63.163,53.615 z"
               id="path1192" /><path
               style="fill:#38454a"
               inkscape:connector-curvature="0"
               d="m 373.491,513.208 c 3.065,-19.399 -5.873,-37.067 -20.612,-49.324 18.827,-6.215 32.886,-19.302 35.426,-46.61 0.75,-8.061 0.534,-17.456 -0.897,-28.522 17.877,-5.849 16.604,14.975 30.148,14.194 13.545,-0.781 3.87,-25.668 3.87,-25.668 C 390.915,300.361 307.529,312.921 305.12,313.3 l 0,17.547 c 33.009,0.169 55.7,17.825 62.34,52.132 0.398,2.06 0.75,4.173 1.032,6.354 1.109,8.578 1.275,15.862 0.696,22.11 -2.563,27.526 -20.211,36.428 -41.46,39.194 l 0,3.77 c 0,9.976 -8.082,18.061 -18.06,18.061 l -4.548,0 0,126.94 40.315,0.378 c 0,0 24.506,-64.105 28.056,-86.578 z"
               id="path1194" /><path
               style="fill:#f6eade"
               inkscape:connector-curvature="0"
               d="m 309.668,472.468 c 9.978,0 18.06,-8.085 18.06,-18.061 l 0,-3.77 c 21.249,-2.766 38.897,-11.668 41.46,-39.194 0.579,-6.248 0.413,-13.532 -0.696,-22.11 -0.281,-2.182 -0.634,-4.294 -1.032,-6.354 -6.64,-34.307 -29.331,-51.963 -62.34,-52.132 l 0,141.622 4.548,0 z"
               id="path1196" /></g><g
             id="g1198"><path
               style="fill:#c7c6c6"
               inkscape:connector-curvature="0"
               d="m 172.955,477.588 c -3.478,10.506 0.741,21.353 9.418,24.225 8.683,2.875 18.538,-3.319 22.013,-13.825 3.48,-10.512 -0.741,-21.356 -9.421,-24.231 -8.68,-2.872 -18.535,3.322 -22.01,13.831 z"
               id="path1200" /></g><g
             id="g1202"><g
               id="g1204"><path
                 style="fill:#1e3136"
                 inkscape:connector-curvature="0"
                 d="m 261.471,414.193 c -7.124,0 -12.899,-5.776 -12.899,-12.899 0,-7.126 5.775,-12.902 12.899,-12.902 1.486,0 14.565,-0.36 16.24,-12.833 0.949,-7.059 7.436,-12.016 14.5,-11.068 7.062,0.95 12.019,7.444 11.068,14.503 -1.632,12.176 -12.477,35.199 -41.808,35.199 z"
                 id="path1206" /></g><g
               id="g1208"><path
                 style="fill:#1e3136"
                 inkscape:connector-curvature="0"
                 d="m 349.833,414.193 c -29.331,0 -40.176,-23.024 -41.808,-35.2 -0.95,-7.059 4.006,-13.553 11.069,-14.503 7.04,-0.938 13.459,3.94 14.479,10.917 0.655,3.928 3.551,12.984 16.261,12.984 7.126,0 12.899,5.776 12.899,12.902 -10e-4,7.124 -5.774,12.9 -12.9,12.9 z"
                 id="path1210" /></g></g></g></g></g></g><g
     inkscape:groupmode="layer"
     id="layer1"
     inkscape:label="Layer 1"
     style="display:inline" /></svg>