<svg xmlns="http://www.w3.org/2000/svg" width="800" height="800" viewBox="0 0 800 800"><defs><filter id="a" x="-1.037" width="3.074" y="-1.117" height="3.233" color-interpolation-filters="sRGB"><feGaussianBlur stdDeviation="307.525"/></filter></defs><rect width="711.864" height="661.017" x="57.627" y="54.237" rx="1.542" ry="1.143" fill="#efe2c2" fill-opacity="0" filter="url(#a)"/><path d="M615.9 396.385c-3.834-8.018-19.172-6.973-20.567 4.182-1.394 11.155-6.945 14.736-6.945 14.736l-.15.723 2.104-19.808c.543-2.545.834-5.17.834-7.86 0-22.52-19.924-40.776-44.503-40.776h-.024v153.96h17.885s9.843 2.008 17.12-4.627c1.407-1.18 2.518-2.626 3.425-4.2.087-.14.176-.274.26-.418 6.994-12.062.285-.535.285-.535.304-.612.61-1.233.92-1.863.284-.628.543-1.275.842-1.884.285-.633.596-1.274.904-1.895.34-.625.53-1.137.85-1.683l.216-.408c.027-.037-.043.043.064-.088l.01-.018.022-.04.043-.074.085-.153.346-.63c.222-.454.496-.754.75-1.158.524-.67 1.12-1.317 1.66-1.64.55-.347.997-.5 1.392-.537.396-.046.85.065 1.274.422l.165.13c.02.02.04.03.072.04.03-.097.24.338.38.586l.06.106-.068-.16.01.02c.017.027.045.037.074.077l.113.53c.124.895.06 2.193.05 3.482-.017 1.3-.025 2.692.18 4.145.063.71.27 1.468.444 2.186.275.736.5 1.46.934 2.134.346.703.895 1.282 1.392 1.856.573.5 1.115.988 1.77 1.357.637.33 1.388.778 1.874.877l.804.253.398.126c.234.085.082.026.14.05l.033.002.06.013.12.025.24.05c1.263.265 2.63.276 3.862-.105 1.238-.37 2.267-1.098 3.002-1.906 1.466-1.65 2.105-3.42 2.576-4.947.457-1.543.67-2.907.814-4.027.268-2.244.232-3.526.232-3.526s-.165 1.278-.77 3.42c-.308 1.062-.723 2.35-1.374 3.716-.642 1.35-1.532 2.862-2.86 3.873-1.327 1.03-2.96 1.203-4.636.5-1.88-.81-3.3-1.894-3.79-3.515-.293-.77-.368-1.69-.31-2.71.035-1.007.227-2.112.456-3.308.213-1.212.528-2.427.642-4.08.017-.43.002-.914-.01-1.372-.03-.27-.088-.57-.145-.854l-.094-.43-.024-.105-.013-.056c-.04-.104.07.16-.09-.246l-.04-.113c-.127-.33-.13-.5-.46-1.13-.134-.26-.28-.526-.426-.773l-.434-.62c-1.173-1.634-3.022-2.94-5.132-3.45-2.107-.542-4.26-.26-6.022.338-1.82.585-3.23 1.49-4.594 2.384-.613.467-1.305.933-1.858 1.42l-.71.603c.997-3.117 1.54-6.417 1.54-9.837 0-1.482-.112-2.94-.307-4.372l1.314-12.378c1.22-.442 2.56-.51 3.8.366 3.5 2.476 2.414 8.715 6.25 10.11 3.834 1.393 9.41 1.045 11.38-7.54 1.97-8.587-2.32-8.497-2.32-21.703 0-13.208 6.625-5.5 6.625-5.5 5.927 14.41-4.88 25.68 2.092 27.072 6.972 1.395 9.063-8.945 9.063-8.945 5.925-16.268-1.744-39.858-5.58-47.875z" fill="#b6dbd8"/><path d="M502.17 388.357c0 2.69.292 5.317.834 7.86l2.105 19.82-.154-.734s-5.552-3.58-6.947-14.736c-1.393-11.155-16.73-12.2-20.566-4.182-3.835 8.017-11.503 31.607-5.577 47.875 0 0 2.092 10.34 9.063 8.945 6.974-1.393-3.832-12.663 2.094-27.073 0 0 6.623-7.708 6.623 5.5 0 13.206-4.29 13.116-2.32 21.702 1.972 8.586 7.55 8.934 11.384 7.54 3.836-1.394 2.748-7.633 6.25-10.11 1.24-.874 2.58-.807 3.8-.364l1.294 12.174c-.214 1.498-.335 3.024-.335 4.576 0 18.995 16.535 34.394 36.932 34.394v-153.96c-24.567.012-44.48 18.26-44.48 40.773z" fill="#95afaf"/><path d="M528.814 393.42c4.096 0 7.56 2.703 8.708 6.42.26-.85.405-1.754.405-2.69 0-5.03-4.082-9.108-9.113-9.108-5.028 0-9.11 4.08-9.11 9.11 0 .934.144 1.837.405 2.69 1.145-3.72 4.61-6.42 8.702-6.42zm36.36 0c4.095 0 7.56 2.703 8.706 6.42.262-.85.404-1.754.404-2.69 0-5.03-4.078-9.108-9.11-9.108-5.03 0-9.11 4.08-9.11 9.11 0 .934.14 1.837.403 2.69 1.15-3.72 4.612-6.42 8.708-6.42zm3.72 28.274c.02-8.726-9.96-15.803-22.246-15.803-12.284 0-22.244 7.08-22.244 15.806 0 0-.202 18.727 8.282 20.24 0 0 3.37.234 4.3-3.02.928-3.256 1.625-6.74 4.065-7.323 2.44-.58 1.397 6.74 1.397 6.74s-.116 5 3.37 4.417c3.487-.58 3.602-4.763 2.905-8.715-.696-3.953.698-6.51 2.325-5.81 1.627.696 3.022 5.11 2.674 8.714-.35 3.6 1.3 5.44 2.684 5.86 1.383.413 12.445-.21 12.492-21.105z" fill="#1e3136"/><path d="M259.64 420.192c-5.073 0-9.762 1.808-13.573 4.866-1.13.21-2.22.716-3.14 1.54-.07.065-7.527 6.523-16.163 5.938-4.52-.308-8.622-2.498-12.506-6.636 1.723-4.245 0-9.652-3.67-12.813-.052-.044-.13.01-.096.074.935 1.674 1.212 4.36 1.303 6.24.024.518-.04 2.485-.517 3.766-.874-.478-1.84-.742-2.816-.79-2.618-4.89-4.23-9.946-.998-15.198.126-.204-.18-.37-.314-.184-3.045 4.19-4.524 9.508-3.55 14.66.122.653.287 1.39.485 2.163-.034.027-.07.047-.104.075-.085.076-.15.167-.233.246-.612-.532-1.205-1.086-1.756-1.662-3.202-3.346-4.57-8.496-3.973-13.014.054-.415-.626-.592-.792-.216-2.065 4.68-1.374 9.123.94 13.59.712 1.377 2.05 3.227 3.672 4.797v.013c-4.543-.696-9.005-3.52-11.696-7.017-.076-.1-.27-.05-.222.093 1.904 5.35 6.74 9.407 12.256 10.518.248.633.597 1.236 1.06 1.783 6.513 7.675 14.134 11.86 22.65 12.44.668.047 1.327.068 1.98.068 3.107 0 6.036-.494 8.71-1.252-.02.463-.035.928-.035 1.396 0 5.37 1.507 10.345 4.077 14.45-4.28 5.243-9.302 13.47-10.69 24.33-4.05-.855-9.312.284-12.688 1.384-5.15 1.68-8.44 5.02-8.757 10.427-.008.123.17.167.226.063 2.255-4.214 6.264-6.612 10.782-7.498-.27.12-.527.24-.757.35-2.72 1.31-4.864 3.432-6.183 6.13-.094.19.125.356.285.222 1.805-1.52 4.157-2.68 6.354-3.512.21-.08.425-.147.64-.212.165.916.553 1.75 1.08 2.47-1.58.396-3.16.782-4.78 1.008-.11.016-.11.174-.03.223 1.775 1.042 3.347 1.175 5.396 1.196.896.008 1.792-.09 2.683-.186.49.13 1 .223 1.535.223h11.878c3.308 0 5.992-2.683 5.992-5.993 0-1.19-.357-2.29-.955-3.224.69-8.266 4.34-14.584 7.515-18.624 2.898 1.444 6.11 2.253 9.496 2.253v-50.96z" fill="#5b8293"/><path d="M276.653 487.52c-.598.934-.955 2.036-.955 3.225 0 3.31 2.683 5.993 5.992 5.993h11.878c.535 0 1.043-.093 1.537-.223.892.095 1.788.195 2.683.185 2.048-.02 3.62-.154 5.395-1.197.082-.05.08-.207-.028-.222-1.622-.223-3.2-.61-4.78-1.004.526-.722.914-1.555 1.078-2.47.216.064.43.13.642.21 2.196.833 4.548 1.994 6.354 3.513.16.133.376-.03.283-.22-1.32-2.7-3.464-4.824-6.183-6.13-.23-.113-.486-.23-.76-.353 4.52.886 8.53 3.284 10.785 7.498.055.104.234.06.226-.062-.314-5.405-3.605-8.747-8.754-10.426-3.376-1.1-8.64-2.24-12.69-1.382-1.386-10.86-6.408-19.09-10.69-24.33 2.57-4.107 4.078-9.083 4.078-14.45 0-.47-.013-.934-.036-1.396 2.675.757 5.605 1.253 8.713 1.253.655 0 1.313-.02 1.98-.067 8.517-.58 16.14-4.767 22.65-12.44.465-.548.815-1.15 1.06-1.783 5.52-1.11 10.353-5.17 12.258-10.52.05-.14-.146-.192-.223-.093-2.692 3.5-7.154 6.32-11.695 7.016 0-.004 0-.008-.004-.01 1.62-1.57 2.96-3.42 3.673-4.798 2.31-4.467 3.002-8.91.94-13.59-.17-.376-.85-.2-.795.215.597 4.52-.77 9.67-3.973 13.015-.55.576-1.143 1.13-1.756 1.662-.084-.08-.148-.17-.236-.245-.032-.028-.07-.047-.103-.075.198-.774.363-1.51.486-2.162.972-5.153-.507-10.47-3.552-14.66-.132-.187-.44-.02-.312.183 3.233 5.254 1.62 10.31-.998 15.2-.977.05-1.943.31-2.817.79-.477-1.282-.542-3.25-.517-3.763.09-1.88.368-4.57 1.303-6.24.032-.062-.046-.118-.098-.074-3.67 3.16-5.393 8.568-3.67 12.812-3.885 4.138-7.987 6.328-12.507 6.636-8.636.586-16.092-5.872-16.163-5.937-.92-.824-2.01-1.33-3.14-1.54-3.812-3.058-8.5-4.865-13.573-4.866v50.958c3.386 0 6.6-.81 9.497-2.253 3.175 4.037 6.824 10.356 7.515 18.62z" fill="#6a9bb7"/><ellipse cx="147.921" cy="505.058" rx="13.819" ry="15.24" fill="#ebdccc" transform="translate(111.719 -59.387)"/><path d="M259.64 355.847c-5.152 0-9.748.743-13.816 2.036l-6.185-23.348c-15.256 7.167-12.886 29.62-11.84 36.15-2.914 4.015-4.778 8.427-5.625 12.684 0 0-1.19 10.76-7.667 15.076 0 0 13.35 47.08 45.13 47.224v-89.824z" fill="#5b8293"/><path d="M304.77 398.447c-6.477-4.318-7.666-15.08-7.666-15.08-.59-4.67-2.446-9.31-5.51-13.417 1.074-7.333 2.774-28.497-11.95-35.416l-6.153 23.226c-4.105-1.222-8.723-1.914-13.846-1.914v89.825c27.314-.34 45.13-47.22 45.13-47.22z" fill="#6a9bb7"/><path d="M277.32 361.348l5.344-16.018s6.694 5.543 4.212 23.716l.552.445-10.108-8.14zm-35.358 0l-5.344-16.018s-6.694 5.543-4.212 23.716l-.552.445 10.108-8.14z" fill="#e88683"/><path d="M232.326 395.44s2.09 9.466 14.864 9.466c0 0 3.49 0 6.296-2.16 0 0-8.204-9.212-21.16-7.305zm54.63 0s-2.09 9.466-14.864 9.466c0 0-3.49 0-6.297-2.16 0 0 8.205-9.212 21.16-7.305z" fill="#dedc9c"/><ellipse cx="147.922" cy="488.742" rx="7.387" ry="4.65" fill="#38454a" transform="translate(111.719 -59.387)"/><path d="M273.165 222.982c5.568-6.11 15.94-9.244 27.05-7.35 11.067 1.89 19.78 8.242 23.037 15.81 6.893-3.78 16.98-3.964 26.62.26 8.166 3.577 14.213 9.53 17.035 15.9l8.772-23.594s-77.97-46.828-134.767-13.38c1.994-.324 4.055-.51 6.18-.51 11.845-.002 21.956 5.333 26.07 12.864z" fill="#f6f6f6"/><path d="M220.33 227.7s73.39-14.12 142.472 30.942l4.105-11.038c-2.822-6.37-8.87-12.324-17.034-15.9-9.642-4.225-19.73-4.04-26.62-.26-3.258-7.57-11.97-13.92-23.037-15.81-11.112-1.895-21.484 1.24-27.05 7.35-4.115-7.532-14.225-12.867-26.07-12.867-2.126 0-4.186.188-6.18.51-7.28 4.288-14.212 9.88-20.587 17.073z" fill="#c7c6c6"/><path d="M260.586 540.01c-.746 0-1.505-.134-2.245-.406-3.34-1.244-5.036-4.956-3.796-8.294l115.09-309.547c1.243-3.34 4.953-5.044 8.295-3.8 3.34 1.24 5.037 4.956 3.796 8.294l-115.09 309.546c-.967 2.596-3.43 4.206-6.048 4.206z" fill="#946138"/><path d="M411.712 413.08c-9.972 0-18.058-8.084-18.058-18.06v-3.915c-20.676-2.965-37.626-12.073-41.118-38.235-.856-6.418-.917-13.98-.01-22.927.17-1.646.408-3.265.68-4.875 5.226-30.555 29.664-53.615 63.163-53.615.156 0 .31.006.47.006v-17.55l-.06.01c-43.205 0-74.728 29.742-81.465 69.15-.352 2.077-.66 4.17-.876 6.29-1.17 11.54-1.094 21.295.01 29.57 3.446 25.808 17.047 38.747 35.18 45.12-8.582 6.983-15.25 15.773-18.83 25.67-2.162.275-4.39.38-6.662.224-9.89-.678-18.785-5.82-27.19-15.73-4.61-5.426-12.748-6.1-18.186-1.49-5.43 4.608-6.1 12.748-1.49 18.182 12.968 15.283 28.146 23.62 45.107 24.775 1.327.09 2.64.134 3.94.134.846 0 1.684-.02 2.515-.055 4.596 23.825 28.03 83.884 28.03 83.884l39.972.372V413.08h-5.128z" fill="#1e3136"/><path d="M353.206 325.068c-.272 1.61-.51 3.23-.68 4.875-.907 8.947-.847 16.51.01 22.927 3.492 26.16 20.443 35.27 41.118 38.235v3.915c0 9.976 8.087 18.06 18.058 18.06h5.127V271.46c-.16 0-.315-.007-.47-.007-33.5 0-57.94 23.06-63.166 53.615z" fill="#c7c6c6"/><path d="M485.21 453.82c3.065-19.398-5.873-37.066-20.612-49.323 18.827-6.215 32.886-19.302 35.426-46.61.75-8.06.534-17.456-.897-28.522 17.877-5.85 16.604 14.975 30.148 14.194 13.545-.784 3.87-25.67 3.87-25.67-30.51-76.918-113.897-64.358-116.306-63.98v17.548c33.006.17 55.7 17.824 62.34 52.13.395 2.06.75 4.174 1.03 6.355 1.11 8.578 1.274 15.862.695 22.11-2.563 27.526-20.21 36.428-41.46 39.194v3.77c0 9.975-8.082 18.06-18.06 18.06h-4.548v126.94l40.314.38s24.507-64.107 28.057-86.58z" fill="#38454a"/><path d="M421.387 413.08c9.978 0 18.06-8.084 18.06-18.06v-3.77c21.25-2.766 38.897-11.668 41.46-39.194.58-6.248.413-13.532-.696-22.11-.28-2.182-.63-4.294-1.03-6.354-6.64-34.307-29.33-51.963-62.34-52.132v141.622h4.55z" fill="#f6eade"/><path d="M284.674 418.2c-3.478 10.507.74 21.354 9.418 24.226 8.683 2.875 18.538-3.32 22.013-13.825 3.48-10.51-.74-21.353-9.42-24.23-8.68-2.87-18.536 3.324-22.01 13.83z" fill="#c7c6c6"/><path d="M373.19 354.806c-7.124 0-12.9-5.776-12.9-12.9 0-7.125 5.776-12.9 12.9-12.9 1.486 0 14.565-.36 16.24-12.834.95-7.06 7.436-12.016 14.5-11.068 7.062.95 12.02 7.444 11.068 14.503-1.632 12.176-12.477 35.2-41.808 35.2zm88.362 0c-29.33 0-40.176-23.024-41.808-35.2-.95-7.06 4.006-13.553 11.07-14.503 7.04-.938 13.458 3.94 14.478 10.917.655 3.928 3.55 12.984 16.26 12.984 7.127 0 12.9 5.776 12.9 12.902 0 7.124-5.774 12.9-12.9 12.9z" fill="#1e3136"/></svg>