<svg xmlns="http://www.w3.org/2000/svg" width="800" height="800" viewBox="0 0 800 800"><defs><filter id="a" x="-1.037" width="3.074" y="-1.117" height="3.233" color-interpolation-filters="sRGB"><feGaussianBlur stdDeviation="307.525"/></filter></defs><rect width="711.864" height="661.017" x="57.627" y="54.237" rx="1.542" ry="1.143" fill="#efe2c2" fill-opacity="0" filter="url(#a)"/><path d="M615.9 396.385c-3.834-8.018-19.172-6.973-20.567 4.182-1.394 11.155-6.945 14.736-6.945 14.736l-.15.723 2.104-19.808c.543-2.545.834-5.17.834-7.86 0-22.52-19.924-40.776-44.503-40.776h-.024v153.96h17.88s9.84 2.008 17.12-4.627c1.405-1.18 2.52-2.626 3.423-4.2.086-.14.175-.274.26-.418 6.993-12.062.284-.535.284-.535.304-.612.61-1.233.92-1.863.284-.63.543-1.28.842-1.89.284-.634.595-1.275.903-1.896.34-.626.53-1.138.85-1.684l.216-.407c.026-.038-.044.042.063-.09l.01-.017.022-.04.04-.074.086-.154.347-.63c.222-.455.496-.755.75-1.16.524-.67 1.12-1.316 1.66-1.64.55-.346.997-.5 1.392-.536.395-.045.85.066 1.273.423l.164.13c.02.02.04.03.072.04.03-.096.24.34.38.587l.06.105-.07-.16.01.02c.017.026.045.036.074.076l.113.53c.124.893.06 2.19.05 3.48-.017 1.3-.025 2.692.18 4.145.063.71.27 1.468.444 2.186.275.737.5 1.46.934 2.135.347.7.896 1.28 1.393 1.854.573.5 1.115.988 1.77 1.357.637.33 1.388.78 1.874.878l.804.252.398.126c.235.083.083.024.14.05h.034l.06.013.12.025.24.05c1.262.264 2.63.275 3.86-.106 1.238-.37 2.267-1.1 3-1.907 1.468-1.65 2.107-3.42 2.578-4.945.46-1.543.67-2.907.816-4.027.27-2.243.234-3.525.234-3.525s-.166 1.28-.77 3.42c-.31 1.063-.724 2.35-1.375 3.717-.645 1.35-1.535 2.86-2.86 3.872-1.33 1.03-2.96 1.202-4.64.5-1.88-.81-3.3-1.895-3.79-3.516-.293-.77-.37-1.69-.31-2.71.035-1.005.227-2.11.456-3.306.212-1.212.527-2.427.64-4.08.018-.43.003-.914-.01-1.372-.03-.27-.087-.57-.144-.853l-.094-.43-.025-.107-.012-.056c-.04-.103.07.16-.09-.245l-.04-.114c-.126-.33-.13-.5-.46-1.13-.133-.26-.28-.527-.425-.774l-.435-.62c-1.175-1.635-3.024-2.94-5.134-3.45-2.106-.543-4.26-.26-6.02.337-1.82.584-3.23 1.49-4.594 2.383-.613.468-1.305.934-1.86 1.42l-.71.604c.998-3.117 1.54-6.417 1.54-9.837 0-1.483-.11-2.94-.306-4.373l1.314-12.377c1.22-.443 2.56-.51 3.8.365 3.5 2.476 2.414 8.715 6.25 10.11 3.834 1.393 9.41 1.045 11.38-7.54 1.97-8.587-2.32-8.497-2.32-21.703 0-13.208 6.625-5.5 6.625-5.5 5.927 14.41-4.88 25.68 2.092 27.072 6.97 1.394 9.062-8.946 9.062-8.946 5.924-16.27-1.745-39.86-5.58-47.874z" fill="#b6dbd8"/><path d="M502.17 388.357c0 2.69.292 5.317.834 7.86l2.105 19.82-.16-.734s-5.55-3.58-6.948-14.736c-1.393-11.155-16.73-12.2-20.566-4.182-3.835 8.017-11.503 31.607-5.577 47.875 0 0 2.092 10.34 9.063 8.945 6.974-1.393-3.832-12.663 2.094-27.073 0 0 6.625-7.708 6.625 5.5 0 13.206-4.29 13.116-2.32 21.702 1.972 8.586 7.55 8.934 11.384 7.54 3.833-1.394 2.745-7.633 6.25-10.11 1.24-.874 2.58-.807 3.8-.364l1.29 12.174c-.212 1.498-.333 3.024-.333 4.576 0 18.995 16.535 34.394 36.932 34.394v-153.96c-24.568.012-44.48 18.26-44.48 40.773z" fill="#95afaf"/><path d="M528.814 393.42c4.096 0 7.56 2.703 8.708 6.42.26-.85.405-1.754.405-2.69 0-5.03-4.082-9.108-9.113-9.108-5.028 0-9.11 4.08-9.11 9.11 0 .934.144 1.837.405 2.69 1.14-3.72 4.61-6.42 8.7-6.42zm36.36 0c4.095 0 7.56 2.703 8.706 6.42.262-.85.404-1.754.404-2.69 0-5.03-4.078-9.108-9.11-9.108-5.03 0-9.11 4.08-9.11 9.11 0 .934.14 1.837.403 2.69 1.15-3.72 4.612-6.42 8.708-6.42zm3.72 28.274c.02-8.726-9.96-15.803-22.246-15.803-12.284 0-22.244 7.08-22.244 15.81 0 0-.202 18.73 8.282 20.24 0 0 3.37.237 4.3-3.02.928-3.253 1.625-6.74 4.065-7.32 2.44-.58 1.4 6.74 1.4 6.74s-.112 5 3.37 4.417c3.49-.58 3.6-4.762 2.91-8.714-.697-3.953.697-6.51 2.324-5.81 1.627.696 3.02 5.11 2.674 8.714-.35 3.6 1.3 5.44 2.684 5.86 1.384.413 12.446-.21 12.493-21.105z" fill="#1e3136"/><path d="M259.64 420.192c-5.073 0-9.762 1.808-13.573 4.866-1.13.21-2.22.716-3.14 1.54-.07.065-7.527 6.523-16.163 5.938-4.52-.308-8.622-2.498-12.506-6.636 1.723-4.245 0-9.652-3.67-12.813-.052-.044-.13.01-.096.074.935 1.68 1.212 4.36 1.303 6.24.024.52-.04 2.49-.517 3.77-.874-.48-1.84-.74-2.816-.79-2.618-4.89-4.23-9.943-.998-15.2.126-.2-.18-.37-.314-.18-3.045 4.19-4.524 9.508-3.55 14.66.122.653.287 1.39.485 2.163-.034.027-.07.047-.104.075-.08.076-.15.167-.23.246-.61-.533-1.2-1.087-1.752-1.663-3.202-3.345-4.57-8.495-3.973-13.013.054-.415-.626-.592-.792-.216-2.064 4.68-1.373 9.124.94 13.59.713 1.378 2.05 3.228 3.673 4.798v.013c-4.545-.695-9.007-3.52-11.698-7.016-.076-.1-.27-.05-.222.09 1.905 5.35 6.74 9.407 12.257 10.52.247.632.596 1.235 1.06 1.782 6.512 7.675 14.133 11.86 22.65 12.44.667.047 1.326.068 1.98.068 3.106 0 6.035-.493 8.71-1.25-.02.462-.036.927-.036 1.395 0 5.37 1.507 10.344 4.077 14.45-4.28 5.242-9.303 13.47-10.69 24.33-4.05-.856-9.313.283-12.69 1.383-5.15 1.68-8.44 5.02-8.756 10.424-.008.123.17.167.226.063 2.253-4.216 6.262-6.614 10.78-7.5-.27.12-.527.24-.757.35-2.72 1.31-4.864 3.432-6.183 6.13-.094.19.125.356.285.222 1.804-1.52 4.156-2.68 6.353-3.51.21-.08.423-.147.64-.21.163.914.55 1.75 1.08 2.47-1.58.394-3.16.78-4.78 1.006-.11.016-.11.174-.03.223 1.773 1.044 3.345 1.177 5.394 1.198.896.008 1.792-.09 2.683-.186.49.13 1 .226 1.533.226h11.88c3.307 0 5.99-2.683 5.99-5.993 0-1.19-.356-2.29-.954-3.223.69-8.268 4.34-14.586 7.512-18.626 2.9 1.444 6.11 2.253 9.497 2.253V420.2z" fill="#5b8293"/><path d="M276.653 487.52c-.598.934-.955 2.036-.955 3.225 0 3.31 2.683 5.993 5.992 5.993h11.878c.535 0 1.043-.093 1.537-.223.892.095 1.788.195 2.683.185 2.048-.02 3.62-.154 5.395-1.197.082-.05.08-.207-.028-.222-1.622-.22-3.2-.61-4.78-1 .526-.72.914-1.552 1.078-2.47.216.067.43.13.642.21 2.196.836 4.548 1.997 6.354 3.516.16.134.37-.03.28-.22-1.32-2.7-3.468-4.823-6.187-6.13-.23-.112-.487-.23-.76-.352 4.52.887 8.53 3.285 10.784 7.5.055.103.234.06.226-.063-.314-5.405-3.605-8.747-8.754-10.426-3.377-1.1-8.64-2.24-12.69-1.38-1.387-10.86-6.41-19.09-10.69-24.33 2.57-4.108 4.077-9.084 4.077-14.45 0-.47-.01-.935-.034-1.397 2.675.756 5.605 1.252 8.713 1.252.653 0 1.31-.02 1.98-.068 8.515-.58 16.14-4.765 22.65-12.44.463-.546.813-1.15 1.06-1.78 5.52-1.11 10.35-5.17 12.26-10.52.05-.14-.15-.193-.227-.094-2.693 3.5-7.155 6.32-11.696 7.015 0-.003 0-.007-.004-.01 1.62-1.57 2.96-3.42 3.674-4.797 2.31-4.468 3-8.91.94-13.59-.17-.377-.85-.2-.796.214.598 4.52-.77 9.67-3.972 13.016-.55.576-1.142 1.13-1.755 1.662-.082-.08-.146-.17-.234-.246-.033-.03-.07-.048-.104-.076.2-.775.364-1.51.487-2.163.97-5.152-.508-10.47-3.55-14.66-.13-.186-.44-.02-.31.184 3.23 5.253 1.62 10.31-1 15.2-.978.05-1.94.31-2.818.79-.477-1.283-.542-3.25-.517-3.764.09-1.88.367-4.57 1.302-6.24.033-.063-.045-.12-.097-.075-3.67 3.16-5.392 8.568-3.67 12.812-3.884 4.138-7.986 6.328-12.506 6.636-8.636.587-16.092-5.87-16.163-5.936-.92-.824-2.01-1.33-3.14-1.54-3.81-3.058-8.5-4.865-13.572-4.866v50.96c3.385 0 6.6-.81 9.496-2.253 3.175 4.04 6.824 10.358 7.515 18.62z" fill="#6a9bb7"/><ellipse cx="147.921" cy="505.058" rx="13.819" ry="15.24" fill="#ebdccc" transform="translate(111.719 -59.387)"/><path d="M259.64 355.847c-5.152 0-9.748.743-13.816 2.036l-6.185-23.348c-15.26 7.167-12.89 29.62-11.84 36.15-2.92 4.015-4.78 8.427-5.63 12.684 0 0-1.19 10.76-7.67 15.07 0 0 13.35 47.08 45.13 47.223V355.84z" fill="#5b8293"/><path d="M304.77 398.447c-6.477-4.318-7.666-15.08-7.666-15.08-.59-4.67-2.446-9.31-5.51-13.417 1.074-7.333 2.774-28.497-11.95-35.416l-6.153 23.226c-4.1-1.222-8.72-1.914-13.84-1.914v89.825c27.315-.34 45.13-47.22 45.13-47.22z" fill="#6a9bb7"/><path d="M277.32 361.348l5.344-16.018s6.694 5.543 4.212 23.716l.552.445-10.108-8.14zm-35.358 0l-5.344-16.018s-6.694 5.543-4.212 23.716l-.552.445 10.108-8.14z" fill="#e88683"/><path d="M232.326 395.44s2.09 9.466 14.864 9.466c0 0 3.49 0 6.296-2.16 0 0-8.204-9.212-21.16-7.305zm54.63 0s-2.09 9.466-14.864 9.466c0 0-3.49 0-6.297-2.16 0 0 8.205-9.212 21.16-7.305z" fill="#dedc9c"/><ellipse cx="147.922" cy="488.742" rx="7.387" ry="4.65" fill="#38454a" transform="translate(111.719 -59.387)"/><path d="M273.165 222.982c5.568-6.11 15.94-9.244 27.05-7.35 11.067 1.89 19.78 8.242 23.037 15.81 6.893-3.78 16.98-3.964 26.62.26 8.166 3.577 14.213 9.53 17.035 15.9l8.772-23.594s-77.97-46.828-134.77-13.38c1.99-.324 4.05-.51 6.18-.51 11.84-.002 21.952 5.333 26.07 12.864z" fill="#f6f6f6"/><path d="M220.33 227.7s73.39-14.12 142.472 30.942l4.105-11.038c-2.822-6.37-8.87-12.324-17.034-15.9-9.642-4.225-19.73-4.04-26.62-.26-3.258-7.57-11.97-13.92-23.037-15.81-11.112-1.895-21.484 1.24-27.05 7.35-4.115-7.532-14.225-12.867-26.07-12.867-2.126 0-4.186.188-6.18.51-7.28 4.288-14.212 9.88-20.587 17.073z" fill="#c7c6c6"/><path d="M260.586 540.01c-.746 0-1.505-.134-2.245-.406-3.34-1.244-5.03-4.956-3.79-8.294l115.09-309.547c1.244-3.34 4.954-5.044 8.296-3.8 3.34 1.24 5.038 4.956 3.797 8.294L266.64 535.803c-.968 2.596-3.43 4.206-6.05 4.206z" fill="#946138"/><path d="M411.712 413.08c-9.972 0-18.058-8.084-18.058-18.06v-3.915c-20.676-2.965-37.626-12.073-41.118-38.235-.856-6.418-.917-13.98-.01-22.927.17-1.646.408-3.265.68-4.875 5.226-30.555 29.664-53.615 63.163-53.615.15 0 .31.006.47.006v-17.55l-.06.01c-43.21 0-74.73 29.74-81.47 69.15-.35 2.07-.66 4.17-.878 6.29-1.17 11.54-1.094 21.29.01 29.57 3.446 25.8 17.047 38.74 35.18 45.12-8.582 6.98-15.25 15.77-18.83 25.67-2.162.27-4.39.38-6.662.22-9.89-.68-18.784-5.82-27.19-15.73-4.61-5.43-12.747-6.1-18.185-1.49-5.43 4.61-6.1 12.75-1.49 18.18 12.967 15.282 28.145 23.62 45.106 24.774 1.33.09 2.64.133 3.94.133.848 0 1.686-.02 2.517-.055 4.596 23.824 28.03 83.883 28.03 83.883l39.972.37V413.08h-5.13z" fill="#1e3136"/><path d="M353.206 325.068c-.272 1.61-.51 3.23-.68 4.875-.907 8.947-.847 16.51.01 22.927 3.492 26.16 20.443 35.27 41.118 38.235v3.915c0 9.976 8.087 18.06 18.058 18.06h5.127V271.46c-.16 0-.32-.007-.47-.007-33.5 0-57.94 23.06-63.17 53.615z" fill="#c7c6c6"/><path d="M485.21 453.82c3.065-19.398-5.873-37.066-20.612-49.323 18.827-6.215 32.886-19.302 35.426-46.61.75-8.06.534-17.456-.897-28.522 17.877-5.85 16.604 14.975 30.148 14.194 13.545-.79 3.87-25.67 3.87-25.67-30.51-76.92-113.897-64.36-116.306-63.98v17.54c33 .17 55.7 17.825 62.34 52.13.39 2.06.75 4.175 1.03 6.356 1.11 8.58 1.27 15.862.69 22.11-2.565 27.526-20.21 36.43-41.46 39.194v3.77c0 9.976-8.08 18.06-18.06 18.06h-4.55v126.94l40.314.38s24.506-64.106 28.056-86.58z" fill="#38454a"/><path d="M421.387 413.08c9.978 0 18.06-8.084 18.06-18.06v-3.77c21.25-2.766 38.897-11.668 41.46-39.194.58-6.248.413-13.532-.696-22.11-.28-2.182-.63-4.294-1.03-6.354-6.64-34.307-29.33-51.963-62.34-52.132v141.622h4.55z" fill="#f6eade"/><path d="M284.674 418.2c-3.478 10.507.74 21.354 9.418 24.226 8.683 2.875 18.538-3.32 22.013-13.825 3.48-10.51-.74-21.35-9.42-24.23-8.68-2.87-18.536 3.33-22.01 13.83z" fill="#c7c6c6"/><path d="M373.19 354.806c-7.124 0-12.9-5.776-12.9-12.9 0-7.125 5.776-12.9 12.9-12.9 1.486 0 14.565-.36 16.24-12.834.95-7.06 7.436-12.016 14.5-11.068 7.062.95 12.02 7.444 11.068 14.503-1.632 12.176-12.477 35.2-41.808 35.2zm88.362 0c-29.33 0-40.176-23.024-41.808-35.2-.95-7.06 4.006-13.553 11.07-14.503 7.04-.938 13.458 3.94 14.478 10.917.655 3.928 3.55 12.984 16.26 12.984 7.127 0 12.9 5.776 12.9 12.902 0 7.124-5.774 12.9-12.9 12.9z" fill="#1e3136"/></svg>