<svg xmlns="http://www.w3.org/2000/svg" width="250" height="250" viewBox="0 0 249.99999 250" enable-background="new 0 0 595.28 841.89"><path fill="#cdd6be" d="M74.643 51.788l79.02-3.03 5.198 78.748-79.02 3.032z"/><path fill="#d5dcc4" d="M69.946 55.787l78.817-5.457 9.097 78.49-78.817 5.457z"/><path transform="matrix(.387 -.05 .065 .3 -13.175 -8.701)" stroke-miterlimit="10" fill="#dfe5cc" stroke="#bac1a4" d="M121.17 254.93h202.096v259.9H121.17z"/><path transform="matrix(.387 -.05 .065 .3 -7.404 -9.833)" stroke-miterlimit="10" fill="#7a472a" stroke="#bac1a4" d="M128.21 284.417h158.176v20.944H128.21z"/><g stroke-miterlimit="10" stroke="#bac1a4" transform="matrix(.392 0 0 .304 10.646 -21.529)"><circle cx="167.463" cy="405.627" r="19.08" fill="#eb573c"/><path d="M165.655 415.927c-.96.16-1.978-.075-2.79-.734l-6.1-4.944c-1.505-1.22-1.735-3.43-.516-4.94 1.22-1.504 3.42-1.734 4.93-.515l3.44 2.79 8.094-9.5c1.255-1.474 3.47-1.65 4.942-.393 1.473 1.256 1.65 3.47.393 4.942l-10.316 12.102c-.555.652-1.3 1.05-2.085 1.183z" fill="#fff"/></g><path fill="#7a472a" d="M88.75 96.94l37.078-4.802.347 1.595-37.077 4.803z"/><path transform="matrix(.387 -.05 .065 .3 -13.056 -7.434)" stroke-miterlimit="10" fill="none" stroke="#bac1a4" d="M199.294 382.473h96.055v5.336h-96.06z"/><path fill="#7a472a" d="M89.656 101.1l26.262-3.402.347 1.595-26.262 3.402z"/><path transform="matrix(.387 -.05 .065 .3 -14.161 -7.947)" stroke-miterlimit="10" fill="none" stroke="#bac1a4" d="M201.796 398.514h68.038v5.336h-68.038z"/><g stroke-miterlimit="10" stroke="#bac1a4" transform="matrix(.392 0 0 .304 10.646 -21.529)"><circle cx="159.24" cy="356.743" r="19.08" fill="#eb573c"/><path d="M157.432 367.042c-.96.16-1.978-.074-2.79-.733l-6.1-4.95c-1.505-1.22-1.736-3.43-.517-4.93 1.22-1.508 3.427-1.738 4.932-.52l3.44 2.79 8.098-9.5c1.256-1.473 3.47-1.65 4.943-.393 1.474 1.257 1.65 3.47.394 4.944l-10.316 12.105c-.554.65-1.3 1.05-2.084 1.18z" fill="#fff"/></g><path fill="#7a472a" d="M86.35 82.01l37.076-4.803.347 1.596-37.077 4.802z"/><path transform="matrix(.387 -.05 .065 .3 -9.887 -7.951)" stroke-miterlimit="10" fill="none" stroke="#bac1a4" d="M193.16 333.237h96.055v5.336H193.16z"/><path fill="#7a472a" d="M87.253 86.168l13.132-1.7.346 1.595-13.13 1.7z"/><path transform="matrix(.387 -.05 .065 .3 -11.267 -9.298)" stroke-miterlimit="10" fill="none" stroke="#bac1a4" d="M195.898 352.1h34.02v5.337h-34.02z"/><g stroke-miterlimit="10" stroke="#bac1a4" transform="matrix(.392 0 0 .304 10.646 -21.529)"><circle cx="175.472" cy="453.235" r="19.08" fill="#eb573c"/><path d="M173.664 463.534c-.96.16-1.98-.075-2.79-.734l-6.1-4.944c-1.505-1.22-1.736-3.428-.517-4.932 1.22-1.504 3.428-1.735 4.932-.516l3.44 2.79 8.092-9.5c1.256-1.473 3.47-1.65 4.943-.394 1.474 1.257 1.65 3.47.394 4.944l-10.31 12.102c-.558.652-1.3 1.052-2.087 1.184z" fill="#fff"/></g><path fill="#7a472a" d="M91.433 111.437l37.077-4.803.347 1.596-37.077 4.803z"/><path transform="matrix(.387 -.05 .065 .3 -16.127 -6.887)" stroke-miterlimit="10" fill="none" stroke="#bac1a4" d="M206.142 430.275h96.055v5.336h-96.055z"/><path fill="#7a472a" d="M92.336 115.596l19.81-2.566.348 1.596-19.81 2.566z"/><path transform="matrix(.387 -.05 .065 .3 -17.367 -7.81)" stroke-miterlimit="10" fill="none" stroke="#bac1a4" d="M208.76 447.703h51.323v5.336H208.76z"/><path transform="matrix(.387 -.05 .065 .3 -18.509 -4.585)" stroke-miterlimit="10" fill="#7a472a" stroke="#bac1a4" d="M276.568 470.446h39.84v5.335h-39.84z"/><path d="M148.066 101.235c-18.33-2.03-26.306-11.446-26.306-11.446l18.926-2.13s25.71 15.6 7.38 13.57z" fill="#f29a62"/><path d="M146.876 123.667l13.332-9.23s1.785-13.94 0-18.833c-1.786-4.892-14.046-10.616-17.022-11.908-2.976-1.293-18.808.554-23.308 2.77-3.72 1.83-.492 3.715 1.882 4.245 2.373.538 15.594-2.3 19.045.1 3.452 2.4 7.5 10.246 2.857 12.877-4.643 2.632-15.594-9.09-17.618-11.215-2.023-2.123-9.828-.325-6.903 2.954 2.93 3.28 12.32 13.9 15.838 17.17l11.904 11.078z" fill="#faae78"/><path fill="#441815" d="M100.497 88.818l3.128 1.14.297-1.505z"/><path fill="#dac18e" d="M103.625 89.96l4.74 1.73.745-3.79-5.188.553z"/><path d="M149.585 96.57c.537.065 1.04-.22 1.12-.638l.45-2.28c.082-.417-.287-.806-.824-.87l-2.182-.26-.746 3.79 2.19.26z" fill="#f7f1e6"/><path fill="#f1e4c4" d="M144.455 92.034l-.746 3.79 3.68.488.746-3.79z"/><path d="M107.774 89.63c.174-.884 1.336-1.73 1.336-1.73l35.345 4.134-.746 3.79-35.35-4.135s-.765-1.18-.59-2.06z" fill="#f15d43"/><path fill="#441815" d="M146.784 92.343l-.75 3.795.707.102.758-3.803zm-1.547-.205l-.736 3.788.7.095.75-3.79z"/><path d="M126.045 92.465c-2.024-2.123-9.828-.325-6.904 2.954.33.36.74.83 1.22 1.36l10.574.53c-2.303-2.114-4.16-4.093-4.883-4.85z" fill="#faae78"/><path fill="#eb573c" d="M204.25 137.237l-40.828-26.955-21.19 15.416 50.59 43.386z"/></svg>