<?xml version="1.0" encoding="UTF-8" standalone="no"?>
<!-- Generator: Adobe Illustrator 17.0.0, SVG Export Plug-In . SVG Version: 6.00 Build 0)  -->

<svg
   xmlns:dc="http://purl.org/dc/elements/1.1/"
   xmlns:cc="http://creativecommons.org/ns#"
   xmlns:rdf="http://www.w3.org/1999/02/22-rdf-syntax-ns#"
   xmlns:svg="http://www.w3.org/2000/svg"
   xmlns="http://www.w3.org/2000/svg"
   xmlns:sodipodi="http://sodipodi.sourceforge.net/DTD/sodipodi-0.dtd"
   xmlns:inkscape="http://www.inkscape.org/namespaces/inkscape"
   version="1.1"
   x="0px"
   y="0px"
   width="250"
   height="250"
   viewBox="0 0 249.99999 250"
   enable-background="new 0 0 595.28 841.89"
   xml:space="preserve"
   id="svg2"
   inkscape:version="0.91pre3 r13670"
   sodipodi:docname="completar.svg"><metadata
     id="metadata128"><rdf:RDF><cc:Work
         rdf:about=""><dc:format>image/svg+xml</dc:format><dc:type
           rdf:resource="http://purl.org/dc/dcmitype/StillImage" /><dc:title></dc:title></cc:Work></rdf:RDF></metadata><defs
     id="defs126" /><sodipodi:namedview
     pagecolor="#ffffff"
     bordercolor="#666666"
     borderopacity="1"
     objecttolerance="10"
     gridtolerance="10"
     guidetolerance="10"
     inkscape:pageopacity="0"
     inkscape:pageshadow="2"
     inkscape:window-width="1366"
     inkscape:window-height="705"
     id="namedview124"
     showgrid="false"
     inkscape:zoom="0.79286936"
     inkscape:cx="-84.538028"
     inkscape:cy="149.31124"
     inkscape:window-x="-8"
     inkscape:window-y="-8"
     inkscape:window-maximized="1"
     inkscape:current-layer="svg2" /><g
     id="Capa_1"
     display="none"
     style="display:none"
     transform="translate(0,-591.89001)"><path
       display="inline"
       d="m 533.412,596.11 c 0,26.883 -22.768,48.676 -50.855,48.676 l -369.909,0 c -28.086,0 -50.855,-21.793 -50.855,-48.676 l 0,-349.823 c 0,-26.883 22.768,-48.676 50.855,-48.676 l 369.909,0 c 28.086,0 50.855,21.793 50.855,48.676 l 0,349.823 z"
       id="path5"
       inkscape:connector-curvature="0"
       style="clip-rule:evenodd;display:inline;fill:#81c890;fill-rule:evenodd" /><path
       display="inline"
       d="m 513.148,581.228 c 0,24.596 -20.812,44.534 -46.485,44.534 l -338.121,0 c -25.673,0 -46.485,-19.939 -46.485,-44.534 l 0,-320.06 c 0,-24.596 20.812,-44.534 46.485,-44.534 l 338.122,0 c 25.673,0 46.485,19.939 46.485,44.534 l 0,320.06 z"
       id="path7"
       inkscape:connector-curvature="0"
       style="clip-rule:evenodd;display:inline;fill:#cfe6c2;fill-rule:evenodd" /></g><g
     id="Capa_2"
     transform="matrix(0.39169472,0,0,0.30357776,10.64608,-21.529095)"><rect
       x="169.72501"
       y="236.244"
       transform="matrix(0.9987,-0.0504,0.0504,0.9987,-18.0999,14.1024)"
       width="202.09599"
       height="259.89999"
       id="rect10"
       style="fill:#cdd6be" /><rect
       x="162.81599"
       y="245.222"
       transform="matrix(0.996,-0.0898,0.0898,0.996,-32.6313,25.2166)"
       width="202.09599"
       height="259.89999"
       id="rect12"
       style="fill:#d5dcc4" /><g
       id="g14"><rect
         x="121.171"
         y="254.92999"
         transform="matrix(0.9861,-0.1659,0.1659,0.9861,-60.7676,42.1957)"
         stroke-miterlimit="10"
         width="202.095"
         height="259.89899"
         id="rect16"
         style="fill:#dfe5cc;stroke:#bac1a4;stroke-miterlimit:10" /><rect
         x="128.211"
         y="284.41699"
         transform="matrix(0.9861,-0.1659,0.1659,0.9861,-46.0466,38.4743)"
         stroke-miterlimit="10"
         width="158.175"
         height="20.944"
         id="rect18"
         style="fill:#7a472a;stroke:#bac1a4;stroke-miterlimit:10" /><g
         id="g20"><g
           id="g22"><g
             id="g24"><circle
               stroke-miterlimit="10"
               cx="167.463"
               cy="405.62701"
               r="19.08"
               id="circle26"
               style="fill:#eb573c;stroke:#bac1a4;stroke-miterlimit:10" /><path
               stroke-miterlimit="10"
               d="m 165.655,415.927 c -0.959,0.161 -1.978,-0.075 -2.791,-0.734 l -6.099,-4.944 c -1.505,-1.22 -1.735,-3.428 -0.516,-4.932 1.22,-1.505 3.428,-1.735 4.932,-0.516 l 3.442,2.79 8.097,-9.5 c 1.256,-1.474 3.469,-1.65 4.943,-0.393 1.474,1.256 1.65,3.469 0.394,4.942 l -10.316,12.103 c -0.556,0.653 -1.301,1.051 -2.086,1.184 z"
               id="path28"
               inkscape:connector-curvature="0"
               style="fill:#ffffff;stroke:#bac1a4;stroke-miterlimit:10" /></g><g
             id="g30"><g
               id="g32"><g
                 id="g34"><rect
                   x="199.29401"
                   y="382.47299"
                   transform="matrix(0.9861,-0.1659,0.1659,0.9861,-60.4641,46.3645)"
                   width="96.055"
                   height="5.336"
                   id="rect36"
                   style="fill:#7a472a" /><rect
                   x="199.29401"
                   y="382.47299"
                   transform="matrix(0.9861,-0.1659,0.1659,0.9861,-60.4641,46.3645)"
                   stroke-miterlimit="10"
                   width="96.055"
                   height="5.336"
                   id="rect38"
                   style="fill:none;stroke:#bac1a4;stroke-miterlimit:10" /></g><g
                 id="g40"><rect
                   x="201.79601"
                   y="398.51401"
                   transform="matrix(0.9861,-0.1659,0.1659,0.9861,-63.2824,44.6761)"
                   width="68.038002"
                   height="5.336"
                   id="rect42"
                   style="fill:#7a472a" /><rect
                   x="201.79601"
                   y="398.51401"
                   transform="matrix(0.9861,-0.1659,0.1659,0.9861,-63.2824,44.6761)"
                   stroke-miterlimit="10"
                   width="68.038002"
                   height="5.336"
                   id="rect44"
                   style="fill:none;stroke:#bac1a4;stroke-miterlimit:10" /></g></g></g></g><g
           id="g46"><g
             id="g48"><circle
               stroke-miterlimit="10"
               cx="159.24001"
               cy="356.74301"
               r="19.08"
               id="circle50"
               style="fill:#eb573c;stroke:#bac1a4;stroke-miterlimit:10" /><path
               stroke-miterlimit="10"
               d="m 157.432,367.042 c -0.959,0.161 -1.978,-0.074 -2.791,-0.733 l -6.1,-4.945 c -1.504,-1.219 -1.735,-3.428 -0.516,-4.932 1.22,-1.505 3.427,-1.735 4.932,-0.516 l 3.441,2.79 8.097,-9.5 c 1.256,-1.474 3.469,-1.65 4.943,-0.394 1.474,1.256 1.65,3.469 0.394,4.943 l -10.316,12.104 c -0.554,0.652 -1.299,1.051 -2.084,1.183 z"
               id="path52"
               inkscape:connector-curvature="0"
               style="fill:#ffffff;stroke:#bac1a4;stroke-miterlimit:10" /></g><g
             id="g54"><g
               id="g56"><g
                 id="g58"><rect
                   x="193.161"
                   y="333.237"
                   transform="matrix(0.9861,-0.1659,0.1659,0.9861,-52.3804,44.6637)"
                   width="96.054001"
                   height="5.336"
                   id="rect60"
                   style="fill:#7a472a" /><rect
                   x="193.161"
                   y="333.237"
                   transform="matrix(0.9861,-0.1659,0.1659,0.9861,-52.3804,44.6637)"
                   stroke-miterlimit="10"
                   width="96.054001"
                   height="5.336"
                   id="rect62"
                   style="fill:none;stroke:#bac1a4;stroke-miterlimit:10" /></g><g
                 id="g64"><rect
                   x="195.89799"
                   y="352.10101"
                   transform="matrix(0.9861,-0.1659,0.1659,0.9861,-55.8999,40.2325)"
                   width="34.019001"
                   height="5.336"
                   id="rect66"
                   style="fill:#7a472a" /><rect
                   x="195.89799"
                   y="352.10101"
                   transform="matrix(0.9861,-0.1659,0.1659,0.9861,-55.8999,40.2325)"
                   stroke-miterlimit="10"
                   width="34.019001"
                   height="5.336"
                   id="rect68"
                   style="fill:none;stroke:#bac1a4;stroke-miterlimit:10" /></g></g></g></g><g
           id="g70"><g
             id="g72"><circle
               stroke-miterlimit="10"
               cx="175.472"
               cy="453.23499"
               r="19.08"
               id="circle74"
               style="fill:#eb573c;stroke:#bac1a4;stroke-miterlimit:10" /><path
               stroke-miterlimit="10"
               d="m 173.664,463.534 c -0.959,0.161 -1.979,-0.075 -2.791,-0.734 l -6.1,-4.944 c -1.504,-1.219 -1.735,-3.428 -0.516,-4.932 1.22,-1.504 3.428,-1.735 4.932,-0.516 l 3.442,2.79 8.097,-9.5 c 1.256,-1.473 3.469,-1.65 4.943,-0.394 1.474,1.257 1.65,3.47 0.394,4.944 l -10.316,12.103 c -0.556,0.651 -1.3,1.051 -2.085,1.183 z"
               id="path76"
               inkscape:connector-curvature="0"
               style="fill:#ffffff;stroke:#bac1a4;stroke-miterlimit:10" /></g><g
             id="g78"><g
               id="g80"><g
                 id="g82"><rect
                   x="206.142"
                   y="430.27499"
                   transform="matrix(0.9861,-0.1659,0.1659,0.9861,-68.2993,48.1629)"
                   width="96.055"
                   height="5.336"
                   id="rect84"
                   style="fill:#7a472a" /><rect
                   x="206.142"
                   y="430.27499"
                   transform="matrix(0.9861,-0.1659,0.1659,0.9861,-68.2993,48.1629)"
                   stroke-miterlimit="10"
                   width="96.055"
                   height="5.336"
                   id="rect86"
                   style="fill:none;stroke:#bac1a4;stroke-miterlimit:10" /></g><g
                 id="g88"><rect
                   x="208.759"
                   y="447.703"
                   transform="matrix(0.9861,-0.1659,0.1659,0.9861,-71.4633,45.1277)"
                   width="51.324001"
                   height="5.336"
                   id="rect90"
                   style="fill:#7a472a" /><rect
                   x="208.759"
                   y="447.703"
                   transform="matrix(0.9861,-0.1659,0.1659,0.9861,-71.4633,45.1277)"
                   stroke-miterlimit="10"
                   width="51.324001"
                   height="5.336"
                   id="rect92"
                   style="fill:none;stroke:#bac1a4;stroke-miterlimit:10" /></g></g></g></g></g><rect
         x="276.56799"
         y="470.44601"
         transform="matrix(0.9861,-0.1659,0.1659,0.9861,-74.3747,55.7379)"
         stroke-miterlimit="10"
         width="39.841"
         height="5.335"
         id="rect94"
         style="fill:#7a472a;stroke:#bac1a4;stroke-miterlimit:10" /></g><g
       id="g96"><path
         d="m 350.562,403.83 c -46.764,-6.68 -67.109,-37.654 -67.109,-37.654 l 48.281,-6.984 c 0,0 65.591,51.317 18.828,44.638 z"
         id="path98"
         inkscape:connector-curvature="0"
         style="fill:#f29a62" /><path
         d="m 347.525,477.618 34.01,-30.365 c 0,0 4.555,-45.853 0,-61.946 -4.555,-16.094 -35.832,-34.921 -43.424,-39.172 -7.59,-4.252 -47.978,1.822 -59.459,9.109 -9.489,6.023 -1.253,12.223 4.801,13.968 6.055,1.745 39.781,-7.591 48.585,0.304 8.806,7.895 19.13,33.706 7.288,42.36 -11.844,8.654 -39.779,-29.909 -44.943,-36.895 -5.161,-6.983 -25.071,-1.069 -17.611,9.717 7.46,10.787 31.426,45.728 40.386,56.481 8.961,10.753 30.367,36.439 30.367,36.439 z"
         id="path100"
         inkscape:connector-curvature="0"
         style="fill:#faae78" /><g
         id="g102"><g
           id="g104"><polygon
             points="229.213,362.984 237.191,366.738 237.95,361.783 "
             id="polygon106"
             style="fill:#441815" /><polygon
             points="237.191,366.738 249.28,372.426 251.184,359.963 237.95,361.783 "
             id="polygon108"
             style="fill:#dac18e" /><path
             d="m 354.437,388.487 c 1.37,0.211 2.649,-0.731 2.859,-2.101 l 1.145,-7.503 c 0.21,-1.371 -0.731,-2.65 -2.101,-2.86 l -5.586,-0.852 -1.903,12.462 5.586,0.854 z"
             id="path110"
             inkscape:connector-curvature="0"
             style="fill:#f7f1e6" /><polygon
             points="341.349,373.563 339.446,386.025 348.851,387.634 350.754,375.172 "
             id="polygon112"
             style="fill:#f1e4c4" /><path
             d="m 247.775,365.655 c 0.444,-2.908 3.409,-5.692 3.409,-5.692 l 90.166,13.6 -1.903,12.463 -90.166,-13.599 c -0.001,-0.001 -1.948,-3.865 -1.506,-6.772 z"
             id="path114"
             inkscape:connector-curvature="0"
             style="fill:#f15d43" /></g><polygon
           points="347.29,374.579 345.377,387.064 347.182,387.399 349.096,374.888 "
           id="polygon116"
           style="fill:#441815" /><polygon
           points="343.345,373.905 341.466,386.366 343.246,386.676 345.16,374.206 "
           id="polygon118"
           style="fill:#441815" /></g><path
         d="m 294.384,374.981 c -5.161,-6.983 -25.071,-1.069 -17.611,9.717 0.835,1.207 1.887,2.731 3.091,4.476 l 26.977,1.763 c -5.874,-6.953 -10.615,-13.463 -12.457,-15.956 z"
         id="path120"
         inkscape:connector-curvature="0"
         style="fill:#faae78" /><polygon
         points="493.888,522.255 389.734,433.588 335.682,484.299 464.736,627.018 "
         id="polygon122"
         style="fill:#eb573c" /></g></g></svg>