<svg xmlns="http://www.w3.org/2000/svg" xmlns:xlink="http://www.w3.org/1999/xlink" width="800" height="800" viewBox="0 0 800 800"><title>Triunfar en conflictos</title><defs><filter id="d" x="-1.037" width="3.074" y="-1.117" height="3.233" color-interpolation-filters="sRGB"><feGaussianBlur stdDeviation="307.525"/></filter><clipPath><path d="M483.41 554.55l-135.95 1.346-.657-66.415 135.95-1.34z"/></clipPath><clipPath><path d="M290.907 557.09l-135.952 1.345-.658-66.413 135.953-1.346z"/></clipPath><radialGradient cx="286.342" cy="1010.726" r="8.723" gradientTransform="matrix(-2.333 -.031 .008 -.417 957.597 665.313)" gradientUnits="userSpaceOnUse"><stop offset="0" stop-color="#D7D6D5"/><stop offset=".095" stop-color="#CCCBCA"/><stop offset=".231" stop-color="#B5B3B3"/><stop offset=".393" stop-color="#939191"/><stop offset=".575" stop-color="#696767"/><stop offset=".773" stop-color="#3E3C3C"/><stop offset=".982" stop-color="#060606"/><stop offset=".994" stop-color="#010101"/></radialGradient><radialGradient cx="288.603" cy="929.008" r="13.677" gradientTransform="matrix(-2.059 -.023 .009 -.383 883.659 596.01)" gradientUnits="userSpaceOnUse"><stop offset="0" stop-color="#fff"/><stop offset=".859" stop-color="#fff"/><stop offset="1" stop-color="#fff"/></radialGradient><clipPath><path d="M143.348 496s2.305 8.896 0 23.717c-2.305 14.82-5.856 44.96 1.025 67.027 0 0 25.49 1.236 38.994-4.034 13.504-5.27 27.667-4.65 41.83.948 14.163 5.6 42.027 6.565 51.233 1.626 11.346-6.088 29.956-6.268 45.107.65 15.15 6.916 47.003 4.918 57.64-1.324 15.15-8.89 32.442-4.942 39.03-1.65 11.105 5.554 21.742 7 41.005 5.598 0 0-2.965-15.154-3.294-29.317-.33-14.16 4.94-39.24.988-63.24H143.348z"/></clipPath><clipPath><path d="M364.25 300.93c-23.78-17.457-97.887-17.457-121.67 0-25.19 18.49-35.006 56.7-5.033 87.66 0 0-24.334 44.486 8.932 74.788C264 479.34 279 481.808 303 481.84v.002c24-.034 39.658-2.48 57.183-18.444 33.266-30.302 8.997-74.808 8.997-74.808 29.973-30.96 20.26-69.17-4.93-87.66z"/></clipPath><clipPath><path d="M364.25 300.93c-23.78-17.457-97.887-17.457-121.67 0-25.19 18.49-35.006 56.7-5.033 87.66 0 0-24.334 44.486 8.932 74.788C264 479.34 279 481.808 303 481.84v.002c24-.034 39.658-2.48 57.183-18.444 33.266-30.302 8.997-74.808 8.997-74.808 29.973-30.96 20.26-69.17-4.93-87.66z"/></clipPath><clipPath><path d="M364.25 300.93c-23.78-17.457-97.887-17.457-121.67 0-25.19 18.49-35.006 56.7-5.033 87.66 0 0-24.334 44.486 8.932 74.788C264 479.34 279 481.808 303 481.84v.002c24-.034 39.658-2.48 57.183-18.444 33.266-30.302 8.997-74.808 8.997-74.808 29.973-30.96 20.26-69.17-4.93-87.66z"/></clipPath><clipPath><path d="M364.25 300.93c-23.78-17.457-97.887-17.457-121.67 0-25.19 18.49-35.006 56.7-5.033 87.66 0 0-24.334 44.486 8.932 74.788C264 479.34 279 481.808 303 481.84v.002c24-.034 39.658-2.48 57.183-18.444 33.266-30.302 8.997-74.808 8.997-74.808 29.973-30.96 20.26-69.17-4.93-87.66z"/></clipPath><clipPath><path d="M364.25 300.93c-23.78-17.457-97.887-17.457-121.67 0-25.19 18.49-35.006 56.7-5.033 87.66 0 0-24.334 44.486 8.932 74.788C264 479.34 279 481.808 303 481.84v.002c24-.034 39.658-2.48 57.183-18.444 33.266-30.302 8.997-74.808 8.997-74.808 29.973-30.96 20.26-69.17-4.93-87.66z"/></clipPath><clipPath><path d="M364.25 300.93c-23.78-17.457-97.887-17.457-121.67 0-25.19 18.49-35.006 56.7-5.033 87.66 0 0-24.334 44.486 8.932 74.788C264 479.34 279 481.808 303 481.84v.002c24-.034 39.658-2.48 57.183-18.444 33.266-30.302 8.997-74.808 8.997-74.808 29.973-30.96 20.26-69.17-4.93-87.66z"/></clipPath><clipPath><path d="M364.25 300.93c-23.78-17.457-97.887-17.457-121.67 0-25.19 18.49-35.006 56.7-5.033 87.66 0 0-24.334 44.486 8.932 74.788C264 479.34 279 481.808 303 481.84v.002c24-.034 39.658-2.48 57.183-18.444 33.266-30.302 8.997-74.808 8.997-74.808 29.973-30.96 20.26-69.17-4.93-87.66z"/></clipPath><clipPath><path d="M364.25 300.93c-23.78-17.457-97.887-17.457-121.67 0-25.19 18.49-35.006 56.7-5.033 87.66 0 0-24.334 44.486 8.932 74.788C264 479.34 279 481.808 303 481.84v.002c24-.034 39.658-2.48 57.183-18.444 33.266-30.302 8.997-74.808 8.997-74.808 29.973-30.96 20.26-69.17-4.93-87.66z"/></clipPath><clipPath><path d="M364.25 300.93c-23.78-17.457-97.887-17.457-121.67 0-25.19 18.49-35.006 56.7-5.033 87.66 0 0-24.334 44.486 8.932 74.788C264 479.34 279 481.808 303 481.84v.002c24-.034 39.658-2.48 57.183-18.444 33.266-30.302 8.997-74.808 8.997-74.808 29.973-30.96 20.26-69.17-4.93-87.66z"/></clipPath><clipPath><path d="M364.25 300.93c-23.78-17.457-97.887-17.457-121.67 0-25.19 18.49-35.006 56.7-5.033 87.66 0 0-24.334 44.486 8.932 74.788C264 479.34 279 481.808 303 481.84v.002c24-.034 39.658-2.48 57.183-18.444 33.266-30.302 8.997-74.808 8.997-74.808 29.973-30.96 20.26-69.17-4.93-87.66z"/></clipPath><clipPath><path d="M364.25 300.93c-23.78-17.457-97.887-17.457-121.67 0-25.19 18.49-35.006 56.7-5.033 87.66 0 0-24.334 44.486 8.932 74.788C264 479.34 279 481.808 303 481.84v.002c24-.034 39.658-2.48 57.183-18.444 33.266-30.302 8.997-74.808 8.997-74.808 29.973-30.96 20.26-69.17-4.93-87.66z"/></clipPath><clipPath><path d="M364.25 300.93c-23.78-17.457-97.887-17.457-121.67 0-25.19 18.49-35.006 56.7-5.033 87.66 0 0-24.334 44.486 8.932 74.788C264 479.34 279 481.808 303 481.84v.002c24-.034 39.658-2.48 57.183-18.444 33.266-30.302 8.997-74.808 8.997-74.808 29.973-30.96 20.26-69.17-4.93-87.66z"/></clipPath><clipPath><path d="M364.25 300.93c-23.78-17.457-97.887-17.457-121.67 0-25.19 18.49-35.006 56.7-5.033 87.66 0 0-24.334 44.486 8.932 74.788C264 479.34 279 481.808 303 481.84v.002c24-.034 39.658-2.48 57.183-18.444 33.266-30.302 8.997-74.808 8.997-74.808 29.973-30.96 20.26-69.17-4.93-87.66z"/></clipPath><clipPath><path d="M364.25 300.93c-23.78-17.457-97.887-17.457-121.67 0-25.19 18.49-35.006 56.7-5.033 87.66 0 0-24.334 44.486 8.932 74.788C264 479.34 279 481.808 303 481.84v.002c24-.034 39.658-2.48 57.183-18.444 33.266-30.302 8.997-74.808 8.997-74.808 29.973-30.96 20.26-69.17-4.93-87.66z"/></clipPath><clipPath><path d="M364.25 300.93c-23.78-17.457-97.887-17.457-121.67 0-25.19 18.49-35.006 56.7-5.033 87.66 0 0-24.334 44.486 8.932 74.788C264 479.34 279 481.808 303 481.84v.002c24-.034 39.658-2.48 57.183-18.444 33.266-30.302 8.997-74.808 8.997-74.808 29.973-30.96 20.26-69.17-4.93-87.66z"/></clipPath><clipPath><path d="M364.25 300.93c-23.78-17.457-97.887-17.457-121.67 0-25.19 18.49-35.006 56.7-5.033 87.66 0 0-24.334 44.486 8.932 74.788C264 479.34 279 481.808 303 481.84v.002c24-.034 39.658-2.48 57.183-18.444 33.266-30.302 8.997-74.808 8.997-74.808 29.973-30.96 20.26-69.17-4.93-87.66z"/></clipPath><clipPath><path d="M364.25 300.93c-23.78-17.457-97.887-17.457-121.67 0-25.19 18.49-35.006 56.7-5.033 87.66 0 0-24.334 44.486 8.932 74.788C264 479.34 279 481.808 303 481.84v.002c24-.034 39.658-2.48 57.183-18.444 33.266-30.302 8.997-74.808 8.997-74.808 29.973-30.96 20.26-69.17-4.93-87.66z"/></clipPath><clipPath id="e"><use height="100%" width="100%" xlink:href="#a" overflow="visible"/></clipPath><clipPath id="f"><use height="100%" width="100%" xlink:href="#b" overflow="visible"/></clipPath><clipPath id="g"><use height="100%" width="100%" xlink:href="#c" overflow="visible"/></clipPath></defs><rect width="711.864" height="661.017" x="57.627" y="54.237" rx="1.542" ry="1.143" fill="#efe2c2" fill-opacity="0" filter="url(#d)"/><path fill="#fffffd" d="M256.357 408.88l66.314 33.165 63.82-59.342 30.03 33.416 108.79-123 108.92 182.09H173.28z"/><path fill="#f6bd88" d="M237.1 310.465h11.39V323.9H237.1z"/><path d="M275.246 346.952l18.73 22.48s-.156 3.674 1.832 5.876c1.987 2.2 5.654 10.64 5.654 10.64s1.91 1.193.61-2.2l-1.298-3.395 3.285 4.77s2.75 1.285 1.07-2.11c-1.69-3.394-1.91-4.31-1.91-4.31s3.43 4.127 3.97 4.31c.53.184 2.83.093-1.3-5.412l-.77-1.37s2.98 2.66 3.897 3.49c.917.827 2.98-1.1-1.68-5.777l-3.745-3.76s6.877-.185 7.106-.185c.23 0 3.21-3.667-3.744-4.035-6.957-.37-8.026-.186-8.026-.186l-19.56-24.204-4.13 5.39z" fill="#fdc489"/><path d="M261.042 444.235s8.622.56 12.548 4.592c3.925 4.03-3.542 4.814-3.542 4.814h-14.32v-9.4h5.314z" fill="#1b1b1c"/><path d="M208.054 347.752L190.21 369.17s.148 3.5-1.745 5.597c-1.893 2.097-5.387 10.137-5.387 10.137s-1.82 1.136-.583-2.098l1.238-3.233-3.13 4.544s-2.62 1.223-1.02-2.01c1.603-3.234 1.82-4.108 1.82-4.108s-3.275 3.93-3.785 4.1c-.51.172-2.694.085 1.238-5.16l.728-1.31s-2.84 2.534-3.713 3.32c-.87.787-2.84-1.05 1.61-5.505l3.57-3.583s-6.553-.174-6.77-.174c-.22 0-3.058-3.496 3.567-3.846 6.626-.35 7.646-.174 7.646-.174l18.637-23.06 3.933 5.138z" fill="#fdc489"/><path fill="#fffffd" d="M222.272 338.57l-3.36 36.056h47.762l-3.357-36.056 28.42 30.83 7.464-7.315-36.63-44.566h-39.55l-36.63 44.56 7.47 7.31z"/><path fill="#bddad5" d="M253.055 388.046l2.8 53.976v2.586h5.316l.28-2.586 5.23-67.695h-47.76l5.227 67.695.28 2.586h5.317v-2.586l2.798-53.976h10.26z"/><path d="M224.547 444.235s-8.622.56-12.548 4.592c-3.93 4.03 3.54 4.814 3.54 4.814h14.32v-9.4h-5.32z" fill="#1b1b1c"/><path fill="#f4f4f4" d="M193.49 369.046l-.93 1.157-6.997-6.047 1.14-1.763zm98.61 0l.928 1.157 6.997-6.047-1.14-1.763z"/><path fill="#bddad5" d="M242.794 317.52h-8.396l8.396 29.784 8.395-29.785z"/><path d="M234.398 317.52l1.053 3.733 7.35-3.734zm16.792 0h-8.396l7.344 3.733z" fill="#fff"/><path fill="#175079" d="M245.253 318.77l-2.46-1.25-2.458 1.25 1.62 2.483-1.28 18.538 2.12 7.52 2.117-7.51-1.278-18.537z"/><path d="M243.31 274.186s-17.726-5.822-18.005 10.86c0 0 1.4 21.947 1.68 22.732.28.784 2.425 6.046 16.324 6.046 13.89 0 16.04-5.262 16.32-6.046.28-.785 1.68-22.73 1.68-22.73-.28-16.686-18.01-10.862-18.01-10.862zm-20.808 19.326s1.766-2.62 3.542 0l.577 8.216s-2.25 2.266-4.11-8.216zm41.613 0s-1.767-2.62-3.543 0l-.577 8.216s2.254 2.266 4.12-8.216z" fill="#fdc489"/><path d="M265.417 267.355c-.933-5.263-5.784-5.935-4.105-6.16 1.68-.224 2.145-.335 2.145-.335-3.17-3.807-6.25-.112-6.25-.112s-.967-13.317-9.98-12.204c-6.656.82-4.075 3.882-14.99 5.897-10.914 2.02-12.117-1.19-12.117-1.19-.466 4.82 2.382 8.62 2.382 8.62-1.404 2.91-1.396 10.19-.93 12.21.466 2.015 4.472 19.44 4.472 19.44l.94-15.744c2.704.895.373 3.134.373 3.134s.932.335 4.664 0c3.74-.336 9.8-5.71 16.52-6.72 3.428-.514 5.878.254 7.46 1.13 5.56 7.17 4.58 18.197 4.58 18.197s5.78-20.895 4.846-26.157z" fill="#735034"/><path d="M238.507 286.135c-2.24-2.35-5.593-2.35-7.83 0-.167.172-.406.197-.543.036-.137-.16-.104-.47.084-.66 2.5-2.62 6.246-2.62 8.747 0 .188.2.222.51.084.67-.14.163-.38.138-.55-.035z" fill="#784a21"/><path d="M237.54 288.094h-5.897c-.2 0-.364.195-.364.436 0 .24.16.437.36.437h1.88c-.22.3-.36.692-.36 1.124 0 .95.64 1.71 1.423 1.71s1.422-.76 1.422-1.71c0-.43-.14-.82-.36-1.12h1.885c.2 0 .363-.19.363-.43-.002-.24-.165-.436-.365-.436z" fill="#272626"/><path d="M255.942 286.135c-2.24-2.35-5.593-2.35-7.83 0-.166.172-.406.197-.543.036-.14-.16-.11-.47.08-.66 2.5-2.62 6.24-2.62 8.74 0 .188.2.22.51.085.67-.138.163-.38.138-.543-.035z" fill="#784a21"/><path d="M254.975 288.094h-5.897c-.2 0-.364.195-.364.436 0 .24.163.437.364.437h1.886c-.222.3-.36.692-.36 1.124 0 .95.637 1.71 1.423 1.71s1.422-.76 1.422-1.71c0-.43-.14-.82-.36-1.12h1.88c.2 0 .36-.19.36-.43-.003-.24-.166-.436-.365-.436z" fill="#272626"/><path d="M240.51 294.228c.138-.432 1.866 3.027 5.598 2.577-.002 0-6.998 1.79-5.598-2.577zm-5.92 7.707c-.23-.33 16.74-1.212 16.74-1.212s-6.866 15.405-16.74 1.212z" fill="#f1af70"/><g transform="matrix(1.079 0 0 1.247 78.45 -158.627)"><defs><path id="a" d="M144.658 369.334c-.213-.266 15.51-.972 15.51-.972s-6.363 12.353-15.51.972z"/></defs><clipPath><use height="100%" width="100%" xlink:href="#a" overflow="visible"/></clipPath><path clip-path="url(#e)" d="M142.45 368.36l20.31-.807-.605 1.78c.09-1.17-9.693 2.697-19.705.734v-1.706z" fill="#fff"/></g><path d="M239.076 306.686s5.106-2.31 7.967-.37c0 0-3.935 3.277-7.967.37z" fill="#ef6f70"/><path fill="#3e3741" d="M242.625 347.3h.224v27.023h-.23z"/><path d="M261.483 360.812h-14.18c-.174 0-.315-.17-.315-.38v-2.787c0-.21.142-.38.315-.38h14.18c.174 0 .315.17.315.38v2.788c0 .208-.14.38-.315.38zm-23.313 0h-14.18c-.174 0-.315-.17-.315-.38v-2.787c0-.21.142-.38.315-.38h14.18c.174 0 .315.17.315.38v2.788c0 .208-.14.38-.315.38zm110.807 43.24l45.46 24.793v24.79h-45.46zm89.207-19.567l20.585 24.98v44.17h-20.59zm169.836 66.687l-74.67-136.12v136.12z" fill="#bddad5"/><path d="M550.638 208.905c-4.327 5.468-4.684 13.635-9.01 19.103l-7.35-4.998c4.328-5.468 4.685-13.635 9.01-19.103l7.35 4.998z" fill="#c2d74d"/><path d="M549.62 209.237c-3.692 5.217-4.304 12.527-7.995 17.745l-6.33-4.304c3.693-5.217 4.304-12.527 7.996-17.745l6.33 4.304z" fill="#87a63d"/><path d="M543.836 212.14c1.65 1.122 2.34 3.72 1.62 5.857-.718 2.137-2.713 2.91-4.375 1.78-1.65-1.123-2.34-3.72-1.62-5.858.72-2.14 2.72-2.91 4.38-1.78zm1.484-3.227c.475.32.613 1.025.34 1.588-.274.57-.86.78-1.332.46-.473-.32-.655-1.05-.38-1.614.273-.565.9-.746 1.373-.424zm-4.73 12.05c.472.32.654 1.053.38 1.617-.273.565-.902.745-1.375.424-.474-.322-.612-1.024-.34-1.59.275-.564.86-.775 1.334-.452z" fill="#c2d74d"/><path d="M543.566 216.93c-.163.448-.418.746-.418.746l-.593-.404c.04-.11.076-.222.115-.333l.375.13s.134-.12.23-.405c.114-.334.127-.743-.11-.904-.516-.35-.816 1.334-1.622.785-.397-.27-.47-.77-.366-1.25-.144-.094-.287-.192-.43-.29.04-.12.08-.24.122-.36l.42.288c.15-.376.4-.67.4-.67.18.136.36.27.54.404l-.1.285-.376-.11s-.148.164-.23.403c-.13.38-.048.673.12.786.507.346.846-1.306 1.6-.794.412.28.507.8.413 1.31l.505.346c-.04.12-.08.237-.124.356-.16-.106-.32-.216-.48-.325z" fill="#87a63d"/><path d="M535.822 222.12c.338.23.42.72.162 1.08-.257.362-.757.457-1.094.228-.338-.23-.387-.697-.13-1.06.258-.36.724-.48 1.062-.248zm6.125 4.164c.338.23.42.72.162 1.082-.26.36-.76.456-1.1.227-.34-.23-.39-.697-.13-1.06.26-.36.72-.478 1.06-.25zm1.953-21.96c.338.23.387.697.13 1.058-.257.36-.723.48-1.062.248-.338-.23-.42-.72-.163-1.08.258-.36.758-.456 1.095-.226zm-7.46 6.39c.02 6.772 4.008 12.34 4.025 19.11l-7.352 2.232c-.018-6.773-4.006-12.34-4.024-19.11 2.45-.745 4.9-1.49 7.35-2.233z" fill="#c2d74d"/><path d="M535.95 211.687c.302 6.135 3.682 11.337 3.983 17.473-2.11.64-4.22 1.28-6.33 1.922-.3-6.137-3.68-11.337-3.982-17.473l6.33-1.93z" fill="#87a63d"/><path d="M533.697 217.88c1.65-.502 3.44.67 4.08 2.593.637 1.923-.26 3.91-1.922 4.415-1.65.5-3.44-.67-4.078-2.594-.638-1.922.258-3.91 1.92-4.414zm-.702-3.2c.474-.145.927.208 1.04.778.116.57-.156 1.142-.63 1.287-.473.143-.97-.196-1.082-.766-.116-.58.198-1.16.672-1.3zm3.155 11.344c.47-.144.968.196 1.082.766.115.57-.2 1.155-.673 1.3-.48.142-.93-.21-1.05-.78-.115-.57.156-1.14.63-1.286z" fill="#c2d74d"/><path d="M536 221.19c.125.413.113.795.113.795l-.593.18-.097-.3c.104-.065.21-.128.314-.19 0 0 .023-.18-.06-.433-.097-.302-.3-.578-.537-.505-.516.157.16 1.474-.646 1.718-.397.12-.705-.15-.883-.538-.14.044-.28.088-.43.13-.03-.107-.07-.214-.1-.323l.42-.127c-.09-.36-.082-.732-.082-.732l.564-.147.083.26-.3.21s-.01.216.06.43c.11.347.316.474.483.424.507-.154-.127-1.48.63-1.708.41-.125.74.14.943.542l.505-.153.104.324c-.16.046-.32.095-.483.143z" fill="#87a63d"/><path d="M533.654 230.327c.338-.102.644.155.664.58.02.427-.255.86-.593.963-.338.102-.61-.165-.63-.59-.02-.427.22-.85.56-.953zm6.128-1.86c.338-.103.644.154.663.58.02.425-.254.86-.592.96-.34.103-.61-.164-.63-.59-.022-.424.22-.848.56-.95zm-10.082-15.71c.34-.1.61.166.632.59.02.426-.222.85-.56.954-.338.11-.644-.15-.664-.58-.02-.42.255-.85.593-.96zm-.66-2.533c.018 6.773 4.006 12.34 4.024 19.11l-7.352 2.233c-.018-6.773-4.006-12.34-4.024-19.11l7.352-2.233z" fill="#c2d74d"/><path d="M528.55 211.198c.302 6.136 3.68 11.337 3.982 17.473l-6.33 1.93c-.3-6.133-3.68-11.335-3.982-17.47l6.33-1.92z" fill="#87a63d"/><path d="M526.297 217.392c1.65-.5 3.44.67 4.078 2.594.638 1.923-.258 3.91-1.92 4.414-1.65.502-3.44-.67-4.08-2.593-.637-1.923.26-3.91 1.922-4.415zm-.703-3.202c.474-.144.927.21 1.04.78.115.57-.156 1.14-.63 1.286-.473.144-.97-.196-1.082-.766-.116-.57.198-1.156.672-1.3zm3.154 11.346c.473-.143.97.196 1.083.766.12.57-.19 1.156-.67 1.3-.47.143-.92-.21-1.04-.78-.11-.57.16-1.14.63-1.286z" fill="#c2d74d"/><path d="M528.598 220.703c.126.413.114.794.114.796-.197.05-.396.11-.593.18l-.1-.31.31-.19s.02-.18-.06-.434c-.1-.3-.3-.577-.54-.505-.516.157.16 1.474-.646 1.72-.397.12-.705-.152-.883-.54l-.43.13-.105-.322.42-.128c-.093-.36-.087-.73-.087-.73.19-.05.376-.1.564-.148.03.085.055.17.082.26-.1.07-.2.14-.3.207 0 0-.01.217.06.433.11.347.314.474.482.424.506-.155-.128-1.48.63-1.71.41-.123.74.14.942.544l.505-.152.105.324-.483.142z" fill="#87a63d"/><path d="M526.253 229.84c.338-.103.645.154.664.58.02.426-.255.86-.592.962-.34.102-.61-.164-.632-.59-.02-.427.222-.85.56-.952zm6.127-1.86c.34-.103.645.154.665.58.02.425-.255.86-.593.962-.34.102-.61-.165-.63-.59-.022-.427.22-.85.56-.953zm-10.08-15.71c.338-.102.61.165.63.59.02.426-.22.85-.56.953-.337.102-.643-.154-.662-.58-.02-.426.254-.86.592-.962zm13.908-10.878c.134 9.428 5.776 17.088 5.91 26.516l-10.203 3.277c-.134-9.428-5.776-17.087-5.91-26.516l10.203-3.28z" fill="#c2d74d"/><path d="M535.54 202.76c.518 8.536 5.308 15.698 5.825 24.235-2.93.94-5.856 1.882-8.784 2.822-.51-8.537-5.3-15.7-5.82-24.236l8.79-2.82z" fill="#87a63d"/><path d="M532.503 211.434c2.29-.736 4.8.855 5.72 3.517.92 2.67-.295 5.45-2.602 6.2-2.28.737-4.8-.853-5.72-3.516-.92-2.662.3-5.45 2.61-6.19zm-1.03-4.44c.657-.21 1.293.27 1.462 1.06.167.79-.2 1.593-.858 1.805-.656.21-1.352-.26-1.52-1.05-.17-.79.26-1.615.915-1.826zm4.574 15.724c.656-.21 1.352.25 1.52 1.04.17.792-.26 1.615-.915 1.826-.657.21-1.294-.27-1.462-1.06-.17-.792.2-1.595.857-1.806z" fill="#c2d74d"/><path d="M535.76 215.992c.18.57.17 1.103.17 1.103-.274.09-.548.177-.823.266l-.14-.41.433-.27s.03-.248-.088-.6c-.142-.42-.43-.798-.76-.69-.714.23.248 2.046-.87 2.405-.552.177-.984-.195-1.24-.73l-.597.194c-.05-.15-.102-.3-.15-.45.193-.06.387-.125.58-.187-.135-.5-.13-1.017-.13-1.017l.78-.22c.04.12.08.24.122.36-.138.1-.275.2-.414.297 0 0-.01.3.09.6.16.48.447.65.68.577.704-.228-.2-2.058.847-2.394.572-.184 1.035.178 1.325.733l.7-.227c.05.15.102.3.15.45l-.666.215z" fill="#87a63d"/><path d="M532.64 228.766c.47-.15.9.2.934.793.035.59-.34 1.2-.81 1.35-.47.15-.853-.22-.888-.81-.035-.59.296-1.19.765-1.34zm8.504-2.73c.468-.15.9.2.933.792.034.593-.34 1.202-.81 1.353-.47.16-.854-.21-.89-.8-.032-.59.297-1.19.767-1.34zm-14.29-21.64c.47-.15.855.216.89.807.035.592-.295 1.187-.764 1.338-.47.16-.9-.2-.934-.79-.035-.59.34-1.2.81-1.35z" fill="#c2d74d"/><path d="M521.38 217.735h12.82v30.313s-9.143 1.91-12.82-30.313z" fill="#fcc01d"/><path d="M547.023 217.735H534.2v30.313s9.145 1.91 12.823-30.313z" fill="#f69c1d"/><path fill="#fcc01d" d="M533.01 247.41h1.19v4.655h-1.19z"/><path fill="#f69c1d" d="M534.2 247.41h1.194v4.655H534.2zm11.958-26.514l-5.075 18.32c12.723-1.91 14.71-18.32 14.71-18.32h-9.635zm-4.28 16.597l4.253-15.35h8.08s-1.663 13.75-12.322 15.35z"/><path d="M512.608 220.896s1.988 16.41 14.71 18.32l-5.074-18.32h-9.636zm1.59 1.247h8.074l4.25 15.35c-10.658-1.6-12.323-15.35-12.323-15.35z" fill="#fcc01d"/><path fill="#f69c1d" d="M534.2 252.066h8.082v.99h-8.08z"/><path fill="#fcc01d" d="M526.12 252.066h8.08v.99h-8.08z"/><path d="M534.2 253.054h-11.53c-.437 0-.795.43-.795.955v10.9c0 .52.358.95.795.95h11.53v-12.81z" fill="#354960"/><path d="M534.2 253.054h11.535c.437 0 .795.43.795.955v10.9c0 .52-.358.95-.795.95H534.2v-12.81z" fill="#2d3e52"/><path fill="#bec3c7" d="M534.2 254.725h9.607v8.673H534.2z"/><path fill="#ecf0f3" d="M524.596 254.725h9.605v8.673h-9.6z"/><path d="M556.41 275.41c.27-3.14-1.886-5.974-4.81-6.333-.048-.007-.096-.01-.144-.014-.665-4.817-3.82-8.676-7.91-9.178-3.677-.452-7.07 1.934-8.783 5.73-.985-2.083-2.844-3.603-5.08-3.878-2.756-.338-5.27 1.314-6.414 3.93-.86-1.075-2.06-1.813-3.43-1.98-2.91-.36-5.5 1.978-5.77 5.217-.06.704-.01 1.39.14 2.04-.84 1.226-1.37 2.63-1.5 4.158-.057.66-.033 1.317.06 1.962-.42.778-.7 1.684-.785 2.672-.28 3.32 1.73 6.29 4.497 6.63.883.107 1.736-.066 2.497-.46.86 1.802 2.404 3.1 4.255 3.326 1.62.2 3.15-.46 4.273-1.672 1.52-.022 2.974-.252 4.31-.664 1.02 2.175 2.87 3.744 5.098 4.017 2.72.334 5.22-1.358 6.464-4.058 2.047-.193 3.876-.808 5.292-1.74.564.418 1.2.69 1.888.775 2.704.332 5.148-2.367 5.46-6.028.073-.862.02-1.7-.136-2.48.275-.6.454-1.265.514-1.973z" fill="#fffffd"/><path d="M451.304 357.733h-1.225c-1.36 0-2.45-1.317-2.45-2.94v-.947c.54-.773.93-1.688 1.17-2.655.02-.16.15-.24.24-.35.47-.56.56-1.51.21-2.19-.05-.1-.14-.19-.13-.32v-2.58c-.02-1.04-.27-2.123-.88-2.893-.49-.622-1.165-.993-1.86-1.152-.878-.2-1.796-.19-2.666.076-.753.227-1.46.757-1.9 1.543-.387.683-.557 1.513-.585 2.33-.01.877-.003 1.756-.005 2.637.02.174-.106.293-.162.44-.33.72-.185 1.704.348 2.23.136.11.16.314.21.49.23.87.618 1.673 1.104 2.373v.977c0 1.624-1.1 2.94-2.45 2.94h-1.226s-2.22.735-3.675 4.41v1.47c0 .814.55 1.47 1.226 1.47h17.147c.677 0 1.224-.656 1.224-1.47v-1.47c-1.457-3.68-3.676-4.413-3.676-4.413zm0 0" fill="#bddad5"/><path d="M441.504 357.733h-1.224c-1.353 0-2.45-1.317-2.45-2.94v-.947c.542-.773.93-1.688 1.172-2.655.025-.16.156-.24.243-.35.47-.56.56-1.51.21-2.19-.048-.1-.135-.19-.13-.32 0-.86.003-1.72 0-2.58-.02-1.04-.268-2.123-.875-2.893-.49-.622-1.165-.993-1.86-1.152-.878-.2-1.796-.19-2.666.076-.753.227-1.462.757-1.9 1.543-.386.683-.556 1.513-.585 2.33-.01.877-.01 1.756-.01 2.637.012.174-.11.293-.17.44-.33.72-.186 1.704.347 2.23.135.11.16.314.21.49.232.87.617 1.673 1.104 2.373v.977c0 1.624-1.096 2.94-2.45 2.94h-1.222s-2.22.735-3.674 4.41v1.47c0 .814.55 1.47 1.224 1.47h17.15c.676 0 1.223-.656 1.223-1.47v-1.47c-1.455-3.68-3.676-4.413-3.676-4.413zm0 0" fill="#fffffd"/><path d="M362.4 351.537c0-8.9-6.01-16.115-13.423-16.115s-13.422 7.215-13.422 16.115c0 4.18 1.325 7.986 3.498 10.85 0 0 5.777 8.803 6.105 13.39h7.64c.327-4.586 6.105-13.39 6.105-13.39 2.17-2.864 3.496-6.67 3.496-10.85z" fill="#fcc01d"/><path d="M348.977 388.877c-2.34 0-4.256-2.3-4.256-5.11v-2.75c0-2.812 1.92-5.11 4.26-5.11s4.26 2.298 4.26 5.11v2.75c0 2.81-1.913 5.11-4.254 5.11z" fill="#bddad5"/><path d="M353.123 378.854h-8.293c-.705 0-1.282-.694-1.282-1.54 0-.847.578-1.54 1.282-1.54h8.293c.706 0 1.282.692 1.282 1.54 0 .848-.576 1.54-1.282 1.54zm0 4.258h-8.293c-.705 0-1.282-.692-1.282-1.54 0-.847.578-1.54 1.282-1.54h8.293c.706 0 1.282.693 1.282 1.54 0 .848-.576 1.54-1.282 1.54zm0 4.128h-8.293c-.705 0-1.282-.694-1.282-1.54 0-.847.578-1.54 1.282-1.54h8.293c.706 0 1.282.693 1.282 1.54 0 .846-.576 1.54-1.282 1.54z" fill="#fffffd"/><path d="M347.98 388.877c.12.277.52.48.997.48s.877-.203.998-.48h-1.996z" fill="#333"/><g transform="matrix(1.079 0 0 1.247 78.45 -158.627)"><defs><path id="b" d="M263.16 409.113c0-7.137-5.57-12.923-12.44-12.923-6.87 0-12.44 5.786-12.44 12.923 0 3.35 1.23 6.404 3.243 8.7 0 0 5.354 7.06 5.658 10.738h7.09c.305-3.67 5.66-10.73 5.66-10.73 2.01-2.294 3.24-5.35 3.24-8.7z"/></defs><clipPath><use height="100%" width="100%" xlink:href="#b" overflow="visible"/></clipPath><path clip-path="url(#f)" fill="#f69c1d" d="M250.72 393.352h14.46v35.198h-14.46z"/></g><path d="M353.677 352.41l-.807.865-.325-.91c-.083-.236-.34-.12-.4.06l-.403 1.224-.578-1.65c-.063-.18-.314-.3-.4-.06l-.562 1.58c-.17-.48-.337-.965-.505-1.445-.066-.188-.304-.29-.4-.06l-.564 1.34c-.285-.54-.57-1.077-.853-1.616-.082-.156-.302-.184-.377 0l-.634 1.54-.64-1.04c-.12-.187-.33-.16-.4.064l-.43 1.35-.94-1.23c-.13-.166-.306-.06-.356.104-.095.04-.17.15-.137.303l2.274 10.828c.07.33.49.19.42-.14l-2.153-10.252.81 1.063c.12.16.31.06.367-.115l.41-1.3.623 1.01c.14.228.433.074.417-.144l.014-.023.56-1.35c.25.47.5.94.746 1.41.084.16.242.147.335.053.09.047.2.027.255-.11l.416-.99.457 1.3c.03.084.08.133.14.157.08.156.282.216.357.003l.53-1.495c.167.47.335.945.5 1.42.08.22.32.21.407.072.09 0 .18-.053.218-.174l.29-.88.235.66c.06.165.25.154.344.054l.463-.498c-.71 3.373-1.42 6.75-2.127 10.125-.07.328.353.466.42.14l2.277-10.825.006-.06c.214-.23-.096-.597-.305-.372z" fill="#403c30"/><g stroke-miterlimit="10" fill="none" stroke="#fffffd"><path d="M292.025 453.636l1.2-1.252"/><path stroke-dasharray="2.9608, 4.9346" d="M297.18 448.262l48.62-50.708"/><path d="M347.776 395.492l1.2-1.253 1.385.97"/><path stroke-dasharray="2.4848, 4.1413" d="M354.183 397.885l10.317 7.228"/><path d="M366.41 406.45l1.386.97 1.07-1.402"/><path stroke-dasharray="3.465, 5.7751" d="M372.99 400.62l4.538-5.937"/><path d="M379.59 391.983l1.072-1.4.79 1.63"/><path stroke-dasharray="3.3092, 5.5154" d="M384.356 398.217l7.84 16.21"/><path d="M393.65 417.428l.788 1.633 1.193-1.26"/><path stroke-dasharray="2.9438, 4.9063" d="M399.533 413.66l35.507-37.626"/><path d="M436.99 373.967l1.194-1.265 1.36 1.015"/><path stroke-dasharray="2.815, 4.6917" d="M443.797 376.888l11.486 8.565"/><path d="M457.41 387.04l1.36 1.013.47-1.79"/><path stroke-dasharray="3.1597, 5.2661" d="M460.89 379.978l7.09-27.02"/><path d="M468.806 349.815l.47-1.79 1.257 1.178"/><path stroke-dasharray="2.451, 4.085" d="M473.957 352.41l9.245 8.66"/><path d="M484.914 362.675l1.258 1.18 1.03-1.444"/><path stroke-dasharray="2.925, 4.8749" d="M490.55 357.722l41.187-57.664"/><path d="M533.41 297.714l1.032-1.442"/></g><path d="M469.773 314.826c.726-.012 1.2-.628 1.298-1.482l.33-3.51c-.01-.806-.6-1.45-1.33-1.438l-3.15.052c-.726.013-1.31.676-1.3 1.483l.407 3.5c.103.96.606 1.45 1.33 1.44.56-.01.68-.21 1.288-.22.654-.01.765.19 1.137.185m1.707 9.598l-6.117 4.017-.156 1.243 6.43-4.222-.16-1.035zm-.663-4.405l-4.782 3.14-.584 4.607 5.943-3.904-.58-3.84zm-4.696 2.465l4.61-3.03-.143-.937-4.326 2.84-.143 1.124zm-1.265 12.336l.713.99 6.94-4.557-.704-4.664-6.773 4.443-.203 1.6c-.053.328-.446 1.59.023 2.184m2.13 2.952l1.352 1.88c.47.596.56.593 1.02-.017l3.366-4.945c.164-.227.213-.52.204-.826l-5.943 3.904zm3.435-20.38l-.26-1.734c-.47-.595-2.723-.557-3.178.05l-.548 4.297 3.98-2.616zm2.277 15.115l-.02-.127-6.5 4.27.503.7 6.18-4.06c-.06-.324-.142-.61-.162-.786m-85.61 42.256c-.88 1.03-1.245 2.435-1.126 3.797l-7.04 2.61c-.164-.346-.35-.68-.595-.98-.26-.33-.56-.578-.875-.786l2.348-8.34c1.16.21 2.377-.19 3.28-1.25 1.53-1.79 1.564-4.72.076-6.555-1.486-1.836-3.926-1.88-5.46-.09-1.523 1.785-1.556 4.72-.07 6.554.245.3.52.533.804.736l-2.358 8.377c-1.13-.176-2.315.228-3.196 1.258-1.528 1.784-1.56 4.72-.073 6.555 1.49 1.836 3.934 1.875 5.46.088.906-1.056 1.27-2.513 1.12-3.912l7.007-2.594c.168.387.365.758.63 1.086 1.49 1.833 3.936 1.87 5.46.085 1.53-1.786 1.562-4.72.073-6.556-1.487-1.834-3.93-1.87-5.46-.086zm0 0" fill="#fffffd"/><path d="M369.668 415.337c.43.236 10.804-17.414 10.804-17.414l13.966 30.923v24.792h-24.77v-38.3z" fill="#bddad5"/><path fill="#fffffd" d="M380.472 397.922v55.714h-10.804v-38.3z"/><path fill="#bddad5" d="M469.982 360.384v93.252h17.62V373.92z"/><path fill="#fffffd" d="M469.982 360.384l-11.213 49.08v44.172h11.21z"/><g transform="matrix(1.079 0 0 1.247 78.45 -158.627)"><path d="M301.378 372.58c-11.32 0-20.498 9.536-20.498 21.298 0 11.762 9.177 21.297 20.498 21.297V372.58z" fill="#fcc01d"/><path d="M301.378 372.58c11.32 0 20.498 9.536 20.498 21.298 0 11.762-9.177 21.297-20.498 21.297V372.58z" fill="#f69c1d"/><path fill="#2b455e" d="M301.378 368.004h24.287v26.638h-24.287z"/><path d="M301.378 375.02c-10.024 0-18.15 8.443-18.15 18.857s8.127 18.857 18.15 18.857V375.02z" fill="#fffffd"/><path d="M301.378 375.02c10.024 0 18.15 8.443 18.15 18.857s-8.127 18.857-18.15 18.857V375.02z" fill="#bddad5"/><ellipse cx="301.378" cy="393.878" rx="12.572" ry="13.061" fill="#2b455e"/></g><path fill="#fcc01d" d="M479.593 292.886h2.673v24.87h-2.673z"/><path fill="#f69c1d" d="M482.266 292.886h2.672v24.87h-2.672z"/><path fill="#fcc01d" d="M487.976 300.592h2.673v17.162h-2.68z"/><path fill="#f69c1d" d="M490.65 300.592h2.67v17.162h-2.67z"/><path fill="#fcc01d" d="M496.36 282.792h2.67v34.964h-2.67z"/><path fill="#f69c1d" d="M499.032 282.792h2.673v34.964h-2.673z"/><path d="M451.147 314.638l-1.548-.232c-.08-1.002-.29-1.965-.61-2.86l1.28-1.2c.137-.13.162-.372.055-.537l-1.793-2.77c-.108-.17-.31-.2-.447-.07l-1.23 1.15c-.624-.63-1.333-1.15-2.11-1.51l.2-1.94c.023-.21-.102-.4-.275-.43l-2.897-.437c-.174-.026-.334.123-.355.33l-.194 1.86c-.836.09-1.638.34-2.38.73l-1-1.545c-.11-.166-.31-.196-.45-.067l-2.306 2.15c-.137.13-.162.37-.055.54l.96 1.48c-.525.75-.95 1.6-1.26 2.535l-1.614-.24c-.175-.027-.334.123-.356.33l-.36 3.48c-.024.208.1.4.274.427l1.546.232c.074 1 .283 1.964.607 2.86l-1.287 1.2c-.14.13-.163.37-.057.536l1.792 2.77c.107.165.31.195.446.067l1.23-1.15c.625.626 1.334 1.14 2.112 1.51l-.204 1.94c-.02.207.104.4.278.425l2.898.434c.173.025.333-.124.355-.333l.19-1.86c.834-.087 1.637-.338 2.38-.727l1 1.542c.11.163.31.193.448.065l2.307-2.156c.14-.13.163-.37.056-.538l-.96-1.48c.523-.75.95-1.6 1.26-2.54l1.613.24c.173.028.333-.122.354-.33l.364-3.48c.02-.21-.105-.4-.28-.426zm-9.595 4.097c-1.612-.242-2.756-2.007-2.554-3.943.202-1.936 1.67-3.31 3.283-3.067 1.62.242 2.76 2.007 2.56 3.943-.2 1.936-1.67 3.308-3.28 3.067z" fill="#fcc01d"/><g transform="matrix(1.079 0 0 1.247 78.45 -158.627)"><defs><path id="c" d="M345.41 379.523l-1.435-.186c-.068-.804-.262-1.576-.562-2.294l1.192-.963c.128-.103.15-.297.052-.43l-1.662-2.22c-.1-.133-.286-.157-.413-.054l-1.142.923c-.58-.51-1.236-.92-1.957-1.22l.187-1.557c.02-.167-.095-.32-.256-.34l-2.686-.35c-.16-.02-.31.1-.33.265l-.178 1.49c-.773.072-1.517.273-2.208.585l-.927-1.236c-.1-.133-.285-.157-.413-.054l-2.136 1.726c-.128.102-.15.296-.052.43l.89 1.186c-.486.6-.883 1.284-1.167 2.034l-1.496-.194c-.16-.02-.3.1-.32.27l-.335 2.79c-.02.164.095.32.256.34l1.435.185c.068.805.26 1.577.56 2.295l-1.19.96c-.13.104-.15.298-.053.43l1.664 2.22c.1.134.285.158.412.055l1.145-.924c.58.503 1.236.916 1.957 1.21l-.19 1.556c-.02.17.097.32.258.344l2.686.35c.16.02.31-.1.33-.27l.18-1.49c.774-.07 1.52-.27 2.21-.583l.926 1.24c.1.133.286.157.413.054l2.134-1.724c.13-.105.15-.3.053-.43l-.89-1.19c.485-.6.882-1.282 1.167-2.032l1.496.194c.16.024.31-.096.33-.263l.335-2.79c.02-.167-.096-.32-.257-.342zm-8.893 3.285c-1.494-.194-2.554-1.61-2.367-3.162.187-1.552 1.55-2.653 3.043-2.46 1.494.195 2.554 1.61 2.367 3.163-.187 1.55-1.55 2.65-3.043 2.45z"/></defs><clipPath><use height="100%" width="100%" xlink:href="#c" overflow="visible"/></clipPath><path clip-path="url(#g)" fill="#f69c1d" d="M336.855 364.948h13.218v28.55h-13.218z"/></g></svg>