<svg xmlns="http://www.w3.org/2000/svg" width="800" height="800" viewBox="0 0 800 800"><title>Adquirir conocimiento</title><defs><filter id="a" x="-1.037" width="3.074" y="-1.117" height="3.233" color-interpolation-filters="sRGB"><feGaussianBlur stdDeviation="307.525"/></filter><clipPath><path d="M483.41 554.55l-135.95 1.346-.657-66.415 135.95-1.34z"/></clipPath><clipPath><path d="M290.907 557.09l-135.952 1.345-.658-66.413 135.953-1.346z"/></clipPath><radialGradient cx="286.342" cy="1010.726" r="8.723" gradientTransform="matrix(-2.333 -.031 .008 -.417 957.597 665.313)" gradientUnits="userSpaceOnUse"><stop offset="0" stop-color="#D7D6D5"/><stop offset=".095" stop-color="#CCCBCA"/><stop offset=".231" stop-color="#B5B3B3"/><stop offset=".393" stop-color="#939191"/><stop offset=".575" stop-color="#696767"/><stop offset=".773" stop-color="#3E3C3C"/><stop offset=".982" stop-color="#060606"/><stop offset=".994" stop-color="#010101"/></radialGradient><radialGradient cx="288.603" cy="929.008" r="13.677" gradientTransform="matrix(-2.059 -.023 .009 -.383 883.659 596.01)" gradientUnits="userSpaceOnUse"><stop offset="0" stop-color="#fff"/><stop offset=".859" stop-color="#fff"/><stop offset="1" stop-color="#fff"/></radialGradient><clipPath><path d="M143.348 496s2.305 8.896 0 23.717c-2.305 14.82-5.856 44.96 1.025 67.027 0 0 25.49 1.236 38.994-4.034 13.504-5.27 27.667-4.65 41.83.948 14.163 5.6 42.027 6.565 51.233 1.626 11.346-6.088 29.956-6.268 45.107.65 15.15 6.916 47.003 4.918 57.64-1.324 15.15-8.89 32.442-4.942 39.03-1.65 11.105 5.554 21.742 7 41.005 5.598 0 0-2.965-15.154-3.294-29.317-.33-14.16 4.94-39.24.988-63.24H143.348z"/></clipPath><clipPath><path d="M364.25 300.93c-23.78-17.457-97.887-17.457-121.67 0-25.19 18.49-35.006 56.7-5.033 87.66 0 0-24.334 44.486 8.932 74.788C264 479.34 279 481.808 303 481.84v.002c24-.034 39.658-2.48 57.183-18.444 33.266-30.302 8.997-74.808 8.997-74.808 29.973-30.96 20.26-69.17-4.93-87.66z"/></clipPath><clipPath><path d="M364.25 300.93c-23.78-17.457-97.887-17.457-121.67 0-25.19 18.49-35.006 56.7-5.033 87.66 0 0-24.334 44.486 8.932 74.788C264 479.34 279 481.808 303 481.84v.002c24-.034 39.658-2.48 57.183-18.444 33.266-30.302 8.997-74.808 8.997-74.808 29.973-30.96 20.26-69.17-4.93-87.66z"/></clipPath><clipPath><path d="M364.25 300.93c-23.78-17.457-97.887-17.457-121.67 0-25.19 18.49-35.006 56.7-5.033 87.66 0 0-24.334 44.486 8.932 74.788C264 479.34 279 481.808 303 481.84v.002c24-.034 39.658-2.48 57.183-18.444 33.266-30.302 8.997-74.808 8.997-74.808 29.973-30.96 20.26-69.17-4.93-87.66z"/></clipPath><clipPath><path d="M364.25 300.93c-23.78-17.457-97.887-17.457-121.67 0-25.19 18.49-35.006 56.7-5.033 87.66 0 0-24.334 44.486 8.932 74.788C264 479.34 279 481.808 303 481.84v.002c24-.034 39.658-2.48 57.183-18.444 33.266-30.302 8.997-74.808 8.997-74.808 29.973-30.96 20.26-69.17-4.93-87.66z"/></clipPath><clipPath><path d="M364.25 300.93c-23.78-17.457-97.887-17.457-121.67 0-25.19 18.49-35.006 56.7-5.033 87.66 0 0-24.334 44.486 8.932 74.788C264 479.34 279 481.808 303 481.84v.002c24-.034 39.658-2.48 57.183-18.444 33.266-30.302 8.997-74.808 8.997-74.808 29.973-30.96 20.26-69.17-4.93-87.66z"/></clipPath><clipPath><path d="M364.25 300.93c-23.78-17.457-97.887-17.457-121.67 0-25.19 18.49-35.006 56.7-5.033 87.66 0 0-24.334 44.486 8.932 74.788C264 479.34 279 481.808 303 481.84v.002c24-.034 39.658-2.48 57.183-18.444 33.266-30.302 8.997-74.808 8.997-74.808 29.973-30.96 20.26-69.17-4.93-87.66z"/></clipPath><clipPath><path d="M364.25 300.93c-23.78-17.457-97.887-17.457-121.67 0-25.19 18.49-35.006 56.7-5.033 87.66 0 0-24.334 44.486 8.932 74.788C264 479.34 279 481.808 303 481.84v.002c24-.034 39.658-2.48 57.183-18.444 33.266-30.302 8.997-74.808 8.997-74.808 29.973-30.96 20.26-69.17-4.93-87.66z"/></clipPath><clipPath><path d="M364.25 300.93c-23.78-17.457-97.887-17.457-121.67 0-25.19 18.49-35.006 56.7-5.033 87.66 0 0-24.334 44.486 8.932 74.788C264 479.34 279 481.808 303 481.84v.002c24-.034 39.658-2.48 57.183-18.444 33.266-30.302 8.997-74.808 8.997-74.808 29.973-30.96 20.26-69.17-4.93-87.66z"/></clipPath><clipPath><path d="M364.25 300.93c-23.78-17.457-97.887-17.457-121.67 0-25.19 18.49-35.006 56.7-5.033 87.66 0 0-24.334 44.486 8.932 74.788C264 479.34 279 481.808 303 481.84v.002c24-.034 39.658-2.48 57.183-18.444 33.266-30.302 8.997-74.808 8.997-74.808 29.973-30.96 20.26-69.17-4.93-87.66z"/></clipPath><clipPath><path d="M364.25 300.93c-23.78-17.457-97.887-17.457-121.67 0-25.19 18.49-35.006 56.7-5.033 87.66 0 0-24.334 44.486 8.932 74.788C264 479.34 279 481.808 303 481.84v.002c24-.034 39.658-2.48 57.183-18.444 33.266-30.302 8.997-74.808 8.997-74.808 29.973-30.96 20.26-69.17-4.93-87.66z"/></clipPath><clipPath><path d="M364.25 300.93c-23.78-17.457-97.887-17.457-121.67 0-25.19 18.49-35.006 56.7-5.033 87.66 0 0-24.334 44.486 8.932 74.788C264 479.34 279 481.808 303 481.84v.002c24-.034 39.658-2.48 57.183-18.444 33.266-30.302 8.997-74.808 8.997-74.808 29.973-30.96 20.26-69.17-4.93-87.66z"/></clipPath><clipPath><path d="M364.25 300.93c-23.78-17.457-97.887-17.457-121.67 0-25.19 18.49-35.006 56.7-5.033 87.66 0 0-24.334 44.486 8.932 74.788C264 479.34 279 481.808 303 481.84v.002c24-.034 39.658-2.48 57.183-18.444 33.266-30.302 8.997-74.808 8.997-74.808 29.973-30.96 20.26-69.17-4.93-87.66z"/></clipPath><clipPath><path d="M364.25 300.93c-23.78-17.457-97.887-17.457-121.67 0-25.19 18.49-35.006 56.7-5.033 87.66 0 0-24.334 44.486 8.932 74.788C264 479.34 279 481.808 303 481.84v.002c24-.034 39.658-2.48 57.183-18.444 33.266-30.302 8.997-74.808 8.997-74.808 29.973-30.96 20.26-69.17-4.93-87.66z"/></clipPath><clipPath><path d="M364.25 300.93c-23.78-17.457-97.887-17.457-121.67 0-25.19 18.49-35.006 56.7-5.033 87.66 0 0-24.334 44.486 8.932 74.788C264 479.34 279 481.808 303 481.84v.002c24-.034 39.658-2.48 57.183-18.444 33.266-30.302 8.997-74.808 8.997-74.808 29.973-30.96 20.26-69.17-4.93-87.66z"/></clipPath><clipPath><path d="M364.25 300.93c-23.78-17.457-97.887-17.457-121.67 0-25.19 18.49-35.006 56.7-5.033 87.66 0 0-24.334 44.486 8.932 74.788C264 479.34 279 481.808 303 481.84v.002c24-.034 39.658-2.48 57.183-18.444 33.266-30.302 8.997-74.808 8.997-74.808 29.973-30.96 20.26-69.17-4.93-87.66z"/></clipPath><clipPath><path d="M364.25 300.93c-23.78-17.457-97.887-17.457-121.67 0-25.19 18.49-35.006 56.7-5.033 87.66 0 0-24.334 44.486 8.932 74.788C264 479.34 279 481.808 303 481.84v.002c24-.034 39.658-2.48 57.183-18.444 33.266-30.302 8.997-74.808 8.997-74.808 29.973-30.96 20.26-69.17-4.93-87.66z"/></clipPath><clipPath><path d="M364.25 300.93c-23.78-17.457-97.887-17.457-121.67 0-25.19 18.49-35.006 56.7-5.033 87.66 0 0-24.334 44.486 8.932 74.788C264 479.34 279 481.808 303 481.84v.002c24-.034 39.658-2.48 57.183-18.444 33.266-30.302 8.997-74.808 8.997-74.808 29.973-30.96 20.26-69.17-4.93-87.66z"/></clipPath><clipPath><path d="M144.658 369.334c-.213-.266 15.51-.972 15.51-.972s-6.363 12.353-15.51.972z"/></clipPath><clipPath><path d="M263.16 409.113c0-7.137-5.57-12.923-12.44-12.923-6.87 0-12.44 5.786-12.44 12.923 0 3.35 1.23 6.404 3.243 8.7 0 0 5.354 7.06 5.658 10.738h7.09c.305-3.67 5.66-10.73 5.66-10.73 2.01-2.294 3.24-5.35 3.24-8.7z"/></clipPath><clipPath><path d="M345.41 379.523l-1.435-.186c-.068-.804-.262-1.576-.562-2.294l1.192-.963c.128-.103.15-.297.052-.43l-1.662-2.22c-.1-.133-.286-.157-.413-.054l-1.142.923c-.58-.51-1.236-.92-1.957-1.22l.187-1.557c.02-.167-.095-.32-.256-.34l-2.686-.35c-.16-.02-.31.1-.33.265l-.178 1.49c-.773.072-1.517.273-2.208.585l-.927-1.236c-.1-.133-.285-.157-.413-.054l-2.136 1.726c-.128.102-.15.296-.052.43l.89 1.186c-.486.6-.883 1.284-1.167 2.034l-1.496-.194c-.16-.02-.3.1-.32.27l-.335 2.79c-.02.164.095.32.256.34l1.435.185c.068.805.26 1.577.56 2.295l-1.19.96c-.13.104-.15.298-.053.43l1.664 2.22c.1.134.285.158.412.055l1.145-.924c.58.503 1.236.916 1.957 1.21l-.19 1.556c-.02.17.097.32.258.344l2.686.35c.16.02.31-.1.33-.27l.18-1.49c.774-.07 1.52-.27 2.21-.583l.926 1.24c.1.133.286.157.413.054l2.134-1.724c.13-.105.15-.3.053-.43l-.89-1.19c.485-.6.882-1.282 1.167-2.032l1.496.194c.16.024.31-.096.33-.263l.335-2.79c.02-.167-.096-.32-.257-.342zm-8.893 3.285c-1.494-.194-2.554-1.61-2.367-3.162.187-1.552 1.55-2.653 3.043-2.46 1.494.195 2.554 1.61 2.367 3.163-.187 1.55-1.55 2.65-3.043 2.45z"/></clipPath><linearGradient id="c" gradientUnits="userSpaceOnUse" x1="340.484" y1="493.008" x2="293.65" y2="418.346"><stop offset="0" stop-color="#fff" stop-opacity="0"/><stop offset="1" stop-color="#002D3F"/></linearGradient><linearGradient id="d" gradientUnits="userSpaceOnUse" x1="155.502" y1="472.692" x2="141.33" y2="447.749"><stop offset="0" stop-color="#fff" stop-opacity="0"/><stop offset="1" stop-color="#002D3F"/></linearGradient><linearGradient id="e" gradientUnits="userSpaceOnUse" x1="306.121" y1="568.75" x2="292.813" y2="545.327"><stop offset="0" stop-color="#fff" stop-opacity="0"/><stop offset="1" stop-color="#002D3F"/></linearGradient><linearGradient id="f" gradientUnits="userSpaceOnUse" x1="485.452" y1="539.392" x2="459.88" y2="486.219"><stop offset="0" stop-color="#fff" stop-opacity="0"/><stop offset="1" stop-color="#002D3F"/></linearGradient><linearGradient id="g" gradientUnits="userSpaceOnUse" x1="403.59" y1="610.142" x2="385.936" y2="573.431"><stop offset="0" stop-color="#fff" stop-opacity="0"/><stop offset="1" stop-color="#002D3F"/></linearGradient><linearGradient id="h" gradientUnits="userSpaceOnUse" x1="242.337" y1="592.741" x2="229.488" y2="569.688"><stop offset="0" stop-color="#fff" stop-opacity="0"/><stop offset="1" stop-color="#002D3F"/></linearGradient><linearGradient id="i" gradientUnits="userSpaceOnUse" x1="173.55" y1="573.1" x2="151.867" y2="528.012"><stop offset="0" stop-color="#fff" stop-opacity="0"/><stop offset="1" stop-color="#002D3F"/></linearGradient><linearGradient id="j" gradientUnits="userSpaceOnUse" x1="151.699" y1="398.772" x2="141.495" y2="374.586"><stop offset="0" stop-color="#fff" stop-opacity="0"/><stop offset="1" stop-color="#002D3F"/></linearGradient><linearGradient id="k" gradientUnits="userSpaceOnUse" x1="163.873" y1="331.586" x2="154.32" y2="314.469"><stop offset="0" stop-color="#fff" stop-opacity="0"/><stop offset="1" stop-color="#002D3F"/></linearGradient><linearGradient id="l" gradientUnits="userSpaceOnUse" x1="448.18" y1="362.812" x2="439.11" y2="330.5"><stop offset="0" stop-color="#fff" stop-opacity="0"/><stop offset="1" stop-color="#002D3F"/></linearGradient><linearGradient id="m" gradientUnits="userSpaceOnUse" x1="480.342" y1="435.964" x2="452.565" y2="376.441"><stop offset="0" stop-color="#fff" stop-opacity="0"/><stop offset="1" stop-color="#002D3F"/></linearGradient><linearGradient id="n" gradientUnits="userSpaceOnUse" x1="253.297" y1="337.978" x2="250.862" y2="305.71"><stop offset="0" stop-color="#fff" stop-opacity="0"/><stop offset="1" stop-color="#002D3F"/></linearGradient><linearGradient id="o" gradientUnits="userSpaceOnUse" x1="379.649" y1="321.783" x2="367.714" y2="285.409"><stop offset="0" stop-color="#fff" stop-opacity="0"/><stop offset="1" stop-color="#002D3F"/></linearGradient><filter id="b" color-interpolation-filters="sRGB"><feColorMatrix values="0.21 0.72 0.072 0 0 0.21 0.72 0.072 0 0 0.21 0.72 0.072 0 0 0 0 0 1 0"/></filter></defs><rect width="711.864" height="661.017" x="57.627" y="54.237" rx="1.542" ry="1.143" fill="#efe2c2" fill-opacity="0" filter="url(#a)"/><g transform="translate(94.915 -50.026)" filter="url(#b)"><path d="M415.385 417.39h-6.803v-1.133h6.803v1.134zm-13.605 0h-6.803v-1.133h6.803v1.134zm-13.605 0h-6.803v-1.133h6.803v1.134zm28.753-6.393h-1.134v-6.803h1.134v6.803zm0-13.605h-1.134v-5.274c0-.313.254-.567.567-.567h1.53v1.14h-.96v4.71zm38.994-4.707h-4.02v-1.134h4.02v1.14zm-10.822 0h-6.803v-1.134h6.803v1.14zm-13.605 0h-6.803v-1.134h6.803v1.14zm-16.17 96.145h-6.804v-1.133h6.81v1.134zm-13.606 0h-6.81v-1.133h6.8v1.134zm-13.61 0H381.3v-1.133h6.803v1.134zm32.54-2.6h-1.134v-6.803h1.134v6.803zm-42.792-.758h-1.134v-6.803h1.134v6.8zm42.792-12.847h-1.135v-6.803h1.134v6.803zm-42.793-.758h-1.134v-6.803h1.133v6.803zm42.792-12.847h-1.136v-6.803h1.134v6.803zm-42.794-.758h-1.134v-6.803h1.133v6.8zm42.792-12.847h-1.135v-6.803h1.133v6.803zm30.64-8.562h-1.136v-3.642h-2.028v-1.13h2.59c.314 0 .57.26.57.57v4.21zm-9.965-3.64h-6.804v-1.135h6.802v1.134zm-13.607 0h-6.8v-1.135h6.8v1.134zM377.3 536.98h-2.827v-1.135h2.827v1.134zm-9.63 0h-6.803v-1.135h6.8v1.134zm-13.605 0h-6.803v-1.135h6.803v1.134zm-11.9-1.706h-1.134v-6.803h1.14v6.81zm0-13.606h-1.134v-6.802h1.14v6.802zm0-13.605h-1.134v-6.803h1.14v6.803zm0-13.605h-1.134v-6.803h1.14v6.803zm0-13.605h-1.134v-6.803h1.14v6.803zM286 530.118h-1.133v-.198H286v.198zm0-7h-1.133v-6.804H286v6.803zm34.795-11.692h-6.803v-1.134h6.803v1.134zm-13.605 0h-6.803v-1.134h6.8v1.134zm-13.606 0h-6.803v-1.134h6.81v1.134zm31.06-4.087h-1.135v-6.81h1.132v6.8zm0-13.61h-1.135v-6.808h1.132v6.803zm0-13.61h-1.135v-6.804h1.132v6.803zm0-13.606h-1.135v-6.803h1.132v6.804zM221.716 548.58h-1.134v-2h1.134v2zm0-8.8h-1.134v-6.8h1.134v6.8zm0-13.605h-1.134v-6.804h1.134v6.805zm34.82-8.038h-3.175v-1.135h2.61v-3.065h1.137v3.628c0 .315-.254.568-.567.568zm-9.978 0h-6.803v-1.135h6.803v1.13zm-13.605 0h-6.803v-1.135h6.803v1.13zm24.15-10.998h-1.135v-6.805h1.134v6.802zm0-13.608h-1.135v-6.804h1.134v6.802zm0-13.606h-1.135v-6.803h1.134v6.804zm-87.7 28.748h-1.134v-6.803h1.132v6.803zm0-13.605h-1.134v-2.906c0-.31.252-.563.57-.563h3.89v1.136H169.4v2.34zm55.96-2.34h-5.014v-1.134h4.45v-1.22h1.13v1.787c0 .313-.254.566-.567.566zm-11.816 0h-6.807v-1.134h6.803v1.134zm-13.61 0h-6.802v-1.134h6.803v1.134zm-13.604 0h-6.804v-1.134h6.8v1.134zm39.593-9.157h-1.13v-6.804h1.132v6.802zm0-13.606h-1.13v-6.804h1.132v6.804zm-1.908-5.466h-6.803v-1.132h6.802v1.132zm-13.605 0h-6.803v-1.132h6.803v1.132zm-13.605 0h-6.803v-1.132h6.802v1.132zm-13.605 0H176.4v-1.132h6.803v1.132zm-13.606 0h-6.8v-1.132h6.803v1.132zm-8.726-4.876h-1.13v-6.803h1.14v6.803zm0-13.605h-1.13v-.55h-5.12v-1.133h5.69c.315 0 .57.254.57.567v1.117zm50.49-33.995h-6.8V410.9h6.8v1.133zm-13.6 0h-6.804V410.9h6.804v1.133zm-13.607 0h-6.8V410.9h6.803v1.133zm-13.602 0H169.4c-.313 0-.567-.254-.567-.567v-5.65h1.135v5.08h.59v1.13zm-.584-13.02h-1.132v-6.802h1.134v6.807zm-7.275-6.328h-6.802v-1.134h6.804v1.138zm-13.604 0h-6.803v-1.134h6.8v1.138zm-7.8-5.804h-1.134v-6.8h1.134v6.804zm119.826.073h-6.803v-1.134h6.802v1.133zm-13.605 0h-6.8v-1.134h6.803v1.133zm-13.604 0H227.1v-1.134h6.802v1.133zm-13.606 0h-6.802v-1.134h6.805v1.133zm-13.604 0h-6.805v-1.134h6.803v1.133zm-13.608 0h-6.803v-1.134h6.8v1.133zm-10.545-3.06h-1.14v-6.802h1.135v6.805zm0-13.604h-1.14v-6.804h1.135v6.8zm0-13.607h-1.14v-6.803h1.135v6.8zm0-13.605h-1.14v-6.8h1.135v6.802zm0-13.603h-1.14v-6.803h1.135v6.8zm0-13.605h-1.14v-6.802h1.135v6.803zm0-13.604h-1.14v-6.803h1.135v6.8zm0-13.605h-1.14v-6.286h.053v-.565h.516c.312 0 .566.253.566.566v6.29zm-7.886-5.72h-6.8V281.8h6.8v1.134zm182.464 86.724h-1.134v-6.8h1.133v6.803zm0-13.603h-1.134v-6.803h1.133v6.805zm0-13.605h-1.134v-2.15h-3.52v-1.13h4.085c.312 0 .566.25.566.564v2.717zm-11.454-2.15h-6.804v-1.134h6.802v1.135zm-13.607 0h-6.803v-1.134h6.807v1.135zm-7.41-6.195h-1.133v-6.8h1.138v6.804zm0-13.605h-1.133v-6.804h1.138v6.803zm7.288-10.812h-5.625v-1.135h5.627v1.133zm92.176 62.633h-6.81v-1.132h6.804v1.133zm-13.604 0h-6.8v-1.132h6.806v1.133zm-13.6 0h-6.803v-1.132h6.803v1.133zm-13.605 0h-6.8v-1.132h6.804v1.133zm-13.603 0h-6.804v-1.132h6.803v1.133zm58.553-3.8h-1.134v-6.802h1.13v6.804zm0-13.604h-1.134v-4.787h1.13v4.786zm-187.48-3.442h1.134v3.4h-1.134zm1.134-6.246h-1.134v-6.245h1.134v6.246zm0-12.49h-1.134v-6.246h1.134v6.248zm0-12.492h-1.134V314h1.134v6.246zm0-12.49h-1.134v-6.25h1.134v6.245zm-1.134-15.893h1.134v3.4h-1.134z" fill="#fff"/><linearGradient gradientUnits="userSpaceOnUse" x1="340.484" y1="493.008" x2="293.65" y2="418.346"><stop offset="0" stop-color="#fff" stop-opacity="0"/><stop offset="1" stop-color="#002D3F"/></linearGradient><path opacity=".11" fill="url(#c)" d="M196.843 481.632L394.94 362.207l95.05 167.91H235.777z"/><linearGradient gradientUnits="userSpaceOnUse" x1="155.502" y1="472.692" x2="141.33" y2="447.749"><stop offset="0" stop-color="#fff" stop-opacity="0"/><stop offset="1" stop-color="#002D3F"/></linearGradient><path opacity=".36" fill="url(#d)" d="M114.275 456.67l39.81-32.338 42.758 64.582-60.093.096z"/><linearGradient gradientUnits="userSpaceOnUse" x1="306.121" y1="568.75" x2="292.813" y2="545.327"><stop offset="0" stop-color="#fff" stop-opacity="0"/><stop offset="1" stop-color="#002D3F"/></linearGradient><path opacity=".36" fill="url(#e)" d="M270.976 553.32l30.95-28.357 40.155 60.65-48.63.047z"/><linearGradient gradientUnits="userSpaceOnUse" x1="485.452" y1="539.392" x2="459.88" y2="486.219"><stop offset="0" stop-color="#fff" stop-opacity="0"/><stop offset="1" stop-color="#002D3F"/></linearGradient><path opacity=".36" fill="url(#f)" d="M433.628 502.403l42.77-29.76 40.155 60.648-60.45 1.46z"/><linearGradient gradientUnits="userSpaceOnUse" x1="403.59" y1="610.142" x2="385.936" y2="573.431"><stop offset="0" stop-color="#fff" stop-opacity="0"/><stop offset="1" stop-color="#002D3F"/></linearGradient><path opacity=".36" fill="url(#g)" d="M360.176 581.93l41.15-19.377 28.893 40.896h-53.89z"/><linearGradient gradientUnits="userSpaceOnUse" x1="242.337" y1="592.741" x2="229.488" y2="569.688"><stop offset="0" stop-color="#fff" stop-opacity="0"/><stop offset="1" stop-color="#002D3F"/></linearGradient><path opacity=".11" fill="url(#h)" d="M208.616 572.373l24.43-27.4 32.21 48.755-40.48.164z"/><linearGradient gradientUnits="userSpaceOnUse" x1="173.55" y1="573.1" x2="151.867" y2="528.012"><stop offset="0" stop-color="#fff" stop-opacity="0"/><stop offset="1" stop-color="#002D3F"/></linearGradient><path opacity=".36" fill="url(#i)" d="M115.123 540.906l72.514-24.76 23.725 46.28h-80.08z"/><linearGradient gradientUnits="userSpaceOnUse" x1="151.699" y1="398.772" x2="141.495" y2="374.586"><stop offset="0" stop-color="#fff" stop-opacity="0"/><stop offset="1" stop-color="#002D3F"/></linearGradient><path opacity=".36" fill="url(#j)" d="M109.58 380.674l55.083-14.92 27.486 47.163-60.1.096z"/><linearGradient gradientUnits="userSpaceOnUse" x1="163.873" y1="331.586" x2="154.32" y2="314.469"><stop offset="0" stop-color="#fff" stop-opacity="0"/><stop offset="1" stop-color="#002D3F"/></linearGradient><path opacity=".36" fill="url(#k)" d="M128.43 312.25l39.84-14.87 27.485 47.16-44.85.05z"/><linearGradient gradientUnits="userSpaceOnUse" x1="448.18" y1="362.812" x2="439.11" y2="330.5"><stop offset="0" stop-color="#fff" stop-opacity="0"/><stop offset="1" stop-color="#002D3F"/></linearGradient><path opacity=".36" fill="url(#l)" d="M416.36 337.32l37.152-6.875 18.142 28.13H431.96z"/><linearGradient gradientUnits="userSpaceOnUse" x1="480.342" y1="435.964" x2="452.565" y2="376.441"><stop offset="0" stop-color="#fff" stop-opacity="0"/><stop offset="1" stop-color="#002D3F"/></linearGradient><path opacity=".36" fill="url(#m)" d="M430.58 406.367l50.338-31.957 26.87 43.33-52.88 25.08z"/><linearGradient gradientUnits="userSpaceOnUse" x1="253.297" y1="337.978" x2="250.862" y2="305.71"><stop offset="0" stop-color="#fff" stop-opacity="0"/><stop offset="1" stop-color="#002D3F"/></linearGradient><path opacity=".36" fill="url(#n)" d="M199.42 303.28l78.62-4.4 26.336 36.69-82.482.05z"/><linearGradient gradientUnits="userSpaceOnUse" x1="379.649" y1="321.783" x2="367.714" y2="285.409"><stop offset="0" stop-color="#fff" stop-opacity="0"/><stop offset="1" stop-color="#002D3F"/></linearGradient><path opacity=".36" fill="url(#o)" d="M325.532 293.088l67.643-22.744 26.336 36.69-70.99 23.41z"/><path d="M309.66 479.55c0 3.546-2.874 6.417-6.42 6.417h-14.694c-3.545 0-6.42-2.87-6.42-6.418s2.876-6.42 6.42-6.42h14.694c3.546 0 6.42 2.87 6.42 6.41zM196.843 362.207H394.94v119.425H196.843z" fill="#a73e5c"/><path d="M299.962 469.083c-31.363-6.495-63.725-6.495-95.088 0V348.148c31.363-6.495 63.725-6.495 95.088 0v120.935z" fill="#ffeec1"/><path d="M239.87 393.136c-7.75.415-15.485 1.216-23.175 2.402v-34.733c7.69-1.186 15.426-1.986 23.176-2.402v34.733z" fill="#43c1c3"/><path d="M285.045 364.532c-13.157-1.85-26.432-2.574-39.682-2.175v-4.185c13.25-.4 26.525.326 39.682 2.175v4.185zm0 8.36c-13.157-1.85-26.432-2.574-39.682-2.175v-4.184c13.25-.4 26.525.326 39.682 2.175v4.184zm0 8.36c-13.157-1.85-26.432-2.573-39.682-2.174v-4.18c13.25-.4 26.525.326 39.682 2.175v4.18zm0 8.362c-13.157-1.85-26.432-2.574-39.682-2.175v-4.18c13.25-.4 26.525.32 39.682 2.17v4.18zm0 8.36c-13.157-1.85-26.432-2.573-39.682-2.174v-4.182c13.25-.4 26.525.326 39.682 2.175v4.182zm0 8.36c-22.57-3.172-45.487-3.036-68.027.407v-4.18c22.54-3.44 45.457-3.57 68.027-.4v4.18zm0 8.364c-22.57-3.172-45.487-3.036-68.027.407v-4.18c22.54-3.444 45.457-3.58 68.027-.408v4.18zm0 8.362c-22.57-3.173-45.487-3.037-68.027.406v-4.18c22.54-3.444 45.457-3.58 68.027-.408v4.18zm0 8.358c-22.57-3.172-45.487-3.036-68.027.407v-4.18c22.54-3.443 45.457-3.578 68.027-.407v4.18zm0 8.362c-22.57-3.173-45.487-3.037-68.027.406v-4.18c22.54-3.443 45.457-3.578 68.027-.407v4.18zm0 8.363c-22.57-3.172-45.487-3.036-68.027.407v-4.18c22.54-3.444 45.457-3.58 68.027-.408v4.18z" fill="#5c2849"/><path d="M395.05 469.083c-31.364-6.495-63.725-6.495-95.087 0V348.148c31.363-6.495 63.724-6.495 95.086 0v120.935z" fill="#ffeec1"/><path d="M380.13 364.532c-22.57-3.172-45.49-3.036-68.03.408v-4.185c22.54-3.443 45.458-3.58 68.03-.408v4.185zm0 8.36c-22.57-3.172-45.49-3.036-68.03.408v-4.184c22.54-3.443 45.458-3.58 68.03-.408v4.184zm0 8.36c-22.57-3.17-45.49-3.035-68.03.41v-4.18c22.54-3.44 45.458-3.578 68.03-.407v4.18zm0 8.36c-22.57-3.17-45.49-3.035-68.03.41v-4.18c22.54-3.44 45.458-3.578 68.03-.407v4.18zm0 8.362c-22.57-3.172-45.49-3.036-68.03.408V394.2c22.54-3.443 45.458-3.58 68.03-.408v4.182zm0 8.36c-22.57-3.173-45.49-3.037-68.03.407v-4.18c22.54-3.44 45.458-3.57 68.03-.4v4.18zm0 8.364c-22.57-3.172-45.49-3.036-68.03.408v-4.18c22.54-3.444 45.458-3.58 68.03-.41v4.182zm0 8.362c-22.57-3.173-45.49-3.037-68.03.407v-4.18c22.54-3.444 45.458-3.58 68.03-.41v4.182zm0 8.358c-22.57-3.172-45.49-3.036-68.03.408v-4.18c22.54-3.443 45.458-3.58 68.03-.408v4.18zm0 8.362c-22.57-3.173-45.49-3.037-68.03.407v-4.18c22.54-3.443 45.458-3.58 68.03-.408v4.18zm0 8.363c-22.57-3.172-45.49-3.036-68.03.408v-4.18c22.54-3.44 45.458-3.58 68.03-.4v4.18z" fill="#5c2849"/><circle cx="148.123" cy="303.641" r="21.271" fill="#fff"/><path d="M130.804 303.64c0 9.566 7.754 17.32 17.32 17.32 9.564 0 17.317-7.754 17.317-17.32h-34.63z" fill="#ec4963"/><circle cx="153.458" cy="309.939" r="2.075" fill="#fff"/><circle cx="146.048" cy="314.103" r="2.075" fill="#fff"/><circle cx="138.637" cy="307.864" r="2.075" fill="#fff"/><path fill="#fff" d="M141.75 266.56h12.746v25.296H141.75zm14.722-1.383c0 1.637-1.326 2.964-2.964 2.964h-10.77c-1.638 0-2.964-1.32-2.964-2.96s1.327-2.96 2.964-2.96h10.77c1.637 0 2.964 1.33 2.964 2.966z"/><path fill="#fff5db" d="M476.4 492.17v-54.978h-42.772v64.99h32.758V492.17z"/><path fill="#fff" d="M476.4 492.17h-10.014v10.014l5.006-5.007z"/><path fill="#5c2849" d="M437.27 446.085h35.487v1.542H437.27zm0 5.44h35.487v1.542H437.27zm0 5.438h35.487v1.542H437.27zm0 5.437h35.487v1.543H437.27zm0 5.44h35.487v1.542H437.27zm0 5.44h35.487v1.542H437.27zm0 5.438h35.487v1.542H437.27zm0 5.44h35.487v1.54H437.27z"/><path fill="#43c1c3" d="M463.85 466.686l5.943-5.943 20.667 20.667-5.943 5.943z"/><path fill="#ffda67" d="M480.03 482.893l5.943-5.943 1.076 1.075-5.95 5.943zm-15.22-23.173l-1.972 1.974 1.02 4.99 5.942-5.943z"/><path fill="#5c2849" d="M462.838 461.694l1.973-1.973-2.47-.5zm-320.978 37.49L94.11 516.82l.014 4.19 20.96 5.605.038 12.686s8.325-2.41 26.848-3.64c18.046 1.03 26.868 3.48 26.868 3.48l-.038-12.68 20.926-5.73-.012-4.19-47.854-17.35z"/><path d="M185.023 549.33c.824-.158 1.447-.88 1.445-1.75-.003-.984-.802-1.777-1.785-1.775h-.303l-.097-32.452c-.004-1.353-1.104-2.446-2.455-2.44-1.354.003-2.446 1.102-2.442 2.455l.097 32.454h-.018c-.984.002-1.777.8-1.774 1.783.01.778.51 1.43 1.21 1.67-2.41 5.193-3.94 9.056-3.28 9.626 4.62 4.03 8.128 4.02 12.72-.03.648-.57-.87-4.37-3.31-9.532z" fill="#43c1c3"/><ellipse transform="matrix(1 -.003 .003 1 -1.616 .428)" cx="141.981" cy="539.22" rx="26.858" ry="9.127" fill="#a73e5c"/><circle cx="220.835" cy="577.029" r="4.531" fill="#ec4963"/><path d="M233.66 548.893c-.003-7.088-5.752-12.83-12.84-12.828-7.087.002-12.832 5.75-12.83 12.837 0 3.34 3.372 12.207 3.372 12.207l18.935-.01s3.364-8.87 3.363-12.21z" fill="#ffda67"/><path d="M233.046 567.586c0-.812-.39-1.532-.988-1.99.6-.458.987-1.178.986-1.99 0-1.383-1.122-2.505-2.505-2.504l-19.42.007c-1.39 0-2.51 1.12-2.51 2.5 0 .81.39 1.53.99 1.99-.6.454-.99 1.174-.99 1.99 0 .81.39 1.53.99 1.99-.6.46-.99 1.18-.988 1.99 0 1.38 1.12 2.5 2.503 2.5h2.9c-.5.26-.845.78-.845 1.384 0 .867.703 1.57 1.57 1.57l12.173-.005c.867 0 1.57-.7 1.57-1.57-.002-.603-.346-1.12-.847-1.384h2.9c1.382 0 2.503-1.12 2.502-2.504 0-.812-.39-1.53-.99-1.99.6-.458.99-1.18.99-1.99z" fill="#5c2849"/><circle cx="134.534" cy="440.731" r="25.78" fill="#43c1c3"/><circle cx="134.533" cy="440.731" r="19.823" fill="#fff"/><path d="M134.593 424.962c-.003-.104-.09-.188-.194-.185-.11.002-.19.09-.19.193l.26 13.73-10.12-9.74c-.378-.36-.977-.35-1.34.026-.362.377-.352.976.026 1.337l10.713 10.31.172 8.988c.01.53.44.94.963.93.522-.01.936-.44.926-.96l-.18-9.38c0-.06-.01-.122-.02-.182-.007-.025-.018-.05-.025-.075-.01-.033-.017-.066-.032-.1-.01-.03-.03-.053-.044-.08-.016-.027-.03-.055-.048-.08-.026-.04-.058-.075-.09-.11-.01-.01-.018-.023-.03-.033l-.488-.47" fill="#ec4963"/><circle cx="134.533" cy="440.731" r="2.217" fill="#ffda67"/><path d="M392.777 268.35c-4.1-12.786-22.532-18.31-41.17-12.335-12.518 4.012-22.303 12.05-25.535 21-5.487 15.195.824 24.012 13.184 29.846 12.36 5.84 36.806 6.56 41.47-3.32 1.16-2.46.984-5.34-.124-8.38 9.944-7.35 15.095-17.69 12.175-26.8zm-24.05 36.127c-2.6.833-5.386-.6-6.22-3.2-.832-2.6.6-5.385 3.2-6.22 2.6-.833 5.385.6 6.22 3.2.833 2.602-.6 5.386-3.2 6.22z" fill="#43c1c3"/><path d="M377.54 279.533c.503.97 1.813.38 2.37 1.06.526.64-.548 1.67-.718 2.272-.35 1.243.437 1.912 1.615 1.956 1.562.06 1.522-1.06 2.166-2.1.482-.782 1.522-.452 2.306-.584.87-.15 2.32-.736 2.45-1.714.2-1.43-2.04-1.575-1.85-2.74.102-.64.62-.813.51-1.634-.11-.856-.57-1.242-1.285-1.62-1.02-.53-2.32-.33-2.816.87-.34.828.333 1.94-.667 2.24-1.09.324-5.38-.488-4.09 2.005z" fill="#5c2849"/><path d="M378.398 263.25c-.74.804.263 1.833-.184 2.59-.42.712-1.758.057-2.38.104-1.288.096-1.646 1.066-1.284 2.187.48 1.49 1.518 1.07 2.724 1.32.9.186.947 1.276 1.34 1.967.437.77 1.486 1.928 2.452 1.72 1.412-.3.782-2.45 1.94-2.674.638-.122.977.304 1.71-.08.77-.396.975-.96 1.08-1.76.153-1.14-.484-2.293-1.78-2.35-.893-.034-1.708.98-2.33.144-.68-.916-1.388-5.224-3.288-3.16z" fill="#a73e5c"/><path d="M363.122 264.973c.502.97 1.812.38 2.37 1.06.526.64-.548 1.67-.718 2.272-.352 1.243.437 1.912 1.615 1.956 1.56.06 1.52-1.06 2.16-2.1.48-.782 1.52-.452 2.3-.584.875-.147 2.32-.736 2.458-1.714.2-1.43-2.037-1.576-1.85-2.74.103-.642.62-.814.513-1.635-.11-.857-.57-1.244-1.283-1.62-1.02-.532-2.32-.33-2.816.87-.34.826.335 1.94-.664 2.237-1.09.33-5.38-.482-4.093 2.01z" fill="#ec4963"/><path d="M352.06 262.82c-.653.878.452 1.797.086 2.596-.344.753-1.742.24-2.357.352-1.27.23-1.53 1.232-1.05 2.31.63 1.426 1.62.9 2.84 1.02.912.088 1.073 1.168 1.54 1.814.513.72 1.68 1.762 2.62 1.457 1.37-.45.52-2.53 1.65-2.87.62-.19 1 .2 1.69-.26.72-.478.867-1.06.89-1.866.032-1.15-.72-2.23-2.017-2.15-.893.057-1.598 1.154-2.304.385-.77-.84-1.924-5.05-3.598-2.8z" fill="#ffda67"/><path fill="#ec4963" d="M333.024 268.224l-3.203.678-.7-3.337-3.15-10.42 5.02-1.063 1.324 10.74z"/><path d="M341.565 308.605c.187.884-.38 1.753-1.263 1.94-.885.188-1.753-.378-1.94-1.262l-8.64-40.848c-.186-.885.38-1.753 1.264-1.94.885-.187 1.754.38 1.94 1.263l8.64 40.847z" fill="#ffda67"/><path fill="#5c2849" d="M329.126 265.56l3.205-.677 2.43 11.48-3.2.678z"/><path d="M159.48 365.774c-.046-12.35-10.095-22.323-22.444-22.278-12.35.046-22.324 10.094-22.278 22.445l-5.182.02.056 14.96 55.088-.2-.055-14.96-5.184.02zm-34.578.13c-.025-6.748 5.425-12.238 12.172-12.264 6.747-.025 12.238 5.424 12.263 12.17l-24.435.093z" fill="#ffda67"/><path fill="#5c2849" d="M112.393 376.316l1.555-.005.017 4.57-1.555.01zm3.67-.006l1.554-.006.016 4.57-1.555.005zm3.703-.018l1.555-.006.02 4.57-1.55.006zm3.692-.014l1.554-.006.018 4.57-1.554.006zm3.68-.008l1.553-.006.02 4.57-1.55.004zm3.715-.023l1.554-.006.017 4.57-1.554.01zm3.68-.01l1.555-.007.02 4.57-1.555.007zm3.704-.017l1.554-.007.02 4.57-1.55.006zm3.67-.007l1.553-.005.016 4.57-1.554.005zm3.69-.013l1.555-.005.016 4.57-1.555.004zm3.705-.02l1.554-.005.018 4.57-1.554.006zm3.703-.017l1.555-.005.016 4.57-1.555.004zm3.69-.013h1.554v4.568h-1.56zm3.668-.004l1.555-.006.018 4.57-1.555.006z"/><path d="M439.952 291.63c-.648 1.183-2.132 1.614-3.314.965l-5.65-3.098c-1.185-.65-1.616-2.133-.97-3.316.65-1.18 2.133-1.61 3.316-.96l5.65 3.1c1.185.65 1.618 2.13.968 3.32zm6.49-37.567l11.818 6.482-17.048 31.083-11.82-6.482z" fill="#43c1c3"/><path fill="#5c2849" d="M432.775 278.98l11.818 6.482-3.38 6.166-11.82-6.482zm24.13-20.49c-.414.757-1.363 1.033-2.12.618l-5.308-2.91c-.756-.416-1.034-1.366-.62-2.12.416-.758 1.366-1.036 2.123-.62l5.308 2.91c.757.416 1.033 1.366.617 2.123z"/><path fill="#43c1c3" d="M427.683 315.57l14.56-.022.02 14.9-14.56.02z"/><path fill="#5c2849" d="M416.44 330.492l37.076-.052.01 7.11-37.076.052zm33.592-14.62l-29.934.04-.005-3.554 29.935-.04c9.102-.014 16.495-7.43 16.483-16.53-.01-9.102-7.42-16.496-16.53-16.484v-3.556c11.06-.015 20.08 8.972 20.09 20.034.02 11.063-8.97 20.075-20.03 20.09z"/><circle cx="448.106" cy="277.378" r="4.317" fill="#5c2849"/><circle cx="448.106" cy="277.378" r="2.627" fill="#43c1c3"/><path fill="#5c2849" d="M285.432 517.59l2.904-.005.023 11.15-2.91.007z"/><path d="M294.057 521.214c-2.646.006-5.102 1.138-7.157 3.077-2.06-1.93-4.522-3.05-7.166-3.04-7.216.015-13.048 8.39-13.028 18.716.02 10.323 5.884 18.678 13.098 18.665 2.646-.006 5.104-1.137 7.157-3.076 2.06 1.93 4.53 3.053 7.17 3.047 7.22-.014 13.05-8.392 13.03-18.714-.02-10.32-5.88-18.68-13.1-18.664z" fill="#ec4963"/><path d="M292.117 518.593c1.085-1.246.794-3.272.794-3.272s-2.04 0-3.13 1.24c-1.08 1.25-.79 3.28-.79 3.28s2.05.01 3.13-1.237z" fill="#43c1c3"/><path d="M394.78 509.57v-2.396h-27.227v2.397h-7.892v16.51c0 4.918 5.12 8.8 10.21 10.39 1.62 2.403 3.98 4.26 6.76 5.244v14.403h-8.69v5.99h26.46v-5.99h-8.69V541.71c2.72-.96 5.04-2.76 6.65-5.088 5.257-1.48 10.73-5.46 10.73-10.54v-16.505h-8.306zm-30.772 16.505v-12.157h3.545v14.953c0 .62.045 1.23.125 1.83-2.1-1.3-3.67-3.003-3.67-4.62zm34.73 0c0 1.726-1.797 3.555-4.118 4.884.105-.69.16-1.38.16-2.09v-14.96h3.957v12.155z" fill="#ffda67"/><path fill="#ec4963" d="M360.694 562.098h40.944v21.122h-40.944z"/><path fill="#a73e5c" d="M366.606 568.24h29.12v8.838h-29.12zm94.434-183.332l11.247 10.9-3.193.318-.218 3.203-11.248-10.91zm-10.235 10.562l-11.25-10.903 3.196-.318.22-3.21 11.25 10.9z"/><path fill="#ffda67" d="M481.365 375.23l-40.33 41.615-11.247-10.9 40.33-41.615z"/><path fill="#a73e5c" d="M463.27 393.9l-3.41 3.52-11.25-10.9 3.413-3.52z"/><path fill="#43c1c3" d="M198.216 256.985h84.128v2.987h-84.128z"/><path d="M213.434 309.26c0 1.967-1.595 3.562-3.562 3.562-1.968 0-3.562-1.595-3.562-3.562v-7.813c0-1.967 1.594-3.562 3.562-3.562 1.966 0 3.562 1.595 3.562 3.562v7.813zm60.816 0c0 1.967-1.595 3.562-3.563 3.562-1.966 0-3.562-1.595-3.562-3.562v-7.813c0-1.967 1.595-3.562 3.562-3.562 1.967 0 3.562 1.595 3.562 3.562v7.813z" fill="#5c2849"/><path d="M276.89 298.88v-36.764c0-14.72-11.932-26.654-26.653-26.654h-19.914c-14.72 0-26.654 11.933-26.654 26.654v36.765h73.22z" fill="#ffe187"/><path d="M269.232 266.33c0 3.045-2.47 5.514-5.515 5.514h-46.875c-3.045 0-5.515-2.47-5.515-5.515v-12.26c0-3.05 2.47-5.52 5.515-5.52h46.875c3.046 0 5.515 2.47 5.515 5.513v12.255z" fill="#a73e5c"/><path d="M236.02 264.344c0 2.173-1.763 3.935-3.936 3.935h-12.79c-2.173 0-3.935-1.77-3.935-3.94v-8.74c0-2.18 1.76-3.94 3.93-3.94h12.79c2.17 0 3.93 1.76 3.93 3.933v8.74zm29.18 0c0 2.173-1.76 3.935-3.934 3.935h-12.79c-2.173 0-3.935-1.77-3.935-3.94v-8.74c0-2.18 1.77-3.94 3.94-3.94h12.79c2.178 0 3.94 1.76 3.94 3.933v8.74z" fill="#43c1c3"/><path d="M214.085 298.88v-12.83c0-1.52 1.237-2.758 2.757-2.758h46.875c1.52 0 2.757 1.237 2.757 2.757v12.83h5.515v-12.83c0-4.57-3.72-8.28-8.28-8.28h-46.87c-4.56 0-8.27 3.71-8.27 8.27v12.83h5.51z" fill="#ffda67"/><path d="M281.794 302.635c0 2.073-1.68 3.754-3.754 3.754h-75.52c-2.073 0-3.754-1.68-3.754-3.76 0-2.077 1.68-3.758 3.754-3.758h75.52c2.072 0 3.754 1.68 3.754 3.754z" fill="#ec4963"/><path d="M259.735 243.887c0 1.27-1.03 2.298-2.298 2.298h-34.314c-1.27 0-2.298-1.03-2.298-2.298 0-1.27 1.03-2.298 2.298-2.298h34.314c1.27 0 2.298 1.02 2.298 2.29z" fill="#43c1c3"/><path fill="#5c2849" d="M233.08 242.05h14.4v3.677h-14.4z"/><g fill="#ec4963"><circle cx="250.361" cy="243.887" r="1.264"/><circle cx="255.474" cy="243.887" r="1.264"/><circle cx="225.086" cy="243.887" r="1.264"/><circle cx="230.198" cy="243.887" r="1.264"/></g><path d="M283.302 262.996c0 1.058-.857 1.915-1.915 1.915-1.057 0-1.914-.85-1.914-1.91v-5.59c0-1.06.857-1.91 1.914-1.91 1.058 0 1.915.858 1.915 1.916V263zm-82.214 0c0 1.058-.857 1.915-1.915 1.915s-1.915-.85-1.915-1.91v-5.59c0-1.06.857-1.91 1.915-1.91 1.057 0 1.915.858 1.915 1.916V263z" fill="#ffda67"/><path fill="#5c2849" d="M230.83 286.856h18.9v3.676h-18.9zm0 4.904h18.9v3.675h-18.9z"/><g fill="#43c1c3"><circle cx="259.409" cy="288.695" r="2.872"/><circle cx="221.151" cy="288.695" r="2.872"/></g></g></svg>