<svg xmlns="http://www.w3.org/2000/svg" width="800" height="800" viewBox="0 0 800 800"><title>Contar historias</title><defs><filter id="a" x="-1.037" width="3.074" y="-1.117" height="3.233" color-interpolation-filters="sRGB"><feGaussianBlur stdDeviation="307.525"/></filter><clipPath><path d="M483.41 554.55l-135.95 1.346-.657-66.415 135.95-1.34z"/></clipPath><clipPath><path d="M290.907 557.09l-135.952 1.345-.658-66.413 135.953-1.346z"/></clipPath><radialGradient cx="286.342" cy="1010.726" r="8.723" gradientTransform="matrix(-2.333 -.031 .008 -.417 957.597 665.313)" gradientUnits="userSpaceOnUse"><stop offset="0" stop-color="#D7D6D5"/><stop offset=".095" stop-color="#CCCBCA"/><stop offset=".231" stop-color="#B5B3B3"/><stop offset=".393" stop-color="#939191"/><stop offset=".575" stop-color="#696767"/><stop offset=".773" stop-color="#3E3C3C"/><stop offset=".982" stop-color="#060606"/><stop offset=".994" stop-color="#010101"/></radialGradient><radialGradient cx="288.603" cy="929.008" r="13.677" gradientTransform="matrix(-2.059 -.023 .009 -.383 883.659 596.01)" gradientUnits="userSpaceOnUse"><stop offset="0" stop-color="#fff"/><stop offset=".859" stop-color="#fff"/><stop offset="1" stop-color="#fff"/></radialGradient><clipPath><path d="M143.348 496s2.305 8.896 0 23.717c-2.305 14.82-5.856 44.96 1.025 67.027 0 0 25.49 1.236 38.994-4.034 13.504-5.27 27.667-4.65 41.83.948 14.163 5.6 42.027 6.565 51.233 1.626 11.346-6.088 29.956-6.268 45.107.65 15.15 6.916 47.003 4.918 57.64-1.324 15.15-8.89 32.442-4.942 39.03-1.65 11.105 5.554 21.742 7 41.005 5.598 0 0-2.965-15.154-3.294-29.317-.33-14.16 4.94-39.24.988-63.24H143.348z"/></clipPath><clipPath><path d="M364.25 300.93c-23.78-17.457-97.887-17.457-121.67 0-25.19 18.49-35.006 56.7-5.033 87.66 0 0-24.334 44.486 8.932 74.788C264 479.34 279 481.808 303 481.84v.002c24-.034 39.658-2.48 57.183-18.444 33.266-30.302 8.997-74.808 8.997-74.808 29.973-30.96 20.26-69.17-4.93-87.66z"/></clipPath><clipPath><path d="M364.25 300.93c-23.78-17.457-97.887-17.457-121.67 0-25.19 18.49-35.006 56.7-5.033 87.66 0 0-24.334 44.486 8.932 74.788C264 479.34 279 481.808 303 481.84v.002c24-.034 39.658-2.48 57.183-18.444 33.266-30.302 8.997-74.808 8.997-74.808 29.973-30.96 20.26-69.17-4.93-87.66z"/></clipPath><clipPath><path d="M364.25 300.93c-23.78-17.457-97.887-17.457-121.67 0-25.19 18.49-35.006 56.7-5.033 87.66 0 0-24.334 44.486 8.932 74.788C264 479.34 279 481.808 303 481.84v.002c24-.034 39.658-2.48 57.183-18.444 33.266-30.302 8.997-74.808 8.997-74.808 29.973-30.96 20.26-69.17-4.93-87.66z"/></clipPath><clipPath><path d="M364.25 300.93c-23.78-17.457-97.887-17.457-121.67 0-25.19 18.49-35.006 56.7-5.033 87.66 0 0-24.334 44.486 8.932 74.788C264 479.34 279 481.808 303 481.84v.002c24-.034 39.658-2.48 57.183-18.444 33.266-30.302 8.997-74.808 8.997-74.808 29.973-30.96 20.26-69.17-4.93-87.66z"/></clipPath><clipPath><path d="M364.25 300.93c-23.78-17.457-97.887-17.457-121.67 0-25.19 18.49-35.006 56.7-5.033 87.66 0 0-24.334 44.486 8.932 74.788C264 479.34 279 481.808 303 481.84v.002c24-.034 39.658-2.48 57.183-18.444 33.266-30.302 8.997-74.808 8.997-74.808 29.973-30.96 20.26-69.17-4.93-87.66z"/></clipPath><clipPath><path d="M364.25 300.93c-23.78-17.457-97.887-17.457-121.67 0-25.19 18.49-35.006 56.7-5.033 87.66 0 0-24.334 44.486 8.932 74.788C264 479.34 279 481.808 303 481.84v.002c24-.034 39.658-2.48 57.183-18.444 33.266-30.302 8.997-74.808 8.997-74.808 29.973-30.96 20.26-69.17-4.93-87.66z"/></clipPath><clipPath><path d="M364.25 300.93c-23.78-17.457-97.887-17.457-121.67 0-25.19 18.49-35.006 56.7-5.033 87.66 0 0-24.334 44.486 8.932 74.788C264 479.34 279 481.808 303 481.84v.002c24-.034 39.658-2.48 57.183-18.444 33.266-30.302 8.997-74.808 8.997-74.808 29.973-30.96 20.26-69.17-4.93-87.66z"/></clipPath><clipPath><path d="M364.25 300.93c-23.78-17.457-97.887-17.457-121.67 0-25.19 18.49-35.006 56.7-5.033 87.66 0 0-24.334 44.486 8.932 74.788C264 479.34 279 481.808 303 481.84v.002c24-.034 39.658-2.48 57.183-18.444 33.266-30.302 8.997-74.808 8.997-74.808 29.973-30.96 20.26-69.17-4.93-87.66z"/></clipPath><clipPath><path d="M364.25 300.93c-23.78-17.457-97.887-17.457-121.67 0-25.19 18.49-35.006 56.7-5.033 87.66 0 0-24.334 44.486 8.932 74.788C264 479.34 279 481.808 303 481.84v.002c24-.034 39.658-2.48 57.183-18.444 33.266-30.302 8.997-74.808 8.997-74.808 29.973-30.96 20.26-69.17-4.93-87.66z"/></clipPath><clipPath><path d="M364.25 300.93c-23.78-17.457-97.887-17.457-121.67 0-25.19 18.49-35.006 56.7-5.033 87.66 0 0-24.334 44.486 8.932 74.788C264 479.34 279 481.808 303 481.84v.002c24-.034 39.658-2.48 57.183-18.444 33.266-30.302 8.997-74.808 8.997-74.808 29.973-30.96 20.26-69.17-4.93-87.66z"/></clipPath><clipPath><path d="M364.25 300.93c-23.78-17.457-97.887-17.457-121.67 0-25.19 18.49-35.006 56.7-5.033 87.66 0 0-24.334 44.486 8.932 74.788C264 479.34 279 481.808 303 481.84v.002c24-.034 39.658-2.48 57.183-18.444 33.266-30.302 8.997-74.808 8.997-74.808 29.973-30.96 20.26-69.17-4.93-87.66z"/></clipPath><clipPath><path d="M364.25 300.93c-23.78-17.457-97.887-17.457-121.67 0-25.19 18.49-35.006 56.7-5.033 87.66 0 0-24.334 44.486 8.932 74.788C264 479.34 279 481.808 303 481.84v.002c24-.034 39.658-2.48 57.183-18.444 33.266-30.302 8.997-74.808 8.997-74.808 29.973-30.96 20.26-69.17-4.93-87.66z"/></clipPath><clipPath><path d="M364.25 300.93c-23.78-17.457-97.887-17.457-121.67 0-25.19 18.49-35.006 56.7-5.033 87.66 0 0-24.334 44.486 8.932 74.788C264 479.34 279 481.808 303 481.84v.002c24-.034 39.658-2.48 57.183-18.444 33.266-30.302 8.997-74.808 8.997-74.808 29.973-30.96 20.26-69.17-4.93-87.66z"/></clipPath><clipPath><path d="M364.25 300.93c-23.78-17.457-97.887-17.457-121.67 0-25.19 18.49-35.006 56.7-5.033 87.66 0 0-24.334 44.486 8.932 74.788C264 479.34 279 481.808 303 481.84v.002c24-.034 39.658-2.48 57.183-18.444 33.266-30.302 8.997-74.808 8.997-74.808 29.973-30.96 20.26-69.17-4.93-87.66z"/></clipPath><clipPath><path d="M364.25 300.93c-23.78-17.457-97.887-17.457-121.67 0-25.19 18.49-35.006 56.7-5.033 87.66 0 0-24.334 44.486 8.932 74.788C264 479.34 279 481.808 303 481.84v.002c24-.034 39.658-2.48 57.183-18.444 33.266-30.302 8.997-74.808 8.997-74.808 29.973-30.96 20.26-69.17-4.93-87.66z"/></clipPath><clipPath><path d="M364.25 300.93c-23.78-17.457-97.887-17.457-121.67 0-25.19 18.49-35.006 56.7-5.033 87.66 0 0-24.334 44.486 8.932 74.788C264 479.34 279 481.808 303 481.84v.002c24-.034 39.658-2.48 57.183-18.444 33.266-30.302 8.997-74.808 8.997-74.808 29.973-30.96 20.26-69.17-4.93-87.66z"/></clipPath><clipPath><path d="M364.25 300.93c-23.78-17.457-97.887-17.457-121.67 0-25.19 18.49-35.006 56.7-5.033 87.66 0 0-24.334 44.486 8.932 74.788C264 479.34 279 481.808 303 481.84v.002c24-.034 39.658-2.48 57.183-18.444 33.266-30.302 8.997-74.808 8.997-74.808 29.973-30.96 20.26-69.17-4.93-87.66z"/></clipPath><clipPath><path d="M144.658 369.334c-.213-.266 15.51-.972 15.51-.972s-6.363 12.353-15.51.972z"/></clipPath><clipPath><path d="M263.16 409.113c0-7.137-5.57-12.923-12.44-12.923-6.87 0-12.44 5.786-12.44 12.923 0 3.35 1.23 6.404 3.243 8.7 0 0 5.354 7.06 5.658 10.738h7.09c.305-3.67 5.66-10.73 5.66-10.73 2.01-2.294 3.24-5.35 3.24-8.7z"/></clipPath><clipPath><path d="M345.41 379.523l-1.435-.186c-.068-.804-.262-1.576-.562-2.294l1.192-.963c.128-.103.15-.297.052-.43l-1.662-2.22c-.1-.133-.286-.157-.413-.054l-1.142.923c-.58-.51-1.236-.92-1.957-1.22l.187-1.557c.02-.167-.095-.32-.256-.34l-2.686-.35c-.16-.02-.31.1-.33.265l-.178 1.49c-.773.072-1.517.273-2.208.585l-.927-1.236c-.1-.133-.285-.157-.413-.054l-2.136 1.726c-.128.102-.15.296-.052.43l.89 1.186c-.486.6-.883 1.284-1.167 2.034l-1.496-.194c-.16-.02-.3.1-.32.27l-.335 2.79c-.02.164.095.32.256.34l1.435.185c.068.805.26 1.577.56 2.295l-1.19.96c-.13.104-.15.298-.053.43l1.664 2.22c.1.134.285.158.412.055l1.145-.924c.58.503 1.236.916 1.957 1.21l-.19 1.556c-.02.17.097.32.258.344l2.686.35c.16.02.31-.1.33-.27l.18-1.49c.774-.07 1.52-.27 2.21-.583l.926 1.24c.1.133.286.157.413.054l2.134-1.724c.13-.105.15-.3.053-.43l-.89-1.19c.485-.6.882-1.282 1.167-2.032l1.496.194c.16.024.31-.096.33-.263l.335-2.79c.02-.167-.096-.32-.257-.342zm-8.893 3.285c-1.494-.194-2.554-1.61-2.367-3.162.187-1.552 1.55-2.653 3.043-2.46 1.494.195 2.554 1.61 2.367 3.163-.187 1.55-1.55 2.65-3.043 2.45z"/></clipPath><linearGradient gradientUnits="userSpaceOnUse" x1="340.484" y1="493.008" x2="293.65" y2="418.346"><stop offset="0" stop-color="#fff" stop-opacity="0"/><stop offset="1" stop-color="#002D3F"/></linearGradient><linearGradient gradientUnits="userSpaceOnUse" x1="155.502" y1="472.692" x2="141.33" y2="447.749"><stop offset="0" stop-color="#fff" stop-opacity="0"/><stop offset="1" stop-color="#002D3F"/></linearGradient><linearGradient gradientUnits="userSpaceOnUse" x1="306.121" y1="568.75" x2="292.813" y2="545.327"><stop offset="0" stop-color="#fff" stop-opacity="0"/><stop offset="1" stop-color="#002D3F"/></linearGradient><linearGradient gradientUnits="userSpaceOnUse" x1="485.452" y1="539.392" x2="459.88" y2="486.219"><stop offset="0" stop-color="#fff" stop-opacity="0"/><stop offset="1" stop-color="#002D3F"/></linearGradient><linearGradient gradientUnits="userSpaceOnUse" x1="403.59" y1="610.142" x2="385.936" y2="573.431"><stop offset="0" stop-color="#fff" stop-opacity="0"/><stop offset="1" stop-color="#002D3F"/></linearGradient><linearGradient gradientUnits="userSpaceOnUse" x1="242.337" y1="592.741" x2="229.488" y2="569.688"><stop offset="0" stop-color="#fff" stop-opacity="0"/><stop offset="1" stop-color="#002D3F"/></linearGradient><linearGradient gradientUnits="userSpaceOnUse" x1="173.55" y1="573.1" x2="151.867" y2="528.012"><stop offset="0" stop-color="#fff" stop-opacity="0"/><stop offset="1" stop-color="#002D3F"/></linearGradient><linearGradient gradientUnits="userSpaceOnUse" x1="151.699" y1="398.772" x2="141.495" y2="374.586"><stop offset="0" stop-color="#fff" stop-opacity="0"/><stop offset="1" stop-color="#002D3F"/></linearGradient><linearGradient gradientUnits="userSpaceOnUse" x1="163.873" y1="331.586" x2="154.32" y2="314.469"><stop offset="0" stop-color="#fff" stop-opacity="0"/><stop offset="1" stop-color="#002D3F"/></linearGradient><linearGradient gradientUnits="userSpaceOnUse" x1="448.18" y1="362.812" x2="439.11" y2="330.5"><stop offset="0" stop-color="#fff" stop-opacity="0"/><stop offset="1" stop-color="#002D3F"/></linearGradient><linearGradient gradientUnits="userSpaceOnUse" x1="480.342" y1="435.964" x2="452.565" y2="376.441"><stop offset="0" stop-color="#fff" stop-opacity="0"/><stop offset="1" stop-color="#002D3F"/></linearGradient><linearGradient gradientUnits="userSpaceOnUse" x1="253.297" y1="337.978" x2="250.862" y2="305.71"><stop offset="0" stop-color="#fff" stop-opacity="0"/><stop offset="1" stop-color="#002D3F"/></linearGradient><linearGradient gradientUnits="userSpaceOnUse" x1="379.649" y1="321.783" x2="367.714" y2="285.409"><stop offset="0" stop-color="#fff" stop-opacity="0"/><stop offset="1" stop-color="#002D3F"/></linearGradient><filter id="P" color-interpolation-filters="sRGB"><feColorMatrix values="0.21 0.72 0.072 0 0 0.21 0.72 0.072 0 0 0.21 0.72 0.072 0 0 0 0 0 1 0"/></filter><filter id="O" color-interpolation-filters="sRGB"><feColorMatrix values="0.21 0.72 0.072 0 0 0.21 0.72 0.072 0 0 0.21 0.72 0.072 0 0 0 0 0 1 0"/></filter><filter id="N" color-interpolation-filters="sRGB"><feColorMatrix values="0.21 0.72 0.072 0 0 0.21 0.72 0.072 0 0 0.21 0.72 0.072 0 0 0 0 0 1 0"/></filter><filter id="M" color-interpolation-filters="sRGB"><feColorMatrix values="0.21 0.72 0.072 0 0 0.21 0.72 0.072 0 0 0.21 0.72 0.072 0 0 0 0 0 1 0"/></filter><filter id="L" color-interpolation-filters="sRGB"><feColorMatrix values="0.21 0.72 0.072 0 0 0.21 0.72 0.072 0 0 0.21 0.72 0.072 0 0 0 0 0 1 0"/></filter><filter id="K" color-interpolation-filters="sRGB"><feColorMatrix values="0.21 0.72 0.072 0 0 0.21 0.72 0.072 0 0 0.21 0.72 0.072 0 0 0 0 0 1 0"/></filter><filter id="J" color-interpolation-filters="sRGB"><feColorMatrix values="0.21 0.72 0.072 0 0 0.21 0.72 0.072 0 0 0.21 0.72 0.072 0 0 0 0 0 1 0"/></filter><filter id="I" color-interpolation-filters="sRGB"><feColorMatrix values="0.21 0.72 0.072 0 0 0.21 0.72 0.072 0 0 0.21 0.72 0.072 0 0 0 0 0 1 0"/></filter><filter id="H" color-interpolation-filters="sRGB"><feColorMatrix values="0.21 0.72 0.072 0 0 0.21 0.72 0.072 0 0 0.21 0.72 0.072 0 0 0 0 0 1 0"/></filter><filter id="G" color-interpolation-filters="sRGB"><feColorMatrix values="0.21 0.72 0.072 0 0 0.21 0.72 0.072 0 0 0.21 0.72 0.072 0 0 0 0 0 1 0"/></filter><filter id="F" color-interpolation-filters="sRGB"><feColorMatrix values="0.21 0.72 0.072 0 0 0.21 0.72 0.072 0 0 0.21 0.72 0.072 0 0 0 0 0 1 0"/></filter><filter id="E" color-interpolation-filters="sRGB"><feColorMatrix values="0.21 0.72 0.072 0 0 0.21 0.72 0.072 0 0 0.21 0.72 0.072 0 0 0 0 0 1 0"/></filter><filter id="D" color-interpolation-filters="sRGB"><feColorMatrix values="0.21 0.72 0.072 0 0 0.21 0.72 0.072 0 0 0.21 0.72 0.072 0 0 0 0 0 1 0"/></filter><filter id="C" color-interpolation-filters="sRGB"><feColorMatrix values="0.21 0.72 0.072 0 0 0.21 0.72 0.072 0 0 0.21 0.72 0.072 0 0 0 0 0 1 0"/></filter><filter id="B" color-interpolation-filters="sRGB"><feColorMatrix values="0.21 0.72 0.072 0 0 0.21 0.72 0.072 0 0 0.21 0.72 0.072 0 0 0 0 0 1 0"/></filter><filter id="A" color-interpolation-filters="sRGB"><feColorMatrix values="0.21 0.72 0.072 0 0 0.21 0.72 0.072 0 0 0.21 0.72 0.072 0 0 0 0 0 1 0"/></filter><filter id="z" color-interpolation-filters="sRGB"><feColorMatrix values="0.21 0.72 0.072 0 0 0.21 0.72 0.072 0 0 0.21 0.72 0.072 0 0 0 0 0 1 0"/></filter><filter id="y" color-interpolation-filters="sRGB"><feColorMatrix values="0.21 0.72 0.072 0 0 0.21 0.72 0.072 0 0 0.21 0.72 0.072 0 0 0 0 0 1 0"/></filter><filter id="x" color-interpolation-filters="sRGB"><feColorMatrix values="0.21 0.72 0.072 0 0 0.21 0.72 0.072 0 0 0.21 0.72 0.072 0 0 0 0 0 1 0"/></filter><filter id="w" color-interpolation-filters="sRGB"><feColorMatrix values="0.21 0.72 0.072 0 0 0.21 0.72 0.072 0 0 0.21 0.72 0.072 0 0 0 0 0 1 0"/></filter><filter id="v" color-interpolation-filters="sRGB"><feColorMatrix values="0.21 0.72 0.072 0 0 0.21 0.72 0.072 0 0 0.21 0.72 0.072 0 0 0 0 0 1 0"/></filter><filter id="u" color-interpolation-filters="sRGB"><feColorMatrix values="0.21 0.72 0.072 0 0 0.21 0.72 0.072 0 0 0.21 0.72 0.072 0 0 0 0 0 1 0"/></filter><filter id="t" color-interpolation-filters="sRGB"><feColorMatrix values="0.21 0.72 0.072 0 0 0.21 0.72 0.072 0 0 0.21 0.72 0.072 0 0 0 0 0 1 0"/></filter><filter id="s" color-interpolation-filters="sRGB"><feColorMatrix values="0.21 0.72 0.072 0 0 0.21 0.72 0.072 0 0 0.21 0.72 0.072 0 0 0 0 0 1 0"/></filter><filter id="r" color-interpolation-filters="sRGB"><feColorMatrix values="0.21 0.72 0.072 0 0 0.21 0.72 0.072 0 0 0.21 0.72 0.072 0 0 0 0 0 1 0"/></filter><filter id="q" color-interpolation-filters="sRGB"><feColorMatrix values="0.21 0.72 0.072 0 0 0.21 0.72 0.072 0 0 0.21 0.72 0.072 0 0 0 0 0 1 0"/></filter><filter id="p" color-interpolation-filters="sRGB"><feColorMatrix values="0.21 0.72 0.072 0 0 0.21 0.72 0.072 0 0 0.21 0.72 0.072 0 0 0 0 0 1 0"/></filter><filter id="o" color-interpolation-filters="sRGB"><feColorMatrix values="0.21 0.72 0.072 0 0 0.21 0.72 0.072 0 0 0.21 0.72 0.072 0 0 0 0 0 1 0"/></filter><filter id="n" color-interpolation-filters="sRGB"><feColorMatrix values="0.21 0.72 0.072 0 0 0.21 0.72 0.072 0 0 0.21 0.72 0.072 0 0 0 0 0 1 0"/></filter><filter id="m" color-interpolation-filters="sRGB"><feColorMatrix values="0.21 0.72 0.072 0 0 0.21 0.72 0.072 0 0 0.21 0.72 0.072 0 0 0 0 0 1 0"/></filter><filter id="l" color-interpolation-filters="sRGB"><feColorMatrix values="0.21 0.72 0.072 0 0 0.21 0.72 0.072 0 0 0.21 0.72 0.072 0 0 0 0 0 1 0"/></filter><filter id="k" color-interpolation-filters="sRGB"><feColorMatrix values="0.21 0.72 0.072 0 0 0.21 0.72 0.072 0 0 0.21 0.72 0.072 0 0 0 0 0 1 0"/></filter><filter id="j" color-interpolation-filters="sRGB"><feColorMatrix values="0.21 0.72 0.072 0 0 0.21 0.72 0.072 0 0 0.21 0.72 0.072 0 0 0 0 0 1 0"/></filter><filter id="i" color-interpolation-filters="sRGB"><feColorMatrix values="0.21 0.72 0.072 0 0 0.21 0.72 0.072 0 0 0.21 0.72 0.072 0 0 0 0 0 1 0"/></filter><filter id="h" color-interpolation-filters="sRGB"><feColorMatrix values="0.21 0.72 0.072 0 0 0.21 0.72 0.072 0 0 0.21 0.72 0.072 0 0 0 0 0 1 0"/></filter><filter id="g" color-interpolation-filters="sRGB"><feColorMatrix values="0.21 0.72 0.072 0 0 0.21 0.72 0.072 0 0 0.21 0.72 0.072 0 0 0 0 0 1 0"/></filter><filter id="f" color-interpolation-filters="sRGB"><feColorMatrix values="0.21 0.72 0.072 0 0 0.21 0.72 0.072 0 0 0.21 0.72 0.072 0 0 0 0 0 1 0"/></filter><filter id="e" color-interpolation-filters="sRGB"><feColorMatrix values="0.21 0.72 0.072 0 0 0.21 0.72 0.072 0 0 0.21 0.72 0.072 0 0 0 0 0 1 0"/></filter><filter id="d" color-interpolation-filters="sRGB"><feColorMatrix values="0.21 0.72 0.072 0 0 0.21 0.72 0.072 0 0 0.21 0.72 0.072 0 0 0 0 0 1 0"/></filter><filter id="c" color-interpolation-filters="sRGB"><feColorMatrix values="0.21 0.72 0.072 0 0 0.21 0.72 0.072 0 0 0.21 0.72 0.072 0 0 0 0 0 1 0"/></filter><filter id="b" color-interpolation-filters="sRGB"><feColorMatrix values="0.21 0.72 0.072 0 0 0.21 0.72 0.072 0 0 0.21 0.72 0.072 0 0 0 0 0 1 0"/></filter></defs><rect width="711.864" height="661.017" x="57.627" y="54.237" rx="1.542" ry="1.143" fill="#efe2c2" fill-opacity="0" filter="url(#a)"/><path d="M414.446 510.283l-134.22 53.958-12.164-4.53s18.947-8.79 3.817-14.44c-15.13-5.65-34.03 14.44-34.03 14.44L223.41 555l54.753-46.69 50.973-7.313s-65.907 36.888-17.27 29.344c48.635-7.542 87.2-39.322 87.2-39.322s18.087 16.543 15.373 19.272zM587.09 547.57l-3.265-2.996-52.227-47.93h-8.438s4.14 8.482-1.3 5.817c-5.44-2.66-11.393-5.05-11.393-5.05s23.408 18.1 21.13 22.02c-2.276 3.93-87.657-21.092-96.564-34.94 0 0-.654 15.905-5.342 14.49-4.68-1.418-10.42.142-10.42.142l5.81 5.896s95.13 44.56 100.93 50.57c5.8 6.01 17.186 1.54 16.704-6.37-.482-7.91 17.648-8.39 26.125-3.943" clip-rule="evenodd" fill="#808080" fill-rule="evenodd" filter="url(#b)"/><path d="M351.848 241.027s19.575 92.08 59.6 121.253c32.738 23.86 45.78 32.687 45.78 32.687s-35.805-19.386-35.25 6.106c.554 25.492 20.382 43.78-14.963 41.01-39.378-3.088-9.42 28.26-46.61 24.937-30.73-2.747-5.866-39.346-37.81-17.652-16.37 11.118-12.668 20.977-12.668 20.977s-19.085-205.848-9.12-224.29c0 0 21.284-15.017 51.04-5.028z" clip-rule="evenodd" fill="#808080" fill-rule="evenodd" filter="url(#c)"/><g clip-rule="evenodd" fill-rule="evenodd" filter="url(#d)"><path d="M457.547 265.07s-18.02 98.318 16.204 172.578c0 0-3.54-26.6 13.96-31.034 17.5-4.433 7.8 12.192 33.02 2.77 25.216-9.42 13.3-30.48 34.36-43.78s30.48-14.244 30.48-14.244-68.167-22.803-84.68-78.857c0 0-22.83-22.068-43.333-7.432z" fill="#808080"/><path d="M539.84 498.475c-4.554.28-9.114.78-13.664.71-1.414-.02-3.144-1.31-4.13-2.51-1.754-2.13-2.732-3.425-4.58-5.44-1.04-1.132-4.717-6.028-5.494-3.162-.383 1.404-.306 2.584-.35 4-.057 1.723-.402 5.482-1.156 5.33-.074-2.558-.15-4.44-1.468-7.135-2.085-4.264-1.098-9.66-.25-14.252 2.172-11.758-1.316-22.077-7.425-31.567-6.222-9.67-8.69-20.32-6.83-31.1 2.283-13.23 1.706-25.5-3.698-37.87-2.406-5.507-2.972-11.815-4.422-17.96-6.485 4.864-9.003 12.354-11.728 19.724-1.865 5.05-3.57 10.17-5.708 15.1-2.557 5.9-5.403 11.682-8.34 17.404-.66 1.29-3.058 13.08-5.33 17.864-5.872 12.363-12.196 24.516-17.863 36.97-1.83 4.024-4.17 9.522-2.792 12.94 2.728 6.762-1.988 12.986.38 19.31.247.655-.623 2.15-1.38 2.685-2.715 1.934-5.607 3.625-8.544 5.48l-5.807-5.896c6.06-9.676 8.78-20.336 10.48-31.334 1.79-11.563 3.24-23.194 5.49-34.667 1.87-9.52 7.625-17.168 13.308-24.88 2.7-3.666 4.67-8.516 5.17-13.028 1.223-11.15 1.284-22.42 2.095-33.624.184-2.532 1.433-22.475 10.328-36.936 1.767-2.87 4.344-5.196 6.18-8.015 3.756-5.76 2.91-11.783-2.18-18.12-2.02-2.51-3.952-5.09-5.91-7.652-2.77-3.628-6.356-4.12-9.243-.57-4.422 5.44-8.552 11.15-12.404 17.01-2.645 4.02-2.185 8.27-.564 12.974 1.46 4.23 1.73 9.162 1.313 13.676-.57 6.234 2.935 15.03 8.177 18.82 1.232.894 2.17 3.166 2.08 4.74-.23 4.02-2.778 6.58-6.68 7.526-1.26.306-2.658.048-4.825.048-1.095-4.73-2.156-9.5-3.31-14.246-1.782-7.34-2.973-14.91-5.594-21.945-4.215-11.305-2.25-21.975 1.98-32.447 4.09-10.128 8.914-19.958 13.537-30.188-2.152.394-4.457.934-6.796 1.22-4.43.545-7.3-1.683-9.12-5.51-1.607-3.38-2.595-3.43-5.43.18-3.37-5.423-7.533-10.332-4.662-17.36-4.72-2.02-4.676 2.995-7 4.27-3.1-5.76-.352-15.676 5.566-19.844 1.905-1.34 4.066-2.35 5.828-3.844 1.095-.924 1.656-2.474 2.97-4.57 2.6.276 6.087.617 9.565 1.015 6.69.766 11.972-2.177 16.718-6.404 3.98-3.544 7.587-7.564 11.83-10.74 5.98-4.47 13.234-3.93 20.037-2.982 2.23.31 4.395 3.59 5.916 5.95 2.456 3.81 4.445 7.936 6.456 12.015 1.977 4.01.827 7.85-1.584 11.18-3 4.142-3.835 8.34-2.245 13.27 1.547 4.806-1.906 8-4.436 11.38-.706.94-1.584 1.75-2.654 2.916 3.17 1.304 6.023 2.676 9.006 3.653 3.433 1.122 5.46 2.923 5.504 6.854.016 1.584.974 3.382 2 4.693 5.605 7.16 4.493 11.26-1.77 16.78-4.435 3.908-2.027 13.26-1.52 17.51 1.552 13.07 4.58 26.014 5.38 39.108.75 12.23-.742 24.587-.956 36.894-.07 4.183.765 8.383 1.15 12.58.095 1.037.2 2.107.055 3.126-2.12 14.86 1.97 29.072 4.418 43.465 1.226 7.2 2.58 14.4 3.265 21.66.967 10.255 6.86 18.074 11.96 26.363 2.723 4.427 6.632 6.45 11.714 6.483.006.297.006.595.006.894z" fill="#666"/><path d="M487.42 212.685c-.908 1.39-1.765 2.69-3.054 3.763-1.476 1.23-3.35 1.842-5.227 2.09-1.51.197-3.08.07-4.59.03-4.33-.114-8.66-.223-12.99-.022-4.838.224-17.81.71-16.277 8.48l.043.193c.04.17.293.09.263-.08-.65-3.74 2.783-5.62 5.853-6.548 4.24-1.28 8.83-1.45 13.23-1.53 3.925-.07 7.85.094 11.775.15 4.71.068 9.38-1.707 11.24-6.42.07-.166-.188-.252-.277-.116zm1.366 40.015c-3.266 5.633-13.045-4.593-15.01-7.77-1.884-3.048-1.45-7.032-3.198-10.14-.563-1-1.716-1.727-2.536-2.497-.44-.413-.9-.873-1.1-1.457-.353-1.047 1.68-2.215.98-1.974-1.336.457-2.195 1.455-1.43 2.8.816 1.438 2.48 2.178 3.393 3.534.704 1.043.833 2.557 1.01 3.767.216 1.484.45 4.516.833 5.97.34 1.28 1.37 1.494 2.857 3.177-.02 1.16 1.172 6.908.177 8.498-1.424 2.28-4.87 2.007-7.168 1.877-4.75-.27-11.498-4.022-14.137 1.91-.128.288.2.503.41.32 1.262-1.107 2.416-1.976 4.095-2.304 1.58-.3 3.27.03 4.83.28 2.7.45 5.404.35 8.146.65 6.174.68 5.17-8.17 4.315-10.5 3.692 3.84 11.33 8.777 13.533 3.87.157-.35.2-.345 0 0zm6.53-26.215c-.04-.048-.126-.032-.153.02-.44.834-.363 2.16-.553 3.1-.287 1.42-.628 2.824-.827 4.26-.203 1.468-.074 2.96-.127 4.436-.07 1.93-.334 3.82-.492 5.73-.005.06.092.08.102.02.314-1.73.552-3.48.825-5.212.27-1.71.21-3.44.44-5.15.22-1.554.6-3.086.87-4.633.127-.735.44-1.93-.074-2.56zm-6.396-15.51s2.886 6.23 0 10.296c-2.885 4.07-8.98 6.55-19.413 6.05-10.43-.49-24.656-.22-29.262 11.7 0 0 .136-9.89 18.832-12.19 18.694-2.3 32.73-.68 29.844-15.85zm3.605 64.143c-.09-.286-.53-.238-.528.07.01 1.73.858 3.415 1.357 5.046.54 1.763.52 3.53-.232 5.225-1.232 2.78-4.26 4.25-7.064 4.92-6.978 1.66-14.18-2.31-19.162-6.9-.136-.126-.314.06-.2.2 2.462 2.97 6.01 5.053 9.548 6.48 3.328 1.34 6.872 1.813 10.38.986 2.88-.68 5.644-2.338 7.1-4.97 2.008-3.634-.082-7.51-1.2-11.066zm3.75 32.908c.145-5.866 1.92-11.622.295-17.46-.088-.315-.53-.176-.48.134.497 3.088.64 6.063.382 9.18-.242 2.89-.817 5.74-.9 8.642-.085 2.872.462 5.808.718 8.665.136 1.52.26 3.04.337 4.564.062 1.24-.058 2.5.22 3.71.006.03.055.03.054-.01-.12-5.82-.77-11.59-.62-17.42zm-7.355 43.028" fill="#808080"/><path d="M488.362 267.09c-.894-.672-2.067-.963-3.118-1.31-1.262-.417-2.54-.79-3.82-1.15-2.438-.69-4.95-1.42-7.467-1.74-.25-.033-.275.35-.058.42 2.4.78 4.91 1.26 7.35 1.925 1.28.35 2.555.73 3.824 1.132 1.054.333 2.125.818 3.234.89.1.005.11-.12.045-.167zm12.418-1.648c-1.46-.1-3.12.787-4.447 1.316-.973.388-1.81.86-2.616 1.46-.04.03-.007.09.04.067 2.175-1.103 5.008-1.306 7.074-2.657.09-.057.05-.18-.05-.186z" fill="#808080"/></g><path d="M277.146 323.2l-2.33 7.49 11.147 8.415 6.412-7.013s3.206-10.137-1.202-13.826c-4.408-3.69-14.027 4.933-14.027 4.933z" fill="#666" filter="url(#e)"/><path d="M286.76 334.016c-2.54 0-4.15-1.857-6.534-2.168 2.61 2.017 5.205 3.392 6.946 4.12.4-.294.8-.59 1.2-.883-.277-2.707-4.912-7.05-5.214-10.007 4.622.24 7.077-2.55 9.536-5.397-3.524 2.11-7.822 2.41-10.645 4.3-3.88 2.218 3.6 6.166 4.71 10.045z" clip-rule="evenodd" fill="#808080" fill-rule="evenodd" filter="url(#f)"/><path d="M415.55 498.923c-1.448-3.234-2.95-6.45-4.223-9.754-1.743-4.53-4.217-9.03-4.75-13.72-1.417-12.51-3.29-25.16-2.604-37.69.826-15.12-.695-24.248-12.48-37.936-3.368-3.46-5.807-8.34-7.293-13.014-3.65-11.472-4.316-17.56-7.958-29.033-4.854-15.29-10.118-30.467-15.722-45.5-2.3-6.17-5.093-12.54-9.204-17.55-4.777-5.827-4.443-11.55-3.045-17.89.17-.735.83-1.488 1.46-1.973 6.04-4.653 12.128-9.252 17.15-13.07 4.146 5.877 8.166 12.4 13.066 18.175 2.585 3.05 3.62 5.843 3.097 9.55-.31 2.182-1.04 4.46-.7 6.554.988 6.09 2.383 12.11 3.688 18.146 1.11 5.136-.224 6.95-5.29 8.68-2.513.858-4.637 2.855-6.94 4.33-3.99 2.558-1.2 4.958.123 7.436.26.49.193 1.16.262 1.746.48 4.09 6.383 8.486 10.494 7.81 6.2-1.02 5.786-1.152 6.65-7.675.902-6.8 2.4-13.6 4.462-20.143 1.944-6.17 5.323-11.883 7.363-18.03 1.11-3.35 1.81-7.508.835-10.74-2.084-6.895-5.13-7.283-5.65-14.352-.384-5.22-7.45-25.476-11.914-29.13-9.67-7.91-9.8-11.517-19.885-18.874-8.757-6.386-15.49-10.584-18.39-20.97-.27-.96-.56-2.19-.513-2.886 1.016-15.468-.16-23.796-.267-28.68-.076-3.327-1.396-4.19-4.81-4.877-24.39-4.91-35.106.554-44.413 1.755 3.196.87 6.113 1.67 9.795 2.674l-7.422 3.774c5.737 1.575 8.6 1.76 12.85 2.96 4.527 1.28 4.842 1.264 5.287 5.057.945 8.07 1.846 16.14 2.793 24.21.083.71.365 1.4.61 2.3 1.498 0 3.186-.254 4.59-.254.286.44 1.386 4.158.758 6.19-2.685 2.526-14.456 6.1-20.51 9.547-5.746 3.27-13.58 10.723-15.185 17.815-.99 4.374 2.063 16.75 2.044 20.197-.022 4.23 1.058 8.46 1.39 12.707.145 1.818.12 3.966-.706 5.486-3.474 6.4-4.79 13.25-5.333 20.405-.483 6.336-2.86 11.64-8.776 15.018-2.117 1.21-3.686 3.38-5.503 5.114v3.58c1.59 2.164 3.503 3.977 5.408 5.45 2.384.31 3.996 2.168 6.535 2.168-1.11-3.88-8.59-7.828-4.71-10.044 2.82-1.88 7.12-2.19 10.642-4.29 2.005-2.32 4.01-4.673 7.19-5.462 0 6.67-.01 13.44.003 20.213.034 14.83 3.297 28.95 8.86 42.675 2.524 6.232 4.932 12.677 2.87 19.738-.38 1.298.146 2.924.47 4.35 1.545 6.87 3.916 13.65 4.602 20.597 1.43 14.467 2.165 29.013 2.844 43.542.754 16.14-10.696 31.483-23.542 35.19-6.172 1.78-11.89 5.14-17.814 7.783l.096 1.33c7.573 0 15.18.43 22.71-.15 5.08-.395 10.016-2.375 15.076-3.334 2.38-.45 4.92.044 7.34-.262 2.804-.355 5.596-.985 8.298-1.805.615-.186 1.364-1.78 1.174-2.497-6.36-24.035.155-46.565 8.325-68.764 2.342-6.37 1.493-11.796-1.326-17.427-2.642-5.286-5.422-10.513-7.86-15.897-2.566-5.67-2.653-11.605.19-17.14 4.6-8.945 4.47-18.183 2.695-27.675-.217-1.146-.03-2.37-.03-4.722 1.414 2.016 2.316 3.224 3.137 4.486 9.79 15.05 17.243 21.248 27.035 36.297 2.795 4.3 7.136 13.456 6.29 18.56-1.76 10.602.71 20.13 9.524 26.66 11.64 8.62 14.01 24.784 16.05 38.367 1.642 10.976-1.478 20.136-6.03 29.3-1.89 3.8-1.2 5.778 2.45 7.58 2.725 1.34 5.15 3.29 7.71 4.973h6.27c1.08-.662 2.143-1.362 3.247-1.984 9.115-5.13 9.296-5.694 5.005-15.266z" clip-rule="evenodd" fill="#666" fill-rule="evenodd" filter="url(#g)"/><path d="M305.352 235.884l-9.692 11.206-2.16 5.15 3.068 5.45s.87 7.876 2.858 13.933c1.988 6.057 3.2 11.51 4.41 15.143 1.213 3.635-1.513 23.926-1.513 23.926s3.332-19.686 3.03-23.017c-.304-3.332-7.895-28.166-5.917-29.075 1.978-.91 31.356 2.726 38.322 6.966 6.966 4.24 24.835-17.567 24.835-17.567s-18.47 13.18-25.44 13.17c-6.972-.01-36.344-5-39.373-6.517-3.03-1.515 7.572-18.778 7.572-18.778zm-.772 81.464l4.94 12.958s14.86 9.904 21.41 12.785c2.6 1.15 6.213-19.41 16.353-21.8 0 0-1.568-3.933-16.427 16.26-3.425 4.658-17.715-2.99-26.277-20.193zm64.07-59.96s10.6 20.594 16.355 24.834c5.754 4.24 10.902.303 11.812 0 .908-.303-9.39 5.15-9.995 12.417-.606 7.26.303 17.86.303 17.86s-4.08-13.364-3.81-18.17c.27-4.81 1.69-7.876 1.69-7.876s-11.22-15.634-16.53-25.084l.175-3.99zm-55.51 11.938s-2.856 10.672 0 15.622c0 0-1.142 16.19.953 19.62 2.095 3.428 4.19 12.78 4.19 12.78s-1.84-12.02-3.205-15.828c-1.365-3.81-1.492-16.378 0-16.57 1.492-.193 4.16 5.712 14.065 4.57 0-.002-18.67-.383-16.002-20.194zm13.716 34.117c-3.62.144-7.03.34-9.683-2.528-.03-.034-.087 0-.076.044.97 3.65 6.984 3.6 9.804 2.82.19-.06.16-.35-.04-.34zm27.354-74.503c-3.216-1.653-7.26-2.134-10.82-2.443-1.952-.17-3.913-.176-5.87-.11-1.894.062-3.856.46-3.495.176 2-1.575 6.88-9.897 7.896-12.007 1.12-2.326 2.17-5.334 1.14-7.854-.07-.166-.32-.108-.273.076 1.17 4.598-2.29 9.316-4.9 12.81-2.394 3.208-5.6 7.406-9.925 7.664-.21.012-.227.273-.047.35 1.065.444 3.36-.12 3.52-.12 1.86.02 3.74-.29 5.6-.373 1.797-.08 3.6-.06 5.394.04 1.916.1 3.82.36 5.706.72 1.998.38 3.945.974 5.91 1.47 5.967 1.5.41-.288.174-.41zm-33.398-4.192c-1.802-.24-4.51-.304-6.204.477-.087.04-.066.188.026.206 1.51.28 3.275-.2 4.82-.19 2.05.02 4.03.48 5.486 2 .01.01.03 0 .026-.01-.632-1.743-2.477-2.25-4.154-2.473zm26.328-35.94c1.197-2.86-1.657-5.755-4.462-4.612-.23.095-.14.472.106.385 2.104-.75 3.736.78 3.76 2.9.016 1.48-1.278 2.65-2.13 3.71-1.724 2.15-1.35 4.31-.91 6.86.29 1.684.355 4.35-1.22 5.468-1.25.89-7.938 2.553-9.827 3.08-1.85.52-3.712.406-5.483 1.167-.12.05-.03.22.083.198 2.38-.46 4.75-1.034 7.08-1.69 2.11-.596 9.713-1.814 10.52-3.207.745-1.29-.036-3.88-.27-5.26-.305-1.815-.533-4.766.45-6.455.77-1.32 1.703-1.1 2.303-2.533z" clip-rule="evenodd" fill="#808080" fill-rule="evenodd" filter="url(#h)"/><path d="M255.116 528.06s10.135 17.622 15.497 25.174h10.757s-9.446-27.134-12.418-27.896c-2.972-.76-16.58-1.986-13.836 2.72zm-33.746 1.018s6.412 19.84 5.693 20.92c-.72 1.078-7.196 3.237-7.196 3.237s12.95 3.956 16.907 0l-1.55-24.156s-10.097-5.82-14.883 1.25" clip-rule="evenodd" fill="#f7c4a3" fill-rule="evenodd" filter="url(#i)"/><path d="M275.207 445.226s13.532 11.446 14.695 16.953c1.164 5.5-19.29 18.81-19.29 18.81s.49 9.04-3.58 10.47l1.92 4.79s2.986-4.538 4.54-1.868c1.552 2.67-2.375 6.183-6.46 7.63l-5.207-5.763-.723-16.9s18.52-12.84 17.375-15.69c-.33-.82-1.452-2.14-2.883-3.598-3.532-3.604-8.943-8.07-8.943-8.07l8.56-6.775z" clip-rule="evenodd" fill="#f7c4a3" fill-rule="evenodd" filter="url(#j)"/><path d="M273.49 445.937s6.47 9.57 2.104 14.133L266.65 452l6.84-6.063z" clip-rule="evenodd" opacity=".5" fill="#d6825f" fill-rule="evenodd" filter="url(#k)"/><path d="M210.273 445.937s-10.267 12.63-12.032 18.038c-1.76 5.41 10.27 16.448 12.04 18.876 0 0-1.765 3.76 0 7.29 1.768 3.53 1.88 2.98 1.88 2.98s-2.52-1.37-5.013.03c-2.493 1.41-.947 3.72-.947 3.72l8.13 2.1.44-22.52s-6.256-8.83-7.03-10.04c-.772-1.212 9.27-11.08 9.27-11.08s5.74-10.865-6.73-9.385z" clip-rule="evenodd" fill="#f7c4a3" fill-rule="evenodd" filter="url(#l)"/><path d="M212.26 449.625s-7.506 7.727-5.74 13.357c0 0 1.048 1.545 3.284 0 2.236-1.546 6.54-7.175 6.54-7.175s1.325-5.078-4.084-6.182z" clip-rule="evenodd" opacity=".5" fill="#d6825f" fill-rule="evenodd" filter="url(#m)"/><g clip-rule="evenodd" fill-rule="evenodd" filter="url(#n)"><path d="M214.762 485.916s-2.935 20.42 6.363 46.492c0 0 4.32 4.194 18.022-.91 0 0-3.28-14.173-2.73-18.986.775-6.768 2.393-5.993 2.393-5.993l3.14.05s5.794 17.99 10.9 26.38c0 0 15.678.362 19.143-5.65 0 0-8.022-20.79-8.75-30.998-.73-10.21-2.19-17.196-2.19-17.196l-46.29 6.8z" fill="#1b344d"/><path d="M258.865 480.993s1.096 2.08 1.777 7.007c3.277 23.748 5.333 31.828 6.428 33.65 1.094 1.824 3.544 7.272 3.544 7.272l-2.21 1.413s-.796-2.542-3.374-7.713c-2.857-5.732-5.397-27.647-6.164-32.877-.766-5.23-1.64-6.928-1.64-6.928l1.64-1.824zm-43.21 5.47c-2.038 25.286 7.33 46.926 7.33 46.926l-1.86-.99s-9.52-23.26-7.12-45.267c.105-.97 1.704-1.35 1.65-.68z" fill="#017e97"/></g><path d="M207.97 376.638s-.833 17.973-3.77 24.89c-2.4 5.648-4.02 10.862 5.342 15.603 6.362 3.23 16.634 10.71 22.064 9.23.87-.24 2.16-.67 3.71-1.22.283-.1-.91 6.13-.79 6.425.754 1.887 7.924 1.793 11.886-1.32.968-.762-.026-9.323 1.1-9.77 5.987-2.376 11.243-4.54 11.243-4.54l2.235-7.026s3.514 2.874 7.985 0c4.472-2.875 7.985-8.944 6.708-13.415-1.277-4.474-6.068-5.75-9.902-3.835l-.31-11.5s-15.33-9.9-22.36-9.9c-7.025 0-16.93 6.067-16.93 6.067l-13.092-6.067-5.11 6.385z" clip-rule="evenodd" fill="#f7c4a3" fill-rule="evenodd" filter="url(#o)"/><path d="M209.248 366.418l-9.31-6.388s21.666-6.388 38.006-4.79c16.34 1.596 20.493 4.853 20.812 5.46.32.608 1.597 5.72 1.597 5.72l3.194-5.72s2.556 2.844 0 5.72c0 0 4.79-1.917 5.43-1.917.64 0-3.513 5.75-3.513 5.75s5.11 3.832 6.068 6.387c.958 2.555-1.638 14.167-1.638 14.167s-6.666 2.44-6.985 3.72c-.32 1.277 1.7-11.894-.64-15.013-4.79-6.388-28.36-6.542-36.35-1.75l-12.22-5.238-5.94 6.707-11.61-14.09 13.09 1.275z" clip-rule="evenodd" fill="#6f5848" fill-rule="evenodd" filter="url(#p)"/><path d="M273.428 396.266c-3.213-4.362-8.624 4.003-9.008 6.883-.064.48.65.5.795.1.198-.546.544-1.356 1-2.24.18.354.423.674.684.975.41.482 1.13 1.197 1.8 1.013.11-.03.174-.17.11-.27-.32-.467-.898-.696-1.31-1.1-.28-.27-.52-.575-.73-.9-.08-.12-.15-.24-.223-.36 1.544-2.786 4.023-5.84 6.33-3.688.273.256.783-.093.542-.422z" clip-rule="evenodd" fill="#d6825f" fill-rule="evenodd" filter="url(#q)"/><path d="M207.137 447.57l12.843-15.908 14.578-2.257s2.867 4.34 12.3-1.428l17.558 3.114 14.06 15.74-11.444 11.71-6.486-8.784s-3.815 20.23 1.526 32.056c0 0-20.982 17.55-48.068 5.34l.763-31.82-7.63-7.752z" clip-rule="evenodd" fill="#b32625" fill-rule="evenodd" filter="url(#r)"/><path d="M219.25 436.55s-4.144 13.478-4.483 18.774c0 0-.335-9.717 4.483-18.774" clip-rule="evenodd" fill="#861719" fill-rule="evenodd" filter="url(#s)"/><path d="M235.317 425.13l10.84-4.675s-2.613 6.237-5.516 7.52c-2.9 1.286-6-.23-5.32-2.844z" clip-rule="evenodd" opacity=".4" fill="#d6825f" fill-rule="evenodd" filter="url(#t)"/><path d="M213.645 414.537s6.978-1.835 18.696-1.68c0 0 7.76-.03 8.83-3.49 0 0-.3-1.36-3.35-1.523 0 0 3.75-1.565 6.12 3.42 0 0-1.365-1.77-2.04-1.107s.03 3.512-11.878 3.52c-11.91.01-15.97 1.547-15.97 1.547l-.4-.687z" clip-rule="evenodd" fill="#d6825f" fill-rule="evenodd" filter="url(#u)"/><g transform="translate(96.61 -57.822)" filter="url(#v)"><path d="M129.308 445.46s10.222-11.48 20.76-7.326c10.54 4.152 13.096 5.463 15.97 3.21 0 0-7.345 23.62-21.4 23.62-12.46 0-15.33-6.07-15.33-6.07s-7.018 6.374-12.776 4.353c-8.624-3.026-9.9-16.17-12.456-23.196 0 0 4.457 3.33 7.97.78 3.515-2.554 10.235-6.56 17.262 4.64z" clip-rule="evenodd" fill="#861719" fill-rule="evenodd"/><circle cx="144.161" cy="451.118" r="9.103" fill="#fff"/><circle cx="147.834" cy="450.479" r="3.513" fill="#017e97"/><ellipse cx="118.56" cy="451.277" rx="6.2" ry="7.135" fill="#fff"/><circle cx="120.503" cy="450.777" r="2.754" fill="#017e97"/></g><path d="M272.884 396.686s.86 2.523-2.27 5.712c-3.13 3.188-7.158 3.634-5.7-.87 1.46-4.503 6.71-7.718 7.97-4.842z" clip-rule="evenodd" opacity=".5" fill="#d6825f" fill-rule="evenodd" filter="url(#w)"/><path d="M236.774 549.638s-5.036 3.237-9.71.36c0 0-11.732 3.238-18.094 9.71h28.883l-1.08-10.07zm31.288 0s6.92 3.597 11.268-2.07c0 0 5.997 5.667 6.716 12.14 0 0-14.303 15.162-22.127 0l4.14-10.07z" clip-rule="evenodd" fill="#b32625" fill-rule="evenodd" filter="url(#x)"/><path d="M575.79 504.322s-.486 33.12-3.408 37.915l-10.51 3.03s6.736-26.356 3.298-38.696c0 0 7.36-5.08 10.62-2.24zm-19.545 3.68s-10.81 33.127-18.13 39.91h-8.95s16.42-39.47 15.84-44.107l11.24 4.197z" clip-rule="evenodd" fill="#f7c4a3" fill-rule="evenodd" filter="url(#y)"/><g clip-rule="evenodd" fill-rule="evenodd" filter="url(#z)"><path d="M559.88 375.866s-.875-2.49 4.947-8.12c5.822-5.63 15.32-9.905 25.787-3.65 10.467 6.254 17.147 28.824 4.887 40.663-12.26 11.83-16.53 16.1-10 19.18 0 0-6.33.03-7.11-5.07s6.4-15.95 3.78-23.4c-2.62-7.45-8.22-7.693-13.3-7.85-5.073-.156-8.98-11.764-8.98-11.764z" fill="#f49b1f"/><path d="M564.834 380.42s.3-5.446-1.554-7.117c-1.853-1.67-8.52.39-8.06 4.81.463 4.416 8.42 4.39 8.42 4.39l1.194-2.084zm1.49.684c.25.046 5.822-1.476 7.86 1.414 2.04 2.89-3.96 10.015-6.706 6.736-2.746-3.28-2.186-5.558-2.225-5.88-.04-.32 1.07-2.27 1.07-2.27z" fill="#b32625"/><path fill="#9e1d20" d="M564.833 378.643l-2.728 3.756 3.182 2.44 2.348-3.81zm-.488 2.17s-1.2-.45-1.217-1.93c-.018-1.48-2.045-4.72-3.864-2.16-2.446 3.445 3.46 3.71 4.58 4.713 1.12 1.002.5-.622.5-.622zm.07 1.497s1.595-.338 1.91 1.11c.316 1.446 1.89 5.4 4.053 2.712 2.65-3.29-4.3-3.775-5.597-4.532-1.3-.758-.36.71-.36.71z"/></g><g clip-rule="evenodd" fill-rule="evenodd" filter="url(#A)"><path d="M574.86 453.782s10.855 7.355 12.145 11.314c1.29 3.96-12.71 15.358-12.71 15.358s1.072 6.61-1.81 7.98l1.79 3.38s1.838-3.573 3.19-1.73c1.354 1.84-1.26 4.736-4.15 6.12l-4.285-3.83L567.17 480s12.613-10.903 11.547-12.91c-.307-.578-1.236-1.46-2.404-2.42-2.882-2.373-7.214-5.233-7.214-5.233l5.76-5.655z" fill="#f7c4a3"/><path d="M576.496 454.3s7.22 8.555 3.483 13.402l-9.46-6.854 5.97-6.548z" opacity=".5" fill="#d6825f"/></g><path d="M541.782 488.66l-18.623 7.984s1.08 10.332 3.93 9.125c2.84-1.21 7.66.62 7.09 3.61-.58 2.983 5.04 3.98 9.12 1.54 4.07-2.448 9.23-3.708 12.22 1 2.98 4.7 5.67 6.793 9.35.91 4.49-7.17 9.5-4.9 11.106-1.64 2.497 5.06 6.456-1.455 9.986-4.627 3.53-3.17 6.477-3.748 8.38-4.177 1.9-.43-2.805-4.67-1.718-6.926 1.084-2.26-1.214-5.335-1.214-5.335l-18.03-4.578-31.606 3.106z" clip-rule="evenodd" fill="#6e7dbc" fill-rule="evenodd" filter="url(#B)"/><path d="M558.608 513.97s3.948-19.476-1.515-17.13c-3.47 1.49-5.3 9.86-5.3 9.86s4.13 1.715 6.815 7.27zm15.992-7.4s-12.647-13.58-6.37-11.673c6.28 1.908 14.608 11.674 14.608 11.674s-4.1 9.17-5.71 5.38c-1.61-3.78-2.528-5.38-2.528-5.38zm16.316-7.602s-17.756-5.958-13.787-7.507c3.7-1.44 13.78 1.06 13.78 1.06v6.457zm-55.06 11.315s14.9-14.015 11.393-15.383c-5.47-2.132-15.65 9.422-15.65 9.422s6.57 1.342 4.25 5.96z" opacity=".2" clip-rule="evenodd" fill="#6e7dbc" fill-rule="evenodd" filter="url(#C)"/><g clip-rule="evenodd" fill-rule="evenodd" filter="url(#D)"><path d="M522.67 464.637s-7.922 10.448-7.873 14.612c.05 4.16 16.966 10.46 16.966 10.46s1.106 6.605 4.276 6.98l-.62 3.773s-2.89-2.796-3.58-.616c-.69 2.18 2.712 4.082 5.895 4.466l2.83-5L538.363 487s-15.444-6.28-15.078-8.52c.105-.647.702-1.78 1.5-3.064 1.968-3.17 5.154-7.27 5.154-7.27l-7.277-3.508z" fill="#f7c4a3"/><path d="M521.287 465.652s-4.095 10.42 1 13.81l6.752-9.522-7.76-4.288z" opacity=".5" fill="#d6825f"/></g><path d="M570.876 388.665s3.34 17.114 7.137 23.33c3.098 5.076 5.39 9.846-2.916 15.715-5.645 3.99-14.436 12.62-19.85 11.963-.87-.105-3.31-.335-4.877-.647-.284-.057 1.74 5.747 1.67 6.047-.458 1.916-5.056 2.84-9.296.415-1.036-.593-2.438-8.942-3.58-9.21-6.077-1.432-11.424-2.764-11.424-2.764l-3.136-6.42s-2.962 3.252-7.656 1.128c-4.695-2.124-8.92-7.445-8.328-11.913.592-4.47 5.004-6.38 8.95-5.08l-1.318-11.07s13.3-11.66 20.037-12.66c6.73-.994 17.08 2.85 17.08 2.85l11.7-7.096 5.8 5.4z" clip-rule="evenodd" fill="#f7c4a3" fill-rule="evenodd" filter="url(#E)"/><path d="M510.89 416.74c2.464-4.637 8.835 2.62 9.612 5.325.13.45-.552.577-.747.216-.266-.49-.713-1.22-1.273-2-.124.37-.31.71-.52 1.03-.33.52-.913 1.31-1.59 1.23-.107-.01-.193-.14-.142-.24.24-.493.76-.794 1.102-1.24.228-.297.414-.624.57-.964.057-.127.11-.25.16-.38-1.875-2.45-4.684-5.033-6.59-2.64-.228.284-.766.02-.58-.33z" clip-rule="evenodd" fill="#d6825f" fill-rule="evenodd" filter="url(#F)"/><path d="M578.652 455.324L563.34 442.97l-12.03-.437s-1.69 4.502-10.083.088l-13.663 5.07-9.07 16.75 10.85 9.87 3.967-9.19s9.77 13.2 7.15 25.17c0 0 15.5 12.07 35.53-2.84l-4.54-22.976 7.21-9.142z" clip-rule="evenodd" fill="#a8bcda" fill-rule="evenodd" filter="url(#G)"/><path d="M550.37 439.026l-9.91-2.95s2.242 5.61 5.207 6.43c2.964.82 5.72-1.07 4.702-3.48z" clip-rule="evenodd" opacity=".4" fill="#d6825f" fill-rule="evenodd" filter="url(#H)"/><g transform="translate(96.61 -57.822)" filter="url(#I)"><path d="M458.613 459.57s-11.424-9.56-20.942-4.087c-9.51 5.47-11.78 7.09-14.85 5.336 0 0 10.386 21.6 23.86 19.61 11.95-1.764 13.84-7.988 13.84-7.988s7.63 5.117 12.87 2.366c7.84-4.12 7.205-16.903 8.663-24 0 0-3.803 3.82-7.534 1.87-3.734-1.956-10.744-4.845-15.898 6.885z" clip-rule="evenodd" fill="#009e8f" fill-rule="evenodd"/><path d="M436.25 467.902s-3.795-7.043-3.214-6.566c.58.477 4.18-3.96 10.83-4.63 6.65-.67 9.23 6.51 9.23 6.51-2.574-4.227-16.845 4.686-16.845 4.686zm28.774-8.33s1.693-4.635 6.054-4.203c4.36.43 6.72 3.29 7.1 2.98.38-.31-2.107 4.24-2.107 4.24s-9.35-5.757-11.04-3.027z" clip-rule="evenodd" fill="#342719" fill-rule="evenodd"/><circle cx="445.172" cy="467.096" r="8.822" fill="#fff"/><circle cx="441.561" cy="467.003" r="3.405" fill="#6f5848"/><ellipse transform="matrix(-.989 .146 -.146 -.989 1002.12 853.733)" cx="469.742" cy="463.628" rx="6.009" ry="6.915" fill="#fff"/><circle cx="467.072" cy="463.423" r="2.669" fill="#6f5848"/></g><path d="M511.47 417.066s-.466 2.54 2.985 5.156c3.452 2.615 7.378 2.473 5.34-1.64-2.034-4.11-7.522-6.452-8.324-3.516z" clip-rule="evenodd" opacity=".5" fill="#d6825f" fill-rule="evenodd" filter="url(#J)"/><path d="M561.87 448.203s6.145 7.26 7.728 9.06c1.583 1.8 6.388 30.18 6.388 30.18s-3.604-26.806-14.115-39.24z" clip-rule="evenodd" fill="#6e7dbc" fill-rule="evenodd" filter="url(#K)"/><path d="M570.53 423.97s-8.14-3.515-20.822.478c0 0-5.458 1.863-7.925.838-2.467-1.026 5.32 6.537 14.373 5.512 9.053-1.025 9.566-6.83 9.566-6.83h4.807z" clip-rule="evenodd" fill="#ea6666" fill-rule="evenodd" filter="url(#L)"/><g clip-rule="evenodd" fill-rule="evenodd" filter="url(#M)"><path d="M539.647 379.406s9.07-6.292 18.224-1.98c9.16 4.314 13.01 11.24 13.01 11.24s-8.272-4.275-17.5 1.695l-13.724-10.95z" fill="#f6881f"/><path d="M514.797 410.586s-5.018-9.92 0-20.385c5.018-10.46 22.668-15.98 30.725-10.79 8.057 5.2 7.853 10.96 7.853 10.96s-18.107-.97-25.69 3.646c-7.583 4.615-9.193 16.58-9.193 16.58h-3.695z" fill="#f49b1f"/></g><path d="M523.15 383.263s.517-2.588-6.037-7.346-16.56-7.66-26.045 0c-9.486 7.66-12.936 30.944.863 40.947 13.8 10.004 18.63 13.626 12.6 17.593 0 0 6.28-.86 6.33-6.015.054-5.155-8.572-14.892-7.02-22.634 1.55-7.743 7.068-8.77 12.07-9.637 5.007-.86 7.25-12.9 7.25-12.9z" clip-rule="evenodd" fill="#f49b1f" fill-rule="evenodd" filter="url(#N)"/><g clip-rule="evenodd" fill-rule="evenodd" filter="url(#O)"><path d="M518.882 388.465s-1.06-5.35.54-7.263c1.602-1.913 8.493-.807 8.654 3.632.162 4.44-7.72 5.526-7.72 5.526l-1.474-1.895zm-1.378.888c-.242.08-5.972-.645-7.586 2.502-1.614 3.147 5.325 9.36 7.586 5.73 2.26-3.633 1.385-5.81 1.378-6.134-.006-.32-1.378-2.09-1.378-2.09z" fill="#b32625"/><path fill="#9e1d20" d="M518.635 386.706l3.227 3.338-2.808 2.863-2.858-3.442zm.788 2.082s1.123-.612.934-2.082c-.19-1.47 1.364-4.958 3.523-2.68 2.905 3.067-2.906 4.16-3.874 5.308-.97 1.15-.583-.546-.583-.546zm.14 1.492s-1.628-.11-1.737 1.365c-.11 1.478-1.11 5.613-3.63 3.255-3.086-2.886 3.726-4.34 4.905-5.272 1.18-.932.47.65.47.65z"/></g><path d="M530.494 544.684s7.3 3.754 10 0c0 0 4.042 7.875 4.49 10.33.45 2.458-2.538 7.943-7.244 7.958-8.575.028-11.74-7.393-11.74-7.393l4.494-10.9zm32.386-3.774s9.903 2.098 10.55-1.99c0 0 10.588 2.875 13.66 8.648 0 0-17.954 5.178-27.257 2.07 0 0 .757-7.53 3.047-8.727z" clip-rule="evenodd" fill="#6e7dbc" fill-rule="evenodd" filter="url(#P)"/></svg>