<svg xmlns="http://www.w3.org/2000/svg" width="800" height="800" viewBox="0 0 800 800"><title>Tener contactos</title><defs><filter id="a" x="-1.037" width="3.074" y="-1.117" height="3.233" color-interpolation-filters="sRGB"><feGaussianBlur stdDeviation="307.525"/></filter></defs><rect width="711.864" height="661.017" x="57.627" y="54.237" rx="1.542" ry="1.143" fill="#efe2c2" fill-opacity="0" filter="url(#a)"/><g transform="translate(102.313 -28.285)"><path d="M403.792 571.075c2.09 3.82 2.873 17.545 2.422 22.253-.45 4.706-.054 6.503-4.092 6.668-4.036.165-5.98-.393-6.546-1.91-.565-1.518-8.526 1.296-12.2 1.366-7.465.142-26.92 1.69-29.273-6.143-1.044-3.48 5.297-6.73 10.72-7.718 9.234-1.68 19.45-4.672 21.943-12.79 1.2-3.91-1.676-7.214 1.19-5.06 2.864 2.152 5.052 6.014 9.137 4.734 4.086-1.28 5.47-3.05 6.7-1.403z" clip-rule="evenodd" fill="#572a1f" fill-rule="evenodd"/><path d="M408.722 275.41c.428 27.01-27.414 58.59-51.446 52.223-24.723-6.55-33.06-49.996-17.59-72.812 18.346-27.052 68.522-12.055 69.036 20.59zm-8 18.08l.394 30.62c.127 9.92-18.75 29.12-19.02 20.824l-1.67-51.246c-.44-13.42 20.124-13.622 20.297-.197z" clip-rule="evenodd" fill="#dba867" fill-rule="evenodd"/><path d="M404.49 285.972c-8.297 23.538-30.892 44.727-50.286 39.587-19.39-5.14-28.002-34.59-23.06-59.01 1.396-3.97 3.155-7.708 5.296-11.08 19.915-31.38 70.194-16.105 69.18 20.97-.087 3.13-.48 6.324-1.13 9.53z" clip-rule="evenodd" fill="#fbcd95" fill-rule="evenodd"/><path d="M339.268 313.078c2.92-1.016 5.836-3.028 8.296-5.695 2.39-2.592 4.344-5.796 5.446-9.302.146-.47.647-.73 1.12-.583.472.146.735.648.588 1.12-1.184 3.77-3.278 7.206-5.837 9.98-2.53 2.742-5.526 4.85-8.564 6.007-.36-.496-.707-1.004-1.046-1.524z" fill="#dba867"/><path d="M401.765 304.21c-17.72-4.58-26.798-19.342-38.46-42.146-6.39 9.686-27.075 17.058-40.096 9.56 6.24-4.62 8.84-12.133 13.48-19.38 17.02-26.605 68.396-18.72 73.162 20.045 1.126 9.16-2.018 20.094-8.09 31.92z" clip-rule="evenodd" fill="#5e351b" fill-rule="evenodd"/><g clip-rule="evenodd" fill-rule="evenodd"><ellipse transform="matrix(.455 -.891 .891 .455 -49.032 505.041)" cx="387.867" cy="292.557" rx="8.524" ry="5.315" fill="#dba867"/><ellipse transform="matrix(.455 -.891 .891 .455 -47.375 504.045)" cx="387.882" cy="290.706" rx="8.525" ry="5.316" fill="#fbcd95"/></g><ellipse transform="matrix(.256 -.967 .967 .256 -36.243 542.204)" cx="334.187" cy="294.651" rx="4.276" ry="4.057" clip-rule="evenodd" fill="#dba867" fill-rule="evenodd"/><path d="M333.74 286.887c3.206.85 5.124 4.114 4.282 7.29-.842 3.174-4.122 5.058-7.33 4.207-3.208-.847-5.126-4.11-4.285-7.286.842-3.174 4.125-5.06 7.332-4.21z" clip-rule="evenodd" fill="#fbcd95" fill-rule="evenodd"/><path d="M345.218 278.79c1.885.5 3.007 2.43 2.508 4.315-.5 1.883-2.43 3.005-4.316 2.506-1.882-.496-3.005-2.43-2.505-4.312.498-1.882 2.43-3.005 4.313-2.506z" clip-rule="evenodd" fill="#4e4e4e" fill-rule="evenodd"/><path d="M370 435.627l7.174 81.73 30.692 2.287 6.49-69.58c5.195-55.707-46.19-35.33-44.357-14.437zm44.15-41.64c.122 22.61 3.397 46.478 2.385 55.943-17.792 3.928-27.72 7.13-52.338-3.147 1.073-29.15 10.297-88.08 17.812-118.975 6.184.787 17.926-4.4 18.58-13.023 4.513 4.79 13.288 30.4 13.557 79.203z" clip-rule="evenodd" fill="#086799" fill-rule="evenodd"/><path d="M368.274 404.844c-2.307 14.015-3.692 27.996-4.077 41.94 24.618 10.275 34.546 7.075 52.338 3.146-12.107 1.168-40.083.197-47.678-5.237-1.758-6.46-.583-39.85-.583-39.85z" clip-rule="evenodd" fill="#045079" fill-rule="evenodd"/><g clip-rule="evenodd" fill-rule="evenodd"><path d="M318.67 428.697l10.867-2.692.006.02 1.237-.327c4.993-1.24 9.506-2.523 14.355-3.81l-2.964-11.172c-3.996 1.06-7.275 1.53-11.163 2.844l-.48.047c-.718-1.34-3.025-2.044-4.323-2.154l-11.287-1.058c-2.64-.226-3.018 3.816-.298 4.052l3.46.392c7.133 2.88-14.928 4.705-14.65 4.164-1.04-.023-1.897.827-1.91 1.866-.01 1.038.83 1.884 1.866 1.906l1.408-.02c-.324.384-.497.9-.436 1.436.117 1.03 1.055 1.767 2.086 1.66l1.197-.07c-.114.283-.16.596-.124.918.117 1.03 1.056 1.768 2.086 1.662l1.35-.082c-.006.21.026.417.094.626.327.984 1.397 1.51 2.384 1.196l4.797-1.316c.147-.017.296-.047.445-.09z" fill="#dba867"/><path d="M319.506 428.176l10.867-2.692.007.02 1.237-.327c4.993-1.238 9.506-2.524 14.356-3.81l-2.966-11.172c-3.998 1.06-7.276 1.53-11.165 2.844l-.48.044c-.718-1.338-3.025-2.044-4.323-2.154l-11.29-1.057c-2.64-.226-3.02 3.817-.298 4.052l3.46.393h-.002c7.136 2.883-14.925 4.707-14.65 4.166-1.037-.023-1.893.828-1.905 1.866-.012 1.037.83 1.883 1.865 1.906l1.41-.02c-.324.384-.5.9-.437 1.436.117 1.03 1.056 1.765 2.086 1.663l1.195-.072c-.115.28-.162.595-.125.918.117 1.034 1.057 1.767 2.087 1.665l1.345-.083c-.004.208.026.42.096.625.324.986 1.395 1.513 2.382 1.198l4.796-1.316c.15-.023.298-.05.448-.095z" fill="#fbcd95"/><path d="M374.737 394.926l-43.775 16.724 2.92 14.04 32.773-5.818c31.086-5.516 17.96-28.72 8.082-24.946z" fill="#086799"/><path d="M384.167 348.928l-16.252 53.38 16.682 7.55 17.583-37.544c16.016-34.192-14.33-35.483-18.013-23.386z" fill="#045079"/><path d="M382.837 350.855l-16.253 53.38 16.683 7.548 17.583-37.542c16.016-34.192-14.33-35.483-18.013-23.383z" fill="#086799"/><path d="M331.142 412.526l2.74 13.164 32.773-5.817c20.81-3.695 22.036-15.666 19.076-19.695-3.14 8.194-3.22 8.145-12.366 12.068-8.936 3.832-37.492 7.64-37.492 7.64l-4.727-7.36zm47.548-2.813l7.336-.882 14.824-34.59c1.287-3.004 2.42-5.67 3.158-8.15-.444.76-20.363 36.123-22.366 39.45-2.002 3.325-1.856 3.934-2.95 4.175z" fill="#045079"/><path d="M321.075 425.55c-1.53.174-8.91 1.946-9.665 2.42-.757.477 5.707-.39 9.665-2.42zm-2.375-2.795c-1.673.188-9.735 2.125-10.563 2.645-.826.517 6.237-.43 10.562-2.645zm-2.637-2.158c-1.682-.038-10.263 1.482-11.15 1.885-.892.404 6.566-.27 11.15-1.885z" fill="#dba867"/></g><path d="M377.26 513.846l3.534 66.038 24.935-.095 2.86-64.304c1.73-38.87-32.16-17.143-31.33-1.642z" clip-rule="evenodd" fill="#086799" fill-rule="evenodd"/><path clip-rule="evenodd" fill="#045079" fill-rule="evenodd" d="M386.764 575.39l-15.868-129.55 9.898 134.042 24.936-.095z"/><path d="M378.754 339.987c-1.17 2.16-2.47 12.837-2.47 18.83 0 5.988 8.13-15.542 6.684-19.728-1.448-4.19-1.448-4.19-4.214.895zm3.256-12.18c-3.322 2.78-4.742 8.463-2.98 12.98 1.76 4.516 9.944-4.474 2.98-12.98z" clip-rule="evenodd" fill="#f9be28" fill-rule="evenodd"/><path d="M382.01 327.808c3.95-.245 16.66-6.51 18.795-15.135.64.68 1.898 3.944 2.232 5.55-1.047 11.627-17.04 20.377-20.07 20.866-.84-3.858-.757-7.286-.958-11.284z" clip-rule="evenodd" fill="#fff" fill-rule="evenodd"/></g><g transform="translate(78.367 -26.108)"><path d="M206.352 571.075c-2.09 3.82-2.873 17.545-2.42 22.253.448 4.706.053 6.503 4.09 6.668 4.038.165 5.98-.393 6.547-1.91.563-1.518 8.524 1.296 12.2 1.366 7.462.142 26.92 1.69 29.27-6.143 1.045-3.48-5.296-6.73-10.72-7.718-9.233-1.68-17.57-2.467-20.065-10.585-1.2-3.91-.202-9.42-3.066-7.266-2.864 2.153-5.053 6.015-9.138 4.735-4.087-1.28-5.473-3.05-6.7-1.403z" clip-rule="evenodd" fill="#333" fill-rule="evenodd"/><path d="M193.58 277.076c-.426 27.01 27.414 58.592 51.446 52.226 24.724-6.552 33.062-49.998 17.59-72.814-18.346-27.056-68.52-12.06-69.036 20.588zm11.132 21.25l-.014 30.623c-.004 9.915 19.11 28.88 19.277 20.583l1.036-51.265c.275-13.424-20.29-13.37-20.296.056z" clip-rule="evenodd" fill="#dba867" fill-rule="evenodd"/><path d="M197.812 287.638c8.297 23.538 30.893 44.727 50.287 39.587 19.39-5.138 28-34.586 23.06-59.008-1.398-3.97-3.16-7.707-5.298-11.078-19.915-31.387-70.194-16.11-69.18 20.964.086 3.13.477 6.326 1.128 9.532z" clip-rule="evenodd" fill="#fbcd95" fill-rule="evenodd"/><path d="M263.034 314.745c-2.918-1.016-5.834-3.028-8.295-5.695-2.39-2.592-4.347-5.796-5.447-9.302-.148-.47-.65-.734-1.12-.588-.47.148-.735.65-.588 1.12 1.184 3.77 3.277 7.206 5.836 9.98 2.53 2.743 5.53 4.852 8.57 6.008.356-.496.703-1.004 1.04-1.523z" fill="#dba867"/><path d="M200.54 305.875c17.716-4.58 26.796-19.34 38.457-42.145 3.844 5.826 30.95 15.158 26.618-9.82-17.023-26.605-68.4-18.72-73.166 20.045-1.13 9.165 2.014 20.097 8.09 31.92z" clip-rule="evenodd" fill="#ae7b3a" fill-rule="evenodd"/><g clip-rule="evenodd" fill-rule="evenodd"><ellipse transform="matrix(-.455 -.891 .891 -.455 49.865 618.98)" cx="214.436" cy="294.224" rx="8.524" ry="5.314" fill="#dba867"/><ellipse transform="matrix(-.455 -.891 .891 -.455 51.463 616.257)" cx="214.421" cy="292.371" rx="8.524" ry="5.315" fill="#fbcd95"/></g><ellipse transform="matrix(-.256 -.967 .967 -.256 50.39 631.411)" cx="268.116" cy="296.319" rx="4.275" ry="4.057" clip-rule="evenodd" fill="#dba867" fill-rule="evenodd"/><ellipse transform="matrix(-.256 -.967 .967 -.256 54.755 630.746)" cx="270.087" cy="294.303" rx="5.948" ry="6.008" clip-rule="evenodd" fill="#fbcd95" fill-rule="evenodd"/><circle cx="257.988" cy="283.866" r="3.528" clip-rule="evenodd" fill="#4e4e4e" fill-rule="evenodd"/><g clip-rule="evenodd" fill-rule="evenodd"><path d="M308.16 423.796l-9.874-5.276-.01.02-1.12-.62c-4.535-2.426-8.596-4.78-12.982-7.215l5.615-10.105c3.614 2.01 6.675 3.27 10.123 5.496l.454.163c1.024-1.12 3.433-1.24 4.72-1.03l11.2 1.743c2.614.428 1.99 4.44-.706 4l-3.45-.468v.002c-7.622 1.044 13.317 8.224 13.184 7.632 1.012.23 1.633 1.266 1.39 2.274-.244 1.01-1.267 1.62-2.276 1.39l-1.36-.366c.22.455.26.995.07 1.502-.366.97-1.457 1.452-2.43 1.098l-1.143-.363c.04.303.01.62-.104.92-.365.972-1.456 1.455-2.43 1.1l-1.283-.408c-.048.2-.13.4-.247.58-.557.874-1.724 1.122-2.604.576l-4.328-2.453c-.14-.056-.277-.12-.412-.198z" fill="#dba867"/><path d="M307.48 423.087l-9.877-5.276-.01.02-1.12-.62c-4.537-2.425-8.597-4.78-12.982-7.216l5.62-10.104c3.615 2.01 6.676 3.27 10.125 5.495l.453.165c1.024-1.123 3.434-1.24 4.72-1.03l11.2 1.745c2.616.427 1.992 4.44-.704 4l-3.45-.47c-7.625 1.047 13.315 8.228 13.18 7.636 1.012.234 1.635 1.27 1.39 2.278-.243 1.007-1.263 1.62-2.275 1.39l-1.36-.366c.22.456.26.996.07 1.5-.367.97-1.457 1.455-2.43 1.1l-1.145-.363c.042.302.01.62-.104.922-.365.97-1.455 1.45-2.43 1.097l-1.283-.41c-.047.2-.13.397-.246.58-.557.873-1.724 1.12-2.604.575l-4.327-2.45c-.138-.056-.277-.12-.41-.198z" fill="#fbcd95"/></g><path d="M312.447 413.192c-.462.976-3.73 6.418-5.286 7.993-1.553 1.576 5.126-3.018 5.29-7.993zm10.687 7.77c-1.603-.81-10.896-4.343-11.94-4.36-1.04-.02 6.78 3.81 11.94 4.363z" clip-rule="evenodd" fill="#dba867" fill-rule="evenodd"/><path d="M258.825 382.25l41.602 21.576-4.493 13.618-29.98-9.878c-29.99-9.88-16.515-30.183-7.13-25.316zm-29.78-38.58l35.397 43.132-12.536 13.346-30.584-27.984c-27.856-25.494-.3-38.268 7.722-28.495z" clip-rule="evenodd" fill="#676767" fill-rule="evenodd"/><path d="M247.026 397.275c1.407.804 4.86-3.058 6.86-.978 9.304 9.67 40.73 15.154 40.73 15.154l5.53-6.773-4.213 12.77-31.043-9.9c-8.196-2.614-15.222-6.796-17.864-10.27zm8.514.067l-7.312 1.13-26.907-26.31c-2.335-2.286-4.4-4.317-6.03-6.33 4.016 3.05 38.624 31.8 40.25 31.51z" clip-rule="evenodd" fill="#4e4e4e" fill-rule="evenodd"/><path d="M240.145 435.627l-7.176 81.73-30.694 2.287-6.49-69.58c-5.195-55.707 46.19-35.33 44.357-14.437zm-44.15-41.64c-.123 22.61-3.397 46.478-2.385 55.943 17.79 3.928 27.72 7.13 52.337-3.147-1.072-29.15-10.297-88.08-17.81-118.975-6.187.787-19.653.1-24.48-6.28-2.755 6.716-7.393 23.658-7.66 72.46z" clip-rule="evenodd" fill="#676767" fill-rule="evenodd"/><path d="M226.91 351.426l-3.49 57.53 7.84 36.87-6.42 2.84-25.294-41.022-.792-42.87c-.696-37.753 28.92-25.97 28.156-13.348zm14.96 53.418c2.307 14.015 3.692 27.996 4.076 41.94-24.617 10.275-34.546 7.075-52.337 3.146 12.104 1.168 40.08.197 47.674-5.237 1.76-6.46.585-39.85.585-39.85z" clip-rule="evenodd" fill="#4e4e4e" fill-rule="evenodd"/><g clip-rule="evenodd" fill-rule="evenodd"><path d="M232.61 461.722l-3.295-11.65.023-.007-.397-1.325c-1.46-5.16-3.076-10.236-4.622-15.378l-11.968 3.6c6.005 19.974 7.65 18.36 9.654 22.588l.023 7.553.316 4.916-1.17 2.03c-.573.964-.223 2.223.75 2.782.218.125.447.205.68.243l.076 1.456c.01 1.124.96 2.02 2.08 1.996 1.125-.025 2.008-.963 1.997-2.084l-.08-1.66c.39-.265.69-.663.828-1.148l2.368-6.196 2.513-4.83-.107.04c.45-.938.646-1.93.33-2.93z" fill="#dba867"/><path d="M231.83 460.973l-3.293-11.65.023-.005-.4-1.325c-1.513-5.352-3.062-10.185-4.624-15.38l-11.966 3.602c6.006 19.972 9.608 23.322 9.883 24.056l-.206 6.09.317 4.913-1.17 2.035c-.573.965-.222 2.224.75 2.783.217.126.447.206.68.24l.076 1.46c.01 1.12.96 2.017 2.082 1.993 1.12-.025 2.005-.963 1.994-2.084l-.08-1.66c.39-.265.69-.664.83-1.15l2.366-6.193 2.515-4.83-.108.037c.45-.934.646-1.927.33-2.927z" fill="#fbcd95"/></g><path d="M218.252 400.912l10.888 46.358-14.72 4.863-12.294-33.822c-11.66-32.08 13.512-28.524 16.126-17.396zm7.028-47.592l-7.462 55.3-18.31-.087-.346-41.455c-.314-37.757 27.81-26.29 26.12-13.757z" clip-rule="evenodd" fill="#676767" fill-rule="evenodd"/><path d="M199.476 407.508c2.986-5.824 3.168-2.68 5.747 2.73 5.738 12.043 13.555 36.893 13.555 36.893l9.443.445-13.8 4.56-14.942-44.625zm5.054 1.05l-5.036-.882-.332-40.598c-.027-3.27.164-6.164.524-8.727.088.88 3.464 41.325 3.898 45.184.436 3.856.05 4.35.946 5.026z" clip-rule="evenodd" fill="#4e4e4e" fill-rule="evenodd"/><path d="M232.884 513.846l-3.535 66.038-24.938-.095-2.86-64.304c-1.73-38.87 32.16-17.143 31.33-1.642z" clip-rule="evenodd" fill="#676767" fill-rule="evenodd"/><path d="M231.39 339.987c1.168 2.16 2.47 12.837 2.47 18.83 0 5.988-8.13-15.542-6.684-19.728 1.448-4.19 1.448-4.19 4.214.895zm-3.255-12.18c3.32 2.78 4.74 8.463 2.98 12.98-1.763 4.516-9.945-4.474-2.98-12.98z" clip-rule="evenodd" fill="#f68f71" fill-rule="evenodd"/><path d="M228.135 327.808c-3.95-.245-19.4-.82-24.227-7.2-.642.682-.807 1.83-1.105 3.436 1.045 11.628 21.345 14.555 24.374 15.044.842-3.854.758-7.282.958-11.28z" clip-rule="evenodd" fill="#fff" fill-rule="evenodd"/><path clip-rule="evenodd" fill="#4e4e4e" fill-rule="evenodd" d="M223.38 575.39l15.868-129.548-9.9 134.042-24.934-.095z"/><path d="M320.98 422.624c-1.56-.89-9.733-4.31-10.773-4.383-1.04-.07 5.646 3.57 10.773 4.386zm-3.64 1.602c-1.337-.764-8.338-3.69-9.23-3.756-.89-.062 4.838 3.055 9.23 3.756z" clip-rule="evenodd" fill="#dba867" fill-rule="evenodd"/></g></svg>