<svg xmlns="http://www.w3.org/2000/svg" width="800" height="800" viewBox="0 0 800 800"><title>Escuchar historias</title><defs><filter id="a" x="-1.037" width="3.074" y="-1.117" height="3.233" color-interpolation-filters="sRGB"><feGaussianBlur stdDeviation="307.525"/></filter><clipPath><path d="M483.41 554.55l-135.95 1.346-.657-66.415 135.95-1.34z"/></clipPath><clipPath><path d="M290.907 557.09l-135.952 1.345-.658-66.413 135.953-1.346z"/></clipPath><radialGradient cx="286.342" cy="1010.726" r="8.723" gradientTransform="matrix(-2.333 -.031 .008 -.417 957.597 665.313)" gradientUnits="userSpaceOnUse"><stop offset="0" stop-color="#D7D6D5"/><stop offset=".095" stop-color="#CCCBCA"/><stop offset=".231" stop-color="#B5B3B3"/><stop offset=".393" stop-color="#939191"/><stop offset=".575" stop-color="#696767"/><stop offset=".773" stop-color="#3E3C3C"/><stop offset=".982" stop-color="#060606"/><stop offset=".994" stop-color="#010101"/></radialGradient><radialGradient cx="288.603" cy="929.008" r="13.677" gradientTransform="matrix(-2.059 -.023 .009 -.383 883.659 596.01)" gradientUnits="userSpaceOnUse"><stop offset="0" stop-color="#fff"/><stop offset=".859" stop-color="#fff"/><stop offset="1" stop-color="#fff"/></radialGradient><clipPath><path d="M143.348 496s2.305 8.896 0 23.717c-2.305 14.82-5.856 44.96 1.025 67.027 0 0 25.49 1.236 38.994-4.034 13.504-5.27 27.667-4.65 41.83.948 14.163 5.6 42.027 6.565 51.233 1.626 11.346-6.088 29.956-6.268 45.107.65 15.15 6.916 47.003 4.918 57.64-1.324 15.15-8.89 32.442-4.942 39.03-1.65 11.105 5.554 21.742 7 41.005 5.598 0 0-2.965-15.154-3.294-29.317-.33-14.16 4.94-39.24.988-63.24H143.348z"/></clipPath><clipPath><path d="M364.25 300.93c-23.78-17.457-97.887-17.457-121.67 0-25.19 18.49-35.006 56.7-5.033 87.66 0 0-24.334 44.486 8.932 74.788C264 479.34 279 481.808 303 481.84v.002c24-.034 39.658-2.48 57.183-18.444 33.266-30.302 8.997-74.808 8.997-74.808 29.973-30.96 20.26-69.17-4.93-87.66z"/></clipPath><clipPath><path d="M364.25 300.93c-23.78-17.457-97.887-17.457-121.67 0-25.19 18.49-35.006 56.7-5.033 87.66 0 0-24.334 44.486 8.932 74.788C264 479.34 279 481.808 303 481.84v.002c24-.034 39.658-2.48 57.183-18.444 33.266-30.302 8.997-74.808 8.997-74.808 29.973-30.96 20.26-69.17-4.93-87.66z"/></clipPath><clipPath><path d="M364.25 300.93c-23.78-17.457-97.887-17.457-121.67 0-25.19 18.49-35.006 56.7-5.033 87.66 0 0-24.334 44.486 8.932 74.788C264 479.34 279 481.808 303 481.84v.002c24-.034 39.658-2.48 57.183-18.444 33.266-30.302 8.997-74.808 8.997-74.808 29.973-30.96 20.26-69.17-4.93-87.66z"/></clipPath><clipPath><path d="M364.25 300.93c-23.78-17.457-97.887-17.457-121.67 0-25.19 18.49-35.006 56.7-5.033 87.66 0 0-24.334 44.486 8.932 74.788C264 479.34 279 481.808 303 481.84v.002c24-.034 39.658-2.48 57.183-18.444 33.266-30.302 8.997-74.808 8.997-74.808 29.973-30.96 20.26-69.17-4.93-87.66z"/></clipPath><clipPath><path d="M364.25 300.93c-23.78-17.457-97.887-17.457-121.67 0-25.19 18.49-35.006 56.7-5.033 87.66 0 0-24.334 44.486 8.932 74.788C264 479.34 279 481.808 303 481.84v.002c24-.034 39.658-2.48 57.183-18.444 33.266-30.302 8.997-74.808 8.997-74.808 29.973-30.96 20.26-69.17-4.93-87.66z"/></clipPath><clipPath><path d="M364.25 300.93c-23.78-17.457-97.887-17.457-121.67 0-25.19 18.49-35.006 56.7-5.033 87.66 0 0-24.334 44.486 8.932 74.788C264 479.34 279 481.808 303 481.84v.002c24-.034 39.658-2.48 57.183-18.444 33.266-30.302 8.997-74.808 8.997-74.808 29.973-30.96 20.26-69.17-4.93-87.66z"/></clipPath><clipPath><path d="M364.25 300.93c-23.78-17.457-97.887-17.457-121.67 0-25.19 18.49-35.006 56.7-5.033 87.66 0 0-24.334 44.486 8.932 74.788C264 479.34 279 481.808 303 481.84v.002c24-.034 39.658-2.48 57.183-18.444 33.266-30.302 8.997-74.808 8.997-74.808 29.973-30.96 20.26-69.17-4.93-87.66z"/></clipPath><clipPath><path d="M364.25 300.93c-23.78-17.457-97.887-17.457-121.67 0-25.19 18.49-35.006 56.7-5.033 87.66 0 0-24.334 44.486 8.932 74.788C264 479.34 279 481.808 303 481.84v.002c24-.034 39.658-2.48 57.183-18.444 33.266-30.302 8.997-74.808 8.997-74.808 29.973-30.96 20.26-69.17-4.93-87.66z"/></clipPath><clipPath><path d="M364.25 300.93c-23.78-17.457-97.887-17.457-121.67 0-25.19 18.49-35.006 56.7-5.033 87.66 0 0-24.334 44.486 8.932 74.788C264 479.34 279 481.808 303 481.84v.002c24-.034 39.658-2.48 57.183-18.444 33.266-30.302 8.997-74.808 8.997-74.808 29.973-30.96 20.26-69.17-4.93-87.66z"/></clipPath><clipPath><path d="M364.25 300.93c-23.78-17.457-97.887-17.457-121.67 0-25.19 18.49-35.006 56.7-5.033 87.66 0 0-24.334 44.486 8.932 74.788C264 479.34 279 481.808 303 481.84v.002c24-.034 39.658-2.48 57.183-18.444 33.266-30.302 8.997-74.808 8.997-74.808 29.973-30.96 20.26-69.17-4.93-87.66z"/></clipPath><clipPath><path d="M364.25 300.93c-23.78-17.457-97.887-17.457-121.67 0-25.19 18.49-35.006 56.7-5.033 87.66 0 0-24.334 44.486 8.932 74.788C264 479.34 279 481.808 303 481.84v.002c24-.034 39.658-2.48 57.183-18.444 33.266-30.302 8.997-74.808 8.997-74.808 29.973-30.96 20.26-69.17-4.93-87.66z"/></clipPath><clipPath><path d="M364.25 300.93c-23.78-17.457-97.887-17.457-121.67 0-25.19 18.49-35.006 56.7-5.033 87.66 0 0-24.334 44.486 8.932 74.788C264 479.34 279 481.808 303 481.84v.002c24-.034 39.658-2.48 57.183-18.444 33.266-30.302 8.997-74.808 8.997-74.808 29.973-30.96 20.26-69.17-4.93-87.66z"/></clipPath><clipPath><path d="M364.25 300.93c-23.78-17.457-97.887-17.457-121.67 0-25.19 18.49-35.006 56.7-5.033 87.66 0 0-24.334 44.486 8.932 74.788C264 479.34 279 481.808 303 481.84v.002c24-.034 39.658-2.48 57.183-18.444 33.266-30.302 8.997-74.808 8.997-74.808 29.973-30.96 20.26-69.17-4.93-87.66z"/></clipPath><clipPath><path d="M364.25 300.93c-23.78-17.457-97.887-17.457-121.67 0-25.19 18.49-35.006 56.7-5.033 87.66 0 0-24.334 44.486 8.932 74.788C264 479.34 279 481.808 303 481.84v.002c24-.034 39.658-2.48 57.183-18.444 33.266-30.302 8.997-74.808 8.997-74.808 29.973-30.96 20.26-69.17-4.93-87.66z"/></clipPath><clipPath><path d="M364.25 300.93c-23.78-17.457-97.887-17.457-121.67 0-25.19 18.49-35.006 56.7-5.033 87.66 0 0-24.334 44.486 8.932 74.788C264 479.34 279 481.808 303 481.84v.002c24-.034 39.658-2.48 57.183-18.444 33.266-30.302 8.997-74.808 8.997-74.808 29.973-30.96 20.26-69.17-4.93-87.66z"/></clipPath><clipPath><path d="M364.25 300.93c-23.78-17.457-97.887-17.457-121.67 0-25.19 18.49-35.006 56.7-5.033 87.66 0 0-24.334 44.486 8.932 74.788C264 479.34 279 481.808 303 481.84v.002c24-.034 39.658-2.48 57.183-18.444 33.266-30.302 8.997-74.808 8.997-74.808 29.973-30.96 20.26-69.17-4.93-87.66z"/></clipPath><clipPath><path d="M364.25 300.93c-23.78-17.457-97.887-17.457-121.67 0-25.19 18.49-35.006 56.7-5.033 87.66 0 0-24.334 44.486 8.932 74.788C264 479.34 279 481.808 303 481.84v.002c24-.034 39.658-2.48 57.183-18.444 33.266-30.302 8.997-74.808 8.997-74.808 29.973-30.96 20.26-69.17-4.93-87.66z"/></clipPath><clipPath><path d="M144.658 369.334c-.213-.266 15.51-.972 15.51-.972s-6.363 12.353-15.51.972z"/></clipPath><clipPath><path d="M263.16 409.113c0-7.137-5.57-12.923-12.44-12.923-6.87 0-12.44 5.786-12.44 12.923 0 3.35 1.23 6.404 3.243 8.7 0 0 5.354 7.06 5.658 10.738h7.09c.305-3.67 5.66-10.73 5.66-10.73 2.01-2.294 3.24-5.35 3.24-8.7z"/></clipPath><clipPath><path d="M345.41 379.523l-1.435-.186c-.068-.804-.262-1.576-.562-2.294l1.192-.963c.128-.103.15-.297.052-.43l-1.662-2.22c-.1-.133-.286-.157-.413-.054l-1.142.923c-.58-.51-1.236-.92-1.957-1.22l.187-1.557c.02-.167-.095-.32-.256-.34l-2.686-.35c-.16-.02-.31.1-.33.265l-.178 1.49c-.773.072-1.517.273-2.208.585l-.927-1.236c-.1-.133-.285-.157-.413-.054l-2.136 1.726c-.128.102-.15.296-.052.43l.89 1.186c-.486.6-.883 1.284-1.167 2.034l-1.496-.194c-.16-.02-.3.1-.32.27l-.335 2.79c-.02.164.095.32.256.34l1.435.185c.068.805.26 1.577.56 2.295l-1.19.96c-.13.104-.15.298-.053.43l1.664 2.22c.1.134.285.158.412.055l1.145-.924c.58.503 1.236.916 1.957 1.21l-.19 1.556c-.02.17.097.32.258.344l2.686.35c.16.02.31-.1.33-.27l.18-1.49c.774-.07 1.52-.27 2.21-.583l.926 1.24c.1.133.286.157.413.054l2.134-1.724c.13-.105.15-.3.053-.43l-.89-1.19c.485-.6.882-1.282 1.167-2.032l1.496.194c.16.024.31-.096.33-.263l.335-2.79c.02-.167-.096-.32-.257-.342zm-8.893 3.285c-1.494-.194-2.554-1.61-2.367-3.162.187-1.552 1.55-2.653 3.043-2.46 1.494.195 2.554 1.61 2.367 3.163-.187 1.55-1.55 2.65-3.043 2.45z"/></clipPath><linearGradient gradientUnits="userSpaceOnUse" x1="340.484" y1="493.008" x2="293.65" y2="418.346"><stop offset="0" stop-color="#fff" stop-opacity="0"/><stop offset="1" stop-color="#002D3F"/></linearGradient><linearGradient gradientUnits="userSpaceOnUse" x1="155.502" y1="472.692" x2="141.33" y2="447.749"><stop offset="0" stop-color="#fff" stop-opacity="0"/><stop offset="1" stop-color="#002D3F"/></linearGradient><linearGradient gradientUnits="userSpaceOnUse" x1="306.121" y1="568.75" x2="292.813" y2="545.327"><stop offset="0" stop-color="#fff" stop-opacity="0"/><stop offset="1" stop-color="#002D3F"/></linearGradient><linearGradient gradientUnits="userSpaceOnUse" x1="485.452" y1="539.392" x2="459.88" y2="486.219"><stop offset="0" stop-color="#fff" stop-opacity="0"/><stop offset="1" stop-color="#002D3F"/></linearGradient><linearGradient gradientUnits="userSpaceOnUse" x1="403.59" y1="610.142" x2="385.936" y2="573.431"><stop offset="0" stop-color="#fff" stop-opacity="0"/><stop offset="1" stop-color="#002D3F"/></linearGradient><linearGradient gradientUnits="userSpaceOnUse" x1="242.337" y1="592.741" x2="229.488" y2="569.688"><stop offset="0" stop-color="#fff" stop-opacity="0"/><stop offset="1" stop-color="#002D3F"/></linearGradient><linearGradient gradientUnits="userSpaceOnUse" x1="173.55" y1="573.1" x2="151.867" y2="528.012"><stop offset="0" stop-color="#fff" stop-opacity="0"/><stop offset="1" stop-color="#002D3F"/></linearGradient><linearGradient gradientUnits="userSpaceOnUse" x1="151.699" y1="398.772" x2="141.495" y2="374.586"><stop offset="0" stop-color="#fff" stop-opacity="0"/><stop offset="1" stop-color="#002D3F"/></linearGradient><linearGradient gradientUnits="userSpaceOnUse" x1="163.873" y1="331.586" x2="154.32" y2="314.469"><stop offset="0" stop-color="#fff" stop-opacity="0"/><stop offset="1" stop-color="#002D3F"/></linearGradient><linearGradient gradientUnits="userSpaceOnUse" x1="448.18" y1="362.812" x2="439.11" y2="330.5"><stop offset="0" stop-color="#fff" stop-opacity="0"/><stop offset="1" stop-color="#002D3F"/></linearGradient><linearGradient gradientUnits="userSpaceOnUse" x1="480.342" y1="435.964" x2="452.565" y2="376.441"><stop offset="0" stop-color="#fff" stop-opacity="0"/><stop offset="1" stop-color="#002D3F"/></linearGradient><linearGradient gradientUnits="userSpaceOnUse" x1="253.297" y1="337.978" x2="250.862" y2="305.71"><stop offset="0" stop-color="#fff" stop-opacity="0"/><stop offset="1" stop-color="#002D3F"/></linearGradient><linearGradient gradientUnits="userSpaceOnUse" x1="379.649" y1="321.783" x2="367.714" y2="285.409"><stop offset="0" stop-color="#fff" stop-opacity="0"/><stop offset="1" stop-color="#002D3F"/></linearGradient></defs><rect width="711.864" height="661.017" x="57.627" y="54.237" rx="1.542" ry="1.143" fill="#efe2c2" fill-opacity="0" filter="url(#a)"/><path d="M283.785 221.817H243.96v69.903h5.585V263.6h34.24v28.12h5.586v-69.903h-5.58zm0 35.036h-34.24v-9.693h34.24v9.693z" fill="#d9a77f"/><g transform="translate(88.475 -58.839)"><path d="M196.88 268.456h-37.108c-3.285 0-5.947 2.663-5.947 5.947 0 3.284 2.663 5.946 5.947 5.946h2.547v15.85h32.01v-15.85h2.54c3.284 0 5.947-2.666 5.947-5.95 0-3.284-2.663-5.947-5.947-5.947zm-34.56 32.23h32.013v21.646H162.32z" fill="#6d868a"/><path opacity=".61" fill="#6d868a" d="M162.32 300.686h32.013v21.646H162.32z"/><path fill="#d9a77f" d="M218.288 302.088v48.472h6.66v-48.472h5.788v-7.77h-104.82v7.77h5.787v48.472h6.66v-48.472z"/><path d="M176.512 346.2v-31.915c0-3.92-3.178-7.1-7.1-7.1-3.92 0-7.098 3.18-7.098 7.1V346.2h14.198zm17.818 0v-31.915c0-3.92-3.18-7.1-7.1-7.1-3.92 0-7.1 3.18-7.1 7.1V346.2h14.2z" fill="#6a72ac"/><path d="M196.138 350.56c0-4.992-4.047-9.04-9.04-9.04-4.99 0-9.038 4.048-9.038 9.04h18.078zm-17.816 0c0-4.992-4.047-9.04-9.04-9.04-4.99 0-9.038 4.048-9.038 9.04h18.078z" fill="#3d2e1f"/><path d="M192.598 251.567c0-7.882-6.39-14.272-14.272-14.272-7.882 0-14.272 6.39-14.272 14.272 0 6.722 4.65 12.355 10.906 13.87v2.803c-.007.084-.013.168-.013.253 0 1.866 1.513 3.38 3.38 3.38 1.866 0 3.38-1.513 3.38-3.38 0-.086-.008-.17-.014-.253v-2.804c6.256-1.514 10.905-7.148 10.905-13.87z" fill="#fdc99b"/><path d="M147.382 261.83c-1.178-2.567-.05-5.602 2.516-6.78 2.567-1.178 5.603-.05 6.78 2.517l6.91 15.063c1.176 2.567.05 5.603-2.518 6.78-2.567 1.178-5.603.052-6.78-2.516l-6.908-15.063zm45.41 13.873c-1.177-2.568-.05-5.603 2.518-6.78 2.567-1.178 5.603-.05 6.78 2.517l6.91 15.063c1.177 2.568.05 5.603-2.517 6.78-2.568 1.178-5.603.05-6.78-2.516l-6.91-15.064zm-4.99 18.615c-2.824.012-5.123-2.267-5.136-5.09-.013-2.826 2.267-5.125 5.09-5.138l16.572-.074c2.825-.013 5.125 2.267 5.137 5.09.013 2.826-2.267 5.125-5.092 5.138l-16.57.074zm-38.27-52.756c.468-2.786 3.106-4.664 5.89-4.196 2.787.468 4.665 3.106 4.197 5.892l-2.75 16.342c-.47 2.786-3.11 4.664-5.9 4.196-2.785-.47-4.664-3.106-4.195-5.89l2.747-16.344z" fill="#6d868a"/><circle cx="155" cy="240.436" r="5.462" fill="#fdc99b"/><path d="M154.383 237.547c0 .63-.51 1.143-1.143 1.143-.63 0-1.143-.51-1.143-1.143v-6.754c0-.632.512-1.143 1.143-1.143.632 0 1.143.512 1.143 1.143v6.754z" fill="#fdc99b"/><path d="M187.405 244.44c.083.496-.253.967-.75 1.05l-4.564.757c-.49.083-.96-.253-1.05-.75-.08-.498.26-.968.75-1.05l4.57-.76c.5-.082.97.254 1.05.752zm-14.085 2.34c.082.497-.254.967-.752 1.05l-4.562.758c-.498.083-.968-.253-1.05-.75-.083-.498.253-.97.75-1.05l4.562-.76c.498-.082.97.255 1.05.752z" fill="#fbac44"/><circle cx="184.824" cy="248.582" r="1.546"/><circle cx="170.738" cy="250.923" r="1.546"/><path d="M179.25 260.882c-1.64.273-3.194-.84-3.467-2.478-.043-.26.132-.504.39-.547.26-.043.505.132.548.39.19 1.122 1.25 1.883 2.38 1.697 1.12-.186 1.88-1.25 1.698-2.372-.044-.26.13-.504.39-.547.26-.043.505.132.548.39.275 1.64-.837 3.194-2.476 3.467z" fill="#ed1a3b"/><path d="M179.152 254.732c.082.497-.254.967-.75 1.05-.498.082-.967-.254-1.05-.75l-.656-3.95c-.083-.498.253-.967.75-1.05.497-.083.967.253 1.05.75l.656 3.95z" fill="#f4a78e"/><path d="M175.723 238.497c.15 1.657-2.395 2.865-3.44 3.954-1.012 1.06-2.932 1.35-4.386 2.72-.78.74-1.16 1.61-1.535 2.58-.558 1.43-1.148 2.898-1.366 4.426-.26 1.828.507 4.378.612 6.227-2.166-2.746-3.91-6.624-4.12-10.18-.177-3.014.405-5.865 2.564-8.6.93-1.177 2.536-2.58 3.787-3.33.97-.59 1.92-.93 2.83-1.482-.41-.275-1.11-.235-1.45-.546 1.29-.673 3.14-.777 4.47-.265.544-1.144 3.36-2.12 4.503-2.45-.237.77-1.423 1.35-1.828 2.12 2.266.16 4.744-.517 6.903.245 1.994.705 4.362 2.03 5.97 3.39 1.225 1.037 2.577 2.667 3.195 4.195.552 1.366.9 2.62 1.164 4.062.356 1.932-.467 4.814-1.018 6.618-.02-3.432-1.276-7.88-4.1-10.056-1.727-1.334-2.994-2.058-5.14-2.25-1.677-.156-3.425-.24-5.06-.485-.767-.116-2.027-.257-2.57-.885z" fill="#fbac44"/><circle cx="192.163" cy="248.601" r="2.341" fill="#fdc99b"/><circle cx="165.205" cy="256.629" r="2.341" fill="#fdc99b"/><circle cx="184.223" cy="289.166" r="5.462" fill="#fdc99b"/></g><g transform="translate(88.475 -58.839)"><circle cx="299.943" cy="246.104" r="15.63" fill="#9c3834"/><path d="M318.497 268.456H281.39c-3.285 0-5.947 2.663-5.947 5.947 0 3.284 2.663 5.946 5.946 5.946h2.54v15.85h32.012v-15.85h2.546c3.285 0 5.947-2.666 5.947-5.95 0-3.284-2.663-5.947-5.947-5.947z" fill="#f26c62"/><path fill="#6d868a" d="M283.936 300.686h32.015v21.646h-32.01z"/><path d="M298.13 346.2v-31.915c0-3.92-3.18-7.1-7.1-7.1-3.92 0-7.098 3.18-7.098 7.1V346.2h14.198zm17.816 0v-31.915c0-3.92-3.178-7.1-7.1-7.1-3.92 0-7.098 3.18-7.098 7.1V346.2h14.198z" fill="#fdc99b"/><path d="M317.756 350.56c0-4.992-4.047-9.04-9.04-9.04-4.992 0-9.038 4.048-9.038 9.04h18.078zm-17.816 0c0-4.992-4.048-9.04-9.04-9.04-4.992 0-9.04 4.048-9.04 9.04h18.08z" fill="#9c3834"/><path d="M314.215 251.567c0-7.882-6.39-14.272-14.272-14.272-7.882 0-14.272 6.39-14.272 14.272 0 6.722 4.65 12.355 10.91 13.87v2.803c0 .084-.01.168-.01.253 0 1.866 1.515 3.38 3.38 3.38s3.38-1.513 3.38-3.38c0-.086-.01-.17-.012-.253v-2.804c6.258-1.514 10.906-7.148 10.906-13.87z" fill="#fdc99b"/><path d="M277.013 291.11c-1.367 2.47-4.478 3.367-6.95 2-2.472-1.367-3.368-4.48-2-6.95l8.018-14.502c1.37-2.472 4.48-3.368 6.95-2 2.48 1.365 3.37 4.478 2.01 6.95l-8.02 14.5zm37.397-15.407c-1.176-2.568-.05-5.603 2.517-6.78 2.568-1.178 5.604-.05 6.78 2.517l6.91 15.063c1.176 2.568.05 5.603-2.518 6.78-2.57 1.178-5.61.05-6.79-2.516l-6.908-15.064zm-4.99 18.615c-2.825.012-5.124-2.267-5.137-5.09-.013-2.826 2.266-5.125 5.09-5.138l16.572-.074c2.825-.013 5.125 2.267 5.137 5.09.012 2.826-2.267 5.125-5.092 5.138l-16.57.074zm-36.86 0c-2.826.012-5.125-2.267-5.138-5.09-.013-2.826 2.266-5.125 5.09-5.138l16.573-.074c2.825-.013 5.125 2.267 5.137 5.09.012 2.826-2.267 5.125-5.092 5.138l-16.57.074z" fill="#f26c62"/><path d="M309.13 285.708c0 .63-.51 1.143-1.142 1.143-.63 0-1.143-.51-1.143-1.14v-6.75c0-.63.512-1.14 1.143-1.14.63 0 1.143.513 1.143 1.144v6.754zm1.576-34.76c-.148.482-.657.754-1.14.607l-4.424-1.348c-.48-.147-.754-.657-.607-1.14.147-.48.657-.753 1.14-.607l4.424 1.35c.48.146.75.656.6 1.138zm-14.216-1.63c.108.492-.2.98-.693 1.09l-4.514 1.007c-.492.11-.98-.2-1.09-.693-.11-.49.2-.98.692-1.09l4.514-1.006c.49-.11.98.2 1.09.692z" fill="#9c3834"/><circle cx="307.623" cy="253.672" r="1.547"/><circle cx="293.344" cy="253.684" r="1.546"/><path d="M301.024 256.628c0 .504-.408.912-.91.913-.505 0-.913-.4-.913-.91v-4c0-.5.41-.91.91-.91.51 0 .92.41.92.91v4.007z" fill="#f4a78e"/><path d="M315.95 323.69v-10.41c0-8.84-7.167-16.005-16.006-16.005-8.84 0-16.005 7.166-16.005 16.005v10.413h32.01z" fill="#6d868a"/><path fill="#d9a77f" d="M339.905 302.088v48.472h6.66v-48.472h5.788v-7.77h-104.82v7.77h5.787v48.472h6.66v-48.472z"/><circle cx="307.988" cy="289.167" r="5.463" fill="#fdc99b"/><circle cx="292.355" cy="289.167" r="5.463" fill="#fdc99b"/><path d="M302.702 262.168h-5.518c-.337 0-.61-.273-.61-.61 0-.337.273-.61.61-.61h5.518c.337 0 .61.273.61.61 0 .337-.273.61-.61.61z" fill="#ed1a3b"/><path d="M297.808 231.672c-.89-.673.533-2.552 1.123-3.162 1.14-1.172 2.4-2.174 4.06-2.227 2.85-.09 5.37 2.19 6.9 4.37 1.43 2.037 3.365 4.426 5.8 5.213 1.01.326 2.41.632 3.48.483 1.1-.16 1.93-.85 2.93-1.21-.185 5.66-6.883 9.21-11.423 5.89-1.25-.92-2.296-2.03-3.804-2.57-1.26-.46-2.155-.62-3.237-1.4-.703-.51-3.022-2.31-3.682-2.14l-2.136-3.257zm-12.568 19.073c1.597-1.05 3.736-1.993 5.4-2.957 1.913-1.11 4.5-2.686 6.355-3.915 1.805-1.195 5.542-3.508 7.4-5.867.59.725 3.65 3.736 4.52 4.85.722.924 1.853 2.73 2.524 3.66.56.784 2.06 3.773 2.96 3.833.28-1.06.18-2.51.18-3.63 0-1.608-.13-3.677-.6-5.194-1.4-4.46-4.6-7.86-9.47-8.468-3.7-.46-7.447.54-10.79 2.1-1.488.692-2.917 1.217-4.19 2.28-.494.41-2.285 3.3-1.796 3.172l-2.5 10.124z" fill="#9c3834"/><circle cx="313.998" cy="252.126" r="2.342" fill="#fdc99b"/><circle cx="285.888" cy="252.125" r="2.341" fill="#fdc99b"/><path d="M273.074 230.022c.88-.187 1.596.138 2.148.973.424.395.7.88.82 1.46.226 1.06-.716 2.553-2.825 4.483l-.066.167.91 3.076.08.14c.06.6-.13.95-.59 1.05-.46.1-1.12-1.325-1.98-4.275-.064-.87.17-1.364.71-1.48.62-.284 1.38-1.04 2.275-2.27.07-.313.09-.54.06-.678l-.01-.05c-.152-.714-.54-1.01-1.157-.875l-.39.083c-.482.102-1.07.773-1.77 2.01l-.506.262c-.285.06-.49-.1-.613-.484-.13-.602.332-1.55 1.385-2.85.53-.383 1.04-.63 1.53-.732zm2.07 16.454l.148-.03c.4-.086.817.2 1.255.855-.098.71-.338 1.1-.72 1.18l-.284.11c-.448.1-.795-.25-1.042-1.05-.04-.602.18-.954.65-1.055z" fill="#3d2e1f"/></g><g transform="translate(88.475 -58.839)"><path d="M438.797 280.656H398.97v69.902h5.587v-28.12h34.24v28.12h5.586v-69.905h-5.586zm0 35.036h-34.24V306h34.24v9.692z" fill="#d9a77f"/><path d="M440.23 268.456h-37.108c-3.284 0-5.946 2.663-5.946 5.947 0 3.284 2.663 5.946 5.946 5.946h2.547v15.85h32.01v-15.85h2.54c3.285 0 5.947-2.666 5.947-5.95 0-3.284-2.66-5.947-5.947-5.947zm-34.677 32.23h32.015v21.646h-32.015z" fill="#6278a8"/><path opacity=".61" fill="#6278a8" d="M405.553 300.686h32.015v21.646h-32.015z"/><path fill="#d9a77f" d="M461.523 302.088v48.472h6.66v-48.472h5.788v-7.77H369.15v7.77h5.788v48.472h6.66v-48.472z"/><path d="M419.747 346.2v-31.915c0-3.92-3.178-7.1-7.1-7.1-3.92 0-7.097 3.18-7.097 7.1V346.2h14.197zm17.817 0v-31.915c0-3.92-3.18-7.1-7.1-7.1-3.92 0-7.098 3.18-7.098 7.1V346.2h14.198z" fill="#915c3d"/><path d="M439.373 350.56c0-4.992-4.046-9.04-9.04-9.04-4.992 0-9.04 4.048-9.04 9.04h18.08zm-17.817 0c0-4.992-4.047-9.04-9.04-9.04-4.99 0-9.037 4.048-9.037 9.04h18.07z"/><circle cx="434.777" cy="261.507" r="2.342" fill="#fdc99b"/><path d="M398.746 291.11c-1.367 2.47-4.48 3.367-6.95 2-2.47-1.367-3.367-4.48-2-6.95l8.018-14.502c1.366-2.472 4.478-3.368 6.95-2 2.47 1.365 3.366 4.478 2 6.95l-8.018 14.5zm37.398-15.407c-1.177-2.568-.05-5.603 2.516-6.78 2.568-1.178 5.604-.05 6.78 2.517l6.91 15.063c1.176 2.568.05 5.603-2.518 6.78-2.567 1.178-5.603.05-6.78-2.516l-6.908-15.064zm-4.99 18.615c-2.825.012-5.124-2.267-5.137-5.09-.013-2.826 2.266-5.125 5.09-5.138l16.572-.074c2.82-.013 5.12 2.267 5.13 5.09.01 2.826-2.27 5.125-5.09 5.138l-16.57.074zm-36.862 0c-2.824.012-5.124-2.267-5.137-5.09-.013-2.826 2.266-5.125 5.09-5.138l16.572-.074c2.825-.013 5.125 2.267 5.138 5.09.012 2.826-2.268 5.125-5.093 5.138l-16.57.074z" fill="#6278a8"/><circle cx="429.721" cy="289.167" r="5.463" fill="#fdc99b"/><circle cx="414.088" cy="289.167" r="5.463" fill="#fdc99b"/><circle cx="421.159" cy="265.847" r="14.272" fill="#fdc99b"/><circle cx="408.626" cy="272.764" r="2.341" fill="#fdc99b"/><path d="M425.413 276.93c.14.485-.14.99-.625 1.13-.485.137-.988-.143-1.127-.627l-1.1-3.85c-.14-.483.14-.988.63-1.126.487-.14.99.142 1.13.626l1.1 3.848z" fill="#f4a78e"/><path d="M415.666 274.805c-1.248.208-2.433-.64-2.64-1.888-.033-.197.1-.384.298-.417.197-.032.383.1.416.298.142.854.953 1.433 1.808 1.29.854-.14 1.433-.95 1.292-1.805-.034-.198.1-.385.298-.417.197-.033.384.1.416.298.207 1.25-.64 2.434-1.888 2.64zm14.544-3.995c-1.247.208-2.432-.64-2.64-1.888-.032-.197.1-.384.3-.417.196-.033.382.1.415.298.142.854.953 1.433 1.808 1.29.854-.14 1.433-.95 1.292-1.805-.034-.198.1-.385.298-.417.197-.03.384.11.416.3.2 1.25-.64 2.44-1.89 2.64z"/><path d="M432.28 264.518c.168.475-.082.996-.558 1.164l-4.363 1.533c-.48.167-1-.083-1.17-.56-.17-.475.08-.996.56-1.163l4.36-1.534c.475-.166 1 .084 1.163.56zm-14.883 4.828c.082.497-.254.967-.75 1.05l-4.564.758c-.496.082-.968-.254-1.05-.75-.082-.498.253-.97.75-1.05l4.563-.76c.498-.08.968.255 1.05.752zm3.748-8.85c-.207 1.196-1.513 2.52-2.56 3.005.04-.46.064-.98.18-1.45-.186 1.85-3.057 3.43-4.415 4.44-1.626 1.21-3.587 2.82-5.498 3.54.544-.45 1.118-1.64 1.413-2.414-.736 1.474-2.194 3.107-3.6 3.88.324-2.772-2.14-6.572-2.393-9.38-.35-3.86 1.365-8.16 4.304-10.66 5.486-4.672 13.485-6.21 19.57-2.072 1.614 1.1 2.818 2.04 4.125 3.447 1.3 1.395 2.9 2.428 4.85 2.6-.17 1.06-1.45 2.53-2.51 2.864.69.194 1.4.064 1.97-.33-.4 2.275-4 6.746-6.5 4 .666.487 1.244.998 2.1 1.078-2.3 2.756-10.023.505-10.895-2.365l-.13-.17z" fill="#e37528"/><path d="M430.948 235.438l.566.38c.123.083.325.178.603.28l.024.01 1.04.367c.267.17.36.345.3.523-.408.317-1.13 1.017-2.17 2.1-1.038 1.085-1.68 1.752-1.92 2.002l-.02.05c-.017.043.453.244 1.41.6.307.116.52.182.634.2.294.185.4.38.324.59-.042.113-.236.122-.58.027l-1.196-.52-1.453-.412c-.25-.16-.35-.306-.3-.432l.03-.082c.074-.2.76-.9 2.043-2.08 1.288-1.18 1.955-1.84 2.005-1.97l.07-.18c-1.23-.46-1.903-.86-2.03-1.21l.02-.048c.056-.004.108-.072.157-.204.117-.056.27-.05.456.02zm4.196 1.567l.567.38c.13.083.33.177.61.28l.027.01 1.034.367c.263.17.36.345.296.523-.41.317-1.135 1.017-2.17 2.1l-1.92 2.002-.02.05c-.018.043.452.244 1.41.6.306.116.52.182.633.2.293.185.402.382.324.59-.042.112-.236.12-.582.026l-1.193-.52-1.454-.412c-.25-.16-.35-.3-.304-.43l.03-.08c.076-.2.76-.9 2.046-2.08 1.29-1.184 1.957-1.843 2.006-1.974l.067-.18c-1.23-.46-1.905-.862-2.03-1.21l.017-.05c.056-.002.108-.07.158-.202.114-.055.266-.05.453.02zm4.196 1.565l.567.38c.124.084.325.178.604.282l.03.01 1.038.366c.263.17.36.345.296.523-.41.32-1.133 1.02-2.17 2.11-1.04 1.085-1.68 1.75-1.922 2l-.017.05c-.02.045.45.246 1.41.6.305.117.52.18.632.2.292.186.4.38.322.59-.043.11-.237.12-.583.028l-1.194-.52-1.453-.41c-.248-.16-.35-.306-.302-.433l.034-.082c.076-.205.757-.9 2.044-2.085s1.956-1.843 2.005-1.974l.07-.18c-1.23-.46-1.905-.86-2.03-1.21l.018-.047c.057-.004.11-.072.16-.203.115-.06.267-.05.454.02zm2.308 7.12c.28.172.394.332.337.483-.057.154-.216.213-.475.18-.263-.1-.375-.285-.337-.558.044-.118.202-.153.475-.104zm2.026.757c.282.17.394.332.338.483-.057.154-.216.213-.476.18-.263-.1-.375-.285-.336-.558.044-.118.2-.153.474-.105zm2.026.757c.282.17.395.332.338.483-.057.154-.216.213-.475.18-.263-.1-.375-.285-.337-.558.043-.12.202-.16.475-.11z" fill="#3d2e1f"/></g><g transform="translate(88.475 -58.839)"><path fill="#89321d" d="M156.857 373.107h33.092v30.402h-33.1z"/><path d="M195.483 410.524h-39.826v69.903h5.586v-28.12h34.24v28.12h5.586v-69.903h-5.59zm0 35.036h-34.24v-9.693h34.24v9.693z" fill="#d9a77f"/><path d="M196.88 398.326h-37.108c-3.285 0-5.947 2.662-5.947 5.947 0 3.284 2.663 5.947 5.947 5.947h2.547v15.857h32.01V410.22h2.54c3.284 0 5.947-2.663 5.947-5.947 0-3.285-2.663-5.947-5.947-5.947zm-34.56 32.23h32.013v21.646H162.32z" fill="#dba538"/><path opacity=".61" fill="#dba538" d="M162.32 430.556h32.013v21.646H162.32z"/><path fill="#d9a77f" d="M218.288 431.957v48.47h6.66v-48.47h5.788v-7.77h-104.82v7.77h5.787v48.47h6.66v-48.47z"/><path d="M176.512 476.068v-31.913c0-3.92-3.178-7.1-7.1-7.1-3.92 0-7.098 3.18-7.098 7.1v31.913h14.198zm17.818 0v-31.913c0-3.92-3.18-7.1-7.1-7.1-3.92 0-7.1 3.18-7.1 7.1v31.913h14.2z" fill="#e94475"/><path d="M196.138 480.428c0-4.99-4.047-9.04-9.04-9.04-4.99 0-9.038 4.05-9.038 9.04h18.078zm-17.816 0c0-4.99-4.047-9.04-9.04-9.04-4.99 0-9.038 4.05-9.038 9.04h18.078z" fill="#3d2e1f"/><path d="M188.402 379.778c-.967-7.823-8.092-13.38-15.915-12.414-7.823.967-13.38 8.092-12.414 15.915.825 6.67 6.13 11.69 12.524 12.42l.344 2.78c.01.083.01.167.02.252.23 1.85 1.92 3.167 3.77 2.94 1.86-.23 3.17-1.918 2.94-3.77-.01-.085-.02-.167-.04-.25l-.342-2.783c6.025-2.27 9.948-8.43 9.123-15.1z" fill="#fdc99b"/><path d="M155.573 420.692c-1.34 2.487-4.44 3.417-6.928 2.077-2.486-1.34-3.417-4.45-2.077-6.93l7.86-14.59c1.338-2.49 4.44-3.42 6.927-2.08 2.486 1.34 3.416 4.44 2.077 6.93l-7.86 14.59zm37.22-15.118c-1.178-2.568-.05-5.603 2.517-6.78 2.567-1.178 5.603-.052 6.78 2.516l6.91 15.063c1.177 2.567.05 5.603-2.517 6.78-2.568 1.178-5.603.05-6.78-2.516l-6.91-15.063zm-4.99 18.613c-2.825.013-5.124-2.266-5.137-5.09-.013-2.825 2.267-5.125 5.09-5.138l16.572-.08c2.825-.016 5.125 2.263 5.137 5.09.013 2.823-2.267 5.123-5.092 5.14l-16.57.07z" fill="#dba538"/><circle cx="187.23" cy="419.036" r="5.462" fill="#fdc99b"/><path d="M183.633 374.78c.098.493-.223.974-.717 1.072l-4.536.904c-.495.098-.975-.223-1.074-.717-.098-.5.223-.98.717-1.08l4.536-.908c.49-.097.97.224 1.07.72zm-14.005 2.79c.098.494-.222.974-.717 1.073l-4.53.904c-.49.098-.972-.223-1.07-.717-.098-.494.223-.975.717-1.073l4.537-.904c.496-.1.977.222 1.075.716z" fill="#89321d"/><path d="M176.007 391.474c-1.63.325-3.22-.736-3.544-2.366-.052-.257.116-.508.374-.56.257-.05.508.117.56.375.22 1.115 1.31 1.84 2.423 1.618 1.116-.22 1.842-1.31 1.62-2.42-.053-.252.115-.51.372-.56.258-.05.508.12.56.38.326 1.63-.735 3.22-2.365 3.544z" fill="#ed1a3b"/><path d="M167.564 384.245c-1.115.223-2.203-.504-2.425-1.62-.04-.176.07-.347.25-.383.172-.035.35.08.38.256.15.763.895 1.26 1.66 1.108.762-.152 1.26-.896 1.106-1.66-.035-.176.08-.348.256-.383.177-.035.35.08.382.256.22 1.11-.505 2.2-1.62 2.42zm14.066-2.435c-1.115.22-2.203-.505-2.426-1.62-.035-.177.08-.35.256-.384.176-.035.348.08.383.256.152.763.896 1.26 1.66 1.108.764-.15 1.26-.896 1.108-1.66-.03-.175.08-.347.26-.382.18-.035.35.08.388.257.223 1.114-.503 2.2-1.62 2.424z" fill="#3d2e1f"/><path d="M175.713 385.33c.098.495-.223.975-.717 1.073-.493.1-.974-.222-1.072-.716l-.782-3.926c-.1-.49.222-.97.716-1.07.494-.1.974.23 1.072.72l.783 3.93z" fill="#f4a78e"/><circle cx="187.607" cy="376.888" r="2.341" fill="#fdc99b"/><circle cx="161.837" cy="388.162" r="2.341" fill="#fdc99b"/><path d="M171.96 368.842c3.013 6.534-11.34 8.51-8.414 16.16.54 1.412 1.687 2.544 2.19 4.034.632 1.877.242 3.48-.306 5.293-.62 2.05-.787 3.54.19 5.46.742 1.46 1.788 2.69 2.377 4.203 1.118 2.88 1.613 5.177-.65 8.202-1.46-1.82-4.605-3.72-6.26-4.096-3.243-.734-5.75-3.74-6.047-7.098-.135-1.52.21-3.06.16-4.535-.057-1.59-.878-2.983-1.625-4.38-2.148-4.02-2.846-9.324-2.122-13.848 1.283-8.016 7.36-13.107 14.89-15 3.018-.76 5.842-.23 8.63.755 1.5.53 2.665.97 4.234 1.06 2 .113 4.23-.076 6.036.53 3.91 1.31 6.997 5.36 8.316 9.157 1.38 3.997.34 7.565-.46 11.488-.41 1.98-.6 4.21.14 6.12.776 2.007 2.304 3.54 3.21 5.47 1.69 3.614.74 7.118-1.994 9.945-.97 1.003-2.363 1.663-3.15 2.853-.055-1.99-.498-3.9-1.23-5.773-1.04-2.658-3.15-4.16-4.38-6.56-2.54-4.963.642-7.85 2.45-12.12 2.317-5.465-1.54-13.1-7.134-14.57-1.617-.426-3.25-.248-4.825-.91-1.17-.494-3.36-1.356-3.935-2.455l-.3.6z" fill="#89321d"/><path d="M151.315 400.926c.87-2.687 3.755-4.16 6.442-3.288 2.687.87 4.16 3.755 3.29 6.442l-5.11 15.764c-.87 2.687-3.755 4.16-6.442 3.288-2.687-.87-4.16-3.754-3.288-6.44l5.108-15.766z" fill="#dba538"/><circle cx="156.857" cy="399.785" r="5.462" fill="#fdc99b"/><path d="M207.35 368.293c-.8-.97-2.06-.738-3.294.064.192-1.46-.14-2.697-1.363-3-1.454-.363-3 .81-3.448 2.617-.45 1.81 1.33 5.89 1.33 5.89l.026-.026-.01.034s4.45-.153 5.89-1.34c1.44-1.184 1.83-3.083.88-4.24zm-1.775 11.88c-.487-.59-1.252-.45-2.002.04.116-.89-.086-1.64-.828-1.825-.884-.22-1.822.492-2.095 1.59-.273 1.1.808 3.578.808 3.578l.016-.016-.007.02s2.703-.092 3.576-.813c.873-.72 1.11-1.873.532-2.575z" fill="#ed1a3b"/></g><g transform="translate(88.475 -58.839)"><path d="M317.063 410.524h-39.826v69.903h5.586v-28.12h34.24v28.12h5.586v-69.903h-5.59zm0 35.036h-34.24v-9.693h34.24v9.693z" fill="#d9a77f"/><path d="M318.497 398.326H281.39c-3.285 0-5.947 2.662-5.947 5.947 0 3.284 2.663 5.947 5.946 5.947h2.54v15.857h32.012V410.22h2.546c3.285 0 5.947-2.663 5.947-5.947 0-3.285-2.663-5.947-5.947-5.947zm-34.56 32.23h32.014v21.646h-32.01z" fill="#6ec5a6"/><path opacity=".61" fill="#6ec5a6" d="M283.936 430.556h32.015v21.646h-32.01z"/><path fill="#d9a77f" d="M335.613 436.212v48.472h6.66v-48.472h5.788v-7.77H243.24v7.77h5.788v48.472h6.66v-48.472z"/><path d="M298.13 476.068v-31.913c0-3.92-3.18-7.1-7.1-7.1-3.92 0-7.098 3.18-7.098 7.1v31.913h14.198zm17.816 0v-31.913c0-3.92-3.178-7.1-7.1-7.1-3.92 0-7.098 3.18-7.098 7.1v31.913h14.198z" fill="#4f82c3"/><path d="M317.756 480.428c0-4.99-4.047-9.04-9.04-9.04-4.992 0-9.038 4.05-9.038 9.04h18.078zm-17.816 0c0-4.99-4.048-9.04-9.04-9.04-4.992 0-9.04 4.05-9.04 9.04h18.08z" fill="#aecb39"/><path d="M314.215 381.437c0-7.882-6.39-14.272-14.272-14.272-7.882 0-14.272 6.39-14.272 14.272 0 6.722 4.65 12.355 10.91 13.87v2.803c0 .084-.01.168-.01.253 0 1.866 1.515 3.38 3.38 3.38s3.38-1.514 3.38-3.38c0-.086-.01-.17-.012-.253v-2.804c6.258-1.514 10.906-7.147 10.906-13.87z" fill="#e7866b"/><path d="M310.307 379.43c.008.505-.393.92-.898.93l-4.63.077c-.507.008-.92-.393-.93-.898-.01-.51.392-.92.895-.93l4.625-.08c.504-.01.92.39.928.9zm-14.277.24c.008.504-.393.92-.897.93l-4.625.077c-.504.008-.92-.393-.928-.898-.01-.51.393-.92.897-.93l4.625-.08c.504-.01.92.39.928.89z" fill="#010101"/><circle cx="307.144" cy="383.148" r="1.547"/><circle cx="292.866" cy="383.388" r="1.546"/><path d="M299.82 394.492c-1.662.028-3.037-1.3-3.065-2.962-.005-.262.204-.48.467-.484.263-.005.48.205.483.468.02 1.136.96 2.046 2.096 2.026 1.14-.02 2.05-.96 2.03-2.096 0-.262.21-.48.47-.484.268-.004.48.205.49.468.03 1.662-1.3 3.036-2.96 3.064z" fill="#ed1a3b"/><path d="M300.627 388.396c.008.504-.392.92-.896.927-.5.01-.91-.393-.92-.896l-.064-4.003c-.01-.504.393-.92.896-.928.503-.008.92.393.927.897l.067 4.003z" fill="#e26460"/><path fill="#fff" d="M291.53 399.87h16.826v24.662H291.53z"/><circle cx="313.78" cy="385.664" r="2.342" fill="#e7866b"/><circle cx="286.822" cy="386.499" r="2.341" fill="#e7866b"/><path d="M277.206 420.903c-1.367 2.472-4.48 3.368-6.95 2-2.472-1.366-3.368-4.478-2-6.95l8.018-14.5c1.366-2.473 4.478-3.37 6.95-2.002 2.47 1.37 3.367 4.48 2 6.95l-8.018 14.51zm37.572-14.887c-1.177-2.568-.05-5.603 2.515-6.78 2.568-1.178 5.604-.052 6.78 2.516l6.91 15.063c1.177 2.568.05 5.603-2.518 6.78-2.567 1.178-5.603.05-6.78-2.516l-6.907-15.07zm-4.99 18.44c-2.825.014-5.125-2.266-5.138-5.09-.013-2.825 2.266-5.124 5.09-5.137l16.572-.08c2.825-.017 5.125 2.263 5.138 5.09.012 2.822-2.268 5.12-5.093 5.14l-16.57.07zm-36.862 0c-2.824.014-5.124-2.266-5.137-5.09-.02-2.825 2.26-5.124 5.09-5.137l16.57-.08c2.82-.017 5.12 2.263 5.13 5.09.01 2.822-2.268 5.12-5.09 5.14l-16.57.07z" fill="#6ec5a6"/><circle cx="308.355" cy="419.306" r="5.463" fill="#e7866b"/><circle cx="292.722" cy="419.306" r="5.463" fill="#e7866b"/><path d="M286.156 384.068c-.88.347-1.512.268-2.258-.276-.558-.407-1.592-1.35-1.113-2.045-1.59-.267-2.558-2.286-2.907-3.698-.277-1.13-.564-4.36.924-4.82-.44-1.85.756-5.93 3.157-5.757-1.57-2.26 4.61-5.964 4.99-5-1.208-.526-.3-3.1 2.36-4.016 2.14-.736 3.09-.23 3.864.6-.094-2.01 6.927-1.497 6.203-.12 1.17-2.214 5.973.94 5.94 2.91.412.05 1.08-.114 1.467-.037.855.17 1.59.528 2.08 1.17.816 1.067 1.235 2.57.336 3.89 1.778-.147 4.613 3.63 3.203 4.92 2.72-.533 3.717 3.785 2.115 5.41.3.86 1.14 1.625.77 2.516-.264.637-.906 1.272-1.405 1.71.707.086.326 1.4-.08 1.713-.582.45-1.22.42-1.723.24-1.336-.48-2.162-2.61-2.09-4.098-2.11.242-2.21-2.712-2.3-4.066-1.86.03-3.875-.034-4.59-2.19-.98.315-4.382.94-4.17-.92-.7 1.356-4.22 2.755-5.52 2.16.926-.05-1.304 1.67-1.65 1.854-1.1.59-2.283 1.187-3.51 1.37 1.308.986-2.06 2.856-2.812 3.245 2.24-.398.9 4.703-.555 3.64l-.73-.312z" fill="#010101"/></g><g transform="translate(88.475 -58.839)"><path d="M435.833 381.437c0-7.882-6.39-14.272-14.272-14.272-6.6 0-12.15 4.484-13.78 10.572l1.95.33c.5.085.833.557.75 1.054-.086.5-.557.84-1.055.75l-1.995-.34c-.085.63-.13 1.26-.13 1.91v.01c.26-.17.574-.27.913-.26.853.03 1.52.75 1.49 1.6-.032.856-.75 1.52-1.602 1.49-.19-.005-.37-.05-.535-.12 1.056 5.485 5.245 9.85 10.64 11.157v2.804c-.01.085-.015.17-.015.254 0 1.867 1.513 3.38 3.38 3.38s3.38-1.513 3.38-3.38c0-.085-.008-.17-.014-.252v-2.8c6.26-1.514 10.91-7.147 10.91-13.87z" fill="#fdc99b"/><path d="M438.797 410.524H398.97v69.903h5.587v-28.12h34.24v28.12h5.586v-69.903h-5.586zm0 35.036h-34.24v-9.693h34.24v9.693z" fill="#d9a77f"/><path d="M440.114 398.326h-37.107c-3.285 0-5.947 2.662-5.947 5.947 0 3.284 2.662 5.947 5.947 5.947h2.546v15.857h32.014V410.22h2.546c3.284 0 5.947-2.663 5.947-5.947 0-3.285-2.662-5.947-5.946-5.947zm-34.56 32.23h32.014v21.646h-32.015z" fill="#6d868a"/><path opacity=".61" fill="#6d868a" d="M405.553 430.556h32.015v21.646h-32.015z"/><path fill="#d9a77f" d="M461.523 431.957v48.47h6.66v-48.47h5.788v-7.77H369.15v7.77h5.788v48.47h6.66v-48.47z"/><path d="M419.747 476.068v-31.913c0-3.92-3.178-7.1-7.1-7.1-3.92 0-7.097 3.18-7.097 7.1v31.913h14.197zm17.817 0v-31.913c0-3.92-3.18-7.1-7.1-7.1-3.92 0-7.098 3.18-7.098 7.1v31.913h14.198z" fill="#6a72ac"/><path d="M439.373 480.428c0-4.99-4.046-9.04-9.04-9.04-4.992 0-9.04 4.05-9.04 9.04h18.08zm-17.817 0c0-4.99-4.047-9.04-9.04-9.04-4.99 0-9.037 4.05-9.037 9.04h18.07z" fill="#3d2e1f"/><path d="M395.443 420.383c-1.72 2.24-4.93 2.66-7.17.94-2.24-1.722-2.662-4.933-.94-7.173l10.096-13.14c1.72-2.24 4.93-2.66 7.17-.94 2.24 1.722 2.66 4.933.94 7.173l-10.1 13.14zm40.585-14.81c-1.177-2.567-.052-5.602 2.516-6.78 2.567-1.177 5.604-.05 6.78 2.517l6.908 15.063c1.178 2.567.05 5.603-2.517 6.78-2.567 1.178-5.603.05-6.78-2.516l-6.907-15.063zm-45.04 6.97c2.823-.057 5.16 2.185 5.216 5.01.058 2.822-2.185 5.16-5.01 5.216l-16.567.33c-2.824.06-5.16-2.188-5.217-5.01-.057-2.826 2.185-5.16 5.01-5.22l16.567-.337z" fill="#6d868a"/><circle cx="371.01" cy="418.157" r="5.463" fill="#fdc99b"/><path d="M422.927 379.607c-.085.497-.556.83-1.054.747l-4.56-.775c-.497-.09-.83-.56-.746-1.06.084-.5.556-.83 1.053-.75l4.56.774c.497.084.83.556.747 1.053z" fill="#a14e30"/><circle cx="418.2" cy="382.727" r="1.546"/><path d="M410.468 379.12c.085-.496-.25-.967-.748-1.053l-1.945-.33c-.156.583-.275 1.18-.356 1.792l1.99.33c.5.083.97-.25 1.05-.748z" fill="#a14e30"/><path d="M409.692 382.784c.03-.854-.636-1.57-1.49-1.6-.337-.013-.652.087-.913.262 0 .926.09 1.828.26 2.705.163.07.342.12.533.13.852.03 1.57-.634 1.6-1.49z"/><path d="M413.356 387.623c-.018.503-.44.897-.944.878-.504-.01-.896-.44-.878-.94l.144-4c.018-.5.44-.9.944-.88.503.02.897.44.878.95l-.144 4.003z" fill="#f4a78e"/><path d="M415.56 391.77h-2.878c-.337 0-.61-.274-.61-.61 0-.338.273-.61.61-.61h2.878c.337 0 .61.272.61.61 0 .336-.273.61-.61.61z" fill="#ed1a3b"/><path d="M409.234 374.243c1.734 1.726 2.573 3 4.975 3.607-.51-.566-.87-1.365-.77-2.17 1.48.28 2.99 1.68 4.614 1.565.055-.906-.203-1.688-.13-2.593 3.42 2.26 6.946 3.79 7.73 8.3 1.85-5.323 6.095 3.375 1.003 4.323-.215 1.58-.68 6.547-.647 7.72 8.134-.813 12.856-6.905 13.236-14.72.37-7.625-6.59-15.19-13.84-15.816-5.21-.45-10.905.07-14.85 3.6-3.818 3.42-5.62 9.12-3.277 13.892 0-2.33 1.015-5.81 1.946-7.718z" fill="#a14e30"/><path d="M440.02 366.35l-2.148 1.915c-.252.224-.637.202-.86-.05-.225-.25-.203-.637.05-.86l2.147-1.915c.25-.224.63-.202.86.05.22.25.2.636-.05.86zm-3.217-2.13l-1.173 2.627c-.138.308-.498.446-.806.308-.307-.137-.446-.498-.308-.806l1.174-2.63c.138-.31.498-.45.806-.31.307.14.445.5.307.8z" fill="#3d2e1f"/><path fill="#fff" d="M412.882 399.87h16.825v24.662h-16.825z"/><path d="M431.037 424.187c-2.825.013-5.125-2.266-5.137-5.09-.012-2.825 2.267-5.125 5.09-5.138l16.572-.08c2.825-.016 5.125 2.263 5.138 5.09.012 2.823-2.268 5.123-5.092 5.14l-16.57.07z" fill="#6d868a"/><circle cx="429.605" cy="419.306" r="5.463" fill="#fdc99b"/></g><g transform="translate(88.475 -58.839)"><path d="M193.32 509.373c-.643-7.793-7.166-13.92-15.124-13.92s-14.482 6.127-15.123 13.92l-.056 1.237v7.952h30.36l-.058-9.19z" fill="#f36e41"/><path d="M195.483 540.394h-39.826v69.903h5.586v-28.12h34.24v28.12h5.586v-69.903h-5.59zm0 35.036h-34.24v-9.693h34.24v9.693z" fill="#d9a77f"/><path d="M196.88 528.194h-37.108c-3.285 0-5.947 2.662-5.947 5.947s2.663 5.95 5.947 5.95h2.547v15.86h32.01v-15.86h2.54c3.284 0 5.947-2.66 5.947-5.943s-2.663-5.946-5.947-5.946zm-34.56 32.232h32.013v21.646H162.32z" fill="#926226"/><path opacity=".61" fill="#926226" d="M162.32 560.426h32.013v21.646H162.32z"/><path fill="#d9a77f" d="M218.288 561.826v48.472h6.66v-48.472h5.788v-7.77h-104.82v7.77h5.787v48.472h6.66v-48.472z"/><path d="M176.512 605.938v-31.913c0-3.92-3.178-7.1-7.1-7.1-3.92 0-7.098 3.18-7.098 7.1v31.913h14.198zm17.818 0v-31.913c0-3.92-3.18-7.1-7.1-7.1-3.92 0-7.1 3.18-7.1 7.1v31.913h14.2z" fill="#68c4a4"/><path d="M196.138 610.298c0-4.99-4.047-9.038-9.04-9.038-4.99 0-9.038 4.048-9.038 9.038h18.078zm-17.816 0c0-4.99-4.047-9.038-9.04-9.038-4.99 0-9.038 4.048-9.038 9.038h18.078z" fill="#3d2e1f"/><path d="M192.598 511.306c0-7.883-6.39-14.273-14.272-14.273-7.882 0-14.272 6.39-14.272 14.273 0 6.722 4.65 12.355 10.906 13.868v2.804c-.007.084-.013.167-.013.253 0 1.87 1.513 3.38 3.38 3.38 1.866 0 3.38-1.51 3.38-3.38 0-.08-.008-.16-.014-.25v-2.8c6.256-1.51 10.905-7.143 10.905-13.87z" fill="#fdc99b"/><path d="M170.417 547.47c1.178 2.568.05 5.604-2.516 6.782s-5.6.05-6.78-2.517l-6.9-15.063c-1.176-2.568-.05-5.603 2.518-6.78 2.567-1.178 5.603-.05 6.78 2.517l6.908 15.06zm22.845-15.67c.983-2.648 3.926-3.998 6.575-3.016 2.647.984 3.996 3.927 3.014 6.575l-5.76 15.53c-.98 2.65-3.922 4-6.57 3.01-2.648-.984-3.997-3.93-3.014-6.576l5.766-15.534zm-15.03 6.678c-1.62-2.314-1.06-5.502 1.256-7.123 2.313-1.62 5.503-1.06 7.123 1.255l9.51 13.574c1.62 2.313 1.06 5.503-1.25 7.122-2.31 1.62-5.5 1.06-7.12-1.255l-9.507-13.57zm-12.404-6.204c.827-2.7 3.686-4.22 6.387-3.394 2.7.827 4.22 3.687 3.394 6.387l-4.85 15.846c-.83 2.702-3.69 4.22-6.39 3.393-2.7-.826-4.22-3.686-3.4-6.387l4.85-15.85z" fill="#926226"/><circle cx="172.284" cy="529.424" r="5.462" fill="#fdc99b"/><circle cx="181.029" cy="533.926" r="5.462" fill="#fdc99b"/><circle cx="185.504" cy="513.282" r="1.546"/><circle cx="171.225" cy="513.113" r="1.546"/><path d="M178.84 518.34c-.006.506-.418.907-.922.902-.503-.007-.907-.42-.9-.923l.047-4.01c.006-.508.42-.91.923-.9.503 0 .907.42.9.92l-.047 4.002z" fill="#f4a78e"/><circle cx="192.598" cy="511.712" r="2.341" fill="#fdc99b"/><circle cx="164.053" cy="512.375" r="2.341" fill="#fdc99b"/><path d="M181.56 522.315l-2.704.98c-.317.114-.667-.05-.78-.367-.116-.316.048-.667.365-.78l2.71-.98c.32-.116.67.048.78.365.12.317-.05.667-.36.782z" fill="#ed1a3b"/><path d="M188.762 510.89c.04.503-.333.943-.835.984l-4.61.38c-.503.04-.943-.335-.985-.837-.04-.502.333-.943.836-.982l4.61-.38c.502-.04.943.332.984.835zm-14.462 1.364c-.172.473-.695.718-1.17.547l-4.347-1.58c-.474-.17-.72-.69-.547-1.17.172-.47.696-.71 1.17-.54l4.347 1.58c.476.17.72.7.547 1.17zm-10.708-2.287c.512-.496 2.153-.552 2.92-.788 1.867-.58 3.78-.92 5.62-1.53 2.633-.89 5.162-1.9 7.794-2.69.402-.12 1.77-.7 1.77-.7s1.27.6 1.58.79c1.17.72 2.042 1.25 3.17 1.93 1.12.68 2.294 1.374 3.483 1.94.6.285 1.48.82 2.23.63 1.63-.406.47-3.402-.13-4.38-1.07-1.752-1.72-3.353-3.337-4.72-2.913-2.46-5.588-3.872-9.45-4.12-4.005-.254-7.666.94-10.575 3.764-1.37 1.327-2.5 2.263-3.38 3.965-.748 1.446-1.25 2.653-1.806 4.17l.1 1.73z" fill="#f36e41"/><path fill="#dba538" d="M198.15 498.567l3.63-2.424-2.488-1.583-4.252 2.838 1.695 1.08-2.417 3.194 5.318-2.16zm-39.106-.63l-1.49-4.103-2.13 2.04 1.743 4.805 1.452-1.39 2.52 3.1-.83-5.68z"/></g><g transform="translate(88.475 -58.839)"><path d="M289.06 520.083c-2.73-1.594-4.46-3.496-4.933-6.767-.51-3.528-.458-7.11 1.342-10.306 3.22-5.727 9.43-7.512 15.53-7.21 1.97.098 4.09.344 6.04.026 1.565-.255 3.07-2.235 4.614-2.214.09 1.783.656 4.076-.424 5.43 1.318 1.686 2.028 4.025 2.483 5.506.663 2.167.97 4.703.97 7.08 0 4.718-2.465 8.864-7.25 10.366-3.865 1.214-11.29 2.595-14.76.1l-3.624-2.01z" fill="#a95325"/><path d="M317.063 540.395h-39.826v69.902h5.586v-28.12h34.24v28.12h5.586v-69.902h-5.59zm0 35.035h-34.24v-9.693h34.24v9.693z" fill="#d9a77f"/><path d="M318.497 528.194H281.39c-3.285 0-5.947 2.662-5.947 5.947s2.663 5.95 5.946 5.95h2.54v15.86h32.012v-15.86h2.546c3.285 0 5.947-2.66 5.947-5.943s-2.663-5.946-5.947-5.946zm-34.56 32.232h32.014v21.646h-32.01z" fill="#aca592"/><path opacity=".61" fill="#aca592" d="M283.936 560.426h32.015v21.646h-32.01z"/><path fill="#d9a77f" d="M339.905 561.826v48.472h6.66v-48.472h5.788v-7.77h-104.82v7.77h5.787v48.472h6.66v-48.472z"/><path d="M298.13 605.938v-31.913c0-3.92-3.18-7.1-7.1-7.1-3.92 0-7.098 3.18-7.098 7.1v31.913h14.198zm17.816 0v-31.913c0-3.92-3.178-7.1-7.1-7.1-3.92 0-7.098 3.18-7.098 7.1v31.913h14.198z" fill="#6a72ac"/><path d="M317.756 610.298c0-4.99-4.047-9.038-9.04-9.038-4.992 0-9.038 4.048-9.038 9.038h18.078zm-17.816 0c0-4.99-4.048-9.038-9.04-9.038-4.992 0-9.04 4.048-9.04 9.038h18.08z" fill="#3d2e1f"/><path d="M314.215 511.306c0-7.883-6.39-14.273-14.272-14.273-7.882 0-14.272 6.39-14.272 14.273 0 6.722 4.65 12.355 10.91 13.868v2.804c0 .084-.01.167-.01.253 0 1.87 1.515 3.38 3.38 3.38s3.38-1.51 3.38-3.38c0-.08-.01-.16-.012-.25v-2.8c6.258-1.51 10.906-7.143 10.906-13.87z" fill="#fdc99b"/><path d="M310.27 510.316c.003.503-.402.915-.907.917l-4.625.024c-.504.002-.915-.404-.918-.908-.002-.51.405-.92.908-.92l4.626-.03c.504-.004.916.402.917.91zm-14.278.074c.003.504-.404.916-.908.92l-4.625.022c-.51.003-.92-.403-.92-.908-.01-.504.4-.914.91-.918l4.62-.023c.5-.004.91.403.913.908z" fill="#a95325"/><circle cx="307.065" cy="513.034" r="1.546"/><circle cx="292.786" cy="513.108" r="1.546"/><path d="M299.61 524.293c-1.662.008-3.022-1.336-3.03-2.998 0-.262.21-.477.473-.478.263-.002.477.21.478.474.01 1.14.94 2.06 2.08 2.05 1.14 0 2.06-.93 2.05-2.07 0-.26.21-.47.476-.48.263 0 .478.21.48.48.008 1.66-1.337 3.02-3 3.03z" fill="#ed1a3b"/><path d="M300.49 518.206c0 .504-.404.913-.908.917-.504.002-.914-.404-.917-.907l-.02-4.004c-.004-.503.402-.914.905-.916.504-.003.914.404.917.906l.022 4.004z" fill="#f4a78e"/><path d="M277.206 550.4c-1.367 2.472-4.48 3.368-6.95 2-2.472-1.366-3.368-4.477-2-6.95l8.018-14.5c1.366-2.473 4.478-3.37 6.95-2.002 2.47 1.367 3.367 4.48 2 6.95l-8.018 14.502zm37.572-14.887c-1.177-2.567-.05-5.603 2.515-6.78 2.568-1.178 5.604-.05 6.78 2.517l6.91 15.063c1.177 2.567.05 5.603-2.518 6.78-2.567 1.178-5.603.052-6.78-2.516l-6.907-15.064z" fill="#aca592"/><path d="M284.563 531.612h15.263v22.374h-15.263zm15.497 0h15.264v22.374H300.06z" fill="#57baa8"/><path d="M309.787 553.954c-2.824.013-5.124-2.266-5.137-5.09-.013-2.826 2.266-5.125 5.09-5.138l16.572-.073c2.825-.013 5.125 2.267 5.138 5.09.012 2.826-2.268 5.126-5.093 5.14l-16.57.07zm-36.86 0c-2.825.013-5.125-2.266-5.138-5.09-.02-2.826 2.26-5.125 5.09-5.138l16.57-.073c2.82-.013 5.12 2.267 5.13 5.09.01 2.826-2.268 5.126-5.09 5.14l-16.57.07z" fill="#aca592"/><circle cx="308.355" cy="548.804" r="5.463" fill="#fdc99b"/><circle cx="292.722" cy="548.804" r="5.463" fill="#fdc99b"/><path fill="#72c1a8" d="M298.732 531.612h2.422v22.342h-2.422z"/><path d="M285.312 514.58c3.06-.817 6.88-6.76 10.558-8.818 2.29-1.282 4.763-2.614 7.146-3.66 1.634-.718 3.557-1.417 4.94-2.536.294 1.825 1.513 4.294 2.316 6.03.57 1.232 2.906 5.35 4.16 5.737.662-4.06-1.693-9.98-5.478-12.082-1.772-.98-3.515-2.83-5.536-3.02-2.13-.2-4.62-.07-6.71.24-3.42.51-6.484 2.37-8.865 4.96-2.807 3.06-3.08 6.88-3.08 10.88l.55 2.28z" fill="#a95325"/><circle cx="313.662" cy="513.536" r="2.342" fill="#fdc99b"/><circle cx="286.131" cy="513.537" r="2.341" fill="#fdc99b"/></g><g transform="translate(88.475 -58.839)"><circle cx="423.633" cy="510.037" r="14.972" fill="#f8ba47"/><path d="M438.797 540.395H398.97v69.902h5.587v-28.12h34.24v28.12h5.586v-69.902h-5.586zm0 35.035h-34.24v-9.693h34.24v9.693z" fill="#d9a77f"/><path d="M440.114 528.194h-37.107c-3.285 0-5.947 2.662-5.947 5.947s2.662 5.95 5.947 5.95h2.546v15.86h32.014v-15.86h2.546c3.284 0 5.947-2.66 5.947-5.943s-2.662-5.946-5.946-5.946zm-34.56 32.232h32.014v21.646h-32.015z" fill="#7657a0"/><path opacity=".61" fill="#7657a0" d="M405.553 560.426h32.015v21.646h-32.015z"/><path fill="#d9a77f" d="M461.523 561.826v48.472h6.66v-48.472h5.788v-7.77H369.15v7.77h5.788v48.472h6.66v-48.472z"/><path d="M419.747 605.938v-31.913c0-3.92-3.178-7.1-7.1-7.1-3.92 0-7.097 3.18-7.097 7.1v31.913h14.197zm17.817 0v-31.913c0-3.92-3.18-7.1-7.1-7.1-3.92 0-7.098 3.18-7.098 7.1v31.913h14.198z" fill="#5b97c7"/><path d="M439.373 610.298c0-4.99-4.046-9.038-9.04-9.038-4.992 0-9.04 4.048-9.04 9.038h18.08zm-17.817 0c0-4.99-4.047-9.038-9.04-9.038-4.99 0-9.037 4.048-9.037 9.038h18.07z" fill="#a7216a"/><path d="M438.224 515.665c1.803-7.674-2.956-15.356-10.63-17.16-7.67-1.803-15.355 2.957-17.158 10.63-1.538 6.543 1.7 13.09 7.443 15.996l-.65 2.73c-.026.08-.05.16-.07.25-.43 1.82.7 3.64 2.515 4.06 1.82.43 3.635-.7 4.063-2.51.02-.084.033-.166.046-.25l.64-2.73c6.44-.043 12.252-4.463 13.79-11.007z" fill="#fdc99b"/><path d="M400.882 550.932c-.982 2.648-3.926 3.997-6.574 3.015-2.648-.982-3.998-3.926-3.015-6.575l5.767-15.535c.984-2.65 3.926-4 6.574-3.015 2.648.982 3.998 3.926 3.015 6.575l-5.77 15.535zm35.146-15.49c-1.177-2.567-.052-5.603 2.516-6.782 2.567-1.177 5.604-.05 6.78 2.518l6.908 15.062c1.178 2.567.05 5.603-2.517 6.782-2.567 1.177-5.603.05-6.78-2.518l-6.907-15.062zm6.032-3.204c-.07-2.824 2.162-5.17 4.986-5.24 2.823-.07 5.17 2.16 5.24 4.985l.412 16.566c.07 2.82-2.16 5.17-4.984 5.24-2.824.07-5.17-2.17-5.24-4.99l-.413-16.57zm-29.266 11.802c2.825-.02 5.13 2.255 5.15 5.08.02 2.823-2.253 5.13-5.078 5.15l-16.57.114c-2.827.02-5.13-2.254-5.15-5.08-.02-2.823 2.253-5.13 5.077-5.15l16.57-.113z" fill="#7657a0"/><circle cx="447.379" cy="527.156" r="5.463" fill="#fdc99b"/><path d="M446.762 524.268c0 .63-.512 1.143-1.143 1.143-.64 0-1.15-.51-1.15-1.14v-6.75c0-.63.51-1.14 1.14-1.14.63 0 1.142.512 1.142 1.144v6.754z" fill="#fdc99b"/><path d="M435.072 507.335c-.054.5-.503.864-1.005.81l-4.6-.49c-.5-.053-.863-.503-.81-1.004.053-.5.504-.86 1.005-.81l4.6.49c.5.06.864.51.81 1.01zm-13.922-1.158c-.052.5-.502.863-1.004.81l-4.6-.49c-.5-.053-.863-.502-.81-1.004.054-.5.503-.865 1.005-.81l4.6.49c.5.052.87.502.81 1.004z" fill="#f8ba47"/><circle cx="431.477" cy="512.148" r="1.546"/><circle cx="417.277" cy="510.636" r="1.546"/><path d="M422.815 524.388c-1.652-.176-2.853-1.663-2.677-3.315.028-.26.263-.45.524-.422.262.03.45.27.422.53-.12 1.13.702 2.15 1.833 2.27 1.13.12 2.148-.7 2.268-1.83.027-.26.262-.45.524-.42.26.027.45.26.42.52-.18 1.65-1.67 2.85-3.32 2.677z" fill="#ed1a3b"/><path d="M424.366 516.557c-.054.5-.502.863-1.003.81-.5-.053-.863-.502-.81-1.002l.424-3.982c.053-.5.502-.864 1.003-.81.5.052.864.502.81 1.002l-.424 3.982z" fill="#f4a78e"/><circle cx="437.568" cy="516.521" r="2.342" fill="#fdc99b"/><circle cx="410.606" cy="515.411" r="2.341" fill="#fdc99b"/><circle cx="407.727" cy="510.037" r="2.327" fill="#f8ba47"/><circle cx="403.833" cy="512.527" r="2.327" fill="#f8ba47"/><circle cx="402.217" cy="516.748" r="2.327" fill="#f8ba47"/><circle cx="400.863" cy="521.19" r="2.327" fill="#f8ba47"/><path fill="#f8ba47" d="M400.864 522.73l1.316 2.28 1.317 2.28h-5.267l1.317-2.28z"/><path fill="#fff" d="M417.306 525.408l16.62 2.61-3.826 24.364-16.622-2.61z"/><circle cx="415.22" cy="548.922" r="5.463" fill="#fdc99b"/><path d="M426.192 499.94c0-1.14.506-2.163 1.303-2.86h-.025c-2.098 0-3.798 1.7-3.798 3.798s1.7 3.798 3.798 3.798c.956 0 1.827-.356 2.494-.94-2.085-.013-3.772-1.707-3.772-3.796z" fill="#f8ba47"/></g></svg>