<svg xmlns="http://www.w3.org/2000/svg" width="800" height="800" viewBox="0 0 800 800"><title>Escuchar historias</title><defs><filter id="a" x="-1.037" width="3.074" y="-1.117" height="3.233" color-interpolation-filters="sRGB"><feGaussianBlur stdDeviation="307.525"/></filter><clipPath><path d="M483.41 554.55l-135.95 1.346-.657-66.415 135.95-1.343z"/></clipPath><clipPath><path d="M290.907 557.09l-135.952 1.345-.658-66.413 135.953-1.346z"/></clipPath><radialGradient cx="286.342" cy="1010.726" r="8.723" gradientTransform="matrix(-2.333 -.031 .008 -.417 957.597 665.313)" gradientUnits="userSpaceOnUse"><stop offset="0" stop-color="#D7D6D5"/><stop offset=".095" stop-color="#CCCBCA"/><stop offset=".231" stop-color="#B5B3B3"/><stop offset=".393" stop-color="#939191"/><stop offset=".575" stop-color="#696767"/><stop offset=".773" stop-color="#3E3C3C"/><stop offset=".982" stop-color="#060606"/><stop offset=".994" stop-color="#010101"/></radialGradient><radialGradient cx="288.603" cy="929.008" r="13.677" gradientTransform="matrix(-2.059 -.023 .009 -.383 883.659 596.01)" gradientUnits="userSpaceOnUse"><stop offset="0" stop-color="#fff"/><stop offset=".859" stop-color="#fff"/><stop offset="1" stop-color="#fff"/></radialGradient><clipPath><path d="M143.348 496s2.305 8.896 0 23.717c-2.305 14.82-5.856 44.96 1.025 67.027 0 0 25.49 1.236 38.994-4.034 13.504-5.27 27.667-4.65 41.83.948 14.163 5.6 42.027 6.565 51.233 1.626 11.346-6.088 29.956-6.268 45.107.65 15.15 6.916 47.003 4.918 57.64-1.324 15.15-8.89 32.442-4.942 39.03-1.65 11.105 5.554 21.742 7 41.005 5.598 0 0-2.965-15.154-3.294-29.317-.33-14.16 4.94-39.24.988-63.24H143.348z"/></clipPath><clipPath><path d="M364.25 300.93c-23.78-17.457-97.887-17.457-121.67 0-25.19 18.49-35.006 56.7-5.033 87.66 0 0-24.334 44.486 8.932 74.788C264 479.34 279 481.808 303 481.84v.002c24-.034 39.658-2.48 57.183-18.444 33.266-30.302 8.997-74.808 8.997-74.808 29.973-30.96 20.26-69.17-4.93-87.66z"/></clipPath><clipPath><path d="M364.25 300.93c-23.78-17.457-97.887-17.457-121.67 0-25.19 18.49-35.006 56.7-5.033 87.66 0 0-24.334 44.486 8.932 74.788C264 479.34 279 481.808 303 481.84v.002c24-.034 39.658-2.48 57.183-18.444 33.266-30.302 8.997-74.808 8.997-74.808 29.973-30.96 20.26-69.17-4.93-87.66z"/></clipPath><clipPath><path d="M364.25 300.93c-23.78-17.457-97.887-17.457-121.67 0-25.19 18.49-35.006 56.7-5.033 87.66 0 0-24.334 44.486 8.932 74.788C264 479.34 279 481.808 303 481.84v.002c24-.034 39.658-2.48 57.183-18.444 33.266-30.302 8.997-74.808 8.997-74.808 29.973-30.96 20.26-69.17-4.93-87.66z"/></clipPath><clipPath><path d="M364.25 300.93c-23.78-17.457-97.887-17.457-121.67 0-25.19 18.49-35.006 56.7-5.033 87.66 0 0-24.334 44.486 8.932 74.788C264 479.34 279 481.808 303 481.84v.002c24-.034 39.658-2.48 57.183-18.444 33.266-30.302 8.997-74.808 8.997-74.808 29.973-30.96 20.26-69.17-4.93-87.66z"/></clipPath><clipPath><path d="M364.25 300.93c-23.78-17.457-97.887-17.457-121.67 0-25.19 18.49-35.006 56.7-5.033 87.66 0 0-24.334 44.486 8.932 74.788C264 479.34 279 481.808 303 481.84v.002c24-.034 39.658-2.48 57.183-18.444 33.266-30.302 8.997-74.808 8.997-74.808 29.973-30.96 20.26-69.17-4.93-87.66z"/></clipPath><clipPath><path d="M364.25 300.93c-23.78-17.457-97.887-17.457-121.67 0-25.19 18.49-35.006 56.7-5.033 87.66 0 0-24.334 44.486 8.932 74.788C264 479.34 279 481.808 303 481.84v.002c24-.034 39.658-2.48 57.183-18.444 33.266-30.302 8.997-74.808 8.997-74.808 29.973-30.96 20.26-69.17-4.93-87.66z"/></clipPath><clipPath><path d="M364.25 300.93c-23.78-17.457-97.887-17.457-121.67 0-25.19 18.49-35.006 56.7-5.033 87.66 0 0-24.334 44.486 8.932 74.788C264 479.34 279 481.808 303 481.84v.002c24-.034 39.658-2.48 57.183-18.444 33.266-30.302 8.997-74.808 8.997-74.808 29.973-30.96 20.26-69.17-4.93-87.66z"/></clipPath><clipPath><path d="M364.25 300.93c-23.78-17.457-97.887-17.457-121.67 0-25.19 18.49-35.006 56.7-5.033 87.66 0 0-24.334 44.486 8.932 74.788C264 479.34 279 481.808 303 481.84v.002c24-.034 39.658-2.48 57.183-18.444 33.266-30.302 8.997-74.808 8.997-74.808 29.973-30.96 20.26-69.17-4.93-87.66z"/></clipPath><clipPath><path d="M364.25 300.93c-23.78-17.457-97.887-17.457-121.67 0-25.19 18.49-35.006 56.7-5.033 87.66 0 0-24.334 44.486 8.932 74.788C264 479.34 279 481.808 303 481.84v.002c24-.034 39.658-2.48 57.183-18.444 33.266-30.302 8.997-74.808 8.997-74.808 29.973-30.96 20.26-69.17-4.93-87.66z"/></clipPath><clipPath><path d="M364.25 300.93c-23.78-17.457-97.887-17.457-121.67 0-25.19 18.49-35.006 56.7-5.033 87.66 0 0-24.334 44.486 8.932 74.788C264 479.34 279 481.808 303 481.84v.002c24-.034 39.658-2.48 57.183-18.444 33.266-30.302 8.997-74.808 8.997-74.808 29.973-30.96 20.26-69.17-4.93-87.66z"/></clipPath><clipPath><path d="M364.25 300.93c-23.78-17.457-97.887-17.457-121.67 0-25.19 18.49-35.006 56.7-5.033 87.66 0 0-24.334 44.486 8.932 74.788C264 479.34 279 481.808 303 481.84v.002c24-.034 39.658-2.48 57.183-18.444 33.266-30.302 8.997-74.808 8.997-74.808 29.973-30.96 20.26-69.17-4.93-87.66z"/></clipPath><clipPath><path d="M364.25 300.93c-23.78-17.457-97.887-17.457-121.67 0-25.19 18.49-35.006 56.7-5.033 87.66 0 0-24.334 44.486 8.932 74.788C264 479.34 279 481.808 303 481.84v.002c24-.034 39.658-2.48 57.183-18.444 33.266-30.302 8.997-74.808 8.997-74.808 29.973-30.96 20.26-69.17-4.93-87.66z"/></clipPath><clipPath><path d="M364.25 300.93c-23.78-17.457-97.887-17.457-121.67 0-25.19 18.49-35.006 56.7-5.033 87.66 0 0-24.334 44.486 8.932 74.788C264 479.34 279 481.808 303 481.84v.002c24-.034 39.658-2.48 57.183-18.444 33.266-30.302 8.997-74.808 8.997-74.808 29.973-30.96 20.26-69.17-4.93-87.66z"/></clipPath><clipPath><path d="M364.25 300.93c-23.78-17.457-97.887-17.457-121.67 0-25.19 18.49-35.006 56.7-5.033 87.66 0 0-24.334 44.486 8.932 74.788C264 479.34 279 481.808 303 481.84v.002c24-.034 39.658-2.48 57.183-18.444 33.266-30.302 8.997-74.808 8.997-74.808 29.973-30.96 20.26-69.17-4.93-87.66z"/></clipPath><clipPath><path d="M364.25 300.93c-23.78-17.457-97.887-17.457-121.67 0-25.19 18.49-35.006 56.7-5.033 87.66 0 0-24.334 44.486 8.932 74.788C264 479.34 279 481.808 303 481.84v.002c24-.034 39.658-2.48 57.183-18.444 33.266-30.302 8.997-74.808 8.997-74.808 29.973-30.96 20.26-69.17-4.93-87.66z"/></clipPath><clipPath><path d="M364.25 300.93c-23.78-17.457-97.887-17.457-121.67 0-25.19 18.49-35.006 56.7-5.033 87.66 0 0-24.334 44.486 8.932 74.788C264 479.34 279 481.808 303 481.84v.002c24-.034 39.658-2.48 57.183-18.444 33.266-30.302 8.997-74.808 8.997-74.808 29.973-30.96 20.26-69.17-4.93-87.66z"/></clipPath><clipPath><path d="M364.25 300.93c-23.78-17.457-97.887-17.457-121.67 0-25.19 18.49-35.006 56.7-5.033 87.66 0 0-24.334 44.486 8.932 74.788C264 479.34 279 481.808 303 481.84v.002c24-.034 39.658-2.48 57.183-18.444 33.266-30.302 8.997-74.808 8.997-74.808 29.973-30.96 20.26-69.17-4.93-87.66z"/></clipPath><clipPath><path d="M144.658 369.334c-.213-.266 15.51-.972 15.51-.972s-6.363 12.353-15.51.972z"/></clipPath><clipPath><path d="M263.16 409.113c0-7.137-5.57-12.923-12.44-12.923-6.87 0-12.44 5.786-12.44 12.923 0 3.35 1.23 6.404 3.243 8.7 0 0 5.354 7.06 5.658 10.738h7.084c.304-3.674 5.66-10.734 5.66-10.734 2.01-2.297 3.24-5.35 3.24-8.7z"/></clipPath><clipPath><path d="M345.41 379.523l-1.435-.186c-.068-.804-.262-1.576-.562-2.294l1.192-.963c.128-.103.15-.297.052-.43l-1.662-2.22c-.1-.133-.286-.157-.413-.054l-1.142.923c-.58-.506-1.236-.92-1.957-1.215l.187-1.555c.02-.166-.095-.32-.256-.34l-2.686-.35c-.16-.02-.31.1-.33.266l-.178 1.49c-.773.072-1.517.273-2.208.585l-.927-1.236c-.1-.133-.285-.157-.413-.054l-2.136 1.726c-.128.103-.15.297-.052.43l.89 1.187c-.486.6-.883 1.284-1.167 2.034l-1.496-.194c-.16-.02-.306.1-.326.266l-.336 2.79c-.02.165.095.32.256.34l1.435.186c.067.804.26 1.576.56 2.294l-1.192.964c-.128.103-.15.297-.052.43l1.662 2.22c.1.133.286.157.413.054l1.143-.924c.58.504 1.236.917 1.957 1.212l-.19 1.555c-.02.17.096.32.257.344l2.686.35c.16.02.31-.1.33-.267l.178-1.49c.775-.072 1.52-.273 2.21-.585l.927 1.24c.1.133.286.157.413.054l2.135-1.727c.128-.104.15-.298.052-.43l-.89-1.188c.486-.6.883-1.283 1.168-2.033l1.496.193c.16.023.31-.097.33-.264l.337-2.79c.02-.168-.096-.32-.257-.343zm-8.893 3.285c-1.494-.194-2.554-1.61-2.367-3.162.187-1.552 1.55-2.653 3.043-2.46 1.494.195 2.554 1.61 2.367 3.163-.187 1.55-1.55 2.65-3.043 2.456z"/></clipPath><linearGradient gradientUnits="userSpaceOnUse" x1="340.484" y1="493.008" x2="293.65" y2="418.346"><stop offset="0" stop-color="#fff" stop-opacity="0"/><stop offset="1" stop-color="#002D3F"/></linearGradient><linearGradient gradientUnits="userSpaceOnUse" x1="155.502" y1="472.692" x2="141.33" y2="447.749"><stop offset="0" stop-color="#fff" stop-opacity="0"/><stop offset="1" stop-color="#002D3F"/></linearGradient><linearGradient gradientUnits="userSpaceOnUse" x1="306.121" y1="568.75" x2="292.813" y2="545.327"><stop offset="0" stop-color="#fff" stop-opacity="0"/><stop offset="1" stop-color="#002D3F"/></linearGradient><linearGradient gradientUnits="userSpaceOnUse" x1="485.452" y1="539.392" x2="459.88" y2="486.219"><stop offset="0" stop-color="#fff" stop-opacity="0"/><stop offset="1" stop-color="#002D3F"/></linearGradient><linearGradient gradientUnits="userSpaceOnUse" x1="403.59" y1="610.142" x2="385.936" y2="573.431"><stop offset="0" stop-color="#fff" stop-opacity="0"/><stop offset="1" stop-color="#002D3F"/></linearGradient><linearGradient gradientUnits="userSpaceOnUse" x1="242.337" y1="592.741" x2="229.488" y2="569.688"><stop offset="0" stop-color="#fff" stop-opacity="0"/><stop offset="1" stop-color="#002D3F"/></linearGradient><linearGradient gradientUnits="userSpaceOnUse" x1="173.55" y1="573.1" x2="151.867" y2="528.012"><stop offset="0" stop-color="#fff" stop-opacity="0"/><stop offset="1" stop-color="#002D3F"/></linearGradient><linearGradient gradientUnits="userSpaceOnUse" x1="151.699" y1="398.772" x2="141.495" y2="374.586"><stop offset="0" stop-color="#fff" stop-opacity="0"/><stop offset="1" stop-color="#002D3F"/></linearGradient><linearGradient gradientUnits="userSpaceOnUse" x1="163.873" y1="331.586" x2="154.32" y2="314.469"><stop offset="0" stop-color="#fff" stop-opacity="0"/><stop offset="1" stop-color="#002D3F"/></linearGradient><linearGradient gradientUnits="userSpaceOnUse" x1="448.18" y1="362.812" x2="439.11" y2="330.5"><stop offset="0" stop-color="#fff" stop-opacity="0"/><stop offset="1" stop-color="#002D3F"/></linearGradient><linearGradient gradientUnits="userSpaceOnUse" x1="480.342" y1="435.964" x2="452.565" y2="376.441"><stop offset="0" stop-color="#fff" stop-opacity="0"/><stop offset="1" stop-color="#002D3F"/></linearGradient><linearGradient gradientUnits="userSpaceOnUse" x1="253.297" y1="337.978" x2="250.862" y2="305.71"><stop offset="0" stop-color="#fff" stop-opacity="0"/><stop offset="1" stop-color="#002D3F"/></linearGradient><linearGradient gradientUnits="userSpaceOnUse" x1="379.649" y1="321.783" x2="367.714" y2="285.409"><stop offset="0" stop-color="#fff" stop-opacity="0"/><stop offset="1" stop-color="#002D3F"/></linearGradient></defs><rect width="711.864" height="661.017" x="57.627" y="54.237" rx="1.542" ry="1.143" fill="#efe2c2" fill-opacity="0" filter="url(#a)"/><path d="M283.785 221.817H243.96v69.903h5.585V263.6h34.24v28.12h5.586v-69.903h-5.583zm0 35.036h-34.24v-9.693h34.24v9.693z" fill="#d9a77f"/><g transform="translate(88.475 -58.839)"><path d="M196.88 268.456h-37.108c-3.285 0-5.947 2.663-5.947 5.947 0 3.284 2.663 5.946 5.947 5.946h2.547v15.855h32.01V280.35h2.548c3.283 0 5.946-2.663 5.946-5.947 0-3.284-2.663-5.947-5.947-5.947zm-34.56 32.23h32.013v21.646H162.32z" fill="#6d868a"/><path opacity=".61" fill="#6d868a" d="M162.32 300.686h32.013v21.646H162.32z"/><path fill="#d9a77f" d="M218.288 302.088v48.472h6.66v-48.472h5.788v-7.77h-104.82v7.77h5.787v48.472h6.66v-48.472z"/><path d="M176.512 346.2v-31.915c0-3.92-3.178-7.1-7.1-7.1-3.92 0-7.098 3.18-7.098 7.1V346.2h14.198zm17.818 0v-31.915c0-3.92-3.18-7.1-7.1-7.1-3.92 0-7.1 3.18-7.1 7.1V346.2h14.2z" fill="#6a72ac"/><path d="M196.138 350.56c0-4.992-4.047-9.04-9.04-9.04-4.99 0-9.038 4.048-9.038 9.04h18.078zm-17.816 0c0-4.992-4.047-9.04-9.04-9.04-4.99 0-9.038 4.048-9.038 9.04h18.078z" fill="#3d2e1f"/><path d="M192.598 251.567c0-7.882-6.39-14.272-14.272-14.272-7.882 0-14.272 6.39-14.272 14.272 0 6.722 4.65 12.355 10.906 13.87v2.803c-.007.084-.013.168-.013.253 0 1.866 1.513 3.38 3.38 3.38 1.866 0 3.38-1.513 3.38-3.38 0-.086-.008-.17-.014-.253v-2.804c6.256-1.514 10.905-7.148 10.905-13.87z" fill="#fdc99b"/><path d="M147.382 261.83c-1.178-2.567-.05-5.602 2.516-6.78 2.567-1.178 5.603-.05 6.78 2.517l6.91 15.063c1.176 2.567.05 5.603-2.518 6.78-2.567 1.178-5.603.052-6.78-2.516l-6.908-15.063zm45.41 13.873c-1.177-2.568-.05-5.603 2.518-6.78 2.567-1.178 5.603-.05 6.78 2.517l6.91 15.063c1.177 2.568.05 5.603-2.517 6.78-2.568 1.178-5.603.05-6.78-2.516l-6.91-15.064zm-4.99 18.615c-2.824.012-5.123-2.267-5.136-5.09-.013-2.826 2.267-5.125 5.09-5.138l16.572-.074c2.825-.013 5.125 2.267 5.137 5.09.013 2.826-2.267 5.125-5.092 5.138l-16.57.074zm-38.27-52.756c.468-2.786 3.106-4.664 5.89-4.196 2.787.468 4.665 3.106 4.197 5.892l-2.75 16.342c-.47 2.786-3.107 4.664-5.893 4.196-2.785-.47-4.664-3.106-4.195-5.89l2.747-16.344z" fill="#6d868a"/><circle cx="155" cy="240.436" r="5.462" fill="#fdc99b"/><path d="M154.383 237.547c0 .63-.51 1.143-1.143 1.143-.63 0-1.143-.51-1.143-1.143v-6.754c0-.632.512-1.143 1.143-1.143.632 0 1.143.512 1.143 1.143v6.754z" fill="#fdc99b"/><path d="M187.405 244.44c.083.496-.253.967-.75 1.05l-4.564.757c-.494.083-.965-.253-1.05-.75-.08-.498.256-.968.75-1.05l4.566-.76c.5-.082.97.254 1.05.752zm-14.085 2.34c.082.497-.254.967-.752 1.05l-4.562.758c-.498.083-.968-.253-1.05-.75-.083-.498.253-.97.75-1.05l4.562-.76c.498-.082.97.255 1.05.752z" fill="#fbac44"/><circle cx="184.824" cy="248.582" r="1.546"/><circle cx="170.738" cy="250.923" r="1.546"/><path d="M179.25 260.882c-1.64.273-3.194-.84-3.467-2.478-.043-.26.132-.504.39-.547.26-.043.505.132.548.39.19 1.122 1.25 1.883 2.375 1.697 1.122-.186 1.882-1.25 1.696-2.372-.044-.26.13-.504.39-.547.26-.043.505.132.548.39.274 1.64-.838 3.194-2.477 3.467z" fill="#ed1a3b"/><path d="M179.152 254.732c.082.497-.254.967-.75 1.05-.498.082-.967-.254-1.05-.75l-.656-3.95c-.083-.498.253-.967.75-1.05.497-.083.967.253 1.05.75l.656 3.95z" fill="#f4a78e"/><path d="M175.723 238.497c.15 1.657-2.395 2.865-3.44 3.954-1.012 1.06-2.932 1.35-4.386 2.72-.78.737-1.16 1.61-1.535 2.576-.558 1.432-1.148 2.895-1.366 4.423-.26 1.827.507 4.377.612 6.226-2.166-2.746-3.91-6.624-4.12-10.18-.177-3.014.405-5.865 2.564-8.6.93-1.177 2.536-2.58 3.787-3.33.975-.588 1.92-.93 2.832-1.482-.406-.276-1.11-.236-1.45-.547 1.296-.674 3.14-.778 4.473-.266.546-1.144 3.36-2.122 4.505-2.45-.236.77-1.422 1.35-1.827 2.12 2.267.16 4.745-.517 6.904.245 1.994.704 4.362 2.03 5.97 3.39 1.225 1.036 2.577 2.666 3.195 4.194.552 1.367.898 2.62 1.164 4.063.357 1.932-.466 4.814-1.017 6.618-.02-3.433-1.275-7.88-4.1-10.057-1.726-1.332-2.993-2.056-5.14-2.25-1.676-.154-3.424-.24-5.06-.483-.766-.115-2.026-.256-2.57-.884z" fill="#fbac44"/><circle cx="192.163" cy="248.601" r="2.341" fill="#fdc99b"/><circle cx="165.205" cy="256.629" r="2.341" fill="#fdc99b"/><circle cx="184.223" cy="289.166" r="5.462" fill="#fdc99b"/></g><g transform="translate(88.475 -58.839)"><circle cx="299.943" cy="246.104" r="15.63" fill="#9c3834"/><path d="M318.497 268.456H281.39c-3.285 0-5.947 2.663-5.947 5.947 0 3.284 2.663 5.946 5.946 5.946h2.544v15.855h32.015V280.35h2.546c3.285 0 5.947-2.663 5.947-5.947 0-3.284-2.663-5.947-5.947-5.947z" fill="#f26c62"/><path fill="#6d868a" d="M283.936 300.686h32.015v21.646H283.94z"/><path d="M298.13 346.2v-31.915c0-3.92-3.18-7.1-7.1-7.1-3.92 0-7.098 3.18-7.098 7.1V346.2h14.198zm17.816 0v-31.915c0-3.92-3.178-7.1-7.1-7.1-3.92 0-7.098 3.18-7.098 7.1V346.2h14.198z" fill="#fdc99b"/><path d="M317.756 350.56c0-4.992-4.047-9.04-9.04-9.04-4.992 0-9.038 4.048-9.038 9.04h18.078zm-17.816 0c0-4.992-4.048-9.04-9.04-9.04-4.992 0-9.04 4.048-9.04 9.04h18.08z" fill="#9c3834"/><path d="M314.215 251.567c0-7.882-6.39-14.272-14.272-14.272-7.882 0-14.272 6.39-14.272 14.272 0 6.722 4.65 12.355 10.908 13.87v2.803c-.006.084-.013.168-.013.253 0 1.866 1.513 3.38 3.38 3.38s3.38-1.513 3.38-3.38c0-.086-.008-.17-.014-.253v-2.804c6.258-1.514 10.906-7.148 10.906-13.87z" fill="#fdc99b"/><path d="M277.013 291.11c-1.367 2.47-4.478 3.367-6.95 2-2.472-1.367-3.368-4.48-2-6.95l8.018-14.502c1.37-2.472 4.48-3.368 6.95-2 2.474 1.365 3.37 4.478 2.004 6.95l-8.02 14.5zm37.397-15.407c-1.176-2.568-.05-5.603 2.517-6.78 2.568-1.178 5.604-.05 6.78 2.517l6.91 15.063c1.176 2.568.05 5.603-2.518 6.78-2.57 1.178-5.606.05-6.784-2.516l-6.907-15.064zm-4.99 18.615c-2.825.012-5.124-2.267-5.137-5.09-.013-2.826 2.266-5.125 5.09-5.138l16.572-.074c2.825-.013 5.125 2.267 5.137 5.09.012 2.826-2.267 5.125-5.092 5.138l-16.57.074zm-36.86 0c-2.826.012-5.125-2.267-5.138-5.09-.013-2.826 2.266-5.125 5.09-5.138l16.573-.074c2.825-.013 5.125 2.267 5.137 5.09.012 2.826-2.267 5.125-5.092 5.138l-16.57.074z" fill="#f26c62"/><path d="M309.13 285.708c0 .63-.51 1.143-1.142 1.143-.63 0-1.143-.51-1.143-1.14v-6.754c0-.63.512-1.143 1.143-1.143.63 0 1.143.513 1.143 1.144v6.754zm1.576-34.76c-.148.482-.657.754-1.14.607l-4.424-1.348c-.48-.147-.754-.657-.607-1.14.147-.48.657-.753 1.14-.607l4.424 1.35c.48.146.75.656.604 1.138zm-14.216-1.63c.108.492-.2.98-.693 1.09l-4.514 1.007c-.492.11-.98-.2-1.09-.693-.11-.49.2-.98.692-1.09l4.514-1.006c.49-.11.98.2 1.09.692z" fill="#9c3834"/><circle cx="307.623" cy="253.672" r="1.547"/><circle cx="293.344" cy="253.684" r="1.546"/><path d="M301.024 256.628c0 .504-.408.912-.91.913-.505 0-.913-.405-.913-.91v-4.002c0-.503.407-.912.91-.912.504 0 .914.407.914.91l.002 4.004z" fill="#f4a78e"/><path d="M315.95 323.69v-10.41c0-8.84-7.167-16.005-16.006-16.005-8.84 0-16.005 7.166-16.005 16.005v10.413h32.01z" fill="#6d868a"/><path fill="#d9a77f" d="M339.905 302.088v48.472h6.66v-48.472h5.788v-7.77h-104.82v7.77h5.787v48.472h6.66v-48.472z"/><circle cx="307.988" cy="289.167" r="5.463" fill="#fdc99b"/><circle cx="292.355" cy="289.167" r="5.463" fill="#fdc99b"/><path d="M302.702 262.168h-5.518c-.337 0-.61-.273-.61-.61 0-.337.273-.61.61-.61h5.518c.337 0 .61.273.61.61 0 .337-.273.61-.61.61z" fill="#ed1a3b"/><path d="M297.808 231.672c-.89-.673.533-2.552 1.123-3.162 1.136-1.172 2.4-2.174 4.058-2.227 2.847-.09 5.367 2.19 6.897 4.37 1.43 2.037 3.363 4.426 5.8 5.213 1.007.326 2.408.632 3.48.483 1.098-.156 1.93-.85 2.93-1.21-.187 5.66-6.885 9.216-11.425 5.89-1.25-.914-2.297-2.024-3.805-2.57-1.26-.46-2.155-.62-3.237-1.4-.703-.508-3.022-2.306-3.682-2.136l-2.137-3.254zm-12.568 19.073c1.597-1.05 3.736-1.993 5.4-2.957 1.913-1.11 4.5-2.686 6.355-3.915 1.805-1.195 5.542-3.508 7.4-5.867.59.725 3.65 3.736 4.52 4.85.722.924 1.853 2.73 2.524 3.66.56.784 2.065 3.773 2.96 3.833.28-1.058.183-2.51.183-3.624 0-1.607-.125-3.676-.602-5.193-1.4-4.46-4.595-7.86-9.466-8.468-3.7-.46-7.445.54-10.788 2.1-1.488.693-2.917 1.218-4.19 2.28-.494.41-2.285 3.3-1.796 3.173l-2.5 10.124z" fill="#9c3834"/><circle cx="313.998" cy="252.126" r="2.342" fill="#fdc99b"/><circle cx="285.888" cy="252.125" r="2.341" fill="#fdc99b"/><path d="M273.074 230.022c.88-.187 1.596.138 2.148.973.424.395.7.88.82 1.46.226 1.06-.716 2.553-2.825 4.483l-.066.167.91 3.076.08.14c.06.6-.136.95-.592 1.045-.464.1-1.125-1.327-1.983-4.277-.066-.87.17-1.364.707-1.478.62-.286 1.38-1.043 2.276-2.273.07-.312.09-.538.06-.677l-.01-.05c-.152-.716-.538-1.01-1.157-.877l-.39.083c-.482.102-1.07.773-1.77 2.01l-.506.262c-.285.06-.49-.1-.613-.483-.13-.603.333-1.552 1.386-2.85.53-.384 1.04-.63 1.53-.733zm2.07 16.454l.148-.03c.4-.086.817.2 1.255.855-.098.705-.338 1.097-.72 1.178l-.284.11c-.448.096-.795-.255-1.042-1.054-.04-.603.175-.955.647-1.056z" fill="#3d2e1f"/></g><g transform="translate(88.475 -58.839)"><path d="M438.797 280.656H398.97v69.902h5.587v-28.12h34.24v28.12h5.586v-69.905h-5.586zm0 35.036h-34.24V306h34.24v9.692z" fill="#d9a77f"/><path d="M440.23 268.456h-37.108c-3.284 0-5.946 2.663-5.946 5.947 0 3.284 2.663 5.946 5.946 5.946h2.547v15.855h32.012V280.35h2.546c3.284 0 5.946-2.663 5.946-5.947 0-3.284-2.662-5.947-5.947-5.947zm-34.677 32.23h32.015v21.646h-32.015z" fill="#6278a8"/><path opacity=".61" fill="#6278a8" d="M405.553 300.686h32.015v21.646h-32.015z"/><path fill="#d9a77f" d="M461.523 302.088v48.472h6.66v-48.472h5.788v-7.77H369.15v7.77h5.788v48.472h6.66v-48.472z"/><path d="M419.747 346.2v-31.915c0-3.92-3.178-7.1-7.1-7.1-3.92 0-7.097 3.18-7.097 7.1V346.2h14.197zm17.817 0v-31.915c0-3.92-3.18-7.1-7.1-7.1-3.92 0-7.098 3.18-7.098 7.1V346.2h14.198z" fill="#915c3d"/><path d="M439.373 350.56c0-4.992-4.046-9.04-9.04-9.04-4.992 0-9.04 4.048-9.04 9.04h18.08zm-17.817 0c0-4.992-4.047-9.04-9.04-9.04-4.99 0-9.037 4.048-9.037 9.04h18.074z"/><circle cx="434.777" cy="261.507" r="2.342" fill="#fdc99b"/><path d="M398.746 291.11c-1.367 2.47-4.48 3.367-6.95 2-2.47-1.367-3.367-4.48-2-6.95l8.018-14.502c1.366-2.472 4.478-3.368 6.95-2 2.47 1.365 3.366 4.478 2 6.95l-8.018 14.5zm37.398-15.407c-1.177-2.568-.05-5.603 2.516-6.78 2.568-1.178 5.604-.05 6.78 2.517l6.91 15.063c1.176 2.568.05 5.603-2.518 6.78-2.567 1.178-5.603.05-6.78-2.516l-6.908-15.064zm-4.99 18.615c-2.825.012-5.124-2.267-5.137-5.09-.013-2.826 2.266-5.125 5.09-5.138l16.572-.074c2.822-.013 5.122 2.267 5.134 5.09.012 2.826-2.267 5.125-5.092 5.138l-16.57.074zm-36.862 0c-2.824.012-5.124-2.267-5.137-5.09-.013-2.826 2.266-5.125 5.09-5.138l16.572-.074c2.825-.013 5.125 2.267 5.138 5.09.012 2.826-2.268 5.125-5.093 5.138l-16.57.074z" fill="#6278a8"/><circle cx="429.721" cy="289.167" r="5.463" fill="#fdc99b"/><circle cx="414.088" cy="289.167" r="5.463" fill="#fdc99b"/><circle cx="421.159" cy="265.847" r="14.272" fill="#fdc99b"/><circle cx="408.626" cy="272.764" r="2.341" fill="#fdc99b"/><path d="M425.413 276.93c.14.485-.14.99-.625 1.13-.485.137-.988-.143-1.127-.627l-1.1-3.85c-.14-.483.14-.988.626-1.126.484-.14.99.142 1.128.626l1.1 3.848z" fill="#f4a78e"/><path d="M415.666 274.805c-1.248.208-2.433-.64-2.64-1.888-.033-.197.1-.384.298-.417.197-.032.383.1.416.298.142.854.953 1.433 1.808 1.29.854-.14 1.433-.95 1.292-1.805-.034-.198.1-.385.298-.417.197-.033.384.1.416.298.207 1.25-.64 2.434-1.888 2.64zm14.544-3.995c-1.247.208-2.432-.64-2.64-1.888-.032-.197.1-.384.3-.417.196-.033.382.1.415.298.142.854.953 1.433 1.808 1.29.854-.14 1.433-.95 1.292-1.805-.034-.198.1-.385.298-.417.197-.03.384.104.416.3.204 1.25-.64 2.435-1.89 2.64z"/><path d="M432.28 264.518c.168.475-.082.996-.558 1.164l-4.363 1.533c-.48.167-1-.083-1.167-.56-.167-.475.083-.996.558-1.163l4.364-1.534c.477-.166.998.084 1.165.56zm-14.883 4.828c.082.497-.254.967-.75 1.05l-4.564.758c-.496.082-.968-.254-1.05-.75-.082-.498.253-.97.75-1.05l4.563-.76c.498-.08.968.255 1.05.752zm3.748-8.85c-.207 1.196-1.513 2.52-2.56 3.005.04-.466.064-.984.18-1.45-.186 1.85-3.057 3.43-4.415 4.437-1.626 1.206-3.587 2.822-5.498 3.537.544-.45 1.118-1.64 1.413-2.415-.736 1.473-2.194 3.106-3.6 3.88.324-2.773-2.14-6.573-2.393-9.38-.35-3.86 1.365-8.16 4.304-10.66 5.486-4.673 13.485-6.21 19.57-2.073 1.614 1.098 2.818 2.038 4.125 3.446 1.298 1.395 2.895 2.428 4.85 2.602-.17 1.06-1.45 2.53-2.51 2.863.688.194 1.4.064 1.97-.328-.4 2.273-4 6.744-6.506 4 .665.485 1.243.996 2.1 1.076-2.3 2.754-10.024.503-10.896-2.367l-.13-.17z" fill="#e37528"/><path d="M430.948 235.438l.566.38c.123.083.325.178.603.28l.024.01 1.037.367c.263.17.362.345.295.523-.407.317-1.13 1.017-2.17 2.1-1.037 1.085-1.68 1.752-1.92 2.002l-.02.05c-.016.043.454.244 1.41.6.308.116.52.182.635.2.294.185.402.38.324.59-.042.113-.236.122-.58.027l-1.196-.52-1.454-.412c-.25-.16-.35-.306-.3-.432l.03-.082c.075-.203.76-.9 2.044-2.083 1.287-1.185 1.954-1.844 2.004-1.975l.068-.18c-1.228-.46-1.903-.86-2.028-1.21l.018-.047c.056-.004.108-.072.157-.204.117-.056.27-.05.456.02zm4.196 1.567l.567.38c.126.083.328.177.606.28l.024.01 1.033.367c.263.17.362.345.296.523-.41.317-1.135 1.017-2.17 2.1l-1.92 2.002-.02.05c-.018.043.452.244 1.41.6.306.116.52.182.633.2.294.185.403.382.325.59-.043.112-.237.12-.583.026l-1.195-.52-1.453-.412c-.25-.16-.35-.303-.303-.43l.03-.08c.077-.207.76-.9 2.047-2.087 1.288-1.184 1.956-1.843 2.005-1.974l.068-.18c-1.227-.46-1.904-.863-2.028-1.21l.018-.05c.056-.003.108-.07.158-.203.114-.056.266-.05.453.02zm4.196 1.565l.567.38c.124.084.325.178.604.282l.027.01 1.034.366c.263.17.36.345.296.523-.41.32-1.133 1.02-2.17 2.104-1.038 1.084-1.68 1.75-1.922 2l-.018.05c-.017.044.453.245 1.41.602.307.115.52.18.634.2.292.184.4.38.322.59-.042.11-.236.12-.582.026l-1.194-.52-1.453-.41c-.248-.16-.35-.306-.302-.433l.034-.083c.077-.206.758-.9 2.045-2.086s1.954-1.844 2.003-1.975l.07-.18c-1.228-.46-1.905-.862-2.03-1.21l.018-.048c.057-.004.11-.072.16-.203.115-.057.267-.05.454.02zm2.308 7.12c.28.172.394.332.337.483-.057.154-.216.213-.475.18-.263-.1-.375-.285-.337-.558.044-.118.202-.153.475-.104zm2.026.757c.282.17.394.332.338.483-.057.154-.216.213-.476.18-.263-.1-.375-.285-.336-.558.044-.118.2-.153.474-.105zm2.026.757c.282.17.395.332.338.483-.057.154-.216.213-.475.18-.263-.1-.375-.285-.337-.558.043-.12.202-.156.475-.108z" fill="#3d2e1f"/></g><g transform="translate(88.475 -58.839)"><path fill="#89321d" d="M156.857 373.107h33.092v30.402h-33.095z"/><path d="M195.483 410.524h-39.826v69.903h5.586v-28.12h34.24v28.12h5.586v-69.903h-5.59zm0 35.036h-34.24v-9.693h34.24v9.693z" fill="#d9a77f"/><path d="M196.88 398.326h-37.108c-3.285 0-5.947 2.662-5.947 5.947 0 3.284 2.663 5.947 5.947 5.947h2.547v15.857h32.01V410.22h2.548c3.283 0 5.946-2.663 5.946-5.947 0-3.285-2.663-5.947-5.947-5.947zm-34.56 32.23h32.013v21.646H162.32z" fill="#dba538"/><path opacity=".61" fill="#dba538" d="M162.32 430.556h32.013v21.646H162.32z"/><path fill="#d9a77f" d="M218.288 431.957v48.47h6.66v-48.47h5.788v-7.77h-104.82v7.77h5.787v48.47h6.66v-48.47z"/><path d="M176.512 476.068v-31.913c0-3.92-3.178-7.1-7.1-7.1-3.92 0-7.098 3.18-7.098 7.1v31.913h14.198zm17.818 0v-31.913c0-3.92-3.18-7.1-7.1-7.1-3.92 0-7.1 3.18-7.1 7.1v31.913h14.2z" fill="#e94475"/><path d="M196.138 480.428c0-4.99-4.047-9.04-9.04-9.04-4.99 0-9.038 4.05-9.038 9.04h18.078zm-17.816 0c0-4.99-4.047-9.04-9.04-9.04-4.99 0-9.038 4.05-9.038 9.04h18.078z" fill="#3d2e1f"/><path d="M188.402 379.778c-.967-7.823-8.092-13.38-15.915-12.414-7.823.967-13.38 8.092-12.414 15.915.825 6.67 6.13 11.69 12.524 12.424l.344 2.783c.006.083.01.167.02.252.23 1.85 1.917 3.167 3.77 2.94 1.852-.23 3.17-1.918 2.94-3.77-.01-.085-.028-.167-.045-.25l-.344-2.783c6.025-2.27 9.948-8.43 9.123-15.102z" fill="#fdc99b"/><path d="M155.573 420.692c-1.34 2.487-4.44 3.417-6.928 2.077-2.486-1.34-3.417-4.444-2.077-6.93l7.86-14.59c1.338-2.486 4.44-3.416 6.927-2.077 2.486 1.34 3.416 4.442 2.077 6.928l-7.86 14.59zm37.22-15.118c-1.178-2.568-.05-5.603 2.517-6.78 2.567-1.178 5.603-.052 6.78 2.516l6.91 15.063c1.177 2.567.05 5.603-2.517 6.78-2.568 1.178-5.603.05-6.78-2.516l-6.91-15.063zm-4.99 18.613c-2.825.013-5.124-2.266-5.137-5.09-.013-2.825 2.267-5.125 5.09-5.138l16.572-.076c2.825-.013 5.125 2.266 5.137 5.09.013 2.826-2.267 5.126-5.092 5.14l-16.57.07z" fill="#dba538"/><circle cx="187.23" cy="419.036" r="5.462" fill="#fdc99b"/><path d="M183.633 374.78c.098.493-.223.974-.717 1.072l-4.536.904c-.495.098-.975-.223-1.074-.717-.098-.498.223-.978.717-1.077l4.536-.904c.49-.097.972.224 1.07.72zm-14.005 2.79c.098.494-.222.974-.717 1.073l-4.533.904c-.495.098-.976-.223-1.075-.717-.097-.494.224-.975.718-1.073l4.536-.904c.496-.1.977.222 1.075.716z" fill="#89321d"/><path d="M176.007 391.474c-1.63.325-3.22-.736-3.544-2.366-.052-.257.116-.508.374-.56.257-.05.508.117.56.375.22 1.115 1.31 1.84 2.423 1.618 1.116-.22 1.842-1.31 1.62-2.422-.053-.257.115-.508.372-.56.258-.05.508.117.56.375.326 1.63-.735 3.22-2.365 3.544z" fill="#ed1a3b"/><path d="M167.564 384.245c-1.115.223-2.203-.504-2.425-1.62-.038-.176.076-.347.253-.383.176-.035.348.08.383.256.152.763.896 1.26 1.66 1.108.763-.152 1.26-.896 1.107-1.66-.035-.176.08-.348.256-.383.177-.035.35.08.382.256.223 1.113-.503 2.2-1.62 2.423zm14.066-2.435c-1.115.22-2.203-.505-2.426-1.62-.035-.177.08-.35.256-.384.176-.035.348.08.383.256.152.763.896 1.26 1.66 1.108.764-.15 1.26-.896 1.108-1.66-.032-.175.08-.347.258-.382.177-.035.348.08.383.257.223 1.114-.503 2.2-1.62 2.424z" fill="#3d2e1f"/><path d="M175.713 385.33c.098.495-.223.975-.717 1.073-.493.1-.974-.222-1.072-.716l-.782-3.926c-.1-.49.222-.97.716-1.07.494-.1.974.223 1.072.716l.783 3.927z" fill="#f4a78e"/><circle cx="187.607" cy="376.888" r="2.341" fill="#fdc99b"/><circle cx="161.837" cy="388.162" r="2.341" fill="#fdc99b"/><path d="M171.96 368.842c3.013 6.534-11.34 8.51-8.414 16.16.54 1.412 1.687 2.544 2.19 4.034.632 1.877.242 3.48-.306 5.293-.62 2.05-.787 3.545.19 5.464.742 1.46 1.788 2.692 2.377 4.206 1.118 2.88 1.613 5.178-.65 8.203-1.46-1.82-4.605-3.72-6.26-4.095-3.243-.734-5.75-3.74-6.047-7.098-.135-1.52.21-3.06.16-4.534-.057-1.592-.878-2.983-1.625-4.38-2.148-4.02-2.846-9.324-2.122-13.848 1.283-8.015 7.36-13.106 14.89-14.998 3.018-.758 5.842-.23 8.63.755 1.5.53 2.665.972 4.234 1.06 2 .114 4.23-.075 6.036.53 3.91 1.31 6.997 5.36 8.316 9.158 1.385 3.997.344 7.565-.46 11.488-.406 1.98-.594 4.21.147 6.12.776 2.005 2.304 3.54 3.208 5.47 1.692 3.612.738 7.116-1.993 9.943-.97 1.004-2.363 1.664-3.15 2.854-.055-1.99-.498-3.9-1.23-5.773-1.04-2.658-3.15-4.16-4.38-6.56-2.54-4.963.642-7.85 2.45-12.12 2.317-5.465-1.54-13.1-7.134-14.57-1.617-.426-3.25-.248-4.825-.91-1.17-.494-3.362-1.356-3.934-2.455l-.3.6z" fill="#89321d"/><path d="M151.315 400.926c.87-2.687 3.755-4.16 6.442-3.288 2.687.87 4.16 3.755 3.29 6.442l-5.11 15.764c-.87 2.687-3.755 4.16-6.442 3.288-2.687-.87-4.16-3.754-3.288-6.44l5.108-15.766z" fill="#dba538"/><circle cx="156.857" cy="399.785" r="5.462" fill="#fdc99b"/><path d="M207.35 368.293c-.8-.97-2.06-.738-3.294.064.192-1.46-.14-2.697-1.363-3-1.454-.363-3 .81-3.448 2.617-.45 1.81 1.33 5.89 1.33 5.89l.026-.026-.01.034s4.45-.153 5.89-1.34c1.435-1.184 1.827-3.083.873-4.24zm-1.775 11.88c-.487-.59-1.252-.45-2.002.04.116-.89-.086-1.64-.828-1.825-.884-.22-1.822.492-2.095 1.59-.273 1.1.808 3.578.808 3.578l.016-.016-.007.02s2.703-.092 3.576-.813c.873-.72 1.11-1.873.532-2.575z" fill="#ed1a3b"/></g><g transform="translate(88.475 -58.839)"><path d="M317.063 410.524h-39.826v69.903h5.586v-28.12h34.24v28.12h5.586v-69.903h-5.59zm0 35.036h-34.24v-9.693h34.24v9.693z" fill="#d9a77f"/><path d="M318.497 398.326H281.39c-3.285 0-5.947 2.662-5.947 5.947 0 3.284 2.663 5.947 5.946 5.947h2.544v15.857h32.015V410.22h2.546c3.285 0 5.947-2.663 5.947-5.947 0-3.285-2.663-5.947-5.947-5.947zm-34.56 32.23h32.014v21.646H283.94z" fill="#6ec5a6"/><path opacity=".61" fill="#6ec5a6" d="M283.936 430.556h32.015v21.646H283.94z"/><path fill="#d9a77f" d="M335.613 436.212v48.472h6.66v-48.472h5.788v-7.77H243.24v7.77h5.788v48.472h6.66v-48.472z"/><path d="M298.13 476.068v-31.913c0-3.92-3.18-7.1-7.1-7.1-3.92 0-7.098 3.18-7.098 7.1v31.913h14.198zm17.816 0v-31.913c0-3.92-3.178-7.1-7.1-7.1-3.92 0-7.098 3.18-7.098 7.1v31.913h14.198z" fill="#4f82c3"/><path d="M317.756 480.428c0-4.99-4.047-9.04-9.04-9.04-4.992 0-9.038 4.05-9.038 9.04h18.078zm-17.816 0c0-4.99-4.048-9.04-9.04-9.04-4.992 0-9.04 4.05-9.04 9.04h18.08z" fill="#aecb39"/><path d="M314.215 381.437c0-7.882-6.39-14.272-14.272-14.272-7.882 0-14.272 6.39-14.272 14.272 0 6.722 4.65 12.355 10.908 13.87v2.803c-.006.084-.013.168-.013.253 0 1.866 1.513 3.38 3.38 3.38s3.38-1.514 3.38-3.38c0-.086-.008-.17-.014-.253v-2.804c6.258-1.514 10.906-7.147 10.906-13.87z" fill="#e7866b"/><path d="M310.307 379.43c.008.505-.393.92-.898.93l-4.627.077c-.503.008-.92-.393-.928-.898-.008-.507.394-.92.897-.93l4.625-.08c.503-.01.92.395.927.9zm-14.277.24c.008.504-.393.92-.897.93l-4.625.077c-.504.008-.92-.393-.928-.898-.01-.507.393-.92.897-.93l4.625-.08c.504-.007.92.394.928.898z" fill="#010101"/><circle cx="307.144" cy="383.148" r="1.547"/><circle cx="292.866" cy="383.388" r="1.546"/><path d="M299.82 394.492c-1.662.028-3.037-1.3-3.065-2.962-.005-.262.204-.48.467-.484.263-.005.48.205.483.468.02 1.136.96 2.046 2.096 2.026 1.14-.02 2.05-.96 2.03-2.096-.005-.262.206-.48.468-.484.263-.004.48.205.484.468.03 1.662-1.3 3.036-2.96 3.064z" fill="#ed1a3b"/><path d="M300.627 388.396c.008.504-.392.92-.896.927-.5.01-.916-.393-.924-.896l-.067-4.003c-.01-.504.392-.92.895-.928.503-.008.92.393.927.897l.068 4.003z" fill="#e26460"/><path fill="#fff" d="M291.53 399.87h16.826v24.662H291.53z"/><circle cx="313.78" cy="385.664" r="2.342" fill="#e7866b"/><circle cx="286.822" cy="386.499" r="2.341" fill="#e7866b"/><path d="M277.206 420.903c-1.367 2.472-4.48 3.368-6.95 2-2.472-1.366-3.368-4.478-2-6.95l8.018-14.5c1.366-2.473 4.478-3.37 6.95-2.002 2.47 1.37 3.367 4.48 2 6.95l-8.018 14.505zm37.572-14.887c-1.177-2.568-.05-5.603 2.515-6.78 2.568-1.178 5.604-.052 6.78 2.516l6.91 15.063c1.177 2.568.05 5.603-2.518 6.78-2.567 1.178-5.603.05-6.78-2.516l-6.907-15.066zm-4.99 18.44c-2.825.014-5.125-2.266-5.138-5.09-.013-2.825 2.266-5.124 5.09-5.137l16.572-.077c2.825-.013 5.125 2.267 5.138 5.09.012 2.826-2.268 5.125-5.093 5.138l-16.57.075zm-36.862 0c-2.824.014-5.124-2.266-5.137-5.09-.016-2.825 2.263-5.124 5.09-5.137l16.57-.077c2.824-.013 5.124 2.267 5.136 5.09.012 2.826-2.267 5.125-5.092 5.138l-16.57.075z" fill="#6ec5a6"/><circle cx="308.355" cy="419.306" r="5.463" fill="#e7866b"/><circle cx="292.722" cy="419.306" r="5.463" fill="#e7866b"/><path d="M286.156 384.068c-.88.347-1.512.268-2.258-.276-.558-.407-1.592-1.35-1.113-2.045-1.59-.267-2.558-2.286-2.907-3.698-.277-1.125-.564-4.36.924-4.817-.44-1.848.756-5.93 3.157-5.753-1.566-2.26 4.61-5.963 4.992-5-1.203-.525-.297-3.1 2.366-4.015 2.14-.736 3.09-.23 3.863.598-.093-2.01 6.928-1.495 6.204-.12 1.17-2.212 5.973.94 5.94 2.91.412.05 1.078-.112 1.467-.035.854.168 1.59.527 2.08 1.17.815 1.066 1.234 2.568.335 3.89 1.777-.148 4.612 3.628 3.202 4.92 2.72-.534 3.717 3.784 2.115 5.408.3.86 1.14 1.625.768 2.516-.266.637-.908 1.272-1.407 1.71.707.086.326 1.4-.08 1.713-.582.45-1.22.42-1.723.24-1.338-.48-2.164-2.612-2.09-4.098-2.11.242-2.213-2.712-2.3-4.066-1.862.03-3.877-.033-4.59-2.19-.983.316-4.384.94-4.17-.92-.7 1.357-4.22 2.756-5.52 2.16.924-.05-1.306 1.672-1.65 1.855-1.1.59-2.285 1.185-3.51 1.37 1.306.984-2.062 2.854-2.814 3.243 2.24-.398.9 4.703-.554 3.64l-.73-.312z" fill="#010101"/></g><g transform="translate(88.475 -58.839)"><path d="M435.833 381.437c0-7.882-6.39-14.272-14.272-14.272-6.6 0-12.15 4.484-13.782 10.572l1.945.33c.5.085.833.557.75 1.054-.086.5-.557.834-1.055.75l-1.995-.34c-.084.626-.13 1.26-.13 1.91v.008c.26-.175.575-.276.914-.263.853.03 1.52.747 1.49 1.6-.032.854-.75 1.52-1.602 1.49-.19-.007-.37-.052-.537-.122 1.057 5.485 5.246 9.852 10.64 11.157v2.803c-.007.085-.014.17-.014.254 0 1.866 1.514 3.38 3.38 3.38 1.868 0 3.38-1.514 3.38-3.38 0-.086-.007-.17-.013-.253v-2.803c6.258-1.513 10.907-7.146 10.907-13.87z" fill="#fdc99b"/><path d="M438.797 410.524H398.97v69.903h5.587v-28.12h34.24v28.12h5.586v-69.903h-5.586zm0 35.036h-34.24v-9.693h34.24v9.693z" fill="#d9a77f"/><path d="M440.114 398.326h-37.107c-3.285 0-5.947 2.662-5.947 5.947 0 3.284 2.662 5.947 5.947 5.947h2.546v15.857h32.014V410.22h2.546c3.284 0 5.947-2.663 5.947-5.947 0-3.285-2.662-5.947-5.946-5.947zm-34.56 32.23h32.014v21.646h-32.015z" fill="#6d868a"/><path opacity=".61" fill="#6d868a" d="M405.553 430.556h32.015v21.646h-32.015z"/><path fill="#d9a77f" d="M461.523 431.957v48.47h6.66v-48.47h5.788v-7.77H369.15v7.77h5.788v48.47h6.66v-48.47z"/><path d="M419.747 476.068v-31.913c0-3.92-3.178-7.1-7.1-7.1-3.92 0-7.097 3.18-7.097 7.1v31.913h14.197zm17.817 0v-31.913c0-3.92-3.18-7.1-7.1-7.1-3.92 0-7.098 3.18-7.098 7.1v31.913h14.198z" fill="#6a72ac"/><path d="M439.373 480.428c0-4.99-4.046-9.04-9.04-9.04-4.992 0-9.04 4.05-9.04 9.04h18.08zm-17.817 0c0-4.99-4.047-9.04-9.04-9.04-4.99 0-9.037 4.05-9.037 9.04h18.074z" fill="#3d2e1f"/><path d="M395.443 420.383c-1.72 2.24-4.93 2.66-7.17.94-2.24-1.722-2.662-4.933-.94-7.173l10.096-13.14c1.72-2.24 4.93-2.66 7.17-.94 2.24 1.722 2.66 4.933.94 7.173l-10.1 13.14zm40.585-14.81c-1.177-2.567-.052-5.602 2.516-6.78 2.567-1.177 5.604-.05 6.78 2.517l6.908 15.063c1.178 2.567.05 5.603-2.517 6.78-2.567 1.178-5.603.05-6.78-2.516l-6.907-15.063zm-45.04 6.97c2.823-.057 5.16 2.185 5.216 5.01.058 2.822-2.185 5.16-5.01 5.216l-16.567.334c-2.824.058-5.16-2.185-5.217-5.01-.057-2.823 2.185-5.16 5.01-5.217l16.567-.337z" fill="#6d868a"/><circle cx="371.01" cy="418.157" r="5.463" fill="#fdc99b"/><path d="M422.927 379.607c-.085.497-.556.83-1.054.747l-4.56-.775c-.497-.088-.83-.56-.746-1.056.084-.497.556-.83 1.053-.747l4.56.774c.497.085.83.557.747 1.054z" fill="#a14e30"/><circle cx="418.2" cy="382.727" r="1.546"/><path d="M410.468 379.12c.085-.496-.25-.967-.748-1.053l-1.945-.33c-.156.583-.275 1.18-.356 1.792l1.992.336c.498.084.97-.25 1.054-.747z" fill="#a14e30"/><path d="M409.692 382.784c.03-.854-.636-1.57-1.49-1.6-.337-.013-.652.087-.913.262 0 .926.094 1.828.263 2.705.167.07.346.118.537.125.853.03 1.57-.636 1.6-1.49z"/><path d="M413.356 387.623c-.018.503-.44.897-.944.878-.504-.015-.896-.44-.878-.94l.144-4c.018-.505.44-.9.944-.88.503.017.897.44.878.943l-.144 4.003z" fill="#f4a78e"/><path d="M415.56 391.77h-2.878c-.337 0-.61-.274-.61-.61 0-.338.273-.61.61-.61h2.878c.337 0 .61.272.61.61 0 .336-.273.61-.61.61z" fill="#ed1a3b"/><path d="M409.234 374.243c1.734 1.726 2.573 3 4.975 3.607-.51-.566-.866-1.365-.766-2.17 1.478.28 2.994 1.68 4.617 1.565.056-.906-.202-1.688-.13-2.593 3.42 2.26 6.947 3.79 7.73 8.3 1.85-5.323 6.096 3.375 1.004 4.323-.215 1.58-.68 6.547-.647 7.72 8.133-.813 12.855-6.905 13.235-14.72.37-7.625-6.59-15.19-13.84-15.816-5.21-.45-10.904.07-14.85 3.606-3.817 3.42-5.62 9.122-3.276 13.893 0-2.33 1.016-5.81 1.947-7.718z" fill="#a14e30"/><path d="M440.02 366.35l-2.148 1.915c-.252.224-.637.202-.86-.05-.225-.25-.203-.637.05-.86l2.147-1.915c.25-.224.635-.202.86.05.223.25.2.636-.05.86zm-3.217-2.13l-1.173 2.627c-.138.308-.498.446-.806.308-.307-.137-.446-.498-.308-.806l1.174-2.63c.138-.308.498-.446.806-.308.307.138.445.498.307.806z" fill="#3d2e1f"/><path fill="#fff" d="M412.882 399.87h16.825v24.662h-16.825z"/><path d="M431.037 424.187c-2.825.013-5.125-2.266-5.137-5.09-.012-2.825 2.267-5.125 5.09-5.138l16.572-.076c2.825-.013 5.125 2.266 5.138 5.09.012 2.826-2.268 5.126-5.092 5.14l-16.57.07z" fill="#6d868a"/><circle cx="429.605" cy="419.306" r="5.463" fill="#fdc99b"/></g><g transform="translate(88.475 -58.839)"><path d="M193.32 509.373c-.643-7.793-7.166-13.92-15.124-13.92s-14.482 6.127-15.123 13.92l-.056 1.237v7.952h30.36l-.058-9.19z" fill="#f36e41"/><path d="M195.483 540.394h-39.826v69.903h5.586v-28.12h34.24v28.12h5.586v-69.903h-5.59zm0 35.036h-34.24v-9.693h34.24v9.693z" fill="#d9a77f"/><path d="M196.88 528.194h-37.108c-3.285 0-5.947 2.662-5.947 5.947s2.663 5.95 5.947 5.95h2.547v15.856h32.01V540.09h2.548c3.283 0 5.946-2.664 5.946-5.947 0-3.284-2.663-5.946-5.947-5.946zm-34.56 32.232h32.013v21.646H162.32z" fill="#926226"/><path opacity=".61" fill="#926226" d="M162.32 560.426h32.013v21.646H162.32z"/><path fill="#d9a77f" d="M218.288 561.826v48.472h6.66v-48.472h5.788v-7.77h-104.82v7.77h5.787v48.472h6.66v-48.472z"/><path d="M176.512 605.938v-31.913c0-3.92-3.178-7.1-7.1-7.1-3.92 0-7.098 3.18-7.098 7.1v31.913h14.198zm17.818 0v-31.913c0-3.92-3.18-7.1-7.1-7.1-3.92 0-7.1 3.18-7.1 7.1v31.913h14.2z" fill="#68c4a4"/><path d="M196.138 610.298c0-4.99-4.047-9.038-9.04-9.038-4.99 0-9.038 4.048-9.038 9.038h18.078zm-17.816 0c0-4.99-4.047-9.038-9.04-9.038-4.99 0-9.038 4.048-9.038 9.038h18.078z" fill="#3d2e1f"/><path d="M192.598 511.306c0-7.883-6.39-14.273-14.272-14.273-7.882 0-14.272 6.39-14.272 14.273 0 6.722 4.65 12.355 10.906 13.868v2.804c-.007.084-.013.167-.013.253 0 1.87 1.513 3.38 3.38 3.38 1.866 0 3.38-1.51 3.38-3.38 0-.083-.008-.166-.014-.25v-2.804c6.256-1.513 10.905-7.146 10.905-13.868z" fill="#fdc99b"/><path d="M170.417 547.47c1.178 2.568.05 5.604-2.516 6.782s-5.6.05-6.78-2.517l-6.906-15.063c-1.177-2.568-.05-5.603 2.517-6.78 2.567-1.178 5.603-.05 6.78 2.517l6.908 15.06zm22.845-15.67c.983-2.648 3.926-3.998 6.575-3.016 2.647.984 3.996 3.927 3.014 6.575l-5.763 15.532c-.983 2.648-3.926 3.998-6.575 3.016-2.647-.985-3.996-3.93-3.013-6.577l5.765-15.533zm-15.03 6.678c-1.62-2.314-1.06-5.502 1.256-7.123 2.313-1.62 5.503-1.06 7.123 1.255l9.51 13.574c1.62 2.313 1.06 5.503-1.254 7.122-2.314 1.62-5.503 1.06-7.124-1.255l-9.506-13.57zm-12.404-6.204c.827-2.7 3.686-4.22 6.387-3.394 2.7.827 4.22 3.687 3.394 6.387l-4.85 15.846c-.83 2.702-3.69 4.22-6.39 3.393-2.7-.826-4.22-3.686-3.394-6.387l4.85-15.848z" fill="#926226"/><circle cx="172.284" cy="529.424" r="5.462" fill="#fdc99b"/><circle cx="181.029" cy="533.926" r="5.462" fill="#fdc99b"/><circle cx="185.504" cy="513.282" r="1.546"/><circle cx="171.225" cy="513.113" r="1.546"/><path d="M178.84 518.34c-.006.506-.418.907-.922.902-.503-.007-.907-.42-.9-.923l.047-4.007c.006-.504.42-.907.923-.9.503.004.907.418.9.92l-.047 4.006z" fill="#f4a78e"/><circle cx="192.598" cy="511.712" r="2.341" fill="#fdc99b"/><circle cx="164.053" cy="512.375" r="2.341" fill="#fdc99b"/><path d="M181.56 522.315l-2.704.98c-.317.114-.667-.05-.78-.367-.116-.316.048-.667.365-.78l2.71-.98c.316-.116.666.048.78.365.114.317-.05.667-.367.782z" fill="#ed1a3b"/><path d="M188.762 510.89c.04.503-.333.943-.835.984l-4.61.38c-.503.04-.943-.335-.985-.837-.04-.502.333-.943.836-.982l4.61-.38c.502-.04.943.332.984.835zm-14.462 1.364c-.172.473-.695.718-1.17.547l-4.347-1.58c-.474-.17-.72-.693-.547-1.17.172-.47.696-.715 1.17-.544l4.347 1.58c.476.172.72.696.547 1.17zm-10.708-2.287c.512-.496 2.153-.552 2.92-.788 1.867-.577 3.78-.916 5.62-1.53 2.633-.885 5.162-1.897 7.794-2.69.402-.12 1.77-.696 1.77-.696s1.27.6 1.58.79c1.17.72 2.042 1.248 3.17 1.932 1.12.682 2.294 1.375 3.483 1.94.6.286 1.486.82 2.232.632 1.63-.407.47-3.403-.126-4.38-1.07-1.753-1.718-3.354-3.336-4.72-2.912-2.46-5.587-3.873-9.45-4.12-4.004-.255-7.665.94-10.574 3.763-1.37 1.328-2.502 2.264-3.38 3.966-.748 1.446-1.25 2.653-1.806 4.168l.102 1.73z" fill="#f36e41"/><path fill="#dba538" d="M198.15 498.567l3.63-2.424-2.488-1.583-4.252 2.838 1.695 1.08-2.417 3.194 5.318-2.16zm-39.106-.63l-1.49-4.103-2.13 2.04 1.743 4.805 1.452-1.39 2.525 3.106-.83-5.68z"/></g><g transform="translate(88.475 -58.839)"><path d="M289.06 520.083c-2.73-1.594-4.46-3.496-4.933-6.767-.51-3.528-.458-7.11 1.342-10.306 3.222-5.727 9.436-7.512 15.53-7.21 1.977.098 4.09.344 6.046.026 1.566-.255 3.068-2.235 4.615-2.214.09 1.783.657 4.076-.423 5.43 1.317 1.686 2.027 4.025 2.482 5.506.664 2.167.97 4.703.97 7.08 0 4.718-2.464 8.864-7.248 10.366-3.866 1.214-11.29 2.595-14.762.1l-3.623-2.01z" fill="#a95325"/><path d="M317.063 540.395h-39.826v69.902h5.586v-28.12h34.24v28.12h5.586v-69.902h-5.59zm0 35.035h-34.24v-9.693h34.24v9.693z" fill="#d9a77f"/><path d="M318.497 528.194H281.39c-3.285 0-5.947 2.662-5.947 5.947s2.663 5.95 5.946 5.95h2.544v15.856h32.015V540.09h2.546c3.285 0 5.947-2.664 5.947-5.947 0-3.284-2.663-5.946-5.947-5.946zm-34.56 32.232h32.014v21.646H283.94z" fill="#aca592"/><path opacity=".61" fill="#aca592" d="M283.936 560.426h32.015v21.646H283.94z"/><path fill="#d9a77f" d="M339.905 561.826v48.472h6.66v-48.472h5.788v-7.77h-104.82v7.77h5.787v48.472h6.66v-48.472z"/><path d="M298.13 605.938v-31.913c0-3.92-3.18-7.1-7.1-7.1-3.92 0-7.098 3.18-7.098 7.1v31.913h14.198zm17.816 0v-31.913c0-3.92-3.178-7.1-7.1-7.1-3.92 0-7.098 3.18-7.098 7.1v31.913h14.198z" fill="#6a72ac"/><path d="M317.756 610.298c0-4.99-4.047-9.038-9.04-9.038-4.992 0-9.038 4.048-9.038 9.038h18.078zm-17.816 0c0-4.99-4.048-9.038-9.04-9.038-4.992 0-9.04 4.048-9.04 9.038h18.08z" fill="#3d2e1f"/><path d="M314.215 511.306c0-7.883-6.39-14.273-14.272-14.273-7.882 0-14.272 6.39-14.272 14.273 0 6.722 4.65 12.355 10.908 13.868v2.804c-.006.084-.013.167-.013.253 0 1.87 1.513 3.38 3.38 3.38s3.38-1.51 3.38-3.38c0-.083-.008-.166-.014-.25v-2.804c6.258-1.513 10.906-7.146 10.906-13.868z" fill="#fdc99b"/><path d="M310.27 510.316c.003.503-.402.915-.907.917l-4.625.024c-.504.002-.915-.404-.918-.908-.002-.507.405-.918.908-.92l4.626-.024c.504-.003.916.403.917.908zm-14.278.074c.003.504-.404.916-.908.92l-4.625.022c-.507.003-.917-.403-.92-.908-.003-.504.404-.914.91-.918l4.624-.023c.503-.004.914.403.916.908z" fill="#a95325"/><circle cx="307.065" cy="513.034" r="1.546"/><circle cx="292.786" cy="513.108" r="1.546"/><path d="M299.61 524.293c-1.662.008-3.022-1.336-3.03-2.998 0-.262.21-.477.473-.478.263-.002.477.21.478.474.01 1.14.938 2.06 2.075 2.05 1.137-.003 2.057-.934 2.05-2.07 0-.262.212-.476.474-.48.262 0 .477.21.48.476.007 1.66-1.338 3.02-3 3.03z" fill="#ed1a3b"/><path d="M300.49 518.206c0 .504-.404.913-.908.917-.504.002-.914-.404-.917-.907l-.02-4.004c-.004-.503.402-.914.905-.916.504-.003.914.404.917.906l.022 4.004z" fill="#f4a78e"/><path d="M277.206 550.4c-1.367 2.472-4.48 3.368-6.95 2-2.472-1.366-3.368-4.477-2-6.95l8.018-14.5c1.366-2.473 4.478-3.37 6.95-2.002 2.47 1.367 3.367 4.48 2 6.95l-8.018 14.502zm37.572-14.887c-1.177-2.567-.05-5.603 2.515-6.78 2.568-1.178 5.604-.05 6.78 2.517l6.91 15.063c1.177 2.567.05 5.603-2.518 6.78-2.567 1.178-5.603.052-6.78-2.516l-6.907-15.064z" fill="#aca592"/><path d="M284.563 531.612h15.263v22.374h-15.263zm15.497 0h15.264v22.374H300.06z" fill="#57baa8"/><path d="M309.787 553.954c-2.824.013-5.124-2.266-5.137-5.09-.013-2.826 2.266-5.125 5.09-5.138l16.572-.073c2.825-.013 5.125 2.267 5.138 5.09.012 2.826-2.268 5.126-5.093 5.14l-16.57.07zm-36.86 0c-2.825.013-5.125-2.266-5.138-5.09-.016-2.826 2.263-5.125 5.09-5.138l16.57-.073c2.824-.013 5.124 2.267 5.136 5.09.012 2.826-2.267 5.126-5.092 5.14l-16.57.07z" fill="#aca592"/><circle cx="308.355" cy="548.804" r="5.463" fill="#fdc99b"/><circle cx="292.722" cy="548.804" r="5.463" fill="#fdc99b"/><path fill="#72c1a8" d="M298.732 531.612h2.422v22.342h-2.422z"/><path d="M285.312 514.58c3.06-.817 6.88-6.76 10.558-8.818 2.29-1.282 4.763-2.614 7.146-3.66 1.634-.718 3.557-1.417 4.94-2.536.294 1.825 1.513 4.294 2.316 6.03.57 1.232 2.906 5.35 4.16 5.737.662-4.06-1.693-9.98-5.478-12.082-1.772-.98-3.515-2.83-5.536-3.02-2.13-.205-4.62-.073-6.71.24-3.42.507-6.484 2.37-8.865 4.96-2.807 3.055-3.08 6.877-3.08 10.873l.55 2.28z" fill="#a95325"/><circle cx="313.662" cy="513.536" r="2.342" fill="#fdc99b"/><circle cx="286.131" cy="513.537" r="2.341" fill="#fdc99b"/></g><g transform="translate(88.475 -58.839)"><circle cx="423.633" cy="510.037" r="14.972" fill="#f8ba47"/><path d="M438.797 540.395H398.97v69.902h5.587v-28.12h34.24v28.12h5.586v-69.902h-5.586zm0 35.035h-34.24v-9.693h34.24v9.693z" fill="#d9a77f"/><path d="M440.114 528.194h-37.107c-3.285 0-5.947 2.662-5.947 5.947s2.662 5.95 5.947 5.95h2.546v15.856h32.014V540.09h2.546c3.284 0 5.947-2.664 5.947-5.947 0-3.284-2.662-5.946-5.946-5.946zm-34.56 32.232h32.014v21.646h-32.015z" fill="#7657a0"/><path opacity=".61" fill="#7657a0" d="M405.553 560.426h32.015v21.646h-32.015z"/><path fill="#d9a77f" d="M461.523 561.826v48.472h6.66v-48.472h5.788v-7.77H369.15v7.77h5.788v48.472h6.66v-48.472z"/><path d="M419.747 605.938v-31.913c0-3.92-3.178-7.1-7.1-7.1-3.92 0-7.097 3.18-7.097 7.1v31.913h14.197zm17.817 0v-31.913c0-3.92-3.18-7.1-7.1-7.1-3.92 0-7.098 3.18-7.098 7.1v31.913h14.198z" fill="#5b97c7"/><path d="M439.373 610.298c0-4.99-4.046-9.038-9.04-9.038-4.992 0-9.04 4.048-9.04 9.038h18.08zm-17.817 0c0-4.99-4.047-9.038-9.04-9.038-4.99 0-9.037 4.048-9.037 9.038h18.074z" fill="#a7216a"/><path d="M438.224 515.665c1.803-7.674-2.956-15.356-10.63-17.16-7.67-1.803-15.355 2.957-17.158 10.63-1.538 6.543 1.7 13.09 7.443 15.996l-.645 2.73c-.024.08-.05.16-.07.247-.427 1.817.7 3.635 2.517 4.062 1.818.426 3.635-.7 4.063-2.516.02-.084.033-.166.046-.25l.64-2.73c6.44-.043 12.253-4.463 13.79-11.007z" fill="#fdc99b"/><path d="M400.882 550.932c-.982 2.648-3.926 3.997-6.574 3.015-2.648-.982-3.998-3.926-3.015-6.575l5.767-15.535c.984-2.65 3.926-4 6.574-3.015 2.648.982 3.998 3.926 3.015 6.575l-5.77 15.535zm35.146-15.49c-1.177-2.567-.052-5.603 2.516-6.782 2.567-1.177 5.604-.05 6.78 2.518l6.908 15.062c1.178 2.567.05 5.603-2.517 6.782-2.567 1.177-5.603.05-6.78-2.518l-6.907-15.062zm6.032-3.204c-.07-2.824 2.162-5.17 4.986-5.24 2.823-.07 5.17 2.16 5.24 4.985l.412 16.566c.07 2.822-2.16 5.17-4.984 5.24-2.824.07-5.17-2.164-5.24-4.987l-.413-16.567zm-29.266 11.802c2.825-.02 5.13 2.255 5.15 5.08.02 2.823-2.253 5.13-5.078 5.15l-16.57.114c-2.827.02-5.13-2.254-5.15-5.08-.02-2.823 2.253-5.13 5.077-5.15l16.57-.113z" fill="#7657a0"/><circle cx="447.379" cy="527.156" r="5.463" fill="#fdc99b"/><path d="M446.762 524.268c0 .63-.512 1.143-1.143 1.143-.634 0-1.146-.51-1.146-1.14v-6.754c0-.632.512-1.144 1.143-1.144.63 0 1.142.513 1.142 1.145v6.754z" fill="#fdc99b"/><path d="M435.072 507.335c-.054.5-.503.864-1.005.81l-4.6-.49c-.5-.053-.863-.503-.81-1.004.053-.5.504-.86 1.005-.81l4.6.49c.5.056.864.505.81 1.007zm-13.922-1.158c-.052.5-.502.863-1.004.81l-4.6-.49c-.5-.053-.863-.502-.81-1.004.054-.5.503-.865 1.005-.81l4.6.49c.5.052.867.502.81 1.004z" fill="#f8ba47"/><circle cx="431.477" cy="512.148" r="1.546"/><circle cx="417.277" cy="510.636" r="1.546"/><path d="M422.815 524.388c-1.652-.176-2.853-1.663-2.677-3.315.028-.26.263-.45.524-.422.262.03.45.265.422.527-.12 1.13.702 2.148 1.833 2.27 1.13.12 2.148-.704 2.268-1.834.027-.26.262-.45.524-.42.26.027.45.26.42.522-.178 1.65-1.664 2.85-3.317 2.676z" fill="#ed1a3b"/><path d="M424.366 516.557c-.054.5-.502.863-1.003.81-.5-.053-.863-.502-.81-1.002l.424-3.982c.053-.5.502-.864 1.003-.81.5.052.864.502.81 1.002l-.424 3.982z" fill="#f4a78e"/><circle cx="437.568" cy="516.521" r="2.342" fill="#fdc99b"/><circle cx="410.606" cy="515.411" r="2.341" fill="#fdc99b"/><circle cx="407.727" cy="510.037" r="2.327" fill="#f8ba47"/><circle cx="403.833" cy="512.527" r="2.327" fill="#f8ba47"/><circle cx="402.217" cy="516.748" r="2.327" fill="#f8ba47"/><circle cx="400.863" cy="521.19" r="2.327" fill="#f8ba47"/><path fill="#f8ba47" d="M400.864 522.73l1.316 2.28 1.317 2.28h-5.267l1.317-2.28z"/><path fill="#fff" d="M417.306 525.408l16.62 2.61-3.826 24.364-16.622-2.61z"/><circle cx="415.22" cy="548.922" r="5.463" fill="#fdc99b"/><path d="M426.192 499.94c0-1.14.506-2.163 1.303-2.86h-.025c-2.098 0-3.798 1.7-3.798 3.798s1.7 3.798 3.798 3.798c.956 0 1.827-.356 2.494-.94-2.085-.013-3.772-1.707-3.772-3.796z" fill="#f8ba47"/></g></svg>