<svg xmlns="http://www.w3.org/2000/svg" width="800" height="800" viewBox="0 0 800 800"><title>Vivir una fantasía</title><defs><filter id="a" x="-1.037" width="3.074" y="-1.117" height="3.233" color-interpolation-filters="sRGB"><feGaussianBlur stdDeviation="307.525"/></filter></defs><rect width="711.864" height="661.017" x="57.627" y="54.237" rx="1.542" ry="1.143" fill="#efe2c2" fill-opacity="0" filter="url(#a)"/><path d="M437.874 339.296s-.383-11.866.81-15.442c1.192-3.577 5.96-26.23 6.557-30.4.6-4.174 2.985-20.27 4.177-22.653 1.192-2.38 3.35-10.284 3.35-10.284s-12.888-4.615-15.87-5.21c-2.98-.597-9.537-4.77-9.537-4.77s-6.59 9.814-7.468 13.252c-.877 3.44-2.31 12.055-2.31 12.055l6.2 17.017-4.83 44.693.856 4.288 15.897 7.055 2.172-9.593zm-109.83 91.294s-16.063-63.153-20.236-76.267c-4.173-13.114-15.5-42.323-17.287-49.477-1.784-7.153-4.57-20.197-4.57-20.197s12.32-4.84 17.09-4.84 14.195-.277 14.195-.277 9.652 44.98 12.632 55.115c2.98 10.134 11.922 56.63 11.922 59.014 0 2.384 3.53 34.52 3.53 34.52l-17.274 2.405z" fill="#e7be6c"/><path d="M413.25 397.712c-.05 0-.093-.02-.145-.01-2.593.366-5.238.26-7.863.397-.157-3.17-.345-6.34-.523-9.508-.19-3.252-.21-6.535-.21-9.828 1.774.188 3.552.366 5.33.627.95.147 2.142.597 3.22.628.042 5.897.094 11.794.19 17.69zm.033 1.83c.115 6.692.26 13.373.502 20.054-2.687.01-5.374.084-8.06.21.156-6.89-.074-13.77-.42-20.64 2.594.124 5.23.03 7.8.386.063.01.115-.01.178-.01zm-8.898 11.574c.167 2.907.314 5.813.44 8.72-1.747.084-3.483.188-5.23.314-.825.052-1.66.136-2.498.2.387-3.044.43-6.15.25-9.275.095.063.21.105.346.115 1.485.105 2.98.105 4.465.084.69-.022 1.516.04 2.227-.158zm-1.39-22.52c.396 6.9.867 13.79 1.275 20.69-.826.043-1.652.24-2.478.304-1.36.105-2.74.125-4.1.22-.177.01-.313.084-.417.167-.45-6.242-1.673-12.547-2.55-18.538-.137-.9-.262-1.8-.377-2.69 1.41.062 2.823.02 4.235-.02 1.39-.044 3.074.24 4.412-.22v.082zm-8.49 12.21c1.045 6.484 1.923 12.987 1.89 19.595-2.623.22-5.237.45-7.85.736.02-.052.04-.115.03-.188-.847-6.43-1.62-12.86-2.258-19.312.125.073.272.115.397.115 1.662-.02 3.325-.26 4.966-.49.597-.085 1.894-.106 2.824-.45zm-6.682 20.244c.02.062.052.104.094.145-2.96.314-5.918.66-8.866 1.035-.73-3.168-1.17-6.41-1.39-9.692.03.01.055.02.087.02 1.767.064 3.544-.05 5.3-.23.806-.083 1.988-.04 2.782-.47.553 3.116 1.212 6.19 1.996 9.19zm-2.28-10.823c-.89-.063-1.88.356-2.72.502-1.67.3-3.386.47-5.08.56-.063 0-.105.02-.167.043-.314-6.064.063-12.212.648-18.11l.03-.323c.607-.072 1.224-.156 1.83-.23 1.172-.156 2.343-.124 3.514-.21.367 5.898.963 11.88 1.946 17.765zm6.587-24.277c.576 4.286 1.33 8.552 2.04 12.828-.857.042-1.882.397-2.342.48-1.767.315-3.565.513-5.322.92-.115.032-.22.095-.314.18-.22-2.238-.408-4.486-.585-6.734-.356-4.465-.847-9.253-.753-13.958.847-.063 1.694-.105 2.54-.167 1.235-.088 2.625.01 3.828-.37.28 2.425.626 4.746.91 6.816zm-7.946-15.925c-.21.94-.335 1.86-.45 2.593-.314 2.04-.47 4.1-.544 6.158-.45.157-.91.335-1.36.533-.407.184-.093.74.283.68.356-.067.7-.11 1.056-.16-.056 2.99.07 5.99.205 8.95.03.585.073 1.18.105 1.776-1.62-.032-3.41.292-5.05.752.775-6.88 2.218-14.89 5.75-21.288z" fill="#f9cde0"/><path d="M520.966 264.276c.49 5.542 1.317 11.418-.178 16.865-.073.286-.23.46-.418.59.167.21.293.51.188.774-.44 1.11-1.62 1.632-2.53 2.322-1.066.836-2.238 1.85-3.524 2.353-.105.574-.816.982-1.412.66-.983-.525-1.903-1.13-2.813-1.76-.01.02-.025.05-.046.084-12.892 20.327-19.03 44.24-26.662 66.834-8.49 25.135-16.154 50.396-20.253 76.66-.03.158-.115.273-.23.346.293.94-.774 2.185-1.966 1.59-4.088-2.04-8.25-3.692-12.463-5.02 0 .02-.01.052-.01.073-.04.816-1.19.805-1.254 0l-.03-.47c-37.63-11.304-79.412 2.885-117.586 4.61-1.064.042-1.012-1.495 0-1.62 5.49-.67 10.97-1.444 16.46-2.238-.01-.03-.033-.053-.044-.095-3.837-25.825-7.037-51.68-12.275-77.288-2.633-12.892-6.345-25.49-10.224-38.038-3.367-10.885-4.015-22.387-7.737-33.177-6.756.324-13.364 1.86-19.993 3.2-2.457.49-5.907 1.578-9.096 1.86 3.586 8.344 5.165 17.586 8.31 26.097 4.75 12.806 9.768 25.44 13.5 38.59 3.858 13.572 7.214 27.29 10.35 41.05 3.065 13.424 7.78 26.59 9.934 40.2.125.785-1.025 1.14-1.223.336-3.324-13.415-7.79-26.453-10.883-39.94-3.16-13.75-6.4-27.5-10.28-41.07-3.763-13.154-8.834-25.743-13.56-38.572-3.2-8.71-4.82-18.192-8.615-26.66-.573-.053-1.13-.147-1.66-.294-.68.23-1.36.45-2.06.7-.345.127-.826-.01-1.077-.28-2.426-2.656-4.235-5.573-5.897-8.762-.242-.47-.158-1.066.208-1.422-.01-.03-.02-.062-.02-.104.668-14.303 3.46-28.408 4.317-42.67.294-4.778.095-14.408 6.89-14.44 7.738-.03 13.813 12.004 16.897 17.514 6.316 11.27 13.08 21.78 21.414 31.712.24.293.294.606.24.91.18.094.367.167.534.272.94.523.627 1.59-.094 1.976-1.16 2.97-2.55 5.824-3.598 8.846-.178.512-.606.9-1.16.89-.398-.01-.796.01-1.183.01 3.846 11.218 4.79 23.18 8.27 34.513 3.156 10.256 6.104 20.544 8.51 30.99 1.12-.7 2.26-1.328 3.46-1.882.45-.2 1.046-.063 1.17.48.283 1.235 1.026 2.364 1.266 3.587 3.137-.43 4.067-1.798 2.802-4.088-.137-.408.104-.774.417-1.014 1.464-1.077 3.147-1.746 4.956-2.008.44-.063 1.046.105 1.12.638.783 5.176 7.182 5.322 5.31-.45-.167-.502.188-1.046.68-1.192.293-.083.596-.156.9-.23-.01-.01-.01-.02-.022-.03-6.63-24.247-16.478-47.542-22.48-71.956-1.464.157-2.938.052-4.402-.44-.177-.062-.292-.198-.334-.344-.02-.03-.052-.042-.073-.073-1.725-2.008-2.687-4.36-3.388-6.89-.105-.366-.01-.847.293-1.098 1.62-1.36 3.743-1.998 5.72-2.657.616-.21 1.15.24 1.37.784.428 1.087 2.383 4.067 3.617 1.882.795-1.392.115-2.604-.178-3.974-.326-.167-.44-.648-.044-.94 1.527-1.14 3.806-1.078 5.207-2.197.608-.482 1.59-.377 1.82.48.315 1.234 1.39 3.46 2.95 3.19-.084-.043-.167-.116-.23-.23-3.46-6.044-5.48-12.485-6.44-19.177-5.22 3.314-10.71 3.722-16.803 3.775-1.35.01-1.308-1.963 0-2.08 6.942-.573 10.162-10.09 16.822-12.283.647-.22 1.285.345 1.296.983.135 9.89 2.132 19.143 6.136 28.19.074.165.074.322.02.46 1.58-1.1 1.15-2.99.87-4.644-.063-.324.063-.627.25-.857.01-.148.074-.284.21-.4 1.276-1.106 2.854-1.012 4.235-1.86.564-.344 1.484-.04 1.61.66.354 1.913 1.83 3.71 3.993 3.02 2.206-.72 1.987-2.79 1.108-4.536-.093-.188-.124-.366-.124-.533-.25-.365-.26-.94.21-1.2 2.11-1.193 4.474-1.56 6.764-2.28.524-.167 1.277.2 1.37.774.503 3.262 1.454 6.347 2.374 9.504.02.05.01.083.01.135.785.48.87 1.924-.28 2.31-1.078.377-2.176.722-3.274 1.036.124.166.23.354.26.616.627 6.995 3.712 13.906 2.95 20.985 1.808-.23 3.606-.573 5.425-.67.858-.05 1.245.91.91 1.58-1.19 2.428-.375 3.996.994 4.55.292-10.623.407-20.817-1.266-31.38-1.433-9-4.14-17.386-6.536-26.106-1.464-.084-2.896-.293-4.214-.753-.074-.03-.116-.083-.168-.135-.282.47-1.202.482-1.338-.166-.764-3.45-1.622-6.88-2.3-10.34-.106-.535.124-1.058.553-1.3-.166-.187-.24-.47-.062-.794 7.277-13.13 16.698-24.978 24.414-37.85 2.823-4.714 7.183-14 14-10.036 3.597 2.09 6.002 7.246 7.884 10.79 2.227 4.214 4.276 8.53 6.085 12.944 3.368 8.176 6.933 17.106 7.215 26.066.086.02.16.03.24.04.66.126 1.14.973.91 1.6-1.075 2.94-2.403 5.74-3.804 8.543.378.512.21 1.38-.51 1.558-.784.2-1.59.317-2.415.4-.398 3.775-1.83 7.685-2.667 11.24-1.317 5.656-2.603 11.355-2.572 17.19.03 9.765 2.08 20.43-1.744 29.735.01-.01.02 0 .03-.01 2.835-.314 4.016-2.802 4.236-5.364.074-.91 1.015-1.223 1.62-.9.744-.187 1.497-.27 2.25-.313-.533-4.045.826-8.353 2.31-12.054 1.287-3.2 2.636-7.748 5.24-10.11.605-.555 1.567-.01 1.38.804-.72 3.074-2.98 6.043-4.225 8.96-1.694 3.985-3.158 8.04-3.628 12.36 1.013.01 2.04.105 3.052.26.68.106.92.994.617 1.517-.89 1.537-2.144 5.31 1.045 5.07 2.686-.208 3.753-2.54 4.82-4.662.02-.04.05-.06.072-.092.064-.417.42-.794.984-.668 3.68.783 7.34 1.693 10.99 2.602.51.125.97.784.752 1.317-1.506 3.564-2.77 7.18-3.806 10.915-.105.397-.366.606-.66.7.242.367.325.764.168 1.203-.314.932-1.777 1.067-2.028 0-.01-.04-.03-.072-.042-.104-4.276 14.345-8.145 28.147-10.184 43.036.836.072 1.683.177 2.51.365.543.115.982.816.773 1.35-2.5 6.314 5.95 7.632 6.377 1.14.053-.722.67-1.245 1.4-1.067.807.2 1.59.41 2.375.617-3.89-12.118 2.352-26.442 4.83-38.31 2.833-13.53 3.9-27.906 10.058-40.474-3.952-1.023-7.967-2.77-11.595-3.804-3.43-.962-6.88-1.924-10.392-2.603-2.488-.47-5.186-.43-7.55-1.338-.156-.063-.27-.22-.302-.387-.23.03-.47-.074-.564-.357-.91-2.52 1.026-6.42 2.53-8.384 1.967-2.573 4.83-2.71 7.508-1.182.502.282.638.91.376 1.4-.27.492-2.04 4.873.2 3.974 1.41-.565 1.495-2.258 2.018-3.47.21-.492.91-.492 1.265-.158 1.85.104 3.607 1.045 5.406 1.442.25.052.45.21.583.418 1.18-7.194 3.753-14.596 8.384-20.065.367-.44 1.067-.366 1.444 0 4.13 3.963 8.607 6.713 14.284 7.78.762.145 1.024 1.254.46 1.756-4.926 4.37-14.608 5.07-19.595.127-1.79 4.423-2.814 9.17-4.13 13.812 1.243-.628 1.452-1.8 2.34-2.793.02-.365.273-.73.7-.73 2.135 0 3.933 1.14 5.97 1.6.62.135 1.048 1.013.64 1.546-.857 1.108-1.662 3.23.314 3.743 2.143.552 2.457-1.748 2.52-3.327.052-1.015 1.12-1.203 1.673-.66.136-.04.282-.073.43-.04 1.745.322 3.523.95 5.143 1.66.574.25.616 1.004.396 1.485-.848 1.776-1.62 3.585-2.437 5.373-.44.983-.817 2.04-1.444 2.896.094.51-.26 1.097-.868 1.107-1.17 0-2.385-.135-3.598-.354-6.254 12.453-7.477 27.07-10.08 40.578-2.394 12.506-7.288 24.77-5.625 37.704.02.136-.02.24-.064.335.9.207 1.8.385 2.75.48.733.062 1.193.637 1.047 1.38-1.056 5.32 3.47 3.293 4.653 1.933.66-.67 1.14-1.432 1.454-2.29.177-.408.783-.638 1.2-.49 3.388 1.212 7.08 1.306 10.403 2.655 2.456-10.73 5.028-21.424 7.84-32.07 1.873-7.077 3.817-14.134 5.888-21.16 1.39-4.715 2.646-9.807 4.8-14.262-.72-.063-1.422-.167-2.08-.355-.19.02-.398-.03-.587-.2-.03-.02-.063-.02-.094-.04-.21-.085-.346-.262-.367-.45-1.213-1.392-2.185-3.45-2.478-5.177-.126-.774-.294-1.892.396-2.478.356-.293.74-.44 1.14-.44.795-8.25 10.1-15.683 15.38-21.036 7.434-7.54 13.666-17.303 23.41-21.956 8.636-4.13 6.92 12.986 6.93 17.095.04 7.82-.513 15.737.177 23.536zm-1.788 13.708c.617-4.506-.03-9.232-.418-13.707-.502-5.782-.24-11.637-.188-17.44.063-6.19.293-12.578-.742-18.705-1.014-5.98-8.28.48-10.518 2.708-5.897 5.866-11.177 12.338-17.022 18.266-4.768 4.84-11.616 10.623-13.812 17.388 2.332-.49 6.514.544 7.915.72 5.49.68 10.968 1.6 16.353 2.887 3.27.777 15.42 3.15 18.432 7.887zm-.732 3.795c-.21-.077-.397-.2-.523-.42-3.827-6.997-15.098-8.49-22.26-9.92-4.893-.976-9.828-1.79-14.774-2.377-1.15-.125-3.82.063-5.17-.66-.01.21-.02.41 0 .607.074.566.23 1.14.41 1.674.345 1.046.784 2.04 1.244 3.032 5.092-1.798 14.366 1.568 18.695 2.98 5.374 1.757 14.052 4.203 17.754 9.076 1.244-.962 2.468-1.945 3.597-3.053.26-.26.628-.64 1.025-.94zm-10.1 3.27c.052-.085.105-.147.167-.21-.983-.68-1.987-1.317-3.074-1.85-3.65-1.79-7.46-3.305-11.36-4.455-3.44-1.014-6.942-1.924-10.507-2.436-.72-.105-1.506-.146-2.3-.188-9.494 24.613-14.7 51.327-20.514 76.996-5.353 23.62-10.33 46.902-11.93 71.065 4.55 1.35 9.013 3.043 13.352 5.186 1.934-26.944 11.146-53.115 19.782-78.5 7.55-22.22 13.634-45.64 26.38-65.61zm-49.466-28.827c.638-1.422 1.276-2.854 1.945-4.276-1.077-.44-2.185-.827-3.24-1.297-.242 2.573-2.165 5.208-5.083 4.204-2.73-.94-3.314-3.555-2.206-5.824-1.077-.502-2.143-1.066-3.283-1.41-.03 2.226-3.126 4.443-5.165 4.234-2.833-.282-2.802-2.677-1.924-4.695-1.14-.555-2.227-1.18-3.44-1.58-.188 2.22-2.007 4.78-4.423 4.266-2.934-.628-2.432-3.796-1.523-6.023-4.8-1.924-5.123 5.08-7.016 8.03 4.81-1.788 12.18.826 16.77 2.102 5.448 1.515 11.994 2.613 17.24 5.028.38-.943.944-1.842 1.35-2.762zm-.303 96.077c.512-2.33 1.046-4.652 1.58-6.983-2.48-1.067-5.156-1.14-7.738-1.8-1.97-.51-1.55-.68-2.71.65-1.35 1.546-2.898 2.592-4.958 2.906-3.356.502-4.276-2.353-4.11-4.977-1.536-.23-3.02-.607-4.537-.994-1.715 7.79-12.923 5.897-10.874-1.955-1.546-.28-4.066-.616-4.34.23-.27.88-.51 1.716-1.085 2.458-1.108 1.412-2.29 2.123-4.067 2.27-3.22.28-3.41-3.096-2.844-5.438-1.443-.272-3.65-.565-3.952.24-.335.857-.617 1.736-1.234 2.447-1.22 1.41-2.466 2.122-4.316 2.27-3.19.26-3.68-2.95-3.252-5.365-1.41-.19-2.822-.25-4.244-.274-.282 3.095-2.426 6.326-6.043 5.5-1.506-.345-3.095-1.286-3.513-2.907-.282-1.098.136-2.478-1.474-2.478-2.185-.01-2.488.49-3.398 2.227-1.568 2.947-4.966 4.275-7.1 1.15-.626-.93-.49-2.32-.386-3.336.094-.92-4.067-.805-4.1-.063-.093 1.85-.522 3.305-1.975 4.55-2.31 1.954-6.484.522-7.06-2.48-.367-1.912-3.263-1.013-3.18-.49.126.784.325 1.63.126 2.426-.376 1.536-1.098 2.55-2.572 3.21-1.484.647-3.115.156-4.422-.628-1.033-.608-2.236-3.986-3.114-3.66-3.022 1.12-1.265 2.822-2.426 5.342-.826 1.83-3.4 1.882-5.03 1.85-.365-.01-.762-.26-.825-.637-.606-3.127-1.077-4.1-4.078-2.52-.03.01-.052.01-.084.02.43 1.934.858 3.87 1.245 5.813.21 1.013.408 2.04.606 3.063 22.826-10.623 49.028-8.75 73.42-7.633 9.035.408 18.1.648 27.07 1.892 6.808.94 15.015 2.08 20.38 6.86.2-.924.41-1.844.62-2.764zm-10.56-118.473c5.27 2.174 10.486 4.652 15.62 1.463-4.663-1.285-8.595-3.784-12.18-7.09-1.402 1.77-2.52 3.65-3.44 5.627zm9.378 123.763c-.26-.02-.523-.124-.763-.334-5.928-5.3-15.84-6.19-23.38-6.943-8.238-.826-16.51-1.035-24.77-1.506-11.657-.66-23.252-1.475-34.942-.545-12.463.993-24.142 3.984-36.177 7.078 4.653 23.525 8.406 47.396 10.215 71.297 0 .03-.01.063-.01.084 10.257-1.503 20.504-3.092 30.782-4.41-3.586-10.31-3.346-22.91-1.85-33.426 1.515-10.76 4.81-24.843 15.63-29.987 11.292-5.374 24.31 3.367 27.833 14.2 4.914 15.066 1.202 30.99 2.572 46.422 0 .093-.02.166-.03.24 8.374.41 16.676 1.527 24.727 3.743-.418-11.134 1.4-22.54 3.367-33.415 1.972-10.893 4.37-21.694 6.792-32.495zm-15.63-107.83c.062-.69.145-1.38.24-2.07-.43.786-.848 1.863-.24 2.07zm-6.64 41.73c.825-3.397 2.038-6.67 3.376-9.9-2.892-.73-5.79-1.506-8.622-2.447-.805 3.178-4.465 6.765-7.978 5.426-3.117-1.18-3.096-4.14-2.01-6.726-1.36-.178-2.687-.21-4.057-.136-.26 3.492-2.907 7.162-6.775 6.91-3.66-.24-4.893-3.167-4.203-6.252-1.422-.24-2.907-.284-4.35-.19-.71 3.42-3.356 6.117-7.214 5.69-3.574-.4-4.58-3.4-3.793-6.275-1.537-.05-3.053-.01-4.59.106-.366 3.566-3.168 6.797-7.1 5.92-3.313-.733-4.307-3.525-3.564-6.295-1.514.24-3.176.607-4.567.294.094 3.01-2.08 7.047-5.28 6.943-3.597-.114-4.517-3.71-4.433-6.753-5.03 1.14-2.406 8.26-1.172 12.045.074-.053.158-.105.26-.137 5.303-1.234 11.22-1.004 16.616-1.182 9.337-.302 18.705-.25 28.042-.05 2.248.05 25.04-.02 31.41 3.167.01-.052 0-.094.01-.156zm-8.616 21.83c1.575-6.742 3.174-14.07 6.28-20.324-3.283-.805-9.85-1.098-11.344-1.202-8.052-.565-16.134-.774-24.216-.868-10.444-.115-20.91-.105-31.356 0 2.258 6.963 2.603 14.94 3.41 22.156.825 7.486 1.724 14.973 2.236 22.48 1.37-.03 2.74.084 4.12.324.566.105.87.774.733 1.286-1.108 2.08-.324 3.23 2.373 3.46.816-1.065 1.244-2.247 1.286-3.554.052-.335.43-.68.753-.742 2.258-.49 4.486-.49 6.744-.01.42.094.845.596.782 1.046-.67 5.583 5.73 4.736 5.437-.48-.03-.587.523-1.088 1.087-1.088 2.34.01 4.63.084 6.942.512.553.105.94.816.762 1.338-1.056 1.788-.063 2.75 2.98 2.875.9-1.006 1.412-2.156 1.547-3.46.104-.47.595-.808 1.065-.808 2.175.01 4.33.042 6.462.512.544.115.993.826.774 1.36-1.107 1.567-.334 2.52 2.3 2.864.796-1.035 1.224-2.185 1.277-3.45.063-.48.617-.816 1.056-.816 1.087.01 2.164.01 3.24.063-.198-7.78 1.506-15.956 3.263-23.474zm-6.13 106.36c-.01-.053-.044-.095-.044-.158-.324-2.854-.43-5.72-.43-8.595-1.39-.125-3.136.094-4.568-.22-.116-.02-.23-.084-.315-.178-.042 3.02-.094 6.04-.2 9.06 1.863.003 3.714.024 5.554.086zm-.47-10.55c.08-6.807.624-13.645.342-20.42-.648.02-1.37-.115-1.882-.146-1.14-.084-2.352-.146-3.46-.49.115 7.15.188 14.292.115 21.444.094-.094.2-.157.314-.178 1.43-.304 3.18-.095 4.57-.21zm-.975-22.376c.355 0 .783-.052 1.2-.052-.198-2.938-.564-5.855-1.233-8.75-.847-3.66-2.164-7.236-4.235-10.216.02 6.253.124 12.495.22 18.747h.093c1.277.282 2.658.27 3.954.27zm.92-175.017c-.356-7.633-3.242-15.34-6.044-22.344-2.843-7.152-5.97-14.67-10.402-21.016-2.06-2.95-5.49-7.12-8.96-3.283-1.32 1.464-2.438 3.074-3.463 4.757-2.602 4.31-5.29 8.525-8.102 12.718-6.336 9.43-12.463 19.134-19.197 28.283 18.664-.345 37.662-2.29 56.17.89zm-2.845 9.587c1.12-2.27 2.197-4.548 3.127-6.91-18.412-3.39-37.22-1.224-55.822-1.277.418 2.97.962 5.918 1.286 8.908.044-.042.075-.084.127-.105 3.7-1.297 8.364-.68 12.243-.69 5.04 0 10.07.073 15.107.136l15.005.157c2.206.01 4.538-.157 6.817-.073l.06-.188c.325-.826 1.507-.72 1.57.21 0 .03-.01.062 0 .093.125.01.25.03.376.042.022-.093.053-.198.105-.303zm-3.052 3.074c-2.52.02-5.083-.2-7.487-.23-5.03-.052-10.07-.125-15.096-.2-5.008-.062-10.006-.135-15.004-.23-1.286-.02-2.656.022-4.025.022 3.784 8.375 5.426 18.486 6.565 27.415 1.245 9.692 2.416 20.64-.22 30.217 1.84.115 4.026-1.234 4.194-4.34.052-.898.993-1.18 1.59-.846 2.163-.44 4.35-.554 6.565-.72.875-.064 1.294.96.94 1.65-1.08 2.092-.797 4.758 2.152 4.58 2.865-.156 4.224-2.477 4.34-5.133.072-1.422 2.268-1.432 2.216 0v.052c1.756-.146 3.523.2 5.26-.157.73-.146 1.65.502 1.336 1.338-.564 1.516-.71 3.544.503 4.318.01-.03.01-.052.02-.073 4.057-10.35.71-21.712 1.41-32.45.315-4.977 1.308-9.84 2.458-14.67.805-3.397 1.34-7.09 2.28-10.54zm-.18 195.198c-.24-6.68-.386-13.362-.5-20.054-.064 0-.116.02-.18.01-2.57-.355-5.206-.26-7.8-.387.346 6.87.576 13.75.42 20.64 2.687-.126 5.374-.2 8.06-.21zm-.68-21.894c.054-.01.096.01.148.01-.093-5.897-.145-11.794-.187-17.69-1.078-.032-2.27-.482-3.22-.628-1.778-.26-3.556-.44-5.33-.627 0 3.294.02 6.577.21 9.828.175 3.168.363 6.336.52 9.504 2.624-.14 5.27-.036 7.862-.4zm-.092-31.838c0-.063.022-.115.032-.167-1.757-1.924-3.93-3.46-6.63-4.433-.835-.303-1.693-.565-2.56-.784.198 1.62.323 3.262.417 4.893.752.314.783 1.443.103 1.85.146 3.483.136 6.975.136 10.467 1.85-.094 3.71-.03 5.55.073.785.042 1.998-.042 2.99.167-.018-4.026-.04-8.05-.04-12.066zm-8.186 53.972c-.125-2.907-.272-5.813-.44-8.72-.71.2-1.536.136-2.226.157-1.485.02-2.98.02-4.465-.084-.137-.01-.25-.056-.346-.12.178 3.127.136 6.233-.25 9.275.835-.063 1.672-.146 2.498-.2 1.746-.124 3.482-.228 5.228-.312zm-.554-10.55c-.408-6.9-.878-13.79-1.276-20.692v-.084c-1.338.46-3.022.178-4.412.22-1.41.042-2.823.084-4.235.02.115.89.24 1.79.376 2.688.88 5.99 2.1 12.296 2.55 18.538.105-.084.24-.157.42-.167 1.36-.098 2.74-.12 4.1-.22.825-.066 1.65-.265 2.48-.307zm-1.35-22.406c-.25-6.45.064-12.996-.156-19.47-3.105.106-6.253.346-9.347.147h-.02c-.597 6.692-.106 13.216.794 20.033 1.79-.146 3.576-.314 5.353-.554 1.077-.156 2.3-.46 3.377-.156zm-.26-21.55c-.094-1.745-.22-3.48-.44-5.206-2.602-.48-5.258-.49-7.757.303-.398 1.892-.7 3.764-.91 5.625 3.02-.25 6.073-.638 9.106-.72zm-6.263 55.07c.03-6.607-.847-13.11-1.892-19.593-.93.345-2.225.366-2.82.45-1.643.23-3.305.47-4.967.49-.125 0-.272-.04-.397-.114.637 6.45 1.41 12.88 2.257 19.312.01.073-.01.136-.03.188 2.61-.283 5.225-.513 7.85-.732zm-2.227-21.622c-.71-4.276-1.464-8.542-2.04-12.83-.28-2.07-.626-4.39-.91-6.816-1.2.376-2.592.282-3.826.366-.847.063-1.694.105-2.54.167-.095 4.705.396 9.494.752 13.958.178 2.248.366 4.496.585 6.733.094-.084.2-.146.314-.178 1.76-.408 3.557-.606 5.324-.92.46-.082 1.485-.438 2.343-.48zm-1.517-37.61c-.45.22-.89.46-1.318.754-1.443.962-2.708 2.122-3.848 3.41.26.145.397.532.25.815-1.87 3.743-2.623 7.894-2.832 12.16.742-.178 1.485-.314 2.27-.418 1.233-.18 2.582-.537 3.857-.475-.554-5.626-.586-11.617 1.62-16.25zm-4.737 60.027c-.042-.042-.073-.084-.094-.146-.784-3.005-1.443-6.08-1.997-9.195-.795.43-1.976.387-2.78.47-1.758.18-3.535.294-5.302.23-.03 0-.05-.01-.083-.02.22 3.283.66 6.524 1.39 9.692 2.95-.377 5.908-.72 8.867-1.036zm-5.092-10.466c.837-.15 1.83-.57 2.72-.506-.983-5.887-1.58-11.867-1.945-17.764-1.172.085-2.343.053-3.514.21-.605.073-1.222.157-1.83.23l-.03.324c-.586 5.897-.962 12.045-.65 18.11.065-.022.106-.043.17-.043 1.693-.09 3.41-.26 5.08-.562zm.91-38.115c.116-.732.24-1.652.45-2.593-3.533 6.4-4.976 14.408-5.75 21.288 1.64-.46 3.43-.783 5.05-.752-.03-.597-.073-1.193-.105-1.778-.137-2.96-.262-5.96-.21-8.95-.355.052-.7.094-1.056.157-.376.062-.69-.49-.28-.68.45-.2.91-.377 1.36-.534.07-2.06.23-4.12.54-6.16zm-15.285-36.71c.658-.146 1.306-.24 1.954-.293-1.757-7.392-2.436-14.993-3.314-22.532-.847-7.37-2.405-14.752-3.032-22.134-1.61.02-3.22.03-4.83.063-.22 0-.377-.095-.482-.24-.293.28-.816.343-1.025-.096-2.54-5.3-5.593-14.91 3.4-15.17.532-.022 1.16.5 1.086 1.076-.2 1.507-.387 6.84 2.603 5.835 2.655-.89 2.372-3.92 3.146-6.043.167-.45.606-.617.983-.512-.47-7.18-3.044-13.967-3.702-21.12-.01-.03 0-.04 0-.06-6.45 1.735-13.06 3.01-19.02 6.17-2.853 1.504-6.084 3.45-9.42 4.35 6.127 24.307 16.677 47.373 21.8 71.944.01.052 0 .084 0 .125.983-.19 1.976-.338 3-.4.534-.04.973.47.973.973.064 5.228 5.783 4.057 5.135-.95-.06-.43.347-.89.745-.985zm.082-84.868c-.973-2.688-1.663-5.5-2.144-8.313-1.37.24-2.75.533-4.1.93 1.328 2.803.9 6.578-2.656 7.404-3.01.7-5.594-.95-6.472-3.733-.826.062-1.683.25-2.415.585 1.036 2.593.555 6.347-2.456 7.35-2.938.983-5.092-1.15-6.012-3.712-1.077.074-2.29.398-3.356.785 1.495 1.924 1.317 5.374-.847 6.744-2.615 1.65-4.8-.26-6.02-2.51-1.17.376-2.387.805-3.39 1.495.45 2.06 1.2 3.92 2.26 5.772.06.104.08.208.09.313 6.598-.532 11.69-5.175 17.734-7.433 6.45-2.408 13.164-3.83 19.782-5.68zm-28.806-19.01c.137-.084.273-.136.41-.157-.23-1.986-.357-3.993-.42-6.022-4.275 2.113-6.88 6.808-10.59 9.63 3.71-.323 7.213-1.19 10.6-3.45zm-20.7 42.293c.795-2.07 1.506-4.4 2.76-6.283-14.387-5.658-31.22 3.502-45.43 6.952 1.547 3.145 3.16 6.303 6.807 6.18 3.2-1.14 7.268-.944 10.51-1.61 4.526-.934 9.033-2.01 13.59-2.73 2.97-.46 10.74.156 11.764-2.51zm-16.875-9c5.854-1.19 12.295-2.1 18.108-.408-6.002-7.235-11.648-14.784-16.217-23.013-4.045-7.29-8.144-17.86-15.64-22.28-6.222-3.67-7.35 2.76-7.686 7.54-.24 3.52-.396 7.023-.804 10.536-1.36 11.72-3.023 23.41-4.37 35.13 8.97-2.11 17.565-5.655 26.61-7.506z" fill="#1d1d1b"/><path d="M520.51 262.988c.387 4.475 1.035 9.2.418 13.707-3.01-4.736-15.16-7.11-18.433-7.884-5.385-1.282-10.863-2.202-16.353-2.882-1.4-.178-5.583-1.213-7.915-.72 2.196-6.766 9.044-12.548 13.812-17.39 5.84-5.927 11.12-12.4 17.02-18.265 2.235-2.226 9.502-8.69 10.52-2.707 1.03 6.127.8 12.515.74 18.705-.05 5.805-.31 11.66.19 17.44z" fill="#e7be6c"/><path d="M517.923 281.36c.125.22.314.346.523.42-.397.302-.763.68-1.025.94-1.125 1.108-2.35 2.09-3.593 3.053-3.7-4.872-12.38-7.32-17.754-9.076-4.33-1.41-13.602-4.778-18.694-2.98-.46-.993-.9-1.987-1.245-3.032-.177-.533-.334-1.108-.407-1.673-.02-.2-.01-.397 0-.606 1.35.72 4.015.533 5.165.66 4.946.584 9.88 1.4 14.774 2.372 7.163 1.433 18.434 2.928 22.26 9.923z" fill="#ea786b"/><path d="M508.513 284.843c-.063.063-.115.125-.167.21-12.746 19.97-18.83 43.39-26.38 65.608-8.636 25.39-17.848 51.56-19.782 78.505-4.34-2.143-8.804-3.837-13.352-5.186 1.6-24.164 6.577-47.45 11.93-71.068 5.813-25.67 11.02-52.383 20.514-76.996.795.042 1.58.084 2.3.188 3.565.514 7.068 1.424 10.508 2.438 3.9 1.15 7.706 2.666 11.355 4.454 1.083.535 2.09 1.173 3.07 1.853zM488.72 307.29c3.335-3.658 9.306-17.45 1.987-20.116-8.072-2.95-12.18 10.236-12.64 15.997-.043.558.48.85.94.8.042.114.094.23.188.334 1.58 1.956 6.148 2.416 8.427 3.284.356.136.847-.02 1.098-.293z" fill="#e7be6c"/><path d="M491.742 291.712c.962 3.858-1.37 8.856-3.22 12.108-1.17 2.06-1.328 1.18-3.534.43-1.516-.524-3.492-1.632-5.134-1.527.648-2.896 1.62-5.75 2.917-8.406 1.5-3.033 7.34-9.15 8.975-2.605z" fill="#f9cde0"/><path d="M490.707 287.174c7.32 2.666 1.35 16.457-1.987 20.117-.25.276-.742.43-1.098.297-2.28-.868-6.848-1.328-8.427-3.283-.094-.104-.146-.22-.188-.334-.46.05-.983-.24-.94-.796.46-5.76 4.568-18.944 12.64-15.996zm-2.185 16.646c1.85-3.252 4.182-8.25 3.22-12.108-1.63-6.545-7.476-.43-8.97 2.603-1.297 2.656-2.27 5.51-2.918 8.406 1.642-.1 3.618 1.008 5.134 1.53 2.206.754 2.363 1.633 3.534-.427z" fill="#1d1d1b"/><path d="M460.825 253.643c-.67 1.422-1.307 2.854-1.945 4.276-.408.92-.972 1.815-1.35 2.76-5.248-2.42-11.793-3.517-17.24-5.03-4.59-1.28-11.96-3.89-16.77-2.105 1.89-2.95 2.216-9.954 7.015-8.03-.91 2.227-1.41 5.395 1.527 6.022 2.415.51 4.235-2.05 4.423-4.267 1.213.398 2.3 1.026 3.44 1.58-.878 2.018-.91 4.41 1.924 4.695 2.035.21 5.13-2.008 5.16-4.235 1.14.345 2.207.91 3.284 1.41-1.108 2.27-.523 4.884 2.206 5.825 2.918 1.004 4.84-1.63 5.083-4.203 1.054.472 2.163.86 3.24 1.298zm-.67 91.677c-.533 2.33-1.066 4.652-1.58 6.983-.208.92-.417 1.84-.616 2.76-5.368-4.778-13.575-5.918-20.38-6.86-8.97-1.243-18.038-1.484-27.07-1.89-24.395-1.12-50.597-2.99-73.42 7.632-.2-1.025-.4-2.05-.608-3.064-.387-1.94-.816-3.875-1.244-5.81.03-.01.052-.01.084-.02 3-1.58 3.47-.606 4.078 2.52.063.376.46.627.826.638 1.63.03 4.2-.02 5.027-1.85 1.16-2.52-.596-4.225 2.426-5.344.88-.323 2.08 3.054 3.116 3.66 1.306.784 2.937 1.276 4.422.627 1.473-.66 2.195-1.673 2.57-3.21.2-.795 0-1.642-.124-2.426-.085-.522 2.812-1.42 3.177.492.576 3 4.748 4.433 7.06 2.478 1.453-1.244 1.882-2.698 1.976-4.548.03-.742 4.194-.857 4.1.063-.105 1.013-.24 2.404.387 3.334 2.133 3.126 5.53 1.798 7.1-1.15.91-1.736 1.212-2.238 3.397-2.227 1.61 0 1.193 1.38 1.475 2.478.417 1.622 2.006 2.563 3.512 2.908 3.618.826 5.76-2.405 6.043-5.5 1.422.02 2.833.084 4.245.272-.43 2.415.063 5.625 3.252 5.364 1.85-.147 3.095-.858 4.318-2.27.617-.71.9-1.59 1.234-2.447.3-.805 2.51-.512 3.95-.24-.565 2.342-.376 5.72 2.844 5.437 1.777-.148 2.96-.86 4.067-2.27.576-.74.817-1.58 1.088-2.458.27-.848 2.79-.513 4.34-.23-2.05 7.85 9.157 9.744 10.872 1.954 1.516.387 3 .763 4.538.993-.167 2.622.753 5.48 4.11 4.975 2.06-.314 3.606-1.36 4.955-2.907 1.16-1.33.742-1.16 2.708-.65 2.584.66 5.26.733 7.738 1.8z" fill="#ea786b"/><path d="M463.637 235.293c-5.134 3.19-10.35.71-15.62-1.464.92-1.98 2.038-3.86 3.44-5.63 3.586 3.305 7.517 5.804 12.18 7.09z" fill="#f9cde0"/><path d="M456.632 357.26c.24.208.502.313.763.334-2.426 10.8-4.82 21.6-6.796 32.496-1.97 10.874-3.79 22.28-3.37 33.416-8.05-2.217-16.354-3.335-24.73-3.743.01-.073.03-.146.03-.24-1.37-15.434 2.344-31.358-2.57-46.424-3.524-10.836-16.54-19.577-27.833-14.2-10.823 5.14-14.116 19.225-15.63 29.984-1.497 10.518-1.738 23.118 1.85 33.427-10.28 1.318-20.526 2.908-30.783 4.413 0-.02.01-.052.01-.084-1.81-23.9-5.562-47.77-10.215-71.297 12.033-3.095 23.713-6.085 36.176-7.078 11.69-.93 23.284-.115 34.942.544 8.26.47 16.53.68 24.77 1.506 7.537.752 17.45 1.64 23.38 6.942z" fill="#e7be6c"/><path d="M438.638 264.663c.418.324.67.753.523 1.296-.623 2.36-1.43 4.7-2.54 6.89-.29.56-.97.623-1.482.383-1.17-.554-2.593-.805-3.848-1.108-.325-.084-.89-.157-1.39-.314-.577.24-1.3-.22-1.393-.93-.167-1.276.43-2.96.89-4.15.407-1.066.898-2.3 1.818-3.053 2.427-1.976 5.197-.68 7.425.983zm-3.555 6.316c.67-1.58 1.213-3.2 1.652-4.855-1.453-.983-3.388-1.945-4.486-.094-.715 1.203-.88 2.625-1.28 3.92.774.127 1.59.41 2.196.546.637.144 1.285.29 1.913.48z" fill="#1d1d1b"/><path d="M436.735 266.127c-.44 1.652-.983 3.273-1.652 4.85-.627-.187-1.276-.334-1.913-.48-.606-.136-1.422-.418-2.196-.544.397-1.297.565-2.718 1.276-3.92 1.097-1.85 3.03-.89 4.485.094z" fill="#f9cde0"/><path d="M438.502 281.59c-1.338 3.232-2.55 6.504-3.377 9.903-.01.063 0 .105-.01.157-6.368-3.19-29.16-3.116-31.41-3.168-9.336-.2-18.704-.25-28.04.052-5.396.178-11.314-.052-16.615 1.182-.105.03-.188.084-.26.136-1.235-3.785-3.86-10.905 1.17-12.045-.084 3.043.836 6.64 4.433 6.754 3.2.11 5.374-3.93 5.28-6.94 1.39.315 3.053-.05 4.57-.292-.743 2.77.25 5.562 3.564 6.294 3.93.878 6.734-2.353 7.1-5.92 1.536-.113 3.052-.155 4.59-.103-.785 2.874.22 5.875 3.794 6.272 3.86.427 6.507-2.27 7.218-5.69 1.443-.094 2.928-.05 4.35.19-.69 3.082.544 6.01 4.203 6.25 3.87.25 6.514-3.42 6.775-6.91 1.37-.073 2.698-.042 4.057.136-1.085 2.583-1.106 5.542 2.01 6.723 3.513 1.337 7.173-2.25 7.978-5.427 2.833.94 5.73 1.715 8.626 2.447z" fill="#ea786b"/><path d="M432.793 292.998c-3.105 6.253-4.705 13.582-6.284 20.326-1.76 7.518-3.465 15.694-3.266 23.473-1.077-.052-2.154-.052-3.24-.063-.44 0-.994.335-1.057.816-.053 1.265-.48 2.415-1.277 3.45-2.634-.345-3.41-1.296-2.3-2.865.22-.533-.23-1.244-.773-1.36-2.134-.47-4.288-.5-6.463-.51-.47 0-.962.334-1.066.804-.135 1.303-.647 2.453-1.546 3.46-3.043-.128-4.036-1.09-2.98-2.878.178-.523-.21-1.234-.763-1.338-2.31-.43-4.6-.502-6.944-.512-.566 0-1.12.502-1.088 1.087.292 5.217-6.107 6.064-5.438.48.063-.45-.366-.95-.784-1.045-2.258-.48-4.485-.48-6.744.01-.324.063-.7.408-.753.742-.04 1.306-.47 2.487-1.286 3.554-2.698-.23-3.482-1.38-2.373-3.46.137-.512-.166-1.18-.73-1.286-1.38-.24-2.75-.356-4.12-.324-.513-7.505-1.41-14.99-2.238-22.48-.805-7.212-1.15-15.19-3.41-22.154 10.446-.105 20.912-.115 31.358 0 8.083.094 16.166.303 24.216.868 1.494.105 8.06.398 11.343 1.203zm-15.475 23.776c1.286-5.427 3.356-17.492-5.134-17.806-7.204-.26-9.18 12.453-9.577 17.503-.03.44.324.715.7.757.147.115.325.2.555.21 2.32.135 4.642.26 6.963.396 1.62.106 3.858.71 5.343-.145.042-.02.052-.063.094-.094.46.01.92-.23 1.056-.815zm-26.714-1.725c.178-5.18-.418-17.32-8.145-16.22-7.72 1.1-7.94 12.525-4.625 17.88-.795.416-.366 1.68.606 1.504 2.186-.387 4.37-.732 6.578-.94 1.516-.147 3.712.323 4.987-.618.324-.252.418-.607.293-.932.18-.166.295-.386.305-.68z" fill="#e7be6c"/><path d="M420.34 419.523c0 .063.03.105.042.157-1.84-.063-3.69-.084-5.552-.084.105-3.022.157-6.043.2-9.065.083.098.198.16.313.18 1.432.316 3.18.096 4.57.22-.002 2.876.103 5.74.427 8.596zm-.084-30.813c.282 6.775-.26 13.613-.345 20.42-1.39.115-3.133-.094-4.565.21-.115.02-.22.083-.314.177.073-7.152 0-14.293-.115-21.445 1.108.345 2.32.408 3.46.49.514.033 1.235.17 1.883.148zm-.116-2.008c-.417 0-.846.052-1.2.052-1.297 0-2.678.01-3.953-.272h-.094c-.094-6.253-.2-12.495-.22-18.747 2.07 2.98 3.388 6.556 4.235 10.215.67 2.897 1.035 5.814 1.233 8.752z" fill="#f9cde0"/><path d="M413.816 189.393c2.802 7.005 5.688 14.71 6.043 22.344-18.51-3.178-37.51-1.234-56.17-.89 6.732-9.148 12.86-18.85 19.195-28.282 2.813-4.193 5.5-8.406 8.103-12.714 1.025-1.68 2.143-3.29 3.46-4.753 3.47-3.837 6.9.335 8.96 3.283 4.435 6.346 7.56 13.863 10.405 21.015z" fill="#e7be6c"/><path d="M420.14 214.413c-.93 2.363-2.007 4.642-3.125 6.91-.052.106-.084.21-.105.304-.125-.01-.25-.03-.376-.042-.01-.03 0-.063 0-.094-.063-.93-1.244-1.03-1.568-.205-.02.063-.042.125-.063.188-2.28-.083-4.61.085-6.817.074l-15.004-.157c-5.04-.064-10.07-.137-15.108-.137-3.88.01-8.542-.605-12.244.69-.052.02-.084.064-.125.106-.324-2.99-.868-5.94-1.286-8.91 18.6.053 37.41-2.11 55.82 1.276z" fill="#ea786b"/><path d="M412.185 298.968c8.49.314 6.42 12.38 5.134 17.806-.14.586-.6.826-1.06.816-.04.03-.05.073-.094.094-1.486.857-3.723.25-5.344.146-2.32-.136-4.642-.26-6.963-.397-.23-.01-.408-.094-.554-.21-.377-.04-.733-.313-.702-.752.397-5.05 2.373-17.76 9.577-17.5zm3 16.855c.68-2.813 1.182-5.772 1.035-8.668-.125-2.614-1.62-7.904-5.427-5.636-4.182 2.485-5.656 9.17-6.462 13.975 2.367-.084 4.74.042 7.1.136 1.165.054 2.567-.113 3.758.19z" fill="#1d1d1b"/><path d="M416.22 307.155c.147 2.896-.354 5.855-1.034 8.668-1.192-.303-2.593-.136-3.754-.188-2.363-.094-4.736-.22-7.1-.136.806-4.81 2.28-11.495 6.463-13.98 3.805-2.27 5.3 3.02 5.426 5.632z" fill="#f9cde0"/><path d="M406.476 224.168c2.405.03 4.966.25 7.486.23-.94 3.45-1.474 7.14-2.28 10.54-1.15 4.83-2.142 9.69-2.456 14.668-.7 10.738 2.645 22.103-1.41 32.454-.01.02-.01.042-.022.073-1.213-.774-1.066-2.802-.502-4.318.314-.836-.606-1.485-1.338-1.338-1.736.355-3.503.01-5.26.157v-.052c.053-1.432-2.142-1.422-2.216 0-.115 2.656-1.474 4.977-4.34 5.134-2.948.178-3.23-2.49-2.153-4.58.356-.69-.063-1.715-.94-1.652-2.218.167-4.403.282-6.567.72-.596-.334-1.537-.05-1.59.848-.166 3.105-2.352 4.454-4.192 4.34 2.635-9.578 1.464-20.526.22-30.218-1.14-8.93-2.78-19.04-6.566-27.415 1.37 0 2.74-.046 4.025-.025 4.998.094 9.996.167 15.004.23 5.024.075 10.064.148 15.093.2zm-6.723 34.2c1.16-5.78 4.83-21.318-3.42-23.796-12.87-3.88-13.34 15.642-12.075 23.316.052.314.2.512.387.638-.01.355.22.71.7.732 4.424.23 8.867-.157 13.3-.042.48.01 1.014-.356 1.108-.847z" fill="#e7be6c"/><path d="M413.042 365.697c-.01.052-.03.105-.03.167 0 4.015.02 8.04.04 12.066-.992-.21-2.205-.125-2.99-.167-1.84-.105-3.7-.167-5.55-.073 0-3.492.01-6.984-.137-10.466.68-.408.648-1.537-.104-1.85-.09-1.632-.22-3.274-.414-4.894.868.22 1.725.48 2.562.784 2.696.972 4.87 2.51 6.627 4.433zm-10.278 1.713c.22 6.473-.094 13.018.157 19.47-1.073-.303-2.3 0-3.373.157-1.777.24-3.565.408-5.353.554-.898-6.813-1.39-13.34-.794-20.03h.02c3.095.2 6.242-.04 9.347-.146zm-.544-7.286c.22 1.725.345 3.46.44 5.207-3.033.088-6.086.47-9.108.725.21-1.86.512-3.733.91-5.625 2.5-.796 5.155-.785 7.758-.304z" fill="#f9cde0"/><path d="M396.334 234.572c8.25 2.478 4.58 18.015 3.42 23.797-.095.49-.628.853-1.11.843-4.432-.115-8.876.272-13.3.042-.48-.02-.71-.376-.7-.732-.188-.125-.335-.324-.387-.638-1.265-7.674-.794-27.195 12.077-23.316zm1.976 18.527c.596-4.03 1.307-8.86-.01-12.82-2.3-6.86-9.787-2.89-11.27 2.454-1.308 4.716-1.298 9.734-.597 14.544.02.167.01.324-.03.46 3.073-.188 11.228-.617 11.197-.408.24-1.41.51-2.812.71-4.234z" fill="#1d1d1b"/><path d="M398.3 240.28c1.316 3.964.605 8.794.01 12.82-.2 1.422-.47 2.823-.712 4.235.03-.21-8.124.22-11.198.408.042-.136.052-.293.03-.46-.7-4.81-.71-9.828.597-14.544 1.486-5.348 8.972-9.32 11.272-2.46zm-6.964 121.642c.43-.293.868-.533 1.317-.753-2.206 4.63-2.175 10.62-1.62 16.244-1.277-.063-2.625.293-3.86.47-.783.106-1.526.24-2.268.42.21-4.267.962-8.418 2.833-12.16.146-.283.01-.67-.25-.817 1.14-1.286 2.405-2.447 3.848-3.41z" fill="#f9cde0"/><path d="M382.46 298.832c7.726-1.098 8.322 11.04 8.144 16.217-.01.29-.125.51-.303.68.13.32.035.68-.29.93-1.275.94-3.47.47-4.986.614-2.205.21-4.39.554-6.576.94-.972.18-1.4-1.086-.606-1.505-3.314-5.354-3.094-16.78 4.62-17.88zm2.56 16.437c.994-.13 2.28-.46 3.42-.4-1.41-3.9.962-14.21-4.998-13.928-7.13.335-5.71 10.77-3.93 15.276 1.807-.44 3.658-.733 5.51-.95z" fill="#1d1d1b"/><path d="M388.44 314.872c-1.14-.063-2.426.272-3.42.397-1.85.22-3.7.51-5.51.95-1.776-4.51-3.198-14.94 3.932-15.28 5.96-.28 3.586 10.03 4.998 13.93z" fill="#f9cde0"/><path d="M370.404 335.616c-.648.052-1.297.146-1.955.293-.4.09-.81.55-.746.98.648 5.01-5.07 6.18-5.134.95 0-.5-.44-1.014-.97-.97-1.025.06-2.018.21-3 .395 0-.042.01-.073 0-.125-5.124-24.57-15.674-47.635-21.8-71.945 3.334-.9 6.565-2.844 9.42-4.35 5.96-3.158 12.57-4.433 19.02-6.17 0 .022-.01.032 0 .064.66 7.15 3.23 13.936 3.7 21.12-.376-.106-.816.062-.983.51-.774 2.123-.49 5.156-3.147 6.044-2.99 1.004-2.8-4.33-2.6-5.834.072-.574-.555-1.097-1.088-1.076-8.99.26-5.938 9.87-3.397 15.17.21.44.732.377 1.025.095.105.144.26.24.48.24 1.61-.03 3.22-.04 4.832-.064.627 7.382 2.185 14.763 3.032 22.135.876 7.54 1.555 15.14 3.312 22.534zm-12.965-64.732c.02-2.373-.725-4.768-2.93-5.96-2.12-1.14-4.83-.44-6.777.72-.324.2-.565.576-.544.963.042 1.526.376 6.503 2.53 6.597.084 0 .167-.01.25-.042 0 .376.262.795.702.805 2.237.094 4.308-1.223 6.242-2.164.334-.166.523-.563.523-.92z" fill="#e7be6c"/><path d="M367.25 240.53c.482 2.812 1.172 5.624 2.144 8.31-6.618 1.852-13.33 3.274-19.782 5.678-6.043 2.258-11.135 6.9-17.733 7.434-.01-.105-.035-.21-.098-.314-1.056-1.85-1.81-3.712-2.258-5.772 1.004-.69 2.217-1.12 3.388-1.495 1.223 2.25 3.41 4.165 6.022 2.51 2.164-1.37 2.342-4.82.847-6.74 1.067-.388 2.28-.71 3.357-.785.92 2.562 3.073 4.695 6.01 3.712 3.01-1.004 3.493-4.757 2.458-7.35.73-.335 1.588-.523 2.414-.586.877 2.78 3.46 4.433 6.47 3.733 3.556-.825 3.985-4.6 2.657-7.402 1.35-.395 2.73-.69 4.1-.93z" fill="#ea786b"/><path d="M354.51 264.925c2.207 1.192 2.95 3.586 2.93 5.96 0 .355-.19.753-.524.92-1.934.94-4.005 2.258-6.242 2.164-.44-.01-.7-.43-.7-.81-.085.03-.168.043-.252.043-2.154-.094-2.488-5.07-2.53-6.597-.02-.388.22-.764.544-.963 1.945-1.16 4.653-1.862 6.775-.722zm.482 5.76c.617-.564.052-2.048-.408-2.75-1.234-1.84-3.367-1.37-5.123-.626.098 1 .307 2.004.6 2.965.2.627.565 1.276.565 1.945 0 .106-.01.21-.03.325 1.493-.24 3.27-.826 4.4-1.86z" fill="#1d1d1b"/><path d="M354.584 267.936c.46.7 1.025 2.185.408 2.75-1.13 1.035-2.907 1.62-4.402 1.86.02-.114.03-.22.03-.323 0-.67-.365-1.317-.564-1.945-.293-.962-.502-1.966-.596-2.97 1.758-.742 3.89-1.212 5.124.628zm-14.45-36.062c-.135.02-.27.073-.407.157-3.388 2.26-6.89 3.13-10.602 3.45 3.712-2.82 6.315-7.514 10.592-9.63.062 2.03.187 4.04.418 6.027z" fill="#f9cde0"/><path d="M321.785 268.04c-1.255 1.883-1.966 4.215-2.76 6.285-1.025 2.666-8.793 2.05-11.763 2.51-4.56.72-9.065 1.797-13.592 2.728-3.24.67-7.31.47-10.508 1.61-3.65.125-5.26-3.032-6.807-6.18 14.21-3.45 31.043-12.61 45.43-6.952z" fill="#ea786b"/><path d="M331.1 323.11c.127.42-.088.917-.47 1.132-3.155 1.788-6.613 2.824-9.974 4.19-.36.148-.664.08-.89-.087-.087-.03-.165-.068-.233-.147-3.273-3.82-8.43-17.596-2.06-20.937 8.78-4.6 11.966 10.537 13.627 15.85zm-2.09-.03c-.402-1.485-.763-2.97-1.193-4.436-.957-3.244-2.902-10.62-7.455-10.346-7.113.42-3 13.268-.547 18.162.078-.06.156-.107.254-.147.87-.35 8.73-3.233 8.94-3.233z" fill="#1d1d1b"/><path d="M320.258 264.914c-5.813-1.694-12.254-.784-18.11.408-9.043 1.85-17.638 5.395-26.61 7.507 1.35-11.725 3.012-23.41 4.37-35.135.41-3.513.566-7.016.806-10.54.335-4.777 1.464-11.208 7.685-7.538 7.493 4.422 11.59 14.993 15.64 22.28 4.57 8.23 10.214 15.78 16.215 23.013z" fill="#e7be6c"/><path d="M327.817 318.644c.43 1.465.79 2.95 1.192 4.436-.21 0-8.07 2.882-8.94 3.234-.1.04-.18.088-.258.147-2.452-4.89-6.565-17.74.547-18.16 4.553-.273 6.5 7.1 7.455 10.347z" fill="#f9cde0"/><path d="M596.26 310.182c2.94 1.242 3.288 4.63 1.91 7.14-1.05 1.908-3.05 3.196-4.968 4.127-.457-.02-.858.553-.457.982 4.008 4.328 4.4 9.56.247 13.897-3.488 3.625-9.195 4.09-12.007-.484-.41-.667-1.26-.31-1.342.365-.12 3.827-2.073 4.22-5.853 1.188-.228-.577-.96-.73-1.324-.175-3.534 5.497-15.897 5.35-16.48-2.4-.038-.494-.576-.64-.878-.412-.164-.136-.402-.2-.648-.08-5.533 2.547-5.79-4.28-2.502-6.565.484-.338.365-1.233-.32-1.196-6.5.365-13.34-2.31-10.007-9.85 2.058-4.63 7.19-8.01 11.536-4.184.237.21.648-.064.457-.356l-.08-.11c.19-.1.346-.32.29-.555-1.405-6.71.996-11.843 7.89-13.64 6.63-1.736 13.285 1.716 15.988 7.88.2.456.94.41 1.15 0 1.06-2.01 2.458-3.416 4.814-3.726 3.306-.44 3.6 2.764 3.45 5.12-.19.3-.117.775.34.95 2.83 1.066 5.98.884 8.8 2.08z" fill="#f5f6f6"/><path d="M601.338 366.856c.12.41-.292.85-.712.712-1.27-.42-5.24-2.246-6.328-1.096-1.38 1.443-1.808 3.415-3.607 4.5-.37.22-.882-.063-.873-.5.046-2.1.41-4.146.575-6.228.01-.1.046-.173.1-.228-1.297-.01-2.74-.94-3.616-1.79-.228-.21-.228-.603 0-.822 1.333-1.278 2.885-1.963 4.684-1.972-.447-1.37-.3-2.977.128-4.31.018-.055.046-.1.073-.137-2.474-1.817-3.424-5.177-3.862-8.072-.246-1.644-.712-5.387.94-6.5.183-.12.457 0 .502.2.227.913-.193 1.78-.22 2.712-.027 1.306.01 2.64.246 3.926.52 2.75 1.434 5.19 3.013 7.5.025.037.016.073.025.11 1.77.466 3.296 1.854 3.908 3.588 1.16-.75 2.365-1.26 3.77-1.306.357-.01.576.347.503.667-.228 1.03-.54 2.053-.93 3.03-.175.43-.33.895-.558 1.315 1.125 1.207 1.81 3.234 2.24 4.704zm-2.538-6.61c.237-.64.43-1.297.593-1.963-1.023.192-1.98.648-2.867 1.196-.338.21-.648-.04-.712-.34-.11-.02-.21-.08-.274-.21-.74-1.38-1.56-2.568-3.03-3.097-.138 1.25-.156 2.566.017 3.798.055.375-.41.704-.667.448-1.36.22-2.64.85-3.698 1.726.41.33.858.603 1.37.785.493.174 1.014.256 1.443.557.338.226.265.655-.037.81.082.047.146.138.155.284.064 1.617-.018 3.224-.073 4.83 1.132-1.515 1.954-4.026 3.762-4.08 1.68-.046 3.415.52 5.05 1.087-.476-1.15-1.097-2.19-1.718-3.277-.073-.054-.128-.127-.137-.236-.027-.046-.046-.09-.073-.137-.164-.276.018-.65.274-.77.192-.475.448-.94.622-1.415zm1.123-47.79c2.036 4.28-2.11 8.17-5.79 9.732 4.293 4.602 4.703 11.55-.63 15.796-4.144 3.296-9.404 3.844-12.79-.09-1.334 4.254-5.443 5.012-7.726 1.095-1.333 1.58-3.35 2.635-5.55 3.164-.42 1.333-1.115 2.502-1.188 4.045-.068 1.525-.11 3.844 1.375 4.766.09.055.082.164.018.22 1.26.62 2.137 1.588 2.584 2.92 1.442-.73 3.003-.802 4.592-.62.3.037.51.383.264.63-.977.977-1.598 2.337-2.548 3.35.74 1.115 1.37 2.23 1.743 3.516.1.356-.257.785-.64.64-1.59-.613-3.06-.795-4.346.492-.823.813-1.544 1.726-2.402 2.502-.338.3-.904.1-.913-.374-.01-1.808-.165-3.607-.23-5.415-1.213-.028-2.327-.713-3.332-1.36-.3-.193-.394-.64-.12-.905.72-.667 1.57-1.26 2.557-1.46.712-.138 1.26-.12 1.844.017-.33-1.288-.365-2.52.09-3.8.047-.127.156-.246.284-.3-1.534-.794-1.98-2.72-1.917-4.392.038-1.07.138-2.886.713-4.2-5.176.61-10.755-1.635-10.956-7.04-.85.474-1.634.72-2.328.784.12.073.21.192.22.384.483 7.86-1.964 16.215-3.836 23.803.11.027.22.082.274.192.913 1.653 1.36 3.48 1.644 5.332.082-.018.183-.01.283.037 1.48.686 3.006 1.133 4.62 1.334.285.046.605.365.376.667-1.18 1.544-3.215 2.594-5.07 3.096h-.054c-.22 1.926-.41 3.9-1.36 5.605-.183.34-.593.33-.86.12-1.304-1.04-2.262-2.43-2.637-4.054-1.333 1.6-4.063 2.074-5.972 1.827-.42-.055-.75-.457-.5-.877.986-1.69 2.182-3.25 3.397-4.775.028-.026.056-.054.092-.072-1.38-.823-2.475-2.658-2.84-4.055-.11-.447.282-.767.693-.694 1.132.21 2.283.493 3.433.566.52.027 1.03.01 1.55.018.047 0 .083.01.13.018.29-1.48 1.067-2.776 2.1-3.88-.11-.065-.184-.174-.165-.33.95-8.017 2.923-15.824 3.745-23.877.017-.185.11-.303.227-.376-3.433-.174-4.547-5.17-2.054-8.31-6.793-.183-13.422-3.963-9.514-11.806 2.09-4.21 8.08-9.068 12.08-5.17-2.092-6.18 1.55-12.453 8.016-14.106 7.04-1.8 14.28.866 17.732 7.23 1.525-2.21 4.19-4.227 6.967-3.23 2.785.985 3.734 3.514 3.02 6.19 4.32.822 9.507 1.05 11.598 5.47zm-1.753 4.866c1.38-2.51 1.032-5.898-1.908-7.14-2.82-1.196-5.972-1.014-8.802-2.082-.457-.174-.53-.648-.338-.95.146-2.356-.146-5.56-3.45-5.122-2.357.31-3.754 1.717-4.813 3.725-.21.41-.95.457-1.155 0-2.703-6.163-9.36-9.615-15.988-7.88-6.895 1.8-9.296 6.93-7.89 13.64.055.238-.1.458-.29.558.025.04.053.077.08.11.192.296-.22.57-.457.36-4.345-3.826-9.477-.447-11.53 4.18-3.333 7.54 3.506 10.218 10.007 9.85.684-.034.803.86.32 1.2-3.288 2.282-3.032 9.11 2.5 6.564.248-.12.485-.055.65.082.3-.228.84-.082.876.41.584 7.753 12.947 7.9 16.48 2.402.366-.557 1.097-.402 1.325.173 3.78 3.03 5.734 2.638 5.853-1.19.084-.674.93-1.03 1.344-.363 2.812 4.575 8.52 4.11 12.007.484 4.155-4.335 3.763-9.567-.246-13.895-.402-.43 0-1.004.457-.986 1.918-.93 3.918-2.22 4.968-4.127zm-25.23 42.98c-.328-.777-.757-1.48-1.223-2.202-.292 0-.566-.374-.383-.648.758-1.087 1.662-2.137 2.566-3.132-1.178.12-2.356.22-3.46.657-.156.064-.293.018-.385-.073-.173.037-.374-.037-.438-.256-.292-1.04-.986-2.21-2.036-2.648-.1 1.04-.124 2.064.077 3.123.018.1 0 .192-.036.274.2.082.183.402-.064.402-1.37.005-2.748.325-3.862 1.11.813.475 1.616.776 2.602 1.004.292.064.393.43.274.667l.01.01c.472 1.424.5 2.867.48 4.328.787-.877 1.545-1.835 2.55-2.356 1.104-.584 2.21-.566 3.332-.264zm-21.885 9.485c1.214-.575 2.547-.895 3.625-1.67-1.306-.147-2.538-.677-3.716-1.28-.128.284-.667.293-.75-.072-.364-1.78-.63-3.543-1.423-5.177-.863 1.132-1.484 2.456-1.98 3.79-.08.218-.33.29-.52.236-.1.064-.22.12-.37.146-.594.082-1.17.073-1.763 0-.813-.1-1.607-.256-2.392-.42.246.593.593 1.132 1.05 1.607.51.54 1.178.96 1.56 1.59.184.3-.118.684-.456.583-.11-.027-.21-.082-.32-.128.036.073.036.164 0 .247-.65 1.47-1.508 2.83-2.375 4.19.776.01 1.56-.11 2.292-.386.867-.338 1.607-.93 2.484-1.224.12-.036.22 0 .31.065.164-.073.393-.018.484.22.502 1.24 1.278 2.4 2.246 3.332.71-1.718.692-3.644 1.02-5.46.09-.485.74-.503.996-.193z" fill="#1d1d1b"/><path d="M599.393 358.283c-.164.667-.356 1.324-.593 1.963-.173.475-.43.94-.62 1.415-.257.12-.44.497-.275.77.027.047.046.09.073.138.01.11.064.183.137.237.62 1.087 1.242 2.127 1.717 3.278-1.634-.565-3.37-1.13-5.05-1.086-1.807.055-2.63 2.566-3.76 4.08.054-1.606.136-3.213.072-4.83-.01-.145-.073-.236-.155-.282.3-.154.37-.583.033-.812-.43-.3-.95-.383-1.443-.557-.51-.182-.96-.456-1.37-.784 1.06-.877 2.338-1.507 3.7-1.726.256.256.72-.073.667-.447-.173-1.234-.155-2.55-.018-3.8 1.47.53 2.29 1.717 3.03 3.095.063.128.163.192.273.21.064.3.374.548.712.338.885-.546 1.843-1.003 2.866-1.194zm-27.675-.183c.466.72.895 1.424 1.224 2.2-1.123-.3-2.228-.32-3.333.266-1.008.52-1.766 1.48-2.55 2.356.02-1.46-.01-2.904-.485-4.328l-.01-.01c.12-.236.02-.602-.273-.666-.986-.228-1.79-.53-2.602-1.004 1.115-.785 2.494-1.105 3.863-1.114.247 0 .265-.32.064-.402.035-.082.054-.173.035-.274-.2-1.06-.173-2.082-.073-3.123 1.05.44 1.742 1.61 2.034 2.65.064.22.265.29.438.258.09.09.228.137.384.073 1.105-.44 2.283-.54 3.46-.657-.903.996-1.807 2.046-2.565 3.133-.182.273.09.647.384.647zm-17.038 10.017c-1.077.776-2.41 1.096-3.625 1.67-.256-.31-.904-.29-.995.193-.33 1.817-.31 3.744-1.023 5.46-.968-.93-1.744-2.09-2.246-3.333-.09-.237-.32-.292-.48-.22-.09-.063-.192-.1-.31-.063-.877.292-1.616.886-2.484 1.224-.73.274-1.516.393-2.292.383.868-1.36 1.727-2.72 2.375-4.19.036-.08.036-.17 0-.244.11.046.21.1.32.128.337.1.64-.282.456-.583-.383-.63-1.05-1.05-1.56-1.59-.458-.474-.805-1.013-1.05-1.606.784.165 1.58.32 2.39.42.595.074 1.17.083 1.763 0 .154-.026.273-.08.373-.145.19.054.438-.02.52-.238.493-1.33 1.114-2.655 1.98-3.79.795 1.637 1.06 3.4 1.425 5.18.082.365.62.356.75.073 1.177.6 2.41 1.13 3.716 1.277z" fill="#ffd436"/><path d="M526.753 413.153c.617 6.18-4.946 10.76-10.132 12.63-.78.282-.874 1.17-.52 1.694-.114.366-.05.784.346 1.046 18.758 12.442-13.017 31.618-26.348 27.227-.586-.2-1.328.324-1.276.972.805 9.902-8.103 12.85-16.29 10.414-.65-.188-1.276.335-1.286.983-.565 30.37-45.054 41.09-61.323 16.61-.375-.565-1.295-.67-1.64 0-3.713 7.162-14.346 5.343-17.4-1.4-.28-.628-1.254-.545-1.557 0-3.063 5.53-9.483 3.282-12.672-.817-.2-.25-.532-.136-.68.084-.407-.283-1.034-.294-1.42.23-5.74 7.935-14.346 12.337-24.216 11.626-10.696-.763-17.19-8.93-18.998-18.904-.125-.69-1.223-.524-1.202.156 0 .187.02.355.03.543-.26.01-.51.124-.68.43-8.96 16.006-37.692-6.82-26.075-19.753.7-.773 0-1.756-.94-1.62-15.445 2.11-34.098-10.257-31.15-27.352 2.614-15.214 22.93-24.51 34.765-13.552.585.544 1.4-.282.868-.868-.01 0-.02-.01-.02-.02 0-.043 0-.085-.01-.126-2.782-12.726 17.293-12.548 22.552-4.654.356.533 1.255.65 1.58 0 2.99-5.866 9.46-5.364 13.152-.48.46.605 1.4.585 1.652-.22 1.682-5.333 7.046-5 9.765-.743.387.606 1.443.575 1.61-.21 2.143-9.942 13.06-14.386 22.323-13.947 9.61.46 16.217 7.874 21.706 14.9.324.408 1.087.366 1.422 0 2.154-2.457 4.287-4.538 7.77-4.872 3.512-.335 6.942 2.77 9.315 4.883.576.514 1.496.326 1.716-.45 2.74-9.377 15.484-1.357 19.164 3.316.733.92 1.925-.084 1.695-1.046 10.402-13.886 30.195-14.597 42.02-1.83.366.386 1.066.386 1.422 0 7.81-8.45 19.374-12.265 30.248-7.53 5.187 2.26 10.143 6.788 10.718 12.643z" fill="#f5f6f6"/><path d="M526.042 405.636c6.2 8.75.983 18.172-7.988 21.842 15.663 11.585-2.813 27.645-18.58 30.52.063-.2.125-.387.188-.586.303-.9-1.077-1.474-1.537-.638-.272.502-.533 1.014-.784 1.537-2.275.23-4.46.17-6.44-.26.076 9.695-8.95 13.407-17.68 11.368-.855 14.868-11.635 25.094-24.55 29.004-.322-.324-.67-.64-1.023-.93-.638-.524-1.777.166-1.223.94.126.167.242.335.346.512-13.49 3.4-28.86.01-37.63-12.012-2.3 3.2-6.055 4.485-9.735 4.15.084-.313.188-.637.293-.96.178-.555-.596-1.005-.983-.576-.356.398-.69.817-.993 1.266-3.105-.69-5.99-2.54-7.716-5.322-3.774 4.58-10.403 2.854-13.707-1.913-.02.074-.044.147-.086.22-5.677 9.107-16.97 13.352-26.955 12.223-2.29 17.21-.754 34.86 6.85 50.616.07.01.155.04.22.072 3.082 1.63 5.57 4.12 8.25 6.305.092.073.155.157.197.24.063-.115.136-.21.26-.293 2.552-1.61 5.25-2.907 8.23-3.492.66-.125 1.13.387 1.025 1.025-.522 3.18-1.944 6.502-3.65 9.273 2.98 1.726 4.906 6.19 6.4 9.087.273.533-.05 1.265-.71 1.244-4.276-.198-10.57-3.48-12.913 1.946-1.17 2.698-1.79 5.165-4.236 6.974-.47.356-1.055-.042-1.222-.502-1.568-4.078-2.73-8.26-2.143-12.64-.043-.01-.085 0-.137-.01-2.99-.827-5.99-1.35-9.044-1.84-.827-.137-.91-1.38-.23-1.747 1.912-1.024 3.575-2.404 5.33-3.638 1.015-.72 2.31-1.715 3.608-1.63-.01-.032-.02-.053-.02-.085.207-2.907.615-5.907-.086-8.762-8.23-15.62-11.095-35.048-7.027-52.278-8.804-1.338-16.374-6.964-17.827-17.252-4.33 6.493-11.815 6.483-18.412 3.2 1.746 6.597.073 13.718-2.77 19.866.553 2.07 1.013 4.966 2.76 6.41 1.703 1.4 3.89 2.142 5.896 3 .596.25.45 1.11 0 1.41-1.976 1.266-4.33 1.914-6.263 3.23-2.583 1.76-1.59 7.164-1.87 9.83-.054.554-.69 1.14-1.246.72-2.622-1.944-2.99-4.86-4.83-7.37-2.592-3.524-7.54-.43-10.894-.105-.72.073-1.14-.972-.595-1.432 1.83-1.568 3.502-3.252 4.976-5.155.985-1.277-1.514-6.787-1.83-8.292-.123-.627.546-1.317 1.17-.89 1.885 1.277 3.89 2.228 5.93 3.22 1.716-1.17 3.284-2.822 4.78-4.317.01-.02 0-.05.02-.084 2.854-6.2 4.705-13.603 3.9-20.493-8.866-4.862-15.757-15.548-10.445-23.985-16.24.804-36.44-12.987-31.076-31.16 4.37-14.794 23.566-25.354 36.04-14-3.7-12.326 17.46-13.205 24.52-5.54 3.596-5.448 10.246-5.04 14.574-.566 2.372-4.707 7.747-4.85 11.26-1.17 3.92-12.38 21.32-17.035 32.32-11.46 3.313 1.67 6.27 3.88 8.823 6.585 1.63 1.726 3.18 3.514 4.653 5.386.28.367 3-2.31 3.345-2.52 5.552-3.345 10.445-1.045 14.93 2.657 3.932-8.73 16.52-2.447 21.53 3.19 5.593-8.648 15.526-12.61 25.73-11.617 5.238.503 10.173 2.667 14.408 5.73 1.12.806 2.218 1.747 3.16 2.75.313.336 2.425-2.017 2.634-2.195 2.363-1.935 4.82-3.514 7.59-4.81 10.016-4.673 24.257-2.435 30.938 6.986zm-9.42 20.148c5.186-1.872 10.748-6.45 10.132-12.63-.575-5.855-5.53-10.383-10.717-12.64-10.874-4.737-22.438-.92-30.248 7.527-.36.39-1.06.39-1.426 0-11.825-12.762-31.618-12.05-42.02 1.83.23.966-.963 1.97-1.695 1.05-3.68-4.674-16.426-12.693-19.165-3.314-.22.774-1.14.962-1.715.45-2.37-2.112-5.8-5.217-9.314-4.883-3.482.336-5.615 2.416-7.77 4.873-.334.366-1.097.408-1.42 0-5.49-7.026-12.098-14.44-21.707-14.9-9.267-.438-20.18 4.006-22.326 13.95-.167.783-1.223.815-1.61.208-2.718-4.254-8.082-4.59-9.766.743-.25.805-1.193.826-1.653.22-3.69-4.883-10.163-5.385-13.153.48-.324.65-1.223.534-1.58 0-5.258-7.893-25.333-8.07-22.552 4.654.01.043.01.085.01.126 0 .01.01.022.02.022.535.586-.28 1.412-.866.868-11.836-10.957-32.15-1.662-34.765 13.55-2.95 17.096 15.704 29.465 31.15 27.353.94-.137 1.64.846.94 1.62-11.617 12.934 17.115 35.76 26.075 19.75.167-.302.418-.417.68-.43-.01-.186-.03-.353-.03-.542-.022-.68 1.076-.847 1.2-.157 1.81 9.976 8.303 18.14 19 18.905 9.87.71 18.474-3.69 24.214-11.627.385-.523 1.012-.512 1.42-.23.146-.22.48-.335.68-.084 3.19 4.1 9.61 6.346 12.672.815.303-.545 1.276-.628 1.558 0 3.055 6.743 13.69 8.562 17.4 1.4.345-.67 1.265-.565 1.64 0 16.27 24.477 60.76 13.76 61.325-16.614.01-.647.638-1.17 1.286-.982 8.19 2.436 17.098-.512 16.29-10.414-.05-.65.69-1.17 1.28-.973 13.33 4.39 45.105-14.784 26.347-27.227-.397-.26-.46-.68-.345-1.046-.356-.524-.262-1.413.523-1.695zm-141.79 142.48c-1.558-2.72-3.356-5.145-5.25-7.686-.01-.01-.01-.03-.02-.042-.46-.063-.878-.44-.67-.983 1.088-2.813 2.688-5.28 3.483-8.166-1.966.523-3.806 1.37-5.615 2.32 0 .18-.105.377-.272.45-.502.273-1.035.503-1.568.722-.136.06-.314.163-.47.184-.043.01-.23.01-.325.01-.356-.063-.544-.44-.397-.72-.115-.032-.23-.085-.335-.168-2.09-1.705-4.046-3.587-6.294-5.072.362 2.645-.067 5.31-.63 7.957-.03.18-.147.294-.28.357-.01.03-.02.073-.045.105-.91 1.265-2.645 2.07-3.89 3-.91.68-1.797 1.38-2.728 2.03 2.247.375 4.495.794 6.617 1.567.617.22.732.867.502 1.306.177.093.323.27.323.5-.053 3.807.982 7.383 2.184 10.938 2.874-2.782 2.477-7.446 6.732-9.286 2.635-1.14 6.044.166 8.94.67zm-65.59-52.79c1.716-1.747 4.183-2.51 6.39-3.598-4.34-2.028-6.15-3.9-7.592-8.553-1.495 1.516-3.24 3.283-5.123 4.067-.2.324-.617.554-1.066.335-1.48-.7-2.934-1.4-4.36-2.196.87 2.4 2.19 5.935 1.635 6.67-1.12 1.503-2.3 2.914-3.576 4.252 2.446-.763 5.25-1.725 7.12-.617 2.99 1.767 3.366 5.364 5.405 7.842-.104-2.77-.502-6.504 1.17-8.208zm205.32 5.258c-3.064-.43-5.96.502-8.825 1.443-.565.178-.962-.188-1.066-.638-.184-.084-.34-.24-.404-.502-.805-3.158-1.84-6.44-3.963-8.97-1.82 2.372-2.414 5.29-2.28 8.29.023.47-.52.68-.876.512-2.405 1.046-4.83 1.987-7.31 2.854 1.454 2.04 3.91 2.848 6.16 3.91.375.19.5.66.417 1.04-.344 1.505-3.44 13.173 1.078 8.625 1.893-1.913 3.19-4.088 4.413-6.462.27-.522.97-.532 1.37-.177 2.393 2.164 4.36 4.81 7.36 6.022-.72-3.858-2.907-7.54-.638-11.22.408-.634 3.86-4.722 4.57-4.722zm1.61-1.17c.46.156.816.74.49 1.212-1.546 2.185-6.45 5.25-6.074 8.176.397 3.053 1.683 5.887 1.955 8.97.052.586-.596.963-1.098.837-3.69-.878-5.95-3.555-8.553-6.064-2.07 3.858-4.61 7.486-9.264 8.03-.45.063-.962-.45-.9-.9.377-3.115 2.93-10.256-.156-11.762-2.206-1.073-3.848-2.16-5.02-4.36-.302-.582-.03-1.24.587-1.44 2.85-.94 5.705-1.735 8.622-2.435-.44-3.283.44-6.62 2.635-9.128-.01-.02-.03-.03-.043-.052-7.1-14.993-9.536-36.835-2.018-52.33.7-.074 1.42-.18 2.132-.315-2.75 8.384-4.685 16.477-4.277 25.427.42 9.21 2.385 17.89 5.05 26.662.22-.01.43.06.576.22 2.594 2.81 3.91 6.355 4.884 9.994 3.41-1.077 6.985-1.955 10.467-.742z" fill="#1d1d1b"/><path d="M505.737 522.175c2.865-.94 5.76-1.872 8.825-1.443-.71 0-4.16 4.088-4.57 4.726-2.268 3.68-.083 7.36.64 11.22-3.002-1.214-4.967-3.86-7.362-6.023-.397-.356-1.098-.345-1.37.178-1.223 2.373-2.52 4.548-4.412 6.462-4.517 4.548-1.422-7.12-1.077-8.626.088-.38-.04-.85-.414-1.04-2.248-1.066-4.705-1.87-6.158-3.91 2.478-.867 4.904-1.81 7.31-2.853.355.166.898-.043.877-.513-.136-3 .46-5.918 2.28-8.29 2.12 2.53 3.157 5.812 3.962 8.97.063.26.22.418.408.502.103.445.5.81 1.065.634z" fill="#ffd436"/><path d="M498.125 456.774c.46-.836 1.84-.26 1.537.638-.063.2-.125.387-.188.586-.71.136-1.432.24-2.133.314.255-.523.517-1.036.788-1.538zM471.17 570c.137.605-.396 1.2-1.034 1.024-2.32-.648-4.663-1.276-6.995-1.913-2.924-.79-2.62-.383-3.582 2.137-1.025 2.698-2.206 5.113-4.276 7.162-.47.46-1.18.21-1.39-.367-1.36-3.826-2.134-7.443-2.03-11.47-.01 0-.01.01-.02.01-1.495.043-3.053-.626-4.506-.982-1.432-.354-2.854-.752-4.287-1.15-.41-.114-.64-.47-.67-.877-.01-.158-.03-.315-.04-.472-.033-.313.197-.7.47-.835 2.75-1.35 5.57-2.405 8.394-3.555.19-.085.347-.043.483.05-.753-3.242-1.056-6.64-1.046-9.965-.146-.073-.26-.22-.25-.418 1.21-16.708 6.523-34.62-3.62-49.435.64-.145 1.277-.323 1.904-.522 5.344 5.384 6.138 15.066 6.055 22.123-.095 9.13-1.413 18.173-3.19 27.113.073.01.136.042.2.084 2.874 2.06 5.175 4.652 7.433 7.35 2.195-1.318 4.275-2.876 6.69-3.755.49-.178.9.178 1.036.606.25.118.47.348.49.704.22 3.785-2.373 6.232-.05 9.902 1.534 2.426 3.186 4.61 3.835 7.455zm-2.1-1.005c-1.235-2.896-3.755-5.155-4.476-8.218-.627-2.698.972-4.81 1.13-7.455-2.082 1.108-4.068 2.478-6.316 3.19-.26.26-.66.334-.962-.022-1.934-2.332-3.89-4.705-6.263-6.608.2 3.137.627 6.273.648 9.41 0 .523-.7.67-.94.282-.05.094-.112.188-.22.25-2.11 1.235-4.284 2.322-6.47 3.4 1.057.302 2.134.574 3.21.846 1.266.335 2.7.523 3.755 1.328.042.03.084.073.115.125.22-.01.44.136.48.418.42 3.517 1.213 6.915 2.29 10.27 2.154-2.58 3.137-5.822 4.067-9.063.125-.43.575-.69 1.014-.565 2.97.827 5.96 1.61 8.94 2.416z" fill="#1d1d1b"/><path d="M464.594 560.777c.72 3.063 3.24 5.322 4.475 8.218-2.98-.805-5.97-1.59-8.94-2.415-.44-.125-.89.136-1.018.565-.93 3.24-1.913 6.482-4.067 9.065-1.077-3.356-1.87-6.754-2.29-10.268-.042-.282-.26-.43-.48-.418-.032-.052-.074-.094-.116-.125-1.056-.81-2.49-.997-3.754-1.33-1.077-.27-2.154-.546-3.21-.85 2.185-1.076 4.36-2.163 6.472-3.397.103-.063.165-.157.22-.25.24.386.94.24.94-.283-.02-3.136-.45-6.272-.65-9.41 2.374 1.904 4.33 4.277 6.264 6.61.303.355.7.282.962.02 2.248-.71 4.235-2.08 6.315-3.19-.157 2.646-1.756 4.76-1.13 7.456z" fill="#ffd436"/><path d="M447.645 497.49c.355.292.7.605 1.025.93-.627.2-1.265.376-1.903.523-.105-.178-.22-.345-.345-.512-.554-.77.586-1.46 1.223-.94zM414.68 526.4c.323.145.45.668.25.95-1.244 1.777-2.73 3.356-4.412 4.705-.92.742-1.924 1.673-3.022 2.258 1.464 3.043 2.363 6.22 2.896 9.556.125.77-.533 1.282-1.244.96-2.708-1.215-6.89-5.366-9.89-3.578-2.343 1.39-4.34 3.43-7.017 4.182-.55.146-1.14-.282-1.125-.868.084-3.974.878-7.675 3-11.02-1.86-.764-3.67-1.674-5.342-2.793-1.055-.7-1.954-1.014-2.027-2.332-.02-.407.314-.877.72-.95 2.97-.544 5.877-1.286 8.794-2.03.25-2.59.877-5.205 1.714-7.652.043-.106.105-.21.18-.283-2.97-6.943-5.103-19.772-.43-26.704.554.137 1.12.22 1.683.273-2.73 8.94-2.76 17.064-.293 26.296.01.03 0 .052 0 .073 2.95 1.913 3.87 5.25 5.343 8.27.042.073.052.157.063.23 3.513-.322 6.806-1.012 10.163.452zm-4.76 4.15c1.172-.993 2.3-2.028 3.263-3.22-2.76-.836-6.033-.084-8.835-.24-.272-.02-.44-.178-.502-.366-.21.01-.418-.084-.544-.335-1.16-2.388-1.987-5.67-4.235-7.31-.627 2.234-1.087 4.493-1.673 6.74.084.336-.042.743-.46.91-2.447 1.015-4.893 1.893-7.465 2.395.665.43 1.575.9 1.87 1.067 1.13.648 2.28 1.223 3.48 1.736.43.18.502.607.387.993.083.095.114.22.05.367-1.233 3.21-2.05 6.544-2.3 9.974 2.866-1.4 5.23-4.673 8.585-4.244 2.436.313 4.663 2.132 6.86 3.47-.534-2.57-1.298-5.04-2.395-7.476-.05-.105-.072-.21-.072-.314-.335-.197-.47-.7-.157-1.044 1.13-1.234 2.855-2.007 4.14-3.105z" fill="#1d1d1b"/><path d="M413.183 527.33c-.962 1.19-2.09 2.226-3.262 3.22-1.282 1.097-3.01 1.87-4.14 3.104-.31.345-.174.847.16 1.046 0 .105.02.21.074.314 1.1 2.436 1.862 4.904 2.395 7.476-2.197-1.338-4.424-3.158-6.86-3.47-3.356-.43-5.72 2.843-8.584 4.244.25-3.43 1.066-6.765 2.3-9.975.063-.15.03-.276-.052-.37.115-.387.042-.816-.387-.993-1.202-.513-2.353-1.088-3.482-1.737-.292-.166-1.2-.637-1.87-1.066 2.57-.502 5.018-1.38 7.464-2.394.417-.167.543-.575.46-.91.585-2.248 1.045-4.506 1.672-6.744 2.25 1.64 3.075 4.924 4.236 7.308.125.25.335.345.544.335.062.19.23.344.5.365 2.803.156 6.076-.597 8.836.24z" fill="#ffd436"/><path d="M398.713 489.542c.387-.43 1.16.02.983.575-.105.324-.21.648-.293.962-.565-.056-1.13-.14-1.683-.276.303-.45.637-.867.993-1.265z" fill="#1d1d1b"/><path d="M364.125 555.08c.094 0 .282 0 .324-.01.153-.022.33-.126.47-.19.53-.22 1.063-.45 1.565-.72.167-.073.272-.272.272-.45 1.81-.95 3.65-1.798 5.614-2.32-.794 2.885-2.393 5.352-3.48 8.165-.21.544.21.92.67.983.01.01.01.03.02.042 1.89 2.54 3.69 4.966 5.25 7.685-2.898-.502-6.307-1.81-8.94-.67-4.258 1.84-3.86 6.504-6.735 9.286-1.203-3.55-2.238-7.13-2.186-10.933 0-.23-.147-.408-.325-.502.23-.44.115-1.087-.502-1.307-2.122-.774-4.37-1.192-6.618-1.568.93-.65 1.82-1.35 2.73-2.03 1.243-.93 2.98-1.736 3.888-3 .02-.03.03-.074.042-.106.136-.063.25-.178.282-.356.565-2.645.993-5.312.627-7.957 2.247 1.487 4.202 3.37 6.293 5.07.105.087.22.14.335.17-.146.28.042.658.397.72zm-48.493-43.204c-2.206 1.087-4.674 1.85-6.388 3.597-1.673 1.704-1.276 5.437-1.17 8.208-2.04-2.474-2.416-6.07-5.407-7.84-1.872-1.11-4.674-.144-7.12.62 1.276-1.34 2.457-2.75 3.576-4.256.554-.73-.763-4.265-1.63-6.67 1.42.795 2.874 1.495 4.36 2.196.45.22.867-.01 1.065-.336 1.882-.783 3.628-2.55 5.123-4.066 1.447 4.652 3.256 6.523 7.595 8.552z" fill="#ffd436"/><path d="M258.102 336.338c8.774.088 14.4 10.835 3.498 13.287-.576.127-.713.88-.332 1.28 4.445 4.65 4.445 10.757.05 15.427-5.296 5.628-12.38 2.843-15.955-2.98-.37-.606-1.21-.313-1.26.342.06 3.967-2.15 5.286-6.624 3.967-.46-.4-1.118-.123-1.167.48-.47 7.135-11.812 3.305-9.477-2.54.097-.222-.275-.37-.392-.163-.186.313-.322.615-.43.918-.186-.332-.625-.508-.938-.137-3.302 3.947-10.092 3.81-11.832-1.827-.723-2.325-.098-5.334-.03-7.73.01-.38-.312-.623-.663-.653-5.392-.498-11.96-1.837-14.07-7.562-1.2-3.253.188-7.328 1.7-10.22 2.806-5.353 8.688-5.48 13.32-2.764.313.186.684-.264.4-.51.04-.047.06-.115.03-.203-1.73-4.602 3.732-4.63 6-2.49.4.36 1.142.01.947-.558-1.436-4.23.03-8.15 4.397-9.625 4.24-1.436 7.27 1.368 9.106 4.817.14.257.39.277.598.17.165.05.36.03.556-.1 4.318-2.687 8.324-5.6 13.63-5.61 7.786-.01 12.26 7.046 8.264 13.807-.305.517.086 1.17.672 1.18z" fill="#f5f6f6"/><path d="M259.363 334.853c9.516 1.036 14.42 12.71 3.83 15.935 4.494 5.618 3.732 13.072-2.14 17.713-1.65 1.3-3.37 2.007-5.07 2.23 1.464 4.21.292 8.658-.665 12.88.107.04.195.106.264.194 1.114 1.545 1.964 3.225 2.6 5.003.048-.03.087-.06.146-.078 1.495-.48 3.048-.46 4.592-.36.293.02.625.32.49.643-.822 1.974-2.277 3.517-4.25 4.367.693 1.18 1.005 2.55 1.328 3.87.107.41-.264.79-.674.682-1.426-.392-2.687-1.037-3.88-1.887-.02.068-.048.137-.097.195-1.143 1.368-2.902 2.013-4.455 2.794-.508.254-.987-.156-.9-.694.333-2.042.695-4.084 1.232-6.087-.87-.34-1.602-.946-2.345-1.493-.688-.508-1.118-.645-1.186-1.514-.03-.274.215-.586.488-.645 1.68-.36 3.214-.565 4.905-.39.292-1.37.702-2.705 1.015-4.073-.205-.088-.36-.303-.322-.576.656-4.24 1.828-8.567.323-12.73-3.615-.06-7.034-2.217-9.448-5.402-1.006 3.85-4.094 6.253-7.66 3.928-.664 2.825-2.902 3.948-5.247 3.91-1.543 5.48-2.11 10.62-1.425 16.364.37 3.067.86 6.232 1.954 9.144.682 1.788 1.854 3.205 2.646 4.865.137-.03.293.01.41.105 1.338 1.046 2.384 2.346 3.195 3.83.245-.282.53-.194.81-.077 1.32-.5 2.69-.665 4.076-.95.37-.087.684.226.606.607-.254 1.203-.625 2.453-1.143 3.567-.167.37-.363.87-.636 1.27.01.02.03.03.04.05.85 2.08 1.77 4.093 2.22 6.3.09.46-.283.86-.75.744-1.858-.44-3.568-1.23-5.278-2.08-1.435 1.417-2.92 2.755-4.64 3.83-.362.225-.85-.068-.85-.48.02-2.1.098-4.2.127-6.29 0-.1.03-.177.066-.235-.528.098-1.124-.05-1.66-.137-.87-.127-1.72-.332-2.59-.488-.195-.03-.43-.254-.46-.45-.155-1.19.792-1.455 1.73-1.973 1.055-.575 2.335-1.054 3.253-1.875-.39-1.798-.147-3.478 1.036-4.885-4.182-1.396-5.256-11.137-5.57-14.39-.41-4.23-1.445-12.633 1.613-16.492-2.97-.547-5.726-2.833-5.267-5.823-2.354 2.648-6.887 3.576-10.13 2.17.06.165.04.36-.118.497-2.06 1.75-3.302 3.34-4.2 5.98-.773 2.275-1.32 4.61-1.603 6.994-.02.158-.108.276-.216.354.782 1.523 1.505 3.057 1.856 4.747.078-.02.147-.028.235-.01 1.212.275 2.462.392 3.703.5.715.067 1.73.01 2.317.49.137.115.098.29 0 .41.078.252.02.555-.264.74-2.06 1.37-3.555 2.953-3.682 5.51-.1 1.927-.01 3.85-.117 5.776-.02.332-.264.606-.606.606-1.036 0-1.573-.918-2.237-1.64-1.077-1.173-2.11-2.365-3.11-3.606-2.627 1.65-5.617 2.56-8.724 2.657-.508.02-.703-.517-.528-.917.898-2.042 1.943-4.074 3.38-5.803.87-1.054 1.445-1.132.605-2.295-.645-.88-1.32-1.66-2.228-2.268-.43-.283-.215-.85.186-.918.1-.107.246-.176.44-.166 1.565.05 3.138.05 4.71.127.577-1.825 1.61-3.574 3.235-4.64.04-.03.088-.05.146-.05.275-2.997.91-5.95 1.994-8.752.646-1.68 2.07-4.425 4.134-4.65-1.505-.87-2.628-2.305-2.95-4.415-.284-1.836-.294-3.604-.187-5.47.138-2.452-1.025-2.022-2.94-2.413-2.824-.558-5.91-1.36-8.187-3.235-9.83-8.08 1.377-27.22 12.33-19.365-.94-1.72-.616-3.38 1.367-4.445 1.642-.87 3.518-.332 5.023.616-1.67-9.427 12.252-13.736 15.515-4.874 5.99-3.8 13.98-8.765 21.006-3.948 4.76 3.26 5.814 8.34 3.46 13.254zm2.237 14.772c10.903-2.452 5.276-13.2-3.498-13.287-.586-.01-.977-.664-.674-1.182 3.996-6.76-.48-13.815-8.265-13.805-5.305.01-9.31 2.925-13.63 5.61-.194.13-.39.15-.556.1-.205.107-.46.088-.596-.166-1.833-3.448-4.86-6.252-9.102-4.816-4.367 1.475-5.833 5.393-4.397 9.624.195.568-.547.92-.95.558-2.265-2.14-7.726-2.11-6 2.49.03.09.01.157-.026.206.283.245-.088.695-.4.51-4.632-2.717-10.514-2.59-13.318 2.764-1.514 2.892-2.902 6.966-1.7 10.22 2.11 5.724 8.676 7.063 14.07 7.56.35.03.673.274.663.656-.07 2.394-.695 5.403.03 7.728 1.737 5.638 8.527 5.775 11.83 1.828.313-.37.752-.195.94.137.105-.304.242-.607.43-.92.115-.205.487-.06.39.166-2.336 5.842 9.007 9.672 9.476 2.54.05-.606.703-.88 1.163-.48 4.474 1.32 6.682 0 6.623-3.966.05-.656.89-.95 1.26-.343 3.577 5.823 10.66 8.607 15.955 2.98 4.397-4.67 4.397-10.776-.05-15.427-.378-.4-.24-1.153.335-1.28zm.46 39.813c-1.154.078-2.297.156-3.44.332-.068.01-.127 0-.195-.01-.107.225-.49.313-.625.03-.752-1.515-1.514-3.06-2.443-4.495-.303 1.075-.703 2.1-1.094 3.156.02.1-.01.19-.088.248-.078.215-.156.41-.234.625-.123.353-.61.216-.553-.155.02-.088.04-.186.06-.283-1.164.255-2.316.548-3.47.802.783.625 1.584 1.23 2.492 1.66.35.167.34.568.155.822v.04c-.117 1.757-.43 3.496-.743 5.235 1.17-.567 2.335-1.163 3.4-1.934.088-.06.176-.077.254-.077.06-.215.283-.38.547-.225.978.557 2.014 1.016 3.088 1.378-.282-1.035-.634-2.04-1.19-2.97-.245-.4.05-.77.4-.84.05-.126.147-.243.332-.32 1.455-.608 2.59-1.673 3.35-3.012zm-19.67 20.712c.39-.82.713-1.63.967-2.48-.978.175-1.975.292-2.893.644-.518.205-1.006.44-1.348.117-.187.17-.49.2-.636-.084-.733-1.397-1.69-2.638-2.902-3.654-.81 1.17-.88 2.814-.703 4.18.028.285-.206.44-.46.45-1.006 1.36-2.228 2.18-3.654 3 .51.137 1.03.234 1.537.313.684.098 1.436-.03 1.983.43.136.117.146.39 0 .498-.05.04-.1.06-.138.09.177.04.323.165.333.41.02 1.74.068 3.477.098 5.216 1.398-1.017 2.62-2.2 3.85-3.43.195-.195.488-.215.733-.088 1.426.712 2.872 1.386 4.397 1.865-.47-1.73-1.172-3.37-1.866-5.03-.177-.05-.333-.187-.304-.392.088-.732.684-1.387 1.006-2.05zm-26.633-20.438c-.402-.06-.783-.137-1.076-.176-1.12-.147-2.254-.293-3.36-.567-.09-.03-.154-.07-.203-.11-.166.03-.342-.04-.4-.265-.44-1.74-1.017-3.44-1.945-4.992-1.22 1.27-2.04 2.736-2.774 4.338-.01.01-.01.02-.02.03-.05.117-.107.225-.156.33-.128.276-.46.197-.597-.01-1.065.05-2.13.07-3.205.09.84.81 1.486 1.798 2.16 2.784.147.225.078.528-.098.713-1.768 1.904-3.117 4.015-4.22 6.32 2.57-.215 5.02-1.036 7.22-2.413.233-.147.458-.098.615.03.127-.02.254.02.38.126 1.105.91 2.082 1.955 3.03 3.02.244.264.772 1.036 1.24 1.505-.01-2.208-.292-4.63.363-6.702.548-1.75 1.672-2.99 3.05-4.054z" fill="#1d1d1b"/><path d="M258.62 389.77c1.143-.176 2.286-.254 3.44-.332-.763 1.34-1.896 2.403-3.352 3.01-.186.077-.283.194-.332.32-.352.07-.645.44-.4.84.556.93.908 1.935 1.19 2.97-1.074-.36-2.11-.82-3.086-1.377-.264-.152-.49.01-.547.23-.078 0-.166.02-.254.077-1.07.772-2.23 1.368-3.4 1.934.31-1.74.62-3.48.74-5.237v-.038c.185-.254.194-.655-.157-.82-.91-.43-1.71-1.037-2.49-1.662 1.152-.254 2.305-.547 3.467-.8-.02.097-.04.194-.06.282-.057.37.43.508.56.156.08-.214.156-.41.234-.624.078-.06.107-.147.088-.244.39-1.054.79-2.08 1.094-3.155.928 1.436 1.69 2.98 2.443 4.494.135.283.516.195.623-.03.068.013.127.023.195.013zm-15.26 17.9c-.255.85-.577 1.66-.968 2.48-.322.665-.918 1.32-1.006 2.053-.03.205.127.342.303.39.69 1.662 1.393 3.303 1.862 5.032-1.524-.48-2.97-1.153-4.397-1.866-.244-.13-.537-.11-.733.084-1.23 1.23-2.452 2.413-3.85 3.43-.028-1.74-.077-3.48-.097-5.218-.01-.245-.156-.372-.332-.41.04-.03.088-.05.137-.09.148-.106.138-.38 0-.497-.546-.46-1.3-.33-1.982-.43-.51-.078-1.027-.176-1.535-.313 1.426-.82 2.648-1.64 3.654-3 .253-.01.487-.165.46-.448-.178-1.37-.11-3.01.7-4.183 1.213 1.016 2.17 2.257 2.903 3.654.147.284.45.255.635.09.34.32.83.087 1.347-.118.92-.353 1.915-.47 2.892-.646zm-28.676-18.134c.293.04.674.117 1.075.176-1.38 1.065-2.505 2.306-3.05 4.055-.657 2.07-.37 4.494-.36 6.702-.47-.47-1-1.245-1.245-1.51-.948-1.064-1.925-2.11-3.03-3.02-.126-.105-.253-.145-.38-.125-.156-.127-.38-.176-.616-.03-2.198 1.38-4.65 2.2-7.22 2.414 1.104-2.306 2.452-4.416 4.22-6.32.177-.187.245-.49.1-.714-.675-.987-1.32-1.974-2.16-2.784 1.075-.02 2.14-.04 3.205-.088.137.205.47.283.596.01.05-.107.108-.215.157-.332.01-.01.01-.02.02-.03.732-1.6 1.552-3.067 2.774-4.337.93 1.553 1.506 3.253 1.945 4.992.06.224.234.292.4.263.05.04.118.08.206.11 1.104.272 2.238.42 3.36.565z" fill="#ffd436"/></svg>