<svg xmlns="http://www.w3.org/2000/svg" width="800" height="800" viewBox="0 0 800 800"><title>Vivir una fantasía</title><defs><filter color-interpolation-filters="sRGB" height="3.233" y="-1.117" width="3.074" x="-1.037" id="a"><feGaussianBlur stdDeviation="307.525"/></filter></defs><rect filter="url(#a)" fill-opacity="0" fill="#efe2c2" ry="1.143" rx="1.542" y="54.237" x="57.627" height="661.017" width="711.864"/><path fill="#c1c1c1" d="M437.874 339.296s-.383-11.866.81-15.442c1.192-3.577 5.96-26.23 6.557-30.4.6-4.174 2.99-20.27 4.18-22.653 1.19-2.38 3.35-10.28 3.35-10.28s-12.89-4.613-15.87-5.21c-2.98-.595-9.534-4.77-9.534-4.77s-6.59 9.816-7.467 13.25c-.878 3.44-2.31 12.058-2.31 12.058l6.2 17.017-4.83 44.695.855 4.287 15.897 7.055 2.17-9.592zm-109.83 91.294s-16.063-63.153-20.236-76.267c-4.173-13.114-15.5-42.323-17.287-49.477-1.78-7.153-4.57-20.197-4.57-20.197s12.32-4.84 17.09-4.84 14.2-.28 14.2-.28 9.65 44.98 12.63 55.112c2.98 10.134 11.92 56.63 11.92 59.014 0 2.384 3.53 34.52 3.53 34.52l-17.27 2.405z"/><path fill="#dcdcdc" d="M413.25 397.712c-.05 0-.093-.02-.145-.01-2.593.366-5.238.26-7.863.397-.157-3.17-.345-6.34-.523-9.51-.19-3.25-.21-6.54-.21-9.83 1.77.19 3.55.364 5.33.625.95.146 2.14.596 3.22.627.04 5.897.09 11.794.19 17.69zm.033 1.83c.115 6.692.26 13.373.502 20.054-2.687.01-5.374.084-8.06.21.156-6.89-.074-13.77-.42-20.64 2.594.124 5.23.03 7.8.386.063.01.115-.01.178-.01zm-8.898 11.574c.167 2.907.314 5.813.44 8.72-1.747.084-3.483.188-5.23.314-.825.052-1.66.136-2.498.2.387-3.044.43-6.15.25-9.275.095.063.21.105.346.115 1.485.105 2.98.105 4.465.084.69-.022 1.516.04 2.227-.158zm-1.39-22.52c.396 6.9.867 13.79 1.275 20.69-.826.043-1.652.24-2.478.304-1.36.105-2.74.125-4.1.22-.177.01-.313.084-.417.167-.45-6.242-1.673-12.547-2.55-18.538-.137-.9-.262-1.8-.377-2.69 1.41.06 2.823.02 4.235-.02 1.39-.05 3.074.24 4.412-.22v.08zm-8.49 12.21c1.045 6.484 1.923 12.987 1.89 19.595-2.623.22-5.237.45-7.85.74.02-.05.04-.113.03-.19-.847-6.43-1.62-12.86-2.258-19.31.125.074.272.116.397.116 1.662-.02 3.325-.26 4.966-.49.597-.085 1.894-.106 2.824-.45zm-6.682 20.244c.02.062.052.104.094.145-2.96.314-5.918.66-8.866 1.035-.73-3.168-1.17-6.41-1.39-9.692.03.01.06.02.09.02 1.77.064 3.547-.05 5.3-.23.81-.083 1.99-.04 2.78-.47.558 3.116 1.217 6.19 2 9.19zm-2.28-10.823c-.89-.063-1.88.356-2.72.502-1.67.3-3.386.47-5.08.56-.063 0-.105.02-.167.04-.314-6.067.063-12.21.648-18.11l.03-.326c.607-.073 1.224-.157 1.83-.23 1.172-.157 2.343-.125 3.514-.21.367 5.897.963 11.88 1.946 17.764zm6.587-24.277c.576 4.286 1.33 8.552 2.04 12.828-.857.042-1.882.397-2.342.48-1.767.315-3.565.513-5.322.92-.115.032-.22.095-.314.18-.22-2.238-.408-4.486-.585-6.734-.356-4.465-.847-9.253-.753-13.958.847-.063 1.694-.105 2.54-.167 1.235-.09 2.625.01 3.828-.37.28 2.42.626 4.74.91 6.81zm-7.946-15.925c-.21.94-.335 1.86-.45 2.593-.314 2.04-.47 4.1-.544 6.158-.45.157-.91.335-1.36.533-.407.18-.093.74.283.68.356-.07.7-.11 1.056-.16-.06 2.99.07 5.99.2 8.95.03.58.072 1.18.104 1.77-1.62-.03-3.41.292-5.05.752.774-6.88 2.217-14.89 5.75-21.288z"/><path fill="#1d1d1d" d="M520.966 264.276c.49 5.542 1.317 11.418-.178 16.865-.073.29-.23.46-.418.59.167.21.293.51.188.78-.44 1.11-1.62 1.63-2.53 2.32-1.066.837-2.238 1.85-3.524 2.354-.105.575-.816.983-1.412.66-.983-.524-1.903-1.13-2.813-1.76-.01.02-.03.05-.05.085-12.89 20.326-19.03 44.24-26.66 66.833-8.49 25.136-16.157 50.397-20.256 76.66-.03.16-.115.274-.23.347.293.94-.774 2.184-1.966 1.59-4.088-2.04-8.25-3.693-12.463-5.02 0 .02-.01.05-.01.072-.04.815-1.19.804-1.256 0l-.03-.47c-37.63-11.305-79.41 2.884-117.586 4.61-1.065.04-1.013-1.496 0-1.62 5.49-.67 10.97-1.445 16.46-2.24-.01-.03-.034-.053-.045-.095-3.836-25.825-7.036-51.68-12.274-77.288-2.633-12.894-6.345-25.49-10.224-38.04-3.367-10.887-4.015-22.39-7.737-33.18-6.757.327-13.365 1.86-19.994 3.2-2.455.49-5.905 1.58-9.094 1.86 3.586 8.347 5.165 17.59 8.31 26.1 4.75 12.806 9.768 25.44 13.5 38.59 3.858 13.57 7.214 27.29 10.35 41.05 3.065 13.424 7.78 26.59 9.934 40.2.127.785-1.023 1.14-1.22.336-3.324-13.415-7.79-26.453-10.883-39.94-3.16-13.75-6.4-27.5-10.28-41.07-3.763-13.154-8.834-25.743-13.56-38.572-3.2-8.71-4.82-18.192-8.615-26.66-.57-.053-1.13-.147-1.66-.294-.68.23-1.36.45-2.06.7-.343.128-.824-.01-1.075-.28-2.426-2.655-4.235-5.572-5.897-8.76-.243-.47-.16-1.067.207-1.423-.01-.03-.02-.062-.02-.104.668-14.302 3.46-28.407 4.317-42.67.296-4.777.097-14.407 6.89-14.44 7.74-.03 13.815 12.005 16.9 17.515 6.316 11.27 13.08 21.78 21.414 31.712.24.29.294.604.24.91.18.092.367.165.534.27.94.522.626 1.59-.095 1.975-1.16 2.97-2.55 5.824-3.598 8.846-.18.516-.608.9-1.16.89-.4-.01-.798.01-1.185.01 3.847 11.22 4.79 23.18 8.27 34.517 3.157 10.256 6.105 20.544 8.51 30.99 1.12-.7 2.26-1.328 3.46-1.882.45-.2 1.047-.062 1.17.48.284 1.236 1.027 2.365 1.267 3.588 3.137-.43 4.067-1.797 2.8-4.087-.136-.408.105-.774.418-1.014 1.464-1.077 3.147-1.746 4.956-2.01.44-.06 1.047.107 1.12.64.784 5.176 7.183 5.32 5.31-.45-.166-.502.19-1.046.68-1.192.294-.083.597-.156.9-.23-.01-.01-.01-.02-.02-.03-6.63-24.247-16.48-47.542-22.48-71.956-1.465.158-2.94.053-4.403-.44-.177-.06-.29-.197-.334-.343-.02-.03-.054-.042-.075-.073-1.724-2.007-2.686-4.36-3.387-6.89-.106-.365-.01-.846.292-1.097 1.62-1.36 3.74-2 5.72-2.658.613-.21 1.15.24 1.37.784.425 1.087 2.38 4.067 3.614 1.882.795-1.392.115-2.604-.178-3.974-.326-.166-.44-.647-.044-.94 1.527-1.14 3.806-1.077 5.207-2.196.61-.48 1.59-.376 1.82.48.315 1.235 1.39 3.46 2.95 3.19-.084-.042-.167-.115-.23-.23-3.46-6.043-5.48-12.484-6.44-19.176-5.22 3.314-10.71 3.722-16.803 3.775-1.35.01-1.308-1.964 0-2.08 6.942-.574 10.162-10.09 16.822-12.284.645-.22 1.283.346 1.294.984.135 9.89 2.132 19.142 6.136 28.19.075.164.075.32.02.46 1.58-1.1 1.15-2.99.87-4.645-.062-.325.064-.628.25-.858.01-.147.075-.283.21-.4 1.277-1.105 2.855-1.01 4.236-1.86.564-.343 1.484-.04 1.61.66.354 1.914 1.83 3.71 3.993 3.02 2.203-.72 1.984-2.79 1.105-4.535-.093-.19-.124-.368-.124-.535-.25-.365-.26-.94.21-1.2 2.11-1.193 4.477-1.56 6.767-2.28.524-.167 1.277.2 1.37.774.503 3.26 1.454 6.346 2.374 9.503.02.05.01.083.01.135.785.48.87 1.923-.28 2.31-1.08.376-2.176.72-3.274 1.035.124.166.23.354.26.616.627 6.994 3.712 13.905 2.95 20.984 1.808-.23 3.606-.573 5.425-.67.86-.05 1.246.91.91 1.58-1.19 2.428-.374 3.996.995 4.55.292-10.623.407-20.817-1.266-31.38-1.433-9-4.14-17.386-6.536-26.106-1.464-.085-2.896-.294-4.214-.754-.073-.03-.115-.082-.167-.134-.282.47-1.202.483-1.338-.165-.764-3.45-1.622-6.88-2.3-10.34-.106-.537.124-1.06.553-1.3-.166-.19-.24-.47-.062-.796 7.277-13.13 16.698-24.98 24.414-37.85 2.82-4.715 7.18-14 14-10.037 3.595 2.09 6 7.245 7.882 10.79 2.227 4.213 4.276 8.53 6.085 12.943 3.367 8.178 6.932 17.108 7.214 26.068.09.02.16.03.24.04.66.125 1.14.972.91 1.6-1.072 2.94-2.4 5.74-3.8 8.542.377.51.21 1.38-.51 1.557-.785.2-1.59.317-2.416.4-.398 3.775-1.83 7.685-2.667 11.24-1.317 5.656-2.603 11.355-2.572 17.19.03 9.765 2.08 20.43-1.744 29.735.01-.01.02 0 .03-.01 2.835-.315 4.016-2.803 4.236-5.365.074-.91 1.015-1.222 1.62-.9.744-.186 1.497-.27 2.25-.312-.533-4.044.826-8.352 2.31-12.053 1.287-3.2 2.636-7.75 5.24-10.11.605-.556 1.567-.01 1.38.803-.72 3.074-2.98 6.043-4.225 8.96-1.69 3.985-3.155 8.04-3.625 12.36 1.013.01 2.04.105 3.052.26.68.106.92.994.617 1.517-.89 1.536-2.144 5.31 1.045 5.07 2.684-.21 3.75-2.54 4.82-4.663.02-.04.05-.06.07-.09.064-.416.42-.793.984-.667 3.68.783 7.34 1.693 10.99 2.602.51.124.97.783.752 1.316-1.506 3.563-2.77 7.18-3.806 10.914-.107.397-.368.606-.66.7.24.367.323.764.17 1.203-.318.93-1.78 1.067-2.03 0-.01-.04-.03-.072-.04-.104-4.28 14.344-8.15 28.146-10.188 43.035.836.072 1.683.177 2.51.365.543.115.982.816.773 1.35-2.5 6.314 5.95 7.632 6.377 1.14.053-.722.67-1.245 1.4-1.067.807.2 1.59.41 2.375.616-3.89-12.12 2.35-26.443 4.83-38.31 2.832-13.53 3.9-27.907 10.057-40.475-3.952-1.023-7.967-2.77-11.595-3.804-3.43-.963-6.88-1.925-10.39-2.604-2.49-.47-5.188-.43-7.55-1.337-.158-.064-.27-.22-.3-.388-.23.03-.47-.074-.568-.357-.91-2.52 1.026-6.42 2.53-8.384 1.967-2.574 4.83-2.71 7.508-1.183.503.282.64.91.377 1.4-.27.492-2.04 4.873.2 3.974 1.41-.563 1.494-2.256 2.017-3.47.21-.49.91-.49 1.265-.156 1.85.103 3.605 1.044 5.404 1.44.25.053.45.21.583.42 1.18-7.195 3.753-14.597 8.384-20.066.368-.44 1.068-.367 1.445 0 4.13 3.962 8.605 6.712 14.282 7.78.763.144 1.025 1.253.46 1.755-4.925 4.37-14.607 5.07-19.594.126-1.79 4.422-2.814 9.17-4.13 13.81 1.243-.63 1.452-1.8 2.34-2.793.02-.366.273-.73.7-.73 2.135 0 3.933 1.14 5.97 1.6.62.134 1.048 1.012.64 1.545-.857 1.11-1.662 3.23.314 3.743 2.143.55 2.457-1.75 2.52-3.328.052-1.015 1.12-1.203 1.673-.66.137-.04.283-.073.43-.04 1.746.322 3.524.95 5.144 1.66.574.25.616 1.004.396 1.485-.848 1.777-1.62 3.586-2.437 5.374-.44.984-.817 2.04-1.444 2.897.094.51-.26 1.1-.868 1.11-1.17 0-2.385-.136-3.598-.355-6.254 12.453-7.477 27.07-10.08 40.578-2.394 12.506-7.288 24.77-5.625 37.704.02.136-.02.24-.064.335.9.208 1.8.386 2.75.48.732.063 1.192.638 1.046 1.38-1.056 5.32 3.47 3.294 4.653 1.934.66-.67 1.14-1.433 1.453-2.29.175-.41.78-.64 1.2-.49 3.386 1.21 7.08 1.305 10.4 2.654 2.457-10.73 5.03-21.424 7.84-32.07 1.874-7.077 3.818-14.134 5.89-21.16 1.39-4.715 2.646-9.807 4.8-14.262-.72-.062-1.42-.166-2.08-.354-.19.02-.398-.03-.587-.2-.03-.02-.062-.02-.093-.04-.21-.085-.347-.262-.368-.45-1.214-1.392-2.186-3.45-2.48-5.177-.126-.772-.294-1.89.396-2.476.356-.294.74-.44 1.14-.44.795-8.25 10.1-15.684 15.38-21.037 7.434-7.54 13.666-17.303 23.41-21.956 8.636-4.13 6.92 12.99 6.93 17.098.04 7.82-.513 15.737.177 23.536zm-1.788 13.708c.617-4.506-.03-9.232-.418-13.707-.502-5.782-.24-11.637-.188-17.44.063-6.19.293-12.578-.742-18.705-1.014-5.98-8.28.48-10.518 2.708-5.897 5.866-11.177 12.338-17.022 18.266-4.768 4.84-11.616 10.623-13.812 17.388 2.332-.49 6.514.544 7.915.72 5.49.68 10.968 1.6 16.353 2.887 3.27.78 15.42 3.15 18.432 7.89zm-.732 3.795c-.21-.08-.397-.2-.523-.42-3.827-7-15.098-8.49-22.26-9.92-4.893-.98-9.828-1.79-14.774-2.38-1.15-.128-3.82.06-5.17-.66-.01.21-.02.41 0 .604.07.565.23 1.14.41 1.673.34 1.046.78 2.04 1.24 3.032 5.09-1.8 14.364 1.567 18.693 2.98 5.374 1.756 14.052 4.202 17.754 9.075 1.244-.96 2.47-1.946 3.597-3.054.26-.26.627-.64 1.024-.94zm-10.1 3.27c.052-.09.105-.15.167-.21-.983-.68-1.987-1.32-3.074-1.85-3.65-1.79-7.46-3.31-11.36-4.46-3.44-1.015-6.948-1.925-10.51-2.437-.72-.105-1.51-.146-2.3-.188-9.497 24.612-14.7 51.326-20.517 76.995-5.353 23.62-10.33 46.903-11.93 71.066 4.55 1.35 9.013 3.044 13.352 5.187 1.933-26.944 11.145-53.115 19.78-78.5 7.55-22.22 13.635-45.64 26.38-65.61zm-49.466-28.83c.638-1.426 1.276-2.858 1.945-4.28-1.077-.44-2.185-.827-3.24-1.297-.242 2.572-2.165 5.207-5.083 4.203-2.73-.94-3.314-3.556-2.206-5.825-1.077-.502-2.143-1.066-3.283-1.41-.03 2.226-3.126 4.443-5.165 4.234-2.833-.283-2.802-2.678-1.924-4.696-1.14-.556-2.227-1.18-3.44-1.58-.188 2.22-2.007 4.78-4.423 4.265-2.93-.628-2.43-3.796-1.52-6.023-4.8-1.923-5.12 5.08-7.013 8.03 4.81-1.787 12.18.827 16.77 2.103 5.448 1.515 11.994 2.613 17.24 5.028.38-.94.944-1.84 1.35-2.76zm-.303 96.073c.512-2.33 1.046-4.653 1.58-6.984-2.48-1.067-5.156-1.14-7.738-1.8-1.97-.51-1.55-.68-2.71.65-1.35 1.546-2.9 2.592-4.96 2.906-3.36.5-4.28-2.354-4.11-4.978-1.54-.23-3.02-.61-4.54-.996-1.716 7.79-12.924 5.898-10.875-1.954-1.547-.28-4.067-.615-4.34.23-.27.88-.51 1.717-1.086 2.46-1.108 1.41-2.29 2.122-4.067 2.27-3.22.28-3.41-3.097-2.844-5.44-1.443-.27-3.65-.564-3.95.24-.336.858-.618 1.737-1.235 2.448-1.22 1.41-2.466 2.122-4.316 2.27-3.19.26-3.68-2.95-3.25-5.365-1.41-.19-2.824-.25-4.246-.273-.282 3.094-2.426 6.325-6.043 5.5-1.505-.346-3.094-1.287-3.512-2.908-.286-1.1.132-2.48-1.478-2.48-2.185-.01-2.488.49-3.398 2.227-1.568 2.948-4.966 4.276-7.1 1.15-.626-.93-.49-2.32-.386-3.335.094-.92-4.067-.805-4.1-.063-.093 1.85-.52 3.304-1.975 4.55-2.31 1.953-6.483.52-7.06-2.48-.366-1.913-3.262-1.014-3.18-.49.127.783.326 1.63.127 2.425-.376 1.535-1.098 2.55-2.57 3.21-1.485.646-3.116.155-4.42-.63-1.036-.607-2.24-3.985-3.117-3.66-3.022 1.12-1.265 2.823-2.426 5.343-.83 1.83-3.4 1.884-5.03 1.85-.368-.01-.765-.26-.828-.635-.607-3.127-1.078-4.1-4.08-2.52-.03.01-.05.01-.083.02.43 1.934.86 3.87 1.246 5.813.21 1.012.407 2.04.605 3.062 22.825-10.624 49.027-8.75 73.42-7.634 9.034.407 18.1.647 27.07 1.89 6.807.94 15.014 2.08 20.38 6.86.2-.923.41-1.843.62-2.763zm-10.56-118.474c5.27 2.174 10.486 4.652 15.62 1.463-4.663-1.286-8.595-3.785-12.18-7.09-1.402 1.77-2.52 3.65-3.44 5.626zm9.378 123.763c-.26-.02-.523-.125-.763-.335-5.928-5.3-15.84-6.19-23.38-6.944-8.238-.826-16.51-1.035-24.77-1.506-11.657-.66-23.252-1.474-34.942-.544-12.463.994-24.142 3.985-36.177 7.08 4.653 23.524 8.406 47.395 10.215 71.296 0 .03-.01.063-.01.084 10.257-1.503 20.504-3.092 30.782-4.41-3.586-10.31-3.346-22.91-1.85-33.426 1.515-10.76 4.81-24.84 15.63-29.985 11.292-5.374 24.31 3.367 27.833 14.2 4.914 15.066 1.202 30.99 2.572 46.422 0 .092-.02.165-.03.24 8.374.41 16.676 1.526 24.727 3.742-.418-11.137 1.4-22.54 3.367-33.418 1.97-10.894 4.37-21.695 6.79-32.496zm-15.63-107.83c.062-.69.145-1.38.24-2.07-.43.785-.848 1.862-.24 2.07zm-6.64 41.73c.825-3.398 2.038-6.67 3.376-9.9-2.89-.73-5.79-1.507-8.62-2.448-.8 3.178-4.46 6.765-7.98 5.426-3.11-1.18-3.09-4.14-2.01-6.725-1.36-.178-2.68-.21-4.05-.136-.26 3.492-2.908 7.162-6.776 6.91-3.66-.24-4.893-3.167-4.203-6.25-1.422-.24-2.907-.286-4.35-.19-.71 3.42-3.356 6.115-7.214 5.69-3.574-.4-4.58-3.4-3.793-6.277-1.54-.05-3.055-.01-4.59.105-.368 3.563-3.17 6.794-7.1 5.92-3.315-.736-4.31-3.528-3.566-6.298-1.514.24-3.176.607-4.567.294.092 3.01-2.08 7.046-5.28 6.942-3.6-.115-4.52-3.71-4.435-6.754-5.03 1.14-2.406 8.26-1.172 12.044.074-.053.158-.105.26-.137 5.303-1.234 11.22-1.004 16.616-1.18 9.334-.3 18.702-.25 28.04-.05 2.25.05 25.04-.02 31.41 3.17.01-.05 0-.096.01-.158zm-8.616 21.83c1.57-6.743 3.17-14.07 6.28-20.325-3.29-.806-9.85-1.1-11.35-1.2-8.05-.568-16.134-.777-24.216-.87-10.445-.116-20.91-.106-31.357 0 2.26 6.962 2.603 14.94 3.41 22.155.825 7.487 1.724 14.974 2.236 22.48 1.37-.03 2.74.085 4.12.325.565.106.87.775.732 1.287-1.11 2.08-.326 3.23 2.37 3.46.817-1.064 1.245-2.246 1.287-3.553.053-.335.43-.68.754-.742 2.26-.49 4.486-.49 6.744-.01.42.094.846.596.783 1.046-.67 5.582 5.73 4.735 5.437-.48-.03-.588.523-1.09 1.087-1.09 2.34.01 4.63.085 6.943.513.553.106.94.817.762 1.34-1.056 1.79-.063 2.75 2.98 2.875.9-1.006 1.412-2.156 1.547-3.46.102-.47.593-.808 1.063-.808 2.175.01 4.33.04 6.462.51.542.116.99.827.772 1.36-1.107 1.568-.334 2.52 2.3 2.865.796-1.035 1.224-2.185 1.277-3.45.063-.48.617-.816 1.056-.816 1.087.01 2.164.01 3.24.062-.2-7.78 1.506-15.958 3.263-23.476zm-6.13 106.36c-.01-.054-.05-.096-.05-.16-.324-2.853-.43-5.72-.43-8.594-1.39-.125-3.136.094-4.568-.22-.116-.02-.23-.084-.315-.178-.04 3.02-.094 6.04-.2 9.06 1.863.003 3.714.024 5.554.086zm-.47-10.55c.08-6.808.62-13.646.34-20.42-.65.02-1.37-.116-1.88-.147-1.14-.085-2.358-.147-3.46-.49.11 7.15.182 14.29.11 21.443.093-.094.2-.157.313-.178 1.43-.305 3.18-.096 4.57-.21zm-.98-22.377c.354 0 .782-.053 1.2-.053-.2-2.937-.565-5.854-1.234-8.75-.847-3.66-2.164-7.235-4.235-10.215.02 6.25.125 12.493.22 18.745h.094c1.275.28 2.656.27 3.952.27zm.92-175.018c-.357-7.635-3.24-15.34-6.045-22.346-2.844-7.152-5.97-14.67-10.403-21.016-2.06-2.95-5.49-7.12-8.96-3.284-1.32 1.463-2.438 3.073-3.463 4.756-2.6 4.31-5.29 8.525-8.1 12.718-6.338 9.43-12.465 19.135-19.2 28.284 18.665-.344 37.663-2.29 56.17.89zm-2.846 9.585c1.12-2.27 2.196-4.55 3.126-6.91-18.41-3.39-37.22-1.225-55.82-1.278.42 2.97.962 5.917 1.286 8.907.044-.042.075-.084.127-.105 3.7-1.3 8.364-.68 12.243-.69 5.04 0 10.07.07 15.107.134l15.005.158c2.204.01 4.536-.156 6.815-.072l.06-.19c.324-.825 1.506-.72 1.57.21 0 .03-.01.063 0 .094.124.01.25.03.375.042.023-.093.054-.198.106-.303zm-3.053 3.073c-2.52.02-5.082-.2-7.486-.23-5.03-.053-10.07-.126-15.096-.2-5.008-.063-10.006-.136-15.004-.23-1.286-.02-2.656.02-4.025.02 3.784 8.375 5.426 18.486 6.565 27.415 1.245 9.69 2.416 20.64-.22 30.217 1.84.116 4.026-1.233 4.194-4.34.053-.897.994-1.18 1.59-.845 2.164-.44 4.35-.553 6.566-.72.874-.063 1.293.96.94 1.65-1.08 2.093-.798 4.76 2.15 4.58 2.866-.155 4.225-2.476 4.34-5.132.073-1.422 2.27-1.432 2.217 0v.052c1.756-.146 3.523.2 5.26-.157.73-.147 1.65.5 1.336 1.337-.566 1.517-.71 3.545.5 4.32.01-.03.01-.053.02-.074 4.058-10.35.71-21.71 1.41-32.45.316-4.976 1.31-9.84 2.46-14.67.805-3.396 1.34-7.09 2.28-10.54zm-.18 195.197c-.24-6.68-.385-13.36-.5-20.053-.063 0-.115.02-.18.01-2.57-.354-5.205-.26-7.8-.386.347 6.87.577 13.75.42 20.64 2.688-.126 5.375-.2 8.06-.21zm-.68-21.893c.055-.01.097.01.15.01-.093-5.896-.145-11.793-.187-17.69-1.078-.03-2.27-.48-3.22-.627-1.778-.26-3.556-.44-5.33-.627 0 3.295.02 6.578.21 9.83.175 3.17.363 6.336.52 9.504 2.624-.14 5.27-.036 7.862-.4zm-.09-31.833c0-.063.023-.115.033-.167-1.757-1.923-3.93-3.46-6.63-4.432-.835-.303-1.693-.565-2.56-.784.198 1.62.323 3.26.417 4.892.753.314.784 1.443.104 1.85.146 3.483.136 6.975.136 10.467 1.85-.095 3.71-.03 5.55.072.786.042 2-.042 2.99.167-.017-4.027-.04-8.05-.04-12.067zm-8.185 53.972c-.126-2.91-.273-5.816-.44-8.72-.71.2-1.537.133-2.227.154-1.486.02-2.98.02-4.466-.085-.137-.01-.25-.056-.346-.12.177 3.127.135 6.233-.25 9.275.834-.063 1.67-.146 2.497-.2 1.746-.124 3.482-.228 5.228-.312zm-.555-10.55c-.407-6.9-.877-13.79-1.275-20.695v-.084c-1.34.46-3.023.178-4.413.22-1.41.04-2.823.084-4.235.02.115.89.24 1.79.376 2.688.88 5.99 2.1 12.296 2.55 18.54.105-.085.24-.158.42-.168 1.36-.098 2.74-.12 4.1-.22.825-.066 1.65-.265 2.48-.307zm-1.35-22.41c-.25-6.45.065-12.996-.155-19.47-3.106.106-6.254.346-9.348.147h-.02c-.597 6.69-.106 13.215.794 20.032 1.79-.148 3.58-.316 5.357-.556 1.076-.156 2.3-.46 3.376-.156zm-.26-21.55c-.093-1.745-.22-3.48-.44-5.206-2.6-.48-5.257-.49-7.756.302-.398 1.89-.7 3.763-.91 5.624 3.02-.25 6.073-.636 9.106-.72zm-6.262 55.07c.03-6.607-.848-13.11-1.893-19.593-.93.344-2.225.365-2.82.45-1.643.23-3.305.47-4.967.49-.125 0-.272-.04-.397-.115.64 6.45 1.41 12.88 2.26 19.312.01.073-.01.136-.03.188 2.61-.283 5.226-.513 7.85-.732zm-2.228-21.622c-.71-4.276-1.464-8.54-2.04-12.83-.28-2.07-.626-4.39-.91-6.816-1.2.377-2.592.283-3.826.367-.848.063-1.695.105-2.54.167-.096 4.704.395 9.493.75 13.96.18 2.245.367 4.493.586 6.73.094-.084.2-.146.314-.178 1.76-.41 3.557-.607 5.324-.92.46-.083 1.485-.44 2.343-.48zm-1.517-37.61c-.45.22-.89.46-1.318.754-1.443.963-2.708 2.123-3.848 3.41.26.146.396.533.25.816-1.87 3.745-2.624 7.896-2.833 12.16.742-.176 1.485-.312 2.27-.416 1.233-.18 2.582-.537 3.857-.475-.55-5.628-.582-11.62 1.62-16.25zm-4.737 60.027c-.04-.042-.072-.084-.093-.146-.784-3.005-1.443-6.08-1.997-9.195-.795.43-1.976.386-2.78.47-1.758.18-3.535.293-5.302.23-.03 0-.05-.01-.083-.02.22 3.282.66 6.523 1.39 9.69 2.95-.376 5.91-.72 8.87-1.035zm-5.09-10.466c.836-.15 1.83-.57 2.72-.506-.984-5.887-1.58-11.867-1.946-17.764-1.172.086-2.343.054-3.514.21-.605.074-1.222.158-1.83.23l-.03.325c-.586 5.897-.962 12.045-.65 18.11.065-.022.106-.043.17-.043 1.693-.09 3.41-.26 5.08-.563zm.91-38.115c.115-.733.24-1.653.45-2.594-3.534 6.4-4.977 14.41-5.75 21.29 1.64-.46 3.43-.78 5.05-.75-.03-.598-.074-1.194-.106-1.78-.137-2.96-.262-5.96-.21-8.95-.355.053-.7.095-1.056.16-.376.06-.69-.49-.28-.68.45-.2.91-.378 1.36-.535.07-2.06.23-4.12.54-6.16zm-15.286-36.71c.658-.147 1.306-.24 1.954-.294-1.757-7.39-2.436-14.992-3.314-22.53-.847-7.37-2.405-14.75-3.032-22.133-1.61.02-3.22.03-4.83.063-.22 0-.377-.093-.482-.24-.293.28-.816.345-1.025-.094-2.54-5.3-5.59-14.91 3.4-15.17.536-.02 1.16.5 1.09 1.077-.2 1.508-.387 6.84 2.603 5.836 2.656-.89 2.373-3.92 3.147-6.046.165-.45.604-.618.98-.513-.47-7.18-3.044-13.966-3.702-21.12-.01-.03 0-.04 0-.06-6.45 1.736-13.06 3.01-19.02 6.17-2.852 1.505-6.083 3.45-9.42 4.35 6.128 24.308 16.678 47.374 21.8 71.945.01.053 0 .085 0 .126.984-.19 1.977-.34 3-.4.535-.04.974.47.974.973.065 5.227 5.784 4.056 5.136-.95-.06-.43.345-.89.743-.986zm.082-84.87c-.973-2.687-1.663-5.5-2.144-8.312-1.37.24-2.75.533-4.1.93 1.328 2.803.9 6.578-2.656 7.404-3.01.7-5.594-.95-6.472-3.735-.826.06-1.683.25-2.415.584 1.035 2.592.554 6.346-2.457 7.35-2.938.982-5.092-1.15-6.012-3.713-1.076.074-2.29.398-3.355.785 1.5 1.924 1.32 5.374-.843 6.744-2.615 1.65-4.8-.26-6.02-2.51-1.17.376-2.387.805-3.39 1.495.45 2.06 1.2 3.92 2.26 5.77.06.104.08.208.09.313 6.598-.532 11.69-5.175 17.734-7.433 6.45-2.41 13.164-3.83 19.78-5.68zm-28.806-19.01c.137-.083.273-.135.41-.156-.23-1.985-.357-3.99-.42-6.02-4.275 2.112-6.88 6.807-10.59 9.63 3.71-.324 7.213-1.19 10.6-3.45zm-20.7 42.294c.795-2.07 1.506-4.4 2.76-6.28-14.387-5.66-31.22 3.5-45.43 6.95 1.547 3.147 3.16 6.305 6.807 6.18 3.2-1.14 7.268-.942 10.51-1.61 4.526-.932 9.033-2.01 13.59-2.73 2.97-.46 10.74.158 11.764-2.51zm-16.875-9c5.858-1.19 12.3-2.1 18.11-.407-6-7.235-11.645-14.784-16.214-23.013-4.045-7.29-8.144-17.86-15.64-22.28-6.222-3.67-7.35 2.76-7.686 7.54-.24 3.52-.397 7.025-.805 10.538-1.36 11.72-3.023 23.41-4.37 35.13 8.97-2.11 17.565-5.656 26.61-7.507z"/><path fill="#c1c1c1" d="M520.51 262.988c.387 4.475 1.035 9.2.418 13.707-3.01-4.736-15.16-7.11-18.433-7.884-5.385-1.28-10.863-2.2-16.353-2.88-1.4-.18-5.583-1.21-7.915-.72 2.196-6.762 9.044-12.55 13.812-17.39 5.84-5.923 11.12-12.4 17.02-18.26 2.23-2.227 9.5-8.69 10.52-2.708 1.03 6.127.8 12.515.74 18.705-.05 5.805-.31 11.66.19 17.44z"/><path fill="#999" d="M517.923 281.36c.125.22.314.346.523.42-.397.302-.763.68-1.025.94-1.12 1.108-2.35 2.09-3.59 3.053-3.7-4.872-12.38-7.32-17.75-9.076-4.33-1.41-13.603-4.778-18.695-2.98-.46-.993-.9-1.987-1.244-3.032-.177-.533-.334-1.108-.407-1.673-.02-.2-.01-.397 0-.606 1.35.72 4.015.533 5.165.66 4.946.584 9.88 1.4 14.774 2.372 7.164 1.433 18.435 2.928 22.26 9.923z"/><path fill="#c1c1c1" d="M508.513 284.843c-.063.063-.115.125-.167.21-12.746 19.97-18.83 43.39-26.38 65.608-8.636 25.39-17.848 51.56-19.782 78.51-4.34-2.142-8.804-3.836-13.352-5.185 1.6-24.163 6.577-47.45 11.93-71.067 5.813-25.67 11.02-52.383 20.514-76.996.795.04 1.58.084 2.3.188 3.565.514 7.068 1.424 10.508 2.438 3.9 1.15 7.706 2.666 11.355 4.454 1.08.533 2.09 1.17 3.07 1.85zM488.72 307.29c3.335-3.658 9.306-17.45 1.987-20.116-8.072-2.95-12.18 10.236-12.64 15.997-.043.56.48.85.94.8.042.12.094.23.188.34 1.58 1.956 6.148 2.416 8.427 3.284.356.136.847-.02 1.098-.293z"/><path fill="#dcdcdc" d="M491.742 291.712c.962 3.858-1.37 8.856-3.22 12.108-1.17 2.06-1.328 1.18-3.534.43-1.516-.524-3.492-1.632-5.134-1.527.648-2.896 1.62-5.75 2.917-8.406 1.5-3.033 7.34-9.15 8.98-2.605z"/><path fill="#1d1d1d" d="M490.707 287.174c7.32 2.666 1.35 16.457-1.987 20.117-.25.28-.742.43-1.098.3-2.28-.87-6.848-1.33-8.427-3.28-.094-.104-.146-.22-.188-.334-.46.05-.983-.24-.94-.795.46-5.76 4.568-18.944 12.64-15.996zm-2.185 16.646c1.85-3.252 4.182-8.25 3.22-12.108-1.63-6.545-7.476-.43-8.97 2.603-1.297 2.656-2.27 5.51-2.918 8.406 1.642-.1 3.618 1.01 5.134 1.53 2.206.76 2.363 1.64 3.534-.42z"/><path fill="#999" d="M460.825 253.643c-.67 1.422-1.307 2.854-1.945 4.276-.408.92-.972 1.81-1.35 2.76-5.248-2.42-11.793-3.52-17.24-5.03-4.59-1.28-11.96-3.89-16.77-2.11 1.89-2.95 2.216-9.955 7.015-8.03-.91 2.226-1.41 5.394 1.527 6.02 2.415.51 4.235-2.05 4.423-4.266 1.213.397 2.3 1.025 3.44 1.58-.878 2.017-.91 4.41 1.924 4.694 2.03.21 5.13-2.008 5.16-4.235 1.14.344 2.2.91 3.28 1.41-1.11 2.27-.525 4.883 2.204 5.824 2.917 1.004 4.84-1.63 5.082-4.203 1.053.473 2.162.86 3.24 1.3zm-.67 91.677c-.533 2.33-1.066 4.652-1.58 6.983-.208.92-.417 1.84-.616 2.76-5.37-4.778-13.58-5.918-20.38-6.86-8.97-1.243-18.04-1.484-27.07-1.89-24.4-1.12-50.6-2.99-73.42 7.632-.2-1.025-.4-2.05-.61-3.064-.39-1.94-.82-3.87-1.248-5.81.03-.01.052-.01.084-.02 3-1.58 3.47-.6 4.08 2.52.06.38.46.63.824.64 1.63.03 4.2-.02 5.028-1.85 1.16-2.52-.596-4.22 2.426-5.34.88-.323 2.08 3.054 3.116 3.66 1.306.784 2.937 1.276 4.422.627 1.473-.66 2.195-1.673 2.57-3.21.2-.795 0-1.642-.124-2.426-.084-.522 2.813-1.42 3.178.49.574 3 4.746 4.434 7.06 2.48 1.45-1.245 1.88-2.7 1.974-4.55.03-.743 4.194-.86 4.1.06-.105 1.016-.24 2.407.387 3.337 2.132 3.126 5.53 1.798 7.1-1.15.91-1.736 1.21-2.238 3.396-2.227 1.61 0 1.192 1.38 1.474 2.475.418 1.622 2.007 2.563 3.513 2.908 3.618.826 5.76-2.405 6.043-5.5 1.42.02 2.832.084 4.244.272-.43 2.415.064 5.625 3.253 5.364 1.85-.148 3.095-.86 4.318-2.27.62-.71.9-1.59 1.237-2.448.3-.805 2.51-.512 3.95-.24-.565 2.342-.376 5.72 2.844 5.437 1.775-.147 2.96-.86 4.065-2.27.575-.74.816-1.58 1.087-2.457.27-.848 2.79-.513 4.34-.23-2.05 7.85 9.157 9.744 10.872 1.954 1.515.387 3 .763 4.537.993-.166 2.62.754 5.48 4.11 4.977 2.06-.314 3.607-1.36 4.956-2.907 1.16-1.33.742-1.16 2.708-.65 2.584.66 5.26.732 7.738 1.8z"/><path fill="#dcdcdc" d="M463.637 235.293c-5.134 3.19-10.35.71-15.62-1.464.92-1.98 2.038-3.86 3.44-5.63 3.586 3.3 7.517 5.8 12.18 7.09z"/><path fill="#c1c1c1" d="M456.632 357.26c.24.208.502.313.763.334-2.426 10.8-4.82 21.6-6.796 32.496-1.97 10.874-3.79 22.28-3.37 33.416-8.05-2.217-16.36-3.335-24.73-3.743.01-.073.03-.146.03-.24-1.37-15.434 2.34-31.358-2.57-46.424-3.53-10.84-16.54-19.58-27.84-14.2-10.822 5.14-14.115 19.22-15.63 29.98-1.493 10.52-1.735 23.12 1.85 33.43-10.28 1.315-20.523 2.905-30.78 4.41 0-.02.01-.05.01-.084-1.81-23.9-5.562-47.77-10.215-71.3 12.033-3.095 23.713-6.085 36.176-7.078 11.69-.93 23.285-.116 34.943.543 8.26.47 16.53.68 24.77 1.507 7.537.75 17.45 1.64 23.38 6.94z"/><path fill="#1d1d1d" d="M438.638 264.663c.418.324.67.753.523 1.296-.62 2.36-1.43 4.7-2.54 6.89-.29.56-.97.62-1.48.38-1.17-.557-2.59-.808-3.85-1.11-.32-.085-.89-.158-1.39-.315-.57.24-1.3-.22-1.39-.93-.164-1.277.43-2.96.89-4.15.41-1.067.9-2.3 1.82-3.054 2.428-1.975 5.198-.68 7.426.984zm-3.555 6.316c.67-1.58 1.213-3.2 1.652-4.86-1.453-.984-3.388-1.946-4.486-.095-.72 1.202-.88 2.624-1.28 3.92.77.126 1.59.41 2.19.545.637.145 1.285.29 1.913.48z"/><path fill="#dcdcdc" d="M436.735 266.127c-.44 1.652-.983 3.273-1.652 4.85-.627-.187-1.276-.334-1.913-.48-.606-.136-1.422-.418-2.196-.544.397-1.297.565-2.718 1.276-3.92 1.097-1.85 3.03-.89 4.485.094z"/><path fill="#999" d="M438.502 281.59c-1.338 3.232-2.55 6.504-3.377 9.903-.01.063 0 .105-.01.157-6.368-3.19-29.16-3.116-31.41-3.168-9.336-.2-18.704-.25-28.04.052-5.396.178-11.314-.052-16.615 1.182-.105.03-.188.084-.26.136-1.235-3.785-3.86-10.905 1.17-12.045-.084 3.043.836 6.64 4.433 6.754 3.2.11 5.374-3.93 5.28-6.94 1.39.32 3.053-.05 4.57-.29-.743 2.77.25 5.56 3.564 6.298 3.93.878 6.734-2.353 7.1-5.92 1.536-.113 3.052-.155 4.59-.103-.785 2.875.22 5.876 3.794 6.273 3.86.427 6.51-2.27 7.22-5.69 1.447-.094 2.93-.05 4.35.19-.69 3.082.548 6.01 4.207 6.25 3.87.25 6.514-3.42 6.775-6.91 1.37-.073 2.698-.042 4.057.136-1.086 2.583-1.107 5.54 2.01 6.723 3.512 1.338 7.172-2.25 7.977-5.426 2.833.94 5.73 1.715 8.626 2.447z"/><path fill="#c1c1c1" d="M432.793 292.998c-3.105 6.253-4.705 13.582-6.284 20.326-1.76 7.518-3.47 15.694-3.27 23.473-1.08-.052-2.156-.052-3.24-.063-.44 0-.996.335-1.06.816-.052 1.265-.48 2.415-1.276 3.45-2.635-.345-3.41-1.296-2.3-2.865.22-.533-.23-1.244-.774-1.36-2.133-.47-4.287-.5-6.462-.51-.47 0-.96.334-1.066.804-.135 1.3-.647 2.45-1.546 3.46-3.044-.13-4.037-1.09-2.98-2.88.18-.527-.21-1.238-.764-1.34-2.31-.43-4.6-.5-6.944-.51-.566 0-1.12.5-1.088 1.084.292 5.217-6.107 6.064-5.438.48.063-.45-.366-.95-.784-1.045-2.258-.48-4.485-.48-6.744.01-.325.063-.7.41-.754.742-.04 1.306-.47 2.487-1.286 3.554-2.697-.23-3.48-1.38-2.372-3.46.137-.514-.166-1.18-.73-1.288-1.38-.24-2.75-.358-4.12-.326-.513-7.506-1.41-14.99-2.238-22.48-.805-7.213-1.15-15.19-3.41-22.155 10.446-.105 20.912-.115 31.358 0 8.083.094 16.166.303 24.216.87 1.494.104 8.06.4 11.343 1.202zm-15.475 23.776c1.286-5.427 3.356-17.492-5.134-17.806-7.204-.26-9.18 12.453-9.577 17.503-.03.44.324.72.7.76.147.118.325.2.555.21 2.32.138 4.642.26 6.963.4 1.62.105 3.858.71 5.343-.146.042-.02.052-.063.094-.094.46.01.92-.23 1.056-.816zm-26.714-1.725c.178-5.18-.418-17.32-8.145-16.22-7.72 1.1-7.94 12.52-4.63 17.88-.796.41-.367 1.68.605 1.5 2.185-.39 4.37-.73 6.577-.94 1.516-.15 3.712.32 4.987-.62.324-.25.42-.607.293-.93.18-.167.295-.387.305-.68z"/><path fill="#dcdcdc" d="M420.34 419.523c0 .063.03.105.042.157-1.84-.063-3.69-.084-5.552-.084.105-3.022.157-6.043.2-9.065.083.1.198.16.313.18 1.432.32 3.18.1 4.57.22-.002 2.88.103 5.74.427 8.6zm-.084-30.813c.282 6.775-.26 13.613-.345 20.42-1.39.115-3.13-.094-4.56.21-.114.02-.22.083-.313.177.073-7.152 0-14.293-.115-21.445 1.108.345 2.32.408 3.46.49.514.033 1.235.17 1.883.148zm-.116-2.008c-.417 0-.846.052-1.2.052-1.297 0-2.678.01-3.953-.272h-.094c-.094-6.253-.2-12.495-.22-18.747 2.07 2.98 3.388 6.556 4.235 10.215.67 2.897 1.035 5.814 1.233 8.752z"/><path fill="#c1c1c1" d="M413.816 189.393c2.802 7.005 5.688 14.71 6.043 22.344-18.51-3.178-37.51-1.234-56.17-.89 6.73-9.148 12.86-18.85 19.19-28.282 2.812-4.193 5.5-8.406 8.102-12.714 1.025-1.68 2.143-3.29 3.46-4.75 3.47-3.834 6.9.338 8.96 3.286 4.435 6.347 7.56 13.864 10.405 21.016z"/><path fill="#999" d="M420.14 214.413c-.93 2.363-2.007 4.642-3.125 6.91-.052.106-.084.21-.105.304-.125-.01-.25-.03-.376-.042-.01-.03 0-.063 0-.094-.063-.93-1.244-1.03-1.568-.2l-.063.19c-2.28-.084-4.61.084-6.817.073l-15.004-.157c-5.04-.063-10.07-.136-15.108-.136-3.88.01-8.542-.606-12.244.69-.052.02-.084.063-.125.105-.324-2.99-.868-5.94-1.286-8.91 18.6.053 37.41-2.11 55.82 1.276z"/><path fill="#1d1d1d" d="M412.185 298.968c8.49.314 6.42 12.38 5.134 17.806-.14.586-.6.826-1.06.816-.04.03-.05.073-.1.094-1.486.857-3.723.25-5.344.146-2.32-.136-4.64-.26-6.963-.397-.23-.01-.408-.094-.554-.21-.377-.04-.733-.313-.7-.752.396-5.05 2.372-17.76 9.576-17.5zm3 16.855c.68-2.813 1.182-5.772 1.035-8.668-.125-2.614-1.62-7.904-5.427-5.636-4.182 2.48-5.656 9.17-6.462 13.97 2.37-.085 4.74.04 7.1.135 1.17.053 2.57-.114 3.76.19z"/><path fill="#dcdcdc" d="M416.22 307.155c.147 2.896-.354 5.855-1.034 8.668-1.192-.303-2.593-.136-3.754-.188-2.363-.094-4.736-.22-7.1-.136.806-4.81 2.28-11.5 6.463-13.98 3.805-2.27 5.3 3.02 5.426 5.63z"/><path fill="#c1c1c1" d="M406.476 224.168c2.405.03 4.966.25 7.486.23-.94 3.45-1.474 7.14-2.28 10.54-1.15 4.83-2.142 9.69-2.456 14.668-.7 10.738 2.645 22.103-1.41 32.454-.01.02-.01.042-.022.073-1.213-.774-1.066-2.802-.502-4.318.314-.836-.606-1.485-1.338-1.338-1.736.355-3.503.01-5.26.157v-.052c.053-1.432-2.142-1.422-2.216 0-.115 2.656-1.474 4.977-4.34 5.134-2.948.178-3.23-2.49-2.153-4.58.356-.69-.063-1.715-.94-1.652-2.218.167-4.403.282-6.567.72-.596-.334-1.537-.05-1.59.848-.166 3.105-2.352 4.454-4.192 4.34 2.635-9.578 1.464-20.526.22-30.218-1.14-8.93-2.78-19.04-6.566-27.415 1.37 0 2.74-.05 4.025-.03 4.998.093 9.996.166 15.004.23 5.02.074 10.06.15 15.09.2zm-6.723 34.2c1.16-5.78 4.83-21.318-3.42-23.796-12.87-3.88-13.34 15.642-12.075 23.316.052.314.2.512.387.638-.01.355.22.71.7.732 4.424.23 8.867-.157 13.3-.042.48.01 1.014-.356 1.108-.847z"/><path fill="#dcdcdc" d="M413.042 365.697c-.01.052-.03.105-.03.167 0 4.015.02 8.04.04 12.066-.992-.21-2.205-.125-2.99-.167-1.84-.105-3.7-.167-5.55-.073 0-3.492.01-6.984-.137-10.466.68-.408.648-1.537-.104-1.85-.09-1.632-.22-3.274-.41-4.894.87.22 1.727.48 2.56.784 2.7.972 4.87 2.51 6.63 4.433zm-10.278 1.713c.22 6.473-.094 13.018.157 19.47-1.07-.303-2.3 0-3.37.157-1.774.24-3.562.408-5.35.554-.9-6.81-1.39-13.34-.794-20.03h.02c3.096.2 6.243-.04 9.348-.14zm-.544-7.286c.22 1.725.345 3.46.44 5.207-3.033.09-6.086.47-9.108.73.21-1.86.512-3.732.91-5.624 2.5-.795 5.155-.784 7.758-.303z"/><path fill="#1d1d1d" d="M396.334 234.572c8.25 2.478 4.58 18.015 3.42 23.797-.095.49-.628.85-1.11.84-4.432-.118-8.876.27-13.3.04-.48-.02-.71-.377-.7-.73-.188-.127-.335-.326-.387-.64-1.265-7.674-.794-27.195 12.077-23.316zm1.976 18.527c.596-4.03 1.307-8.86-.01-12.82-2.3-6.86-9.787-2.89-11.27 2.45-1.308 4.714-1.298 9.732-.597 14.542.02.167.01.324-.03.46 3.073-.188 11.228-.617 11.197-.408.24-1.41.51-2.813.71-4.235z"/><path fill="#dcdcdc" d="M398.3 240.28c1.316 3.964.605 8.794.01 12.82-.2 1.422-.47 2.823-.712 4.235.03-.21-8.124.22-11.198.408.042-.136.052-.293.03-.46-.7-4.81-.71-9.828.597-14.544 1.486-5.35 8.972-9.32 11.272-2.46zm-6.964 121.642c.43-.293.868-.533 1.317-.753-2.206 4.63-2.175 10.62-1.62 16.24-1.277-.065-2.625.29-3.86.47-.783.104-1.526.24-2.268.42.21-4.27.962-8.42 2.833-12.16.146-.285.01-.67-.25-.82 1.14-1.285 2.405-2.446 3.848-3.41z"/><path fill="#1d1d1d" d="M382.46 298.832c7.726-1.098 8.322 11.04 8.144 16.217-.01.29-.125.51-.303.68.13.32.04.68-.29.93-1.27.94-3.47.47-4.98.61-2.205.21-4.39.552-6.576.94-.972.18-1.4-1.088-.606-1.507-3.314-5.354-3.094-16.78 4.62-17.88zm2.56 16.437c.994-.13 2.28-.46 3.42-.4-1.41-3.9.962-14.21-4.998-13.93-7.13.33-5.71 10.77-3.93 15.272 1.807-.44 3.658-.733 5.51-.95z"/><path fill="#dcdcdc" d="M388.44 314.872c-1.14-.063-2.426.272-3.42.397-1.85.22-3.7.51-5.51.95-1.776-4.51-3.198-14.94 3.932-15.28 5.96-.28 3.586 10.03 4.998 13.93z"/><path fill="#c1c1c1" d="M370.404 335.616c-.648.052-1.297.146-1.955.293-.4.09-.81.55-.75.98.65 5.01-5.07 6.18-5.136.95 0-.5-.44-1.02-.97-.97-1.026.06-2.02.21-3 .39 0-.04.01-.074 0-.126-5.125-24.57-15.675-47.636-21.8-71.946 3.333-.9 6.564-2.844 9.42-4.35 5.96-3.158 12.57-4.433 19.02-6.17 0 .022-.01.032 0 .064.66 7.15 3.23 13.936 3.7 21.12-.377-.106-.817.062-.984.51-.773 2.123-.49 5.156-3.146 6.044-2.99 1.002-2.8-4.33-2.6-5.836.07-.574-.556-1.097-1.09-1.076-8.99.26-5.937 9.87-3.396 15.17.21.44.732.376 1.025.094.104.144.26.24.48.24 1.61-.03 3.22-.04 4.83-.064.628 7.383 2.186 14.764 3.033 22.136.874 7.54 1.553 15.14 3.31 22.534zm-12.965-64.732c.02-2.373-.73-4.768-2.93-5.96-2.12-1.14-4.83-.44-6.78.72-.327.2-.568.576-.547.963.042 1.526.376 6.503 2.53 6.597.084 0 .167-.01.25-.042 0 .376.262.795.702.805 2.236.094 4.307-1.223 6.24-2.164.335-.166.524-.563.524-.92z"/><path fill="#999" d="M367.25 240.53c.482 2.812 1.172 5.624 2.144 8.31-6.618 1.852-13.33 3.274-19.782 5.678-6.043 2.258-11.135 6.9-17.733 7.434-.01-.105-.04-.21-.1-.314-1.06-1.85-1.81-3.712-2.26-5.772 1.002-.69 2.215-1.12 3.39-1.495 1.22 2.25 3.41 4.17 6.02 2.51 2.163-1.37 2.34-4.82.846-6.74 1.066-.382 2.28-.71 3.356-.78.92 2.56 3.073 4.696 6.01 3.71 3.01-1.002 3.493-4.755 2.458-7.35.73-.333 1.59-.52 2.415-.584.875 2.78 3.46 4.433 6.47 3.733 3.554-.826 3.983-4.6 2.655-7.403 1.35-.395 2.73-.69 4.1-.93z"/><path fill="#1d1d1d" d="M354.51 264.925c2.207 1.192 2.95 3.586 2.93 5.96 0 .355-.19.753-.524.92-1.934.94-4.005 2.258-6.242 2.164-.44-.01-.7-.43-.7-.81-.085.03-.168.04-.252.04-2.154-.097-2.488-5.07-2.53-6.6-.02-.388.22-.764.544-.963 1.945-1.16 4.653-1.86 6.775-.72zm.482 5.76c.617-.564.052-2.048-.408-2.75-1.234-1.84-3.367-1.37-5.123-.626.1 1 .31 2 .6 2.96.2.626.57 1.275.57 1.944 0 .105-.01.21-.03.324 1.494-.24 3.27-.826 4.4-1.86z"/><path fill="#dcdcdc" d="M354.584 267.936c.46.7 1.025 2.185.408 2.75-1.13 1.035-2.907 1.62-4.402 1.86.02-.114.03-.22.03-.323 0-.67-.365-1.317-.564-1.945-.293-.962-.502-1.966-.596-2.97 1.758-.742 3.89-1.212 5.124.628zm-14.45-36.062c-.135.02-.27.073-.407.157-3.388 2.26-6.89 3.13-10.602 3.45 3.712-2.82 6.315-7.51 10.592-9.63.062 2.03.187 4.04.418 6.03z"/><path fill="#999" d="M321.785 268.04c-1.255 1.883-1.966 4.215-2.76 6.285-1.025 2.666-8.793 2.05-11.763 2.51-4.56.72-9.065 1.797-13.592 2.728-3.24.67-7.31.47-10.508 1.61-3.65.125-5.26-3.032-6.807-6.18 14.21-3.45 31.043-12.61 45.43-6.952z"/><path fill="#1d1d1d" d="M331.1 323.11c.127.42-.088.917-.47 1.132-3.155 1.788-6.613 2.824-9.974 4.19-.36.148-.664.08-.89-.087-.087-.03-.165-.068-.233-.147-3.273-3.82-8.43-17.596-2.06-20.937 8.78-4.6 11.966 10.54 13.627 15.85zm-2.09-.03c-.402-1.485-.763-2.97-1.193-4.436-.957-3.244-2.902-10.62-7.455-10.346-7.113.42-3 13.268-.547 18.162.078-.06.156-.107.254-.147.87-.35 8.73-3.233 8.94-3.233z"/><path fill="#c1c1c1" d="M320.258 264.914c-5.813-1.694-12.254-.784-18.11.408-9.043 1.85-17.638 5.395-26.61 7.507 1.35-11.73 3.012-23.41 4.37-35.14.41-3.514.566-7.017.806-10.54.335-4.778 1.464-11.21 7.685-7.54 7.49 4.423 11.59 14.994 15.64 22.28 4.57 8.23 10.21 15.78 16.21 23.014z"/><path fill="#dcdcdc" d="M327.817 318.644c.43 1.465.79 2.95 1.192 4.436-.21 0-8.07 2.882-8.94 3.234-.1.04-.18.088-.26.147-2.45-4.89-6.57-17.74.543-18.16 4.553-.27 6.5 7.1 7.455 10.35z"/><path fill="#f6f6f6" d="M596.26 310.182c2.94 1.242 3.288 4.63 1.91 7.14-1.05 1.908-3.05 3.196-4.968 4.127-.457-.02-.858.55-.457.98 4.008 4.33 4.4 9.56.247 13.893-3.488 3.625-9.195 4.09-12.007-.484-.41-.667-1.26-.31-1.342.365-.12 3.826-2.073 4.22-5.853 1.187-.228-.577-.96-.73-1.324-.175-3.534 5.496-15.897 5.35-16.48-2.4-.038-.495-.576-.64-.878-.413-.164-.136-.402-.2-.648-.08-5.533 2.547-5.79-4.28-2.502-6.565.484-.34.365-1.234-.32-1.197-6.5.364-13.34-2.31-10.007-9.85 2.06-4.63 7.19-8.01 11.54-4.185.24.21.65-.065.46-.357l-.08-.11c.19-.1.345-.32.29-.555-1.406-6.71.995-11.844 7.89-13.64 6.63-1.737 13.284 1.715 15.987 7.88.2.455.94.41 1.15 0 1.06-2.01 2.458-3.417 4.814-3.727 3.306-.44 3.6 2.765 3.45 5.12-.19.3-.117.776.34.95 2.83 1.067 5.98.885 8.8 2.08z"/><path fill="#1d1d1d" d="M601.338 366.856c.12.41-.292.85-.712.712-1.27-.42-5.24-2.246-6.328-1.096-1.38 1.443-1.808 3.415-3.607 4.5-.37.22-.88-.063-.87-.5.05-2.1.41-4.146.578-6.228.01-.1.046-.173.1-.228-1.297-.01-2.74-.94-3.616-1.79-.23-.21-.23-.603 0-.822 1.333-1.278 2.885-1.963 4.684-1.972-.446-1.37-.3-2.977.13-4.31.017-.055.045-.1.072-.137-2.474-1.817-3.424-5.177-3.862-8.072-.246-1.644-.712-5.387.94-6.5.183-.12.457 0 .502.2.227.913-.193 1.78-.22 2.712-.027 1.306.01 2.64.246 3.926.52 2.75 1.436 5.19 3.015 7.5.025.04.016.08.025.11 1.77.47 3.296 1.86 3.908 3.59 1.16-.75 2.366-1.26 3.77-1.302.358-.01.577.347.504.667-.227 1.03-.54 2.054-.93 3.03-.174.43-.33.896-.557 1.316 1.124 1.207 1.81 3.234 2.24 4.704zm-2.538-6.61c.237-.64.43-1.297.593-1.963-1.023.192-1.98.648-2.867 1.196-.338.21-.648-.04-.712-.34-.11-.02-.21-.08-.274-.21-.74-1.38-1.56-2.57-3.03-3.1-.138 1.25-.156 2.563.017 3.8.055.37-.41.7-.667.443-1.36.22-2.64.85-3.698 1.726.41.33.858.603 1.37.785.493.173 1.014.255 1.443.556.338.227.265.656-.037.81.082.048.146.14.155.285.064 1.617-.018 3.224-.073 4.83 1.132-1.515 1.954-4.026 3.762-4.08 1.68-.046 3.415.52 5.05 1.087-.476-1.15-1.097-2.19-1.718-3.277-.073-.054-.128-.127-.137-.236-.027-.046-.046-.09-.073-.137-.164-.276.018-.65.274-.77.192-.475.448-.94.622-1.415zm1.123-47.79c2.036 4.28-2.11 8.17-5.79 9.732 4.293 4.602 4.703 11.55-.63 15.796-4.144 3.296-9.404 3.844-12.79-.09-1.334 4.254-5.443 5.012-7.726 1.095-1.333 1.58-3.35 2.63-5.55 3.16-.42 1.33-1.115 2.5-1.188 4.043-.07 1.525-.11 3.844 1.37 4.766.09.055.08.164.02.22 1.26.62 2.135 1.59 2.582 2.92 1.442-.73 3.003-.8 4.592-.62.3.037.51.383.264.63-.976.977-1.597 2.337-2.547 3.35.74 1.115 1.37 2.23 1.744 3.516.1.355-.257.784-.64.64-1.59-.614-3.06-.796-4.346.49-.82.814-1.54 1.727-2.4 2.503-.34.3-.903.1-.912-.374-.01-1.81-.165-3.608-.23-5.416-1.213-.025-2.327-.71-3.332-1.36-.3-.19-.394-.64-.12-.902.72-.668 1.57-1.26 2.557-1.46.715-.14 1.26-.12 1.847.016-.33-1.288-.367-2.52.09-3.8.045-.127.154-.246.282-.3-1.536-.794-1.98-2.72-1.92-4.392.04-1.07.14-2.885.714-4.2-5.176.61-10.755-1.634-10.956-7.04-.85.475-1.634.72-2.33.785.12.072.21.19.22.383.485 7.86-1.962 16.216-3.834 23.804.11.028.22.083.274.193.91 1.653 1.36 3.48 1.643 5.332.084-.02.185-.01.285.035 1.48.686 3.006 1.133 4.62 1.334.285.045.605.364.376.666-1.18 1.544-3.214 2.594-5.07 3.096h-.053c-.22 1.926-.41 3.9-1.36 5.605-.185.34-.595.33-.86.12-1.306-1.04-2.264-2.43-2.64-4.055-1.33 1.6-4.06 2.073-5.97 1.826-.42-.056-.75-.458-.5-.878.986-1.69 2.18-3.25 3.397-4.777.028-.026.056-.054.092-.072-1.38-.82-2.476-2.656-2.84-4.053-.11-.447.28-.767.692-.694 1.134.21 2.285.492 3.435.565.52.027 1.03.01 1.55.018.047 0 .083.01.13.018.29-1.48 1.067-2.775 2.1-3.88-.11-.064-.184-.173-.165-.33.95-8.016 2.92-15.823 3.743-23.876.018-.186.11-.304.228-.377-3.432-.173-4.546-5.17-2.053-8.31-6.794-.182-13.423-3.962-9.515-11.805 2.09-4.21 8.08-9.068 12.08-5.17-2.092-6.18 1.55-12.453 8.016-14.106 7.04-1.8 14.28.867 17.73 7.23 1.525-2.21 4.19-4.226 6.967-3.23 2.785.986 3.734 3.515 3.02 6.19 4.32.823 9.507 1.05 11.598 5.47zm-1.753 4.866c1.38-2.51 1.032-5.898-1.908-7.14-2.82-1.196-5.972-1.014-8.802-2.082-.457-.174-.53-.648-.338-.95.146-2.356-.146-5.56-3.45-5.122-2.357.31-3.754 1.717-4.813 3.725-.21.41-.95.457-1.16 0-2.704-6.163-9.36-9.615-15.99-7.88-6.894 1.8-9.295 6.93-7.89 13.64.056.238-.1.458-.29.558.026.04.054.08.08.11.193.3-.22.57-.456.36-4.346-3.82-9.478-.44-11.53 4.18-3.334 7.54 3.505 10.22 10.006 9.85.685-.03.804.86.32 1.2-3.287 2.288-3.03 9.11 2.5 6.57.25-.12.486-.055.65.08.3-.23.84-.08.877.41.583 7.754 12.946 7.9 16.48 2.4.365-.555 1.096-.4 1.324.175 3.78 3.03 5.736 2.638 5.855-1.19.084-.674.93-1.03 1.344-.363 2.81 4.574 8.52 4.11 12.006.483 4.155-4.335 3.763-9.567-.246-13.895-.4-.43 0-1.004.457-.986 1.92-.93 3.92-2.22 4.97-4.124zm-25.23 42.98c-.328-.777-.757-1.48-1.223-2.202-.292 0-.566-.374-.383-.648.758-1.087 1.662-2.137 2.566-3.132-1.178.12-2.356.22-3.46.657-.156.064-.293.018-.385-.073-.173.037-.374-.037-.438-.256-.292-1.04-.986-2.21-2.036-2.648-.1 1.04-.12 2.064.08 3.123.02.1 0 .192-.033.274.2.082.183.402-.064.402-1.37 0-2.75.32-3.862 1.11.814.47 1.617.77 2.603 1 .29.062.39.43.272.665l.01.01c.472 1.423.5 2.866.48 4.327.787-.877 1.545-1.835 2.55-2.356 1.104-.584 2.21-.566 3.332-.264zm-21.885 9.485c1.214-.575 2.547-.895 3.625-1.67-1.306-.147-2.538-.677-3.716-1.28-.128.284-.667.293-.75-.072-.364-1.78-.63-3.543-1.423-5.177-.86 1.132-1.48 2.456-1.98 3.79-.08.218-.33.29-.52.236-.1.064-.22.12-.37.146-.59.082-1.17.073-1.76 0-.81-.1-1.604-.256-2.39-.42.247.593.594 1.132 1.05 1.607.51.54 1.18.96 1.56 1.59.185.3-.12.684-.455.583-.11-.027-.21-.082-.32-.128.037.073.037.164 0 .247-.65 1.47-1.507 2.83-2.374 4.19.776.01 1.56-.11 2.29-.39.87-.34 1.61-.93 2.486-1.226.12-.037.22 0 .31.064.165-.073.394-.018.485.22.5 1.24 1.278 2.4 2.246 3.332.71-1.718.693-3.644 1.02-5.46.09-.485.74-.503.997-.193z"/><path fill="#cfcfcf" d="M599.393 358.283c-.164.667-.356 1.324-.593 1.963-.173.475-.43.94-.62 1.415-.257.12-.44.5-.275.77l.073.14c.01.11.064.187.137.24.62 1.088 1.242 2.128 1.717 3.28-1.634-.566-3.37-1.13-5.05-1.087-1.807.055-2.63 2.566-3.76 4.08.054-1.606.136-3.213.072-4.83-.01-.145-.073-.236-.155-.282.3-.153.37-.582.03-.81-.43-.3-.95-.384-1.446-.558-.51-.182-.96-.456-1.37-.784 1.06-.877 2.337-1.507 3.7-1.726.255.255.72-.074.666-.448-.172-1.232-.154-2.55-.017-3.8 1.47.53 2.29 1.72 3.03 3.097.063.127.163.19.273.21.064.3.374.547.712.337.884-.546 1.842-1.003 2.865-1.194zm-27.675-.183c.466.72.895 1.424 1.224 2.2-1.123-.3-2.228-.32-3.333.266-1.01.52-1.77 1.48-2.55 2.356.02-1.46-.01-2.904-.49-4.328l-.01-.01c.12-.236.02-.602-.274-.666-.986-.228-1.79-.53-2.6-1.004 1.113-.785 2.492-1.105 3.86-1.114.248 0 .266-.32.065-.402.036-.082.055-.173.036-.274-.2-1.06-.17-2.082-.07-3.123 1.05.44 1.74 1.61 2.033 2.65.064.22.265.29.44.26.09.09.23.14.384.077 1.105-.44 2.283-.54 3.46-.657-.903.995-1.807 2.045-2.565 3.132-.183.273.09.647.383.647zm-17.038 10.017c-1.077.776-2.41 1.096-3.625 1.67-.256-.31-.904-.29-.995.193-.33 1.817-.31 3.744-1.023 5.46-.968-.93-1.744-2.09-2.246-3.333-.09-.237-.32-.292-.48-.22-.09-.063-.19-.1-.31-.063-.87.292-1.61.886-2.48 1.224-.73.274-1.514.393-2.29.383.868-1.36 1.727-2.72 2.375-4.19.037-.08.037-.17 0-.24.11.048.21.1.32.13.338.1.64-.282.457-.583-.383-.63-1.05-1.05-1.56-1.59-.46-.474-.805-1.013-1.05-1.606.784.165 1.58.32 2.39.42.595.074 1.17.083 1.763 0 .153-.026.272-.08.372-.145.19.055.438-.02.52-.237.493-1.33 1.114-2.655 1.98-3.79.795 1.637 1.06 3.4 1.425 5.18.08.365.62.356.75.073 1.175.6 2.41 1.13 3.714 1.277z"/><path fill="#f6f6f6" d="M526.753 413.153c.617 6.18-4.946 10.76-10.132 12.63-.78.282-.87 1.17-.52 1.694-.11.366-.05.784.35 1.046 18.76 12.442-13.015 31.618-26.35 27.227-.583-.2-1.33.324-1.273.972.805 9.902-8.103 12.85-16.29 10.414-.65-.188-1.276.335-1.286.983-.565 30.37-45.054 41.09-61.323 16.61-.375-.57-1.295-.67-1.64 0-3.713 7.16-14.346 5.34-17.4-1.4-.28-.63-1.254-.55-1.557 0-3.065 5.53-9.485 3.28-12.674-.82-.2-.25-.532-.14-.68.08-.407-.282-1.034-.293-1.42.23-5.74 7.936-14.346 12.338-24.216 11.627-10.697-.763-17.19-8.93-19-18.904-.124-.69-1.222-.524-1.2.156 0 .186.02.354.03.542-.26.01-.51.124-.68.43-8.96 16.006-37.693-6.82-26.076-19.753.7-.774 0-1.757-.94-1.62-15.445 2.11-34.098-10.258-31.15-27.353 2.614-15.212 22.93-24.51 34.765-13.55.58.544 1.4-.282.864-.87-.01 0-.02-.01-.02-.02 0-.04 0-.083-.01-.124-2.782-12.726 17.293-12.548 22.552-4.654.355.533 1.254.65 1.58 0 2.99-5.866 9.46-5.364 13.15-.48.46.605 1.4.585 1.653-.22 1.682-5.333 7.046-5 9.765-.743.387.605 1.443.574 1.61-.21 2.143-9.943 13.06-14.387 22.323-13.948 9.61.46 16.216 7.873 21.705 14.9.324.407 1.087.365 1.422 0 2.153-2.458 4.286-4.54 7.77-4.873 3.51-.335 6.94 2.77 9.314 4.883.58.516 1.5.328 1.72-.45 2.74-9.375 15.482-1.355 19.162 3.318.734.92 1.926-.085 1.696-1.047 10.4-13.884 30.193-14.595 42.02-1.83.364.388 1.064.388 1.42 0 7.81-8.45 19.374-12.263 30.25-7.53 5.185 2.26 10.14 6.79 10.716 12.645z"/><path fill="#1d1d1d" d="M526.042 405.636c6.2 8.75.983 18.172-7.988 21.842 15.663 11.585-2.813 27.645-18.58 30.52.063-.2.125-.387.188-.586.303-.9-1.077-1.474-1.537-.638-.272.502-.533 1.014-.784 1.537-2.27.23-4.46.17-6.44-.26.08 9.7-8.95 13.41-17.68 11.37-.85 14.87-11.63 25.098-24.55 29.008-.32-.324-.67-.64-1.02-.93-.64-.524-1.774.166-1.22.94.126.167.24.335.346.512-13.49 3.4-28.86.01-37.63-12.013-2.3 3.2-6.054 4.485-9.734 4.15.084-.313.188-.637.293-.96.178-.555-.596-1.005-.983-.576-.358.4-.69.818-.995 1.267-3.105-.69-5.99-2.54-7.716-5.322-3.775 4.58-10.404 2.855-13.71-1.912-.02.076-.04.15-.083.22-5.677 9.11-16.97 13.354-26.955 12.225-2.29 17.21-.754 34.86 6.85 50.617.07.01.155.04.22.073 3.08 1.63 5.57 4.12 8.25 6.304.09.073.155.157.197.24.06-.115.134-.21.26-.293 2.55-1.61 5.25-2.907 8.23-3.49.66-.127 1.13.385 1.023 1.023-.52 3.18-1.94 6.503-3.65 9.274 2.98 1.727 4.91 6.19 6.4 9.088.276.534-.05 1.266-.71 1.245-4.273-.197-10.57-3.48-12.91 1.947-1.17 2.697-1.79 5.164-4.236 6.973-.47.357-1.055-.04-1.222-.5-1.567-4.08-2.73-8.26-2.142-12.64-.042-.01-.084 0-.136-.01-2.99-.828-5.99-1.35-9.043-1.84-.825-.138-.91-1.38-.23-1.748 1.914-1.026 3.577-2.406 5.33-3.64 1.017-.72 2.31-1.715 3.61-1.63-.01-.03-.02-.053-.02-.085.208-2.906.616-5.906-.085-8.76-8.23-15.62-11.097-35.05-7.03-52.28-8.802-1.337-16.372-6.963-17.825-17.25-4.33 6.492-11.813 6.482-18.41 3.2 1.746 6.596.073 13.717-2.77 19.865.553 2.07 1.013 4.966 2.76 6.41 1.703 1.4 3.89 2.142 5.896 3 .597.25.45 1.11 0 1.41-1.975 1.266-4.33 1.914-6.262 3.23-2.583 1.76-1.59 7.164-1.87 9.83-.054.554-.69 1.14-1.246.72-2.622-1.944-2.99-4.86-4.83-7.37-2.592-3.524-7.54-.43-10.894-.105-.72.073-1.14-.972-.595-1.432 1.83-1.567 3.503-3.25 4.977-5.154.985-1.277-1.514-6.787-1.83-8.292-.123-.626.546-1.316 1.17-.89 1.885 1.278 3.89 2.23 5.93 3.22 1.716-1.17 3.284-2.82 4.78-4.316.01-.02 0-.05.02-.083 2.854-6.2 4.705-13.604 3.9-20.494-8.866-4.86-15.757-15.547-10.445-23.984-16.24.804-36.44-12.987-31.077-31.16 4.37-14.794 23.566-25.354 36.04-14-3.7-12.326 17.46-13.205 24.52-5.54 3.596-5.448 10.246-5.04 14.574-.566 2.37-4.706 7.747-4.85 11.26-1.17 3.92-12.38 21.32-17.034 32.32-11.46 3.313 1.67 6.27 3.88 8.823 6.586 1.63 1.726 3.18 3.514 4.654 5.386.28.367 3-2.31 3.344-2.52 5.55-3.345 10.443-1.045 14.93 2.657 3.93-8.73 16.52-2.448 21.53 3.19 5.59-8.65 15.524-12.61 25.73-11.618 5.24.503 10.17 2.667 14.41 5.73 1.12.806 2.214 1.747 3.16 2.75.31.336 2.42-2.017 2.63-2.195 2.363-1.935 4.82-3.514 7.59-4.81 10.016-4.673 24.257-2.435 30.94 6.986zm-9.42 20.148c5.186-1.872 10.748-6.45 10.132-12.63-.575-5.855-5.53-10.383-10.717-12.64-10.874-4.737-22.438-.92-30.248 7.527-.36.39-1.06.39-1.43 0-11.827-12.76-31.62-12.05-42.02 1.83.23.97-.965 1.97-1.697 1.05-3.68-4.67-16.426-12.69-19.165-3.31-.22.776-1.14.96-1.715.45-2.37-2.11-5.8-5.215-9.314-4.88-3.48.335-5.615 2.415-7.77 4.872-.334.366-1.097.408-1.42 0-5.49-7.026-12.098-14.44-21.707-14.9-9.267-.44-20.18 4.006-22.326 13.95-.168.783-1.224.815-1.61.208-2.72-4.254-8.08-4.59-9.767.743-.25.805-1.192.826-1.652.22-3.69-4.883-10.162-5.385-13.152.48-.326.65-1.225.534-1.58 0-5.26-7.893-25.335-8.07-22.554 4.654.01.043.01.085.01.126 0 .01.01.02.02.02.535.585-.28 1.41-.866.87-11.835-10.96-32.15-1.665-34.764 13.55-2.95 17.093 15.704 29.462 31.15 27.35.94-.136 1.64.847.94 1.62-11.617 12.935 17.115 35.76 26.075 19.75.17-.3.42-.416.68-.43-.01-.185-.03-.35-.03-.54-.02-.68 1.076-.848 1.2-.158 1.81 9.976 8.303 18.14 19 18.905 9.87.71 18.474-3.69 24.214-11.628.387-.525 1.014-.514 1.42-.23.148-.22.48-.337.68-.086 3.19 4.1 9.61 6.346 12.674.815.303-.543 1.276-.626 1.558 0 3.056 6.745 13.69 8.564 17.4 1.4.346-.67 1.266-.563 1.64 0 16.27 24.48 60.76 13.76 61.326-16.612.01-.647.64-1.17 1.286-.982 8.19 2.436 17.098-.512 16.29-10.414-.05-.65.69-1.17 1.28-.97 13.33 4.39 45.105-14.785 26.347-27.228-.397-.26-.46-.68-.345-1.045-.358-.525-.264-1.414.52-1.696zm-141.79 142.48c-1.558-2.72-3.356-5.145-5.25-7.686-.01-.01-.01-.03-.02-.042-.46-.063-.878-.44-.67-.983 1.088-2.813 2.688-5.28 3.483-8.166-1.966.523-3.806 1.37-5.615 2.32 0 .18-.105.377-.272.45-.502.273-1.035.503-1.568.722-.136.06-.314.16-.47.18-.043.01-.23.01-.325.01-.356-.065-.544-.44-.397-.72-.115-.03-.23-.087-.335-.17-2.09-1.705-4.046-3.587-6.294-5.07.36 2.644-.07 5.31-.63 7.956-.03.18-.15.293-.28.356-.01.03-.02.073-.05.105-.91 1.264-2.646 2.07-3.89 3-.91.68-1.798 1.38-2.73 2.03 2.248.374 4.496.793 6.618 1.566.617.22.732.866.502 1.305.177.093.323.27.323.5-.053 3.807.982 7.383 2.184 10.94 2.874-2.78 2.477-7.447 6.732-9.287 2.634-1.14 6.043.167 8.94.67zm-65.59-52.79c1.716-1.747 4.183-2.51 6.39-3.598-4.34-2.028-6.15-3.9-7.592-8.553-1.495 1.516-3.24 3.283-5.123 4.067-.2.324-.617.554-1.066.335-1.48-.7-2.93-1.4-4.36-2.196.87 2.4 2.19 5.93 1.64 6.67-1.12 1.5-2.3 2.91-3.575 4.25 2.447-.767 5.25-1.73 7.12-.62 2.99 1.766 3.367 5.363 5.406 7.84-.104-2.77-.502-6.503 1.17-8.207zm205.32 5.258c-3.064-.43-5.96.502-8.825 1.443-.565.178-.962-.188-1.066-.638-.18-.084-.34-.24-.4-.502-.803-3.158-1.84-6.44-3.96-8.97-1.82 2.372-2.415 5.29-2.28 8.29.022.47-.52.68-.877.512-2.405 1.046-4.83 1.987-7.31 2.854 1.454 2.04 3.91 2.85 6.16 3.91.375.19.5.66.417 1.04-.345 1.51-3.44 13.18 1.077 8.63 1.893-1.912 3.19-4.09 4.413-6.46.27-.523.97-.533 1.37-.178 2.393 2.164 4.36 4.81 7.36 6.02-.72-3.86-2.907-7.54-.638-11.22.406-.633 3.86-4.72 4.57-4.72zm1.61-1.17c.46.156.816.74.49 1.212-1.546 2.185-6.45 5.25-6.074 8.176.397 3.053 1.683 5.887 1.955 8.97.052.586-.596.963-1.098.837-3.69-.878-5.95-3.555-8.553-6.064-2.07 3.858-4.61 7.486-9.264 8.03-.45.063-.962-.45-.9-.9.377-3.115 2.93-10.256-.156-11.762-2.206-1.07-3.848-2.16-5.02-4.36-.302-.58-.03-1.24.587-1.44 2.85-.94 5.7-1.73 8.62-2.43-.44-3.282.44-6.62 2.63-9.13-.01-.02-.03-.03-.042-.05-7.1-14.993-9.536-36.835-2.018-52.33.7-.074 1.42-.18 2.132-.315-2.75 8.385-4.685 16.478-4.277 25.428.42 9.21 2.384 17.89 5.05 26.663.22-.01.43.06.575.22 2.594 2.81 3.91 6.355 4.884 9.994 3.41-1.078 6.984-1.956 10.466-.743z"/><path fill="#cfcfcf" d="M505.737 522.175c2.865-.94 5.76-1.872 8.825-1.443-.71 0-4.16 4.088-4.57 4.726-2.268 3.68-.083 7.36.64 11.22-3.002-1.214-4.967-3.86-7.362-6.023-.397-.356-1.098-.345-1.37.178-1.223 2.373-2.52 4.548-4.412 6.462-4.517 4.548-1.422-7.12-1.077-8.626.09-.38-.04-.85-.41-1.04-2.25-1.07-4.703-1.87-6.16-3.91 2.48-.87 4.907-1.81 7.31-2.86.358.167.9-.042.88-.512-.136-3 .46-5.918 2.28-8.29 2.12 2.53 3.157 5.812 3.96 8.97.064.26.22.42.41.502.102.445.5.81 1.064.634z"/><path fill="#1d1d1d" d="M498.125 456.774c.46-.836 1.84-.26 1.537.638-.063.2-.125.387-.188.586-.71.136-1.432.24-2.133.314.26-.523.52-1.036.79-1.538zM471.17 570c.137.605-.396 1.2-1.034 1.024-2.32-.648-4.663-1.276-6.995-1.913-2.92-.79-2.62-.38-3.58 2.14-1.02 2.7-2.202 5.116-4.272 7.16-.47.46-1.18.21-1.39-.362-1.36-3.826-2.134-7.443-2.03-11.47-.01 0-.01.01-.02.01-1.495.043-3.053-.626-4.506-.982-1.432-.353-2.854-.75-4.287-1.15-.41-.113-.64-.47-.67-.876-.01-.16-.03-.316-.04-.473-.032-.313.198-.7.47-.835 2.75-1.35 5.57-2.405 8.395-3.555.19-.085.347-.043.483.05-.752-3.242-1.055-6.64-1.045-9.965-.145-.075-.26-.22-.25-.42 1.21-16.71 6.524-34.62-3.62-49.436.64-.145 1.278-.323 1.905-.522 5.342 5.384 6.136 15.066 6.053 22.123-.095 9.13-1.413 18.173-3.19 27.113.073.01.136.04.2.083 2.874 2.06 5.175 4.654 7.433 7.35 2.194-1.316 4.274-2.874 6.69-3.753.49-.178.9.178 1.035.606.25.118.47.348.49.704.22 3.785-2.373 6.232-.05 9.902 1.534 2.424 3.186 4.61 3.835 7.453zm-2.1-1.005c-1.235-2.896-3.755-5.155-4.476-8.218-.627-2.698.972-4.81 1.13-7.455-2.082 1.108-4.068 2.478-6.316 3.19-.26.26-.66.334-.962-.022-1.934-2.332-3.89-4.705-6.263-6.608.2 3.137.627 6.273.648 9.41 0 .523-.7.67-.94.282-.05.094-.11.188-.22.25-2.11 1.235-4.28 2.322-6.47 3.4 1.06.302 2.14.574 3.21.846 1.27.335 2.7.523 3.76 1.328.04.03.085.073.116.125.22-.01.44.136.48.418.42 3.52 1.214 6.92 2.29 10.27 2.155-2.58 3.138-5.82 4.068-9.06.126-.43.576-.69 1.015-.562 2.97.827 5.96 1.61 8.94 2.416z"/><path fill="#cfcfcf" d="M464.594 560.777c.72 3.063 3.24 5.322 4.475 8.218-2.98-.805-5.97-1.59-8.94-2.415-.44-.125-.89.136-1.02.565-.93 3.24-1.917 6.482-4.07 9.065-1.078-3.356-1.87-6.754-2.29-10.268-.04-.282-.26-.43-.48-.418-.03-.052-.075-.094-.117-.125-1.056-.81-2.49-1-3.754-1.33-1.077-.27-2.154-.55-3.21-.85 2.185-1.08 4.36-2.17 6.472-3.4.103-.066.165-.16.22-.25.24.383.94.24.94-.286-.02-3.137-.45-6.273-.65-9.41 2.374 1.903 4.33 4.276 6.264 6.61.302.354.7.28.96.02 2.25-.71 4.236-2.08 6.316-3.19-.157 2.645-1.756 4.76-1.13 7.455z"/><path fill="#1d1d1d" d="M447.645 497.49c.355.292.7.605 1.025.93-.627.2-1.265.376-1.903.523-.105-.178-.22-.345-.345-.512-.554-.77.586-1.46 1.223-.94zM414.68 526.4c.323.145.45.668.25.95-1.244 1.777-2.73 3.356-4.412 4.705-.92.742-1.924 1.673-3.022 2.258 1.464 3.043 2.363 6.22 2.896 9.556.125.77-.533 1.28-1.244.96-2.708-1.22-6.89-5.37-9.89-3.58-2.343 1.39-4.34 3.43-7.017 4.18-.55.144-1.14-.28-1.12-.87.085-3.974.88-7.675 3-11.02-1.86-.764-3.67-1.674-5.34-2.793-1.056-.7-1.955-1.014-2.028-2.33-.02-.41.314-.88.72-.95 2.97-.546 5.877-1.288 8.794-2.03.25-2.59.878-5.207 1.715-7.654.043-.106.105-.21.18-.283-2.97-6.942-5.103-19.77-.43-26.703.554.137 1.12.22 1.683.273-2.73 8.94-2.76 17.064-.29 26.296.01.03 0 .05 0 .072 2.95 1.913 3.87 5.25 5.342 8.27.043.073.053.157.064.23 3.513-.322 6.806-1.012 10.163.452zm-4.76 4.15c1.172-.993 2.3-2.028 3.263-3.22-2.76-.836-6.033-.084-8.835-.24-.272-.02-.44-.178-.502-.366-.21.01-.418-.084-.544-.335-1.16-2.39-1.987-5.67-4.235-7.31-.627 2.23-1.087 4.49-1.673 6.74.084.33-.042.74-.46.91-2.447 1.01-4.893 1.89-7.465 2.39.66.43 1.57.9 1.87 1.066 1.13.65 2.28 1.223 3.48 1.736.43.18.5.607.38.993.084.094.115.22.05.366-1.232 3.21-2.05 6.545-2.3 9.975 2.867-1.4 5.23-4.67 8.586-4.242 2.436.313 4.663 2.132 6.86 3.47-.534-2.57-1.298-5.04-2.395-7.476-.05-.105-.07-.21-.07-.314-.335-.2-.47-.7-.157-1.046 1.13-1.234 2.855-2.007 4.14-3.105z"/><path fill="#cfcfcf" d="M413.183 527.33c-.962 1.19-2.09 2.226-3.262 3.22-1.28 1.097-3.01 1.87-4.14 3.104-.31.345-.17.847.16 1.046 0 .105.02.21.08.314 1.1 2.436 1.86 4.904 2.395 7.476-2.196-1.338-4.423-3.158-6.86-3.47-3.355-.43-5.72 2.843-8.583 4.244.25-3.43 1.066-6.765 2.3-9.975.063-.15.03-.28-.052-.37.115-.39.042-.82-.387-1-1.2-.512-2.352-1.087-3.48-1.736-.293-.167-1.2-.638-1.87-1.067 2.57-.5 5.017-1.38 7.463-2.394.416-.168.542-.576.46-.91.584-2.25 1.044-4.507 1.67-6.745 2.25 1.64 3.076 4.924 4.237 7.31.123.25.333.343.542.333.064.19.23.345.5.366 2.805.155 6.078-.598 8.838.24z"/><path fill="#1d1d1d" d="M398.713 489.542c.387-.43 1.16.02.983.575-.105.324-.21.648-.293.962-.565-.06-1.13-.14-1.683-.28.303-.45.637-.87.993-1.267z"/><path fill="#cfcfcf" d="M364.125 555.08c.094 0 .282 0 .324-.01.15-.022.33-.126.47-.19.53-.22 1.06-.45 1.56-.72.166-.073.27-.272.27-.45 1.81-.95 3.65-1.798 5.615-2.32-.795 2.885-2.394 5.352-3.48 8.165-.21.544.21.92.67.983.01.01.01.03.02.042 1.89 2.54 3.69 4.966 5.25 7.685-2.9-.502-6.308-1.81-8.94-.67-4.26 1.84-3.86 6.504-6.736 9.286-1.203-3.55-2.238-7.13-2.186-10.93 0-.23-.148-.41-.326-.5.23-.44.113-1.086-.504-1.306-2.122-.774-4.37-1.192-6.618-1.57.93-.65 1.82-1.35 2.73-2.03 1.242-.93 2.98-1.734 3.887-3 .02-.03.03-.072.042-.104.135-.064.25-.18.28-.357.566-2.647.994-5.314.628-7.96 2.247 1.488 4.202 3.37 6.293 5.07.106.088.22.14.336.17-.146.28.042.66.397.72zm-48.493-43.204c-2.206 1.087-4.674 1.85-6.388 3.597-1.673 1.704-1.276 5.437-1.17 8.208-2.04-2.47-2.416-6.07-5.407-7.84-1.872-1.11-4.674-.14-7.12.62 1.276-1.34 2.457-2.75 3.576-4.25.554-.73-.763-4.265-1.63-6.67 1.42.795 2.874 1.495 4.36 2.196.45.22.867-.01 1.065-.335 1.882-.783 3.628-2.55 5.123-4.066 1.45 4.65 3.26 6.523 7.6 8.55z"/><path fill="#f6f6f6" d="M258.102 336.338c8.774.088 14.4 10.835 3.498 13.287-.576.127-.713.88-.332 1.28 4.445 4.65 4.445 10.757.05 15.427-5.296 5.628-12.38 2.843-15.955-2.98-.37-.606-1.21-.313-1.26.342.06 3.967-2.15 5.286-6.624 3.967-.46-.4-1.12-.12-1.17.48-.47 7.14-11.81 3.31-9.48-2.54.097-.22-.275-.37-.39-.16-.187.316-.32.618-.43.92-.187-.33-.626-.51-.94-.136-3.3 3.947-10.09 3.81-11.83-1.827-.72-2.325-.097-5.334-.03-7.73.01-.38-.31-.623-.66-.653-5.395-.5-11.96-1.84-14.07-7.564-1.2-3.254.185-7.33 1.7-10.22 2.803-5.354 8.685-5.48 13.32-2.765.31.186.68-.264.4-.51.04-.047.06-.115.03-.203-1.73-4.603 3.73-4.63 6-2.49.4.36 1.14.01.944-.56-1.436-4.23.03-8.15 4.397-9.624 4.24-1.436 7.27 1.368 9.108 4.817.14.257.39.277.595.17.165.05.36.03.556-.1 4.32-2.687 8.324-5.6 13.63-5.61 7.786-.01 12.26 7.046 8.264 13.807-.305.517.086 1.17.672 1.18z"/><path fill="#1d1d1d" d="M259.363 334.853c9.516 1.036 14.42 12.71 3.83 15.935 4.494 5.618 3.732 13.072-2.14 17.713-1.65 1.3-3.37 2.01-5.07 2.23 1.464 4.21.292 8.66-.665 12.88.107.04.195.11.264.2 1.114 1.545 1.964 3.225 2.6 5.003.048-.03.087-.06.146-.08 1.495-.48 3.048-.46 4.592-.36.293.02.625.32.49.645-.822 1.974-2.277 3.517-4.25 4.367.693 1.18 1.005 2.55 1.328 3.87.107.41-.264.79-.674.684-1.426-.393-2.687-1.038-3.88-1.888-.02.068-.048.137-.097.195-1.143 1.37-2.902 2.014-4.455 2.795-.508.253-.987-.157-.9-.695.333-2.04.695-4.083 1.232-6.086-.87-.34-1.602-.947-2.345-1.494-.69-.507-1.12-.644-1.19-1.513-.03-.273.213-.585.49-.644 1.68-.36 3.21-.566 4.902-.39.292-1.37.702-2.706 1.015-4.074-.204-.088-.36-.303-.32-.576.655-4.24 1.827-8.567.322-12.73-3.616-.06-7.035-2.217-9.45-5.4-1.005 3.85-4.093 6.25-7.66 3.926-.663 2.825-2.9 3.948-5.246 3.91-1.543 5.48-2.11 10.62-1.425 16.364.37 3.068.86 6.233 1.953 9.145.682 1.788 1.854 3.205 2.646 4.865.136-.03.292.01.41.106 1.337 1.045 2.383 2.345 3.194 3.83.245-.283.53-.195.81-.078 1.32-.5 2.69-.666 4.076-.95.37-.088.685.225.607.606-.256 1.204-.627 2.454-1.145 3.568-.167.37-.363.87-.636 1.27.01.02.03.03.04.05.85 2.08 1.77 4.093 2.22 6.3.09.46-.284.86-.75.744-1.86-.44-3.57-1.23-5.28-2.08-1.434 1.416-2.92 2.754-4.64 3.83-.36.224-.85-.07-.85-.48.02-2.1.1-4.2.128-6.29 0-.1.03-.178.063-.236-.527.098-1.123-.05-1.66-.137-.87-.128-1.72-.333-2.59-.49-.194-.03-.43-.254-.46-.45-.154-1.19.793-1.455 1.73-1.973 1.056-.575 2.336-1.054 3.254-1.875-.39-1.8-.145-3.48 1.038-4.885-4.182-1.396-5.256-11.137-5.57-14.39-.41-4.23-1.445-12.633 1.613-16.492-2.97-.547-5.725-2.833-5.266-5.823-2.355 2.647-6.888 3.575-10.13 2.17.06.164.04.36-.12.496-2.06 1.75-3.3 3.34-4.2 5.98-.772 2.278-1.32 4.61-1.602 6.997-.02.158-.11.276-.216.354.782 1.523 1.505 3.057 1.856 4.747.077-.02.146-.026.234-.01 1.213.277 2.463.394 3.704.5.716.07 1.73.01 2.318.49.14.117.1.29 0 .41.08.254.02.557-.262.74-2.06 1.37-3.555 2.955-3.682 5.51-.1 1.93-.01 3.85-.117 5.778-.02.333-.264.607-.606.607-1.035 0-1.572-.916-2.236-1.64-1.077-1.17-2.11-2.363-3.11-3.604-2.627 1.65-5.617 2.56-8.724 2.658-.51.02-.704-.517-.53-.917.9-2.04 1.944-4.074 3.38-5.803.87-1.054 1.446-1.132.606-2.295-.645-.88-1.32-1.66-2.228-2.27-.43-.283-.216-.85.185-.918.1-.107.245-.176.44-.166 1.564.05 3.137.05 4.71.127.576-1.825 1.61-3.574 3.234-4.64.04-.03.087-.05.145-.05.275-2.997.91-5.95 1.994-8.752.645-1.68 2.07-4.423 4.133-4.65-1.507-.87-2.63-2.303-2.95-4.413-.286-1.836-.296-3.604-.19-5.47.14-2.452-1.025-2.022-2.94-2.413-2.824-.558-5.91-1.36-8.187-3.235-9.83-8.08 1.377-27.22 12.33-19.368-.94-1.72-.616-3.38 1.367-4.444 1.643-.87 3.52-.333 5.024.615-1.67-9.426 12.252-13.735 15.515-4.873 5.99-3.8 13.98-8.764 21.002-3.947 4.76 3.26 5.814 8.34 3.46 13.254zm2.237 14.772c10.903-2.452 5.276-13.2-3.498-13.287-.586-.01-.977-.664-.674-1.182 3.996-6.76-.48-13.815-8.265-13.805-5.305.01-9.31 2.93-13.63 5.61-.194.13-.39.15-.556.1-.205.11-.46.09-.596-.16-1.83-3.45-4.86-6.252-9.1-4.816-4.363 1.475-5.83 5.393-4.393 9.624.195.568-.547.92-.95.558-2.265-2.14-7.726-2.11-6 2.49.03.09.01.16-.026.208.283.245-.09.695-.4.51-4.632-2.717-10.514-2.59-13.32 2.764-1.513 2.893-2.9 6.967-1.7 10.22 2.11 5.725 8.677 7.064 14.07 7.56.35.03.674.275.664.657-.07 2.394-.694 5.403.03 7.728 1.738 5.64 8.528 5.776 11.83 1.83.314-.37.753-.196.94.136.106-.305.243-.608.43-.92.116-.206.488-.06.39.165-2.335 5.84 9.008 9.67 9.477 2.54.05-.607.7-.88 1.16-.48 4.476 1.32 6.684 0 6.625-3.967.05-.656.89-.95 1.26-.343 3.577 5.822 10.66 8.606 15.955 2.98 4.394-4.67 4.394-10.777-.05-15.428-.38-.4-.24-1.153.332-1.28zm.46 39.813c-1.154.078-2.297.156-3.44.332-.068.01-.127 0-.195-.01-.107.225-.49.313-.625.03-.752-1.515-1.514-3.06-2.443-4.495-.303 1.075-.703 2.1-1.094 3.156.02.1-.01.19-.088.25-.078.22-.156.41-.234.63-.12.352-.61.215-.55-.156l.06-.283c-1.16.255-2.313.548-3.47.8.786.626 1.587 1.23 2.49 1.66.35.168.34.57.16.82v.04c-.117 1.76-.43 3.5-.743 5.238 1.17-.567 2.335-1.163 3.4-1.934.088-.06.176-.075.254-.075.06-.216.283-.38.547-.226.978.556 2.014 1.015 3.088 1.377-.28-1.035-.633-2.04-1.19-2.97-.244-.4.05-.77.4-.84.05-.126.148-.243.333-.32 1.455-.61 2.59-1.673 3.35-3.012zm-19.67 20.712c.39-.82.713-1.63.967-2.48-.978.175-1.975.292-2.893.644-.518.205-1.006.44-1.348.117-.187.17-.49.2-.636-.08-.733-1.395-1.69-2.64-2.902-3.652-.81 1.17-.88 2.814-.703 4.18.028.285-.206.44-.46.45-1.006 1.36-2.228 2.18-3.654 3 .51.137 1.03.234 1.54.313.687.098 1.44-.03 1.986.43.137.117.147.39 0 .498-.05.04-.1.06-.137.09.176.04.322.165.332.41.02 1.74.068 3.477.098 5.216 1.398-1.016 2.62-2.2 3.85-3.43.195-.194.488-.214.733-.087 1.426.712 2.87 1.386 4.397 1.865-.47-1.73-1.172-3.37-1.866-5.03-.176-.05-.332-.185-.303-.39.09-.732.685-1.387 1.007-2.05zm-26.633-20.438c-.402-.06-.783-.137-1.076-.176-1.12-.147-2.25-.293-3.36-.567-.09-.03-.15-.07-.2-.11-.163.03-.34-.04-.4-.27-.44-1.74-1.014-3.44-1.942-4.99-1.22 1.27-2.04 2.734-2.774 4.34-.01.01-.01.02-.02.03-.05.113-.107.22-.156.33-.128.272-.46.193-.597-.01-1.065.05-2.13.07-3.205.09.84.81 1.488 1.794 2.16 2.78.15.225.08.53-.096.713-1.77 1.904-3.118 4.015-4.22 6.32 2.57-.215 5.02-1.036 7.22-2.413.232-.146.457-.097.614.03.127-.02.254.02.38.127 1.105.91 2.08 1.953 3.03 3.02.244.262.77 1.034 1.24 1.503-.01-2.207-.292-4.63.363-6.7.55-1.75 1.673-2.99 3.05-4.054z"/><path fill="#cfcfcf" d="M258.62 389.77c1.143-.176 2.286-.254 3.44-.332-.763 1.34-1.896 2.403-3.352 3.01-.186.077-.283.194-.332.32-.352.07-.645.44-.4.84.556.93.908 1.935 1.19 2.97-1.074-.36-2.11-.82-3.086-1.377-.264-.15-.49.01-.547.23-.078 0-.166.02-.254.08-1.07.77-2.23 1.37-3.4 1.937.31-1.74.62-3.48.74-5.237v-.04c.18-.254.19-.655-.16-.82-.91-.43-1.71-1.037-2.49-1.662 1.15-.254 2.302-.547 3.464-.8-.02.097-.04.194-.06.282-.058.37.43.506.56.154.08-.214.155-.41.233-.624.08-.06.107-.147.09-.244.39-1.054.79-2.08 1.093-3.155.93 1.44 1.69 2.98 2.444 4.498.135.283.516.195.623-.03.07.013.127.023.195.013zm-15.26 17.9c-.255.85-.577 1.66-.968 2.48-.322.665-.918 1.32-1.006 2.053-.03.205.127.342.303.39.69 1.662 1.39 3.303 1.86 5.032-1.528-.48-2.97-1.153-4.4-1.866-.245-.13-.538-.11-.734.08-1.23 1.23-2.45 2.41-3.85 3.43-.028-1.74-.077-3.48-.097-5.22-.01-.245-.156-.37-.33-.41.04-.03.09-.05.136-.09.146-.106.136-.38 0-.497-.548-.46-1.3-.33-1.984-.43-.51-.078-1.027-.176-1.535-.313 1.426-.82 2.65-1.64 3.654-3 .254-.01.488-.164.46-.447-.177-1.37-.11-3.01.7-4.183 1.214 1.017 2.17 2.258 2.904 3.655.146.284.45.255.634.09.34.32.83.087 1.346-.118.92-.354 1.915-.47 2.892-.647zm-28.676-18.134c.293.04.674.117 1.075.176-1.38 1.065-2.51 2.306-3.05 4.055-.66 2.07-.37 4.494-.36 6.702-.47-.47-1-1.25-1.25-1.51-.95-1.07-1.926-2.11-3.03-3.02-.127-.11-.254-.15-.38-.13-.157-.128-.38-.177-.617-.03-2.198 1.38-4.65 2.2-7.22 2.413 1.104-2.306 2.452-4.416 4.22-6.32.177-.187.245-.49.1-.714-.675-.987-1.32-1.974-2.16-2.784 1.075-.02 2.14-.04 3.205-.09.137.206.47.284.596.01.05-.106.107-.214.156-.33.01-.01.01-.02.02-.03.732-1.6 1.552-3.068 2.774-4.338.93 1.55 1.506 3.25 1.945 4.99.06.224.234.292.4.263.05.04.12.08.206.11 1.104.273 2.24.42 3.36.566z"/></svg>