<svg xmlns="http://www.w3.org/2000/svg" width="800" height="800" viewBox="0 0 800 800"><title>Personalizar mundos</title><defs><filter id="a" x="-1.037" width="3.074" y="-1.117" height="3.233" color-interpolation-filters="sRGB"><feGaussianBlur stdDeviation="307.525"/></filter></defs><rect width="711.864" height="661.017" x="57.627" y="54.237" rx="1.542" ry="1.143" fill="#efe2c2" fill-opacity="0" filter="url(#a)"/><g transform="matrix(1.553 0 0 1.402 -64.005 -226.016)"><path fill="#91512b" d="M300.54 422.213l63.436-105.11 85.638 113.195m-78.858 22.997l63.436-105.11L519.83 461.38"/><path fill="#e5e5e5" d="M437.897 404.59h31.617v33.028h-31.617z"/><path fill="#fff" d="M458.39 421.364h2.69v3.427h-2.69zm4.074 0h2.69v3.427h-2.69z"/><path d="M470.835 415.755v-15.932h-34.2v16.137h.015c-.01.067-.016.135-.016.204 0 .79.645 1.428 1.44 1.428.454 0 .857-.207 1.122-.53.264.323.667.53 1.12.53.454 0 .858-.207 1.122-.53.264.323.668.53 1.12.53.453 0 .857-.207 1.12-.53.265.323.67.53 1.122.53.452 0 .857-.207 1.12-.53.265.323.67.53 1.122.53.452 0 .857-.207 1.12-.53.265.323.67.53 1.122.53.453 0 .857-.207 1.12-.53.265.323.668.53 1.122.53.453 0 .856-.207 1.12-.53.265.323.67.53 1.122.53.453 0 .857-.207 1.12-.53.265.323.67.53 1.122.53.452 0 .856-.207 1.12-.53.265.323.668.53 1.122.53.452 0 .857-.207 1.12-.53.264.323.668.53 1.12.53.454 0 .858-.207 1.122-.53.264.323.668.53 1.12.53.455 0 .858-.207 1.122-.53.264.323.667.53 1.12.53.454 0 .857-.207 1.122-.53.264.323.667.53 1.12.53.452 0 .856-.207 1.12-.53.265.323.668.53 1.122.53.795 0 1.44-.64 1.44-1.428-.004-.142-.026-.28-.065-.41z" fill="#ed724b"/><ellipse cx="407.618" cy="415.349" rx="8" ry="13.192" fill="#487f7a"/><path d="M427.547 418.86c0 7.283-3.582 13.19-8 13.19s-8-5.907-8-13.19c0-7.29 3.582-13.196 8-13.196s8 5.907 8 13.195z" fill="#487f7a"/><ellipse cx="430.559" cy="424.706" rx="8" ry="13.192" fill="#487f7a"/><path d="M449.443 436.4c.082-.76.127-1.54.127-2.337 0-7.287-3.58-13.195-8-13.195-4.418 0-8 5.908-8 13.195 0 .798.046 1.578.13 2.337h15.743z" fill="#487f7a"/><path d="M495.64 447.955c0 3.944-2.508 7.14-5.604 7.14H80.12c-3.094 0-5.602-3.196-5.602-7.14v-9.09c0-3.946 2.51-7.143 5.603-7.143h409.92c3.095 0 5.604 3.197 5.604 7.142v9.09z" fill="#3eb766"/><path d="M522.252 470.177c0 3.944-2.51 7.142-5.604 7.142H106.732c-3.095 0-5.604-3.2-5.604-7.145v-9.09c0-3.944 2.51-7.142 5.604-7.142h409.916c3.094 0 5.604 3.198 5.604 7.142v9.09zm-109.03 18.713c0 3.945-2.51 7.143-5.604 7.143H122.332c-3.095 0-5.604-3.198-5.604-7.142v-9.09c0-3.942 2.51-7.14 5.604-7.14h285.286c3.095 0 5.604 3.198 5.604 7.14v9.09z" fill="#45a77a"/><path d="M453.597 509.944c0 3.944-2.508 7.14-5.603 7.14H162.708c-3.095 0-5.604-3.196-5.604-7.14v-9.09c0-3.946 2.51-7.143 5.604-7.143h285.287c3.094 0 5.603 3.2 5.603 7.145v9.09zm37.553 10.526c0 3.944-2.508 7.14-5.604 7.14H176.472c-3.095 0-5.603-3.196-5.603-7.14v-9.09c0-3.945 2.505-7.143 5.6-7.143h309.075c3.095 0 5.604 3.198 5.604 7.143v9.09z" fill="#0ab6c5"/><path d="M233.2 361.01c0 4.31-2.745 7.803-6.13 7.803-3.386 0-6.13-3.493-6.13-7.802 0-4.31 2.744-7.8 6.13-7.8 3.385 0 6.13 3.49 6.13 7.803zm-6.964 1.87h1.182v14.308h-1.182z" fill="#046937"/><ellipse cx="218.834" cy="357.652" rx="4.142" ry="11.741" fill="#d8d054"/><path fill="#d8d054" d="M217.963 362.88h1.182v14.308h-1.182z"/><ellipse cx="243.587" cy="353.993" rx="6.13" ry="7.803" fill="#046937"/><path fill="#046937" d="M242.753 355.86h1.182v14.31h-1.182z"/><ellipse cx="235.351" cy="350.634" rx="4.142" ry="11.741" fill="#d8d054"/><path fill="#d8d054" d="M234.48 355.86h1.182v14.31h-1.182z"/><path d="M264.56 439.823c-8.1-26.028-43.373-45.62-85.663-45.62s-77.563 19.592-85.663 45.62H264.56z" fill="#067279"/><path d="M269.607 440.408c-8.1-26.03-43.374-45.62-85.663-45.62-42.29 0-77.564 19.59-85.663 45.62h171.33zm86.36-.585c4.317-6.752 6.705-14.16 6.705-21.932 0-31.49-39.137-57.02-87.414-57.02-48.276 0-87.413 25.53-87.413 57.023 0 7.773 2.388 15.182 6.705 21.933h161.417z" fill="#45a77a"/><path d="M445.735 439.823C431.402 421.1 401.75 408.24 367.49 408.24c-34.262 0-63.913 12.86-78.247 31.583h156.492z" fill="#067279"/><path d="M448.488 442.162c-14.333-18.723-43.984-31.582-78.246-31.582-34.26 0-63.912 12.86-78.245 31.582h156.49z" fill="#45a77a"/><path d="M145.355 387.17c0 8.338-5.313 15.1-11.863 15.1-6.553 0-11.862-6.76-11.862-15.1 0-8.344 5.31-15.1 11.862-15.1 6.55 0 11.863 6.756 11.863 15.1zm-13.48 3.616h2.288v27.692h-2.287z" fill="#046937"/><path d="M125.57 380.672c0 12.55-3.588 22.72-8.016 22.72-4.425 0-8.016-10.17-8.016-22.72 0-12.55 3.59-22.722 8.016-22.722 4.428 0 8.015 10.17 8.015 22.722zm-9.702 10.114h2.287v27.692h-2.287z" fill="#d8d054"/><path d="M154.354 387.543c0 7.284-3.582 13.19-8 13.19-4.42 0-8-5.906-8-13.19 0-7.288 3.58-13.196 8-13.196 4.418 0 8 5.907 8 13.196zm-9.9 9.073h2.287v23.32h-2.284z" fill="#3cb44a"/><path fill="#e5e5e5" d="M166.337 376.07h31.44v32.844h-31.44z"/><path fill="#fff" d="M170.51 392.75h2.675v3.408h-2.674zm4.052 0h2.674v3.408h-2.674zm4.052 0h2.674v3.408h-2.674zm4.05 0h2.675v3.408h-2.677zm4.053 0h2.674v3.408h-2.67zm4.053 0h2.673v3.408h-2.674z"/><path d="M199.092 387.172V371.33h-34.01v16.047h.016c-.01.067-.016.135-.016.203 0 .784.642 1.42 1.433 1.42.45 0 .852-.205 1.114-.527.26.322.66.527 1.112.527.45 0 .852-.205 1.115-.527.262.322.663.527 1.114.527.45 0 .853-.205 1.116-.527.262.322.663.527 1.113.527.45 0 .85-.205 1.114-.527.263.322.664.527 1.115.527.45 0 .85-.205 1.112-.527.263.322.665.527 1.115.527.452 0 .853-.205 1.116-.527.263.322.664.527 1.115.527.45 0 .852-.205 1.114-.527.263.322.664.527 1.114.527.45 0 .85-.205 1.114-.527.262.322.664.527 1.114.527.45 0 .852-.205 1.114-.527.263.322.665.527 1.115.527.45 0 .852-.205 1.115-.527.263.322.664.527 1.114.527.45 0 .852-.205 1.115-.527.262.322.664.527 1.115.527.45 0 .852-.205 1.115-.527.264.322.665.527 1.115.527.45 0 .852-.205 1.115-.527.263.322.664.527 1.115.527.45 0 .852-.205 1.115-.527.262.322.664.527 1.115.527.79 0 1.432-.636 1.432-1.42-.005-.142-.026-.28-.065-.408z" fill="#ed724b"/><path fill="#936773" d="M170.066 400.238h8.427v8.468h-8.427zm14.91 0h8.426v8.468h-8.427z"/><path d="M174.528 378.42c0-.966-.946-1.75-2.113-1.75s-2.113.784-2.113 1.75c0 .037.004.073.007.112v5.594h4.21v-5.602c.003-.035.006-.07.006-.105zm10.13 0c0-.966-.946-1.75-2.114-1.75-1.167 0-2.113.784-2.113 1.75 0 .037.006.073.01.112v5.594h4.213v-5.602c.003-.035.008-.07.008-.105zm9.886 0c0-.966-.946-1.75-2.114-1.75s-2.114.784-2.114 1.75c0 .037.004.073.007.112v5.594h4.213v-5.602c.004-.035.008-.07.008-.105z" fill="#f5ac8d"/><path fill="#e5e5e5" d="M385.007 380.356l10.27 15.112v27.704h-20.644v-27.704z"/><path fill="#ed724b" d="M372.346 399.413l-2.5-3.186 14.952-19.058 15.616 19.9-2.5 3.186-13.116-16.716z"/><path fill="#fff" d="M378.456 397.04h3.242v7.135h-3.242zm8.398 0h3.242v7.135h-3.242zm0 12.207h3.242v7.135h-3.242z"/><path fill="#936773" d="M377.572 409.06h5.6v13.52h-5.6z"/><path fill="#ed724b" d="M389.266 376.975h3.177v11.472h-3.177z"/><path fill="#e5e5e5" d="M267.194 337.02h31.617v33.028h-31.614z"/><path fill="#fff" d="M271.39 353.794h2.69v3.427h-2.69zm4.075 0h2.69v3.427h-2.69zm4.075 0h2.687v3.427h-2.688zm4.073 0h2.69v3.427h-2.69zm4.074 0h2.69v3.427h-2.69zm4.073 0h2.69v3.427h-2.69z"/><path d="M300.132 348.185v-15.932h-34.2v16.137h.016c-.01.067-.017.135-.017.204 0 .79.648 1.428 1.444 1.428.454 0 .856-.207 1.12-.53.265.323.668.53 1.122.53.452 0 .856-.207 1.12-.53.264.323.668.53 1.12.53.453 0 .857-.207 1.12-.53.265.323.67.53 1.122.53.452 0 .857-.207 1.12-.53.265.323.67.53 1.122.53.452 0 .856-.207 1.12-.53.264.323.67.53 1.12.53.454 0 .857-.207 1.12-.53.265.323.67.53 1.12.53.456 0 .858-.207 1.123-.53.264.323.668.53 1.12.53.454 0 .858-.207 1.122-.53.264.323.668.53 1.12.53.453 0 .857-.207 1.12-.53.265.323.67.53 1.122.53.452 0 .857-.207 1.12-.53.264.323.67.53 1.12.53.454 0 .858-.207 1.122-.53.262.323.666.53 1.12.53.453 0 .856-.207 1.12-.53.265.323.67.53 1.12.53.454 0 .857-.207 1.122-.53.264.323.667.53 1.12.53.453 0 .857-.207 1.122-.53.264.323.667.53 1.12.53.797 0 1.442-.64 1.442-1.428-.003-.142-.026-.28-.064-.41z" fill="#ed724b"/><path fill="#e5e5e5" d="M260.53 292.868h.82v10.57h-.82zm-2.005 1.79h5.016v.512h-5.013zm2.825 8.78l8.52 12.536v54.252h-17.127v-54.252z"/><path fill="#ed724b" d="M250.702 319.248l-2.074-2.643 12.403-15.81 12.957 16.51-2.074 2.644-10.88-13.87z"/><path fill="#936773" d="M258.984 358.52h4.645v11.216h-4.648z"/><g fill="#d8d054"><ellipse cx="364.056" cy="380.404" rx="8" ry="13.192"/><path d="M362.156 389.48h2.287v23.318h-2.287z"/></g><path fill="#e5e5e5" d="M314.316 402.374l9.516 14.002v25.67h-19.13v-25.67z"/><path fill="#ed724b" d="M302.423 420.033l-2.317-2.953 13.854-17.66 14.47 18.442-2.317 2.954-12.153-15.49z"/><path fill="#fff" d="M317.285 420.617h3.003v3.828h-3.003zm-9.16 0h3.003v3.828h-3.003z"/><path fill="#936773" d="M311.674 429.432h5.19v12.53h-5.19z"/><ellipse cx="314.268" cy="413.134" rx="1.639" ry="1.914" fill="#f6a557"/><path d="M294.945 494.794c4.317-6.752 6.704-14.16 6.704-21.93 0-31.496-39.14-57.025-87.416-57.025s-87.413 25.53-87.413 57.02c0 7.773 2.388 15.18 6.705 21.93h161.418z" fill="#98ba66"/><path d="M304.12 494.794c4.318-6.752 6.705-14.16 6.705-21.93 0-31.496-39.136-57.025-87.413-57.025-48.277 0-87.413 25.53-87.413 57.02 0 7.773 2.384 15.18 6.7 21.93h161.42z" fill="#3eb766"/><path fill="#e5e5e5" d="M268.676 411.06h9.908v8.14h-9.908zm-27.006-11.787h28.475v29.747H241.67z"/><path fill="#fff" d="M243.687 414.38h2.422v8.982h-2.425zm3.853 0h2.42v8.982h-2.42zm13.87 0h2.423v8.982h-2.422zm3.854 0h2.422v8.982h-2.422z"/><path d="M271.334 409.33v-14.35H240.53v14.534h.015c-.01.06-.015.12-.015.184 0 .71.582 1.286 1.298 1.286.408 0 .772-.186 1.01-.478.238.292.6.478 1.01.478.407 0 .77-.186 1.01-.478.237.292.6.478 1.008.478.407 0 .77-.186 1.01-.478.238.292.6.478 1.01.478.407 0 .77-.186 1.008-.478.238.292.602.478 1.01.478.408 0 .772-.186 1.01-.478.238.292.6.478 1.01.478.407 0 .77-.186 1.008-.478.238.292.602.478 1.01.478.408 0 .77-.186 1.01-.478.237.292.6.478 1.01.478.407 0 .77-.186 1.008-.478.238.292.602.478 1.01.478.408 0 .77-.186 1.01-.478.237.292.6.478 1.01.478.406 0 .77-.186 1.008-.478.238.292.6.478 1.01.478.408 0 .772-.186 1.01-.478.237.292.6.478 1.01.478.407 0 .77-.186 1.008-.478.238.292.6.478 1.01.478.407 0 .77-.186 1.01-.478.237.292.6.478 1.01.478.407 0 .77-.186 1.008-.478.237.292.602.478 1.01.478.716 0 1.297-.577 1.297-1.286 0-.13-.02-.253-.054-.37z" fill="#ed724b"/><path fill="#936773" d="M251.943 421.163h7.633v7.67h-7.633z"/><path d="M249.086 401.4c0-.873-.857-1.582-1.914-1.582s-1.914.71-1.914 1.583c0 .037.003.07.006.106v5.066h3.816V401.5c.003-.032.006-.064.006-.096zm9.174 0c0-.873-.856-1.582-1.913-1.582-1.058 0-1.915.71-1.915 1.583 0 .037.003.07.006.106v5.066h3.817V401.5c.002-.032.006-.064.006-.096zm8.955 0c0-.873-.857-1.582-1.913-1.582-1.058 0-1.915.71-1.915 1.583 0 .037.003.07.006.106v5.066h3.816V401.5l.003-.096z" fill="#f5ac8d"/><path fill="#ed724b" d="M262.464 392.33h2.062v4.006h-2.062z"/><path fill="#e5e5e5" d="M276.554 418.61h1.982v10.37h-1.982z"/><path d="M441.147 464.384c-14.333-18.723-43.985-31.582-78.246-31.582-34.26 0-63.91 12.86-78.243 31.582H441.15z" fill="#3eb766"/><path d="M233.916 418.68h1.582v10.08h-1.582zm-5.536 0h1.582v10.08h-1.582zm-5.536 0h1.582v10.08h-1.582zm-5.536 0h1.582v10.08h-1.582zm-5.535 0h1.58v10.08h-1.58zm-5.536 0h1.582v10.08h-1.585zm-5.537 0h1.583v10.08H200.7zm-5.535 0h1.582v10.08h-1.582zm-5.535 0h1.582v10.08h-1.582zm-5.536 0h1.582v10.08h-1.582zm-5.536 0h1.582v10.08h-1.582zm-5.536 0h1.582v10.08h-1.582zm-5.536 0h1.582v10.08h-1.582zM167.806 421.503h66.9v2.217h-66.9zm0 3.07h66.9v2.217h-66.9z" fill="#91512b"/><path d="M153.625 494.88c-.186-7.015-3.692-12.608-7.99-12.608-4.3 0-7.806 5.593-7.993 12.608h15.983zm14.682 0c-.187-7.015-3.692-12.608-7.99-12.608-4.3 0-7.806 5.593-7.992 12.608h15.982zm14.683 0c-.187-7.015-3.693-12.608-7.99-12.608-4.3 0-7.807 5.593-7.992 12.608h15.98zm14.68 0c-.185-7.015-3.69-12.608-7.99-12.608-4.3 0-7.805 5.593-7.99 12.608h15.98zm14.683 0c-.187-7.015-3.692-12.608-7.99-12.608-4.3 0-7.806 5.593-7.992 12.608h15.985zm14.682 0c-.187-7.015-3.692-12.608-7.99-12.608-4.3 0-7.806 5.593-7.99 12.608h15.98zm14.682 0c-.186-7.015-3.692-12.608-7.99-12.608-4.3 0-7.806 5.593-7.99 12.608h15.98zm14.683 0c-.187-7.015-3.692-12.608-7.99-12.608-4.3 0-7.807 5.593-7.993 12.608H256.4zm14.682 0c-.186-7.015-3.692-12.608-7.99-12.608-4.3 0-7.806 5.593-7.992 12.608h15.982zm14.682 0c-.186-7.015-3.692-12.608-7.99-12.608-4.3 0-7.806 5.593-7.992 12.608h15.982zm14.682 0c-.187-7.015-3.693-12.608-7.99-12.608-4.3 0-7.807 5.593-7.993 12.608h15.983zm14.682 0c-.187-7.015-3.692-12.608-7.99-12.608-4.3 0-7.807 5.593-7.992 12.608h15.982zm14.682 0c-.186-7.015-3.69-12.608-7.99-12.608-4.3 0-7.806 5.593-7.992 12.608h15.982zm14.682 0c-.187-7.015-3.692-12.608-7.99-12.608-4.3 0-7.806 5.593-7.992 12.608h15.982z" fill="#487f7a"/><path d="M321.36 439.91s38.082-.585 40.836 24.562l-26.182-.023s-6.837-23.946-21.52-22.19l6.867-2.35z" fill="#c8ac79"/><path d="M174.16 439.165c.125.227.08.54-.098.7-.18.157-.425.1-.55-.127l-1.763-3.236c-.128-.228-.08-.54.096-.7.18-.158.425-.102.55.127l1.763 3.233zm.24.25c.015.275-.15.515-.367.532-.218.018-.405-.192-.42-.468l-.198-3.935c-.015-.278.152-.517.368-.534.218-.017.405.193.42.47l.198 3.93zm-.18.375c-.153.2-.403.202-.56.008-.154-.196-.157-.513-.005-.71l2.162-2.816c.152-.2.402-.2.558-.007.155.194.158.512.005.71l-2.16 2.814zm12.707-.625c.124.227.08.54-.1.7-.18.157-.424.1-.548-.127l-1.767-3.236c-.125-.228-.08-.54.1-.7.178-.158.424-.102.548.127l1.765 3.233zm.24.25c.015.275-.15.515-.367.532-.218.018-.406-.192-.42-.468l-.197-3.935c-.015-.278.152-.517.37-.534.216-.017.404.193.418.47l.2 3.93zm-.182.375c-.152.2-.402.202-.558.008-.155-.196-.158-.513-.006-.71l2.165-2.816c.152-.2.402-.2.558-.007.156.194.16.512.006.71l-2.16 2.814zm12.71-.625c.123.227.08.54-.1.7-.18.157-.425.1-.55-.127l-1.763-3.236c-.125-.228-.08-.54.1-.7.178-.158.424-.102.548.127l1.764 3.233zm.24.25c.014.275-.15.515-.368.532-.218.018-.405-.192-.42-.468l-.198-3.935c-.018-.278.15-.517.366-.534.218-.017.406.193.42.47l.197 3.93zm-.183.375c-.152.2-.402.202-.558.008-.155-.196-.158-.513-.006-.71l2.163-2.816c.155-.2.405-.2.56-.007.156.194.16.512.006.71l-2.162 2.814zm12.708-.625c.125.227.08.54-.098.7-.18.157-.425.1-.55-.127l-1.763-3.236c-.128-.228-.08-.54.096-.7.18-.158.425-.102.55.127l1.763 3.233zm.24.25c.015.275-.15.515-.368.532-.218.018-.405-.192-.418-.468l-.2-3.935c-.014-.278.152-.517.37-.534.217-.017.404.193.417.47l.2 3.93zm-.18.375c-.153.2-.403.202-.56.008-.154-.196-.157-.513-.005-.71l2.163-2.816c.152-.2.402-.2.558-.007.155.194.158.512.005.71l-2.16 2.814zm12.707-.625c.124.227.08.54-.1.7-.18.157-.424.1-.55-.127l-1.763-3.236c-.125-.228-.08-.54.1-.7.178-.158.424-.102.548.127l1.765 3.233zm.24.25c.015.275-.15.515-.368.532-.22.018-.408-.192-.42-.468l-.2-3.935c-.014-.278.152-.517.37-.534.216-.017.404.193.417.47l.197 3.93zm-.182.375c-.152.2-.402.202-.558.008-.155-.196-.158-.513-.006-.71l2.165-2.816c.152-.2.402-.2.558-.007.156.194.16.512.006.71l-2.16 2.814zm12.71-.625c.123.227.08.54-.1.7-.18.157-.425.1-.55-.127l-1.763-3.236c-.125-.228-.08-.54.1-.7.178-.158.424-.102.548.127l1.764 3.233zm.24.25c.013.275-.15.515-.37.532-.217.018-.404-.192-.417-.468l-.2-3.935c-.013-.278.153-.517.37-.534.217-.017.405.193.418.47l.198 3.93zm-.183.375c-.153.2-.402.202-.558.008-.155-.196-.158-.513-.006-.71l2.162-2.816c.152-.2.402-.2.558-.007.155.194.158.512.005.71l-2.16 2.814zm12.708-.625c.125.227.08.54-.098.7-.18.157-.425.1-.55-.127l-1.763-3.236c-.128-.228-.08-.54.096-.7.18-.158.424-.102.55.127l1.763 3.233zm.24.25c.016.275-.15.515-.367.532-.218.018-.405-.192-.418-.468l-.2-3.935c-.014-.278.152-.517.37-.534.216-.017.404.193.417.47l.2 3.93zm-.18.375c-.154.2-.403.202-.56.008-.154-.196-.157-.513-.005-.71l2.163-2.816c.152-.2.402-.2.558-.007.155.194.158.512.005.71l-2.16 2.814zM181.743 448.975c.124.227.08.54-.1.7-.178.158-.424.1-.548-.126l-1.764-3.24c-.12-.23-.08-.54.1-.7.18-.157.427-.1.55.127l1.765 3.235zm.24.25c.014.275-.15.515-.37.532-.216.018-.404-.19-.417-.468l-.2-3.935c-.013-.278.152-.516.37-.534.217-.017.405.193.418.47l.2 3.93zm-.183.375c-.152.198-.402.2-.558.007-.156-.195-.16-.513-.006-.71l2.162-2.816c.152-.196.403-.2.558-.004.155.194.158.512.005.71l-2.16 2.815zm12.71-.625c.123.227.08.54-.1.7-.18.158-.425.1-.55-.126l-1.763-3.24c-.125-.23-.08-.54.1-.7.178-.157.424-.1.548.127l1.764 3.235zm.24.25c.014.275-.15.515-.37.532-.217.018-.404-.19-.417-.468l-.2-3.935c-.014-.278.152-.516.37-.534.217-.017.404.193.417.47l.2 3.93zm-.183.375c-.152.198-.402.2-.558.007-.16-.195-.16-.513-.01-.71l2.163-2.816c.152-.196.403-.2.56-.004.154.194.157.512.004.71l-2.163 2.815zm12.71-.625c.123.227.08.54-.1.7-.18.158-.425.1-.55-.126l-1.763-3.24c-.125-.23-.08-.54.1-.7.178-.157.424-.1.548.127l1.764 3.235zm.24.25c.014.275-.15.515-.37.532-.216.018-.404-.19-.417-.468l-.2-3.935c-.014-.278.152-.516.37-.534.216-.017.404.193.417.47l.2 3.93zm-.184.375c-.152.198-.402.2-.557.007-.156-.195-.16-.513-.006-.71l2.162-2.816c.152-.196.403-.2.558-.004.155.194.158.512.005.71l-2.162 2.815zm12.71-.625c.123.227.08.54-.1.7-.18.158-.424.1-.55-.126l-1.762-3.24c-.122-.23-.08-.54.1-.7.18-.157.427-.1.55.127l1.764 3.235zm.24.25c.014.275-.15.515-.37.532-.216.018-.404-.19-.417-.468l-.2-3.935c-.013-.278.152-.516.37-.534.217-.017.405.193.418.47l.2 3.93zm-.183.375c-.152.198-.402.2-.558.007-.156-.195-.16-.513-.006-.71l2.162-2.816c.152-.196.403-.2.558-.004.156.194.158.512.006.71L220.1 449.6zm12.71-.625c.123.227.08.54-.1.7-.18.158-.425.1-.55-.126l-1.763-3.24c-.125-.23-.08-.54.1-.7.178-.157.424-.1.548.127l1.764 3.235zm.24.25c.014.275-.15.515-.37.532-.217.018-.404-.19-.417-.468l-.2-3.935c-.013-.278.153-.516.37-.534.218-.017.405.193.418.47l.2 3.93zm-.183.375c-.152.198-.402.2-.558.007-.16-.195-.16-.513-.01-.71l2.163-2.816c.152-.196.403-.2.558-.004.157.194.16.512.007.71l-2.163 2.815zm12.708-.625c.124.227.08.54-.1.7-.178.158-.423.1-.548-.126l-1.764-3.24c-.125-.23-.08-.54.1-.7.178-.157.424-.1.548.127l1.767 3.235zm.24.25c.016.275-.15.515-.367.532-.218.018-.405-.19-.418-.468l-.2-3.935c-.013-.278.153-.516.37-.534.217-.017.405.193.418.47l.198 3.93zm-.182.375c-.152.198-.4.2-.558.007-.155-.195-.158-.513-.005-.71l2.162-2.816c.152-.196.403-.2.558-.004.156.194.158.512.006.71l-2.163 2.815zm12.71-.625c.123.227.08.54-.1.7-.18.158-.424.1-.55-.126l-1.763-3.24c-.125-.23-.08-.54.1-.7.178-.157.424-.1.548.127l1.764 3.235zm.24.25c.015.275-.15.515-.368.532-.218.018-.405-.19-.418-.468l-.2-3.935c-.013-.278.153-.516.37-.534.217-.017.405.193.418.47l.198 3.93zm-.183.375c-.152.198-.402.2-.558.007-.155-.195-.158-.513-.005-.71L260 446.08c.15-.198.402-.2.557-.006.156.194.158.512.006.71L258.4 449.6zM192.547 460.307c.124.228.08.54-.1.7-.178.16-.423.102-.548-.125l-1.767-3.236c-.125-.228-.08-.542.1-.7.178-.158.424-.103.548.126l1.765 3.235zm.24.25c.016.276-.15.515-.367.534-.218.02-.405-.19-.418-.47l-.2-3.93c-.013-.276.153-.513.37-.532.217-.018.404.192.418.47l.198 3.93zm-.182.375c-.152.2-.402.202-.558.008-.155-.195-.158-.513-.006-.71l2.166-2.815c.152-.2.402-.2.558-.008.155.195.158.513.005.71l-2.163 2.815zm12.71-.625c.123.228.08.54-.1.7-.18.16-.425.102-.55-.125l-1.763-3.236c-.125-.228-.08-.542.1-.7.178-.158.423-.103.548.126l1.764 3.235zm.24.25c.014.276-.15.515-.368.534-.218.02-.406-.19-.42-.47l-.198-3.93c-.018-.276.15-.513.365-.532.217-.018.405.192.42.47l.198 3.93zm-.183.375c-.152.2-.402.202-.558.008-.155-.195-.158-.513-.006-.71l2.162-2.815c.153-.2.402-.2.56-.008.154.195.157.513.004.71l-2.162 2.815zm12.708-.625c.125.228.08.54-.1.7-.178.16-.423.102-.548-.125l-1.764-3.236c-.125-.228-.08-.542.1-.7.178-.158.424-.103.548.126l1.765 3.235zm.24.25c.016.276-.15.515-.367.534-.218.02-.405-.19-.42-.47l-.198-3.93c-.015-.276.152-.513.37-.532.217-.018.405.192.418.47l.198 3.93zm-.182.375c-.152.2-.402.202-.558.008-.155-.195-.158-.513-.006-.71l2.162-2.815c.153-.2.402-.2.558-.008.155.195.158.513.005.71l-2.164 2.815zm12.71-.625c.123.228.08.54-.1.7-.18.16-.424.102-.55-.125l-1.765-3.236c-.124-.228-.08-.542.1-.7.178-.158.424-.103.548.126l1.765 3.235zm.24.25c.015.276-.15.515-.368.534-.218.02-.405-.19-.42-.47l-.198-3.93c-.015-.276.152-.513.37-.532.217-.018.404.192.418.47l.198 3.93zm-.183.375c-.152.2-.402.202-.558.008-.155-.195-.16-.513-.006-.71l2.166-2.815c.152-.2.402-.2.558-.008.155.195.158.513.005.71l-2.163 2.815zm12.71-.625c.123.228.08.54-.1.7-.18.16-.425.102-.55-.125l-1.763-3.236c-.124-.228-.08-.542.1-.7.18-.158.424-.103.55.126l1.762 3.235zm.24.25c.014.276-.15.515-.37.534-.217.02-.405-.19-.42-.47l-.197-3.93c-.014-.276.152-.513.37-.532.216-.018.404.192.418.47l.198 3.93zm-.183.375c-.152.2-.402.202-.558.008-.156-.195-.16-.513-.006-.71l2.162-2.815c.153-.2.402-.2.56-.008.154.195.157.513.004.71l-2.162 2.815zm12.708-.625c.125.228.08.54-.1.7-.178.16-.423.102-.548-.125l-1.764-3.236c-.124-.228-.08-.542.1-.7.178-.158.424-.103.548.126l1.765 3.235zm.24.25c.016.276-.15.515-.367.534-.218.02-.405-.19-.42-.47l-.198-3.93c-.015-.276.15-.513.368-.532.218-.018.406.192.42.47l.198 3.93zm-.182.375c-.152.2-.402.202-.558.008-.156-.195-.16-.513-.006-.71l2.162-2.815c.153-.2.402-.2.558-.008.155.195.158.513.005.71l-2.164 2.815zm12.71-.625c.124.228.08.54-.1.7-.178.16-.423.102-.548-.125l-1.764-3.236c-.124-.228-.08-.542.1-.7.178-.158.424-.103.548.126l1.764 3.235zm.24.25c.015.276-.15.515-.368.534-.218.02-.405-.19-.418-.47l-.2-3.93c-.014-.276.152-.513.37-.532.218-.018.405.192.418.47l.198 3.93zm-.183.375c-.153.2-.402.202-.558.008-.156-.195-.16-.513-.006-.71l2.166-2.815c.152-.2.402-.2.558-.008.155.195.158.513.005.71l-2.163 2.815zM200.844 470.87c.124.227.08.54-.1.698-.178.16-.424.102-.548-.125l-1.764-3.235c-.124-.228-.08-.54.1-.7.178-.158.424-.102.548.126l1.764 3.235zm.24.248c.014.277-.15.516-.37.534-.216.018-.404-.192-.417-.47l-.2-3.93c-.013-.278.152-.517.37-.535.217-.018.405.193.418.47l.2 3.93zm-.184.375c-.15.2-.4.202-.557.008-.156-.192-.16-.51-.006-.706l2.162-2.816c.15-.2.4-.2.555-.007.155.194.158.51.005.71l-2.16 2.814zm12.71-.623c.124.227.08.54-.1.698-.178.16-.424.102-.548-.125l-1.764-3.235c-.125-.228-.08-.54.1-.7.178-.158.424-.102.548.126l1.764 3.235zm.24.248c.015.277-.15.516-.367.534-.218.018-.405-.192-.418-.47l-.2-3.93c-.014-.278.152-.517.37-.535.217-.018.404.193.417.47l.2 3.93zm-.182.375c-.152.2-.402.202-.558.008-.156-.192-.16-.51-.006-.706l2.162-2.816c.152-.2.403-.2.56-.007.154.194.157.51.004.71l-2.162 2.814zm12.71-.623c.123.227.08.54-.1.698-.18.16-.425.102-.55-.125l-1.765-3.235c-.125-.228-.08-.54.1-.7.177-.158.424-.102.548.126l1.765 3.235zm.24.248c.014.277-.15.516-.37.534-.216.018-.404-.192-.417-.47l-.196-3.93c-.015-.278.15-.517.37-.535.217-.018.404.193.417.47l.2 3.93zm-.183.375c-.152.2-.402.202-.557.008-.156-.192-.16-.51-.006-.706l2.162-2.816c.152-.2.403-.2.56-.007.154.194.157.51.004.71l-2.163 2.814zm12.708-.623c.124.227.08.54-.098.698-.18.16-.425.102-.55-.125l-1.763-3.235c-.125-.228-.08-.54.1-.7.178-.158.424-.102.548.126l1.763 3.235zm.242.248c.014.277-.15.516-.37.534-.217.018-.404-.192-.417-.47l-.2-3.93c-.013-.278.152-.517.37-.535.217-.018.405.193.418.47l.2 3.93zm-.185.375c-.15.2-.4.202-.557.008-.156-.192-.16-.51-.006-.706l2.162-2.816c.15-.2.4-.2.555-.007.156.194.158.51.006.71l-2.16 2.814zm12.71-.623c.124.227.08.54-.1.698-.178.16-.424.102-.548-.125l-1.764-3.235c-.125-.228-.08-.54.1-.7.178-.158.424-.102.548.126l1.764 3.235zm.24.248c.015.277-.15.516-.368.534-.218.018-.405-.192-.418-.47l-.2-3.93c-.013-.278.153-.517.37-.535.218-.018.405.193.418.47l.2 3.93zm-.182.375c-.152.2-.402.202-.558.008-.156-.192-.16-.51-.006-.706l2.162-2.816c.152-.2.403-.2.558-.007.156.194.158.51.006.71l-2.162 2.814zm12.71-.623c.123.227.08.54-.1.698-.18.16-.424.102-.55-.125l-1.765-3.235c-.125-.228-.08-.54.1-.7.177-.158.424-.102.548.126l1.765 3.235zm.24.248c.014.277-.15.516-.37.534-.217.018-.404-.192-.417-.47l-.2-3.93c-.01-.278.155-.517.37-.535.22-.018.407.193.42.47l.2 3.93zm-.183.375c-.152.2-.402.202-.558.008-.155-.192-.158-.51-.005-.706l2.162-2.816c.152-.2.403-.2.558-.007.156.194.158.51.006.71l-2.163 2.814zm12.708-.623c.124.227.08.54-.1.698-.178.16-.424.102-.548-.125l-1.764-3.235c-.122-.228-.08-.54.1-.7.18-.158.427-.102.55.126l1.765 3.235zm.24.248c.016.277-.15.516-.367.534-.218.018-.405-.192-.418-.47l-.2-3.93c-.013-.278.153-.517.37-.535.217-.018.405.193.418.47l.198 3.93zm-.183.375c-.15.2-.4.202-.557.008-.155-.192-.158-.51-.005-.706l2.162-2.816c.152-.2.403-.2.558-.007.156.194.158.51.006.71l-2.163 2.814z" fill="#446831"/><path d="M320.062 365.246c0 4.31 2.746 7.802 6.13 7.802 3.387 0 6.13-3.493 6.13-7.802 0-4.312-2.743-7.805-6.13-7.805-3.384 0-6.13 3.495-6.13 7.808zm5.783 1.868h1.182v14.31h-1.182z" fill="#046937"/><ellipse cx="334.429" cy="361.886" rx="4.142" ry="11.741" fill="#d8d054"/><path fill="#d8d054" d="M334.118 367.114h1.182v14.31h-1.182z"/><path d="M303.547 358.228c0 4.31 2.745 7.803 6.13 7.803 3.386 0 6.13-3.49 6.13-7.8 0-4.312-2.744-7.805-6.13-7.805-3.385 0-6.13 3.492-6.13 7.805zm5.783 1.868h1.182v14.31h-1.183z" fill="#046937"/><ellipse cx="317.912" cy="354.869" rx="4.142" ry="11.741" fill="#d8d054"/><path fill="#d8d054" d="M317.602 360.096h1.18v14.31h-1.18z"/><path fill="#fff" d="M386.21 345.75l-13-1.774-5.11 7.694-8.125-11.246-11.842 1.776 15.72-26.018zm70.44 31.47l-13.115-1.792-5.153 7.76-8.195-11.343-11.945 1.79 15.857-26.242zm62.097-86.785c0 4.105-2.61 7.433-5.83 7.433H422.59c-3.22 0-5.83-3.328-5.83-7.433v-1.71c0-4.106 2.61-7.433 5.83-7.433h90.325c3.22 0 5.83 3.327 5.83 7.432v1.71zm-12.32-9.58c0 4.097-2.605 7.416-5.818 7.416h-67.08c-3.216 0-5.82-3.316-5.82-7.412s2.603-7.416 5.82-7.416h67.08c3.21 0 5.815 3.32 5.815 7.417zM201.83 320.1c0 4.105-2.61 7.432-5.832 7.432h-93.063c-3.22 0-5.832-3.327-5.832-7.432v-.84c0-4.103 2.61-7.43 5.832-7.43h93.063c3.22 0 5.832 3.327 5.832 7.43v.84zm-6.845-13.088c0 4.106-2.61 7.434-5.832 7.434h-66.368c-3.22 0-5.832-3.328-5.832-7.433v-1.71c0-4.103 2.61-7.43 5.832-7.43h66.368c3.22 0 5.832 3.327 5.832 7.43v1.71zm172.49-23.974c0 2.89-1.837 5.234-4.106 5.234h-27.38c-2.27 0-4.11-2.343-4.11-5.234 0-2.892 1.84-5.235 4.108-5.235h27.38c2.267.004 4.105 2.347 4.105 5.238zm-58.713 228.376c1.208-1.66 2.928-2.703 4.845-2.703 1.916 0 3.634 1.043 4.843 2.7h.12c1.21-1.656 2.928-2.703 4.844-2.703 1.916 0 3.634 1.045 4.844 2.702h.12c1.21-1.657 2.928-2.704 4.844-2.704 1.916 0 3.634 1.045 4.844 2.702h.12c1.21-1.657 2.928-2.704 4.844-2.704 1.916 0 3.634 1.045 4.843 2.702h.12c1.21-1.656 2.928-2.703 4.844-2.703 1.916 0 3.634 1.045 4.844 2.702h.12c1.21-1.656 2.93-2.703 4.847-2.703s3.634 1.045 4.843 2.702h.12c1.21-1.656 2.927-2.703 4.843-2.703s3.634 1.046 4.844 2.703h.12c1.21-1.656 2.928-2.703 4.844-2.703 1.918 0 3.636 1.045 4.845 2.702h.12c1.21-1.656 2.928-2.703 4.844-2.703 1.916 0 3.633 1.045 4.843 2.702h.12c1.21-1.656 2.93-2.703 4.845-2.703 1.916 0 3.634 1.044 4.844 2.7h.12c1.21-1.655 2.928-2.702 4.844-2.702s3.634 1.044 4.843 2.7h.12c1.21-1.655 2.927-2.702 4.843-2.702 1.917 0 3.635 1.045 4.845 2.702h.12c1.21-1.656 2.928-2.703 4.844-2.703 1.916 0 3.636 1.043 4.844 2.702h1.332c-.958-3.16-3.36-5.407-6.177-5.407-1.947 0-3.69 1.077-4.904 2.78-1.213-1.703-2.957-2.78-4.904-2.78s-3.69 1.077-4.903 2.78c-1.213-1.703-2.958-2.78-4.904-2.78-1.947 0-3.69 1.077-4.904 2.78-1.214-1.703-2.958-2.78-4.905-2.78s-3.69 1.077-4.904 2.78c-1.21-1.703-2.955-2.78-4.902-2.78-1.945 0-3.69 1.077-4.902 2.78-1.213-1.703-2.957-2.78-4.904-2.78s-3.69 1.077-4.903 2.78c-1.212-1.703-2.956-2.78-4.903-2.78s-3.69 1.077-4.903 2.78c-1.214-1.703-2.958-2.78-4.905-2.78s-3.69 1.077-4.905 2.78c-1.21-1.703-2.955-2.78-4.902-2.78s-3.69 1.077-4.904 2.78c-1.213-1.703-2.958-2.78-4.904-2.78-1.946 0-3.69 1.077-4.903 2.78-1.213-1.703-2.957-2.78-4.904-2.78s-3.69 1.077-4.905 2.78c-1.214-1.703-2.958-2.78-4.905-2.78-1.946 0-3.69 1.077-4.903 2.78-1.212-1.703-2.956-2.78-4.903-2.78-2.82 0-5.22 2.245-6.178 5.406h1.332z"/></g></svg>