<svg xmlns="http://www.w3.org/2000/svg" width="800" height="800" viewBox="0 0 800 800"><title>Ser reconocido</title><defs><filter id="a" x="-1.037" width="3.074" y="-1.117" height="3.233" color-interpolation-filters="sRGB"><feGaussianBlur stdDeviation="307.525"/></filter><radialGradient gradientUnits="userSpaceOnUse" gradientTransform="matrix(-1 0 0 1 841.57 0)" r="52.895" cy="436.916" cx="487.579" id="b"><stop offset="0" stop-color="#fff"/><stop offset=".734" stop-color="#ddd"/><stop offset="1" stop-color="#CFCFCF"/></radialGradient><radialGradient gradientUnits="userSpaceOnUse" r="46.437" cy="431.478" cx="172.726" id="c"><stop offset="0" stop-color="#fff"/><stop offset=".734" stop-color="#ddd"/><stop offset="1" stop-color="#CFCFCF"/></radialGradient></defs><rect width="711.864" height="661.017" x="57.627" y="54.237" rx="1.542" ry="1.143" fill="#efe2c2" fill-opacity="0" filter="url(#a)"/><g transform="translate(120.816 -19.033)"><ellipse ry="8.311" rx="47.365" cy="553.34" cx="390.9" fill="#c9cccc"/><path d="M378.252 552.826l-.002 2.4 8.872.002v-3.35c-.812.324-6.975.757-8.203.832-.165.013-.394.052-.67.116zm-6.946-4.11c.16-.16.16-.42 0-.58l-.987-.987-.667.494 1.07 1.07c.16.16.42.16.58 0zm1.21-1.206c.157-.16.157-.422 0-.582l-.83-.828-.653.506.9.902c.163.16.42.16.582.002zm1.21-1.208c.158-.162.158-.42 0-.582l-.69-.69c-.207.168-.422.34-.646.515l.752.754c.162.16.42.16.584 0z" fill="#0d1514"/><path d="M386.67 543.023v-3.276l-11.36 1.738v1.7s-.965.8-2.274 1.846l.69.69c.158.16.158.42 0 .584-.163.158-.422.158-.583-.002l-.752-.753-.7.553.828.83c.158.16.158.42 0 .58-.16.16-.42.16-.58 0l-.902-.903c-.238.182-.476.364-.714.543l.988.985c.16.163.16.422 0 .582-.16.16-.42.16-.582 0l-1.07-1.07c-.55.406-1.086.79-1.574 1.12-2.79 1.887-10.92.897-14.37 2.21-3.448 1.313-2.877 5.254-1.644 5.336 1.232.084 17.33.007 18.643-.732 1.15-.647 5.583-2.3 7.545-2.754.276-.064.505-.103.667-.115 1.23-.074 7.392-.507 8.204-.83.056-.026.09-.046.09-.07 0-5.017-.23-5.797-.545-8.786z" fill="#393638"/><path d="M420.152 549.39l.278 2.788 10.307-1.026-.388-3.893c-.91.47-8.02 1.69-9.44 1.92-.185.03-.446.102-.76.21zm-8.55-3.97c.17-.202.138-.503-.065-.672l-1.262-1.034c-.24.224-.48.44-.715.654l1.367 1.12c.206.17.508.138.676-.067zm1.266-1.542c.166-.204.137-.51-.066-.677l-1.06-.862-.702.663 1.153.944c.205.17.508.14.675-.065zm1.266-1.544c.166-.206.137-.507-.068-.674l-.88-.722c-.22.22-.452.443-.69.675l.96.787c.206.167.51.14.678-.066z" fill="#0d1514"/><path d="M428.795 537.022l-.177-1.782-13.2 1.313.197 1.974s-1.028 1.044-2.428 2.41l.88.723c.204.167.233.468.067.674-.17.205-.47.234-.678.067l-.96-.784-.752.724 1.06.864c.202.167.23.473.065.677-.17.206-.474.236-.677.068L411.04 543c-.252.24-.507.478-.764.713l1.262 1.034c.203.17.235.47.066.673-.168.205-.47.236-.676.068l-1.367-1.12c-.593.538-1.17 1.046-1.695 1.485-3.026 2.516-12.586 2.31-16.442 4.237-3.855 1.924-2.734 6.438-1.29 6.39 1.44-.046 20.134-2.003 21.576-3.013 1.26-.888 6.22-3.323 8.446-4.077.315-.105.575-.18.762-.21 1.42-.23 8.53-1.45 9.436-1.92.065-.034.103-.066.1-.088-.582-5.834-.943-6.712-1.655-10.15z" fill="#393638"/><path d="M355.566 464.766c16.164 11.803 34.855 8.506 35.898 8.475 15.296-.455 25.37-10.3 31.24-18.76-.26 2.368-.93 4.675-1.958 6.874-.942 1.49-2.397 2.807-2.75 4.552-2.26 11.172-3.934 20.122-3.34 29.26 1.473 22.71 14.63 40.633 14.63 40.633h-.004c.055.103.096.212.114.325.192 1.356-5.714 4.073-9.138 4.602-3.212.496-8.418-1.442-8.908-2.632 0 0-18.133-14.36-26.367-41.338-1.695-5.562-2.488-11.478-2.633-17.174 0 0-.074-1.356-1.8-1.89-1.47 3.07-2.77 6.588-3.7 10.654-6.568 28.736 11.093 51.145 11.093 51.145.34.717-6.895 2.42-10.32 2.42-3.424 0-5.884-.72-6.203-1.45h-.007s-18.76-29.655-17.852-61.113c.144-4.897.887-9.83 2.008-14.58z" fill="#191918"/><path d="M417.323 534.955c3.488-.452 7.052-3.33 9.75-4.91l3.257 6.175s-5.398 4.667-11.602 5.202c-6.35.547-9.835-2.62-9.835-2.62s-.526-1.277-2.076-5.012c2.207 1.37 6.61 1.67 10.506 1.165z" fill="#0d0d0d"/><path d="M404.088 485.4c.223 0 .405-.182.405-.405 0-.225-.18-.406-.405-.406-5.746 0-10.423-4.68-10.423-10.426 0-.224-.18-.404-.405-.404-.224 0-.405.18-.405.405 0 6.195 5.04 11.233 11.233 11.233zm-42.908-15.258c-.048-.177-.214-.284-.37-.24-.157.04-.246.218-.198.394 1.226 4.52-1.04 9.08-5.05 10.168-.158.043-.245.22-.198.395.048.172.21.28.37.24 4.322-1.174 6.764-6.09 5.445-10.96z" fill="#393638"/><path d="M371.874 482.933c0-1.79 1.048-3.376 2.66-4.382-.758 2.07-1.43 4.33-1.998 6.755-.42-.72-.662-1.522-.662-2.37z" fill="#191918"/><path d="M372.536 485.302c.567-2.425 1.24-4.685 2-6.752 1.132-.704 2.54-1.13 4.07-1.13.577 0 1.13.068 1.663.177.11.062.21.088.28.09-1.46 3.054-2.648 6.55-3.575 10.586-.007.023-.01.045-.017.07-6.57 28.735 10.983 51.145 10.983 51.145.34.717-2.83 1.45-6.253 1.45-.358 0-.7-.01-1.035-.026-5.98-5.755-10.21-19.863-10.21-36.367-.003-6.994.757-13.56 2.09-19.243z" fill="#0e0e0e"/><path d="M422.496 454.478c-.26 2.368-.927 4.675-1.956 6.874-.942 1.49-2.398 2.807-2.75 4.552-2.26 11.172-3.932 20.122-3.34 29.26 1.473 22.71 14.632 40.633 14.632 40.633h-.006c.053.104.097.213.114.326.102.722-1.52 1.825-3.576 2.782-6.178-7.374-12.013-22.83-14.892-41.21-1.75-11.175-2.123-21.646-1.335-30.147 5.663-3.664 9.985-8.562 13.11-13.07z" opacity=".5" fill="#080808"/><path d="M378.226 538.092c2.978-.452 5.1-2.665 7.4-4.243l2.877 5.384s-3.78 4.79-9.075 5.324c-5.422.545-8.395-2.62-8.395-2.62s-.448-1.28-1.77-5.013c1.88 1.37 5.637 1.67 8.963 1.164z" fill="#0d0d0d"/><path d="M355.566 464.766c16.164 11.803 34.855 8.506 35.898 8.475 15.296-.455 25.37-10.3 31.24-18.76-.26 2.368-.93 4.675-1.958 6.874-.445.705-1.004 1.372-1.51 2.062-7.657 7.203-22.51 12.087-39.58 12.087-9.413 0-18.148-1.485-25.38-4.025.336-2.26.77-4.504 1.29-6.71z" opacity=".5" fill="#080808"/><path d="M278.204 330.423l2.333-4.64 53.64 58.442c.01.314.02 1.443-.073 3.29-30.716-22.074-49.826-48.122-55.9-57.092zm112.713 64.353l.293.13-.31-.17.017.04zm-56.704-10.612l.04.04c1.246 1.537 2.5 2.827 3.76 3.892v.006c-1.27-1.073-2.54-2.38-3.8-3.938z" fill="#0d0d0d"/><radialGradient gradientUnits="userSpaceOnUse" gradientTransform="matrix(-1 0 0 1 841.57 0)" r="52.895" cy="436.916" cx="487.579"><stop offset="0" stop-color="#fff"/><stop offset=".734" stop-color="#ddd"/><stop offset="1" stop-color="#CFCFCF"/></radialGradient><path d="M367.706 387.188c1.903-.8 3.693-1.698 5.37-2.673-1.32 2.258-2.1 3.894-2.1 3.894.115 12.566 15.48 65.05 28.862 83.566-4.147 1.265-7.776 1.16-11.107 1.422-15.38 1.204-24.875-3.075-33.162-8.635-2.258-3.7-5.208-11.192-7.02-15.45-9.543-22.444-16.07-46.842-11.348-61.93 9.93 9.19 20.125 4.166 30.507-.198z" fill="url(#b)"/><path d="M255.698 291.48c4.953-2.236 6.318 3.318 7.614 6.65 1.295 3.33 3.336 3.054 4.954 13.987.158 1.058.258 2.127.315 3.2-.46.756-.94 1.61-1.422 2.607-4.957 10.215-5.042 3.35-4.28.26.766-3.085-1.717-6.485-1.235-11.87.48-5.39-1.174-6.814-3.882-5.613-1.046.467-1.42 2.64-1.683 4.72-1.384-4.64-4.114-12.25-.376-13.94z" fill="#f2d1b0"/><path d="M254.52 292.783c4.95-2.235 6.315 3.318 7.61 6.65 1.298 3.33 3.34 3.056 4.955 13.99.156 1.055.255 2.124.314 3.196-.465.756-.945 1.61-1.428 2.606-4.955 10.217-5.04 3.35-4.277.262.764-3.088-1.718-6.487-1.238-11.874.48-5.388-1.174-6.812-3.883-5.612-1.05.464-1.423 2.637-1.685 4.716-1.385-4.64-4.11-12.25-.374-13.937z" fill="#f8d6b0"/><path d="M269.032 323.52c-2.745-6.986-4.384-10.503-5.475-14.836 1.07 2.38 4.44 11.518 3.286 2.565-.112-.87 1.873 1.526.833-2.56 3.98 9.6 2.426 10.726 5.02 17.1.997 2.45 3.504 4.59 5.655 6.02-4.035-.086-6.953-2.27-9.316-8.29z" fill="#ffddad"/><path d="M255.74 310.313c.154.48.282.98.405 1.478-.38-1.053-.703-2.07-.988-3.02.227.565.43 1.077.582 1.545z" fill="none"/><path d="M256.005 326.74c.187-.87.337-1.738.47-2.604 1.59.905 3.433 1.723 5.255 2.735 3.768 2.1 6.56 2.264.61-4.24-3.053-3.332-4.93-7.303-6.196-10.84-.123-.496-.25-.995-.406-1.475-.152-.467-.355-.98-.582-1.545-.873-2.91-1.347-4.457-1.934-5.98-.735-2.288-.89-4.75-.17-5.48 1.965-1.99 5.98-.1 7.68 4.177 2.188 5.503 1.75 4.817 2.825 7.198 1.09 4.333 2.73 7.85 5.475 14.837 2.364 6.022 5.282 8.206 9.32 8.292 1.524 1.013 2.87 1.672 3.372 1.822l-8.394 12.648s-4.06-1.294-6.956-1.672c-2.895-.38-10.128-2.914-10.724-6.225-.85-4.734-.9-5.836.355-11.644z" fill="#ffddad"/><path d="M256.144 311.79c1.265 3.535 3.143 7.506 6.195 10.84 5.95 6.502 3.156 6.34-.61 4.24-1.824-1.012-3.666-1.83-5.258-2.734.66-4.344.596-8.6-.33-12.345zm-2.194-6.935c3.104 5.728 4.5 14.963 8.572 19.432 7.38 8.103 2.593 8.134-2.833 1.766-1.355-1.587-2.11-3.448-3.7-4.354.657-4.346-1.113-13.1-2.04-16.847z" fill="#f8d6b0"/><path d="M252.443 316.552c.51-4.684 2.196-6.505 4.323-5.618 1.97.822 1.996 3.545 2.877 9.314.597 3.894 2.675 7.18 5.818 9.603.66.51 1.344.988 2.034 1.43 1.39 1.387 2.167 3.28 1.963 5.287-.38 3.7-3.937 6.37-7.95 5.958-1.427-.146-2.713-.665-3.768-1.436-.465-.38-.887-.776-1.274-1.184-1.95-2.048-2.977-4.315-3.402-5.7-.794-2.592-.784-4.004.096-7.213.65-2.367-1.11-6.824-.716-10.438z" fill="#ffddad"/><path d="M330.414 411.024c.982-4.013 2.31-11.226 2.342-11.41l-64.176-50.036 11.958-23.796 53.675 58.38c1.262 1.56 2.53 2.866 3.8 3.94.342 2.172.85 5.98 1.205 10.706l-.384 24.377v.003c-.972 7.592-.82 45.857-.82 45.857-7.82 5.643-13.41-10.718-13.204-14.57 0 .003 5.47-42.894 5.604-43.45z" fill="#0d0d0d"/><path d="M377.417 473.38l1.025-.016c-15.592 0-28.777-36.696-28.777-80.826h-.81c0 44.575 12.524 80.843 28.562 80.843z" fill="#9b9693"/><g fill="#fff"><ellipse ry="1.587" rx=".807" cy="463.983" cx="361.535" transform="matrix(-.824 .567 -.567 -.824 922.393 641.261)"/><ellipse ry="1.587" rx=".806" cy="455.546" cx="357.327" transform="matrix(-.909 .417 -.417 -.909 872.13 720.466)"/><ellipse ry="1.587" rx=".806" cy="447.853" cx="354.469" transform="matrix(-.965 .262 -.262 -.965 813.884 787.203)"/><ellipse ry="1.587" rx=".807" cy="438.939" cx="351.652" transform="matrix(-.965 .262 -.262 -.965 805.935 770.531)"/><ellipse ry="1.586" rx=".806" cy="428.314" cx="349.889" transform="matrix(-.974 .229 -.229 -.974 788.431 765.295)"/><ellipse ry="1.587" rx=".806" cy="418.906" cx="348.161" transform="matrix(-1 .021 -.021 -1 704.895 830.534)"/><ellipse ry="1.588" rx=".806" cy="409.72" cx="347.173" transform="matrix(-1 .021 -.021 -1 702.883 812.051)"/><ellipse ry="1.588" rx=".806" cy="400.811" cx="347.051" transform="matrix(-1 .021 -.021 -1 702.43 794.255)"/></g><path fill="#f26122" d="M343.644 400.955h10.424l5.13-9.51h-20.684zm10.424 0h-10.424l-2.178 45.367 7.39 14.383 8.88-14.383z"/><path d="M474.537 371.727c-30.037 14.217-60.15 12.01-76.694 8.72-6.14-1.664-8.445-2.717-14.26-4.493-.087-.026-.178-.043-.27-.066-3.627 4.546-8.942 8.497-15.61 11.3-2.16.908-4.313 1.842-6.456 2.674-.667 14.143 12.362 83.668 30.342 83.38 27.355-.436 35.683-26.936 35.683-26.936s-3.607-8.28-22.783-32.074c-10.467-12.99-13.39-19.062-13.575-19.456l-.016-.04s.11.058.31.17c17.88 8.036 31.15 10.097 45.7 10.916.534.03 1.072.06 1.61.086 18.124.91 43.85-6.34 43.85-6.34-.655-9.37-7.835-27.84-7.835-27.84z" fill="#0d0d0d"/><path d="M367.706 387.188c2.993-1.258 5.71-2.75 8.13-4.42l6.143 9.325-6.447 8.76 9.447 12.418-.042.068-15.39 24.055-12.84-45.97c3.638-1.048 7.305-2.68 10.996-4.232zm2.492 52.43l-.65-2.226 14.158-22.09 1.073 1.41-.047.066z" fill="#191918"/><path fill="#0d0d0d" d="M381.98 395.18l-5.29 7.19-1.155-1.517 5.37-7.302z"/><path d="M366.603 399.46l-13.633-2.293-1.81-4.006c4.734-.364 9.52-2.323 14.35-4.37l1.093 10.67zm-20.223-6.532l-1.472 3.256-10.347-.784.934-9.078c3.595 3.948 7.225 5.92 10.887 6.606z" fill="#cfcfce"/><path d="M391.044 395.038c.69 1.365 4 7.467 13.45 19.194 19.175 23.794 22.782 32.074 22.782 32.074s-.617 1.947-2.05 4.784c-5.545-6.094-12.07-14.82-18.41-24.94-7.396-11.814-12.975-23.027-15.772-31.112zm-58.386 5.15v-.007l.004.005z" fill="#0d0d0d"/><path fill="#191918" d="M338.833 423.19v-.003zm-6.17-23.007h-.004l-4.36-9.347 5.564-7.098c.115.146.23.284.347.426 1.263 1.56 2.53 2.865 3.8 3.94.343 2.17.85 5.98 1.206 10.705l-.384 24.374v.003l-8.42-12.167-1.087-1.572 3.33-9.264.005-.003z"/><path d="M330.085 413.42c.037-.136.194-1.84.33-2.396 0-.006.004-.015.006-.023l.128.185 8.287 11.977v.03c-.103.792-.22 1.582-.346 2.37l-7.94-11.475-.463-.665zM332.654 400.168l.005.013h-.01zm-.468-.998l-2.134-1.665-2.33-4.976.85-1.086z" fill="#0d0d0d"/><path d="M356.885 392.173l11.95 42.778c.204.754.413 1.504.626 2.248l.05.18.004-.002c5.413 18.944 13.117 35.995 22.038 35.853.053 0 .103-.005.154-.006-1.02.056-2.01.104-2.973.18-1.337.104-2.615.152-3.87.176-7.094-4.26-13.215-18.76-17.74-34.588v.002l-.05-.177c-.21-.747-.42-1.495-.626-2.246l-12.164-43.55c.865-.25 1.734-.54 2.605-.85zM366.603 398.787l-13.633-2.294-1.81-4.006c4.734-.368 9.52-2.328 14.35-4.37l1.093 10.67zm-20.223-6.533l-1.472 3.258-10.347-.786.934-9.08c3.595 3.95 7.225 5.922 10.887 6.608z" fill="#cfcfce"/><path fill="#fee1c5" d="M270.625 345.505l-1.67-.412 5.838-16.22 2.932 2.507z"/><path d="M526.596 368.68h-85.08c-3.48 0-6.306 2.825-6.306 6.307v59.87c0 3.482 2.825 6.304 6.307 6.304h85.08c3.484 0 6.306-2.82 6.306-6.302v-59.87c0-3.48-2.823-6.305-6.307-6.305zm2.378 63.77c0 3.202-2.598 5.797-5.8 5.797h-78.236c-3.202 0-5.798-2.595-5.798-5.798V377.39c0-3.202 2.596-5.797 5.798-5.797h78.236c3.202 0 5.8 2.596 5.8 5.797v55.055z" fill="#d0cccc"/><path d="M523.174 371.597h-78.236c-3.202 0-5.798 2.596-5.798 5.797v55.055c0 3.2 2.596 5.795 5.798 5.795h78.236c3.202 0 5.8-2.595 5.8-5.798V377.39c0-3.2-2.598-5.796-5.8-5.796z" fill="#e8e8e8"/><path d="M453.958 374.953h.2v59.94h-.2zm2.607 0h.202v59.94h-.202zm2.61 0h.2v59.94h-.2zm2.61 0h.2v59.94h-.2zm2.607 0h.2v59.94h-.2zm2.608 0h.2v59.94h-.2zm2.61 0h.2v59.94h-.2zm2.61 0h.2v59.94h-.2zm2.605 0h.2v59.94h-.2zm2.61 0h.2v59.94h-.2zm2.61 0h.2v59.94h-.2zm2.605 0h.203v59.94h-.202zm2.61 0h.2v59.94h-.2zm2.61 0h.2v59.94h-.2zm2.608 0h.2v59.94h-.2zm2.61 0h.2v59.94h-.2zm2.607 0h.2v59.94h-.2zm2.61 0h.2v59.94h-.2zm2.608 0h.2v59.94h-.2zm2.61 0h.2v59.94h-.2zm2.607 0h.2v59.94h-.2zm2.61 0h.2v59.94h-.2zm2.606 0h.202v59.94h-.202zm2.61 0h.2v59.94h-.2zm-59.87-.13h59.94v.2h-59.94zm0 2.607h59.94v.202h-59.94zm0 2.61h59.94v.2h-59.94zm0 2.608h59.94v.2h-59.94zm0 2.61h59.94v.2h-59.94zm0 2.608h59.94v.2h-59.94zm0 2.61h59.94v.2h-59.94zm0 2.608h59.94v.2h-59.94zm0 2.606h59.94v.202h-59.94zm0 2.61h59.94v.2h-59.94zm0 2.61h59.94v.2h-59.94zm0 2.61h59.94v.2h-59.94zm0 2.608h59.94v.2h-59.94zm0 2.606h59.94v.2h-59.94zm0 2.61h59.94v.2h-59.94zm0 2.608h59.94v.2h-59.94zm0 2.608h59.94v.2h-59.94zm0 2.61h59.94v.2h-59.94zm0 2.61h59.94v.2h-59.94zm0 2.605h59.94v.2h-59.94zm0 2.61h59.94v.2h-59.94zm0 2.61h59.94v.2h-59.94zm0 2.608h59.94v.2h-59.94zm0 2.61h59.94v.2h-59.94z" fill="#fff"/><path d="M455.847 426.663c-.278 0-.557-.08-.8-.25-.64-.445-.797-1.32-.355-1.96l13.4-19.277 11.293 7.85 13.188-18.98 7.69 5.343 10.844-15.61c.444-.638 1.32-.795 1.96-.353.637.443.794 1.32.35 1.958l-12.45 17.916-7.688-5.342-13.19 18.98-11.296-7.85L457 426.058c-.272.393-.71.602-1.155.602z" fill="#761113"/><path d="M507.438 369.74c-.414 3.157-1.81 12.365-2.327 15.306-.34 1.937-1.466 3.946-2.515 4.168-1.05.22-4.197.626-3.994-3.738.203-4.364 1.18-15.788.714-13.148-.56 3.158-.943 14.865-1.3 16.225-.357 1.36-1.216 3.29-3.218 3.147-2.004-.142-3.73-1.164-3.435-7.44.298-6.277.86-15.632.35-11.59-.52 4.15-1.09 17.17-1.637 19.038-.758 2.608-1.443 2.854-3.01 2.538-2.01-.406-3.003-3.712-2.93-12.338.07-8.625-.338-12.646-.59-9.153-.408 5.707-.195 16.918-.617 18.497-.953 3.543-3.61 3.125-4.667 2.177-2.107-1.9-1.68-7.404-1.73-12.354-.107-10.314.054-12.396-1.633-12.396H472.4s4.805-8.234 16.102-8.316c14.99-.11 19.646 4.016 18.94 9.376z" fill="#ffddad"/><path d="M469.817 368.68c-2.546-1.87-10.78-8.606-12.8-9.805-2.02-1.197-4.193-1.122-5.09 0-.9 1.122-.6 4.043 1.197 5.614 1.796 1.57 4.49 4.19 4.49 4.19h12.203z" fill="#f8d6b0"/><path d="M453.513 360.613c.9-1.123 3.07-1.198 5.09 0 1.596.946 7.058 5.34 10.542 8.07h.672c-2.546-1.873-10.78-8.608-12.8-9.807-2.02-1.197-4.193-1.122-5.09 0-.9 1.122-.6 4.043 1.197 5.614.21.187.437.387.667.596-.93-1.58-.984-3.587-.275-4.473z" fill="#fee0c2"/><path d="M476.487 376.728c2.942-8.52 10.802-14.615 20.042-14.615 3.18 0 6.194.728 8.904 2.023-2.613-2.36-7.89-3.837-16.936-3.77-11.297.08-16.104 8.316-16.104 8.316h2.498c1.416 0 1.528 1.486 1.592 8.046z" fill="#f8d6b0"/><ellipse ry="7.957" rx="6.332" cy="349.578" cx="326.328" transform="matrix(1 .017 -.017 1 5.975 -5.484)" fill="#f2d1ab"/><ellipse ry="7.956" rx="8.229" cy="355.383" cx="388.893" transform="matrix(.977 .212 -.212 .977 84.335 -74.476)" fill="#f2d1ab"/><path d="M327.51 330c1.518-21.364.324-25.802 11.54-17.716 7.868 5.673 28.063 3.46 37.05 3.46 15.22 0 12.537 14.484 12.706 20.885.08 3.02 0 20.76 0 24.713 0 10.257-7.91 20.3-21.1 25.843-12.75 5.36-25.22 11.72-37.263-8.488-1.512-2.533-6.735-11.394-5.634-24.147.34-3.94 2.48-21.527 2.7-24.552z" fill="#ffddad"/><path d="M361.225 345.11c0 3.186 2.6 4.077 5.807 4.077 3.207 0 5.808-.89 5.808-4.076 0-3.183-2.6-5.765-5.808-5.765-3.206 0-5.807 2.583-5.807 5.768z" fill="#3f2c38"/><path d="M363.89 341.553c-1.166 1.157-1.564 2.638-.89 3.31.678.672 2.17.277 3.334-.882 1.165-1.154 1.563-2.636.89-3.31-.678-.67-2.17-.273-3.334.885z" fill="#dedee6"/><path d="M330.8 341.54c0 2.984 2.42 3.82 5.402 3.82 2.986 0 5.404-.836 5.404-3.82s-2.418-5.404-5.404-5.404c-2.983 0-5.402 2.42-5.402 5.403z" fill="#3f2c38"/><path d="M333.28 338.206c-1.086 1.084-1.454 2.473-.826 3.102.628.63 2.016.26 3.102-.827 1.083-1.08 1.452-2.47.823-3.1-.63-.63-2.02-.256-3.1.828z" fill="#dedee6"/><path fill="#6f503a" d="M380.022 328.048l-.144-1.256-20.315 2.35.293 2.514zm-35.467.942l-.554 2.176-14.812-4.646.34-1.35z"/><path d="M328.3 318.047c.82-10.796 2.065-12.052 10.75-5.79 7.868 5.672 28.063 3.46 37.05 3.46 15.22 0 12.537 14.482 12.706 20.884.004.12.005.264.007.42-.424-7.03-.274-20.296-15.097-18.97-1.486.136-18.263 2.025-24.455 2.42-7.196.39-17.59-.47-20.96-2.42z" opacity=".5" fill="#eac79f"/><path d="M325.377 306.96c.002 0 1.64 1.885 3.944 3.966l.008.008c-.5 1.57-.785 3.922-1.027 7.113-.003 0-.006.004-.006.004-1.383-.794-2.01-.65-4.06-2.764.082-1.98.193-3.94.338-5.864.18-.694.54-1.79.808-2.46z" fill="#642f15"/><path d="M335.813 364.326c-.053 3.25-.042 10.335 5.377 13.672 3.447 2.12 15.083 1.11 19.705-5.765 4.62-6.87.564-4.82-1.438-4.598-21.906 2.44-23.575-7.433-23.644-3.31z" fill="#c83e2a"/><path d="M337.516 364.415c0-.08.025-.162.03-.242 2.43 1.67 8.214 4.96 21.91 3.432 2.003-.223 6.105-2.31 1.485 4.563-.42.628-1.004 1.307-1.535 1.84-12.226-.293-21.907-4.53-21.887-9.593z" fill="#fff"/><path d="M341.28 377.998c3.465 2.12 15.015 1.04 19.66-5.83.576-.853 1.012-1.564 1.34-2.16-.24.77-.68 1.983-1.782 3.668-4.5 6.878-15.816 7.903-19.163 5.788-3.447-2.18-4.697-5.963-5.092-9.233.586 2.88 1.997 5.908 5.038 7.77zm-3.94-15.272l.002-.028c2.518 1.674 8.505 4.972 22.664 3.466 1.366-.143 3.654-1.082 3.685.267.025.44-.21 1.14-.812 2.21.102-.316.15-.574.142-.774-.03-1.348-2.243-.406-3.563-.26-13.697 1.527-19.48-1.762-21.91-3.432l-.006.028c-1.45-1-1.7-1.417-1.726.127-.018 1.12-.023 2.702.193 4.426-.482-2.28-.478-4.467-.452-5.903.02-1.545.283-1.125 1.786-.123z" fill="#fbede4"/><path d="M344.573 351.113c.235-.215.597-.198.812.035.215.235.198.595-.036.81-2.18 1.99-1.98 3.967-1.07 5.16 1.16 1.523 3.82 2.247 6.452.582.268-.17.622-.09.79.18.17.268.092.62-.178.79-3.21 2.028-6.507 1.072-7.98-.857-1.16-1.52-1.54-4.187 1.207-6.7z" fill="#eac79f"/><path d="M388.807 336.63c-.17-6.402 2.513-20.886-12.705-20.886-8.988 0-29.183 2.213-37.052-3.46-11.215-8.086-10.02-3.648-11.54 17.717-.19 2.68-.712 7.32-1.452 13.237-1.817-9.365-1.99-8.953-1.99-20.244 0-2.536.056-5.04.157-7.505.086-2.05.2-4.077.35-6.07 2.74-10.605 14.576-20.248 31.082-20.248.87 0 1.73.03 2.583.074.852-.044 1.71-.075 2.58-.075 16.507 0 30.21 8.065 32.948 18.67.15 1.99.264 4.016.35 6.07.1 2.464.157 4.97.157 7.505 0 16.062-5.466 33.986-5.466 33.14-.005-3.955.073-14.903-.005-17.926z" fill="#7b3e1b"/><path d="M394.273 292.4c-7.185-10.12-19.713-9.43-31.754-8.57-4.726-3.424-7.71-7.846-7.095-14.55.725-7.91-10.797 1.232-17.252 11.936-1.702 3.96-1.702 13.76-.71 16.987.953 3.1-5.965-9.62-5.417-25.266-4.114-5.95-12.455 18.09-8.543 30.322.777 2.43 2.838 5.31 4.208 6.492.484.42 1.03.807 1.62 1.176 1.19-3.726 3.615-3.045 9.718 1.354 3.623 2.614 9.863 3.55 16.417 3.806 5.644.16 10.137-.036 11.296-.058 1.607-.054 3.145-.117 4.573-.17 1.79-.067 3.407-.117 4.765-.117 15.22 0 12.537 14.484 12.706 20.885.08 3.023 0 13.972 0 17.925 0 .845 10.213-10.63 12.418-26.538 1.08-7.79 5.764-13.716-6.95-35.618z" fill="#914e21"/><path d="M337.466 298.202c-.992-3.225-.992-13.027.71-16.987-2.334-1.56-4.226-3.835-5.514-7.114-.19-.48-.398-.85-.614-1.163-.548 15.647 6.37 28.368 5.418 25.267z" fill="#7b3e1b"/><path d="M377.046 334.968c-4.414-.33-10.84-.368-14.305.025-3.463.394-6.71.997-8.13 1.35-1.416.354-1.654.33-2.903.2-1.247-.128-1.485-.153-2.8-.79-1.318-.635-4.375-1.888-7.685-2.98-3.312-1.093-9.61-2.368-13.995-2.945-4.39-.578-10.84-.368-12.644-.366l-.415 4.648s.005-.062 1.306.134c1.303.197 2.068 7.907 3.155 11.96 1.082 4.052 5.38 4.62 6.746 4.76 1.368.142 8.342.986 12.338 1.273 3.996.288 9.693-8.977 11.07-11.18.935-1.5 2.584-1.172 2.584-1.172s1.68.016 2.29 1.675c.897 2.435 4.582 12.67 8.552 13.204 3.972.535 10.97 1.132 12.34 1.273 1.366.14 5.69.462 7.58-3.283 1.888-3.745 4.21-11.137 5.526-11.064 1.315.073 1.31.134 1.31.134l.536-4.636c-1.767-.367-8.04-1.89-12.45-2.22zm-34.512 11.264c-1.71 2.2-3.286 5.054-8.83 4.448-5.52-.606-8.723-.483-11.53-2.816-2.8-2.333-2.578-9.94-2.45-11.556.124-1.61 1.29-5.517 11.405-4.453 2.05.22 11.793 1.28 13.92 4.815 2.13 3.536-.808 7.36-2.518 9.562zm40.526-3.387c-.204 1.605-1.54 9.098-4.757 10.81-3.224 1.71-6.335.937-11.86.404-5.552-.54-6.514-3.658-7.738-6.16-1.226-2.503-3.32-6.847-.513-9.873 2.805-3.027 12.56-2.078 14.613-1.872 10.122 1.02 10.463 5.083 10.255 6.687zm-16.24 12.882c-1.926-.2-3.498-.38-4.673-.537-2.74-.37-5.708-4.85-8.822-13.316l-.058-.157c-.415-1.134-1.415-1.354-1.824-1.396l-.09-.003-.157-.02c-.412-.042-1.438-.03-2.077.994l-.09.14c-4.778 7.653-8.598 11.434-11.355 11.237-1.182-.086-2.758-.23-4.684-.43-2.203-.226-4.43-.48-5.955-.654-.794-.09-1.397-.16-1.71-.19-3.866-.4-6.32-2.15-7.1-5.07-.375-1.396-.71-3.232-1.037-5.006-.445-2.406-1.187-6.43-1.79-6.65-.796-.12-1.1-.143-1.18-.14l-.02-.408-.45-.045.458-5.037h.375c.283 0 .68-.006 1.17-.013 2.656-.036 7.8-.107 11.525.382 4.162.548 10.563 1.805 14.065 2.96 3.148 1.037 6.27 2.296 7.734 3.003 1.256.603 1.44.623 2.673.75 1.227.126 1.414.147 2.766-.19 1.577-.394 4.892-.988 8.182-1.36 3.664-.418 10.188-.34 14.378-.028 3.737.277 8.765 1.4 11.357 1.978.477.108.865.195 1.145.254l.366.077-.582 5.027-.407-.045-.143.395c-.077-.022-.377-.06-1.19-.106-.628.09-2.176 3.88-3.1 6.146-.684 1.67-1.39 3.397-2.04 4.688-1.36 2.697-4.123 3.91-7.985 3.512-.313-.032-.917-.088-1.713-.162-1.526-.14-3.756-.348-5.96-.575zm-15.29-16.255c.436.045 1.91.317 2.505 1.935l.056.157c3.74 10.156 6.506 12.556 8.17 12.78 1.167.156 2.73.336 4.648.534 2.202.226 4.43.434 5.958.574.8.073 1.406.13 1.72.163 3.5.36 5.982-.695 7.172-3.055.636-1.26 1.334-2.97 2.012-4.625 1.754-4.302 2.802-6.732 3.904-6.667.437.023.73.046.926.066l.442-3.803-.785-.17c-2.574-.576-7.554-1.687-11.244-1.963-4.152-.312-10.61-.387-14.23.024-3.638.413-6.825 1.028-8.08 1.34-1.486.37-1.786.34-3.04.21-1.258-.13-1.558-.16-2.937-.825-1.162-.563-4.157-1.817-7.635-2.963-3.456-1.14-9.794-2.383-13.92-2.925-3.67-.488-8.774-.414-11.41-.375-.303.002-.576.006-.804.008l-.346 3.813c.196.024.49.06.92.127 1.09.164 1.624 2.756 2.46 7.324.326 1.758.66 3.577 1.027 4.94.683 2.553 2.896 4.093 6.397 4.455.314.032.92.1 1.72.192 1.52.173 3.746.426 5.945.654 1.92.198 3.485.342 4.66.427 1.675.12 4.874-1.664 10.604-10.845l.09-.143c.91-1.46 2.408-1.426 2.846-1.38.06.006.105.012.13.016.014-.002.057 0 .118.007zm19.065 15.462c-.503-.052-1.028-.112-1.582-.174-.608-.068-1.247-.14-1.924-.21l-.787-.078c-5.215-.538-6.51-3.29-7.65-5.717-.106-.223-.21-.443-.315-.66-1.215-2.48-3.474-7.096-.444-10.363 2.584-2.786 10.476-2.45 14.95-2l.083.01c4.87.5 8.107 1.77 9.627 3.77.752.99 1.068 2.16.91 3.386-.012.09-1.212 9.133-4.983 11.137-2.504 1.328-4.95 1.203-7.89.9zm-3.418-1.232c.677.07 1.32.14 1.93.21.55.063 1.074.123 1.573.174 3.283.338 5.334.307 7.435-.81 2.81-1.493 4.23-8.074 4.54-10.484.13-1.005-.12-1.93-.742-2.75-1.357-1.787-4.496-2.98-9.07-3.452-7.443-.747-12.646-.113-14.358 1.732-2.62 2.828-.613 6.93.587 9.384.108.22.212.443.32.67 1.1 2.337 2.236 4.756 7 5.246l.785.08zm-37.717-3.012c-2.94-.303-5.362-.68-7.54-2.492-3.284-2.73-2.613-11.828-2.605-11.92.096-1.23.643-2.313 1.582-3.13 1.895-1.647 5.325-2.226 10.196-1.723l.082.008c4.473.474 12.267 1.756 14.228 5.01 2.298 3.817-.855 7.875-2.548 10.055-.15.19-.295.384-.444.58-1.61 2.144-3.44 4.576-8.655 4.036l-.78-.083c-.68-.07-1.32-.13-1.93-.185-.555-.05-1.08-.1-1.583-.153zm1.54-18.417c-4.57-.473-7.888.056-9.58 1.53-.777.673-1.21 1.526-1.29 2.537-.188 2.423-.144 9.153 2.305 11.19 1.83 1.522 3.83 1.972 7.11 2.31.502.052 1.025.1 1.574.153.61.057 1.255.117 1.934.188l.783.086c4.764.49 6.37-1.643 7.926-3.708.15-.2.297-.398.45-.59 1.674-2.157 4.475-5.765 2.487-9.065-1.3-2.155-6.262-3.838-13.62-4.618l-.08-.01z" fill="#51190b"/></g><g transform="translate(110.476 -33.183)"><ellipse ry="7.296" rx="41.582" cy="533.689" cx="140.794" fill="#c9cccc"/><path d="M151.427 533.237v2.107l-7.787.003v-2.94c.713.283 6.124.664 7.202.73.142.01.342.044.585.1zm6.098-3.607c-.14-.14-.14-.368 0-.51l.867-.867c.197.148.39.293.584.436l-.94.94c-.14.14-.37.14-.51 0zm-1.062-1.06c-.14-.14-.14-.37 0-.51l.728-.728.578.445-.792.792c-.14.14-.37.14-.51 0zm-1.06-1.06c-.14-.142-.14-.37 0-.51l.603-.606c.182.147.373.297.57.452l-.663.662c-.14.14-.37.14-.51.002z" fill="#0d1514"/><path d="M144.036 524.63v-2.875l9.974 1.526v1.495s.846.704 1.996 1.622l-.603.605c-.14.14-.14.37 0 .51s.37.14.51 0l.66-.662.617.486-.728.727c-.14.14-.14.37 0 .51.142.14.37.14.51 0l.793-.792c.207.16.416.32.625.478l-.867.866c-.14.144-.14.37 0 .51s.37.14.51 0l.94-.94c.485.36.957.698 1.382.986 2.452 1.657 9.588.788 12.62 1.94 3.027 1.154 2.524 4.614 1.442 4.685-1.083.075-15.212.007-16.367-.64-1.01-.57-4.9-2.02-6.624-2.42-.243-.057-.443-.09-.585-.1-1.075-.068-6.49-.448-7.2-.733-.05-.022-.08-.04-.08-.06 0-4.405.2-5.09.478-7.715z" fill="#393638"/><path d="M114.643 530.22l-.243 2.45-9.05-.902.34-3.418c.795.413 7.04 1.485 8.283 1.686.166.027.394.092.67.185zm7.505-3.483c-.148-.178-.122-.443.06-.59l1.105-.91c.21.198.42.386.627.575l-1.2.984c-.18.148-.446.12-.592-.06zm-1.112-1.355c-.145-.18-.12-.447.06-.594l.93-.76c.202.195.407.387.614.583l-1.01.83c-.18.15-.447.12-.594-.056zm-1.11-1.356c-.147-.18-.12-.445.06-.592l.77-.633c.196.196.4.39.61.596l-.846.69c-.18.147-.446.122-.593-.058z" fill="#0d1514"/><path d="M107.054 519.363l.157-1.565 11.59 1.153-.173 1.736s.903.916 2.132 2.116l-.77.634c-.18.147-.208.41-.06.592.147.18.41.205.592.06l.846-.692c.213.208.435.418.66.635l-.93.76c-.178.146-.204.414-.06.593.148.18.414.206.594.06l1.01-.83c.224.21.45.42.673.626l-1.106.907c-.18.148-.208.413-.06.59.147.18.412.208.592.06l1.2-.984c.522.473 1.03.92 1.492 1.305 2.656 2.21 11.048 2.028 14.435 3.72 3.382 1.69 2.4 5.652 1.133 5.61-1.263-.04-17.675-1.758-18.94-2.646-1.11-.78-5.462-2.917-7.417-3.58-.276-.093-.504-.157-.67-.184-1.243-.202-7.487-1.273-8.283-1.686-.055-.03-.088-.058-.086-.077.51-5.12.826-5.892 1.45-8.91z" fill="#393638"/><path d="M171.342 455.928c-14.19 10.362-30.597 7.467-31.515 7.44-13.428-.402-22.272-9.043-27.425-16.472.23 2.08.815 4.104 1.72 6.035.825 1.31 2.105 2.467 2.414 4 1.983 9.807 3.45 17.664 2.932 25.687-1.292 19.937-12.845 35.672-12.845 35.672h.004c-.047.09-.085.186-.1.285-.168 1.19 5.017 3.576 8.023 4.04 2.82.435 7.39-1.266 7.82-2.31 0 0 15.92-12.61 23.147-36.292 1.492-4.882 2.185-10.076 2.314-15.076 0 0 .067-1.19 1.58-1.66 1.29 2.696 2.435 5.783 3.25 9.353 5.768 25.226-9.74 44.9-9.74 44.9-.3.63 6.054 2.125 9.06 2.125 3.01 0 5.17-.632 5.448-1.272h.007s16.47-26.035 15.672-53.653c-.126-4.297-.777-8.627-1.763-12.8z" fill="#191918"/><path d="M117.128 517.548c-3.062-.397-6.194-2.924-8.562-4.31l-2.86 5.42s4.74 4.098 10.186 4.568c5.577.48 8.635-2.3 8.635-2.3s.46-1.12 1.82-4.4c-1.933 1.203-5.8 1.465-9.22 1.022z" fill="#0d0d0d"/><path d="M128.745 474.042c-.196 0-.356-.16-.356-.355 0-.197.16-.356.353-.356 5.045 0 9.15-4.102 9.15-9.15 0-.194.158-.352.355-.352.196 0 .356.158.356.355 0 5.44-4.425 9.862-9.862 9.862zm37.673-13.394c.04-.155.186-.25.324-.21.137.035.212.19.17.345-1.074 3.968.916 7.972 4.437 8.927.132.038.21.193.17.346-.04.154-.188.25-.325.212-3.795-1.03-5.94-5.344-4.78-9.62z" fill="#393638"/><path d="M157.027 471.877c0-1.572-.92-2.964-2.338-3.847.666 1.815 1.256 3.8 1.754 5.928.37-.633.58-1.336.58-2.08z" fill="#191918"/><path d="M156.446 473.958c-.5-2.13-1.09-4.113-1.757-5.928-.995-.618-2.23-.99-3.576-.99-.504 0-.992.058-1.46.154-.094.054-.184.077-.247.08 1.284 2.68 2.325 5.75 3.138 9.293l.016.06c5.77 25.228-9.642 44.902-9.642 44.902-.3.63 2.484 1.27 5.492 1.27.312 0 .614-.008.908-.02 5.25-5.056 8.963-17.44 8.963-31.93 0-6.14-.67-11.907-1.836-16.894z" fill="#0e0e0e"/><path d="M112.584 446.896c.228 2.08.815 4.104 1.717 6.035.83 1.31 2.11 2.467 2.42 4 1.98 9.807 3.45 17.664 2.93 25.687-1.292 19.937-12.845 35.672-12.845 35.672h.006c-.05.09-.086.186-.1.285-.09.634 1.336 1.602 3.14 2.442 5.424-6.474 10.55-20.042 13.073-36.18 1.537-9.81 1.865-19.002 1.173-26.466-4.974-3.215-8.767-7.515-11.51-11.473z" opacity=".5" fill="#080808"/><path d="M151.45 520.303c-2.613-.397-4.476-2.34-6.497-3.725l-2.524 4.73s3.316 4.204 7.964 4.674c4.76.48 7.37-2.3 7.37-2.3s.394-1.122 1.555-4.4c-1.653 1.202-4.95 1.464-7.87 1.02z" fill="#0d0d0d"/><radialGradient gradientUnits="userSpaceOnUse" r="46.437" cy="431.478" cx="172.726"><stop offset="0" stop-color="#fff"/><stop offset=".734" stop-color="#ddd"/><stop offset="1" stop-color="#CFCFCF"/></radialGradient><path d="M160.686 387.82c-1.67-.7-3.244-1.49-4.717-2.345 1.16 1.982 1.845 3.418 1.845 3.418-.103 11.034-13.594 57.11-25.34 73.366 3.64 1.11 6.826 1.016 9.75 1.245 13.507 1.058 21.84-2.7 29.115-7.58 1.983-3.25 4.576-9.826 6.166-13.563 8.378-19.705 14.106-41.124 9.96-54.37-8.72 8.07-17.668 3.658-26.78-.173z" fill="url(#c)"/><path d="M259.02 303.797c-4.348-1.962-5.547 2.914-6.684 5.838-1.137 2.924-2.93 2.682-4.35 12.28-.137.93-.226 1.867-.275 2.81.41.664.83 1.414 1.254 2.288 4.352 8.968 4.426 2.94 3.757.23-.67-2.71 1.507-5.695 1.085-10.423-.42-4.732 1.033-5.982 3.41-4.928.92.408 1.247 2.315 1.478 4.14 1.21-4.073 3.607-10.755.328-12.235z" fill="#f2d1b0"/><path d="M260.055 304.94c-4.348-1.96-5.548 2.914-6.683 5.838-1.138 2.925-2.93 2.683-4.35 12.283-.138.93-.225 1.868-.275 2.81.406.665.827 1.416 1.25 2.29 4.352 8.97 4.426 2.94 3.757.23-.67-2.71 1.508-5.695 1.087-10.425-.42-4.73 1.03-5.98 3.41-4.927.92.408 1.25 2.315 1.48 4.14 1.213-4.073 3.607-10.753.327-12.235z" fill="#f8d6b0"/><path d="M247.312 331.927c2.41-6.134 3.85-9.22 4.81-13.025-.943 2.09-3.9 10.112-2.888 2.252.1-.764-1.643 1.343-.73-2.247-3.495 8.43-2.13 9.418-4.408 15.012-.876 2.152-3.077 4.03-4.965 5.284 3.55-.076 6.11-1.993 8.184-7.28z" fill="#ffddad"/><path d="M258.983 320.33c-.136.422-.247.86-.356 1.3.333-.928.618-1.82.868-2.655-.2.496-.38.946-.512 1.356z" fill="none"/><path d="M258.75 334.753c-.164-.764-.297-1.527-.41-2.287-1.398.795-3.016 1.512-4.616 2.4-3.31 1.844-5.76 1.986-.537-3.722 2.682-2.927 4.33-6.413 5.44-9.516.11-.438.22-.876.356-1.298.132-.41.313-.86.512-1.356.768-2.554 1.182-3.912 1.697-5.25.646-2.008.784-4.17.15-4.812-1.726-1.747-5.253-.085-6.742 3.67-1.92 4.83-1.537 4.228-2.48 6.32-.96 3.803-2.4 6.89-4.81 13.024-2.072 5.286-4.633 7.203-8.18 7.278-1.338.89-2.52 1.468-2.96 1.6l7.37 11.104s3.562-1.136 6.105-1.468c2.543-.334 8.892-2.558 9.415-5.465.75-4.155.79-5.122-.31-10.222z" fill="#ffddad"/><path d="M258.627 321.63c-1.11 3.102-2.758 6.588-5.44 9.515-5.223 5.708-2.772 5.566.537 3.723 1.6-.89 3.218-1.607 4.615-2.4-.58-3.815-.528-7.55.285-10.84zm1.925-6.09c-2.724 5.028-3.95 13.137-7.524 17.06-6.48 7.114-2.277 7.14 2.486 1.55 1.187-1.393 1.85-3.027 3.246-3.822-.576-3.814.98-11.5 1.792-14.788z" fill="#f8d6b0"/><path d="M261.878 325.81c-.45-4.113-1.93-5.712-3.797-4.933-1.724.722-1.75 3.113-2.523 8.177-.522 3.418-2.35 6.304-5.108 8.43-.58.446-1.178.865-1.784 1.256-1.22 1.215-1.9 2.878-1.722 4.64.332 3.247 3.456 5.59 6.977 5.23 1.253-.13 2.38-.585 3.31-1.262.406-.334.776-.68 1.116-1.038 1.713-1.798 2.616-3.788 2.988-5.004.696-2.275.69-3.515-.085-6.332-.57-2.08.974-5.993.63-9.165zM80.376 459.52c.046 1.77 1.357 3.07 2.02 3.385.663.318 1.908.282 2.858-.275.947-.558 1.394-1.248 1.442-.79.048.456.502 1.56 1.672 2.09 1.172.527 2.764 0 4.795-1.3 2.033-1.3 3.486-7.073 4.015-7.866.526-.793 1.066-3.408 2.41-4.17 5.614-3.177 1.106-9.335.587-10.97-.408-1.29.772-3.006 1.31-4.022l-16.422-8.234s-4.337 6.233-5.8 8.344c-2.192 3.162-3.54 4.268-5.134 7.656-1.596 3.392-1.64 5.78-1.486 7.632.15 1.85 1.424 2.442 2.178 2.637.753.195 1.412-.454 1.268.082-.143.534-.582 3.012-.022 4.44.555 1.422 2.394 1.593 3.25 1.355.854-.24 1.013-1.765 1.056.004z" fill="#ffddad"/><path d="M80.376 459.52c.046 1.77 1.357 3.07 2.02 3.385.104.053.226.09.36.125-.425-.23-.682-.56-.57-1.046.29-1.27 4.02-7.066 4.46-9.267.063-.31.03-.712-.077-1.15-.42-.49-.835-1.128-1.374-1.858-.76-1.03-1.615-.71-2.434-.29-.177.632-.294 1.512-.33 2.693-.06 2.067-1.31 4.398-2.143 6.583.05.06.073.295.085.823z" opacity=".7" fill="#f4d2a8"/><path d="M76.07 458.16c.184.472.508.806.89 1.032-.172-.342-.186-.898.112-1.934.515-1.79 3.33-5.647 2.87-7.804-.49-.424-.92-.965-1.803-1.26-.284-.092-.557-.155-.824-.202-.025.295-.045.66-.065 1.114-.08 1.745-.43 2.952-1.145 4.545-.004.024-.006.047-.014.07-.143.538-.582 3.017-.022 4.44zm-2.26-4.98c-.066-1.366.665-3.21 1.032-4.872.065-.29.095-.584.104-.873-.082-.056-.157-.12-.225-.194-.53-.564-.762-1.76-.96-2.723-.81 2.597-1.22 5.178-1.112 6.486.094 1.133.607 1.792 1.163 2.18zm12.81 8.524c.04.013.07.047.077.134.048.457.502 1.562 1.672 2.09.34.154.72.207 1.134.19-.46-.51-.83-.986-.82-1.915.012-1.45 1.62-4.83 2.025-6.494.407-1.668.135-3.56-.286-3.09-.422.47-1.172 2.423-1.803 4.32-.45 1.35-1.39 3.37-2 4.76z" fill="#f4d2a8"/><path d="M193.794 410.233c-.127-.5-.25-.997-.37-1.486-.862-3.523-2.027-9.855-2.056-10.018l56.342-43.93-10.5-20.89-47.12 51.252c-1.108 1.37-2.222 2.515-3.34 3.458-.3 1.908-.742 5.25-1.056 9.4l.336 21.4v.004c.856 6.665 2.596 13.167 5.812 18.183 9.395 14.65 11.353 16.11 11.353 16.11 6.865 4.955 8.11-15.13 7.927-18.512 0 0-13.326-9.328-17.328-24.975z" fill="#0d0d0d"/><path d="M152.16 463.49l-.9-.014c13.688 0 25.262-32.216 25.262-70.958h.71c.002 39.133-10.99 70.973-25.07 70.973z" fill="#9b9693"/><g fill="#fff"><ellipse ry="1.392" rx=".708" cy="455.241" cx="166.102" transform="matrix(.824 .567 -.567 .824 287.339 -13.946)"/><ellipse ry="1.393" rx=".707" cy="447.834" cx="169.798" transform="matrix(.909 .418 -.418 .909 202.573 -29.986)"/><ellipse ry="1.393" rx=".708" cy="441.08" cx="172.306" transform="matrix(.965 .262 -.262 .965 121.487 -29.726)"/><ellipse ry="1.393" rx=".707" cy="433.254" cx="174.779" transform="matrix(.965 .262 -.262 .965 119.646 -30.661)"/><ellipse ry="1.393" rx=".708" cy="423.926" cx="176.327" transform="matrix(.974 .229 -.229 .974 101.519 -29.073)"/><ellipse ry="1.393" rx=".708" cy="415.667" cx="177.845" transform="matrix(1 .021 -.021 1 8.608 -3.579)"/><ellipse ry="1.394" rx=".707" cy="407.602" cx="178.711" transform="matrix(1 .021 -.021 1 8.619 -3.671)"/><ellipse ry="1.394" rx=".707" cy="399.781" cx="178.819" transform="matrix(1 .021 -.021 1 8.428 -3.664)"/></g><path fill="#0a8094" d="M172.694 399.385h9.08l8.52 54.58-4.176 4.118-3.785-4.405z"/><path d="M181.775 399.385h-9.08l-4.54-7.825h18.16zm-9.115.523h9.15l1.912 39.828-6.488 12.627-7.798-12.627z" fill="#06b0d8"/><path d="M160.686 387.82c-5.853-2.46-10.518-5.928-13.704-9.92-.08.02-.16.036-.237.06-23.485 7.174-34.883 15.427-46.698 26.113-11.817 10.685-17.775 21.448-17.775 21.448 6.22 5.41 22.146 12.42 22.146 12.42 10.9-30.5 35.906-43.49 35.906-43.49s-2.426 5.316-11.936 17.115c-16.834 20.89-20.002 28.16-20.002 28.16s7.31 23.264 31.33 23.648c15.786.253 27.224-60.785 26.637-73.2-1.88-.73-3.77-1.55-5.667-2.35z" fill="#0d0d0d"/><path d="M160.686 387.82c-2.627-1.103-5.015-2.412-7.137-3.88l-5.4 8.188 5.66 7.69-8.295 10.902.04.057 13.51 21.12 11.273-40.36c-3.197-.92-6.415-2.354-9.655-3.716zm-2.188 46.03l.57-1.954-12.43-19.394-.94 1.238.037.06z" fill="#191918"/><path fill="#0d0d0d" d="M148.153 394.837l4.645 6.313 1.014-1.332-4.716-6.41z"/><path d="M161.653 398.596l11.97-2.014 1.59-3.517c-4.16-.322-8.36-2.042-12.6-3.837l-.96 9.368zm17.754-5.736l1.293 2.858 9.084-.688-.817-7.97c-3.157 3.467-6.344 5.2-9.56 5.8z" fill="#cfcfce"/><path d="M102.872 405.686c11.82-10.516 23.24-18.73 45.803-25.877-.6-.626-1.173-1.258-1.693-1.91-.08.02-.16.034-.237.06-23.485 7.172-34.883 15.425-46.698 26.11-11.817 10.686-17.775 21.45-17.775 21.45.663.58 1.446 1.174 2.3 1.78 1.164-1.96 7.286-11.815 18.3-21.615zm37.323-10.974c-.605 1.198-3.508 6.555-11.806 16.85-16.837 20.89-20.005 28.16-20.005 28.16s.543 1.71 1.8 4.2c4.87-5.35 10.597-13.01 16.16-21.896 6.496-10.37 11.393-20.215 13.848-27.314zm51.26 4.522v-.006.002z" fill="#0d0d0d"/><path fill="#191918" d="M186.032 419.43v-.004zm5.42-20.2l3.83-8.206-4.887-6.23c-.1.127-.202.248-.304.373-1.104 1.37-2.22 2.515-3.336 3.458-.3 1.907-.742 5.25-1.056 9.4l.336 21.4v.003l7.39-10.68.957-1.38-2.925-8.134v-.004z"/><path d="M193.893 410.59c-.032-.12-.068-.236-.1-.357-.126-.5-.25-.997-.37-1.486l-.004-.02-.115.16-7.276 10.515v.025c.09.696.195 1.39.305 2.082l6.97-10.078.587-.845zM191.458 399.217l-.005.01h.008zm.412-.877l1.874-1.46 2.044-4.37-.745-.95z" fill="#0d0d0d"/><path d="M170.184 392.197l-10.49 37.555c-.18.66-.363 1.317-.55 1.97l-.043.158c-4.754 16.63-11.515 31.6-19.35 31.475-.043 0-.086-.004-.13-.005.892.05 1.764.09 2.61.157 1.174.092 2.297.135 3.396.156 6.23-3.74 11.604-16.47 15.577-30.364l.045-.158c.185-.656.37-1.312.55-1.972l10.68-38.23c-.762-.22-1.526-.472-2.29-.744zM161.653 398.005l11.97-2.014 1.59-3.514c-4.16-.323-8.36-2.044-12.6-3.836l-.96 9.366zm17.754-5.737l1.293 2.86 9.084-.69-.817-7.97c-3.157 3.468-6.344 5.2-9.56 5.8z" fill="#cfcfce"/><path fill="#e5c29c" d="M84.935 427.557L83.93 429l16.796 7.982.318-.592z"/><path d="M239.26 337.987l-2.048-4.074-47.09 51.308c-.007.278-.017 1.27.062 2.89 26.966-19.38 43.745-42.25 49.075-50.12z" fill="#0d0d0d"/><path d="M171.342 455.928c-14.19 10.362-30.597 7.467-31.515 7.44-13.428-.402-22.272-9.043-27.425-16.472.23 2.08.815 4.104 1.72 6.035.39.62.88 1.208 1.324 1.81 6.724 6.326 19.762 10.614 34.747 10.614 8.264 0 15.935-1.304 22.282-3.534-.295-1.986-.675-3.955-1.133-5.89z" opacity=".5" fill="#080808"/><path d="M190.09 385.166l-.034.035c-1.096 1.354-2.197 2.486-3.302 3.42l-.003.007c1.12-.944 2.235-2.09 3.34-3.46z" fill="#0d0d0d"/><ellipse ry="6.986" rx="5.559" cy="354.803" cx="197.012" transform="matrix(-1 .017 -.017 -1 400.012 706.214)" fill="#f2d1ab"/><ellipse ry="6.984" rx="7.224" cy="359.899" cx="142.086" transform="matrix(-.977 .212 -.212 -.977 357.355 681.418)" fill="#f2d1ab"/><path d="M195.975 337.615c-1.334-18.756-.285-22.653-10.13-15.554-6.912 4.984-24.64 3.04-32.53 3.04-13.36 0-11.007 12.716-11.155 18.336-.068 2.654 0 18.227 0 21.7 0 9.004 6.945 17.82 18.525 22.687 11.195 4.706 22.14 10.29 32.715-7.45 1.325-2.224 5.91-10.003 4.944-21.2-.297-3.457-2.18-18.9-2.37-21.555z" fill="#ffddad"/><path d="M142.16 343.434c.148-5.62-2.206-18.335 11.154-18.335 7.89 0 25.62 1.94 32.53-3.04 9.846-7.1 8.798-3.2 10.13 15.553.168 2.352.628 6.424 1.276 11.618 1.595-8.22 1.746-7.86 1.746-17.772 0-2.228-.05-4.426-.14-6.59-.072-1.8-.173-3.58-.306-5.33-2.404-9.31-12.796-17.776-27.286-17.776-.765 0-1.517.027-2.266.066-.75-.037-1.504-.065-2.266-.065-14.49 0-26.523 7.082-28.927 16.393-.13 1.748-.233 3.527-.307 5.328-.088 2.165-.138 4.362-.138 6.59 0 14.102 4.8 29.837 4.8 29.096 0-3.472-.068-13.084 0-15.738z" fill="#32120d"/><path d="M167.834 351.29c0 2.8-2.282 3.58-5.1 3.58-2.814 0-5.096-.78-5.096-3.58 0-2.796 2.282-5.062 5.097-5.062 2.817 0 5.1 2.266 5.1 5.063z" fill="#3f2c38"/><path d="M165.495 348.167c1.025 1.017 1.37 2.317.78 2.907-.593.59-1.904.242-2.926-.775-1.027-1.02-1.376-2.32-.78-2.91.59-.588 1.9-.24 2.923.775z" fill="#dedee6"/><path d="M193.086 347.745c0 2.62-2.124 3.354-4.744 3.354-2.62 0-4.743-.736-4.743-3.357 0-2.62 2.122-4.744 4.74-4.744 2.62 0 4.744 2.125 4.744 4.744z" fill="#3f2c38"/><ellipse ry="2.438" rx="1.412" cy="345.817" cx="189.911" transform="matrix(.707 -.707 .707 .707 -188.919 235.618)" fill="#dedee6"/><path fill="#6f503a" d="M151.003 341.333l-.27-1.077 17.41-4.383.54 2.156zm30.18-7.42l-.343 1.94 13.535 1.623.21-1.205z"/><path d="M191.453 288.54c-7.854 19.97-41.026-2.333-54.09 16.064-11.163 19.23-7.053 24.432-6.103 31.27 1.936 13.966 10.9 24.04 10.9 23.298 0-3.47-.067-13.083 0-15.737.15-5.62-2.205-18.335 11.155-18.335 1.192 0 2.614.045 4.185.103 1.252.046 2.602.1 4.013.15 1.017.018 4.964.19 9.916.05 5.75-.223 11.23-1.046 14.412-3.34 5.356-3.863 7.487-4.46 8.532-1.19.515-.325.995-.665 1.422-1.034 1.2-1.04 3.01-3.57 3.692-5.705 3.612-11.3-4.69-34.108-8.038-25.596z" fill="#51190b"/><path d="M195.283 327.12c-.724-9.477-1.817-10.58-9.44-5.082-6.91 4.98-24.638 3.037-32.53 3.037-13.36 0-11.005 12.714-11.153 18.335-.002.102-.005.23-.006.367.374-6.17.24-17.82 13.253-16.653 1.307.117 16.035 1.775 21.47 2.12 6.32.345 15.444-.412 18.406-2.123z" opacity=".5" fill="#eac79f"/><path d="M197.846 317.387c-.002 0-1.44 1.656-3.462 3.482l-.005.004c.44 1.378.69 3.443.9 6.245l.003.003c1.217-.7 1.766-.573 3.566-2.43-.07-1.74-.17-3.46-.298-5.148-.156-.61-.47-1.57-.707-2.16z" fill="#250e0b"/><path d="M188.685 367.75c.048 2.852.036 9.074-4.72 12.003-3.025 1.86-13.24.973-17.3-5.06-4.055-6.033-.494-4.233 1.262-4.038 19.233 2.144 20.7-6.525 20.758-2.905z" fill="#c83e2a"/><path d="M187.192 367.828c-.002-.072-.024-.142-.028-.212-2.134 1.466-7.21 4.353-19.237 3.013-1.756-.198-5.357-2.03-1.3 4.003.37.55.884 1.147 1.348 1.615 10.734-.258 19.233-3.98 19.217-8.423z" fill="#fff"/><path d="M183.884 379.753c-3.042 1.862-13.18.914-17.258-5.118-.507-.75-.89-1.373-1.177-1.897.21.676.595 1.742 1.562 3.22 3.952 6.04 13.887 6.94 16.824 5.083 3.026-1.91 4.125-5.232 4.47-8.103-.515 2.526-1.755 5.183-4.424 6.818zm3.462-13.407c-.003-.01-.004-.017-.004-.025-2.208 1.47-7.464 4.368-19.898 3.046-1.2-.126-3.206-.95-3.233.234-.015.385.19 1 .718 1.936-.09-.276-.13-.503-.124-.68.025-1.182 1.967-.356 3.126-.227 12.025 1.34 17.102-1.55 19.236-3.016 0 .008.002.015.004.024 1.273-.88 1.495-1.246 1.517.11.015.984.02 2.373-.17 3.887.423-2.002.418-3.922.4-5.182-.024-1.357-.25-.988-1.57-.108z" fill="#fbede4"/><path d="M180.993 356.15c-.206-.188-.524-.173-.712.032-.183.206-.17.523.035.712 1.91 1.746 1.74 3.482.94 4.528-1.02 1.338-3.355 1.973-5.667.512-.237-.15-.546-.078-.696.157-.15.24-.077.547.158.698 2.82 1.78 5.716.94 7.01-.753 1.017-1.334 1.35-3.676-1.064-5.882z" fill="#eac79f"/><path fill="#fee1c5" d="M245.913 351.227l1.466-.36-5.126-14.242-2.575 2.2z"/></g></svg>