<svg xmlns="http://www.w3.org/2000/svg" width="800" height="800" viewBox="0 0 800 800"><title>Hacer regalos</title><defs><filter id="a" x="-1.037" width="3.074" y="-1.117" height="3.233" color-interpolation-filters="sRGB"><feGaussianBlur stdDeviation="307.525"/></filter></defs><rect width="711.864" height="661.017" x="57.627" y="54.237" rx="1.542" ry="1.143" fill="#efe2c2" fill-opacity="0" filter="url(#a)"/><g transform="matrix(.875 0 0 .867 128.602 6.094)"><path fill="#7d7d7d" d="M456.715 241.733l-22.562 18.354 9.334 17.155 24.526-5.266"/><path d="M307.16 489.387s-98.8 67.238-209.95 13.036m206.52-39.795s-110.464 27.444-188.68-84.39m196.226 78.902s-115.952-61.75-151.63-151.63" fill="none" stroke="#ababab" stroke-width="20" stroke-dasharray="30, 30, 30, 30, 30, 30"/><path fill="#abdcd3" d="M242.37 204.925l182.64 156.52v-53.75l-126.875-102.77"/><path fill="none" stroke="#8973b4" stroke-width="20" stroke-dasharray="20, 20, 20, 20, 20, 20" d="M267.9 204.925l157.11 132.332"/><path fill="#abdcd3" d="M338.24 278.397l182.642 156.52v-53.75l-126.876-102.77"/><path fill="none" stroke="#8973b4" stroke-width="20" stroke-dasharray="20, 20, 20, 20, 20, 20" d="M363.772 278.397l157.11 132.332"/><path d="M465.023 486.882l.03-.003c.004-.04.01-.078.016-.116l-.05.115zm-.15-.002c-.11-.307-.342-.95-.676-1.813.057.523.12 1.045.188 1.564 0 .08.233.22.49.25z" fill="#fecf0a"/><path d="M464.945 487.078l-.07-.2c-.257-.03-.49-.168-.49-.248-.067-.52-.13-1.04-.188-1.564-1.538-3.98-5.183-12.628-8.436-14.34-.423-.225-.825-.21-1.204-.002.948 5.357 3.442 10.498 7.144 14.674.783 1.008 2.015 1.68 3.247 2.128.042-.216.076-.432.107-.647h-.03l-.077.195zm12.432-13.216c.01-.02.02-.04.028-.06-.44-1.438-1-2.556-1.708-3.076-3.104-2.276-9.648 13.607-10.628 16.04l-.02.113c.04-.01.08-.016.116-.03 5.15-3.583 9.63-7.503 12.207-12.99z" fill="#fbaa19"/><path d="M456.41 476.995c-.85-2.024-1.478-4.13-1.856-6.27-3.39 1.862-4.84 19.265-4.84 19.265l4.9-.15c-.248-4.36.544-8.684 1.796-12.845z" fill="#325a78"/><path d="M459.577 482.713c-1.262-1.795-2.325-3.716-3.167-5.718-1.25 4.16-2.044 8.485-1.797 12.846l4.472-.133c-.04-2.33.143-4.673.492-6.99z" fill="#fecf0a"/><path d="M465.17 486.854c-.04.013-.078.02-.118.025-.03.21-.066.43-.107.643-1.232-.448-2.464-1.12-3.248-2.128-.76-.856-1.466-1.754-2.12-2.685-.35 2.32-.533 4.66-.49 6.99l12.35-.375c-.27-2.125-.73-4.228-1.276-6.31-1.55 1.35-3.23 2.614-4.99 3.837z" fill="#325a78"/><path d="M475.602 476.99c-1.507 2.246-3.36 4.216-5.442 6.027.545 2.08 1.006 4.184 1.276 6.31l5.637-.173c.093-4.15-.197-8.315-1.47-12.164z" fill="#fecf0a"/><path d="M477.405 473.803l-.028.06c-.518 1.102-1.113 2.14-1.775 3.127 1.274 3.848 1.563 8.013 1.47 12.164l1.985-.06s0-9.903-1.652-15.29z" fill="#325a78"/><path fill="#3f9383" d="M444.785 498.278h36.736v60.032H444.79z"/><path fill="#f2653e" d="M440.978 486.278h43.684v46.372h-43.684z"/><path fill="#fecf0a" d="M458.225 486.182h12.32v71.904h-12.32z"/><path fill="#325a78" d="M458.225 488.87h12.37v3.55h-12.37zm0 7.32h12.37v3.55h-12.37zm0 7.32h12.37v3.55h-12.37zm0 7.32h12.37v3.55h-12.37zm0 7.32h12.37v3.55h-12.37zm0 7.32h12.37v3.55h-12.37zm0 7.32h12.37v3.55h-12.37zm0 7.32h12.37v3.55h-12.37zm0 7.32h12.37v3.55h-12.37zm0 7.32h12.37v3.55h-12.37zm-62.247 10.6h83.327v44.8h-83.327z"/><path fill="#8cb25a" d="M393.113 558.693h88.91v23.535h-88.91z"/><circle cx="398.823" cy="576.775" r="2.054" fill="#507b4c"/><circle cx="405.498" cy="570.1" r="2.054" fill="#507b4c"/><circle cx="398.566" cy="563.169" r="2.054" fill="#507b4c"/><circle cx="413.456" cy="576.775" r="2.054" fill="#507b4c"/><circle cx="420.13" cy="570.1" r="2.054" fill="#507b4c"/><circle cx="413.199" cy="563.169" r="2.054" fill="#507b4c"/><circle cx="428.089" cy="576.775" r="2.054" fill="#507b4c"/><circle cx="434.763" cy="570.1" r="2.054" fill="#507b4c"/><circle cx="427.832" cy="563.169" r="2.054" fill="#507b4c"/><circle cx="442.721" cy="576.775" r="2.054" fill="#507b4c"/><circle cx="449.396" cy="570.1" r="2.054" fill="#507b4c"/><circle cx="442.464" cy="563.169" r="2.054" fill="#507b4c"/><circle cx="457.354" cy="576.775" r="2.054" fill="#507b4c"/><circle cx="464.028" cy="570.1" r="2.054" fill="#507b4c"/><circle cx="457.097" cy="563.169" r="2.054" fill="#507b4c"/><circle cx="471.986" cy="576.775" r="2.054" fill="#507b4c"/><circle cx="478.661" cy="570.1" r="2.054" fill="#507b4c"/><circle cx="471.73" cy="563.169" r="2.054" fill="#507b4c"/><path fill="#598baa" d="M401.38 582.25h4.48v27.777h-4.48zm9.63 0h4.48v27.777h-4.48zm9.632 0h4.48v27.777h-4.48zm9.632 0h4.48v27.777h-4.48zm9.632 0h4.48v27.777h-4.48zm9.632 0h4.48v27.777h-4.48zm9.632 0h4.48v27.777h-4.48zm9.632 0h4.48v27.777h-4.48z"/><path fill="#52342e" d="M426.466 558.73h23.072v51.297h-23.072z"/><path fill="#966657" d="M436.298 565.947l1.592-3.226 1.593 3.23 3.56.518-2.576 2.51.608 3.547-3.185-1.674-3.184 1.674.608-3.546-2.576-2.51zm0 16.24l1.592-3.226 1.593 3.23 3.56.518-2.576 2.51.608 3.547-3.185-1.674-3.184 1.674.608-3.546-2.576-2.51zm0 16.24l1.592-3.226 1.593 3.23 3.56.517-2.576 2.512.608 3.545-3.185-1.675-3.184 1.674.608-3.546-2.576-2.512z"/><path d="M165.6 358.25l-.168.074c-2.854 1.272-5.96 3.053-6.655 6.39-.608 2.92.49 6.613 3.205 8.306 1.88 1.173 4.333 1.196 6.644.864-2.553-4.662-3.56-10.243-3.025-15.634z" fill="#526778"/><path d="M177.808 354.647c-.3.077-.513.173-.58.295l-.607.14c0 .002 0 .002-.003.003-3.275.76-6.595 1.453-9.692 2.627-.445.17-.886.348-1.32.538-.535 5.39.47 10.972 3.023 15.634.2-.03.4-.06.6-.094.784-.134 1.546-.3 2.253-.47 3.124-.746 6.07-1.78 8.957-2.995-1.86-4.997-2.765-10.332-2.627-15.678z" fill="#88b0cd"/><path d="M185.993 355.295c-1.065-.86-2.773-1.035-4.01-.982-.682.03-3.05.046-4.175.335-.14 5.346.768 10.68 2.628 15.678.175-.073.35-.147.523-.222l.37-.16c2.83-1.2 5.97-2.46 6.962-5.644.8-2.566-.114-7.24-2.302-9.005zm-25.03 11.523l-7.987-3.414 2.414 10.928 5.72-5.107m25.293-10.7l7.04-6.02 2.177 11.41-7.325-2.674" fill="#526778"/><path d="M172.874 366.884c.037.033.037.066 0 .1-.557.18-1.418-.62-1.81-.907-.81-.59-1.54-1.41-1.758-2.413-.148-.68-.006-1.556.817-1.555.672 0 1.168.61 1.582 1.07-.318-.22-.323-.85-.235-1.167.132-.476.474-.906.897-1.184.406-.266.924-.34 1.27.027.353.37.554.7.65 1.2.098.517.147.945.034 1.462-.092.44-.25.84-.374 1.27-.22.776-.683 1.38-.917 2.123l-.01-.07" fill="#fff"/><path d="M157.042 370.692c-.047.015-.076.032-.128.02.124-.128.284-.176.425-.28.26-.195.494-.452.74-.67.18-.157 1.115-.99.962-1.214m-3.027-.5c.195.267 1.27.162 1.6.195.204.02.995.17 1.065.096m-2.337-1.92c.532.236 1.124.324 1.654.57.35.165.657.474 1.007.613m28.92-8.994c-.04.037-.044.04-.008.007.152-.165.383-.236.577-.337.482-.25.968-.453 1.462-.68.636-.29 1.368-.725 2.06-.855-.03.023-.058.048-.086.073m-3.597 2.852c-.052.036-.053.06-.004.067 1.193-.456 2.424-.572 3.657-.83-.047.034-.088.083-.137.115m-3.15 1.655c.253.087.616.01.89.024.54.03 1.083.03 1.624.07.42.04 1.103.02 1.463.276" fill="none" stroke="#010101" stroke-width="3.091" stroke-linecap="round" stroke-linejoin="round"/><circle cx="395.936" cy="303.152" r="64.163" fill="#abdcd3"/><circle cx="395.936" cy="303.6" r="56.099" fill="none" stroke="#baaad3" stroke-width="10.868" stroke-dasharray="21.7358, 21.7358, 21.7358, 21.7358, 21.7358, 21.7358"/><circle cx="396.384" cy="303.152" r="48.035" fill="#658eb6"/><circle cx="372.085" cy="327.003" r="2.687" fill="#abdcd3"/><circle cx="393.797" cy="320.57" r="2.687" fill="#abdcd3"/><circle cx="400.633" cy="339.065" r="2.687" fill="#abdcd3"/><circle cx="423.35" cy="326.802" r="2.687" fill="#abdcd3"/><circle cx="362.056" cy="289.597" r="2.687" fill="#abdcd3"/><circle cx="379.748" cy="272.107" r="2.687" fill="#abdcd3"/><circle cx="393.619" cy="289.597" r="2.687" fill="#abdcd3"/><circle cx="411.11" cy="273.313" r="2.687" fill="#abdcd3"/><circle cx="428.399" cy="285.979" r="2.687" fill="#abdcd3"/><path d="M416.972 609.838c-2.53 11.84-8.725 19.8-19.488 19.8h-99.007c-10.763 0-19.488-8.864-19.488-19.8l45.692-187.085c2.576-12.028 8.725-19.8 19.488-19.8h99.008c10.762 0 21.635 8.17 19.487 19.8L416.97 609.838z" fill="#d1315e"/><path d="M413.836 602.984c-2.53 11.653-8.725 19.488-19.488 19.488H295.34c-10.762 0-19.487-8.725-19.487-19.488l45.696-184.127c2.572-11.837 8.72-19.488 19.484-19.488h99.007c10.764 0 21.637 8.04 19.49 19.484L413.833 602.98z" fill="#f16ea6"/><path d="M410.233 596.507c-2.383 10.97-8.215 18.35-18.35 18.35l-91.41-.25c-10.133 0-18.348-8.214-18.348-18.348l43.025-173.37c2.426-11.146 8.215-18.35 18.35-18.35l91.41.25c10.133 0 20.37 7.572 18.348 18.348l-43.025 173.366z" fill="#d1315e"/><path fill="#802f4a" d="M289.366 587.67H407.19l37.11-151.117H326.03z"/><ellipse cx="341.156" cy="600.328" rx="13.94" ry="4.586" fill="#802f4a"/><path fill="#802f4a" d="M368.303 424.423l1.834-5.87h36.685l-1.834 5.87z"/><path fill="#fecf0a" d="M372.915 399.433H407.9l-104.995 94.23 11.244-44.943z"/><path fill="none" stroke="#d1315e" stroke-width="10" stroke-dasharray="20, 20, 20, 20, 20, 20" d="M313.124 453.22l64.182-54.1m-71.576 87.03l98.46-86.695"/><path d="M343.585 421.13c1.12-3.307 2.86-6.242 4.9-9.128 1.098-1.553 2.29-3.136 3.594-4.48 1.133-1.172 2.38-1.53 4.16-1.2 2.2.41 3.18.91 4.14 2.75.88 1.687 1.55 3.625 2.04 5.512.384 1.492.342 3.234.4 4.74.05 1.453.112 3.308-.48 4.653-1.423 3.243-5.05 3.28-8.15 2.713-1.716-.314-3.393-.72-5.05-1.267-1.44-.476-2.655-1.4-3.862-2.185m-10.535 12.82c.01-.077-.008-.145-.052-.207-.373.018-.86 1.01-1.03 1.31-.592 1.043-1.066 2.19-1.53 3.29-.86 2.05-1.306 4.138-1.67 6.326-.44 2.66-1.002 6.122.855 8.395 3.458 4.23 9.774.103 13.228-2.06.538-.334 1.012-.77 1.51-1.145.448-.34.922-.633 1.348-1 .67-.573 1.336-1.09 1.62-1.958.53-1.622.18-3.325-.48-4.807-.68-1.53-2.013-2.784-3.324-3.797-1.546-1.194-3.21-2.32-5.037-3.1-1.504-.644-3.328-1.518-4.95-1.328.11.115.18.07.312.072m12.86 11.893c-.07-.03-.14-.035-.212-.012-.1.36.7 1.126.934 1.38.812.882 1.76 1.683 2.67 2.458 1.69 1.445 3.54 2.506 5.514 3.518 2.4 1.23 5.526 2.82 8.257 1.744 5.085-2.005 3.076-9.278 2.07-13.226-.158-.615-.427-1.198-.633-1.786-.185-.53-.32-1.072-.54-1.59-.344-.81-.633-1.603-1.373-2.137-1.385-1-3.114-1.188-4.727-1.01-1.66.182-3.263 1.072-4.626 2.012-1.608 1.11-3.187 2.352-4.488 3.853-1.07 1.235-2.46 2.706-2.773 4.31.142-.07.12-.15.164-.277" fill="#fbaa19"/><path d="M333.347 423.056c4.673 2.213 10.002 3.45 15.122 2.668.013-.337-.036-.618-.18-.808l.07-.85c-.92-.223-1.964-.91-2.774-1.375-1.106-.63-2.257-1.153-3.338-1.79-1.825-1.074-3.977-1.785-6.01-2.473-2.43-.824-7.115-2.33-8.54.697.967 2.183 3.58 2.97 5.644 3.936z" fill="#af5a26"/><path d="M333.347 423.056c-2.067-.966-4.677-1.754-5.648-3.936l-.06.117c-1.347 3.16.03 7.222.456 10.46.434 3.305 2.114 6.79 4.177 9.36 1.078 1.343 3.156 2.997 5.042 2.694 2.087-.33 4.08-3.01 5.214-4.54 1.403-1.882 2.84-3.92 3.795-5.992.45-.975 2.056-3.89 2.138-5.492-5.118.783-10.448-.453-15.12-2.667z" fill="#fbaa19"/><path d="M358.673 430.294c5.15-.476 10.365-2.126 14.372-5.406-.157-.3-.342-.516-.562-.606l-.374-.767c-.908.277-2.157.22-3.09.23-1.275.018-2.53.154-3.787.157-2.117.005-4.33.49-6.432.932-2.51.53-7.31 1.618-6.995 4.95 1.947 1.384 4.594.732 6.865.51z" fill="#af5a26"/><path d="M358.673 430.294c-2.27.22-4.918.873-6.865-.51.004.043.005.085.01.13.45 3.403 3.705 6.2 5.722 8.768 2.058 2.622 5.28 4.766 8.363 5.927 1.612.602 4.242.97 5.71-.25 1.627-1.356 1.977-4.678 2.177-6.567.247-2.338.444-4.823.212-7.093-.11-1.067-.212-4.395-.957-5.814-4.007 3.28-9.224 4.93-14.372 5.406z" fill="#fbaa19"/><path d="M356.963 423.908c-2.096-.71-4.38-1.187-6.577-1.303-1.57-.083-2.844.003-4.08 1.2-1.538 1.492-2.86 3.63-4.03 5.472-1.328 2.09-2.527 4.214-3.724 6.318-.754 1.326-1.694 3.327-1.9 4.895-.218 1.65 1.26 2.886 2.556 3.484 3.335 1.537 7.247 2.168 10.75 2.557 2.54.287 5.38.757 7.917.098 3.024-.785 3.357-4.744 3.137-7.32-.235-2.753-.554-5.596-1.26-8.268-.574-2.183-1.015-4.923-2.385-6.79.283.03.163.177.25.318" fill="#fecf0a"/><path d="M327.425 423.766c2.242 1.83 4.772 2.906 7.583 3.494 1.193.25 2.44.415 3.586.556 1.06.13 2.343.365 3.383.22m13.423-20.218c-.394 1.088-1.288 2.083-1.78 3.172-.654 1.442-1.586 2.785-2.265 4.223-.922 1.95-1.74 3.865-2.452 5.964m12.74 12.206c.004-.193 5.458-.818 6.304-1.14 1.454-.554 2.982-1.24 4.215-2.09m-36.17 13.61c-.58.183-.98 1.59-1.19 2.22-.393 1.18-1.137 2.21-1.39 3.437-.337 1.66-.49 3.356-1.015 4.96m29.313-7.606c.912-.797 2.877 2.843 3.2 3.495.666 1.35 1.29 3.19.83 4.66m-26.473-16.135c7.132 2.415 13.684 4.32 21.167 3.078" fill="none" stroke="#d1315e" stroke-width="10" stroke-dasharray="20, 20, 20, 20, 20, 20"/><path d="M355.23 311.612v-13.146h4.26c1.612 0 2.664.066 3.154.197.753.197 1.383.626 1.89 1.287.51.66.763 1.514.763 2.56 0 .808-.146 1.487-.44 2.037-.292.55-.663.982-1.114 1.296-.45.314-.91.522-1.375.623-.633.126-1.55.188-2.75.188h-1.727v4.956h-2.66zm2.66-10.92v3.738h1.452c1.045 0 1.744-.07 2.096-.207.352-.138.628-.353.83-.647.2-.294.3-.635.3-1.024 0-.48-.14-.875-.422-1.186-.28-.31-.636-.506-1.066-.584-.317-.06-.952-.09-1.908-.09h-1.28zm9.59 10.92v-13.146h5.586c1.405 0 2.426.118 3.062.354.637.236 1.146.656 1.53 1.26.382.604.573 1.294.573 2.07 0 .988-.285 1.802-.864 2.445-.58.643-1.444 1.048-2.595 1.215.57.335 1.044.703 1.417 1.103.372.4.875 1.112 1.506 2.134l1.605 2.565h-3.174l-1.906-2.866c-.682-1.02-1.15-1.663-1.4-1.93-.25-.265-.518-.447-.8-.545-.28-.094-.726-.144-1.336-.144h-.54v5.488h-2.66zm2.66-7.588h1.963c1.273 0 2.068-.054 2.385-.16.317-.108.565-.293.744-.556.18-.263.27-.59.27-.985 0-.442-.12-.8-.355-1.07-.236-.272-.57-.443-1-.515-.215-.03-.86-.045-1.937-.045h-2.07v3.33zm10.6 7.588v-13.146h9.744v2.226H383.4v2.912h6.594v2.226H383.4v3.556h7.336v2.226h-9.996zm11.548-4.27l2.59-.252c.155.867.47 1.504.945 1.91.475.407 1.115.61 1.92.61.855 0 1.498-.18 1.93-.543.434-.362.65-.785.65-1.27 0-.31-.09-.574-.273-.793-.182-.218-.5-.408-.953-.57-.31-.108-1.018-.3-2.12-.574-1.42-.353-2.418-.787-2.99-1.3-.807-.725-1.21-1.607-1.21-2.648 0-.67.19-1.297.57-1.88.38-.583.926-1.027 1.64-1.333.714-.31 1.575-.46 2.585-.46 1.648 0 2.89.362 3.722 1.09.833.73 1.27 1.7 1.312 2.912l-2.66.098c-.113-.675-.356-1.162-.73-1.46-.372-.294-.93-.443-1.676-.443-.77 0-1.372.158-1.807.475-.28.204-.42.476-.42.817 0 .31.13.576.394.8.334.28 1.147.572 2.438.88 1.29.302 2.245.62 2.863.943.618.326 1.102.77 1.452 1.336.35.565.524 1.263.524 2.094 0 .753-.21 1.46-.628 2.116-.42.66-1.01 1.148-1.777 1.468-.77.32-1.72.48-2.866.48-1.663 0-2.94-.385-3.83-1.152-.894-.768-1.426-1.886-1.6-3.356zm12.947 4.27v-13.146h9.744v2.226h-7.088v2.912h6.594v2.226h-6.595v3.556h7.337v2.226h-9.996zm12.262 0v-13.146h2.58l5.386 8.787v-8.787h2.464v13.146h-2.662l-5.304-8.6v8.6h-2.46zm16.215 0v-10.92h-3.906v-2.226h10.444v2.226h-3.878v10.92h-2.66z" fill="#abdcd3"/><path d="M397.92 352.202l-10.304-6.72v15.232zm-.382-.066l10.303-6.72v15.232z" fill="#dc2e2b"/><path fill="#553c23" d="M209.938 504.597l39.674 19.893 2.052-26.167-24.385-12.543z"/><path fill="#b03a39" d="M227.28 485.78l2.91 23.664 21.474-11.12z"/><path fill="#d64e4d" d="M273.793 489.586l18.453 9.252-40.594-.108-24.373-12.95z"/><path fill="#845c36" d="M297.22 517.307l-47.608 7.183 1.597-25.824 41.033.172z"/><path fill="#fecf0a" d="M279.512 520.133l-1.873-21.185-21.11-10.9-11.57-.897 22.813 11.6.227 22.89z"/><path d="M152.938 401.282c-1.247-.624-2.482-1.255-3.71-1.887-3.708.597-7.192 1.865-10.322 3.677 12.953 5.933 25.8 11.414 38.646 17.764 2.144 1.06 4.28 2.087 6.407 3.108-.55-3.03-1.546-5.9-2.92-8.547-7.91-3.775-15.81-7.577-23.732-11.8-1.543-.857-2.915-1.628-4.373-2.315z" fill="#325a78"/><path d="M192.732 414.233l-24.874-11.93c-4.133-2.106-8.812-3.295-13.77-3.295-1.655 0-3.278.133-4.86.388 1.228.632 2.463 1.263 3.71 1.887 1.458.686 2.83 1.458 4.374 2.316 7.922 4.22 15.82 8.02 23.733 11.795-.34-.657-.704-1.3-1.09-1.928l12.777.762zm-15.18 6.603c-12.847-6.35-25.694-11.83-38.646-17.764-2.553 1.478-4.87 3.316-6.884 5.447 3.32 1.364 6.605 2.72 9.853 4.51.772.342 1.544.43 2.316.77.69.344 1.376.944 2.06 1.287 5.748 2.572 11.15 5.574 16.81 8.404 7.038 3.52 14.07 6.8 21.095 10.077.19-1.375.29-2.78.29-4.21 0-1.848-.165-3.658-.482-5.416-2.127-1.02-4.264-2.046-6.407-3.107z" fill="#bb3626"/><path d="M146.248 415.09c-.686-.343-1.372-.943-2.058-1.286-.772-.343-1.544-.43-2.316-.772-3.248-1.792-6.532-3.145-9.853-4.513-2.045 2.164-3.78 4.633-5.12 7.33 6.792 2.93 13.586 5.408 20.38 8.156 7.117 2.83 14.15 5.316 21.183 8.404 4.87 2.13 9.646 4.38 14.403 6.636.592-1.76 1.027-3.593 1.288-5.48-7.02-3.277-14.056-6.558-21.092-10.076-5.66-2.83-11.062-5.83-16.81-8.403z" fill="#325a78"/><path d="M147.277 424.01c-6.793-2.748-13.587-5.225-20.38-8.155-1.217 2.445-2.114 5.08-2.635 7.844 12.15 4.86 24.23 9.08 36.31 14.2 6.372 2.686 12.688 5.334 18.983 7.98 1.372-2.11 2.49-4.402 3.308-6.832-4.756-2.255-9.532-4.505-14.402-6.635-7.03-3.09-14.06-5.576-21.18-8.406z" fill="#bb3626"/><path d="M124.262 423.698c-.346 1.835-.528 3.728-.528 5.663 0 1.1.06 2.18.173 3.247 16.756 6.773 33.67 12.68 50.68 19.143 1.892-1.735 3.564-3.705 4.97-5.866-6.296-2.645-12.613-5.293-18.985-7.98-12.08-5.12-24.16-9.343-36.31-14.204z" fill="#325a78"/><path d="M126.662 442.38c9.98 3.59 20.042 7 30.135 10.618 3.454 1.264 6.88 2.527 10.296 3.797 2.75-1.306 5.274-3.014 7.493-5.047-17.01-6.462-33.924-12.37-50.68-19.143.368 3.465 1.32 6.757 2.756 9.775zm16.496 15.308l19.13 8.658-3.23-5.12c-8.944-3.403-17.845-6.764-26.588-10.558 2.998 3.04 6.632 5.454 10.688 7.02z" fill="#bb3626"/><path d="M167.093 456.794c-3.417-1.27-6.842-2.533-10.296-3.797-10.093-3.62-20.157-7.027-30.135-10.618 1.467 3.08 3.44 5.88 5.81 8.283 8.742 3.795 17.643 7.155 26.586 10.56l-1.107-1.756c3.238-.41 6.31-1.33 9.146-2.677z" fill="#325a78"/><circle cx="174.361" cy="438.475" r="30.354" fill="#3f9383"/><path d="M195.977 441.33c1.49-.083 2.672-1.317 2.672-2.827 0-1.563-1.27-2.83-2.83-2.83h-.005l-.023-.164c1.244-.3 2.168-1.42 2.168-2.756 0-1.563-1.266-2.83-2.83-2.83-.074 0-.15.004-.222.01.61-.52.994-1.29.994-2.154 0-1.562-1.267-2.83-2.83-2.83-.206 0-.406.024-.6.065.218-.4.343-.862.343-1.35 0-1.564-1.267-2.83-2.83-2.83-.49 0-.95.123-1.35.342.04-.194.063-.395.063-.6 0-1.564-1.266-2.83-2.83-2.83-.862 0-1.634.385-2.153.994.006-.072.01-.146.01-.22 0-1.564-1.267-2.83-2.83-2.83-1.225 0-2.268.78-2.662 1.866-.314-1.22-1.422-2.124-2.74-2.124-1.06 0-1.98.58-2.467 1.44-.437-1-1.434-1.697-2.594-1.697-1.563 0-2.83 1.267-2.83 2.83v.042c-.518-.603-1.286-.985-2.144-.985-1.563 0-2.83 1.267-2.83 2.83 0 .477.118.926.327 1.32-.487-.396-1.108-.634-1.785-.634-1.563 0-2.83 1.266-2.83 2.83 0 .806.338 1.534.88 2.05l-.142.175c-.514-.525-1.23-.853-2.025-.853-1.563 0-2.83 1.267-2.83 2.83 0 .947.466 1.785 1.18 2.3-.29-.1-.6-.156-.923-.156-1.563 0-2.83 1.268-2.83 2.83 0 1.564 1.267 2.83 2.83 2.83.115 0 .227-.007.338-.02-.017.11-.03.22-.046.33-.178-.033-.36-.052-.55-.052-1.562 0-2.83 1.268-2.83 2.83 0 1.4 1.015 2.56 2.348 2.79-1.025.424-1.747 1.435-1.747 2.614 0 1.563 1.267 2.83 2.83 2.83.477 0 .925-.118 1.32-.326.05.124.104.25.158.373-1.02.43-1.733 1.436-1.733 2.61 0 1.564 1.267 2.83 2.83 2.83.69 0 1.324-.247 1.815-.658l.017.02c-.345.468-.548 1.045-.548 1.67 0 1.562 1.267 2.83 2.83 2.83.313 0 .615-.053.896-.147-.08.263-.125.542-.125.832 0 1.563 1.268 2.83 2.83 2.83 1.15 0 2.14-.687 2.583-1.672-.062.233-.095.477-.095.73 0 1.562 1.268 2.83 2.83 2.83.958 0 1.803-.476 2.315-1.202.306 1.232 1.42 2.145 2.746 2.145 1.497 0 2.72-1.16 2.823-2.63.498.807 1.39 1.345 2.41 1.345 1.562 0 2.83-1.267 2.83-2.83l-.003-.092c.513.73 1.36 1.207 2.32 1.207 1.562 0 2.83-1.268 2.83-2.83 0-.395-.08-.77-.228-1.11.356.16.752.25 1.17.25 1.562 0 2.83-1.266 2.83-2.83 0-.45-.107-.875-.294-1.254.177.035.36.054.55.054 1.563 0 2.83-1.266 2.83-2.83 0-.8-.334-1.524-.87-2.04.198.044.403.068.613.068 1.563 0 2.83-1.267 2.83-2.83 0-1.33-.92-2.447-2.157-2.75zm-39.846-11.043l.14.043-.02.045c-.04-.03-.076-.06-.116-.088z" fill="#802f4a"/><path fill="#f05353" d="M175.647 425.83l-12.716-3.717v9.977l13.01-6.26m-.105.098l12.333-3.717v9.98l-12.618-6.26"/><path d="M164.62 446.624c.305.336 3.897-2.638 4.388-3.27.84-1.08 1.14-2.67 1.594-3.94.268-.752.918-1.98.67-2.79-1.27-.297-3.397 3.09-3.832 4.075-.582 1.313-1.31 3.964-.772 5.42.68 1.842 3.1.033 4.066-.528 1.385-.805 4.26-2.136 4.662-3.84-1.332 1.053-2.705 2.44-2.5 4.316 2.68.532 2.606-2.03 2.83-3.78 1.797-.6 1.816 2.756 2.07 3.786 1.462.043 2.532-3.76 3.514-4.578-.416 1.094-1.11 3.947 1.08 3.59 1.014-.163 2.818-2.51 1.338-3.06-.665.746-2.217 3.083-1.04 4.04 1.015.825 3.627-.885 4.288-1.576.045-.154-.03-.216-.224-.187" fill="none" stroke="#fff" stroke-width="7" stroke-linecap="round" stroke-linejoin="round"/><path d="M117.95 419.018c-.312 1.524-.69 2.46-.687 4.117m-.686-4.46c-.373 1.46-1.13 2.844-.343 4.46m90.223 24.355c-.2.864.36 1.303.36 2.05 0 .735-.378 1.45-.703 2.067m2.058-4.117c.26 1.096.98 3.29-.343 4.118" fill="none" stroke="#010101" stroke-width="5" stroke-linecap="round" stroke-linejoin="round"/><path fill="#f36d21" d="M112.763 290.643l35.336-14.84 22.97-2.2-40.465 16.49"/><path fill="#f05353" d="M130.383 289.59l-17.62 1.053 12.593 33.89 21.014 5.748-15.096-40.622"/><path fill="#fecf0a" d="M187.06 314.31l-40.688 15.987-15.988-40.688 40.688-15.99z"/><path fill="#386c6c" d="M148.185 282.63l7.016-2.605 15.16 40.795-7.014 2.607zm-10.65 24.66l40.795-15.16 2.27 6.108-40.797 15.158z"/><path d="M157.35 300.13s-5.924-8.006-8.893-5.497c-2.97 2.51-7.897 14.276 7.436 10.12m9.13-4.11s8.006-5.924 5.497-8.893c-2.51-2.97-14.276-7.897-10.12 7.436m-.183 8.17s.696 9.808-3.185 9.864c-3.88.055-15.252-5.518-.92-12.365m9.596-2.855s9.92-.778 9.94 3.062c.02 3.84-5.716 15.144-12.505 1.022" fill="#f05353"/><circle cx="159.813" cy="302.689" r="7.402" fill="#feda00"/><circle cx="159.979" cy="302.727" r="5.2" fill="#386c6c"/><path fill="#1e3f3e" d="M127.433 284.56l8.805-3.82 18.964-.723-7.016 2.607zm-8.973 21.343l2.164 5.823 19.18 1.66-2.27-6.105z"/><path d="M108.4 288.418c-1.765-.353-1.37 2.955-1.372 3.087m-1.372-4.115c-.907 1.162-.686 3.316-.686 4.802m86.792 19.21c-.132 1.32.49 2.396.266 3.747-.212.05-.3-.06-.266-.32m2.058-3.43c.02 1.438.334 2.37 0 3.775" fill="none" stroke="#010101" stroke-width="5" stroke-linecap="round" stroke-linejoin="round"/><path fill="#325a78" d="M209.595 399.793l21.095-15.164 40.01 55.66-21.094 15.16z"/><path fill="#8cb25a" d="M249.204 356.736l32.525 45.247-10.43 39.305-40.627-56.653z"/><path fill="#234254" d="M232.746 368.104l-23.165 31.694 21.177-14.378 18.45-28.684z"/><path fill="#94a848" d="M211.79 402.76l-1.097-1.527 21.372-14.53 1.096 1.525zm2.243 3.12l-1.096-1.526 21.37-14.53 1.098 1.526zm2.243 3.12l-1.096-1.524 21.372-14.53 1.096 1.525zm2.244 3.122l-1.096-1.525 21.37-14.53 1.098 1.525zm2.244 3.12l-1.097-1.524 21.372-14.53 1.092 1.525zm2.243 3.122l-1.096-1.525 21.376-14.53 1.096 1.52zm2.243 3.12l-1.096-1.524 21.372-14.53 1.096 1.525zm2.244 3.123l-1.096-1.526 21.372-14.53 1.096 1.53zm2.244 3.12l-1.097-1.525 21.376-14.53 1.097 1.525zm2.242 3.123l-1.095-1.526 21.372-14.53 1.096 1.525zm2.245 3.12l-1.097-1.525 21.372-14.53 1.097 1.525zm2.243 3.12l-1.096-1.524 21.372-14.53 1.096 1.525zm2.244 3.122l-1.097-1.525 21.372-14.53 1.097 1.525zm2.243 3.12l-1.096-1.524 21.37-14.53 1.094 1.525zm2.245 3.123l-1.098-1.526 21.372-14.53 1.097 1.52zm2.242 3.12l-1.096-1.525 21.372-14.53 1.096 1.526zm2.244 3.122l-1.097-1.525 21.37-14.53 1.095 1.525zm2.244 3.12l-1.097-1.524 21.372-14.53 1.096 1.525zm-17.9-72.47l.812-1.19-20.268 13.526-1.11 1.542zm2.08-3.14l.813-1.19-19.82 13.21-1.11 1.54zm2-3.077l.81-1.188-19.29 12.83-1.108 1.54zm1.94-3.064l.812-1.19-18.704 12.44-1.108 1.542zm1.984-3.096l.812-1.19-18.16 12.08-1.108 1.542zm1.983-3.097l.812-1.19-17.62 11.72-1.107 1.543zm2.005-3.113l.81-1.188-17.09 11.377-1.108 1.54zm2.046-3.14l.812-1.19-16.61 11.063-1.108 1.54zm1.942-3.066l.81-1.19-16.02 10.673-1.11 1.542z"/><path d="M254.695 391.91s-8.472-4.2-10.176 2.054c-1.708 6.255 11.56 19.317 25.31 11.858 0 0 .03-15.374-6.22-22.104-6.254-6.73-14.75-3.096-8.918 8.192z" fill="#234254"/><path d="M204.557 400.198c-1.14 1.173.135 2.997 1.01 3.87m-2.69-2.154c.266.825.237 3.243 1.486 2.895m78.277-7.377c.458.435 1.026.5 1.478.944.452.443.53 1.01.974 1.457m-1.006-3.385c1.21.15 1.77 1.33 1.966 2.403" fill="none" stroke="#010101" stroke-width="5" stroke-linecap="round" stroke-linejoin="round"/><path fill="#dc2e2b" d="M137.455 524.742l44.402-31.085 24.396 34.848-44.402 31.085z"/><path fill="#b22725" d="M122.648 526.728l37.095-25.972 22.13-7.12-44.4 31.088z"/><path fill="#f15f5f" d="M161.87 559.57l-15.682-.117-23.497-32.726 14.786-2.003z"/><path fill="#405f3b" d="M155.51 512.103l8.15-5.706 24.298 34.707-8.15 5.706zm-3.256 33.72l-5.017-7.167 44.382-31.034 5.013 7.166z"/><path fill="#263a22" d="M132.184 540.048l4.574 6.534 15.496-.76-5.017-7.166zm8.413-25.912l8.187-5.732 14.894-2.028-8.15 5.706zm25.76 20.75l3.307 14.52 2.468-7.756 7.448 5.592-7.575-19.428m8.48-3.027l12.51 8.074-8.13-.33 2.706 8.91-15.66-13.763"/><path d="M153.553 524.815c-2.083 1.613-1.962 3.237-.636 5.406 1.33 2.18 2.882 4.26 4.464 6.26 1.045 1.314 1.82 2.537 3.23 3.01-.21-2.41.435-4.812 1.77-6.995 1.778-2.984 4.86-4.937 8.216-5.775-5.044-2.6-11.747-6-17.04-1.903z" fill="#263a22"/><path d="M162.38 532.492c-1.338 2.183-1.978 4.586-1.77 6.996.354.12.747.19 1.195.206 2.147.07 3.903-1.203 5.127-2.89.896-1.237 1.73-2.706 2.323-4.076.342-.79.705-1.543 1.098-2.32.38-.752.43-1.592.796-2.244-.037-.19-.148-.26-.336-.206l.093-1.077-.318-.16c-3.356.838-6.44 2.79-8.213 5.775z" fill="#405f3b"/><path d="M174.305 509.833c2.152-1.514 3.67-.92 5.353.983 1.69 1.91 3.225 4.003 4.67 6.1.95 1.38 1.893 2.48 1.93 3.968-2.242-.908-4.726-1.004-7.205-.368-3.372.815-6.143 3.184-7.927 6.14-1.005-5.58-2.29-12.977 3.18-16.823z" fill="#263a22"/><path d="M179.054 520.516c2.48-.636 4.963-.54 7.206.368.01.373-.036.77-.154 1.2-.564 2.07-2.294 3.372-4.266 4.044-1.444.492-3.092.856-4.576 1.02-.854.093-1.682.218-2.54.364-.83.14-1.646-.058-2.377.1-.172-.086-.205-.212-.1-.377l-1.057-.228-.063-.35c1.784-2.957 4.554-5.326 7.927-6.14z" fill="#405f3b"/><path d="M170.455 524.033c-.533 1.036-2.966.657-2.782 2.563.09.93 1.577 3.216 2.645 3.313.753.064 2.777-1.23 2.89-2.058.11-.804-1.61-2.915-2.37-3.086" fill="#263a22"/><path d="M118.137 521.29c-.123 1.298-.676 2.28-.686 3.775m-.684-3.775c-1.31.18-1.03 2.78-1.03 3.775m95.025 4.46l-.197-.31c.812 1.287.463 2.126-.144 3.397m1.37-3.088c.22-.058.433-.04.636.052.112.874.053 1.8.052 2.693m-2.745-38.425c-1.194.527-1.02 2.328-1.03 3.43m-.685-3.773c-1.177.31-1.02 2.463-1.03 3.43M335.3 556.94c.853.912.448 2.84.447 4.03m2.24-4.48c1.303.598 1.238 3.455.448 4.48m-8.96-19.71c7.433.06 16.94 4.162 21.952 9.855m-17.472-1.792c6.237-.297 14.296.15 19.264 4.928m-249.91-181.8c.685 1.038.66 2.446.67 3.696m1.01-4.032c.776.58 1.567 3.46.335 4.032" fill="none" stroke="#010101" stroke-width="5" stroke-linecap="round" stroke-linejoin="round"/><path fill="#a09f9f" d="M452.756 261.78l27.113 22.56-3.31-28.96-21.04-28.023z"/></g></svg>