<svg xmlns="http://www.w3.org/2000/svg" width="800" height="800" viewBox="0 0 800 800"><title>Fortalecer relaciones</title><defs><filter id="a" x="-1.037" width="3.074" y="-1.117" height="3.233" color-interpolation-filters="sRGB"><feGaussianBlur stdDeviation="307.525"/></filter><clipPath><path d="M483.41 554.55l-135.95 1.346-.657-66.415 135.95-1.34z"/></clipPath><clipPath><path d="M290.907 557.09l-135.952 1.345-.658-66.413 135.953-1.346z"/></clipPath><radialGradient cx="286.342" cy="1010.726" r="8.723" gradientTransform="matrix(-2.333 -.031 .008 -.417 957.597 665.313)" gradientUnits="userSpaceOnUse"><stop offset="0" stop-color="#D7D6D5"/><stop offset=".095" stop-color="#CCCBCA"/><stop offset=".231" stop-color="#B5B3B3"/><stop offset=".393" stop-color="#939191"/><stop offset=".575" stop-color="#696767"/><stop offset=".773" stop-color="#3E3C3C"/><stop offset=".982" stop-color="#060606"/><stop offset=".994" stop-color="#010101"/></radialGradient><radialGradient cx="288.603" cy="929.008" r="13.677" gradientTransform="matrix(-2.059 -.023 .009 -.383 883.659 596.01)" gradientUnits="userSpaceOnUse"><stop offset="0" stop-color="#fff"/><stop offset=".859" stop-color="#fff"/><stop offset="1" stop-color="#fff"/></radialGradient><clipPath><path d="M143.348 496s2.305 8.896 0 23.717c-2.305 14.82-5.856 44.96 1.025 67.027 0 0 25.49 1.236 38.994-4.034 13.504-5.27 27.667-4.65 41.83.948 14.163 5.6 42.027 6.565 51.233 1.626 11.346-6.088 29.956-6.268 45.107.65 15.15 6.916 47.003 4.918 57.64-1.324 15.15-8.89 32.442-4.942 39.03-1.65 11.105 5.554 21.742 7 41.005 5.598 0 0-2.965-15.154-3.294-29.317-.33-14.16 4.94-39.24.988-63.24H143.348z"/></clipPath><clipPath><path d="M364.25 300.93c-23.78-17.457-97.887-17.457-121.67 0-25.19 18.49-35.006 56.7-5.033 87.66 0 0-24.334 44.486 8.932 74.788C264 479.34 279 481.808 303 481.84v.002c24-.034 39.658-2.48 57.183-18.444 33.266-30.302 8.997-74.808 8.997-74.808 29.973-30.96 20.26-69.17-4.93-87.66z"/></clipPath><clipPath><path d="M364.25 300.93c-23.78-17.457-97.887-17.457-121.67 0-25.19 18.49-35.006 56.7-5.033 87.66 0 0-24.334 44.486 8.932 74.788C264 479.34 279 481.808 303 481.84v.002c24-.034 39.658-2.48 57.183-18.444 33.266-30.302 8.997-74.808 8.997-74.808 29.973-30.96 20.26-69.17-4.93-87.66z"/></clipPath><clipPath><path d="M364.25 300.93c-23.78-17.457-97.887-17.457-121.67 0-25.19 18.49-35.006 56.7-5.033 87.66 0 0-24.334 44.486 8.932 74.788C264 479.34 279 481.808 303 481.84v.002c24-.034 39.658-2.48 57.183-18.444 33.266-30.302 8.997-74.808 8.997-74.808 29.973-30.96 20.26-69.17-4.93-87.66z"/></clipPath><clipPath><path d="M364.25 300.93c-23.78-17.457-97.887-17.457-121.67 0-25.19 18.49-35.006 56.7-5.033 87.66 0 0-24.334 44.486 8.932 74.788C264 479.34 279 481.808 303 481.84v.002c24-.034 39.658-2.48 57.183-18.444 33.266-30.302 8.997-74.808 8.997-74.808 29.973-30.96 20.26-69.17-4.93-87.66z"/></clipPath><clipPath><path d="M364.25 300.93c-23.78-17.457-97.887-17.457-121.67 0-25.19 18.49-35.006 56.7-5.033 87.66 0 0-24.334 44.486 8.932 74.788C264 479.34 279 481.808 303 481.84v.002c24-.034 39.658-2.48 57.183-18.444 33.266-30.302 8.997-74.808 8.997-74.808 29.973-30.96 20.26-69.17-4.93-87.66z"/></clipPath><clipPath><path d="M364.25 300.93c-23.78-17.457-97.887-17.457-121.67 0-25.19 18.49-35.006 56.7-5.033 87.66 0 0-24.334 44.486 8.932 74.788C264 479.34 279 481.808 303 481.84v.002c24-.034 39.658-2.48 57.183-18.444 33.266-30.302 8.997-74.808 8.997-74.808 29.973-30.96 20.26-69.17-4.93-87.66z"/></clipPath><clipPath><path d="M364.25 300.93c-23.78-17.457-97.887-17.457-121.67 0-25.19 18.49-35.006 56.7-5.033 87.66 0 0-24.334 44.486 8.932 74.788C264 479.34 279 481.808 303 481.84v.002c24-.034 39.658-2.48 57.183-18.444 33.266-30.302 8.997-74.808 8.997-74.808 29.973-30.96 20.26-69.17-4.93-87.66z"/></clipPath><clipPath><path d="M364.25 300.93c-23.78-17.457-97.887-17.457-121.67 0-25.19 18.49-35.006 56.7-5.033 87.66 0 0-24.334 44.486 8.932 74.788C264 479.34 279 481.808 303 481.84v.002c24-.034 39.658-2.48 57.183-18.444 33.266-30.302 8.997-74.808 8.997-74.808 29.973-30.96 20.26-69.17-4.93-87.66z"/></clipPath><clipPath><path d="M364.25 300.93c-23.78-17.457-97.887-17.457-121.67 0-25.19 18.49-35.006 56.7-5.033 87.66 0 0-24.334 44.486 8.932 74.788C264 479.34 279 481.808 303 481.84v.002c24-.034 39.658-2.48 57.183-18.444 33.266-30.302 8.997-74.808 8.997-74.808 29.973-30.96 20.26-69.17-4.93-87.66z"/></clipPath><clipPath><path d="M364.25 300.93c-23.78-17.457-97.887-17.457-121.67 0-25.19 18.49-35.006 56.7-5.033 87.66 0 0-24.334 44.486 8.932 74.788C264 479.34 279 481.808 303 481.84v.002c24-.034 39.658-2.48 57.183-18.444 33.266-30.302 8.997-74.808 8.997-74.808 29.973-30.96 20.26-69.17-4.93-87.66z"/></clipPath><clipPath><path d="M364.25 300.93c-23.78-17.457-97.887-17.457-121.67 0-25.19 18.49-35.006 56.7-5.033 87.66 0 0-24.334 44.486 8.932 74.788C264 479.34 279 481.808 303 481.84v.002c24-.034 39.658-2.48 57.183-18.444 33.266-30.302 8.997-74.808 8.997-74.808 29.973-30.96 20.26-69.17-4.93-87.66z"/></clipPath><clipPath><path d="M364.25 300.93c-23.78-17.457-97.887-17.457-121.67 0-25.19 18.49-35.006 56.7-5.033 87.66 0 0-24.334 44.486 8.932 74.788C264 479.34 279 481.808 303 481.84v.002c24-.034 39.658-2.48 57.183-18.444 33.266-30.302 8.997-74.808 8.997-74.808 29.973-30.96 20.26-69.17-4.93-87.66z"/></clipPath><clipPath><path d="M364.25 300.93c-23.78-17.457-97.887-17.457-121.67 0-25.19 18.49-35.006 56.7-5.033 87.66 0 0-24.334 44.486 8.932 74.788C264 479.34 279 481.808 303 481.84v.002c24-.034 39.658-2.48 57.183-18.444 33.266-30.302 8.997-74.808 8.997-74.808 29.973-30.96 20.26-69.17-4.93-87.66z"/></clipPath><clipPath><path d="M364.25 300.93c-23.78-17.457-97.887-17.457-121.67 0-25.19 18.49-35.006 56.7-5.033 87.66 0 0-24.334 44.486 8.932 74.788C264 479.34 279 481.808 303 481.84v.002c24-.034 39.658-2.48 57.183-18.444 33.266-30.302 8.997-74.808 8.997-74.808 29.973-30.96 20.26-69.17-4.93-87.66z"/></clipPath><clipPath><path d="M364.25 300.93c-23.78-17.457-97.887-17.457-121.67 0-25.19 18.49-35.006 56.7-5.033 87.66 0 0-24.334 44.486 8.932 74.788C264 479.34 279 481.808 303 481.84v.002c24-.034 39.658-2.48 57.183-18.444 33.266-30.302 8.997-74.808 8.997-74.808 29.973-30.96 20.26-69.17-4.93-87.66z"/></clipPath><clipPath><path d="M364.25 300.93c-23.78-17.457-97.887-17.457-121.67 0-25.19 18.49-35.006 56.7-5.033 87.66 0 0-24.334 44.486 8.932 74.788C264 479.34 279 481.808 303 481.84v.002c24-.034 39.658-2.48 57.183-18.444 33.266-30.302 8.997-74.808 8.997-74.808 29.973-30.96 20.26-69.17-4.93-87.66z"/></clipPath><clipPath><path d="M364.25 300.93c-23.78-17.457-97.887-17.457-121.67 0-25.19 18.49-35.006 56.7-5.033 87.66 0 0-24.334 44.486 8.932 74.788C264 479.34 279 481.808 303 481.84v.002c24-.034 39.658-2.48 57.183-18.444 33.266-30.302 8.997-74.808 8.997-74.808 29.973-30.96 20.26-69.17-4.93-87.66z"/></clipPath><clipPath><path d="M144.658 369.334c-.213-.266 15.51-.972 15.51-.972s-6.363 12.353-15.51.972z"/></clipPath><clipPath><path d="M263.16 409.113c0-7.137-5.57-12.923-12.44-12.923-6.87 0-12.44 5.786-12.44 12.923 0 3.35 1.23 6.404 3.243 8.7 0 0 5.354 7.06 5.658 10.738h7.09c.305-3.67 5.66-10.73 5.66-10.73 2.01-2.294 3.24-5.35 3.24-8.7z"/></clipPath><clipPath><path d="M345.41 379.523l-1.435-.186c-.068-.804-.262-1.576-.562-2.294l1.192-.963c.128-.103.15-.297.052-.43l-1.662-2.22c-.1-.133-.286-.157-.413-.054l-1.142.923c-.58-.51-1.236-.92-1.957-1.22l.187-1.557c.02-.167-.095-.32-.256-.34l-2.686-.35c-.16-.02-.31.1-.33.265l-.178 1.49c-.773.072-1.517.273-2.208.585l-.927-1.236c-.1-.133-.285-.157-.413-.054l-2.136 1.726c-.128.102-.15.296-.052.43l.89 1.186c-.486.6-.883 1.284-1.167 2.034l-1.496-.194c-.16-.02-.3.1-.32.27l-.335 2.79c-.02.164.095.32.256.34l1.435.185c.068.805.26 1.577.56 2.295l-1.19.96c-.13.104-.15.298-.053.43l1.664 2.22c.1.134.285.158.412.055l1.145-.924c.58.503 1.236.916 1.957 1.21l-.19 1.556c-.02.17.097.32.258.344l2.686.35c.16.02.31-.1.33-.27l.18-1.49c.774-.07 1.52-.27 2.21-.583l.926 1.24c.1.133.286.157.413.054l2.134-1.724c.13-.105.15-.3.053-.43l-.89-1.19c.485-.6.882-1.282 1.167-2.032l1.496.194c.16.024.31-.096.33-.263l.335-2.79c.02-.167-.096-.32-.257-.342zm-8.893 3.285c-1.494-.194-2.554-1.61-2.367-3.162.187-1.552 1.55-2.653 3.043-2.46 1.494.195 2.554 1.61 2.367 3.163-.187 1.55-1.55 2.65-3.043 2.45z"/></clipPath><linearGradient gradientUnits="userSpaceOnUse" x1="340.484" y1="493.008" x2="293.65" y2="418.346"><stop offset="0" stop-color="#fff" stop-opacity="0"/><stop offset="1" stop-color="#002D3F"/></linearGradient><linearGradient gradientUnits="userSpaceOnUse" x1="155.502" y1="472.692" x2="141.33" y2="447.749"><stop offset="0" stop-color="#fff" stop-opacity="0"/><stop offset="1" stop-color="#002D3F"/></linearGradient><linearGradient gradientUnits="userSpaceOnUse" x1="306.121" y1="568.75" x2="292.813" y2="545.327"><stop offset="0" stop-color="#fff" stop-opacity="0"/><stop offset="1" stop-color="#002D3F"/></linearGradient><linearGradient gradientUnits="userSpaceOnUse" x1="485.452" y1="539.392" x2="459.88" y2="486.219"><stop offset="0" stop-color="#fff" stop-opacity="0"/><stop offset="1" stop-color="#002D3F"/></linearGradient><linearGradient gradientUnits="userSpaceOnUse" x1="403.59" y1="610.142" x2="385.936" y2="573.431"><stop offset="0" stop-color="#fff" stop-opacity="0"/><stop offset="1" stop-color="#002D3F"/></linearGradient><linearGradient gradientUnits="userSpaceOnUse" x1="242.337" y1="592.741" x2="229.488" y2="569.688"><stop offset="0" stop-color="#fff" stop-opacity="0"/><stop offset="1" stop-color="#002D3F"/></linearGradient><linearGradient gradientUnits="userSpaceOnUse" x1="173.55" y1="573.1" x2="151.867" y2="528.012"><stop offset="0" stop-color="#fff" stop-opacity="0"/><stop offset="1" stop-color="#002D3F"/></linearGradient><linearGradient gradientUnits="userSpaceOnUse" x1="151.699" y1="398.772" x2="141.495" y2="374.586"><stop offset="0" stop-color="#fff" stop-opacity="0"/><stop offset="1" stop-color="#002D3F"/></linearGradient><linearGradient gradientUnits="userSpaceOnUse" x1="163.873" y1="331.586" x2="154.32" y2="314.469"><stop offset="0" stop-color="#fff" stop-opacity="0"/><stop offset="1" stop-color="#002D3F"/></linearGradient><linearGradient gradientUnits="userSpaceOnUse" x1="448.18" y1="362.812" x2="439.11" y2="330.5"><stop offset="0" stop-color="#fff" stop-opacity="0"/><stop offset="1" stop-color="#002D3F"/></linearGradient><linearGradient gradientUnits="userSpaceOnUse" x1="480.342" y1="435.964" x2="452.565" y2="376.441"><stop offset="0" stop-color="#fff" stop-opacity="0"/><stop offset="1" stop-color="#002D3F"/></linearGradient><linearGradient gradientUnits="userSpaceOnUse" x1="253.297" y1="337.978" x2="250.862" y2="305.71"><stop offset="0" stop-color="#fff" stop-opacity="0"/><stop offset="1" stop-color="#002D3F"/></linearGradient><linearGradient gradientUnits="userSpaceOnUse" x1="379.649" y1="321.783" x2="367.714" y2="285.409"><stop offset="0" stop-color="#fff" stop-opacity="0"/><stop offset="1" stop-color="#002D3F"/></linearGradient><filter id="ax" color-interpolation-filters="sRGB"><feColorMatrix values="0.21 0.72 0.072 0 0 0.21 0.72 0.072 0 0 0.21 0.72 0.072 0 0 0 0 0 1 0"/></filter><filter id="aw" color-interpolation-filters="sRGB"><feColorMatrix values="0.21 0.72 0.072 0 0 0.21 0.72 0.072 0 0 0.21 0.72 0.072 0 0 0 0 0 1 0"/></filter><filter id="av" color-interpolation-filters="sRGB"><feColorMatrix values="0.21 0.72 0.072 0 0 0.21 0.72 0.072 0 0 0.21 0.72 0.072 0 0 0 0 0 1 0"/></filter><filter id="au" color-interpolation-filters="sRGB"><feColorMatrix values="0.21 0.72 0.072 0 0 0.21 0.72 0.072 0 0 0.21 0.72 0.072 0 0 0 0 0 1 0"/></filter><filter id="at" color-interpolation-filters="sRGB"><feColorMatrix values="0.21 0.72 0.072 0 0 0.21 0.72 0.072 0 0 0.21 0.72 0.072 0 0 0 0 0 1 0"/></filter><filter id="as" color-interpolation-filters="sRGB"><feColorMatrix values="0.21 0.72 0.072 0 0 0.21 0.72 0.072 0 0 0.21 0.72 0.072 0 0 0 0 0 1 0"/></filter><filter id="ar" color-interpolation-filters="sRGB"><feColorMatrix values="0.21 0.72 0.072 0 0 0.21 0.72 0.072 0 0 0.21 0.72 0.072 0 0 0 0 0 1 0"/></filter><filter id="aq" color-interpolation-filters="sRGB"><feColorMatrix values="0.21 0.72 0.072 0 0 0.21 0.72 0.072 0 0 0.21 0.72 0.072 0 0 0 0 0 1 0"/></filter><filter id="ap" color-interpolation-filters="sRGB"><feColorMatrix values="0.21 0.72 0.072 0 0 0.21 0.72 0.072 0 0 0.21 0.72 0.072 0 0 0 0 0 1 0"/></filter><filter id="ao" color-interpolation-filters="sRGB"><feColorMatrix values="0.21 0.72 0.072 0 0 0.21 0.72 0.072 0 0 0.21 0.72 0.072 0 0 0 0 0 1 0"/></filter><filter id="an" color-interpolation-filters="sRGB"><feColorMatrix values="0.21 0.72 0.072 0 0 0.21 0.72 0.072 0 0 0.21 0.72 0.072 0 0 0 0 0 1 0"/></filter><filter id="am" color-interpolation-filters="sRGB"><feColorMatrix values="0.21 0.72 0.072 0 0 0.21 0.72 0.072 0 0 0.21 0.72 0.072 0 0 0 0 0 1 0"/></filter><filter id="al" color-interpolation-filters="sRGB"><feColorMatrix values="0.21 0.72 0.072 0 0 0.21 0.72 0.072 0 0 0.21 0.72 0.072 0 0 0 0 0 1 0"/></filter><filter id="ak" color-interpolation-filters="sRGB"><feColorMatrix values="0.21 0.72 0.072 0 0 0.21 0.72 0.072 0 0 0.21 0.72 0.072 0 0 0 0 0 1 0"/></filter><filter id="aj" color-interpolation-filters="sRGB"><feColorMatrix values="0.21 0.72 0.072 0 0 0.21 0.72 0.072 0 0 0.21 0.72 0.072 0 0 0 0 0 1 0"/></filter><filter id="ai" color-interpolation-filters="sRGB"><feColorMatrix values="0.21 0.72 0.072 0 0 0.21 0.72 0.072 0 0 0.21 0.72 0.072 0 0 0 0 0 1 0"/></filter><filter id="ah" color-interpolation-filters="sRGB"><feColorMatrix values="0.21 0.72 0.072 0 0 0.21 0.72 0.072 0 0 0.21 0.72 0.072 0 0 0 0 0 1 0"/></filter><filter id="ag" color-interpolation-filters="sRGB"><feColorMatrix values="0.21 0.72 0.072 0 0 0.21 0.72 0.072 0 0 0.21 0.72 0.072 0 0 0 0 0 1 0"/></filter><filter id="af" color-interpolation-filters="sRGB"><feColorMatrix values="0.21 0.72 0.072 0 0 0.21 0.72 0.072 0 0 0.21 0.72 0.072 0 0 0 0 0 1 0"/></filter><filter id="ae" color-interpolation-filters="sRGB"><feColorMatrix values="0.21 0.72 0.072 0 0 0.21 0.72 0.072 0 0 0.21 0.72 0.072 0 0 0 0 0 1 0"/></filter><filter id="ad" color-interpolation-filters="sRGB"><feColorMatrix values="0.21 0.72 0.072 0 0 0.21 0.72 0.072 0 0 0.21 0.72 0.072 0 0 0 0 0 1 0"/></filter><filter id="ac" color-interpolation-filters="sRGB"><feColorMatrix values="0.21 0.72 0.072 0 0 0.21 0.72 0.072 0 0 0.21 0.72 0.072 0 0 0 0 0 1 0"/></filter><filter id="ab" color-interpolation-filters="sRGB"><feColorMatrix values="0.21 0.72 0.072 0 0 0.21 0.72 0.072 0 0 0.21 0.72 0.072 0 0 0 0 0 1 0"/></filter><filter id="aa" color-interpolation-filters="sRGB"><feColorMatrix values="0.21 0.72 0.072 0 0 0.21 0.72 0.072 0 0 0.21 0.72 0.072 0 0 0 0 0 1 0"/></filter><filter id="Z" color-interpolation-filters="sRGB"><feColorMatrix values="0.21 0.72 0.072 0 0 0.21 0.72 0.072 0 0 0.21 0.72 0.072 0 0 0 0 0 1 0"/></filter><filter id="Y" color-interpolation-filters="sRGB"><feColorMatrix values="0.21 0.72 0.072 0 0 0.21 0.72 0.072 0 0 0.21 0.72 0.072 0 0 0 0 0 1 0"/></filter><filter id="X" color-interpolation-filters="sRGB"><feColorMatrix values="0.21 0.72 0.072 0 0 0.21 0.72 0.072 0 0 0.21 0.72 0.072 0 0 0 0 0 1 0"/></filter><filter id="W" color-interpolation-filters="sRGB"><feColorMatrix values="0.21 0.72 0.072 0 0 0.21 0.72 0.072 0 0 0.21 0.72 0.072 0 0 0 0 0 1 0"/></filter><filter id="V" color-interpolation-filters="sRGB"><feColorMatrix values="0.21 0.72 0.072 0 0 0.21 0.72 0.072 0 0 0.21 0.72 0.072 0 0 0 0 0 1 0"/></filter><filter id="U" color-interpolation-filters="sRGB"><feColorMatrix values="0.21 0.72 0.072 0 0 0.21 0.72 0.072 0 0 0.21 0.72 0.072 0 0 0 0 0 1 0"/></filter><filter id="T" color-interpolation-filters="sRGB"><feColorMatrix values="0.21 0.72 0.072 0 0 0.21 0.72 0.072 0 0 0.21 0.72 0.072 0 0 0 0 0 1 0"/></filter><filter id="S" color-interpolation-filters="sRGB"><feColorMatrix values="0.21 0.72 0.072 0 0 0.21 0.72 0.072 0 0 0.21 0.72 0.072 0 0 0 0 0 1 0"/></filter><filter id="R" color-interpolation-filters="sRGB"><feColorMatrix values="0.21 0.72 0.072 0 0 0.21 0.72 0.072 0 0 0.21 0.72 0.072 0 0 0 0 0 1 0"/></filter><filter id="Q" color-interpolation-filters="sRGB"><feColorMatrix values="0.21 0.72 0.072 0 0 0.21 0.72 0.072 0 0 0.21 0.72 0.072 0 0 0 0 0 1 0"/></filter><filter id="P" color-interpolation-filters="sRGB"><feColorMatrix values="0.21 0.72 0.072 0 0 0.21 0.72 0.072 0 0 0.21 0.72 0.072 0 0 0 0 0 1 0"/></filter><filter id="O" color-interpolation-filters="sRGB"><feColorMatrix values="0.21 0.72 0.072 0 0 0.21 0.72 0.072 0 0 0.21 0.72 0.072 0 0 0 0 0 1 0"/></filter><filter id="N" color-interpolation-filters="sRGB"><feColorMatrix values="0.21 0.72 0.072 0 0 0.21 0.72 0.072 0 0 0.21 0.72 0.072 0 0 0 0 0 1 0"/></filter><filter id="M" color-interpolation-filters="sRGB"><feColorMatrix values="0.21 0.72 0.072 0 0 0.21 0.72 0.072 0 0 0.21 0.72 0.072 0 0 0 0 0 1 0"/></filter><filter id="L" color-interpolation-filters="sRGB"><feColorMatrix values="0.21 0.72 0.072 0 0 0.21 0.72 0.072 0 0 0.21 0.72 0.072 0 0 0 0 0 1 0"/></filter><filter id="K" color-interpolation-filters="sRGB"><feColorMatrix values="0.21 0.72 0.072 0 0 0.21 0.72 0.072 0 0 0.21 0.72 0.072 0 0 0 0 0 1 0"/></filter><filter id="J" color-interpolation-filters="sRGB"><feColorMatrix values="0.21 0.72 0.072 0 0 0.21 0.72 0.072 0 0 0.21 0.72 0.072 0 0 0 0 0 1 0"/></filter><filter id="I" color-interpolation-filters="sRGB"><feColorMatrix values="0.21 0.72 0.072 0 0 0.21 0.72 0.072 0 0 0.21 0.72 0.072 0 0 0 0 0 1 0"/></filter><filter id="H" color-interpolation-filters="sRGB"><feColorMatrix values="0.21 0.72 0.072 0 0 0.21 0.72 0.072 0 0 0.21 0.72 0.072 0 0 0 0 0 1 0"/></filter><filter id="G" color-interpolation-filters="sRGB"><feColorMatrix values="0.21 0.72 0.072 0 0 0.21 0.72 0.072 0 0 0.21 0.72 0.072 0 0 0 0 0 1 0"/></filter><filter id="F" color-interpolation-filters="sRGB"><feColorMatrix values="0.21 0.72 0.072 0 0 0.21 0.72 0.072 0 0 0.21 0.72 0.072 0 0 0 0 0 1 0"/></filter><filter id="E" color-interpolation-filters="sRGB"><feColorMatrix values="0.21 0.72 0.072 0 0 0.21 0.72 0.072 0 0 0.21 0.72 0.072 0 0 0 0 0 1 0"/></filter><filter id="D" color-interpolation-filters="sRGB"><feColorMatrix values="0.21 0.72 0.072 0 0 0.21 0.72 0.072 0 0 0.21 0.72 0.072 0 0 0 0 0 1 0"/></filter><filter id="C" color-interpolation-filters="sRGB"><feColorMatrix values="0.21 0.72 0.072 0 0 0.21 0.72 0.072 0 0 0.21 0.72 0.072 0 0 0 0 0 1 0"/></filter><filter id="B" color-interpolation-filters="sRGB"><feColorMatrix values="0.21 0.72 0.072 0 0 0.21 0.72 0.072 0 0 0.21 0.72 0.072 0 0 0 0 0 1 0"/></filter><filter id="A" color-interpolation-filters="sRGB"><feColorMatrix values="0.21 0.72 0.072 0 0 0.21 0.72 0.072 0 0 0.21 0.72 0.072 0 0 0 0 0 1 0"/></filter><filter id="z" color-interpolation-filters="sRGB"><feColorMatrix values="0.21 0.72 0.072 0 0 0.21 0.72 0.072 0 0 0.21 0.72 0.072 0 0 0 0 0 1 0"/></filter><filter id="y" color-interpolation-filters="sRGB"><feColorMatrix values="0.21 0.72 0.072 0 0 0.21 0.72 0.072 0 0 0.21 0.72 0.072 0 0 0 0 0 1 0"/></filter><filter id="x" color-interpolation-filters="sRGB"><feColorMatrix values="0.21 0.72 0.072 0 0 0.21 0.72 0.072 0 0 0.21 0.72 0.072 0 0 0 0 0 1 0"/></filter><filter id="w" color-interpolation-filters="sRGB"><feColorMatrix values="0.21 0.72 0.072 0 0 0.21 0.72 0.072 0 0 0.21 0.72 0.072 0 0 0 0 0 1 0"/></filter><filter id="v" color-interpolation-filters="sRGB"><feColorMatrix values="0.21 0.72 0.072 0 0 0.21 0.72 0.072 0 0 0.21 0.72 0.072 0 0 0 0 0 1 0"/></filter><filter id="u" color-interpolation-filters="sRGB"><feColorMatrix values="0.21 0.72 0.072 0 0 0.21 0.72 0.072 0 0 0.21 0.72 0.072 0 0 0 0 0 1 0"/></filter><filter id="t" color-interpolation-filters="sRGB"><feColorMatrix values="0.21 0.72 0.072 0 0 0.21 0.72 0.072 0 0 0.21 0.72 0.072 0 0 0 0 0 1 0"/></filter><filter id="s" color-interpolation-filters="sRGB"><feColorMatrix values="0.21 0.72 0.072 0 0 0.21 0.72 0.072 0 0 0.21 0.72 0.072 0 0 0 0 0 1 0"/></filter><filter id="r" color-interpolation-filters="sRGB"><feColorMatrix values="0.21 0.72 0.072 0 0 0.21 0.72 0.072 0 0 0.21 0.72 0.072 0 0 0 0 0 1 0"/></filter><filter id="q" color-interpolation-filters="sRGB"><feColorMatrix values="0.21 0.72 0.072 0 0 0.21 0.72 0.072 0 0 0.21 0.72 0.072 0 0 0 0 0 1 0"/></filter><filter id="p" color-interpolation-filters="sRGB"><feColorMatrix values="0.21 0.72 0.072 0 0 0.21 0.72 0.072 0 0 0.21 0.72 0.072 0 0 0 0 0 1 0"/></filter><filter id="o" color-interpolation-filters="sRGB"><feColorMatrix values="0.21 0.72 0.072 0 0 0.21 0.72 0.072 0 0 0.21 0.72 0.072 0 0 0 0 0 1 0"/></filter><filter id="n" color-interpolation-filters="sRGB"><feColorMatrix values="0.21 0.72 0.072 0 0 0.21 0.72 0.072 0 0 0.21 0.72 0.072 0 0 0 0 0 1 0"/></filter><filter id="m" color-interpolation-filters="sRGB"><feColorMatrix values="0.21 0.72 0.072 0 0 0.21 0.72 0.072 0 0 0.21 0.72 0.072 0 0 0 0 0 1 0"/></filter><filter id="l" color-interpolation-filters="sRGB"><feColorMatrix values="0.21 0.72 0.072 0 0 0.21 0.72 0.072 0 0 0.21 0.72 0.072 0 0 0 0 0 1 0"/></filter><filter id="k" color-interpolation-filters="sRGB"><feColorMatrix values="0.21 0.72 0.072 0 0 0.21 0.72 0.072 0 0 0.21 0.72 0.072 0 0 0 0 0 1 0"/></filter><filter id="j" color-interpolation-filters="sRGB"><feColorMatrix values="0.21 0.72 0.072 0 0 0.21 0.72 0.072 0 0 0.21 0.72 0.072 0 0 0 0 0 1 0"/></filter><filter id="i" color-interpolation-filters="sRGB"><feColorMatrix values="0.21 0.72 0.072 0 0 0.21 0.72 0.072 0 0 0.21 0.72 0.072 0 0 0 0 0 1 0"/></filter><filter id="h" color-interpolation-filters="sRGB"><feColorMatrix values="0.21 0.72 0.072 0 0 0.21 0.72 0.072 0 0 0.21 0.72 0.072 0 0 0 0 0 1 0"/></filter><filter id="g" color-interpolation-filters="sRGB"><feColorMatrix values="0.21 0.72 0.072 0 0 0.21 0.72 0.072 0 0 0.21 0.72 0.072 0 0 0 0 0 1 0"/></filter><filter id="f" color-interpolation-filters="sRGB"><feColorMatrix values="0.21 0.72 0.072 0 0 0.21 0.72 0.072 0 0 0.21 0.72 0.072 0 0 0 0 0 1 0"/></filter><filter id="e" color-interpolation-filters="sRGB"><feColorMatrix values="0.21 0.72 0.072 0 0 0.21 0.72 0.072 0 0 0.21 0.72 0.072 0 0 0 0 0 1 0"/></filter><filter id="d" color-interpolation-filters="sRGB"><feColorMatrix values="0.21 0.72 0.072 0 0 0.21 0.72 0.072 0 0 0.21 0.72 0.072 0 0 0 0 0 1 0"/></filter><filter id="c" color-interpolation-filters="sRGB"><feColorMatrix values="0.21 0.72 0.072 0 0 0.21 0.72 0.072 0 0 0.21 0.72 0.072 0 0 0 0 0 1 0"/></filter><filter id="b" color-interpolation-filters="sRGB"><feColorMatrix values="0.21 0.72 0.072 0 0 0.21 0.72 0.072 0 0 0.21 0.72 0.072 0 0 0 0 0 1 0"/></filter></defs><rect width="711.864" height="661.017" x="57.627" y="54.237" rx="1.542" ry="1.143" fill="#efe2c2" fill-opacity="0" filter="url(#a)"/><path d="M396.718 548.142c-.676-.892-1.018-1.79-1.203-2.608 2.316-.423 4.153-.57 4.153-.57l2.73-31.16 13.633-.074s-2.64 24.823-5.23 35.595c-3.88.39-12.45.97-14.073-1.183zm49.095 1.375c-1.085-.292-1.9-.78-2.55-1.31 1.566-1.757 2.918-3.01 2.918-3.01l-17.04-26.227 10.7-8.45s13.198 21.174 17.8 31.26c-2.814 2.69-9.2 8.435-11.82 7.737zm-46.23-89.464L371.95 465.1s3.503 8.9.504 7.645c-3.003-1.258-3.698-3.782-3.698-3.782s-3.792 8.212-6.262 5.557c-2.467-2.653 1.68-7.143 1.68-7.143s-6.52 4.19-8.22 1.113c-1.695-3.078 3.918-5.466 3.918-5.466s-5.28.802-5.408-2.336c-.125-3.146 4.838-1.964 4.838-1.964s-.91-3.114.38-5.33c1.185-2.048 4.21-.14 6.61 2.257.198.2.394.4.58.61 2.472 2.66 24.262-8.25 24.262-8.25l8.45 12.05z" fill="#a1796f" filter="url(#b)"/><path d="M418.582 440.362l-33.955 7.818 6.462 14.564 10.02-3.035-3.26 32.3 47.45-2.37 1.67-33.14 10.983 6.105 4.234-15.004s-33.843-8.47-43.616-7.25z" fill="#f4da7a" filter="url(#c)"/><path d="M433.15 428.16l-.607 11.42s-2.365 4.885-7.927 4.02c-5.56-.864-7.574-4.82-7.574-4.82l2.06-11.85 14.05 1.23z" fill="#a1796f" filter="url(#d)"/><path d="M397.856 487.038l.208 44.81 18.826 2.062 5.74-16.698 16.364 19.03 13.193-3.24s-3.208-22.65-3.562-26.088c-.35-3.434-3.315-17.27-3.315-17.27l-47.454-2.606z" fill="#396b94" filter="url(#e)"/><path d="M414.575 359.105c12.822-.2 45.6-1.306 53.44 29.262 0 0 7.78-1.66 8.062 4.31.288 5.96-8.344 5.89-8.344 5.89s-.233 30.15-39.663 38.382c-39.425 8.23-45.133-17.86-45.133-17.86s-9.59 3.04-11.857-4.27c-2.266-7.31 7.565-8.16 7.565-8.16s-9.974-46.84 35.93-47.56z" fill="#a1796f" filter="url(#f)"/><path d="M447.077 409.898c.536 2.167 3.382 3.57 6.353 3.115 2.984-.444 4.96-2.576 4.424-4.748-.535-2.186-3.383-3.585-6.358-3.127-2.973.45-4.956 2.58-4.42 4.76zm-58.107 7.23c.537 2.174 3.384 3.575 6.358 3.12 2.978-.443 4.952-2.576 4.422-4.75-.538-2.185-3.387-3.583-6.362-3.127-2.97.46-4.95 2.59-4.418 4.76z" fill="#c0a395" filter="url(#g)"/><path d="M420.545 408.575s-.667 2.66 1.224 3.628c1.88.978-2.57 1.96-3.2-.648-.65-2.602.11-3.43 1.97-2.98z" fill="#584c3a" filter="url(#h)"/><path fill="#57b1d1" d="M418.22 534.292l1.012-7.245-21.783-2.67-.55 7.862zm36.394-5.45L451.876 522l-17.3 7.555 3.874 6.633z" filter="url(#i)"/><path d="M399.895 409.074c2.156.478 4.295-.88 4.767-3.034.486-2.155-.89-4.288-3.042-4.764-2.164-.478-4.295.882-4.772 3.04-.476 2.145.887 4.285 3.047 4.758z" fill="#010101" filter="url(#j)"/><path d="M400.008 406.62c.346.17.77.03.942-.32.175-.348.03-.772-.32-.94-.345-.172-.773-.03-.943.318-.174.35-.03.77.32.943z" fill="#fff" filter="url(#k)"/><path d="M440.577 402.456c2.158.48 4.297-.882 4.77-3.033.485-2.157-.887-4.287-3.045-4.762-2.162-.48-4.292.88-4.774 3.04-.468 2.15.892 4.29 3.05 4.76z" fill="#010101" filter="url(#l)"/><path d="M440.693 400c.35.178.774.033.946-.315.17-.35.02-.772-.33-.946-.348-.17-.778-.03-.948.32-.17.35-.028.77.322.932z" fill="#fff" filter="url(#m)"/><path d="M456.38 460.398l22.093 7.56s-4.29 8.553-1.185 7.573c3.097-.98 4.012-3.43 4.012-3.43s3.05 8.53 5.747 6.1c2.693-2.42-1.03-7.27-1.03-7.27s6.112 4.76 8.08 1.85c1.96-2.91-3.405-5.793-3.405-5.793s5.18 1.273 5.595-1.842c.405-3.116-4.64-2.39-4.64-2.39s1.184-3.016.102-5.34c-1.01-2.142-4.19-.513-6.8 1.654-.216.176-.43.367-.63.553-2.697 2.417-23.285-11.42-23.285-11.42l-4.66 12.207z" fill="#a1796f" filter="url(#n)"/><path d="M436.248 414.936s-7.106 13.677-28.668 7.22c0 0 21.36 18.618 28.668-7.22z" fill="#d84854" filter="url(#o)"/><path fill="#2d2011" d="M376.703 371.492l1.08 22.383 26.765-15.042 6.034.577 2.807-4.413 10.69 3.51 6.682-1.85 7.305 3.187 7.47-4.49 21.072 7.217-10.198-28.72-8.927 1.15-5.14-8.435-4.946 5.474-12.837-3.227-5.2 7.924L407.628 353l-7.316 5.766-12.885-1.23-3.165 11.97z" filter="url(#p)"/><path d="M294.01 358.336c3.3-.124 5.342-.285 6.6-.42-.002-.01 0-.02-.002-.03-.252-3.098.44-15.18.44-15.18l-8.897-1.66-.38 13.356s-1.392.028-3.04.188c-.3 1.248-.32 3.96 5.29 3.746z" fill="#fbdbc3" filter="url(#q)"/><path d="M291.012 362.83c8.486.2 9.947-.558 9.598-4.913-1.258.135-3.3.296-6.6.42-5.608.213-5.586-2.498-5.286-3.746-2.045.2-4.47.61-5.063 1.43-1.06 1.49-1.15 6.61 7.36 6.81z" fill="#cb7a29" filter="url(#r)"/><path d="M312.662 359.09c-3.298.003-5.345-.08-6.608-.165v-.027c.136-3.11-1.022-15.154-1.022-15.154l8.83-2 .896 13.33s1.397-.025 3.045.07c.348 1.236.472 3.945-5.14 3.947z" fill="#fbdbc3" filter="url(#s)"/><path d="M315.83 363.463c-8.473.525-9.96-.174-9.776-4.538 1.264.086 3.31.168 6.608.166 5.613 0 5.49-2.71 5.14-3.94 2.053.12 4.492.44 5.113 1.24 1.126 1.44 1.406 6.556-7.084 7.083z" fill="#cb7a29" filter="url(#t)"/><path d="M318.43 292.034s9.878.873 13.72.7c3.843-.178 15.416-1.114 15.416-1.114s4.81-1.992 5.87-2.57c1.062-.572 3.153-1.226 3.392-.346.238.88-2.52 2.065-2.52 2.065s4.082-1.29 4.428-.02c.34 1.274-4.527 1.635-4.527 1.635s4.39-.53 4.78.94c.4 1.467-4.84.884-4.84.884s4.54.803 3.98 1.936c-.56 1.13-4.435-.41-4.435-.41s1.836 2.397.844 2.715c-1 .31-2.717-.85-2.898-1.535 0 0-3.234 1.232-4.794.67 0 0-25.726 5.55-28.16 2.915-2.445-2.635-.27-8.472-.27-8.472zm-27.074.31s-9.476-.25-13.085-.83c-3.6-.588-14.4-2.73-14.4-2.73s-4.23-2.397-5.15-3.053c-.91-.65-2.78-1.49-3.15-.7-.36.81 2.06 2.23 2.06 2.23s-3.66-1.65-4.18-.49c-.52 1.157 4.03 2.035 4.03 2.035s-4.07-.984-4.674.355c-.61 1.337 4.434 1.36 4.434 1.36s-4.415.264-4.064 1.384c.35 1.126 4.254.1 4.254.1s-2.11 2.053-1.218 2.46c.893.4 2.7-.505 2.98-1.12 0 0 2.864 1.5 4.424 1.136 0 0 23.456 8.017 26.18 5.81 2.712-2.21 1.57-7.94 1.57-7.94z" fill="#fbdbc3" filter="url(#u)"/><path d="M268.137 264.033s-4.152-20.78 13.637-32.428c17.794-11.648 50.608-5.972 56.905 10.735 6.06 16.106 1.87 28.125-.3 29.995-2.167 1.87-58.334-2.8-58.255-2.372.08.427-11.997-5.93-11.997-5.93z" fill="#862a1a" filter="url(#v)"/><path d="M270.024 263.334s-4.812-3.343-5.34 1.137c-.408 3.46 2.264 5.5 5.816 5.57 0 0 .644 24.46 31.384 25.27 31.444.84 34.687-19.16 34.687-19.16s3.66 1.907 4.95-2.192c1.146-3.663-2.133-3.856-3.45-3.784-1.31.07-7.514-6.867-16.65-8.484 0 0-.953-10.84-3.784-15.334 0 0 .32 13.177-1.06 14.618l-18.18-1.847.28-15.73-2.193 15.75s-19.494 1.66-26.45 4.196z" fill="#fbdbc3" filter="url(#w)"/><path d="M304.166 274.787c.297.315-.71 1.88-.064 2.218.647.33-.977.31-1.363-.213-.39-.525 1.06-2.382 1.42-2.005z" fill="#d3aa8c" filter="url(#x)"/><path d="M284.42 277.716c-.068 2.157-1.877 3.85-4.033 3.778-2.16-.073-3.852-1.876-3.78-4.04.07-2.157 1.878-3.848 4.038-3.776 2.158.07 3.852 1.878 3.776 4.038zm42.853 1.417c-.072 2.16-1.88 3.848-4.038 3.78-2.157-.072-3.85-1.88-3.78-4.04.07-2.16 1.877-3.85 4.04-3.777 2.16.07 3.85 1.878 3.778 4.037z" fill="#f69fa8" filter="url(#y)"/><path d="M296.673 282.704s7.894 3.252 13.58.604c.002 0-5.73 8.688-13.58-.604z" fill="#f1719d" filter="url(#z)"/><path d="M283.124 323.503l-10.305 9.87s21.05 19.335 53.17 5.83l-4.63-11.78s-21.2 1.826-38.24-3.92z" fill="#8fc69b" filter="url(#A)"/><path d="M285.063 291.218s11.087 2.36 21.296 2.936c10.2.575 18.49-3.53 18.49-3.53l3.1 10.635-8.708 2.53 1.852 24.68s-16.44.4-21.497-.26c-5.06-.67-16.746-3.67-16.746-3.67l6.85-22.88-6.554-.895 1.91-9.555z" fill="#445748" filter="url(#B)"/><path d="M325.99 229.972s9.85 2.614 25.517 31.662c0 0 3.37 4.196 4.018 2.622 0 0-3.975 17.72-18.98 14.507l-1.708-10.67m-47.587-38.12s-13.028 2.613-33.75 31.66c0 0-4.458 4.197-5.316 2.623 0 0 5.257 17.72 25.107 14.507l2.26-10.67" fill="#862a1a" filter="url(#C)"/><g transform="translate(13.559 45.568) translate(59.661 -94.237)" filter="url(#D)"><path d="M248.398 318.463c-.238 1.196-1.4 1.973-2.595 1.732-1.198-.235-1.97-1.403-1.733-2.596.237-1.2 1.402-1.98 2.6-1.74 1.19.235 1.966 1.4 1.728 2.594z" fill="#010101"/><circle cx="246.743" cy="317.992" r=".389" fill="#fff"/></g><path d="M293.76 267.586c-.238 1.196-1.4 1.973-2.595 1.732-1.198-.235-1.97-1.403-1.733-2.596.237-1.198 1.402-1.97 2.6-1.732 1.19.237 1.967 1.402 1.728 2.596z" fill="#010101" filter="url(#E)"/><path d="M292.494 267.098c.01.216-.158.396-.37.407-.216.01-.4-.157-.407-.372-.01-.215.157-.397.374-.406.22-.01.4.156.41.37z" fill="#fff" filter="url(#F)"/><path fill="#cb7a29" d="M310.255 295l-10.85-1.43 4.06 13.414z" filter="url(#G)"/><path d="M430.398 355.242c.54-.717.813-1.44.96-2.095-1.85-.34-3.315-.457-3.315-.457l-2.18-25.04-10.885-.06s2.115 19.946 4.182 28.603c3.095.312 9.94.78 11.238-.95zm-37.258 1.105c.867-.234 1.518-.626 2.037-1.053-1.252-1.412-2.332-2.417-2.332-2.417l13.61-21.076-8.54-6.79s-10.535 17.02-14.21 25.12c2.247 2.16 7.347 6.78 9.435 6.22zm34.97-71.89l22.062 4.055s-2.797 7.153-.402 6.145c2.398-1.01 2.953-3.04 2.953-3.04s3.027 6.6 5 4.467c1.97-2.132-1.342-5.74-1.342-5.74s5.21 3.367 6.57.895c1.358-2.48-3.13-4.4-3.13-4.4s4.22.643 4.32-1.88c.1-2.53-3.86-1.58-3.86-1.58s.728-2.5-.302-4.28c-.947-1.646-3.36-.113-5.277 1.813-.16.16-.315.32-.463.482-1.977 2.136-19.373-6.63-19.373-6.63l-6.75 9.68z" fill="#fee8e1" filter="url(#H)"/><path d="M414.882 268.633l27.11 6.282-5.16 11.703-8.005-2.438.64 29.064H387.72l4.49-31.636-8.77 4.906-6.11-12.427s29.75-6.435 37.552-5.454z" fill="#ef5e3a" filter="url(#I)"/><path d="M416.134 262.38l.385 9.182s-1.51 4.088-5.99 3.822c-4.48-.268-6.38-3.278-6.38-3.278l.736-9.637 11.24-.09z" fill="#fee8e1" filter="url(#J)"/><path d="M429.466 313.245l1.797 28.904-15.06 1.44-5.485-19.93-12.2 21.52-10.798-4.49s-.107-23.43 0-27.45c.105-4.02 1.525-3.035 1.525-3.035l40.22 3.032z" fill="#396b94" filter="url(#K)"/><path d="M412.02 203.467c9.9 2.54 35.337 8.566 34.855 33.897 0 0 6.334.35 5.28 5.032-1.048 4.68-7.67 2.812-7.67 2.812s-6.6 23.31-38.67 21.407c-32.063-1.902-30.894-23.316-30.894-23.316s-8.02.33-8.2-5.8c-.183-6.14 7.558-4.74 7.558-4.74s2.308-38.39 37.75-29.303z" fill="#fee8e1" filter="url(#L)"/><path d="M427.224 250.12c-.05 1.792 1.84 3.477 4.22 3.75 2.388.282 4.362-.954 4.413-2.75.055-1.805-1.838-3.488-4.223-3.758-2.38-.276-4.36.958-4.41 2.76zm-45.77 1.12c.592 1.698 2.957 2.602 5.28 2.01 2.33-.58 3.735-2.438 3.148-4.138-.592-1.706-2.957-2.606-5.283-2.015-2.33.59-3.74 2.444-3.15 4.143z" fill="#f9ced3" filter="url(#M)"/><path d="M407.255 246.004s-.73 1.302.115 2.08c.842.783-1.62.665-1.574-.795.037-1.47.553-1.79 1.46-1.29z" fill="#dcb59f" filter="url(#N)"/><path d="M448.69 238.053s-13.03-11.45-13.71-22.224c0 0-6.908 14.47-15.977 15.8 0 0 3.693-4.36 3.43-7.134 0 0-11.428 8.707-22.88 7.685 0 0 6.997-4.06 7.817-8.62 0 0-9.46 8.927-22.307 7.138 0 0 3.66-3.236 4.17-4.477 0 0-10.715 3.3-13.15 7.225 0 0-3.463-24.392 7.572-31.38 11.04-6.984 38.277-8.233 52.2-1.492 10.267 4.97 18.935 25.196 12.834 37.47zm0 0s-13.03-11.45-13.71-22.224c0 0-6.908 14.47-15.977 15.8 0 0 3.693-4.36 3.43-7.134 0 0-11.428 8.707-22.88 7.685 0 0 6.997-4.06 7.817-8.62 0 0-9.46 8.927-22.307 7.138 0 0 3.66-3.236 4.17-4.477 0 0-10.715 3.3-13.15 7.225 0 0-3.463-24.392 7.572-31.38 11.04-6.984 38.277-8.233 52.2-1.492 10.267 4.97 18.935 25.196 12.834 37.47z" fill="#dfda32" filter="url(#O)"/><path d="M448.69 238.053s-13.03-11.45-13.71-22.224c0 0-6.908 14.47-15.977 15.8 0 0 3.693-4.36 3.43-7.134 0 0-11.428 8.707-22.88 7.685 0 0 6.997-4.06 7.817-8.62 0 0-9.46 8.927-22.307 7.138 0 0 3.66-3.236 4.17-4.477 0 0-10.715 3.3-13.15 7.225 0 0-3.463-24.392 7.572-31.38 11.04-6.984 38.277-8.233 52.2-1.492 10.267 4.97 18.935 25.196 12.834 37.47z" fill="#f7de68" filter="url(#P)"/><path d="M396.195 242.322c1.033.547 2.318.145 2.863-.897.553-1.042.152-2.33-.88-2.876-1.036-.55-2.317-.15-2.866.89-.547 1.04-.155 2.33.883 2.873z" fill="#010101" filter="url(#Q)"/><path d="M396.6 241.074c.15.136.39.123.526-.034.14-.154.123-.393-.03-.528-.153-.136-.392-.124-.526.033-.14.155-.125.39.03.53z" fill="#fff" filter="url(#R)"/><path d="M422.36 243.968c1.032.55 2.317.146 2.864-.895.553-1.043.152-2.33-.883-2.876-1.03-.55-2.31-.146-2.86.897-.54 1.04-.15 2.33.888 2.874z" fill="#010101" filter="url(#S)"/><path d="M422.765 242.72c.154.14.39.125.527-.03.137-.156.123-.394-.03-.532-.153-.135-.394-.12-.53.036-.135.155-.123.39.033.527z" fill="#fff" filter="url(#T)"/><path d="M382.763 284.734l-17.64 6.076s3.427 6.872.946 6.085c-2.48-.79-3.21-2.76-3.21-2.76s-2.437 6.85-4.59 4.9c-2.15-1.946.82-5.84.82-5.84s-4.88 3.826-6.45 1.485c-1.565-2.338 2.718-4.658 2.718-4.658s-4.135 1.023-4.467-1.48c-.322-2.505 3.707-1.92 3.707-1.92s-.945-2.425-.08-4.29c.8-1.724 3.34-.415 5.42 1.326.173.14.343.294.503.443 2.152 1.95 18.59-9.17 18.59-9.17l3.725 9.81z" fill="#fee8e1" filter="url(#U)"/><path d="M415.657 253.54s-5.95 6.464-16.746-.306c0 0 8.85 13.432 16.75.305z" fill="#d84854" filter="url(#V)"/><path d="M376.943 218.994" fill="#5b3e1d" filter="url(#W)"/><path d="M488.728 338.056l2.328 22.603s-8.804 2.18-9.434 4.35c-.63 2.18-.97 5 1.695 4.663 2.664-.35 17.77.5 18.163-3.11.386-3.613-1.54-23.914-1.896-25.22-.345-1.31.81-6.107.81-6.107s-12.164-.167-11.666 2.81z" fill="#f6cfb4" filter="url(#X)"/><path d="M481.622 365.02c-.63 2.177-.97 5 1.695 4.663 2.664-.35 17.77.5 18.163-3.11.083-.802.05-2.44-.048-4.488-2.708.563-7.613 1.5-10.572 1.65-2.824.15-4.157-.847-4.74-1.534-2.127.8-4.204 1.81-4.498 2.82zm5.955-3.587l4.9 3.776 1.042-.52-5.06-3.69z" fill="#5e190d" filter="url(#Y)"/><path d="M517.652 338.716l-2.05 22.63s8.83 2.07 9.488 4.24c.658 2.173 1.03 4.995-1.643 4.685-2.665-.31-17.758.73-18.19-2.88-.435-3.61 1.243-23.93 1.58-25.24.33-1.32-.89-6.1-.89-6.1s12.164-.31 11.705 2.67z" fill="#f6cfb4" filter="url(#Z)"/><path d="M525.09 365.587c.658 2.173 1.03 4.995-1.643 4.685-2.665-.31-17.758.72-18.19-2.885-.1-.8-.088-2.44-.014-4.49 2.716.53 7.633 1.408 10.59 1.524 2.828.11 4.148-.9 4.725-1.59 2.135.77 4.225 1.757 4.532 2.766zm-6-3.51l-4.853 3.836-1.047-.504 5.012-3.76z" fill="#5e190d" filter="url(#aa)"/><path d="M491.806 291.934s-10.485-.47-14.494-1.192c-4.004-.72-16.034-3.337-16.034-3.337s-4.76-2.767-5.788-3.512c-1.04-.758-3.15-1.738-3.524-.844-.37.88 2.357 2.52 2.357 2.52s-4.11-1.92-4.638-.63c-.55 1.28 4.515 2.36 4.515 2.36s-4.532-1.19-5.157.31c-.623 1.48 4.965 1.6 4.965 1.6s-4.884.2-4.454 1.48c.423 1.26 4.706.182 4.706.182s-2.26 2.263-1.26 2.72c.996.477 2.96-.5 3.255-1.19 0 0 3.222 1.743 4.934 1.36 0 0 26.22 9.448 29.15 7.023 2.94-2.43 1.46-8.86 1.46-8.86zm24.642-5.084s9.98-1.105 13.763-2.048c3.78-.937 15.1-4.19 15.1-4.19s4.375-2.93 5.307-3.712c.948-.786 2.896-1.854 3.313-1.02.41.82-2.09 2.554-2.09 2.554s3.802-2.085 4.383-.894c.604 1.19-4.16 2.534-4.16 2.534s4.25-1.415 4.944-.024c.687 1.377-4.64 1.836-4.64 1.836s4.675-.116 4.34 1.13c-.322 1.23-4.475.477-4.475.477s2.297 2.02 1.37 2.52c-.922.516-2.854-.293-3.18-.93 0 0-2.966 1.86-4.623 1.605 0 0-24.44 10.655-27.387 8.525-2.96-2.135-1.954-8.364-1.954-8.364z" fill="#f6cfb4" filter="url(#ab)"/><path d="M519.714 284.31s6.8-5.313 11.93 1.384c0 0 .712-2.473 2.07-1.083 1.358 1.39-.434 3.24-.434 3.24s2.778-.432 2.38 1.5c-.4 1.93-1.875.958-1.875.958s3.305 1.553 2.518 3.74c-.79 2.19-1.94 1.28-1.94 1.28s-9.1 10.11-15.04 4.385c-5.937-5.722.39-15.393.39-15.393zm-33.77 18.047s-12.864 2.926-14.21-5.403c0 0-1.796 1.842-2.334-.025-.54-1.87 1.912-2.65 1.912-2.65s-2.65-.93-1.383-2.45c1.26-1.51 2.1.047 2.1.047s-2.18-2.936-.45-4.49c1.73-1.554 2.32-.204 2.32-.204s12.802-4.588 15.32 3.264c2.52 7.854-3.28 11.9-3.28 11.9zm33.886 10.018c.4-5.14-1.365-8.477-1.078-13.486.287-5.02 2.118-14.54 2.118-14.54l-13.58-3.396-10.227 2.494-9.518 3.044s-1.58 3.37-2.17 7.15c-.45 2.813.763 12.172.017 18.065 4.713.662 23.306 1.71 34.437.66z" fill="#7fd0d8" filter="url(#ac)"/><path d="M497.216 282.462s-5.94 6.376-.866 9.022c5.07 2.643 8.054-6.102 8.054-6.102s2.568 8.707 7.55 7.91c4.978-.805 1.24-11.807-2.228-12.835-3.472-1.018-12.51 2.005-12.51 2.005z" fill="#fff" filter="url(#ad)"/><path d="M502.917 286.398c3.175-.085 6.543-2.055 6.44-5.493l-2.943-.74-6.265 1.53-.73.23c.17 1.315.85 4.542 3.49 4.473z" fill="#d79e77" filter="url(#ae)"/><path d="M487.545 286.5l-.017.025c.025-.01.055-.04.078-.042l-.06.017z" fill="#e2b292" filter="url(#af)"/><path d="M486.348 312.19s-2.78 11.512-14.274 25.127c0 0 9.566 15.767 39.772 9.558 17.615-3.62 22.222-9.327 22.222-9.327s-15.666-14.268-15.388-27.38c0 0-5.88 2.346-17.556 1.405-10.825-.87-9.35 0-9.35 0l-5.426.616z" fill="#eaa8b7" filter="url(#ag)"/><path d="M531.252 254.7c.424 15.968-13.533 29.292-31.175 29.758-17.645.468-32.898-12.13-33.324-28.1-.416-15.97 14.147-29.255 31.794-29.72 17.64-.47 32.284 12.092 32.705 28.06z" fill="#f6cfb4" filter="url(#ah)"/><path d="M500.81 262.885s-2.704 1.413-2-1.436c0 0-.36-.58-.74.23-.39.81.45 2.55 1.81 2.11 1.35-.46.93-.91.93-.91z" fill="#d79e77" filter="url(#ai)"/><path d="M532.23 250.23c-.69.017-1.356.17-1.953.43.347 1.366.537 2.78.577 4.23.04 1.562-.11 3.08-.42 4.56.628.237 1.327.372 2.05.355 2.8-.077 5.008-2.278 4.938-4.923-.073-2.64-2.39-4.726-5.19-4.65z" fill="#f6cfb4" filter="url(#aj)"/><path d="M533.007 252.47c-.366.01-.722.09-1.033.228.18.722.283 1.466.305 2.234.02.822-.07 1.623-.23 2.407.33.12.7.19 1.082.18 1.476-.04 2.64-1.206 2.604-2.6-.037-1.396-1.26-2.497-2.738-2.46z" fill="#d79e77" filter="url(#ak)"/><path d="M467.415 265.157c.57-.386 1.204-.658 1.84-.794.52 1.31 1.185 2.566 2.002 3.766.882 1.29 1.89 2.43 3.01 3.44-.37.565-.856 1.082-1.455 1.492-2.31 1.58-5.392 1.08-6.883-1.1-1.49-2.187-.83-5.236 1.48-6.814z" fill="#f6cfb4" filter="url(#al)"/><path d="M468.1 267.426c.303-.207.634-.348.97-.418.273.69.627 1.353 1.06 1.988.464.68 1 1.284 1.59 1.822-.2.298-.455.57-.77.784-1.22.833-2.85.574-3.635-.578-.785-1.155-.435-2.766.785-3.598z" fill="#d79e77" filter="url(#am)"/><path d="M487.92 269.89c.07 2.63-2.44 4.83-5.608 4.914-3.17.083-5.795-1.98-5.86-4.608-.07-2.63 2.44-4.833 5.606-4.915 3.17-.08 5.796 1.98 5.863 4.61zm35.775-8.763c.067 2.546-1.943 4.664-4.487 4.734-2.546.07-4.664-1.94-4.734-4.49-.065-2.54 1.943-4.66 4.49-4.73 2.546-.06 4.665 1.94 4.73 4.49z" fill="#f7a6ad" filter="url(#an)"/><path d="M487.874 257.932c-.287 1.44-1.68 2.374-3.12 2.083-1.442-.282-2.368-1.687-2.087-3.12.29-1.44 1.688-2.372 3.123-2.085 1.438.29 2.37 1.688 2.084 3.122z" fill="#010101" filter="url(#ao)"/><path d="M485.49 257.7c.01.26-.19.48-.45.488-.258.012-.474-.19-.488-.446-.01-.258.19-.475.452-.487.257-.01.473.188.487.446z" fill="#fff" filter="url(#ap)"/><g transform="translate(13.559 45.568) translate(59.661 -94.237)" filter="url(#aq)"><path d="M444.765 303.222c-.287 1.44-1.688 2.378-3.13 2.088-1.44-.284-2.373-1.692-2.09-3.13.288-1.443 1.693-2.375 3.136-2.086 1.44.286 2.38 1.69 2.09 3.128z" fill="#010101"/><circle cx="442.769" cy="302.655" r=".469" fill="#fff"/></g><path d="M480.958 253.437s2.38-2.565 4.625-1.81c2.243.757.567.63.567.63l-5.192 1.18zm36.206-4.7s-3.07-1.736-5.04-.334c-1.968 1.4-.37.775-.37.775l5.41-.442z" fill="#5e190d" filter="url(#ar)"/><path d="M496.806 271.868l9.613-2.296s-2.77 7.728-9.55 2.81" fill="#d84854" filter="url(#as)"/><path d="M528.45 268.19s18.2 5.505 23.44-3.453c5.237-8.957-6.363-4.416-6.363-4.416s7.483-4.18 3.742-8c0 0 5.33-3.59-1.13-6.08 0 0 2.99-4.154-2.62-5.584 0 0 2.01-7.164-3.676-6.12 0 0 6.273-8.517-2.325-10.03 0 0-.02-8.862-8.424-7.34 0 0-4.82-8.07-11.104-3.605-6.283 4.464 1.542.8 1.542.8s-6.33-10.84-15.686-4.747c0 0-9.205-6.987-13.21-.78 0 0-10.135-1.314-16.168 5.548 0 0-9.275-.3-10.608 4.548 0 0-11.91 4.8-8.23 11.39 0 0-5.84 4.443-.706 7.835 0 0-8.59 6.666.703 11.322 0 0-7.42 4.925 0 7.607 0 0-6.425 3.09-2.68 5.04 0 0-10.39 6.388-1.64 9.3 8.75 2.916 20.116 3.704 18.4-.6-3.58-8.94-8.78-36.065 23.125-35.075 0 0-11.46 5.368 30.213 2.565 0 0 6.807 19.093 3.39 29.884z" fill="#5e190d" filter="url(#at)"/><path fill="#7fd0d8" d="M519.984 224.797l5.85-.85 2.617-5.3 2.62 5.3 5.85.85-4.23 4.127 1 5.827-5.23-2.75-5.233 2.75 1-5.82z" filter="url(#au)"/><path d="M260.797 541.73" fill="#901a1c" filter="url(#av)"/><path d="M263.12 541.79l-.806 3.812h25.46s6.57-3.207-6.555-3.79l-20.69.253" fill="#e8ded8" filter="url(#aw)"/><g transform="translate(13.559 45.568) translate(-71.186 -96.61)" filter="url(#ax)"><path d="M291.415 498.24l.38 14.757c.823-.017 1.855-.04 2.986-.068l-.38-14.76-2.98.06z" fill="#a41e22"/><path d="M340.47 545.524s.204 6.725-.21 11.952c-.412 5.228-2.9 32.37-2.9 32.37s.565 2.583-1.102 3.05c-1.665.467-14.442 4.42-15.065-.063-.62-4.48.416-38.098-.62-38.098s-1.868-.245-1.868-.245-19.61 28.845-21.14 30.125c-2.072 1.744-14.302-9.96-11.607-14.19 2.695-4.235 14.923-29.628 17.2-31.625 2.284-1.99 37.31 6.724 37.31 6.724z" fill="#501313"/><path d="M339.896 506.634s4.645 14.937 6.22 20.457c1.572 5.53 5.754 22.75 5.754 22.75s.39 7.3.032 9.09c-.35 1.79-.34 5.09 1.1 4.97 1.43-.113 1.9-4.62 1.9-4.62s.022 6.425 2.093 6.26c2.073-.17.297-7.24.297-7.24s1.298 6.486 3.693 6.29c2.394-.19-.983-7.293-.983-7.293s3.377 6 4.81 4.635c1.433-1.373-2.735-6.052-2.735-6.052s4.48 1.365 4.473-.206c-.006-1.57-2.525-2.49-3.642-2.405 0 0 2.725-3.155-1.376-7.12 0 0-3.538-37.02-8.653-39.12-5.13-2.09-12.99-.384-12.99-.384zm-35.743-7.544s-15.64-.323-21.37-.57c-5.732-.248-23.387-1.662-23.387-1.662s-7.032-1.835-8.614-2.69c-1.583-.845-4.704-1.82-5.057-.504-.353 1.31 3.764 3.075 3.764 3.075s-6.1-1.9-6.6 0c-.52 1.89 6.75 2.42 6.75 2.42s-6.55-.78-7.14 1.41c-.59 2.19 7.22 1.3 7.22 1.3s-6.77 1.22-5.93 2.906c.835 1.684 6.61-.63 6.61-.63s-2.73 3.585-1.247 4.05c1.49.46 3.173-1.5 3.45-2.525 0 0 2.114 3.367 7.19.894 0 0 39.22 8.49 42.844 4.555 3.633-3.944 1.507-12.04 1.507-12.04z" fill="#f8e5cd"/><path d="M320.17 494.544s-6.09-.956-6.056 3.29c.038 4.242 9.41 8.913 13.295.368 0 0-2.56 5.994 4.63 5.697 7.18-.3 5-12.58 4.77-13.47-.24-.89-16.64 4.11-16.64 4.11z" fill="#fff"/><path d="M340.645 497.53s-21.098-2.986-34.733.188l-29.552 66.21 72.178 12.578-7.893-78.975z" fill="#5eb7ba"/><path d="M319.645 491.143s-1.408 8.695 5.59 9.118c7 .43 8.988-8.22 8.988-8.22s-13.283-2.86-14.578-.89z" fill="#fcdfce"/><path d="M306.66 497.905l-16.808.374v14.75s13.448-.19 16.06-.75c2.613-.56.747-14.38.747-14.38zm37.76 21.835l-6.762-6.894 1.12-14.94 17.744 9.114z" fill="#5eb7ba"/><path d="M325.33 506.11c6.854.873 10.552-4.998 12.238-8.95-.894-.097-1.96-.2-3.164-.305-1.495 3.088-4.25 6.854-8.694 6.292-5.503-.703-7.343-4.678-7.942-6.82-1.022.04-2.042.093-3.055.165.768 3.49 3.63 8.724 10.616 9.617z" fill="#501313"/><path d="M278.608 459.233s-6.245-3.245-7.743 2.5c-1.502 5.75 5.746 9.495 8.245 9.495 0 0 6.787 28.176 52.458 25.227 30.977-2 33.97-31.725 33.97-31.725s8.75 0 8.75-4.744c0-4.746-7.742-4.997-7.742-4.997s-5.748-.25-9.744-5.75c-3.998-5.5-7.248-13.74-7.248-13.74s-25.007-34.418-70.946 23.73z" fill="#f8e5cd"/><path d="M300.1 475.147c-.435 2.93-3.165 4.963-6.098 4.528-2.938-.422-4.973-3.154-4.54-6.087.43-2.946 3.16-4.98 6.1-4.548 2.934.44 4.968 3.172 4.54 6.107zm56.74 1.736c-.438 2.93-3.163 4.967-6.098 4.532-2.936-.422-4.977-3.15-4.54-6.085.43-2.948 3.166-4.98 6.104-4.544 2.93.434 4.962 3.167 4.534 6.097zm-38.913 6.097s14.997 1.006 17.278.8c0 0 .195 5.282-10.96 4.88-11.158-.402-6.318-5.68-6.318-5.68z" fill="#f69fa8"/><path d="M329.988 471.356s-.29 2.606-1.548 2.414c-1.257-.195-1.158.677.29.58 1.446-.1 2.897-2.125 2.41-2.705-.48-.577-1.256-1.35-1.152-.29zm-16.408.992c0 .21-.164.377-.372.377-.213 0-.373-.165-.373-.377 0-.205.16-.373.373-.373.208 0 .372.167.372.373zm30.605 3.748c0 .207-.17.38-.38.38-.202 0-.37-.174-.37-.38 0-.206.168-.372.37-.372.212 0 .38.165.38.372zm-4.465-1.53c0 .21-.17.376-.38.376-.204 0-.37-.166-.37-.377 0-.203.165-.373.37-.373.212 0 .38.17.38.373zm5.076-1.608c0 .21-.164.376-.377.376-.21 0-.38-.165-.38-.376 0-.205.17-.372.37-.372.21 0 .376.167.376.372zm-9.12 0c0 .21-.168.376-.373.376-.204 0-.372-.165-.372-.376 0-.205.17-.377.38-.377s.375.18.375.38zm4.56-3.718c0 .207-.17.378-.374.378-.207 0-.37-.17-.37-.38 0-.204.163-.372.37-.372.205 0 .374.168.374.373zm-30.51 4.165c0 .205-.17.37-.376.37-.207 0-.372-.164-.372-.37 0-.208.165-.377.372-.377.206 0 .375.17.375.377zm-2.89-.243c0 .21-.165.375-.374.375-.212 0-.377-.167-.377-.375 0-.213.165-.376.377-.376.21 0 .374.163.374.376zm17.05-2.812c0 .208-.166.375-.38.375-.2 0-.367-.167-.367-.376 0-.21.16-.38.36-.38.21 0 .38.17.38.37zm4.218-2.995c0 .204-.17.374-.376.374-.214 0-.38-.17-.38-.38s.166-.38.38-.38c.207 0 .376.165.376.38z" fill="#dcb59f"/><circle cx="332.601" cy="462.854" r=".374" fill="#dcb59f"/><path d="M322.95 466.045c0 .202-.164.37-.373.37-.21 0-.377-.168-.377-.37 0-.21.165-.377.377-.377.21 0 .374.166.374.377zm-10.27 2.645c0 .208-.164.375-.377.375-.202 0-.37-.168-.37-.374s.17-.37.37-.37c.212 0 .378.17.378.38zm-12.222 4.385c0 .208-.17.37-.376.37-.208 0-.376-.162-.376-.37s.168-.373.376-.373c.206 0 .376.165.376.373z" fill="#dcb59f"/><path d="M287.132 573.23s-4.945-3.957-9.237 0l-1.723 1.844 16.92 14.39 4.475-5.834-11.445-8.557" fill="#e8ded8"/><path d="M370.88 455.877s-2.978-45.06-45.17-45.945l4.23-4.994-7.465 4.994-4.984-2.082-.99 3.287s-44.87 2.046-37.884 48.096c0 0 27.578-9.42 45.28-33.536 17.7-24.117-1.69-.305-1.69-.305s29.02 34.59 48.68 30.485zm-32.897 8.435s7.448-.922 8.083-1.022c.634-.1-2.59-2.21-8.083 1.022zm-32.073-2.992s6.91 2.277 7.508 2.448c.598.173-1.287-3.376-7.51-2.45z" fill="#010101"/></g></svg>