<svg xmlns="http://www.w3.org/2000/svg" xmlns:xlink="http://www.w3.org/1999/xlink" width="800" height="800" viewBox="0 0 800 800"><title>Ser un revelde</title><defs><filter color-interpolation-filters="sRGB" height="3.233" y="-1.117" width="3.074" x="-1.037" id="c"><feGaussianBlur stdDeviation="307.525"/></filter><clipPath id="d"><use overflow="visible" xlink:href="#a" width="100%" height="100%"/></clipPath><clipPath id="e"><use overflow="visible" xlink:href="#b" width="100%" height="100%"/></clipPath></defs><rect filter="url(#c)" fill-opacity="0" fill="#efe2c2" ry="1.143" rx="1.542" y="54.237" x="57.627" height="661.017" width="711.864"/><path fill="#202020" opacity=".1" d="M453.06 388.494c5.013-1.992 7.76-4.148 7.76-6.4 0-10.062-54.687-18.22-122.148-18.22-67.462 0-122.15 8.157-122.15 18.22 0 10.06 54.688 18.217 122.15 18.217 12 0 23.59-.25 34.546-.74-2.147 1.96-3.32 4.06-3.32 6.25 0 10.45 26.565 18.92 59.333 18.92 32.77 0 59.34-8.47 59.34-18.91 0-7.743-14.6-14.4-35.5-17.326z"/><g transform="translate(106.137 -59.525)"><circle fill="#bfbfbf" r="38.108" cy="312.088" cx="182.834"/><path fill="#a0a0a0" d="M152.612 318.083c-3.306-16.664 7.56-32.91 24.226-36.217 16.663-3.307 32.91 7.56 36.217 24.225 3.306 16.67-7.56 32.92-24.225 36.22-16.664 3.31-32.91-7.56-36.218-24.22zm55.67-11.045c-2.783-14.033-16.465-23.184-30.497-20.4-14.033 2.784-23.184 16.466-20.4 30.5 2.784 14.032 16.466 23.183 30.5 20.4 14.03-2.785 23.182-16.467 20.398-30.5z"/><circle fill="#f8f8f8" opacity=".2" r="25.946" cy="312.087" cx="182.834"/><path fill="#a0a0a0" d="M191.315 319.63l-1.55-7.812 1.296-.257c1.38-.27 2.27-.54 2.66-.8.39-.262.53-.692.41-1.285-.093-.477-.35-.8-.762-.964-.415-.166-.99-.175-1.725-.03-1.225.244-2.034.658-2.426 1.246-.395.575-1.07 2.17-2.026 4.785-.804 2.223-1.454 3.76-1.95 4.608-.494.85-1.276 1.638-2.344 2.366-1.07.727-2.473 1.265-4.213 1.61-2.787.553-5.105.316-6.956-.71-1.85-1.027-3.23-2.844-4.136-5.45l-2.94.583-.713-3.597 3.037-.605c-.205-2.13.235-4.112 1.325-5.95 1.09-1.837 3.372-3.1 6.853-3.792l1.527-.302 1.55 7.816-1.913.38c-2.102.416-3.39.755-3.868 1.017-.48.263-.658.703-.535 1.32.105.53.36.887.766 1.075.407.186.958.21 1.654.073 1.753-.35 2.98-.72 3.688-1.112.707-.396 1.36-1.397 1.968-3.004 1.024-2.68 1.8-4.52 2.334-5.517.534-1 1.377-1.936 2.53-2.815 1.152-.88 2.533-1.475 4.144-1.795 2.333-.463 4.295-.166 5.884.89 1.59 1.06 2.802 2.88 3.636 5.46l2.493-.493.716 3.597-2.494.495c.17 2.472-.282 4.437-1.353 5.896-1.07 1.46-2.76 2.42-5.066 2.877-.322.064-.816.135-1.484.215z"/></g><g transform="translate(106.137 -59.525)"><circle fill="#c3c3c3" r="38.107" cy="287.847" cx="219.53"/><path fill="#a5a5a5" d="M190.13 278.625c5.086-16.21 22.41-25.26 38.62-20.177 16.21 5.085 25.262 22.41 20.177 38.62-5.085 16.21-22.41 25.26-38.62 20.177-16.21-5.085-25.26-22.41-20.176-38.62zm54.155 16.988c4.28-13.65-3.34-28.24-16.99-32.522-13.65-4.28-28.24 3.34-32.52 17-4.283 13.65 3.34 28.24 16.99 32.52 13.65 4.284 28.24-3.34 32.52-16.99z"/><circle fill="#fefefe" opacity=".2" r="25.945" cy="287.846" cx="219.53"/><path fill="#a5a5a5" d="M223.358 298.532l2.384-7.6 1.26.395c1.343.42 2.248.608 2.717.563.46-.046.79-.357.97-.934.14-.465.07-.87-.21-1.213-.29-.343-.79-.628-1.5-.852-1.19-.37-2.1-.39-2.73-.07-.623.32-1.98 1.39-4.07 3.23-1.773 1.57-3.08 2.6-3.92 3.11-.84.51-1.906.83-3.19.95-1.288.13-2.777-.07-4.47-.6-2.71-.85-4.63-2.17-5.76-3.955-1.135-1.79-1.475-4.044-1.02-6.767l-2.86-.897 1.097-3.5 2.953.928c.838-1.97 2.175-3.5 4.013-4.59 1.835-1.09 4.447-1.104 7.833-.042l1.486.468-2.385 7.6-1.86-.584c-2.046-.646-3.34-.965-3.885-.96-.545 0-.912.3-1.1.9-.16.514-.11.95.157 1.31.265.36.736.645 1.414.858 1.704.534 2.962.8 3.77.79.81-.008 1.863-.57 3.165-1.693 2.18-1.862 3.744-3.104 4.69-3.724.945-.62 2.133-1.035 3.565-1.254 1.432-.22 2.932-.082 4.5.41 2.27.71 3.85 1.91 4.737 3.603.884 1.69 1.08 3.865.57 6.53l2.427.76-1.1 3.5-2.425-.76c-1.036 2.25-2.373 3.76-4.012 4.525-1.64.766-3.58.797-5.826.094-.316-.096-.784-.27-1.408-.52z"/></g><g transform="translate(106.137 -59.525)"><circle fill="#c6c6c6" r="42.547" cy="287.504" cx="265.492"/><path fill="#a7a7a7" d="M249.068 317.73c-16.666-9.056-22.858-29.983-13.803-46.65 9.057-16.667 29.984-22.86 46.65-13.803 16.667 9.056 22.86 29.983 13.803 46.65-9.056 16.667-29.983 22.86-46.65 13.803zm30.254-55.68c-14.036-7.625-31.657-2.41-39.284 11.624-7.626 14.036-2.412 31.658 11.623 39.284 14.04 7.626 31.66 2.412 39.29-11.623 7.63-14.036 2.41-31.66-11.62-39.284z"/><circle fill="#fff" opacity=".2" r="28.968" cy="287.504" cx="265.491"/><path fill="#a7a7a7" d="M278.02 285.607l-7.813-4.246.704-1.29c.75-1.38 1.15-2.33 1.21-2.85.05-.523-.22-.946-.813-1.27-.476-.26-.934-.27-1.374-.03-.44.237-.856.723-1.255 1.46-.667 1.224-.887 2.214-.663 2.97.21.75 1.1 2.466 2.66 5.15 1.337 2.28 2.19 3.93 2.568 4.965.375 1.03.493 2.265.356 3.7-.14 1.44-.68 3.027-1.628 4.768-1.514 2.786-3.37 4.608-5.574 5.465-2.203.857-4.75.744-7.632-.34l-1.596 2.94-3.6-1.953 1.65-3.035c-1.976-1.34-3.365-3.136-4.165-5.38-.8-2.25-.255-5.11 1.637-8.595l.83-1.527 7.812 4.244-1.04 1.915c-1.143 2.1-1.77 3.45-1.888 4.046-.118.597.135 1.063.753 1.4.526.285 1.016.322 1.47.11.45-.216.862-.67 1.24-1.368.953-1.754 1.51-3.075 1.675-3.96.167-.89-.225-2.167-1.173-3.834-1.572-2.79-2.596-4.77-3.072-5.94-.477-1.17-.68-2.56-.61-4.18.066-1.615.54-3.23 1.414-4.84 1.267-2.335 2.922-3.807 4.965-4.416 2.042-.61 4.47-.35 7.28.778l1.354-2.494 3.598 1.957-1.355 2.493c2.243 1.62 3.61 3.41 4.097 5.37.49 1.962.107 4.096-1.15 6.404-.172.318-.463.794-.872 1.424z"/></g><path fill="#3a3a3a" d="M240.516 368.444c0 8.14 6.66 14.8 14.8 14.8H410.22c8.14 0 14.8-6.66 14.8-14.8V255.967c0-8.14-6.66-14.8-14.8-14.8H255.315c-8.14 0-14.8 6.66-14.8 14.8v112.477z"/><path fill="#fff" opacity=".05" d="M425.018 255.967c0-9.068-7.732-14.828-14.004-14.828l-155.698.02c-8.14 0-14.8 6.66-14.8 14.8v1.59h184.502v-1.59zm-184.502 110.3v2.177c0 8.14 6.66 14.8 14.8 14.8H410.22c8.14 0 14.8-6.66 14.8-14.8v-2.178H240.515z"/><g transform="translate(106.137 -59.525)"><path fill="#303030" d="M134.37 378.98h65.796v-17.563c0-7.46-6.048-13.51-13.51-13.51H134.37v31.073z"/><path fill="#444" d="M120.937 378.827c0 6.5 5.268 11.766 11.766 11.766h55.892c6.5 0 11.767-5.268 11.767-11.766V363.53c0-6.498-5.268-11.766-11.767-11.766h-55.892c-6.498 0-11.766 5.268-11.766 11.766v15.297z"/><circle fill="#c6c6c6" r="14.12" cy="370.689" cx="176.534"/></g><path fill="#fff" opacity=".5" d="M374.42 256.51c-.11-.11-.26-.176-.425-.176h-6.377c-.33 0-.6.267-.6.597 0 .21.106.39.265.5.1.08.222.12.355.12h6.377c.33 0 .6-.263.6-.593 0-.174-.077-.33-.196-.44zm-25.913-.16h-6.377c-.33 0-.6.268-.6.598 0 .33.27.597.6.597h6.377c.33 0 .6-.267.6-.597 0-.33-.27-.597-.6-.597zm12.755 0h-6.377c-.33 0-.598.268-.598.598 0 .33.268.597.598.597h6.377c.33 0 .598-.267.598-.597 0-.33-.267-.597-.598-.597zm-51.017 0h-6.377c-.33 0-.6.268-.6.598 0 .33.27.597.6.597h6.377c.33 0 .598-.267.598-.597 0-.33-.267-.597-.598-.597zm25.51 0h-6.378c-.33 0-.598.268-.598.598 0 .33.26.597.59.597h6.375c.33 0 .6-.267.6-.597 0-.33-.27-.597-.6-.597zm-89.245 0h-6v1.196h6c.31 0 .564-.267.564-.597 0-.34-.253-.6-.564-.6zm12.718 0h-6.377c-.33 0-.59.268-.59.598 0 .33.27.597.6.597h6.378c.33 0 .6-.267.6-.597 0-.33-.27-.597-.6-.597zm38.262 0h-6.376c-.33 0-.6.268-.6.598 0 .33.27.597.6.597h6.377c.34 0 .6-.267.6-.597 0-.33-.26-.597-.6-.597zm-25.507 0h-6.377c-.33 0-.598.268-.598.598 0 .33.268.597.598.597h6.377c.33 0 .598-.267.598-.597 0-.33-.26-.597-.59-.597zm12.754 0h-6.377c-.33 0-.6.268-.6.598 0 .33.27.597.6.597h6.377c.33 0 .6-.267.6-.597 0-.33-.27-.597-.6-.597zm38.263 0h-6.378c-.33 0-.6.268-.6.598 0 .33.27.597.6.597H323c.33 0 .598-.267.598-.597 0-.33-.268-.597-.6-.597zm76.504-.016h-6.377c-.33 0-.6.267-.6.597 0 .33.27.6.6.6h6.377c.33 0 .6-.26.6-.59 0-.33-.27-.596-.6-.596zm-12.754 0h-6.377c-.33 0-.6.267-.6.597 0 .33.27.6.6.6h6.377c.33 0 .6-.26.6-.59-.002-.33-.27-.596-.6-.596zm25.508 0h-6.377c-.33 0-.59.267-.59.597 0 .33.27.6.6.6h6.378c.33 0 .6-.26.6-.59 0-.33-.268-.596-.6-.596zm12.754 0h-6.377c-.33 0-.6.267-.6.597 0 .33.27.6.6.6h6.377v-1.19zM309.63 366.216h-6.283c-.326 0-.59.267-.59.597 0 .33.264.597.59.597h6.284c.33 0 .59-.268.59-.597 0-.33-.26-.597-.59-.597zm25.138 0h-6.284c-.326 0-.59.267-.59.597 0 .33.264.597.59.597h6.284c.326 0 .59-.268.59-.597 0-.33-.264-.597-.59-.597zm-87.98 0h-6.284v1.195h6.284c.326 0 .59-.26.59-.59 0-.33-.264-.6-.59-.6zm12.568 0h-6.284c-.326 0-.59.267-.59.597 0 .33.264.597.59.597h6.284c.326 0 .59-.268.59-.597 0-.33-.264-.597-.59-.597zm37.707 0h-6.284c-.33 0-.59.267-.59.597 0 .33.26.597.59.597h6.28c.32 0 .59-.268.59-.597 0-.33-.27-.597-.59-.597zm-25.138 0h-6.284c-.32 0-.59.267-.59.597 0 .33.27.597.59.597h6.29c.33 0 .59-.268.59-.597 0-.33-.26-.597-.59-.597zm12.57 0h-6.285c-.326 0-.59.267-.59.597 0 .33.264.597.59.597h6.284c.326 0 .59-.268.59-.597 0-.33-.264-.597-.59-.597zm37.705 0h-6.284c-.326 0-.59.267-.59.597 0 .33.264.597.59.597h6.284c.326 0 .59-.268.59-.597 0-.33-.265-.597-.59-.597z"/><path d="M386.412 397.134l80.833-1.642.012-86.714-80.875-.204zm40.423-26.57c-22.332.034-40.41 8.272-40.41 18.432 0 10.163 18.078 18.406 40.41 18.435 22.33-.02 40.412-8.27 40.412-18.43s-18.082-18.4-40.412-18.43z" fill="#a7a7a7"/><path fill="#ccc" d="M426.835 373.64c-18.606.02-33.67 6.154-33.67 13.715 0 7.56 15.064 13.69 33.67 13.713 18.605-.025 33.668-6.154 33.668-13.713 0-7.562-15.063-13.694-33.668-13.715z"/><path fill="#b0b0b0" d="M426.835 401.335l-.033-.268v-.27h.033c.53 0 1.057-.004 1.58-.017l.01.54c-.53.01-1.058.013-1.59.015zm-1.66-.016c-.544-.02-1.09-.03-1.624-.06l.03-.538c.537.022 1.07.04 1.61.05l-.01.54zm4.873-.05l-.02-.54c.542-.02 1.08-.05 1.615-.08l.03.532c-.536.032-1.076.06-1.625.08zm-8.122-.09c-.546-.037-1.083-.07-1.62-.118l.043-.534c.53.042 1.06.08 1.61.114l-.04.538zm11.37-.11l-.04-.538c.538-.04 1.074-.09 1.607-.143l.052.532c-.535.055-1.074.103-1.62.146zm-14.61-.155c-.543-.054-1.082-.116-1.618-.183l.07-.53c.528.064 1.062.125 1.602.177l-.055.536zm17.844-.17l-.065-.535c.54-.064 1.074-.136 1.6-.212l.078.53c-.53.077-1.068.15-1.613.216zm-21.068-.227c-.545-.08-1.078-.16-1.605-.253l.086-.53c.528.09 1.06.175 1.598.254l-.07.53zm24.286-.24l-.087-.53c.54-.09 1.07-.186 1.59-.29l.11.53c-.526.1-1.06.196-1.6.29zm-27.496-.307c-.54-.102-1.07-.214-1.594-.33l.118-.523c.516.114 1.047.224 1.58.33l-.104.525zm30.688-.316l-.114-.525c.534-.12 1.057-.243 1.57-.374l.13.524c-.517.133-1.048.257-1.586.375zm-33.86-.39c-.536-.135-1.06-.278-1.575-.42l.147-.52c.51.147 1.027.285 1.556.42l-.13.523zm37.018-.403l-.143-.52c.524-.15 1.04-.3 1.543-.464l.162.51c-.51.16-1.03.32-1.562.47zm-40.153-.493c-.527-.167-1.042-.343-1.544-.525l.19-.504c.5.178 1.007.35 1.526.518l-.162.51zm43.258-.503l-.18-.505c.515-.185 1.017-.378 1.503-.576l.202.497c-.496.2-1.002.395-1.525.583zm-46.323-.606c-.51-.205-1.013-.427-1.496-.65l.224-.486c.477.222.974.436 1.472.64l-.2.497zm49.344-.624l-.225-.487c.49-.23.98-.47 1.43-.715l.25.475c-.467.25-.96.495-1.466.728zm-52.303-.758c-.49-.265-.97-.54-1.42-.82l.29-.456c.44.272.91.543 1.39.8l-.25.472zm55.19-.78l-.28-.458c.47-.29.92-.588 1.33-.893l.32.432c-.423.31-.88.616-1.362.916zm-57.96-.96c-.46-.343-.89-.692-1.27-1.042l.36-.4c.37.34.786.68 1.23 1.01l-.32.43zm60.608-1l-.362-.395c.41-.37.78-.75 1.103-1.132l.41.347c-.34.4-.728.8-1.15 1.185zm-63.02-1.24c-.375-.444-.696-.903-.95-1.365l.463-.26c.245.432.545.87.895 1.29l-.41.34zm65.13-1.305l-.468-.264c.267-.467.477-.945.615-1.42l.517.15c-.15.516-.374 1.034-.662 1.536zm-66.735-1.6c-.153-.543-.23-1.096-.23-1.645l.536-.02v.02c0 .5.07 1.005.21 1.502l-.517.144zm67.64-1.593l-.535-.006.27.004-.27-.05c0-.492-.066-.987-.2-1.474l.516-.14c.144.53.22 1.074.22 1.615v.052zm-67.116-1.59l-.512-.148c.147-.52.367-1.036.655-1.543l.466.267c-.263.47-.47.947-.61 1.422zm65.787-1.365c-.24-.43-.54-.863-.887-1.29l.416-.34c.37.45.69.91.944 1.37l-.47.26zm-64.28-1.34l-.41-.34c.335-.402.72-.803 1.146-1.19l.36.397c-.406.37-.776.753-1.097 1.136zm62.304-1.09c-.373-.345-.783-.68-1.226-1.014l.32-.43c.458.343.886.696 1.27 1.05l-.362.395zm-59.974-1.05l-.32-.434c.42-.31.875-.62 1.36-.92l.28.46c-.47.29-.913.59-1.324.895zm57.424-.86c-.436-.272-.902-.54-1.387-.8l.25-.472c.495.266.97.54 1.42.82l-.286.452zm-54.712-.833l-.253-.473c.47-.25.96-.49 1.463-.726l.23.49c-.5.23-.984.47-1.44.71zm51.888-.683c-.48-.223-.97-.44-1.475-.644l.204-.5c.513.207 1.01.427 1.498.655l-.23.49zm-48.98-.67l-.202-.494c.495-.204 1-.396 1.52-.584l.187.5c-.52.187-1.02.38-1.507.577zm46.004-.55c-.492-.18-1.003-.354-1.523-.52l.17-.51c.528.17 1.04.344 1.54.525l-.183.504zm-42.974-.54l-.166-.514c.51-.16 1.032-.32 1.562-.47l.147.52c-.525.146-1.04.3-1.543.464zm39.91-.45c-.51-.145-1.026-.284-1.56-.417l.135-.523c.534.14 1.057.28 1.57.426l-.147.516zm-36.81-.435l-.13-.518c.52-.13 1.046-.258 1.583-.375l.118.523c-.53.112-1.05.24-1.57.366zm33.68-.353c-.514-.117-1.04-.23-1.576-.33l.105-.528c.533.105 1.064.216 1.59.333l-.12.525zm-30.53-.347l-.105-.528c.526-.1 1.06-.2 1.6-.29l.09.53c-.538.09-1.066.184-1.588.284zm27.366-.276c-.523-.09-1.056-.17-1.594-.25l.08-.533c.54.08 1.076.167 1.607.254l-.093.537zm-24.186-.26l-.08-.53c.537-.08 1.07-.15 1.617-.22l.068.535c-.54.066-1.074.14-1.6.216zm21-.206c-.53-.063-1.064-.126-1.604-.18l.054-.532c.546.058 1.082.118 1.616.18l-.065.54zm-17.79-.185l-.056-.536c.535-.05 1.074-.103 1.618-.148l.047.538c-.54.044-1.08.093-1.608.147zm14.58-.14c-.534-.047-1.07-.083-1.614-.12l.032-.53c.55.032 1.087.07 1.62.114l-.04.533zm-11.36-.12l-.034-.534c.54-.03 1.078-.06 1.624-.08l.02.536c-.54.02-1.078.05-1.61.08zm8.133-.077c-.534-.02-1.072-.035-1.61-.05l.01-.535c.55.01 1.09.026 1.627.047l-.027.54zm-4.907-.05l-.015-.535c.54-.014 1.085-.018 1.628-.018h.07v.536h-.067c-.54 0-1.08.005-1.613.02zm6.424 9.838c-.096-1.663-1.74-2.585-3.665-2.585-.797 0-1.89.39-1.88 1.166.015 2.34 11.174 1.786 11.77 7.445.43 4.074-3.93 5.604-7.61 5.604-.378 0-.748-.025-1.09-.053l.056 1.797h-2.004l-.04-2.21c-1.512-.468-2.646-1.28-3.37-2.027l-.362 2.083h-5.4l.373-6.57h5.44c-.024 2.113 2.48 2.475 3.734 2.523 1.045 0 2.53-.208 2.487-1.274-.08-1.936-11.284-1.123-10.965-7.117.17-3.21 3.975-4.603 6.59-4.603.4 0 .8.02 1.2.06l-.025-1.5h1.683l.06 1.81c1.14.335 2.13.88 2.774 1.767l.166-1.76h4.603l.547 5.45h-5.087z"/><path fill="#b9b9b9" d="M459.883 397.663c-2.11 1.298-4.587 2.465-7.363 3.476-2.27.82-4.736 1.53-7.364 2.13-2.338.53-4.797.96-7.363 1.28-2.375.295-4.836.5-7.364.603-1.19.045-2.39.073-3.6.073-1.27 0-2.53-.028-3.77-.08-2.53-.108-4.99-.317-7.367-.62-2.566-.328-5.028-.768-7.363-1.3-2.63-.606-5.096-1.33-7.365-2.16-2.78-1.02-5.256-2.207-7.36-3.518-3.638-2.27-6.16-4.92-7.19-7.797v9.864c1.173 2.69 3.68 5.21 7.19 7.4 2.112 1.32 4.59 2.514 7.36 3.556 2.273.853 4.742 1.603 7.365 2.223 2.34.555 4.8 1.013 7.363 1.356 2.376.32 4.84.545 7.362.657 1.242.054 2.497.083 3.767.087 1.21-.003 2.41-.03 3.596-.08 2.52-.11 4.984-.325 7.362-.64 2.56-.336 5.02-.787 7.36-1.34 2.625-.614 5.094-1.354 7.365-2.2 2.77-1.03 5.244-2.21 7.364-3.514 3.594-2.215 6.165-4.772 7.36-7.505v-9.863c-1.05 2.924-3.635 5.613-7.362 7.905z"/><path fill="#a7a7a7" d="M426.835 357.55c-22.332.03-40.41 8.272-40.41 18.435 0 10.16 18.078 18.4 40.41 18.432 22.33-.033 40.412-6.178 40.412-18.432 0-10.163-18.082-18.406-40.412-18.435z"/><path fill="#ccc" d="M426.835 360.262c-18.606.024-33.67 6.154-33.67 13.714 0 7.56 15.064 13.69 33.67 13.714 18.605-.024 33.668-6.154 33.668-13.714 0-7.56-15.063-13.69-33.668-13.714z"/><path fill="#b0b0b0" d="M426.835 387.96l-.033-.27v-.27h.033c.53 0 1.057-.005 1.58-.014l.01.535c-.53.02-1.058.02-1.59.02zm-1.66-.02c-.544-.01-1.09-.03-1.624-.05l.03-.536c.537.02 1.07.036 1.61.048l-.01.54zm4.873-.047l-.02-.537c.542-.02 1.08-.046 1.615-.08l.03.535c-.536.04-1.076.07-1.625.09zm-8.122-.084l-1.62-.12.043-.54c.53.04 1.06.08 1.61.114l-.04.535zm11.37-.11l-.04-.54c.538-.048 1.074-.096 1.607-.15l.052.534c-.535.054-1.074.103-1.62.15zm-14.61-.16c-.543-.057-1.082-.117-1.618-.18l.07-.53c.528.062 1.062.12 1.602.18l-.055.53zm17.844-.17l-.065-.54c.54-.066 1.074-.136 1.6-.212l.078.533c-.53.08-1.068.15-1.613.217zm-21.068-.23c-.545-.08-1.078-.165-1.605-.255l.086-.528c.528.087 1.06.174 1.598.25l-.07.53zm24.286-.24l-.087-.53c.54-.093 1.07-.188 1.59-.29l.11.527c-.526.1-1.06.197-1.6.29zm-27.496-.305c-.54-.108-1.07-.217-1.594-.334l.118-.525c.516.12 1.047.226 1.58.33l-.104.53zm30.688-.32l-.114-.524c.534-.12 1.057-.242 1.57-.37l.13.52c-.517.13-1.048.255-1.586.375zm-33.86-.39c-.536-.133-1.06-.275-1.575-.42l.147-.52c.51.146 1.027.285 1.556.42l-.13.52zm37.018-.403l-.143-.518c.524-.15 1.04-.306 1.543-.465l.162.51c-.51.16-1.03.32-1.562.47zm-40.153-.49c-.527-.17-1.042-.344-1.544-.525l.19-.505c.5.176 1.007.35 1.526.52l-.162.51zm43.258-.503l-.18-.506c.515-.18 1.017-.377 1.503-.575l.202.5c-.496.2-1.002.393-1.525.58zm-46.323-.61c-.51-.204-1.013-.424-1.496-.65l.224-.488c.477.222.974.44 1.472.642l-.2.494zm49.344-.623l-.225-.486c.49-.233.98-.47 1.43-.713l.25.475c-.467.247-.96.492-1.466.725zm-52.303-.753c-.49-.265-.97-.54-1.42-.818l.29-.46c.44.275.91.543 1.39.8l-.25.476zm55.19-.78l-.28-.46c.47-.29.92-.59 1.33-.89l.32.434c-.423.31-.88.62-1.362.914zm-57.96-.96c-.46-.34-.89-.69-1.27-1.044l.36-.4c.37.34.786.68 1.23 1.01l-.32.43zm60.608-1l-.362-.397c.41-.37.78-.75 1.103-1.133l.41.344c-.34.403-.728.803-1.15 1.19zm-63.02-1.235c-.375-.45-.696-.91-.95-1.37l.463-.265c.245.434.545.866.895 1.29l-.41.344zm65.13-1.31l-.468-.267c.267-.467.477-.947.615-1.42l.517.15c-.15.516-.374 1.033-.662 1.54zm-66.73-1.604c-.154-.544-.23-1.1-.23-1.65l.535-.015v.018c0 .5.07 1.006.21 1.5l-.516.144zm67.64-1.596l-.536-.01.27.007-.27-.05c0-.493-.066-.988-.2-1.47l.516-.145c.145.534.22 1.075.22 1.617v.05zm-67.117-1.59l-.513-.144c.146-.52.366-1.038.654-1.544l.466.27c-.263.47-.47.95-.608 1.423zm65.786-1.366c-.24-.43-.54-.866-.887-1.29l.414-.34c.37.446.69.906.946 1.37l-.474.26zm-64.28-1.337l-.41-.348c.335-.4.72-.805 1.146-1.19l.36.394c-.404.37-.774.752-1.095 1.14zm62.304-1.098c-.376-.34-.786-.68-1.23-1.01l.32-.437c.458.344.886.698 1.27 1.05l-.362.395zm-59.977-1.05l-.317-.436c.42-.31.877-.62 1.36-.92l.28.46c-.467.29-.91.592-1.322.893zm57.427-.86c-.436-.273-.902-.544-1.387-.803l.25-.47c.495.266.973.54 1.42.82l-.286.455zm-54.712-.833l-.254-.473c.468-.244.96-.49 1.464-.724l.228.49c-.5.23-.98.47-1.436.71zm51.887-.682c-.477-.225-.97-.44-1.474-.647l.208-.495c.514.21 1.013.43 1.5.655l-.23.49zm-48.98-.67l-.2-.5c.494-.2 1-.394 1.52-.58l.187.504c-.52.18-1.02.373-1.505.57zm46.005-.554c-.495-.18-1.006-.35-1.526-.52l.17-.51c.527.17 1.038.345 1.54.53l-.184.505zm-42.977-.54l-.168-.51c.51-.162 1.032-.32 1.562-.47l.148.516c-.526.15-1.04.305-1.544.466zm39.91-.445c-.51-.146-1.028-.287-1.56-.42l.133-.52c.535.134 1.058.275 1.572.42l-.15.517zm-36.81-.437l-.13-.52c.52-.13 1.044-.256 1.58-.374l.12.523c-.534.12-1.056.243-1.57.37zm33.68-.353c-.516-.116-1.04-.227-1.578-.334l.105-.52c.537.106 1.068.217 1.59.335l-.12.528zm-30.533-.345l-.104-.527c.527-.102 1.06-.198 1.6-.292l.09.53c-.537.09-1.065.19-1.587.29zm27.367-.277c-.523-.09-1.056-.173-1.594-.252l.08-.53c.54.08 1.077.165 1.608.255l-.09.53zm-24.186-.263l-.08-.53c.538-.08 1.07-.15 1.618-.216l.068.53c-.54.068-1.074.14-1.6.217zm21-.205c-.53-.065-1.064-.126-1.604-.182l.053-.53c.546.053 1.082.114 1.616.182l-.065.53zm-17.79-.188l-.057-.536c.534-.053 1.073-.1 1.617-.146l.044.535c-.54.044-1.076.093-1.605.146zm14.577-.14c-.532-.046-1.07-.086-1.612-.116l.033-.535c.55.032 1.088.07 1.622.115l-.04.538zm-11.36-.12l-.032-.54c.54-.03 1.08-.06 1.625-.08l.02.536c-.543.02-1.08.048-1.61.08zm8.135-.08c-.535-.024-1.073-.04-1.612-.05l.01-.54c.548.01 1.088.03 1.627.05l-.025.54zm-4.91-.055l-.014-.538c.54-.01 1.083-.02 1.626-.02h.07v.54h-.065c-.54 0-1.08.005-1.613.015zm6.424 8.02c-.094-1.666-1.74-2.588-3.663-2.588-.796 0-1.89.393-1.88 1.166.016 2.34 11.175 1.786 11.77 7.443.43 4.074-3.93 5.606-7.61 5.606-.38 0-.75-.027-1.09-.054l.056 1.79h-2.006l-.034-2.21c-1.512-.464-2.646-1.28-3.37-2.026l-.362 2.08h-5.4l.372-6.566h5.44c-.023 2.112 2.48 2.47 3.735 2.522 1.045 0 2.53-.21 2.487-1.275-.08-1.933-11.287-1.124-10.968-7.12.17-3.204 3.976-4.6 6.59-4.6.4 0 .803.02 1.2.06l-.022-1.5h1.682l.06 1.81c1.14.333 2.13.875 2.77 1.766l.166-1.766h4.604l.548 5.45h-5.087z"/><path fill="#b9b9b9" d="M459.883 385.738c-2.11 1.295-4.587 2.465-7.363 3.474-2.27.823-4.736 1.54-7.364 2.136-2.338.53-4.797.963-7.363 1.286-2.375.296-4.836.502-7.364.603-1.19.048-2.39.075-3.6.077-1.27-.002-2.53-.03-3.77-.083-2.53-.1-4.99-.31-7.367-.62-2.566-.32-5.028-.76-7.363-1.3-2.63-.6-5.096-1.33-7.365-2.16-2.78-1.02-5.256-2.2-7.36-3.52-3.638-2.26-6.16-4.92-7.19-7.79v9.87c1.173 2.69 3.68 5.21 7.19 7.4 2.112 1.32 4.59 2.516 7.36 3.557 2.273.856 4.742 1.6 7.365 2.22 2.34.558 4.8 1.016 7.363 1.36 2.376.32 4.84.54 7.362.654 1.242.054 2.497.086 3.767.087 1.21 0 2.41-.03 3.596-.08 2.52-.108 4.984-.324 7.362-.64 2.56-.336 5.02-.79 7.36-1.338 2.625-.614 5.094-1.353 7.365-2.2 2.77-1.027 5.244-2.21 7.364-3.516 3.594-2.213 6.165-4.77 7.36-7.502v-9.99c-1.05 2.92-3.635 5.737-7.362 8.03z"/><path fill="#a7a7a7" d="M426.835 347.44c-22.332.03-40.41 8.272-40.41 18.434 0 10.16 18.078 18.4 40.41 18.434 22.33-.033 40.412-8.272 40.412-18.434s-18.082-18.405-40.412-18.434z"/><path fill="#ccc" d="M426.835 350.515c-18.606.023-33.67 6.155-33.67 13.714 0 7.56 15.064 13.69 33.67 13.71 18.605-.027 33.668-6.16 33.668-13.72s-15.063-13.69-33.668-13.715z"/><path fill="#b0b0b0" d="M426.835 378.21l-.033-.265v-.27h.033c.53-.002 1.057-.007 1.58-.018l.01.537c-.53.012-1.058.017-1.59.017zm-1.66-.015c-.544-.012-1.09-.03-1.624-.048l.03-.54c.537.022 1.07.038 1.61.048l-.01.54zm4.873-.048l-.02-.535c.542-.02 1.08-.05 1.615-.08l.03.535c-.536.03-1.076.06-1.625.08zm-8.122-.084c-.546-.033-1.083-.072-1.62-.114l.043-.54c.53.04 1.06.08 1.61.11l-.04.534zm11.37-.11l-.04-.533c.538-.046 1.074-.093 1.607-.143l.052.532c-.535.05-1.074.1-1.62.14zm-14.61-.152c-.543-.05-1.082-.11-1.618-.18l.07-.53c.528.07 1.062.13 1.602.18l-.055.54zm17.844-.17l-.065-.53c.54-.062 1.074-.14 1.6-.21l.078.53c-.53.08-1.068.15-1.613.216zm-21.068-.22c-.545-.08-1.078-.164-1.605-.252l.086-.532c.528.094 1.06.177 1.598.254l-.07.533zm24.286-.242l-.087-.53c.54-.09 1.07-.187 1.59-.29l.11.53c-.526.1-1.06.2-1.6.29zm-27.496-.302c-.54-.105-1.07-.217-1.594-.333l.118-.525c.516.115 1.047.227 1.58.33l-.104.53zm30.688-.32l-.114-.522c.534-.12 1.057-.24 1.57-.37l.13.52c-.517.13-1.048.257-1.586.375zm-33.86-.39c-.536-.132-1.06-.273-1.575-.42l.147-.515c.51.144 1.027.286 1.556.42l-.13.518zm37.018-.402l-.143-.517c.524-.147 1.04-.303 1.543-.465l.162.51c-.51.165-1.03.323-1.562.473zm-40.153-.49c-.527-.17-1.042-.344-1.544-.524l.19-.507c.5.177 1.007.35 1.526.516l-.162.512zm43.258-.502l-.18-.5c.515-.186 1.017-.38 1.503-.577l.202.5c-.496.2-1.002.393-1.525.58zm-46.323-.604c-.51-.207-1.013-.427-1.496-.653l.224-.49c.477.22.974.437 1.472.64l-.2.5zm49.344-.623l-.225-.49c.49-.23.98-.47 1.43-.71l.25.47c-.467.246-.96.49-1.466.727zm-52.303-.76c-.49-.265-.97-.537-1.42-.817l.29-.455c.44.274.91.54 1.39.8l-.25.475zm55.19-.78l-.28-.46c.47-.29.92-.59 1.33-.892l.32.435c-.423.31-.88.62-1.362.917zm-57.96-.96c-.46-.34-.89-.692-1.27-1.042l.36-.397c.37.34.786.68 1.23 1.01l-.32.43zm60.608-1l-.362-.394c.41-.37.78-.752 1.103-1.135l.41.348c-.34.403-.728.803-1.15 1.188zm-63.02-1.236c-.375-.448-.696-.91-.95-1.367l.463-.265c.245.435.545.87.895 1.29l-.41.34zm65.13-1.31l-.468-.266c.267-.47.477-.947.615-1.42l.517.15c-.15.514-.374 1.03-.662 1.534zm-66.73-1.603c-.154-.54-.23-1.097-.23-1.65l.535-.015v.016c0 .5.07 1.005.21 1.504l-.516.144zm67.64-1.594l-.536-.01.27.008-.27-.05c0-.492-.066-.987-.2-1.472l.516-.143c.145.53.22 1.076.22 1.614v.052zm-67.117-1.586l-.513-.15c.146-.515.366-1.035.654-1.54l.466.265c-.263.47-.47.95-.608 1.425zm65.786-1.37c-.24-.43-.54-.865-.887-1.29l.414-.34c.37.448.69.91.946 1.37l-.474.26zM395.166 360l-.41-.348c.334-.4.72-.8 1.145-1.187l.36.393c-.403.372-.773.754-1.094 1.14zm62.303-1.098c-.377-.34-.787-.68-1.23-1.01l.32-.433c.457.34.885.692 1.27 1.05l-.363.39zm-59.978-1.05l-.317-.43c.42-.31.877-.62 1.36-.92l.28.46c-.467.292-.91.593-1.322.893zm57.427-.856c-.437-.272-.903-.54-1.388-.802l.25-.473c.495.27.973.545 1.42.82l-.286.458zm-54.713-.83l-.254-.475c.468-.245.96-.49 1.464-.724l.228.484c-.5.23-.98.47-1.436.715zm51.887-.686c-.477-.224-.97-.44-1.474-.646l.207-.497c.514.21 1.013.43 1.5.656l-.23.49zm-48.98-.67l-.2-.497c.494-.2 1-.394 1.52-.582l.187.506c-.52.186-1.02.378-1.504.576zm46.005-.554c-.496-.18-1.007-.354-1.527-.52l.17-.514c.527.17 1.038.344 1.54.526l-.184.506zm-42.978-.54l-.168-.51c.51-.165 1.032-.32 1.562-.475l.148.52c-.526.15-1.04.304-1.544.466zm39.91-.45c-.51-.145-1.028-.284-1.56-.418l.133-.52c.535.134 1.058.275 1.572.42l-.15.518zm-36.81-.434l-.13-.52c.52-.132 1.044-.257 1.58-.376l.12.525c-.534.12-1.056.24-1.57.37zm33.68-.358c-.516-.117-1.04-.225-1.578-.33l.105-.527c.536.105 1.067.217 1.59.334l-.12.525zm-30.533-.34l-.105-.53c.527-.103 1.06-.2 1.6-.29l.09.53c-.537.087-1.065.186-1.587.29zm27.366-.28c-.523-.093-1.056-.174-1.594-.254l.08-.53c.54.08 1.077.163 1.608.253l-.09.53zm-24.186-.265l-.08-.53c.537-.08 1.07-.15 1.617-.218l.068.53c-.54.068-1.074.14-1.6.216zm21-.207c-.53-.066-1.065-.125-1.605-.184l.053-.534c.547.058 1.083.12 1.617.186l-.065.534zm-17.792-.19l-.056-.533c.534-.056 1.073-.103 1.617-.15l.043.535c-.54.048-1.076.095-1.605.15zm14.578-.14c-.532-.04-1.07-.08-1.612-.113l.033-.537c.55.03 1.088.07 1.622.114l-.04.536zm-11.36-.116l-.032-.534c.54-.033 1.08-.06 1.625-.085l.02.54c-.544.02-1.08.047-1.61.08zm8.135-.076c-.534-.02-1.072-.037-1.61-.05l.01-.537c.547.01 1.087.027 1.626.05l-.025.537zm-4.91-.053l-.013-.536c.54-.01 1.083-.015 1.626-.017h.07v.54h-.065c-.54 0-1.08 0-1.612.012zm6.425 9.837c-.094-1.664-1.74-2.585-3.663-2.585-.796 0-1.89.39-1.88 1.165.016 2.34 11.175 1.787 11.77 7.445.43 4.074-3.93 5.606-7.61 5.606-.38 0-.75-.027-1.09-.054l.056 1.793h-2.005l-.034-2.21c-1.513-.466-2.647-1.278-3.37-2.026l-.363 2.08h-5.4l.372-6.565h5.44c-.024 2.11 2.48 2.47 3.734 2.52 1.045 0 2.53-.207 2.487-1.275-.08-1.934-11.286-1.124-10.967-7.114.17-3.21 3.976-4.6 6.59-4.6.4 0 .803.02 1.2.06l-.022-1.5h1.683l.06 1.81c1.14.33 2.13.875 2.77 1.764l.166-1.764h4.603l.548 5.45h-5.086z"/><path fill="#b9b9b9" d="M459.883 374.54c-2.11 1.297-4.587 2.464-7.363 3.473-2.27.826-4.736 1.54-7.364 2.134-2.338.53-4.797.966-7.363 1.288-2.375.298-4.836.5-7.364.604-1.19.04-2.39.07-3.6.07-1.27-.008-2.53-.03-3.77-.08-2.53-.11-4.99-.32-7.367-.62-2.566-.33-5.028-.77-7.363-1.31-2.63-.6-5.096-1.327-7.365-2.16-2.78-1.02-5.256-2.204-7.36-3.52-3.638-2.267-6.16-4.92-7.19-7.794v9.863c1.173 2.693 3.68 5.212 7.19 7.402 2.112 1.318 4.59 2.514 7.36 3.556 2.273.853 4.742 1.6 7.365 2.224 2.34.554 4.8 1.01 7.363 1.353 2.376.32 4.84.544 7.362.66 1.242.053 2.497.083 3.767.083 1.21 0 2.41-.026 3.596-.077 2.52-.11 4.984-.325 7.362-.637 2.56-.337 5.02-.79 7.36-1.34 2.625-.615 5.094-1.357 7.365-2.2 2.77-1.03 5.244-2.214 7.364-3.516 3.594-2.215 6.165-4.77 7.36-7.51v-9.86c-1.05 2.92-3.635 5.61-7.362 7.9z"/><path fill="#a7a7a7" d="M426.835 338.056c-22.332.033-40.41 8.272-40.41 18.435 0 10.16 18.078 18.41 40.41 18.43 22.33-.02 40.412-8.27 40.412-18.43s-18.082-18.4-40.412-18.43z"/><path fill="#ccc" d="M426.835 341.13c-18.606.025-33.67 6.156-33.67 13.715 0 7.56 15.064 13.692 33.67 13.715 18.605-.023 33.668-6.154 33.668-13.715 0-7.56-15.063-13.69-33.668-13.714z"/><path fill="#b0b0b0" d="M426.835 368.83l-.033-.27v-.267h.033c.53-.003 1.057-.01 1.58-.017l.01.535c-.53.01-1.058.02-1.59.02zm-1.66-.02c-.544-.01-1.09-.03-1.624-.05l.03-.536c.537.02 1.07.038 1.61.05l-.01.537zm4.873-.046l-.02-.537c.542-.022 1.08-.05 1.615-.08l.03.537c-.536.03-1.076.056-1.625.08zm-8.122-.085l-1.62-.12.043-.54c.53.04 1.06.08 1.61.114l-.04.535zm11.37-.11l-.04-.54c.538-.048 1.074-.096 1.607-.15l.052.53c-.535.057-1.074.106-1.62.15zm-14.61-.16c-.543-.05-1.082-.117-1.618-.18l.07-.53 1.602.18-.055.53zm17.844-.17l-.065-.53c.54-.07 1.074-.14 1.6-.22l.078.53c-.53.08-1.068.15-1.613.22zm-21.068-.23c-.545-.08-1.078-.164-1.605-.255l.086-.528c.528.09 1.06.17 1.598.252l-.07.527zm24.286-.24l-.087-.53c.54-.09 1.07-.188 1.59-.288l.11.526c-.526.1-1.06.2-1.6.29zm-27.496-.307c-.54-.1-1.07-.213-1.594-.333l.118-.522c.516.117 1.047.23 1.58.33l-.104.526zm30.688-.317l-.114-.524c.534-.116 1.057-.24 1.57-.37l.13.52c-.517.13-1.048.256-1.586.375zm-33.86-.39c-.536-.136-1.06-.276-1.575-.42l.147-.52c.51.15 1.027.286 1.556.42l-.13.52zm37.018-.406l-.143-.517c.524-.15 1.04-.305 1.543-.464l.162.51c-.51.16-1.03.32-1.562.47zm-40.153-.49c-.527-.17-1.042-.344-1.544-.524l.19-.506c.5.178 1.007.35 1.526.52l-.162.51zm43.258-.5l-.18-.507c.515-.187 1.017-.377 1.503-.576l.202.498c-.496.2-1.002.396-1.525.585zm-46.323-.61c-.51-.207-1.013-.43-1.496-.652l.224-.487c.477.224.974.438 1.472.644l-.2.5zm49.344-.623l-.225-.487c.49-.23.98-.47 1.43-.71l.25.474c-.467.246-.96.492-1.466.726zm-52.303-.757c-.49-.264-.97-.536-1.42-.817l.29-.456c.44.272.91.54 1.39.8l-.25.47zm55.19-.782l-.28-.453c.47-.29.92-.59 1.33-.89l.32.433c-.423.31-.88.62-1.362.912zm-57.96-.952c-.46-.34-.89-.693-1.27-1.045l.36-.393c.37.34.786.68 1.23 1.01l-.32.43zm60.608-.998l-.362-.4c.41-.37.78-.75 1.103-1.133l.41.346c-.34.4-.728.8-1.15 1.19zm-63.02-1.24c-.375-.45-.696-.906-.95-1.367l.463-.26c.245.43.545.863.895 1.285l-.41.343zm65.13-1.31l-.468-.263c.267-.467.477-.946.615-1.42l.517.15c-.15.516-.374 1.034-.662 1.536zm-66.73-1.602c-.154-.54-.23-1.097-.23-1.65l.535-.014v.015c0 .5.07 1.01.21 1.5l-.516.146zm67.64-1.593l-.536-.01.27.007-.27-.05c0-.49-.066-.988-.2-1.472l.516-.144c.145.532.22 1.074.22 1.615v.055zm-67.117-1.588l-.513-.15c.146-.52.366-1.04.654-1.54l.466.263c-.263.47-.47.946-.608 1.426zm65.786-1.37c-.24-.433-.54-.867-.887-1.29l.414-.34c.37.45.69.907.946 1.37l-.474.26zm-64.28-1.34l-.41-.344c.335-.4.72-.8 1.146-1.19l.36.4c-.404.37-.774.75-1.095 1.14zm62.304-1.09c-.376-.345-.786-.683-1.23-1.016l.32-.43c.458.344.886.7 1.27 1.05l-.362.4zm-59.977-1.054l-.317-.43c.42-.31.877-.62 1.36-.92l.28.46c-.467.29-.91.59-1.322.89zm57.427-.855c-.436-.273-.902-.54-1.387-.803l.25-.472c.495.26.973.54 1.42.813l-.286.46zm-54.712-.83l-.254-.476c.468-.25.96-.498 1.464-.73l.228.484c-.5.23-.98.47-1.436.715zm51.887-.687c-.477-.224-.97-.44-1.474-.643l.208-.498c.514.206 1.013.425 1.5.652l-.23.483zm-48.98-.67l-.2-.496c.494-.2 1-.394 1.52-.584l.187.507c-.52.185-1.02.376-1.505.574zm46.005-.553c-.495-.18-1.006-.354-1.526-.52l.17-.51c.527.17 1.038.344 1.54.524l-.184.5zm-42.977-.54l-.168-.51c.51-.165 1.032-.32 1.562-.473l.148.518c-.526.15-1.04.3-1.544.46zm39.91-.448c-.51-.148-1.028-.288-1.56-.42l.133-.52c.535.135 1.058.277 1.572.425l-.15.516zm-36.81-.435l-.13-.52c.52-.133 1.044-.256 1.58-.376l.12.524c-.534.12-1.056.24-1.57.37zm33.68-.357c-.516-.114-1.04-.224-1.578-.332l.105-.523c.537.106 1.068.216 1.59.333l-.12.527zm-30.533-.34l-.104-.53c.527-.103 1.06-.2 1.6-.29l.09.53c-.537.09-1.065.186-1.587.29zm27.367-.28c-.523-.09-1.056-.174-1.594-.253l.08-.53c.54.08 1.077.167 1.608.255l-.09.53zm-24.186-.262l-.08-.53c.538-.08 1.07-.15 1.618-.215l.068.53c-.54.067-1.074.14-1.6.215zm21-.206c-.53-.065-1.064-.127-1.604-.182l.053-.533c.546.05 1.082.112 1.616.18l-.065.532zm-17.79-.187l-.057-.53c.534-.057 1.073-.105 1.617-.148l.044.534c-.54.043-1.076.09-1.605.145zm14.577-.14c-.532-.044-1.07-.08-1.612-.11l.033-.54c.55.036 1.088.072 1.622.117l-.04.533zm-11.36-.115l-.032-.536c.54-.035 1.08-.06 1.625-.08l.02.535c-.543.02-1.08.047-1.61.08zm8.135-.077c-.535-.025-1.073-.037-1.612-.05l.01-.537c.548.01 1.088.03 1.627.05l-.025.54zm-4.91-.053l-.014-.537c.54-.01 1.083-.018 1.626-.018h.07v.54h-.065c-.54 0-1.08.004-1.613.014zm6.424 9.842c-.094-1.664-1.74-2.587-3.663-2.587-.796 0-1.89.39-1.88 1.165.016 2.34 11.175 1.786 11.77 7.44.43 4.08-3.93 5.608-7.61 5.608-.38 0-.75-.025-1.09-.056l.056 1.793h-2.006l-.034-2.207c-1.512-.464-2.646-1.277-3.37-2.025l-.362 2.08h-5.4l.372-6.56h5.44c-.023 2.108 2.48 2.467 3.735 2.52 1.045 0 2.53-.208 2.487-1.276-.08-1.94-11.287-1.128-10.968-7.12.17-3.21 3.976-4.605 6.59-4.605.4 0 .803.02 1.2.06l-.022-1.5h1.682l.06 1.81c1.14.333 2.13.877 2.77 1.765l.166-1.765h4.604l.548 5.45h-5.087z"/><path fill="#b9b9b9" d="M459.883 363.34c-2.11 1.295-4.587 2.466-7.363 3.476-2.27.823-4.736 1.537-7.364 2.133-2.338.52-4.797.96-7.363 1.28-2.375.3-4.836.5-7.364.6-1.19.045-2.39.072-3.6.075-1.27-.003-2.53-.03-3.77-.08-2.53-.11-4.99-.318-7.367-.624-2.566-.325-5.028-.766-7.363-1.3-2.63-.6-5.096-1.326-7.365-2.16-2.78-1.02-5.256-2.206-7.36-3.517-3.638-2.27-6.16-4.92-7.19-7.798v9.866c1.173 2.69 3.68 5.21 7.19 7.4 2.112 1.318 4.59 2.515 7.36 3.556 2.273.855 4.742 1.6 7.365 2.227 2.34.554 4.8 1.01 7.363 1.355 2.376.32 4.84.54 7.362.653 1.242.058 2.497.09 3.767.09 1.21 0 2.41-.03 3.596-.08 2.52-.11 4.984-.325 7.362-.636 2.56-.336 5.02-.79 7.36-1.34 2.625-.614 5.094-1.354 7.365-2.2 2.77-1.03 5.244-2.212 7.364-3.516 3.594-2.213 6.165-4.77 7.36-7.502v-9.865c-1.05 2.924-3.635 5.615-7.362 7.907z"/><path fill="#a7a7a7" d="M426.835 324.68c-22.332.032-40.41 8.27-40.41 18.434 0 10.16 18.078 18.4 40.41 18.43 22.33-.03 40.412-8.27 40.412-18.43 0-10.164-18.082-18.403-40.412-18.435z"/><path fill="#ccc" d="M426.835 327.754c-18.606.024-33.67 6.154-33.67 13.714 0 7.56 15.064 13.694 33.67 13.715 18.605-.022 33.668-6.156 33.668-13.715 0-7.56-15.063-13.69-33.668-13.714z"/><path fill="#b0b0b0" d="M426.835 355.45l-.033-.267v-.27h.033c.53 0 1.057-.006 1.58-.02l.01.54c-.53.012-1.058.018-1.59.018zm-1.66-.017c-.544-.012-1.09-.028-1.624-.05l.03-.536c.537.02 1.07.037 1.61.048l-.01.538zm4.873-.047l-.02-.535c.542-.02 1.08-.04 1.615-.08l.03.54c-.536.03-1.076.06-1.625.08zm-8.122-.085c-.546-.03-1.083-.07-1.62-.11l.043-.53c.53.04 1.06.08 1.61.116l-.04.534zm11.37-.11l-.04-.53c.538-.04 1.074-.09 1.607-.14l.052.535c-.535.054-1.074.103-1.62.145zm-14.61-.15c-.543-.05-1.082-.11-1.618-.18l.07-.53c.528.07 1.062.12 1.602.18l-.055.54zm17.844-.17l-.065-.53c.54-.06 1.074-.14 1.6-.21l.078.53c-.53.08-1.068.15-1.613.215zm-21.068-.22c-.545-.08-1.078-.17-1.605-.25l.086-.533c.528.094 1.06.175 1.598.255l-.07.534zm24.286-.243l-.087-.53c.54-.09 1.07-.185 1.59-.287l.11.53c-.526.1-1.06.197-1.6.287zm-27.496-.305c-.54-.105-1.07-.216-1.594-.33l.118-.526c.516.117 1.047.227 1.58.33l-.104.526zm30.688-.317l-.114-.524c.534-.116 1.057-.24 1.57-.367l.13.52c-.517.13-1.048.255-1.586.374zm-33.86-.387c-.536-.14-1.06-.278-1.575-.424l.147-.52c.51.15 1.027.287 1.556.42l-.13.52zm37.018-.407l-.143-.516c.524-.15 1.04-.308 1.543-.467l.162.515c-.51.163-1.03.32-1.562.47zm-40.153-.49c-.527-.17-1.042-.344-1.544-.523l.19-.507c.5.18 1.007.352 1.526.52l-.162.51zm43.258-.503l-.18-.505c.515-.183 1.017-.375 1.503-.573l.202.5c-.496.2-1.002.393-1.525.582zm-46.323-.606c-.51-.207-1.013-.427-1.496-.65l.224-.49c.477.22.974.438 1.472.64l-.2.498zm49.344-.625l-.225-.487c.49-.23.98-.472 1.43-.712l.25.477c-.467.25-.96.49-1.466.726zM399.92 350c-.494-.263-.973-.537-1.42-.817l.284-.456c.437.27.907.54 1.387.798l-.25.474zm55.19-.78l-.282-.457c.47-.29.916-.59 1.325-.89l.32.433c-.425.31-.883.62-1.364.915zm-57.968-.957c-.46-.34-.888-.694-1.27-1.044l.36-.4c.37.34.785.68 1.23 1.01l-.32.43zm60.607-1l-.37-.396c.41-.37.78-.752 1.1-1.134l.41.346c-.34.4-.726.79-1.15 1.18zm-63.03-1.237c-.375-.447-.696-.907-.95-1.366l.463-.262c.245.43.545.863.895 1.286l-.41.342zm65.13-1.307l-.468-.27c.266-.47.476-.95.614-1.42l.516.15c-.15.52-.373 1.03-.66 1.54zm-66.73-1.61c-.154-.54-.23-1.098-.23-1.65l.535-.016v.015c0 .503.07 1.01.21 1.502l-.516.145zm67.64-1.59l-.536-.01h.27l-.27-.05c0-.49-.066-.986-.2-1.47l.516-.14c.147.532.22 1.08.22 1.614v.054zm-67.117-1.59l-.513-.15c.148-.52.368-1.04.656-1.54l.465.26c-.263.47-.47.948-.61 1.424zm65.786-1.37c-.24-.436-.54-.87-.887-1.29l.413-.34c.37.444.69.91.944 1.37l-.472.26zm-64.28-1.34l-.41-.35c.335-.4.72-.8 1.146-1.187l.36.396c-.406.37-.776.753-1.097 1.14zm62.304-1.095c-.372-.34-.782-.68-1.225-1.013l.32-.43c.457.34.885.696 1.27 1.047l-.363.396zm-59.973-1.05l-.316-.43c.42-.315.875-.623 1.36-.92l.28.456c-.47.29-.913.593-1.324.895zm57.428-.86c-.437-.27-.9-.54-1.388-.8l.252-.474c.493.268.97.543 1.42.82l-.288.456zm-54.71-.83l-.256-.476c.466-.25.96-.49 1.462-.726l.23.483c-.5.23-.985.472-1.44.714zm51.885-.69c-.477-.22-.97-.435-1.474-.64l.205-.5c.513.21 1.01.43 1.5.656l-.23.486zm-48.978-.665l-.205-.497c.493-.2 1-.396 1.52-.586l.185.506c-.517.185-1.02.378-1.505.576zm46-.552c-.492-.18-1.003-.356-1.523-.523l.17-.51c.526.168 1.037.348 1.54.53l-.185.505zm-42.974-.543l-.165-.51c.51-.163 1.033-.32 1.563-.47l.15.517c-.525.148-1.04.302-1.543.465zm39.91-.445c-.507-.145-1.025-.284-1.557-.418l.132-.522c.535.135 1.058.275 1.572.423l-.15.517zm-36.81-.433l-.13-.52c.52-.13 1.047-.256 1.584-.377l.12.525c-.534.12-1.056.24-1.57.374zm33.683-.36c-.517-.11-1.043-.22-1.58-.327l.106-.528c.535.106 1.066.218 1.59.334l-.12.52zm-30.534-.34l-.106-.528c.528-.105 1.06-.2 1.6-.295l.09.53c-.536.09-1.064.184-1.586.29zm27.365-.28c-.523-.09-1.056-.17-1.594-.25l.08-.53c.54.08 1.078.164 1.61.253l-.094.53zm-24.186-.26l-.08-.533c.533-.078 1.07-.15 1.613-.215l.065.53c-.54.07-1.077.14-1.6.215zm20.996-.207c-.53-.066-1.064-.127-1.604-.18l.054-.537c.548.053 1.084.113 1.618.18l-.064.53zm-17.79-.19l-.057-.534c.532-.056 1.07-.105 1.615-.148l.043.534c-.54.043-1.08.092-1.61.145zm14.577-.14c-.53-.042-1.07-.08-1.61-.115l.03-.534c.55.036 1.09.07 1.623.117l-.04.535zm-11.36-.116l-.03-.538c.54-.03 1.077-.06 1.623-.08l.02.534c-.54.02-1.077.047-1.61.08zm8.136-.078c-.537-.02-1.075-.04-1.614-.05l.01-.54c.55.013 1.09.027 1.628.05l-.024.537zm-4.91-.05l-.014-.54c.54-.014 1.084-.02 1.627-.02h.07v.54h-.067c-.54 0-1.08.004-1.614.016zm6.42 9.836c-.095-1.664-1.74-2.585-3.664-2.585-.794 0-1.89.396-1.88 1.168.018 2.34 11.177 1.786 11.77 7.446.43 4.07-3.93 5.604-7.607 5.604-.38 0-.75-.028-1.09-.055l.055 1.792h-2.008l-.036-2.21c-1.51-.462-2.645-1.28-3.37-2.024l-.36 2.08h-5.4l.37-6.563h5.44c-.022 2.11 2.48 2.47 3.736 2.524 1.046 0 2.53-.21 2.488-1.28-.08-1.933-11.288-1.12-10.97-7.115.17-3.21 3.978-4.602 6.593-4.602.4 0 .803.02 1.2.06l-.022-1.5h1.683l.06 1.81c1.14.334 2.13.88 2.774 1.768l.166-1.765h4.606l.545 5.45h-5.086z"/><path fill="#b9b9b9" d="M459.883 351.777c-2.11 1.295-4.587 2.465-7.363 3.475-2.27.824-4.736 1.54-7.364 2.134-2.338.53-4.797.965-7.363 1.286-2.375.298-4.836.502-7.364.604-1.19.05-2.39.076-3.6.076-1.27 0-2.53-.03-3.77-.08-2.53-.108-4.99-.318-7.367-.623-2.566-.33-5.028-.77-7.363-1.31-2.63-.6-5.096-1.33-7.365-2.16-2.78-1.025-5.256-2.207-7.36-3.52-3.638-2.27-6.16-4.92-7.19-7.798v9.866c1.173 2.69 3.68 5.21 7.19 7.397 2.112 1.32 4.59 2.516 7.36 3.557 2.273.857 4.742 1.6 7.365 2.227 2.34.554 4.8 1.012 7.363 1.354 2.376.32 4.84.543 7.362.656 1.242.055 2.497.085 3.767.086 1.21 0 2.41-.028 3.596-.08 2.52-.107 4.984-.323 7.362-.636 2.56-.34 5.02-.79 7.36-1.34 2.625-.614 5.094-1.353 7.365-2.2 2.77-1.03 5.244-2.21 7.364-3.513 3.594-2.216 6.165-4.77 7.36-7.505v-9.867c-1.05 2.924-3.635 5.613-7.362 7.904z"/><path fill="#a7a7a7" d="M426.835 313.478c-22.332.033-40.41 8.274-40.41 18.433 0 10.17 18.078 18.41 40.41 18.44 22.33-.03 40.412-8.27 40.412-18.43s-18.082-18.4-40.412-18.432z"/><path fill="#ccc" d="M426.835 316.554c-18.606.025-33.67 6.155-33.67 13.715s15.064 13.69 33.67 13.71c18.605-.03 33.668-6.16 33.668-13.72s-15.063-13.69-33.668-13.716z"/><path fill="#b0b0b0" d="M426.835 344.252l-.033-.268v-.27h.033c.53 0 1.057-.006 1.58-.017l.01.54c-.53.008-1.058.014-1.59.015zm-1.66-.02c-.544-.01-1.09-.027-1.624-.048l.03-.536c.537.02 1.07.038 1.61.05l-.01.535zm4.873-.045l-.02-.538c.542-.03 1.08-.05 1.615-.08l.03.53c-.536.03-1.076.06-1.625.08zm-8.122-.084c-.546-.036-1.083-.072-1.62-.116l.043-.534c.53.042 1.06.08 1.61.114l-.04.536zm11.37-.11l-.04-.534 1.607-.15.052.53c-.535.053-1.074.1-1.62.144zm-14.61-.154c-.543-.06-1.082-.12-1.618-.19l.07-.53c.528.064 1.062.12 1.602.176l-.055.534zm17.844-.18l-.065-.534c.54-.066 1.074-.138 1.6-.214l.078.53c-.53.08-1.068.15-1.613.217zm-21.068-.227c-.545-.078-1.078-.164-1.605-.25l.086-.53c.528.09 1.06.17 1.598.25l-.07.53zm24.286-.243l-.087-.53c.54-.09 1.07-.186 1.59-.29l.11.53c-.526.1-1.06.2-1.6.29zm-27.496-.302c-.54-.105-1.07-.22-1.594-.335l.118-.524c.516.115 1.047.226 1.58.33l-.104.526zm30.688-.32l-.114-.524c.534-.114 1.057-.24 1.57-.37l.13.52c-.517.13-1.048.258-1.586.376zm-33.86-.39c-.536-.134-1.06-.274-1.575-.42l.147-.52c.51.144 1.027.29 1.556.42l-.13.52zm37.018-.405l-.143-.517c.524-.15 1.04-.304 1.543-.466l.162.51c-.51.164-1.03.32-1.562.47zm-40.153-.49c-.527-.167-1.042-.342-1.544-.523l.19-.507c.5.18 1.007.35 1.526.52l-.162.51zm43.258-.5l-.18-.507c.515-.187 1.017-.38 1.503-.578l.202.497c-.496.2-1.002.397-1.525.587zm-46.323-.61c-.51-.207-1.013-.425-1.496-.652l.224-.484c.477.22.974.436 1.472.64l-.2.496zm49.344-.624l-.225-.487c.49-.23.98-.47 1.43-.71l.25.474c-.467.246-.96.492-1.466.723zm-52.303-.758c-.49-.26-.97-.538-1.42-.818l.29-.456c.44.274.91.543 1.39.8l-.25.474zm55.19-.78l-.28-.457c.47-.29.92-.59 1.33-.894l.32.437c-.423.31-.88.62-1.362.915zm-57.96-.958c-.46-.34-.89-.693-1.27-1.046l.36-.394c.37.34.786.68 1.23 1.01l-.32.43zm60.608-1l-.362-.395c.41-.37.78-.75 1.103-1.133l.41.344c-.34.4-.728.8-1.15 1.187zm-63.02-1.236c-.375-.446-.696-.907-.95-1.37l.463-.26c.245.433.545.867.895 1.287l-.41.344zm65.13-1.306l-.468-.267c.267-.47.477-.946.615-1.422l.517.153c-.15.51-.374 1.03-.662 1.533zm-66.73-1.606c-.154-.545-.23-1.1-.23-1.65l.535-.017v.017c0 .5.07 1.007.21 1.503l-.516.145zm67.64-1.598l-.536-.007.27.004-.27-.05c0-.49-.066-.987-.2-1.474l.516-.144c.145.533.22 1.078.22 1.615v.056zm-67.117-1.588l-.513-.148c.146-.52.366-1.038.654-1.543l.466.27c-.263.465-.47.944-.608 1.422zm65.786-1.37c-.24-.433-.54-.866-.887-1.288l.414-.34c.37.445.69.91.946 1.37l-.474.26zm-64.28-1.336l-.41-.348c.335-.4.72-.8 1.146-1.19l.36.397c-.404.37-.774.753-1.095 1.14zm62.304-1.096c-.376-.34-.786-.682-1.23-1.012l.32-.43c.458.34.886.69 1.27 1.047l-.362.393zm-59.977-1.05l-.317-.43c.42-.314.877-.62 1.36-.92l.28.455c-.467.29-.91.59-1.322.894zm57.427-.86c-.436-.27-.902-.54-1.387-.8l.25-.472c.495.265.973.54 1.42.82l-.286.453zm-54.712-.833l-.254-.47c.468-.25.96-.495 1.464-.728l.228.486c-.5.23-.98.47-1.436.71zm51.887-.68c-.477-.225-.97-.44-1.474-.647l.208-.495c.514.21 1.013.427 1.5.654l-.23.49zm-48.98-.67l-.2-.498c.494-.204 1-.398 1.52-.588l.187.506c-.52.187-1.02.38-1.505.577zm46.005-.555c-.495-.18-1.006-.352-1.526-.52l.17-.508c.527.167 1.038.342 1.54.526l-.184.5zm-42.977-.54l-.168-.512c.51-.16 1.032-.316 1.562-.47l.148.52c-.526.15-1.04.304-1.544.464zm39.91-.447c-.51-.148-1.028-.285-1.56-.42l.133-.52c.535.135 1.058.275 1.572.42l-.15.52zm-36.81-.434l-.13-.52c.52-.13 1.044-.256 1.58-.375l.12.526c-.534.117-1.056.24-1.57.37zm33.68-.356c-.516-.12-1.04-.23-1.578-.333l.105-.526c.537.106 1.068.216 1.59.333l-.12.526zm-30.533-.35l-.104-.525c.527-.1 1.06-.2 1.6-.29l.09.53c-.537.09-1.065.187-1.587.286zm27.367-.275c-.523-.09-1.056-.175-1.594-.25l.08-.534c.54.08 1.077.165 1.608.256l-.09.53zm-24.186-.26l-.08-.53c.538-.078 1.07-.15 1.618-.218l.068.53c-.54.065-1.074.136-1.6.214zm21-.21c-.53-.063-1.064-.124-1.604-.18l.053-.533c.546.053 1.082.114 1.616.18l-.065.53zm-17.79-.187l-.057-.537c.534-.053 1.073-.103 1.617-.146l.044.533c-.54.044-1.076.094-1.605.147zm14.577-.14c-.532-.044-1.07-.08-1.612-.116l.033-.533c.55.034 1.088.073 1.622.115l-.04.534zm-11.36-.12l-.032-.535c.54-.03 1.08-.058 1.625-.08l.02.536c-.543.02-1.08.047-1.61.08zm8.135-.077c-.535-.02-1.073-.038-1.612-.048l.01-.538c.548.01 1.088.026 1.627.047l-.025.535zm-4.91-.054l-.014-.536c.54-.01 1.083-.013 1.626-.013h.07v.534h-.065c-.54 0-1.08.006-1.613.016zm6.424 9.84c-.094-1.66-1.74-2.584-3.663-2.584-.796 0-1.89.393-1.88 1.167.016 2.34 11.175 1.787 11.77 7.445.43 4.075-3.93 5.604-7.61 5.604-.38 0-.75-.03-1.09-.056l.056 1.79h-2.006l-.034-2.206c-1.512-.466-2.646-1.28-3.37-2.024l-.362 2.08h-5.4l.372-6.563h5.44c-.023 2.11 2.48 2.47 3.735 2.52 1.045 0 2.53-.203 2.487-1.27-.08-1.933-11.287-1.123-10.968-7.12.17-3.205 3.976-4.6 6.59-4.6.4 0 .803.02 1.2.06l-.022-1.5h1.682l.06 1.81c1.14.33 2.13.88 2.77 1.77l.166-1.768h4.604l.548 5.45h-5.087z"/><path fill="#b9b9b9" d="M459.883 340.58c-2.11 1.296-4.587 2.465-7.363 3.475-2.27.82-4.736 1.538-7.364 2.133-2.338.528-4.797.963-7.363 1.286-2.375.296-4.836.5-7.364.604-1.19.048-2.39.075-3.6.075-1.27-.003-2.53-.03-3.77-.08-2.53-.11-4.99-.318-7.367-.624-2.566-.33-5.028-.77-7.363-1.31-2.63-.6-5.096-1.33-7.365-2.16-2.78-1.02-5.256-2.21-7.36-3.518-3.638-2.27-6.16-4.92-7.19-7.798v9.866c1.173 2.69 3.68 5.208 7.19 7.398 2.112 1.32 4.59 2.516 7.36 3.557 2.273.855 4.742 1.6 7.365 2.227 2.34.558 4.8 1.012 7.363 1.356 2.376.32 4.84.54 7.362.66 1.242.05 2.497.08 3.767.084 1.21-.006 2.41-.03 3.596-.083 2.52-.11 4.984-.326 7.362-.638 2.56-.337 5.02-.79 7.36-1.34 2.625-.615 5.094-1.355 7.365-2.202 2.77-1.024 5.244-2.206 7.364-3.512 3.594-2.216 6.165-4.775 7.36-7.506v-9.865c-1.05 2.922-3.635 5.612-7.362 7.904z"/><path fill="#a7a7a7" d="M426.835 301.918c-22.332.03-40.41 8.272-40.41 18.432 0 10.163 18.078 18.405 40.41 18.435 22.33-.03 40.412-8.273 40.412-18.435 0-10.16-18.082-18.403-40.412-18.432z"/><path fill="#ccc" d="M426.835 304.993c-18.606.02-33.67 6.154-33.67 13.714 0 7.56 15.064 13.69 33.67 13.714 18.605-.02 33.668-6.15 33.668-13.71S445.44 305.02 426.835 305z"/><path fill="#b0b0b0" d="M426.835 332.69l-.033-.27v-.267h.033c.53 0 1.057-.005 1.58-.017l.01.536c-.53.012-1.058.018-1.59.018zm-1.66-.018c-.544-.012-1.09-.028-1.624-.05l.03-.54c.537.025 1.07.043 1.61.054l-.01.536zm4.873-.047l-.02-.535c.542-.02 1.08-.048 1.615-.08l.03.536c-.536.03-1.076.057-1.625.08zm-8.122-.083c-.546-.034-1.083-.073-1.62-.115l.043-.535c.53.042 1.06.08 1.61.113l-.04.537zm11.37-.11l-.04-.535c.538-.044 1.074-.092 1.607-.144l.052.533c-.535.055-1.074.103-1.62.147zm-14.61-.153c-.543-.06-1.082-.12-1.618-.19l.07-.536c.528.07 1.062.127 1.602.182l-.055.533zm17.844-.18l-.065-.537c.54-.064 1.074-.136 1.6-.21l.078.53c-.53.075-1.068.15-1.613.215zm-21.068-.226c-.545-.08-1.078-.167-1.605-.255l.086-.533c.528.09 1.06.176 1.598.254l-.07.533zm24.286-.246l-.087-.53c.54-.09 1.07-.185 1.59-.287l.11.528c-.526.1-1.06.198-1.6.29zm-27.496-.3c-.54-.11-1.07-.217-1.594-.335l.118-.525c.516.12 1.047.226 1.58.335l-.104.522zm30.688-.32l-.114-.526c.534-.12 1.057-.24 1.57-.37l.13.52c-.517.13-1.048.253-1.586.374zm-33.86-.39c-.536-.136-1.06-.276-1.575-.424l.147-.514c.51.145 1.027.284 1.556.42l-.13.52zm37.018-.405l-.143-.517c.524-.15 1.04-.305 1.543-.466l.162.514c-.51.16-1.03.317-1.562.466zm-40.153-.49c-.527-.168-1.042-.344-1.544-.526l.19-.506c.5.18 1.007.35 1.526.52l-.162.51zm43.258-.5l-.18-.51c.515-.183 1.017-.376 1.503-.573l.202.497c-.496.2-1.002.394-1.525.584zm-46.323-.61c-.51-.208-1.013-.425-1.496-.653l.224-.486c.477.22.974.438 1.472.64l-.2.5zm49.344-.624l-.225-.49c.49-.228.98-.466 1.43-.71l.25.473c-.467.25-.96.492-1.466.727zm-52.303-.756c-.49-.26-.97-.54-1.42-.814l.29-.456c.44.273.91.54 1.39.8l-.25.472zm55.19-.78l-.28-.455c.47-.286.92-.59 1.33-.89l.32.434c-.423.31-.88.618-1.362.913zm-57.96-.954c-.46-.342-.89-.69-1.27-1.044l.36-.394c.37.337.786.676 1.23 1.008l-.32.434zm60.608-1l-.362-.394c.41-.37.78-.753 1.103-1.135l.41.348c-.34.4-.728.8-1.15 1.183zm-63.02-1.235c-.375-.45-.696-.91-.95-1.37l.463-.265c.245.436.545.868.895 1.29l-.41.345zm65.13-1.31l-.468-.265c.267-.47.477-.946.615-1.42l.517.15c-.15.515-.374 1.03-.662 1.537zm-66.73-1.604c-.154-.542-.23-1.1-.23-1.65l.535-.012v.014c0 .503.07 1.01.21 1.507l-.516.144zm67.64-1.594l-.536-.01.27.006-.27-.05c0-.492-.066-.987-.2-1.472l.516-.145c.145.533.22 1.078.22 1.616v.056zm-67.117-1.59l-.513-.147c.146-.52.366-1.04.654-1.54l.466.26c-.263.47-.47.95-.608 1.425zm65.786-1.366c-.24-.434-.54-.868-.887-1.29l.414-.34c.37.446.69.91.946 1.37l-.474.26zm-64.28-1.337l-.41-.347c.335-.4.72-.8 1.146-1.187l.36.393c-.404.372-.774.755-1.095 1.14zm62.304-1.095c-.376-.345-.786-.685-1.23-1.01l.32-.436c.458.34.886.692 1.27 1.05l-.362.39zm-59.977-1.05l-.317-.436c.42-.31.877-.62 1.36-.92l.28.454c-.467.29-.91.592-1.322.893zm57.427-.86c-.436-.27-.902-.54-1.387-.8l.25-.477c.495.267.973.54 1.42.82l-.286.457zm-54.712-.837l-.254-.47c.468-.246.96-.49 1.464-.726l.228.483c-.5.23-.98.47-1.436.71zm51.887-.682c-.477-.223-.97-.44-1.474-.64l.208-.5c.514.21 1.013.426 1.5.653l-.23.487zm-48.98-.67l-.2-.496c.494-.2 1-.394 1.52-.583l.187.507c-.52.185-1.02.38-1.505.575zm46.005-.55c-.495-.18-1.006-.355-1.526-.52l.17-.514c.527.17 1.038.347 1.54.528l-.184.505zm-42.977-.54l-.168-.514c.51-.163 1.032-.32 1.562-.472l.148.52c-.526.15-1.04.302-1.544.466zm39.91-.45c-.51-.145-1.028-.284-1.56-.42l.133-.52c.535.136 1.058.28 1.572.423l-.15.517zm-36.81-.435l-.13-.52c.52-.13 1.044-.26 1.58-.378l.12.522c-.534.12-1.056.242-1.57.372zm33.68-.36c-.516-.115-1.04-.225-1.578-.332l.105-.524c.537.104 1.068.215 1.59.332l-.12.524zm-30.533-.34l-.104-.53c.527-.1 1.06-.198 1.6-.29l.09.527c-.537.09-1.065.186-1.587.29zm27.367-.28c-.523-.088-1.056-.174-1.594-.25l.08-.535c.54.08 1.077.167 1.608.26l-.09.53zm-24.186-.26l-.08-.534c.538-.08 1.07-.15 1.618-.217l.068.533c-.54.067-1.074.14-1.6.216zm21-.21c-.53-.064-1.064-.126-1.604-.18l.053-.535c.546.057 1.082.12 1.616.184l-.065.533zm-17.79-.187l-.057-.534c.534-.054 1.073-.103 1.617-.145l.044.533c-.54.046-1.076.093-1.605.147zm14.577-.14c-.532-.045-1.07-.084-1.612-.116l.033-.536c.55.03 1.088.07 1.622.112l-.04.533zm-11.36-.12l-.032-.535c.54-.03 1.08-.06 1.625-.08l.02.538c-.543.02-1.08.046-1.61.08zm8.135-.08c-.535-.02-1.073-.037-1.612-.05l.01-.534c.548.01 1.088.03 1.627.05l-.025.54zm-4.91-.05l-.014-.537c.54-.014 1.083-.02 1.626-.02h.07v.537h-.065c-.54 0-1.08.01-1.613.02zm6.424 9.84c-.094-1.663-1.74-2.584-3.663-2.584-.796 0-1.89.394-1.88 1.17.016 2.338 11.175 1.78 11.77 7.44.43 4.076-3.93 5.606-7.61 5.606-.38 0-.75-.028-1.09-.055l.056 1.8h-2.006l-.034-2.206c-1.512-.466-2.646-1.28-3.37-2.028l-.362 2.08h-5.4l.372-6.564h5.44c-.023 2.11 2.48 2.467 3.735 2.52 1.045 0 2.53-.21 2.487-1.275-.08-1.936-11.287-1.125-10.968-7.117.17-3.21 3.976-4.604 6.59-4.604.4 0 .803.02 1.2.06l-.022-1.5h1.682l.06 1.81c1.14.33 2.13.875 2.77 1.766l.166-1.767h4.604l.548 5.45h-5.087z"/><path fill="#b9b9b9" d="M459.883 329.018c-2.11 1.294-4.587 2.463-7.363 3.473-2.27.83-4.736 1.54-7.364 2.14-2.338.53-4.797.96-7.363 1.29-2.375.297-4.836.5-7.364.607-1.19.045-2.39.073-3.6.073-1.27-.003-2.53-.03-3.77-.08-2.53-.11-4.99-.318-7.367-.62-2.566-.33-5.028-.77-7.363-1.305-2.63-.6-5.096-1.33-7.365-2.16-2.78-1.023-5.256-2.206-7.36-3.52-3.638-2.266-6.16-4.92-7.19-7.794v9.868c1.173 2.69 3.68 5.21 7.19 7.4 2.112 1.32 4.59 2.515 7.36 3.556 2.273.853 4.742 1.6 7.365 2.223 2.34.557 4.8 1.014 7.363 1.36 2.376.316 4.84.54 7.362.654 1.242.054 2.497.084 3.767.09 1.21-.006 2.41-.033 3.596-.084 2.52-.11 4.984-.323 7.362-.64 2.56-.336 5.02-.79 7.36-1.336 2.625-.62 5.094-1.36 7.365-2.204 2.77-1.025 5.244-2.21 7.364-3.514 3.594-2.212 6.165-4.77 7.36-7.502v-9.867c-1.05 2.922-3.635 5.613-7.362 7.906z"/><path fill="#c6c6c6" d="M426.835 290.357c-22.332.028-40.41 8.27-40.41 18.43 0 10.164 18.078 18.402 40.41 18.436 22.33-.033 40.412-8.272 40.412-18.435 0-10.162-18.082-18.403-40.412-18.43z"/><path fill="#fff" opacity=".2" d="M426.835 293.432c-18.606.022-33.67 6.153-33.67 13.714 0 7.56 15.064 13.69 33.67 13.714 18.605-.023 33.668-6.154 33.668-13.714 0-7.56-15.063-13.693-33.668-13.714z"/><path fill="#b9b9b9" d="M459.883 317.455c-2.11 1.297-4.587 2.465-7.363 3.474-2.27.82-4.736 1.54-7.364 2.13-2.338.53-4.797.96-7.363 1.28-2.375.296-4.836.5-7.364.604-1.19.05-2.39.075-3.6.08-1.27-.005-2.53-.03-3.77-.086-2.53-.107-4.99-.317-7.367-.62-2.566-.33-5.028-.77-7.363-1.304-2.63-.6-5.096-1.326-7.365-2.16-2.78-1.02-5.256-2.203-7.36-3.516-3.638-2.266-6.16-4.92-7.19-7.793v9.862c1.173 2.69 3.68 5.21 7.19 7.4 2.112 1.315 4.59 2.512 7.36 3.554 2.273.855 4.742 1.6 7.365 2.224 2.34.554 4.8 1.01 7.363 1.355 2.376.316 4.84.54 7.362.654 1.242.056 2.497.084 3.767.086 1.21 0 2.41-.03 3.596-.08 2.52-.107 4.984-.322 7.362-.64 2.56-.334 5.02-.79 7.36-1.337 2.625-.617 5.094-1.356 7.365-2.2 2.77-1.03 5.244-2.213 7.364-3.52 3.594-2.213 6.165-4.77 7.36-7.503v-9.863c-1.05 2.924-3.635 5.615-7.362 7.906z"/><path fill="#a7a7a7" d="M426.888 321.96h-.005c-16.358-.018-33.745-5.056-33.745-14.355 0-9.298 17.387-14.336 33.745-14.354 16.363.02 33.75 5.06 33.75 14.36s-17.387 14.34-33.745 14.36zm-.005-24.72c-17.534.02-29.755 5.478-29.755 10.365 0 4.887 12.22 10.346 29.758 10.367 17.536-.02 29.758-5.48 29.758-10.367 0-4.887-12.223-10.345-29.76-10.366zm12.674 10.41l-5.357-2.363.79-.368c.832-.39 1.312-.67 1.447-.84.133-.17.004-.34-.388-.51-.32-.134-.66-.184-1.04-.15-.377.03-.78.15-1.225.35-.74.34-1.104.647-1.083.926.012.277.352.963 1.035 2.08.6.972.952 1.68 1.05 2.11.097.43-.054.92-.46 1.455-.41.546-1.193 1.11-2.36 1.69-1.895.948-3.89 1.466-5.954 1.538-2.07.07-4.16-.307-6.24-1.125l-2.157 1.01-2.365-1.27 2.22-1.012c-1.192-.77-1.774-1.63-1.753-2.57.02-.92 1.23-1.89 3.594-2.91l1.017-.436 4.945 2.36-1.28.585c-1.424.65-2.27 1.084-2.52 1.296-.246.217-.17.426.238.63.347.175.73.248 1.15.22.418-.03.866-.157 1.347-.38 1.194-.558 1.96-.99 2.3-1.306.34-.31.33-.827-.024-1.54-.566-1.163-.89-1.957-.98-2.406-.09-.443.076-.928.49-1.452.41-.516 1.108-.985 2.09-1.41 1.407-.604 2.9-.9 4.5-.89 1.6.007 3.33.32 5.21.944l1.42-.648 2.368.965-1.412.663c1.447.756 2.215 1.493 2.287 2.21.074.728-.57 1.436-1.954 2.12-.193.1-.51.238-.947.42z"/><g transform="translate(106.137 -59.525)"><circle fill="#c3c3c3" r="38.107" cy="440.766" cx="258.954"/><path fill="#a5a5a5" d="M233.82 422.945c9.827-13.86 29.096-17.14 42.955-7.313 13.86 9.826 17.14 29.095 7.313 42.954-9.827 13.86-29.095 17.14-42.954 7.313-13.86-9.83-17.14-29.1-7.314-42.96zm46.3 32.828c8.273-11.67 5.51-27.897-6.16-36.172-11.67-8.27-27.897-5.51-36.17 6.16-8.276 11.67-5.513 27.9 6.157 36.17 11.67 8.28 27.897 5.52 36.172-6.15z"/><circle fill="#fefefe" opacity=".2" r="25.945" cy="440.765" cx="258.954"/><path fill="#a5a5a5" d="M259.308 452.11l4.607-6.498 1.078.764c1.147.813 1.95 1.27 2.41 1.37.46.102.866-.094 1.216-.587.28-.4.33-.81.17-1.22-.17-.42-.56-.84-1.17-1.27-1.02-.73-1.876-1.03-2.573-.91-.688.102-2.31.71-4.866 1.82-2.167.94-3.73 1.53-4.685 1.75-.958.22-2.067.2-3.33-.08-1.26-.276-2.62-.926-4.065-1.95-2.314-1.644-3.736-3.49-4.264-5.54-.527-2.05-.156-4.3 1.114-6.75l-2.445-1.733 2.12-2.99 2.525 1.79c1.4-1.614 3.144-2.66 5.23-3.13 2.08-.474 4.57.316 7.465 2.37l1.27.9-4.606 6.497-1.594-1.13c-1.746-1.238-2.88-1.94-3.4-2.107-.516-.164-.96.01-1.322.526-.31.44-.395.87-.253 1.294.144.422.504.84 1.083 1.25 1.457 1.034 2.572 1.67 3.343 1.913.77.24 1.947.03 3.532-.634 2.65-1.1 4.52-1.802 5.61-2.1 1.09-.3 2.347-.332 3.777-.1 1.43.233 2.82.824 4.16 1.774 1.94 1.373 3.072 3.002 3.397 4.884.325 1.882-.163 4.013-1.464 6.394l2.076 1.47-2.12 2.99-2.075-1.47c-1.68 1.82-3.415 2.843-5.21 3.07-1.796.225-3.65-.34-5.57-1.7-.27-.19-.66-.5-1.18-.93z"/></g><path fill="#909090" d="M275.494 421.024s.662 4.736 1.477 10.523c.82 5.782 7.77 3.32 15.46-5.473l74.63-85.26c7.7-8.785 20.8-9.28 29.13-1.094l8.09 7.965c8.33 8.19 9.168 7.44 1.85-1.67l-16.96-21.135c-7.31-9.11-19.646-9.43-27.42-.7l-86.25 96.847m366.944-4.17l-1.262 10.545c-.7 5.8-7.702 3.478-15.57-5.16l-76.297-83.76c-7.865-8.636-20.983-8.866-29.15-.513l-7.93 8.11c-8.165 8.36-9.012 7.62-1.883-1.64l16.535-21.454c7.13-9.253 19.46-9.818 27.4-1.245l88.164 95.114"/><path fill="#282828" d="M556.584 524.414c-36.93.37-81.807-46.817-82.104-76.735-.247-24.92 36.246-30.28 79.754-30.71 4.703-.05 18.042 1.02 22.85 1.36 40.836 2.93 45.586 12.692 45.965 50.85.33 34.17-24.51 54.81-66.47 55.23m-195.81 1.95c-41.96.41-67.21-19.74-67.55-53.92-.38-38.147 19.02-49.75 59.79-53.477 4.805-.45 13.332-2.266 18.03-2.315 43.516-.43 64.975 19.563 65.22 44.485.3 29.918-38.573 64.85-75.497 65.217"/><g opacity=".4" transform="translate(140.339 -74.432)"><defs><path d="M483.41 554.55l-135.95 1.345-.657-66.415 135.95-1.346z" id="a"/></defs><clipPath><use overflow="visible" xlink:href="#a" width="100%" height="100%"/></clipPath><path fill="#616161" d="M482.753 526.327c4.675 14.637-31.065 28.568-68.76 28.943-37.7.375-64.947-13.24-66.704-28.498-1.59-13.786 11.49-37.843 68.71-37.93 37.69-.058 58.76 12.532 66.75 37.485" clip-path="url(#d)"/></g><g opacity=".4" transform="translate(140.339 -74.432)"><defs><path d="M290.907 557.09l-135.952 1.345-.658-66.414 135.952-1.34z" id="b"/></defs><clipPath><use overflow="visible" xlink:href="#b" width="100%" height="100%"/></clipPath><path fill="#616161" d="M155.07 530.207c-4.393 14.72 31.62 27.947 69.316 27.572 37.698-.38 64.668-14.53 66.123-29.82 1.31-13.82-12.24-37.61-69.45-36.57-37.7.696-58.5 13.7-65.99 38.807" clip-path="url(#e)"/></g><path fill-rule="evenodd" fill="#686868" clip-rule="evenodd" d="M625.233 425.055c5.294.34 9.44 1.69 9.66 3.197.216 1.442-4.74 2.408-9.59 2.14-5.294-.3-9.48-1.478-9.663-3.198-.155-1.447 4.277-2.48 9.593-2.14m-332.368 3.33c5.284-.49 9.608.198 10.075 1.65.454 1.388-4.262 3.113-9.107 3.607-5.277.53-9.6.01-10.068-1.65-.406-1.4 3.806-3.11 9.1-3.6m117.983 1.467c12.12 4.96 18.406 17.486 18.523 23.506.26 13.68-5.77 39.74-20.51 52.85-16.89 15.034-42.81 16.225-42.81 16.225l-12.8.128s-8.75-.824-17.42-4.215c-6.71-2.63-12.78-6.87-18.42-12.98-13.23-14.323-16.46-39.593-15.14-51.623 1.19-10.786 8.344-21.05 20.78-25.65 17.266-6.393 68.9-5.97 87.805 1.765m96.92-.96c-12.02 5.2-18.054 17.846-18.05 23.87.007 13.68 6.55 39.616 21.55 52.437 17.187 14.69 43.13 15.37 43.13 15.37l12.807-.13s8.733-.998 17.33-4.56c6.65-2.766 12.64-7.128 18.154-13.346 12.948-14.586 15.673-39.91 14.11-51.91-1.39-10.764-8.76-20.88-21.28-25.234-17.39-6.046-69.003-4.604-87.75 3.506m-230.318 12.81l-2.03-20.163s45.98-10.686 100.52-7.14c44.7 2.906 64.006 16.43 82.455 15.854 18.12-.57 48.01-15.584 82.13-17.485 56.2-3.14 102.474 5.12 102.474 5.12l-2.53 21.09s-7.99.58-10.86 12.387c-2.153 8.894-2.94 21.397-6.065 33.41-2.168 8.317-5.648 16.396-10.753 22.92-10.486 13.41-27.555 18.7-42.777 19.725-13.84.94-52.405-1.818-69.697-19.494-6.72-6.866-12.87-15.166-16.69-23.523-5.83-12.758-8.683-26.923-14.966-33.2-2.586-2.583-6.048-2.517-10.08-2.535-2.94 0-5.51-.387-7.308.953-4.928 3.675-7.867 16.4-12.527 28.204-4.082 10.35-9.854 21.15-17.08 29.12-19.043 21.022-53.82 23.31-69.28 22.632-15.82-.708-31.36-4.26-46.84-21.48-13.263-14.735-12.264-40.036-16.09-54.25-2.75-10.213-12.004-12.16-12.004-12.16"/></svg>