<svg xmlns="http://www.w3.org/2000/svg" xmlns:xlink="http://www.w3.org/1999/xlink" width="800" height="800" viewBox="0 0 800 800"><title>Ser un revelde</title><defs><filter id="c" x="-1.037" width="3.074" y="-1.117" height="3.233" color-interpolation-filters="sRGB"><feGaussianBlur stdDeviation="307.525"/></filter><clipPath id="d"><use height="100%" width="100%" xlink:href="#a" overflow="visible"/></clipPath><clipPath id="e"><use height="100%" width="100%" xlink:href="#b" overflow="visible"/></clipPath></defs><rect width="711.864" height="661.017" x="57.627" y="54.237" rx="1.542" ry="1.143" fill="#efe2c2" fill-opacity="0" filter="url(#c)"/><path d="M453.06 388.494c5.013-1.992 7.76-4.148 7.76-6.4 0-10.062-54.687-18.22-122.148-18.22-67.462 0-122.15 8.157-122.15 18.22 0 10.06 54.688 18.217 122.15 18.217 12 0 23.59-.256 34.546-.74-2.147 1.96-3.32 4.06-3.32 6.25 0 10.45 26.565 18.92 59.333 18.92 32.77 0 59.335-8.47 59.335-18.917 0-7.743-14.6-14.4-35.502-17.326z" opacity=".1" fill="#231f20"/><g transform="translate(106.137 -59.525)"><circle cx="182.834" cy="312.088" r="38.108" fill="#f6c415"/><path d="M152.612 318.083c-3.306-16.664 7.56-32.91 24.226-36.217 16.663-3.307 32.91 7.56 36.217 24.225 3.306 16.666-7.56 32.914-24.225 36.22-16.664 3.307-32.91-7.56-36.218-24.225zm55.67-11.045c-2.783-14.033-16.465-23.184-30.497-20.4-14.033 2.784-23.184 16.466-20.4 30.5 2.784 14.032 16.466 23.183 30.5 20.4 14.03-2.785 23.182-16.467 20.398-30.5z" fill="#d09f2b"/><circle cx="182.834" cy="312.087" r="25.946" opacity=".2" fill="#f7f8f8"/><path d="M191.315 319.63l-1.55-7.812 1.296-.257c1.38-.27 2.267-.54 2.656-.805.39-.264.526-.694.41-1.287-.096-.477-.35-.798-.765-.964-.415-.166-.99-.175-1.725-.03-1.225.244-2.034.658-2.426 1.246-.396.573-1.07 2.167-2.027 4.783-.805 2.223-1.455 3.76-1.95 4.608-.495.85-1.277 1.638-2.345 2.366-1.07.727-2.473 1.265-4.213 1.61-2.785.553-5.103.316-6.954-.71-1.85-1.027-3.23-2.844-4.136-5.45l-2.94.583-.713-3.598 3.037-.602c-.208-2.13.232-4.113 1.322-5.95 1.09-1.838 3.373-3.102 6.854-3.793l1.528-.303 1.55 7.814-1.912.38c-2.102.417-3.39.756-3.868 1.018-.48.263-.656.703-.533 1.322.104.528.36.886.765 1.074.406.187.957.212 1.653.074 1.753-.348 2.982-.72 3.688-1.113.705-.395 1.36-1.396 1.966-3.003 1.023-2.682 1.8-4.52 2.333-5.518.532-.998 1.375-1.935 2.527-2.814 1.153-.88 2.534-1.477 4.145-1.797 2.334-.463 4.296-.166 5.885.89 1.59 1.06 2.802 2.88 3.636 5.46l2.494-.493.714 3.597-2.495.494c.168 2.472-.283 4.437-1.354 5.896-1.07 1.46-2.76 2.417-5.067 2.875-.324.062-.818.133-1.486.213z" fill="#d09f2b"/></g><g transform="translate(106.137 -59.525)"><circle cx="219.53" cy="287.847" r="38.107" fill="#fbca0d"/><path d="M190.13 278.625c5.086-16.21 22.41-25.26 38.62-20.177 16.21 5.085 25.262 22.41 20.177 38.62-5.085 16.21-22.41 25.26-38.62 20.177-16.21-5.085-25.26-22.41-20.176-38.62zm54.155 16.988c4.28-13.65-3.34-28.24-16.99-32.522-13.65-4.28-28.24 3.34-32.52 16.994-4.283 13.65 3.34 28.24 16.99 32.52 13.65 4.283 28.24-3.34 32.52-16.99z" fill="#d5a429"/><circle cx="219.53" cy="287.846" r="25.945" opacity=".2" fill="#fdfeff"/><path d="M223.358 298.532l2.384-7.6 1.26.395c1.343.42 2.248.608 2.717.563.466-.046.79-.357.972-.934.145-.465.075-.87-.21-1.213-.284-.343-.784-.628-1.5-.852-1.19-.37-2.1-.395-2.725-.07-.623.317-1.98 1.39-4.07 3.23-1.773 1.565-3.08 2.6-3.92 3.11-.842.507-1.906.824-3.192.95-1.287.127-2.776-.074-4.47-.606-2.708-.85-4.63-2.168-5.762-3.956-1.133-1.79-1.473-4.044-1.02-6.767l-2.858-.897 1.097-3.5 2.954.928c.837-1.97 2.174-3.5 4.012-4.59 1.835-1.09 4.447-1.104 7.833-.042l1.487.466-2.385 7.6-1.862-.584c-2.044-.644-3.338-.963-3.883-.96-.545 0-.912.3-1.1.903-.16.513-.11.95.157 1.31.267.358.738.644 1.416.857 1.705.535 2.963.8 3.77.79.81-.007 1.864-.57 3.166-1.692 2.18-1.863 3.745-3.105 4.69-3.725.946-.62 2.134-1.038 3.566-1.257 1.432-.22 2.932-.082 4.5.41 2.27.71 3.848 1.912 4.737 3.603.887 1.69 1.08 3.866.574 6.53l2.426.76-1.097 3.5-2.425-.76c-1.037 2.25-2.374 3.76-4.013 4.526-1.64.767-3.58.798-5.827.095-.316-.095-.784-.27-1.408-.52z" fill="#d5a429"/></g><g transform="translate(106.137 -59.525)"><circle cx="265.492" cy="287.504" r="42.547" fill="#ffcd0a"/><path d="M249.068 317.73c-16.666-9.056-22.858-29.983-13.803-46.65 9.057-16.667 29.984-22.86 46.65-13.803 16.667 9.056 22.86 29.983 13.803 46.65-9.056 16.667-29.983 22.86-46.65 13.803zm30.254-55.68c-14.036-7.625-31.657-2.41-39.284 11.624-7.626 14.036-2.412 31.658 11.623 39.284 14.038 7.626 31.66 2.412 39.287-11.623 7.626-14.036 2.41-31.66-11.623-39.284z" fill="#d8a728"/><circle cx="265.491" cy="287.504" r="28.968" opacity=".2" fill="#fff"/><path d="M278.02 285.607l-7.813-4.246.704-1.292c.75-1.38 1.15-2.332 1.204-2.855.05-.523-.22-.946-.814-1.268-.477-.26-.935-.27-1.375-.032-.438.238-.856.724-1.255 1.46-.668 1.225-.888 2.215-.664 2.972.21.75 1.097 2.467 2.66 5.153 1.335 2.28 2.19 3.932 2.566 4.963.375 1.03.493 2.265.356 3.7-.14 1.44-.68 3.027-1.626 4.768-1.514 2.785-3.37 4.607-5.574 5.464-2.203.857-4.748.744-7.632-.34l-1.597 2.94-3.6-1.953 1.65-3.037c-1.977-1.34-3.366-3.134-4.166-5.38-.8-2.248-.254-5.11 1.638-8.593l.83-1.528 7.813 4.245-1.04 1.915c-1.142 2.1-1.77 3.45-1.887 4.047-.117.597.136 1.063.754 1.4.527.285 1.017.322 1.47.11.45-.216.863-.67 1.242-1.368.954-1.753 1.51-3.074 1.676-3.96.166-.888-.226-2.166-1.174-3.833-1.573-2.793-2.597-4.773-3.073-5.94-.476-1.17-.68-2.56-.61-4.18.067-1.617.54-3.23 1.415-4.843 1.268-2.335 2.923-3.807 4.966-4.416 2.044-.61 4.472-.35 7.282.777l1.356-2.495 3.598 1.957-1.356 2.494c2.243 1.62 3.61 3.41 4.097 5.37.49 1.962.106 4.096-1.15 6.404-.173.317-.464.793-.873 1.423z" fill="#d8a728"/></g><path d="M240.516 368.444c0 8.14 6.66 14.8 14.8 14.8H410.22c8.14 0 14.8-6.66 14.8-14.8V255.967c0-8.14-6.66-14.8-14.8-14.8H255.315c-8.14 0-14.8 6.66-14.8 14.8v112.477z" fill="#43363a"/><path d="M425.018 255.967c0-9.068-7.732-14.828-14.004-14.828l-155.698.025c-8.14 0-14.8 6.66-14.8 14.8v1.59h184.502v-1.59zm-184.502 110.3v2.177c0 8.14 6.66 14.8 14.8 14.8H410.22c8.14 0 14.8-6.66 14.8-14.8v-2.178H240.515z" opacity=".05" fill="#fff"/><g transform="translate(106.137 -59.525)"><path d="M134.37 378.98h65.796v-17.563c0-7.46-6.048-13.51-13.51-13.51H134.37v31.073z" fill="#372c2f"/><path d="M120.937 378.827c0 6.5 5.268 11.766 11.766 11.766h55.892c6.5 0 11.767-5.268 11.767-11.766V363.53c0-6.498-5.268-11.766-11.767-11.766h-55.892c-6.498 0-11.766 5.268-11.766 11.766v15.297z" fill="#4d3f44"/><circle cx="176.534" cy="370.689" r="14.12" fill="#ffcd0a"/></g><path d="M374.42 256.51c-.11-.11-.26-.176-.425-.176h-6.377c-.33 0-.6.267-.6.597 0 .21.106.39.265.5.1.073.222.117.355.117h6.377c.33 0 .6-.267.6-.597 0-.175-.077-.33-.196-.44zm-25.913-.16h-6.377c-.33 0-.6.268-.6.598 0 .33.27.597.6.597h6.377c.33 0 .6-.267.6-.597 0-.33-.27-.597-.6-.597zm12.755 0h-6.377c-.33 0-.598.268-.598.598 0 .33.268.597.598.597h6.377c.33 0 .598-.267.598-.597 0-.33-.267-.597-.598-.597zm-51.017 0h-6.377c-.33 0-.6.268-.6.598 0 .33.27.597.6.597h6.377c.33 0 .598-.267.598-.597 0-.33-.267-.597-.598-.597zm25.51 0h-6.378c-.33 0-.598.268-.598.598 0 .33.265.597.595.597h6.377c.33 0 .598-.267.598-.597 0-.33-.267-.597-.597-.597zm-89.245 0h-6v1.196h6c.31 0 .564-.267.564-.597 0-.334-.253-.6-.564-.6zm12.718 0h-6.377c-.33 0-.595.268-.595.598 0 .33.267.597.598.597h6.378c.33 0 .6-.267.6-.597 0-.33-.27-.597-.6-.597zm38.262 0h-6.376c-.33 0-.6.268-.6.598 0 .33.27.597.6.597h6.377c.334 0 .6-.267.6-.597 0-.33-.266-.597-.6-.597zm-25.507 0h-6.377c-.33 0-.598.268-.598.598 0 .33.268.597.598.597h6.377c.33 0 .598-.267.598-.597 0-.33-.264-.597-.595-.597zm12.754 0h-6.377c-.33 0-.6.268-.6.598 0 .33.27.597.6.597h6.377c.33 0 .6-.267.6-.597 0-.33-.27-.597-.6-.597zm38.263 0h-6.378c-.33 0-.6.268-.6.598 0 .33.27.597.6.597H323c.33 0 .598-.267.598-.597 0-.33-.268-.597-.6-.597zm76.504-.016h-6.377c-.33 0-.6.267-.6.597 0 .33.27.6.6.6h6.377c.33 0 .6-.267.6-.597 0-.33-.27-.596-.6-.596zm-12.754 0h-6.377c-.33 0-.6.267-.6.597 0 .33.27.6.6.6h6.377c.33 0 .6-.267.6-.597-.002-.33-.27-.596-.6-.596zm25.508 0h-6.377c-.33 0-.595.267-.595.597 0 .33.268.6.598.6h6.378c.33 0 .6-.267.6-.597 0-.33-.268-.596-.6-.596zm12.754 0h-6.377c-.33 0-.6.267-.6.597 0 .33.27.6.6.6h6.377v-1.194zM309.63 366.216h-6.283c-.326 0-.59.267-.59.597 0 .33.264.597.59.597h6.284c.33 0 .59-.268.59-.597 0-.33-.26-.597-.59-.597zm25.138 0h-6.284c-.326 0-.59.267-.59.597 0 .33.264.597.59.597h6.284c.326 0 .59-.268.59-.597 0-.33-.264-.597-.59-.597zm-87.98 0h-6.284v1.195h6.284c.326 0 .59-.265.59-.594 0-.33-.264-.598-.59-.598zm12.568 0h-6.284c-.326 0-.59.267-.59.597 0 .33.264.597.59.597h6.284c.326 0 .59-.268.59-.597 0-.33-.264-.597-.59-.597zm37.707 0h-6.284c-.33 0-.59.267-.59.597 0 .33.26.597.59.597h6.28c.327 0 .59-.268.59-.597 0-.33-.264-.597-.59-.597zm-25.138 0h-6.284c-.323 0-.59.267-.59.597 0 .33.267.597.59.597h6.287c.326 0 .59-.268.59-.597 0-.33-.264-.597-.59-.597zm12.57 0h-6.285c-.326 0-.59.267-.59.597 0 .33.264.597.59.597h6.284c.326 0 .59-.268.59-.597 0-.33-.264-.597-.59-.597zm37.705 0h-6.284c-.326 0-.59.267-.59.597 0 .33.264.597.59.597h6.284c.326 0 .59-.268.59-.597 0-.33-.265-.597-.59-.597z" opacity=".5" fill="#fff"/><path fill="#d8a728" d="M386.412 397.134l80.833-1.642.012-86.714-80.875-.204zm40.423-26.57c-22.332.034-40.41 8.272-40.41 18.432 0 10.163 18.078 18.406 40.41 18.435 22.33-.026 40.412-8.27 40.412-18.432 0-10.16-18.082-18.4-40.412-18.433z"/><path d="M426.835 373.64c-18.606.02-33.67 6.154-33.67 13.715 0 7.56 15.064 13.69 33.67 13.713 18.605-.025 33.668-6.154 33.668-13.713 0-7.562-15.063-13.694-33.668-13.715z" fill="#feda03"/><path d="M426.835 401.335l-.033-.268v-.27h.033c.53 0 1.057-.004 1.58-.017l.01.54c-.53.01-1.058.013-1.59.015zm-1.66-.016c-.544-.017-1.09-.03-1.624-.054l.026-.537c.534.022 1.07.04 1.612.05l-.01.54zm4.873-.05l-.02-.536c.542-.022 1.08-.048 1.615-.08l.03.535c-.536.032-1.076.06-1.625.08zm-8.122-.085c-.546-.035-1.083-.072-1.62-.116l.043-.534c.53.042 1.066.08 1.61.114l-.036.538zm11.37-.11l-.04-.536c.538-.04 1.074-.09 1.607-.143l.052.532c-.535.055-1.074.103-1.62.146zm-14.61-.153c-.543-.054-1.082-.116-1.618-.183l.07-.53c.528.064 1.062.125 1.602.177l-.055.536zm17.844-.172l-.065-.533c.54-.065 1.074-.137 1.6-.213l.078.53c-.53.078-1.068.152-1.613.217zm-21.068-.225c-.545-.08-1.078-.162-1.605-.253l.086-.53c.528.09 1.06.173 1.598.252l-.076.53zm24.286-.242l-.087-.53c.537-.09 1.067-.185 1.587-.29l.105.53c-.525.102-1.06.197-1.6.29zm-27.496-.306c-.54-.103-1.07-.215-1.594-.332l.118-.523c.516.114 1.047.224 1.58.33l-.104.525zm30.688-.317l-.114-.523c.534-.12 1.057-.243 1.57-.374l.13.524c-.517.132-1.048.256-1.586.374zm-33.86-.388c-.536-.135-1.06-.278-1.575-.422l.147-.517c.51.146 1.027.284 1.556.418l-.13.524zm37.018-.403l-.143-.52c.524-.15 1.04-.3 1.543-.465l.162.512c-.51.16-1.03.32-1.562.47zm-40.153-.494c-.527-.167-1.042-.343-1.544-.525l.185-.503c.497.177 1.005.35 1.524.517l-.163.51zm43.258-.503l-.18-.506c.515-.184 1.017-.377 1.503-.575l.202.497c-.496.2-1.002.394-1.525.582zm-46.323-.607c-.51-.206-1.013-.428-1.496-.652l.224-.485c.477.222.974.436 1.472.64l-.2.497zm49.344-.625l-.225-.485c.494-.23.98-.47 1.436-.714l.252.476c-.468.248-.96.492-1.467.725zm-52.303-.756c-.492-.262-.97-.536-1.42-.817l.286-.456c.437.273.907.544 1.387.8l-.25.473zm55.19-.778l-.28-.457c.47-.29.916-.588 1.325-.893l.32.432c-.425.31-.883.617-1.364.917zm-57.966-.958c-.46-.344-.888-.693-1.27-1.043l.36-.4c.37.342.785.68 1.23 1.012l-.32.43zm60.607-1l-.362-.396c.408-.37.778-.753 1.102-1.134l.41.347c-.34.4-.727.8-1.15 1.185zm-63.02-1.24c-.375-.445-.696-.904-.95-1.366l.463-.263c.245.432.545.87.895 1.29l-.41.34zm65.13-1.306l-.468-.266c.268-.468.478-.946.616-1.42l.516.15c-.15.515-.374 1.033-.662 1.535zM393.127 389c-.153-.544-.23-1.097-.23-1.646l.536-.02v.02c0 .5.07 1.005.21 1.502l-.516.145zm67.64-1.594l-.535-.006.27.003-.27-.048c0-.493-.066-.988-.2-1.475l.516-.14c.144.53.22 1.074.22 1.615v.052zm-67.116-1.59l-.513-.148c.145-.52.365-1.035.653-1.542l.466.266c-.264.47-.47.948-.61 1.423zm65.786-1.365c-.24-.432-.54-.865-.887-1.29l.416-.34c.37.448.69.91.945 1.37l-.47.26zm-64.28-1.34l-.41-.34c.335-.404.72-.805 1.146-1.19l.36.395c-.405.372-.775.754-1.096 1.137zm62.304-1.09c-.374-.347-.784-.683-1.227-1.016l.32-.43c.457.342.885.695 1.27 1.05l-.363.394zm-59.975-1.05l-.317-.436c.42-.31.876-.62 1.36-.92l.28.46c-.468.29-.912.59-1.323.894zm57.427-.86c-.436-.274-.902-.54-1.387-.8l.252-.474c.493.266.97.54 1.42.82l-.288.452zm-54.712-.835l-.254-.472c.468-.25.96-.49 1.464-.727l.228.488c-.5.23-.983.472-1.438.71zm51.887-.682c-.48-.224-.97-.44-1.476-.645l.205-.498c.512.206 1.01.426 1.497.654l-.23.487zm-48.98-.672l-.203-.494c.495-.203 1.002-.395 1.522-.583l.185.502c-.518.186-1.02.38-1.506.576zm46.003-.55c-.493-.18-1.004-.354-1.524-.52l.17-.51c.525.17 1.036.344 1.54.525l-.186.504zm-42.975-.54l-.167-.514c.51-.16 1.033-.32 1.563-.47l.148.52c-.525.147-1.04.302-1.543.465zm39.91-.45c-.51-.145-1.027-.284-1.56-.417l.134-.523c.535.137 1.058.277 1.572.424l-.148.516zm-36.81-.435l-.13-.518c.52-.13 1.045-.257 1.582-.374l.118.524c-.533.114-1.055.24-1.57.368zm33.68-.353c-.515-.116-1.04-.23-1.577-.33l.106-.527c.537.105 1.068.216 1.59.333l-.118.526zm-30.532-.346l-.104-.527c.527-.1 1.06-.2 1.6-.29l.09.53c-.537.09-1.065.185-1.587.285zm27.367-.275c-.523-.09-1.056-.172-1.594-.253l.08-.533c.54.08 1.076.167 1.607.254l-.093.533zm-24.186-.263l-.08-.53c.533-.08 1.07-.15 1.613-.22l.066.535c-.54.066-1.075.14-1.6.216zm20.996-.206c-.53-.064-1.065-.127-1.605-.18l.054-.533c.547.054 1.083.114 1.617.18l-.065.535zm-17.792-.186l-.055-.535c.534-.05 1.073-.103 1.617-.148l.045.538c-.54.043-1.078.092-1.607.146zm14.58-.14c-.533-.046-1.07-.082-1.613-.118l.032-.532c.55.033 1.087.07 1.62.115l-.04.533zm-11.36-.118l-.033-.535c.54-.032 1.078-.06 1.624-.08l.02.535c-.54.02-1.077.05-1.61.08zm8.134-.078c-.535-.022-1.073-.038-1.612-.05l.01-.538c.548.01 1.088.026 1.627.047l-.026.54zm-4.908-.05l-.015-.538c.54-.014 1.084-.018 1.627-.018h.07v.536h-.067c-.54 0-1.08.003-1.614.017zm6.424 9.835c-.094-1.663-1.74-2.585-3.663-2.585-.795 0-1.89.39-1.88 1.164.017 2.34 11.176 1.786 11.77 7.445.43 4.073-3.93 5.603-7.608 5.603-.378 0-.748-.025-1.09-.053l.056 1.795h-2.005l-.036-2.208c-1.512-.468-2.646-1.28-3.37-2.027l-.362 2.082h-5.4l.372-6.57h5.44c-.023 2.113 2.48 2.475 3.735 2.523 1.045 0 2.53-.207 2.487-1.273-.08-1.936-11.287-1.123-10.968-7.117.17-3.208 3.977-4.602 6.592-4.602.4 0 .802.02 1.2.06l-.023-1.5h1.682l.06 1.81c1.14.335 2.13.88 2.775 1.767l.166-1.764h4.605l.547 5.45h-5.087z" fill="#d5b729"/><path d="M459.883 397.663c-2.11 1.298-4.587 2.465-7.363 3.476-2.27.82-4.736 1.535-7.364 2.13-2.338.53-4.797.963-7.363 1.286-2.375.296-4.836.5-7.364.604-1.188.046-2.386.074-3.598.074-1.272 0-2.53-.028-3.768-.08-2.528-.108-4.99-.317-7.364-.622-2.565-.327-5.027-.767-7.362-1.3-2.632-.605-5.097-1.328-7.366-2.162-2.78-1.02-5.256-2.204-7.36-3.515-3.638-2.268-6.16-4.918-7.19-7.796v9.863c1.173 2.69 3.68 5.21 7.19 7.4 2.112 1.32 4.59 2.514 7.36 3.556 2.273.853 4.742 1.603 7.365 2.223 2.34.556 4.8 1.014 7.362 1.357 2.376.32 4.84.545 7.362.657 1.243.055 2.498.084 3.768.088 1.21-.004 2.41-.03 3.596-.08 2.522-.11 4.985-.326 7.363-.64 2.56-.337 5.02-.788 7.36-1.34 2.625-.615 5.094-1.355 7.365-2.2 2.768-1.03 5.243-2.21 7.363-3.515 3.596-2.216 6.167-4.773 7.363-7.506v-9.866c-1.05 2.924-3.636 5.613-7.363 7.905z" fill="#ebbd1e"/><path d="M426.835 357.55c-22.332.03-40.41 8.272-40.41 18.435 0 10.16 18.078 18.4 40.41 18.432 22.33-.033 40.412-6.178 40.412-18.432 0-10.163-18.082-18.406-40.412-18.435z" fill="#d8a728"/><path d="M426.835 360.262c-18.606.024-33.67 6.154-33.67 13.714 0 7.56 15.064 13.69 33.67 13.714 18.605-.024 33.668-6.154 33.668-13.714 0-7.56-15.063-13.69-33.668-13.714z" fill="#feda03"/><path d="M426.835 387.96l-.033-.27v-.27h.033c.53 0 1.057-.005 1.58-.014l.01.535c-.53.015-1.058.02-1.59.02zm-1.66-.02c-.544-.01-1.09-.03-1.624-.05l.026-.536c.534.02 1.07.036 1.612.048l-.01.54zm4.873-.047l-.02-.537c.542-.02 1.08-.046 1.615-.08l.03.535c-.536.038-1.076.064-1.625.085zm-8.122-.084c-.546-.035-1.083-.075-1.62-.116l.043-.536c.53.04 1.066.08 1.61.113l-.036.536zm11.37-.11l-.04-.536c.538-.045 1.074-.093 1.607-.147l.052.534c-.535.055-1.074.104-1.62.15zm-14.61-.155c-.543-.055-1.082-.115-1.618-.182l.07-.53c.528.065 1.062.123 1.602.178l-.055.535zm17.844-.17l-.065-.537c.54-.067 1.074-.137 1.6-.213l.078.533c-.53.078-1.068.15-1.613.216zm-21.068-.23c-.545-.078-1.078-.163-1.605-.253l.086-.528c.528.088 1.06.175 1.598.252l-.076.53zm24.286-.24l-.087-.528c.537-.093 1.067-.188 1.587-.29l.105.527c-.525.1-1.06.197-1.6.29zm-27.496-.303c-.54-.108-1.07-.217-1.594-.334l.118-.526c.516.117 1.047.224 1.58.33l-.104.53zm30.688-.32l-.114-.524c.534-.12 1.057-.243 1.57-.37l.13.52c-.517.13-1.048.254-1.586.374zm-33.86-.39c-.536-.133-1.06-.275-1.575-.42l.147-.52c.51.146 1.027.285 1.556.42l-.13.52zm37.018-.403l-.143-.518c.524-.15 1.04-.305 1.543-.464l.162.51c-.51.16-1.03.32-1.562.47zm-40.153-.49c-.527-.17-1.042-.344-1.544-.525l.185-.504c.497.178 1.005.353 1.524.52l-.163.51zm43.258-.503l-.18-.506c.515-.18 1.017-.375 1.503-.573l.202.498c-.496.2-1.002.394-1.525.582zm-46.323-.61c-.51-.204-1.013-.424-1.496-.65l.224-.488c.477.222.974.44 1.472.642l-.2.496zm49.344-.623l-.225-.486c.494-.234.98-.47 1.436-.714l.252.474c-.468.247-.96.492-1.467.725zm-52.303-.753c-.492-.263-.97-.54-1.42-.816l.286-.458c.437.274.907.542 1.387.8l-.25.475zm55.19-.78l-.28-.458c.47-.29.916-.59 1.325-.892l.32.436c-.425.31-.883.618-1.364.915zm-57.966-.958c-.46-.34-.888-.69-1.27-1.044l.36-.4c.37.34.785.68 1.23 1.01l-.32.43zm60.607-1l-.362-.397c.408-.37.778-.75 1.102-1.134l.41.345c-.34.403-.727.803-1.15 1.188zm-63.02-1.235c-.375-.45-.696-.91-.95-1.37l.463-.264c.245.434.545.866.895 1.29l-.41.344zm65.13-1.31l-.468-.266c.268-.466.478-.946.616-1.42l.516.15c-.15.517-.374 1.034-.662 1.54zm-66.73-1.603c-.154-.543-.23-1.098-.23-1.648l.535-.016v.018c0 .5.07 1.008.21 1.502l-.516.145zm67.64-1.595l-.536-.01.27.005-.27-.05c0-.492-.066-.987-.2-1.47l.516-.144c.145.534.22 1.075.22 1.617v.052zm-67.117-1.59l-.513-.146c.146-.522.366-1.038.654-1.544l.466.268c-.263.47-.47.95-.608 1.424zm65.786-1.368c-.24-.43-.54-.865-.888-1.288l.415-.342c.37.447.69.907.945 1.37l-.472.26zm-64.28-1.336l-.41-.347c.334-.4.72-.803 1.145-1.19l.36.396c-.405.37-.775.753-1.096 1.14zm62.303-1.097c-.374-.34-.784-.68-1.227-1.01l.32-.435c.457.343.885.697 1.27 1.05l-.363.394zm-59.975-1.05l-.317-.434c.42-.31.877-.62 1.36-.92l.28.46c-.467.292-.91.593-1.322.894zm57.427-.858c-.436-.272-.902-.543-1.387-.802l.252-.47c.494.265.972.54 1.42.82l-.287.454zm-54.712-.832l-.254-.474c.467-.245.96-.492 1.463-.725l.228.49c-.5.228-.982.468-1.437.71zm51.887-.683c-.478-.224-.97-.44-1.475-.646l.205-.495c.513.21 1.012.428 1.498.654l-.23.49zm-48.98-.67l-.202-.498c.495-.2 1.002-.395 1.522-.58l.186.503c-.518.18-1.02.376-1.506.573zm46.004-.553c-.493-.18-1.004-.353-1.524-.52l.17-.51c.526.17 1.037.343 1.54.527l-.185.505zm-42.975-.54l-.168-.512c.51-.162 1.032-.32 1.562-.47l.148.516c-.526.15-1.04.305-1.544.466zm39.91-.447c-.51-.145-1.028-.286-1.56-.42l.133-.52c.535.135 1.058.276 1.572.422l-.148.516zm-36.81-.436l-.13-.52c.52-.13 1.044-.255 1.58-.373l.12.523c-.534.12-1.056.244-1.57.37zm33.68-.352c-.516-.117-1.04-.228-1.578-.335l.105-.524c.537.105 1.068.216 1.59.334l-.118.526zm-30.533-.346l-.104-.526c.527-.102 1.06-.198 1.6-.292l.09.53c-.537.09-1.065.19-1.587.29zm27.367-.276c-.523-.09-1.056-.173-1.594-.252l.08-.533c.54.08 1.077.166 1.608.256l-.093.53zm-24.186-.263l-.08-.53c.533-.08 1.07-.15 1.613-.217l.067.532c-.54.067-1.075.138-1.6.216zm20.996-.206c-.53-.065-1.065-.126-1.605-.182l.053-.53c.547.053 1.083.114 1.617.182l-.064.53zm-17.792-.188l-.056-.535c.534-.054 1.073-.102 1.617-.147l.045.535c-.54.045-1.078.094-1.607.147zm14.578-.14c-.532-.045-1.07-.085-1.612-.115l.032-.536c.55.032 1.088.07 1.622.115l-.04.535zm-11.36-.118l-.032-.536c.54-.033 1.078-.06 1.624-.08l.02.534c-.542.02-1.078.048-1.61.08zm8.135-.08c-.535-.022-1.073-.037-1.612-.05l.01-.537c.548.01 1.088.028 1.627.05l-.025.538zm-4.908-.053l-.015-.537c.54-.01 1.083-.017 1.626-.017h.07v.54h-.067c-.54 0-1.08.004-1.613.014zm6.423 8.02c-.094-1.665-1.74-2.587-3.663-2.587-.795 0-1.89.395-1.88 1.168.017 2.34 11.176 1.787 11.77 7.444.43 4.075-3.93 5.607-7.608 5.607-.378 0-.748-.027-1.09-.054l.056 1.792h-2.005l-.036-2.208c-1.512-.466-2.646-1.28-3.37-2.028l-.362 2.082h-5.4l.372-6.567h5.44c-.023 2.112 2.48 2.47 3.735 2.522 1.045 0 2.53-.208 2.487-1.274-.08-1.934-11.287-1.125-10.968-7.12.17-3.205 3.977-4.6 6.592-4.6.4 0 .802.02 1.2.06l-.023-1.5h1.682l.06 1.81c1.14.332 2.13.874 2.775 1.765l.166-1.765h4.605l.547 5.452h-5.087z" fill="#d5b729"/><path d="M459.883 385.738c-2.11 1.295-4.587 2.465-7.363 3.474-2.27.823-4.736 1.54-7.364 2.136-2.338.53-4.797.963-7.363 1.286-2.375.296-4.836.502-7.364.603-1.188.048-2.386.075-3.598.077-1.272-.002-2.53-.03-3.768-.083-2.528-.106-4.99-.314-7.364-.62-2.565-.324-5.027-.765-7.362-1.3-2.632-.6-5.097-1.33-7.366-2.16-2.78-1.02-5.256-2.204-7.36-3.52-3.638-2.266-6.16-4.92-7.19-7.794v9.867c1.173 2.69 3.68 5.21 7.19 7.4 2.112 1.32 4.59 2.516 7.36 3.557 2.273.855 4.742 1.6 7.365 2.22 2.34.557 4.8 1.015 7.362 1.358 2.376.32 4.84.54 7.362.655 1.243.054 2.498.086 3.768.087 1.21-.002 2.41-.03 3.596-.082 2.522-.107 4.985-.323 7.363-.64 2.56-.335 5.02-.79 7.36-1.337 2.625-.613 5.094-1.352 7.365-2.2 2.768-1.026 5.243-2.21 7.363-3.515 3.596-2.214 6.167-4.77 7.363-7.503v-9.99c-1.05 2.92-3.636 5.735-7.363 8.03z" fill="#ebbd1e"/><path d="M426.835 347.44c-22.332.03-40.41 8.272-40.41 18.434 0 10.16 18.078 18.4 40.41 18.434 22.33-.033 40.412-8.272 40.412-18.434s-18.082-18.405-40.412-18.434z" fill="#d8a728"/><path d="M426.835 350.515c-18.606.023-33.67 6.155-33.67 13.714 0 7.56 15.064 13.69 33.67 13.713 18.605-.023 33.668-6.156 33.668-13.716s-15.063-13.692-33.668-13.715z" fill="#feda03"/><path d="M426.835 378.21l-.033-.265v-.27h.033c.53-.002 1.057-.007 1.58-.018l.01.537c-.53.012-1.058.017-1.59.017zm-1.66-.015c-.544-.012-1.09-.03-1.624-.048l.026-.54c.534.022 1.07.038 1.612.048l-.01.54zm4.873-.048l-.02-.535c.542-.02 1.08-.05 1.615-.08l.03.535c-.536.03-1.076.06-1.625.08zm-8.122-.084c-.546-.033-1.083-.072-1.62-.114l.043-.54c.53.044 1.066.082 1.61.114l-.036.537zm11.37-.11l-.04-.533c.538-.046 1.074-.093 1.607-.143l.052.532c-.535.05-1.074.1-1.62.142zm-14.61-.152c-.543-.052-1.082-.113-1.618-.18l.07-.532c.528.064 1.062.124 1.602.18l-.055.535zm17.844-.17l-.065-.533c.54-.066 1.074-.14 1.6-.214l.078.532c-.53.08-1.068.148-1.613.215zm-21.068-.225c-.545-.08-1.078-.166-1.605-.254l.086-.532c.528.093 1.06.176 1.598.253l-.076.534zm24.286-.244l-.087-.53c.537-.09 1.067-.187 1.587-.29l.105.53c-.525.1-1.06.2-1.6.29zm-27.496-.302c-.54-.106-1.07-.218-1.594-.334l.118-.525c.516.114 1.047.226 1.58.33l-.104.528zm30.688-.32l-.114-.523c.534-.12 1.057-.242 1.57-.37l.13.52c-.517.13-1.048.256-1.586.374zm-33.86-.39c-.536-.133-1.06-.274-1.575-.42l.147-.516c.51.144 1.027.286 1.556.42l-.13.518zm37.018-.403l-.143-.518c.524-.146 1.04-.302 1.543-.464l.162.51c-.51.164-1.03.322-1.562.472zm-40.153-.49c-.527-.17-1.042-.345-1.544-.525l.185-.506c.497.178 1.005.35 1.524.517l-.163.514zm43.258-.503l-.18-.502c.515-.185 1.017-.378 1.503-.576l.202.5c-.496.2-1.002.394-1.525.58zm-46.323-.605c-.51-.206-1.013-.426-1.496-.652l.224-.488c.477.223.974.438 1.472.643l-.2.497zm49.344-.622l-.225-.49c.494-.228.98-.468 1.436-.71l.252.472c-.468.247-.96.49-1.467.728zm-52.303-.76c-.492-.264-.97-.536-1.42-.816l.286-.457c.437.273.907.54 1.387.8l-.25.474zm55.19-.778l-.28-.458c.47-.29.916-.59 1.325-.893l.32.434c-.425.31-.883.62-1.364.916zm-57.966-.957c-.46-.343-.888-.694-1.27-1.044l.36-.398c.37.34.785.68 1.23 1.01l-.32.432zm60.607-1l-.362-.396c.408-.37.778-.752 1.102-1.135l.41.345c-.34.402-.727.802-1.15 1.187zm-63.02-1.238c-.375-.447-.696-.908-.95-1.366l.463-.266c.245.434.545.868.895 1.29l-.41.34zm65.13-1.31l-.468-.265c.268-.467.478-.945.616-1.42l.516.15c-.15.516-.374 1.034-.662 1.536zm-66.73-1.602c-.154-.542-.23-1.098-.23-1.65l.535-.016v.017c0 .5.07 1.005.21 1.504l-.516.144zm67.64-1.595l-.536-.01.27.007-.27-.05c0-.493-.066-.988-.2-1.473l.516-.144c.145.533.22 1.077.22 1.615v.053zm-67.117-1.587l-.513-.148c.146-.518.366-1.038.654-1.54l.466.262c-.263.47-.47.95-.608 1.426zm65.786-1.37c-.24-.43-.54-.866-.888-1.288l.415-.34c.37.445.69.907.945 1.37l-.472.258zm-64.28-1.336l-.41-.347c.334-.4.72-.802 1.145-1.188l.36.395c-.405.372-.775.754-1.096 1.14zm62.303-1.097c-.374-.34-.784-.68-1.227-1.01l.32-.434c.457.343.885.694 1.27 1.05l-.363.393zm-59.975-1.05l-.317-.43c.42-.31.877-.62 1.36-.92l.28.458c-.467.293-.91.594-1.322.894zm57.427-.857c-.436-.272-.902-.54-1.387-.802l.252-.473c.494.27.972.544 1.42.82l-.287.457zm-54.712-.83l-.254-.475c.467-.246.96-.49 1.463-.725l.228.486c-.5.23-.982.47-1.437.716zm51.887-.686c-.478-.224-.97-.44-1.475-.646l.205-.497c.513.21 1.012.427 1.498.654l-.23.488zm-48.98-.67l-.202-.497c.495-.2 1.002-.395 1.522-.583l.186.504c-.518.186-1.02.378-1.506.576zm46.004-.554c-.493-.18-1.004-.352-1.524-.52l.17-.512c.526.17 1.037.344 1.54.526l-.185.506zm-42.975-.54l-.168-.51c.51-.163 1.032-.32 1.562-.473l.148.518c-.526.15-1.04.305-1.544.467zm39.91-.448c-.51-.145-1.028-.284-1.56-.418l.133-.52c.535.134 1.058.275 1.572.42l-.148.518zm-36.81-.434l-.13-.52c.52-.132 1.044-.257 1.58-.376l.12.524c-.534.12-1.056.242-1.57.372zm33.68-.358c-.516-.116-1.04-.224-1.578-.33l.105-.526c.537.103 1.068.215 1.59.332l-.118.524zm-30.533-.34l-.104-.53c.527-.102 1.06-.198 1.6-.29l.09.53c-.537.088-1.065.187-1.587.29zm27.367-.28c-.523-.092-1.056-.173-1.594-.253l.08-.53c.54.08 1.077.163 1.608.253l-.093.53zm-24.186-.264l-.08-.53c.533-.08 1.07-.15 1.613-.216l.067.532c-.54.066-1.075.138-1.6.214zm20.996-.205c-.53-.067-1.065-.126-1.605-.185l.053-.533c.547.056 1.083.117 1.617.184l-.064.533zm-17.792-.19l-.056-.534c.534-.056 1.073-.103 1.617-.148l.045.535c-.54.048-1.078.095-1.607.15zm14.578-.14c-.532-.04-1.07-.08-1.612-.114l.032-.537c.55.03 1.088.07 1.622.114l-.04.536zm-11.36-.117l-.032-.534c.54-.033 1.078-.06 1.624-.085l.02.54c-.542.02-1.078.048-1.61.08zm8.135-.076c-.535-.02-1.073-.038-1.612-.05l.01-.538c.548.01 1.088.027 1.627.05l-.025.537zm-4.908-.054l-.015-.536c.54-.01 1.083-.016 1.626-.018h.07v.54h-.067c-.54 0-1.08 0-1.613.012zm6.423 9.837c-.094-1.664-1.74-2.585-3.663-2.585-.795 0-1.89.392-1.88 1.166.017 2.34 11.176 1.786 11.77 7.444.43 4.074-3.93 5.606-7.608 5.606-.378 0-.748-.028-1.09-.055l.056 1.792h-2.005l-.036-2.21c-1.512-.464-2.646-1.276-3.37-2.024l-.362 2.08h-5.4l.372-6.563h5.44c-.023 2.11 2.48 2.468 3.735 2.52 1.045 0 2.53-.207 2.487-1.275-.08-1.934-11.287-1.124-10.968-7.114.17-3.21 3.977-4.6 6.592-4.6.4 0 .802.02 1.2.06l-.023-1.5h1.682l.06 1.81c1.14.33 2.13.874 2.775 1.763l.166-1.763h4.605l.547 5.45h-5.087z" fill="#d5b729"/><path d="M459.883 374.54c-2.11 1.297-4.587 2.464-7.363 3.473-2.27.826-4.736 1.54-7.364 2.134-2.338.53-4.797.966-7.363 1.288-2.375.298-4.836.5-7.364.604-1.188.045-2.386.07-3.598.072-1.272-.003-2.53-.03-3.768-.082-2.528-.107-4.99-.315-7.364-.62-2.565-.327-5.027-.77-7.362-1.303-2.632-.602-5.097-1.327-7.366-2.16-2.78-1.022-5.256-2.204-7.36-3.52-3.638-2.267-6.16-4.92-7.19-7.794v9.863c1.173 2.693 3.68 5.212 7.19 7.402 2.112 1.318 4.59 2.514 7.36 3.556 2.273.854 4.742 1.6 7.365 2.225 2.34.554 4.8 1.01 7.362 1.353 2.376.32 4.84.544 7.362.658 1.243.055 2.498.085 3.768.085 1.21 0 2.41-.027 3.596-.078 2.522-.11 4.985-.326 7.363-.638 2.56-.337 5.02-.79 7.36-1.34 2.625-.615 5.094-1.357 7.365-2.2 2.768-1.03 5.243-2.214 7.363-3.516 3.596-2.214 6.167-4.772 7.363-7.51v-9.862c-1.05 2.922-3.636 5.612-7.363 7.904z" fill="#ebbd1e"/><path d="M426.835 338.056c-22.332.033-40.41 8.272-40.41 18.435 0 10.16 18.078 18.404 40.41 18.43 22.33-.026 40.412-8.27 40.412-18.43s-18.082-18.4-40.412-18.432z" fill="#d8a728"/><path d="M426.835 341.13c-18.606.025-33.67 6.156-33.67 13.715 0 7.56 15.064 13.692 33.67 13.715 18.605-.023 33.668-6.154 33.668-13.715 0-7.56-15.063-13.69-33.668-13.714z" fill="#feda03"/><path d="M426.835 368.83l-.033-.27v-.267h.033c.53-.003 1.057-.01 1.58-.017l.01.535c-.53.01-1.058.02-1.59.02zm-1.66-.02c-.544-.01-1.09-.03-1.624-.05l.026-.536c.534.02 1.07.038 1.612.05l-.01.537zm4.873-.046l-.02-.537c.542-.022 1.08-.05 1.615-.08l.03.537c-.536.03-1.076.056-1.625.08zm-8.122-.085c-.546-.036-1.083-.075-1.62-.117l.043-.535c.53.04 1.066.08 1.61.113l-.036.536zm11.37-.11l-.04-.536c.538-.045 1.074-.093 1.607-.147l.052.53c-.535.057-1.074.106-1.62.15zm-14.61-.156c-.543-.05-1.082-.114-1.618-.18l.07-.532c.528.063 1.062.124 1.602.18l-.055.532zm17.844-.17l-.065-.532c.54-.07 1.074-.138 1.6-.217l.078.53c-.53.078-1.068.15-1.613.22zm-21.068-.228c-.545-.078-1.078-.163-1.605-.254l.086-.528c.528.09 1.06.172 1.598.253l-.076.528zm24.286-.242l-.087-.53c.537-.092 1.067-.186 1.587-.286l.105.526c-.525.1-1.06.2-1.6.29zm-27.496-.305c-.54-.1-1.07-.213-1.594-.333l.118-.523c.516.117 1.047.228 1.58.33l-.104.526zm30.688-.317l-.114-.523c.534-.116 1.057-.24 1.57-.37l.13.52c-.517.13-1.048.256-1.586.375zm-33.86-.39c-.536-.135-1.06-.275-1.575-.42l.147-.52c.51.148 1.027.287 1.556.42l-.13.52zm37.018-.405l-.143-.518c.524-.15 1.04-.305 1.543-.464l.162.51c-.51.162-1.03.32-1.562.47zm-40.153-.49c-.527-.17-1.042-.345-1.544-.525l.185-.507c.497.177 1.005.35 1.524.518l-.163.512zm43.258-.5l-.18-.508c.515-.187 1.017-.377 1.503-.576l.202.497c-.496.2-1.002.398-1.525.587zm-46.323-.61c-.51-.208-1.013-.43-1.496-.653l.224-.487c.477.222.974.436 1.472.642l-.2.5zm49.344-.624l-.225-.488c.494-.23.98-.472 1.436-.712l.252.473c-.468.246-.96.492-1.467.726zm-52.303-.758c-.492-.265-.97-.537-1.42-.818l.286-.456c.437.274.907.543 1.387.8l-.25.473zm55.19-.783l-.28-.455c.47-.29.916-.59 1.325-.89l.32.433c-.425.31-.883.62-1.364.913zm-57.966-.954c-.46-.34-.888-.693-1.27-1.045l.36-.396c.37.34.785.68 1.23 1.01l-.32.43zm60.607-.998l-.362-.398c.408-.37.778-.752 1.102-1.134l.41.346c-.34.4-.727.8-1.15 1.187zm-63.02-1.24c-.375-.448-.696-.905-.95-1.366l.463-.263c.245.43.545.863.895 1.285l-.41.343zm65.13-1.308l-.468-.264c.268-.467.478-.946.616-1.42l.516.15c-.15.516-.374 1.034-.662 1.536zm-66.73-1.603c-.154-.54-.23-1.097-.23-1.65l.535-.014v.015c0 .503.07 1.01.21 1.503l-.516.147zm67.64-1.593l-.536-.01.27.007-.27-.05c0-.49-.066-.988-.2-1.472l.516-.144c.145.532.22 1.074.22 1.615v.054zm-67.117-1.588l-.513-.15c.146-.52.366-1.04.654-1.54l.466.263c-.263.47-.47.946-.608 1.426zm65.786-1.37c-.24-.433-.54-.867-.888-1.29l.415-.34c.37.45.69.907.945 1.37l-.472.26zm-64.28-1.34l-.41-.344c.334-.4.72-.803 1.145-1.19l.36.396c-.405.374-.775.754-1.096 1.14zm62.303-1.09c-.374-.345-.784-.683-1.227-1.016l.32-.43c.457.343.885.696 1.27 1.046l-.363.4zm-59.975-1.054l-.317-.43c.42-.313.877-.622 1.36-.92l.28.457c-.467.29-.91.592-1.322.892zm57.427-.858c-.436-.273-.902-.54-1.387-.803l.252-.473c.494.265.972.542 1.42.817l-.287.46zm-54.712-.83l-.254-.476c.467-.25.96-.493 1.463-.728l.228.487c-.5.23-.982.47-1.437.715zm51.887-.687c-.478-.224-.97-.44-1.475-.643l.205-.498c.513.206 1.012.425 1.498.652l-.23.488zm-48.98-.67l-.202-.496c.495-.202 1.002-.395 1.522-.585l.186.507c-.518.185-1.02.376-1.506.574zm46.004-.553c-.493-.18-1.004-.354-1.524-.52l.17-.51c.526.17 1.037.344 1.54.524l-.185.506zm-42.975-.54l-.168-.51c.51-.165 1.032-.32 1.562-.473l.148.517c-.526.15-1.04.304-1.544.465zm39.91-.448c-.51-.148-1.028-.288-1.56-.42l.133-.52c.535.135 1.058.277 1.572.425l-.148.515zm-36.81-.435l-.13-.52c.52-.134 1.044-.257 1.58-.377l.12.524c-.534.12-1.056.245-1.57.375zm33.68-.358c-.516-.114-1.04-.224-1.578-.332l.105-.524c.537.106 1.068.216 1.59.333l-.118.524zm-30.533-.34l-.104-.53c.527-.103 1.06-.2 1.6-.29l.09.53c-.537.09-1.065.186-1.587.29zm27.367-.28c-.523-.09-1.056-.174-1.594-.253l.08-.53c.54.077 1.077.164 1.608.252l-.093.53zm-24.186-.262l-.08-.53c.533-.08 1.07-.15 1.613-.216l.067.53c-.54.067-1.075.14-1.6.215zm20.996-.207c-.53-.065-1.065-.127-1.605-.182l.053-.534c.547.055 1.083.117 1.617.184l-.064.533zm-17.792-.187l-.056-.53c.534-.057 1.073-.105 1.617-.148l.045.535c-.54.043-1.078.09-1.607.145zm14.578-.14c-.532-.044-1.07-.08-1.612-.11l.032-.54c.55.036 1.088.072 1.622.117l-.04.533zm-11.36-.115l-.032-.537c.54-.034 1.078-.058 1.624-.08l.02.536c-.542.02-1.078.047-1.61.08zm8.135-.078c-.535-.025-1.073-.037-1.612-.05l.01-.537c.548.01 1.088.028 1.627.05l-.025.538zm-4.908-.053l-.015-.537c.54-.01 1.083-.018 1.626-.018h.07v.54h-.067c-.54 0-1.08.004-1.613.014zm6.423 9.842c-.094-1.664-1.74-2.587-3.663-2.587-.795 0-1.89.39-1.88 1.165.017 2.34 11.176 1.786 11.77 7.44.43 4.08-3.93 5.608-7.608 5.608-.378 0-.748-.025-1.09-.056l.056 1.793h-2.005l-.036-2.207c-1.512-.464-2.646-1.277-3.37-2.025l-.362 2.08h-5.4l.372-6.56h5.44c-.023 2.108 2.48 2.467 3.735 2.52 1.045 0 2.53-.208 2.487-1.276-.08-1.934-11.287-1.123-10.968-7.116.17-3.21 3.977-4.604 6.592-4.604.4 0 .802.02 1.2.06l-.023-1.5h1.682l.06 1.81c1.14.334 2.13.878 2.775 1.766l.166-1.766h4.605l.547 5.452h-5.087z" fill="#d5b729"/><path d="M459.883 363.34c-2.11 1.295-4.587 2.466-7.363 3.476-2.27.823-4.736 1.537-7.364 2.133-2.338.526-4.797.96-7.363 1.283-2.375.298-4.836.5-7.364.604-1.188.045-2.386.072-3.598.075-1.272-.003-2.53-.03-3.768-.082-2.528-.107-4.99-.316-7.364-.622-2.565-.326-5.027-.767-7.362-1.302-2.632-.6-5.097-1.326-7.366-2.16-2.78-1.022-5.256-2.206-7.36-3.517-3.638-2.27-6.16-4.92-7.19-7.798v9.867c1.173 2.69 3.68 5.21 7.19 7.4 2.112 1.317 4.59 2.514 7.36 3.555 2.273.854 4.742 1.6 7.365 2.226 2.34.554 4.8 1.01 7.362 1.355 2.376.32 4.84.543 7.362.655 1.243.057 2.498.088 3.768.09 1.21-.002 2.41-.03 3.596-.08 2.522-.11 4.985-.326 7.363-.637 2.56-.338 5.02-.79 7.36-1.34 2.625-.616 5.094-1.356 7.365-2.2 2.768-1.03 5.243-2.214 7.363-3.518 3.596-2.214 6.167-4.772 7.363-7.503v-9.866c-1.05 2.923-3.636 5.614-7.363 7.906z" fill="#ebbd1e"/><path d="M426.835 324.68c-22.332.032-40.41 8.27-40.41 18.434 0 10.16 18.078 18.4 40.41 18.43 22.33-.03 40.412-8.27 40.412-18.43 0-10.164-18.082-18.403-40.412-18.435z" fill="#d8a728"/><path d="M426.835 327.754c-18.606.024-33.67 6.154-33.67 13.714 0 7.56 15.064 13.694 33.67 13.715 18.605-.022 33.668-6.156 33.668-13.715 0-7.56-15.063-13.69-33.668-13.714z" fill="#feda03"/><path d="M426.835 355.45l-.033-.267v-.27h.033c.53 0 1.057-.006 1.58-.02l.01.54c-.53.012-1.058.018-1.59.018zm-1.66-.017c-.544-.012-1.09-.028-1.624-.05l.026-.536c.534.02 1.07.037 1.612.048l-.01.538zm4.873-.047l-.02-.535c.542-.02 1.08-.045 1.615-.08l.03.54c-.536.03-1.076.055-1.625.08zm-8.122-.085c-.546-.03-1.083-.07-1.62-.11l.043-.534c.53.042 1.066.08 1.61.113l-.036.533zm11.37-.11l-.04-.53c.538-.045 1.074-.09 1.607-.146l.052.534c-.535.054-1.074.103-1.62.145zm-14.61-.15c-.543-.053-1.082-.113-1.618-.18l.07-.53c.528.062 1.062.12 1.602.18l-.055.532zm17.844-.173l-.065-.53c.54-.065 1.074-.14 1.6-.214l.078.53c-.53.08-1.068.152-1.613.215zm-21.068-.22c-.545-.082-1.078-.17-1.605-.255l.086-.532c.528.093 1.06.174 1.598.254l-.076.534zm24.286-.247l-.087-.53c.537-.09 1.067-.186 1.587-.288l.105.53c-.525.1-1.06.198-1.6.288zm-27.496-.306c-.54-.105-1.07-.216-1.594-.33l.118-.526c.516.117 1.047.227 1.58.33l-.104.526zm30.688-.317l-.114-.525c.534-.116 1.057-.24 1.57-.367l.13.52c-.517.13-1.048.254-1.586.373zm-33.86-.388c-.536-.14-1.06-.278-1.575-.424l.147-.518c.51.146 1.027.284 1.556.42l-.13.52zm37.018-.407l-.143-.516c.524-.15 1.04-.307 1.543-.466l.162.514c-.51.162-1.03.32-1.562.47zm-40.153-.49c-.527-.17-1.042-.344-1.544-.523l.185-.507c.497.18 1.005.353 1.524.52l-.163.51zm43.258-.503l-.18-.505c.515-.184 1.017-.376 1.503-.574l.202.5c-.496.2-1.002.393-1.525.582zm-46.323-.606c-.51-.206-1.013-.426-1.496-.65l.224-.487c.477.218.974.437 1.472.64l-.2.497zm49.344-.624l-.225-.487c.494-.23.98-.472 1.436-.712l.252.476c-.468.248-.96.49-1.467.725zM399.92 350c-.494-.263-.973-.537-1.42-.817l.284-.456c.437.27.907.54 1.387.798l-.25.474zm55.19-.78l-.282-.457c.47-.29.916-.59 1.325-.89l.32.433c-.425.31-.883.62-1.364.915zm-57.968-.957c-.46-.34-.888-.694-1.27-1.044l.36-.398c.37.34.785.678 1.23 1.01l-.32.43zm60.607-1l-.365-.396c.408-.37.778-.752 1.102-1.134l.41.346c-.34.4-.726.796-1.15 1.182zm-63.024-1.237c-.374-.447-.695-.907-.95-1.366l.464-.262c.246.43.546.863.896 1.286l-.41.342zm65.13-1.307l-.467-.27c.266-.466.476-.944.614-1.42l.516.15c-.15.52-.373 1.035-.66 1.54zm-66.73-1.606c-.153-.542-.23-1.095-.23-1.648l.536-.015v.016c0 .503.07 1.008.21 1.502l-.516.145zm67.64-1.592l-.535-.01.27.004-.27-.05c0-.49-.065-.986-.2-1.472l.517-.142c.146.533.22 1.077.22 1.615v.054zm-67.116-1.59l-.512-.15c.147-.517.367-1.035.655-1.54l.466.265c-.265.47-.47.947-.61 1.423zm65.787-1.368c-.24-.434-.54-.867-.887-1.29l.414-.34c.37.446.69.91.945 1.37l-.474.26zm-64.28-1.337l-.41-.35c.335-.4.72-.8 1.146-1.188l.36.396c-.405.37-.775.753-1.096 1.14zm62.304-1.096c-.372-.34-.782-.68-1.225-1.012l.32-.43c.457.34.885.696 1.27 1.047l-.363.396zm-59.973-1.05l-.317-.43c.42-.314.875-.622 1.36-.92l.28.457c-.47.29-.913.592-1.324.894zm57.427-.86c-.436-.27-.902-.54-1.387-.8l.252-.473c.494.267.972.542 1.42.82l-.287.455zm-54.712-.83l-.253-.475c.467-.25.96-.492 1.463-.726l.23.485c-.5.23-.984.472-1.44.714zm51.888-.688c-.477-.22-.97-.436-1.474-.64l.205-.5c.513.21 1.01.43 1.498.655l-.23.485zm-48.978-.666l-.203-.498c.494-.2 1-.396 1.52-.586l.186.506c-.518.185-1.02.378-1.506.576zm46.003-.553c-.493-.18-1.004-.355-1.524-.522l.17-.51c.526.166 1.037.346 1.54.53l-.185.503zm-42.975-.542l-.166-.512c.51-.163 1.032-.318 1.562-.47l.148.517c-.526.148-1.04.302-1.544.465zm39.91-.447c-.508-.145-1.026-.284-1.558-.418l.133-.522c.535.135 1.058.275 1.572.423l-.148.517zm-36.81-.433l-.13-.52c.52-.132 1.046-.256 1.583-.377l.12.525c-.534.12-1.056.242-1.57.374zm33.682-.36c-.516-.112-1.042-.222-1.578-.327l.105-.528c.536.106 1.067.218 1.59.334l-.12.52zm-30.533-.34l-.105-.528c.527-.103 1.06-.2 1.6-.293l.09.53c-.537.09-1.065.185-1.587.29zm27.366-.28c-.523-.09-1.056-.17-1.594-.252l.08-.53c.54.08 1.076.166 1.607.255l-.094.53zm-24.186-.26l-.078-.533c.532-.078 1.07-.15 1.612-.215l.066.533c-.54.068-1.074.138-1.6.214zm20.997-.207c-.53-.066-1.065-.127-1.605-.18l.053-.537c.547.055 1.083.115 1.617.183l-.065.53zm-17.792-.19l-.056-.534c.533-.055 1.072-.104 1.616-.147l.045.534c-.54.045-1.08.094-1.607.147zm14.578-.14c-.53-.042-1.07-.08-1.61-.115l.03-.534c.55.034 1.09.07 1.623.115l-.04.534zm-11.36-.116l-.03-.538c.54-.03 1.077-.058 1.623-.08l.02.535c-.542.02-1.078.047-1.61.08zm8.136-.078c-.536-.02-1.074-.04-1.613-.05l.01-.538c.548.012 1.088.026 1.627.05l-.024.536zm-4.91-.05l-.013-.54c.54-.013 1.083-.02 1.626-.02h.07v.54h-.068c-.54 0-1.08.005-1.614.017zm6.42 9.837c-.094-1.662-1.74-2.583-3.663-2.583-.795 0-1.89.395-1.88 1.167.017 2.34 11.176 1.786 11.77 7.446.43 4.072-3.93 5.603-7.608 5.603-.378 0-.748-.028-1.09-.055l.056 1.792h-2.005l-.036-2.208c-1.512-.463-2.646-1.278-3.37-2.025l-.362 2.08h-5.4l.372-6.563h5.44c-.023 2.11 2.48 2.47 3.735 2.523 1.045 0 2.53-.208 2.487-1.278-.08-1.932-11.287-1.12-10.968-7.114.17-3.21 3.977-4.602 6.592-4.602.4 0 .802.02 1.2.06l-.023-1.5h1.682l.06 1.81c1.14.333 2.13.878 2.775 1.767l.166-1.766h4.605l.547 5.45h-5.087z" fill="#d5b729"/><path d="M459.883 351.777c-2.11 1.295-4.587 2.465-7.363 3.475-2.27.824-4.736 1.54-7.364 2.134-2.338.53-4.797.965-7.363 1.286-2.375.298-4.836.502-7.364.604-1.188.05-2.386.076-3.598.076-1.272 0-2.53-.03-3.768-.08-2.528-.108-4.99-.318-7.364-.623-2.565-.33-5.027-.77-7.362-1.305-2.632-.602-5.097-1.328-7.366-2.16-2.78-1.023-5.256-2.205-7.36-3.518-3.638-2.27-6.16-4.922-7.19-7.798v9.866c1.173 2.69 3.68 5.21 7.19 7.397 2.112 1.32 4.59 2.516 7.36 3.557 2.273.857 4.742 1.6 7.365 2.227 2.34.554 4.8 1.012 7.362 1.354 2.376.32 4.84.545 7.362.658 1.243.054 2.498.084 3.768.085 1.21 0 2.41-.028 3.596-.08 2.522-.107 4.985-.323 7.363-.636 2.56-.34 5.02-.792 7.36-1.34 2.625-.616 5.094-1.355 7.365-2.2 2.768-1.03 5.243-2.212 7.363-3.515 3.596-2.216 6.167-4.772 7.363-7.505v-9.868c-1.05 2.924-3.636 5.613-7.363 7.904z" fill="#ebbd1e"/><path d="M426.835 313.478c-22.332.033-40.41 8.274-40.41 18.433 0 10.166 18.078 18.407 40.41 18.438 22.33-.03 40.412-8.272 40.412-18.435 0-10.158-18.082-18.4-40.412-18.432z" fill="#d8a728"/><path d="M426.835 316.554c-18.606.025-33.67 6.155-33.67 13.715s15.064 13.69 33.67 13.712c18.605-.024 33.668-6.155 33.668-13.715s-15.063-13.69-33.668-13.716z" fill="#feda03"/><path d="M426.835 344.252l-.033-.268v-.27h.033c.53 0 1.057-.006 1.58-.017l.01.54c-.53.008-1.058.014-1.59.015zm-1.66-.02c-.544-.01-1.09-.027-1.624-.048l.026-.536c.534.02 1.07.038 1.612.05l-.01.535zm4.873-.045l-.02-.538c.542-.024 1.08-.05 1.615-.08l.03.533c-.536.033-1.076.06-1.625.082zm-8.122-.084c-.546-.036-1.083-.072-1.62-.116l.043-.534c.53.042 1.066.08 1.61.114l-.036.536zm11.37-.11l-.04-.534c.538-.048 1.074-.095 1.607-.15l.052.534c-.535.056-1.074.102-1.62.147zm-14.61-.154c-.543-.057-1.082-.12-1.618-.184l.07-.53c.528.065 1.062.12 1.602.177l-.055.534zm17.844-.174l-.065-.533c.54-.066 1.074-.138 1.6-.214l.078.53c-.53.08-1.068.15-1.613.217zm-21.068-.226c-.545-.077-1.078-.163-1.605-.25l.086-.53c.528.09 1.06.17 1.598.25l-.076.53zm24.286-.242l-.087-.53c.537-.09 1.067-.187 1.587-.29l.105.53c-.525.1-1.06.2-1.6.29zm-27.496-.303c-.54-.105-1.07-.22-1.594-.335l.118-.523c.516.116 1.047.227 1.58.33l-.104.527zm30.688-.32l-.114-.524c.534-.114 1.057-.24 1.57-.37l.13.52c-.517.13-1.048.258-1.586.376zm-33.86-.39c-.536-.134-1.06-.274-1.575-.42l.147-.52c.51.144 1.027.288 1.556.42l-.13.52zm37.018-.405l-.143-.516c.524-.147 1.04-.302 1.543-.464l.162.51c-.51.165-1.03.32-1.562.47zm-40.153-.488c-.527-.168-1.042-.343-1.544-.524l.185-.507c.497.18 1.005.35 1.524.52l-.163.51zm43.258-.5l-.18-.508c.515-.185 1.017-.378 1.503-.576l.202.497c-.496.2-1.002.397-1.525.587zm-46.323-.61c-.51-.208-1.013-.426-1.496-.653l.224-.486c.477.22.974.437 1.472.64l-.2.497zm49.344-.625l-.225-.486c.494-.23.98-.47 1.436-.71l.252.474c-.468.246-.96.492-1.467.723zm-52.303-.757c-.492-.26-.97-.537-1.42-.817l.286-.456c.437.273.907.542 1.387.798l-.25.475zm55.19-.78l-.28-.456c.47-.29.916-.59 1.325-.893l.32.436c-.425.31-.883.62-1.364.916zm-57.966-.957c-.46-.34-.888-.693-1.27-1.046l.36-.395c.37.34.785.68 1.23 1.01l-.32.43zm60.607-1l-.362-.395c.408-.37.778-.752 1.102-1.133l.41.346c-.34.4-.727.8-1.15 1.186zm-63.02-1.236c-.375-.447-.696-.908-.95-1.37l.463-.262c.245.434.545.868.895 1.288l-.41.344zm65.13-1.307l-.468-.266c.268-.47.478-.946.616-1.422l.516.152c-.15.514-.374 1.032-.662 1.536zm-66.73-1.605c-.154-.542-.23-1.098-.23-1.65l.535-.014v.017c0 .5.07 1.006.21 1.502l-.516.145zm67.64-1.595l-.536-.006.27.003-.27-.05c0-.49-.066-.986-.2-1.473l.516-.144c.145.533.22 1.078.22 1.615v.055zm-67.117-1.587l-.513-.148c.146-.52.366-1.038.654-1.543l.466.268c-.263.466-.47.945-.608 1.423zm65.786-1.37c-.24-.433-.54-.866-.888-1.288l.415-.34c.37.445.69.91.945 1.37l-.472.26zm-64.28-1.336l-.41-.347c.334-.4.72-.8 1.145-1.188l.36.395c-.405.37-.775.755-1.096 1.14zm62.303-1.095c-.374-.34-.784-.683-1.227-1.013l.32-.43c.457.34.885.69 1.27 1.046l-.363.395zm-59.975-1.05l-.317-.432c.42-.313.877-.62 1.36-.918l.28.454c-.467.29-.91.59-1.322.895zm57.427-.86c-.436-.27-.902-.54-1.387-.8l.252-.473c.494.264.972.54 1.42.82l-.287.452zm-54.712-.834l-.254-.472c.467-.247.96-.493 1.463-.726l.228.488c-.5.23-.982.47-1.437.71zm51.887-.68c-.478-.225-.97-.44-1.475-.647l.205-.495c.513.21 1.012.428 1.498.655l-.23.49zm-48.98-.67l-.202-.498c.495-.202 1.002-.396 1.522-.586l.186.507c-.518.188-1.02.38-1.506.578zm46.004-.555c-.493-.18-1.004-.352-1.524-.52l.17-.508c.526.168 1.037.343 1.54.527l-.185.5zm-42.975-.54l-.168-.512c.51-.16 1.032-.316 1.562-.47l.148.52c-.526.15-1.04.304-1.544.464zm39.91-.447c-.51-.147-1.028-.284-1.56-.418l.133-.52c.535.134 1.058.274 1.572.42l-.148.518zm-36.81-.433l-.13-.522c.52-.13 1.044-.254 1.58-.373l.12.526c-.534.116-1.056.24-1.57.37zm33.68-.356c-.516-.12-1.04-.23-1.578-.333l.105-.527c.537.105 1.068.215 1.59.332l-.118.525zm-30.533-.35l-.104-.525c.527-.102 1.06-.2 1.6-.29l.09.53c-.537.09-1.065.187-1.587.286zm27.367-.275c-.523-.09-1.056-.175-1.594-.252l.08-.532c.54.08 1.077.165 1.608.256l-.093.53zm-24.186-.262l-.08-.53c.533-.076 1.07-.15 1.613-.216l.067.532c-.54.064-1.075.135-1.6.213zm20.996-.208c-.53-.063-1.065-.124-1.605-.18l.053-.533c.547.052 1.083.113 1.617.18l-.064.53zm-17.792-.187l-.056-.535c.534-.052 1.073-.102 1.617-.145l.045.533c-.54.045-1.078.095-1.607.148zm14.578-.14c-.532-.042-1.07-.08-1.612-.114l.032-.534c.55.033 1.088.072 1.622.114l-.04.535zm-11.36-.117l-.032-.536c.54-.032 1.078-.058 1.624-.08l.02.536c-.542.02-1.078.048-1.61.08zm8.135-.078c-.535-.02-1.073-.037-1.612-.047l.01-.537c.548.012 1.088.027 1.627.048l-.025.536zm-4.908-.053l-.015-.536c.54-.01 1.083-.013 1.626-.013h.07v.533h-.067c-.54 0-1.08.005-1.613.015zm6.423 9.84c-.094-1.66-1.74-2.584-3.663-2.584-.795 0-1.89.394-1.88 1.168.017 2.34 11.176 1.787 11.77 7.445.43 4.076-3.93 5.605-7.608 5.605-.378 0-.748-.028-1.09-.055l.056 1.792h-2.005l-.036-2.207c-1.512-.466-2.646-1.28-3.37-2.024l-.362 2.078h-5.4l.372-6.563h5.44c-.023 2.11 2.48 2.47 3.735 2.52 1.045 0 2.53-.205 2.487-1.27-.08-1.935-11.287-1.125-10.968-7.12.17-3.207 3.977-4.6 6.592-4.6.4 0 .802.017 1.2.06l-.023-1.5h1.682l.06 1.81c1.14.33 2.13.877 2.775 1.767l.166-1.767h4.605l.547 5.45h-5.087z" fill="#d5b729"/><path d="M459.883 340.58c-2.11 1.296-4.587 2.465-7.363 3.475-2.27.82-4.736 1.538-7.364 2.133-2.338.528-4.797.963-7.363 1.286-2.375.296-4.836.5-7.364.604-1.188.048-2.386.075-3.598.075-1.272-.003-2.53-.03-3.768-.08-2.528-.11-4.99-.318-7.364-.624-2.565-.33-5.027-.77-7.362-1.304-2.632-.602-5.097-1.328-7.366-2.162-2.78-1.022-5.256-2.207-7.36-3.516-3.638-2.27-6.16-4.92-7.19-7.798v9.867c1.173 2.69 3.68 5.207 7.19 7.397 2.112 1.32 4.59 2.516 7.36 3.557 2.273.855 4.742 1.6 7.365 2.227 2.34.558 4.8 1.012 7.362 1.356 2.376.317 4.84.54 7.362.656 1.243.053 2.498.082 3.768.086 1.21-.006 2.41-.03 3.596-.083 2.522-.108 4.985-.325 7.363-.637 2.56-.337 5.02-.79 7.36-1.34 2.625-.615 5.094-1.355 7.365-2.202 2.768-1.026 5.243-2.208 7.363-3.514 3.596-2.214 6.167-4.773 7.363-7.504v-9.867c-1.05 2.923-3.636 5.613-7.363 7.905z" fill="#ebbd1e"/><path d="M426.835 301.918c-22.332.03-40.41 8.272-40.41 18.432 0 10.163 18.078 18.405 40.41 18.435 22.33-.03 40.412-8.273 40.412-18.435 0-10.16-18.082-18.403-40.412-18.432z" fill="#d8a728"/><path d="M426.835 304.993c-18.606.02-33.67 6.154-33.67 13.714 0 7.56 15.064 13.69 33.67 13.714 18.605-.02 33.668-6.15 33.668-13.71s-15.063-13.694-33.668-13.715z" fill="#feda03"/><path d="M426.835 332.69l-.033-.27v-.267h.033c.53 0 1.057-.005 1.58-.017l.01.536c-.53.012-1.058.018-1.59.018zm-1.66-.018c-.544-.012-1.09-.028-1.624-.05l.026-.54c.534.025 1.07.043 1.612.054l-.01.536zm4.873-.047l-.02-.535c.542-.02 1.08-.048 1.615-.08l.03.536c-.536.03-1.076.057-1.625.08zm-8.122-.083c-.546-.034-1.083-.073-1.62-.115l.043-.535c.53.042 1.066.08 1.61.113l-.036.537zm11.37-.11l-.04-.535c.538-.044 1.074-.092 1.607-.144l.052.533c-.535.055-1.074.103-1.62.147zm-14.61-.153c-.543-.058-1.082-.118-1.618-.184l.07-.535c.528.07 1.062.128 1.602.183l-.055.534zm17.844-.175l-.065-.535c.54-.063 1.074-.135 1.6-.21l.078.53c-.53.076-1.068.15-1.613.216zm-21.068-.224c-.545-.08-1.078-.166-1.605-.254l.086-.533c.528.09 1.06.177 1.598.255l-.076.532zm24.286-.245l-.087-.53c.537-.09 1.067-.185 1.587-.287l.105.527c-.525.1-1.06.196-1.6.29zm-27.496-.302c-.54-.107-1.07-.215-1.594-.333l.118-.524c.516.117 1.047.224 1.58.333l-.104.523zm30.688-.32l-.114-.524c.534-.118 1.057-.24 1.57-.37l.13.52c-.517.13-1.048.254-1.586.375zm-33.86-.39c-.536-.134-1.06-.274-1.575-.422l.147-.515c.51.145 1.027.284 1.556.42l-.13.52zm37.018-.403l-.143-.516c.524-.15 1.04-.303 1.543-.464l.162.515c-.51.16-1.03.318-1.562.467zm-40.153-.49c-.527-.167-1.042-.343-1.544-.525l.185-.506c.497.18 1.005.35 1.524.52l-.163.51zm43.258-.5l-.18-.51c.515-.182 1.017-.375 1.503-.572l.202.497c-.496.2-1.002.394-1.525.584zm-46.323-.61c-.51-.207-1.013-.424-1.496-.652l.224-.486c.477.22.974.437 1.472.64l-.2.498zm49.344-.623l-.225-.49c.494-.228.98-.466 1.436-.71l.252.473c-.468.25-.96.493-1.467.728zm-52.303-.756c-.492-.26-.97-.54-1.42-.815l.286-.457c.437.275.907.54 1.387.8l-.25.474zm55.19-.78l-.28-.456c.47-.287.916-.59 1.325-.89l.32.433c-.425.31-.883.618-1.364.913zm-57.966-.955c-.46-.343-.888-.692-1.27-1.045l.36-.396c.37.337.785.676 1.23 1.008l-.32.432zm60.607-1l-.362-.395c.408-.373.778-.755 1.102-1.137l.41.346c-.34.4-.727.8-1.15 1.183zm-63.02-1.236c-.375-.45-.696-.91-.95-1.37l.463-.265c.245.434.545.866.895 1.29l-.41.343zm65.13-1.31l-.468-.265c.268-.47.478-.948.616-1.422l.516.15c-.15.515-.374 1.032-.662 1.537zm-66.73-1.604c-.154-.544-.23-1.1-.23-1.65l.535-.014v.015c0 .502.07 1.01.21 1.506l-.516.145zm67.64-1.596l-.536-.01.27.006-.27-.05c0-.493-.066-.988-.2-1.473l.516-.143c.145.533.22 1.078.22 1.616v.055zm-67.117-1.59l-.513-.147c.146-.518.366-1.037.654-1.54l.466.264c-.263.47-.47.95-.608 1.424zm65.786-1.366c-.24-.434-.54-.868-.888-1.29l.415-.34c.37.446.69.908.945 1.37l-.472.26zm-64.28-1.337l-.41-.347c.334-.4.72-.8 1.145-1.187l.36.395c-.405.372-.775.755-1.096 1.14zm62.303-1.095c-.374-.342-.784-.682-1.227-1.01l.32-.433c.457.34.885.694 1.27 1.05l-.363.39zm-59.975-1.05l-.317-.433c.42-.31.877-.62 1.36-.92l.28.456c-.467.29-.91.593-1.322.894zm57.427-.86c-.436-.27-.902-.54-1.387-.8l.252-.474c.494.265.972.54 1.42.818l-.287.456zm-54.712-.834l-.254-.473c.467-.246.96-.492 1.463-.726l.228.485c-.5.23-.982.47-1.437.712zm51.887-.684c-.478-.223-.97-.44-1.475-.642l.205-.5c.513.21 1.012.428 1.498.655l-.23.486zm-48.98-.67l-.202-.496c.495-.2 1.002-.395 1.522-.584l.186.506c-.518.185-1.02.38-1.506.575zm46.004-.552c-.493-.18-1.004-.353-1.524-.52l.17-.512c.526.17 1.037.347 1.54.528l-.185.504zm-42.975-.54l-.168-.512c.51-.163 1.032-.32 1.562-.472l.148.518c-.526.15-1.04.303-1.544.467zm39.91-.448c-.51-.145-1.028-.284-1.56-.42l.133-.52c.535.136 1.058.28 1.572.423l-.148.516zm-36.81-.435l-.13-.52c.52-.13 1.044-.258 1.58-.376l.12.522c-.534.12-1.056.243-1.57.373zm33.68-.357c-.516-.116-1.04-.226-1.578-.333l.105-.524c.537.106 1.068.217 1.59.334l-.118.525zm-30.533-.342l-.104-.53c.527-.1 1.06-.197 1.6-.29l.09.528c-.537.092-1.065.187-1.587.292zm27.367-.28c-.523-.087-1.056-.173-1.594-.25l.08-.534c.54.08 1.077.165 1.608.257l-.093.53zm-24.186-.26l-.08-.533c.533-.08 1.07-.15 1.613-.217l.067.534c-.54.067-1.075.14-1.6.216zm20.996-.21c-.53-.063-1.065-.125-1.605-.18l.053-.534c.547.055 1.083.118 1.617.182l-.064.532zm-17.792-.186l-.056-.532c.534-.056 1.073-.105 1.617-.147l.045.532c-.54.045-1.078.092-1.607.146zm14.578-.14c-.532-.043-1.07-.082-1.612-.114l.032-.534c.55.032 1.088.072 1.622.113l-.04.535zm-11.36-.117l-.032-.536c.54-.032 1.078-.06 1.624-.08l.02.536c-.542.02-1.078.046-1.61.08zm8.135-.08c-.535-.02-1.073-.038-1.612-.05l.01-.535c.548.01 1.088.027 1.627.047l-.025.54zm-4.908-.05l-.015-.538c.54-.013 1.083-.02 1.626-.02h.07v.538h-.067c-.54 0-1.08.01-1.613.02zm6.423 9.84c-.094-1.664-1.74-2.585-3.663-2.585-.795 0-1.89.392-1.88 1.168.017 2.338 11.176 1.782 11.77 7.44.43 4.076-3.93 5.606-7.608 5.606-.378 0-.748-.028-1.09-.055l.056 1.797h-2.005l-.036-2.205c-1.512-.465-2.646-1.28-3.37-2.027l-.362 2.082h-5.4l.372-6.565h5.44c-.023 2.11 2.48 2.468 3.735 2.52 1.045 0 2.53-.208 2.487-1.274-.08-1.935-11.287-1.124-10.968-7.116.17-3.21 3.977-4.604 6.592-4.604.4 0 .802.02 1.2.062l-.023-1.5h1.682l.06 1.808c1.14.33 2.13.877 2.775 1.768l.166-1.768h4.605l.547 5.452h-5.087z" fill="#d5b729"/><path d="M459.883 329.018c-2.11 1.294-4.587 2.463-7.363 3.473-2.27.827-4.736 1.54-7.364 2.14-2.338.527-4.797.96-7.363 1.284-2.375.296-4.836.502-7.364.606-1.188.044-2.386.072-3.598.072-1.272-.002-2.53-.03-3.768-.08-2.528-.108-4.99-.317-7.364-.62-2.565-.328-5.027-.77-7.362-1.304-2.632-.6-5.097-1.328-7.366-2.16-2.78-1.023-5.256-2.206-7.36-3.518-3.638-2.268-6.16-4.92-7.19-7.796v9.867c1.173 2.69 3.68 5.21 7.19 7.4 2.112 1.32 4.59 2.515 7.36 3.556 2.273.853 4.742 1.602 7.365 2.223 2.34.556 4.8 1.013 7.362 1.36 2.376.315 4.84.54 7.362.653 1.243.055 2.498.085 3.768.09 1.21-.005 2.41-.032 3.596-.083 2.522-.11 4.985-.324 7.363-.64 2.56-.337 5.02-.79 7.36-1.337 2.625-.617 5.094-1.357 7.365-2.202 2.768-1.025 5.243-2.21 7.363-3.514 3.596-2.213 6.167-4.77 7.363-7.503v-9.868c-1.05 2.922-3.636 5.613-7.363 7.906z" fill="#ebbd1e"/><path d="M426.835 290.357c-22.332.028-40.41 8.27-40.41 18.43 0 10.164 18.078 18.402 40.41 18.436 22.33-.033 40.412-8.272 40.412-18.435 0-10.162-18.082-18.403-40.412-18.43z" fill="#ffcd0a"/><path d="M426.835 293.432c-18.606.022-33.67 6.153-33.67 13.714 0 7.56 15.064 13.69 33.67 13.714 18.605-.023 33.668-6.154 33.668-13.714 0-7.56-15.063-13.693-33.668-13.714z" opacity=".2" fill="#fff"/><path d="M459.883 317.455c-2.11 1.297-4.587 2.465-7.363 3.474-2.27.82-4.736 1.54-7.364 2.132-2.338.53-4.797.96-7.363 1.285-2.375.296-4.836.5-7.364.604-1.188.05-2.386.076-3.598.08-1.272-.004-2.53-.03-3.768-.085-2.528-.107-4.99-.317-7.364-.62-2.565-.33-5.027-.77-7.362-1.304-2.632-.6-5.097-1.327-7.366-2.16-2.78-1.02-5.256-2.204-7.36-3.517-3.638-2.268-6.16-4.92-7.19-7.795v9.864c1.173 2.69 3.68 5.21 7.19 7.4 2.112 1.318 4.59 2.515 7.36 3.557 2.273.855 4.742 1.6 7.365 2.224 2.34.555 4.8 1.012 7.362 1.356 2.376.318 4.84.54 7.362.656 1.243.056 2.498.084 3.768.086 1.21-.002 2.41-.03 3.596-.08 2.522-.108 4.985-.323 7.363-.64 2.56-.335 5.02-.79 7.36-1.338 2.625-.616 5.094-1.355 7.365-2.2 2.768-1.028 5.243-2.212 7.363-3.518 3.596-2.214 6.167-4.77 7.363-7.504v-9.864c-1.05 2.923-3.636 5.614-7.363 7.905z" fill="#ebbd1e"/><path d="M426.888 321.96h-.005c-16.358-.018-33.745-5.056-33.745-14.355 0-9.298 17.387-14.336 33.745-14.354 16.363.02 33.75 5.06 33.75 14.357 0 9.3-17.387 14.337-33.745 14.356zm-.005-24.72c-17.534.02-29.755 5.478-29.755 10.365 0 4.887 12.22 10.346 29.758 10.367 17.536-.02 29.758-5.48 29.758-10.367 0-4.887-12.223-10.345-29.76-10.366zm12.674 10.41l-5.357-2.363.79-.368c.832-.39 1.312-.67 1.447-.84.133-.167.004-.336-.388-.502-.317-.135-.66-.185-1.035-.15-.375.03-.78.15-1.223.35-.742.34-1.104.646-1.083.925.012.277.352.963 1.035 2.078.6.974.953 1.68 1.05 2.11.098.433-.053.92-.458 1.457-.41.545-1.194 1.11-2.36 1.69-1.896.947-3.89 1.465-5.955 1.537-2.07.072-4.16-.306-6.24-1.124l-2.156 1.01-2.364-1.267 2.222-1.013c-1.194-.77-1.776-1.628-1.755-2.57.02-.92 1.23-1.89 3.593-2.908l1.017-.438 4.944 2.36-1.28.585c-1.426.65-2.27 1.085-2.52 1.297-.248.216-.17.425.236.63.346.174.73.247 1.15.218.417-.028.865-.156 1.346-.38 1.196-.557 1.96-.99 2.302-1.305.34-.31.33-.827-.024-1.54-.567-1.163-.89-1.957-.98-2.406-.09-.443.075-.928.49-1.452.41-.517 1.107-.986 2.09-1.41 1.406-.605 2.9-.9 4.5-.892 1.6.008 3.33.32 5.21.945l1.42-.647 2.367.966-1.414.663c1.446.755 2.214 1.492 2.286 2.21.074.727-.57 1.435-1.954 2.12-.194.098-.51.237-.948.42z" fill="#d8a728"/><g transform="translate(106.137 -59.525)"><circle cx="258.954" cy="440.766" r="38.107" fill="#fbca0d"/><path d="M233.82 422.945c9.827-13.86 29.096-17.14 42.955-7.313 13.86 9.826 17.14 29.095 7.313 42.954-9.827 13.86-29.095 17.14-42.954 7.313-13.86-9.83-17.14-29.098-7.314-42.957zm46.3 32.828c8.273-11.67 5.51-27.897-6.16-36.172-11.67-8.273-27.897-5.51-36.17 6.16-8.276 11.67-5.513 27.898 6.157 36.17 11.67 8.278 27.897 5.515 36.172-6.155z" fill="#d5a429"/><circle cx="258.954" cy="440.765" r="25.945" opacity=".2" fill="#fdfeff"/><path d="M259.308 452.11l4.607-6.498 1.078.764c1.147.813 1.95 1.27 2.41 1.37.46.102.866-.094 1.216-.587.28-.4.336-.806.172-1.22-.166-.416-.554-.84-1.165-1.27-1.02-.726-1.876-1.028-2.573-.908-.688.107-2.31.713-4.866 1.818-2.168.944-3.73 1.53-4.686 1.754-.957.224-2.066.198-3.33-.077-1.262-.276-2.618-.926-4.064-1.952-2.315-1.643-3.737-3.488-4.265-5.538-.528-2.05-.157-4.3 1.113-6.752l-2.445-1.734 2.12-2.99 2.527 1.79c1.4-1.613 3.144-2.66 5.23-3.13 2.08-.473 4.57.317 7.465 2.37l1.27.9-4.607 6.498-1.593-1.13c-1.748-1.238-2.88-1.94-3.4-2.107-.518-.165-.96.01-1.324.525-.31.44-.395.87-.253 1.294.143.422.503.84 1.082 1.25 1.457 1.034 2.572 1.67 3.343 1.913.77.24 1.948.03 3.533-.637 2.65-1.1 4.52-1.802 5.61-2.1 1.09-.3 2.348-.332 3.778-.1 1.43.233 2.817.824 4.157 1.774 1.94 1.374 3.073 3.003 3.398 4.885.325 1.882-.163 4.013-1.464 6.394l2.075 1.47-2.12 2.99-2.075-1.47c-1.68 1.82-3.416 2.845-5.21 3.07-1.797.227-3.653-.34-5.573-1.7-.267-.19-.66-.5-1.176-.93z" fill="#d5a429"/></g><path d="M275.494 421.024s.662 4.736 1.477 10.523c.82 5.782 7.77 3.32 15.46-5.473l74.626-85.26c7.696-8.785 20.798-9.28 29.13-1.094l8.09 7.965c8.327 8.19 9.165 7.44 1.848-1.67l-16.956-21.134c-7.312-9.11-19.647-9.43-27.42-.7l-86.252 96.846m366.944-4.17s-.572 4.746-1.267 10.545c-.7 5.8-7.702 3.478-15.57-5.16l-76.297-83.76c-7.865-8.636-20.983-8.866-29.15-.513l-7.93 8.11c-8.165 8.366-9.012 7.625-1.883-1.632l16.535-21.455c7.13-9.253 19.46-9.818 27.4-1.245l88.163 95.113" fill="#c38061"/><path d="M556.584 524.414c-36.93.37-81.807-46.817-82.104-76.735-.247-24.92 36.246-30.278 79.754-30.71 4.703-.05 18.042 1.02 22.85 1.362 40.836 2.933 45.586 12.697 45.965 50.848.333 34.175-24.507 54.818-66.468 55.233M360.77 526.36c-41.958.414-67.21-19.736-67.548-53.914-.38-38.147 19.02-49.75 59.792-53.477 4.807-.45 13.334-2.265 18.033-2.314 43.515-.432 64.974 19.563 65.22 44.485.298 29.918-38.574 64.85-75.498 65.217" fill="#013744"/><g transform="translate(140.339 -74.432)" opacity=".4"><defs><path id="a" d="M483.41 554.55l-135.95 1.345-.657-66.415 135.95-1.346z"/></defs><clipPath><use height="100%" width="100%" xlink:href="#a" overflow="visible"/></clipPath><path clip-path="url(#d)" d="M482.753 526.327c4.675 14.637-31.065 28.568-68.76 28.943-37.7.375-64.947-13.24-66.704-28.498-1.59-13.786 11.492-37.843 68.71-37.93 37.695-.058 58.764 12.532 66.75 37.485" fill="#685879"/></g><g transform="translate(140.339 -74.432)" opacity=".4"><defs><path id="b" d="M290.907 557.09l-135.952 1.345-.658-66.414 135.952-1.343z"/></defs><clipPath><use height="100%" width="100%" xlink:href="#b" overflow="visible"/></clipPath><path clip-path="url(#e)" d="M155.07 530.207c-4.393 14.72 31.62 27.947 69.316 27.572 37.698-.378 64.668-14.525 66.123-29.82 1.312-13.816-12.24-37.61-69.45-36.563-37.696.696-58.5 13.7-65.99 38.807" fill="#685879"/></g><path d="M625.233 425.055c5.294.34 9.44 1.69 9.66 3.197.216 1.442-4.74 2.408-9.59 2.14-5.294-.3-9.48-1.478-9.663-3.198-.155-1.447 4.277-2.48 9.593-2.14m-332.368 3.33c5.284-.49 9.608.198 10.075 1.65.454 1.388-4.262 3.113-9.107 3.607-5.277.528-9.6.01-10.068-1.65-.406-1.408 3.806-3.11 9.1-3.604m117.983 1.464c12.12 4.96 18.406 17.485 18.523 23.505.26 13.68-5.77 39.74-20.51 52.85-16.893 15.034-42.816 16.225-42.816 16.225l-12.798.127s-8.752-.825-17.418-4.216c-6.712-2.63-12.778-6.872-18.42-12.98-13.232-14.324-16.464-39.594-15.143-51.624 1.19-10.787 8.344-21.05 20.78-25.65 17.266-6.394 68.9-5.97 87.805 1.764m96.92-.958c-12.023 5.2-18.056 17.844-18.05 23.87.005 13.68 6.55 39.614 21.55 52.435 17.185 14.69 43.13 15.37 43.13 15.37l12.805-.13s8.734-.996 17.33-4.56c6.65-2.764 12.64-7.126 18.155-13.344 12.947-14.587 15.672-39.91 14.11-51.91-1.392-10.765-8.76-20.882-21.282-25.235-17.39-6.046-69.002-4.604-87.75 3.506m-230.312 12.813l-2.03-20.163s45.98-10.686 100.52-7.14c44.7 2.906 64.006 16.432 82.455 15.854 18.117-.57 48.01-15.585 82.126-17.486 56.2-3.14 102.475 5.12 102.475 5.12l-2.53 21.09s-7.99.58-10.86 12.388c-2.153 8.895-2.94 21.398-6.065 33.41-2.167 8.318-5.647 16.397-10.752 22.92-10.485 13.41-27.554 18.7-42.776 19.726-13.84.94-52.405-1.817-69.697-19.493-6.72-6.866-12.87-15.166-16.69-23.523-5.83-12.758-8.683-26.923-14.966-33.2-2.586-2.583-6.048-2.517-10.08-2.535-2.94 0-5.51-.388-7.308.952-4.926 3.678-7.865 16.4-12.525 28.207-4.082 10.35-9.854 21.15-17.08 29.12-19.043 21.023-53.82 23.312-69.28 22.633-15.82-.706-31.36-4.26-46.84-21.477-13.263-14.734-12.264-40.035-16.09-54.248-2.75-10.214-12.004-12.16-12.004-12.16" clip-rule="evenodd" fill="#c8422f" fill-rule="evenodd"/></svg>