<svg xmlns="http://www.w3.org/2000/svg" xmlns:xlink="http://www.w3.org/1999/xlink" width="800" height="800" viewBox="0 0 800 800"><title>Ser un sabio</title><defs><filter id="c" x="-1.037" width="3.074" y="-1.117" height="3.233" color-interpolation-filters="sRGB"><feGaussianBlur stdDeviation="307.525"/></filter><clipPath><path d="M483.41 554.55l-135.95 1.346-.657-66.415 135.95-1.342z"/></clipPath><clipPath><path d="M290.907 557.09l-135.952 1.345-.658-66.413 135.953-1.346z"/></clipPath><radialGradient cx="286.342" cy="1010.726" r="8.723" gradientTransform="matrix(-2.333 -.031 .008 -.417 957.597 665.313)" gradientUnits="userSpaceOnUse"><stop offset="0" stop-color="#D7D6D5"/><stop offset=".095" stop-color="#CCCBCA"/><stop offset=".231" stop-color="#B5B3B3"/><stop offset=".393" stop-color="#939191"/><stop offset=".575" stop-color="#696767"/><stop offset=".773" stop-color="#3E3C3C"/><stop offset=".982" stop-color="#060606"/><stop offset=".994" stop-color="#010101"/></radialGradient><radialGradient cx="288.603" cy="929.008" r="13.677" gradientTransform="matrix(-2.059 -.023 .009 -.383 883.659 596.01)" gradientUnits="userSpaceOnUse"><stop offset="0" stop-color="#fff"/><stop offset=".859" stop-color="#fff"/><stop offset="1" stop-color="#fff"/></radialGradient><clipPath id="d"><use height="100%" width="100%" xlink:href="#a" overflow="visible"/></clipPath><clipPath id="e"><use height="100%" width="100%" xlink:href="#b" overflow="visible"/></clipPath><clipPath><use height="100%" width="100%" xlink:href="#b" overflow="visible"/></clipPath><clipPath><use height="100%" width="100%" xlink:href="#b" overflow="visible"/></clipPath><clipPath><use height="100%" width="100%" xlink:href="#b" overflow="visible"/></clipPath><clipPath><use height="100%" width="100%" xlink:href="#b" overflow="visible"/></clipPath><clipPath><use height="100%" width="100%" xlink:href="#b" overflow="visible"/></clipPath><clipPath><use height="100%" width="100%" xlink:href="#b" overflow="visible"/></clipPath><clipPath><use height="100%" width="100%" xlink:href="#b" overflow="visible"/></clipPath><clipPath><use height="100%" width="100%" xlink:href="#b" overflow="visible"/></clipPath><clipPath><use height="100%" width="100%" xlink:href="#b" overflow="visible"/></clipPath><clipPath><use height="100%" width="100%" xlink:href="#b" overflow="visible"/></clipPath><clipPath><use height="100%" width="100%" xlink:href="#b" overflow="visible"/></clipPath><clipPath><use height="100%" width="100%" xlink:href="#b" overflow="visible"/></clipPath><clipPath><use height="100%" width="100%" xlink:href="#b" overflow="visible"/></clipPath><clipPath><use height="100%" width="100%" xlink:href="#b" overflow="visible"/></clipPath><clipPath><use height="100%" width="100%" xlink:href="#b" overflow="visible"/></clipPath><clipPath><use height="100%" width="100%" xlink:href="#b" overflow="visible"/></clipPath></defs><rect width="711.864" height="661.017" x="57.627" y="54.237" rx="1.542" ry="1.143" fill="#efe2c2" fill-opacity="0" filter="url(#c)"/><path fill="#523336" d="M197.237 423.805h395v12h-395z"/><g transform="translate(94.237 -60.195)"><defs><path id="a" d="M143.348 496s2.305 8.896 0 23.717c-2.305 14.82-5.856 44.96 1.025 67.027 0 0 25.49 1.236 38.994-4.034 13.504-5.27 27.667-4.65 41.83.948 14.163 5.6 42.027 6.565 51.233 1.626 11.346-6.088 29.956-6.268 45.107.65 15.15 6.916 47.003 4.918 57.64-1.324 15.15-8.89 32.442-4.942 39.03-1.65 11.105 5.554 21.742 7 41.005 5.598 0 0-2.965-15.154-3.294-29.317-.33-14.16 4.94-39.24.988-63.24H143.348z"/></defs><use height="100%" width="100%" xlink:href="#a" overflow="visible" fill="#d88767"/><clipPath><use height="100%" width="100%" xlink:href="#a" overflow="visible"/></clipPath><path clip-path="url(#d)" opacity=".3" fill="#d88767" d="M140 490h347v14H140z"/></g><path d="M553.237 435.622c0 1.56-2.496 3.183-5.224 3.183H241.208c-2.73 0-4.97-1.624-4.97-3.183v-12.14c0-1.56 2.24-3.677 4.97-3.677h306.805c2.728 0 5.224 2.118 5.224 3.677v12.14z" fill="#d35527"/><g transform="translate(94.237 -60.195)"><defs><path id="b" d="M364.25 300.93c-23.78-17.457-97.887-17.457-121.67 0-25.19 18.49-35.006 56.7-5.033 87.66 0 0-24.334 44.486 8.932 74.788C264 479.34 279 481.808 303 481.84v.002c24-.034 39.658-2.48 57.183-18.444 33.266-30.302 8.997-74.808 8.997-74.808 29.973-30.96 20.26-69.17-4.93-87.66z"/></defs><use height="100%" width="100%" xlink:href="#b" overflow="visible" fill="#bd752a"/><clipPath><use height="100%" width="100%" xlink:href="#b" overflow="visible"/></clipPath><path d="M353.255 464.476c.494 1.477.98 2.956 1.47 4.434l.01.03-1.48-4.464zm2.445 7.37c-.322-.98-.65-1.957-.975-2.936-1.592-4.787-3.222-9.522-5.246-14.157-1.76-4.027-3.61-8.014-5.67-11.897-2.965-5.594-6.43-11.036-10.35-16-3.384-4.29-7.71-8.48-12.57-10.994-5.8-3-8.3-3.894-14.78-5.043-3.457-.617-7.214-.297-10.617.455-7.83 1.73-15.233 6-20.76 11.8-4.86 5.103-8.885 10.51-12.194 16.704-3.425 6.415-5.79 12.87-7.93 19.767-1.115 3.595-1.537 7.62-2.23 11.353-.654 3.526-.186 6.79.58 10.21 2.095 9.39 11.405 13.575 20.04 10.08 1.5-.603 2.688-1.21 3.91-1.94.12.14.25.27.37.4.025.05.043.1.066.146 4.083 8.37 13.062 12.48 22.08 11.113 4.238-.644 8.214-2.68 11.566-5.56 6.07 5.985 15.397 8.784 23.646 7.24 6.93-1.3 13.172-5.417 17.08-11.287 3.372-5.067 5.974-13.373 3.98-19.46zm-.964-2.906l.746 2.25-.746-2.25z" clip-path="url(#e)" fill="#fff"/><path clip-path="url(#e)" d="M287.978 428.905c-1.036.215-1.967.696-2.986.95-1.25.312-2.612.037-3.795-.38-1.178-.416-1.8 1.137-.917 1.852 2.483 2.013 6.577 2.93 9.036.32 1.012-1.073.31-3.083-1.338-2.742z" fill="#bd752a"/><path clip-path="url(#e)" d="M301.22 420.677c-1.664-.12-3.122.92-4.754 1.2-1.842.32-3.833.187-5.664-.148-.847-.16-1.18 1.085-.523 1.514 1.974 1.29 3.99 2.016 6.37 2.024 2.175.01 4.866-.608 5.775-2.756.353-.833-.36-1.777-1.21-1.838zm12.438 8.17c-3.65.49-6.77 1.257-10.488.555-1.09-.206-1.498 1.39-.67 1.942 3.576 2.38 9.18 4.018 12.545.347 1.083-1.18.31-3.065-1.387-2.84z" fill="#b53d26"/><path clip-path="url(#e)" d="M326.188 438.094c-1.078.794-1.916 1.653-3.245 2.03-1.316.37-2.62.497-3.978.34-.826-.096-1.336 1.183-.547 1.59 3.183 1.635 8.292 1.928 10.278-1.768.912-1.697-.943-3.344-2.508-2.192zm-24.874 2.156c-3.723.745-7.02 1.498-10.723.077-1.15-.44-1.904 1.21-.93 1.887 3.524 2.45 8.82 3.437 12.655 1.05 1.458-.91.887-3.392-.998-3.014z" fill="#bd752a"/><path clip-path="url(#e)" d="M277.127 444.81c-1.366.097-2.53.918-3.892 1.143-1.66.274-3.19-.265-4.622-1.075-1.018-.577-2.303.684-1.41 1.614 1.583 1.653 3.388 2.583 5.66 2.894 1.98.27 4.733-.507 5.773-2.29.69-1.184-.224-2.378-1.51-2.286z" fill="#b53d26"/><path clip-path="url(#e)" d="M269.108 462.138c-1.764.004-3.627-.186-5.24-.934-1.03-.477-1.558 1.028-.816 1.647 1.69 1.41 3.66 2.067 5.84 2.14 1.852.062 2.045-2.853.216-2.85zm27.252 1.256c-1.74.442-3.35 1.17-5.132 1.488-1.892.336-3.94.28-5.847.13-1.19-.092-1.47 1.564-.41 1.988 3.96 1.583 9.31 2.402 12.81-.695 1.197-1.058.238-3.332-1.42-2.91z" fill="#bd752a"/><path clip-path="url(#e)" d="M291.69 453.577c-1.12.398-2.06 1.083-3.285 1.136-1.333.057-2.58-.455-3.713-1.1-.632-.358-1.45.437-.882 1.01 2.452 2.466 6.386 3.733 9.216.96 1.026-1.007-.068-2.457-1.337-2.006zm16.218 19.095c-1.232.565-2.404 1.33-3.72 1.682-1.585.425-3.372.45-5.003.45-.57 0-.967.795-.39 1.13 3.314 1.92 8.666 2.752 10.903-1.214.675-1.2-.462-2.658-1.79-2.048zm6.38-20.342c-.852.42-1.63.91-2.56 1.15-1.18.3-2.553-.15-3.59-.698-1.016-.536-2.324.672-1.41 1.614 2.448 2.53 7.313 3.742 9.473.12.75-1.252-.52-2.874-1.91-2.187zm28.732 13.494c-1.223.69-2.313 1.575-3.624 2.09-1.5.592-3.052.633-4.64.467-.735-.073-.862.936-.247 1.2 3.42 1.5 7.935 1.71 10.2-1.82.68-1.06-.498-2.61-1.69-1.933z" fill="#b53d26"/><path clip-path="url(#e)" d="M333.17 455.58c-1.51.288-2.738 1.255-4.24 1.596-1.71.388-3.48.127-5.214.22-.773.04-.94 1.025-.427 1.476 2.87 2.53 9.564 2.693 11.334-1.298.41-.923-.38-2.198-1.458-1.993z" fill="#bd752a"/><path clip-path="url(#e)" d="M339.882 443.88c-1.045.09-2.026.448-3.058.628-1.068.186-2.22.122-3.304.188-1.228.075-1.02 1.72-.156 2.122 2.3 1.07 5.773 1.515 7.725-.463 1.03-1.048.203-2.598-1.21-2.476zm-10.502-19.27c-1.838-.058-3.592.45-5.455.288-1.3-.113-1.613 1.72-.448 2.175 2.168.844 4.715 1.442 6.73-.002 1-.712.327-2.42-.826-2.46z" fill="#b53d26"/><path clip-path="url(#e)" d="M317.48 415.743c-1.13.412-1.983 1.4-3.107 1.894-1.252.55-2.487.576-3.828.39-.552-.076-.89.797-.365 1.06 2.838 1.418 7.962 1.76 8.714-2.385.147-.814-.794-1.184-1.413-.96z" fill="#bd752a"/></g><path d="M397.652 314.824s-5.324 10.648-13.044 11.98c0 0 13.044 5.59 13.044 16.77 0-11.18 13.044-16.77 13.044-16.77-7.72-1.332-13.044-11.98-13.044-11.98z" fill="#ffd05a"/><path fill="#523336" d="M397.452 173.467l91.11 40.73-93.97 23.16-93.44-22.627zm61.294 41.338H336.292s2.036 15.254.88 25.447c0 0 35.065-14.438 60.065 11.21v.403c0-.07-.066-.133 0-.202.066.068 0 .133 0 .202v-.403c26-25.648 60.346-11.21 60.346-11.21-1.155-10.193 1.163-25.447 1.163-25.447z"/><path d="M461.542 218.305c0 1.81-1.073 3.5-2.395 3.5H335.76c-1.324 0-2.397-1.69-2.397-3.5s1.072-3.5 2.396-3.5h123.384c1.322 0 2.395 1.69 2.395 3.5z" fill="#ffd87c"/><path d="M378.737 409.296c-2.046 0-3.5 1.66-3.5 3.705v-.984c0-2.047-1.954-3.705-4-3.705-2.046 0-4 1.66-4 3.705V413c0-2.046-1.454-3.704-3.5-3.704-2.046 0-3.5 1.66-3.5 3.705v12.355c0 2.047 1.454 3.705 3.5 3.705 2.046 0 3.5-1.66 3.5-3.706v3.952c0 2.047 1.954 3.705 4 3.705 2.046 0 4-1.66 4-3.704v-3.952c0 2.047 1.454 3.705 3.5 3.705 2.046 0 3.5-1.66 3.5-3.706v-12.35c0-2.047-1.454-3.706-3.5-3.706zm46.5 0c-2.047 0-4 1.66-4 3.705v-.984c0-2.047-1.453-3.705-3.5-3.705-2.047 0-3.5 1.66-3.5 3.705V413c0-2.046-1.953-3.704-4-3.704-2.047 0-4 1.66-4 3.705v12.355c0 2.047 1.953 3.705 4 3.705 2.047 0 4-1.66 4-3.706v3.952c0 2.047 1.453 3.705 3.5 3.705 2.047 0 3.5-1.66 3.5-3.704v-3.952c0 2.047 1.953 3.705 4 3.705 2.047 0 4-1.66 4-3.706v-12.35c0-2.047-1.953-3.706-4-3.706zm41.15-59.49l-17.15 16.69v43.2s7.888 3.795 16.266.653l14.563-19.03.262-41.518h-13.94z" fill="#ffd05a"/><path d="M452.237 407.926s8.155 1.375 11.296 0l-.635-40.448s1.745-1.473 4.297-4.81l11.955-12.863h-11.192l-15.72 17.083v41.038z" fill="#fff"/><path d="M331.784 328.437s20.08 43.476 10.86 65.544c-9.223 22.07-15.81 8.238-16.14 1.98 0 0-5.93 2.305-5.6-7.246 0 0-7.245-10.54-3.622-23.384 3.623-12.846 14.502-36.89 14.502-36.89zm131.776-.074s-4.574 50.038 12.3 68.612c16.87 18.575 18.522 2.584 16.648-3.718 0 0 6.67.195 2.988-9.132 0 0 3.46-12.965-4.637-24.39-8.1-11.426-27.3-31.372-27.3-31.372z" fill="#b53d26"/><g transform="translate(94.237 -60.195)"><circle cx="339.753" cy="346.002" r="25.333" fill="#fff"/><circle cx="268.276" cy="346.002" r="25.333" fill="#fff"/><path d="M392.794 330.29c-.75-2.338-3.256-3.623-5.594-2.873l-12.044 3.87c-5.77-13.867-19.446-23.62-35.404-23.62-16.28 0-30.18 10.154-35.74 24.47-5.557-14.316-19.457-24.47-35.737-24.47-16.055 0-29.797 9.874-35.505 23.878l-12.845-4.13c-2.34-.75-4.842.536-5.594 2.874-.75 2.334.54 4.84 2.877 5.59l13.186 4.24c-.294 1.916-.45 3.88-.45 5.88 0 21.17 17.164 38.333 38.336 38.333 16.28 0 30.18-10.154 35.737-24.47 5.558 14.316 19.458 24.47 35.74 24.47 21.17 0 38.333-17.162 38.333-38.334 0-2.094-.176-4.15-.5-6.153l12.333-3.964c2.34-.75 3.626-3.255 2.874-5.593zm-124.518 41.045c-13.99 0-25.333-11.342-25.333-25.333 0-13.99 11.34-25.333 25.333-25.333 13.99 0 25.333 11.34 25.333 25.33-.005 13.99-11.346 25.332-25.337 25.332zm71.477 0c-13.99 0-25.333-11.342-25.333-25.333 0-13.99 11.34-25.333 25.333-25.333 13.99 0 25.333 11.34 25.333 25.33 0 13.99-11.343 25.332-25.333 25.332z" fill="#523336"/></g><path d="M364.224 289.732c1.707 0 3.23.712 4.45 1.818v-1.364c0-2.977-2.415-5.39-5.392-5.39h-.088c-2.977 0-5.39 2.413-5.39 5.39v1.56c1.727-1.344 4.017-2.014 6.42-2.014zm70.65 0c1.706 0 3.23.712 4.447 1.818v-1.364c0-2.977-2.41-5.39-5.39-5.39h-.085c-2.977 0-5.39 2.413-5.39 5.39v1.56c1.728-1.344 4.018-2.014 6.42-2.014z" fill="#523336"/><path d="M323.647 214.463c-2.396-1.065-3.507-.935-5.19-.267 0 0 5.057 19.433 0 41.262-5.06 21.83-10.383 53.24 0 79.596 0 0-4.454 1.864-5.954 8.253-1.5 6.39 1.37 14.12-2.357 17.315 0 0 2.187.72 3.518-.345 1.33-1.064 1.33-5.457 1.33-5.457s1.398 3.86-.598 5.657c0 0 3.993.8 4.992-.4.998-1.197.2-7.786.2-7.786s1.858 5.125.66 8.18c0 0 3.4.61 4.863-1.587 1.468-2.195-2.06-7.985 0-11.58 0 0-.59 3.347.41 5.943s1 4.35 0 6.147c0 0 3.7-.51 3.854-5.502.1-3.2-2.175-3.68-.797-10.314.31-1.486-.4-7.055-5.19-8.652 0 0-6.39-13.574-6.79-25.753-.398-12.18 1.506-30.175 3.595-40.33 2.395-11.645 8.917-33.21 3.46-54.372z" fill="#ffd05a"/></svg>