<svg xmlns="http://www.w3.org/2000/svg" preserveAspectRatio="xMinYMin meet" viewBox="0 0 124.61999 124.90699"><path d="M124.62 111.31c0 7.51-6.016 13.597-13.438 13.597H13.438C6.018 124.907 0 118.82 0 111.31V13.597C0 6.086 6.016 0 13.438 0h97.744c7.42 0 13.438 6.087 13.438 13.596v97.715z" clip-rule="evenodd" fill="#ffd42a" fill-rule="evenodd"/><path d="M113.91 99.83c0 5.746-4.923 10.403-10.995 10.403h-79.97c-6.07 0-10.993-4.657-10.993-10.402V25.077c0-5.745 4.922-10.402 10.994-10.402h79.97c6.07 0 10.993 4.657 10.993 10.402V99.83z" clip-rule="evenodd" opacity=".7" fill="#ffe680" fill-rule="evenodd"/></svg>