<?xml version="1.0" encoding="UTF-8" standalone="no"?>
<!-- Generator: Adobe Illustrator 17.0.0, SVG Export Plug-In . SVG Version: 6.00 Build 0)  -->

<svg
   xmlns:dc="http://purl.org/dc/elements/1.1/"
   xmlns:cc="http://creativecommons.org/ns#"
   xmlns:rdf="http://www.w3.org/1999/02/22-rdf-syntax-ns#"
   xmlns:svg="http://www.w3.org/2000/svg"
   xmlns="http://www.w3.org/2000/svg"
   xmlns:sodipodi="http://sodipodi.sourceforge.net/DTD/sodipodi-0.dtd"
   xmlns:inkscape="http://www.inkscape.org/namespaces/inkscape"
   version="1.1"
   id="Capa_1"
   x="0px"
   y="0px"
   preserveAspectRatio="xMinYMin meet"
   viewBox="0 0 124.61999 124.90699"
   xml:space="preserve"
   inkscape:version="0.91pre3 r13670"
   sodipodi:docname="carta.svg"><metadata
     id="metadata49"><rdf:RDF><cc:Work
         rdf:about=""><dc:format>image/svg+xml</dc:format><dc:type
           rdf:resource="http://purl.org/dc/dcmitype/StillImage" /><dc:title></dc:title></cc:Work></rdf:RDF></metadata><defs
     id="defs47" /><sodipodi:namedview
     pagecolor="#ffffff"
     bordercolor="#666666"
     borderopacity="1"
     objecttolerance="10"
     gridtolerance="10"
     guidetolerance="10"
     inkscape:pageopacity="0"
     inkscape:pageshadow="2"
     inkscape:window-width="1366"
     inkscape:window-height="705"
     id="namedview45"
     showgrid="false"
     units="mm"
     width="209mm"
     inkscape:zoom="1.5857387"
     inkscape:cx="163.33154"
     inkscape:cy="58.265658"
     inkscape:window-x="-8"
     inkscape:window-y="-8"
     inkscape:window-maximized="1"
     inkscape:current-layer="Capa_1"
     fit-margin-top="0"
     fit-margin-left="0"
     fit-margin-right="0"
     fit-margin-bottom="0" /><path
     d="m 124.62,111.311 c 0,7.509 -6.016,13.596 -13.438,13.596 l -97.744,0 C 6.017,124.907 0,118.82 0,111.311 L 0,13.596 C 0,6.087 6.016,0 13.438,0 l 97.744,0 c 7.421,0 13.438,6.087 13.438,13.596 l 0,97.715 z"
     id="path3"
     inkscape:connector-curvature="0"
     style="clip-rule:evenodd;fill:#ffd42a;fill-rule:evenodd" /><path
     d="m 113.909,99.831 c 0,5.745 -4.922,10.402 -10.994,10.402 l -79.969,0 c -6.072,0 -10.994,-4.657 -10.994,-10.402 l 0,-74.755 c 0,-5.745 4.922,-10.402 10.994,-10.402 l 79.969,0 c 6.072,0 10.994,4.657 10.994,10.402 l 0,74.755 z"
     id="path5"
     inkscape:connector-curvature="0"
     style="clip-rule:evenodd;opacity:0.7;fill:#ffe680;fill-rule:evenodd" /></svg>