<?xml version="1.0" encoding="UTF-8" standalone="no"?>
<svg
   xmlns:dc="http://purl.org/dc/elements/1.1/"
   xmlns:cc="http://creativecommons.org/ns#"
   xmlns:rdf="http://www.w3.org/1999/02/22-rdf-syntax-ns#"
   xmlns:svg="http://www.w3.org/2000/svg"
   xmlns="http://www.w3.org/2000/svg"
   xmlns:sodipodi="http://sodipodi.sourceforge.net/DTD/sodipodi-0.dtd"
   xmlns:inkscape="http://www.inkscape.org/namespaces/inkscape"
   sodipodi:docname="cross2.svg"
   inkscape:version="0.91pre3 r13670"
   xml:space="preserve"
   width="32px"
   viewBox="-2 -2 30 30"
   version="1.1"
   id="Layer_1"
   height="32px"
   enable-background="new 0 0 32 32"><metadata
     id="metadata9"><rdf:RDF><cc:Work
         rdf:about=""><dc:format>image/svg+xml</dc:format><dc:type
           rdf:resource="http://purl.org/dc/dcmitype/StillImage" /><dc:title></dc:title></cc:Work></rdf:RDF></metadata><defs
     id="defs7" /><sodipodi:namedview
     inkscape:current-layer="Layer_1"
     inkscape:window-maximized="1"
     inkscape:window-y="-8"
     inkscape:window-x="-8"
     inkscape:cy="16"
     inkscape:cx="-17.016949"
     inkscape:zoom="7.375"
     showgrid="false"
     id="namedview5"
     inkscape:window-height="705"
     inkscape:window-width="1366"
     inkscape:pageshadow="2"
     inkscape:pageopacity="0"
     guidetolerance="10"
     gridtolerance="10"
     objecttolerance="10"
     borderopacity="1"
     bordercolor="#666666"
     pagecolor="#ffffff" /><path
     d="m 23.389068,4.6505932 c 0.313,0.313 0.313,0.826 0,1.139 l -6.276,6.2699998 c -0.313,0.312 -0.313,0.826 0,1.14 l 6.273,6.272 c 0.313,0.313 0.313,0.826 0,1.14 l -2.285,2.277 c -0.314,0.312 -0.828,0.312 -1.142,0 l -6.271,-6.271 c -0.313,-0.313 -0.828,-0.313 -1.141,0 l -6.2760003,6.267 c -0.313,0.313 -0.828,0.313 -1.141,0 l -2.282,-2.28 c -0.313,-0.313 -0.313,-0.826 0,-1.14 l 6.278,-6.269 c 0.313,-0.312 0.313,-0.826 0,-1.14 l -6.273,-6.2729998 c -0.314,-0.313 -0.314,-0.827 0,-1.14 l 2.284,-2.278 c 0.315,-0.312 0.828,-0.312 1.142,0.001 l 6.2700003,6.27 c 0.314,0.314 0.828,0.314 1.141,10e-4 l 6.276,-6.267 c 0.312,-0.312 0.826,-0.312 1.141,0 l 2.282,2.281 z"
     id="path3"
     style="fill:#ffffff"
     inkscape:connector-curvature="0" /></svg>