<svg xmlns="http://www.w3.org/2000/svg" width="32" viewBox="-2 -2 30 30" height="32"><path d="M23.39 4.65c.312.314.312.827 0 1.14l-6.277 6.27c-.313.312-.313.826 0 1.14l6.273 6.272c.313.313.313.826 0 1.14L21.1 22.89c-.313.31-.827.31-1.14 0l-6.272-6.272c-.313-.313-.828-.313-1.14 0L6.27 22.885c-.312.313-.827.313-1.14 0l-2.282-2.28c-.313-.313-.313-.826 0-1.14l6.278-6.27c.313-.31.313-.825 0-1.14L2.853 5.784c-.314-.313-.314-.827 0-1.14l2.284-2.278c.315-.312.828-.312 1.142 0l6.27 6.27c.313.315.827.315 1.14.002l6.276-6.267c.312-.312.826-.312 1.14 0l2.283 2.28z" fill="#fff"/></svg>