<svg height="613.171" width="612.164" xmlns="http://www.w3.org/2000/svg"><defs><marker markerWidth="4" orient="auto" refY="5" viewBox="0 0 10 10"><path d="M0 0l10 5-10 5z"/></marker><marker markerWidth="4" orient="auto" refX="10" refY="5" viewBox="0 0 10 10"><path d="M10 0L0 5l10 5z"/></marker></defs><g><path d="M82.432 17.924c-41.335 0-64.57 21.37-64.57 65.036v450.122c0 40.843 20.89 62.228 62.19 62.228h452.025c41.303 0 62.226-20.32 62.226-62.228V82.96c0-42.6-20.923-65.036-63.523-65.036 0 0-448.49-.142-448.348 0z" stroke="#fff" stroke-width="3.408"/><path d="M482.155 342.516l-180.2 180.2-180.196-180.2v-118.85l137.064 137.06V91.393h87.223V359.77l136.32-136.32-.212 119.066z" fill="#fff"/></g></svg>