<svg xmlns="http://www.w3.org/2000/svg" viewBox="0 0 194 186"><path fill="#195463" d="M181.6 65.8c-3-9.4-.2-21.8-5.9-29.6-5.7-7.9-18.5-9-26.3-14.8C141.6 15.8 136.6 4 127.2 1c-9-2.9-20 3.6-30 3.6S76.3-1.9 67.2 1C57.8 4 52.8 15.8 45 21.5c-7.9 5.7-20.6 6.9-26.3 14.8-5.7 7.8-2.9 20.2-5.9 29.6C9.9 74.9.2 83.3.2 93.3s9.7 18.4 12.6 27.4c3 9.4.2 21.8 5.9 29.6 5.7 7.9 18.5 9 26.3 14.7 7.8 5.7 12.8 17.5 22.1 20.5 9 2.9 20-3.6 30-3.6s21 6.5 30 3.6c9.4-3 14.4-14.8 22.2-20.5 7.9-5.7 20.6-6.9 26.3-14.8 5.7-7.8 2.9-20.2 5.9-29.6 2.9-9 12.6-17.4 12.6-27.4.1-10-9.6-18.3-12.5-27.4z"/><path fill="#ECECEC" d="M125.7 109.7l-1-8.8-6.3 5.3 1.7.8s.2 8-9.4 8-10.1-8.5-10.1-8.5V81h10.8s2.3-.8 2.3-3.1-2.3-3-2.3-3l-8.3-.2c2.5-1.8 4.1-4.8 4.1-8.1 0-5.6-4.5-10.1-10.1-10.1S87 61 87 66.6c0 3.3 1.6 6.3 4.1 8.1l-8.1.2s-2.3.7-2.3 3S83 81 83 81h10.8v25.5s-.5 8.5-10.1 8.5-9.4-8-9.4-8l1.7-.8-6.3-5.3-1 8.8 2.4-1.5s2 8.9 11.1 12.6c9.1 3.7 13.2 5.9 14.9 9.5v.1-.1c1.8-3.6 5.9-5.8 14.9-9.5s11.1-12.4 11.1-12.6l2.6 1.5zM93.1 66.5c0-2.3 1.9-4.2 4.2-4.2 2.3 0 4.2 1.9 4.2 4.2 0 2.3-1.9 4.2-4.2 4.2-2.4 0-4.2-1.9-4.2-4.2z"/><path fill="#ECECEC" d="M49.9 122.8l-.2.8-2.6 1.3-.5-1 2.1-1.1-.9-1.8-6.3 3.1 1.1 2.3-.2.8-7.3 3.7-.8-.3-1.4-2.8.3-.8 2.6-1.3.5 1-2.1 1.1.9 1.8 6.3-3.1-1.1-2.3.3-.8 7.3-3.7.8.3 1.2 2.8zm-12.2 12.8l13-8.9-.3-.5.9-.7 1.3 1.9-.9.7-.3-.5-12.5 8.6 1.1 1.6 12.5-8.6-.3-.5 1-.7 1.3 1.9-.9.7-.3-.5-13 8.9-.8-.1-1.8-2.6v-.7zm15.1 1.8l-7.5 7.1.5.5-.8.8-1.7-1.8.8-.8.5.5 11-10.5-.5-.5.8-.8.9.9.1.7-4.5 6.5 6.7-4.2.7.1.9.9-.8.8-.5-.5-11 10.5.5.5-.8.8-1.7-1.8.8-.8.5.5 7.5-7.1-4.4 2.7-.8-.8 2.8-4.2zm7.4 6.9l-6.2 8.3.5.4-.7.9-2-1.5.7-.9.5.4 9.1-12.2-.5-.4.7-.9 1 .8.2.7-3.3 7.2 5.9-5.2h.7l1 .8-.7.9-.5-.4-9.1 12.2.5.4-.7.9-2-1.5.7-.9.5.4 6.2-8.3-3.9 3.4-.8-.8 2.2-4.7zm5.7 17.2l-4.4-2.3.5-1 .6.3 7.2-13.4-.6-.3.5-1 4.4 2.3-1.7 3.1-1-.5 1.1-2.1-1.7-.9-3.3 6.2 1 .5.7-1.3 1 .5-1.9 3.5-1-.5.7-1.3-1-.5-3.3 6.2 1.7.9 1.1-2.1 1 .5-1.6 3.2zm9.7 2.7l-.4 1.1-1.1-.4-.3-.7 2.6-7.1-1.8-.7-2.4 6.6.6.2-.4 1.1-2.2-.8.4-1.1.6.2 5.2-14.3-.7-.3.4-1.1 4.2 1.5.4.7-2.6 7.2-.7.3.4.8-2.4 6.6.2.2zm3.6-14.9l-1.8-.7-2.4 6.6 1.8.7 2.4-6.6zm11.2 19.1l-3.1-.4-.5-.7 1.9-16.3.6-.5 3.1.4.5.6-1.9 16.3-.6.6zm1.3-16.4l-1.9-.2-1.8 15.1 1.9.2 1.8-15.1zm6.3 15.5h.7v1.2l-2.5.1v-1.2h.7l-.5-15.2h-.7v-1.2h1.2l.6.4 3.7 12.1-.4-11.5h-.7V151l2.5-.1v1.2h-.7l.5 15.2h.7v1.2h-1.2l-.6-.4-3.7-12.1.4 11.5zm11.9-17.8l5.3-1.6 1 3.4-1.1.3-.7-2.3-1 .3 4.4 14.6.6-.2.3 1.1-2.2.7-.3-1.1.6-.2-4.4-14.6-1 .3.7 2.3-1.1.3-1.1-3.3zm12.4-3.4l6.5 13.8.5-.3.5 1-2.1 1-.5-1 .5-.3-3-6.4-1.7.9 3 6.4.5-.3.5 1-2.1 1-.5-1 .5-.3-6.5-13.8-.5.3-.5-1 2.1-1 .5 1-.5.3 3 6.4 1.8-.8-3-6.4-.5.3-.5-1 2.1-1 .5 1-.6.2zm15.7 9.6l-4.2 2.7-.6-1 .6-.4-8.3-12.8-.6.4-.6-1 4.2-2.7 1.9 3-1 .6-1.3-2-1.6 1.1 3.8 5.9.9-.6-.8-1.2 1-.6 2.2 3.4-1 .6-.8-1.2-.9.6 3.8 5.9 1.6-1.1-1.3-2 1-.6 2 3zm-1.1-22.2h.8l2.1 2.1-.8.8-1.7-1.6-1.4 1.4 5 4.9 1.8-1.8h.8l5.9 5.7v.8l-2.2 2.2h-.8l-2.1-2.1.8-.8 1.7 1.7 1.4-1.4-5-4.9-1.8 1.8h-.8l-5.9-5.7v-.8l2.2-2.3zm19 4.3l-3 4-.9-.7.4-.6-12.2-9.1-.4.6-.9-.7 3-4 2.8 2.1-.7.9-1.9-1.4-1.2 1.6 5.6 4.2.7-.9-1.1-.9.7-.9 3.2 2.4-.7.9-1.1-.9-.7.9 5.6 4.2 1.2-1.6-1.9-1.4.7-.9 2.8 2.2zm2.5-6.3l.1-.3 1 .5-1.2 2.2-1-.5.5-.9-12.6-8.7-.2.4-1-.5 1.2-2.2 1 .5-.2.4 14.3 5.6.5-.9 1 .5-1.2 2.2-1-.5.1-.3-4.6-1.8-.9 1.6 4.2 2.7zm-4.2-4.8l-6.2-2.4 5.4 3.8.8-1.4z"/><path fill="#ECECEC" d="M50.3 62.5l-2.5 4.3-1-.6.4-.6-13.1-7.8-.4.6-1-.6 2.5-4.3 3 1.8-.6 1-2-1.2-1 1.7 6 3.6.6-.9-1.2-.7.6-1 3.5 2.1-.6 1-1.2-.7-.6.8 6 3.6 1-1.7-2.1-1.2.6-1 3.1 1.8zm1.4-3.9l.4-.5.9.7-1.6 2-.8-.8.4-.5-11.8-9.6-.4.5-.9-.7.8-1 .7-.2 11.5 5.1-8.9-7.2-.4.5-.9-.7 1.6-2 .9.7-.4.5L54.6 55l.4-.5.9.7-.8 1-.7.2-11.5-5.1 8.8 7.3zm4.2-8.3l1.6 1.8 1.4-1.3-10.2-11.2-.5.4-.8-.8 1.9-1.7.8.8-.5.5 10.7 11.6v.8L58 53.3l-.8-.1-2-2.2.7-.7zm10.3-3.7l-2.5 1.8-.8-.2-9.4-13.4.1-.8 2.5-1.8.8.1 9.4 13.4-.1.9zm-9.9-13.1l-1.6 1.1L63.5 47l1.6-1.1-8.8-12.4zm8.2-6.1l2.2-1.1.5 1-.7.4 1.6 7.8 3.4 6.7.5-.3.5 1-2.1 1.1-.5-1 .5-.3L67 36l-5.1-6-.7.4-.5-1 2.2-1.1.5 1-.4.2 3.8 4.1-1.2-5.5-.5.2-.6-.9zm21.4 11l-4.3 1-.3-1.1.7-.2-3.6-14.8-.7.2-.3-1.1 4.3-1 .7.4 3.8 15.9-.3.7zm-4.4-15.8l-1.9.5 3.6 14.8 1.9-.5-3.6-14.8zm12.2 14.7l-5 .5-.1-1.1.7-.1-1.6-15.1-.7.1-.1-1.1 5-.5.4 3.5-1.1.1-.2-2.4-2 .2.7 7 1.1-.1-.2-1.4 1.1-.1.4 4H91l-.2-1.4-1.1.1.7 7 2-.2-.3-2.4 1.1-.1.5 3.5zm13-17l.5.6-.3 2.9-1.1-.1.2-2.4-2-.2-.7 7 2.5.3.5.6-.9 8.1-.7.5-3.1-.3-.5-.6.3-2.9 1.1.1-.3 2.4 2 .2.7-7-2.5-.3-.5-.6.9-8.1.6-.5 3.3.3zm1.8 17.5l3.7-15.3-.6-.1.3-1.1 2.3.5-.3 1.1-.6-.1-3.6 14.8 1.9.5 3.6-14.8-.6-.1.3-1.1 2.3.5-.3 1.1-.6-.1-3.7 15.3-.7.4-3-.7-.4-.8zm8.9 1.9l.6.3-.4 1.1-2.3-1 .4-1.1.6.3 5.8-14.1-.6-.3.4-1.1 1.2.5.4.6-1.6 12.5 4.3-10.6-.6-.3.4-1.1 2.3 1-.4 1.1-.6-.3-5.8 14.1.6.3-.4 1.1-1.2-.5-.4-.6 1.6-12.5-4.3 10.6zm18.5-9l.2.8-1.5 2.5-1-.6 1.2-2-1.7-1-3.6 6.1 2.2 1.3.2.8-4.2 7.1-.8.2-2.7-1.6-.2-.8 1.5-2.5 1 .6-1.2 2.1 1.7 1 3.6-6.1-2.2-1.3-.2-.8 4.2-7.1.8-.2 2.7 1.5zm7.3 6.6l-9.3 12 .5.4-.7.9-1.8-1.4.7-.9.5.4 4.3-5.6-1.5-1.2-4.3 5.6.5.4-.7.9-1.8-1.4.7-.9.5.4 9.3-12-.5-.4.7-.9 1.8 1.4-.7.9-.5-.4-4.3 5.6 1.5 1.2 4.3-5.6-.5-.4.7-.9 1.8 1.4-.7.9-.5-.4zm4.7 4.3l-10.6 11 .5.5-.8.8-1.8-1.8.8-.8.5.5 10.6-11-.5-.5.8-.8 1.8 1.8-.8.8-.5-.5zM140.6 56l.4.5-.9.7-1.6-2 .9-.7.4.5 11.8-9.6-.4-.5.9-.7.8 1v.7l-7.4 10.2 8.9-7.2-.4-.5.9-.7 1.6 2-.9.7-.4-.5-11.8 9.6.4.5-.9.7-.8-1V59l7.4-10.2-8.9 7.2zm6 10.8l-2.6-4.3 1-.6.4.6 13.1-7.8-.4-.6 1-.6 2.6 4.3-3 1.8-.6-1 2-1.2-1-1.7-6 3.6.6.9 1.2-.7.6 1-3.5 2.1-.6-1 1.2-.7-.6-.9-6 3.6 1 1.7 2.1-1.2.6 1-3.1 1.7z"/><path fill="#ECECEC" d="M97.2 140c-25.7 0-46.6-20.9-46.6-46.6 0-25.7 20.9-46.6 46.6-46.6 25.7 0 46.6 20.9 46.6 46.6 0 25.7-20.9 46.6-46.6 46.6zm0-91.2c-24.6 0-44.6 20-44.6 44.6s20 44.6 44.6 44.6 44.6-20 44.6-44.6-20-44.6-44.6-44.6z"/><path fill="#ECECEC" d="M97.2 145.8c-28.9 0-52.4-23.5-52.4-52.4S68.3 41 97.2 41s52.4 23.5 52.4 52.4-23.5 52.4-52.4 52.4zm0-103.7c-28.3 0-51.4 23-51.4 51.4s23 51.4 51.4 51.4c28.3 0 51.4-23 51.4-51.4s-23-51.4-51.4-51.4z"/><path fill="#ECECEC" d="M97.2 176.5c-45.8 0-83-37.2-83-83s37.2-83 83-83 83 37.2 83 83-37.2 83-83 83zm0-163.1c-44.1 0-80 35.9-80 80s35.9 80 80 80 80-35.9 80-80-35.8-80-80-80z"/><circle fill="#ECECEC" cx="31.1" cy="91.5" r="3"/><circle fill="#ECECEC" cx="163.4" cy="91.5" r="3"/></svg>