<?xml version="1.0" encoding="UTF-8" standalone="no"?>
<!-- Created with Inkscape (http://www.inkscape.org/) -->

<svg
   xmlns:dc="http://purl.org/dc/elements/1.1/"
   xmlns:cc="http://creativecommons.org/ns#"
   xmlns:rdf="http://www.w3.org/1999/02/22-rdf-syntax-ns#"
   xmlns:svg="http://www.w3.org/2000/svg"
   xmlns="http://www.w3.org/2000/svg"
   xmlns:sodipodi="http://sodipodi.sourceforge.net/DTD/sodipodi-0.dtd"
   xmlns:inkscape="http://www.inkscape.org/namespaces/inkscape"
   width="127mm"
   height="127mm"
   viewBox="0 0 450 450"
   id="svg2"
   version="1.1"
   inkscape:version="0.91pre3 r13670"
   sodipodi:docname="objectivos.svg">
  <title
     id="title8254">Objetivos</title>
  <defs
     id="defs4" />
  <sodipodi:namedview
     id="base"
     pagecolor="#ffffff"
     bordercolor="#666666"
     borderopacity="1.0"
     inkscape:pageopacity="0.0"
     inkscape:pageshadow="2"
     inkscape:zoom="0.98994949"
     inkscape:cx="148.41656"
     inkscape:cy="234.49419"
     inkscape:document-units="px"
     inkscape:current-layer="layer1"
     showgrid="false"
     fit-margin-top="0"
     fit-margin-left="0"
     fit-margin-right="0"
     fit-margin-bottom="0"
     inkscape:window-width="1366"
     inkscape:window-height="705"
     inkscape:window-x="-8"
     inkscape:window-y="-8"
     inkscape:window-maximized="1" />
  <metadata
     id="metadata7">
    <rdf:RDF>
      <cc:Work
         rdf:about="">
        <dc:format>image/svg+xml</dc:format>
        <dc:type
           rdf:resource="http://purl.org/dc/dcmitype/StillImage" />
        <dc:title>Objetivos</dc:title>
      </cc:Work>
    </rdf:RDF>
  </metadata>
  <g
     inkscape:label="Capa 1"
     inkscape:groupmode="layer"
     id="layer1"
     transform="translate(-4.5820127,-3.8413914)">
    <path
       style="fill:#000000;fill-opacity:0.33333333"
       d="M 229.58201,3.8413914 A 225,225 0 0 0 4.5820127,228.84139 a 225,225 0 0 0 224.9999973,225 225,225 0 0 0 225,-225 225,225 0 0 0 -225,-224.9999986 z m -0.27734,59.2363276 a 165,165 0 0 1 165,165.000001 165,165 0 0 1 -165,165 165,165 0 0 1 -165.000001,-165 A 165,165 0 0 1 229.30467,63.077719 Z"
       id="path7268"
       inkscape:connector-curvature="0" />
    <ellipse
       style="fill:#000000;fill-opacity:0"
       id="path8109"
       cx="207.58635"
       cy="212.92545"
       rx="139.90613"
       ry="139.40105" />
    <path
       style="fill:#000000;fill-opacity:0.33333333"
       d="m 225.00586,99.296875 a 125,125 0 0 0 -125,125.000005 125,125 0 0 0 125,125 125,125 0 0 0 125,-125 125,125 0 0 0 -125,-125.000005 z m -0.50391,52.521485 a 75,75 0 0 1 75,75 75,75 0 0 1 -75,75 75,75 0 0 1 -75,-75 75,75 0 0 1 75,-75 z"
       id="path8249"
       inkscape:connector-curvature="0" />
  </g>
</svg>
