<svg xmlns="http://www.w3.org/2000/svg" width="127mm" height="127mm" viewBox="0 0 450 450"><title>Objetivos</title><g transform="translate(-4.582 -3.841)"><path d="M229.582 3.84a225 225 0 0 0-225 225 225 225 0 0 0 225 225 225 225 0 0 0 225-225 225 225 0 0 0-225-225zm-.277 59.238a165 165 0 0 1 165 165 165 165 0 0 1-165 165 165 165 0 0 1-165-165 165 165 0 0 1 165-165z" fill-opacity=".333"/><ellipse cx="207.586" cy="212.925" rx="139.906" ry="139.401" fill-opacity="0"/><path d="M225.006 99.297a125 125 0 0 0-125 125 125 125 0 0 0 125 125 125 125 0 0 0 125-125 125 125 0 0 0-125-125zm-.504 52.52a75 75 0 0 1 75 75 75 75 0 0 1-75 75 75 75 0 0 1-75-75 75 75 0 0 1 75-75z" fill-opacity=".333"/></g></svg>