<?xml version="1.0" encoding="utf-8"?>
<!-- Generator: Adobe Illustrator 17.0.0, SVG Export Plug-In . SVG Version: 6.00 Build 0)  -->
<!DOCTYPE svg PUBLIC "-//W3C//DTD SVG 1.1//EN" "http://www.w3.org/Graphics/SVG/1.1/DTD/svg11.dtd">
<svg version="1.1" xmlns="http://www.w3.org/2000/svg" xmlns:xlink="http://www.w3.org/1999/xlink" x="0px" y="0px" width="800px"
	 height="800px" viewBox="0 0 800 800" enable-background="new 0 0 800 800" xml:space="preserve">
<g id="Capa_3" display="none">
	<path display="inline" fill-rule="evenodd" clip-rule="evenodd" fill="#F06162" d="M760.814,655.793
		c0,41.134-34.838,74.479-77.813,74.479H116.999c-42.975,0-77.813-33.346-77.813-74.479V120.526
		c0-41.134,34.838-74.479,77.813-74.479h566.001c42.975,0,77.813,33.346,77.813,74.479V655.793z"/>
	<path display="inline" fill-rule="evenodd" clip-rule="evenodd" fill="#F0E3C3" d="M729.808,633.022
		c0,37.634-31.844,68.143-71.126,68.143H141.318c-39.282,0-71.126-30.508-71.126-68.143V143.296
		c0-37.634,31.844-68.143,71.126-68.143h517.364c39.282,0,71.126,30.508,71.126,68.143V633.022z"/>
</g>
<g id="Capa_4" display="none">
	<rect x="73.766" y="269.778" display="inline" fill="#DFE5E6" width="652.467" height="219.525"/>
</g>
<g id="background" display="none">
	<g display="inline">
		<g>
			<path fill="#AE4C43" d="M693.356,473.801c-0.211,0-0.395-0.026-0.541-0.06l-1.343-0.313l-0.515-1.724
				c0.018,0.039,0.212,0.395,0.617,0.645l0.872-1.398l-0.924-0.246c0.299-1.127,0.598-2.191,0.885-3.217
				c1.543-5.49,2.662-9.458,0.99-15.23c-0.536-1.856-1.1-3.677-1.659-5.485c-1.667-5.389-3.391-10.968-4.184-16.955
				c-0.106-0.774-0.233-1.716-0.347-2.767c-2.011-0.14-3.947-0.756-5.785-1.848c-8.425-4.979-12.42-18.903-13.449-26.347
				c-1.544-11.126-3-21.638-14.342-25.208c-9.077-2.86-20.751-2.627-31.056-2.422c-2.7,0.053-5.345,0.106-7.879,0.106
				c-6.563,0-10.342,0.38-14.346,0.785c-3.731,0.378-7.593,0.768-13.814,0.825c-2.965,0.028-8.288,0.17-13.66,0.314
				c-5.662,0.152-11.377,0.304-14.491,0.328c-3.428,0.053-6.92-0.196-10.287-0.416c-4.218-0.275-8.587-0.561-12.872-0.336
				c-11.662,0.587-24.456,0.53-39.113-0.167c-9.833-0.469-18.799,0.106-28.284,0.715c-13.885,0.895-28.24,1.819-46.4-0.565
				c-7.884-1.032-15.977-0.995-23.803-0.94c-6.7,0.033-13.623,0.075-20.451-0.55c-10.074-0.933-20.452,0.161-30.496,1.221
				c-3.724,0.394-7.424,0.783-11.088,1.071c-20.079,1.581-40.325,3.594-59.906,5.543c-7.05,0.702-14.107,1.403-21.181,2.088
				c-11.904,1.152-25.808,1.097-40.206-0.163c-5.109-0.447-9.72-1.534-14.179-2.585c-7.041-1.657-13.695-3.22-21.552-2.103
				c-14.967,2.136-29.299,4.767-40.177,13.387c-9.344,7.408-11.477,14.843-14.181,24.254c-1.04,3.624-2.116,7.368-3.7,11.442
				c-2.782,7.163-6.324,12.182-14.555,13.401c-1.305,0.197-2.768,0.176-4.186,0.168c-2.028-0.027-4.846-0.054-5.501,0.822
				c-0.15,0.198-0.579,1.056,0.215,3.678c0.541,1.791,2.092,2.961,3.885,4.317c2.778,2.094,6.234,4.703,5.237,10.21
				c-1.311,7.242-7.93,7.11-11.856,7.044c-1.472-0.026-3.487-0.066-4.008,0.343l-2.767-3.555c1.78-1.386,4.237-1.342,6.859-1.293
				c4.656,0.106,6.773-0.207,7.338-3.339c0.482-2.661-0.801-3.766-3.515-5.816c-2.119-1.597-4.518-3.41-5.484-6.608
				c-1.021-3.371-0.86-5.882,0.493-7.686c2.024-2.697,5.812-2.649,9.151-2.622c1.3,0.017,2.523,0.027,3.48-0.119
				c6.159-0.91,8.625-4.421,11.018-10.575c1.507-3.88,2.554-7.527,3.566-11.052c2.695-9.379,5.237-18.239,15.714-26.544
				c11.759-9.319,26.737-12.089,42.337-14.317c8.7-1.239,16.082,0.499,23.222,2.18c4.305,1.014,8.754,2.063,13.539,2.481
				c14.126,1.234,27.74,1.293,39.379,0.167c7.072-0.686,14.124-1.388,21.171-2.087c19.601-1.952,39.871-3.966,59.998-5.552
				c3.623-0.286,7.285-0.671,10.97-1.058c10.261-1.082,20.873-2.198,31.38-1.23c6.608,0.61,13.409,0.563,20.01,0.532
				c7.98-0.057,16.227-0.094,24.415,0.979c17.724,2.318,31.855,1.417,45.524,0.534c9.616-0.616,18.705-1.201,28.789-0.719
				c14.505,0.695,27.162,0.754,38.67,0.167c4.549-0.229,9.045,0.06,13.392,0.341c3.437,0.222,6.662,0.458,9.961,0.407
				c3.097-0.024,8.781-0.176,14.408-0.326c5.402-0.145,10.752-0.288,13.739-0.317c6.01-0.055,9.772-0.435,13.405-0.801
				c3.933-0.398,8.007-0.81,14.795-0.81c2.503,0,5.116-0.052,7.791-0.105c10.646-0.216,22.714-0.451,32.498,2.628
				c14.061,4.428,15.86,17.421,17.447,28.887c0.858,6.184,4.32,18.974,11.28,23.092c1.021,0.603,2.077,0.985,3.172,1.152
				c-0.136-5.601,0.867-11.79,6.147-12.864c5.094-1.038,6.458,2.284,6.761,3.326c1.201,4.14-2.336,11.592-6.208,13.066
				c-0.634,0.242-1.263,0.444-1.888,0.603c0.08,0.721,0.167,1.483,0.277,2.288c0.787,5.939,2.379,11.09,4.07,16.546
				c0.563,1.83,1.135,3.678,1.68,5.56c2.029,7.007,0.634,11.966-0.98,17.707c-0.281,0.999-0.576,2.04-0.866,3.141l-0.458,0.885
				C694.693,473.594,693.928,473.801,693.356,473.801z M694.834,413.921c-0.216,0-0.515,0.027-0.906,0.107
				c-1.109,0.229-2.653,1.667-2.539,7.98c0.198-0.066,0.391-0.133,0.59-0.211c0.836-0.317,2.86-3.005,3.431-5.847
				c0.268-1.32,0.031-1.879-0.026-1.936C695.384,414.014,695.244,413.921,694.834,413.921z"/>
		</g>
		<path fill="#B68AD1" d="M332.091,469.877c0.944,2.318,1.885,5.82,3.379,7.628c5.284-1.887,15.363-2.701,18.271-8.121
			c-3.233-1.337-11.084-0.624-14.265,0.458c-0.787-1.668-1.727-3.973-2.879-5.314L332.091,469.877z"/>
		<path fill="#B68AD1" d="M273.283,465.587c-1.817,1.724-4.734,3.88-5.873,5.93c3.684,4.232,8.115,13.322,14.221,14.052
			c0.07-3.498-3.456-10.55-5.622-13.118c1.262-1.338,3.069-3.054,3.897-4.616L273.283,465.587z"/>
		<path fill="#005774" d="M276.343,425.673c-0.341,3.079-1.102,6.458-0.35,9.595c0.59,2.463,2.303,4.575,2.884,6.937
			c1.355,5.504-3.322,10.651-6.491,14.734c-1.572,2.028-3.953,3.692-5.263,5.9c-1.615,2.719,0.138,3.524,2.729,5.143
			c1.951,1.218,4.387,2.626,6.492,3.528c3.306,1.425,3.533-0.229,5.576-2.79c3.169-3.972,6.63-7.606,9.566-11.807
			c3.069-4.395,3.599-7.206,4.566-12.095c1.056-5.331,4.182-10.149,5.281-15.775c0.456-2.332,2.089-7.919,0.932-10.141
			c-0.671-1.288-4.718-3.273-6.121-4.003c-2.222-1.161-5.013-2.181-7.42-2.952c-2.646-0.848-5.46-0.906-8.44-0.914L276.343,425.673z
			"/>
		<path opacity="0.23" fill="#005774" d="M276.343,425.673c-0.341,3.079-1.102,6.458-0.35,9.595c0.59,2.463,2.303,4.575,2.884,6.937
			c1.355,5.504-3.322,10.651-6.491,14.734c-1.572,2.028-3.953,3.692-5.263,5.9c-1.615,2.719,0.138,3.524,2.729,5.143
			c1.951,1.218,4.387,2.626,6.492,3.528c3.306,1.425,3.533-0.229,5.576-2.79c3.169-3.972,6.63-7.606,9.566-11.807
			c3.069-4.395,3.599-7.206,4.566-12.095c1.056-5.331,4.182-10.149,5.281-15.775c0.456-2.332,2.089-7.919,0.932-10.141
			c-0.671-1.288-4.718-3.273-6.121-4.003c-2.222-1.161-5.013-2.181-7.42-2.952c-2.646-0.848-5.46-0.906-8.44-0.914L276.343,425.673z
			"/>
		<path fill="#005774" d="M290.702,429.615c2.274,3.955,6.377,7.175,9.298,10.698c1.824,2.195,3.368,4.184,5.343,6.194
			c4.562,4.638,8.682,9.204,13.515,13.506c2.428,2.164,4.688,4.276,6.397,7.109c1.315,2.177,2.233,5.21,5.076,4.95
			c2.063-0.185,5.433-2.996,7.116-4.246c2.699-2.002,2.378-2.099,1.19-4.989c-2.09-5.081-4.45-10.11-6.476-15.2
			c-1.069-2.679-1.991-5.362-3.244-7.946c-1.54-3.167-4.089-5.846-5.906-8.952c-3.04-5.196-5.724-10.506-8.3-15.895
			c-3.154-6.604-9.333-2.058-14.717-0.153c-2.862,1.012-4.312,1.311-5.842,4.223c-1.193,2.266-1.39,5.272-2.886,7.04
			L290.702,429.615z"/>
		<path fill="#E95F7D" d="M275.687,420.511c0.359,2.868-1.618,4.879-1.069,7.827c2.213,0.357,3.931-0.59,5.948-0.612
			c2.406-0.026,4.434,0.809,6.766,1.513c3.311,0.995,3.676,1.162,6.584-0.4c2.228-1.193,3.831-2.852,6.652-3.093
			c4.984-0.432,7.943,3.929,12.305-0.348c2.252-2.214,1.892-4.246,5.339-5.178c2.01-0.55,5.868,1.139,5.846-1.901
			c-3.634-1.074-5.612-2.723-8.119-5.34c-3.169-3.305-4.476-2.262-8.718-1.189c-9.005,2.274-21.079-1.43-29.282,1.962
			L275.687,420.511z"/>
		<path fill="#FF9DB9" d="M252.41,368.795c1.099,2.202,1.52,4.833,2.549,7.116c1.331,2.95,3.143,5.686,4.85,8.432
			c2.97,4.784,7.175,8.62,9.494,13.807c2.165,4.844,3.174,9.481,2.191,14.632c-0.737,3.863,0.367,7.369,2.081,10.871
			c5.512-0.255,11.339,0.858,16.9,0.612c4.109-0.185,8.275-1.192,12.327-2.177c3.673-0.893,8.258-1.751,11.551-3.524
			c1.291-0.695,4.821-2.952,5.081-4.43c0.322-1.826-2.466-6.555-3.391-8.169c-2.835-4.945-4.903-10.287-7.813-15.209
			c-1.859-3.141-3.788-6.082-5.763-8.973c-6.806-7.927-10.437-10.65-17.664-17.648c-1.331-1.289-8.385-7.123-9.79-8.361
			c-4.041-3.557-9.91-3.949-15.011-4.168c-4.573-0.196-4.285,2.686-5.681,6.491c-0.269,0.726-0.693,1.36-0.783,1.69L252.41,368.795z
			"/>
		<path fill="#FFAD32" d="M280.003,304.318c6.672,0.707,4.441-8.728,4.441-17.199c-18.503-4.905-41.166-13.235-56.074,3.427
			c-17.439,19.496-13.915,48.136-4.138,70.762c3.506,8.113,5.203,15.266,14.76,15.241c8.642-0.022,17.569-1.984,24.674-7.344
			c-1.775-3.047-3.583-15.033-5.625-17.771L280.003,304.318z"/>
		<path fill="#FFD5AD" d="M256.541,358.565c6.245,2.862,18.207-0.553,23.44-4.316c7.175-5.163,7.354-9.208,5.79-17.177
			c1.366-0.843,4.742-1.777,6.509-2.142c-4.017-21.225-7.529-36.22-23.653-37.778c5.376,10.596-0.482,32.742-14.377,35.135
			c-3.726,0.643-18.585-4.205-13.657,7.693c1.491,3.598,6.139,2.751,8.31,5.035C250.56,346.757,249.788,355.47,256.541,358.565z"/>
		<path fill="#FFD5AD" d="M279.873,362.836c14.174,2.968,15.032,3.469,27.078,5.666c6.023,1.1,11.784,2.189,17.894,0.761
			c3.198-0.748,14.366-6.619,16.748-3.128c-1.113,1.617-5.827,2.644-6.203,4.552c-0.803,4.067,6.074,2.151,7.017,3.852
			c3.935,7.074-11.731,4.802-13.928,4.063c-5.607-1.885-8.94-3.238-15.439-3.141c-7.043,0.101-13.841-1.181-18.772-1.126
			c-6.619,0.075-10.788,0.17-17.686-1.746c-6.896-1.916-10.92-2.855-7.622-9.729C270.709,359.212,278.569,362.564,279.873,362.836z"
			/>
		<path fill="#7C5761" d="M462.237,469.877c-0.942,2.318-1.883,5.82-3.378,7.628c-5.285-1.887-15.363-2.701-18.271-8.121
			c3.233-1.337,11.086-0.624,14.267,0.458c0.787-1.668,1.724-3.973,2.876-5.314L462.237,469.877z"/>
		<path fill="#7C5761" d="M521.047,465.587c1.817,1.724,4.733,3.88,5.873,5.93c-3.688,4.232-8.117,13.322-14.224,14.052
			c-0.07-3.498,3.458-10.55,5.622-13.118c-1.263-1.338-3.067-3.054-3.898-4.616L521.047,465.587z"/>
		<path fill="#404040" d="M517.985,425.673c0.343,3.079,1.103,6.458,0.352,9.595c-0.589,2.463-2.305,4.575-2.886,6.937
			c-1.355,5.504,3.321,10.651,6.492,14.734c1.571,2.028,3.952,3.692,5.263,5.9c1.614,2.719-0.137,3.524-2.728,5.143
			c-1.953,1.218-4.386,2.626-6.493,3.528c-3.305,1.425-3.533-0.229-5.575-2.79c-3.172-3.972-6.629-7.606-9.568-11.807
			c-3.066-4.395-3.598-7.206-4.566-12.095c-1.056-5.331-4.18-10.149-5.28-15.775c-0.457-2.332-2.089-7.919-0.932-10.141
			c0.668-1.288,4.716-3.273,6.119-4.003c2.221-1.161,5.016-2.181,7.421-2.952c2.645-0.848,5.46-0.906,8.439-0.914L517.985,425.673z"
			/>
		<path opacity="0.17" fill="#404040" d="M517.985,425.673c0.343,3.079,1.103,6.458,0.352,9.595
			c-0.589,2.463-2.305,4.575-2.886,6.937c-1.355,5.504,3.321,10.651,6.492,14.734c1.571,2.028,3.952,3.692,5.263,5.9
			c1.614,2.719-0.137,3.524-2.728,5.143c-1.953,1.218-4.386,2.626-6.493,3.528c-3.305,1.425-3.533-0.229-5.575-2.79
			c-3.172-3.972-6.629-7.606-9.568-11.807c-3.066-4.395-3.598-7.206-4.566-12.095c-1.056-5.331-4.18-10.149-5.28-15.775
			c-0.457-2.332-2.089-7.919-0.932-10.141c0.668-1.288,4.716-3.273,6.119-4.003c2.221-1.161,5.016-2.181,7.421-2.952
			c2.645-0.848,5.46-0.906,8.439-0.914L517.985,425.673z"/>
		<path fill="#404040" d="M508.676,423.007c-2.274,3.955-11.425,13.783-14.347,17.306c-1.826,2.195-3.37,4.184-5.345,6.194
			c-4.562,4.638-8.68,9.204-13.515,13.506c-2.428,2.164-4.686,4.276-6.397,7.109c-1.315,2.177-2.231,5.21-5.077,4.95
			c-2.063-0.185-5.433-2.996-7.114-4.246c-2.701-2.002-2.38-2.099-1.192-4.989c2.089-5.081,4.452-10.11,6.476-15.2
			c1.069-2.679,1.992-5.362,3.246-7.946c1.54-3.167,4.087-5.846,5.905-8.952c3.039-5.196,5.723-10.506,8.301-15.895
			c3.154-6.604,9.331-2.058,14.716-0.153c2.863,1.012,4.311,1.311,5.842,4.223c1.192,2.266,6.441-1.337,7.937,0.432L508.676,423.007
			z"/>
		<path fill="#FFD5AD" d="M601.569,435.796c-6.609,10.114-11.892,20.975-17.175,31.815c-1.268,2.6,2.617,4.888,3.888,2.275
			c5.283-10.84,10.568-21.701,17.175-31.816C607.049,435.632,603.148,433.376,601.569,435.796z"/>
		<path fill="#FFD5AD" d="M649.028,467.158c-4.338-5.107-8.464-10.765-11.459-16.779c-1.844-3.7-3.318-8.342-6.56-11.095
			c-2.2-1.869-5.403,1.302-3.185,3.185c3.44,2.921,4.936,8.504,6.995,12.415c2.908,5.517,6.994,10.717,11.024,15.459
			C647.727,472.561,650.898,469.358,649.028,467.158z"/>
		<path fill="#00C457" d="M541.917,368.795c-1.099,2.202-1.517,4.833-2.547,7.116c-1.333,2.95-3.145,5.686-4.852,8.432
			c-2.97,4.784-7.176,8.62-9.494,13.807c-2.164,4.844-3.172,9.481-2.19,14.632c0.739,3.863-0.365,7.369-2.081,10.871
			c-5.513-0.255-11.338,0.858-16.898,0.612c-4.11-0.185-8.276-1.192-12.328-2.177c-3.673-0.893-8.257-1.751-11.552-3.524
			c-1.289-0.695-4.821-2.952-5.082-4.43c-0.321-1.826,2.469-6.555,3.392-8.169c2.838-4.945,4.906-10.287,7.813-15.209
			c1.861-3.141,3.788-6.082,5.764-8.973c6.806-7.927,10.44-10.65,17.663-17.648c1.333-1.289,8.386-7.123,9.794-8.361
			c4.039-3.557,9.907-3.949,15.011-4.168c4.57-0.196,4.284,2.686,5.679,6.491c0.267,0.726,0.694,1.36,0.782,1.69L541.917,368.795z"
			/>
		<path fill="#FFD5AD" d="M514.457,362.836c-14.175,2.968-15.033,3.469-27.078,5.666c-6.023,1.1-11.786,2.189-17.896,0.761
			c-3.199-0.748-14.364-6.619-16.748-3.128c1.113,1.617,5.83,2.644,6.203,4.552c0.805,4.067-6.071,2.151-7.017,3.852
			c-3.932,7.074,11.733,4.802,13.929,4.063c5.609-1.885,8.94-3.238,15.442-3.141c7.044,0.101,13.84-1.181,18.772-1.126
			c6.616,0.075,10.787,0.17,17.685-1.746c6.893-1.916,10.919-2.855,7.62-9.729C523.621,359.212,515.759,362.564,514.457,362.836z"/>
		<path fill="#A55A37" d="M606.42,414.503c-0.541,4.276-7.526,10.738-10.584,13.893c-2.767,2.847-5.806,5.842-8.231,9.01
			c10.356,9.837,25.613,13.665,39.666,15.785c5.116,0.774,10.68-0.277,15.564-1.501c3.502-0.88,8.76-1.732,11.584-3.85
			c-1.729-4.905-2.309-10.607-3.238-15.692c-0.995-5.442-3.515-10.863-5.033-16.075c-7.888-0.758-14.852-5.029-22.556-6.375
			c-2.34-0.409-13.572,0.901-13.418-1.954L606.42,414.503z"/>
		<path fill="#B487D7" d="M669.498,368.795c-1.099,2.202-1.522,4.833-2.551,7.116c-1.329,2.95-3.141,5.686-4.848,8.432
			c-2.97,4.784-7.176,8.62-9.493,13.807c-2.165,4.844-3.176,9.481-2.191,14.632c0.735,3.863-0.37,7.369-2.081,10.871
			c-5.513-0.255-11.341,0.858-16.902,0.612c-4.109-0.185-8.275-1.192-12.328-2.177c-3.674-0.893-8.257-1.751-11.548-3.524
			c-1.294-0.695-4.822-2.952-5.081-4.43c-0.321-1.826,2.463-6.555,3.391-8.169c2.833-4.945,4.901-10.287,7.814-15.209
			c1.856-3.141,3.787-6.082,5.763-8.973c6.805-7.927,10.436-10.65,17.664-17.648c1.328-1.289,8.384-7.123,9.787-8.361
			c4.044-3.557,9.913-3.949,15.011-4.168c4.576-0.196,4.285,2.686,5.684,6.491c0.268,0.726,0.691,1.36,0.783,1.69L669.498,368.795z"
			/>
		<path opacity="0.16" fill="#B487D7" d="M669.498,368.795c-1.099,2.202-1.522,4.833-2.551,7.116
			c-1.329,2.95-3.141,5.686-4.848,8.432c-2.97,4.784-7.176,8.62-9.493,13.807c-2.165,4.844-3.176,9.481-2.191,14.632
			c0.735,3.863-0.37,7.369-2.081,10.871c-5.513-0.255-11.341,0.858-16.902,0.612c-4.109-0.185-8.275-1.192-12.328-2.177
			c-3.674-0.893-8.257-1.751-11.548-3.524c-1.294-0.695-4.822-2.952-5.081-4.43c-0.321-1.826,2.463-6.555,3.391-8.169
			c2.833-4.945,4.901-10.287,7.814-15.209c1.856-3.141,3.787-6.082,5.763-8.973c6.805-7.927,10.436-10.65,17.664-17.648
			c1.328-1.289,8.384-7.123,9.787-8.361c4.044-3.557,9.913-3.949,15.011-4.168c4.576-0.196,4.285,2.686,5.684,6.491
			c0.268,0.726,0.691,1.36,0.783,1.69L669.498,368.795z"/>
		<path fill="#FFD5AD" d="M642.034,362.836c-14.175,2.968-15.033,3.469-27.079,5.666c-6.023,1.1-11.781,2.189-17.892,0.761
			c-3.197-0.748-14.368-6.619-16.748-3.128c1.113,1.617,5.825,2.644,6.203,4.552c0.801,4.067-6.075,2.151-7.017,3.852
			c-3.937,7.074,11.729,4.802,13.929,4.063c5.604-1.885,8.939-3.238,15.438-3.141c7.042,0.101,13.84-1.181,18.77-1.126
			c6.622,0.075,10.788,0.17,17.687-1.746c6.898-1.916,10.918-2.855,7.623-9.729C651.197,359.212,643.34,362.564,642.034,362.836z"/>
		<path fill="#00C457" d="M496.05,364.949c-0.471,4.434,1.848,8.585,2.683,12.707c8.23-0.326,34.218,3.467,31.02-11.581
			c-2.556-12.032-20.289-6.449-28.072-4.505L496.05,364.949z"/>
		<path fill="#441124" d="M514.07,307.135c-4.201-2.092-9.027-6.984-8.275-12.277c4.299,9.181,11.913-2.448,15.125-5.771
			c5.574-5.772,13.018-11.245,21.587-10.867c6.955,0.306,14.21,3.469,18.763,8.718c4.065,4.681,6.445,9.366,13.241,9.685
			c1.638,0.077,3.296,0,4.937,0.002c-2.517,2.004-4.531,2.348-2.591,6.278c2.262,4.573,6.093,7.292,7.039,12.565
			c1.391,7.727-1.302,14.533-3.471,21.805c-1.184,3.955-3.674,12.915,2.213,14.236c-1.557,3.023-5.108,4.415-7.998,3.744
			c1.087,0.935,0.849,1.328,2.459,1.511c-3.365,4.026-14.025,5.739-19.018,4.826c-5.332-0.974-12.02-4.399-15.481-8.563
			c-2.485-2.989-4.157-6.835-6.85-9.769c-2.86-3.119-6.555-4.837-9.687-7.684c-4.131-3.756-6.458-9.682-7.945-14.876
			c-0.497,0.084-0.378,0.442-0.669,0.702L514.07,307.135z"/>
		<path fill="#FFD5AD" d="M540.079,332.287c-13.893-2.393-19.754-24.539-14.377-35.135c-16.124,1.557-19.634,16.552-23.651,37.778
			c1.764,0.365,5.143,1.3,6.507,2.142c-0.305,1.564-0.515,2.943-0.647,4.243c3.677,0.693,7.554,1.212,10.457,3.049
			c-1.651,2.455-5.777,3.914-8.988,4.923c1.029,1.652,2.587,3.249,4.967,4.962c5.235,3.764,17.197,7.178,23.439,4.316
			c6.753-3.096,5.984-11.809,7.643-13.55c2.169-2.283,6.818-1.437,8.31-5.035C558.666,328.082,543.805,332.93,540.079,332.287z"/>
		<path fill="#FFD5AD" d="M635.381,343.578l0.097-2.164C635.404,342.168,635.377,342.892,635.381,343.578z"/>
		<path fill="#F6FFFF" d="M635.518,340.547l-0.04,0.867c0.026-0.286,0.057-0.572,0.093-0.869
			C635.553,340.543,635.535,340.55,635.518,340.547z"/>
		<path fill="#340512" d="M638.144,315.581c-4.967,0.944-2.71-16.935-1.487-19.632c3.312-7.283,12.102-15.017,20.272-15.859
			c6.67-0.686,14.966,0.055,21.134,2.527c8.614,3.456,12.464,13.306,14.351,21.634c0.339,1.498,0.445,3.035,0.906,4.472
			c3.502-3.458,9.067-6.458,14.1-5.317c5.619,1.271,7.489,6.535,6.529,11.832c-1.135,6.296-4.531,12.564-2.247,19.15
			c2.068,5.973,8.706,8.773,12.05,2.099c-0.07,4.768-0.427,7.266-4.799,9.854c-3.718,2.2-7.206,1.353-10.405-1.26
			c-6.256-5.114-10.114-14.252-11.338-21.876c-1.336,3.99,0.054,8.944-1.706,13.211c-1.773,4.296-3.823,9.065-7.743,11.825
			c-5.925,4.173-15.059,5.717-21.984,5.589c-0.448-1.773-0.316-3.572-1.149-5.332c-1.895-4.001-5.92-7.195-8.842-10.398
			c-2.547-2.791-5.499-5.424-7.813-8.398c-0.853-1.098-1.465-2.477-2.482-3.318c0.01,0.462,0.348,0.238,0.537,0.458L638.144,315.581
			z"/>
		<path fill="#FFD5AD" d="M667.66,332.287c-13.898-2.393-19.753-24.539-14.378-35.135c-16.124,1.557-19.639,16.552-23.654,37.778
			c1.768,0.365,5.141,1.3,6.511,2.142c-0.246,1.258-0.427,2.391-0.567,3.474c3.484,0.29,7.034-1.406,10.413-1.267
			c1.557,0.064,1.719,0.394,1.552,2.354c-0.084,1.034-0.598,2.314-1.078,3.233c-1.544,2.948-5.961,4.666-9.493,4.433
			c1.034,1.65,2.587,3.242,4.962,4.951c5.23,3.764,17.193,7.178,23.44,4.316c6.753-3.096,5.979-11.809,7.637-13.55
			c2.173-2.283,6.819-1.437,8.311-5.035C686.241,328.082,671.386,332.93,667.66,332.287z"/>
		<path fill="#F6FFFF" d="M646.459,344.865c0.48-0.919,0.994-2.199,1.078-3.233c0.167-1.96,0.004-2.29-1.552-2.354
			c-3.379-0.138-6.929,1.557-10.413,1.267c-0.036,0.297-0.067,0.583-0.093,0.869l-0.097,2.164c0.022,2.116,0.485,3.964,1.584,5.719
			C640.498,349.531,644.915,347.813,646.459,344.865z"/>
		<path fill="#B487D7" d="M606.047,365.698c0.074,2.996-0.207,10.275,1.482,12.785c1.773,2.64,6.529,2.378,9.696,2.982
			c9.124,1.742,18.834-0.871,27.491-4.036c5.812-2.125,15.971-6.747,12.385-14.734c-2.267-5.046-11.76-4.381-16.6-4.131
			c-5.957,0.307-11.944,2.349-17.544,3.765c-4.786,1.21-9.995,1.201-14.659,2.618L606.047,365.698z"/>
		<path fill="#FFD5AD" d="M187.489,445.883c6.054,7.122,10.875,15.705,12.252,25.046c0.42,2.841-3.92,4.064-4.342,1.196
			c-1.267-8.578-5.521-16.493-11.095-23.057C182.434,446.868,185.606,443.666,187.489,445.883z"/>
		<path fill="#FFD5AD" d="M117.938,451.506c1.192-5.099,5.165-9.116,8.706-12.702c2.044-2.068,5.229,1.118,3.185,3.186
			c-3.722,3.77-6.74,7.263-7.978,12.551c-1.419,6.071-1.302,12.806-2.408,19c-0.508,2.856-4.85,1.641-4.342-1.196
			C116.327,465.455,116.347,458.303,117.938,451.506z"/>
		<path fill="#FFAD32" d="M589.817,469.877c-0.945,2.318-1.887,5.82-3.378,7.628c-5.283-1.887-15.362-2.701-18.27-8.121
			c3.234-1.337,11.081-0.624,14.262,0.458c0.787-1.668,1.729-3.973,2.882-5.314L589.817,469.877z"/>
		<path fill="#FFD5AD" d="M105.104,388.366c0.627-1.874,2.834-1.887,3.887-0.845c1.482-0.149,3.044,0.934,2.353,2.676
			c-1.377,3.479-3.647,6.832,0.361,9.225c5.118,3.057,12.137,2.679,17.735,1.601c1.621-0.317,2.678,0.967,2.783,2.226
			c1.857,0.541,2.33,3.665-0.009,4.329c-9.093,2.582-17.523,1.008-25.721-3.432c-2.02-1.091-5.163-3.075-5.266-5.697
			C101.073,394.538,103.921,391.899,105.104,388.366z"/>
		<path fill="#005774" d="M177.879,413.754c2.162,4.342,7.006,8.157,10.127,12.015c2.791,3.444,5.138,7.307,7.235,11.166
			c0.589,1.082,3.22,4.597,2.954,5.746c-0.253,1.099-5.222,4.706-6.133,5.608c-3.121,3.084-6.835,7.849-11.106,9.331
			c-4.371-5.495-6.977-13.021-12.558-17.487c-4.712-3.77-11.652-3.546-17.549-3.854c-6.698-0.352-10.382,3.62-13.975,8.987
			c-1.566,2.341-2.483,6.156-4.775,6.392c-2.248,0.229-7.629-3.212-9.774-4.201c-2.109-0.972-4.555-1.914-6.049-3.674
			c5.752-8.156,12.417-16.097,15.116-25.837c5.895,0.192,13.581-1.993,19.355-3.164c4.469-0.907,12.208-3.749,16.244-1.782
			L177.879,413.754z"/>
		<path fill="#FFD5AD" d="M158.526,372.168c9.386,3.317,19.252,4.395,28.626,7.694c3.85,1.353,18.185,4.702,21.606,4.715
			c1.661,0.007,2.871-1.935,1.945-3.389c-1.557-2.444,1.68-1.723,3.71-2.066c1.335-0.224,2.185-2.211,1.346-3.309
			c-2.934-3.84-5.51-4.459-10.2-2.541c-11.381,4.65-26.924-1.467-37.077-7.118c-1.533-0.854-2.948,0.228-3.289,1.526
			c-2.021-0.205-4.045-0.215-6.069,0.062C156.553,367.92,156.102,371.312,158.526,372.168z"/>
		<path fill="#FFAD32" d="M648.623,465.587c1.817,1.724,4.734,3.88,5.873,5.93c-3.682,4.232-8.112,13.322-14.219,14.052
			c-0.07-3.498,3.453-10.55,5.622-13.118c-1.262-1.338-3.07-3.054-3.897-4.616L648.623,465.587z"/>
		<path fill="#63C8DD" d="M140.526,357.815c3.293-2.455,9.88,0.86,13.172,2.048c3.979,1.436,8.086,2.813,12.168,3.521
			c1.632,0.282,4.19,0.238,5.631,1.188c2.508,1.652,0.588,3.878-0.633,6.461c-1.041,2.204-1.534,4.472-3.59,4.863
			c-1.832,0.35-5.215-1.067-7.017-1.434c3.519,5.708,7.373,11.211,10.677,17.143c2.526,4.53,2.052,11.565,5.337,15.124
			c1.388,1.51,6.282,2.336,6.854,4.012c0.908,2.675-5.273,6.692-7.123,7.893c-7.505,4.87-15.299,6.766-23.941,8.164
			c-6.392,1.033-12.661,0.66-19.137,0.295c-3.741-0.211-8.775-0.721-11.784-3.181c0.649-2.138,2.27-4.048,2.493-6.406
			c0.246-2.648-1.007-5.173-1.91-7.536c-2.006-5.261-4.756-10.488-5.117-16.299c-0.864,1.218-1.815,2.275-2.604,3.528
			c-3.755-2.015-12.954-6.221-13.807-10.948c-0.752-4.157,5.754-9.614,7.952-12.938c1.468-2.22,2.737-4.56,4.23-6.771
			c1.197-1.77,1.991-4.775,3.647-6.201c4.54-3.909,10.129,5.358,14.656,6.192c3.148,0.581,7.521-4.271,5.904-6.467L140.526,357.815z
			"/>
		<path fill="#FFD5AD" d="M138.273,356.125c2.86,6.172,0.851,15.079-7.321,14.093c-7.822-0.946-9.179-7.078-12.952-12.686
			L138.273,356.125z"/>
		<path opacity="0.43" fill="#FFD5AD" d="M138.273,356.125c2.86,6.172,0.851,15.079-7.321,14.093
			c-7.822-0.946-9.179-7.078-12.952-12.686L138.273,356.125z"/>
		<path fill="#FFD5AD" d="M147.847,314.642c10.475,12.371,9.912,28.818-0.471,40.461c-8.893,9.975-24.152,12.27-36.395,7.53
			c-17.213-6.668-29.927-26.92-13.834-41.981c10.281-9.626,26.165-17.478,40.564-15.028c0.682,0.117,2.977,0.953,2.627,0.761
			L147.847,314.642z"/>
		<path fill="#A55A37" d="M198.527,471.566c-1.186,0.409-1.801,0.585-3.128,0.559c-1.122,4.087-1.949,8.302,2.565,8.732
			c4.138,0.396,8.046-0.031,12.063,0.238c0.939-5.341-10.022-7.333-10.257-10.585L198.527,471.566z"/>
		<path fill="#A55A37" d="M119.409,473.678c0.108,1.838,1.755,3.167,1.83,5.064c0.048,1.245,0.325,3.238-1.126,3.594
			c-1.028,0.255-2.064,0.026-3.111,0.071c-1.232,0.048-2.459,0.22-3.698,0.122c-1.713-0.131-3.44-0.329-5.147-0.527
			c-0.629-0.07-1.244-0.185-1.878-0.246c-0.266-0.022-0.77,0.035-1.023-0.049c-2.094-0.73,4.157-4.394,4.731-4.716
			c1.866-1.025,4.536-2.336,5.139-4.575c0.57,0.572,1.109,0.871,1.96,0.91c0.451,0.018,2.238,0.021,2.44-0.273L119.409,473.678z"/>
		<path fill="#FF792D" d="M162.873,321.859c-3.209,7.58-13.876,6.242-19.883,3.029c-4.998-2.675-8.566-7.408-13.37-10.31
			c-3.418,3.409-5.796,6.654-10.413,8.543c-2.512,1.027-2.787,0.552-3.772,3.029c-1.163,2.926-2.321,5.879-3.546,8.786
			c-2.692,6.392-6.69,11.093-12.62,14.625c-1.661,0.988-4.047,2.486-6.071,2.068c-1.995-0.414-2.831-3.847-4.545-5.735
			c-2.026-2.235-1.57-2.565-2.01-5.358c-0.288-1.835,0.301-0.887-1.257-2.075c-1.212-0.922-2.503-1.208-3.547-2.455
			c-3.467-4.144-2.279-8.671,1.72-11.431c2.273-1.569,2.05-1.025,2.081-4.23c0.026-2.413,0.609-5.448,1.824-7.572
			c1.337-2.34,3.513-2.831,5.44-4.291c2.255-1.709,2.664-4.965,3.911-7.824c1.533-3.521,7.974-5.979,11.293-3.132
			c2.29-4.063,5.71-7.43,10.343-8.737c5.208-1.469,4.685,2.174,8.317,4.305c1.819,1.067,3.214-0.218,4.998-0.833
			c2.433-0.84,4.151-0.939,6.443,0.321c3.993,2.195,3.799,4.481,4.006,8.546c3.509,0.328,7.391-0.044,8.986,4.074
			c1.166,3.005-1.021,4.996,2.783,5.497c2.591,0.343,4.182-0.222,5.118,3.086c0.348,1.229-0.301,2.853,0.486,3.741
			c0.995,1.122,2.813,0.097,3.539,2.064L162.873,321.859z"/>
		<path fill="#93A7AB" d="M396.856,391.049c-0.246-5.074-0.979-9.852-2.752-14.652c-0.768-2.079-2.886-6.617-5.015-8.966
			c1.624-4.85,2.389-10.644,2.026-15.103c-0.308-3.766-1.427-7.567-3.928-10.514c-0.737-0.869-2.361-2.631-3.761-2.032
			c-0.653,0.279-1.12,1.861-1.448,2.439c-0.262-0.653-0.68-0.757-1.177-1.089c-3.528,4.318-4.688,9.973-4.12,15.411
			c0.326,3.104,1.445,5.794,2.853,8.596c0.579,1.153,1.986,3.755,3.405,5.53c-1.04,4.322-3.554,8.486-4.96,12.761
			c-1.447,4.39-2.406,10.536-1.696,15.199c0.904,5.926,4.209,9.969,6.692,14.998c1.471,2.978,4.109,6.634,4.914,9.771
			c3.885-2.336,5.539-10.475,7.054-14.474C397.249,402.84,397.168,397.451,396.856,391.049z"/>
	</g>
</g>
<g id="object" display="none">
	<g display="inline">
		<path fill="#F1B085" d="M573.344,266.058c15.142,10.313-11.259-63.371-11.259-63.371s-10.52-16.46-79.204-6.277
			c-48.336,7.166-68.373,20.178-77.671,20.178c-9.299,0-28.236-2.082-40.66-2.082c-12.424,0-28.566,3.464-44.813,9.626
			c-20.682,7.843-13.931,24.189-4.63,23.529c6.246-0.443,7.872-3.387,13.034-3.839c-4.631,3.639-40.775,18.054-44.658,39.577
			c-3.883,21.523,9.191,18.259,17.306,8.968c8.115-9.291,26.974-27.415,34.15-25.566c-2.55,3.373-21.316,17.519-30.818,37.248
			c-14.838,30.807,5.097,34.265,13.25,27.988c8.153-6.277,23.34-37.848,33.303-46.901c11.706-10.637,25.015-14.673,27.961-13.171
			c-10.227,11.644-15.781,14.348-26.691,39.003c-14.817,33.484-11.433,49.9-6.774,57.971c4.659,8.07,13.007,2.466,16.112-1.569
			c3.106-4.035,6.707-35.708,19.483-56.148c12.776-20.44,38.474-39.497,48.34-24.414c8.642,13.21-2.133,23.943-4.075,40.085
			c-1.941,16.142-6.133,48.481,6.988,50.844c19.735,3.554,13.288-64.353,32.7-75.115c19.413-10.761,35.918-30.944,42.518-47.534
			C519.273,255.536,558.201,255.746,573.344,266.058z"/>
		<g>
			<path fill="#DD532F" d="M438.61,366.963c-69.209-30.587-135.324-4.018-135.324-4.018s-10.052-36.617-32.285-30.141
				c-22.232,6.475-10.894,54.591-10.052,58.718c-11.6,4.687-30.738,39.741-30.738,39.741s-27.119,3.628-31.733,4.13
				c-4.616,0.501-5.331,3.435-5.558,4.945c-8.376,55.528,14.553,75.203,22.944,80.433c1.808,1.126,3.195,1.635,6.545,0.344
				c10.702-4.119,33.055-12.473,46.659-24.437c1.677,22.522-22.225,45.046-32.428,53.578c-2.743,2.294-3.627,4.023-1.471,7.57
				c1.683,2.767,11.268,15.112,15.39,20.39c1.156,1.483,2.099,3.39,2.48,5.085c1.896,8.416,7.911,35.504,12.115,46.412
				c1.166,3.029,2.055,4.894,7.596,4.894c5.542,0,27.835,0,32.349,0c5.671,0,5.833-6.595,5.833-6.595l2.987-23.723
				c0,0,10.246,19.423,54.13,19.423c43.884,0,61.669-19.423,61.669-19.423s-5.616,25.237-4.991,22.366
				c0.624-2.871-2.835,7.482,3.214,7.952c6.048,0.469,30.256,0,35.481,0c7.114,0,26.944-58.945,39.176-77.204
				c25.133-37.507,20.492-85.285,17.592-95.332C517.291,452.026,507.82,397.549,438.61,366.963z"/>
			<g>
				<defs>
					<path id="SVGID_1_" d="M573.142,426.875c0,86.997-74.41,172.458-201.046,172.458c-126.636,0-222.676-100.963-222.676-187.96
						c0-86.995,96.04-137.045,222.676-137.045C498.732,274.329,573.142,339.88,573.142,426.875z"/>
				</defs>
				<clipPath id="SVGID_2_">
					<use xlink:href="#SVGID_1_"  overflow="visible"/>
				</clipPath>
				<path clip-path="url(#SVGID_2_)" fill="#DDA23D" d="M438.61,366.963c-69.209-30.587-135.324-4.018-135.324-4.018
					s-10.052-36.617-32.285-30.141c-22.232,6.475-10.894,54.591-10.052,58.718c-11.6,4.687-30.738,39.741-30.738,39.741
					s-27.119,3.628-31.733,4.13c-4.616,0.501-5.331,3.435-5.558,4.945c-8.376,55.528,14.553,75.203,22.944,80.433
					c1.808,1.126,3.195,1.635,6.545,0.344c10.702-4.119,33.055-12.473,46.659-24.437c1.677,22.522-22.225,45.046-32.428,53.578
					c-2.743,2.294-3.627,4.023-1.471,7.57c1.683,2.767,11.268,15.112,15.39,20.39c1.156,1.483,2.099,3.39,2.48,5.085
					c1.896,8.416,7.911,35.504,12.115,46.412c1.166,3.029,2.055,4.894,7.596,4.894c5.542,0,27.835,0,32.349,0
					c5.671,0,5.833-6.595,5.833-6.595l2.987-23.723c0,0,10.246,19.423,54.13,19.423c43.884,0,61.669-19.423,61.669-19.423
					s-5.616,25.237-4.991,22.366c0.624-2.871-2.835,7.482,3.214,7.952c6.048,0.469,30.256,0,35.481,0
					c7.114,0,26.944-58.945,39.176-77.204c25.133-37.507,20.492-85.285,17.592-95.332
					C517.291,452.026,507.82,397.549,438.61,366.963z"/>
				<path clip-path="url(#SVGID_2_)" fill="#EF5A35" d="M438.61,366.963c-69.209-30.587-135.324-4.018-135.324-4.018
					s-10.052-36.617-32.285-30.141c-22.232,6.475-10.894,54.591-10.052,58.718c-11.6,4.687-30.738,39.741-30.738,39.741
					s-27.119,3.628-31.733,4.13c-4.616,0.501-5.331,3.435-5.558,4.945c-8.376,55.528,14.553,75.203,22.944,80.433
					c1.808,1.126,3.195,1.635,6.545,0.344c10.702-4.119,33.055-12.473,46.659-24.437c1.677,22.522-22.225,45.046-32.428,53.578
					c-2.743,2.294-3.627,4.023-1.471,7.57c1.683,2.767,11.268,15.112,15.39,20.39c1.156,1.483,2.099,3.39,2.48,5.085
					c1.896,8.416,7.911,35.504,12.115,46.412c1.166,3.029,2.055,4.894,7.596,4.894c5.542,0,27.835,0,32.349,0
					c5.671,0,5.833-6.595,5.833-6.595l2.987-23.723c0,0,10.246,19.423,54.13,19.423c43.884,0,61.669-19.423,61.669-19.423
					s-5.616,25.237-4.991,22.366c0.624-2.871-2.835,7.482,3.214,7.952c6.048,0.469,30.256,0,35.481,0
					c7.114,0,26.944-58.945,39.176-77.204c25.133-37.507,20.492-85.285,17.592-95.332
					C517.291,452.026,507.82,397.549,438.61,366.963z"/>
			</g>
			<path fill="#C54A29" d="M434.854,406.639c-1.027,0-2.07-0.243-3.068-0.757c-43.639-22.48-92.313-10.142-92.799-10.016
				c-4.055,1.065-8.095-1.872-9.019-6.557c-0.924-4.684,1.61-9.346,5.666-10.418c2.181-0.574,53.951-13.815,102.295,11.089
				c3.803,1.961,5.511,7.108,3.815,11.499C440.49,404.716,437.739,406.639,434.854,406.639z"/>
			<g>
				<defs>
					<path id="SVGID_3_" d="M434.854,416.928c-1.027,0-2.07-0.242-3.068-0.757c-43.639-22.481-92.313-10.142-92.799-10.014
						c-4.055,1.063-8.095-1.873-9.019-6.559c-0.924-4.685,1.61-9.346,5.666-10.417c2.181-0.575,53.951-13.817,102.295,11.087
						c3.803,1.96,5.511,7.106,3.815,11.498C440.49,415.005,437.739,416.928,434.854,416.928z"/>
				</defs>
				<use xlink:href="#SVGID_3_"  overflow="visible" fill="#EF5A35"/>
				<clipPath id="SVGID_4_">
					<use xlink:href="#SVGID_3_"  overflow="visible"/>
				</clipPath>
				<path clip-path="url(#SVGID_4_)" fill="#B24223" d="M434.854,406.639c-1.027,0-2.07-0.243-3.068-0.757
					c-43.639-22.48-92.313-10.142-92.799-10.016c-4.055,1.065-8.095-1.872-9.019-6.557c-0.924-4.684,1.61-9.346,5.666-10.418
					c2.181-0.574,53.951-13.815,102.295,11.089c3.803,1.961,5.511,7.108,3.815,11.499
					C440.49,404.716,437.739,406.639,434.854,406.639z"/>
			</g>
			<g>
				<ellipse fill="#FFFFFF" cx="285.887" cy="438.183" rx="18.233" ry="21.057"/>
				<ellipse fill="#231F20" cx="285.887" cy="438.306" rx="9.897" ry="11.43"/>
				<ellipse fill="#FFFFFF" cx="289.281" cy="430.796" rx="6.503" ry="7.51"/>
			</g>
			<path fill="none" d="M438.61,366.963c-69.209-30.587-135.324-4.018-135.324-4.018s-10.052-36.617-32.285-30.141
				c-22.232,6.475-10.894,54.591-10.052,58.718c-11.6,4.687-30.738,39.741-30.738,39.741s-27.119,3.628-31.733,4.13
				c-4.616,0.501-5.331,3.435-5.558,4.945c-8.376,55.528,14.553,75.203,22.944,80.433c1.808,1.126,3.195,1.635,6.545,0.344
				c10.702-4.119,33.055-12.473,46.659-24.437c1.677,22.522-22.225,45.046-32.428,53.578c-2.743,2.294-3.627,4.023-1.471,7.57
				c1.683,2.767,11.268,15.112,15.39,20.39c1.156,1.483,2.099,3.39,2.48,5.085c1.896,8.416,7.911,35.504,12.115,46.412
				c1.166,3.029,2.055,4.894,7.596,4.894c5.542,0,27.835,0,32.349,0c5.671,0,5.833-6.595,5.833-6.595l2.987-23.723
				c0,0,10.246,19.423,54.13,19.423c43.884,0,61.669-19.423,61.669-19.423s-5.616,25.237-4.991,22.366
				c0.624-2.871-2.835,7.482,3.214,7.952c6.048,0.469,30.256,0,35.481,0c7.114,0,26.944-58.945,39.176-77.204
				c25.133-37.507,19-90.652,16.1-100.699C515.798,446.659,507.82,397.549,438.61,366.963z"/>
			<path fill="#EF5A35" d="M500.581,453.398c-4.039,1.727-6.1,6.907-4.605,11.572c1.493,4.667,5.98,7.05,10.021,5.325
				C510.598,468.332,500.949,453.241,500.581,453.398z"/>
		</g>
		<g>
			<g>
				<g>
					<g>
						<ellipse fill="#F5B244" cx="389.742" cy="361.83" rx="42.813" ry="49.444"/>
						<ellipse fill="#DDA23D" cx="389.742" cy="361.83" rx="32.928" ry="38.028"/>
						<path opacity="0.5" fill="#FFFFFF" d="M389.743,400.998c-18.701,0-33.917-17.57-33.917-39.169
							c0-21.598,15.216-39.17,33.917-39.17c18.702,0,33.916,17.572,33.916,39.17C423.659,383.428,408.445,400.998,389.743,400.998z
							 M389.743,324.943c-17.611,0-31.94,16.547-31.94,36.886c0,20.339,14.328,36.886,31.94,36.886
							c17.612,0,31.94-16.547,31.94-36.886C421.682,341.49,407.355,324.943,389.743,324.943z"/>
					</g>
					<g opacity="0.8">
						<path fill="#FFFFFF" d="M405.468,350.508c0,2.073-1.033,3.768-2.882,3.768c-2.937,0-5.058-6.343-10.06-6.343
							c-1.577,0-2.936,0.879-2.936,2.888c0,6.029,16.586,2.45,16.586,16.895c0,8.226-7.722,12.623-11.692,13.001
							c-1.305,0.125-1.142,0.627-1.142,2.134c0,3.078-0.163,3.016-2.829,3.016c-2.501,0-3.153,0.44-3.153-2.764
							c0-1.005,0.273-2.196-0.815-2.323c-2.067-0.314-6.309-1.382-7.886-2.7c-1.903-1.634-2.99-7.224-2.99-9.736
							c0-1.443,0.543-2.951,1.957-2.951c3.753,0,2.991,8.792,11.42,8.792c1.197,0,3.97-0.628,3.97-2.7
							c0-1.885-0.489-2.26-6.363-4.711c-4.948-2.01-10.114-5.965-10.114-12.749c0-6.28,4.404-11.304,9.571-12.497
							c1.413-0.314,1.25-0.502,1.25-2.199c0-3.14,0.163-3.014,2.828-3.014c2.555,0,3.154-0.44,3.154,2.763
							c0,0.879-0.271,2.136,0.707,2.386c0.707,0.126,3.425,0.942,3.751,0.942c0.654,0,1.469-0.627,2.447-0.627
							C402.259,341.779,405.468,346.615,405.468,350.508z"/>
					</g>
				</g>
			</g>
			<path fill="#EF5A35" d="M332.753,394.099c0,0,20.116-5.729,46.596-5.729c26.48,0,59.367,17.797,59.367,17.797l-12.282,39.131
				l-90.79-28.962L332.753,394.099z"/>
		</g>
		<g>
			<path fill="#0C5054" d="M705.268,184.088l-206.334,4.626c0,0-2.696,0.572-2.696,2.225c0,1.416,4.214,69.647,5.422,89.167
				c0.202,3.264-0.103,5.203,4.218,5.203c4.321,0,195.724,1.926,195.724,1.926L705.268,184.088z"/>
		</g>
		<path fill="#F1B085" d="M358.844,296.889c-2.094,3.76-4.35,8.313-6.901,14.078c-14.817,33.484-11.433,49.9-6.774,57.971
			c4.659,8.07,13.007,2.466,16.112-1.569c3.106-4.035,6.707-35.708,19.483-56.148c2.722-4.354,6.031-8.645,9.648-12.557
			C380.009,297.158,369.439,296.188,358.844,296.889z"/>
		<path fill="#F1B085" d="M428.029,314.698c-1.275,3.768-2.468,7.778-2.999,12.194c-0.212,1.767-0.452,3.728-0.693,5.822
			c5.163,8.168,8.218,18.228,8.218,29.116c0,5.391-0.757,10.575-2.138,15.433c0.503,0.21,1.035,0.372,1.602,0.474
			c14.548,2.62,13.975-30.361,20.444-52.191C444.441,321.565,436.378,317.784,428.029,314.698z"/>
		<path fill="#EF5A35" d="M505.665,456.49c-1.001-0.49-1.982-1.038-2.94-1.645c-2.451-1.548-3.35-5.098-2.008-7.929
			c1.34-2.831,4.422-3.857,6.865-2.32c5.002,3.161,11.092,4.081,15.963,2.429c-4.961-6.056-6.375-13.991-3.852-22.358
			c2.829-9.384,7.154-11.977,10.285-12.499c3.82-0.638,7.562,1.49,10.264,5.839c3.534,5.688,5.454,16.095,1.319,25.502
			c-0.169,0.388-0.345,0.769-0.526,1.143c3.639,0.682,7.074,0.221,8.861-1.281c2.258-1.9,5.423-1.324,7.067,1.283
			c1.645,2.609,1.147,6.263-1.111,8.163c-5.443,4.575-14.521,4.947-22.392,1.561c-2.022,1.608-4.267,2.863-6.709,3.736
			C520.172,460.463,512.498,459.835,505.665,456.49z M531.348,423.936c-0.414,0.478-1.237,1.709-2.101,4.571
			c-1.381,4.582-0.576,8.322,2.465,11.395c0.294-0.535,0.57-1.095,0.827-1.682c1.483-3.378,1.67-7.539,0.5-11.135
			C532.489,425.393,531.786,424.374,531.348,423.936z"/>
		<rect x="121.246" y="107.019" fill="none" width="493.91" height="570.408"/>
	</g>
</g>
<g id="Capa_5">
	<g>
		<path fill="#00D0CE" d="M668.183,448.65c0,11.939-9.678,21.617-21.617,21.617H520.919c-11.939,0-21.617-9.678-21.617-21.617
			V323.003c0-11.939,9.678-21.617,21.617-21.617h125.647c11.939,0,21.617,9.678,21.617,21.617V448.65z"/>
		<path fill="#009DB3" d="M583.742,301.386h-62.824c-11.939,0-21.617,9.678-21.617,21.617V448.65
			c0,11.939,9.678,21.617,21.617,21.617h62.824V301.386z"/>
		<path fill="#FF3C07" d="M484.44,631.042c0,11.939-9.678,21.617-21.617,21.617H337.176c-11.939,0-21.617-9.678-21.617-21.617
			V505.394c0-11.939,9.678-21.617,21.617-21.617h125.647c11.939,0,21.617,9.678,21.617,21.617V631.042z"/>
		<path fill="#FF7A2D" d="M400,483.778h-62.824c-11.939,0-21.617,9.678-21.617,21.617v125.647c0,11.939,9.678,21.617,21.617,21.617
			H400V483.778z"/>
		<g>
			<path fill="#00D0CE" d="M300.698,264.908c0,11.939-9.678,21.617-21.617,21.617H153.434c-11.939,0-21.617-9.678-21.617-21.617
				V139.261c0-11.939,9.678-21.617,21.617-21.617h125.647c11.939,0,21.617,9.678,21.617,21.617V264.908z"/>
			<path fill="#009DB3" d="M216.258,117.644h-62.824c-11.939,0-21.617,9.678-21.617,21.617v125.647
				c0,11.939,9.678,21.617,21.617,21.617h62.824V117.644z"/>
			<path fill="#FFC900" d="M249.692,149.636v-7.109h-66.869v7.109h-18.525l0.853,14.024c0.837,13.751,8.515,26.165,20.447,33.049
				l11.065,6.383c2.51,3.173,5.307,6.036,8.388,8.479l0.02,0.016c0.168,2.483,0.516,8.734-0.076,10.863
				c-0.744,2.679-1.488,38.549-1.488,38.549h24.707v-34.382v-13.247c0,0,0.93-2.436,2.275-4.544
				c1.446-2.303,3.232-4.535,5.361-5.735l11.065-6.383c11.93-6.884,19.611-19.298,20.447-33.049l0.854-14.024H249.692z
				 M175.563,167.118l-0.446-7.299h7.706v1.19c0,8.71,1.526,17.155,4.328,24.834C180.387,181.945,176.037,174.91,175.563,167.118z
				 M256.952,167.118c-0.475,7.792-4.826,14.827-11.588,18.725c2.801-7.679,4.328-16.124,4.328-24.834v-1.19h7.706L256.952,167.118z
				"/>
			<path fill="#FFE15C" d="M194.817,182.016c-2.481-8.918-2.565-18.121-2.643-26.242c-0.016-1.874,1.49-3.406,3.363-3.426
				c1.706-0.007,3.406,1.488,3.426,3.364c0.071,7.699,0.155,16.426,2.396,24.483c0.5,1.806-0.555,3.679-2.361,4.18
				c-0.304,0.084-0.607,0.124-0.911,0.124C196.6,184.499,195.236,183.517,194.817,182.016z"/>
			<circle fill="#FFE15C" cx="201.485" cy="189.873" r="3.536"/>
			<path fill="#FF9557" d="M209.915,238.762c0-3.298-1.945-6.12-4.737-7.45c2.7-1.363,4.57-4.128,4.57-7.357
				c0-4.564-3.704-8.268-8.268-8.268c-4.564,0-6.346,3.704-6.346,8.268c0,3.306,0.952,6.136,3.2,7.46
				c-2.121,1.364-3.032,4.126-3.032,7.346c0,3.189,0.897,5.927,2.978,7.306c-2.081,1.376-2.978,4.115-2.978,7.306
				c0,4.566,1.779,8.268,6.345,8.268c4.564,0,8.268-3.702,8.268-8.268c0-3.191-1.83-5.931-4.477-7.306
				C208.085,244.689,209.915,241.951,209.915,238.762z"/>
			<path fill="#FF9557" d="M221.192,226.63c1.402,2.032,1.666,4.644,0.702,6.92c-1.606,3.798-0.357,9.443-0.357,14.488
				c0,6.124,0.857,10.785,3.61,13.517h19.515c11.526-7.357,2.267-27.266-3.151-31.578c-9.667-7.69-13.174-15.92-13.269-16.169
				c-1.183-3.222-4.741-4.888-7.978-3.724c-3.242,1.168-4.922,4.745-3.757,7.988C216.602,218.335,217.91,221.867,221.192,226.63z"/>
		</g>
		<g>
			<path fill="#FF9557" d="M668.183,264.908c0,11.939-9.678,21.617-21.617,21.617H520.919c-11.939,0-21.617-9.678-21.617-21.617
				V139.261c0-11.939,9.678-21.617,21.617-21.617h125.647c11.939,0,21.617,9.678,21.617,21.617V264.908z"/>
			<path fill="#FF7B00" d="M583.742,117.644h-62.824c-11.939,0-21.617,9.678-21.617,21.617v125.647
				c0,11.939,9.678,21.617,21.617,21.617h62.824V117.644z"/>
			<path fill="#FFC900" d="M607.813,210.237l-25.295,14.792c-8.166-5.005-23.677-13.614-23.677-13.614l-28.034,27.326l22.404,0.494
				l0.499,22.409l30.035-29.882c3.59,3.442,7.901,7.531,7.783,7.633l22.244,22.249l0.499-22.409l22.404-0.494L607.813,210.237z"/>
			<path fill="#FF3C07" d="M602.092,212.929l-19.573,12.1c-8.166-5.005-19.133-12.1-19.133-12.1l-26.253,25.916l16.079,0.389
				l0.413,12.737l25.748-25.58c3.59,3.442,8.028,0.067,7.91,0.168l26.589,26.926l0.401-14.252l15.25-0.389L602.092,212.929z"/>
			<path fill="#009DB3" d="M598.49,226.672l8.636,1.423c1.447,0.239,2.926-0.113,4.114-0.973c1.186-0.864,1.975-2.164,2.195-3.616
				l1.304-8.641c0.261-1.725,1.345-3.217,2.908-4.001l7.821-3.914c1.311-0.654,2.302-1.812,2.756-3.202
				c0.454-1.394,0.33-2.912-0.343-4.212l-4.021-7.774c-0.802-1.55-0.802-3.387,0-4.938l4.021-7.773
				c0.673-1.3,0.797-2.817,0.343-4.212c-0.454-1.39-1.445-2.549-2.756-3.203l-7.821-3.914c-1.563-0.784-2.647-2.277-2.908-4.005
				l-1.304-8.638c-0.219-1.452-1.009-2.752-2.195-3.616c-1.187-0.861-2.667-1.213-4.114-0.973l-8.636,1.424
				c-1.723,0.283-3.473-0.283-4.698-1.525l-6.15-6.23c-1.029-1.045-2.434-1.634-3.899-1.634c-1.463,0-2.869,0.588-3.898,1.634
				l-6.151,6.23c-1.225,1.242-2.975,1.808-4.698,1.525l-8.636-1.424c-1.445-0.239-2.926,0.113-4.114,0.973
				c-1.186,0.864-1.975,2.164-2.195,3.616l-1.304,8.641c-0.261,1.725-1.345,3.217-2.908,4.001l-7.821,3.914
				c-1.311,0.654-2.302,1.812-2.756,3.203c-0.454,1.394-0.33,2.912,0.343,4.212l4.021,7.773c0.802,1.55,0.802,3.387,0,4.938
				l-4.021,7.774c-0.674,1.3-0.797,2.817-0.343,4.212c0.454,1.39,1.445,2.549,2.756,3.202l7.821,3.914
				c1.563,0.785,2.647,2.277,2.908,4.005l1.304,8.638c0.22,1.452,1.009,2.752,2.195,3.616c1.187,0.86,2.669,1.212,4.114,0.973
				l8.636-1.423c1.723-0.283,3.473,0.283,4.698,1.525l6.151,6.23c1.029,1.046,2.435,1.634,3.898,1.634
				c1.465,0,2.87-0.588,3.899-1.634l6.15-6.23C595.017,226.955,596.767,226.389,598.49,226.672z"/>
			<g>
				<path fill="#FF7B00" d="M583.741,220.917c-17.888,0-32.443-14.555-32.443-32.441c0-17.89,14.555-32.445,32.443-32.445
					c17.89,0,32.445,14.555,32.445,32.445C616.186,206.362,601.631,220.917,583.741,220.917z"/>
			</g>
			<g>
				<path fill="none" stroke="#09A3B1" stroke-width="5" stroke-miterlimit="10" d="M583.742,214.146
					c-14.155,0-25.672-11.517-25.672-25.67c0-14.156,11.517-25.673,25.672-25.673c14.156,0,25.674,11.517,25.674,25.673
					C609.415,202.629,597.898,214.146,583.742,214.146z"/>
				<path fill="#FFCF00" d="M583.742,214.146c-14.155,0-25.672-11.517-25.672-25.67c0-14.156,11.517-25.673,25.672-25.673
					c14.156,0,25.674,11.517,25.674,25.673C609.415,202.629,597.898,214.146,583.742,214.146z"/>
			</g>
			<polygon fill="#009DB3" points="565.573,176.6 566.688,181.683 572.217,179.051 572.306,179.051 572.306,202.015 578.86,202.015 
				578.86,173.03 573.243,173.03 			"/>
			<path fill="#009DB3" d="M597.626,180.931l-4.916,1.122v3.5h-2.144c0,0-2.191-0.363-3.537-0.363c-3.992,0-6.564,2.273-6.564,5.279
				c-0.033,1.91,1.255,3.725,4.586,4.847c1.88,0.628,2.374,1.024,2.374,1.848c0,0.828-0.626,1.35-2.144,1.35
				c-1.485,0-3.399-0.657-4.321-1.22l-0.891,3.594c1.22,0.661,3.101,1.125,5.212,1.125c4.618,0,6.994-2.211,6.994-5.214
				c-0.033-2.375-1.32-3.925-4.388-4.981c-1.981-0.694-2.607-1.089-2.607-1.848c0-0.824,0.693-1.318,1.913-1.318
				c1.387,0,3.584,0.592,3.584,0.592h1.931v6.597c0,2.28,0.463,3.831,1.387,4.785c0.792,0.828,2.144,1.387,3.761,1.387
				c1.418,0,2.605-0.167,3.266-0.428l-0.035-3.794c-0.361,0.065-0.857,0.131-1.483,0.131c-1.518,0-1.981-0.89-1.981-2.836v-5.842
				h3.596v-3.693h-3.596V180.931z"/>
		</g>
		<g>
			<path fill="#FFC900" d="M300.698,631.042c0,11.939-9.678,21.617-21.617,21.617H153.434c-11.939,0-21.617-9.678-21.617-21.617
				V505.394c0-11.939,9.678-21.617,21.617-21.617h125.647c11.939,0,21.617,9.678,21.617,21.617V631.042z"/>
			<path fill="#FFE15C" d="M216.258,483.778h-62.824c-11.939,0-21.617,9.678-21.617,21.617v125.647
				c0,11.939,9.678,21.617,21.617,21.617h62.824V483.778z"/>
			<circle fill="#FFC900" cx="216.173" cy="568.841" r="37.857"/>
			<path fill="#09A4B2" d="M188.953,607.962l6.343-1.047h-10.874C185.74,607.842,187.363,608.221,188.953,607.962z"/>
			<path fill="#009DB3" d="M203.938,608.078l6.909,6.998c1.159,1.176,2.741,1.837,4.387,1.837c1.642,0,3.228-0.661,4.38-1.837
				l6.913-6.998c0.495-0.502,1.076-0.866,1.692-1.162h-25.976C202.862,607.211,203.443,607.576,203.938,608.078z"/>
			<path fill="#09A4B2" d="M241.512,607.962c1.589,0.259,3.217-0.121,4.53-1.047h-10.874L241.512,607.962z"/>
			<path fill="#009DB3" d="M170.147,566.724c0.902,1.742,0.902,3.813,0,5.55l-2.851,5.505h12.655
				c-0.77-2.945-1.223-6.018-1.223-9.203c0-20.127,16.375-36.504,36.506-36.504c20.131,0,36.502,16.376,36.502,36.504
				c0,3.185-0.453,6.258-1.223,9.203h12.655l-2.854-5.505c-0.91-1.737-0.91-3.807,0-5.55l4.523-8.737
				c0.755-1.459,0.891-3.162,0.381-4.729c-0.51-1.567-1.631-2.866-3.096-3.602l-8.785-4.399c-1.763-0.883-2.983-2.565-3.281-4.498
				l-1.461-9.712c-0.238-1.631-1.129-3.098-2.465-4.059c-1.329-0.97-2.994-1.363-4.617-1.097l-9.711,1.603
				c-1.933,0.315-3.9-0.323-5.274-1.72l-6.913-7.005c-1.151-1.167-2.737-1.829-4.38-1.829c-1.646,0-3.228,0.663-4.387,1.829
				l-6.909,7.005c-1.371,1.397-3.345,2.035-5.278,1.72l-9.707-1.603c-1.623-0.266-3.292,0.126-4.621,1.097
				c-1.337,0.961-2.224,2.428-2.465,4.059l-1.465,9.712c-0.294,1.933-1.51,3.615-3.273,4.498l-8.785,4.399
				c-1.473,0.736-2.59,2.035-3.096,3.602c-0.514,1.567-0.378,3.27,0.381,4.729L170.147,566.724z"/>
			<path fill="#009DB3" d="M245.284,577.779c0.91-2.936,1.397-6.049,1.397-9.278c0-17.299-14.068-31.371-31.363-31.371
				c-17.303,0-31.375,14.072-31.375,31.371c0,3.23,0.491,6.343,1.401,9.278h7.004c-1.159-2.872-1.816-5.996-1.816-9.278
				c0-13.666,11.119-24.783,24.787-24.783c13.66,0,24.779,11.117,24.779,24.783c0,3.283-0.657,6.407-1.82,9.278H245.284z"/>
			<polygon fill="#FF7B00" points="280.685,589.287 270.632,589.467 271.073,601.804 270.938,577.731 161.589,577.731 
				161.589,601.804 162.217,589.216 151.83,589.287 157.1,604.707 151.83,619.496 179.18,619.496 179.07,606.195 161.589,606.816 
				270.93,606.816 253.275,606.195 253.335,619.496 280.685,619.496 275.415,604.707 			"/>
			<polygon fill="#FF3C07" points="178.819,606.698 161.589,606.698 179.18,619.496 			"/>
			<polygon fill="#FF3C07" points="253.401,606.824 270.003,606.824 253.335,619.496 			"/>
		</g>
		<g>
			<path fill="#FF7A2D" d="M668.183,631.042c0,11.939-9.678,21.617-21.617,21.617H520.919c-11.939,0-21.617-9.678-21.617-21.617
				V505.394c0-11.939,9.678-21.617,21.617-21.617h125.647c11.939,0,21.617,9.678,21.617,21.617V631.042z"/>
			<path fill="#FF9557" d="M583.742,483.778h-62.824c-11.939,0-21.617,9.678-21.617,21.617v125.647
				c0,11.939,9.678,21.617,21.617,21.617h62.824V483.778z"/>
			<path fill="#FFD000" d="M614.078,629.385c0-4.944-4.01-8.952-8.954-8.952h-0.521v-25.465l-13.285-12.467h-3.63v-6.771
				l22.149,11.644l-4.978-29.059l21.111-20.581l-29.177-4.245l-13.052-26.438l-13.05,26.438l-29.177,4.241l21.111,20.584
				l-4.984,29.059l22.207-11.674v6.801h-3.63l-13.288,12.467v25.465h-0.517c-4.944,0-8.954,4.008-8.954,8.952H614.078z"/>
			<path fill="#009DB3" d="M576.218,582.501h15.101l13.285,12.467v25.465c0,0,4.428-0.452,7.312,2.981
				c2.998,3.569,2.163,5.971,2.163,5.971h-60.62c0,0-0.32-3.499,2.839-6.657c2.953-2.953,6.632-2.295,6.632-2.295v-25.465
				L576.218,582.501z"/>
			<g>
				<polygon fill="#00D0CE" points="604.604,594.902 604.604,594.883 591.319,582.417 576.218,582.417 562.93,594.883 
					562.93,594.902 				"/>
				<path fill="#00D0CE" d="M611.916,623.329c-2.884-3.433-7.311-2.981-7.311-2.981v-0.04H562.93v0.04c0,0-0.126-0.022-0.346-0.04
					h-1.141c-1.343,0.093-3.372,0.562-5.145,2.335c-3.158,3.158-2.839,6.657-2.839,6.657h60.62
					C614.078,629.3,614.914,626.898,611.916,623.329z"/>
			</g>
			<polygon fill="#FFE15C" points="583.741,507.051 583.741,550.63 570.691,533.489 			"/>
			<polygon fill="#FFE15C" points="541.514,537.731 583.741,550.63 562.625,558.315 			"/>
			<polygon fill="#FFE15C" points="557.641,587.374 583.741,550.63 583.741,574.365 			"/>
			<polygon fill="#FFE15C" points="583.741,550.63 625.971,537.734 596.793,533.489 			"/>
			<polygon fill="#FFE15C" points="604.86,558.315 609.838,587.374 583.741,550.63 			"/>
			<path fill="#FFE266" d="M562.93,594.968"/>
			<path fill="#CFF1F4" fill-opacity="0.3" d="M583.626,582.396h-7.408l-13.288,12.495v25.522c0,0-3.679-0.66-6.632,2.3
				c-3.158,3.166-2.839,6.672-2.839,6.672h30.167V582.396z"/>
		</g>
		<path fill="#FFC900" d="M602.26,385.176l10.44-6.03c18.16-10.475,23.056-32.911,15.925-40.483
			c-4.183-4.445-8.767-3.927-13.307-3.927v-6.705H552.23v6.705c-4.46,0-9.085-0.554-13.304,3.927
			c-7.518,7.984-1.659,30.341,15.921,40.483l10.44,6.03c4.37,5.513,7.525,7.689,13.225,12.207l-0.004,5.87
			c-10.239,1.739-18.719,28.74-23.018,37.837c-3.6,0-6.519,2.92-6.519,6.519h69.638c0-3.599-2.919-6.519-6.517-6.519h-0.038
			c-4.3-9.096-12.779-36.094-23.016-37.837l-0.004-5.87C594.757,392.847,597.887,390.688,602.26,385.176z M615.318,344.346
			c11.342,0,7.555,17.836-4.083,24.555C614.333,360.41,615.318,352.597,615.318,344.346z M552.23,344.346
			c0,8.342,1.01,16.129,4.083,24.555C544.767,362.233,540.844,344.346,552.23,344.346z"/>
		<path fill="#FFE15C" d="M563.545,365.284c-2.34-8.414-2.419-17.095-2.493-24.759c-0.044-4.284,6.364-4.193,6.406-0.055
			c0.069,7.263,0.146,15.495,2.262,23.1C570.857,367.65,564.697,369.401,563.545,365.284z"/>
		<path fill="#FFE15C" d="M566.5,372.7c0-4.411,6.672-4.408,6.672,0C573.172,377.108,566.5,377.111,566.5,372.7z"/>
		<path fill="#FFFFFF" d="M606.089,342.388c0,0-1.294-5.647-2.532-6.886c-1.054-1.054-6.639-2.285-6.639-2.285
			s5.678-1.695,6.886-2.903c1.085-1.085,2.285-6.268,2.285-6.268s1.478,5.461,2.532,6.515c1.239,1.239,6.639,2.656,6.639,2.656
			s-5.508,1.278-6.515,2.285C607.459,336.787,606.089,342.388,606.089,342.388z"/>
		<path fill="#FFFFFF" d="M566.48,441.112c0,0-1.214-3.191-2.037-3.813c-0.701-0.53-4.06-0.795-4.06-0.795s3.176-1.45,3.783-2.253
			c0.545-0.721,0.825-3.844,0.825-3.844s1.306,3.067,2.007,3.597c0.823,0.622,4.09,1.011,4.09,1.011s-3.111,1.193-3.617,1.863
			C566.825,437.732,566.48,441.112,566.48,441.112z"/>
		<path fill="#FFFFFF" d="M599.061,346.673c0,0-0.52-2.269-1.017-2.767c-0.424-0.423-2.667-0.918-2.667-0.918
			s2.281-0.681,2.767-1.166c0.436-0.436,0.918-2.518,0.918-2.518s0.594,2.194,1.017,2.618c0.498,0.498,2.667,1.067,2.667,1.067
			s-2.213,0.513-2.618,0.918C599.612,344.422,599.061,346.673,599.061,346.673z"/>
		<path fill="#FFFFFF" d="M570.689,429.987c0,0-0.52-2.269-1.017-2.767c-0.423-0.424-2.667-0.918-2.667-0.918
			s2.281-0.681,2.767-1.166c0.436-0.436,0.918-2.518,0.918-2.518s0.594,2.194,1.017,2.618c0.498,0.498,2.667,1.067,2.667,1.067
			s-2.213,0.513-2.618,0.918C571.24,427.737,570.689,429.987,570.689,429.987z"/>
		<g>
			<path fill="#BCBCBC" d="M484.44,264.908c0,11.939-9.678,21.617-21.617,21.617H337.176c-11.939,0-21.617-9.678-21.617-21.617
				V139.261c0-11.939,9.678-21.617,21.617-21.617h125.647c11.939,0,21.617,9.678,21.617,21.617V264.908z"/>
			<path fill="#909090" d="M400,117.644h-62.824c-11.939,0-21.617,9.678-21.617,21.617v125.647c0,11.939,9.678,21.617,21.617,21.617
				H400V117.644z"/>
			<path fill="#FFC900" d="M423.302,148.748v-4.959l-20.576,0.011l-26.08,0.011v4.963l-12.924,0.008l0.601,9.784
				c0.59,9.59,5.952,18.249,14.28,23.048l7.723,4.448c1.747,2.215,3.7,4.213,5.855,5.911l3.944,3.129l-0.019,6.262
				c-7.562,1.285-13.836,6.259-17.013,12.996h-4.817l0.004,5.239l51.492-0.026v-5.24h-4.847
				c-3.181-6.729-9.459-11.695-17.024-12.976l-0.026-6.259l3.944-3.13c2.147-1.71,4.1-3.704,5.852-5.919l7.711-4.463
				c8.323-4.802,13.678-13.474,14.257-23.059l0.586-9.784L423.302,148.748z M371.589,160.971l-0.31-5.09l5.37-0.004v0.833
				c0.004,6.076,1.072,11.969,3.032,17.32C374.962,171.314,371.918,166.408,371.589,160.971z M428.37,160.941
				c-0.321,5.437-3.357,10.347-8.074,13.07c1.953-5.359,3.017-11.252,3.014-17.327v-0.829l5.37-0.004L428.37,160.941z"/>
			<path fill="#FF7A2D" d="M432.253,246.963v-28.201h-64.506v28.201c-6.247,0-11.311,5.064-11.311,11.311v3.828h87.128v-3.828
				C443.564,252.026,438.5,246.963,432.253,246.963z"/>
			<rect x="383.823" y="229.598" fill="#FF3C07" width="32.037" height="21.599"/>
			<rect x="386.075" y="231.116" fill="#FF9557" width="27.533" height="18.563"/>
			<path fill="#FFFFFF" d="M415.724,152.303c0,0-0.722-3.151-1.413-3.843c-0.588-0.588-3.705-1.275-3.705-1.275
				s3.168-0.946,3.843-1.62c0.605-0.605,1.275-3.498,1.275-3.498s0.825,3.048,1.413,3.636c0.691,0.691,3.705,1.482,3.705,1.482
				s-3.074,0.713-3.636,1.275C416.489,149.177,415.724,152.303,415.724,152.303z"/>
			<g>
				<path fill="#FFE15C" d="M392.15,176.838c0,1.363-1.105,2.472-2.464,2.472c-1.363,0-2.476-1.105-2.476-2.468
					c0-1.367,1.109-2.469,2.472-2.469C391.041,174.373,392.15,175.475,392.15,176.838z"/>
				<path fill="#FFE15C" d="M385.522,150.66c1.188-0.004,2.371,1.034,2.39,2.341c0.052,5.374,0.112,11.464,1.681,17.085
					c0.347,1.262-0.389,2.566-1.643,2.917c-0.213,0.056-0.426,0.089-0.639,0.089c-1.038,0-1.994-0.683-2.286-1.736
					c-1.733-6.218-1.796-12.637-1.852-18.302C383.162,151.747,384.211,150.675,385.522,150.66z"/>
			</g>
		</g>
		<path fill="#00D0CE" d="M361.511,529.871c0,0-4.503,31.524,8.106,50.889c12.61,19.365,23.418,27.922,29.723,27.922
			c6.305,0,36.022-16.719,37.379-58.095c0.901-27.471-15.312-29.273-36.929-29.723C378.174,520.414,361.511,529.871,361.511,529.871
			z"/>
		<g>
			<path fill="#009DB3" d="M418.309,518.252c-5.064,0-31.557,0-36.621,0c-26.243,0-26.243,2.707-26.243,36.162
				c0,5.005,0.643,10.389,1.821,15.848h11.53c-1.338-5.431-2.125-10.85-2.125-15.852c0-6.885,0-13.918,0.355-18.739
				c0.244-3.262,2.862-5.826,6.129-6.01c6.703-0.379,50.503-0.184,53.731,0.012c3.253,0.199,5.843,2.766,6.085,6.017
				c0.357,4.821,0.357,11.851,0.357,18.724c0,5.001-0.787,10.42-2.125,15.848h11.53c1.178-5.459,1.819-10.843,1.819-15.848
				C444.552,520.963,444.549,518.252,418.309,518.252z"/>
			<path fill="#009DB3" d="M400,603.52c-2.272,0-4.544-0.668-6.781-1.801h-17.297c6.924,7.877,15.174,13.027,24.078,13.027
				s17.153-5.15,24.078-13.027h-17.297C404.544,602.852,402.272,603.52,400,603.52z"/>
		</g>
		<polygon fill="#FFE15C" points="468.839,582.776 457.573,582.586 457.414,569.23 342.598,569.23 342.598,582.586 331.161,582.776 
			337.338,600.853 331.161,618.184 363.223,618.184 363.223,604.919 342.598,603.322 457.402,603.322 436.781,604.919 
			436.781,618.184 468.839,618.184 462.655,600.853 		"/>
		<polygon fill="#FFC900" points="343.345,603.328 363.005,603.328 363.223,618.184 		"/>
		<polygon fill="#FFC900" points="456.489,603.279 436.568,603.279 436.698,618.184 		"/>
		<g>
			<path fill="#FFE15C" d="M484.44,448.65c0,11.939-9.678,21.617-21.617,21.617H337.176c-11.939,0-21.617-9.678-21.617-21.617
				V323.003c0-11.939,9.678-21.617,21.617-21.617h125.647c11.939,0,21.617,9.678,21.617,21.617V448.65z"/>
			<path fill="#FFC900" d="M400,301.386h-62.824c-11.939,0-21.617,9.678-21.617,21.617V448.65c0,11.939,9.678,21.617,21.617,21.617
				H400V301.386z"/>
			<path fill="#FFE15C" d="M402.878,403.071v-72.418h-15.612c0,0-0.656,13.25-13.382,19.679
				c-12.726,6.428-17.973,7.084-17.973,7.084s-3.673,30.305,4.985,44.999S402.878,403.071,402.878,403.071z"/>
			<path fill="#FF7B00" d="M400,444.717c7.189-0.426,19.189-8.097,25.312-13.177H374.54C380.665,436.62,392.811,444.291,400,444.717
				z"/>
			<path fill="#FF7B00" d="M447.953,352.049c-1.397,0.223-2.819,0.369-4.273,0.369c-14.945,0-27.058-12.109-27.058-27.052h-33.244
				c0,14.943-12.113,27.052-27.054,27.052c-1.458,0-2.878-0.147-4.275-0.369c-0.898,5.506-1.378,12.097-1.378,20.027
				c0,7.075,2.454,19.322,4.994,27.423h8.201c-2.688-7.887-5.334-20.135-5.334-27.423c0-4.311,0.152-8.289,0.451-11.894
				c15.556-1.18,28.299-12.594,31.487-27.507c2.73-0.011,5.998-0.015,9.53-0.015v66.694h45.385c2.541-8.1,3.946-20.203,3.946-27.278
				C449.331,364.146,448.851,357.555,447.953,352.049z"/>
			<polygon fill="#00D0CE" points="462.279,412.252 450.803,412.252 451.449,426.353 451.295,399.231 348.716,399.231 
				348.716,426.353 349.197,412.252 337.721,412.252 343.661,429.625 337.721,446.287 368.538,446.287 368.538,433.537 
				348.716,432.004 451.286,432.004 431.464,433.537 431.464,446.287 462.279,446.287 456.339,429.625 			"/>
			<polygon fill="#009DB3" points="348.716,432.004 368.505,432.004 368.505,446.287 			"/>
			<polygon fill="#009DB3" points="450.501,431.934 431.215,431.934 431.215,446.287 			"/>
		</g>
		<g>
			<path fill="#FF3C07" d="M300.698,448.65c0,11.939-9.678,21.617-21.617,21.617H153.434c-11.939,0-21.617-9.678-21.617-21.617
				V323.003c0-11.939,9.678-21.617,21.617-21.617h125.647c11.939,0,21.617,9.678,21.617,21.617V448.65z"/>
			<path fill="#FF7A2D" d="M216.258,301.386h-62.824c-11.939,0-21.617,9.678-21.617,21.617V448.65
				c0,11.939,9.678,21.617,21.617,21.617h62.824V301.386z"/>
			<g>
				<polygon fill="#00D0CE" points="227.898,326.498 217.98,343.293 207.789,326.378 164.293,326.378 196.233,379.378 
					196.072,379.645 236.814,384.122 271.391,326.498 				"/>
				<polygon fill="#FF7A2D" points="236.02,326.498 217.98,354.103 199.666,326.378 170.791,326.378 202.731,379.378 
					209.068,379.645 231.443,379.645 263.269,326.498 				"/>
				<polygon fill="#FFE15C" points="240.894,326.498 217.98,362.225 193.169,326.378 177.289,326.378 210.853,379.378 
					209.068,379.645 224.945,379.645 256.771,326.498 				"/>
				<path fill="#FFD000" d="M218.096,373.782c-22.525,0-40.854,18.329-40.854,40.854c0,22.527,18.328,40.856,40.854,40.856
					c22.528,0,40.856-18.329,40.856-40.856C258.952,392.111,240.624,373.782,218.096,373.782z"/>
				<path fill="#FFC900" d="M218.096,446.581c-17.614,0-31.943-14.332-31.943-31.945c0-17.613,14.33-31.944,31.943-31.944
					c17.615,0,31.948,14.33,31.948,31.944C250.044,432.249,235.712,446.581,218.096,446.581z"/>
				<path fill="#FFE15C" d="M191.66,432.544c5.752,8.464,15.454,14.038,26.436,14.038c17.616,0,31.948-14.332,31.948-31.945
					c0-7.733-2.765-14.831-7.355-20.363L191.66,432.544z"/>
				<path fill="#FF7A2D" d="M218.096,450.151c-19.582,0-35.513-15.932-35.513-35.515s15.931-35.514,35.513-35.514
					c19.584,0,35.517,15.931,35.517,35.514S237.68,450.151,218.096,450.151z M218.096,386.262
					c-15.645,0-28.374,12.728-28.374,28.374c0,15.646,12.728,28.375,28.374,28.375c15.648,0,28.378-12.729,28.378-28.375
					C246.474,398.99,233.744,386.262,218.096,386.262z"/>
			</g>
		</g>
	</g>
</g>
</svg>
