<?xml version="1.0" encoding="utf-8"?>
<!-- Generator: Adobe Illustrator 17.0.0, SVG Export Plug-In . SVG Version: 6.00 Build 0)  -->
<!DOCTYPE svg PUBLIC "-//W3C//DTD SVG 1.1//EN" "http://www.w3.org/Graphics/SVG/1.1/DTD/svg11.dtd">
<svg version="1.1" xmlns="http://www.w3.org/2000/svg" xmlns:xlink="http://www.w3.org/1999/xlink" x="0px" y="0px" width="800px"
	 height="800px" viewBox="0 0 800 800" enable-background="new 0 0 800 800" xml:space="preserve">
<g id="Capa_3" display="none">
	<path display="inline" fill-rule="evenodd" clip-rule="evenodd" fill="#F06162" d="M760.814,655.793
		c0,41.134-34.838,74.479-77.813,74.479H116.999c-42.975,0-77.813-33.346-77.813-74.479V120.526
		c0-41.134,34.838-74.479,77.813-74.479h566.001c42.975,0,77.813,33.346,77.813,74.479V655.793z"/>
	<path display="inline" fill-rule="evenodd" clip-rule="evenodd" fill="#F0E3C3" d="M729.808,633.022
		c0,37.634-31.844,68.143-71.126,68.143H141.318c-39.282,0-71.126-30.508-71.126-68.143V143.296
		c0-37.634,31.844-68.143,71.126-68.143h517.364c39.282,0,71.126,30.508,71.126,68.143V633.022z"/>
</g>
<g id="background" display="none">
</g>
<g id="object">
	<g>
		<path fill="#F1B085" d="M573.344,266.058c15.142,10.313-11.259-63.371-11.259-63.371s-10.52-16.46-79.204-6.277
			c-48.336,7.166-68.373,20.178-77.671,20.178c-9.299,0-28.236-2.082-40.66-2.082c-12.424,0-28.566,3.464-44.813,9.626
			c-20.682,7.843-13.931,24.189-4.63,23.529c6.246-0.443,7.872-3.387,13.034-3.839c-4.631,3.639-40.775,18.054-44.658,39.577
			c-3.883,21.523,9.191,18.259,17.306,8.968c8.115-9.291,26.974-27.415,34.15-25.566c-2.55,3.373-21.316,17.519-30.818,37.248
			c-14.838,30.807,5.097,34.265,13.25,27.988c8.153-6.277,23.34-37.848,33.303-46.901c11.706-10.637,25.015-14.673,27.961-13.171
			c-10.227,11.644-15.781,14.348-26.691,39.003c-14.817,33.484-11.433,49.9-6.774,57.971c4.659,8.07,13.007,2.466,16.112-1.569
			c3.106-4.035,6.707-35.708,19.483-56.148c12.776-20.44,38.474-39.497,48.34-24.414c8.642,13.21-2.133,23.943-4.075,40.085
			c-1.941,16.142-6.133,48.481,6.988,50.844c19.735,3.554,13.288-64.353,32.7-75.115c19.413-10.761,35.918-30.944,42.518-47.534
			C519.273,255.536,558.201,255.746,573.344,266.058z"/>
		<g>
			<path fill="#DD532F" d="M438.61,366.963c-69.209-30.587-135.324-4.018-135.324-4.018s-10.052-36.617-32.285-30.141
				c-22.232,6.475-10.894,54.591-10.052,58.718c-11.6,4.687-30.738,39.741-30.738,39.741s-27.119,3.628-31.733,4.13
				c-4.616,0.501-5.331,3.435-5.558,4.945c-8.376,55.528,14.553,75.203,22.944,80.433c1.808,1.126,3.195,1.635,6.545,0.344
				c10.702-4.119,33.055-12.473,46.659-24.437c1.677,22.522-22.225,45.046-32.428,53.578c-2.743,2.294-3.627,4.023-1.471,7.57
				c1.683,2.767,11.268,15.112,15.39,20.39c1.156,1.483,2.099,3.39,2.48,5.085c1.896,8.416,7.911,35.504,12.115,46.412
				c1.166,3.029,2.055,4.894,7.596,4.894c5.542,0,27.835,0,32.349,0c5.671,0,5.833-6.595,5.833-6.595l2.987-23.723
				c0,0,10.246,19.423,54.13,19.423c43.884,0,61.669-19.423,61.669-19.423s-5.616,25.237-4.991,22.366
				c0.624-2.871-2.835,7.482,3.214,7.952c6.048,0.469,30.256,0,35.481,0c7.114,0,26.944-58.945,39.176-77.204
				c25.133-37.507,20.492-85.285,17.592-95.332C517.291,452.026,507.82,397.549,438.61,366.963z"/>
			<g>
				<defs>
					<path id="SVGID_1_" d="M573.142,426.875c0,86.997-74.41,172.458-201.046,172.458c-126.636,0-222.676-100.963-222.676-187.96
						c0-86.995,96.04-137.045,222.676-137.045C498.732,274.329,573.142,339.88,573.142,426.875z"/>
				</defs>
				<clipPath id="SVGID_2_">
					<use xlink:href="#SVGID_1_"  overflow="visible"/>
				</clipPath>
				<path clip-path="url(#SVGID_2_)" fill="#DDA23D" d="M438.61,366.963c-69.209-30.587-135.324-4.018-135.324-4.018
					s-10.052-36.617-32.285-30.141c-22.232,6.475-10.894,54.591-10.052,58.718c-11.6,4.687-30.738,39.741-30.738,39.741
					s-27.119,3.628-31.733,4.13c-4.616,0.501-5.331,3.435-5.558,4.945c-8.376,55.528,14.553,75.203,22.944,80.433
					c1.808,1.126,3.195,1.635,6.545,0.344c10.702-4.119,33.055-12.473,46.659-24.437c1.677,22.522-22.225,45.046-32.428,53.578
					c-2.743,2.294-3.627,4.023-1.471,7.57c1.683,2.767,11.268,15.112,15.39,20.39c1.156,1.483,2.099,3.39,2.48,5.085
					c1.896,8.416,7.911,35.504,12.115,46.412c1.166,3.029,2.055,4.894,7.596,4.894c5.542,0,27.835,0,32.349,0
					c5.671,0,5.833-6.595,5.833-6.595l2.987-23.723c0,0,10.246,19.423,54.13,19.423c43.884,0,61.669-19.423,61.669-19.423
					s-5.616,25.237-4.991,22.366c0.624-2.871-2.835,7.482,3.214,7.952c6.048,0.469,30.256,0,35.481,0
					c7.114,0,26.944-58.945,39.176-77.204c25.133-37.507,20.492-85.285,17.592-95.332
					C517.291,452.026,507.82,397.549,438.61,366.963z"/>
				<path clip-path="url(#SVGID_2_)" fill="#EF5A35" d="M438.61,366.963c-69.209-30.587-135.324-4.018-135.324-4.018
					s-10.052-36.617-32.285-30.141c-22.232,6.475-10.894,54.591-10.052,58.718c-11.6,4.687-30.738,39.741-30.738,39.741
					s-27.119,3.628-31.733,4.13c-4.616,0.501-5.331,3.435-5.558,4.945c-8.376,55.528,14.553,75.203,22.944,80.433
					c1.808,1.126,3.195,1.635,6.545,0.344c10.702-4.119,33.055-12.473,46.659-24.437c1.677,22.522-22.225,45.046-32.428,53.578
					c-2.743,2.294-3.627,4.023-1.471,7.57c1.683,2.767,11.268,15.112,15.39,20.39c1.156,1.483,2.099,3.39,2.48,5.085
					c1.896,8.416,7.911,35.504,12.115,46.412c1.166,3.029,2.055,4.894,7.596,4.894c5.542,0,27.835,0,32.349,0
					c5.671,0,5.833-6.595,5.833-6.595l2.987-23.723c0,0,10.246,19.423,54.13,19.423c43.884,0,61.669-19.423,61.669-19.423
					s-5.616,25.237-4.991,22.366c0.624-2.871-2.835,7.482,3.214,7.952c6.048,0.469,30.256,0,35.481,0
					c7.114,0,26.944-58.945,39.176-77.204c25.133-37.507,20.492-85.285,17.592-95.332
					C517.291,452.026,507.82,397.549,438.61,366.963z"/>
			</g>
			<path fill="#C54A29" d="M434.854,406.639c-1.027,0-2.07-0.243-3.068-0.757c-43.639-22.48-92.313-10.142-92.799-10.016
				c-4.055,1.065-8.095-1.872-9.019-6.557c-0.924-4.684,1.61-9.346,5.666-10.418c2.181-0.574,53.951-13.815,102.295,11.089
				c3.803,1.961,5.511,7.108,3.815,11.499C440.49,404.716,437.739,406.639,434.854,406.639z"/>
			<g>
				<defs>
					<path id="SVGID_3_" d="M434.854,416.928c-1.027,0-2.07-0.242-3.068-0.757c-43.639-22.481-92.313-10.142-92.799-10.014
						c-4.055,1.063-8.095-1.873-9.019-6.559c-0.924-4.685,1.61-9.346,5.666-10.417c2.181-0.575,53.951-13.817,102.295,11.087
						c3.803,1.96,5.511,7.106,3.815,11.498C440.49,415.005,437.739,416.928,434.854,416.928z"/>
				</defs>
				<use xlink:href="#SVGID_3_"  overflow="visible" fill="#EF5A35"/>
				<clipPath id="SVGID_4_">
					<use xlink:href="#SVGID_3_"  overflow="visible"/>
				</clipPath>
				<path clip-path="url(#SVGID_4_)" fill="#B24223" d="M434.854,406.639c-1.027,0-2.07-0.243-3.068-0.757
					c-43.639-22.48-92.313-10.142-92.799-10.016c-4.055,1.065-8.095-1.872-9.019-6.557c-0.924-4.684,1.61-9.346,5.666-10.418
					c2.181-0.574,53.951-13.815,102.295,11.089c3.803,1.961,5.511,7.108,3.815,11.499
					C440.49,404.716,437.739,406.639,434.854,406.639z"/>
			</g>
			<g>
				<ellipse fill="#FFFFFF" cx="285.887" cy="438.183" rx="18.233" ry="21.057"/>
				<ellipse fill="#231F20" cx="285.887" cy="438.306" rx="9.897" ry="11.43"/>
				<ellipse fill="#FFFFFF" cx="289.281" cy="430.796" rx="6.503" ry="7.51"/>
			</g>
			<path fill="none" d="M438.61,366.963c-69.209-30.587-135.324-4.018-135.324-4.018s-10.052-36.617-32.285-30.141
				c-22.232,6.475-10.894,54.591-10.052,58.718c-11.6,4.687-30.738,39.741-30.738,39.741s-27.119,3.628-31.733,4.13
				c-4.616,0.501-5.331,3.435-5.558,4.945c-8.376,55.528,14.553,75.203,22.944,80.433c1.808,1.126,3.195,1.635,6.545,0.344
				c10.702-4.119,33.055-12.473,46.659-24.437c1.677,22.522-22.225,45.046-32.428,53.578c-2.743,2.294-3.627,4.023-1.471,7.57
				c1.683,2.767,11.268,15.112,15.39,20.39c1.156,1.483,2.099,3.39,2.48,5.085c1.896,8.416,7.911,35.504,12.115,46.412
				c1.166,3.029,2.055,4.894,7.596,4.894c5.542,0,27.835,0,32.349,0c5.671,0,5.833-6.595,5.833-6.595l2.987-23.723
				c0,0,10.246,19.423,54.13,19.423c43.884,0,61.669-19.423,61.669-19.423s-5.616,25.237-4.991,22.366
				c0.624-2.871-2.835,7.482,3.214,7.952c6.048,0.469,30.256,0,35.481,0c7.114,0,26.944-58.945,39.176-77.204
				c25.133-37.507,19-90.652,16.1-100.699C515.798,446.659,507.82,397.549,438.61,366.963z"/>
			<path fill="#EF5A35" d="M500.581,453.398c-4.039,1.727-6.1,6.907-4.605,11.572c1.493,4.667,5.98,7.05,10.021,5.325
				C510.598,468.332,500.949,453.241,500.581,453.398z"/>
		</g>
		<g>
			<g>
				<g>
					<g>
						<ellipse fill="#F5B244" cx="389.742" cy="361.83" rx="42.813" ry="49.444"/>
						<ellipse fill="#DDA23D" cx="389.742" cy="361.83" rx="32.928" ry="38.028"/>
						<path opacity="0.5" fill="#FFFFFF" d="M389.743,400.998c-18.701,0-33.917-17.57-33.917-39.169
							c0-21.598,15.216-39.17,33.917-39.17c18.702,0,33.916,17.572,33.916,39.17C423.659,383.428,408.445,400.998,389.743,400.998z
							 M389.743,324.943c-17.611,0-31.94,16.547-31.94,36.886c0,20.339,14.328,36.886,31.94,36.886
							c17.612,0,31.94-16.547,31.94-36.886C421.682,341.49,407.355,324.943,389.743,324.943z"/>
					</g>
					<g opacity="0.8">
						<path fill="#FFFFFF" d="M405.468,350.508c0,2.073-1.033,3.768-2.882,3.768c-2.937,0-5.058-6.343-10.06-6.343
							c-1.577,0-2.936,0.879-2.936,2.888c0,6.029,16.586,2.45,16.586,16.895c0,8.226-7.722,12.623-11.692,13.001
							c-1.305,0.125-1.142,0.627-1.142,2.134c0,3.078-0.163,3.016-2.829,3.016c-2.501,0-3.153,0.44-3.153-2.764
							c0-1.005,0.273-2.196-0.815-2.323c-2.067-0.314-6.309-1.382-7.886-2.7c-1.903-1.634-2.99-7.224-2.99-9.736
							c0-1.443,0.543-2.951,1.957-2.951c3.753,0,2.991,8.792,11.42,8.792c1.197,0,3.97-0.628,3.97-2.7
							c0-1.885-0.489-2.26-6.363-4.711c-4.948-2.01-10.114-5.965-10.114-12.749c0-6.28,4.404-11.304,9.571-12.497
							c1.413-0.314,1.25-0.502,1.25-2.199c0-3.14,0.163-3.014,2.828-3.014c2.555,0,3.154-0.44,3.154,2.763
							c0,0.879-0.271,2.136,0.707,2.386c0.707,0.126,3.425,0.942,3.751,0.942c0.654,0,1.469-0.627,2.447-0.627
							C402.259,341.779,405.468,346.615,405.468,350.508z"/>
					</g>
				</g>
			</g>
			<path fill="#EF5A35" d="M332.753,394.099c0,0,20.116-5.729,46.596-5.729c26.48,0,59.367,17.797,59.367,17.797l-12.282,39.131
				l-90.79-28.962L332.753,394.099z"/>
		</g>
		<g>
			<path fill="#0C5054" d="M705.268,184.088l-206.334,4.626c0,0-2.696,0.572-2.696,2.225c0,1.416,4.214,69.647,5.422,89.167
				c0.202,3.264-0.103,5.203,4.218,5.203c4.321,0,195.724,1.926,195.724,1.926L705.268,184.088z"/>
		</g>
		<path fill="#F1B085" d="M358.844,296.889c-2.094,3.76-4.35,8.313-6.901,14.078c-14.817,33.484-11.433,49.9-6.774,57.971
			c4.659,8.07,13.007,2.466,16.112-1.569c3.106-4.035,6.707-35.708,19.483-56.148c2.722-4.354,6.031-8.645,9.648-12.557
			C380.009,297.158,369.439,296.188,358.844,296.889z"/>
		<path fill="#F1B085" d="M428.029,314.698c-1.275,3.768-2.468,7.778-2.999,12.194c-0.212,1.767-0.452,3.728-0.693,5.822
			c5.163,8.168,8.218,18.228,8.218,29.116c0,5.391-0.757,10.575-2.138,15.433c0.503,0.21,1.035,0.372,1.602,0.474
			c14.548,2.62,13.975-30.361,20.444-52.191C444.441,321.565,436.378,317.784,428.029,314.698z"/>
		<path fill="#EF5A35" d="M505.665,456.49c-1.001-0.49-1.982-1.038-2.94-1.645c-2.451-1.548-3.35-5.098-2.008-7.929
			c1.34-2.831,4.422-3.857,6.865-2.32c5.002,3.161,11.092,4.081,15.963,2.429c-4.961-6.056-6.375-13.991-3.852-22.358
			c2.829-9.384,7.154-11.977,10.285-12.499c3.82-0.638,7.562,1.49,10.264,5.839c3.534,5.688,5.454,16.095,1.319,25.502
			c-0.169,0.388-0.345,0.769-0.526,1.143c3.639,0.682,7.074,0.221,8.861-1.281c2.258-1.9,5.423-1.324,7.067,1.283
			c1.645,2.609,1.147,6.263-1.111,8.163c-5.443,4.575-14.521,4.947-22.392,1.561c-2.022,1.608-4.267,2.863-6.709,3.736
			C520.172,460.463,512.498,459.835,505.665,456.49z M531.348,423.936c-0.414,0.478-1.237,1.709-2.101,4.571
			c-1.381,4.582-0.576,8.322,2.465,11.395c0.294-0.535,0.57-1.095,0.827-1.682c1.483-3.378,1.67-7.539,0.5-11.135
			C532.489,425.393,531.786,424.374,531.348,423.936z"/>
		<rect x="121.246" y="107.019" fill="none" width="493.91" height="570.408"/>
	</g>
</g>
</svg>
