<?xml version="1.0" encoding="utf-8"?>
<!-- Generator: Adobe Illustrator 17.0.0, SVG Export Plug-In . SVG Version: 6.00 Build 0)  -->
<!DOCTYPE svg PUBLIC "-//W3C//DTD SVG 1.1//EN" "http://www.w3.org/Graphics/SVG/1.1/DTD/svg11.dtd">
<svg version="1.1" xmlns="http://www.w3.org/2000/svg" xmlns:xlink="http://www.w3.org/1999/xlink" x="0px" y="0px"
	 width="595.28px" height="841.89px" viewBox="0 0 595.28 841.89" enable-background="new 0 0 595.28 841.89" xml:space="preserve">
<g id="Capa_1" display="none">
	<path display="inline" fill-rule="evenodd" clip-rule="evenodd" fill="#F16162" d="M500.832,554.581
		c0,23.164-19.619,41.943-43.82,41.943H138.269c-24.201,0-43.82-18.778-43.82-41.943V253.146c0-23.164,19.619-41.943,43.82-41.943
		h318.743c24.201,0,43.82,18.778,43.82,41.943V554.581z"/>
	<path display="inline" opacity="0.7" fill-rule="evenodd" clip-rule="evenodd" fill="#F4ABAB" d="M483.371,541.758
		c0,21.194-17.933,38.374-40.055,38.374H151.964c-22.122,0-40.055-17.181-40.055-38.374V265.969
		c0-21.194,17.933-38.374,40.055-38.374h291.352c22.122,0,40.055,17.181,40.055,38.374V541.758z"/>
</g>
<g id="Capa_3" display="none">
	<path display="inline" fill-rule="evenodd" clip-rule="evenodd" fill="#F16262" d="M507.836,545.653
		c0,24.306-20.586,44.01-45.98,44.01H127.405c-25.394,0-45.98-19.704-45.98-44.01v-316.29c0-24.306,20.586-44.01,45.98-44.01
		h334.451c25.394,0,45.98,19.704,45.98,44.01V545.653z"/>
	<path display="inline" fill-rule="evenodd" clip-rule="evenodd" fill="#F0E3C3" d="M489.515,532.198
		c0,22.238-18.817,40.266-42.029,40.266H141.775c-23.212,0-42.029-18.027-42.029-40.266v-289.38
		c0-22.238,18.817-40.266,42.029-40.266h305.711c23.212,0,42.029,18.027,42.029,40.266V532.198z"/>
</g>
<g id="Capa_2">
	<path fill="none" stroke="#F2E7DA" stroke-width="6" stroke-miterlimit="10" d="M424.81,392.215
		c0-69.873-56.643-126.516-126.516-126.516s-126.516,56.643-126.516,126.516"/>
	<path fill="none" stroke="#F2E7DA" stroke-miterlimit="10" d="M413.058,383.582c0-60.337-54.426-109.25-114.763-109.25
		c-60.337,0-114.762,48.913-114.762,109.25"/>
	<g>
		<path fill="#0EA89E" d="M387.324,345.547c-9.758,0-18.932-3.8-25.832-10.7c-14.243-14.245-14.243-37.421,0-51.666
			c6.9-6.9,16.075-10.7,25.833-10.7s18.932,3.8,25.832,10.7c6.9,6.9,10.7,16.074,10.7,25.833s-3.8,18.933-10.7,25.833
			S397.083,345.547,387.324,345.547z"/>
		<path fill="#F2E7DA" d="M387.325,274.981c8.71,0,17.419,3.323,24.065,9.968c13.29,13.29,13.29,34.839,0,48.13
			c-6.646,6.645-15.355,9.968-24.065,9.968s-17.419-3.323-24.065-9.968c-13.29-13.291-13.29-34.839,0-48.13
			C369.905,278.304,378.615,274.981,387.325,274.981 M387.325,269.981c-10.426,0-20.228,4.06-27.6,11.432
			c-15.218,15.219-15.218,39.982,0,55.201c7.372,7.372,17.174,11.432,27.6,11.432c10.426,0,20.228-4.06,27.601-11.432
			c15.219-15.22,15.219-39.983,0-55.201C407.552,274.041,397.751,269.981,387.325,269.981L387.325,269.981z"/>
	</g>
	<path fill="none" stroke="#F2E7DA" stroke-width="1.3385" stroke-miterlimit="10" stroke-dasharray="3,3" d="M437.195,402.075
		c0-80.764-58.136-146.237-138.9-146.237s-138.902,65.473-138.902,146.237"/>
	<g>
		<path fill="#F7CC52" d="M299.108,310.124c-20.144,0-36.533-16.389-36.533-36.533s16.389-36.532,36.533-36.532
			s36.533,16.388,36.533,36.532S319.253,310.124,299.108,310.124z"/>
		<path fill="#F2E7DA" d="M299.108,239.559c18.795,0,34.033,15.237,34.033,34.033c0,18.796-15.237,34.033-34.033,34.033
			c-18.796,0-34.033-15.237-34.033-34.033C265.076,254.795,280.313,239.559,299.108,239.559 M299.108,234.559
			c-21.523,0-39.033,17.51-39.033,39.033s17.51,39.033,39.033,39.033s39.033-17.51,39.033-39.033S320.631,234.559,299.108,234.559
			L299.108,234.559z"/>
	</g>
	<g>
		<path fill="#E25941" d="M424.81,433.128c-20.145-0.001-36.533-16.389-36.533-36.533c0.001-20.144,16.39-36.532,36.533-36.532
			c20.144,0,36.532,16.389,36.533,36.532C461.343,416.738,444.955,433.127,424.81,433.128L424.81,433.128z"/>
		<path fill="#F2E7DA" d="M424.81,362.562c18.796,0,34.033,15.237,34.034,34.033c0,18.795-15.238,34.033-34.033,34.033
			c-18.796,0-34.033-15.238-34.033-34.033C390.778,377.799,406.014,362.562,424.81,362.562 M424.81,357.562L424.81,357.562
			c-21.522,0-39.032,17.51-39.033,39.032c0,21.522,17.51,39.033,39.033,39.033c21.523-0.001,39.033-17.511,39.033-39.033
			C463.842,375.072,446.332,357.563,424.81,357.562L424.81,357.562z"/>
	</g>
	<g>
		<path fill="#E25941" d="M210.892,345.547c-9.758,0-18.932-3.8-25.833-10.7c-14.244-14.245-14.244-37.422,0-51.666
			c6.9-6.9,16.074-10.7,25.833-10.7c9.758,0,18.932,3.8,25.833,10.7c14.243,14.245,14.243,37.421,0,51.666
			C229.825,341.746,220.65,345.547,210.892,345.547z"/>
		<path fill="#F2E7DA" d="M210.892,274.981c8.71,0,17.419,3.323,24.065,9.968c13.29,13.291,13.29,34.839,0,48.13
			c-6.645,6.645-15.355,9.968-24.065,9.968c-8.71,0-17.42-3.323-24.065-9.968c-13.29-13.291-13.29-34.84,0-48.13
			C193.473,278.304,202.182,274.981,210.892,274.981 M210.892,269.981c-10.426,0-20.228,4.06-27.6,11.432
			c-15.219,15.219-15.219,39.982,0,55.201c7.373,7.372,17.175,11.432,27.601,11.432c10.426,0,20.228-4.06,27.6-11.432
			c15.218-15.219,15.218-39.982,0-55.201C231.12,274.041,221.318,269.981,210.892,269.981L210.892,269.981z"/>
	</g>
	<g>
		<path fill="#0EA89E" d="M173.406,433.128c-20.144-0.001-36.533-16.389-36.533-36.533c0.001-20.144,16.39-36.532,36.533-36.532
			c20.144,0,36.532,16.388,36.533,36.532C209.94,416.738,193.551,433.127,173.406,433.128L173.406,433.128z"/>
		<path fill="#F2E7DA" d="M173.407,362.562c18.796,0,34.032,15.237,34.033,34.033c0,18.795-15.237,34.033-34.033,34.033
			c-18.795,0-34.033-15.238-34.033-34.033C139.374,377.799,154.611,362.563,173.407,362.562 M173.407,357.562L173.407,357.562
			c-21.522,0.001-39.032,17.51-39.033,39.032c0,21.523,17.51,39.033,39.033,39.033c21.523-0.001,39.033-17.511,39.033-39.033
			C212.439,375.072,194.929,357.562,173.407,357.562L173.407,357.562z"/>
	</g>
	<g>
		<g>
			
				<line fill="none" stroke="#F2E7DA" stroke-width="2" stroke-miterlimit="10" stroke-dasharray="3,3" x1="400.866" y1="356.059" x2="436.247" y2="340.434"/>
			<g>
				<circle fill="#F2E7DA" cx="401.038" cy="355.983" r="3.76"/>
			</g>
			<g>
				<polygon fill="#F2E7DA" points="436.915,345.559 442.8,337.51 432.887,336.437 				"/>
			</g>
		</g>
	</g>
	<g>
		<g>
			
				<line fill="none" stroke="#F2E7DA" stroke-width="2" stroke-miterlimit="10" stroke-dasharray="3,3" x1="342.414" y1="294.311" x2="358.077" y2="258.947"/>
			<g>
				<circle fill="#F2E7DA" cx="342.49" cy="294.139" r="3.76"/>
			</g>
			<g>
				<polygon fill="#F2E7DA" points="362.019,262.289 360.958,252.375 352.902,258.251 				"/>
			</g>
		</g>
	</g>
	<g>
		<g>
			
				<line fill="none" stroke="#F2E7DA" stroke-width="2" stroke-miterlimit="10" stroke-dasharray="3,3" x1="198.463" y1="356.059" x2="163.082" y2="340.434"/>
			<g>
				<circle fill="#F2E7DA" cx="198.291" cy="355.983" r="3.76"/>
			</g>
			<g>
				<polygon fill="#F2E7DA" points="166.42,336.488 156.506,337.56 162.391,345.61 				"/>
			</g>
		</g>
	</g>
	<g>
		<g>
			
				<line fill="none" stroke="#F2E7DA" stroke-width="2" stroke-miterlimit="10" stroke-dasharray="3,3" x1="256.915" y1="294.311" x2="241.252" y2="258.947"/>
			<g>
				<circle fill="#F2E7DA" cx="256.839" cy="294.139" r="3.76"/>
			</g>
			<g>
				<polygon fill="#F2E7DA" points="246.376,258.274 238.32,252.397 237.258,262.312 				"/>
			</g>
		</g>
	</g>
	<g>
		<g>
			<path fill="#F2E7DA" d="M423.135,394.65c-0.333,0.605-1.093,0.826-1.698,0.492l-2.893-1.591
				c-0.606-0.333-0.826-1.094-0.493-1.699l0,0c0.333-0.605,1.093-0.826,1.699-0.492l2.892,1.592
				C423.248,393.284,423.469,394.045,423.135,394.65L423.135,394.65z"/>
			
				<rect x="421.664" y="375.953" transform="matrix(0.8761 0.4822 -0.4822 0.8761 238.3423 -157.2675)" fill="#F2E7DA" width="6.904" height="18.161"/>
			
				<rect x="418.155" y="389.609" transform="matrix(0.8761 0.4822 -0.4822 0.8761 240.9824 -154.7848)" fill="#3F4953" width="6.904" height="3.602"/>
			<path fill="#3F4953" d="M431.844,377.686c-0.213,0.387-0.7,0.528-1.087,0.315l-2.717-1.495c-0.387-0.213-0.528-0.7-0.316-1.087
				l0,0c0.214-0.388,0.7-0.529,1.088-0.315l2.717,1.496C431.916,376.812,432.057,377.298,431.844,377.686L431.844,377.686z"/>
		</g>
		<rect x="416.829" y="406.912" fill="#F2E7DA" width="7.459" height="7.632"/>
		<rect x="411.062" y="414.544" fill="#3F4953" width="18.993" height="3.643"/>
		<g>
			<path fill="#3F4953" d="M428.282,407.076h-15.335v-1.821h15.335c4.663,0,8.456-3.794,8.456-8.456
				c0-4.663-3.793-8.456-8.456-8.456v-1.821c5.667,0,10.277,4.61,10.277,10.277C438.56,402.466,433.949,407.076,428.282,407.076z"/>
		</g>
		<circle fill="#3F4953" cx="427.323" cy="387.355" r="2.212"/>
		<circle fill="#F2E7DA" cx="427.323" cy="387.355" r="1.346"/>
	</g>
	<g>
		<circle fill="#F2E7DA" cx="299.108" cy="280.672" r="14.944"/>
		<path fill="#E25941" d="M286.941,280.672c0,6.72,5.447,12.168,12.167,12.168c6.72,0,12.167-5.447,12.167-12.168H286.941z"/>
		<circle fill="#F2E7DA" cx="302.857" cy="285.097" r="1.458"/>
		<circle fill="#F2E7DA" cx="297.651" cy="288.022" r="1.458"/>
		<circle fill="#F2E7DA" cx="292.444" cy="283.639" r="1.458"/>
		<rect x="294.631" y="254.621" fill="#F2E7DA" width="8.955" height="17.772"/>
		<path fill="#F2E7DA" d="M304.974,253.648c0,1.15-0.932,2.083-2.082,2.083h-7.567c-1.15,0-2.083-0.932-2.083-2.083l0,0
			c0-1.15,0.932-2.083,2.083-2.083h7.567C304.042,251.566,304.974,252.498,304.974,253.648L304.974,253.648z"/>
	</g>
	<g>
		<path fill="#F7CC52" d="M189.908,395.813c0-8.698-7.051-15.749-15.749-15.749c-8.698,0-15.749,7.051-15.749,15.749h-3.65v10.535
			h38.798v-10.535H189.908z M165.554,395.813c0-4.752,3.853-8.605,8.605-8.605s8.605,3.852,8.605,8.605H165.554z"/>
		<rect x="156.71" y="403.114" fill="#3F4953" width="1.095" height="3.219"/>
		<rect x="159.31" y="403.114" fill="#3F4953" width="1.095" height="3.219"/>
		<rect x="161.91" y="403.114" fill="#3F4953" width="1.095" height="3.219"/>
		<rect x="164.511" y="403.114" fill="#3F4953" width="1.095" height="3.219"/>
		<rect x="167.111" y="403.114" fill="#3F4953" width="1.095" height="3.219"/>
		<rect x="169.711" y="403.114" fill="#3F4953" width="1.095" height="3.219"/>
		<rect x="172.311" y="403.114" fill="#3F4953" width="1.095" height="3.219"/>
		<rect x="174.911" y="403.114" fill="#3F4953" width="1.095" height="3.219"/>
		<rect x="177.512" y="403.114" fill="#3F4953" width="1.095" height="3.219"/>
		<rect x="180.112" y="403.114" fill="#3F4953" width="1.095" height="3.219"/>
		<rect x="182.712" y="403.114" fill="#3F4953" width="1.095" height="3.219"/>
		<rect x="185.313" y="403.114" fill="#3F4953" width="1.095" height="3.219"/>
		<rect x="187.913" y="403.114" fill="#3F4953" width="1.095" height="3.219"/>
		<rect x="190.513" y="403.114" fill="#3F4953" width="1.095" height="3.219"/>
	</g>
	<g>
		<path fill="#3F4953" d="M221.514,327.924l-8.911-20.464v-3.29c0-0.945-0.766-1.711-1.711-1.711c-0.945,0-1.711,0.766-1.711,1.711
			v3.013l-8.912,20.465c-0.153,0.464,0.099,0.964,0.563,1.116c0.464,0.153,0.964-0.099,1.117-0.563l8.037-17.813v19.104
			c0,0.488,0.396,0.884,0.884,0.884c0.488,0,0.884-0.396,0.884-0.884v-18.961l8.081,17.947c0.153,0.464,0.653,0.716,1.117,0.563
			C221.416,328.887,221.667,328.388,221.514,327.924z"/>
		<g>
			<path fill="#3F4953" d="M199.736,301.521c0.23,0.626-0.092,1.32-0.718,1.55l-3.059,1.122c-0.626,0.23-1.32-0.092-1.549-0.718l0,0
				c-0.23-0.626,0.092-1.32,0.717-1.549l3.059-1.122C198.813,300.573,199.507,300.895,199.736,301.521L199.736,301.521z"/>
			
				<rect x="196.145" y="292.594" transform="matrix(0.9388 -0.3444 0.3444 0.9388 -89.4489 90.9622)" fill="#F2E7DA" width="30.36" height="9.353"/>
			
				<rect x="222.752" y="287.867" transform="matrix(0.9388 -0.3444 0.3444 0.9388 -87.0419 95.1238)" fill="#F7CC52" width="2.913" height="9.353"/>
			
				<rect x="225.554" y="288.467" transform="matrix(0.9388 -0.3443 0.3443 0.9388 -86.7002 95.6407)" fill="#3F4953" width="0.729" height="6.899"/>
			
				<rect x="196.984" y="297.32" transform="matrix(0.9388 -0.3444 0.3444 0.9388 -91.8741 86.8271)" fill="#F7CC52" width="2.913" height="9.353"/>
			
				<rect x="210.96" y="292.594" transform="matrix(0.939 -0.344 0.344 0.939 -89.3715 90.8493)" fill="#3F4953" width="0.729" height="9.353"/>
		</g>
	</g>
	<g>
		<g>
			<circle fill="#3F4953" cx="387.671" cy="306.158" r="14.8"/>
		</g>
		<g>
			<circle fill="#F2E7DA" cx="387.671" cy="306.158" r="13.409"/>
		</g>
		<path fill="#3F4953" d="M401.776,307.052v-1.788h-5.788c-0.112-2.004-0.575-3.948-1.344-5.78c1.382-0.92,2.637-2.119,3.698-3.573
			l-1.444-1.054c-0.88,1.206-1.908,2.213-3.035,2.998c-1.33-2.442-3.242-4.629-5.664-6.397l-0.434,0.595h-0.186l-0.434-0.595
			c-2.367,1.727-4.245,3.856-5.57,6.23c-1.025-0.758-1.956-1.704-2.754-2.823l-1.455,1.038c0.975,1.368,2.127,2.514,3.403,3.413
			c-0.812,1.88-1.299,3.883-1.414,5.948h-5.788v1.788h5.787c0.091,1.975,0.512,3.89,1.237,5.691
			c-1.205,0.879-2.296,1.979-3.225,3.283l1.455,1.038c0.742-1.04,1.6-1.93,2.539-2.66c1.336,2.524,3.296,4.765,5.792,6.544
			l0.488-0.685h0.062l0.488,0.685c2.554-1.821,4.545-4.126,5.882-6.723c1.044,0.763,2,1.716,2.825,2.847l1.444-1.054
			c-1.014-1.389-2.205-2.548-3.514-3.452c0.682-1.749,1.073-3.604,1.162-5.514H401.776z M394.194,305.265h-5.629v-3.687
			c1.566-0.098,3.089-0.51,4.513-1.197C393.707,301.936,394.089,303.577,394.194,305.265z M392.319,298.761
			c-1.189,0.577-2.456,0.926-3.754,1.022v-5.729C390.12,295.438,391.384,297.029,392.319,298.761z M386.777,294.055v5.699
			c-1.282-0.135-2.525-0.514-3.684-1.115C384.021,296.953,385.26,295.405,386.777,294.055z M382.318,300.251
			c1.398,0.717,2.903,1.161,4.459,1.299v3.715h-5.629C381.256,303.53,381.658,301.844,382.318,300.251z M381.142,307.052h5.635
			v3.328c-1.625,0.144-3.195,0.62-4.644,1.393C381.563,310.27,381.227,308.684,381.142,307.052z M382.865,313.41
			c1.224-0.672,2.546-1.09,3.913-1.233v6.194C385.132,316.934,383.814,315.254,382.865,313.41z M388.565,318.371v-6.224
			c1.38,0.103,2.723,0.492,3.977,1.135C391.588,315.176,390.248,316.902,388.565,318.371z M393.258,311.639
			c-1.476-0.741-3.06-1.185-4.692-1.287v-3.3h5.635C394.118,308.635,393.797,310.175,393.258,311.639z"/>
		<path fill="#F7CC52" d="M406.543,306.158c0-10.406-8.466-18.872-18.872-18.872c-0.494,0-0.894,0.4-0.894,0.894
			c0,0.494,0.4,0.894,0.894,0.894c9.42,0,17.084,7.664,17.084,17.084c0,9.421-7.664,17.085-17.084,17.085
			c-0.494,0-0.894,0.4-0.894,0.894c0,0.494,0.4,0.894,0.894,0.894c0.643,0,1.28-0.033,1.907-0.096v3.349h-3.635
			c-1.358,0-2.458,1.101-2.458,2.458h6.094h1.818h6.094c0-1.358-1.101-2.458-2.458-2.458h-3.636v-3.624
			C400.024,322.925,406.543,315.29,406.543,306.158z"/>
	</g>
	<circle fill="#A6A6AC" cx="300.014" cy="368.201" r="58.749"/>
	<path fill="#3F4953" d="M368.137,366.994c0-37.623-30.5-68.123-68.123-68.123s-68.123,30.5-68.123,68.123
		c0,33.626,24.365,61.559,56.403,67.115v17.338h23.44v-17.338C343.772,428.553,368.137,400.62,368.137,366.994z M300.014,418.176
		c-28.267,0-51.182-22.915-51.182-51.182c0-28.267,22.915-51.182,51.182-51.182c28.267,0,51.182,22.915,51.182,51.182
		C351.196,395.26,328.281,418.176,300.014,418.176z"/>
	<rect x="288.654" y="492.38" fill="#EFA78F" width="45.11" height="67.318"/>
	<rect x="267.746" y="529.223" fill="#EFA78F" width="65.499" height="45.313"/>
	<path fill="#EFA78F" d="M250.916,470.244c0-7.37,5.974-13.343,13.343-13.343h56.162c7.369,0,13.343,5.974,13.343,13.343v52.004
		c0,7.369-5.974,13.343-13.343,13.343h-56.162c-7.369,0-13.343-5.974-13.343-13.343V470.244z"/>
	<rect x="287.497" y="446.895" fill="#0EA89E" width="25.032" height="70.957"/>
	<path fill="#EFA78F" d="M345.317,448.547c1.795,5.359-1.095,11.16-6.455,12.954l-30.49,10.209
		c-5.36,1.795-11.16-1.095-12.954-6.456l0,0c-1.795-5.359,1.095-11.159,6.455-12.954l30.49-10.209
		C337.723,440.297,343.522,443.187,345.317,448.547L345.317,448.547z"/>
	<path fill="#EFA78F" d="M333.675,538.449c0,0,17.45-16.71,12.855-28.827c-5.484-14.461-19.83,5.477-19.83,5.477L333.675,538.449z"
		/>
	<path opacity="0.3" fill="#EFA78F" d="M346.53,509.622c-2.914-7.683-8.33-5.656-12.766-2.067v-37.31
		c0-7.37-3.537-13.343-7.899-13.343h-33.249c-0.002,0-0.004,0-0.007,0h7.887v72.322v6.368v38.945h33.231v-36.138
		C334.768,537.385,350.977,521.351,346.53,509.622z"/>
	<path fill="#EFA78F" d="M345.317,448.547c1.795,5.359-1.095,11.16-6.455,12.954l-30.49,10.209
		c-5.36,1.795-11.16-1.095-12.954-6.456l0,0c-1.795-5.359,1.095-11.159,6.455-12.954l30.49-10.209
		C337.723,440.297,343.522,443.187,345.317,448.547L345.317,448.547z"/>
	<path fill="#EFA78F" d="M345.317,469.016c1.795,5.36-1.095,11.16-6.455,12.954l-30.49,10.209c-5.36,1.795-11.16-1.095-12.954-6.455
		l0,0c-1.795-5.36,1.095-11.16,6.455-12.954l30.49-10.209C337.723,460.766,343.522,463.656,345.317,469.016L345.317,469.016z"/>
	<path fill="#EFA78F" d="M346.53,509.622c1.795,5.36-1.095,11.16-6.455,12.955l-30.49,10.209c-5.36,1.795-11.16-1.095-12.954-6.456
		l0,0c-1.795-5.359,1.095-11.159,6.455-12.954l30.49-10.21C338.936,501.372,344.735,504.262,346.53,509.622L346.53,509.622z"/>
	<path fill="#EFA78F" d="M345.317,489.361c1.795,5.359-1.095,11.16-6.455,12.954l-30.49,10.209
		c-5.36,1.795-11.16-1.095-12.954-6.455l0,0c-1.795-5.359,1.095-11.159,6.455-12.954l30.49-10.209
		C337.723,481.111,343.522,484.001,345.317,489.361L345.317,489.361z"/>
	<path opacity="0.1" fill="#EFA78F" d="M345.317,448.547c1.795,5.359-1.095,11.16-6.455,12.954l-30.49,10.209
		c-5.36,1.795-11.16-1.095-12.954-6.456l0,0c-1.795-5.359,1.095-11.159,6.455-12.954l30.49-10.209
		C337.723,440.297,343.522,443.187,345.317,448.547L345.317,448.547z"/>
	<path opacity="0.1" fill="#EFA78F" d="M345.317,469.016c1.795,5.36-1.095,11.16-6.455,12.954l-30.49,10.209
		c-5.36,1.795-11.16-1.095-12.954-6.455l0,0c-1.795-5.36,1.095-11.16,6.455-12.954l30.49-10.209
		C337.723,460.766,343.522,463.656,345.317,469.016L345.317,469.016z"/>
	<path opacity="0.1" fill="#EFA78F" d="M346.53,509.622c1.795,5.36-1.095,11.16-6.455,12.955l-30.49,10.209
		c-5.36,1.795-11.16-1.095-12.954-6.456l0,0c-1.795-5.359,1.095-11.159,6.455-12.954l30.49-10.21
		C338.936,501.372,344.735,504.262,346.53,509.622L346.53,509.622z"/>
	<path opacity="0.1" fill="#EFA78F" d="M345.317,489.361c1.795,5.359-1.095,11.16-6.455,12.954l-30.49,10.209
		c-5.36,1.795-11.16-1.095-12.954-6.455l0,0c-1.795-5.359,1.095-11.159,6.455-12.954l30.49-10.209
		C337.723,481.111,343.522,484.001,345.317,489.361L345.317,489.361z"/>
	<rect x="262.687" y="551.88" fill="#F7CC52" width="74.652" height="22.656"/>
	<path fill="#F7F1EA" d="M302.372,495.091c-4.095,1.083-6.536,5.282-5.453,9.376c1.083,4.095,5.282,6.537,9.377,5.453
		L302.372,495.091z"/>
	<path fill="#F7F1EA" d="M304.432,515.718c-4.095,1.084-6.537,5.282-5.453,9.377c1.083,4.095,5.282,6.536,9.376,5.453
		L304.432,515.718z"/>
	<path fill="#F7F1EA" d="M303.585,454.485c-4.095,1.083-6.536,5.281-5.453,9.376c1.084,4.095,5.282,6.537,9.377,5.453
		L303.585,454.485z"/>
	<path fill="#EFA78F" d="M303.539,467.135c0,5.652-4.582,10.235-10.234,10.235h-32.154c-5.652,0-10.234-4.583-10.234-10.235l0,0
		c0-5.652,4.582-10.234,10.234-10.234h32.154C298.957,456.901,303.539,461.483,303.539,467.135L303.539,467.135z"/>
	<path fill="#EFA78F" d="M314.854,490.178c-4.201,3.782-10.672,3.443-14.454-0.758l-13.055-15.437
		c-3.782-4.201-3.443-10.672,0.758-14.454l0,0c4.201-3.782,10.672-3.443,14.454,0.758l13.055,15.437
		C319.394,479.926,319.055,486.397,314.854,490.178L314.854,490.178z"/>
	<path fill="#F7F1EA" d="M301.298,485.689c2.297,3.559,7.045,4.582,10.603,2.284c3.559-2.297,4.582-7.044,2.285-10.603
		L301.298,485.689z"/>
	<path fill="#E25941" d="M304.467,385.432c0,1.147-0.929,2.076-2.077,2.076h-4.753c-1.147,0-2.076-0.929-2.076-2.076l0,0
		c0-1.147,0.93-2.075,2.076-2.075h4.753C303.538,383.357,304.467,384.286,304.467,385.432L304.467,385.432z"/>
	<rect x="267.973" y="347.474" fill="#E25941" width="64.081" height="38.632"/>
	<g>
		<g>
			<g>
				<path fill="#F4EAE0" d="M300.014,384.221c-10.146-2.101-20.614-2.101-30.76,0c0-13.04,0-26.08,0-39.121
					c10.146-2.101,20.614-2.101,30.76,0C300.014,358.141,300.014,371.181,300.014,384.221z"/>
				<path fill="#0EA89E" d="M280.576,359.654c-2.507,0.134-5.009,0.393-7.497,0.777c0-3.745,0-7.491,0-11.236
					c2.488-0.384,4.99-0.642,7.497-0.777C280.576,352.163,280.576,355.908,280.576,359.654z"/>
				<path fill="#3F4953" d="M295.189,350.401c-4.256-0.598-8.551-0.833-12.837-0.704c0-0.451,0-0.902,0-1.354
					c4.286-0.129,8.581,0.105,12.837,0.704C295.189,349.498,295.189,349.95,295.189,350.401z"/>
				<path fill="#3F4953" d="M295.189,353.105c-4.256-0.598-8.551-0.833-12.837-0.704c0-0.451,0-0.902,0-1.353
					c4.286-0.129,8.581,0.106,12.837,0.704C295.189,352.203,295.189,352.654,295.189,353.105z"/>
				<path fill="#3F4953" d="M295.189,355.81c-4.256-0.598-8.551-0.833-12.837-0.704c0-0.451,0-0.902,0-1.352
					c4.286-0.129,8.581,0.106,12.837,0.704C295.189,354.908,295.189,355.359,295.189,355.81z"/>
				<path fill="#3F4953" d="M295.189,358.514c-4.256-0.598-8.551-0.833-12.837-0.704c0-0.451,0-0.902,0-1.352
					c4.286-0.129,8.581,0.106,12.837,0.704C295.189,357.613,295.189,358.064,295.189,358.514z"/>
				<path fill="#3F4953" d="M295.189,361.219c-4.256-0.598-8.551-0.833-12.837-0.704c0-0.451,0-0.902,0-1.353
					c4.286-0.129,8.581,0.105,12.837,0.704C295.189,360.317,295.189,360.768,295.189,361.219z"/>
				<path fill="#3F4953" d="M295.189,363.923c-7.301-1.026-14.714-0.982-22.006,0.132c0-0.451,0-0.901,0-1.352
					c7.291-1.114,14.705-1.158,22.006-0.132C295.189,363.022,295.189,363.472,295.189,363.923z"/>
				<path fill="#3F4953" d="M295.189,366.629c-7.301-1.026-14.714-0.982-22.006,0.132c0-0.451,0-0.902,0-1.353
					c7.291-1.114,14.705-1.158,22.006-0.132C295.189,365.727,295.189,366.178,295.189,366.629z"/>
				<path fill="#3F4953" d="M295.189,369.333c-7.301-1.026-14.714-0.982-22.006,0.132c0-0.451,0-0.902,0-1.353
					c7.291-1.114,14.705-1.158,22.006-0.132C295.189,368.432,295.189,368.883,295.189,369.333z"/>
				<path fill="#3F4953" d="M295.189,372.037c-7.301-1.026-14.714-0.982-22.006,0.132c0-0.451,0-0.901,0-1.352
					c7.291-1.114,14.705-1.158,22.006-0.132C295.189,371.136,295.189,371.587,295.189,372.037z"/>
				<path fill="#3F4953" d="M295.189,374.742c-7.301-1.026-14.714-0.982-22.006,0.132c0-0.451,0-0.901,0-1.352
					c7.291-1.114,14.705-1.158,22.006-0.132C295.189,373.841,295.189,374.291,295.189,374.742z"/>
				<path fill="#3F4953" d="M295.189,377.448c-7.301-1.026-14.714-0.982-22.006,0.132c0-0.451,0-0.902,0-1.353
					c7.291-1.114,14.705-1.158,22.006-0.132C295.189,376.546,295.189,376.997,295.189,377.448z"/>
			</g>
		</g>
		<g>
			<g>
				<path fill="#F4EAE0" d="M330.773,384.221c-10.145-2.101-20.614-2.101-30.759,0c0-13.04,0-26.08,0-39.121
					c10.145-2.101,20.614-2.101,30.759,0C330.773,358.141,330.773,371.181,330.773,384.221z"/>
				<path fill="#3F4953" d="M325.947,350.401c-7.301-1.026-14.715-0.982-22.006,0.132c0-0.451,0-0.902,0-1.354
					c7.292-1.114,14.705-1.158,22.006-0.132C325.947,349.498,325.947,349.95,325.947,350.401z"/>
				<path fill="#3F4953" d="M325.947,353.105c-7.301-1.026-14.715-0.982-22.006,0.132c0-0.451,0-0.902,0-1.353
					c7.292-1.114,14.705-1.158,22.006-0.132C325.947,352.203,325.947,352.654,325.947,353.105z"/>
				<path fill="#3F4953" d="M325.947,355.81c-7.301-1.026-14.715-0.982-22.006,0.132c0-0.451,0-0.902,0-1.352
					c7.292-1.114,14.705-1.158,22.006-0.132C325.947,354.908,325.947,355.359,325.947,355.81z"/>
				<path fill="#3F4953" d="M325.947,358.514c-7.301-1.026-14.715-0.982-22.006,0.132c0-0.451,0-0.902,0-1.352
					c7.292-1.114,14.705-1.158,22.006-0.132C325.947,357.613,325.947,358.063,325.947,358.514z"/>
				<path fill="#3F4953" d="M325.947,361.219c-7.301-1.026-14.715-0.982-22.006,0.132c0-0.451,0-0.902,0-1.353
					c7.292-1.114,14.705-1.158,22.006-0.132C325.947,360.317,325.947,360.768,325.947,361.219z"/>
				<path fill="#3F4953" d="M325.947,363.923c-7.301-1.026-14.715-0.982-22.006,0.132c0-0.451,0-0.901,0-1.352
					c7.292-1.114,14.705-1.158,22.006-0.132C325.947,363.021,325.947,363.472,325.947,363.923z"/>
				<path fill="#3F4953" d="M325.947,366.629c-7.301-1.026-14.715-0.982-22.006,0.132c0-0.451,0-0.902,0-1.353
					c7.292-1.114,14.705-1.158,22.006-0.132C325.947,365.727,325.947,366.178,325.947,366.629z"/>
				<path fill="#3F4953" d="M325.947,369.333c-7.301-1.026-14.715-0.982-22.006,0.132c0-0.451,0-0.902,0-1.353
					c7.292-1.114,14.705-1.158,22.006-0.132C325.947,368.432,325.947,368.882,325.947,369.333z"/>
				<path fill="#3F4953" d="M325.947,372.037c-7.301-1.026-14.715-0.982-22.006,0.132c0-0.451,0-0.901,0-1.352
					c7.292-1.114,14.705-1.158,22.006-0.132C325.947,371.136,325.947,371.587,325.947,372.037z"/>
				<path fill="#3F4953" d="M325.947,374.742c-7.301-1.026-14.715-0.982-22.006,0.132c0-0.451,0-0.901,0-1.352
					c7.292-1.114,14.705-1.158,22.006-0.132C325.947,373.841,325.947,374.291,325.947,374.742z"/>
				<path fill="#3F4953" d="M325.947,377.448c-7.301-1.026-14.715-0.982-22.006,0.132c0-0.451,0-0.902,0-1.353
					c7.292-1.114,14.705-1.158,22.006-0.132C325.947,376.546,325.947,376.997,325.947,377.448z"/>
			</g>
		</g>
	</g>
</g>
</svg>
