<svg xmlns="http://www.w3.org/2000/svg" width="119.822" height="119.84" viewBox="0 0 119.822 119.84"><title>Desafio</title><g transform="matrix(.652 0 0 .692 17.917 15.13)"><ellipse cx="62.639" cy="62.225" rx="53.068" ry="55.977" opacity=".2" fill="#9ad8da"/><linearGradient id="a" gradientUnits="userSpaceOnUse" x1="89.283" y1="31.002" x2="89.778" y2="17.57"><stop offset="0" stop-color="#535454"/><stop offset="1" stop-color="#7C7C7C"/></linearGradient><path d="M105.458 24.137c-2.152-1.366-4.39-2.438-6.534-3.828-2.08-1.35-4.108-2.877-6.213-4.15-.077-.046-.156-.09-.235-.136l-18.688.036.888 3.59L94.8 24.722l10.78-.505-.122-.08z" fill="url(#a)"/><linearGradient id="b" gradientUnits="userSpaceOnUse" x1="47.966" y1="19.845" x2="47.966" y2="15.514"><stop offset="0" stop-color="#484848"/><stop offset="1" stop-color="#808080"/></linearGradient><path d="M24.86 14.805c-.262.365-.525.73-.788 1.093l1.354.007 1.38 1.024 44.8.028.254-2.03-47-.123z" fill="url(#b)"/><linearGradient id="c" gradientUnits="userSpaceOnUse" x1="21.907" y1="26.537" x2="21.748" y2="16.742"><stop offset="0" stop-color="#484848"/><stop offset="1" stop-color="#808080"/></linearGradient><path d="M18.774 23.756h2.786l3.285-6.497-1.363-.01c-1.57 2.17-3.144 4.33-4.708 6.506z" fill="url(#c)"/><linearGradient id="d" gradientUnits="userSpaceOnUse" x1="93.6" y1="25.948" x2="92.799" y2="38.576"><stop offset="0" stop-color="#7E7E7E"/><stop offset="1" stop-color="#656565"/></linearGradient><path d="M110.53 27.455l-34.997.048 1.808 4.477h33.845v-4.173c-.22-.112-.44-.23-.656-.352z" fill="url(#d)"/><linearGradient id="e" gradientUnits="userSpaceOnUse" x1="37.248" y1="28.019" x2="37.372" y2="20.818"><stop offset="0" stop-color="#484848"/><stop offset="1" stop-color="#808080"/></linearGradient><path fill="url(#e)" d="M53.982 25.483l-.984-3.14-32.057-.098-.286.136.032 3.162z"/><linearGradient id="f" gradientUnits="userSpaceOnUse" x1="26.236" y1="37.48" x2="27.216" y2="22.292"><stop offset="0" stop-color="#535454"/><stop offset="1" stop-color="#7C7C7C"/></linearGradient><path d="M38.556 23.874l-19.86-.006c-.487.676-.972 1.35-1.454 2.032-.088.124-.18.244-.272.364-.417.72-.947 1.353-1.356 2.024-.297.486-.635 1.083-1.014 1.568-.05.088-.11.17-.175.25-.097.283-.23.535-.385.764v5.167l24.9.276-.384-12.44z" fill="url(#f)"/><linearGradient id="g" gradientUnits="userSpaceOnUse" x1="66.995" y1="22.696" x2="66.788" y2="17.345"><stop offset="0" stop-color="#535454"/><stop offset="1" stop-color="#7C7C7C"/></linearGradient><path fill="url(#g)" d="M79.85 20.8l-1.27-3.726-24.726.098.763 3.727z"/><linearGradient id="h" gradientUnits="userSpaceOnUse" x1="18.126" y1="31.954" x2="13.344" y2="31.891"><stop offset="0" stop-color="#575858"/><stop offset="1" stop-color="#717171"/></linearGradient><path fill="url(#h)" d="M18.624 29.677l-2.16 2.264.51 2.225 1.618.078z"/><linearGradient id="i" gradientUnits="userSpaceOnUse" x1="44.618" y1="31.335" x2="44.618" y2="25.249"><stop offset="0" stop-color="#535454"/><stop offset="1" stop-color="#7C7C7C"/></linearGradient><path fill="url(#i)" d="M70.77 31.98L18.34 29.52l.952-2.125 1.618-1.775h49.99z"/><linearGradient id="j" gradientUnits="userSpaceOnUse" x1="58.806" y1="34.805" x2="58.806" y2="28.757"><stop offset="0" stop-color="#6B6B6A"/><stop offset="1" stop-color="#7E7E7E"/></linearGradient><path fill="url(#j)" d="M63.464 34.336l-9.466-.132.317-4.37 9.3.048z"/><linearGradient id="k" gradientUnits="userSpaceOnUse" x1="94.78" y1="29.507" x2="94.722" y2="31.901"><stop offset="0" stop-color="#6E6D6E"/><stop offset="1" stop-color="#616262"/></linearGradient><path fill="url(#k)" d="M95.037 31.746l.08-2.04-.62-.516-.11 2.468z"/><linearGradient id="l" gradientUnits="userSpaceOnUse" x1="77.447" y1="17.985" x2="81.784" y2="19.224"><stop offset="0" stop-color="#484848"/><stop offset="1" stop-color="#808080"/></linearGradient><path fill="url(#l)" d="M80.072 19.533l.126-1.444-1.46-.898-.317.04.032 2.203z"/><linearGradient id="m" gradientUnits="userSpaceOnUse" x1="105.764" y1="28.529" x2="114.421" y2="30.681"><stop offset="0" stop-color="#484848"/><stop offset="1" stop-color="#808080"/></linearGradient><path fill="url(#m)" d="M109.78 31.355l1.405-.063v-2.744l-1.373-.84z"/><linearGradient id="n" gradientUnits="userSpaceOnUse" x1="52.654" y1="31.209" x2="55.925" y2="30.27"><stop offset="0" stop-color="#424242"/><stop offset="1" stop-color="#7E7E7E"/></linearGradient><path fill="url(#n)" d="M54.3 34.282l.126-4.575-.635-2.37-.19 6.945z"/><linearGradient id="o" gradientUnits="userSpaceOnUse" x1="20.642" y1="27.901" x2="16.637" y2="29.76"><stop offset="0" stop-color="#575858"/><stop offset="1" stop-color="#717171"/></linearGradient><path fill="url(#o)" d="M21.29 25.708l-.43.224L19.386 28l.38 1.385 1.524.108z"/><linearGradient id="p" gradientUnits="userSpaceOnUse" x1="46.967" y1="37.637" x2="46.967" y2="28.312"><stop offset="0" stop-color="#484848"/><stop offset="1" stop-color="#808080"/></linearGradient><path fill="url(#p)" d="M53.79 34.4l.064-6.83-13.775-.185.095 7.14z"/><linearGradient id="q" gradientUnits="userSpaceOnUse" x1="39.66" y1="30.819" x2="37.432" y2="30.839"><stop offset="0" stop-color="#575858"/><stop offset="1" stop-color="#717171"/></linearGradient><path fill="url(#q)" d="M40.08 27.385l-.762.03-.762 6.75 1.65.078z"/><linearGradient id="r" gradientUnits="userSpaceOnUse" x1="52.18" y1="23.88" x2="54.302" y2="23.949"><stop offset="0" stop-color="#424242"/><stop offset="1" stop-color="#7E7E7E"/></linearGradient><path fill="url(#r)" d="M53.442 25.385l-.54-2.945-.254-.02-.127 2.946z"/><linearGradient id="s" gradientUnits="userSpaceOnUse" x1="90.623" y1="27.248" x2="90.049" y2="21.194"><stop offset="0" stop-color="#535454"/><stop offset="1" stop-color="#7C7C7C"/></linearGradient><path fill="url(#s)" d="M89.604 22.225l-7.84-4.312.032-1.248 15.362-.04.444.118-.253 5.404z"/><linearGradient id="t" gradientUnits="userSpaceOnUse" x1="70.62" y1="31.379" x2="75.583" y2="25.868"><stop offset="0" stop-color="#484848"/><stop offset="1" stop-color="#808080"/></linearGradient><path fill="url(#t)" d="M75.343 31.863l-4.76-.215.03-5.99z"/><linearGradient id="u" gradientUnits="userSpaceOnUse" x1="38.773" y1="25.367" x2="38.352" y2="22.461"><stop offset="0" stop-color="#484848"/><stop offset="1" stop-color="#808080"/></linearGradient><path fill="url(#u)" d="M38.778 25.347l-.175.004-.047-1.33.127-.43z"/><linearGradient id="v" gradientUnits="userSpaceOnUse" x1="103.084" y1="26.905" x2="102.553" y2="48.969"><stop offset="0" stop-color="#7E7E7E"/><stop offset="1" stop-color="#656565"/></linearGradient><path fill="url(#v)" d="M95.117 29.756l-1.207 19.51 17.275-.156V29.483H95.688z"/><linearGradient id="w" gradientUnits="userSpaceOnUse" x1="69.992" y1="29.992" x2="69.706" y2="20.268"><stop offset="0" stop-color="#535454"/><stop offset="1" stop-color="#7C7C7C"/></linearGradient><path fill="url(#w)" d="M72.517 25.464l2.16 1.794 9.743.118-.794-6.614-28.406.117 1.332 4.603z"/><linearGradient id="x" gradientUnits="userSpaceOnUse" x1="17.893" y1="31.433" x2="17.893" y2="27.766"><stop offset="0" stop-color="#484848"/><stop offset="1" stop-color="#808080"/></linearGradient><path fill="url(#x)" d="M19.83 29.463l-.064-1.51-3.555.037-.253.088.095 1.385z"/><linearGradient id="y" gradientUnits="userSpaceOnUse" x1="83.002" y1="24.341" x2="87.635" y2="23.913"><stop offset="0" stop-color="#484848"/><stop offset="1" stop-color="#808080"/></linearGradient><path fill="url(#y)" d="M85.57 27.444l-.047-5.02-2.096-1.462-.046 6.38z"/><linearGradient id="z" gradientUnits="userSpaceOnUse" x1="66.116" y1="23.322" x2="72" y2="24.538"><stop offset="0" stop-color="#484848"/><stop offset="1" stop-color="#808080"/></linearGradient><path fill="url(#z)" d="M71.12 25.58l-2.253-3.453-.792-.097-.032 3.453z"/><linearGradient id="A" gradientUnits="userSpaceOnUse" x1="86.611" y1="27.294" x2="87.027" y2="20.046"><stop offset="0" stop-color="#7D7D7D"/><stop offset="1" stop-color="#9B9C9C"/></linearGradient><path fill="url(#A)" d="M88.276 27.356l.144-4.79-3.206.01-.143 4.78z"/><linearGradient id="B" gradientUnits="userSpaceOnUse" x1="85.516" y1="25.473" x2="92.28" y2="25.572"><stop offset="0" stop-color="#484848"/><stop offset="1" stop-color="#808080"/></linearGradient><path fill="url(#B)" d="M88.086 27.385l.222-3.355-.62-.4-.204 3.707z"/><linearGradient id="C" gradientUnits="userSpaceOnUse" x1="96.236" y1="23.122" x2="95.69" y2="31.728"><stop offset="0" stop-color="#7E7E7E"/><stop offset="1" stop-color="#656565"/></linearGradient><path fill="url(#C)" d="M103.972 27.532l.064-3.648-15.87.107-.144 3.424z"/><linearGradient id="D" gradientUnits="userSpaceOnUse" x1="26.673" y1="36.428" x2="26.918" y2="28.817"><stop offset="0" stop-color="#484848"/><stop offset="1" stop-color="#808080"/></linearGradient><path d="M18.37 29.6c.222 0 17.043.078 17.043.078l-1.015 4.565-15.933-.038-.095-4.606z" fill="url(#D)"/><linearGradient id="E" gradientUnits="userSpaceOnUse" x1="25.364" y1="20.986" x2="23.145" y2="21.96"><stop offset="0" stop-color="#575858"/><stop offset="1" stop-color="#717171"/></linearGradient><path fill="url(#E)" d="M25.923 19.513l-.476.06-1.618 2.574h2.03z"/><linearGradient id="F" gradientUnits="userSpaceOnUse" x1="40.492" y1="26.332" x2="40.492" y2="20.011"><stop offset="0" stop-color="#484848"/><stop offset="1" stop-color="#808080"/></linearGradient><path fill="url(#F)" d="M52.172 22.284l-26.47-.098-.032-2.634 29.295.02.35.117-.063 1.072z"/><linearGradient id="G" gradientUnits="userSpaceOnUse" x1="45.07" y1="23.546" x2="45.335" y2="19.776"><stop offset="0" stop-color="#484848"/><stop offset="1" stop-color="#808080"/></linearGradient><path fill="url(#G)" d="M52.807 22.264l-.286-1.405-14.472-.08-.444.196v1.17z"/><linearGradient id="H" gradientUnits="userSpaceOnUse" x1="97.087" y1="22.194" x2="103.487" y2="23.444"><stop offset="0" stop-color="#484848"/><stop offset="1" stop-color="#808080"/></linearGradient><path fill="url(#H)" d="M103.813 23.98l-4.57-2.77-.096 2.79z"/><linearGradient id="I" gradientUnits="userSpaceOnUse" x1="33.107" y1="22.02" x2="33.199" y2="17.762"><stop offset="0" stop-color="#484848"/><stop offset="1" stop-color="#808080"/></linearGradient><path fill="url(#I)" d="M26.605 19.367l.24-2.224 12.925.06-.07 2.252z"/><linearGradient id="J" gradientUnits="userSpaceOnUse" x1="46.412" y1="21.444" x2="46.412" y2="16.919"><stop offset="0" stop-color="#484848"/><stop offset="1" stop-color="#808080"/></linearGradient><path fill="url(#J)" d="M54.394 19.416l.032-.976-15.806-.136-.19.097-.032 1.113z"/><linearGradient id="K" gradientUnits="userSpaceOnUse" x1="26.888" y1="18.375" x2="24.327" y2="18.525"><stop offset="0" stop-color="#575858"/><stop offset="1" stop-color="#717171"/></linearGradient><path fill="url(#K)" d="M25.654 19.425l.19-.82 1.158-1.296.033 2.115z"/><linearGradient id="L" gradientUnits="userSpaceOnUse" x1="76.315" y1="24.095" x2="76.466" y2="19.149"><stop offset="0" stop-color="#535454"/><stop offset="1" stop-color="#7C7C7C"/></linearGradient><path fill="url(#L)" d="M69.947 20.703l-.54-1.19 13.775-.02.317.118-.065 1.113z"/><linearGradient id="M" gradientUnits="userSpaceOnUse" x1="99.314" y1="24.586" x2="109.126" y2="27.024"><stop offset="0" stop-color="#484848"/><stop offset="1" stop-color="#808080"/></linearGradient><path fill="url(#M)" d="M109.272 27.356l-5.427-3.472-.032 3.648z"/><linearGradient id="N" gradientUnits="userSpaceOnUse" x1="72.825" y1="54.611" x2="82.463" y2="24.318"><stop offset="0" stop-color="#7D7D7D"/><stop offset="1" stop-color="#9B9C9C"/></linearGradient><path fill="url(#N)" d="M96.83 52.64l1.142-20.426-1.618-.35-39.707.115v20.66z"/><linearGradient id="O" gradientUnits="userSpaceOnUse" x1="70.067" y1="16.207" x2="72.94" y2="17.384"><stop offset="0" stop-color="#484848"/><stop offset="1" stop-color="#808080"/></linearGradient><path fill="url(#O)" d="M72.248 17.055l-1.032.098.03-.937z"/><linearGradient id="P" gradientUnits="userSpaceOnUse" x1="39.884" y1="18.621" x2="39.777" y2="16.95"><stop offset="0" stop-color="#575858"/><stop offset="1" stop-color="#717171"/></linearGradient><path fill="url(#P)" d="M39.897 18.157l.016-1.21-.15.323-.04.955z"/><linearGradient id="Q" gradientUnits="userSpaceOnUse" x1="101.737" y1="34.94" x2="100.331" y2="55.867"><stop offset="0" stop-color="#8C8C8C"/><stop offset="1" stop-color="#8B8B8B"/></linearGradient><path fill="url(#Q)" d="M100.448 56.8l.635-.176 1.143-21.343-1.27-.663L99.56 56z"/><linearGradient id="R" gradientUnits="userSpaceOnUse" x1="55.445" y1="33.025" x2="58.7" y2="32.597"><stop offset="0" stop-color="#575858"/><stop offset="1" stop-color="#717171"/></linearGradient><path fill="url(#R)" d="M56.743 34.195l.078-2.05.05-.36-.334-.244-.062 2.655z"/><linearGradient id="S" gradientUnits="userSpaceOnUse" x1="44.653" y1="35.248" x2="44.89" y2="56.717"><stop offset="0" stop-color="#B5B6B6"/><stop offset="1" stop-color="#B5B6B6"/></linearGradient><path fill="url(#S)" d="M74.548 56.795l.953-21.89-61.462-.015v21.86z"/><linearGradient id="T" gradientUnits="userSpaceOnUse" x1="28.634" y1="15.671" x2="28.634" y2="34.631"><stop offset="0" stop-color="#BABABA"/><stop offset="1" stop-color="#B9B9B9"/></linearGradient><path d="M18.875 23.615l-.29.405h19.972l.127-.43-19.81.025z" fill="url(#T)"/><linearGradient id="U" gradientUnits="userSpaceOnUse" x1="102.841" y1="15.671" x2="102.841" y2="34.632"><stop offset="0" stop-color="#BABABA"/><stop offset="1" stop-color="#B9B9B9"/></linearGradient><path fill="url(#U)" d="M111.185 29.208l-16.69-.018.622.566 16.068-.016z"/><linearGradient id="V" gradientUnits="userSpaceOnUse" x1="53.575" y1="17.399" x2="53.575" y2="36.709" gradientTransform="matrix(1 .002 -.002 1 -.45 -.31)"><stop offset="0" stop-color="#BABABA"/><stop offset="1" stop-color="#B9B9B9"/></linearGradient><path d="M31.37 17.64l43.427.154-.222-.254-43.014-.16-.19.26z" fill="url(#V)"/><linearGradient id="W" gradientUnits="userSpaceOnUse" x1="106.071" y1="27.63" x2="106.071" y2="47.224"><stop offset="0" stop-color="#BABABA"/><stop offset=".21" stop-color="#BFBFBF"/><stop offset=".491" stop-color="#CECDCD"/><stop offset=".813" stop-color="#E8E7E6"/><stop offset="1" stop-color="#fff"/></linearGradient><path fill="url(#W)" d="M101.717 35.28l9.468-.018v-.666l-10.23.02z"/><linearGradient id="X" gradientUnits="userSpaceOnUse" x1="39.95" y1="23.404" x2="36.186" y2="46.97"><stop offset="0" stop-color="#BABABA"/><stop offset="1" stop-color="#B9B9B9"/></linearGradient><path d="M63.25 29.366l-4.952-.04-.7-2.145-21.835.04-.508 2.03-20.187.077-.74 1.025c-.083.185-.18.356-.29.517v1.267h3.19l1.46-2.302h16.377l-.857 4.31 5.046-.03.7-6.466 13.9.037.572 2.224h9.204l-.38-.544z" fill="url(#X)"/><linearGradient id="Y" gradientUnits="userSpaceOnUse" x1="40.08" y1="19.484" x2="119.24" y2="19.484"><stop offset="0" stop-color="#BABABA"/><stop offset="1" stop-color="#B9B9B9"/></linearGradient><path d="M83.945 20.47l-1.46-1.156-6.033-.015-.824-.82 18.785.017-.052-.032c-.138-.084-.277-.162-.417-.24l-25.36.02.252.235 4.062.04.7.78-20.757-.04.27 1.18-12.967-.01-.063.273 15.997.04-.3-1.21H80.07l1.334 1.21h15.806l-.54-.26-12.727-.014z" fill="url(#Y)"/><linearGradient id="Z" gradientUnits="userSpaceOnUse" x1="109.154" y1="38.624" x2="109.386" y2="59.605"><stop offset="0" stop-color="#B5B6B6"/><stop offset="1" stop-color="#B5B6B6"/></linearGradient><path fill="url(#Z)" d="M103.903 60.034l10.738-.023V38.498l-9.45.02z"/><linearGradient id="aa" gradientUnits="userSpaceOnUse" x1="15.584" y1="34.353" x2="15.703" y2="31.397"><stop offset="0" stop-color="#7D7D7D"/><stop offset="1" stop-color="#9B9C9C"/></linearGradient><path fill="url(#aa)" d="M14.038 32.136h3.19v2.03h-3.19z"/><linearGradient id="ab" gradientUnits="userSpaceOnUse" x1="44.77" y1="29.405" x2="44.77" y2="43.451"><stop offset="0" stop-color="#BABABA"/><stop offset=".21" stop-color="#BFBFBF"/><stop offset=".491" stop-color="#CECDCD"/><stop offset=".813" stop-color="#E8E7E6"/><stop offset="1" stop-color="#fff"/></linearGradient><path fill="url(#ab)" d="M74.548 34.087l-60.51.008v.828l61.463-.017z"/><path d="M100.59 27.97c-2.152-1.367-4.39-2.44-6.534-3.83-2.08-1.347-4.108-2.875-6.213-4.147-.14-.084-.278-.162-.418-.238l-24.798.02-.008-.01-43.016-.053c-2.406 3.347-4.84 6.65-7.23 10.02-.09.123-.18.243-.273.363-.416.72-.946 1.353-1.355 2.024-.297.485-.635 1.082-1.014 1.567-.048.088-.108.17-.174.25-.097.283-.23.535-.385.764v25.882l60.51.047.182-4.156h22.1l.19-3.404 2.984-.027-.444 6.79.888.8 10.737-.024V31.64c-1.96-.997-3.838-2.472-5.727-3.67z" fill="#7675ad"/><g fill="#fff"><path d="M52.28 68.434c4.038-2.573 7.97-2.162 9.78-1.76.862-1.066 2.572-2.907 5.024-4.295-1.066-3.173-1.623-8.936 1.99-13.18-.652-2.388-4.45-7.105-11.49-5.572-6.474 1.408-7.447 7.63-7.484 7.893-.07.48-.378.896-.817 1.102-.438.206-.945.173-1.338-.087-.1-.06-3.01-1.738-8.537 2.056-4.513 3.097-4.187 7.226-3.902 8.676.326.06.653.13.98.212 6.342 1.63 9.958 6.853 11.804 10.636.488-2.003 1.605-4.16 3.99-5.68z"/><path d="M106.825 56.593c-4.195-10.5-11.734-12.16-11.734-12.16s-2.566-4.853-9.242-8.487c-10.158-5.067-18.905-.014-18.905-.014-16.194-6.856-25.245 6.876-25.245 6.876-19.058 1.14-19.1 16.31-19.1 16.31-9.37 4.848-13.183 19.35-1.64 28.727 8.85 7.193 16.946 4.14 20.238 2.33.06-3.365 1.302-7.61 6.03-11.13-.148-.524-3.11-10.718-11.503-12.876-5.03-1.293-9.216 1.164-10.976 3.992-1.67 2.682-1.33 5.683.932 8.23 1.177 1.29 2.462 1.94 3.916 1.97 2.814.06 5.304-2.264 5.33-2.287.56-.533 1.435-.522 1.95.025.514.548.48 1.424-.08 1.96-.133.128-3.336 3.15-7.316 3.08-2.208-.04-4.186-.998-5.877-2.85-3.09-3.478-3.528-7.79-1.187-11.548 2.154-3.458 6.06-5.534 10.235-5.68-.34-2.94.468-7.47 5.25-10.75 4.567-3.135 7.95-3.186 9.853-2.776.98-3.092 3.685-7.395 9.327-8.623 4.704-1.024 8.074.3 10.073 1.59 1.854 1.197 3.34 2.887 4.15 4.678 4.578-3.217 11-3.976 15.67-1.84 3.816 1.744 6.185 5.216 6.736 9.83 1.732.747 5.394 2.962 6.59 8.63.632 2.992-.156 5.8-2.218 7.91-2.644 2.705-7.118 3.918-11.4 3.09-6.068-1.172-13.845 1.687-16.316 6-1.924 3.353-4.287 6.842-7.377 7.78-.244.073-.49.13-.742.17-1.913.31-3.796-.413-5.6-2.15-.54-.524-.545-1.402-.008-1.963.538-.562 1.413-.592 1.956-.07 1.18 1.14 2.257 1.61 3.294 1.443 2.315-.374 4.583-3.912 6.09-6.54 3.114-5.43 11.953-8.818 19.304-7.398 3.387.655 6.864-.24 8.855-2.277 1.39-1.42 1.893-3.268 1.456-5.338-1.214-5.752-5.52-6.912-5.562-6.922-.56-.143-.962-.628-1-1.21-.276-4.08-2.098-7-5.267-8.45-3.858-1.765-9.207-1.096-13.008 1.623-5.007 3.58-3.68 9.766-3.1 11.728 3.292-1.1 7.484-1.127 12.43 1.69.654.375.867 1.22.476 1.89-.392.67-1.24.91-1.896.538-10.52-5.995-16.687 3.254-16.944 3.65-.363.56-1.062.802-1.67.574-.162-.058-4.17-1.462-8.344 1.2-3.97 2.53-2.856 7.993-2.844 8.048.125.584-.14 1.194-.66 1.51-9.27 5.67-5.59 14.113-5.43 14.47.195.428.147.91-.082 1.296 6.144 12.27 23.064 4.316 23.064 4.316.084.13.17.254.257.38.56-.003 13.758-.202 16.758-8.454.527-2.655.29-4.667-.69-5.823-1.09-1.29-2.83-1.245-2.848-1.244-.764.036-1.393-.556-1.405-1.32-.012-.768.597-1.42 1.36-1.453.124-.006 3.076-.117 5.023 2.182 1.566 1.852 1.987 4.622 1.247 8.236-.012.064-.03.127-.05.188-1.836 5.208-6.553 7.826-10.892 9.142-2.417.733-4.714 1.06-6.332 1.21 5.454 5.475 13.38 5.872 20.793 3.363 8.605-2.912 7.947-9.91 7.947-9.91 9.82-8.97 3.206-19.437 3.206-19.437 4.517-2.58 8.885-10.375 4.692-20.873z"/></g><path d="M64.59 22.7c8.418 1.068 14.493 9.81 13.57 19.53-.925 9.72-8.497 16.733-16.915 15.666-8.417-1.067-14.492-9.81-13.568-19.53.924-9.718 8.497-16.732 16.914-15.665z" clip-rule="evenodd" fill="#fdcda2" fill-rule="evenodd"/><path d="M78.248 39.904c.014.766-.014 1.543-.09 2.325-.567 5.97-.96 17.197-5.264 19.26-5.656 2.71-18.508 1.81-23.158-1.975-3.61-2.937-2.578-15.686-2.06-21.15.23-2.41.87-4.657 1.83-6.654 2.8 10.115 17.69 18.996 28.742 8.194z" clip-rule="evenodd" fill="#042a3d" fill-rule="evenodd"/><path d="M63.74 24.85c-5.076 9.5-9.306 9.208-14.642 5.123 2.188-4.37 8.302-12.836 14.643-5.122z" clip-rule="evenodd" fill="#39190d" fill-rule="evenodd"/><path d="M80.747 21.693c-1.098 10.433-9.81 11.157-16.546 9.15-8.527-2.543-5.1-12.15 1.397-9.68 5.043 1.915 9.638 8.945 15.15.53z" clip-rule="evenodd" fill="#39190d" fill-rule="evenodd"/><path d="M49.498 28.146c1.16-.152 4.745-.468 4.397-1.246-.348-.777-1.97-1.254-.63-1.164 1.34.09 3.5.025 2.683-.897-.24-.272-1.147-.667-2.106-.64-.164-1.25-2.47-.278-5.938 1.996-1.177.774-.22 2.663 1.594 1.95z" clip-rule="evenodd" fill="#fdcda2" fill-rule="evenodd"/><g><path fill="#042a3d" d="M47.67 30.203l-.377.276-.327.276-.283.274-.238.27-.198.26-.16.25-.124.237-.094.224-.07.21-.043.2-.025.188-.007.183.01.18.026.18.046.183.064.188.085.195.11.2.134.203.16.206.19.206.22.203.25.2.282.19.31.18.34.167.37.152.4.133.43.114.457.09-.53 4.223-.653-.13-.63-.166-.603-.202-.58-.237-.553-.272-.526-.305-.497-.338-.468-.37-.438-.406-.404-.436-.368-.47-.33-.498-.29-.53-.243-.555-.197-.582-.145-.604-.09-.618-.036-.63.023-.635.083-.633.14-.624.195-.61.25-.59.3-.57.35-.547.393-.52.44-.496.482-.47.525-.443.568-.418.61-.392.65-.366 1.53 3.886-.475.266z"/></g><path d="M68.056 39.368c.254.905-.057 3-1.895 2.908-1.706-.087-1.857-1.904-1.456-2.968.66-1.756 2.805-1.887 3.352.06z" clip-rule="evenodd" fill="#010101" fill-rule="evenodd"/><path stroke-miterlimit="22.926" d="M53.51 53.613c4.448 5.455 3.786 14.337 2.64 19.867" clip-rule="evenodd" fill="none" fill-rule="evenodd" stroke="#042a3d" stroke-width="6.838"/><path d="M67.135 71.93c-.64 1.067-.558 2.366-.376 3.12.386 1.61 2.17 1.394 2.305.94.09-.302.334-.634 1.157.146s3.177.687 4.107-.285c.93-.97.156-3.59-1.813-2.74-1.39.6-2.923-.45-3.117-1.5-.194-1.046-1.688-.646-2.265.32z" clip-rule="evenodd" fill="#042a3d" fill-rule="evenodd"/><path stroke-miterlimit="22.926" d="M62.54 52.24c6.386 3.13 7.613 13.89 6.07 21.14" clip-rule="evenodd" fill="none" fill-rule="evenodd" stroke="#042a3d" stroke-width="6.838"/><path d="M54.232 27.93c1.04.13 1.756 1.55 1.602 3.17-.154 1.62-1.12 2.826-2.16 2.694-1.04-.132-1.756-1.55-1.602-3.17.154-1.62 1.12-2.827 2.16-2.695z" clip-rule="evenodd" fill="#fdcda2" fill-rule="evenodd"/><path d="M54.892 72.114c-.69 1.136-.686 2.464-.553 3.227.282 1.626 2.04 1.29 2.2.816.106-.316.363-.673 1.122.074.76.747 3.067.498 4.034-.56.967-1.058.366-3.696-1.61-2.696-1.395.706-2.833-.27-2.96-1.334-.128-1.064-1.613-.556-2.234.474z" clip-rule="evenodd" fill="#042a3d" fill-rule="evenodd"/><path d="M65.98 44.808c1.3.412 2.926.69 4.036 1.254l-4.806 5.576-4.253-6.448c1.426-.273 3.17-.325 4.648-.406l.374.024z" clip-rule="evenodd" fill="#cdcccc" fill-rule="evenodd"/><path d="M56.71 46.69c2.832-1.13 5.808-1.716 8.888-1.91-7.515-.608-14.26-6.554-16.076-13.017l-.03-.023c-.976 2.042 5.42 13.715 7.217 14.95z" clip-rule="evenodd" fill="#fff" fill-rule="evenodd"/><path d="M72.967 48.75c-1.726-1.812-4.176-3.03-6.995-3.945 4.11.235 8.426-1.137 12.277-4.9.032 1.85-3.628 7.56-5.283 8.845z" clip-rule="evenodd" fill="#fff" fill-rule="evenodd"/><path d="M65.953 45.278c1.3.412 2.417.853 3.527 1.416l-4.27 4.943-3.822-5.858c1.426-.274 2.712-.446 4.19-.527l.375.025z" clip-rule="evenodd" fill="#fff" fill-rule="evenodd"/><path d="M65.953 45.278l.017.007.017.007c.28.112.55.227.813.345.57.266.032 1.55-.378 1.93-.27.253-.51.346-.36.867.274.95.664 3.182.35 4.792l-1.46 1.128-.885-1.02c.006-1.8.632-3.863 1.067-5.017.246-.654-.032-.572-.31-1.16-.306-.652-.426-1.71.197-1.813.165-.025.332-.05.5-.072h.012l.01-.002h.012l.012-.003.012-.002.375.013z" clip-rule="evenodd" fill="#042a3d" fill-rule="evenodd"/><path d="M68.136 34.048c-.363-.046-.685.356-.72.898-.032.542.235 1.02.598 1.065.363.047.685-.355.718-.898.035-.54-.233-1.018-.596-1.064z" clip-rule="evenodd" fill="#010101" fill-rule="evenodd"/><path d="M64.81 33.865c-.363-.046-.685.356-.718.9-.034.54.234 1.018.597 1.064.362.045.684-.357.718-.9.032-.54-.235-1.018-.598-1.065z" clip-rule="evenodd" fill="#010101" fill-rule="evenodd"/><path d="M80.424 34.314c-.91-.843-3.796-3.32-3.143-3.762.655-.443 2.246.153 1.072-.596-1.174-.75-2.973-2.136-1.855-2.41.328-.082 1.278.142 2.076.758.716-.956 2.22 1.287 4.1 5.346.638 1.377-1.045 2.384-2.25.664z" clip-rule="evenodd" fill="#fdcda2" fill-rule="evenodd"/><g><path fill="#042a3d" d="M83.653 33.242l.418.776.366.777.31.775.26.772.208.768.157.76.107.752.056.74.007.728-.042.71-.09.693-.138.67-.184.644-.23.616-.272.583-.317.548-.357.51-.396.464-.434.418-.467.366-.5.31-.524.253-.55.19-.567.126-.58.06-.59-.007-.594-.076-.595-.143-.59-.21-.585-.274-.574-.34 1.816-3.716.302.178.286.135.27.095.252.06.238.03.223.004.21-.02.196-.045.186-.064.178-.085.17-.105.16-.127.155-.148.144-.17.136-.195.126-.218.114-.242.1-.268.083-.293.066-.32.044-.344.02-.37-.002-.395-.032-.42-.063-.444-.096-.467-.13-.49-.173-.51-.213-.53-.257-.548-.304-.565-.354-.58 2.962-2.552z"/></g><path d="M64.37 30.912c-.294.582-1.332 1.1-2.327.926.85.94 2.51.365 2.327-.926z" clip-rule="evenodd" fill="#39190d" fill-rule="evenodd"/><path d="M68.475 31.64c.204.63 1.152 1.344 2.157 1.366-.975.76-2.526-.13-2.157-1.367z" clip-rule="evenodd" fill="#39190d" fill-rule="evenodd"/></g></svg>