<?xml version="1.0" encoding="UTF-8" standalone="no"?>
<svg
   xmlns:dc="http://purl.org/dc/elements/1.1/"
   xmlns:cc="http://creativecommons.org/ns#"
   xmlns:rdf="http://www.w3.org/1999/02/22-rdf-syntax-ns#"
   xmlns:svg="http://www.w3.org/2000/svg"
   xmlns="http://www.w3.org/2000/svg"
   xmlns:sodipodi="http://sodipodi.sourceforge.net/DTD/sodipodi-0.dtd"
   xmlns:inkscape="http://www.inkscape.org/namespaces/inkscape"
   width="119.822"
   height="119.84"
   viewBox="0 0 119.822 119.84"
   id="svg2"
   version="1.1"
   inkscape:version="0.91pre3 r13670"
   sodipodi:docname="desafio-bw.svg">
  <metadata
     id="metadata462">
    <rdf:RDF>
      <cc:Work
         rdf:about="">
        <dc:format>image/svg+xml</dc:format>
        <dc:type
           rdf:resource="http://purl.org/dc/dcmitype/StillImage" />
        <dc:title>Desafio</dc:title>
      </cc:Work>
    </rdf:RDF>
  </metadata>
  <defs
     id="defs460">
    <filter
       style="color-interpolation-filters:sRGB;"
       inkscape:label="Greyscale"
       id="filter8318">
      <feColorMatrix
         values="0.21 0.72 0.072 0 0 0.21 0.72 0.072 0 0 0.21 0.72 0.072 0 0 0 0 0 1 0 "
         id="feColorMatrix8320" />
    </filter>
  </defs>
  <sodipodi:namedview
     pagecolor="#ffffff"
     bordercolor="#666666"
     borderopacity="1"
     objecttolerance="10"
     gridtolerance="10"
     guidetolerance="10"
     inkscape:pageopacity="0"
     inkscape:pageshadow="2"
     inkscape:window-width="640"
     inkscape:window-height="480"
     id="namedview458"
     showgrid="false"
     inkscape:zoom="1.9692925"
     inkscape:cx="42.13812"
     inkscape:cy="59.92"
     inkscape:window-x="-8"
     inkscape:window-y="-8"
     inkscape:window-maximized="1"
     inkscape:current-layer="svg2" />
  <title
     id="title4">Desafio</title>
  <g
     transform="matrix(0.62340114,0,0,0.55139141,21.226088,16.008522)"
     id="g6"
     style="filter:url(#filter8318)">
    <ellipse
       cx="62.639"
       cy="62.224998"
       rx="53.068001"
       ry="55.977001"
       id="ellipse8"
       style="opacity:0.2;fill:#9ad8da" />
    <linearGradient
       id="a"
       gradientUnits="userSpaceOnUse"
       x1="89.282997"
       y1="31.002001"
       x2="89.778"
       y2="17.57">
      <stop
         offset="0"
         stop-color="#535454"
         id="stop11" />
      <stop
         offset="1"
         stop-color="#7C7C7C"
         id="stop13" />
    </linearGradient>
    <path
       d="m 105.458,24.137 c -2.152,-1.366 -4.39,-2.438 -6.534,-3.828 -2.08,-1.35 -4.108,-2.877 -6.213,-4.15 -0.077,-0.046 -0.156,-0.09 -0.235,-0.136 l -18.688,0.036 0.888,3.59 20.124,5.073 10.78,-0.505 -0.122,-0.08 z"
       id="path15"
       style="fill:url(#a)"
       inkscape:connector-curvature="0" />
    <linearGradient
       id="b"
       gradientUnits="userSpaceOnUse"
       x1="47.966"
       y1="19.844999"
       x2="47.966"
       y2="15.514">
      <stop
         offset="0"
         stop-color="#484848"
         id="stop18" />
      <stop
         offset="1"
         stop-color="#808080"
         id="stop20" />
    </linearGradient>
    <path
       d="m 24.86,14.805 c -0.262,0.365 -0.525,0.73 -0.788,1.093 l 1.354,0.007 1.38,1.024 44.8,0.028 0.254,-2.03 -47,-0.123 z"
       id="path22"
       style="fill:url(#b)"
       inkscape:connector-curvature="0" />
    <linearGradient
       id="c"
       gradientUnits="userSpaceOnUse"
       x1="21.907"
       y1="26.537001"
       x2="21.747999"
       y2="16.742001">
      <stop
         offset="0"
         stop-color="#484848"
         id="stop25" />
      <stop
         offset="1"
         stop-color="#808080"
         id="stop27" />
    </linearGradient>
    <path
       d="m 18.774,23.756 2.786,0 3.285,-6.497 -1.363,-0.01 c -1.57,2.17 -3.144,4.33 -4.708,6.506 z"
       id="path29"
       style="fill:url(#c)"
       inkscape:connector-curvature="0" />
    <linearGradient
       id="d"
       gradientUnits="userSpaceOnUse"
       x1="93.599998"
       y1="25.948"
       x2="92.799004"
       y2="38.576">
      <stop
         offset="0"
         stop-color="#7E7E7E"
         id="stop32" />
      <stop
         offset="1"
         stop-color="#656565"
         id="stop34" />
    </linearGradient>
    <path
       d="m 110.53,27.455 -34.997,0.048 1.808,4.477 33.845,0 0,-4.173 c -0.22,-0.112 -0.44,-0.23 -0.656,-0.352 z"
       id="path36"
       style="fill:url(#d)"
       inkscape:connector-curvature="0" />
    <linearGradient
       id="e"
       gradientUnits="userSpaceOnUse"
       x1="37.248001"
       y1="28.018999"
       x2="37.372002"
       y2="20.818001">
      <stop
         offset="0"
         stop-color="#484848"
         id="stop39" />
      <stop
         offset="1"
         stop-color="#808080"
         id="stop41" />
    </linearGradient>
    <path
       d="m 53.982,25.483 -0.984,-3.14 -32.057,-0.098 -0.286,0.136 0.032,3.162 z"
       id="path43"
       style="fill:url(#e)"
       inkscape:connector-curvature="0" />
    <linearGradient
       id="f"
       gradientUnits="userSpaceOnUse"
       x1="26.236"
       y1="37.48"
       x2="27.216"
       y2="22.292">
      <stop
         offset="0"
         stop-color="#535454"
         id="stop46" />
      <stop
         offset="1"
         stop-color="#7C7C7C"
         id="stop48" />
    </linearGradient>
    <path
       d="m 38.556,23.874 -19.86,-0.006 c -0.487,0.676 -0.972,1.35 -1.454,2.032 -0.088,0.124 -0.18,0.244 -0.272,0.364 -0.417,0.72 -0.947,1.353 -1.356,2.024 -0.297,0.486 -0.635,1.083 -1.014,1.568 -0.05,0.088 -0.11,0.17 -0.175,0.25 -0.097,0.283 -0.23,0.535 -0.385,0.764 l 0,5.167 24.9,0.276 -0.384,-12.44 z"
       id="path50"
       style="fill:url(#f)"
       inkscape:connector-curvature="0" />
    <linearGradient
       id="g"
       gradientUnits="userSpaceOnUse"
       x1="66.995003"
       y1="22.695999"
       x2="66.788002"
       y2="17.344999">
      <stop
         offset="0"
         stop-color="#535454"
         id="stop53" />
      <stop
         offset="1"
         stop-color="#7C7C7C"
         id="stop55" />
    </linearGradient>
    <path
       d="m 79.85,20.8 -1.27,-3.726 -24.726,0.098 0.763,3.727 z"
       id="path57"
       style="fill:url(#g)"
       inkscape:connector-curvature="0" />
    <linearGradient
       id="h"
       gradientUnits="userSpaceOnUse"
       x1="18.125999"
       y1="31.954"
       x2="13.344"
       y2="31.891001">
      <stop
         offset="0"
         stop-color="#575858"
         id="stop60" />
      <stop
         offset="1"
         stop-color="#717171"
         id="stop62" />
    </linearGradient>
    <path
       d="m 18.624,29.677 -2.16,2.264 0.51,2.225 1.618,0.078 z"
       id="path64"
       style="fill:url(#h)"
       inkscape:connector-curvature="0" />
    <linearGradient
       id="i"
       gradientUnits="userSpaceOnUse"
       x1="44.618"
       y1="31.334999"
       x2="44.618"
       y2="25.249001">
      <stop
         offset="0"
         stop-color="#535454"
         id="stop67" />
      <stop
         offset="1"
         stop-color="#7C7C7C"
         id="stop69" />
    </linearGradient>
    <path
       d="m 70.77,31.98 -52.43,-2.46 0.952,-2.125 1.618,-1.775 49.99,0 z"
       id="path71"
       style="fill:url(#i)"
       inkscape:connector-curvature="0" />
    <linearGradient
       id="j"
       gradientUnits="userSpaceOnUse"
       x1="58.806"
       y1="34.805"
       x2="58.806"
       y2="28.757">
      <stop
         offset="0"
         stop-color="#6B6B6A"
         id="stop74" />
      <stop
         offset="1"
         stop-color="#7E7E7E"
         id="stop76" />
    </linearGradient>
    <path
       d="m 63.464,34.336 -9.466,-0.132 0.317,-4.37 9.3,0.048 z"
       id="path78"
       style="fill:url(#j)"
       inkscape:connector-curvature="0" />
    <linearGradient
       id="k"
       gradientUnits="userSpaceOnUse"
       x1="94.779999"
       y1="29.507"
       x2="94.722"
       y2="31.900999">
      <stop
         offset="0"
         stop-color="#6E6D6E"
         id="stop81" />
      <stop
         offset="1"
         stop-color="#616262"
         id="stop83" />
    </linearGradient>
    <path
       d="m 95.037,31.746 0.08,-2.04 -0.62,-0.516 -0.11,2.468 z"
       id="path85"
       style="fill:url(#k)"
       inkscape:connector-curvature="0" />
    <linearGradient
       id="l"
       gradientUnits="userSpaceOnUse"
       x1="77.446999"
       y1="17.985001"
       x2="81.783997"
       y2="19.224001">
      <stop
         offset="0"
         stop-color="#484848"
         id="stop88" />
      <stop
         offset="1"
         stop-color="#808080"
         id="stop90" />
    </linearGradient>
    <path
       d="m 80.072,19.533 0.126,-1.444 -1.46,-0.898 -0.317,0.04 0.032,2.203 z"
       id="path92"
       style="fill:url(#l)"
       inkscape:connector-curvature="0" />
    <linearGradient
       id="m"
       gradientUnits="userSpaceOnUse"
       x1="105.764"
       y1="28.528999"
       x2="114.421"
       y2="30.681">
      <stop
         offset="0"
         stop-color="#484848"
         id="stop95" />
      <stop
         offset="1"
         stop-color="#808080"
         id="stop97" />
    </linearGradient>
    <path
       d="m 109.78,31.355 1.405,-0.063 0,-2.744 -1.373,-0.84 z"
       id="path99"
       style="fill:url(#m)"
       inkscape:connector-curvature="0" />
    <linearGradient
       id="n"
       gradientUnits="userSpaceOnUse"
       x1="52.653999"
       y1="31.209"
       x2="55.924999"
       y2="30.27">
      <stop
         offset="0"
         stop-color="#424242"
         id="stop102" />
      <stop
         offset="1"
         stop-color="#7E7E7E"
         id="stop104" />
    </linearGradient>
    <path
       d="m 54.3,34.282 0.126,-4.575 -0.635,-2.37 -0.19,6.945 z"
       id="path106"
       style="fill:url(#n)"
       inkscape:connector-curvature="0" />
    <linearGradient
       id="o"
       gradientUnits="userSpaceOnUse"
       x1="20.642"
       y1="27.900999"
       x2="16.636999"
       y2="29.76">
      <stop
         offset="0"
         stop-color="#575858"
         id="stop109" />
      <stop
         offset="1"
         stop-color="#717171"
         id="stop111" />
    </linearGradient>
    <path
       d="m 21.29,25.708 -0.43,0.224 -1.474,2.068 0.38,1.385 1.524,0.108 z"
       id="path113"
       style="fill:url(#o)"
       inkscape:connector-curvature="0" />
    <linearGradient
       id="p"
       gradientUnits="userSpaceOnUse"
       x1="46.966999"
       y1="37.637001"
       x2="46.966999"
       y2="28.312">
      <stop
         offset="0"
         stop-color="#484848"
         id="stop116" />
      <stop
         offset="1"
         stop-color="#808080"
         id="stop118" />
    </linearGradient>
    <path
       d="m 53.79,34.4 0.064,-6.83 -13.775,-0.185 0.095,7.14 z"
       id="path120"
       style="fill:url(#p)"
       inkscape:connector-curvature="0" />
    <linearGradient
       id="q"
       gradientUnits="userSpaceOnUse"
       x1="39.66"
       y1="30.819"
       x2="37.431999"
       y2="30.839001">
      <stop
         offset="0"
         stop-color="#575858"
         id="stop123" />
      <stop
         offset="1"
         stop-color="#717171"
         id="stop125" />
    </linearGradient>
    <path
       d="m 40.08,27.385 -0.762,0.03 -0.762,6.75 1.65,0.078 z"
       id="path127"
       style="fill:url(#q)"
       inkscape:connector-curvature="0" />
    <linearGradient
       id="r"
       gradientUnits="userSpaceOnUse"
       x1="52.18"
       y1="23.879999"
       x2="54.301998"
       y2="23.948999">
      <stop
         offset="0"
         stop-color="#424242"
         id="stop130" />
      <stop
         offset="1"
         stop-color="#7E7E7E"
         id="stop132" />
    </linearGradient>
    <path
       d="m 53.442,25.385 -0.54,-2.945 -0.254,-0.02 -0.127,2.946 z"
       id="path134"
       style="fill:url(#r)"
       inkscape:connector-curvature="0" />
    <linearGradient
       id="s"
       gradientUnits="userSpaceOnUse"
       x1="90.623001"
       y1="27.247999"
       x2="90.049004"
       y2="21.194">
      <stop
         offset="0"
         stop-color="#535454"
         id="stop137" />
      <stop
         offset="1"
         stop-color="#7C7C7C"
         id="stop139" />
    </linearGradient>
    <path
       d="m 89.604,22.225 -7.84,-4.312 0.032,-1.248 15.362,-0.04 0.444,0.118 -0.253,5.404 z"
       id="path141"
       style="fill:url(#s)"
       inkscape:connector-curvature="0" />
    <linearGradient
       id="t"
       gradientUnits="userSpaceOnUse"
       x1="70.620003"
       y1="31.379"
       x2="75.583"
       y2="25.868">
      <stop
         offset="0"
         stop-color="#484848"
         id="stop144" />
      <stop
         offset="1"
         stop-color="#808080"
         id="stop146" />
    </linearGradient>
    <path
       d="m 75.343,31.863 -4.76,-0.215 0.03,-5.99 z"
       id="path148"
       style="fill:url(#t)"
       inkscape:connector-curvature="0" />
    <linearGradient
       id="u"
       gradientUnits="userSpaceOnUse"
       x1="38.772999"
       y1="25.367001"
       x2="38.352001"
       y2="22.461">
      <stop
         offset="0"
         stop-color="#484848"
         id="stop151" />
      <stop
         offset="1"
         stop-color="#808080"
         id="stop153" />
    </linearGradient>
    <path
       d="m 38.778,25.347 -0.175,0.004 -0.047,-1.33 0.127,-0.43 z"
       id="path155"
       style="fill:url(#u)"
       inkscape:connector-curvature="0" />
    <linearGradient
       id="v"
       gradientUnits="userSpaceOnUse"
       x1="103.084"
       y1="26.905001"
       x2="102.553"
       y2="48.969002">
      <stop
         offset="0"
         stop-color="#7E7E7E"
         id="stop158" />
      <stop
         offset="1"
         stop-color="#656565"
         id="stop160" />
    </linearGradient>
    <path
       d="m 95.117,29.756 -1.207,19.51 17.275,-0.156 0,-19.627 -15.497,0 z"
       id="path162"
       style="fill:url(#v)"
       inkscape:connector-curvature="0" />
    <linearGradient
       id="w"
       gradientUnits="userSpaceOnUse"
       x1="69.991997"
       y1="29.992001"
       x2="69.706001"
       y2="20.268">
      <stop
         offset="0"
         stop-color="#535454"
         id="stop165" />
      <stop
         offset="1"
         stop-color="#7C7C7C"
         id="stop167" />
    </linearGradient>
    <path
       d="m 72.517,25.464 2.16,1.794 9.743,0.118 -0.794,-6.614 -28.406,0.117 1.332,4.603 z"
       id="path169"
       style="fill:url(#w)"
       inkscape:connector-curvature="0" />
    <linearGradient
       id="x"
       gradientUnits="userSpaceOnUse"
       x1="17.893"
       y1="31.433001"
       x2="17.893"
       y2="27.766001">
      <stop
         offset="0"
         stop-color="#484848"
         id="stop172" />
      <stop
         offset="1"
         stop-color="#808080"
         id="stop174" />
    </linearGradient>
    <path
       d="m 19.83,29.463 -0.064,-1.51 -3.555,0.037 -0.253,0.088 0.095,1.385 z"
       id="path176"
       style="fill:url(#x)"
       inkscape:connector-curvature="0" />
    <linearGradient
       id="y"
       gradientUnits="userSpaceOnUse"
       x1="83.001999"
       y1="24.341"
       x2="87.635002"
       y2="23.913">
      <stop
         offset="0"
         stop-color="#484848"
         id="stop179" />
      <stop
         offset="1"
         stop-color="#808080"
         id="stop181" />
    </linearGradient>
    <path
       d="m 85.57,27.444 -0.047,-5.02 -2.096,-1.462 -0.046,6.38 z"
       id="path183"
       style="fill:url(#y)"
       inkscape:connector-curvature="0" />
    <linearGradient
       id="z"
       gradientUnits="userSpaceOnUse"
       x1="66.115997"
       y1="23.322001"
       x2="72"
       y2="24.538">
      <stop
         offset="0"
         stop-color="#484848"
         id="stop186" />
      <stop
         offset="1"
         stop-color="#808080"
         id="stop188" />
    </linearGradient>
    <path
       d="M 71.12,25.58 68.867,22.127 68.075,22.03 68.043,25.483 Z"
       id="path190"
       style="fill:url(#z)"
       inkscape:connector-curvature="0" />
    <linearGradient
       id="A"
       gradientUnits="userSpaceOnUse"
       x1="86.611"
       y1="27.294001"
       x2="87.027"
       y2="20.046">
      <stop
         offset="0"
         stop-color="#7D7D7D"
         id="stop193" />
      <stop
         offset="1"
         stop-color="#9B9C9C"
         id="stop195" />
    </linearGradient>
    <path
       d="m 88.276,27.356 0.144,-4.79 -3.206,0.01 -0.143,4.78 z"
       id="path197"
       style="fill:url(#A)"
       inkscape:connector-curvature="0" />
    <linearGradient
       id="B"
       gradientUnits="userSpaceOnUse"
       x1="85.515999"
       y1="25.473"
       x2="92.279999"
       y2="25.572001">
      <stop
         offset="0"
         stop-color="#484848"
         id="stop200" />
      <stop
         offset="1"
         stop-color="#808080"
         id="stop202" />
    </linearGradient>
    <path
       d="m 88.086,27.385 0.222,-3.355 -0.62,-0.4 -0.204,3.707 z"
       id="path204"
       style="fill:url(#B)"
       inkscape:connector-curvature="0" />
    <linearGradient
       id="C"
       gradientUnits="userSpaceOnUse"
       x1="96.236"
       y1="23.122"
       x2="95.690002"
       y2="31.728001">
      <stop
         offset="0"
         stop-color="#7E7E7E"
         id="stop207" />
      <stop
         offset="1"
         stop-color="#656565"
         id="stop209" />
    </linearGradient>
    <path
       d="m 103.972,27.532 0.064,-3.648 -15.87,0.107 -0.144,3.424 z"
       id="path211"
       style="fill:url(#C)"
       inkscape:connector-curvature="0" />
    <linearGradient
       id="D"
       gradientUnits="userSpaceOnUse"
       x1="26.673"
       y1="36.428001"
       x2="26.917999"
       y2="28.816999">
      <stop
         offset="0"
         stop-color="#484848"
         id="stop214" />
      <stop
         offset="1"
         stop-color="#808080"
         id="stop216" />
    </linearGradient>
    <path
       d="m 18.37,29.6 c 0.222,0 17.043,0.078 17.043,0.078 L 34.398,34.243 18.465,34.205 18.37,29.599 Z"
       id="path218"
       style="fill:url(#D)"
       inkscape:connector-curvature="0" />
    <linearGradient
       id="E"
       gradientUnits="userSpaceOnUse"
       x1="25.364"
       y1="20.986"
       x2="23.145"
       y2="21.959999">
      <stop
         offset="0"
         stop-color="#575858"
         id="stop221" />
      <stop
         offset="1"
         stop-color="#717171"
         id="stop223" />
    </linearGradient>
    <path
       d="m 25.923,19.513 -0.476,0.06 -1.618,2.574 2.03,0 z"
       id="path225"
       style="fill:url(#E)"
       inkscape:connector-curvature="0" />
    <linearGradient
       id="F"
       gradientUnits="userSpaceOnUse"
       x1="40.492001"
       y1="26.332001"
       x2="40.492001"
       y2="20.011">
      <stop
         offset="0"
         stop-color="#484848"
         id="stop228" />
      <stop
         offset="1"
         stop-color="#808080"
         id="stop230" />
    </linearGradient>
    <path
       d="m 52.172,22.284 -26.47,-0.098 -0.032,-2.634 29.295,0.02 0.35,0.117 -0.063,1.072 z"
       id="path232"
       style="fill:url(#F)"
       inkscape:connector-curvature="0" />
    <linearGradient
       id="G"
       gradientUnits="userSpaceOnUse"
       x1="45.07"
       y1="23.546"
       x2="45.334999"
       y2="19.775999">
      <stop
         offset="0"
         stop-color="#484848"
         id="stop235" />
      <stop
         offset="1"
         stop-color="#808080"
         id="stop237" />
    </linearGradient>
    <path
       d="m 52.807,22.264 -0.286,-1.405 -14.472,-0.08 -0.444,0.196 0,1.17 z"
       id="path239"
       style="fill:url(#G)"
       inkscape:connector-curvature="0" />
    <linearGradient
       id="H"
       gradientUnits="userSpaceOnUse"
       x1="97.086998"
       y1="22.194"
       x2="103.487"
       y2="23.444">
      <stop
         offset="0"
         stop-color="#484848"
         id="stop242" />
      <stop
         offset="1"
         stop-color="#808080"
         id="stop244" />
    </linearGradient>
    <path
       d="M 103.813,23.98 99.243,21.21 99.147,24 Z"
       id="path246"
       style="fill:url(#H)"
       inkscape:connector-curvature="0" />
    <linearGradient
       id="I"
       gradientUnits="userSpaceOnUse"
       x1="33.106998"
       y1="22.02"
       x2="33.199001"
       y2="17.761999">
      <stop
         offset="0"
         stop-color="#484848"
         id="stop249" />
      <stop
         offset="1"
         stop-color="#808080"
         id="stop251" />
    </linearGradient>
    <path
       d="m 26.605,19.367 0.24,-2.224 12.925,0.06 -0.07,2.252 z"
       id="path253"
       style="fill:url(#I)"
       inkscape:connector-curvature="0" />
    <linearGradient
       id="J"
       gradientUnits="userSpaceOnUse"
       x1="46.411999"
       y1="21.444"
       x2="46.411999"
       y2="16.919001">
      <stop
         offset="0"
         stop-color="#484848"
         id="stop256" />
      <stop
         offset="1"
         stop-color="#808080"
         id="stop258" />
    </linearGradient>
    <path
       d="M 54.394,19.416 54.426,18.44 38.62,18.304 38.43,18.401 38.398,19.514 Z"
       id="path260"
       style="fill:url(#J)"
       inkscape:connector-curvature="0" />
    <linearGradient
       id="K"
       gradientUnits="userSpaceOnUse"
       x1="26.888"
       y1="18.375"
       x2="24.327"
       y2="18.525">
      <stop
         offset="0"
         stop-color="#575858"
         id="stop263" />
      <stop
         offset="1"
         stop-color="#717171"
         id="stop265" />
    </linearGradient>
    <path
       d="m 25.654,19.425 0.19,-0.82 1.158,-1.296 0.033,2.115 z"
       id="path267"
       style="fill:url(#K)"
       inkscape:connector-curvature="0" />
    <linearGradient
       id="L"
       gradientUnits="userSpaceOnUse"
       x1="76.315002"
       y1="24.094999"
       x2="76.466003"
       y2="19.149">
      <stop
         offset="0"
         stop-color="#535454"
         id="stop270" />
      <stop
         offset="1"
         stop-color="#7C7C7C"
         id="stop272" />
    </linearGradient>
    <path
       d="m 69.947,20.703 -0.54,-1.19 13.775,-0.02 0.317,0.118 -0.065,1.113 z"
       id="path274"
       style="fill:url(#L)"
       inkscape:connector-curvature="0" />
    <linearGradient
       id="M"
       gradientUnits="userSpaceOnUse"
       x1="99.314003"
       y1="24.586"
       x2="109.126"
       y2="27.024">
      <stop
         offset="0"
         stop-color="#484848"
         id="stop277" />
      <stop
         offset="1"
         stop-color="#808080"
         id="stop279" />
    </linearGradient>
    <path
       d="m 109.272,27.356 -5.427,-3.472 -0.032,3.648 z"
       id="path281"
       style="fill:url(#M)"
       inkscape:connector-curvature="0" />
    <linearGradient
       id="N"
       gradientUnits="userSpaceOnUse"
       x1="72.824997"
       y1="54.611"
       x2="82.462997"
       y2="24.318001">
      <stop
         offset="0"
         stop-color="#7D7D7D"
         id="stop284" />
      <stop
         offset="1"
         stop-color="#9B9C9C"
         id="stop286" />
    </linearGradient>
    <path
       d="m 96.83,52.64 1.142,-20.426 -1.618,-0.35 -39.707,0.115 0,20.66 z"
       id="path288"
       style="fill:url(#N)"
       inkscape:connector-curvature="0" />
    <linearGradient
       id="O"
       gradientUnits="userSpaceOnUse"
       x1="70.067001"
       y1="16.207001"
       x2="72.940002"
       y2="17.384001">
      <stop
         offset="0"
         stop-color="#484848"
         id="stop291" />
      <stop
         offset="1"
         stop-color="#808080"
         id="stop293" />
    </linearGradient>
    <path
       d="m 72.248,17.055 -1.032,0.098 0.03,-0.937 z"
       id="path295"
       style="fill:url(#O)"
       inkscape:connector-curvature="0" />
    <linearGradient
       id="P"
       gradientUnits="userSpaceOnUse"
       x1="39.883999"
       y1="18.621"
       x2="39.777"
       y2="16.950001">
      <stop
         offset="0"
         stop-color="#575858"
         id="stop298" />
      <stop
         offset="1"
         stop-color="#717171"
         id="stop300" />
    </linearGradient>
    <path
       d="m 39.897,18.157 0.016,-1.21 -0.15,0.323 -0.04,0.955 z"
       id="path302"
       style="fill:url(#P)"
       inkscape:connector-curvature="0" />
    <linearGradient
       id="Q"
       gradientUnits="userSpaceOnUse"
       x1="101.737"
       y1="34.939999"
       x2="100.331"
       y2="55.867001">
      <stop
         offset="0"
         stop-color="#8C8C8C"
         id="stop305" />
      <stop
         offset="1"
         stop-color="#8B8B8B"
         id="stop307" />
    </linearGradient>
    <path
       d="m 100.448,56.8 0.635,-0.176 1.143,-21.343 -1.27,-0.663 L 99.56,56 Z"
       id="path309"
       style="fill:url(#Q)"
       inkscape:connector-curvature="0" />
    <linearGradient
       id="R"
       gradientUnits="userSpaceOnUse"
       x1="55.445"
       y1="33.025002"
       x2="58.700001"
       y2="32.597">
      <stop
         offset="0"
         stop-color="#575858"
         id="stop312" />
      <stop
         offset="1"
         stop-color="#717171"
         id="stop314" />
    </linearGradient>
    <path
       d="m 56.743,34.195 0.078,-2.05 0.05,-0.36 -0.334,-0.244 -0.062,2.655 z"
       id="path316"
       style="fill:url(#R)"
       inkscape:connector-curvature="0" />
    <linearGradient
       id="S"
       gradientUnits="userSpaceOnUse"
       x1="44.653"
       y1="35.248001"
       x2="44.889999"
       y2="56.716999">
      <stop
         offset="0"
         stop-color="#B5B6B6"
         id="stop319" />
      <stop
         offset="1"
         stop-color="#B5B6B6"
         id="stop321" />
    </linearGradient>
    <path
       d="m 74.548,56.795 0.953,-21.89 -61.462,-0.015 0,21.86 z"
       id="path323"
       style="fill:url(#S)"
       inkscape:connector-curvature="0" />
    <linearGradient
       id="T"
       gradientUnits="userSpaceOnUse"
       x1="28.634001"
       y1="15.671"
       x2="28.634001"
       y2="34.631001">
      <stop
         offset="0"
         stop-color="#BABABA"
         id="stop326" />
      <stop
         offset="1"
         stop-color="#B9B9B9"
         id="stop328" />
    </linearGradient>
    <path
       d="m 18.875,23.615 -0.29,0.405 19.972,0 0.127,-0.43 -19.81,0.025 z"
       id="path330"
       style="fill:url(#T)"
       inkscape:connector-curvature="0" />
    <linearGradient
       id="U"
       gradientUnits="userSpaceOnUse"
       x1="102.841"
       y1="15.671"
       x2="102.841"
       y2="34.632">
      <stop
         offset="0"
         stop-color="#BABABA"
         id="stop333" />
      <stop
         offset="1"
         stop-color="#B9B9B9"
         id="stop335" />
    </linearGradient>
    <path
       d="m 111.185,29.208 -16.69,-0.018 0.622,0.566 16.068,-0.016 z"
       id="path337"
       style="fill:url(#U)"
       inkscape:connector-curvature="0" />
    <linearGradient
       id="V"
       gradientUnits="userSpaceOnUse"
       x1="53.575001"
       y1="17.399"
       x2="53.575001"
       y2="36.709"
       gradientTransform="matrix(1,0.002,-0.002,1,-0.45,-0.31)">
      <stop
         offset="0"
         stop-color="#BABABA"
         id="stop340" />
      <stop
         offset="1"
         stop-color="#B9B9B9"
         id="stop342" />
    </linearGradient>
    <path
       d="m 31.37,17.64 43.427,0.154 -0.222,-0.254 -43.014,-0.16 -0.19,0.26 z"
       id="path344"
       style="fill:url(#V)"
       inkscape:connector-curvature="0" />
    <linearGradient
       id="W"
       gradientUnits="userSpaceOnUse"
       x1="106.071"
       y1="27.629999"
       x2="106.071"
       y2="47.223999">
      <stop
         offset="0"
         stop-color="#BABABA"
         id="stop347" />
      <stop
         offset=".21"
         stop-color="#BFBFBF"
         id="stop349" />
      <stop
         offset=".491"
         stop-color="#CECDCD"
         id="stop351" />
      <stop
         offset=".813"
         stop-color="#E8E7E6"
         id="stop353" />
      <stop
         offset="1"
         stop-color="#fff"
         id="stop355" />
    </linearGradient>
    <path
       d="m 101.717,35.28 9.468,-0.018 0,-0.666 -10.23,0.02 z"
       id="path357"
       style="fill:url(#W)"
       inkscape:connector-curvature="0" />
    <linearGradient
       id="X"
       gradientUnits="userSpaceOnUse"
       x1="39.950001"
       y1="23.403999"
       x2="36.186001"
       y2="46.970001">
      <stop
         offset="0"
         stop-color="#BABABA"
         id="stop360" />
      <stop
         offset="1"
         stop-color="#B9B9B9"
         id="stop362" />
    </linearGradient>
    <path
       d="m 63.25,29.366 -4.952,-0.04 -0.7,-2.145 -21.835,0.04 -0.508,2.03 -20.187,0.077 -0.74,1.025 c -0.083,0.185 -0.18,0.356 -0.29,0.517 l 0,1.267 3.19,0 1.46,-2.302 16.377,0 -0.857,4.31 5.046,-0.03 0.7,-6.466 13.9,0.037 0.572,2.224 9.204,0 -0.38,-0.544 z"
       id="path364"
       style="fill:url(#X)"
       inkscape:connector-curvature="0" />
    <linearGradient
       id="Y"
       gradientUnits="userSpaceOnUse"
       x1="40.080002"
       y1="19.483999"
       x2="119.24"
       y2="19.483999">
      <stop
         offset="0"
         stop-color="#BABABA"
         id="stop367" />
      <stop
         offset="1"
         stop-color="#B9B9B9"
         id="stop369" />
    </linearGradient>
    <path
       d="m 83.945,20.47 -1.46,-1.156 -6.033,-0.015 -0.824,-0.82 18.785,0.017 -0.052,-0.032 c -0.138,-0.084 -0.277,-0.162 -0.417,-0.24 l -25.36,0.02 0.252,0.235 4.062,0.04 0.7,0.78 -20.757,-0.04 0.27,1.18 -12.967,-0.01 -0.063,0.273 15.997,0.04 -0.3,-1.21 24.292,0 1.334,1.21 15.806,0 -0.54,-0.26 -12.727,-0.014 z"
       id="path371"
       style="fill:url(#Y)"
       inkscape:connector-curvature="0" />
    <linearGradient
       id="Z"
       gradientUnits="userSpaceOnUse"
       x1="109.154"
       y1="38.624001"
       x2="109.386"
       y2="59.605">
      <stop
         offset="0"
         stop-color="#B5B6B6"
         id="stop374" />
      <stop
         offset="1"
         stop-color="#B5B6B6"
         id="stop376" />
    </linearGradient>
    <path
       d="m 103.903,60.034 10.738,-0.023 0,-21.513 -9.45,0.02 z"
       id="path378"
       style="fill:url(#Z)"
       inkscape:connector-curvature="0" />
    <linearGradient
       id="aa"
       gradientUnits="userSpaceOnUse"
       x1="15.584"
       y1="34.353001"
       x2="15.703"
       y2="31.396999">
      <stop
         offset="0"
         stop-color="#7D7D7D"
         id="stop381" />
      <stop
         offset="1"
         stop-color="#9B9C9C"
         id="stop383" />
    </linearGradient>
    <path
       d="m 14.038,32.136 3.19,0 0,2.03 -3.19,0 z"
       id="path385"
       style="fill:url(#aa)"
       inkscape:connector-curvature="0" />
    <linearGradient
       id="ab"
       gradientUnits="userSpaceOnUse"
       x1="44.77"
       y1="29.405001"
       x2="44.77"
       y2="43.451">
      <stop
         offset="0"
         stop-color="#BABABA"
         id="stop388" />
      <stop
         offset=".21"
         stop-color="#BFBFBF"
         id="stop390" />
      <stop
         offset=".491"
         stop-color="#CECDCD"
         id="stop392" />
      <stop
         offset=".813"
         stop-color="#E8E7E6"
         id="stop394" />
      <stop
         offset="1"
         stop-color="#fff"
         id="stop396" />
    </linearGradient>
    <path
       d="m 74.548,34.087 -60.51,0.008 0,0.828 61.463,-0.017 z"
       id="path398"
       style="fill:url(#ab)"
       inkscape:connector-curvature="0" />
    <path
       d="m 100.59,27.97 c -2.152,-1.367 -4.39,-2.44 -6.534,-3.83 -2.08,-1.347 -4.108,-2.875 -6.213,-4.147 -0.14,-0.084 -0.278,-0.162 -0.418,-0.238 l -24.798,0.02 -0.008,-0.01 -43.016,-0.053 c -2.406,3.347 -4.84,6.65 -7.23,10.02 -0.09,0.123 -0.18,0.243 -0.273,0.363 -0.416,0.72 -0.946,1.353 -1.355,2.024 -0.297,0.485 -0.635,1.082 -1.014,1.567 -0.048,0.088 -0.108,0.17 -0.174,0.25 -0.097,0.283 -0.23,0.535 -0.385,0.764 l 0,25.882 60.51,0.047 0.182,-4.156 22.1,0 0.19,-3.404 2.984,-0.027 -0.444,6.79 0.888,0.8 10.737,-0.024 0,-28.968 c -1.96,-0.997 -3.838,-2.472 -5.727,-3.67 z"
       id="path400"
       inkscape:connector-curvature="0"
       style="fill:#7675ad" />
    <g
       id="g402"
       style="fill:#ffffff">
      <path
         d="m 52.28,68.434 c 4.038,-2.573 7.97,-2.162 9.78,-1.76 0.862,-1.066 2.572,-2.907 5.024,-4.295 -1.066,-3.173 -1.623,-8.936 1.99,-13.18 -0.652,-2.388 -4.45,-7.105 -11.49,-5.572 -6.474,1.408 -7.447,7.63 -7.484,7.893 -0.07,0.48 -0.378,0.896 -0.817,1.102 -0.438,0.206 -0.945,0.173 -1.338,-0.087 -0.1,-0.06 -3.01,-1.738 -8.537,2.056 -4.513,3.097 -4.187,7.226 -3.902,8.676 0.326,0.06 0.653,0.13 0.98,0.212 6.342,1.63 9.958,6.853 11.804,10.636 0.488,-2.003 1.605,-4.16 3.99,-5.68 z"
         id="path404"
         inkscape:connector-curvature="0" />
      <path
         d="m 106.825,56.593 c -4.195,-10.5 -11.734,-12.16 -11.734,-12.16 0,0 -2.566,-4.853 -9.242,-8.487 C 75.691,30.879 66.944,35.932 66.944,35.932 50.75,29.076 41.699,42.808 41.699,42.808 c -19.058,1.14 -19.1,16.31 -19.1,16.31 -9.37,4.848 -13.183,19.35 -1.64,28.727 8.85,7.193 16.946,4.14 20.238,2.33 0.06,-3.365 1.302,-7.61 6.03,-11.13 -0.148,-0.524 -3.11,-10.718 -11.503,-12.876 -5.03,-1.293 -9.216,1.164 -10.976,3.992 -1.67,2.682 -1.33,5.683 0.932,8.23 1.177,1.29 2.462,1.94 3.916,1.97 2.814,0.06 5.304,-2.264 5.33,-2.287 0.56,-0.533 1.435,-0.522 1.95,0.025 0.514,0.548 0.48,1.424 -0.08,1.96 -0.133,0.128 -3.336,3.15 -7.316,3.08 -2.208,-0.04 -4.186,-0.998 -5.877,-2.85 -3.09,-3.478 -3.528,-7.79 -1.187,-11.548 2.154,-3.458 6.06,-5.534 10.235,-5.68 -0.34,-2.94 0.468,-7.47 5.25,-10.75 4.567,-3.135 7.95,-3.186 9.853,-2.776 0.98,-3.092 3.685,-7.395 9.327,-8.623 4.704,-1.024 8.074,0.3 10.073,1.59 1.854,1.197 3.34,2.887 4.15,4.678 4.578,-3.217 11,-3.976 15.67,-1.84 3.816,1.744 6.185,5.216 6.736,9.83 1.732,0.747 5.394,2.962 6.59,8.63 0.632,2.992 -0.156,5.8 -2.218,7.91 -2.644,2.705 -7.118,3.918 -11.4,3.09 -6.068,-1.172 -13.845,1.687 -16.316,6 -1.924,3.353 -4.287,6.842 -7.377,7.78 -0.244,0.073 -0.49,0.13 -0.742,0.17 -1.913,0.31 -3.796,-0.413 -5.6,-2.15 -0.54,-0.524 -0.545,-1.402 -0.008,-1.963 0.538,-0.562 1.413,-0.592 1.956,-0.07 1.18,1.14 2.257,1.61 3.294,1.443 2.315,-0.374 4.583,-3.912 6.09,-6.54 3.114,-5.43 11.953,-8.818 19.304,-7.398 3.387,0.655 6.864,-0.24 8.855,-2.277 1.39,-1.42 1.893,-3.268 1.456,-5.338 -1.214,-5.752 -5.52,-6.912 -5.562,-6.922 -0.56,-0.143 -0.962,-0.628 -1,-1.21 -0.276,-4.08 -2.098,-7 -5.267,-8.45 -3.858,-1.765 -9.207,-1.096 -13.008,1.623 -5.007,3.58 -3.68,9.766 -3.1,11.728 3.292,-1.1 7.484,-1.127 12.43,1.69 0.654,0.375 0.867,1.22 0.476,1.89 -0.392,0.67 -1.24,0.91 -1.896,0.538 -10.52,-5.995 -16.687,3.254 -16.944,3.65 -0.363,0.56 -1.062,0.802 -1.67,0.574 -0.162,-0.058 -4.17,-1.462 -8.344,1.2 -3.97,2.53 -2.856,7.993 -2.844,8.048 0.125,0.584 -0.14,1.194 -0.66,1.51 -9.27,5.67 -5.59,14.113 -5.43,14.47 0.195,0.428 0.147,0.91 -0.082,1.296 6.144,12.27 23.064,4.316 23.064,4.316 0.084,0.13 0.17,0.254 0.257,0.38 0.56,-0.003 13.758,-0.202 16.758,-8.454 0.527,-2.655 0.29,-4.667 -0.69,-5.823 -1.09,-1.29 -2.83,-1.245 -2.848,-1.244 -0.764,0.036 -1.393,-0.556 -1.405,-1.32 -0.012,-0.768 0.597,-1.42 1.36,-1.453 0.124,-0.006 3.076,-0.117 5.023,2.182 1.566,1.852 1.987,4.622 1.247,8.236 -0.012,0.064 -0.03,0.127 -0.05,0.188 -1.836,5.208 -6.553,7.826 -10.892,9.142 -2.417,0.733 -4.714,1.06 -6.332,1.21 5.454,5.475 13.38,5.872 20.793,3.363 8.605,-2.912 7.947,-9.91 7.947,-9.91 9.82,-8.97 3.206,-19.437 3.206,-19.437 4.517,-2.58 8.885,-10.375 4.692,-20.873 z"
         id="path406"
         inkscape:connector-curvature="0" />
    </g>
    <path
       d="m 64.59,22.7 c 8.418,1.068 14.493,9.81 13.57,19.53 -0.925,9.72 -8.497,16.733 -16.915,15.666 -8.417,-1.067 -14.492,-9.81 -13.568,-19.53 0.924,-9.718 8.497,-16.732 16.914,-15.665 z"
       id="path408"
       inkscape:connector-curvature="0"
       style="clip-rule:evenodd;fill:#fdcda2;fill-rule:evenodd" />
    <path
       d="m 78.248,39.904 c 0.014,0.766 -0.014,1.543 -0.09,2.325 -0.567,5.97 -0.96,17.197 -5.264,19.26 -5.656,2.71 -18.508,1.81 -23.158,-1.975 -3.61,-2.937 -2.578,-15.686 -2.06,-21.15 0.23,-2.41 0.87,-4.657 1.83,-6.654 2.8,10.115 17.69,18.996 28.742,8.194 z"
       id="path410"
       inkscape:connector-curvature="0"
       style="clip-rule:evenodd;fill:#042a3d;fill-rule:evenodd" />
    <path
       d="m 63.74,24.85 c -5.076,9.5 -9.306,9.208 -14.642,5.123 2.188,-4.37 8.302,-12.836 14.643,-5.122 z"
       id="path412"
       inkscape:connector-curvature="0"
       style="clip-rule:evenodd;fill:#39190d;fill-rule:evenodd" />
    <path
       d="m 80.747,21.693 c -1.098,10.433 -9.81,11.157 -16.546,9.15 -8.527,-2.543 -5.1,-12.15 1.397,-9.68 5.043,1.915 9.638,8.945 15.15,0.53 z"
       id="path414"
       inkscape:connector-curvature="0"
       style="clip-rule:evenodd;fill:#39190d;fill-rule:evenodd" />
    <path
       d="m 49.498,28.146 c 1.16,-0.152 4.745,-0.468 4.397,-1.246 -0.348,-0.777 -1.97,-1.254 -0.63,-1.164 1.34,0.09 3.5,0.025 2.683,-0.897 -0.24,-0.272 -1.147,-0.667 -2.106,-0.64 -0.164,-1.25 -2.47,-0.278 -5.938,1.996 -1.177,0.774 -0.22,2.663 1.594,1.95 z"
       id="path416"
       inkscape:connector-curvature="0"
       style="clip-rule:evenodd;fill:#fdcda2;fill-rule:evenodd" />
    <g
       id="g418">
      <path
         d="m 47.67,30.203 -0.377,0.276 -0.327,0.276 -0.283,0.274 -0.238,0.27 -0.198,0.26 -0.16,0.25 -0.124,0.237 -0.094,0.224 -0.07,0.21 -0.043,0.2 -0.025,0.188 -0.007,0.183 0.01,0.18 0.026,0.18 0.046,0.183 0.064,0.188 0.085,0.195 0.11,0.2 0.134,0.203 0.16,0.206 0.19,0.206 0.22,0.203 0.25,0.2 0.282,0.19 0.31,0.18 0.34,0.167 0.37,0.152 0.4,0.133 0.43,0.114 0.457,0.09 -0.53,4.223 -0.653,-0.13 -0.63,-0.166 -0.603,-0.202 -0.58,-0.237 -0.553,-0.272 -0.526,-0.305 -0.497,-0.338 -0.468,-0.37 -0.438,-0.406 -0.404,-0.436 -0.368,-0.47 -0.33,-0.498 -0.29,-0.53 -0.243,-0.555 -0.197,-0.582 -0.145,-0.604 -0.09,-0.618 -0.036,-0.63 0.023,-0.635 0.083,-0.633 0.14,-0.624 0.195,-0.61 0.25,-0.59 0.3,-0.57 0.35,-0.547 0.393,-0.52 0.44,-0.496 0.482,-0.47 0.525,-0.443 0.568,-0.418 0.61,-0.392 0.65,-0.366 1.53,3.886 -0.475,0.266 z"
         id="path420"
         inkscape:connector-curvature="0"
         style="fill:#042a3d" />
    </g>
    <path
       d="m 68.056,39.368 c 0.254,0.905 -0.057,3 -1.895,2.908 -1.706,-0.087 -1.857,-1.904 -1.456,-2.968 0.66,-1.756 2.805,-1.887 3.352,0.06 z"
       id="path422"
       inkscape:connector-curvature="0"
       style="clip-rule:evenodd;fill:#010101;fill-rule:evenodd" />
    <path
       stroke-miterlimit="22.926"
       d="m 53.51,53.613 c 4.448,5.455 3.786,14.337 2.64,19.867"
       id="path424"
       inkscape:connector-curvature="0"
       style="clip-rule:evenodd;fill:none;fill-rule:evenodd;stroke:#042a3d;stroke-width:6.83799982;stroke-miterlimit:22.9260006" />
    <path
       d="m 67.135,71.93 c -0.64,1.067 -0.558,2.366 -0.376,3.12 0.386,1.61 2.17,1.394 2.305,0.94 0.09,-0.302 0.334,-0.634 1.157,0.146 0.823,0.78 3.177,0.687 4.107,-0.285 0.93,-0.97 0.156,-3.59 -1.813,-2.74 -1.39,0.6 -2.923,-0.45 -3.117,-1.5 -0.194,-1.046 -1.688,-0.646 -2.265,0.32 z"
       id="path426"
       inkscape:connector-curvature="0"
       style="clip-rule:evenodd;fill:#042a3d;fill-rule:evenodd" />
    <path
       stroke-miterlimit="22.926"
       d="m 62.54,52.24 c 6.386,3.13 7.613,13.89 6.07,21.14"
       id="path428"
       inkscape:connector-curvature="0"
       style="clip-rule:evenodd;fill:none;fill-rule:evenodd;stroke:#042a3d;stroke-width:6.83799982;stroke-miterlimit:22.9260006" />
    <path
       d="m 54.232,27.93 c 1.04,0.13 1.756,1.55 1.602,3.17 -0.154,1.62 -1.12,2.826 -2.16,2.694 -1.04,-0.132 -1.756,-1.55 -1.602,-3.17 0.154,-1.62 1.12,-2.827 2.16,-2.695 z"
       id="path430"
       inkscape:connector-curvature="0"
       style="clip-rule:evenodd;fill:#fdcda2;fill-rule:evenodd" />
    <path
       d="m 54.892,72.114 c -0.69,1.136 -0.686,2.464 -0.553,3.227 0.282,1.626 2.04,1.29 2.2,0.816 0.106,-0.316 0.363,-0.673 1.122,0.074 0.76,0.747 3.067,0.498 4.034,-0.56 0.967,-1.058 0.366,-3.696 -1.61,-2.696 -1.395,0.706 -2.833,-0.27 -2.96,-1.334 -0.128,-1.064 -1.613,-0.556 -2.234,0.474 z"
       id="path432"
       inkscape:connector-curvature="0"
       style="clip-rule:evenodd;fill:#042a3d;fill-rule:evenodd" />
    <path
       d="m 65.98,44.808 c 1.3,0.412 2.926,0.69 4.036,1.254 L 65.21,51.638 60.957,45.19 c 1.426,-0.273 3.17,-0.325 4.648,-0.406 l 0.374,0.024 z"
       id="path434"
       inkscape:connector-curvature="0"
       style="clip-rule:evenodd;fill:#cdcccc;fill-rule:evenodd" />
    <path
       d="m 56.71,46.69 c 2.832,-1.13 5.808,-1.716 8.888,-1.91 -7.515,-0.608 -14.26,-6.554 -16.076,-13.017 l -0.03,-0.023 c -0.976,2.042 5.42,13.715 7.217,14.95 z"
       id="path436"
       inkscape:connector-curvature="0"
       style="clip-rule:evenodd;fill:#ffffff;fill-rule:evenodd" />
    <path
       d="m 72.967,48.75 c -1.726,-1.812 -4.176,-3.03 -6.995,-3.945 4.11,0.235 8.426,-1.137 12.277,-4.9 0.032,1.85 -3.628,7.56 -5.283,8.845 z"
       id="path438"
       inkscape:connector-curvature="0"
       style="clip-rule:evenodd;fill:#ffffff;fill-rule:evenodd" />
    <path
       d="m 65.953,45.278 c 1.3,0.412 2.417,0.853 3.527,1.416 l -4.27,4.943 -3.822,-5.858 c 1.426,-0.274 2.712,-0.446 4.19,-0.527 l 0.375,0.025 z"
       id="path440"
       inkscape:connector-curvature="0"
       style="clip-rule:evenodd;fill:#ffffff;fill-rule:evenodd" />
    <path
       d="m 65.953,45.278 0.017,0.007 0.017,0.007 c 0.28,0.112 0.55,0.227 0.813,0.345 0.57,0.266 0.032,1.55 -0.378,1.93 -0.27,0.253 -0.51,0.346 -0.36,0.867 0.274,0.95 0.664,3.182 0.35,4.792 l -1.46,1.128 -0.885,-1.02 c 0.006,-1.8 0.632,-3.863 1.067,-5.017 0.246,-0.654 -0.032,-0.572 -0.31,-1.16 -0.306,-0.652 -0.426,-1.71 0.197,-1.813 0.165,-0.025 0.332,-0.05 0.5,-0.072 l 0.012,0 0.01,-0.002 0.012,0 0.012,-0.003 0.012,-0.002 0.375,0.013 z"
       id="path442"
       inkscape:connector-curvature="0"
       style="clip-rule:evenodd;fill:#042a3d;fill-rule:evenodd" />
    <path
       d="m 68.136,34.048 c -0.363,-0.046 -0.685,0.356 -0.72,0.898 -0.032,0.542 0.235,1.02 0.598,1.065 0.363,0.047 0.685,-0.355 0.718,-0.898 0.035,-0.54 -0.233,-1.018 -0.596,-1.064 z"
       id="path444"
       inkscape:connector-curvature="0"
       style="clip-rule:evenodd;fill:#010101;fill-rule:evenodd" />
    <path
       d="m 64.81,33.865 c -0.363,-0.046 -0.685,0.356 -0.718,0.9 -0.034,0.54 0.234,1.018 0.597,1.064 0.362,0.045 0.684,-0.357 0.718,-0.9 0.032,-0.54 -0.235,-1.018 -0.598,-1.065 z"
       id="path446"
       inkscape:connector-curvature="0"
       style="clip-rule:evenodd;fill:#010101;fill-rule:evenodd" />
    <path
       d="m 80.424,34.314 c -0.91,-0.843 -3.796,-3.32 -3.143,-3.762 0.655,-0.443 2.246,0.153 1.072,-0.596 -1.174,-0.75 -2.973,-2.136 -1.855,-2.41 0.328,-0.082 1.278,0.142 2.076,0.758 0.716,-0.956 2.22,1.287 4.1,5.346 0.638,1.377 -1.045,2.384 -2.25,0.664 z"
       id="path448"
       inkscape:connector-curvature="0"
       style="clip-rule:evenodd;fill:#fdcda2;fill-rule:evenodd" />
    <g
       id="g450">
      <path
         d="m 83.653,33.242 0.418,0.776 0.366,0.777 0.31,0.775 0.26,0.772 0.208,0.768 0.157,0.76 0.107,0.752 0.056,0.74 0.007,0.728 -0.042,0.71 -0.09,0.693 -0.138,0.67 -0.184,0.644 -0.23,0.616 -0.272,0.583 -0.317,0.548 -0.357,0.51 -0.396,0.464 -0.434,0.418 -0.467,0.366 -0.5,0.31 -0.524,0.253 -0.55,0.19 -0.567,0.126 -0.58,0.06 -0.59,-0.007 -0.594,-0.076 -0.595,-0.143 -0.59,-0.21 -0.585,-0.274 -0.574,-0.34 1.816,-3.716 0.302,0.178 0.286,0.135 0.27,0.095 0.252,0.06 0.238,0.03 0.223,0.004 0.21,-0.02 0.196,-0.045 0.186,-0.064 0.178,-0.085 0.17,-0.105 0.16,-0.127 0.155,-0.148 0.144,-0.17 0.136,-0.195 0.126,-0.218 0.114,-0.242 0.1,-0.268 0.083,-0.293 0.066,-0.32 0.044,-0.344 0.02,-0.37 -0.002,-0.395 -0.032,-0.42 -0.063,-0.444 -0.096,-0.467 -0.13,-0.49 -0.173,-0.51 -0.213,-0.53 -0.257,-0.548 -0.304,-0.565 -0.354,-0.58 2.962,-2.552 z"
         id="path452"
         inkscape:connector-curvature="0"
         style="fill:#042a3d" />
    </g>
    <path
       d="m 64.37,30.912 c -0.294,0.582 -1.332,1.1 -2.327,0.926 0.85,0.94 2.51,0.365 2.327,-0.926 z"
       id="path454"
       inkscape:connector-curvature="0"
       style="clip-rule:evenodd;fill:#39190d;fill-rule:evenodd" />
    <path
       d="m 68.475,31.64 c 0.204,0.63 1.152,1.344 2.157,1.366 -0.975,0.76 -2.526,-0.13 -2.157,-1.367 z"
       id="path456"
       inkscape:connector-curvature="0"
       style="clip-rule:evenodd;fill:#39190d;fill-rule:evenodd" />
  </g>
</svg>
