<svg xmlns="http://www.w3.org/2000/svg" xmlns:xlink="http://www.w3.org/1999/xlink" preserveAspectRatio="xMinYMin meet" viewBox="0 0 124.61999 124.90699" enable-background="new 0 0 595.28 841.89"><title>Disparador exploracion</title><defs><clipPath id="d"><use height="100%" width="100%" xlink:href="#a" overflow="visible"/></clipPath><clipPath><use height="100%" width="100%" xlink:href="#a" overflow="visible"/></clipPath><clipPath><use height="100%" width="100%" xlink:href="#a" overflow="visible"/></clipPath><clipPath id="e"><use height="100%" width="100%" xlink:href="#b" overflow="visible"/></clipPath><clipPath><use height="100%" width="100%" xlink:href="#b" overflow="visible"/></clipPath><filter id="c" color-interpolation-filters="sRGB"><feColorMatrix values="0.21 0.72 0.072 0 0 0.21 0.72 0.072 0 0 0.21 0.72 0.072 0 0 0 0 0 1 0"/></filter></defs><g filter="url(#c)"><g transform="matrix(.157 0 0 .157 16.065 -16.188)"><defs><path id="a" d="M103.533 219.087H473.32v369.788H103.534z"/></defs><clipPath><use height="100%" width="100%" xlink:href="#a" overflow="visible"/></clipPath><path clip-path="url(#d)" d="M575.474 549.508s7.396 7.473 7.165 8.012c-.233.54-5.24 9.014-6.01 9.014-.77 0-4.238-4.622-1.773-8.513l.77-.807-.154-7.704z" fill="#e8c6a3"/><path clip-path="url(#d)" d="M577.555 559.677l2.128 2.796-2.648 3.764s-2.598-1.85.52-6.56z" fill="#fbe1cb"/><g clip-path="url(#d)"><g><g><path d="M456.676 484.442s-37.19-43.014-40.323-44.972c-3.132-1.957-29.753-8.324-29.753-8.324v74.877s19.79 5.216 33.1 4.04c0 0 13.878 5.747 18.184 9.27l18.792-34.89z" fill="#e0ba9a"/><g><path fill="#f3f3f3" d="M288.318 281.566l-16.337 7.92-16.35-7.89-16.336 7.92-16.352-7.888-16.335 7.92-16.352-7.89.007 7.905.086 90.168.123 130.685 196.13-.185-.122-130.685-.086-90.167-.006-7.905-16.337 7.92-16.353-7.89-16.336 7.92-16.352-7.888-16.337 7.92z"/><path d="M370.424 325.677l-164.128.155c-1.874.002-3.408-1.53-3.41-3.403l-.014-14.866c-.002-1.874 1.53-3.408 3.403-3.41L370.403 304c1.874-.002 3.408 1.53 3.41 3.403l.014 14.864c.002 1.874-1.53 3.408-3.403 3.41z" fill="#d7d6d6"/></g><g><g><path d="M292.977 369l-4.55 2.727-4.55-2.727c.262 2.39-2.033 7.338-2.033 7.338l6.583 2.676 6.583-2.676s-2.295-4.95-2.033-7.338z" fill="#efcbad"/><path d="M311.62 390.444c-.144-3.307-.66-9.43-2.503-10.887-1.348-1.065-4.31-1.63-6.813-1.928h-.003c-2.245-.27-4.12-.32-4.12-.32l-1.222-.63-1.64-.746-6.892 2.125-6.893-2.126-1.64.747-1.22.63s-1.876.05-4.123.318h-.004c-2.502.296-5.465.862-6.813 1.927-1.844 1.457-2.36 7.58-2.502 10.887h46.39z" fill="#03b79a"/><g><path d="M288.427 354.148H280.8c-1.858 0-3.268 1.672-2.953 3.502.414 2.404 1.015 5.435 1.642 7.017.806 2.04 4.884 6.054 7.664 7.36.806.38 1.738.38 2.544 0 2.78-1.306 6.857-5.32 7.665-7.36.627-1.582 1.228-4.614 1.642-7.017.315-1.83-1.095-3.502-2.952-3.502h-7.628z" fill="#f2d3b1"/><path d="M288.427 354.148c3.18 0 7.705 1.53 9.05 2.14 1.346.612-.244 6.972 0 6.94.246-.03.64-1.12 1.04-1.436.4-.316.535-4.954.535-4.954v-2.69h-10.625z" fill="#552916"/></g><path d="M293.014 370.212c-.058-.444-.076-.856-.037-1.212l-4.55 2.727-4.55-2.727c.04.355.02.768-.037 1.212 1.13.962 2.308 1.79 3.316 2.264.806.38 1.738.38 2.544 0 1.006-.473 2.183-1.303 3.314-2.264z" fill="#ddb699"/><g><path d="M288.427 354.148H280.8c-1.858 0-3.268 1.672-2.953 3.502.414 2.404 1.015 5.435 1.642 7.017.806 2.04 4.884 6.054 7.664 7.36.806.38 1.738.38 2.544 0 2.78-1.306 6.857-5.32 7.665-7.36.627-1.582 1.228-4.614 1.642-7.017.315-1.83-1.095-3.502-2.952-3.502h-7.628z" fill="#f2d3b1"/><path d="M299.72 354.415c-.152.01-.31.128-.297.297.017.23.124.344.09.58-.028.19-.22.292-.396.28-.025 0-.044.007-.066.01v-1.435H288.43c3.18 0 7.705 1.53 9.05 2.14 1.346.612-.244 6.972 0 6.94.246-.03.64-1.12 1.04-1.436.4-.314.535-4.952.535-4.952v-.534c.544.182 1.144-.098 1.348-.634.183-.48-.055-1.296-.68-1.255z" fill="#552916"/></g><g fill="#552916"><path d="M288.724 354.09h.39-.39z"/><path d="M297.05 356.87l-.6-1.235-5.017-1.543h-2.32c1.226.015 2.558.2 3.986.757 3.16 1.233 3.95 2.02 3.95 2.02z"/></g><path d="M300.213 354.16c.023-.106.035-.212.04-.318.077-.135.1-.3.03-.49-.024-.145-.05-.29-.073-.435.166-.45.215-.97.07-1.438-.082-.27-.24-.52-.44-.736.12-.27.184-.55.163-.8-.065-.746-.485-1.34-1.025-1.643.017-.17-.003-.356-.08-.552-.225-.57-.59-.955-1.03-1.175-.25-.56-.6-1.088-.975-1.518-.015-1.252-1.47-2.092-2.722-1.924-.31-.192-.646-.313-.99-.353-.07-.095-.19-.152-.33-.113-.13.037-.262.088-.395.145-.027.005-.053.014-.08.023-.28-.32-.467-.537-.467-.537s.174.262.282.578l-.027.004c-.04-.005-.077-.012-.116-.014-.278-.35-.664-.65-1.172-.84-.543-.202-1.04-.166-1.47.022-.352-.138-.68-.187-.978-.172v-.24c-.4.026-.778.17-1.116.354-.16-.01-.324-.005-.482.015-.017.002-.03.008-.047.01-.29.008-.58.043-.85.096-.05.01-.09.027-.134.04.034-.276.082-.516.082-.516-.026.178-.076.355-.138.532-.51.146-.89.437-1.14.806-.916-.063-1.76.12-2.48.507-.33-.004-.65.05-.907.146-.715.274-1.148.926-1.282 1.643-.73.146-1.38.605-1.79 1.21-.24.307-.396.67-.46 1.05-.027.044-.047.09-.07.137-.113-.06-.257-.05-.34.1-.36.653-.39 1.498-.015 2.148.052.155.13.304.224.443-.025.025-.05.048-.07.074-.058-.003-.116.002-.176.03-.365.173-.578.543-.583.94-.002.25.13.523.33.688-.227.275-.36.608-.36.992 0 .172.05.38.142.568-.244.455-.255 1.028.066 1.592 0 .002 0 .003-.002.005-.128.555-.022 1.052.4 1.45.028.028.065.044.096.067-.01.012-.024.02-.034.035-.154.235-.133.52.006.76.09.15.335.34.514.247.014.055.024.11.044.163.067 1.393.216 3.602.488 3.816.4.315.795 1.405 1.04 1.436.072.01-.014-.53-.137-1.31.01-.012.026-.02.03-.036.033-.186-.027-.32-.107-.466-.076-.496-.157-1.05-.22-1.608.186-.197.154-.736.123-1.04.232-.034.516-.202.58-.427.065-.247-.133-.345-.263-.51-.183-.23-.23-.368-.124-.657.056-.155.17-.287.26-.424 0-.004.002-.007.004-.01.166.273.422.514.738.477.117-.013.183-.096.164-.214-.047-.28-.266-.5-.38-.756.15-.01.316-.02.507-.03.023.102.06.208.105.314.21.49.846.58 1.295.502.42-.073.72-.43.814-.824.235-.018.463-.085.65-.196l.146-.012c.166.026.335.016.497-.042.785-.07 1.508-.145 2.06-.223.46.385 1.058.58 1.636.34.12-.05.154-.246 0-.28-.058-.013-.114-.03-.17-.043.096-.096.172-.212.212-.34.23.096.488.124.765.05.19-.05.362-.154.494-.288.094-.025.186-.057.275-.096.493.223.976.477 1.482.667.1.04.228.01.322-.05.037.01.072.024.112.03.41.07 1.015-.086 1.387-.404.156.026.31.028.462.006.024.422.243.803.582 1.05.356.26.787.324 1.212.235.128-.027.232-.074.323-.132l.02.015c.357.21.872.212 1.226-.01.15.056.328.075.504.062l.04.056c.007.008.016.015.022.023-.004.018-.012.03-.013.05-.028.42.13.796.395 1.114.023.027.05.055.078.083-.05.197-.056.423-.013.627-.15.255-.218.557-.154.85.026.117.076.237.142.348-.11.143-.184.31-.21.497-.02.133-.007.307.034.475-.122.494.005 1.174.55 1.284.275.055.478-.208.352-.46-.048-.1-.12-.19-.177-.285.105-.035.202-.104.22-.223.034-.25-.078-.438-.125-.676-.007-.037-.01-.086-.007-.137.053.006.108.01.164.002.295-.032.432-.335.235-.57-.147-.173-.34-.344-.403-.537.04-.002.076.004.12-.004.137-.024.23-.2.186-.327-.027-.078-.07-.15-.114-.222.052-.123.018-.246-.063-.33.06-.012.12-.035.174-.08.29.206.678.26 1.01.117.26-.112.49-.36.537-.632.16-.037.31-.11.436-.226.267-.246.388-.813.09-1.07.533-.597.136-1.54-.262-2.136zm-5.827.824c-.003.142.013.28.043.413-.02-.003-.037 0-.055-.004-.232-.058-.41-.485-.417-.727.215.013.413.026.603.04-.097.055-.173.15-.176.278zm1.168.078c-.003.13.013.255.04.378-.09-.108-.23-.17-.372-.113l.102.02c-.034-.008-.067-.01-.1-.013-.085-.13-.144-.278-.17-.44-.01-.072-.042-.122-.082-.16.35.024.63.046.827.06-.127.016-.243.102-.247.268zm1.83.698c-.182-.25-.292-.558-.286-.85.008-.338-.468-.314-.51 0-.037.285-.034.564.018.83-.29-.107-.477-.344-.488-.678-.005-.137-.085-.222-.183-.256l.172.014 1.986-.454c.034.098.075.193.132.277.06.33.123.655.187.978-.007.25-.01.5-.008.75h.01v.015c-.222-.09-.457-.16-.67-.285.023-.05.044-.104.054-.163.017-.1-.042-.198-.15-.2-.09.002-.178.01-.265.023zm.956 1.6c-.104.046-.188.15-.214.27-.023-.01-.046-.024-.07-.036-.034-.037-.08-.065-.13-.08-.028-.02-.057-.035-.08-.055-.11-.1-.194-.223-.248-.357.235.135.495.22.744.204 0 .017-.003.035-.002.053z" fill="#552916"/><g fill="#f2d3b1"><path d="M278.048 358.913s-.732-1.96-.732.173c0 2.134 1.63 3.85 1.63 3.85l-.898-4.023z"/><path d="M298.805 358.913s.732-1.96.732.173c0 2.134-1.63 3.85-1.63 3.85l.898-4.023z"/></g></g><g fill="#d7d6d6"><path d="M310.89 397.74h-44.928c-.4 0-.73-.327-.73-.73v-1.776c0-.4.33-.73.73-.73h44.928c.4 0 .73.328.73.73v1.777c0 .404-.328.73-.73.73z"/><path d="M310.89 403.75h-44.928c-.4 0-.73-.328-.73-.73v-1.777c0-.4.33-.73.73-.73h44.928c.4 0 .73.328.73.73v1.777c0 .402-.328.73-.73.73z"/><path d="M310.89 409.76h-44.928c-.4 0-.73-.33-.73-.73v-1.778c0-.4.33-.73.73-.73h44.928c.4 0 .73.328.73.73v1.777c0 .4-.328.73-.73.73z"/></g></g><g><g><path d="M227.624 369l-4.55 2.727-4.55-2.727c.262 2.39-2.033 7.338-2.033 7.338l6.585 2.676 6.583-2.676s-2.295-4.95-2.033-7.338z" fill="#efcbad"/><path d="M246.266 390.444c-.144-3.307-.66-9.43-2.503-10.887-1.348-1.065-4.31-1.63-6.813-1.928h-.003c-2.247-.27-4.122-.32-4.122-.32l-1.22-.63-1.64-.746-6.893 2.125-6.893-2.126-1.64.747-1.223.63s-1.875.05-4.122.318h-.003c-2.502.296-5.465.862-6.813 1.927-1.845 1.457-2.36 7.58-2.503 10.887h46.388z" fill="#f58461"/><g><path d="M223.073 354.148h-7.628c-1.857 0-3.267 1.672-2.952 3.502.414 2.404 1.015 5.435 1.642 7.017.808 2.04 4.886 6.054 7.666 7.36.808.38 1.74.38 2.546 0 2.78-1.306 6.858-5.32 7.666-7.36.628-1.582 1.23-4.614 1.643-7.017.315-1.83-1.095-3.502-2.952-3.502h-7.627z" fill="#f2d3b1"/><path d="M223.073 354.148c3.18 0 7.705 1.53 9.05 2.14 1.346.612-.244 6.972 0 6.94.246-.03.64-1.12 1.04-1.436.4-.316.535-4.954.535-4.954v-2.69h-10.625z" fill="#552916"/></g><path d="M227.66 370.212c-.057-.444-.075-.856-.036-1.212l-4.55 2.727-4.55-2.727c.04.355.02.768-.037 1.212 1.13.962 2.308 1.79 3.316 2.264.806.38 1.738.38 2.544 0 1.005-.473 2.183-1.303 3.314-2.264z" fill="#ddb699"/><g><path d="M223.073 354.148h-7.628c-1.857 0-3.267 1.672-2.952 3.502.414 2.404 1.015 5.435 1.642 7.017.808 2.04 4.886 6.054 7.666 7.36.808.38 1.74.38 2.546 0 2.78-1.306 6.858-5.32 7.666-7.36.628-1.582 1.23-4.614 1.643-7.017.315-1.83-1.095-3.502-2.952-3.502h-7.627z" fill="#f2d3b1"/><path d="M223.073 354.148c3.18 0 7.705 1.53 9.05 2.14 1.346.612-.244 6.972 0 6.94.246-.03.64-1.12 1.04-1.436.4-.316.535-4.954.535-4.954v-2.69h-10.625z" fill="#552916"/></g><g fill="#552916"><path d="M223.37 354.09h.39-.39z"/><path d="M231.695 356.87l-.6-1.235-5.016-1.543h-2.32c1.224.015 2.556.2 3.984.757 3.164 1.233 3.95 2.02 3.95 2.02z"/></g><path d="M229.106 345.183c-.906-.988-2.554-2.883-2.554-2.883s.824 1.236 0 1.565c-.824.33-3.48-.577-3.48-.577v-1.647c-1.254.084-2.286 1.32-2.548 1.32s0-1.32 0-1.32c-.262 1.814-2.614 3.627-2.614 3.627-5.677 1.812-5.46 8.883-5.46 8.883v2.69s.133 4.638.533 4.954c.4.316.795 1.406 1.04 1.437.245.033-1.345-6.327 0-6.94 0 0 5.842-.316 7.377-.653 0 0-1.858-.513-2.197-.884 3.863-.62 11.55.07 11.55.07l2.944-.672c.637-6.605-3.685-7.977-4.59-8.966z" fill="#552916"/><g fill="#f2d3b1"><path d="M212.695 358.913s-.732-1.96-.732.173c0 2.134 1.63 3.85 1.63 3.85l-.898-4.023z"/><path d="M233.452 358.913s.732-1.96.732.173c0 2.134-1.63 3.85-1.63 3.85l.898-4.023z"/></g></g><g fill="#d7d6d6"><path d="M245.537 397.74H200.61c-.402 0-.73-.327-.73-.73v-1.776c0-.4.328-.73.73-.73h44.927c.4 0 .73.328.73.73v1.777c0 .404-.33.73-.73.73z"/><path d="M245.537 403.75H200.61c-.402 0-.73-.328-.73-.73v-1.777c0-.4.328-.73.73-.73h44.927c.4 0 .73.328.73.73v1.777c0 .402-.33.73-.73.73z"/><path d="M245.537 409.76H200.61c-.402 0-.73-.33-.73-.73v-1.778c0-.4.328-.73.73-.73h44.927c.4 0 .73.328.73.73v1.777c0 .4-.33.73-.73.73z"/></g></g><g><g><path d="M358.33 369l-4.55 2.727-4.55-2.727c.262 2.39-2.033 7.338-2.033 7.338l6.583 2.676 6.583-2.676s-2.295-4.95-2.033-7.338z" fill="#efcbad"/><path d="M376.973 390.444c-.144-3.307-.66-9.43-2.503-10.887-1.348-1.065-4.31-1.63-6.813-1.928h-.003c-2.247-.27-4.122-.32-4.122-.32l-1.22-.63-1.64-.746-6.893 2.125-6.895-2.126-1.64.747-1.22.63s-1.876.05-4.123.318h-.003c-2.503.296-5.466.862-6.814 1.927-1.844 1.457-2.36 7.58-2.502 10.887h46.388z" fill="#4780c2"/><g><path d="M353.78 354.148h-7.628c-1.857 0-3.267 1.672-2.952 3.502.414 2.404 1.015 5.435 1.642 7.017.808 2.04 4.886 6.054 7.666 7.36.806.38 1.738.38 2.544 0 2.78-1.306 6.858-5.32 7.666-7.36.627-1.582 1.228-4.614 1.642-7.017.315-1.83-1.095-3.502-2.952-3.502h-7.628z" fill="#f2d3b1"/><path d="M353.78 354.148c3.18 0 7.705 1.53 9.05 2.14 1.346.612-.244 6.972 0 6.94.246-.03.64-1.12 1.04-1.436.4-.316.535-4.954.535-4.954v-2.69H353.78z" fill="#552916"/></g><path d="M358.368 370.212c-.058-.444-.076-.856-.037-1.212l-4.55 2.727-4.55-2.727c.04.355.02.768-.036 1.212 1.13.962 2.308 1.79 3.316 2.264.805.38 1.737.38 2.543 0 1.006-.473 2.184-1.303 3.315-2.264z" fill="#ddb699"/><g><path d="M353.78 354.148h-7.628c-1.857 0-3.267 1.672-2.952 3.502.414 2.404 1.015 5.435 1.642 7.017.808 2.04 4.886 6.054 7.666 7.36.806.38 1.738.38 2.544 0 2.78-1.306 6.858-5.32 7.666-7.36.627-1.582 1.228-4.614 1.642-7.017.315-1.83-1.095-3.502-2.952-3.502h-7.628z" fill="#f2d3b1"/><path d="M353.78 354.148c3.18 0 7.705 1.53 9.05 2.14 1.346.612-.244 6.972 0 6.94.246-.03.64-1.12 1.04-1.436.4-.316.535-4.954.535-4.954v-2.69H353.78z" fill="#552916"/></g><g fill="#552916"><path d="M354.077 354.09h.39-.39z"/><path d="M362.402 356.87l-.6-1.235-5.016-1.543h-2.32c1.226.015 2.558.2 3.986.757 3.164 1.233 3.95 2.02 3.95 2.02z"/></g><path d="M364.404 354.148c.32-3.31-.606-5.3-1.723-6.59-.297-.554-.636-1.088-.987-1.593-.067-.096-.197-.09-.268-.026l-.14-.22c-.17-.39-.353-.776-.57-1.147-.046-.077-.127-.077-.186-.04-.01-.018-.023-.035-.034-.053-.065-.105-.194-.08-.25-.004-.045-.06-.086-.12-.132-.177-.13-.25-.27-.49-.43-.72-.058-.083-.148-.085-.215-.044-.08-.092-.165-.182-.248-.273-.227-.305-.465-.6-.73-.87-.08-.08-.213-.055-.28.02-.172-.214-.342-.43-.508-.645-.026-.035-.06-.048-.096-.05-.15-.214-.296-.43-.45-.64-.07-.096-.196-.067-.24.01-.154-.358-.34-.686-.556-.956-.034-.043-.084-.055-.135-.054l-.054-.093c-.074-.133-.27-.015-.202.118l.053.103c0 .002-.004.004-.004.006l-.18-.33c-.078-.138-.266-.017-.208.12.055.132.114.267.17.4-.098-.172-.2-.345-.29-.513-.025-.05-.067-.06-.107-.056-.068-.11-.137-.22-.202-.33-.09-.15-.31-.017-.233.138.068.136.136.275.203.416-.18-.222-.366-.438-.554-.65-.006-.04-.01-.082-.015-.122-.02-.147-.182-.18-.3-.126l-.347-.496-.006-.005c-.027-.066-.083-.1-.146-.104-.05-.07-.1-.138-.147-.207-.063-.09-.186-.04-.196.04-.038.01-.073.038-.096.09-.016.033-.028.07-.043.104-.03.024-.055.055-.07.094-.005.016-.008.034-.014.05.01-.054.024-.108.03-.164.01-.09-.03-.15-.09-.18.04-.086.08-.17.116-.258.03-.073-.08-.132-.13-.076-.072.082-.137.17-.204.257-.02-.03-.056-.047-.087-.012-.044.05-.083.104-.124.155.03-.068-.054-.144-.11-.083-.248.266-.46.568-.663.878-.002 0-.003 0-.005.002-.155.154-.3.32-.443.49.045-.096.094-.19.135-.286.052-.12-.095-.205-.175-.1-.324.424-.62.88-.905 1.34-.025-.042-.09-.06-.127-.004-.16.227-.31.463-.46.7-.07-.012-.14.003-.193.06-.25.26-.475.547-.685.847-.018.01-.035.02-.05.038-.113.12-.216.248-.325.37.046-.084.098-.164.143-.25.043-.08-.07-.175-.13-.1-.302.38-.587.77-.864 1.17-.144.167-.28.344-.418.516-.03-.007-.06-.006-.086.02-.103.104-.197.215-.295.323-.028-.13-.226-.2-.327-.094-.286.302-.538.636-.767.99.06-.21.117-.417.166-.623.033-.14-.156-.222-.23-.097-.283.47-.537.978-.772 1.5-.058-.14-.263-.203-.356-.035-.5.9-.88 1.924-1.153 2.99l.003-.035c.02-.254-.333-.26-.41-.057-.85 2.208-.875 5.062-.095 7.41v.51s.134 4.637.534 4.953c.4.317.795 1.407 1.04 1.438.245.03-1.345-6.33 0-6.94 0 0 .674-.038 1.624-.1 1.204.24 2.414.435 3.637.467.203.005.227-.28.046-.34-.364-.12-.733-.22-1.104-.313.295-.024.59-.05.872-.076 1.268.23 2.543.407 3.806.392.24-.003.28-.34.056-.41-.115-.038-.233-.07-.35-.104.51.09 1.018.15 1.524.16.228.006.347-.35.122-.45-.042-.02-.087-.033-.13-.05.775.155 1.553.282 2.336.346.145.012.187-.136.134-.24 1.242.816 2.512 1.664 3.845 2.252.28.295.564.588.87.862.09.078.215.074.303.02.18.35.353.712.508 1.087.057.14.244.088.223-.06-.038-.253-.093-.5-.16-.743.024.04.044.08.07.118.074.112.27.043.224-.095-.172-.528-.394-1.04-.63-1.547.043.02.092.02.134-.003.23.374.47.736.753 1.052.027.03.06.037.097.035.09.18.322.067.342-.094.147-1.207-.79-2.414-1.67-3.13-.145-.115-.32-.06-.408.053-.017.003-.035.008-.052.017-.123-.194-.248-.387-.372-.58l.08.008 2.948-.676zm-3.01 1.738c-.01.02-.015.043-.018.066-.377-.46-.822-.876-1.322-1.24l.68.05c.218.373.435.75.66 1.124z" fill="#552916"/><g fill="#f2d3b1"><path d="M343.402 358.913s-.732-1.96-.732.173c0 2.134 1.63 3.85 1.63 3.85l-.898-4.023z"/><path d="M364.158 358.913s.732-1.96.732.173c0 2.134-1.63 3.85-1.63 3.85l.898-4.023z"/></g></g><g fill="#d7d6d6"><path d="M376.244 397.74h-44.928c-.4 0-.73-.327-.73-.73v-1.776c0-.4.328-.73.73-.73h44.928c.4 0 .73.328.73.73v1.777c0 .404-.33.73-.73.73z"/><path d="M376.244 403.75h-44.928c-.4 0-.73-.328-.73-.73v-1.777c0-.4.328-.73.73-.73h44.928c.4 0 .73.328.73.73v1.777c0 .402-.33.73-.73.73z"/><path d="M376.244 409.76h-44.928c-.4 0-.73-.33-.73-.73v-1.778c0-.4.328-.73.73-.73h44.928c.4 0 .73.328.73.73v1.777c0 .4-.33.73-.73.73z"/></g></g><g><g><path d="M358.33 449.16l-4.55 2.726-4.55-2.727c.262 2.387-2.033 7.336-2.033 7.336l6.583 2.676 6.583-2.676s-2.295-4.95-2.033-7.338z" fill="#efcbad"/><path d="M376.973 470.603c-.144-3.307-.66-9.43-2.503-10.887-1.348-1.065-4.31-1.63-6.813-1.928h-.003c-2.247-.267-4.122-.318-4.122-.318l-1.22-.63-1.64-.746-6.893 2.125-6.895-2.127-1.64.747-1.22.63s-1.876.05-4.123.318h-.003c-2.503.297-5.466.863-6.814 1.928-1.844 1.457-2.36 7.58-2.502 10.887h46.388z" fill="#dc8227"/><g><path d="M353.78 434.307h-7.628c-1.857 0-3.267 1.672-2.952 3.502.414 2.402 1.015 5.433 1.642 7.015.808 2.04 4.886 6.054 7.666 7.36.806.38 1.738.38 2.544 0 2.78-1.306 6.858-5.32 7.666-7.36.627-1.582 1.228-4.613 1.642-7.017.315-1.83-1.095-3.503-2.952-3.503h-7.628z" fill="#f2d3b1"/><path d="M353.78 434.307c3.18 0 7.705 1.53 9.05 2.14 1.346.612-.244 6.972 0 6.94.246-.03.64-1.12 1.04-1.436.4-.314.535-4.952.535-4.952v-2.69H353.78z" fill="#552916"/></g><path d="M358.368 450.37c-.058-.444-.076-.856-.037-1.212l-4.55 2.727-4.55-2.727c.04.355.023.768-.035 1.212 1.13.962 2.308 1.79 3.316 2.264.807.38 1.74.38 2.545 0 1.005-.473 2.183-1.302 3.314-2.264z" fill="#ddb699"/><g><path d="M353.78 434.307h-7.628c-1.857 0-3.267 1.672-2.952 3.502.414 2.402 1.015 5.433 1.642 7.015.808 2.04 4.886 6.054 7.666 7.36.806.38 1.738.38 2.544 0 2.78-1.306 6.858-5.32 7.666-7.36.627-1.582 1.228-4.613 1.642-7.017.315-1.83-1.095-3.503-2.952-3.503h-7.628z" fill="#f2d3b1"/><path d="M353.78 434.307c3.18 0 7.705 1.53 9.05 2.14 1.346.612-.244 6.972 0 6.94.246-.03.64-1.12 1.04-1.436.4-.314.535-4.952.535-4.952v-2.69H353.78z" fill="#b06828"/></g><g fill="#b06828"><path d="M354.077 434.25h.39c-.13-.002-.26-.002-.39 0z"/><path d="M362.402 437.03l-.6-1.236-5.016-1.543h-2.32c1.226.017 2.558.2 3.986.758 3.164 1.235 3.95 2.022 3.95 2.022z"/></g><path d="M364.404 434.307c.32-3.31-.606-5.3-1.723-6.59-.297-.554-.636-1.088-.987-1.593-.067-.096-.197-.09-.268-.026l-.14-.218c-.17-.39-.353-.776-.57-1.147-.046-.077-.127-.077-.186-.04-.01-.018-.023-.035-.034-.053-.065-.106-.194-.08-.25-.005-.045-.06-.086-.12-.132-.177-.13-.248-.27-.49-.43-.718-.058-.083-.148-.085-.215-.045-.08-.092-.165-.182-.248-.273-.227-.305-.465-.6-.73-.87-.08-.08-.213-.055-.28.02-.172-.214-.342-.43-.508-.645-.026-.034-.06-.047-.096-.05-.15-.213-.296-.43-.45-.64-.07-.095-.196-.066-.24.01-.154-.357-.34-.685-.556-.955-.034-.043-.084-.055-.135-.054l-.054-.093c-.074-.132-.27-.015-.202.118l.053.103c0 .002-.004.004-.004.007l-.18-.33c-.078-.138-.266-.017-.208.12.055.132.114.267.17.4-.098-.172-.2-.345-.29-.513-.025-.05-.067-.06-.107-.056-.068-.11-.137-.22-.202-.33-.09-.15-.31-.017-.233.138.068.136.136.275.203.416-.18-.22-.366-.437-.554-.65l-.015-.12c-.02-.148-.182-.18-.3-.127l-.347-.494-.006-.005c-.027-.065-.083-.1-.146-.103-.05-.07-.1-.138-.147-.207-.063-.09-.186-.04-.196.04-.038.012-.073.038-.096.09-.016.033-.028.07-.043.104-.03.024-.055.055-.07.094-.005.017-.008.035-.014.052.01-.055.024-.11.03-.165.01-.09-.03-.15-.09-.18.04-.086.08-.17.116-.258.03-.073-.08-.132-.13-.076-.072.084-.137.17-.204.26-.02-.03-.056-.047-.087-.01-.044.05-.083.102-.124.153.03-.068-.054-.145-.11-.083-.248.265-.46.567-.663.877-.002 0-.003 0-.005.002-.155.152-.3.32-.443.487.045-.095.094-.19.135-.285.052-.12-.095-.206-.175-.102-.324.426-.62.88-.905 1.343-.025-.043-.09-.06-.127-.005-.16.228-.31.464-.46.7-.07-.01-.14.004-.193.06-.25.262-.475.548-.685.848-.018.01-.035.02-.05.038-.113.12-.216.247-.325.37.046-.085.098-.165.143-.25.043-.08-.07-.176-.13-.1-.302.38-.587.77-.864 1.17-.144.166-.28.343-.418.515-.03-.01-.06-.008-.086.02-.103.102-.197.213-.295.32-.028-.127-.226-.2-.327-.092-.286.3-.538.635-.767.988.06-.208.117-.416.166-.622.033-.14-.156-.222-.23-.097-.283.47-.537.977-.772 1.5-.058-.142-.263-.204-.356-.037-.5.9-.88 1.923-1.153 2.99l.003-.036c.02-.253-.333-.26-.41-.056-.85 2.21-.875 5.063-.095 7.41v.51s.134 4.638.534 4.954c.4.316.795 1.406 1.04 1.437.245.03-1.345-6.33 0-6.94 0 0 .674-.038 1.624-.1 1.204.24 2.414.435 3.637.467.203.005.227-.28.046-.34-.364-.12-.733-.22-1.104-.313.295-.024.59-.05.872-.076 1.268.227 2.543.405 3.806.39.24-.003.28-.34.056-.41-.115-.038-.233-.07-.35-.104.51.09 1.018.15 1.524.16.228.006.347-.35.122-.45-.042-.02-.087-.033-.13-.05.775.155 1.553.282 2.336.346.145.012.187-.136.134-.24 1.242.816 2.512 1.664 3.845 2.252.28.295.564.588.87.862.09.078.215.074.303.02.18.35.353.712.508 1.087.057.14.244.088.223-.06-.038-.253-.093-.5-.16-.743.024.037.044.078.07.116.074.112.27.043.224-.095-.172-.527-.394-1.04-.63-1.546.043.02.092.02.134-.003.23.374.47.736.753 1.052.027.03.06.037.097.035.09.18.322.067.342-.094.147-1.207-.79-2.414-1.67-3.13-.145-.115-.32-.058-.408.053-.017.004-.035.01-.052.018-.123-.194-.248-.387-.372-.58l.08.008 2.948-.676zm-3.01 1.738c-.01.02-.015.043-.018.066-.377-.457-.822-.874-1.322-1.237.26.018.486.034.68.05.218.372.435.75.66 1.123z" fill="#b06828"/><g fill="#f2d3b1"><path d="M343.402 439.07s-.732-1.96-.732.174 1.63 3.85 1.63 3.85l-.898-4.023z"/><path d="M364.158 439.07s.732-1.96.732.174-1.63 3.85-1.63 3.85l.898-4.023z"/></g></g><g fill="#d7d6d6"><path d="M376.244 478.343h-44.928c-.4 0-.73-.328-.73-.73v-1.776c0-.4.328-.73.73-.73h44.928c.4 0 .73.328.73.73v1.777c0 .4-.33.73-.73.73z"/><path d="M376.244 484.352h-44.928c-.4 0-.73-.328-.73-.73v-1.776c0-.4.328-.73.73-.73h44.928c.4 0 .73.328.73.73v1.777c0 .4-.33.73-.73.73z"/><path d="M376.244 490.36h-44.928c-.4 0-.73-.327-.73-.728v-1.777c0-.4.328-.73.73-.73h44.928c.4 0 .73.328.73.73v1.777c0 .4-.33.73-.73.73z"/></g></g><g><g><path d="M292.977 449.16l-4.55 2.726-4.55-2.727c.262 2.387-2.033 7.336-2.033 7.336l6.583 2.676 6.583-2.676s-2.295-4.95-2.033-7.338z" fill="#efcbad"/><path d="M311.62 470.603c-.144-3.307-.66-9.43-2.503-10.887-1.348-1.065-4.31-1.63-6.813-1.928h-.003c-2.245-.267-4.12-.318-4.12-.318l-1.222-.63-1.64-.746-6.892 2.125-6.893-2.127-1.64.747-1.22.63s-1.876.05-4.123.318h-.004c-2.502.297-5.465.863-6.813 1.928-1.844 1.457-2.36 7.58-2.502 10.887h46.39z" fill="#8ccfaf"/><g><path d="M288.427 434.307H280.8c-1.858 0-3.268 1.672-2.953 3.502.414 2.402 1.015 5.433 1.642 7.015.806 2.04 4.884 6.054 7.664 7.36.806.38 1.738.38 2.544 0 2.78-1.306 6.857-5.32 7.665-7.36.627-1.582 1.228-4.613 1.642-7.017.315-1.83-1.095-3.503-2.952-3.503h-7.628z" fill="#f2d3b1"/><path d="M288.427 434.307c3.18 0 7.705 1.53 9.05 2.14 1.346.612-.244 6.972 0 6.94.246-.03.64-1.12 1.04-1.436.4-.314.535-4.952.535-4.952v-2.69h-10.625z" fill="#552916"/></g><path d="M293.014 450.37c-.058-.444-.076-.856-.037-1.212l-4.55 2.727-4.55-2.727c.04.355.02.768-.037 1.212 1.13.962 2.308 1.79 3.316 2.264.806.38 1.738.38 2.544 0 1.006-.473 2.183-1.302 3.314-2.264z" fill="#ddb699"/><g><path d="M288.427 434.307H280.8c-1.858 0-3.268 1.672-2.953 3.502.414 2.402 1.015 5.433 1.642 7.015.806 2.04 4.884 6.054 7.664 7.36.806.38 1.738.38 2.544 0 2.78-1.306 6.857-5.32 7.665-7.36.627-1.582 1.228-4.613 1.642-7.017.315-1.83-1.095-3.503-2.952-3.503h-7.628z" fill="#f2d3b1"/><path d="M299.72 434.574c-.152.01-.31.128-.297.297.017.234.124.346.09.58-.027.19-.22.294-.396.284-.025 0-.044.006-.066.008v-1.433H288.43c3.18 0 7.705 1.53 9.05 2.14 1.346.61-.244 6.97 0 6.94.246-.03.64-1.12 1.04-1.437.4-.315.535-4.953.535-4.953v-.533c.544.182 1.144-.098 1.348-.634.183-.48-.055-1.297-.68-1.256z" fill="#b06828"/></g><g><path d="M288.724 434.25h.39c-.13-.002-.262-.002-.39 0z" fill="#552916"/><path d="M297.05 437.03l-.6-1.236-5.017-1.543h-2.32c1.226.017 2.558.2 3.986.758 3.16 1.235 3.95 2.022 3.95 2.022z" fill="#b06828"/></g><path d="M300.213 434.317c.023-.105.035-.21.04-.317.077-.135.1-.3.03-.49-.024-.145-.05-.29-.073-.435.166-.45.215-.97.07-1.438-.082-.268-.24-.518-.44-.734.12-.27.184-.55.163-.8-.065-.746-.485-1.34-1.025-1.643.017-.172-.003-.357-.08-.553-.225-.568-.59-.954-1.03-1.174-.25-.56-.6-1.088-.975-1.518-.015-1.252-1.47-2.092-2.722-1.924-.31-.19-.646-.312-.99-.352-.07-.094-.19-.15-.33-.11-.13.036-.262.087-.395.144-.027.007-.053.016-.08.025-.28-.32-.467-.537-.467-.537s.174.263.282.58c-.01 0-.02.002-.027.003-.04-.004-.076-.01-.116-.013-.278-.35-.664-.65-1.172-.84-.543-.202-1.04-.166-1.47.022-.352-.14-.68-.188-.978-.173v-.24c-.4.025-.778.17-1.116.353-.16-.008-.324-.004-.482.016-.017 0-.03.007-.047.01-.29.007-.58.042-.85.095-.05.01-.09.028-.134.04.034-.275.082-.515.082-.515-.026.178-.076.355-.138.532-.51.145-.89.436-1.14.805-.916-.063-1.76.12-2.48.507-.33-.003-.65.05-.907.147-.715.274-1.148.926-1.282 1.643-.73.147-1.38.606-1.79 1.21-.24.308-.396.67-.46 1.05-.027.045-.047.092-.07.138-.113-.06-.257-.05-.34.1-.36.653-.39 1.498-.015 2.148.052.156.13.304.224.443-.025.025-.05.048-.07.074-.058-.003-.116.002-.176.03-.365.173-.578.543-.583.94-.002.25.13.523.33.688-.227.275-.36.61-.36.993 0 .172.05.38.142.568-.244.456-.255 1.03.066 1.593 0 .002 0 .003-.002.005-.128.557-.022 1.054.4 1.453.028.027.065.043.096.066-.01.01-.024.02-.034.034-.154.237-.133.522.006.76.09.152.335.34.514.25.014.054.024.11.044.162.067 1.393.216 3.602.488 3.816.4.316.795 1.406 1.04 1.437.072.01-.014-.53-.137-1.31.01-.013.026-.02.03-.037.033-.187-.027-.32-.107-.467-.076-.496-.157-1.05-.22-1.608.186-.197.154-.736.123-1.04.232-.034.516-.202.58-.427.065-.244-.133-.343-.263-.507-.183-.23-.23-.37-.124-.658.056-.155.17-.287.26-.424l.004-.01c.166.275.422.516.738.48.117-.015.183-.098.164-.216-.047-.278-.266-.5-.38-.755.15-.01.316-.02.51-.03.02.1.06.207.103.313.21.488.847.58 1.296.5.42-.072.72-.43.813-.823.235-.018.463-.085.65-.196l.146-.01c.165.025.334.015.496-.043.785-.07 1.508-.144 2.06-.222.46.386 1.058.58 1.636.34.118-.05.154-.244 0-.28-.058-.012-.114-.028-.17-.042.096-.096.172-.212.212-.34.228.096.487.124.764.05.19-.05.362-.154.494-.288.094-.024.186-.056.275-.095.493.222.976.476 1.482.666.1.037.227.01.32-.05.038.007.073.022.113.03.41.07 1.014-.088 1.386-.406.156.027.31.03.462.007.025.423.244.804.583 1.05.356.26.787.324 1.212.236.128-.027.232-.074.323-.132l.02.014c.358.212.873.212 1.227-.01.15.056.328.075.504.062l.04.056c.007.008.016.015.02.023-.002.016-.01.03-.01.05-.028.42.13.794.395 1.112.023.028.05.056.078.084-.05.197-.057.423-.014.627-.15.254-.22.556-.155.848.026.12.076.24.142.35-.11.143-.184.31-.21.497-.02.134-.007.308.034.476-.12.493.007 1.173.55 1.283.277.056.48-.207.354-.46-.048-.098-.12-.19-.177-.284.105-.036.202-.105.22-.224.034-.25-.078-.438-.125-.676-.006-.038-.008-.087-.006-.138.053.007.108.01.164.003.296-.032.433-.336.236-.57-.147-.173-.34-.344-.403-.537.04 0 .077.005.12-.003.138-.025.23-.2.187-.328-.027-.08-.07-.15-.114-.223.052-.124.018-.247-.063-.33.06-.013.12-.036.174-.08.29.205.678.26 1.01.116.26-.11.49-.36.537-.63.16-.038.31-.112.436-.227.267-.245.388-.812.09-1.07.532-.596.135-1.538-.263-2.136zm-5.827.826c-.003.142.013.28.043.413-.02-.003-.037 0-.055-.004-.232-.058-.41-.486-.417-.727.215.013.413.026.603.04-.097.055-.173.15-.176.278zm1.168.078c-.003.13.013.257.04.38-.09-.11-.23-.17-.372-.113l.102.02c-.034-.008-.067-.01-.1-.013-.085-.13-.144-.278-.17-.44-.01-.072-.042-.122-.082-.16.35.024.63.046.827.062-.127.014-.243.1-.247.266zm1.83.7c-.182-.25-.292-.56-.286-.85.008-.34-.468-.314-.51 0-.037.285-.034.564.018.83-.29-.107-.477-.344-.488-.68-.005-.135-.085-.22-.183-.254l.172.015 1.986-.453c.034.098.075.193.132.277.06.33.122.655.187.978-.007.25-.01.5-.008.75l.01-.002v.016c-.222-.09-.457-.16-.67-.285.023-.05.044-.103.054-.162.017-.1-.042-.198-.15-.2-.09 0-.178.01-.265.022zm.956 1.6c-.104.046-.188.15-.214.27l-.07-.036c-.034-.037-.08-.065-.13-.08-.028-.02-.057-.035-.08-.055-.11-.1-.194-.22-.248-.356.235.135.495.22.744.204 0 .017-.003.035-.002.053z" fill="#b06828"/><g fill="#f2d3b1"><path d="M278.048 439.07s-.732-1.96-.732.174 1.63 3.85 1.63 3.85l-.898-4.023z"/><path d="M298.805 439.07s.732-1.96.732.174-1.63 3.85-1.63 3.85l.898-4.023z"/></g></g><g fill="#d7d6d6"><path d="M310.89 478.343h-44.928c-.4 0-.73-.328-.73-.73v-1.776c0-.4.33-.73.73-.73h44.928c.4 0 .73.328.73.73v1.777c0 .4-.328.73-.73.73z"/><path d="M310.89 484.352h-44.928c-.4 0-.73-.328-.73-.73v-1.776c0-.4.33-.73.73-.73h44.928c.4 0 .73.328.73.73v1.777c0 .4-.328.73-.73.73z"/><path d="M310.89 490.36h-44.928c-.4 0-.73-.327-.73-.728v-1.777c0-.4.33-.73.73-.73h44.928c.4 0 .73.328.73.73v1.777c0 .4-.328.73-.73.73z"/></g></g><g><g><path d="M227.624 449.16l-4.55 2.726-4.55-2.727c.262 2.387-2.033 7.336-2.033 7.336l6.585 2.676 6.583-2.676s-2.295-4.95-2.033-7.338z" fill="#efcbad"/><path d="M246.266 470.603c-.144-3.307-.66-9.43-2.503-10.887-1.348-1.065-4.31-1.63-6.813-1.928h-.003c-2.247-.267-4.122-.318-4.122-.318l-1.22-.63-1.64-.746-6.893 2.125-6.893-2.127-1.64.747-1.223.63s-1.875.05-4.122.318h-.003c-2.502.297-5.465.863-6.813 1.928-1.845 1.457-2.36 7.58-2.503 10.887h46.388z" fill="#f1ea43"/><g><path d="M223.073 434.307h-7.628c-1.857 0-3.267 1.672-2.952 3.502.414 2.402 1.015 5.433 1.642 7.015.808 2.04 4.886 6.054 7.666 7.36.808.38 1.74.38 2.546 0 2.78-1.306 6.858-5.32 7.666-7.36.628-1.582 1.23-4.613 1.643-7.017.315-1.83-1.095-3.503-2.952-3.503h-7.627z" fill="#f2d3b1"/><path d="M223.073 434.307c3.18 0 7.705 1.53 9.05 2.14 1.346.612-.244 6.972 0 6.94.246-.03.64-1.12 1.04-1.436.4-.314.535-4.952.535-4.952v-2.69h-10.625z" fill="#552916"/></g><path d="M227.66 450.37c-.057-.444-.075-.856-.036-1.212l-4.55 2.727-4.55-2.727c.04.355.02.768-.037 1.212 1.13.962 2.308 1.79 3.316 2.264.806.38 1.738.38 2.544 0 1.005-.473 2.183-1.302 3.314-2.264z" fill="#ddb699"/><g><path d="M223.073 434.307h-7.628c-1.857 0-3.267 1.672-2.952 3.502.414 2.402 1.015 5.433 1.642 7.015.808 2.04 4.886 6.054 7.666 7.36.808.38 1.74.38 2.546 0 2.78-1.306 6.858-5.32 7.666-7.36.628-1.582 1.23-4.613 1.643-7.017.315-1.83-1.095-3.503-2.952-3.503h-7.627z" fill="#f2d3b1"/><path d="M223.073 434.307c3.18 0 7.705 1.53 9.05 2.14 1.346.612-.244 6.972 0 6.94.246-.03.64-1.12 1.04-1.436.4-.314.535-4.952.535-4.952v-2.69h-10.625z" fill="#b06828"/></g><g><path d="M223.37 434.25h.39c-.13-.002-.26-.002-.39 0z" fill="#552916"/><path d="M231.695 437.03l-.6-1.236-5.016-1.543h-2.32c1.224.017 2.556.2 3.984.758 3.164 1.235 3.95 2.022 3.95 2.022z" fill="#b06828"/></g><path d="M229.106 425.342c-.906-.99-2.554-2.883-2.554-2.883s.824 1.234 0 1.563c-.824.33-3.48-.577-3.48-.577V421.8c-1.254.082-2.286 1.318-2.548 1.318s0-1.318 0-1.318c-.262 1.812-2.614 3.625-2.614 3.625-5.677 1.812-5.46 8.883-5.46 8.883v2.69s.133 4.64.533 4.955c.4.316.795 1.406 1.04 1.437.245.03-1.345-6.33 0-6.94 0 0 5.842-.318 7.377-.655 0 0-1.858-.513-2.197-.884 3.863-.62 11.55.07 11.55.07l2.944-.67c.637-6.606-3.685-7.98-4.59-8.967z" fill="#b06828"/><g fill="#f2d3b1"><path d="M212.695 439.07s-.732-1.96-.732.174 1.63 3.85 1.63 3.85l-.898-4.023z"/><path d="M233.452 439.07s.732-1.96.732.174-1.63 3.85-1.63 3.85l.898-4.023z"/></g></g><g fill="#d7d6d6"><path d="M245.537 478.343H200.61c-.402 0-.73-.328-.73-.73v-1.776c0-.4.328-.73.73-.73h44.927c.4 0 .73.328.73.73v1.777c0 .4-.33.73-.73.73z"/><path d="M245.537 484.352H200.61c-.402 0-.73-.328-.73-.73v-1.776c0-.4.328-.73.73-.73h44.927c.4 0 .73.328.73.73v1.777c0 .4-.33.73-.73.73z"/><path d="M245.537 490.36H200.61c-.402 0-.73-.327-.73-.728v-1.777c0-.4.328-.73.73-.73h44.927c.4 0 .73.328.73.73v1.777c0 .4-.33.73-.73.73z"/></g></g><circle cx="322.602" cy="370.696" r="41.773" opacity=".46" fill="#eaeaea"/><circle cx="322.602" cy="370.696" r="42.342" fill="#f3f3f3"/><circle cx="329.1" cy="383.331" r="10.648" fill="#f3f3f3"/><path d="M372.557 389.58c10.43-27.59-3.48-58.41-31.07-68.84-27.59-10.43-58.41 3.482-68.84 31.07-9.787 25.89 1.858 54.62 26.125 66.682l-13.035 34.48-1.22-.46c-2.504-.947-5.328.328-6.274 2.832L247.53 536.59c-.947 2.504.328 5.328 2.832 6.274l12.52 4.733c2.505.947 5.33-.328 6.275-2.832l30.713-81.245c.947-2.505-.328-5.33-2.832-6.275l-1.22-.46 13.036-34.482c26.178 7.008 53.917-6.835 63.703-32.723zm-89.03-33.655c8.16-21.58 32.266-32.46 53.846-24.303 21.58 8.158 32.46 32.265 24.303 53.845-8.158 21.58-32.265 32.46-53.845 24.303-21.58-8.158-32.46-32.265-24.3-53.845z" fill="#2a2f3e"/><circle cx="322.602" cy="370.696" r="45.061" fill="#f3f3f3"/><g><defs><circle id="b" cx="322.602" cy="370.696" r="45.061"/></defs><clipPath><use height="100%" width="100%" xlink:href="#b" overflow="visible"/></clipPath><g clip-path="url(#e)"><g><path d="M345.41 361.347l-7.116 4.264-7.115-4.262c.407 3.736-3.18 11.473-3.18 11.473l10.293 4.186 10.294-4.185s-3.588-7.736-3.18-11.472z" fill="#efcbad"/><path d="M374.56 394.877c-.226-5.17-1.03-14.744-3.914-17.022-2.107-1.665-6.74-2.55-10.652-3.015h-.004c-3.513-.417-6.445-.497-6.445-.497l-1.91-.983-2.562-1.17-10.778 3.323-10.778-3.322-2.562 1.17-1.91.984s-2.932.08-6.445.497h-.004c-3.913.466-8.545 1.35-10.652 3.016-2.883 2.278-3.688 11.85-3.913 17.022h72.53z" fill="#4780c2"/><g><path d="M338.294 338.125h-11.927c-2.903 0-5.108 2.614-4.616 5.475.65 3.758 1.59 8.498 2.57 10.972 1.263 3.19 7.64 9.465 11.985 11.508 1.26.592 2.718.592 3.978 0 4.346-2.042 10.722-8.317 11.986-11.508.98-2.474 1.92-7.214 2.566-10.972.493-2.86-1.712-5.475-4.616-5.475h-11.926z" fill="#f2d3b1"/><path d="M338.294 338.125c4.973 0 12.048 2.39 14.15 3.347 2.105.956-.382 10.9 0 10.852.383-.048 1-1.753 1.627-2.246.627-.494.836-7.746.836-7.746v-4.207h-16.61z" fill="#552916"/></g><path d="M345.467 363.242c-.09-.694-.12-1.34-.058-1.895l-7.117 4.264-7.115-4.262c.06.556.032 1.2-.06 1.895 1.77 1.503 3.61 2.8 5.185 3.54 1.26.592 2.718.592 3.978 0 1.576-.74 3.417-2.037 5.185-3.54z" fill="#ddb699"/><g><path d="M338.294 338.125h-11.927c-2.903 0-5.108 2.614-4.616 5.475.65 3.758 1.59 8.498 2.57 10.972 1.263 3.19 7.64 9.465 11.985 11.508 1.26.592 2.718.592 3.978 0 4.346-2.042 10.722-8.317 11.986-11.508.98-2.474 1.92-7.214 2.566-10.972.493-2.86-1.712-5.475-4.616-5.475h-11.926z" fill="#f2d3b1"/><path d="M338.294 338.125c4.973 0 12.048 2.39 14.15 3.347 2.105.956-.382 10.9 0 10.852.383-.048 1-1.753 1.627-2.246.627-.494.836-7.746.836-7.746v-4.207h-16.61z" fill="#552916"/></g><g fill="#552916"><path d="M338.76 338.036h.608c-.204-.002-.408-.003-.61 0z"/><path d="M351.776 342.38l-.937-1.93-7.846-2.414h-3.626c1.915.024 3.997.31 6.23 1.183 4.946 1.93 6.176 3.16 6.176 3.16z"/></g><path d="M354.905 338.125c.5-5.174-.948-8.286-2.695-10.304-.468-.865-.997-1.7-1.547-2.49-.105-.15-.308-.14-.42-.04l-.218-.34c-.265-.61-.55-1.213-.893-1.793-.07-.12-.197-.12-.29-.063l-.05-.083c-.103-.165-.304-.126-.394-.007-.068-.092-.133-.188-.204-.277-.203-.388-.424-.764-.672-1.123-.09-.13-.23-.133-.336-.07-.127-.143-.256-.285-.386-.426-.356-.478-.728-.94-1.142-1.36-.127-.128-.333-.087-.438.032-.268-.337-.534-.673-.794-1.01-.04-.054-.096-.075-.15-.077-.235-.334-.462-.673-.703-1.002-.11-.147-.306-.1-.373.02-.242-.56-.532-1.074-.87-1.496-.055-.067-.133-.086-.213-.085l-.084-.146c-.117-.207-.425-.024-.317.185l.08.16c0 .005-.005.007-.006.01-.094-.17-.19-.344-.282-.515-.12-.216-.413-.026-.322.188.088.207.18.417.268.625-.155-.27-.313-.54-.454-.802-.04-.077-.106-.093-.17-.087-.105-.173-.213-.346-.314-.516-.14-.236-.487-.03-.366.214.107.212.212.43.317.65-.282-.345-.572-.683-.866-1.015-.005-.063-.01-.128-.02-.19-.03-.23-.284-.28-.47-.197l-.54-.776-.01-.01c-.04-.103-.127-.16-.226-.162l-.23-.323c-.095-.14-.288-.062-.304.066-.06.02-.115.06-.15.14-.026.053-.045.11-.068.163-.047.037-.086.087-.108.147-.01.025-.014.054-.023.08.016-.085.04-.17.05-.257.017-.14-.047-.233-.142-.282.062-.132.13-.263.184-.402.046-.113-.124-.206-.202-.118-.113.128-.214.265-.318.4-.03-.046-.09-.07-.137-.017-.07.078-.13.162-.194.243.048-.107-.084-.226-.173-.13-.386.415-.72.888-1.035 1.372 0 .002-.004 0-.007.004-.243.24-.47.5-.693.764.072-.148.15-.296.213-.446.08-.188-.15-.323-.273-.16-.506.665-.97 1.374-1.416 2.098-.04-.068-.14-.094-.2-.01-.25.357-.484.727-.72 1.095-.106-.016-.217.007-.3.094-.39.41-.742.858-1.07 1.326-.028.014-.056.032-.08.06-.177.185-.337.385-.508.576.072-.133.154-.26.224-.39.067-.125-.11-.277-.204-.157-.47.593-.918 1.205-1.35 1.827-.226.263-.437.538-.654.808-.046-.01-.095-.01-.135.032-.16.163-.31.336-.46.505-.046-.2-.355-.313-.513-.146-.447.47-.84.993-1.2 1.544.097-.325.184-.65.26-.972.052-.217-.244-.348-.36-.152-.443.738-.84 1.53-1.206 2.347-.09-.22-.41-.32-.556-.057-.782 1.408-1.377 3.006-1.804 4.676 0-.02.003-.038.004-.056.03-.395-.52-.407-.643-.087-1.33 3.452-1.365 7.915-.145 11.585v.797s.21 7.252.834 7.745c.624.494 1.242 2.198 1.625 2.246.383.05-2.104-9.896 0-10.852 0 0 1.055-.057 2.54-.154 1.88.372 3.773.678 5.685.73.316.007.353-.44.07-.533-.568-.188-1.145-.344-1.726-.49.464-.037.92-.077 1.365-.118 1.98.355 3.973.633 5.95.61.375-.006.434-.53.085-.644-.18-.058-.364-.108-.546-.16.794.138 1.59.232 2.38.25.357.01.543-.546.19-.704-.065-.03-.136-.05-.202-.08 1.21.245 2.427.443 3.652.544.227.02.292-.213.21-.375 1.943 1.278 3.927 2.6 6.012 3.52.438.464.88.92 1.362 1.35.137.12.334.115.472.03.284.55.552 1.114.794 1.7.09.216.382.136.348-.096-.057-.396-.144-.783-.25-1.16.037.06.07.123.11.183.115.175.42.068.35-.148-.27-.827-.615-1.628-.987-2.42.07.03.147.032.21-.005.36.584.737 1.15 1.18 1.644.04.046.097.057.15.054.144.283.506.105.537-.147.23-1.888-1.232-3.775-2.612-4.892-.225-.182-.498-.093-.637.08-.027.008-.055.015-.08.03-.193-.305-.388-.606-.583-.906l.126.01 4.603-1.056zm-4.705 2.717c-.016.032-.024.067-.03.103-.588-.718-1.284-1.37-2.066-1.937.406.028.76.054 1.065.077.337.583.676 1.175 1.03 1.757z" fill="#552916"/><g fill="#f2d3b1"><path d="M322.067 345.575s-1.145-3.067-1.145.27 2.546 6.022 2.546 6.022l-1.4-6.292z"/><path d="M354.522 345.575s1.145-3.067 1.145.27-2.546 6.022-2.546 6.022l1.403-6.292z"/></g></g><g fill="#d7d6d6"><path d="M373.418 406.286H303.17c-.627 0-1.14-.513-1.14-1.14v-2.78c0-.626.512-1.14 1.14-1.14h70.248c.627 0 1.14.513 1.14 1.14v2.78c0 .627-.512 1.14-1.14 1.14z"/><path d="M373.418 415.682H303.17c-.627 0-1.14-.513-1.14-1.14v-2.78c0-.626.512-1.14 1.14-1.14h70.248c.627 0 1.14.513 1.14 1.14v2.78c0 .626-.512 1.14-1.14 1.14z"/><path d="M373.418 425.077H303.17c-.627 0-1.14-.513-1.14-1.14v-2.78c0-.626.512-1.14 1.14-1.14h70.248c.627 0 1.14.513 1.14 1.14v2.78c0 .627-.512 1.14-1.14 1.14z"/></g></g><g clip-path="url(#e)"><path d="M255.788 358.93l-7.446 4.46-7.446-4.46c.428 3.908-3.327 12.006-3.327 12.006l10.77 4.38 10.774-4.38s-3.756-8.097-3.327-12.007z" fill="#efcbad"/><path d="M286.294 394.02c-.235-5.413-1.078-15.43-4.095-17.815-2.207-1.743-7.055-2.67-11.15-3.156h-.004c-3.676-.44-6.745-.52-6.745-.52l-2-1.03-2.68-1.224-11.28 3.477-11.28-3.477-2.682 1.223-2 1.03s-3.07.08-6.745.52h-.004c-4.095.485-8.94 1.41-11.148 3.154-3.017 2.384-3.86 12.403-4.095 17.814h75.906z" fill="#03b79a"/><g><path d="M248.342 334.627H235.86c-3.038 0-5.346 2.736-4.83 5.73.677 3.933 1.662 8.893 2.687 11.482 1.322 3.337 7.995 9.904 12.544 12.04 1.32.62 2.846.62 4.165 0 4.55-2.136 11.22-8.703 12.544-12.042 1.024-2.59 2.01-7.55 2.686-11.483.516-2.994-1.792-5.73-4.83-5.73h-12.483z" fill="#f2d3b1"/><path d="M248.342 334.627c5.205 0 12.608 2.502 14.81 3.503 2.202 1-.4 11.408 0 11.358.4-.05 1.047-1.834 1.7-2.35.655-.518.874-8.107.874-8.107v-4.4h-17.384z" fill="#552916"/></g><path d="M255.85 360.912c-.096-.727-.126-1.4-.062-1.983l-7.446 4.46-7.446-4.46c.064.58.034 1.254-.06 1.98 1.85 1.574 3.776 2.93 5.425 3.706 1.32.62 2.846.62 4.165 0 1.647-.774 3.574-2.13 5.425-3.705z" fill="#ddb699"/><g><path d="M248.342 334.627H235.86c-3.038 0-5.346 2.736-4.83 5.73.677 3.933 1.662 8.893 2.687 11.482 1.322 3.337 7.995 9.904 12.544 12.04 1.32.62 2.846.62 4.165 0 4.55-2.136 11.22-8.703 12.544-12.042 1.024-2.59 2.01-7.55 2.686-11.483.516-2.994-1.792-5.73-4.83-5.73h-12.483z" fill="#f2d3b1"/><path d="M266.822 335.063c-.25.016-.507.21-.486.486.028.377.203.562.148.946-.045.312-.362.48-.65.462-.04-.003-.07.01-.108.013v-2.346h-17.384c5.205 0 12.608 2.502 14.81 3.503 2.202 1-.4 11.407 0 11.357.4-.05 1.047-1.834 1.7-2.35.655-.518.874-8.107.874-8.107v-.873c.89.298 1.872-.16 2.206-1.037.3-.786-.09-2.124-1.11-2.057z" fill="#552916"/></g><g fill="#552916"><path d="M248.828 334.534h.638c-.214-.003-.427-.004-.638 0z"/><path d="M262.45 339.08l-.98-2.022-8.208-2.525h-3.795c2.005.025 4.184.325 6.52 1.238 5.177 2.025 6.464 3.31 6.464 3.31z"/></g><path d="M267.63 334.644c.037-.172.056-.345.066-.518.124-.22.162-.492.047-.803-.038-.235-.078-.473-.118-.71.272-.737.353-1.587.116-2.354-.133-.44-.394-.85-.72-1.204.195-.44.3-.9.266-1.307-.106-1.223-.793-2.197-1.677-2.69.03-.284-.005-.586-.13-.906-.37-.93-.967-1.562-1.69-1.922-.404-.918-.98-1.78-1.593-2.483-.024-2.05-2.408-3.424-4.455-3.15-.507-.314-1.06-.513-1.62-.58-.12-.15-.31-.244-.54-.18-.212.06-.43.144-.65.237-.043.01-.085.025-.128.04-.46-.526-.767-.88-.767-.88s.285.432.462.948l-.044.007c-.063-.008-.125-.02-.19-.022-.455-.572-1.086-1.064-1.916-1.373-.89-.33-1.703-.272-2.406.036-.575-.226-1.11-.307-1.6-.28v-.393c-.655.043-1.273.28-1.825.58-.268-.014-.534-.01-.793.025-.027.004-.05.013-.076.018-.48.012-.952.07-1.394.155-.078.015-.144.045-.218.065.056-.45.134-.843.134-.843-.04.29-.124.582-.225.87-.834.24-1.454.715-1.86 1.32-1.5-.104-2.885.197-4.06.83-.54-.006-1.066.08-1.486.24-1.17.448-1.88 1.515-2.1 2.688-1.195.24-2.26.99-2.933 1.98-.39.503-.646 1.097-.753 1.717-.042.073-.075.15-.11.226-.188-.096-.423-.082-.56.166-.59 1.067-.637 2.45-.023 3.514.086.253.213.496.367.724-.04.04-.082.076-.117.12-.092-.006-.187.003-.286.05-.598.28-.946.886-.954 1.537-.005.407.21.856.54 1.126-.373.45-.59.996-.592 1.624 0 .28.086.62.233.928-.4.744-.416 1.683.11 2.605l-.004.01c-.21.908-.036 1.723.654 2.376.045.042.105.07.157.107-.02.02-.04.032-.056.057-.25.387-.216.853.01 1.242.146.25.55.556.843.408.022.09.04.18.07.266.11 2.28.354 5.895.8 6.246.653.517 1.3 2.3 1.7 2.35.117.016-.022-.864-.223-2.142.015-.02.04-.034.045-.06.056-.303-.042-.522-.174-.76-.123-.813-.255-1.72-.357-2.633.302-.32.25-1.202.2-1.7.38-.055.844-.33.946-.7.11-.4-.215-.562-.428-.83-.3-.377-.374-.603-.2-1.077.09-.254.28-.47.423-.694l.008-.015c.273.447.69.84 1.21.78.19-.023.3-.16.267-.352-.076-.456-.434-.82-.62-1.237.247-.015.518-.03.83-.05.038.168.098.34.172.515.343.8 1.385.95 2.12.823.687-.12 1.18-.703 1.332-1.348.385-.03.757-.14 1.065-.32l.237-.02c.27.042.548.025.813-.07 1.285-.112 2.467-.237 3.373-.365.75.63 1.73.95 2.676.556.194-.08.253-.4 0-.456-.095-.02-.186-.047-.28-.07.16-.157.283-.347.35-.557.373.16.797.205 1.25.083.31-.083.593-.252.81-.47.153-.04.303-.093.45-.157.805.364 1.595.78 2.423 1.09.166.06.373.015.526-.084.06.015.12.04.183.05.67.113 1.66-.143 2.268-.663.257.043.51.047.76.01.04.69.397 1.314.95 1.718.584.426 1.29.53 1.985.386.21-.044.38-.12.53-.217.01.006.02.015.034.023.584.346 1.425.347 2.005-.018.246.093.537.124.825.103.023.03.042.06.067.09.01.013.024.026.034.038-.006.027-.02.05-.02.08-.045.687.213 1.302.648 1.823.038.045.082.09.128.14-.084.32-.094.69-.022 1.024-.243.417-.355.912-.25 1.388.04.194.123.39.23.572-.178.234-.3.51-.343.813-.03.22-.01.504.057.78-.197.805.01 1.92.9 2.1.452.09.783-.34.578-.753-.078-.16-.195-.31-.29-.465.173-.058.332-.17.36-.366.057-.41-.127-.717-.202-1.105-.012-.063-.014-.144-.01-.228.086.012.176.015.268.005.485-.053.71-.55.387-.932-.24-.284-.556-.565-.66-.88.066-.002.126.007.198-.006.225-.04.376-.327.305-.537-.044-.128-.113-.247-.186-.363.085-.202.028-.402-.104-.54.1-.02.196-.058.284-.13.474.336 1.11.424 1.653.188.424-.183.8-.59.878-1.035.26-.06.507-.182.712-.37.437-.4.634-1.33.145-1.75.872-.98.223-2.52-.428-3.5zm-9.537 1.35c-.005.234.02.46.07.677-.03-.003-.057 0-.086-.005-.38-.096-.672-.794-.682-1.19l.99.064c-.162.09-.287.246-.292.456zm1.912.128c-.005.21.02.417.067.62-.148-.178-.38-.28-.61-.186.056.01.11.023.167.034-.057-.015-.11-.02-.167-.022-.138-.21-.234-.454-.274-.72-.02-.118-.07-.2-.137-.263.57.04 1.033.076 1.353.102-.205.022-.395.163-.402.435zm2.993 1.142c-.297-.407-.477-.913-.466-1.39.012-.554-.765-.515-.833 0-.064.465-.06.92.025 1.357-.476-.173-.78-.56-.798-1.11-.007-.222-.14-.36-.3-.416l.282.024 3.25-.743c.053.16.12.315.214.453.098.54.2 1.072.305 1.6-.01.41-.017.817-.013 1.225.005 0 .01 0 .014-.002 0 .01.005.018.005.027-.365-.15-.75-.26-1.098-.467.038-.084.073-.17.09-.266.027-.163-.07-.325-.25-.325-.145 0-.288.014-.43.033zm1.566 2.62c-.17.074-.308.246-.35.442l-.114-.06c-.058-.062-.13-.108-.215-.134-.044-.03-.092-.055-.13-.09-.18-.162-.317-.36-.405-.58.385.22.81.36 1.218.333 0 .03-.006.06-.004.09z" fill="#552916"/><g fill="#f2d3b1"><path d="M231.36 342.423s-1.2-3.21-1.2.283c0 3.492 2.665 6.302 2.665 6.302l-1.466-6.585z"/><path d="M265.324 342.423s1.2-3.21 1.2.283c0 3.492-2.666 6.302-2.666 6.302l1.466-6.585z"/></g></g></g><circle cx="327.396" cy="378.92" r="34.129" opacity=".31" fill="#f3f3f3"/><path d="M342.262 387.122c.28-6.036-.168-10.676 1.495-12.117 1.632-1.35 6.646-.97 10.08 4.036 3.605 5.03 1.1 14.038-4.316 16.307-5.433 2.276-7.565-2.398-7.257-8.224z" opacity=".68" fill="#f3f3f3"/><path d="M382.828 452.24s-3.27 4.193-7.26 5.008c-3.987.815-11.237 0-11.237 0s3.92-5.007 9.207-5.007h9.292z" fill="#f9f0e9"/><path fill="#f9f0e9" d="M457.72 482.56l-21.494 39.29 12.827 6.703 20.225-39.818z"/><path fill="#2a2f3e" d="M447.933 529.217l40.975 25.48-4.96-59.733-13.85-7.782z"/></g><path d="M416.353 439.47c-2.27-1.486-29.753-8.324-29.753-8.324l6.754 5.885s-.57 1.26 3.915 3.474c4.48 2.212 6.17 13.97 6.17 13.97-1.3-.62-3.625.817-5.156.817l-34.8.793c-5.06 0-8.282 3.338-8.96 8.222 0 0 3.07 6.425 17.948 7.98 14.88 1.557 28.122 3.96 28.122 3.96s7.137 15.323 17.41 21.726c2.468 1.54 8.61 5.11 10.173 4.39.02-.007 1.67-.05 1.688-.057.183-.086 3.702-.018 3.702-.018 6.635-3.62 14.65-2.138 14.65-2.138l8.458-15.703s-38.053-43.487-40.323-44.973z" fill="#e8c6a3"/></g><path d="M355.28 460.827s6.096-.634 10.802-2.07c.648-.33 1.965-2.543 1.965-2.543s-8.665-2.123-12.767 4.613z" fill="#fbe1cb"/><g><path d="M245.9 543.807s5.086 9.707 3.006 9.938c-2.08.23-37.21-5.316-40.446-27.734 0 0 5.48-8.325 7.243-11.21 1.763-2.882 24.882 2.29 24.882 2.29l5.316 26.718z" fill="#e8c6a3"/><path d="M213.744 518.71s1.685-4.184 5.39-9.183c3.707-5 22.498-33.285 22.498-33.285s6.23-2.967 11.497-4.114l5.515-1.202 22.61-24.677s14.617-3.557 12.42 10.18l-17.627 20.806s-4.553 22.758-10.868 31.04c-6.315 8.28-11.41 11.077-11.41 11.077l-7.23 20.65c.002.003-19.21-6.59-32.798-21.294z" fill="#e8c6a3"/><g><path d="M282.885 508.17s7.982 19.35 7.15 20.17c-.834.82-16.458 12.65-17.877 12.068-1.42-.582-4.315-11.715 3.164-17.02l2.03-.908 5.533-14.31z" fill="#e8c6a3"/><path d="M279.04 528.474l1.807 6.758-7.72 4.934s-3.39-5.37 5.912-11.692z" fill="#fbe1cb"/></g><path d="M271.388 528.412s1.69-4.24 5.986-6.382c4.296-2.143 8.67-6.522 9.49-4.35.818 2.17 2.128 6.332 2.128 6.332s-16.56 4.797-17.604 4.4z" fill="#e0ba9a"/><g><path d="M289.063 492.303s7.982 19.35 7.15 20.17c-.834.82-16.458 12.65-17.877 12.068-1.42-.58-4.316-11.713 3.164-17.02l2.03-.906 5.533-14.31z" fill="#e8c6a3"/><path d="M285.216 512.607l1.81 6.758-7.722 4.934s-3.388-5.37 5.912-11.694z" fill="#fbe1cb"/></g><path d="M278.21 511.194s2.27-3.76 5.32-4.583c3.047-.82 9.484-4.36 9.484-4.36l1.996 5.433s-9.505 2.676-12.147 2.644c-2.64-.03-4.653.868-4.653.868z" fill="#e0ba9a"/><g><path d="M295.095 476.174s7.982 19.35 7.15 20.17c-.834.82-16.458 12.65-17.877 12.068-1.42-.582-4.316-11.715 3.164-17.02l2.03-.908 5.533-14.31z" fill="#e8c6a3"/><path d="M291.248 496.478l1.81 6.758-7.722 4.934s-3.388-5.37 5.912-11.692z" fill="#fbe1cb"/></g><path d="M283.576 496.478s1.69-3.852 5.986-5.996c4.296-2.143 8.67-6.522 9.49-4.35.818 2.17 2.246 6.17 2.246 6.17s-16.68 4.573-17.722 4.176z" fill="#e0ba9a"/><g><path d="M300.545 462.214s7.982 19.35 7.15 20.17c-.834.82-16.458 12.65-17.877 12.068-1.42-.582-4.315-11.715 3.164-17.02l2.03-.91 5.533-14.308z" fill="#e8c6a3"/><path d="M296.7 482.518l1.808 6.758-7.72 4.934c-.002 0-3.39-5.37 5.91-11.692z" fill="#fbe1cb"/></g><path fill="#f9f0e9" d="M206.15 524.3l47.672 32.373-6.604 9.244-47.338-33.28z"/><path d="M275.792 454.166l10.634 8.048 6.01-6.12s.234-11.16-10.594-8.062l-6.05 6.134z" fill="#fbe1cb"/><path d="M250.387 567.098c-16.744-11.312-56.233-38.024-56.718-38.663l-59.938 66.757 86.786 12.35c11.178-15.17 23.896-32.41 29.867-40.444z" fill="#2a2f3e"/></g></g></g></g></svg>