<?xml version="1.0" encoding="UTF-8" standalone="no"?>
<!-- Generator: Adobe Illustrator 17.0.0, SVG Export Plug-In . SVG Version: 6.00 Build 0)  -->

<svg
   xmlns:dc="http://purl.org/dc/elements/1.1/"
   xmlns:cc="http://creativecommons.org/ns#"
   xmlns:rdf="http://www.w3.org/1999/02/22-rdf-syntax-ns#"
   xmlns:svg="http://www.w3.org/2000/svg"
   xmlns="http://www.w3.org/2000/svg"
   xmlns:xlink="http://www.w3.org/1999/xlink"
   xmlns:sodipodi="http://sodipodi.sourceforge.net/DTD/sodipodi-0.dtd"
   xmlns:inkscape="http://www.inkscape.org/namespaces/inkscape"
   version="1.1"
   id="Capa_1"
   x="0px"
   y="0px"
   preserveAspectRatio="xMinYMin meet"
   viewBox="0 0 124.61999 124.90699"
   enable-background="new 0 0 595.28 841.89"
   xml:space="preserve"
   inkscape:version="0.91pre3 r13670"
   sodipodi:docname="descubrimiento.svg"><title
     id="title8538">Disparador exploracion</title><metadata
     id="metadata49"><rdf:RDF><cc:Work
         rdf:about=""><dc:format>image/svg+xml</dc:format><dc:type
           rdf:resource="http://purl.org/dc/dcmitype/StillImage" /><dc:title>Disparador exploracion</dc:title></cc:Work></rdf:RDF></metadata><defs
     id="defs47"><clipPath
       id="SVGID_2_"><use
         height="100%"
         width="100%"
         y="0"
         x="0"
         style="overflow:visible"
         xlink:href="#SVGID_1_"
         overflow="visible"
         id="use18" /></clipPath><clipPath
       id="clipPath8528"><use
         height="100%"
         width="100%"
         y="0"
         x="0"
         style="overflow:visible"
         xlink:href="#SVGID_1_"
         overflow="visible"
         id="use8530" /></clipPath><clipPath
       id="clipPath8532"><use
         height="100%"
         width="100%"
         y="0"
         x="0"
         style="overflow:visible"
         xlink:href="#SVGID_1_"
         overflow="visible"
         id="use8534" /></clipPath><clipPath
       id="SVGID_4_"><use
         height="100%"
         width="100%"
         y="0"
         x="0"
         style="overflow:visible"
         xlink:href="#SVGID_3_"
         overflow="visible"
         id="use318" /></clipPath><clipPath
       id="clipPath8538"><use
         height="100%"
         width="100%"
         y="0"
         x="0"
         style="overflow:visible"
         xlink:href="#SVGID_3_"
         overflow="visible"
         id="use8540" /></clipPath></defs><sodipodi:namedview
     pagecolor="#ffffff"
     bordercolor="#666666"
     borderopacity="1"
     objecttolerance="10"
     gridtolerance="10"
     guidetolerance="10"
     inkscape:pageopacity="0"
     inkscape:pageshadow="2"
     inkscape:window-width="1366"
     inkscape:window-height="705"
     id="namedview45"
     showgrid="false"
     units="mm"
     width="209mm"
     inkscape:zoom="4.4851463"
     inkscape:cx="-10.895393"
     inkscape:cy="62.838199"
     inkscape:window-x="-8"
     inkscape:window-y="-8"
     inkscape:window-maximized="1"
     inkscape:current-layer="Capa_1"
     fit-margin-top="0"
     fit-margin-left="0"
     fit-margin-right="0"
     fit-margin-bottom="0" /><path
     d="m 117.03041,104.71471 c 0,6.49564 -5.32024,11.76112 -11.88354,11.76112 l -86.439372,0 c -6.563291,0 -11.8835358,-5.26548 -11.8835358,-11.76112 l 0,-84.522422 c 0,-6.495637 5.3202448,-11.7611166 11.8835358,-11.7611166 l 86.439372,0 c 6.5633,0 11.88354,5.2654796 11.88354,11.7611166 l 0,84.522422 z"
     id="path5"
     inkscape:connector-curvature="0"
     style="clip-rule:evenodd;opacity:0.7;fill:#f9c487;fill-opacity:1;fill-rule:evenodd" /><g
     transform="matrix(0.15691395,0,0,0.15685259,16.06509,-16.187895)"
     id="Capa_1-3"><g
       id="g12"><defs
         id="defs14"><rect
           id="SVGID_1_"
           x="103.533"
           y="219.08701"
           width="369.78799"
           height="369.78799" /></defs><clipPath
         id="clipPath8546"><use
           height="100%"
           width="100%"
           y="0"
           x="0"
           style="overflow:visible"
           xlink:href="#SVGID_1_"
           overflow="visible"
           id="use8548" /></clipPath><path
         style="fill:#e8c6a3"
         inkscape:connector-curvature="0"
         clip-path="url(#SVGID_2_)"
         d="m 575.474,549.508 c 0,0 7.396,7.473 7.165,8.012 -0.231,0.539 -5.239,9.014 -6.009,9.014 -0.77,0 -4.237,-4.622 -1.772,-8.513 l 0.77,-0.809 -0.154,-7.704 z"
         id="path20" /><path
         style="fill:#fbe1cb"
         inkscape:connector-curvature="0"
         clip-path="url(#SVGID_2_)"
         d="m 577.555,559.677 2.128,2.796 -2.648,3.764 c -10e-4,0 -2.598,-1.85 0.52,-6.56 z"
         id="path22" /><g
         clip-path="url(#SVGID_2_)"
         id="g24"><g
           id="g26"><g
             id="g28"><path
               style="fill:#e0ba9a"
               inkscape:connector-curvature="0"
               d="m 456.676,484.442 c 0,0 -37.191,-43.014 -40.323,-44.972 -3.132,-1.957 -29.753,-8.324 -29.753,-8.324 l 0,74.877 c 0,0 19.79,5.216 33.101,4.041 0,0 13.877,5.746 18.183,9.269 l 18.792,-34.891 z"
               id="path30" /><g
               id="g32"><polygon
                 style="fill:#f3f3f3"
                 points="288.318,281.566 271.981,289.486 255.63,281.597 239.293,289.517 222.941,281.628 206.605,289.548 190.253,281.659 190.26,289.563 190.346,379.731 190.469,510.414 386.6,510.229 386.477,379.545 386.391,289.378 386.384,281.473 370.047,289.393 353.695,281.504 337.359,289.424 321.007,281.535 304.67,289.455 "
                 id="polygon34" /><path
                 style="fill:#d7d6d6"
                 inkscape:connector-curvature="0"
                 d="m 370.424,325.677 -164.128,0.155 c -1.874,0.002 -3.408,-1.53 -3.41,-3.403 l -0.014,-14.864 c -0.002,-1.874 1.53,-3.408 3.403,-3.41 L 370.403,304 c 1.874,-0.002 3.408,1.53 3.41,3.403 l 0.014,14.864 c 0.002,1.874 -1.529,3.408 -3.403,3.41 z"
                 id="path36" /></g><g
               id="g38"><g
                 id="g40"><path
                   style="fill:#efcbad"
                   inkscape:connector-curvature="0"
                   d="m 292.977,369 -4.55,2.727 -4.55,-2.727 c 0.262,2.389 -2.033,7.338 -2.033,7.338 l 6.583,2.676 6.583,-2.676 c 0,0 -2.295,-4.949 -2.033,-7.338 z"
                   id="path42" /><path
                   style="fill:#03b79a"
                   inkscape:connector-curvature="0"
                   d="m 311.62,390.444 c -0.144,-3.307 -0.659,-9.43 -2.503,-10.887 -1.348,-1.065 -4.31,-1.631 -6.813,-1.928 l 0,0 -0.003,0 c -2.247,-0.267 -4.122,-0.318 -4.122,-0.318 l -1.222,-0.629 -1.639,-0.747 -6.893,2.125 0,0 0,0 -6.893,-2.125 -1.639,0.747 -1.222,0.629 c 0,0 -1.875,0.051 -4.122,0.318 l -0.003,0 0,0 c -2.502,0.297 -5.465,0.863 -6.813,1.928 -1.844,1.457 -2.359,7.579 -2.502,10.887 l 46.389,0 z"
                   id="path44" /><g
                   id="g46"><path
                     style="fill:#f2d3b1"
                     inkscape:connector-curvature="0"
                     d="m 288.427,354.148 -7.628,0 c -1.857,0 -3.267,1.672 -2.952,3.502 0.414,2.404 1.015,5.435 1.642,7.017 0.808,2.041 4.886,6.054 7.666,7.36 0.806,0.379 1.738,0.379 2.544,0 2.78,-1.306 6.858,-5.319 7.666,-7.36 0.627,-1.582 1.228,-4.614 1.642,-7.017 0.315,-1.83 -1.095,-3.502 -2.952,-3.502 l -7.628,0 z"
                     id="path48" /><path
                     style="fill:#552916"
                     inkscape:connector-curvature="0"
                     d="m 288.427,354.148 c 3.181,0 7.705,1.529 9.051,2.14 1.345,0.612 -0.245,6.972 0,6.941 0.245,-0.031 0.64,-1.121 1.04,-1.437 0.4,-0.316 0.534,-4.954 0.534,-4.954 l 0,-2.691 -10.625,0 z"
                     id="path50" /></g><path
                   style="fill:#ddb699"
                   inkscape:connector-curvature="0"
                   d="m 293.014,370.212 c -0.058,-0.444 -0.076,-0.856 -0.037,-1.212 l -4.55,2.727 -4.55,-2.727 c 0.039,0.355 0.021,0.768 -0.037,1.212 1.131,0.962 2.308,1.791 3.316,2.264 0.806,0.379 1.738,0.379 2.544,0 1.006,-0.473 2.183,-1.303 3.314,-2.264 z"
                   id="path52" /><g
                   id="g54"><path
                     style="fill:#f2d3b1"
                     inkscape:connector-curvature="0"
                     d="m 288.427,354.148 -7.628,0 c -1.857,0 -3.267,1.672 -2.952,3.502 0.414,2.404 1.015,5.435 1.642,7.017 0.808,2.041 4.886,6.054 7.666,7.36 0.806,0.379 1.738,0.379 2.544,0 2.78,-1.306 6.858,-5.319 7.666,-7.36 0.627,-1.582 1.228,-4.614 1.642,-7.017 0.315,-1.83 -1.095,-3.502 -2.952,-3.502 l -7.628,0 z"
                     id="path56" /><path
                     style="fill:#552916"
                     inkscape:connector-curvature="0"
                     d="m 299.72,354.415 c -0.152,0.01 -0.31,0.128 -0.297,0.297 0.017,0.231 0.124,0.344 0.09,0.579 -0.028,0.191 -0.221,0.293 -0.396,0.282 -0.025,-10e-4 -0.044,0.006 -0.066,0.008 l 0,-1.434 -10.624,0 c 3.181,0 7.705,1.529 9.051,2.14 1.345,0.612 -0.245,6.972 0,6.941 0.245,-0.031 0.64,-1.121 1.04,-1.437 0.4,-0.316 0.534,-4.954 0.534,-4.954 l 0,-0.534 c 0.544,0.182 1.144,-0.098 1.348,-0.634 0.182,-0.478 -0.056,-1.295 -0.68,-1.254 z"
                     id="path58" /></g><g
                   id="g60"><path
                     style="fill:#552916"
                     inkscape:connector-curvature="0"
                     d="m 288.724,354.091 0.39,0 c -0.131,-0.001 -0.262,-0.002 -0.39,0 z"
                     id="path62" /><path
                     style="fill:#552916"
                     inkscape:connector-curvature="0"
                     d="m 297.049,356.87 -0.599,-1.235 -5.017,-1.543 -2.319,0 c 1.225,0.015 2.557,0.199 3.985,0.757 3.163,1.235 3.95,2.021 3.95,2.021 z"
                     id="path64" /></g><path
                   style="fill:#552916"
                   inkscape:connector-curvature="0"
                   d="m 300.213,354.159 c 0.023,-0.105 0.035,-0.211 0.041,-0.317 0.076,-0.135 0.099,-0.301 0.028,-0.491 -0.023,-0.144 -0.048,-0.289 -0.072,-0.434 0.166,-0.45 0.215,-0.969 0.071,-1.438 -0.083,-0.268 -0.242,-0.518 -0.441,-0.734 0.119,-0.27 0.184,-0.551 0.163,-0.799 -0.065,-0.747 -0.485,-1.342 -1.025,-1.644 0.017,-0.172 -0.003,-0.357 -0.08,-0.553 -0.225,-0.568 -0.59,-0.954 -1.031,-1.174 -0.248,-0.561 -0.599,-1.088 -0.974,-1.518 -0.015,-1.252 -1.471,-2.092 -2.722,-1.924 -0.311,-0.193 -0.648,-0.314 -0.991,-0.354 -0.072,-0.094 -0.19,-0.151 -0.329,-0.112 -0.13,0.037 -0.264,0.088 -0.397,0.145 -0.027,0.006 -0.053,0.015 -0.079,0.024 -0.281,-0.321 -0.468,-0.537 -0.468,-0.537 0,0 0.174,0.263 0.282,0.579 -0.009,0.002 -0.018,0.003 -0.026,0.004 -0.039,-0.005 -0.077,-0.012 -0.116,-0.014 -0.278,-0.35 -0.664,-0.651 -1.172,-0.84 -0.543,-0.202 -1.041,-0.166 -1.471,0.022 -0.351,-0.138 -0.678,-0.187 -0.977,-0.172 l 0,-0.24 c -0.401,0.026 -0.778,0.171 -1.116,0.354 -0.163,-0.009 -0.326,-0.005 -0.484,0.015 -0.017,0.002 -0.03,0.008 -0.047,0.011 -0.292,0.007 -0.582,0.042 -0.852,0.095 -0.048,0.009 -0.088,0.028 -0.133,0.04 0.034,-0.275 0.082,-0.515 0.082,-0.515 -0.026,0.178 -0.076,0.355 -0.138,0.532 -0.51,0.146 -0.889,0.437 -1.138,0.806 -0.917,-0.063 -1.762,0.121 -2.48,0.507 -0.33,-0.003 -0.652,0.049 -0.908,0.147 -0.715,0.274 -1.148,0.926 -1.282,1.643 -0.731,0.147 -1.383,0.606 -1.793,1.21 -0.239,0.308 -0.395,0.671 -0.46,1.05 -0.026,0.045 -0.046,0.092 -0.068,0.138 -0.114,-0.06 -0.258,-0.051 -0.341,0.1 -0.36,0.652 -0.39,1.497 -0.015,2.147 0.052,0.155 0.13,0.304 0.224,0.443 -0.024,0.024 -0.05,0.047 -0.071,0.073 -0.056,-0.003 -0.114,0.002 -0.174,0.031 -0.365,0.172 -0.578,0.542 -0.583,0.94 -0.003,0.248 0.128,0.522 0.329,0.687 -0.227,0.275 -0.359,0.608 -0.361,0.992 -10e-4,0.172 0.052,0.379 0.143,0.568 -0.245,0.455 -0.256,1.028 0.065,1.592 0,0.002 -0.001,0.003 -0.002,0.005 -0.128,0.556 -0.022,1.053 0.4,1.452 0.028,0.027 0.065,0.043 0.096,0.066 -0.011,0.012 -0.024,0.019 -0.034,0.035 -0.154,0.236 -0.133,0.521 0.006,0.759 0.089,0.152 0.335,0.34 0.514,0.249 0.014,0.055 0.024,0.11 0.044,0.163 0.067,1.393 0.216,3.602 0.488,3.816 0.4,0.316 0.795,1.406 1.04,1.437 0.072,0.009 -0.014,-0.529 -0.137,-1.31 0.01,-0.012 0.025,-0.021 0.028,-0.036 0.034,-0.186 -0.026,-0.319 -0.106,-0.466 -0.076,-0.496 -0.157,-1.05 -0.219,-1.608 0.185,-0.197 0.153,-0.736 0.122,-1.041 0.233,-0.033 0.517,-0.201 0.579,-0.426 0.067,-0.246 -0.131,-0.344 -0.261,-0.508 -0.183,-0.23 -0.229,-0.369 -0.124,-0.658 0.056,-0.155 0.171,-0.287 0.259,-0.424 0.002,-0.003 0.003,-0.006 0.005,-0.009 0.166,0.273 0.422,0.514 0.738,0.477 0.117,-0.014 0.183,-0.097 0.164,-0.215 -0.046,-0.279 -0.265,-0.501 -0.379,-0.756 0.151,-0.009 0.316,-0.019 0.507,-0.031 0.023,0.103 0.06,0.209 0.105,0.315 0.211,0.489 0.847,0.581 1.296,0.502 0.42,-0.073 0.72,-0.43 0.814,-0.824 0.235,-0.018 0.463,-0.085 0.651,-0.196 0.049,-0.004 0.097,-0.008 0.145,-0.012 0.166,0.026 0.335,0.016 0.497,-0.042 0.785,-0.069 1.508,-0.145 2.061,-0.223 0.458,0.386 1.057,0.581 1.635,0.34 0.119,-0.05 0.155,-0.245 0,-0.279 -0.057,-0.013 -0.113,-0.029 -0.17,-0.043 0.097,-0.096 0.173,-0.212 0.213,-0.341 0.228,0.097 0.487,0.125 0.764,0.051 0.19,-0.051 0.362,-0.154 0.494,-0.288 0.094,-0.024 0.186,-0.056 0.275,-0.095 0.493,0.223 0.976,0.477 1.482,0.667 0.101,0.038 0.228,0.01 0.322,-0.051 0.038,0.009 0.073,0.024 0.113,0.031 0.41,0.069 1.014,-0.087 1.386,-0.405 0.157,0.026 0.312,0.028 0.463,0.006 0.024,0.422 0.243,0.803 0.582,1.05 0.356,0.26 0.787,0.324 1.212,0.235 0.128,-0.027 0.232,-0.074 0.323,-0.132 0.007,0.005 0.014,0.01 0.021,0.014 0.357,0.211 0.872,0.212 1.226,-0.011 0.151,0.057 0.328,0.076 0.504,0.063 0.014,0.019 0.026,0.038 0.041,0.056 0.006,0.008 0.015,0.015 0.021,0.023 -0.004,0.017 -0.012,0.03 -0.013,0.049 -0.027,0.42 0.13,0.796 0.396,1.114 0.023,0.028 0.05,0.056 0.078,0.084 -0.051,0.197 -0.057,0.423 -0.014,0.627 -0.149,0.255 -0.218,0.557 -0.154,0.849 0.026,0.118 0.076,0.238 0.142,0.349 -0.109,0.143 -0.184,0.311 -0.21,0.497 -0.019,0.134 -0.007,0.308 0.034,0.476 -0.121,0.493 0.006,1.173 0.55,1.283 0.276,0.056 0.479,-0.207 0.353,-0.46 -0.048,-0.098 -0.12,-0.189 -0.177,-0.284 0.105,-0.035 0.202,-0.104 0.219,-0.223 0.035,-0.25 -0.077,-0.438 -0.124,-0.676 -0.007,-0.038 -0.009,-0.087 -0.007,-0.138 0.053,0.007 0.108,0.009 0.164,0.003 0.296,-0.032 0.433,-0.335 0.236,-0.569 -0.147,-0.174 -0.34,-0.345 -0.403,-0.538 0.04,-0.001 0.076,0.005 0.12,-0.003 0.137,-0.025 0.23,-0.199 0.186,-0.328 -0.027,-0.078 -0.069,-0.151 -0.114,-0.222 0.052,-0.124 0.018,-0.247 -0.063,-0.331 0.061,-0.012 0.12,-0.035 0.174,-0.078 0.29,0.204 0.678,0.258 1.01,0.115 0.259,-0.112 0.49,-0.361 0.537,-0.632 0.159,-0.037 0.309,-0.111 0.435,-0.226 0.267,-0.245 0.388,-0.812 0.089,-1.07 0.534,-0.596 0.137,-1.538 -0.261,-2.135 z m -5.827,0.825 c -0.003,0.142 0.013,0.28 0.043,0.413 -0.018,-0.003 -0.035,0 -0.053,-0.004 -0.232,-0.058 -0.411,-0.485 -0.417,-0.727 0.216,0.013 0.414,0.026 0.604,0.039 -0.098,0.056 -0.174,0.151 -0.177,0.279 z m 1.168,0.078 c -0.003,0.129 0.013,0.255 0.041,0.378 -0.091,-0.108 -0.232,-0.171 -0.373,-0.113 0.034,0.007 0.068,0.014 0.102,0.021 -0.034,-0.009 -0.067,-0.012 -0.101,-0.014 -0.084,-0.129 -0.143,-0.278 -0.168,-0.441 -0.011,-0.071 -0.043,-0.121 -0.083,-0.16 0.349,0.025 0.631,0.047 0.827,0.062 -0.125,0.015 -0.241,0.101 -0.245,0.267 z m 1.829,0.698 c -0.181,-0.249 -0.291,-0.558 -0.285,-0.85 0.008,-0.338 -0.468,-0.314 -0.509,0 -0.038,0.285 -0.035,0.564 0.017,0.83 -0.291,-0.107 -0.477,-0.344 -0.488,-0.678 -0.005,-0.137 -0.085,-0.222 -0.183,-0.256 0.112,0.009 0.172,0.014 0.172,0.014 l 1.986,-0.454 c 0.034,0.098 0.075,0.193 0.132,0.277 0.06,0.329 0.123,0.655 0.187,0.978 -0.007,0.249 -0.01,0.499 -0.008,0.748 0.003,0 0.006,-0.001 0.009,-0.001 0,0.006 0.002,0.01 0.002,0.016 -0.223,-0.091 -0.458,-0.159 -0.671,-0.285 0.023,-0.05 0.044,-0.103 0.054,-0.162 0.017,-0.099 -0.042,-0.198 -0.151,-0.199 -0.089,10e-4 -0.177,0.01 -0.264,0.022 z m 0.957,1.601 c -0.104,0.045 -0.188,0.15 -0.214,0.27 -0.023,-0.012 -0.046,-0.025 -0.069,-0.037 -0.035,-0.037 -0.08,-0.065 -0.132,-0.081 -0.027,-0.018 -0.056,-0.034 -0.079,-0.054 -0.111,-0.1 -0.194,-0.221 -0.248,-0.355 0.235,0.135 0.495,0.22 0.744,0.204 0.001,0.017 -0.003,0.035 -0.002,0.053 z"
                   id="path66" /><g
                   id="g68"><path
                     style="fill:#f2d3b1"
                     inkscape:connector-curvature="0"
                     d="m 278.048,358.913 c 0,0 -0.732,-1.961 -0.732,0.173 0,2.134 1.629,3.851 1.629,3.851 l -0.897,-4.024 z"
                     id="path70" /><path
                     style="fill:#f2d3b1"
                     inkscape:connector-curvature="0"
                     d="m 298.805,358.913 c 0,0 0.732,-1.961 0.732,0.173 0,2.134 -1.629,3.851 -1.629,3.851 l 0.897,-4.024 z"
                     id="path72" /></g></g><g
                 id="g74"><path
                   style="fill:#d7d6d6"
                   inkscape:connector-curvature="0"
                   d="m 310.89,397.741 -44.928,0 c -0.401,0 -0.729,-0.328 -0.729,-0.73 l 0,-1.777 c 0,-0.401 0.328,-0.73 0.729,-0.73 l 44.928,0 c 0.401,0 0.729,0.328 0.729,0.73 l 0,1.777 c 10e-4,0.402 -0.327,0.73 -0.729,0.73 z"
                   id="path76" /><path
                   style="fill:#d7d6d6"
                   inkscape:connector-curvature="0"
                   d="m 310.89,403.75 -44.928,0 c -0.401,0 -0.729,-0.328 -0.729,-0.73 l 0,-1.777 c 0,-0.401 0.328,-0.73 0.729,-0.73 l 44.928,0 c 0.401,0 0.729,0.328 0.729,0.73 l 0,1.777 c 10e-4,0.402 -0.327,0.73 -0.729,0.73 z"
                   id="path78" /><path
                   style="fill:#d7d6d6"
                   inkscape:connector-curvature="0"
                   d="m 310.89,409.759 -44.928,0 c -0.401,0 -0.729,-0.328 -0.729,-0.73 l 0,-1.777 c 0,-0.401 0.328,-0.73 0.729,-0.73 l 44.928,0 c 0.401,0 0.729,0.328 0.729,0.73 l 0,1.777 c 10e-4,0.402 -0.327,0.73 -0.729,0.73 z"
                   id="path80" /></g></g><g
               id="g82"><g
                 id="g84"><path
                   style="fill:#efcbad"
                   inkscape:connector-curvature="0"
                   d="m 227.624,369 -4.55,2.727 -4.55,-2.727 c 0.262,2.389 -2.033,7.338 -2.033,7.338 l 6.583,2.676 6.583,-2.676 c 0,0 -2.295,-4.949 -2.033,-7.338 z"
                   id="path86" /><path
                   style="fill:#f58461"
                   inkscape:connector-curvature="0"
                   d="m 246.266,390.444 c -0.144,-3.307 -0.659,-9.43 -2.503,-10.887 -1.348,-1.065 -4.31,-1.631 -6.813,-1.928 l 0,0 -0.003,0 c -2.247,-0.267 -4.122,-0.318 -4.122,-0.318 l -1.221,-0.629 -1.639,-0.747 -6.893,2.125 0,0 0,0 -6.893,-2.125 -1.639,0.747 -1.222,0.629 c 0,0 -1.875,0.051 -4.122,0.318 l -0.003,0 0,0 c -2.502,0.297 -5.465,0.863 -6.813,1.928 -1.844,1.457 -2.359,7.579 -2.502,10.887 l 46.388,0 z"
                   id="path88" /><g
                   id="g90"><path
                     style="fill:#f2d3b1"
                     inkscape:connector-curvature="0"
                     d="m 223.073,354.148 -7.628,0 c -1.857,0 -3.267,1.672 -2.952,3.502 0.414,2.404 1.015,5.435 1.642,7.017 0.808,2.041 4.886,6.054 7.666,7.36 0.806,0.379 1.738,0.379 2.544,0 2.78,-1.306 6.858,-5.319 7.666,-7.36 0.627,-1.582 1.228,-4.614 1.642,-7.017 0.315,-1.83 -1.095,-3.502 -2.952,-3.502 l -7.628,0 z"
                     id="path92" /><path
                     style="fill:#552916"
                     inkscape:connector-curvature="0"
                     d="m 223.073,354.148 c 3.181,0 7.705,1.529 9.051,2.14 1.345,0.612 -0.245,6.972 0,6.941 0.245,-0.031 0.64,-1.121 1.04,-1.437 0.4,-0.316 0.534,-4.954 0.534,-4.954 l 0,-2.691 -10.625,0 z"
                     id="path94" /></g><path
                   style="fill:#ddb699"
                   inkscape:connector-curvature="0"
                   d="m 227.661,370.212 c -0.058,-0.444 -0.076,-0.856 -0.037,-1.212 l -4.55,2.727 -4.55,-2.727 c 0.039,0.355 0.021,0.768 -0.037,1.212 1.131,0.962 2.308,1.791 3.316,2.264 0.806,0.379 1.738,0.379 2.544,0 1.005,-0.473 2.183,-1.303 3.314,-2.264 z"
                   id="path96" /><g
                   id="g98"><path
                     style="fill:#f2d3b1"
                     inkscape:connector-curvature="0"
                     d="m 223.073,354.148 -7.628,0 c -1.857,0 -3.267,1.672 -2.952,3.502 0.414,2.404 1.015,5.435 1.642,7.017 0.808,2.041 4.886,6.054 7.666,7.36 0.806,0.379 1.738,0.379 2.544,0 2.78,-1.306 6.858,-5.319 7.666,-7.36 0.627,-1.582 1.228,-4.614 1.642,-7.017 0.315,-1.83 -1.095,-3.502 -2.952,-3.502 l -7.628,0 z"
                     id="path100" /><path
                     style="fill:#552916"
                     inkscape:connector-curvature="0"
                     d="m 223.073,354.148 c 3.181,0 7.705,1.529 9.051,2.14 1.345,0.612 -0.245,6.972 0,6.941 0.245,-0.031 0.64,-1.121 1.04,-1.437 0.4,-0.316 0.534,-4.954 0.534,-4.954 l 0,-2.691 -10.625,0 z"
                     id="path102" /></g><g
                   id="g104"><path
                     style="fill:#552916"
                     inkscape:connector-curvature="0"
                     d="m 223.37,354.091 0.39,0 c -0.131,-0.001 -0.261,-0.002 -0.39,0 z"
                     id="path106" /><path
                     style="fill:#552916"
                     inkscape:connector-curvature="0"
                     d="m 231.695,356.87 -0.599,-1.235 -5.017,-1.543 -2.319,0 c 1.225,0.015 2.557,0.199 3.985,0.757 3.164,1.235 3.95,2.021 3.95,2.021 z"
                     id="path108" /></g><path
                   style="fill:#552916"
                   inkscape:connector-curvature="0"
                   d="m 229.106,345.183 c -0.906,-0.988 -2.554,-2.883 -2.554,-2.883 0,0 0.824,1.236 0,1.565 -0.824,0.33 -3.479,-0.577 -3.479,-0.577 l 0,-1.647 c -1.255,0.082 -2.287,1.318 -2.549,1.318 -0.262,0 0,-1.318 0,-1.318 -0.262,1.812 -2.614,3.625 -2.614,3.625 -5.677,1.812 -5.461,8.883 -5.461,8.883 l 0,2.691 c 0,0 0.134,4.638 0.534,4.954 0.4,0.316 0.795,1.406 1.04,1.437 0.245,0.031 -1.345,-6.329 0,-6.941 0,0 5.842,-0.317 7.377,-0.654 0,0 -1.858,-0.513 -2.197,-0.884 3.863,-0.621 11.551,0.071 11.551,0.071 l 2.943,-0.673 c 0.637,-6.606 -3.685,-7.978 -4.591,-8.967 z"
                   id="path110" /><g
                   id="g112"><path
                     style="fill:#f2d3b1"
                     inkscape:connector-curvature="0"
                     d="m 212.695,358.913 c 0,0 -0.732,-1.961 -0.732,0.173 0,2.134 1.629,3.851 1.629,3.851 l -0.897,-4.024 z"
                     id="path114" /><path
                     style="fill:#f2d3b1"
                     inkscape:connector-curvature="0"
                     d="m 233.452,358.913 c 0,0 0.732,-1.961 0.732,0.173 0,2.134 -1.629,3.851 -1.629,3.851 l 0.897,-4.024 z"
                     id="path116" /></g></g><g
                 id="g118"><path
                   style="fill:#d7d6d6"
                   inkscape:connector-curvature="0"
                   d="m 245.537,397.741 -44.928,0 c -0.401,0 -0.729,-0.328 -0.729,-0.73 l 0,-1.777 c 0,-0.401 0.328,-0.73 0.729,-0.73 l 44.928,0 c 0.401,0 0.73,0.328 0.73,0.73 l 0,1.777 c -0.001,0.402 -0.329,0.73 -0.73,0.73 z"
                   id="path120" /><path
                   style="fill:#d7d6d6"
                   inkscape:connector-curvature="0"
                   d="m 245.537,403.75 -44.928,0 c -0.401,0 -0.729,-0.328 -0.729,-0.73 l 0,-1.777 c 0,-0.401 0.328,-0.73 0.729,-0.73 l 44.928,0 c 0.401,0 0.73,0.328 0.73,0.73 l 0,1.777 c -0.001,0.402 -0.329,0.73 -0.73,0.73 z"
                   id="path122" /><path
                   style="fill:#d7d6d6"
                   inkscape:connector-curvature="0"
                   d="m 245.537,409.759 -44.928,0 c -0.401,0 -0.729,-0.328 -0.729,-0.73 l 0,-1.777 c 0,-0.401 0.328,-0.73 0.729,-0.73 l 44.928,0 c 0.401,0 0.73,0.328 0.73,0.73 l 0,1.777 c -0.001,0.402 -0.329,0.73 -0.73,0.73 z"
                   id="path124" /></g></g><g
               id="g126"><g
                 id="g128"><path
                   style="fill:#efcbad"
                   inkscape:connector-curvature="0"
                   d="m 358.33,369 -4.55,2.727 -4.55,-2.727 c 0.262,2.389 -2.033,7.338 -2.033,7.338 l 6.583,2.676 6.583,-2.676 c 0,0 -2.295,-4.949 -2.033,-7.338 z"
                   id="path130" /><path
                   style="fill:#4780c2"
                   inkscape:connector-curvature="0"
                   d="m 376.973,390.444 c -0.144,-3.307 -0.659,-9.43 -2.503,-10.887 -1.348,-1.065 -4.31,-1.631 -6.813,-1.928 l 0,0 -0.003,0 c -2.247,-0.267 -4.122,-0.318 -4.122,-0.318 l -1.221,-0.629 -1.639,-0.747 -6.893,2.125 0,0 0,0 -6.893,-2.125 -1.639,0.747 -1.222,0.629 c 0,0 -1.875,0.051 -4.122,0.318 l -0.003,0 0,0 c -2.502,0.297 -5.465,0.863 -6.813,1.928 -1.844,1.457 -2.359,7.579 -2.502,10.887 l 46.388,0 z"
                   id="path132" /><g
                   id="g134"><path
                     style="fill:#f2d3b1"
                     inkscape:connector-curvature="0"
                     d="m 353.78,354.148 -7.628,0 c -1.857,0 -3.267,1.672 -2.952,3.502 0.414,2.404 1.015,5.435 1.642,7.017 0.808,2.041 4.886,6.054 7.666,7.36 0.806,0.379 1.738,0.379 2.544,0 2.78,-1.306 6.858,-5.319 7.666,-7.36 0.627,-1.582 1.228,-4.614 1.642,-7.017 0.315,-1.83 -1.095,-3.502 -2.952,-3.502 l -7.628,0 z"
                     id="path136" /><path
                     style="fill:#552916"
                     inkscape:connector-curvature="0"
                     d="m 353.78,354.148 c 3.181,0 7.705,1.529 9.051,2.14 1.345,0.612 -0.245,6.972 0,6.941 0.245,-0.031 0.64,-1.121 1.04,-1.437 0.4,-0.316 0.534,-4.954 0.534,-4.954 l 0,-2.691 -10.625,0 z"
                     id="path138" /></g><path
                   style="fill:#ddb699"
                   inkscape:connector-curvature="0"
                   d="m 358.368,370.212 c -0.058,-0.444 -0.076,-0.856 -0.037,-1.212 l -4.55,2.727 L 349.23,369 c 0.039,0.355 0.021,0.768 -0.037,1.212 1.131,0.962 2.308,1.791 3.316,2.264 0.806,0.379 1.738,0.379 2.544,0 1.006,-0.473 2.184,-1.303 3.315,-2.264 z"
                   id="path140" /><g
                   id="g142"><path
                     style="fill:#f2d3b1"
                     inkscape:connector-curvature="0"
                     d="m 353.78,354.148 -7.628,0 c -1.857,0 -3.267,1.672 -2.952,3.502 0.414,2.404 1.015,5.435 1.642,7.017 0.808,2.041 4.886,6.054 7.666,7.36 0.806,0.379 1.738,0.379 2.544,0 2.78,-1.306 6.858,-5.319 7.666,-7.36 0.627,-1.582 1.228,-4.614 1.642,-7.017 0.315,-1.83 -1.095,-3.502 -2.952,-3.502 l -7.628,0 z"
                     id="path144" /><path
                     style="fill:#552916"
                     inkscape:connector-curvature="0"
                     d="m 353.78,354.148 c 3.181,0 7.705,1.529 9.051,2.14 1.345,0.612 -0.245,6.972 0,6.941 0.245,-0.031 0.64,-1.121 1.04,-1.437 0.4,-0.316 0.534,-4.954 0.534,-4.954 l 0,-2.691 -10.625,0 z"
                     id="path146" /></g><g
                   id="g148"><path
                     style="fill:#552916"
                     inkscape:connector-curvature="0"
                     d="m 354.077,354.091 0.39,0 c -0.131,-0.001 -0.261,-0.002 -0.39,0 z"
                     id="path150" /><path
                     style="fill:#552916"
                     inkscape:connector-curvature="0"
                     d="m 362.402,356.87 -0.599,-1.235 -5.017,-1.543 -2.319,0 c 1.225,0.015 2.557,0.199 3.985,0.757 3.164,1.235 3.95,2.021 3.95,2.021 z"
                     id="path152" /></g><path
                   style="fill:#552916"
                   inkscape:connector-curvature="0"
                   d="m 364.404,354.148 c 0.319,-3.309 -0.606,-5.3 -1.723,-6.59 -0.299,-0.554 -0.638,-1.088 -0.989,-1.593 -0.067,-0.096 -0.197,-0.09 -0.268,-0.026 -0.047,-0.073 -0.093,-0.145 -0.14,-0.218 -0.17,-0.391 -0.353,-0.776 -0.571,-1.147 -0.045,-0.077 -0.126,-0.077 -0.185,-0.04 -0.011,-0.018 -0.022,-0.035 -0.033,-0.053 -0.065,-0.106 -0.194,-0.081 -0.251,-0.005 -0.044,-0.059 -0.085,-0.12 -0.131,-0.177 -0.13,-0.248 -0.271,-0.489 -0.43,-0.718 -0.058,-0.083 -0.148,-0.085 -0.215,-0.044 -0.081,-0.092 -0.164,-0.182 -0.247,-0.273 -0.228,-0.305 -0.466,-0.601 -0.731,-0.869 -0.081,-0.082 -0.213,-0.056 -0.28,0.02 -0.172,-0.215 -0.342,-0.43 -0.508,-0.646 -0.026,-0.034 -0.061,-0.047 -0.096,-0.049 -0.15,-0.214 -0.296,-0.431 -0.45,-0.641 -0.07,-0.095 -0.196,-0.066 -0.239,0.011 -0.155,-0.358 -0.34,-0.686 -0.557,-0.956 -0.034,-0.043 -0.084,-0.055 -0.135,-0.054 -0.017,-0.031 -0.037,-0.062 -0.054,-0.093 -0.075,-0.133 -0.272,-0.015 -0.203,0.118 0.017,0.034 0.034,0.069 0.052,0.103 -10e-4,0.002 -0.004,0.004 -0.004,0.006 -0.06,-0.11 -0.121,-0.221 -0.181,-0.33 -0.076,-0.138 -0.264,-0.017 -0.206,0.12 0.056,0.132 0.115,0.267 0.172,0.4 -0.099,-0.172 -0.2,-0.345 -0.29,-0.513 -0.026,-0.05 -0.068,-0.06 -0.108,-0.056 -0.068,-0.11 -0.137,-0.221 -0.202,-0.329 -0.09,-0.151 -0.312,-0.018 -0.234,0.137 0.068,0.136 0.136,0.275 0.203,0.416 -0.18,-0.221 -0.366,-0.437 -0.554,-0.649 -0.005,-0.041 -0.008,-0.082 -0.014,-0.122 -0.02,-0.147 -0.182,-0.179 -0.3,-0.126 -0.116,-0.165 -0.232,-0.33 -0.347,-0.496 -0.002,-0.002 -0.004,-0.003 -0.006,-0.005 -0.026,-0.066 -0.082,-0.102 -0.145,-0.104 -0.049,-0.069 -0.099,-0.138 -0.147,-0.207 -0.062,-0.09 -0.185,-0.04 -0.195,0.042 -0.038,0.011 -0.073,0.037 -0.096,0.088 -0.016,0.034 -0.028,0.07 -0.043,0.105 -0.03,0.024 -0.055,0.055 -0.069,0.094 -0.006,0.017 -0.009,0.035 -0.015,0.052 0.009,-0.055 0.024,-0.109 0.03,-0.165 0.011,-0.089 -0.03,-0.149 -0.091,-0.18 0.04,-0.086 0.082,-0.17 0.117,-0.258 0.029,-0.073 -0.08,-0.132 -0.13,-0.076 -0.072,0.082 -0.137,0.17 -0.204,0.257 -0.02,-0.03 -0.057,-0.046 -0.088,-0.011 -0.044,0.05 -0.083,0.104 -0.124,0.155 0.03,-0.068 -0.054,-0.144 -0.111,-0.083 -0.247,0.266 -0.46,0.568 -0.662,0.878 -0.002,0.001 -0.003,0.001 -0.005,0.002 -0.156,0.154 -0.3,0.32 -0.444,0.489 0.046,-0.095 0.095,-0.189 0.136,-0.285 0.052,-0.121 -0.095,-0.206 -0.175,-0.102 -0.324,0.425 -0.62,0.879 -0.905,1.342 -0.025,-0.043 -0.089,-0.06 -0.127,-0.005 -0.161,0.228 -0.31,0.464 -0.461,0.7 -0.068,-0.011 -0.139,0.004 -0.192,0.06 -0.25,0.262 -0.475,0.548 -0.685,0.848 -0.018,0.009 -0.035,0.021 -0.051,0.038 -0.112,0.119 -0.215,0.247 -0.324,0.369 0.046,-0.084 0.098,-0.164 0.143,-0.248 0.043,-0.08 -0.069,-0.177 -0.13,-0.101 -0.302,0.379 -0.587,0.771 -0.864,1.169 -0.144,0.167 -0.279,0.344 -0.418,0.516 -0.029,-0.007 -0.06,-0.006 -0.086,0.02 -0.103,0.104 -0.197,0.215 -0.295,0.323 -0.028,-0.128 -0.226,-0.2 -0.327,-0.093 -0.286,0.302 -0.538,0.636 -0.767,0.989 0.061,-0.208 0.117,-0.416 0.166,-0.622 0.033,-0.139 -0.156,-0.222 -0.231,-0.097 -0.282,0.471 -0.536,0.978 -0.771,1.501 -0.058,-0.142 -0.263,-0.204 -0.356,-0.036 -0.5,0.901 -0.881,1.923 -1.153,2.99 10e-4,-0.012 0.002,-0.024 0.003,-0.036 0.02,-0.253 -0.333,-0.26 -0.411,-0.056 -0.85,2.208 -0.874,5.062 -0.094,7.409 l 0,0.51 c 0,0 0.134,4.638 0.534,4.954 0.4,0.316 0.795,1.406 1.04,1.437 0.245,0.031 -1.345,-6.329 0,-6.941 0,0 0.674,-0.037 1.624,-0.098 1.203,0.238 2.413,0.434 3.636,0.466 0.203,0.005 0.227,-0.281 0.046,-0.34 -0.364,-0.12 -0.733,-0.22 -1.104,-0.313 0.296,-0.024 0.589,-0.05 0.873,-0.076 1.267,0.228 2.542,0.406 3.805,0.391 0.241,-0.003 0.279,-0.34 0.056,-0.411 -0.115,-0.037 -0.233,-0.069 -0.349,-0.103 0.509,0.089 1.017,0.149 1.523,0.161 0.228,0.005 0.347,-0.35 0.122,-0.451 -0.042,-0.019 -0.087,-0.033 -0.13,-0.051 0.775,0.156 1.553,0.283 2.336,0.347 0.145,0.012 0.187,-0.136 0.134,-0.24 1.242,0.816 2.512,1.664 3.845,2.252 0.28,0.295 0.564,0.588 0.871,0.862 0.088,0.078 0.214,0.074 0.302,0.019 0.181,0.352 0.353,0.713 0.508,1.088 0.057,0.138 0.244,0.087 0.223,-0.061 -0.037,-0.253 -0.092,-0.501 -0.16,-0.743 0.025,0.038 0.045,0.079 0.071,0.117 0.074,0.112 0.269,0.043 0.224,-0.095 -0.172,-0.528 -0.394,-1.041 -0.631,-1.547 0.044,0.019 0.093,0.021 0.135,-0.003 0.229,0.374 0.47,0.736 0.753,1.052 0.027,0.03 0.062,0.037 0.097,0.035 0.091,0.181 0.322,0.067 0.342,-0.094 0.148,-1.207 -0.788,-2.414 -1.67,-3.129 -0.144,-0.116 -0.318,-0.06 -0.407,0.052 -0.018,0.004 -0.036,0.009 -0.053,0.018 -0.123,-0.194 -0.248,-0.387 -0.372,-0.579 0.05,0.004 0.081,0.007 0.081,0.007 l 2.947,-0.677 z m -3.01,1.738 c -0.01,0.021 -0.015,0.043 -0.018,0.066 -0.377,-0.459 -0.822,-0.876 -1.322,-1.239 0.259,0.018 0.486,0.034 0.681,0.049 0.217,0.373 0.434,0.751 0.659,1.124 z"
                   id="path154" /><g
                   id="g156"><path
                     style="fill:#f2d3b1"
                     inkscape:connector-curvature="0"
                     d="m 343.402,358.913 c 0,0 -0.732,-1.961 -0.732,0.173 0,2.134 1.629,3.851 1.629,3.851 l -0.897,-4.024 z"
                     id="path158" /><path
                     style="fill:#f2d3b1"
                     inkscape:connector-curvature="0"
                     d="m 364.158,358.913 c 0,0 0.732,-1.961 0.732,0.173 0,2.134 -1.629,3.851 -1.629,3.851 l 0.897,-4.024 z"
                     id="path160" /></g></g><g
                 id="g162"><path
                   style="fill:#d7d6d6"
                   inkscape:connector-curvature="0"
                   d="m 376.244,397.741 -44.928,0 c -0.401,0 -0.73,-0.328 -0.73,-0.73 l 0,-1.777 c 0,-0.401 0.328,-0.73 0.73,-0.73 l 44.928,0 c 0.401,0 0.73,0.328 0.73,0.73 l 0,1.777 c -10e-4,0.402 -0.329,0.73 -0.73,0.73 z"
                   id="path164" /><path
                   style="fill:#d7d6d6"
                   inkscape:connector-curvature="0"
                   d="m 376.244,403.75 -44.928,0 c -0.401,0 -0.73,-0.328 -0.73,-0.73 l 0,-1.777 c 0,-0.401 0.328,-0.73 0.73,-0.73 l 44.928,0 c 0.401,0 0.73,0.328 0.73,0.73 l 0,1.777 c -10e-4,0.402 -0.329,0.73 -0.73,0.73 z"
                   id="path166" /><path
                   style="fill:#d7d6d6"
                   inkscape:connector-curvature="0"
                   d="m 376.244,409.759 -44.928,0 c -0.401,0 -0.73,-0.328 -0.73,-0.73 l 0,-1.777 c 0,-0.401 0.328,-0.73 0.73,-0.73 l 44.928,0 c 0.401,0 0.73,0.328 0.73,0.73 l 0,1.777 c -10e-4,0.402 -0.329,0.73 -0.73,0.73 z"
                   id="path168" /></g></g><g
               id="g170"><g
                 id="g172"><path
                   style="fill:#efcbad"
                   inkscape:connector-curvature="0"
                   d="m 358.33,449.159 -4.55,2.727 -4.55,-2.727 c 0.262,2.389 -2.033,7.338 -2.033,7.338 l 6.583,2.676 6.583,-2.676 c 0,-0.001 -2.295,-4.949 -2.033,-7.338 z"
                   id="path174" /><path
                   style="fill:#dc8227"
                   inkscape:connector-curvature="0"
                   d="m 376.973,470.603 c -0.144,-3.307 -0.659,-9.43 -2.503,-10.887 -1.348,-1.065 -4.31,-1.631 -6.813,-1.928 l 0,0 -0.003,0 c -2.247,-0.267 -4.122,-0.318 -4.122,-0.318 l -1.221,-0.629 -1.639,-0.747 -6.893,2.125 0,0 0,0 -6.893,-2.125 -1.639,0.747 -1.222,0.629 c 0,0 -1.875,0.051 -4.122,0.318 l -0.003,0 0,0 c -2.502,0.297 -5.465,0.863 -6.813,1.928 -1.844,1.457 -2.359,7.579 -2.502,10.887 l 46.388,0 z"
                   id="path176" /><g
                   id="g178"><path
                     style="fill:#f2d3b1"
                     inkscape:connector-curvature="0"
                     d="m 353.78,434.307 -7.628,0 c -1.857,0 -3.267,1.672 -2.952,3.502 0.414,2.404 1.015,5.435 1.642,7.017 0.808,2.041 4.886,6.054 7.666,7.36 0.806,0.379 1.738,0.379 2.544,0 2.78,-1.306 6.858,-5.319 7.666,-7.36 0.627,-1.582 1.228,-4.613 1.642,-7.017 0.315,-1.83 -1.095,-3.502 -2.952,-3.502 l -7.628,0 z"
                     id="path180" /><path
                     style="fill:#552916"
                     inkscape:connector-curvature="0"
                     d="m 353.78,434.307 c 3.181,0 7.705,1.529 9.051,2.14 1.345,0.612 -0.245,6.972 0,6.941 0.245,-0.031 0.64,-1.121 1.04,-1.437 0.4,-0.316 0.534,-4.954 0.534,-4.954 l 0,-2.691 -10.625,0 z"
                     id="path182" /></g><path
                   style="fill:#ddb699"
                   inkscape:connector-curvature="0"
                   d="m 358.368,450.37 c -0.058,-0.444 -0.076,-0.856 -0.037,-1.212 l -4.55,2.727 -4.55,-2.727 c 0.039,0.355 0.021,0.768 -0.037,1.212 1.131,0.962 2.308,1.791 3.316,2.264 0.806,0.379 1.738,0.379 2.544,0 1.005,-0.473 2.183,-1.302 3.314,-2.264 z"
                   id="path184" /><g
                   id="g186"><path
                     style="fill:#f2d3b1"
                     inkscape:connector-curvature="0"
                     d="m 353.78,434.307 -7.628,0 c -1.857,0 -3.267,1.672 -2.952,3.502 0.414,2.404 1.015,5.435 1.642,7.017 0.808,2.041 4.886,6.054 7.666,7.36 0.806,0.379 1.738,0.379 2.544,0 2.78,-1.306 6.858,-5.319 7.666,-7.36 0.627,-1.582 1.228,-4.613 1.642,-7.017 0.315,-1.83 -1.095,-3.502 -2.952,-3.502 l -7.628,0 z"
                     id="path188" /><path
                     style="fill:#b06828"
                     inkscape:connector-curvature="0"
                     d="m 353.78,434.307 c 3.181,0 7.705,1.529 9.051,2.14 1.345,0.612 -0.245,6.972 0,6.941 0.245,-0.031 0.64,-1.121 1.04,-1.437 0.4,-0.316 0.534,-4.954 0.534,-4.954 l 0,-2.691 -10.625,0 z"
                     id="path190" /></g><g
                   id="g192"><path
                     style="fill:#b06828"
                     inkscape:connector-curvature="0"
                     d="m 354.077,434.25 0.39,0 c -0.131,-0.002 -0.261,-0.002 -0.39,0 z"
                     id="path194" /><path
                     style="fill:#b06828"
                     inkscape:connector-curvature="0"
                     d="m 362.402,437.029 -0.599,-1.235 -5.017,-1.543 -2.319,0 c 1.225,0.015 2.557,0.199 3.985,0.756 3.164,1.235 3.95,2.022 3.95,2.022 z"
                     id="path196" /></g><path
                   style="fill:#b06828"
                   inkscape:connector-curvature="0"
                   d="m 364.404,434.307 c 0.319,-3.309 -0.606,-5.3 -1.723,-6.59 -0.299,-0.554 -0.638,-1.088 -0.989,-1.593 -0.067,-0.096 -0.197,-0.09 -0.268,-0.026 -0.047,-0.073 -0.093,-0.145 -0.14,-0.218 -0.17,-0.391 -0.353,-0.776 -0.571,-1.147 -0.045,-0.077 -0.126,-0.077 -0.185,-0.04 -0.011,-0.018 -0.022,-0.035 -0.033,-0.053 -0.065,-0.106 -0.194,-0.081 -0.251,-0.005 -0.044,-0.059 -0.085,-0.12 -0.131,-0.177 -0.13,-0.248 -0.271,-0.489 -0.43,-0.718 -0.058,-0.083 -0.148,-0.085 -0.215,-0.045 -0.081,-0.092 -0.164,-0.182 -0.247,-0.273 -0.228,-0.305 -0.466,-0.601 -0.731,-0.869 -0.081,-0.082 -0.213,-0.056 -0.28,0.02 -0.172,-0.215 -0.342,-0.43 -0.508,-0.646 -0.026,-0.034 -0.061,-0.047 -0.096,-0.049 -0.15,-0.214 -0.296,-0.431 -0.45,-0.641 -0.07,-0.095 -0.196,-0.066 -0.239,0.011 -0.155,-0.358 -0.34,-0.686 -0.557,-0.956 -0.034,-0.043 -0.084,-0.055 -0.135,-0.054 -0.017,-0.031 -0.037,-0.062 -0.054,-0.093 -0.075,-0.132 -0.272,-0.015 -0.203,0.118 0.017,0.034 0.034,0.069 0.052,0.103 -10e-4,0.002 -0.004,0.004 -0.004,0.007 -0.06,-0.11 -0.121,-0.221 -0.181,-0.33 -0.076,-0.138 -0.264,-0.017 -0.206,0.12 0.056,0.132 0.115,0.267 0.172,0.4 -0.099,-0.172 -0.2,-0.345 -0.29,-0.513 -0.026,-0.05 -0.068,-0.06 -0.108,-0.056 -0.068,-0.11 -0.137,-0.221 -0.202,-0.329 -0.09,-0.151 -0.312,-0.018 -0.234,0.137 0.068,0.136 0.136,0.275 0.203,0.416 -0.18,-0.221 -0.366,-0.437 -0.554,-0.649 -0.005,-0.04 -0.008,-0.082 -0.014,-0.122 -0.02,-0.147 -0.182,-0.179 -0.3,-0.126 -0.116,-0.165 -0.232,-0.33 -0.347,-0.496 -0.002,-0.002 -0.004,-0.003 -0.006,-0.005 -0.026,-0.066 -0.082,-0.102 -0.145,-0.104 -0.049,-0.069 -0.099,-0.138 -0.147,-0.207 -0.062,-0.09 -0.185,-0.04 -0.195,0.042 -0.038,0.011 -0.073,0.037 -0.096,0.088 -0.016,0.034 -0.028,0.07 -0.043,0.105 -0.03,0.024 -0.055,0.055 -0.069,0.094 -0.006,0.017 -0.009,0.035 -0.015,0.052 0.009,-0.055 0.024,-0.109 0.03,-0.165 0.011,-0.089 -0.03,-0.149 -0.091,-0.18 0.04,-0.086 0.082,-0.17 0.117,-0.258 0.029,-0.073 -0.08,-0.132 -0.13,-0.076 -0.072,0.082 -0.137,0.17 -0.204,0.257 -0.02,-0.03 -0.057,-0.046 -0.088,-0.011 -0.044,0.05 -0.083,0.104 -0.124,0.155 0.03,-0.068 -0.054,-0.145 -0.111,-0.083 -0.247,0.266 -0.46,0.568 -0.662,0.878 -0.002,0.001 -0.003,0.001 -0.005,0.002 -0.156,0.154 -0.3,0.32 -0.444,0.489 0.046,-0.095 0.095,-0.189 0.136,-0.285 0.052,-0.12 -0.095,-0.206 -0.175,-0.102 -0.324,0.425 -0.62,0.879 -0.905,1.342 -0.025,-0.043 -0.089,-0.06 -0.127,-0.005 -0.161,0.228 -0.31,0.464 -0.461,0.7 -0.068,-0.01 -0.139,0.004 -0.192,0.06 -0.25,0.262 -0.475,0.548 -0.685,0.848 -0.018,0.009 -0.035,0.021 -0.051,0.038 -0.112,0.119 -0.215,0.247 -0.324,0.369 0.046,-0.084 0.098,-0.164 0.143,-0.248 0.043,-0.08 -0.069,-0.177 -0.13,-0.101 -0.302,0.379 -0.587,0.771 -0.864,1.169 -0.144,0.167 -0.279,0.344 -0.418,0.516 -0.029,-0.007 -0.06,-0.006 -0.086,0.02 -0.103,0.104 -0.197,0.215 -0.295,0.323 -0.028,-0.128 -0.226,-0.2 -0.327,-0.093 -0.286,0.302 -0.538,0.636 -0.767,0.989 0.061,-0.208 0.117,-0.416 0.166,-0.622 0.033,-0.139 -0.156,-0.222 -0.231,-0.097 -0.282,0.471 -0.536,0.978 -0.771,1.501 -0.058,-0.142 -0.263,-0.204 -0.356,-0.037 -0.5,0.901 -0.881,1.923 -1.153,2.99 10e-4,-0.012 0.002,-0.024 0.003,-0.036 0.02,-0.253 -0.333,-0.26 -0.411,-0.056 -0.85,2.208 -0.874,5.062 -0.094,7.409 l 0,0.51 c 0,0 0.134,4.638 0.534,4.954 0.4,0.316 0.795,1.406 1.04,1.437 0.245,0.031 -1.345,-6.329 0,-6.941 0,0 0.674,-0.037 1.624,-0.098 1.203,0.238 2.413,0.434 3.636,0.466 0.203,0.005 0.227,-0.281 0.046,-0.34 -0.364,-0.12 -0.733,-0.22 -1.104,-0.313 0.296,-0.024 0.589,-0.05 0.873,-0.076 1.267,0.228 2.542,0.406 3.805,0.391 0.241,-0.003 0.279,-0.34 0.056,-0.411 -0.115,-0.037 -0.233,-0.069 -0.349,-0.103 0.509,0.089 1.017,0.149 1.523,0.161 0.228,0.005 0.347,-0.35 0.122,-0.451 -0.042,-0.019 -0.087,-0.033 -0.13,-0.051 0.775,0.156 1.553,0.283 2.336,0.347 0.145,0.012 0.187,-0.136 0.134,-0.24 1.242,0.816 2.512,1.664 3.845,2.252 0.28,0.295 0.564,0.588 0.871,0.862 0.088,0.078 0.214,0.074 0.302,0.019 0.181,0.352 0.353,0.713 0.508,1.088 0.057,0.138 0.244,0.087 0.223,-0.061 -0.037,-0.253 -0.092,-0.501 -0.16,-0.743 0.025,0.038 0.045,0.079 0.071,0.117 0.074,0.112 0.269,0.043 0.224,-0.095 -0.172,-0.528 -0.394,-1.041 -0.631,-1.547 0.044,0.019 0.093,0.021 0.135,-0.003 0.229,0.374 0.47,0.736 0.753,1.052 0.027,0.03 0.062,0.037 0.097,0.035 0.091,0.181 0.322,0.067 0.342,-0.094 0.148,-1.207 -0.788,-2.414 -1.67,-3.129 -0.144,-0.116 -0.318,-0.059 -0.407,0.052 -0.018,0.004 -0.036,0.009 -0.053,0.018 -0.123,-0.194 -0.248,-0.387 -0.372,-0.579 0.05,0.004 0.081,0.007 0.081,0.007 l 2.947,-0.676 z m -3.01,1.738 c -0.01,0.021 -0.015,0.043 -0.018,0.066 -0.377,-0.459 -0.822,-0.876 -1.322,-1.239 0.259,0.018 0.486,0.034 0.681,0.049 0.217,0.373 0.434,0.751 0.659,1.124 z"
                   id="path198" /><g
                   id="g200"><path
                     style="fill:#f2d3b1"
                     inkscape:connector-curvature="0"
                     d="m 343.402,439.071 c 0,0 -0.732,-1.961 -0.732,0.173 0,2.134 1.629,3.851 1.629,3.851 l -0.897,-4.024 z"
                     id="path202" /><path
                     style="fill:#f2d3b1"
                     inkscape:connector-curvature="0"
                     d="m 364.158,439.071 c 0,0 0.732,-1.961 0.732,0.173 0,2.134 -1.629,3.851 -1.629,3.851 l 0.897,-4.024 z"
                     id="path204" /></g></g><g
                 id="g206"><path
                   style="fill:#d7d6d6"
                   inkscape:connector-curvature="0"
                   d="m 376.244,478.343 -44.928,0 c -0.401,0 -0.73,-0.328 -0.73,-0.729 l 0,-1.777 c 0,-0.401 0.328,-0.73 0.73,-0.73 l 44.928,0 c 0.401,0 0.73,0.328 0.73,0.73 l 0,1.777 c -10e-4,0.401 -0.329,0.729 -0.73,0.729 z"
                   id="path208" /><path
                   style="fill:#d7d6d6"
                   inkscape:connector-curvature="0"
                   d="m 376.244,484.352 -44.928,0 c -0.401,0 -0.73,-0.328 -0.73,-0.729 l 0,-1.777 c 0,-0.401 0.328,-0.73 0.73,-0.73 l 44.928,0 c 0.401,0 0.73,0.328 0.73,0.73 l 0,1.777 c -10e-4,0.401 -0.329,0.729 -0.73,0.729 z"
                   id="path210" /><path
                   style="fill:#d7d6d6"
                   inkscape:connector-curvature="0"
                   d="m 376.244,490.361 -44.928,0 c -0.401,0 -0.73,-0.328 -0.73,-0.729 l 0,-1.777 c 0,-0.401 0.328,-0.73 0.73,-0.73 l 44.928,0 c 0.401,0 0.73,0.328 0.73,0.73 l 0,1.777 c -10e-4,0.401 -0.329,0.729 -0.73,0.729 z"
                   id="path212" /></g></g><g
               id="g214"><g
                 id="g216"><path
                   style="fill:#efcbad"
                   inkscape:connector-curvature="0"
                   d="m 292.977,449.159 -4.55,2.727 -4.55,-2.727 c 0.262,2.389 -2.033,7.338 -2.033,7.338 l 6.583,2.676 6.583,-2.676 c 0,-0.001 -2.295,-4.949 -2.033,-7.338 z"
                   id="path218" /><path
                   style="fill:#8ccfaf"
                   inkscape:connector-curvature="0"
                   d="m 311.62,470.603 c -0.144,-3.307 -0.659,-9.43 -2.503,-10.887 -1.348,-1.065 -4.31,-1.631 -6.813,-1.928 l 0,0 -0.003,0 c -2.247,-0.267 -4.122,-0.318 -4.122,-0.318 l -1.222,-0.629 -1.639,-0.747 -6.893,2.125 0,0 0,0 -6.893,-2.125 -1.639,0.747 -1.222,0.629 c 0,0 -1.875,0.051 -4.122,0.318 l -0.003,0 0,0 c -2.502,0.297 -5.465,0.863 -6.813,1.928 -1.844,1.457 -2.359,7.579 -2.502,10.887 l 46.389,0 z"
                   id="path220" /><g
                   id="g222"><path
                     style="fill:#f2d3b1"
                     inkscape:connector-curvature="0"
                     d="m 288.427,434.307 -7.628,0 c -1.857,0 -3.267,1.672 -2.952,3.502 0.414,2.404 1.015,5.435 1.642,7.017 0.808,2.041 4.886,6.054 7.666,7.36 0.806,0.379 1.738,0.379 2.544,0 2.78,-1.306 6.858,-5.319 7.666,-7.36 0.627,-1.582 1.228,-4.613 1.642,-7.017 0.315,-1.83 -1.095,-3.502 -2.952,-3.502 l -7.628,0 z"
                     id="path224" /><path
                     style="fill:#552916"
                     inkscape:connector-curvature="0"
                     d="m 288.427,434.307 c 3.181,0 7.705,1.529 9.051,2.14 1.345,0.612 -0.245,6.972 0,6.941 0.245,-0.031 0.64,-1.121 1.04,-1.437 0.4,-0.316 0.534,-4.954 0.534,-4.954 l 0,-2.691 -10.625,0 z"
                     id="path226" /></g><path
                   style="fill:#ddb699"
                   inkscape:connector-curvature="0"
                   d="m 293.014,450.37 c -0.058,-0.444 -0.076,-0.856 -0.037,-1.212 l -4.55,2.727 -4.55,-2.727 c 0.039,0.355 0.021,0.768 -0.037,1.212 1.131,0.962 2.308,1.791 3.316,2.264 0.806,0.379 1.738,0.379 2.544,0 1.006,-0.473 2.183,-1.302 3.314,-2.264 z"
                   id="path228" /><g
                   id="g230"><path
                     style="fill:#f2d3b1"
                     inkscape:connector-curvature="0"
                     d="m 288.427,434.307 -7.628,0 c -1.857,0 -3.267,1.672 -2.952,3.502 0.414,2.404 1.015,5.435 1.642,7.017 0.808,2.041 4.886,6.054 7.666,7.36 0.806,0.379 1.738,0.379 2.544,0 2.78,-1.306 6.858,-5.319 7.666,-7.36 0.627,-1.582 1.228,-4.613 1.642,-7.017 0.315,-1.83 -1.095,-3.502 -2.952,-3.502 l -7.628,0 z"
                     id="path232" /><path
                     style="fill:#b06828"
                     inkscape:connector-curvature="0"
                     d="m 299.72,434.574 c -0.152,0.01 -0.31,0.128 -0.297,0.297 0.017,0.232 0.124,0.344 0.09,0.579 -0.027,0.191 -0.221,0.293 -0.396,0.283 -0.025,-10e-4 -0.044,0.006 -0.066,0.008 l 0,-1.434 -10.624,0 c 3.181,0 7.705,1.529 9.051,2.14 1.345,0.612 -0.245,6.972 0,6.941 0.245,-0.031 0.64,-1.121 1.04,-1.437 0.4,-0.316 0.534,-4.954 0.534,-4.954 l 0,-0.533 c 0.544,0.182 1.144,-0.098 1.348,-0.634 0.182,-0.48 -0.056,-1.297 -0.68,-1.256 z"
                     id="path234" /></g><g
                   id="g236"><path
                     style="fill:#552916"
                     inkscape:connector-curvature="0"
                     d="m 288.724,434.25 0.39,0 c -0.131,-0.002 -0.262,-0.002 -0.39,0 z"
                     id="path238" /><path
                     style="fill:#b06828"
                     inkscape:connector-curvature="0"
                     d="m 297.049,437.029 -0.599,-1.235 -5.017,-1.543 -2.319,0 c 1.225,0.015 2.557,0.199 3.985,0.756 3.163,1.235 3.95,2.022 3.95,2.022 z"
                     id="path240" /></g><path
                   style="fill:#b06828"
                   inkscape:connector-curvature="0"
                   d="m 300.213,434.317 c 0.023,-0.105 0.035,-0.211 0.041,-0.317 0.076,-0.135 0.099,-0.301 0.028,-0.491 -0.023,-0.144 -0.048,-0.289 -0.072,-0.434 0.166,-0.45 0.215,-0.97 0.071,-1.438 -0.083,-0.268 -0.242,-0.518 -0.441,-0.734 0.119,-0.27 0.184,-0.551 0.163,-0.799 -0.065,-0.747 -0.485,-1.342 -1.025,-1.644 0.017,-0.172 -0.003,-0.357 -0.08,-0.553 -0.225,-0.568 -0.59,-0.954 -1.031,-1.174 -0.248,-0.561 -0.599,-1.088 -0.974,-1.518 -0.015,-1.252 -1.471,-2.092 -2.722,-1.924 -0.311,-0.193 -0.648,-0.314 -0.991,-0.354 -0.072,-0.094 -0.19,-0.151 -0.329,-0.111 -0.13,0.037 -0.264,0.088 -0.397,0.145 -0.027,0.006 -0.053,0.015 -0.079,0.024 -0.281,-0.321 -0.468,-0.537 -0.468,-0.537 0,0 0.174,0.263 0.282,0.579 -0.009,0.002 -0.018,0.003 -0.026,0.004 -0.039,-0.005 -0.076,-0.012 -0.116,-0.014 -0.278,-0.35 -0.664,-0.651 -1.172,-0.84 -0.543,-0.202 -1.041,-0.166 -1.471,0.022 -0.351,-0.138 -0.678,-0.187 -0.977,-0.172 l 0,-0.24 c -0.401,0.026 -0.778,0.171 -1.116,0.354 -0.163,-0.009 -0.326,-0.005 -0.484,0.015 -0.017,0.002 -0.03,0.008 -0.047,0.011 -0.292,0.007 -0.582,0.042 -0.852,0.095 -0.048,0.009 -0.088,0.028 -0.133,0.04 0.034,-0.275 0.082,-0.515 0.082,-0.515 -0.026,0.178 -0.076,0.355 -0.138,0.532 -0.51,0.146 -0.889,0.437 -1.138,0.806 -0.917,-0.063 -1.762,0.121 -2.48,0.507 -0.33,-0.003 -0.652,0.049 -0.908,0.147 -0.715,0.274 -1.148,0.926 -1.282,1.643 -0.731,0.147 -1.383,0.606 -1.793,1.21 -0.239,0.308 -0.395,0.671 -0.46,1.05 -0.026,0.045 -0.046,0.092 -0.068,0.138 -0.114,-0.06 -0.258,-0.051 -0.341,0.1 -0.36,0.652 -0.39,1.497 -0.015,2.147 0.052,0.156 0.13,0.304 0.224,0.443 -0.024,0.024 -0.05,0.047 -0.071,0.073 -0.056,-0.003 -0.114,0.002 -0.174,0.031 -0.365,0.172 -0.578,0.542 -0.583,0.94 -0.003,0.248 0.128,0.522 0.329,0.687 -0.227,0.274 -0.359,0.608 -0.361,0.992 -10e-4,0.172 0.052,0.379 0.143,0.568 -0.245,0.455 -0.256,1.028 0.065,1.592 0,0.002 -0.001,0.003 -0.002,0.005 -0.128,0.556 -0.022,1.053 0.4,1.452 0.028,0.027 0.065,0.043 0.096,0.066 -0.011,0.012 -0.024,0.019 -0.034,0.035 -0.154,0.236 -0.133,0.521 0.006,0.759 0.089,0.152 0.335,0.34 0.514,0.249 0.014,0.055 0.024,0.11 0.044,0.163 0.067,1.393 0.216,3.602 0.488,3.816 0.4,0.316 0.795,1.406 1.04,1.437 0.072,0.009 -0.014,-0.529 -0.137,-1.31 0.01,-0.012 0.025,-0.021 0.028,-0.036 0.034,-0.186 -0.026,-0.319 -0.106,-0.466 -0.076,-0.496 -0.157,-1.05 -0.219,-1.608 0.185,-0.197 0.153,-0.736 0.122,-1.041 0.233,-0.033 0.517,-0.201 0.579,-0.426 0.067,-0.245 -0.131,-0.344 -0.261,-0.508 -0.183,-0.23 -0.229,-0.369 -0.124,-0.658 0.056,-0.155 0.171,-0.287 0.259,-0.424 0.002,-0.003 0.003,-0.006 0.005,-0.009 0.166,0.273 0.422,0.514 0.738,0.477 0.117,-0.014 0.183,-0.097 0.164,-0.215 -0.046,-0.279 -0.265,-0.501 -0.379,-0.756 0.151,-0.009 0.316,-0.019 0.508,-0.031 0.023,0.103 0.06,0.209 0.105,0.315 0.211,0.489 0.847,0.581 1.296,0.502 0.42,-0.073 0.72,-0.43 0.814,-0.824 0.235,-0.018 0.463,-0.085 0.651,-0.196 0.049,-0.004 0.097,-0.008 0.145,-0.012 0.166,0.026 0.335,0.016 0.497,-0.042 0.785,-0.069 1.508,-0.145 2.061,-0.223 0.458,0.386 1.057,0.581 1.635,0.34 0.119,-0.05 0.155,-0.244 0,-0.279 -0.057,-0.013 -0.113,-0.029 -0.17,-0.043 0.097,-0.096 0.173,-0.212 0.213,-0.341 0.228,0.097 0.487,0.125 0.764,0.051 0.19,-0.051 0.362,-0.154 0.494,-0.288 0.094,-0.024 0.186,-0.056 0.275,-0.095 0.493,0.223 0.976,0.477 1.482,0.667 0.101,0.038 0.228,0.01 0.322,-0.051 0.038,0.009 0.073,0.024 0.113,0.031 0.41,0.069 1.014,-0.087 1.386,-0.405 0.157,0.026 0.312,0.028 0.463,0.006 0.024,0.422 0.243,0.803 0.582,1.05 0.356,0.26 0.787,0.323 1.212,0.235 0.128,-0.027 0.232,-0.074 0.323,-0.132 0.007,0.005 0.014,0.01 0.021,0.014 0.357,0.212 0.872,0.212 1.226,-0.011 0.151,0.057 0.328,0.076 0.504,0.063 0.014,0.019 0.026,0.038 0.041,0.056 0.006,0.008 0.015,0.015 0.021,0.023 -0.004,0.017 -0.012,0.03 -0.013,0.049 -0.027,0.42 0.13,0.796 0.396,1.114 0.023,0.028 0.05,0.056 0.078,0.084 -0.051,0.197 -0.057,0.423 -0.014,0.627 -0.149,0.255 -0.218,0.557 -0.154,0.849 0.026,0.118 0.076,0.238 0.142,0.349 -0.109,0.143 -0.184,0.311 -0.21,0.497 -0.019,0.134 -0.007,0.308 0.034,0.476 -0.121,0.493 0.006,1.173 0.55,1.283 0.276,0.056 0.479,-0.207 0.353,-0.46 -0.048,-0.098 -0.12,-0.189 -0.177,-0.284 0.105,-0.035 0.202,-0.104 0.219,-0.223 0.035,-0.25 -0.077,-0.438 -0.124,-0.676 -0.007,-0.038 -0.009,-0.087 -0.007,-0.138 0.053,0.007 0.108,0.009 0.164,0.003 0.296,-0.032 0.433,-0.336 0.236,-0.569 -0.147,-0.174 -0.34,-0.345 -0.403,-0.538 0.04,-0.001 0.076,0.005 0.12,-0.003 0.137,-0.025 0.23,-0.199 0.186,-0.328 -0.027,-0.078 -0.069,-0.151 -0.114,-0.222 0.052,-0.124 0.018,-0.247 -0.063,-0.331 0.061,-0.012 0.12,-0.035 0.174,-0.078 0.29,0.204 0.678,0.258 1.01,0.115 0.259,-0.112 0.49,-0.361 0.537,-0.632 0.159,-0.037 0.309,-0.111 0.435,-0.226 0.267,-0.245 0.388,-0.812 0.089,-1.07 0.533,-0.596 0.136,-1.538 -0.262,-2.136 z m -5.827,0.826 c -0.003,0.142 0.013,0.28 0.043,0.413 -0.018,-0.003 -0.035,0 -0.053,-0.004 -0.232,-0.058 -0.411,-0.486 -0.417,-0.727 0.216,0.013 0.414,0.026 0.604,0.039 -0.098,0.056 -0.174,0.15 -0.177,0.279 z m 1.168,0.078 c -0.003,0.129 0.013,0.255 0.041,0.378 -0.091,-0.108 -0.232,-0.171 -0.373,-0.113 0.034,0.007 0.068,0.014 0.102,0.021 -0.034,-0.009 -0.067,-0.012 -0.101,-0.014 -0.084,-0.129 -0.143,-0.278 -0.168,-0.441 -0.011,-0.071 -0.043,-0.121 -0.083,-0.16 0.349,0.025 0.631,0.047 0.827,0.063 -0.125,0.014 -0.241,0.1 -0.245,0.266 z m 1.829,0.698 c -0.181,-0.249 -0.291,-0.558 -0.285,-0.85 0.008,-0.338 -0.468,-0.314 -0.509,0 -0.038,0.285 -0.035,0.564 0.017,0.83 -0.291,-0.107 -0.477,-0.344 -0.488,-0.678 -0.005,-0.137 -0.085,-0.222 -0.183,-0.256 0.112,0.009 0.172,0.015 0.172,0.015 l 1.986,-0.454 c 0.034,0.098 0.075,0.193 0.132,0.277 0.06,0.329 0.122,0.655 0.187,0.978 -0.007,0.249 -0.01,0.499 -0.008,0.748 0.003,0 0.006,-10e-4 0.009,-10e-4 0,0.006 0.002,0.01 0.002,0.016 -0.223,-0.091 -0.458,-0.159 -0.671,-0.285 0.023,-0.05 0.044,-0.103 0.054,-0.162 0.017,-0.099 -0.042,-0.198 -0.151,-0.199 -0.089,0 -0.177,0.009 -0.264,0.021 z m 0.957,1.601 c -0.104,0.045 -0.188,0.15 -0.214,0.27 -0.023,-0.012 -0.046,-0.025 -0.069,-0.037 -0.035,-0.037 -0.08,-0.065 -0.132,-0.081 -0.027,-0.018 -0.056,-0.034 -0.079,-0.054 -0.111,-0.1 -0.194,-0.221 -0.248,-0.355 0.235,0.135 0.495,0.22 0.744,0.204 0.001,0.017 -0.003,0.035 -0.002,0.053 z"
                   id="path242" /><g
                   id="g244"><path
                     style="fill:#f2d3b1"
                     inkscape:connector-curvature="0"
                     d="m 278.048,439.071 c 0,0 -0.732,-1.961 -0.732,0.173 0,2.134 1.629,3.851 1.629,3.851 l -0.897,-4.024 z"
                     id="path246" /><path
                     style="fill:#f2d3b1"
                     inkscape:connector-curvature="0"
                     d="m 298.805,439.071 c 0,0 0.732,-1.961 0.732,0.173 0,2.134 -1.629,3.851 -1.629,3.851 l 0.897,-4.024 z"
                     id="path248" /></g></g><g
                 id="g250"><path
                   style="fill:#d7d6d6"
                   inkscape:connector-curvature="0"
                   d="m 310.89,478.343 -44.928,0 c -0.401,0 -0.729,-0.328 -0.729,-0.729 l 0,-1.777 c 0,-0.401 0.328,-0.73 0.729,-0.73 l 44.928,0 c 0.401,0 0.729,0.328 0.729,0.73 l 0,1.777 c 10e-4,0.401 -0.327,0.729 -0.729,0.729 z"
                   id="path252" /><path
                   style="fill:#d7d6d6"
                   inkscape:connector-curvature="0"
                   d="m 310.89,484.352 -44.928,0 c -0.401,0 -0.729,-0.328 -0.729,-0.729 l 0,-1.777 c 0,-0.401 0.328,-0.73 0.729,-0.73 l 44.928,0 c 0.401,0 0.729,0.328 0.729,0.73 l 0,1.777 c 10e-4,0.401 -0.327,0.729 -0.729,0.729 z"
                   id="path254" /><path
                   style="fill:#d7d6d6"
                   inkscape:connector-curvature="0"
                   d="m 310.89,490.361 -44.928,0 c -0.401,0 -0.729,-0.328 -0.729,-0.729 l 0,-1.777 c 0,-0.401 0.328,-0.73 0.729,-0.73 l 44.928,0 c 0.401,0 0.729,0.328 0.729,0.73 l 0,1.777 c 10e-4,0.401 -0.327,0.729 -0.729,0.729 z"
                   id="path256" /></g></g><g
               id="g258"><g
                 id="g260"><path
                   style="fill:#efcbad"
                   inkscape:connector-curvature="0"
                   d="m 227.624,449.159 -4.55,2.727 -4.55,-2.727 c 0.262,2.389 -2.033,7.338 -2.033,7.338 l 6.583,2.676 6.583,-2.676 c 0,-0.001 -2.295,-4.949 -2.033,-7.338 z"
                   id="path262" /><path
                   style="fill:#f1ea43"
                   inkscape:connector-curvature="0"
                   d="m 246.266,470.603 c -0.144,-3.307 -0.659,-9.43 -2.503,-10.887 -1.348,-1.065 -4.31,-1.631 -6.813,-1.928 l 0,0 -0.003,0 c -2.247,-0.267 -4.122,-0.318 -4.122,-0.318 l -1.221,-0.629 -1.639,-0.747 -6.893,2.125 0,0 0,0 -6.893,-2.125 -1.639,0.747 -1.222,0.629 c 0,0 -1.875,0.051 -4.122,0.318 l -0.003,0 0,0 c -2.502,0.297 -5.465,0.863 -6.813,1.928 -1.844,1.457 -2.359,7.579 -2.502,10.887 l 46.388,0 z"
                   id="path264" /><g
                   id="g266"><path
                     style="fill:#f2d3b1"
                     inkscape:connector-curvature="0"
                     d="m 223.073,434.307 -7.628,0 c -1.857,0 -3.267,1.672 -2.952,3.502 0.414,2.404 1.015,5.435 1.642,7.017 0.808,2.041 4.886,6.054 7.666,7.36 0.806,0.379 1.738,0.379 2.544,0 2.78,-1.306 6.858,-5.319 7.666,-7.36 0.627,-1.582 1.228,-4.613 1.642,-7.017 0.315,-1.83 -1.095,-3.502 -2.952,-3.502 l -7.628,0 z"
                     id="path268" /><path
                     style="fill:#552916"
                     inkscape:connector-curvature="0"
                     d="m 223.073,434.307 c 3.181,0 7.705,1.529 9.051,2.14 1.345,0.612 -0.245,6.972 0,6.941 0.245,-0.031 0.64,-1.121 1.04,-1.437 0.4,-0.316 0.534,-4.954 0.534,-4.954 l 0,-2.691 -10.625,0 z"
                     id="path270" /></g><path
                   style="fill:#ddb699"
                   inkscape:connector-curvature="0"
                   d="m 227.661,450.37 c -0.058,-0.444 -0.076,-0.856 -0.037,-1.212 l -4.55,2.727 -4.55,-2.727 c 0.039,0.355 0.021,0.768 -0.037,1.212 1.131,0.962 2.308,1.791 3.316,2.264 0.806,0.379 1.738,0.379 2.544,0 1.005,-0.473 2.183,-1.302 3.314,-2.264 z"
                   id="path272" /><g
                   id="g274"><path
                     style="fill:#f2d3b1"
                     inkscape:connector-curvature="0"
                     d="m 223.073,434.307 -7.628,0 c -1.857,0 -3.267,1.672 -2.952,3.502 0.414,2.404 1.015,5.435 1.642,7.017 0.808,2.041 4.886,6.054 7.666,7.36 0.806,0.379 1.738,0.379 2.544,0 2.78,-1.306 6.858,-5.319 7.666,-7.36 0.627,-1.582 1.228,-4.613 1.642,-7.017 0.315,-1.83 -1.095,-3.502 -2.952,-3.502 l -7.628,0 z"
                     id="path276" /><path
                     style="fill:#b06828"
                     inkscape:connector-curvature="0"
                     d="m 223.073,434.307 c 3.181,0 7.705,1.529 9.051,2.14 1.345,0.612 -0.245,6.972 0,6.941 0.245,-0.031 0.64,-1.121 1.04,-1.437 0.4,-0.316 0.534,-4.954 0.534,-4.954 l 0,-2.691 -10.625,0 z"
                     id="path278" /></g><g
                   id="g280"><path
                     style="fill:#552916"
                     inkscape:connector-curvature="0"
                     d="m 223.37,434.25 0.39,0 c -0.131,-0.002 -0.261,-0.002 -0.39,0 z"
                     id="path282" /><path
                     style="fill:#b06828"
                     inkscape:connector-curvature="0"
                     d="m 231.695,437.029 -0.599,-1.235 -5.017,-1.543 -2.319,0 c 1.225,0.015 2.557,0.199 3.985,0.756 3.164,1.235 3.95,2.022 3.95,2.022 z"
                     id="path284" /></g><path
                   style="fill:#b06828"
                   inkscape:connector-curvature="0"
                   d="m 229.106,425.342 c -0.906,-0.989 -2.554,-2.883 -2.554,-2.883 0,0 0.824,1.236 0,1.565 -0.824,0.329 -3.479,-0.577 -3.479,-0.577 l 0,-1.647 c -1.255,0.082 -2.287,1.318 -2.549,1.318 -0.262,0 0,-1.318 0,-1.318 -0.262,1.812 -2.614,3.625 -2.614,3.625 -5.677,1.812 -5.461,8.883 -5.461,8.883 l 0,2.691 c 0,0 0.134,4.638 0.534,4.954 0.4,0.316 0.795,1.406 1.04,1.437 0.245,0.031 -1.345,-6.329 0,-6.941 0,0 5.842,-0.317 7.377,-0.654 0,0 -1.858,-0.513 -2.197,-0.884 3.863,-0.621 11.551,0.07 11.551,0.07 l 2.943,-0.673 c 0.637,-6.605 -3.685,-7.978 -4.591,-8.966 z"
                   id="path286" /><g
                   id="g288"><path
                     style="fill:#f2d3b1"
                     inkscape:connector-curvature="0"
                     d="m 212.695,439.071 c 0,0 -0.732,-1.961 -0.732,0.173 0,2.134 1.629,3.851 1.629,3.851 l -0.897,-4.024 z"
                     id="path290" /><path
                     style="fill:#f2d3b1"
                     inkscape:connector-curvature="0"
                     d="m 233.452,439.071 c 0,0 0.732,-1.961 0.732,0.173 0,2.134 -1.629,3.851 -1.629,3.851 l 0.897,-4.024 z"
                     id="path292" /></g></g><g
                 id="g294"><path
                   style="fill:#d7d6d6"
                   inkscape:connector-curvature="0"
                   d="m 245.537,478.343 -44.928,0 c -0.401,0 -0.729,-0.328 -0.729,-0.729 l 0,-1.777 c 0,-0.401 0.328,-0.73 0.729,-0.73 l 44.928,0 c 0.401,0 0.73,0.328 0.73,0.73 l 0,1.777 c -0.001,0.401 -0.329,0.729 -0.73,0.729 z"
                   id="path296" /><path
                   style="fill:#d7d6d6"
                   inkscape:connector-curvature="0"
                   d="m 245.537,484.352 -44.928,0 c -0.401,0 -0.729,-0.328 -0.729,-0.729 l 0,-1.777 c 0,-0.401 0.328,-0.73 0.729,-0.73 l 44.928,0 c 0.401,0 0.73,0.328 0.73,0.73 l 0,1.777 c -0.001,0.401 -0.329,0.729 -0.73,0.729 z"
                   id="path298" /><path
                   style="fill:#d7d6d6"
                   inkscape:connector-curvature="0"
                   d="m 245.537,490.361 -44.928,0 c -0.401,0 -0.729,-0.328 -0.729,-0.729 l 0,-1.777 c 0,-0.401 0.328,-0.73 0.729,-0.73 l 44.928,0 c 0.401,0 0.73,0.328 0.73,0.73 l 0,1.777 c -0.001,0.401 -0.329,0.729 -0.73,0.729 z"
                   id="path300" /></g></g><circle
               style="opacity:0.46000001;fill:#eaeaea"
               cx="322.60199"
               cy="370.69601"
               r="41.772999"
               id="circle302" /><circle
               style="fill:#f3f3f3"
               cx="322.60199"
               cy="370.69601"
               r="42.341999"
               id="circle304" /><circle
               style="fill:#f3f3f3"
               cx="329.10001"
               cy="383.33099"
               r="10.648"
               id="circle306" /><path
               style="fill:#2a2f3e"
               inkscape:connector-curvature="0"
               d="m 372.557,389.58 c 10.429,-27.59 -3.481,-58.41 -31.071,-68.84 -27.59,-10.43 -58.41,3.482 -68.84,31.071 -9.786,25.888 1.859,54.619 26.126,66.681 l -13.035,34.481 -1.219,-0.461 c -2.505,-0.947 -5.329,0.328 -6.275,2.832 l -30.713,81.245 c -0.947,2.505 0.328,5.329 2.832,6.275 l 12.52,4.733 c 2.505,0.947 5.329,-0.328 6.275,-2.832 L 299.87,463.52 c 0.947,-2.505 -0.328,-5.329 -2.832,-6.275 l -1.219,-0.461 13.035,-34.481 c 26.178,7.008 53.917,-6.835 63.703,-32.723 z m -89.029,-33.655 c 8.158,-21.58 32.265,-32.461 53.845,-24.303 21.58,8.158 32.461,32.265 24.303,53.845 -8.158,21.58 -32.265,32.461 -53.845,24.303 -21.58,-8.158 -32.461,-32.265 -24.303,-53.845 z"
               id="path308" /><circle
               style="fill:#f3f3f3"
               cx="322.60199"
               cy="370.69601"
               r="45.061001"
               id="circle310" /><g
               id="g312"><defs
                 id="defs314"><circle
                   id="SVGID_3_"
                   cx="322.60199"
                   cy="370.69601"
                   r="45.061001" /></defs><clipPath
                 id="clipPath8699"><use
                   height="100%"
                   width="100%"
                   y="0"
                   x="0"
                   style="overflow:visible"
                   xlink:href="#SVGID_3_"
                   overflow="visible"
                   id="use8701" /></clipPath><g
                 clip-path="url(#SVGID_4_)"
                 id="g320"><g
                   id="g322"><path
                     style="fill:#efcbad"
                     inkscape:connector-curvature="0"
                     d="m 345.409,361.347 -7.115,4.264 -7.115,-4.264 C 331.588,365.083 328,372.82 328,372.82 l 10.294,4.185 10.294,-4.185 c 0,0.001 -3.588,-7.737 -3.179,-11.473 z"
                     id="path324" /><path
                     style="fill:#4780c2"
                     inkscape:connector-curvature="0"
                     d="m 374.559,394.877 c -0.225,-5.171 -1.03,-14.744 -3.913,-17.022 -2.107,-1.665 -6.739,-2.55 -10.652,-3.015 l 0,0 -0.004,0 c -3.513,-0.417 -6.445,-0.497 -6.445,-0.497 l -1.91,-0.983 -2.562,-1.169 -10.778,3.322 0,0 0,0 -10.778,-3.322 -2.562,1.169 -1.91,0.983 c 0,0 -2.932,0.079 -6.445,0.497 l -0.004,0 0,0 c -3.913,0.465 -8.545,1.35 -10.652,3.015 -2.883,2.278 -3.688,11.851 -3.913,17.022 l 72.528,0 z"
                     id="path326" /><g
                     id="g328"><path
                       style="fill:#f2d3b1"
                       inkscape:connector-curvature="0"
                       d="m 338.294,338.125 -11.927,0 c -2.903,0 -5.108,2.614 -4.616,5.475 0.647,3.758 1.588,8.498 2.567,10.972 1.264,3.191 7.64,9.465 11.986,11.508 1.26,0.592 2.718,0.592 3.978,0 4.346,-2.042 10.722,-8.317 11.986,-11.508 0.98,-2.474 1.92,-7.214 2.567,-10.972 0.493,-2.861 -1.712,-5.475 -4.616,-5.475 l -11.925,0 z"
                       id="path330" /><path
                       style="fill:#552916"
                       inkscape:connector-curvature="0"
                       d="m 338.294,338.125 c 4.973,0 12.048,2.391 14.151,3.347 2.104,0.956 -0.383,10.901 0,10.852 0.382,-0.048 1,-1.753 1.626,-2.246 0.625,-0.494 0.834,-7.746 0.834,-7.746 l 0,-4.207 -16.611,0 z"
                       id="path332" /></g><path
                     style="fill:#ddb699"
                     inkscape:connector-curvature="0"
                     d="m 345.467,363.242 c -0.091,-0.694 -0.119,-1.339 -0.058,-1.895 l -7.115,4.264 -7.115,-4.264 c 0.061,0.556 0.033,1.201 -0.058,1.895 1.768,1.503 3.609,2.8 5.184,3.54 1.26,0.592 2.718,0.592 3.978,0 1.575,-0.74 3.416,-2.037 5.184,-3.54 z"
                     id="path334" /><g
                     id="g336"><path
                       style="fill:#f2d3b1"
                       inkscape:connector-curvature="0"
                       d="m 338.294,338.125 -11.927,0 c -2.903,0 -5.108,2.614 -4.616,5.475 0.647,3.758 1.588,8.498 2.567,10.972 1.264,3.191 7.64,9.465 11.986,11.508 1.26,0.592 2.718,0.592 3.978,0 4.346,-2.042 10.722,-8.317 11.986,-11.508 0.98,-2.474 1.92,-7.214 2.567,-10.972 0.493,-2.861 -1.712,-5.475 -4.616,-5.475 l -11.925,0 z"
                       id="path338" /><path
                       style="fill:#552916"
                       inkscape:connector-curvature="0"
                       d="m 338.294,338.125 c 4.973,0 12.048,2.391 14.151,3.347 2.104,0.956 -0.383,10.901 0,10.852 0.382,-0.048 1,-1.753 1.626,-2.246 0.625,-0.494 0.834,-7.746 0.834,-7.746 l 0,-4.207 -16.611,0 z"
                       id="path340" /></g><g
                     id="g342"><path
                       style="fill:#552916"
                       inkscape:connector-curvature="0"
                       d="m 338.759,338.036 0.609,0 c -0.204,-0.002 -0.408,-0.003 -0.609,0 z"
                       id="path344" /><path
                       style="fill:#552916"
                       inkscape:connector-curvature="0"
                       d="m 351.776,342.381 -0.937,-1.932 -7.844,-2.413 -3.626,0 c 1.916,0.024 3.998,0.311 6.231,1.183 4.946,1.932 6.176,3.162 6.176,3.162 z"
                       id="path346" /></g><path
                     style="fill:#552916"
                     inkscape:connector-curvature="0"
                     d="m 354.905,338.125 c 0.499,-5.174 -0.948,-8.286 -2.695,-10.304 -0.468,-0.867 -0.997,-1.701 -1.547,-2.49 -0.105,-0.15 -0.308,-0.141 -0.419,-0.04 -0.073,-0.114 -0.146,-0.227 -0.219,-0.341 -0.265,-0.611 -0.551,-1.214 -0.893,-1.794 -0.071,-0.12 -0.197,-0.121 -0.289,-0.063 -0.017,-0.028 -0.035,-0.055 -0.052,-0.083 -0.102,-0.166 -0.303,-0.127 -0.393,-0.008 -0.068,-0.092 -0.133,-0.188 -0.204,-0.277 -0.203,-0.388 -0.424,-0.764 -0.672,-1.123 -0.09,-0.13 -0.231,-0.133 -0.336,-0.07 -0.127,-0.143 -0.256,-0.285 -0.386,-0.426 -0.356,-0.478 -0.728,-0.94 -1.142,-1.359 -0.127,-0.129 -0.333,-0.088 -0.438,0.031 -0.268,-0.336 -0.534,-0.672 -0.794,-1.01 -0.041,-0.053 -0.096,-0.074 -0.15,-0.076 -0.235,-0.334 -0.462,-0.673 -0.703,-1.002 -0.109,-0.148 -0.306,-0.102 -0.373,0.018 -0.242,-0.56 -0.532,-1.073 -0.871,-1.495 -0.054,-0.067 -0.132,-0.086 -0.212,-0.085 -0.027,-0.048 -0.057,-0.097 -0.084,-0.145 -0.117,-0.207 -0.425,-0.024 -0.317,0.185 0.027,0.053 0.054,0.109 0.081,0.162 -0.001,0.004 -0.006,0.006 -0.007,0.01 -0.094,-0.172 -0.189,-0.345 -0.282,-0.516 -0.119,-0.216 -0.413,-0.026 -0.322,0.188 0.088,0.207 0.179,0.417 0.268,0.625 -0.155,-0.269 -0.313,-0.539 -0.454,-0.802 -0.041,-0.077 -0.106,-0.093 -0.169,-0.087 -0.106,-0.172 -0.214,-0.345 -0.315,-0.515 -0.141,-0.236 -0.487,-0.029 -0.366,0.214 0.107,0.212 0.212,0.43 0.317,0.65 -0.282,-0.345 -0.572,-0.683 -0.866,-1.015 -0.007,-0.063 -0.013,-0.128 -0.021,-0.19 -0.031,-0.231 -0.285,-0.28 -0.469,-0.197 -0.181,-0.258 -0.363,-0.516 -0.542,-0.776 -0.003,-0.004 -0.006,-0.005 -0.009,-0.008 -0.041,-0.104 -0.128,-0.16 -0.227,-0.163 -0.076,-0.108 -0.155,-0.216 -0.229,-0.323 -0.096,-0.14 -0.289,-0.062 -0.305,0.066 -0.06,0.017 -0.114,0.059 -0.15,0.137 -0.025,0.054 -0.044,0.11 -0.067,0.164 -0.047,0.037 -0.086,0.087 -0.108,0.147 -0.01,0.026 -0.014,0.055 -0.023,0.082 0.014,-0.086 0.037,-0.17 0.048,-0.258 0.017,-0.139 -0.047,-0.233 -0.142,-0.282 0.062,-0.134 0.129,-0.265 0.184,-0.404 0.045,-0.113 -0.125,-0.206 -0.203,-0.118 -0.113,0.129 -0.214,0.266 -0.318,0.401 -0.031,-0.046 -0.089,-0.071 -0.137,-0.017 -0.069,0.078 -0.13,0.162 -0.194,0.243 0.048,-0.107 -0.084,-0.226 -0.173,-0.13 -0.386,0.415 -0.719,0.888 -1.035,1.372 -0.002,0.002 -0.005,0.001 -0.008,0.004 -0.243,0.24 -0.47,0.501 -0.693,0.764 0.072,-0.148 0.149,-0.296 0.213,-0.446 0.081,-0.188 -0.149,-0.323 -0.273,-0.16 -0.506,0.665 -0.969,1.374 -1.416,2.098 -0.039,-0.068 -0.139,-0.094 -0.199,-0.009 -0.251,0.356 -0.485,0.726 -0.721,1.094 -0.106,-0.016 -0.217,0.007 -0.3,0.094 -0.391,0.41 -0.742,0.858 -1.071,1.326 -0.027,0.014 -0.055,0.032 -0.08,0.059 -0.176,0.186 -0.336,0.386 -0.507,0.577 0.072,-0.131 0.154,-0.257 0.224,-0.388 0.067,-0.125 -0.109,-0.277 -0.204,-0.157 -0.471,0.593 -0.918,1.205 -1.351,1.827 -0.225,0.262 -0.436,0.537 -0.653,0.807 -0.046,-0.011 -0.095,-0.009 -0.135,0.032 -0.161,0.163 -0.309,0.336 -0.461,0.505 -0.044,-0.201 -0.353,-0.313 -0.511,-0.146 -0.447,0.472 -0.841,0.995 -1.199,1.546 0.096,-0.325 0.183,-0.65 0.259,-0.972 0.052,-0.217 -0.244,-0.348 -0.361,-0.152 -0.442,0.737 -0.839,1.53 -1.205,2.346 -0.091,-0.221 -0.41,-0.319 -0.556,-0.057 -0.782,1.408 -1.377,3.006 -1.804,4.676 0.002,-0.019 0.004,-0.038 0.005,-0.056 0.031,-0.395 -0.52,-0.407 -0.643,-0.087 -1.33,3.452 -1.367,7.915 -0.147,11.585 l 0,0.797 c 0,0 0.209,7.252 0.834,7.745 0.625,0.494 1.243,2.198 1.626,2.246 0.383,0.049 -2.104,-9.896 0,-10.852 0,0 1.055,-0.057 2.54,-0.154 1.881,0.372 3.773,0.678 5.685,0.729 0.317,0.008 0.354,-0.439 0.072,-0.532 -0.569,-0.188 -1.146,-0.344 -1.727,-0.489 0.464,-0.038 0.921,-0.078 1.365,-0.119 1.982,0.357 3.975,0.635 5.95,0.611 0.377,-0.005 0.436,-0.531 0.087,-0.643 -0.18,-0.058 -0.364,-0.108 -0.546,-0.161 0.795,0.139 1.59,0.233 2.381,0.252 0.357,0.008 0.543,-0.547 0.191,-0.705 -0.066,-0.03 -0.137,-0.051 -0.203,-0.079 1.212,0.244 2.428,0.442 3.653,0.543 0.227,0.019 0.292,-0.213 0.21,-0.375 1.943,1.277 3.927,2.601 6.012,3.521 0.438,0.462 0.881,0.92 1.362,1.347 0.137,0.122 0.334,0.116 0.472,0.03 0.284,0.551 0.552,1.115 0.794,1.701 0.089,0.216 0.382,0.136 0.348,-0.096 -0.057,-0.396 -0.144,-0.783 -0.251,-1.161 0.038,0.06 0.071,0.124 0.11,0.184 0.116,0.175 0.421,0.068 0.351,-0.148 -0.269,-0.826 -0.615,-1.627 -0.987,-2.419 0.069,0.03 0.146,0.032 0.211,-0.005 0.358,0.584 0.735,1.151 1.178,1.644 0.042,0.047 0.097,0.058 0.152,0.055 0.142,0.283 0.504,0.105 0.535,-0.147 0.232,-1.888 -1.231,-3.775 -2.611,-4.892 -0.225,-0.182 -0.498,-0.093 -0.637,0.081 -0.028,0.007 -0.056,0.014 -0.082,0.028 -0.192,-0.304 -0.387,-0.605 -0.582,-0.905 0.078,0.007 0.126,0.011 0.126,0.011 l 4.602,-1.056 z m -4.705,2.717 c -0.016,0.032 -0.024,0.067 -0.029,0.103 -0.589,-0.718 -1.285,-1.37 -2.067,-1.937 0.406,0.028 0.759,0.054 1.065,0.077 0.339,0.583 0.678,1.175 1.031,1.757 z"
                     id="path348" /><g
                     id="g350"><path
                       style="fill:#f2d3b1"
                       inkscape:connector-curvature="0"
                       d="m 322.067,345.575 c 0,0 -1.145,-3.067 -1.145,0.27 0,3.337 2.546,6.022 2.546,6.022 l -1.401,-6.292 z"
                       id="path352" /><path
                       style="fill:#f2d3b1"
                       inkscape:connector-curvature="0"
                       d="m 354.522,345.575 c 0,0 1.145,-3.067 1.145,0.27 0,3.337 -2.546,6.022 -2.546,6.022 l 1.401,-6.292 z"
                       id="path354" /></g></g><g
                   id="g356"><path
                     style="fill:#d7d6d6"
                     inkscape:connector-curvature="0"
                     d="m 373.418,406.286 -70.248,0 c -0.627,0 -1.141,-0.513 -1.141,-1.141 l 0,-2.778 c 0,-0.627 0.513,-1.141 1.141,-1.141 l 70.248,0 c 0.627,0 1.141,0.513 1.141,1.141 l 0,2.778 c 0,0.628 -0.513,1.141 -1.141,1.141 z"
                     id="path358" /><path
                     style="fill:#d7d6d6"
                     inkscape:connector-curvature="0"
                     d="m 373.418,415.682 -70.248,0 c -0.627,0 -1.141,-0.513 -1.141,-1.141 l 0,-2.778 c 0,-0.627 0.513,-1.141 1.141,-1.141 l 70.248,0 c 0.627,0 1.141,0.513 1.141,1.141 l 0,2.778 c 0,0.627 -0.513,1.141 -1.141,1.141 z"
                     id="path360" /><path
                     style="fill:#d7d6d6"
                     inkscape:connector-curvature="0"
                     d="m 373.418,425.077 -70.248,0 c -0.627,0 -1.141,-0.513 -1.141,-1.141 l 0,-2.778 c 0,-0.627 0.513,-1.141 1.141,-1.141 l 70.248,0 c 0.627,0 1.141,0.513 1.141,1.141 l 0,2.778 c 0,0.628 -0.513,1.141 -1.141,1.141 z"
                     id="path362" /></g></g><g
                 clip-path="url(#SVGID_4_)"
                 id="g364"><path
                   style="fill:#efcbad"
                   inkscape:connector-curvature="0"
                   d="m 255.788,358.929 -7.446,4.462 -7.446,-4.462 c 0.428,3.909 -3.327,12.007 -3.327,12.007 l 10.773,4.379 10.773,-4.379 c 0,0 -3.756,-8.097 -3.327,-12.007 z"
                   id="path366" /><path
                   style="fill:#03b79a"
                   inkscape:connector-curvature="0"
                   d="m 286.294,394.019 c -0.235,-5.412 -1.078,-15.43 -4.095,-17.814 -2.205,-1.743 -7.053,-2.669 -11.148,-3.156 l 0,0 -0.004,0 c -3.676,-0.437 -6.745,-0.52 -6.745,-0.52 l -1.999,-1.029 -2.682,-1.223 -11.28,3.477 0,0 0,0 -11.28,-3.477 -2.682,1.223 -1.999,1.029 c 0,0 -3.069,0.083 -6.745,0.52 l -0.004,0 0,0 c -4.095,0.487 -8.942,1.413 -11.148,3.156 -3.017,2.384 -3.859,12.403 -4.095,17.814 l 75.906,0 z"
                   id="path368" /><g
                   id="g370"><path
                     style="fill:#f2d3b1"
                     inkscape:connector-curvature="0"
                     d="m 248.342,334.627 -12.482,0 c -3.038,0 -5.346,2.736 -4.83,5.73 0.677,3.933 1.662,8.893 2.687,11.482 1.322,3.339 7.995,9.906 12.544,12.043 1.318,0.619 2.844,0.619 4.163,0 4.549,-2.137 11.221,-8.704 12.544,-12.043 1.025,-2.589 2.01,-7.549 2.687,-11.482 0.516,-2.994 -1.792,-5.73 -4.83,-5.73 l -12.483,0 z"
                     id="path372" /><path
                     style="fill:#552916"
                     inkscape:connector-curvature="0"
                     d="m 248.342,334.627 c 5.205,0 12.608,2.502 14.81,3.503 2.202,1.001 -0.4,11.408 0,11.358 0.4,-0.051 1.047,-1.834 1.701,-2.351 0.654,-0.517 0.873,-8.106 0.873,-8.106 l 0,-4.403 -17.384,0 z"
                     id="path374" /></g><path
                   style="fill:#ddb699"
                   inkscape:connector-curvature="0"
                   d="m 255.849,360.912 c -0.095,-0.727 -0.125,-1.401 -0.061,-1.983 l -7.446,4.462 -7.446,-4.462 c 0.064,0.582 0.034,1.256 -0.061,1.983 1.85,1.573 3.777,2.931 5.426,3.705 1.318,0.619 2.844,0.619 4.163,0 1.647,-0.774 3.574,-2.131 5.425,-3.705 z"
                   id="path376" /><g
                   id="g378"><path
                     style="fill:#f2d3b1"
                     inkscape:connector-curvature="0"
                     d="m 248.342,334.627 -12.482,0 c -3.038,0 -5.346,2.736 -4.83,5.73 0.677,3.933 1.662,8.893 2.687,11.482 1.322,3.339 7.995,9.906 12.544,12.043 1.318,0.619 2.844,0.619 4.163,0 4.549,-2.137 11.221,-8.704 12.544,-12.043 1.025,-2.589 2.01,-7.549 2.687,-11.482 0.516,-2.994 -1.792,-5.73 -4.83,-5.73 l -12.483,0 z"
                     id="path380" /><path
                     style="fill:#552916"
                     inkscape:connector-curvature="0"
                     d="m 266.822,335.063 c -0.249,0.016 -0.507,0.209 -0.486,0.486 0.028,0.379 0.203,0.564 0.148,0.948 -0.045,0.312 -0.362,0.479 -0.649,0.462 -0.041,-0.002 -0.072,0.01 -0.109,0.014 l 0,-2.347 -17.384,0 c 5.205,0 12.608,2.502 14.81,3.503 2.202,1.001 -0.4,11.408 0,11.358 0.4,-0.051 1.047,-1.834 1.701,-2.351 0.654,-0.517 0.873,-8.106 0.873,-8.106 l 0,-0.873 c 0.89,0.298 1.872,-0.161 2.206,-1.037 0.3,-0.786 -0.089,-2.124 -1.11,-2.057 z"
                     id="path382" /></g><g
                   id="g384"><path
                     style="fill:#552916"
                     inkscape:connector-curvature="0"
                     d="m 248.828,334.534 0.638,0 c -0.214,-0.003 -0.427,-0.004 -0.638,0 z"
                     id="path386" /><path
                     style="fill:#552916"
                     inkscape:connector-curvature="0"
                     d="m 262.451,339.08 -0.98,-2.022 -8.209,-2.525 -3.795,0 c 2.005,0.025 4.184,0.325 6.521,1.238 5.176,2.023 6.463,3.309 6.463,3.309 z"
                     id="path388" /></g><path
                   style="fill:#552916"
                   inkscape:connector-curvature="0"
                   d="m 267.629,334.644 c 0.038,-0.172 0.057,-0.345 0.067,-0.518 0.124,-0.22 0.162,-0.492 0.047,-0.803 -0.038,-0.235 -0.078,-0.473 -0.118,-0.711 0.272,-0.736 0.353,-1.586 0.116,-2.353 -0.135,-0.439 -0.396,-0.848 -0.722,-1.202 0.195,-0.441 0.301,-0.901 0.266,-1.307 -0.106,-1.222 -0.793,-2.196 -1.677,-2.691 0.029,-0.282 -0.004,-0.584 -0.131,-0.904 -0.368,-0.929 -0.965,-1.562 -1.687,-1.922 -0.405,-0.918 -0.98,-1.781 -1.594,-2.483 -0.024,-2.048 -2.408,-3.423 -4.455,-3.148 -0.508,-0.315 -1.06,-0.514 -1.622,-0.579 -0.119,-0.153 -0.31,-0.246 -0.538,-0.182 -0.213,0.06 -0.432,0.144 -0.65,0.237 -0.044,0.009 -0.086,0.025 -0.129,0.039 -0.459,-0.525 -0.767,-0.878 -0.767,-0.878 0,0 0.285,0.431 0.462,0.947 -0.014,0.003 -0.029,0.004 -0.043,0.007 -0.063,-0.008 -0.125,-0.019 -0.189,-0.022 -0.456,-0.573 -1.087,-1.065 -1.917,-1.374 -0.889,-0.331 -1.703,-0.272 -2.406,0.036 -0.575,-0.226 -1.109,-0.307 -1.599,-0.281 l 0,-0.392 c -0.656,0.043 -1.274,0.279 -1.826,0.58 -0.267,-0.014 -0.533,-0.009 -0.792,0.025 -0.027,0.004 -0.049,0.013 -0.076,0.018 -0.478,0.012 -0.952,0.069 -1.394,0.155 -0.078,0.015 -0.144,0.045 -0.218,0.065 0.056,-0.45 0.134,-0.843 0.134,-0.843 -0.042,0.291 -0.125,0.582 -0.226,0.87 -0.834,0.239 -1.454,0.715 -1.861,1.319 -1.5,-0.103 -2.884,0.198 -4.058,0.83 -0.54,-0.005 -1.067,0.08 -1.487,0.241 -1.169,0.448 -1.878,1.515 -2.099,2.688 -1.196,0.241 -2.262,0.991 -2.934,1.979 -0.391,0.504 -0.646,1.098 -0.753,1.718 -0.042,0.073 -0.075,0.15 -0.111,0.226 -0.187,-0.098 -0.422,-0.084 -0.558,0.164 -0.59,1.067 -0.638,2.449 -0.024,3.514 0.085,0.254 0.212,0.497 0.366,0.725 -0.039,0.039 -0.082,0.076 -0.117,0.119 -0.091,-0.005 -0.186,0.004 -0.285,0.05 -0.598,0.281 -0.946,0.887 -0.954,1.538 -0.005,0.405 0.209,0.854 0.539,1.124 -0.372,0.449 -0.588,0.996 -0.591,1.624 -0.001,0.281 0.086,0.62 0.233,0.929 -0.402,0.744 -0.418,1.683 0.107,2.605 -0.001,0.003 -0.002,0.006 -0.003,0.009 -0.21,0.909 -0.036,1.724 0.654,2.377 0.046,0.044 0.106,0.071 0.158,0.109 -0.019,0.02 -0.04,0.032 -0.056,0.057 -0.252,0.387 -0.218,0.853 0.009,1.242 0.145,0.249 0.548,0.556 0.842,0.408 0.022,0.089 0.039,0.181 0.071,0.266 0.11,2.28 0.353,5.894 0.798,6.245 0.654,0.517 1.301,2.3 1.701,2.351 0.117,0.015 -0.022,-0.865 -0.223,-2.143 0.016,-0.02 0.041,-0.034 0.046,-0.059 0.056,-0.304 -0.042,-0.523 -0.174,-0.762 -0.125,-0.812 -0.257,-1.719 -0.359,-2.632 0.302,-0.323 0.251,-1.204 0.199,-1.703 0.381,-0.054 0.845,-0.328 0.947,-0.698 0.11,-0.402 -0.214,-0.563 -0.427,-0.831 -0.3,-0.377 -0.375,-0.603 -0.202,-1.077 0.092,-0.254 0.28,-0.469 0.424,-0.694 0.003,-0.004 0.005,-0.01 0.008,-0.014 0.272,0.447 0.69,0.841 1.208,0.78 0.191,-0.023 0.3,-0.159 0.268,-0.352 -0.076,-0.456 -0.434,-0.821 -0.62,-1.237 0.247,-0.015 0.518,-0.031 0.83,-0.051 0.038,0.169 0.098,0.342 0.172,0.516 0.344,0.8 1.386,0.95 2.121,0.822 0.687,-0.12 1.179,-0.703 1.332,-1.348 0.385,-0.03 0.757,-0.139 1.065,-0.321 0.08,-0.006 0.158,-0.013 0.238,-0.02 0.271,0.043 0.548,0.026 0.813,-0.069 1.285,-0.112 2.467,-0.237 3.373,-0.365 0.749,0.631 1.729,0.951 2.675,0.557 0.195,-0.081 0.254,-0.4 0,-0.456 -0.094,-0.021 -0.185,-0.047 -0.278,-0.07 0.158,-0.157 0.282,-0.347 0.349,-0.557 0.373,0.159 0.797,0.205 1.251,0.083 0.31,-0.083 0.592,-0.252 0.808,-0.471 0.154,-0.04 0.304,-0.092 0.449,-0.156 0.807,0.366 1.597,0.781 2.425,1.091 0.166,0.062 0.373,0.016 0.526,-0.083 0.062,0.015 0.12,0.04 0.184,0.05 0.671,0.113 1.659,-0.143 2.268,-0.663 0.256,0.043 0.511,0.047 0.758,0.01 0.039,0.691 0.398,1.314 0.952,1.718 0.583,0.425 1.289,0.529 1.984,0.385 0.209,-0.044 0.379,-0.121 0.529,-0.217 0.012,0.007 0.022,0.016 0.035,0.024 0.585,0.346 1.426,0.347 2.006,-0.018 0.246,0.093 0.537,0.124 0.825,0.103 0.023,0.03 0.042,0.062 0.067,0.092 0.01,0.012 0.024,0.025 0.034,0.037 -0.007,0.027 -0.019,0.05 -0.021,0.08 -0.045,0.687 0.213,1.302 0.648,1.823 0.038,0.045 0.082,0.091 0.128,0.138 -0.084,0.322 -0.094,0.693 -0.022,1.026 -0.244,0.417 -0.356,0.912 -0.252,1.388 0.042,0.194 0.124,0.389 0.232,0.572 -0.179,0.234 -0.301,0.509 -0.344,0.813 -0.03,0.219 -0.012,0.504 0.056,0.779 -0.197,0.806 0.01,1.92 0.9,2.1 0.452,0.091 0.783,-0.339 0.578,-0.752 -0.079,-0.16 -0.196,-0.309 -0.29,-0.465 0.172,-0.057 0.331,-0.17 0.359,-0.365 0.057,-0.409 -0.127,-0.717 -0.202,-1.105 -0.012,-0.062 -0.014,-0.143 -0.011,-0.227 0.087,0.012 0.177,0.015 0.269,0.005 0.484,-0.053 0.709,-0.549 0.386,-0.932 -0.24,-0.284 -0.556,-0.565 -0.659,-0.881 0.065,-10e-4 0.125,0.008 0.197,-0.005 0.225,-0.04 0.376,-0.326 0.305,-0.536 -0.044,-0.128 -0.113,-0.247 -0.186,-0.363 0.086,-0.203 0.029,-0.403 -0.103,-0.542 0.099,-0.02 0.196,-0.057 0.284,-0.128 0.474,0.335 1.109,0.423 1.653,0.187 0.424,-0.183 0.801,-0.591 0.878,-1.035 0.26,-0.061 0.506,-0.182 0.711,-0.37 0.437,-0.4 0.634,-1.329 0.145,-1.75 0.872,-0.98 0.223,-2.521 -0.428,-3.499 z m -9.536,1.351 c -0.005,0.233 0.021,0.458 0.07,0.676 -0.029,-0.005 -0.057,0 -0.086,-0.007 -0.379,-0.096 -0.672,-0.794 -0.682,-1.19 0.353,0.022 0.678,0.043 0.989,0.064 -0.161,0.092 -0.286,0.247 -0.291,0.457 z m 1.912,0.127 c -0.005,0.21 0.021,0.417 0.067,0.619 -0.148,-0.177 -0.379,-0.279 -0.61,-0.185 0.056,0.011 0.111,0.023 0.167,0.034 -0.055,-0.015 -0.11,-0.019 -0.165,-0.022 -0.138,-0.211 -0.234,-0.454 -0.274,-0.721 -0.018,-0.117 -0.071,-0.198 -0.136,-0.262 0.571,0.041 1.033,0.076 1.353,0.102 -0.205,0.022 -0.395,0.163 -0.402,0.435 z m 2.993,1.142 c -0.297,-0.407 -0.477,-0.913 -0.466,-1.391 0.012,-0.553 -0.765,-0.514 -0.833,0 -0.062,0.466 -0.057,0.922 0.027,1.358 -0.476,-0.175 -0.78,-0.562 -0.798,-1.11 -0.007,-0.224 -0.139,-0.363 -0.3,-0.418 0.183,0.015 0.282,0.024 0.282,0.024 l 3.249,-0.743 c 0.055,0.16 0.123,0.315 0.216,0.453 0.098,0.539 0.2,1.072 0.305,1.601 -0.011,0.408 -0.016,0.816 -0.012,1.224 0.005,-10e-4 0.009,-10e-4 0.014,-0.002 0,0.009 0.004,0.017 0.004,0.026 -0.365,-0.149 -0.749,-0.26 -1.098,-0.467 0.038,-0.083 0.073,-0.168 0.089,-0.265 0.028,-0.163 -0.068,-0.325 -0.248,-0.325 -0.146,0.001 -0.289,0.016 -0.431,0.035 z m 1.566,2.62 c -0.17,0.074 -0.308,0.246 -0.35,0.442 -0.038,-0.02 -0.076,-0.041 -0.114,-0.061 -0.058,-0.061 -0.131,-0.107 -0.215,-0.133 -0.044,-0.029 -0.092,-0.055 -0.129,-0.089 -0.182,-0.163 -0.318,-0.362 -0.406,-0.581 0.385,0.221 0.811,0.36 1.218,0.333 0,0.03 -0.006,0.059 -0.004,0.089 z"
                   id="path390" /><g
                   id="g392"><path
                     style="fill:#f2d3b1"
                     inkscape:connector-curvature="0"
                     d="m 231.359,342.423 c 0,0 -1.199,-3.209 -1.199,0.283 0,3.492 2.665,6.302 2.665,6.302 l -1.466,-6.585 z"
                     id="path394" /><path
                     style="fill:#f2d3b1"
                     inkscape:connector-curvature="0"
                     d="m 265.324,342.423 c 0,0 1.199,-3.209 1.199,0.283 0,3.492 -2.665,6.302 -2.665,6.302 l 1.466,-6.585 z"
                     id="path396" /></g></g></g><circle
               style="opacity:0.31000001;fill:#f3f3f3"
               cx="327.396"
               cy="378.92001"
               r="34.129002"
               id="circle398" /><path
               style="opacity:0.68000034;fill:#f3f3f3"
               inkscape:connector-curvature="0"
               d="m 342.262,387.122 c 0.28,-6.036 -0.168,-10.676 1.495,-12.117 1.632,-1.351 6.646,-0.971 10.081,4.036 3.604,5.028 1.099,14.036 -4.317,16.305 -5.435,2.276 -7.567,-2.398 -7.259,-8.224 z"
               id="path400" /><path
               style="fill:#f9f0e9"
               inkscape:connector-curvature="0"
               d="m 382.828,452.241 c 0,0 -3.271,4.192 -7.259,5.007 -3.988,0.815 -11.238,0 -11.238,0 0,0 3.919,-5.007 9.205,-5.007 5.286,0 9.292,0 9.292,0 z"
               id="path402" /><polygon
               style="fill:#f9f0e9"
               points="457.72,482.561 436.226,521.851 449.053,528.553 469.278,488.735 "
               id="polygon404" /><polygon
               style="fill:#2a2f3e"
               points="447.933,529.217 488.908,554.697 483.949,494.964 470.097,487.182 "
               id="polygon406" /></g><path
             style="fill:#e8c6a3"
             inkscape:connector-curvature="0"
             d="m 416.353,439.47 c -2.27,-1.486 -29.753,-8.324 -29.753,-8.324 l 6.754,5.885 c 0,0 -0.569,1.26 3.915,3.472 4.483,2.212 6.173,13.97 6.173,13.97 -1.302,-0.619 -3.626,0.817 -5.157,0.817 l -34.799,0.792 c -5.062,0 -8.283,3.338 -8.96,8.222 0,0.001 3.068,6.425 17.947,7.981 14.88,1.556 28.122,3.96 28.122,3.96 0,0 7.137,15.322 17.411,21.725 2.467,1.538 8.609,5.111 10.172,4.391 0.019,-0.009 1.669,-0.05 1.688,-0.059 0.183,-0.086 3.702,-0.018 3.702,-0.018 6.635,-3.619 14.651,-2.138 14.651,-2.138 l 8.457,-15.703 c 0,-10e-4 -38.053,-43.487 -40.323,-44.973 z"
             id="path408" /></g><path
           style="fill:#fbe1cb"
           inkscape:connector-curvature="0"
           d="m 355.28,460.827 c 0,0 6.096,-0.634 10.802,-2.071 0.648,-0.329 1.965,-2.542 1.965,-2.542 0,0 -8.665,-2.123 -12.767,4.613 z"
           id="path410" /><g
           id="g412"><path
             style="fill:#e8c6a3"
             inkscape:connector-curvature="0"
             d="m 245.901,543.807 c 0,0 5.085,9.707 3.005,9.938 -2.08,0.231 -37.21,-5.316 -40.446,-27.734 0,0 5.481,-8.327 7.243,-11.21 1.763,-2.884 24.882,2.29 24.882,2.29 l 5.316,26.716 z"
             id="path414" /><path
             style="fill:#e8c6a3"
             inkscape:connector-curvature="0"
             d="m 213.744,518.71 c 0,0 1.685,-4.184 5.391,-9.183 3.706,-4.999 22.497,-33.285 22.497,-33.285 0,0 6.23,-2.967 11.497,-4.114 5.517,-1.202 5.517,-1.202 5.517,-1.202 l 22.611,-24.677 c 0,0 14.616,-3.555 12.418,10.182 l -17.626,20.806 c 0,0 -4.552,22.758 -10.867,31.039 -6.315,8.281 -11.41,11.078 -11.41,11.078 l -7.229,20.651 c 0.001,0.002 -19.212,-6.592 -32.799,-21.295 z"
             id="path416" /><g
             id="g418"><path
               style="fill:#e8c6a3"
               inkscape:connector-curvature="0"
               d="m 282.885,508.17 c 0,0 7.982,19.351 7.149,20.17 -0.833,0.819 -16.457,12.649 -17.876,12.068 -1.419,-0.582 -4.315,-11.715 3.164,-17.02 l 2.03,-0.908 5.533,-14.31 z"
               id="path420" /><path
               style="fill:#fbe1cb"
               inkscape:connector-curvature="0"
               d="m 279.039,528.474 1.808,6.758 -7.721,4.934 c 0,0 -3.388,-5.369 5.913,-11.692 z"
               id="path422" /></g><path
             style="fill:#e0ba9a"
             inkscape:connector-curvature="0"
             d="m 271.388,528.412 c 0,0 1.69,-4.239 5.986,-6.382 4.296,-2.143 8.669,-6.522 9.489,-4.351 0.819,2.171 2.129,6.333 2.129,6.333 0,0 -16.561,4.797 -17.604,4.4 z"
             id="path424" /><g
             id="g426"><path
               style="fill:#e8c6a3"
               inkscape:connector-curvature="0"
               d="m 289.063,492.303 c 0,0 7.982,19.351 7.149,20.17 -0.833,0.819 -16.457,12.649 -17.876,12.068 -1.419,-0.582 -4.316,-11.715 3.164,-17.02 l 2.03,-0.908 5.533,-14.31 z"
               id="path428" /><path
               style="fill:#fbe1cb"
               inkscape:connector-curvature="0"
               d="m 285.216,512.607 1.809,6.758 -7.721,4.934 c 0,0 -3.388,-5.37 5.912,-11.692 z"
               id="path430" /></g><path
             style="fill:#e0ba9a"
             inkscape:connector-curvature="0"
             d="m 278.21,511.194 c 0,0 2.271,-3.76 5.319,-4.583 3.048,-0.823 9.485,-4.362 9.485,-4.362 l 1.996,5.433 c 0,0 -9.505,2.676 -12.147,2.644 -2.641,-0.031 -4.653,0.868 -4.653,0.868 z"
             id="path432" /><g
             id="g434"><path
               style="fill:#e8c6a3"
               inkscape:connector-curvature="0"
               d="m 295.095,476.174 c 0,0 7.982,19.351 7.149,20.17 -0.833,0.819 -16.457,12.649 -17.876,12.068 -1.419,-0.582 -4.316,-11.715 3.164,-17.02 l 2.03,-0.908 5.533,-14.31 z"
               id="path436" /><path
               style="fill:#fbe1cb"
               inkscape:connector-curvature="0"
               d="m 291.248,496.478 1.809,6.758 -7.721,4.934 c 0,0 -3.388,-5.37 5.912,-11.692 z"
               id="path438" /></g><path
             style="fill:#e0ba9a"
             inkscape:connector-curvature="0"
             d="m 283.576,496.478 c 0,0 1.69,-3.852 5.986,-5.996 4.296,-2.143 8.669,-6.522 9.489,-4.351 0.819,2.171 2.247,6.172 2.247,6.172 0,0 -16.679,4.572 -17.722,4.175 z"
             id="path440" /><g
             id="g442"><path
               style="fill:#e8c6a3"
               inkscape:connector-curvature="0"
               d="m 300.545,462.214 c 0,0 7.982,19.351 7.149,20.17 -0.833,0.819 -16.457,12.649 -17.876,12.068 -1.419,-0.582 -4.315,-11.715 3.164,-17.02 l 2.03,-0.909 5.533,-14.309 z"
               id="path444" /><path
               style="fill:#fbe1cb"
               inkscape:connector-curvature="0"
               d="m 296.699,482.518 1.809,6.758 -7.721,4.934 c -10e-4,0 -3.389,-5.37 5.912,-11.692 z"
               id="path446" /></g><polygon
             style="fill:#f9f0e9"
             points="206.149,524.299 253.822,556.673 247.218,565.917 199.88,532.636 "
             id="polygon448" /><path
             style="fill:#fbe1cb"
             inkscape:connector-curvature="0"
             d="m 275.792,454.166 10.634,8.048 6.01,-6.12 c 0,0 0.234,-11.16 -10.594,-8.062 l -6.05,6.134 z"
             id="path450" /><path
             style="fill:#2a2f3e"
             inkscape:connector-curvature="0"
             d="m 250.387,567.098 c -16.744,-11.312 -56.233,-38.024 -56.718,-38.663 l -59.936,66.757 86.786,12.349 c 11.179,-15.169 23.897,-32.409 29.868,-40.443 z"
             id="path452" /></g></g></g></g></svg>