<svg xmlns="http://www.w3.org/2000/svg" width="117.204" height="117.204" viewBox="0 0 117.20388 117.20388"><defs><clipPath id="a"><path d="M0 93.763h93.763V0H0v93.763z"/></clipPath><clipPath id="b"><path d="M75.712 17.659l5.332-.002v-3.562h-5.332v3.563z"/></clipPath><clipPath id="c"><path d="M4.228 88.754h85.99V7.28H4.23v81.474z"/></clipPath><linearGradient x2="1" gradientUnits="userSpaceOnUse" gradientTransform="matrix(81.474 -54.825 -54.825 -81.474 3.762 77.815)" id="d"><stop offset="0" stop-color="#f7f8f9"/><stop offset=".051" stop-color="#f7f8f9"/><stop offset=".141" stop-color="#fff"/><stop offset=".327" stop-color="#fff"/><stop offset=".415" stop-color="#fff"/><stop offset=".684" stop-color="#ececee"/><stop offset=".856" stop-color="#ececee"/><stop offset="1" stop-color="#cecbcb"/></linearGradient><clipPath id="e"><path d="M0 93.763h93.763V0H0v93.763z"/></clipPath></defs><g><g><g clip-path="url(#a)" transform="matrix(1.25 0 0 -1.25 0 117.204)"><g><path d="M93.763 10.223C93.763 4.587 89.236.02 83.653.02H10.11C4.527.02 0 4.586 0 10.223v73.334c0 5.636 4.527 10.205 10.11 10.205h73.543c5.583 0 10.11-4.569 10.11-10.205V10.224z" fill="#f9a85e" fill-rule="evenodd"/></g><g><g><g clip-path="url(#b)" opacity=".7"><g><path d="M80.842 16.52c-.688-1.257-2.786-2.458-4.145-2.423-1.882.047-.7 1.772.51 2.603 1.034.71 4.737 1.83 3.635-.18" fill="#f7ce99"/></g></g></g></g><g><g><g clip-path="url(#c)" opacity=".7"><g><path d="M90.22 16.15c0-4.9-4.152-8.87-9.273-8.87H13.5c-5.12 0-9.272 3.97-9.272 8.87v63.736c0 4.898 4.15 8.868 9.272 8.868h67.447c5.12 0 9.272-3.97 9.272-8.868V16.15z" fill="#f7ce99" fill-rule="evenodd"/></g></g></g></g><g><path d="M88.57 16.54c.038-.81-.546-1.49-1.305-1.52L11.02 5.75c-.757-.03-1.4.602-1.438 1.412L7.116 61.435c-.037.808.547 1.487 1.304 1.516l76.53 2.98c.76.03 1.403-.6 1.44-1.41l2.18-47.98z" fill="#ba6f3a"/></g><g><path d="M16.23 15.47L5.454 14.15l2.59-8.462 7.19 8.145" fill="#936b4f"/></g></g></g><g><g><g><g><path d="M7.944 84.245c-.784 0-1.42-.822-1.42-1.836V14.296c0-1.016.636-1.84 1.42-1.84l79.208 7.897c.785 0 1.42.822 1.42 1.838V82.41c0 1.013-.635 1.835-1.42 1.835H7.944z" fill="url(#d)" transform="matrix(1.25 0 0 -1.25 0 117.204)"/></g></g></g></g><g><g clip-path="url(#e)" transform="matrix(1.25 0 0 -1.25 0 117.204)"><g><path d="M22.508 21.882l13.074-8.59-27.45-7.7 14.375 16.29z" fill="#995b2f"/></g><g><path d="M6.69 11.42l-3.85 8.786 3.874 2.453-.025-11.24z" fill="#936b4f"/></g><g><path d="M42.494 40.298c-3.04 1.617-3.328 2.78-3.572 4.133-.237 1.312 1.124 1.847 1.724 1.153.51-.587-.762-1.005-.122-1.49.224-.17.468-.207.588-.156.33.137.21.45.355.326.48-.412-.183-2.21-.43-2.79.296.39.908 1.23 1.07 2.067.286 1.467-.945 2.57-1.754 2.776-1.556.396-2.108-1.21-1.892-2.1.012-.044-.062-.06-.09-.015-.533.86-.11 2.313-.136 3.82-.026 1.547-1.01 2.762-2.38 2.84 2.06-.7 1.13-2.34 1.14-4.195.01-1.83 1.887-3.76 1.75-3.85-1.368 1.234-3.165 1.467-4.012.783-.81-.655-.234-1.887.477-2.37 1.404-.958 2.74-.646 3.882-2.428.087 1.52-1.305 2.146-1.85 2.483.12.13.553.173 1.058.25-.536.526-1.75.253-2.588.494-.76.217-1.18.8-.637 1.295.328.3 1.26.333 2.3-.113 1.582-.68 2.448-2.34 5.142-3.574-1.48-1.084-1.317-2.3-.675-2.867.213 2.617 2.936 1.56 3.545.698 0 0 .61.304.926.414-1.08 1.6-4.863 3.104-3.314 4.583-.492-.062-1.412-.843-.467-2.063m6.86-5.83c-.53 1.218-3.103 2.417-4.576.598-.634-.784-.056-.998.126-.99.447.022.428.62.698.93.43.49 1.41 1.236 3.753-.54m-2.108.88c1.08-1.6-.38-3.38-1.37-4.408l.364-.79c2.773 2.486 2.412 4.584 1.977 4.874-.305.16-.972.325-.972.325m.014-2.06c-.73-.08-1.917-.325-2.607-.056.145-.428 1.2-2 1.106-2.158.58.574 1.563 1.737 1.5 2.213m-.843-3.613c1.193.374 2.246-.232 2.44-1.266.458-2.413-2.614-2.924-2.486-4.207.23.248 1.027.403 1.13.325.1-.078-.44-1.002-.084-1.545.263.283 1.06.764 1.133.456.072-.31-.212-1.29.09-1.766.194.37.72.503.677.312-.115-.513.832-1.6.833-2.41.694.704.22 1.64.288 2.03.068.39 1.88-1.295 2.3-1.78.424-.482.887-.275 1.16-.582.272-.307.656-.387.955-.54.298-.152.185-.788.307-.996.25.255.295.954.132 1.18-.163.226.285.6-.125 1.015-.338.34-.933.197-1.443.356-.278.086-1.343.586-1.09.95.255.365 1.892-.622 2.33-.537.5.097.696-.365 1.272-.207.576.157.943-.07 1.21-.463.107.418-.206.947-.873.984-.323.018-.095.6-.616.782-.627.217-.553-.432-1.325-.272-.7.146-1.197.148-1.474.27-.277.12.827.46 1.1.485.274.024.717-.186 1.03.082.338.29-.004.644.207.937.21.29.687.672 1.346.235.05.277-1.02.784-1.693.177-.23-.207-.493.182-.962-.188-.468-.37-.716-1.4-3.21-.974-2.493.426-1.227 3.975-.336 4.762 0 0 .194-.78 1.415-1.414-.492.48-.346 3.02-.346 3.02s.72-.78 1.387-.673c-1.498 1.285-1.56 4.728-4.434 4.89-.42-.93-1.68-2.748-2.353-3.134-.046-.116.107-.296.107-.296m14.376 7.617c.346-.18.51-.134.732-.24.362-.176.192-1.782 1.902-2.154-2.287 2.377.783 3.3 1.65 3.886.907.612 2.714 1.884 3.607 2.296.36.166.505.016.476-.15-.21-1.167-1.32-1.144-1.487-1.907-.11-.504.454-.7.435-.864-.055-.445.516-.993.906-1.094-.467.646-.468.948-.108 1.376.36.43-.07.826-.003 1.008.286.76 1.025 1.475 1.262 2.212.088.272 1.827.727 2.217.81.518.112.62-.005 1.028.292.34.248.555-.342 1.154.093.753.545 1.347-.224 1.47-.432.114.51-.685 1.156-1.44.872-.1.408-.493.67-.917.567-.424-.103-.5-.632-.978-.675-1.07-.098-1.283-.56-2.135-.52-.17.008.375 1.105.834 1.513.712.633.294.82.735 1.03.17.08.578.034.88.52.3.488-.52 1.223.975 1.122-.63.42-1.208.23-1.46.02-.386-.075-.62-.095-.874-.46-.254-.363.14-.51-.285-.924-.55-.535-.478-.88-.66-1.077-.185-.196-.42-.898-.65-.814-.15.052-.057 1.228-.063 1.772-.006.545.278 1.25.212 1.798-.068.55-.22.975.714 1.114-.76.16-1.12-.113-1.32-.255-.2-.143-.662.042-.846-.44-.205-.538.617-.785.5-1.248-.115-.464.112-.878.178-1.388.067-.51-.002-1.602-.28-2.016-.44-.654-1.896-2.02-3.974-2.888-2.407-1.006-3.126-.51-3.847-.21 0 0-.602-1.794-.542-2.546m-6.918 7.994c-.51-.175-3.148-.17-3.922-.01-.774.162-2.218 1.402-1.247 2.77.97 1.366 2.562.005 3.298 1.402 1.076 2.04-3 4.866-2.937 8.603-.698-.508-.312-2.224-.57-1.908-1.834 2.262-4.982 7.528-6.05 9.687-.352-.338-.553-.76.153-2.084 1.694-3.344 4.577-8.17 4.577-8.17-.094-.09-1.36 1.463-1.36 1.463-.228-.36.97-1.895 1.272-2.333.02-.03.004-.07-.033-.034-.752.775-6.945 8.725-6.945 8.725-.3-.31-.166-1.12.732-2.387 1.688-2.507 4.948-6.508 5.846-7.385-.425.097-1.96 1.83-1.96 1.83-.233-.463 1.015-1.7 1.238-1.927.025-.026.01-.06-.018-.04-.686.51-7.364 7.084-7.364 7.084-.282-.436-.276-.835 1.146-2.403 1.862-2.052 4.74-4.917 5.03-5.073-.088-.05-1.402.77-1.49.843-.008-.395 1.613-1.577 1.88-1.812.033-.03-.005-.055-.023-.045-.676.405-6.432 4.29-7.164 4.824-.066-.59.265-1.133 1.244-1.826.98-.692 6.29-4.43 6.48-4.6.19-.172-1.177.55-2.584 1.428.1-.464 1.317-1.263 2.33-1.86.017-.012.003-.053-.036-.04-.725.25-6.635 3.452-7.08 3.555-.018-.398.776-1.03 1.74-1.617 1.2-.73 5.363-3.013 5.538-3.19-.18-.02-1.67.63-2.046.78.28-.408 1.28-1.01 2.03-1.408.036-.02.023-.073-.018-.06-1.168.337-4.062.964-4.988 1.21.537-.98 4.393-1.965 4.89-2.092.034-.01.044-.04.012-.045-.24-.026-1.33-.147-1.637-.17.417-.27 1.63-.342 2.193-.5.036-.01.06-.057-.003-.06-.57-.016-3.95-.09-4.32-.257 1.422-.605 3.712-.596 4.805-.577.088.002.194-.07.044-.108-.15-.04-1.24-.222-1.416-.244.45-.335 1.32-.185 1.392-.166.072.02.184-.036.022-.087 0 0-2.486-.833-3.058-1.445 1.48-.335 4.004.767 4.004.767.083.04.12.01.09-.06-.05-.117-.58-.65-.793-.818.447-.143 1.68.758 1.74.798.06.04.104-.04.08-.06 0 0-2.292-1.784-2.546-2.833.82-.078 3.366 2.138 3.366 2.138.043.037.05.005.03-.025-.022-.03-.424-.544-.567-.847.454.15.802.706.85.763.045.055.12.095.058-.033-.062-.127-1.126-1.564-1.115-2.34 1.112.667 2.11 2.296 2.135 2.425.027.13.13.052.078-.05-.05-.103-.515-1.2-.567-1.42.516.25.975 1.068 1.022 1.163.047.096.147.11.1-.026-.062-.173-.872-1.868-.63-2.132.99.455 1.723 2.235 1.747 2.297.023.06.077.078.078-.022 0-.1-.58-1.456-.548-1.64.488.028 1.123 1.155 1.16 1.232.04.078.12.103.08-.006-1.328-3.51-3.15-4.175-5.334-4.69-1.585-.376-4.32-1.24-5.726-3.412-.305-.472-2.134.438-3.646-1.06-1.663-1.644-.428-3.693.637-4.11.337.037.69.413 1.1.715-1.037.437-2.007 1.308-1.47 2.25.414.732 1.734.984 2.487.655-.343-.944-1.3-1.355-1.59-2.173.51.414 1.518.455 1.464.32-1.29-3.22-4.83-2.21-5.5-3.664.326.05 1.156.153 1.182-.217.03-.43-.833-1.425-.768-1.864.363.205.884.618.944.36.06-.258-.632-1.095-.44-1.82.358.16 1.298.798 1.316.508.018-.29-.417-1.11-.07-1.75.338.235.746.71.868.54.122-.17.118-.914.528-1.094.41-.18.926.237 1.018.02.093-.218-.13-.972.23-1.23.36-.255.632-.11.735-.253.103-.144.11-.51.35-.628.242-.117.366.16.44.03.07-.132.53-.89-.345-1.32.604-.14 1.643.7.942 1.744-.52.773-2.164 2.226-2.178 2.353-.016.138 2.17-.26 2.5-.597.33-.335.39-.916.86-1.023.472-.106 1.378.026 1.555-1.19.09.36.222 1.01-.47 1.377.05.43.22.777-.197 1.015-.42.238-2.015.322-2.37.704-.138.15 1.01.372 1.09.398.412.135.896-.235 1.305.114.363.31.264 1.114 1.275.74-.106.294-.692.434-1.23.368-.442-.055-.58.223-1.154-.132-.49-.302-1.19-1.315-3.226-.768-2.035.547-2.21 2.306-1.757 2.93 1.638 2.27 3.204.855 4.46 1.318-.212-.505-.02-1.75.396-2.08-.122.4.513 1.88.86 1.978-.02-1.218.545-2.842 1.233-3.076-.494.514.186 2.39.267 3.316.25-.154.515-.347.698-.66.294 3.233-4.513 6.174-1.15 8.02 2.878 1.583 8.085-2.245 12.204-.707.003.69.172 2.324-3.022 3.31-.13.04-.056.2.086.165 1.814-.422 2.826-1.386 3.086-2.294.66-1.65-1.402-2.97.62-4.22-.65.848-.34 1.938.393 2.017.77.084 1.805-1.42 2.128-2.472.273-.89.08-1.66.927-1.913 0 0-.334.345-.078.448.256.104 1.255-2.007 1.008-2.015-.893-.03-.93.675-1.652.953-.346.134-.634-.054-.812-.416-.716.14-1.323-.507-1.283-.956.763 1.215 1.3.14 1.927-.178.628-.32.95.237 1.887-.06.792-.252 1.083-.132 1.565-.443.483-.31 2.357-1.617 2.926-2.308.35-.423.65-.328 1.092-.39.443-.06.467-.645.506-.99.335.447.314 1.114-.238 1.36.15.307.253.522-.052.748-.532.393-1.036-.073-1.36.162-.507.37-1.442 1.03-1.385 1.253.058.318 1.54-.064 1.976-.19.437-.124.467.217.737.132.27-.085.794-.468 1.024-.348.855.446 1.507.49 1.936-.194-.068.66-.863 1.086-1.427 1-.243-.04-.235.49-.797.61-.46.095-.757-.177-.915-.386-.08-.106-1.453-.086-1.822 0-.454.053.616 1.025 1.41 1.118.484.056.658.333.86.862.354.935.695.572.998.84-.207-.042-.58.1-.774-.012-.196-.113-.368-.362-.53-.364-.214-.004-.786.317-1.17.004-.513-.418-.746-2.825-2.46-2.19-1.64.605-1.992 2.56-2.614 3.612-.55.927-1.322 2.386-1.783 4.784-.512 2.658 2.016 5.62.374 7.246-.036.28 1.296-.987 1.967-.938-.47.384-1.26 1.768-1.874 2.368.144.262 1.36-.413 1.71-.234-1.618 1.155-1.553 1.857-4.716 3.416-.837.412-3.095 1.94-1.88 3.497 1.215 1.558 1.98.68 1.767.376-.178-.256-.028-.91 1.02-.888 1.094.022 5.288-1.56 5.69-.11-1.885-.436-3.488.762-4.468.947.25.31 1.33.834 2.19.96 1.182.175 1.03.805 1.655.908.624.103.98 1.088 1.577.903.865-.268.47-1.2.79-1.385.52.703.854 1.74-.292 2.373-.906.5-1.812-.037-2.384.014-.573.05-.37.184-.776.195-.406.012-.588-.46-.456-.685.133-.224.35-.883-.17-.954-.52-.07-1.443-.712-1.79-.56.123.398 1.13.57 1.374.764.286.23.688.968.258 1.413-1.328 1.376-2.132-.118-4.175-.614-1.245-.302-3.212.406-4.75 1.608.043-.632 2.374-1.933 2.687-2.17.314-.236-.512-.15-1.102.267.054-.48.733-.83.306-.896-.574-.088-1.65.054-2.32.397.11-.286.65-.9 1.44-1.37-.866.005-1.39-.19-1.956-.008.42-.63 1.027-.913 1.29-1.062-.418-.497-.435-2.457-1.18-3.214.442-.06.955.223 1.032.278.334-.588 1.166-2.544.63-3.68m9.182 7.12c3.14.13 2.545-2.556 4.812-2.602.53-.01.913-.322.856-.656-.034-.194-.346-.463-1.03-.28-2.642.707-2.005 3.058-4.638 3.537" fill="#ba6f3a"/></g></g></g><text transform="matrix(1.33 0 0 1.175 0 117.204)" style="-inkscape-font-specification:AndadaSC-Bold" x="17.892" y="-70.598" font-size="9" font-family="Myriad Pro" fill="#ba6f3a"><tspan x="17.892" y="-70.598" font-size="8">DISPARADOR</tspan></text></g></svg>