<?xml version="1.0" encoding="UTF-8" standalone="no"?>
<!-- Created with Inkscape (http://www.inkscape.org/) -->

<svg
   xmlns:dc="http://purl.org/dc/elements/1.1/"
   xmlns:cc="http://creativecommons.org/ns#"
   xmlns:rdf="http://www.w3.org/1999/02/22-rdf-syntax-ns#"
   xmlns:svg="http://www.w3.org/2000/svg"
   xmlns="http://www.w3.org/2000/svg"
   xmlns:sodipodi="http://sodipodi.sourceforge.net/DTD/sodipodi-0.dtd"
   xmlns:inkscape="http://www.inkscape.org/namespaces/inkscape"
   id="svg2"
   version="1.1"
   inkscape:version="0.91pre3 r13670"
   xml:space="preserve"
   width="117.20388"
   height="117.20388"
   viewBox="0 0 117.20388 117.20388"
   sodipodi:docname="Disparadores-anv.svg"><metadata
     id="metadata8"><rdf:RDF><cc:Work
         rdf:about=""><dc:format>image/svg+xml</dc:format><dc:type
           rdf:resource="http://purl.org/dc/dcmitype/StillImage" /></cc:Work></rdf:RDF></metadata><defs
     id="defs6"><clipPath
       clipPathUnits="userSpaceOnUse"
       id="clipPath16"><path
         d="m 0,93.763 93.763,0 L 93.763,0 0,0 0,93.763 Z"
         id="path18"
         inkscape:connector-curvature="0" /></clipPath><clipPath
       clipPathUnits="userSpaceOnUse"
       id="clipPath28"><path
         d="m 75.7121,17.6585 5.3322,0 0,-3.5626 -5.3322,0 0,3.5626 z"
         id="path30"
         inkscape:connector-curvature="0" /></clipPath><clipPath
       clipPathUnits="userSpaceOnUse"
       id="clipPath44"><path
         d="m 4.2282,88.7538 85.9911,0 0,-81.47374 -85.9911,0 0,81.47374 z"
         id="path46"
         inkscape:connector-curvature="0" /></clipPath><linearGradient
       x1="0"
       y1="0"
       x2="1"
       y2="0"
       gradientUnits="userSpaceOnUse"
       gradientTransform="matrix(81.47406,-54.824699,-54.824699,-81.47406,3.7623777,77.815391)"
       spreadMethod="pad"
       id="linearGradient76"><stop
         style="stop-opacity:1;stop-color:#f7f8f9"
         offset="0"
         id="stop78" /><stop
         style="stop-opacity:1;stop-color:#f7f8f9"
         offset="0.0511714"
         id="stop80" /><stop
         style="stop-opacity:1;stop-color:#ffffff"
         offset="0.14072662"
         id="stop82" /><stop
         style="stop-opacity:1;stop-color:#ffffff"
         offset="0.327014"
         id="stop84" /><stop
         style="stop-opacity:1;stop-color:#ffffff"
         offset="0.41481127"
         id="stop86" /><stop
         style="stop-opacity:1;stop-color:#ececee"
         offset="0.684095"
         id="stop88" /><stop
         style="stop-opacity:1;stop-color:#ececee"
         offset="0.85577353"
         id="stop90" /><stop
         style="stop-opacity:1;stop-color:#cecbcb"
         offset="1"
         id="stop92" /></linearGradient><clipPath
       clipPathUnits="userSpaceOnUse"
       id="clipPath100"><path
         d="m 0,93.763 93.763,0 L 93.763,0 0,0 0,93.763 Z"
         id="path102"
         inkscape:connector-curvature="0" /></clipPath></defs><sodipodi:namedview
     pagecolor="#ffffff"
     bordercolor="#666666"
     borderopacity="1"
     objecttolerance="10"
     gridtolerance="10"
     guidetolerance="10"
     inkscape:pageopacity="0"
     inkscape:pageshadow="2"
     inkscape:window-width="1366"
     inkscape:window-height="705"
     id="namedview4"
     showgrid="false"
     inkscape:zoom="2.0135852"
     inkscape:cx="-67.234379"
     inkscape:cy="58.60194"
     inkscape:window-x="-8"
     inkscape:window-y="-8"
     inkscape:window-maximized="1"
     inkscape:current-layer="g10" /><g
     id="g10"
     inkscape:groupmode="layer"
     inkscape:label="125x125REVERS+NOMBRE"
     transform="matrix(1.25,0,0,-1.25,0,117.20388)"><g
       id="g12"><g
         id="g14"
         clip-path="url(#clipPath16)"><g
           id="g20"
           transform="translate(93.7631,10.2235)"><path
             d="m 0,0 c 0,-5.636 -4.527,-10.204 -10.11,-10.204 l -73.543,0 c -5.583,0 -10.11,4.568 -10.11,10.204 l 0,73.335 c 0,5.636 4.527,10.205 10.11,10.205 l 73.543,0 C -4.527,83.54 0,78.971 0,73.335 L 0,0 Z"
             style="fill:#f9a85e;fill-opacity:1;fill-rule:evenodd;stroke:none"
             id="path22"
             inkscape:connector-curvature="0" /></g><g
           id="g24"><g
             id="g26" /><g
             id="g32"><g
               clip-path="url(#clipPath28)"
               id="g34"
               style="opacity:0.69999701"><g
                 transform="translate(80.8416,16.5191)"
                 id="g36"><path
                   d="M 0,0 C -0.688,-1.256 -2.786,-2.457 -4.145,-2.422 -6.027,-2.375 -4.844,-0.65 -3.634,0.181 -2.601,0.891 1.102,2.011 0,0"
                   style="fill:#f7ce99;fill-opacity:1;fill-rule:nonzero;stroke:none"
                   id="path38"
                   inkscape:connector-curvature="0" /></g></g></g></g><g
           id="g40"><g
             id="g42" /><g
             id="g48"><g
               clip-path="url(#clipPath44)"
               id="g50"
               style="opacity:0.69999701"><g
                 transform="translate(90.2193,16.1486)"
                 id="g52"><path
                   d="m 0,0 c 0,-4.898 -4.151,-8.869 -9.272,-8.869 l -67.447,0 c -5.121,0 -9.272,3.971 -9.272,8.869 l 0,63.737 c 0,4.898 4.151,8.868 9.272,8.868 l 67.447,0 C -4.151,72.605 0,68.635 0,63.737 L 0,0 Z"
                   style="fill:#f7ce99;fill-opacity:1;fill-rule:evenodd;stroke:none"
                   id="path54"
                   inkscape:connector-curvature="0" /></g></g></g></g><g
           id="g56"
           transform="translate(88.5705,16.539)"><path
             d="m 0,0 c 0.037,-0.81 -0.547,-1.489 -1.306,-1.519 l -76.244,-9.27 c -0.757,-0.03 -1.401,0.602 -1.438,1.412 l -2.466,54.273 c -0.037,0.808 0.547,1.487 1.304,1.516 l 76.53,2.98 c 0.759,0.029 1.402,-0.602 1.439,-1.41 L 0,0 Z"
             style="fill:#ba6f3a;fill-opacity:1;fill-rule:nonzero;stroke:none"
             id="path58"
             inkscape:connector-curvature="0" /></g><g
           id="g60"
           transform="translate(16.2288,15.4707)"><path
             d="m 0,0 -10.774,-1.323 2.591,-8.462 7.188,8.145"
             style="fill:#936b4f;fill-opacity:1;fill-rule:nonzero;stroke:none"
             id="path62"
             inkscape:connector-curvature="0" /></g></g></g><g
       id="g64"><g
         id="g66"><g
           id="g72"><g
             id="g74"><path
               d="m 7.944,84.245 c -0.784,0 -1.419,-0.822 -1.419,-1.836 l 0,0 0,-68.112 c 0,-1.016 0.635,-1.839 1.419,-1.839 l 0,0 79.208,7.896 c 0.785,0 1.421,0.822 1.421,1.838 l 0,0 0,60.217 c 0,1.014 -0.636,1.836 -1.421,1.836 l 0,0 -79.208,0 z"
               style="fill:url(#linearGradient76);stroke:none"
               id="path94"
               inkscape:connector-curvature="0" /></g></g></g></g><g
       id="g96"><g
         id="g98"
         clip-path="url(#clipPath100)"><g
           id="g104"
           transform="translate(22.5075,21.8821)"><path
             d="M 0,0 13.074,-8.589 -14.376,-16.29 0,0 Z"
             style="fill:#995b2f;fill-opacity:1;fill-rule:nonzero;stroke:none"
             id="path106"
             inkscape:connector-curvature="0" /></g><g
           id="g108"
           transform="translate(6.6888,11.4204)"><path
             d="M 0,0 -3.848,8.786 0.025,11.239 0,0 Z"
             style="fill:#936b4f;fill-opacity:1;fill-rule:nonzero;stroke:none"
             id="path110"
             inkscape:connector-curvature="0" /></g><g
           id="g112"
           transform="translate(42.4936,40.298)"><path
             d="M 0,0 C -3.041,1.617 -3.328,2.781 -3.572,4.133 -3.809,5.444 -2.448,5.979 -1.848,5.285 -1.339,4.698 -2.61,4.28 -1.97,3.796 c 0.224,-0.17 0.468,-0.208 0.588,-0.157 0.331,0.137 0.21,0.45 0.355,0.326 0.479,-0.412 -0.183,-2.209 -0.431,-2.789 0.297,0.39 0.909,1.23 1.072,2.066 0.285,1.467 -0.946,2.57 -1.755,2.776 -1.556,0.396 -2.108,-1.209 -1.892,-2.099 0.011,-0.045 -0.063,-0.06 -0.091,-0.016 -0.533,0.86 -0.111,2.312 -0.136,3.819 -0.026,1.547 -1.01,2.762 -2.379,2.841 2.06,-0.701 1.129,-2.34 1.138,-4.196 0.01,-1.83 1.888,-3.76 1.751,-3.849 -1.368,1.233 -3.165,1.466 -4.012,0.782 -0.809,-0.655 -0.234,-1.887 0.477,-2.371 1.405,-0.957 2.741,-0.645 3.883,-2.427 0.087,1.521 -1.305,2.146 -1.849,2.483 0.12,0.13 0.552,0.173 1.057,0.251 -0.536,0.525 -1.749,0.252 -2.588,0.493 -0.759,0.217 -1.18,0.799 -0.637,1.295 0.328,0.299 1.259,0.333 2.3,-0.113 1.582,-0.68 2.448,-2.34 5.142,-3.573 -1.479,-1.084 -1.317,-2.299 -0.675,-2.867 0.213,2.618 2.936,1.562 3.545,0.699 0,0 0.61,0.304 0.926,0.414 C 2.738,-0.815 -1.044,0.688 0.505,2.167 0.014,2.105 -0.906,1.324 0.039,0.104 m 6.86,-5.831 c -0.531,1.219 -3.103,2.418 -4.576,0.599 -0.634,-0.784 -0.056,-0.998 0.126,-0.989 0.447,0.021 0.428,0.618 0.698,0.928 0.429,0.492 1.408,1.237 3.752,-0.538 m -2.108,0.88 c 1.081,-1.6 -0.38,-3.382 -1.371,-4.409 l 0.365,-0.789 c 2.774,2.485 2.413,4.583 1.978,4.873 -0.305,0.161 -0.972,0.325 -0.972,0.325 m 0.014,-2.062 c -0.73,-0.079 -1.916,-0.324 -2.606,-0.055 0.145,-0.428 1.2,-2 1.106,-2.158 0.582,0.574 1.564,1.737 1.5,2.213 m -0.842,-3.612 c 1.193,0.374 2.246,-0.232 2.441,-1.266 0.457,-2.414 -2.615,-2.925 -2.487,-4.208 0.228,0.248 1.026,0.403 1.128,0.325 0.102,-0.078 -0.439,-1.002 -0.083,-1.545 0.263,0.283 1.06,0.764 1.133,0.456 0.073,-0.308 -0.211,-1.29 0.091,-1.765 0.194,0.369 0.72,0.503 0.677,0.312 -0.115,-0.513 0.832,-1.601 0.833,-2.409 0.694,0.703 0.221,1.639 0.288,2.03 0.068,0.39 1.879,-1.296 2.301,-1.78 0.423,-0.483 0.886,-0.276 1.158,-0.583 0.273,-0.307 0.657,-0.387 0.956,-0.539 0.298,-0.153 0.185,-0.789 0.307,-0.997 0.25,0.255 0.295,0.954 0.132,1.18 -0.163,0.226 0.285,0.6 -0.125,1.015 -0.338,0.34 -0.933,0.197 -1.443,0.356 -0.278,0.087 -1.343,0.587 -1.089,0.952 0.254,0.364 1.891,-0.623 2.329,-0.538 0.5,0.097 0.696,-0.365 1.272,-0.207 0.576,0.157 0.943,-0.07 1.211,-0.463 0.106,0.418 -0.207,0.947 -0.874,0.984 -0.323,0.018 -0.095,0.6 -0.616,0.782 -0.627,0.218 -0.553,-0.431 -1.325,-0.271 -0.699,0.146 -1.197,0.148 -1.474,0.269 -0.277,0.121 0.827,0.462 1.101,0.486 0.273,0.024 0.716,-0.186 1.028,0.082 0.339,0.291 -0.003,0.644 0.208,0.937 0.21,0.291 0.687,0.672 1.346,0.235 0.049,0.277 -1.022,0.784 -1.694,0.177 -0.23,-0.207 -0.493,0.182 -0.962,-0.188 -0.468,-0.37 -0.716,-1.401 -3.21,-0.974 -2.493,0.426 -1.227,3.975 -0.336,4.762 0,0 0.195,-0.781 1.416,-1.414 -0.492,0.48 -0.346,3.02 -0.346,3.02 0,0 0.72,-0.779 1.388,-0.673 -1.498,1.285 -1.561,4.728 -4.434,4.889 C 5.79,-8.02 4.528,-9.839 3.856,-10.225 3.81,-10.341 3.963,-10.521 3.963,-10.521 m 14.376,7.617 c 0.346,-0.18 0.511,-0.134 0.732,-0.241 0.362,-0.175 0.192,-1.781 1.902,-2.153 -2.287,2.377 0.783,3.301 1.649,3.886 0.908,0.612 2.715,1.884 3.608,2.296 0.361,0.166 0.505,0.016 0.476,-0.149 -0.209,-1.168 -1.319,-1.145 -1.487,-1.908 -0.111,-0.504 0.454,-0.701 0.435,-0.864 -0.055,-0.446 0.516,-0.994 0.906,-1.095 -0.467,0.646 -0.468,0.948 -0.108,1.376 0.36,0.429 -0.071,0.826 -0.003,1.008 0.286,0.759 1.025,1.475 1.262,2.212 0.088,0.272 1.827,0.727 2.217,0.811 0.518,0.111 0.62,-0.006 1.028,0.291 0.341,0.248 0.555,-0.342 1.154,0.093 0.753,0.545 1.347,-0.224 1.469,-0.432 C 33.694,2.738 32.895,3.383 32.14,3.099 32.041,3.507 31.647,3.768 31.223,3.666 30.799,3.563 30.724,3.034 30.245,2.991 29.176,2.894 28.963,2.431 28.111,2.472 c -0.171,0.008 0.375,1.105 0.834,1.513 0.713,0.633 0.295,0.821 0.736,1.029 0.17,0.08 0.578,0.035 0.88,0.522 0.301,0.487 -0.52,1.222 0.975,1.121 -0.629,0.419 -1.208,0.23 -1.461,0.02 C 29.69,6.602 29.456,6.582 29.202,6.218 28.948,5.854 29.342,5.706 28.917,5.293 28.365,4.757 28.438,4.412 28.255,4.215 28.071,4.019 27.835,3.317 27.605,3.401 27.457,3.454 27.549,4.63 27.543,5.174 27.537,5.719 27.821,6.424 27.755,6.972 27.688,7.521 27.536,7.947 28.47,8.086 27.709,8.247 27.35,7.973 27.149,7.831 26.949,7.689 26.488,7.874 26.304,7.392 26.099,6.854 26.921,6.607 26.805,6.144 26.689,5.68 26.916,5.266 26.982,4.756 27.049,4.246 26.98,3.154 26.701,2.74 26.261,2.086 24.806,0.72 22.728,-0.148 c -2.407,-1.006 -3.126,-0.509 -3.847,-0.211 0,0 -0.602,-1.793 -0.542,-2.545 M 11.421,5.09 C 10.912,4.915 8.273,4.919 7.499,5.08 6.725,5.242 5.281,6.482 6.252,7.849 7.223,9.216 8.814,7.855 9.55,9.252 c 1.076,2.039 -3,4.866 -2.937,8.603 C 5.915,17.347 6.301,15.631 6.044,15.947 4.209,18.209 1.061,23.475 -0.008,25.634 -0.359,25.296 -0.56,24.875 0.146,23.55 1.84,20.206 4.723,15.381 4.723,15.381 4.629,15.289 3.363,16.843 3.363,16.843 3.135,16.481 4.334,14.947 4.635,14.509 4.657,14.478 4.64,14.438 4.603,14.475 3.851,15.25 -2.342,23.2 -2.342,23.2 -2.642,22.889 -2.508,22.079 -1.61,20.813 0.078,18.305 3.338,14.304 4.236,13.427 3.811,13.524 2.277,15.256 2.277,15.256 2.043,14.794 3.291,13.558 3.514,13.33 3.539,13.304 3.523,13.269 3.496,13.289 2.81,13.799 -3.868,20.374 -3.868,20.374 -4.15,19.938 -4.144,19.539 -2.722,17.971 -0.86,15.92 2.018,13.055 2.307,12.899 2.22,12.849 0.906,13.669 0.817,13.742 0.81,13.347 2.431,12.165 2.697,11.93 2.731,11.9 2.693,11.875 2.675,11.885 2,12.29 -3.756,16.174 -4.488,16.709 c -0.066,-0.59 0.265,-1.133 1.244,-1.826 0.98,-0.693 6.291,-4.43 6.481,-4.602 C 3.427,10.11 2.059,10.831 0.652,11.71 0.751,11.246 1.969,10.447 2.981,9.849 2.999,9.838 2.985,9.797 2.946,9.81 2.221,10.06 -3.689,13.262 -4.133,13.365 -4.152,12.967 -3.358,12.334 -2.394,11.748 -1.195,11.019 2.969,8.735 3.144,8.559 2.965,8.538 1.474,9.189 1.098,9.337 1.378,8.93 2.378,8.329 3.127,7.93 3.164,7.91 3.151,7.857 3.11,7.869 1.942,8.207 -0.952,8.834 -1.878,9.079 -1.341,8.1 2.515,7.115 3.011,6.988 3.046,6.979 3.056,6.947 3.024,6.943 2.783,6.916 1.695,6.795 1.387,6.773 1.803,6.503 3.016,6.43 3.579,6.271 3.615,6.261 3.638,6.215 3.576,6.213 3.005,6.196 -0.375,6.122 -0.743,5.955 0.678,5.35 2.968,5.359 4.061,5.378 4.149,5.38 4.255,5.309 4.105,5.27 3.955,5.231 2.867,5.048 2.69,5.026 3.141,4.691 4.011,4.841 4.082,4.86 4.154,4.879 4.266,4.824 4.104,4.773 4.104,4.773 1.618,3.939 1.046,3.327 2.527,2.992 5.05,4.094 5.05,4.094 5.133,4.134 5.171,4.103 5.14,4.033 5.09,3.917 4.56,3.385 4.347,3.216 4.793,3.073 6.027,3.974 6.087,4.014 6.147,4.054 6.19,3.975 6.167,3.954 6.167,3.954 3.874,2.17 3.62,1.121 4.441,1.044 6.986,3.26 6.986,3.26 7.029,3.297 7.036,3.265 7.015,3.235 6.994,3.206 6.592,2.691 6.449,2.388 6.903,2.538 7.251,3.094 7.298,3.151 7.344,3.207 7.42,3.247 7.357,3.119 7.294,2.992 6.23,1.555 6.241,0.78 7.353,1.446 8.35,3.075 8.376,3.204 8.403,3.334 8.505,3.256 8.454,3.154 8.404,3.051 7.939,1.953 7.887,1.735 8.402,1.983 8.861,2.802 8.908,2.897 8.955,2.993 9.055,3.007 9.007,2.871 8.946,2.699 8.136,1.004 8.379,0.74 c 0.99,0.455 1.722,2.235 1.746,2.297 0.024,0.061 0.078,0.078 0.079,-0.022 0,-0.1 -0.581,-1.456 -0.548,-1.641 0.488,0.029 1.123,1.156 1.161,1.233 0.038,0.078 0.119,0.103 0.078,-0.006 C 9.568,-0.908 7.746,-1.573 5.562,-2.089 3.977,-2.464 1.241,-3.328 -0.164,-5.5 c -0.305,-0.472 -2.134,0.438 -3.646,-1.059 -1.663,-1.645 -0.428,-3.694 0.637,-4.11 0.336,0.036 0.689,0.412 1.099,0.714 -1.037,0.437 -2.007,1.308 -1.471,2.251 0.415,0.731 1.735,0.983 2.488,0.654 -0.343,-0.944 -1.301,-1.355 -1.591,-2.173 0.512,0.414 1.519,0.455 1.465,0.321 -1.291,-3.221 -4.83,-2.211 -5.501,-3.665 0.326,0.049 1.156,0.152 1.182,-0.218 0.03,-0.431 -0.833,-1.425 -0.768,-1.864 0.363,0.206 0.884,0.619 0.944,0.361 0.06,-0.258 -0.632,-1.095 -0.44,-1.82 0.358,0.159 1.298,0.798 1.316,0.508 0.018,-0.289 -0.417,-1.111 -0.07,-1.749 0.338,0.234 0.746,0.708 0.868,0.538 0.122,-0.169 0.118,-0.913 0.528,-1.093 0.41,-0.179 0.926,0.237 1.018,0.02 0.093,-0.218 -0.129,-0.972 0.231,-1.229 0.359,-0.256 0.631,-0.11 0.734,-0.254 0.103,-0.145 0.109,-0.512 0.351,-0.629 0.241,-0.117 0.365,0.161 0.438,0.03 0.072,-0.132 0.531,-0.89 -0.344,-1.32 0.604,-0.14 1.643,0.699 0.942,1.744 -0.519,0.773 -2.164,2.226 -2.178,2.353 -0.016,0.139 2.17,-0.26 2.5,-0.596 0.331,-0.335 0.39,-0.916 0.861,-1.023 0.471,-0.106 1.377,0.026 1.554,-1.19 0.089,0.359 0.222,1.009 -0.469,1.377 0.05,0.431 0.22,0.777 -0.198,1.015 -0.419,0.238 -2.015,0.322 -2.369,0.704 -0.139,0.149 1.008,0.372 1.089,0.398 0.412,0.135 0.896,-0.235 1.305,0.114 0.363,0.311 0.264,1.114 1.275,0.739 -0.106,0.295 -0.692,0.435 -1.229,0.369 -0.443,-0.055 -0.581,0.223 -1.155,-0.132 -0.489,-0.302 -1.191,-1.315 -3.226,-0.768 -2.035,0.547 -2.209,2.306 -1.757,2.93 1.638,2.269 3.204,0.855 4.459,1.318 -0.211,-0.505 -0.019,-1.749 0.397,-2.08 -0.121,0.4 0.514,1.881 0.861,1.978 -0.02,-1.218 0.545,-2.842 1.233,-3.076 -0.494,0.514 0.186,2.39 0.267,3.316 0.249,-0.154 0.515,-0.347 0.698,-0.659 0.294,3.232 -4.513,6.173 -1.151,8.02 2.879,1.582 8.086,-2.246 12.205,-0.708 0.003,0.69 0.172,2.324 -3.022,3.311 -0.129,0.04 -0.056,0.199 0.086,0.164 1.814,-0.422 2.826,-1.386 3.086,-2.294 0.661,-1.649 -1.402,-2.971 0.619,-4.219 -0.649,0.847 -0.339,1.937 0.394,2.016 0.769,0.084 1.805,-1.419 2.128,-2.472 0.273,-0.891 0.081,-1.66 0.927,-1.914 0,0 -0.334,0.345 -0.078,0.448 0.256,0.104 1.255,-2.007 1.008,-2.015 -0.893,-0.03 -0.929,0.675 -1.652,0.953 -0.346,0.134 -0.634,-0.054 -0.812,-0.416 -0.716,0.139 -1.323,-0.507 -1.283,-0.956 0.763,1.214 1.299,0.14 1.927,-0.179 0.628,-0.319 0.951,0.237 1.887,-0.061 0.792,-0.251 1.083,-0.131 1.565,-0.442 0.483,-0.31 2.357,-1.616 2.926,-2.307 0.349,-0.423 0.649,-0.328 1.092,-0.389 0.443,-0.061 0.467,-0.646 0.506,-0.992 0.335,0.448 0.314,1.115 -0.238,1.361 0.151,0.307 0.253,0.522 -0.052,0.748 -0.532,0.393 -1.036,-0.073 -1.359,0.162 -0.508,0.37 -1.443,1.029 -1.386,1.253 0.057,0.318 1.538,-0.064 1.975,-0.189 0.437,-0.125 0.467,0.216 0.737,0.131 0.27,-0.085 0.794,-0.468 1.024,-0.348 0.855,0.447 1.507,0.492 1.936,-0.193 -0.068,0.66 -0.863,1.086 -1.427,0.999 -0.243,-0.038 -0.235,0.492 -0.797,0.61 -0.459,0.096 -0.756,-0.176 -0.914,-0.385 -0.08,-0.106 -1.453,-0.086 -1.822,0 -0.454,0.053 0.616,1.025 1.409,1.118 0.485,0.056 0.659,0.333 0.86,0.862 0.355,0.935 0.696,0.572 0.999,0.84 -0.208,-0.042 -0.58,0.101 -0.775,-0.012 -0.196,-0.113 -0.368,-0.362 -0.53,-0.364 -0.214,-0.004 -0.786,0.317 -1.17,0.004 -0.513,-0.418 -0.746,-2.825 -2.46,-2.191 -1.639,0.606 -1.992,2.561 -2.614,3.613 -0.549,0.927 -1.322,2.386 -1.783,4.784 -0.511,2.658 2.017,5.621 0.375,7.246 -0.036,0.281 1.296,-0.987 1.967,-0.938 -0.471,0.384 -1.26,1.768 -1.875,2.368 0.144,0.262 1.361,-0.413 1.71,-0.234 -1.618,1.155 -1.553,1.857 -4.716,3.416 -0.837,0.412 -3.095,1.939 -1.88,3.497 1.215,1.559 1.98,0.682 1.767,0.377 -0.178,-0.256 -0.028,-0.909 1.021,-0.888 1.093,0.022 5.287,-1.559 5.688,-0.109 -1.884,-0.437 -3.487,0.761 -4.467,0.946 0.252,0.31 1.332,0.834 2.191,0.96 1.182,0.175 1.031,0.805 1.655,0.908 0.624,0.103 0.979,1.088 1.577,0.903 0.865,-0.268 0.469,-1.2 0.789,-1.385 0.52,0.702 0.855,1.738 -0.291,2.372 -0.906,0.501 -1.812,-0.037 -2.384,0.014 -0.573,0.051 -0.371,0.184 -0.776,0.195 -0.406,0.012 -0.588,-0.461 -0.456,-0.685 0.133,-0.224 0.351,-0.883 -0.17,-0.954 -0.52,-0.071 -1.443,-0.712 -1.789,-0.561 0.122,0.399 1.128,0.57 1.373,0.765 0.286,0.229 0.688,0.968 0.258,1.413 -1.328,1.376 -2.132,-0.118 -4.175,-0.614 -1.246,-0.302 -3.213,0.406 -4.752,1.608 0.044,-0.632 2.375,-1.933 2.688,-2.17 0.314,-0.236 -0.512,-0.149 -1.102,0.267 0.054,-0.48 0.733,-0.832 0.306,-0.897 -0.575,-0.088 -1.651,0.054 -2.321,0.397 0.111,-0.287 0.65,-0.9 1.44,-1.372 -0.866,0.006 -1.39,-0.188 -1.956,-0.007 0.419,-0.631 1.027,-0.913 1.291,-1.062 -0.419,-0.497 -0.436,-2.457 -1.182,-3.214 0.443,-0.061 0.956,0.223 1.033,0.278 0.334,-0.588 1.166,-2.544 0.631,-3.681 m 9.181,7.12 c 3.141,0.13 2.545,-2.555 4.812,-2.601 0.53,-0.011 0.913,-0.322 0.856,-0.656 -0.034,-0.194 -0.346,-0.463 -1.03,-0.28 -2.642,0.707 -2.005,3.058 -4.638,3.537"
             style="fill:#ba6f3a;fill-opacity:1;fill-rule:nonzero;stroke:none"
             id="path114"
             inkscape:connector-curvature="0" /></g></g></g><text
       transform="scale(1.0638693,-0.93996508)"
       style="font-variant:normal;font-weight:normal;font-stretch:normal;font-size:9px;font-family:'Myriad Pro';-inkscape-font-specification:AndadaSC-Bold;writing-mode:lr-tb;fill:#ba6f3a;fill-opacity:1;fill-rule:nonzero;stroke:none"
       id="text116"
       x="17.89152"
       y="-70.598259"><tspan
         sodipodi:role="line"
         id="tspan118"
         x="17.89152"
         y="-70.598259"
         style="font-size:8px">DISPARADOR</tspan></text>
</g></svg>