<svg xmlns="http://www.w3.org/2000/svg" preserveAspectRatio="xMinYMin meet" viewBox="0 0 124.61999 124.90699" enable-background="new 0 0 595.28 841.89"><title>Disparador exploracion</title><defs><clipPath><path d="M103.533 219.087H473.32v369.788H103.534z"/></clipPath><clipPath><path d="M103.533 219.087H473.32v369.788H103.534z"/></clipPath><clipPath><path d="M103.533 219.087H473.32v369.788H103.534z"/></clipPath><clipPath><circle r="45.061" cy="370.696" cx="322.602"/></clipPath><clipPath><circle r="45.061" cy="370.696" cx="322.602"/></clipPath></defs><path d="M39.183 69.823c.068 1.885-4.906 3.518-11.11 3.647-6.206.128-11.293-1.298-11.362-3.183-.066-1.887 4.91-3.52 11.114-3.647 6.205-.128 11.29 1.296 11.36 3.183zM108.38 69.656c.08 2.223-5.346 4.14-12.123 4.28-6.776.14-12.336-1.55-12.417-3.774-.08-2.225 5.347-4.14 12.123-4.28 6.777-.14 12.336 1.548 12.417 3.774z" fill="#b4ad96"/><path fill="#a48a7b" d="M27.138 33.037h70.884V63.66H27.138z"/><path fill="#f0ebd2" d="M25.897 34.47h70.885V63.1H25.897z"/><path d="M39.126 27.174l-20.704 1.3 3.256 41.552s2.273-.77 3.213-.658c.94.11 1.51.464 1.743.454.233-.01.71-.932 2.454-.44 1.744.493 3.223.545 3.517.307.293-.24.597-1.38 1.89-.68 1.295.697 2.486 1.062 2.486 1.062s-1.184-4.504-2.667-6.737c-1.483-2.233-8.658-9.047-8.915-9.375-.257-.327.1-.755.1-.755s7.792-3.896 10.685-8.943c2.893-5.047 3.18-14.952 3.18-14.952l-.237-2.136zM85.9 27.777l18.2-.21.958 39.903s-2.012-.61-2.805-.454c-.792.157-1.247.524-1.446.527-.2.004-.69-.85-2.135-.285-1.444.563-2.702.692-2.975.482-.272-.21-.637-1.28-1.678-.545-1.04.735-2.026 1.147-2.026 1.147s.597-4.352 1.66-6.558c1.06-2.207 6.565-9.083 6.754-9.41.19-.326-.156-.714-.156-.714s-7.01-3.288-9.943-7.936c-2.933-4.65-4.085-14.065-4.085-14.065l-.326-1.884z" fill="#e55a4a"/><path d="M24.6 34.37l1.86-1.383s.1 4.446-.506 7.166c-.604 2.72-1.548 6.456-2.15 7.216-.605.76.352-.1.758-2.727.408-2.625.04-10.275.04-10.275z" fill="#e6352c"/><g fill="#e6352c"><path d="M21.848 69.09s.663 0 .81-1.513c.148-1.514.296.12.738.955.442.836.737 1.074.737 1.074s-.516-.517-1.18-.517H21.85zM29.98 68.84s.665 0 .812-1.512c.148-1.513.296.12.738.955.442.836 1.43 1.772 1.43 1.772s-1.234-1.62-2.045-1.474c-.63.115-.934.26-.934.26zM24.723 69.288s.7-.438 1.272-.26c.57.18 1.216.518 1.4.54.184.018-.59-.29-1.18-.768-.59-.477-1.07-.666-1.253-.408-.184.26-.24.896-.24.896z"/></g><g fill="#e6352c"><path d="M102.478 68.89s-.663 0-.81-1.512c-.148-1.513-.296.12-.738.955-.442.836-.737 1.075-.737 1.075s.515-.518 1.18-.518h1.105zM94.344 68.642s-.663 0-.81-1.513c-.148-1.515-.295.117-.737.953s-1.432 1.77-1.432 1.77 1.234-1.617 2.046-1.47c.63.112.935.258.935.258zM99.604 69.09s-.7-.44-1.273-.26c-.57.18-1.214.518-1.4.538-.183.02.59-.29 1.18-.766.59-.478 1.07-.667 1.254-.41.185.26.24.897.24.897z"/></g><path d="M101.467 54.154c.105-.398.052-.585-.28-.27-.96-.906-3.647-3.397-4.673-6.063-1.477-3.833-1.605-15.08-1.605-15.08l-5.204-1.944s.386 6.53 2.41 10.496c1.99 3.903 7.152 11.422 8.968 12.696-.028.03-.056.06-.087.096-.885 1.01-4.325 6.635-4.423 6.794 0 0-.197.372.688 0 .884-.37 3.046-4.246 3.637-5.36.24-.458.45-.95.55-1.304.11.06.107.036.016-.058zM22.1 54.353c-.104-.398-.052-.585.28-.27.962-.906 3.647-3.397 4.674-6.063 1.477-3.835 1.605-15.082 1.605-15.082l5.2-1.943s-.386 6.53-2.408 10.495c-1.99 3.902-7.155 11.42-8.97 12.695.028.03.057.06.087.096.884 1.01 4.324 6.636 4.422 6.796 0 0 .197.37-.688 0-.884-.372-3.046-4.246-3.636-5.36-.243-.458-.452-.952-.553-1.305-.11.06-.107.038-.016-.056zM23.838 49.624l-2.875 3.582.516.598s2.43-3.9 2.357-4.18zM98.996 34.69l-1.81-1.372s-.26 4.443.246 7.16c.506 2.714 1.315 6.444 1.89 7.202.577.756-.348-.1-.66-2.72-.312-2.623.334-10.27.334-10.27zM100.642 49.697l2.547 3.654-.57.585s-2.078-3.96-1.98-4.237z" fill="#e6352c"/><path stroke-miterlimit="10" d="M164.353 310.806l19.148 4.813s-.877 1.325-.437 2.155c.44.83-18.486-1.827-18.486-1.827" fill="#73a5a3" stroke="#73a5a3" stroke-width="1.027" transform="matrix(.236 0 0 .178 -18.829 -2.264)"/><path stroke-miterlimit="10" d="M522.54 311.254l-20.396 4.812s.936 1.33.468 2.158c-.468.83 19.694-1.827 19.694-1.827" fill="#73a5a3" stroke="#73a5a3" stroke-width="1.06" transform="matrix(.236 0 0 .178 -18.829 -2.264)"/><path d="M96.19 65.908s1.473-1.543 2.456-3.75c.982-2.21 3.684-7.77 3.684-7.77s-4.105 6.91-4.715 8.18" fill="#e6352c"/><path d="M21.003 54.412c4.106 6.91 4.14 6.46 4.752 7.732.64 1.33 1.423 3.338 1.423 3.338s-1.473-1.543-2.455-3.75c-.982-2.208-3.72-7.32-3.72-7.32zM102.133 54.256" fill="#e6352c"/><path fill="#f3f3f3" d="M80.27 67.545l1.266 17.864h-18.4l.497-17.743 1.094-.123H80.07z"/><g clip-rule="evenodd" fill-rule="evenodd" transform="matrix(.236 0 0 .178 -18.829 -2.264)"><ellipse transform="matrix(.078 -.997 .997 .078 -86.184 750.572)" cx="362.612" cy="421.871" rx="6.769" ry="6.166"/><path d="M358.062 426.51s.504-3.8 3.887-5.414c4.102-1.957 6.827.46 6.827.46l.1-.148-.294-2.22s-3.248-2.062-6.917-.294c-3.437 1.656-4.397 3.993-4.8 5.967 0 0 .556 1.3.967 1.575l.228.077zM375.85 452.11l-8.22-26.382s-1.703-1.266-4.034-.264c-2.076.892-2.226 3.055-2.226 3.055l9.07 25.897c0-.002 3.268 1.31 5.41-2.31z" fill="#4c4c4c"/></g><g fill="#e6e6e5"><path d="M69.82 66.967s-.937-.15-1.235.227c-1.193 1.502 1.142 6.6 1.142 6.6l2.92-3.222-2.884-2.673.057-.934zM75.16 67.05s.92-.233 1.218.144c1.193 1.502-1.142 6.598-1.142 6.598l-2.588-3.22 2.51-2.86v-.663z"/></g><path d="M64.248 67.712s-3.043 0-3.97 2.105c-.77 1.748-4.696 10.07-3.148 11.713.458.487 1.756 4.088 9.667-.938M80.097 67.712s3.043 0 3.97 2.105c.77 1.748 2.517 13.42 2.73 15.8H81.48" fill="#f3f3f3"/><path d="M79.797 71.965s.07.012.2.047c.13.037.322.09.53.214.102.062.21.144.28.26.012.03.032.056.04.092.008.03.014.06.02.09l.045.193.094.424c.03.15.042.31.068.473.193 1.323.425 3.074.66 4.83.23 1.757.46 3.513.634 4.83.02.164.047.32.06.472.01.15.022.293.032.427l.053.696.04.606s-.04-.22-.113-.6c-.036-.193-.08-.426-.127-.69-.025-.135-.05-.277-.08-.426-.025-.15-.04-.308-.062-.473l-.632-4.827c-.234-1.754-.468-3.514-.658-4.822-.055-.326-.085-.63-.117-.9l-.022-.192-.01-.093c0-.024-.017-.052-.025-.077-.048-.102-.137-.184-.227-.247-.184-.127-.365-.2-.487-.242-.123-.044-.192-.062-.192-.062zM63.84 73.793c-.098.445-.202.888-.305 1.332l-.157.666c-.058.223-.13.44-.185.663l-.346 1.325c-.06.22-.11.442-.16.663l-.08.334c-.026.11-.045.22-.068.33l-.14-.077 4.526-1.57.123-.042.016.1.596 3.473.01.053-.063.025-1.12.43-.558.215c-.188.07-.38.134-.568.202l-2.274.804 2.2-.915c.184-.073.366-.152.552-.224l.56-.215 1.118-.43-.053.078-.596-3.473.14.058-4.527 1.57-.17.058.03-.135c.024-.11.043-.225.07-.336l.08-.334c.05-.222.1-.445.16-.666L63 76.42l.09-.33c.03-.11.06-.22.093-.33l.216-.656c.143-.437.287-.875.44-1.31z" fill="#cdcccc"/><path d="M70.787 78.9c.224.347.068.753-.35.906l-1.993.766c-.417.153-.26-.286-.486-.633l-.912-1.416c-.224-.347-.068-.752.35-.905l1.32-.486c.638-.282 1.238-.157 1.462.19l.61 1.575z" fill="#ecbfab"/><path d="M66.565 81.49c.49.034 1.19-.423 1.614-.397.423.027.993-.245 1.096-.423.17-.29-1.555-3.05-2.057-3.275-.503-.226-.977.217-1.42.316-.34.077-1.078.044-1.097.365-.016.29 1.396 3.384 1.86 3.416z" fill="#e6e6e5"/><path d="M83.178 59.796c-.072.518-.182 1.016-.345 1.488.648-.55 1.215-1.154 1.69-1.804-.348.202-.77.32-1.227.32-.04 0-.078-.002-.118-.004zM61.424 56.288c.313.897 1.066 2.59 1.066 2.59-.223-.634-.27-2.857-.28-3.753 7.983.763 18.187-1.326 19.352-1.573.103.117.202.236.297.358.82 1.973.656 5.572.656 5.572.29-.575 1.18-2.847 1.18-2.847.03-.08.055-.188.073-.322.91.17 1.6.824 1.654 1.62.453-1 .702-2.07.702-3.187 0-5.422-5.8-9.817-12.954-9.817h-.042c-4.658 0-8.74 1.862-11.024 4.66-3.064 1.13-4.812.59-4.812.59.874.58 2.186 1.12 2.186 1.12-2.1.93-6.11.04-6.11.04 1.233 1.922 3.756 2.99 6.81 3.516.007.52.068 1.03.178 1.526.235-.073.49-.116.756-.116.106 0 .21.01.31.02z" fill="#b27231"/><path d="M83.77 56.313c-.018.134-.043.243-.074.322 0 0-.89 2.272-1.18 2.847 0 0 .166-3.6-.657-5.572-.097-.122-.196-.24-.3-.358-1.165.247-11.368 2.336-19.35 1.573.01.896.056 3.12.28 3.753 0 0-.754-1.693-1.067-2.59-.102-.012-.205-.02-.31-.02-.267 0-.52.042-.756.115-.805.253-1.38.896-1.38 1.65 0 .977.957 1.768 2.136 1.768.125 0 .246-.01.365-.025.483 3.045 2.406 5.403 8.1 5.955l-.167 2.775 2.897 2.485 2.51-2.485V65.76c5.1-.407 7.203-2.126 8.013-4.476.163-.472.273-.97.345-1.488.04.002.078.005.118.005.456 0 .878-.117 1.225-.32.55-.32.91-.846.91-1.445 0-.034-.003-.067-.006-.1-.054-.797-.742-1.45-1.654-1.62z" fill="#ecbfab"/><g fill="#333"><path d="M68.507 56.505l.014.047c.008.03.03.073.03.133l.005.1c0 .037-.007.076-.01.118-.015.084-.04.18-.092.28-.052.097-.12.205-.22.304-.096.102-.224.195-.37.28-.147.084-.32.15-.505.198-.094.02-.188.043-.287.052-.05.006-.097.013-.147.014l-.074.005h-.04l-.017.002h-.034c-.15-.002-.394-.024-.57-.07-.185-.05-.358-.115-.505-.2-.146-.083-.274-.176-.37-.28-.1-.098-.168-.205-.22-.304-.05-.1-.077-.195-.09-.28-.005-.04-.01-.08-.013-.116.004-.036.006-.07.008-.1 0-.058.022-.104.027-.135l.014-.045.02.046c.014.03.027.073.056.125.024.052.063.113.106.18.047.065.107.134.174.206.074.07.155.14.253.202.093.067.207.12.324.172.12.05.25.085.383.115.146.024.24.035.433.04-.03-.002-.008 0-.014-.002h.05l.052-.002c.036 0 .07-.004.105-.008.07-.005.14-.017.207-.028.134-.03.265-.066.384-.115.117-.05.23-.106.324-.172.098-.063.18-.133.254-.202.067-.07.127-.14.173-.206.043-.067.082-.126.105-.178.03-.05.043-.098.056-.127l.02-.045zM78.707 56.505l.014.047c.007.03.03.073.03.133l.005.1c0 .037-.007.076-.01.118-.015.084-.042.18-.092.28-.052.097-.12.205-.22.304-.096.102-.224.195-.37.28-.148.084-.32.15-.505.198-.186.047-.385.068-.584.072-.12-.006-.167-.004-.29-.02-.108-.008-.2-.032-.294-.052-.186-.048-.36-.114-.506-.198-.146-.084-.274-.177-.37-.28-.1-.1-.168-.206-.22-.305-.05-.1-.077-.195-.09-.28-.006-.04-.012-.08-.013-.116.005-.036.007-.07.01-.1 0-.058.02-.104.026-.135l.014-.044.02.046c.012.03.026.073.055.125.024.052.063.113.106.18.048.065.108.134.175.206.074.07.156.14.253.202.094.067.208.12.325.172.12.05.25.085.383.115.07.01.138.022.2.027.044.01.167.01.218.01.14-.002.282-.015.418-.04.134-.03.265-.064.385-.114.117-.05.23-.106.324-.172.098-.063.18-.133.253-.202.067-.07.127-.14.174-.205.043-.068.08-.127.105-.178.03-.05.043-.1.057-.127l.02-.045z"/></g><path d="M72.5 57.688c-.032.103-.072.203-.115.303-.046.1-.093.2-.146.298-.106.195-.227.385-.363.57-.067.094-.145.183-.22.274-.078.09-.158.178-.25.26-.044.044-.09.085-.14.126-.05.04-.095.082-.15.12-.054.038-.107.076-.165.11l-.182.103-.035-.257.59.175c.2.056.397.113.597.167l.3.08c.1.025.202.047.303.07.102.025.204.042.308.062.104.016.208.03.318.034-.05.01-.104.02-.16.028-.053.005-.11.01-.164.012-.11.003-.22 0-.33-.006-.11-.005-.22-.016-.327-.028-.11-.012-.218-.026-.324-.044-.214-.035-.426-.074-.634-.122-.208-.046-.413-.097-.62-.157l-.314-.093.28-.165.147-.086c.048-.03.092-.07.14-.1.05-.03.092-.07.137-.104.045-.035.09-.07.13-.11.17-.153.335-.313.487-.482.08-.082.154-.167.23-.252.073-.087.152-.17.224-.26l.448-.525z" fill="#dba694"/><path d="M69.608 61.95s.08.034.22.084c.068.028.157.054.253.09.103.03.21.07.335.103.123.035.256.07.4.103.138.038.294.056.448.09.158.02.32.046.486.055l.25.017c.083.005.17-.002.252-.002.17.006.337-.015.502-.03.083-.006.163-.018.242-.034l.235-.042c.08-.01.15-.036.224-.055l.213-.06c.143-.03.26-.09.38-.13.117-.045.233-.076.32-.124.09-.043.173-.08.24-.11.135-.06.216-.092.216-.092l-.166.14c-.054.042-.12.095-.2.155-.074.063-.18.114-.29.177-.112.06-.226.137-.372.185-.144.05-.288.123-.456.16l-.256.063-.13.03-.136.018c-.183.02-.37.048-.558.044-.095 0-.19.004-.283-.003l-.277-.024c-.092-.003-.18-.02-.268-.037-.087-.017-.174-.03-.258-.05-.164-.043-.325-.08-.466-.136-.072-.026-.143-.048-.208-.075-.064-.03-.126-.056-.185-.082-.12-.05-.22-.11-.31-.158-.088-.052-.163-.098-.22-.14-.12-.08-.177-.133-.177-.133z" fill="#dda693"/><g fill="#e17a96" transform="matrix(.236 0 0 .178 -18.829 -2.264)"><ellipse cx="361.917" cy="352.91" rx="11.629" ry="9.416" opacity=".2"/><ellipse cx="410.222" cy="352.91" rx="11.628" ry="9.416" opacity=".2"/></g><g fill="#ddae9e"><path d="M61.114 57.26s-.12.09-.274.236c-.035.037-.076.076-.113.12-.038.044-.074.09-.106.14-.037.048-.052.104-.08.156-.015.055-.038.11-.033.166-.01.056.008.11.02.165.017.054.048.104.072.155.04.046.073.093.11.137l.12.114c.037.035.075.066.113.092l.092.07.08.065-.103-.04c-.032-.015-.07-.032-.117-.05-.046-.02-.096-.044-.143-.077-.05-.03-.105-.064-.16-.104-.046-.045-.097-.093-.146-.144-.034-.058-.082-.116-.104-.183-.018-.07-.042-.138-.032-.21-.003-.07.027-.136.047-.202.034-.063.066-.126.113-.178.04-.054.092-.1.142-.144.047-.043.1-.078.148-.11.197-.13.356-.178.356-.178zM83.802 57.26s.122.09.274.236c.035.037.076.076.113.12.036.044.072.09.104.14.04.048.054.104.083.156.014.055.038.11.032.166.01.056-.01.11-.02.165-.018.054-.05.104-.07.155-.04.046-.077.093-.11.137l-.124.114c-.036.035-.075.066-.112.092l-.093.07-.08.065.105-.04c.033-.015.072-.032.117-.05.047-.02.096-.044.144-.077.05-.03.105-.064.158-.104.047-.045.098-.093.147-.144.036-.058.084-.116.106-.183.017-.07.042-.138.032-.21 0-.07-.028-.136-.05-.202-.032-.063-.064-.126-.112-.178-.04-.054-.092-.1-.14-.144-.048-.043-.102-.078-.15-.11-.196-.13-.356-.178-.356-.178z"/></g><path d="M23.173 48.492c.333-.184.893-.41 1.492-.575.854-.238 1.478-.24 2.058-.01.472.166.876.512 1.138 1.047.32.657.18 1.35-.39 1.806l.01.02c.71-.013 1.707.318 2.2 1.327.287.585.278 1.093.107 1.52-.25.56-.897.97-1.978 1.27-.59.165-1.06.25-1.366.288l-3.27-6.693zm2.216 2.55l.773-.216c.904-.252 1.197-.884.877-1.54-.39-.797-1.13-.947-1.995-.707-.393.107-.604.2-.727.27l1.07 2.19zm1.59 3.26c.18-.017.433-.074.738-.16.882-.245 1.535-.805 1.05-1.794-.453-.93-1.416-1.097-2.35-.838l-.706.197L26.98 54.3zM28.454 46.92l.854-.237 2.965 6.067 2.828-.786.363.738-3.683 1.023-3.326-6.805zM36.44 49.998l.36 2.332-.885.245-1.076-7.43 1.03-.286 5.583 6.175-.914.254-1.754-1.945-2.346.652zm1.835-1.29L36.67 46.93c-.364-.403-.66-.78-.95-1.146l-.02.005c.1.43.194.874.268 1.323l.314 2.15 1.993-.556zM42.447 52.17c-.075-.655-.337-1.81-.59-2.577l.914-.367c.195.92.31 2.16.267 2.712l-.59.233zM43.266 42.907c.334-.184.894-.41 1.493-.575.852-.238 1.476-.24 2.056-.01.472.166.876.512 1.137 1.048.32.656.18 1.35-.39 1.805l.01.02c.708-.013 1.706.318 2.2 1.327.285.585.277 1.093.106 1.52-.25.56-.898.97-1.98 1.27-.59.165-1.06.25-1.364.288l-3.27-6.693zm2.216 2.55l.776-.217c.904-.25 1.197-.883.876-1.54-.39-.797-1.13-.946-1.996-.706-.392.11-.603.203-.726.27l1.07 2.192zm1.593 3.26c.182-.017.433-.074.737-.16.884-.245 1.536-.805 1.053-1.794-.454-.93-1.417-1.097-2.35-.838l-.707.197 1.267 2.594zM48.547 41.335l.855-.237 2.964 6.067 2.83-.786.36.736-3.684 1.023-3.325-6.806zM56.534 44.413l.36 2.332-.885.245-1.078-7.43 1.03-.286 5.584 6.177-.913.256-1.753-1.944-2.346.653zm1.835-1.29l-1.607-1.777c-.364-.404-.66-.78-.95-1.147l-.02.003c.1.43.194.876.268 1.325l.315 2.148 1.993-.554zM62.54 46.586c-.075-.656-.337-1.81-.59-2.578l.914-.367c.193.92.31 2.163.266 2.714l-.59.233zM63.36 37.322c.334-.184.893-.41 1.492-.576.854-.237 1.48-.24 2.06-.01.47.167.874.513 1.136 1.048.32.657.18 1.35-.39 1.806l.01.02c.708-.013 1.706.318 2.2 1.327.285.585.276 1.093.105 1.518-.25.563-.897.973-1.977 1.273-.59.164-1.06.25-1.366.287l-3.27-6.693zm2.216 2.55l.776-.216c.903-.252 1.196-.884.876-1.54-.39-.797-1.132-.947-1.996-.707-.393.107-.604.2-.727.27l1.07 2.19zm1.593 3.26c.18-.017.43-.074.735-.16.884-.245 1.536-.805 1.053-1.794-.455-.93-1.42-1.097-2.352-.838l-.707.197 1.27 2.594zM68.64 35.75l.855-.237 2.965 6.067 2.828-.786.36.738-3.682 1.023-3.325-6.805zM76.628 38.828l.358 2.332-.884.245-1.075-7.43 1.03-.286 5.584 6.175-.91.254-1.754-1.945-2.347.652zm1.835-1.29l-1.605-1.777c-.364-.402-.66-.78-.95-1.145l-.02.005c.1.43.193.875.267 1.324l.314 2.15 1.992-.556zM82.17 39.135c-.178-.364-.062-.695.272-.788.354-.098.708.102.886.466.173.353.08.688-.274.786-.344.094-.712-.113-.885-.466zm-.46-1.513l-2.506-4.808.943-.262 2.23 4.885-.668.185z"/></svg>