<?xml version="1.0" encoding="UTF-8" standalone="no"?>
<!-- Generator: Adobe Illustrator 17.0.0, SVG Export Plug-In . SVG Version: 6.00 Build 0)  -->

<svg
   xmlns:dc="http://purl.org/dc/elements/1.1/"
   xmlns:cc="http://creativecommons.org/ns#"
   xmlns:rdf="http://www.w3.org/1999/02/22-rdf-syntax-ns#"
   xmlns:svg="http://www.w3.org/2000/svg"
   xmlns="http://www.w3.org/2000/svg"
   xmlns:sodipodi="http://sodipodi.sourceforge.net/DTD/sodipodi-0.dtd"
   xmlns:inkscape="http://www.inkscape.org/namespaces/inkscape"
   version="1.1"
   id="Capa_1"
   x="0px"
   y="0px"
   preserveAspectRatio="xMinYMin meet"
   viewBox="0 0 124.61999 124.90699"
   enable-background="new 0 0 595.28 841.89"
   xml:space="preserve"
   inkscape:version="0.91pre3 r13670"
   sodipodi:docname="expresion.svg"><title
     id="title8538">Disparador exploracion</title><metadata
     id="metadata49"><rdf:RDF><cc:Work
         rdf:about=""><dc:format>image/svg+xml</dc:format><dc:type
           rdf:resource="http://purl.org/dc/dcmitype/StillImage" /><dc:title>Disparador exploracion</dc:title></cc:Work></rdf:RDF></metadata><defs
     id="defs47"><clipPath
       id="SVGID_2_"><rect
         height="369.78799"
         width="369.78799"
         y="219.08701"
         x="103.533"
         id="use18" /></clipPath><clipPath
       id="clipPath8528"><rect
         height="369.78799"
         width="369.78799"
         y="219.08701"
         x="103.533"
         id="use8530" /></clipPath><clipPath
       id="clipPath8532"><rect
         height="369.78799"
         width="369.78799"
         y="219.08701"
         x="103.533"
         id="use8534" /></clipPath><clipPath
       id="SVGID_4_"><circle
         r="45.061001"
         cy="370.69601"
         cx="322.60199"
         id="use318" /></clipPath><clipPath
       id="clipPath8538"><circle
         r="45.061001"
         cy="370.69601"
         cx="322.60199"
         id="use8540" /></clipPath></defs><sodipodi:namedview
     pagecolor="#ffffff"
     bordercolor="#666666"
     borderopacity="1"
     objecttolerance="10"
     gridtolerance="10"
     guidetolerance="10"
     inkscape:pageopacity="0"
     inkscape:pageshadow="2"
     inkscape:window-width="1366"
     inkscape:window-height="705"
     id="namedview45"
     showgrid="false"
     units="mm"
     width="209mm"
     inkscape:zoom="1.5857387"
     inkscape:cx="-91.971287"
     inkscape:cy="3.7213976"
     inkscape:window-x="-8"
     inkscape:window-y="-8"
     inkscape:window-maximized="1"
     inkscape:current-layer="Capa_1"
     fit-margin-top="0"
     fit-margin-left="0"
     fit-margin-right="0"
     fit-margin-bottom="0" /><path
     d="m 117.66103,105.97595 c 0,6.49564 -5.32024,11.76112 -11.88354,11.76112 l -86.439371,0 c -6.563293,0 -11.8835329,-5.26548 -11.8835329,-11.76112 l 0,-84.52242 c 0,-6.495637 5.3202399,-11.7611163 11.8835329,-11.7611163 l 86.439371,0 c 6.5633,0 11.88354,5.2654793 11.88354,11.7611163 l 0,84.52242 z"
     id="path5"
     inkscape:connector-curvature="0"
     style="clip-rule:evenodd;opacity:0.7;fill:#f9c487;fill-opacity:1;fill-rule:evenodd" /><g
     transform="matrix(0.23613435,0,0,0.17757669,-18.829336,-2.2641125)"
     id="Capa_2"><path
       style="fill:#b4ad96"
       inkscape:connector-curvature="0"
       d="m 245.674,405.949 c 0.291,10.618 -20.776,19.814 -47.054,20.535 -26.277,0.721 -47.817,-7.305 -48.109,-17.923 -0.291,-10.625 20.778,-19.815 47.054,-20.537 26.278,-0.722 47.817,7.3 48.109,17.925 z"
       id="path12" /><path
       style="fill:#b4ad96"
       inkscape:connector-curvature="0"
       d="m 538.718,405.006 c 0.342,12.524 -22.643,23.319 -51.341,24.106 -28.696,0.787 -52.24,-8.73 -52.584,-21.254 -0.343,-12.532 22.644,-23.32 51.34,-24.109 28.698,-0.787 52.241,8.725 52.585,21.257 z"
       id="path14" /><rect
       style="fill:#a48a7b"
       x="194.666"
       y="198.79401"
       width="300.186"
       height="172.453"
       id="rect16" /><rect
       style="fill:#f0ebd2"
       x="189.412"
       y="206.85699"
       width="300.189"
       height="161.241"
       id="rect18" /><path
       style="fill:#e55a4a"
       inkscape:connector-curvature="0"
       d="m 245.435,165.779 -87.679,7.316 13.786,234 c 0,0 9.628,-4.34 13.609,-3.71 3.981,0.628 6.391,2.613 7.374,2.559 0.987,-0.054 3.003,-5.247 10.389,-2.475 7.386,2.773 13.65,3.066 14.894,1.726 1.241,-1.342 2.531,-7.767 8.011,-3.83 5.477,3.935 10.522,5.991 10.522,5.991 0,0 -5.01,-25.361 -11.288,-37.936 -6.282,-12.576 -36.668,-50.947 -37.756,-52.795 -1.089,-1.848 0.425,-4.26 0.425,-4.26 0,0 32.998,-21.935 45.248,-50.357 12.254,-28.423 13.468,-84.202 13.468,-84.202 l -1.003,-12.027 z"
       id="path20" /><path
       style="fill:#e55a4a"
       inkscape:connector-curvature="0"
       d="m 443.514,169.173 77.082,-1.175 4.05,224.699 c 0,0 -8.521,-3.44 -11.877,-2.553 -3.356,0.884 -5.28,2.948 -6.124,2.967 -0.844,0.019 -2.92,-4.78 -9.04,-1.609 -6.116,3.172 -11.445,3.902 -12.6,2.716 -1.152,-1.189 -2.698,-7.213 -7.105,-3.07 -4.406,4.141 -8.573,6.462 -8.573,6.462 0,0 2.529,-24.508 7.027,-36.934 4.496,-12.427 27.805,-51.149 28.607,-52.986 0.802,-1.838 -0.657,-4.026 -0.657,-4.026 0,0 -29.689,-18.511 -42.11,-44.69 -12.419,-26.181 -17.299,-79.203 -17.299,-79.203 l -1.381,-10.598 z"
       id="path22" /><path
       style="fill:#e6352c"
       inkscape:connector-curvature="0"
       d="m 183.924,206.293 7.874,-7.779 c 0,0 0.414,25.034 -2.145,40.352 -2.56,15.315 -6.555,36.356 -9.111,40.636 -2.556,4.28 1.496,-0.56 3.215,-15.344 1.726,-14.784 0.167,-57.865 0.167,-57.865 z"
       id="path24" /><g
       id="g26"><path
         style="fill:#e6352c"
         inkscape:connector-curvature="0"
         d="m 172.264,401.817 c 0,0 2.809,0 3.433,-8.518 0.625,-8.521 1.249,0.672 3.122,5.38 1.873,4.706 3.121,6.05 3.121,6.05 0,0 -2.185,-2.913 -4.994,-2.913 -2.809,0.001 -4.682,0.001 -4.682,0.001 z"
         id="path28" /><path
         style="fill:#e6352c"
         inkscape:connector-curvature="0"
         d="m 206.707,400.414 c 0,0 2.812,0 3.433,-8.517 0.625,-8.519 1.252,0.672 3.125,5.379 1.872,4.708 6.06,9.977 6.06,9.977 0,0 -5.228,-9.117 -8.664,-8.296 -2.665,0.637 -3.954,1.457 -3.954,1.457 z"
         id="path30" /><path
         style="fill:#e6352c"
         inkscape:connector-curvature="0"
         d="m 184.437,402.936 c 0,0 2.966,-2.465 5.387,-1.457 2.419,1.008 5.151,2.913 5.931,3.027 0.778,0.111 -2.5,-1.625 -4.994,-4.315 -2.5,-2.69 -4.529,-3.756 -5.309,-2.299 -0.78,1.459 -1.015,5.044 -1.015,5.044 z"
         id="path32" /></g><g
       id="g34"><path
         style="fill:#e6352c"
         inkscape:connector-curvature="0"
         d="m 513.722,400.696 c 0,0 -2.809,0 -3.433,-8.518 -0.625,-8.519 -1.249,0.672 -3.122,5.38 -1.872,4.706 -3.124,6.052 -3.124,6.052 0,0 2.185,-2.914 4.997,-2.914 2.806,0 4.682,0 4.682,0 z"
         id="path36" /><path
         style="fill:#e6352c"
         inkscape:connector-curvature="0"
         d="m 479.277,399.296 c 0,0 -2.809,0 -3.433,-8.52 -0.625,-8.519 -1.249,0.672 -3.121,5.379 -1.873,4.708 -6.064,9.977 -6.064,9.977 0,0 5.228,-9.116 8.664,-8.293 2.665,0.637 3.954,1.457 3.954,1.457 z"
         id="path38" /><path
         style="fill:#e6352c"
         inkscape:connector-curvature="0"
         d="m 501.549,401.817 c 0,0 -2.969,-2.466 -5.388,-1.457 -2.419,1.008 -5.153,2.913 -5.934,3.025 -0.778,0.11 2.497,-1.626 4.997,-4.314 2.497,-2.691 4.526,-3.756 5.306,-2.299 0.782,1.459 1.019,5.045 1.019,5.045 z"
         id="path40" /></g><path
       style="fill:#e6352c"
       inkscape:connector-curvature="0"
       d="m 509.439,317.713 c 0.445,-2.244 0.222,-3.295 -1.185,-1.525 -4.07,-5.102 -15.443,-19.126 -19.789,-34.138 -6.254,-21.597 -6.798,-84.935 -6.798,-84.935 L 459.638,186.17 c 0,0 1.633,36.776 10.2,59.105 8.431,21.976 30.295,64.317 37.983,71.49 -0.116,0.166 -0.237,0.344 -0.367,0.543 -3.749,5.678 -18.316,37.361 -18.732,38.258 0,0 -0.832,2.092 2.914,0 3.745,-2.091 12.901,-23.912 15.402,-30.188 1.023,-2.577 1.908,-5.355 2.335,-7.342 0.471,0.335 0.453,0.204 0.066,-0.323 z"
       id="path42" /><path
       style="fill:#e6352c"
       inkscape:connector-curvature="0"
       d="m 173.333,318.833 c -0.442,-2.243 -0.222,-3.294 1.188,-1.524 4.069,-5.102 15.442,-19.128 19.789,-34.139 6.254,-21.596 6.797,-84.933 6.797,-84.933 l 22.03,-10.945 c 0,0 -1.633,36.774 -10.199,59.102 -8.431,21.977 -30.298,64.317 -37.986,71.49 0.118,0.167 0.24,0.346 0.37,0.541 3.749,5.68 18.316,37.362 18.732,38.26 0,0 0.832,2.092 -2.914,0 -3.746,-2.092 -12.902,-23.912 -15.399,-30.188 -1.026,-2.577 -1.911,-5.355 -2.338,-7.342 -0.471,0.336 -0.454,0.206 -0.07,-0.322 z"
       id="path44" /><path
       style="fill:#e6352c"
       inkscape:connector-curvature="0"
       d="m 180.692,292.201 -12.177,20.174 2.185,3.363 c 0,-10e-4 10.304,-21.967 9.992,-23.537 z"
       id="path46" /><path
       style="fill:#e6352c"
       inkscape:connector-curvature="0"
       d="m 498.977,208.106 -7.665,-7.729 c 0,0 -1.102,25.021 1.04,40.314 2.145,15.291 5.57,36.295 8.006,40.56 2.443,4.26 -1.477,-0.552 -2.795,-15.317 -1.321,-14.767 1.414,-57.828 1.414,-57.828 z"
       id="path48" /><path
       style="fill:#e6352c"
       inkscape:connector-curvature="0"
       d="m 505.945,292.611 10.787,20.578 -2.414,3.282 c 0,10e-4 -8.792,-22.304 -8.373,-23.86 z"
       id="path50" /><path
       style="fill:#73a5a3;stroke:#73a5a3;stroke-width:1.02719998;stroke-miterlimit:10"
       inkscape:connector-curvature="0"
       stroke-miterlimit="10"
       d="m 164.353,310.806 19.148,4.813 c 0,0 -0.879,1.327 -0.439,2.157 0.439,0.829 -18.486,-1.827 -18.486,-1.827"
       id="path52" /><path
       style="fill:#73a5a3;stroke:#73a5a3;stroke-width:1.06019998;stroke-miterlimit:10"
       inkscape:connector-curvature="0"
       stroke-miterlimit="10"
       d="m 522.54,311.254 -20.396,4.812 c 0,0 0.936,1.329 0.468,2.158 -0.468,0.83 19.694,-1.827 19.694,-1.827"
       id="path54" /><path
       style="fill:#e6352c"
       inkscape:connector-curvature="0"
       d="m 487.367,382.987 c 0,0 6.243,-8.668 10.408,-21.07 4.162,-12.406 15.61,-43.639 15.61,-43.639 0,0 -17.393,38.811 -19.98,45.954"
       id="path56" /><path
       style="fill:#e6352c"
       inkscape:connector-curvature="0"
       d="m 168.779,318.406 c 17.399,38.825 17.547,36.288 20.136,43.436 2.706,7.472 6.032,18.754 6.032,18.754 0,0 -6.243,-8.668 -10.405,-21.073 -4.162,-12.402 -15.763,-41.117 -15.763,-41.117 z"
       id="path58" /><path
       style="fill:#e6352c"
       inkscape:connector-curvature="0"
       d="M 512.552,317.529"
       id="path60" /></g><g
     transform="matrix(0.23613435,0,0,0.17757669,-18.829336,-2.2641125)"
     id="Capa_3"><polygon
       style="fill:#f3f3f3"
       points="419.679,393.122 425.036,493.717 347.118,493.717 349.217,393.813 353.85,393.122 418.825,393.122 "
       id="polygon63" /><g
       id="g65"><ellipse
         style="clip-rule:evenodd;fill-rule:evenodd"
         transform="matrix(0.0778,-0.997,0.997,0.0778,-86.1836,750.5724)"
         cx="362.612"
         cy="421.871"
         rx="6.7690001"
         ry="6.1659999"
         id="ellipse67" /><path
         style="clip-rule:evenodd;fill:#4c4c4c;fill-rule:evenodd"
         inkscape:connector-curvature="0"
         d="m 358.062,426.511 c 0,0 0.504,-3.801 3.887,-5.415 4.104,-1.957 6.829,0.459 6.829,0.459 l 0.101,-0.147 -0.295,-2.219 c 0,0 -3.248,-2.063 -6.917,-0.295 -3.437,1.656 -4.397,3.993 -4.801,5.967 0,0 0.557,1.3 0.968,1.573 l 0.228,0.077 z"
         id="path69" /><path
         style="clip-rule:evenodd;fill:#4c4c4c;fill-rule:evenodd"
         inkscape:connector-curvature="0"
         d="m 375.85,452.109 -8.22,-26.381 c 0,0 -1.703,-1.266 -4.034,-0.264 -2.076,0.892 -2.226,3.055 -2.226,3.055 l 9.07,25.899 c 0,-0.002 3.268,1.309 5.41,-2.309 z"
         id="path71" /></g><g
       id="g73"><path
         style="fill:#e6e6e5"
         inkscape:connector-curvature="0"
         d="m 375.63,388.939 c 0,0 -3.967,-0.844 -5.233,1.273 -5.052,8.439 4.839,37.072 4.839,37.072 l 12.377,-18.091 -12.225,-15.017 0.242,-5.237 z"
         id="path75" /><path
         style="fill:#e6e6e5"
         inkscape:connector-curvature="0"
         d="m 398.257,389.401 c 0,0 3.897,-1.306 5.164,0.81 5.052,8.439 -4.84,37.072 -4.84,37.072 l -10.968,-18.091 10.643,-16.071 0,-3.72 z"
         id="path77" /></g><path
       style="fill:#f3f3f3"
       inkscape:connector-curvature="0"
       d="m 352.023,393.122 c 0,0 -12.894,0 -16.824,11.827 -3.261,9.819 -19.9,56.573 -13.34,65.806 1.94,2.733 7.441,22.962 40.964,-5.272"
       id="path79" /><g
       id="g81"><path
         style="fill:#f3f3f3"
         inkscape:connector-curvature="0"
         d="m 419.18,393.122 c 0,0 12.894,0 16.824,11.827 3.262,9.819 10.661,75.393 11.56,88.768 l -22.528,0"
         id="path83" /><path
         style="fill:#cdcccc"
         inkscape:connector-curvature="0"
         d="m 417.905,417.019 c 0,0 0.303,0.067 0.855,0.261 0.542,0.207 1.36,0.513 2.24,1.205 0.432,0.348 0.887,0.809 1.181,1.454 0.057,0.171 0.14,0.321 0.178,0.521 0.029,0.167 0.058,0.338 0.087,0.512 0.059,0.348 0.121,0.707 0.184,1.078 0.125,0.745 0.259,1.536 0.399,2.37 0.123,0.84 0.178,1.735 0.289,2.661 0.819,7.43 1.801,17.266 2.796,27.137 0.978,9.865 1.955,19.729 2.688,27.127 0.084,0.925 0.2,1.809 0.253,2.655 0.048,0.846 0.094,1.649 0.137,2.404 0.086,1.509 0.161,2.824 0.223,3.908 0.111,2.168 0.175,3.407 0.175,3.407 0,0 -0.177,-1.228 -0.486,-3.376 -0.149,-1.074 -0.331,-2.38 -0.538,-3.876 -0.104,-0.749 -0.214,-1.545 -0.331,-2.385 -0.112,-0.84 -0.17,-1.729 -0.268,-2.653 -0.733,-7.398 -1.71,-17.262 -2.687,-27.126 -0.993,-9.852 -1.982,-19.743 -2.79,-27.092 -0.228,-1.835 -0.355,-3.534 -0.488,-5.046 -0.033,-0.376 -0.065,-0.742 -0.096,-1.094 -0.016,-0.176 -0.031,-0.349 -0.046,-0.519 -0.01,-0.136 -0.077,-0.291 -0.111,-0.434 -0.203,-0.571 -0.579,-1.031 -0.96,-1.39 -0.779,-0.714 -1.546,-1.114 -2.063,-1.365 -0.525,-0.247 -0.821,-0.344 -0.821,-0.344 z"
         id="path85" /></g><path
       style="fill:#cdcccc"
       inkscape:connector-curvature="0"
       d="m 350.291,427.284 c -0.412,2.5 -0.855,4.993 -1.293,7.488 l -0.663,3.74 c -0.246,1.242 -0.546,2.473 -0.785,3.714 l -1.464,7.442 c -0.255,1.239 -0.462,2.484 -0.684,3.728 l -0.329,1.866 c -0.117,0.623 -0.196,1.24 -0.295,1.86 l -0.592,-0.435 19.189,-8.82 0.519,-0.239 0.073,0.566 2.526,19.511 0.038,0.294 -0.264,0.135 -4.74,2.414 -2.368,1.211 c -0.793,0.396 -1.602,0.76 -2.403,1.142 l -9.639,4.516 9.32,-5.142 c 0.78,-0.423 1.55,-0.864 2.337,-1.272 l 2.372,-1.204 4.74,-2.414 -0.226,0.428 -2.526,-19.511 0.592,0.327 -19.189,8.82 -0.714,0.328 0.122,-0.763 c 0.1,-0.629 0.182,-1.268 0.299,-1.889 l 0.331,-1.874 c 0.223,-1.248 0.431,-2.5 0.686,-3.74 l 1.467,-7.459 0.388,-1.859 c 0.125,-0.62 0.251,-1.24 0.393,-1.857 l 0.916,-3.687 c 0.615,-2.455 1.225,-4.914 1.866,-7.365 z"
       id="path87" /><path
       style="fill:#ecbfab"
       inkscape:connector-curvature="0"
       d="m 379.73,455.98 c 0.95,1.949 0.288,4.228 -1.478,5.085 l -8.452,4.305 c -1.766,0.861 -1.106,-1.605 -2.057,-3.553 l -3.866,-7.946 c -0.948,-1.948 -0.286,-4.225 1.479,-5.085 l 5.592,-2.723 c 2.708,-1.587 5.252,-0.882 6.201,1.067 l 2.581,8.85 z"
       id="path89" /><path
       style="fill:#e6e6e5"
       inkscape:connector-curvature="0"
       d="m 361.838,470.527 c 2.08,0.19 5.038,-2.377 6.839,-2.227 1.801,0.151 4.216,-1.381 4.654,-2.377 0.716,-1.629 -6.59,-17.132 -8.716,-18.4 -2.126,-1.27 -4.137,1.219 -6.013,1.774 -1.44,0.424 -4.57,0.239 -4.647,2.04 -0.07,1.624 5.913,19.01 7.883,19.19 z"
       id="path91" /><g
       id="g93"><g
         id="g95"><path
           style="fill:#b27231"
           inkscape:connector-curvature="0"
           d="m 432.235,348.653 c -0.306,2.908 -0.775,5.704 -1.464,8.357 2.745,-3.086 5.15,-6.483 7.155,-10.135 -1.47,1.134 -3.257,1.806 -5.191,1.806 -0.168,0 -0.333,-0.018 -0.5,-0.028 z"
           id="path97" /><path
           style="fill:#b27231"
           inkscape:connector-curvature="0"
           d="m 340.056,328.945 c 1.327,5.04 4.517,14.549 4.517,14.549 -0.947,-3.561 -1.143,-16.051 -1.184,-21.084 33.823,4.289 77.059,-7.449 81.995,-8.835 0.438,0.658 0.857,1.326 1.26,2.007 3.489,11.088 2.79,31.307 2.79,31.307 1.226,-3.232 4.994,-15.997 4.994,-15.997 0.132,-0.44 0.238,-1.055 0.315,-1.81 3.864,0.962 6.78,4.633 7.011,9.104 1.919,-5.617 2.975,-11.637 2.975,-17.907 0,-30.459 -24.575,-55.151 -54.891,-55.151 l -0.179,0 c -19.741,0 -37.041,10.474 -46.714,26.188 -12.982,6.357 -20.392,3.311 -20.392,3.311 3.706,3.268 9.263,6.291 9.263,6.291 -8.9,5.229 -25.89,0.225 -25.89,0.225 5.226,10.804 15.918,16.795 28.854,19.759 0.032,2.92 0.292,5.783 0.759,8.577 0.996,-0.414 2.072,-0.651 3.201,-0.651 0.449,0 0.886,0.048 1.316,0.117 z"
           id="path99" /><path
           style="fill:#ecbfab"
           inkscape:connector-curvature="0"
           d="m 434.742,329.082 c -0.077,0.754 -0.183,1.37 -0.315,1.81 0,0 -3.769,12.765 -4.994,15.997 0,0 0.699,-20.219 -2.79,-31.307 -0.402,-0.681 -0.822,-1.349 -1.26,-2.007 -4.936,1.386 -48.172,13.124 -81.995,8.835 0.041,5.033 0.237,17.523 1.184,21.084 0,0 -3.189,-9.509 -4.517,-14.549 -0.431,-0.069 -0.867,-0.116 -1.315,-0.116 -1.129,0 -2.205,0.237 -3.201,0.651 -3.414,1.42 -5.845,5.03 -5.845,9.275 0,5.482 4.05,9.927 9.046,9.927 0.53,0 1.046,-0.06 1.55,-0.156 2.048,17.111 10.197,30.358 34.324,33.458 l -0.707,15.597 12.273,13.96 10.643,-13.96 0,-15.417 c 21.604,-2.295 30.514,-11.953 33.947,-25.153 0.69,-2.653 1.158,-5.449 1.464,-8.357 0.167,0.01 0.331,0.028 0.5,0.028 1.933,0 3.721,-0.672 5.191,-1.806 2.328,-1.796 3.853,-4.76 3.853,-8.121 0,-0.192 -0.016,-0.38 -0.026,-0.569 -0.23,-4.471 -3.146,-8.143 -7.01,-9.104 z"
           id="path101" /></g><g
         id="g103"><g
           id="g105"><g
             id="g107"><path
               style="fill:#333333"
               inkscape:connector-curvature="0"
               d="m 370.069,330.164 c 0,0 0.02,0.091 0.059,0.262 0.023,0.175 0.114,0.413 0.115,0.75 0.008,0.171 0.017,0.359 0.026,0.565 -0.005,0.203 -0.03,0.421 -0.049,0.659 -0.059,0.471 -0.171,1.005 -0.384,1.566 -0.222,0.553 -0.506,1.156 -0.934,1.712 -0.406,0.576 -0.948,1.1 -1.568,1.573 -0.623,0.472 -1.357,0.841 -2.139,1.114 -0.398,0.114 -0.798,0.244 -1.217,0.293 -0.207,0.035 -0.415,0.07 -0.626,0.076 l -0.315,0.019 -0.158,0.008 -0.079,0.004 -0.04,0.002 -0.02,10e-4 -0.083,0 c -0.63,-0.014 -1.665,-0.137 -2.411,-0.403 -0.783,-0.271 -1.516,-0.643 -2.14,-1.112 -0.619,-0.473 -1.162,-0.997 -1.568,-1.573 -0.428,-0.558 -0.713,-1.16 -0.934,-1.713 -0.213,-0.562 -0.326,-1.096 -0.384,-1.567 -0.018,-0.239 -0.044,-0.457 -0.049,-0.659 0.01,-0.203 0.02,-0.39 0.028,-0.558 0.002,-0.33 0.092,-0.589 0.115,-0.759 0.039,-0.171 0.059,-0.262 0.059,-0.262 0,0 0.029,0.089 0.085,0.257 0.057,0.165 0.114,0.407 0.237,0.698 0.102,0.295 0.266,0.634 0.448,1.008 0.198,0.37 0.451,0.759 0.735,1.16 0.311,0.385 0.658,0.779 1.073,1.133 0.396,0.372 0.878,0.679 1.374,0.964 0.504,0.281 1.06,0.476 1.625,0.644 0.617,0.142 1.021,0.206 1.833,0.226 -0.125,-0.003 -0.031,-0.001 -0.057,-0.002 l 0.007,0 0.014,-10e-4 0.028,-0.002 0.056,-0.002 0.112,-0.005 0.224,-0.008 c 0.151,0.003 0.298,-0.023 0.445,-0.044 0.298,-0.03 0.586,-0.097 0.876,-0.16 0.567,-0.165 1.122,-0.363 1.626,-0.643 0.496,-0.286 0.978,-0.593 1.375,-0.965 0.415,-0.354 0.763,-0.748 1.074,-1.134 0.283,-0.401 0.537,-0.791 0.734,-1.16 0.182,-0.377 0.346,-0.71 0.446,-1 0.122,-0.284 0.18,-0.546 0.237,-0.708 0.06,-0.165 0.089,-0.254 0.089,-0.254 z"
               id="path109" /><path
               style="fill:#333333"
               inkscape:connector-curvature="0"
               d="m 413.288,330.164 c 0,0 0.021,0.091 0.059,0.262 0.022,0.175 0.113,0.413 0.115,0.75 0.008,0.171 0.016,0.359 0.026,0.565 -0.005,0.203 -0.03,0.421 -0.049,0.659 -0.059,0.471 -0.171,1.005 -0.384,1.566 -0.222,0.553 -0.506,1.156 -0.934,1.712 -0.406,0.576 -0.948,1.1 -1.568,1.573 -0.623,0.471 -1.356,0.84 -2.139,1.113 -0.788,0.266 -1.632,0.381 -2.474,0.406 -0.504,-0.033 -0.707,-0.02 -1.222,-0.107 -0.462,-0.053 -0.855,-0.183 -1.252,-0.297 -0.783,-0.271 -1.516,-0.644 -2.14,-1.113 -0.619,-0.472 -1.162,-0.997 -1.568,-1.572 -0.428,-0.558 -0.712,-1.16 -0.934,-1.714 -0.213,-0.562 -0.326,-1.096 -0.384,-1.567 -0.019,-0.239 -0.044,-0.457 -0.049,-0.659 0.01,-0.203 0.02,-0.39 0.028,-0.558 0.002,-0.33 0.092,-0.589 0.115,-0.759 0.039,-0.171 0.059,-0.262 0.059,-0.262 0,0 0.03,0.089 0.085,0.257 0.057,0.165 0.114,0.407 0.237,0.698 0.102,0.295 0.266,0.634 0.448,1.008 0.198,0.37 0.451,0.759 0.735,1.16 0.311,0.385 0.659,0.779 1.073,1.133 0.397,0.372 0.878,0.679 1.374,0.964 0.504,0.282 1.06,0.477 1.625,0.644 0.29,0.064 0.586,0.13 0.841,0.157 0.191,0.055 0.714,0.051 0.929,0.068 0.6,-0.01 1.195,-0.08 1.77,-0.223 0.567,-0.164 1.122,-0.362 1.627,-0.643 0.496,-0.285 0.978,-0.593 1.375,-0.964 0.415,-0.354 0.764,-0.748 1.073,-1.134 0.283,-0.401 0.537,-0.791 0.735,-1.16 0.182,-0.377 0.346,-0.71 0.446,-1 0.123,-0.284 0.18,-0.546 0.237,-0.708 0.056,-0.166 0.085,-0.255 0.085,-0.255 z"
               id="path111" /></g><path
             style="fill:#dba694"
             inkscape:connector-curvature="0"
             d="m 386.988,336.809 c -0.135,0.576 -0.305,1.143 -0.49,1.704 -0.194,0.557 -0.39,1.115 -0.616,1.661 -0.441,1.097 -0.955,2.165 -1.531,3.208 -0.284,0.523 -0.612,1.023 -0.93,1.531 -0.33,0.502 -0.672,0.998 -1.064,1.465 -0.182,0.241 -0.383,0.472 -0.592,0.699 -0.21,0.225 -0.399,0.463 -0.635,0.673 -0.227,0.216 -0.451,0.43 -0.699,0.628 l -0.772,0.57 -0.151,-1.445 2.502,0.986 c 0.843,0.313 1.682,0.636 2.528,0.938 l 1.273,0.443 c 0.425,0.145 0.855,0.271 1.284,0.404 0.431,0.135 0.864,0.233 1.303,0.344 0.44,0.088 0.882,0.165 1.346,0.189 -0.221,0.051 -0.449,0.114 -0.68,0.155 -0.23,0.029 -0.464,0.05 -0.699,0.068 -0.467,0.02 -0.936,0.006 -1.4,-0.029 -0.467,-0.027 -0.928,-0.091 -1.386,-0.16 -0.46,-0.067 -0.918,-0.144 -1.369,-0.246 -0.904,-0.194 -1.803,-0.413 -2.683,-0.685 -0.888,-0.258 -1.755,-0.545 -2.628,-0.884 l -1.336,-0.518 1.185,-0.927 0.623,-0.486 c 0.205,-0.168 0.39,-0.374 0.596,-0.549 0.207,-0.171 0.387,-0.388 0.579,-0.585 0.192,-0.198 0.38,-0.402 0.555,-0.622 0.718,-0.854 1.417,-1.756 2.06,-2.702 0.339,-0.462 0.656,-0.942 0.977,-1.42 0.311,-0.485 0.644,-0.961 0.95,-1.453 l 1.9,-2.955 z"
             id="path113" /><path
             style="fill:#dda693"
             inkscape:connector-curvature="0"
             d="m 374.733,360.75 c 0,0 0.334,0.192 0.932,0.477 0.29,0.155 0.667,0.303 1.074,0.504 0.425,0.171 0.889,0.385 1.411,0.577 0.519,0.199 1.085,0.396 1.688,0.578 0.592,0.216 1.251,0.316 1.903,0.506 0.67,0.109 1.356,0.259 2.06,0.313 0.352,0.03 0.706,0.062 1.062,0.093 0.355,0.026 0.713,-0.012 1.07,-0.014 0.717,0.037 1.422,-0.08 2.12,-0.168 0.352,-0.03 0.693,-0.1 1.027,-0.19 0.337,-0.08 0.67,-0.159 0.998,-0.237 0.336,-0.055 0.638,-0.2 0.946,-0.306 0.308,-0.11 0.611,-0.218 0.904,-0.323 0.605,-0.18 1.108,-0.508 1.616,-0.731 0.488,-0.258 0.983,-0.432 1.352,-0.698 0.383,-0.244 0.729,-0.446 1.014,-0.616 0.573,-0.336 0.917,-0.522 0.917,-0.522 0,0 -0.246,0.288 -0.704,0.78 -0.23,0.244 -0.51,0.544 -0.846,0.877 -0.314,0.361 -0.762,0.648 -1.228,1 -0.479,0.331 -0.958,0.772 -1.58,1.041 -0.608,0.286 -1.217,0.691 -1.93,0.904 -0.354,0.114 -0.715,0.23 -1.08,0.348 l -0.553,0.176 -0.577,0.094 c -0.775,0.121 -1.563,0.268 -2.363,0.249 -0.399,-0.007 -0.799,0.02 -1.193,-0.018 -0.394,-0.044 -0.785,-0.089 -1.174,-0.133 -0.392,-0.025 -0.768,-0.121 -1.137,-0.216 -0.37,-0.094 -0.738,-0.174 -1.092,-0.277 -0.697,-0.244 -1.377,-0.46 -1.977,-0.767 -0.303,-0.147 -0.604,-0.271 -0.88,-0.423 -0.271,-0.159 -0.534,-0.313 -0.786,-0.461 -0.506,-0.286 -0.93,-0.618 -1.312,-0.887 -0.371,-0.293 -0.69,-0.547 -0.935,-0.781 -0.504,-0.45 -0.747,-0.749 -0.747,-0.749 z"
             id="path115" /><g
             id="g117"><ellipse
               style="opacity:0.2;fill:#e17a96"
               cx="361.91699"
               cy="352.91"
               rx="11.629"
               ry="9.4160004"
               id="ellipse119" /><ellipse
               style="opacity:0.2;fill:#e17a96"
               cx="410.22198"
               cy="352.91"
               rx="11.628"
               ry="9.4160004"
               id="ellipse121" /></g></g><g
           id="g123"><path
             style="fill:#ddae9e"
             inkscape:connector-curvature="0"
             d="m 338.741,334.405 c 0,0 -0.513,0.512 -1.159,1.324 -0.15,0.212 -0.324,0.431 -0.48,0.677 -0.161,0.244 -0.314,0.508 -0.45,0.787 -0.165,0.269 -0.229,0.582 -0.351,0.875 -0.058,0.308 -0.159,0.617 -0.134,0.932 -0.046,0.315 0.034,0.622 0.081,0.928 0.074,0.3 0.206,0.586 0.306,0.872 0.168,0.258 0.316,0.518 0.461,0.768 0.184,0.227 0.359,0.442 0.52,0.64 0.155,0.209 0.318,0.384 0.476,0.527 0.152,0.152 0.284,0.285 0.392,0.395 0.215,0.23 0.337,0.362 0.337,0.362 0,0 -0.159,-0.083 -0.437,-0.227 -0.138,-0.078 -0.305,-0.173 -0.497,-0.281 -0.197,-0.104 -0.407,-0.24 -0.608,-0.429 -0.209,-0.178 -0.445,-0.366 -0.671,-0.591 -0.2,-0.251 -0.415,-0.518 -0.623,-0.808 -0.146,-0.326 -0.35,-0.653 -0.443,-1.025 -0.075,-0.379 -0.177,-0.765 -0.135,-1.162 -0.012,-0.399 0.113,-0.772 0.2,-1.145 0.143,-0.348 0.277,-0.701 0.479,-0.99 0.175,-0.308 0.39,-0.57 0.599,-0.809 0.201,-0.246 0.43,-0.44 0.628,-0.628 0.834,-0.715 1.509,-0.992 1.509,-0.992 z"
             id="path125" /><path
             style="fill:#ddae9e"
             inkscape:connector-curvature="0"
             d="m 434.879,334.405 c 0,0 0.513,0.512 1.159,1.324 0.15,0.212 0.324,0.431 0.48,0.677 0.161,0.244 0.314,0.508 0.45,0.787 0.165,0.269 0.229,0.582 0.351,0.875 0.058,0.308 0.159,0.617 0.134,0.932 0.046,0.315 -0.034,0.622 -0.081,0.928 -0.074,0.3 -0.206,0.586 -0.305,0.872 -0.168,0.258 -0.317,0.518 -0.461,0.768 -0.185,0.227 -0.359,0.442 -0.52,0.64 -0.155,0.209 -0.318,0.384 -0.476,0.527 -0.152,0.152 -0.284,0.285 -0.392,0.395 -0.215,0.23 -0.337,0.362 -0.337,0.362 0,0 0.159,-0.083 0.437,-0.227 0.138,-0.078 0.305,-0.173 0.497,-0.281 0.197,-0.104 0.407,-0.24 0.608,-0.429 0.209,-0.178 0.445,-0.366 0.671,-0.591 0.2,-0.251 0.415,-0.518 0.623,-0.808 0.146,-0.326 0.35,-0.653 0.443,-1.025 0.075,-0.379 0.177,-0.765 0.135,-1.162 0.011,-0.399 -0.113,-0.772 -0.2,-1.145 -0.143,-0.348 -0.277,-0.701 -0.479,-0.99 -0.175,-0.308 -0.39,-0.57 -0.599,-0.809 -0.201,-0.246 -0.43,-0.44 -0.628,-0.628 -0.835,-0.715 -1.51,-0.992 -1.51,-0.992 z"
             id="path127" /></g></g></g><g
       id="g129"><path
         inkscape:connector-curvature="0"
         d="m 177.973,285.145 c 1.414,-1.035 3.785,-2.297 6.323,-3.232 3.62,-1.334 6.265,-1.344 8.723,-0.057 2,0.936 3.71,2.882 4.818,5.888 1.36,3.69 0.762,7.582 -1.65,10.144 l 0.041,0.111 c 2.999,-0.072 7.227,1.785 9.317,7.456 1.212,3.288 1.175,6.139 0.45,8.531 -1.058,3.16 -3.801,5.461 -8.379,7.148 -2.497,0.92 -4.495,1.399 -5.786,1.613 l -13.857,-37.602 z m 9.39,14.322 3.287,-1.211 c 3.829,-1.411 5.071,-4.964 3.713,-8.649 -1.651,-4.48 -4.795,-5.319 -8.458,-3.97 -1.664,0.613 -2.558,1.137 -3.078,1.522 l 4.536,12.308 z m 6.75,18.315 c 0.769,-0.089 1.832,-0.413 3.123,-0.889 3.744,-1.38 6.508,-4.528 4.46,-10.083 -1.923,-5.219 -6.005,-6.164 -9.959,-4.707 l -2.995,1.104 5.371,14.575 z"
         id="path131" /><path
         inkscape:connector-curvature="0"
         d="m 200.351,276.316 3.62,-1.334 12.562,34.087 11.985,-4.417 1.527,4.143 -15.605,5.751 -14.089,-38.23 z"
         id="path133" /><path
         inkscape:connector-curvature="0"
         d="m 234.193,293.607 1.519,13.099 -3.746,1.38 -4.558,-41.741 4.369,-1.61 23.658,34.702 -3.87,1.426 -7.429,-10.921 -9.943,3.665 z m 7.775,-7.245 -6.8,-9.988 c -1.544,-2.269 -2.797,-4.383 -4.027,-6.442 l -0.085,0.031 c 0.421,2.42 0.821,4.917 1.135,7.439 l 1.33,12.073 8.447,-3.113 z"
         id="path135" /><path
         inkscape:connector-curvature="0"
         d="m 259.644,305.812 c -0.319,-3.685 -1.43,-10.168 -2.499,-14.479 l 3.87,-2.066 c 0.818,5.169 1.308,12.144 1.124,15.238 l -2.495,1.307 z"
         id="path137" /><path
         inkscape:connector-curvature="0"
         d="m 263.116,253.769 c 1.414,-1.035 3.785,-2.297 6.323,-3.232 3.62,-1.334 6.265,-1.344 8.723,-0.057 2,0.936 3.71,2.882 4.818,5.888 1.36,3.69 0.762,7.582 -1.65,10.144 l 0.041,0.111 c 2.999,-0.072 7.227,1.785 9.317,7.456 1.212,3.288 1.175,6.139 0.45,8.531 -1.058,3.159 -3.801,5.461 -8.379,7.147 -2.497,0.92 -4.495,1.399 -5.786,1.613 l -13.857,-37.601 z m 9.39,14.321 3.287,-1.211 c 3.829,-1.411 5.071,-4.964 3.713,-8.649 -1.651,-4.48 -4.795,-5.32 -8.458,-3.97 -1.664,0.613 -2.558,1.137 -3.078,1.522 l 4.536,12.308 z m 6.749,18.316 c 0.769,-0.089 1.832,-0.413 3.123,-0.889 3.744,-1.38 6.508,-4.528 4.46,-10.083 -1.923,-5.219 -6.005,-6.164 -9.959,-4.707 l -2.995,1.104 5.371,14.575 z"
         id="path139" /><path
         inkscape:connector-curvature="0"
         d="m 285.493,244.94 3.62,-1.334 12.562,34.087 11.985,-4.417 1.527,4.143 -15.605,5.751 -14.089,-38.23 z"
         id="path141" /><path
         inkscape:connector-curvature="0"
         d="m 319.336,262.231 1.519,13.099 -3.746,1.38 -4.558,-41.741 4.369,-1.61 23.658,34.702 -3.87,1.426 -7.429,-10.921 -9.943,3.665 z m 7.775,-7.245 -6.8,-9.988 c -1.544,-2.269 -2.797,-4.383 -4.027,-6.442 l -0.085,0.031 c 0.421,2.42 0.821,4.917 1.135,7.439 l 1.33,12.073 8.447,-3.113 z"
         id="path143" /><path
         inkscape:connector-curvature="0"
         d="m 344.787,274.436 c -0.319,-3.685 -1.43,-10.168 -2.499,-14.479 l 3.87,-2.066 c 0.818,5.169 1.308,12.144 1.124,15.238 l -2.495,1.307 z"
         id="path145" /><path
         inkscape:connector-curvature="0"
         d="m 348.258,222.392 c 1.414,-1.035 3.785,-2.297 6.323,-3.232 3.62,-1.334 6.265,-1.344 8.723,-0.057 2,0.936 3.71,2.882 4.818,5.888 1.36,3.69 0.762,7.582 -1.65,10.144 l 0.041,0.111 c 2.999,-0.072 7.227,1.785 9.317,7.456 1.212,3.288 1.175,6.139 0.45,8.531 -1.058,3.16 -3.801,5.461 -8.379,7.148 -2.497,0.92 -4.495,1.399 -5.786,1.613 l -13.857,-37.602 z m 9.39,14.322 3.287,-1.211 c 3.829,-1.411 5.071,-4.964 3.713,-8.649 -1.651,-4.48 -4.795,-5.32 -8.458,-3.97 -1.664,0.613 -2.558,1.137 -3.078,1.522 l 4.536,12.308 z m 6.75,18.315 c 0.769,-0.089 1.832,-0.413 3.123,-0.889 3.744,-1.38 6.508,-4.528 4.46,-10.083 -1.923,-5.219 -6.005,-6.164 -9.959,-4.707 l -2.995,1.104 5.371,14.575 z"
         id="path147" /><path
         inkscape:connector-curvature="0"
         d="m 370.636,213.564 3.62,-1.334 12.561,34.087 11.985,-4.417 1.527,4.143 -15.605,5.751 -14.088,-38.23 z"
         id="path149" /><path
         inkscape:connector-curvature="0"
         d="m 404.478,230.854 1.519,13.099 -3.746,1.38 -4.558,-41.741 4.369,-1.61 23.658,34.702 -3.869,1.426 -7.429,-10.921 -9.944,3.665 z m 7.775,-7.245 -6.8,-9.988 c -1.544,-2.269 -2.797,-4.383 -4.027,-6.442 l -0.085,0.031 c 0.421,2.42 0.821,4.917 1.135,7.439 l 1.33,12.073 8.447,-3.113 z"
         id="path151" /><path
         inkscape:connector-curvature="0"
         d="m 427.958,232.577 c -0.752,-2.041 -0.257,-3.902 1.158,-4.424 1.498,-0.552 2.999,0.573 3.752,2.614 0.732,1.986 0.338,3.867 -1.16,4.419 -1.457,0.538 -3.018,-0.623 -3.75,-2.609 z m -1.95,-8.498 -10.615,-27.009 3.995,-1.472 9.45,27.439 -2.83,1.042 z"
         id="path153" /></g></g></svg>