<?xml version="1.0" encoding="UTF-8" standalone="no"?>
<!-- Generator: Adobe Illustrator 17.0.0, SVG Export Plug-In . SVG Version: 6.00 Build 0)  -->

<svg
   xmlns:dc="http://purl.org/dc/elements/1.1/"
   xmlns:cc="http://creativecommons.org/ns#"
   xmlns:rdf="http://www.w3.org/1999/02/22-rdf-syntax-ns#"
   xmlns:svg="http://www.w3.org/2000/svg"
   xmlns="http://www.w3.org/2000/svg"
   xmlns:sodipodi="http://sodipodi.sourceforge.net/DTD/sodipodi-0.dtd"
   xmlns:inkscape="http://www.inkscape.org/namespaces/inkscape"
   version="1.1"
   id="Capa_1"
   x="0px"
   y="0px"
   preserveAspectRatio="xMinYMin meet"
   viewBox="0 0 124.61999 124.90699"
   enable-background="new 0 0 595.28 841.89"
   xml:space="preserve"
   inkscape:version="0.91pre3 r13670"
   sodipodi:docname="fisica.svg"><title
     id="title8538">Disparador exploracion</title><metadata
     id="metadata49"><rdf:RDF><cc:Work
         rdf:about=""><dc:format>image/svg+xml</dc:format><dc:type
           rdf:resource="http://purl.org/dc/dcmitype/StillImage" /><dc:title>Disparador exploracion</dc:title></cc:Work></rdf:RDF></metadata><defs
     id="defs47"><clipPath
       id="SVGID_2_"><rect
         height="369.78799"
         width="369.78799"
         y="219.08701"
         x="103.533"
         id="use18" /></clipPath><clipPath
       id="clipPath8528"><rect
         height="369.78799"
         width="369.78799"
         y="219.08701"
         x="103.533"
         id="use8530" /></clipPath><clipPath
       id="clipPath8532"><rect
         height="369.78799"
         width="369.78799"
         y="219.08701"
         x="103.533"
         id="use8534" /></clipPath><clipPath
       id="SVGID_4_"><circle
         r="45.061001"
         cy="370.69601"
         cx="322.60199"
         id="use318" /></clipPath><clipPath
       id="clipPath8538"><circle
         r="45.061001"
         cy="370.69601"
         cx="322.60199"
         id="use8540" /></clipPath><linearGradient
       id="SVGID_1_"
       gradientUnits="userSpaceOnUse"
       x1="306.2709"
       y1="169.8997"
       x2="305.08121"
       y2="332.57861"><stop
         offset="0"
         style="stop-color:#AFE0E6"
         id="stop13" /><stop
         offset="0.212"
         style="stop-color:#BDDAD7"
         id="stop15" /><stop
         offset="0.6131"
         style="stop-color:#DCD0B5"
         id="stop17" /><stop
         offset="1"
         style="stop-color:#F9C290"
         id="stop19" /></linearGradient></defs><sodipodi:namedview
     pagecolor="#ffffff"
     bordercolor="#666666"
     borderopacity="1"
     objecttolerance="10"
     gridtolerance="10"
     guidetolerance="10"
     inkscape:pageopacity="0"
     inkscape:pageshadow="2"
     inkscape:window-width="1366"
     inkscape:window-height="705"
     id="namedview45"
     showgrid="false"
     units="mm"
     width="209mm"
     inkscape:zoom="3.1714774"
     inkscape:cx="123.93353"
     inkscape:cy="40.574071"
     inkscape:window-x="-8"
     inkscape:window-y="-8"
     inkscape:window-maximized="1"
     inkscape:current-layer="Capa_1"
     fit-margin-top="0"
     fit-margin-left="0"
     fit-margin-right="0"
     fit-margin-bottom="0"
     showguides="false" /><path
     d="m 117.03041,104.71471 c 0,6.49564 -5.32024,11.76112 -11.88354,11.76112 l -86.439372,0 c -6.563291,0 -11.8835358,-5.26548 -11.8835358,-11.76112 l 0,-84.522422 c 0,-6.495637 5.3202448,-11.7611166 11.8835358,-11.7611166 l 86.439372,0 c 6.5633,0 11.88354,5.2654796 11.88354,11.7611166 l 0,84.522422 z"
     id="path5"
     inkscape:connector-curvature="0"
     style="clip-rule:evenodd;opacity:0.7;fill:#f9c487;fill-opacity:1;fill-rule:evenodd" /><g
     transform="matrix(0.25117899,0,0,0.16916361,-11.114537,-7.6254041)"
     id="Capa_2"><linearGradient
       id="linearGradient8271"
       gradientUnits="userSpaceOnUse"
       x1="306.2709"
       y1="169.8997"
       x2="305.08121"
       y2="332.57861"><stop
         offset="0"
         style="stop-color:#AFE0E6"
         id="stop8273" /><stop
         offset="0.212"
         style="stop-color:#BDDAD7"
         id="stop8275" /><stop
         offset="0.6131"
         style="stop-color:#DCD0B5"
         id="stop8277" /><stop
         offset="1"
         style="stop-color:#F9C290"
         id="stop8279" /></linearGradient><rect
       style="fill:url(#SVGID_1_)"
       x="162.714"
       y="196.952"
       width="285.00201"
       height="234.646"
       id="rect21" /><g
       id="g23"><path
         style="fill:#e8f1f1"
         inkscape:connector-curvature="0"
         d="m 466.398,310.019 c -5.541,-4.831 -12.549,-8.833 -16.572,-10.557 -13.585,-5.822 -77.663,-18.896 -84.78,-19.542 -7.117,-0.646 -41.906,9.967 -41.906,9.967 l 10.526,47.607 132.732,-0.228 0,-27.247 z"
         id="path25" /><path
         style="fill:#d9e9e9"
         inkscape:connector-curvature="0"
         d="m 345.708,298.894 c 0,0 5.223,-8.704 8.214,-10.469 4.018,-2.371 17.133,-7.39 17.133,-7.39 l -8.633,-2.442 -31.989,9.138 15.275,11.163 z"
         id="path27" /></g><g
       id="g29"><path
         style="fill:#eaf6f6"
         inkscape:connector-curvature="0"
         d="m 124.937,330.536 306.745,14.265 c 0,0 -26.892,-30.454 -32.391,-31.102 -5.499,-0.648 -71.479,-21.348 -81.789,-26.524 -10.309,-5.176 -45.293,-31.866 -56.408,-37.538 -7.947,-4.055 -29.008,-16.941 -40.691,-16.941 -11.683,0 -48.992,20.97 -59.301,26.144 -9.572,4.804 -32.881,10.055 -36.165,10.782 l 0,60.914 z"
         id="path31" /><path
         style="fill:#d9e9e9"
         inkscape:connector-curvature="0"
         d="m 188.857,244.507 c -10.434,5.488 -29.36,14.234 -29.36,14.234 0,0 -22.185,8.518 -34.559,10.893 l 0,7.667 44.057,-9.029 c 0,0 10.446,-8.934 22.301,-18.781 9.685,-8.045 24.883,-15.177 31.21,-16.669 -0.001,0 -7.131,-2.263 -33.649,11.685 z"
         id="path33" /></g><path
       style="fill:#dfe8e6"
       inkscape:connector-curvature="0"
       d="M 289.697,315.533"
       id="path35" /><path
       style="fill:#dfe5e4"
       inkscape:connector-curvature="0"
       d="m 460.772,481.434 0,-169.093 c -47.657,-6.078 -119.104,-5.134 -187.405,16.163 -39.177,12.216 -124.785,2.24 -131.344,1.45 l 0,151.48"
       id="path37" /><g
       id="g39"><g
         id="g41"><polygon
           style="fill:#315226"
           points="227.962,320.693 230.511,320.693 226.785,315.889 229.139,315.889 224.432,308.044 219.725,315.889 222.079,315.889 218.352,320.693 220.902,320.693 217.372,325.89 224.432,325.89 231.492,325.89 "
           id="polygon43" /><polygon
           style="fill:#355a2b"
           points="218.517,318.65 222.069,318.65 216.877,311.956 220.156,311.956 213.599,301.026 207.041,311.956 210.32,311.956 205.129,318.65 208.68,318.65 203.762,325.89 213.599,325.89 223.435,325.89 "
           id="polygon45" /><polygon
           style="fill:#355a2b"
           points="244.562,318.167 248.35,318.167 242.813,311.027 246.311,311.027 239.316,299.369 232.321,311.027 235.819,311.027 230.281,318.167 234.07,318.167 228.824,325.89 239.316,325.89 249.808,325.89 "
           id="polygon47" /><polygon
           style="fill:#406e34"
           points="206.864,318.567 212.263,318.567 204.372,308.392 209.356,308.392 199.388,291.778 189.42,308.392 194.404,308.392 186.513,318.567 191.912,318.567 184.436,329.573 199.388,329.573 214.34,329.573 "
           id="polygon49" /></g><g
         id="g51"><polygon
           style="fill:#d9e9e9"
           points="203.749,336.832 194.287,329.573 162.714,329.573 169.386,336.832 "
           id="polygon53" /><g
           id="g55"><polyline
             style="fill:#8d5b53"
             points="162.714,318.506 168.898,310.043 176.059,318.506 176.059,329.573 162.714,329.573     "
             id="polyline57" /><rect
             style="fill:#a2665f"
             x="176.05901"
             y="318.50601"
             width="18.228001"
             height="11.067"
             id="rect59" /><polygon
             style="fill:#d9e9e9"
             points="194.287,318.506 176.059,318.506 168.898,310.043 186.94,310.222 "
             id="polygon61" /></g></g></g><g
       id="g63"><path
         style="opacity:0.2;fill:#333333"
         inkscape:connector-curvature="0"
         d="m 274.711,486.453 12.423,-66.514 c 0.093,-0.574 0.157,-1.182 0.196,-1.817 l 0.54,-2.744 c 0.242,-18.059 -4.686,-29.227 -14.437,-30.801 l -2.312,-0.373 c -9.752,-1.575 -22.034,14.905 -23.609,24.656 l -12.529,77.593 39.728,0 z"
         id="path65" /><g
         id="g67"><g
           id="g69"><g
             id="g71"><path
               style="fill:#a01d26"
               inkscape:connector-curvature="0"
               d="m 263.204,461.939 c -2.396,10.767 -16.634,19.497 -31.802,19.497 l -4.578,0 c -15.168,0 -23.81,-8.73 -19.305,-19.497 l 28.359,-67.775 c 4.506,-10.768 21.743,-30.636 31.025,-30.636 l 2.2,0 c 9.282,0 13.796,19.869 11.515,30.638 l -17.414,67.773 z"
               id="path73" /><path
               style="fill:#c0282d"
               inkscape:connector-curvature="0"
               d="m 258.001,486.453 21.55,-87.251 c 2.281,-10.768 -2.47,-30.638 -12.003,-30.638 l -2.26,0 c -9.533,0 -27.012,19.868 -31.518,30.636 l -36.509,87.252 60.74,0 z"
               id="path75" /><polygon
               style="fill:#1a1a1a"
               points="221.656,477.832 218.645,486.453 238.86,486.453 241.306,477.832 "
               id="polygon77" /><path
               style="fill:#333333"
               inkscape:connector-curvature="0"
               d="m 216.648,478.139 4.045,-11.068 c 1.787,-4.89 9.368,-8.858 16.921,-8.858 l 0,0 c 7.551,0 12.617,3.967 11.306,8.858 l -2.966,11.068"
               id="path79" /></g><path
             style="fill:#e5e5e5"
             inkscape:connector-curvature="0"
             d="m 269.759,368.95 c 0,0 -3.52,27.919 -6.422,31.233 -2.961,3.314 -40.833,25.942 -40.833,25.942 l -3.476,8.308 c 0,0 52.378,-21.858 54.88,-25.54 2.45,-3.683 5.269,-23.177 5.269,-23.177 0,0 -1.755,-14.69 -9.418,-16.766 z"
             id="path81" /></g></g></g><g
       id="g83"><path
         style="opacity:0.2;fill:#333333"
         inkscape:connector-curvature="0"
         d="m 339.662,495.864 40.957,0 -7.187,-36.34 c -0.127,-0.568 -0.292,-1.156 -0.491,-1.76 l -0.516,-2.749 c -2.154,-9.641 -15.189,-25.405 -24.83,-23.252 l -2.285,0.511 c -9.641,2.154 -13.26,10.402 -12.783,31.653 l 7.135,31.937 z"
         id="path85" /><g
         id="g87"><g
           id="g89"><g
             id="g91"><path
               style="fill:#a01d26"
               inkscape:connector-curvature="0"
               d="m 361.439,495.864 60.701,0 c -0.118,-0.343 -0.245,-0.688 -0.392,-1.036 l -28.585,-67.775 c -4.542,-10.768 -24.303,-30.985 -36.141,-31.348 l -2.806,-0.086 c -11.838,-0.363 -17.609,19.466 -14.707,30.397 l 21.596,68.797 c 0.098,0.353 0.212,0.703 0.334,1.051 z"
               id="path93" /><path
               style="fill:#c0282d"
               inkscape:connector-curvature="0"
               d="m 422.186,495.864 -26.898,-63.775 c -4.542,-10.768 -24.481,-30.967 -36.504,-31.312 l -2.85,-0.082 c -12.023,-0.344 -17.968,19.501 -15.066,30.432 l 19.441,64.737 61.877,0 z"
               id="path95" /><path
               style="fill:#333333"
               inkscape:connector-curvature="0"
               d="m 404.032,495.864 c -3.582,-2.842 -9.301,-4.79 -15.064,-4.797 -5.761,-0.007 -10.138,1.941 -11.758,4.797 l 26.822,0 z"
               id="path97" /></g><path
             style="fill:#e5e5e5"
             inkscape:connector-curvature="0"
             d="m 353.129,401.001 c 0,0 3.588,28.063 6.998,31.453 3.453,3.386 46.517,26.56 46.517,26.56 l 3.504,8.308 c 0,0 -59.498,-22.535 -62.469,-26.295 -2.932,-3.764 -6.511,-23.5 -6.511,-23.5 0,0 2.265,-14.719 11.961,-16.526 z"
             id="path99" /></g></g></g><g
       id="g101"><g
         id="g103"><polygon
           style="fill:#315226"
           points="369.336,297.373 371.329,297.373 368.417,293.616 370.256,293.616 366.577,287.484 362.897,293.616 364.737,293.616 361.825,297.373 363.817,297.373 361.058,301.435 366.577,301.435 372.096,301.435 "
           id="polygon105" /><polygon
           style="fill:#406e34"
           points="378.049,295.277 381.07,295.277 376.654,289.583 379.443,289.583 373.865,280.287 368.288,289.583 371.077,289.583 366.661,295.277 369.682,295.277 365.499,301.435 373.865,301.435 382.232,301.435 "
           id="polygon107" /></g><g
         id="g109"><g
           id="g111"><polyline
             style="fill:#6c6259"
             points="377.601,294.03 382.232,287.692 387.594,294.03 387.594,302.316 377.601,302.316     "
             id="polyline113" /><rect
             style="fill:#80776b"
             x="387.59399"
             y="294.03"
             width="13.649"
             height="8.2869997"
             id="rect115" /><polygon
             style="fill:#d9e9e9"
             points="401.243,294.03 387.594,294.03 382.232,287.692 395.742,287.826 "
             id="polygon117" /></g><polygon
           style="fill:#d9e9e9"
           points="405.73,309.197 401.243,302.316 377.601,302.316 392.4,310.071 "
           id="polygon119" /></g><g
         id="g121"><polygon
           style="fill:#315226"
           points="429.102,303.58 430.966,303.58 428.242,300.067 429.962,300.067 426.521,294.332 423.081,300.067 424.801,300.067 422.077,303.58 423.941,303.58 421.36,307.379 426.521,307.379 431.683,307.379 "
           id="polygon123" /><polygon
           style="fill:#355a2b"
           points="419.405,302.086 422.002,302.086 418.207,297.192 420.604,297.192 415.81,289.202 411.016,297.192 413.413,297.192 409.618,302.086 412.214,302.086 408.619,307.379 415.81,307.379 423.001,307.379 "
           id="polygon125" /><polygon
           style="fill:#406e34"
           points="408.795,302.025 412.742,302.025 406.974,294.586 410.617,294.586 403.33,282.442 396.043,294.586 399.687,294.586 393.918,302.025 397.865,302.025 392.4,310.071 403.33,310.071 414.26,310.071 "
           id="polygon127" /></g></g><g
       id="g129"><g
         id="g131"><rect
           style="fill:#9b3a3b"
           x="402.85501"
           y="387.522"
           transform="matrix(0.9961,0.0879,-0.0879,0.9961,36.9208,-34.1217)"
           width="5.75"
           height="28.908001"
           id="rect133" /><g
           id="g135"><polygon
             style="fill:#eee1d2"
             points="412.476,358.226 427.816,184.736 422.196,184.736 406.962,357.391 "
             id="polygon137" /><g
             id="g139"><ellipse
               style="fill:none;stroke:#333333;stroke-width:5;stroke-miterlimit:10"
               transform="matrix(0.9961,0.0879,-0.0879,0.9961,35.7908,-34.2351)"
               stroke-miterlimit="10"
               cx="406.59201"
               cy="389.24301"
               rx="12.589"
               ry="4.6560001"
               id="ellipse141" /><line
               style="fill:none;stroke:#333333;stroke-width:1.5;stroke-miterlimit:10"
               stroke-miterlimit="10"
               x1="394.05301"
               y1="388.13599"
               x2="418.67099"
               y2="390.30801"
               id="line143" /><line
               style="fill:none;stroke:#333333;stroke-width:1.5;stroke-miterlimit:10"
               stroke-miterlimit="10"
               x1="401.552"
               y1="385.47101"
               x2="412.37601"
               y2="392.901"
               id="line145" /><line
               style="fill:none;stroke:#333333;stroke-width:1.5;stroke-miterlimit:10"
               stroke-miterlimit="10"
               x1="414.17099"
               y1="385.918"
               x2="399.75201"
               y2="392.453"
               id="line147" /></g><path
             style="fill:#9b3a3b"
             inkscape:connector-curvature="0"
             d="m 412.588,356.96 -2.56,29.012 c -0.167,1.886 -1.541,3.303 -3.073,3.168 l 0,0 c -1.532,-0.135 -2.638,-1.771 -2.471,-3.657 l 2.56,-29.013"
             id="path149" /><rect
             style="fill:#c0282d"
             x="407.302"
             y="352.70801"
             transform="matrix(0.9961,0.0879,-0.0879,0.9961,32.6626,-34.6669)"
             width="5.566"
             height="1.897"
             id="rect151" /><path
             style="opacity:0.2;fill:none;stroke:#575553;stroke-width:2;stroke-miterlimit:10"
             inkscape:connector-curvature="0"
             stroke-miterlimit="10"
             d="m 427.816,184.736 c -6.867,75.863 -13.661,153.202 -20.587,229.089"
             id="path153" /></g></g><g
         id="g155"><path
           style="fill:#e8f1f1"
           inkscape:connector-curvature="0"
           d="m 394.769,413.834 c 0,0 12.224,-5.845 19.396,6.922"
           id="path157" /><path
           style="fill:#d4dadf"
           inkscape:connector-curvature="0"
           d="m 394.769,413.834 c 0,0 0.302,-0.197 0.878,-0.451 0.284,-0.137 0.644,-0.264 1.053,-0.428 0.417,-0.133 0.884,-0.318 1.416,-0.428 0.265,-0.062 0.542,-0.127 0.828,-0.194 0.291,-0.042 0.592,-0.086 0.901,-0.131 0.618,-0.112 1.285,-0.098 1.97,-0.131 0.683,0.068 1.405,0.025 2.113,0.203 0.356,0.069 0.716,0.139 1.077,0.208 l 1.053,0.341 c 0.717,0.197 1.349,0.599 2.006,0.906 0.646,0.332 1.189,0.811 1.76,1.192 0.536,0.43 0.984,0.927 1.437,1.358 0.461,0.426 0.762,0.949 1.103,1.37 0.327,0.434 0.631,0.826 0.817,1.23 0.207,0.387 0.388,0.724 0.537,1.001 0.293,0.555 0.446,0.876 0.446,0.876 0,0 -0.231,-0.279 -0.611,-0.773 -0.188,-0.247 -0.416,-0.547 -0.677,-0.891 -0.241,-0.358 -0.599,-0.692 -0.955,-1.078 -0.378,-0.367 -0.715,-0.831 -1.185,-1.204 -0.467,-0.374 -0.928,-0.803 -1.446,-1.189 -0.553,-0.335 -1.089,-0.739 -1.69,-1.045 -0.617,-0.273 -1.206,-0.64 -1.874,-0.81 l -0.971,-0.334 c -0.335,-0.07 -0.668,-0.14 -0.999,-0.209 -0.656,-0.173 -1.33,-0.182 -1.971,-0.274 -0.647,0.011 -1.278,-0.067 -1.875,-0.006 -0.599,0.023 -1.164,0.072 -1.686,0.145 -0.524,0.056 -0.997,0.161 -1.424,0.224 -0.418,0.096 -0.791,0.165 -1.088,0.254 -0.604,0.151 -0.943,0.268 -0.943,0.268 z"
           id="path159" /></g></g><g
       id="g161"><g
         id="g163"><rect
           style="fill:#9b3a3b"
           x="201.532"
           y="363.18301"
           transform="matrix(-0.9961,0.0879,-0.0879,-0.9961,441.2337,735.834)"
           width="5.75"
           height="28.908001"
           id="rect165" /><g
           id="g167"><ellipse
             style="fill:none;stroke:#333333;stroke-width:5;stroke-miterlimit:10"
             transform="matrix(-0.9961,0.0879,-0.0879,-0.9961,438.3773,710.501)"
             stroke-miterlimit="10"
             cx="203.54401"
             cy="364.90302"
             rx="12.589"
             ry="4.6560001"
             id="ellipse169" /><line
             style="fill:none;stroke:#333333;stroke-width:1.5;stroke-miterlimit:10"
             stroke-miterlimit="10"
             x1="216.084"
             y1="363.79599"
             x2="191.466"
             y2="365.96899"
             id="line171" /><line
             style="fill:none;stroke:#333333;stroke-width:1.5;stroke-miterlimit:10"
             stroke-miterlimit="10"
             x1="208.584"
             y1="361.13101"
             x2="197.761"
             y2="368.56201"
             id="line173" /><line
             style="fill:none;stroke:#333333;stroke-width:1.5;stroke-miterlimit:10"
             stroke-miterlimit="10"
             x1="195.966"
             y1="361.57901"
             x2="210.384"
             y2="368.11401"
             id="line175" /></g><g
           id="g177"><polygon
             style="fill:#eee1d2"
             points="203.094,332.131 188.273,164.156 182.685,164.156 197.549,332.621 "
             id="polygon179" /><path
             style="fill:#9b3a3b"
             inkscape:connector-curvature="0"
             d="m 197.549,332.621 2.56,29.012 c 0.167,1.886 1.541,3.303 3.073,3.168 l 0,0 c 1.532,-0.135 2.638,-1.771 2.471,-3.657 l -2.56,-29.013"
             id="path181" /><rect
             style="fill:#c0282d"
             x="197.269"
             y="328.36801"
             transform="matrix(-0.9961,0.0879,-0.0879,-0.9961,428.269,639.7789)"
             width="5.566"
             height="1.897"
             id="rect183" /><path
             style="opacity:0.2;fill:none;stroke:#575553;stroke-width:2;stroke-miterlimit:10"
             inkscape:connector-curvature="0"
             stroke-miterlimit="10"
             d="m 182.685,164.156 c 6.397,74.741 13.935,150.624 20.222,225.328"
             id="path185" /></g></g><g
         id="g187"><path
           style="fill:#e8f1f1"
           inkscape:connector-curvature="0"
           d="m 215.368,389.495 c 0,0 -12.224,-5.845 -19.396,6.922"
           id="path189" /><path
           style="fill:#d4dadf"
           inkscape:connector-curvature="0"
           d="m 215.368,389.495 c 0,0 -0.34,-0.117 -0.943,-0.269 -0.297,-0.09 -0.67,-0.158 -1.088,-0.254 -0.427,-0.063 -0.9,-0.168 -1.424,-0.224 -0.522,-0.073 -1.087,-0.122 -1.686,-0.145 -0.597,-0.062 -1.228,0.016 -1.875,0.006 -0.641,0.092 -1.315,0.101 -1.971,0.274 -0.331,0.069 -0.664,0.139 -0.999,0.209 l -0.971,0.334 c -0.669,0.171 -1.257,0.538 -1.874,0.81 -0.601,0.306 -1.137,0.71 -1.69,1.045 -0.518,0.385 -0.979,0.815 -1.446,1.189 -0.47,0.373 -0.807,0.838 -1.185,1.204 -0.356,0.387 -0.715,0.721 -0.955,1.078 -0.261,0.344 -0.489,0.644 -0.677,0.891 -0.38,0.494 -0.611,0.773 -0.611,0.773 0,0 0.153,-0.321 0.446,-0.876 0.149,-0.278 0.33,-0.615 0.537,-1.001 0.186,-0.404 0.49,-0.796 0.817,-1.23 0.341,-0.421 0.642,-0.944 1.103,-1.37 0.453,-0.431 0.901,-0.928 1.437,-1.358 0.571,-0.381 1.114,-0.86 1.76,-1.192 0.657,-0.307 1.289,-0.709 2.006,-0.906 l 1.053,-0.341 c 0.361,-0.07 0.72,-0.139 1.076,-0.208 0.708,-0.178 1.43,-0.135 2.113,-0.203 0.686,0.033 1.352,0.019 1.97,0.131 0.309,0.045 0.61,0.089 0.901,0.131 0.286,0.067 0.562,0.132 0.828,0.194 0.532,0.11 0.999,0.296 1.416,0.428 0.409,0.165 0.769,0.291 1.053,0.428 0.577,0.255 0.879,0.452 0.879,0.452 z"
           id="path191" /></g></g></g></svg>