<svg xmlns="http://www.w3.org/2000/svg" preserveAspectRatio="xMinYMin meet" viewBox="0 0 124.61999 124.90699" enable-background="new 0 0 595.28 841.89"><title>Disparador exploracion</title><defs><clipPath><path d="M103.533 219.087H473.32v369.788H103.534z"/></clipPath><clipPath><path d="M103.533 219.087H473.32v369.788H103.534z"/></clipPath><clipPath><path d="M103.533 219.087H473.32v369.788H103.534z"/></clipPath><clipPath><circle r="45.061" cy="370.696" cx="322.602"/></clipPath><clipPath><circle r="45.061" cy="370.696" cx="322.602"/></clipPath><linearGradient id="a" gradientUnits="userSpaceOnUse" x1="306.271" y1="169.9" x2="305.081" y2="332.579"><stop offset="0" stop-color="#AFE0E6"/><stop offset=".212" stop-color="#BDDAD7"/><stop offset=".613" stop-color="#DCD0B5"/><stop offset="1" stop-color="#F9C290"/></linearGradient></defs><path d="M117.03 104.715c0 6.495-5.32 11.76-11.883 11.76h-86.44c-6.563 0-11.883-5.265-11.883-11.76V20.192c0-6.495 5.32-11.76 11.883-11.76h86.44c6.563 0 11.883 5.265 11.883 11.76v84.523z" clip-rule="evenodd" opacity=".7" fill="#f9c487" fill-rule="evenodd"/><g transform="matrix(.251 0 0 .169 -11.115 -7.625)"><linearGradient gradientUnits="userSpaceOnUse" x1="306.271" y1="169.9" x2="305.081" y2="332.579"><stop offset="0" stop-color="#AFE0E6"/><stop offset=".212" stop-color="#BDDAD7"/><stop offset=".613" stop-color="#DCD0B5"/><stop offset="1" stop-color="#F9C290"/></linearGradient><path fill="url(#a)" d="M162.714 196.952h285.002v234.646H162.714z"/><path d="M466.398 310.02c-5.54-4.832-12.55-8.834-16.572-10.558-13.585-5.822-77.663-18.896-84.78-19.542-7.117-.646-41.906 9.967-41.906 9.967l10.526 47.607 132.732-.228V310.02z" fill="#e8f1f1"/><path d="M345.708 298.894s5.223-8.704 8.214-10.47c4.018-2.37 17.133-7.39 17.133-7.39l-8.633-2.44-31.99 9.137 15.276 11.165z" fill="#d9e9e9"/><path d="M124.937 330.536L431.682 344.8s-26.892-30.453-32.39-31.1c-5.5-.65-71.48-21.35-81.79-26.525-10.31-5.176-45.293-31.866-56.408-37.538-7.947-4.055-29.008-16.94-40.69-16.94-11.684 0-48.993 20.97-59.302 26.143-9.572 4.804-32.88 10.055-36.165 10.782v60.914z" fill="#eaf6f6"/><path d="M188.857 244.507c-10.434 5.488-29.36 14.234-29.36 14.234s-22.185 8.52-34.56 10.895v7.667l44.058-9.028s10.446-8.934 22.3-18.78c9.686-8.046 24.884-15.178 31.21-16.67 0 0-7.13-2.263-33.648 11.685z" fill="#d9e9e9"/><path d="M289.697 315.533" fill="#dfe8e6"/><path d="M460.772 481.434V312.34c-47.657-6.077-119.104-5.133-187.405 16.164-39.177 12.216-124.785 2.24-131.344 1.45v151.48" fill="#dfe5e4"/><path fill="#315226" d="M227.962 320.693h2.55l-3.727-4.804h2.354l-4.71-7.847-4.706 7.845h2.354l-3.728 4.803h2.55l-3.53 5.198h14.12z"/><path fill="#355a2b" d="M218.517 318.65h3.552l-5.194-6.694h3.28l-6.558-10.93-6.56 10.93h3.28l-5.19 6.694h3.55l-4.918 7.24h19.672zM244.562 318.167h3.788l-5.537-7.14h3.498l-6.993-11.658-6.995 11.656h3.5l-5.54 7.14h3.79l-5.246 7.723h20.984z"/><path fill="#406e34" d="M206.864 318.567h5.4l-7.892-10.175h4.984l-9.968-16.614-9.968 16.614h4.984l-7.89 10.175h5.398l-7.476 11.006h29.904z"/><path fill="#d9e9e9" d="M203.75 336.832l-9.463-7.26h-31.573l6.672 7.26z"/><path fill="#8d5b53" d="M162.714 318.506l6.184-8.463 7.16 8.463v11.067h-13.344"/><path fill="#a2665f" d="M176.06 318.506h18.227v11.067H176.06z"/><path fill="#d9e9e9" d="M194.287 318.506H176.06l-7.162-8.463 18.042.18z"/><path d="M274.71 486.453l12.424-66.514c.093-.576.157-1.184.196-1.82l.54-2.743c.242-18.06-4.686-29.227-14.437-30.8l-2.312-.374c-9.75-1.575-22.032 14.905-23.607 24.656l-12.53 77.592h39.73z" opacity=".2" fill="#333"/><path d="M263.204 461.94c-2.396 10.766-16.634 19.496-31.802 19.496h-4.578c-15.168 0-23.81-8.73-19.305-19.497l28.357-67.777c4.506-10.768 21.743-30.636 31.025-30.636h2.2c9.282 0 13.796 19.87 11.515 30.638l-17.414 67.773z" fill="#a01d26"/><path d="M258 486.453l21.55-87.25c2.282-10.77-2.47-30.64-12.002-30.64h-2.26c-9.533 0-27.012 19.87-31.518 30.637l-36.51 87.252H258z" fill="#c0282d"/><path fill="#1a1a1a" d="M221.656 477.832l-3.01 8.62h20.214l2.446-8.62z"/><path d="M216.648 478.14l4.045-11.07c1.787-4.89 9.368-8.857 16.92-8.857 7.552 0 12.618 3.967 11.307 8.858l-2.966 11.07" fill="#333"/><path d="M269.76 368.95s-3.52 27.92-6.423 31.233c-2.96 3.314-40.833 25.942-40.833 25.942l-3.476 8.308s52.378-21.858 54.88-25.54c2.45-3.683 5.27-23.177 5.27-23.177s-1.756-14.69-9.42-16.766z" fill="#e5e5e5"/><path d="M339.662 495.864h40.957l-7.19-36.34c-.126-.568-.29-1.156-.49-1.76l-.516-2.75c-2.154-9.64-15.19-25.404-24.83-23.25l-2.285.51c-9.64 2.154-13.26 10.402-12.784 31.653l7.135 31.937z" opacity=".2" fill="#333"/><path d="M361.44 495.864h60.7c-.118-.343-.245-.688-.392-1.036l-28.585-67.775c-4.542-10.768-24.303-30.985-36.14-31.348l-2.807-.086c-11.838-.365-17.61 19.464-14.707 30.395l21.594 68.797c.098.353.212.703.334 1.05z" fill="#a01d26"/><path d="M422.186 495.864l-26.898-63.775c-4.542-10.77-24.48-30.97-36.504-31.314l-2.85-.082c-12.023-.344-17.968 19.5-15.066 30.432l19.44 64.737h61.878z" fill="#c0282d"/><path d="M404.032 495.864c-3.582-2.842-9.3-4.79-15.064-4.797-5.76-.007-10.138 1.94-11.758 4.797h26.822z" fill="#333"/><path d="M353.13 401s3.587 28.064 6.997 31.454c3.453 3.386 46.517 26.56 46.517 26.56l3.504 8.308s-59.498-22.535-62.47-26.295c-2.93-3.764-6.51-23.5-6.51-23.5s2.265-14.72 11.96-16.526z" fill="#e5e5e5"/><path fill="#315226" d="M369.336 297.373h1.993l-2.914-3.757h1.84l-3.68-6.132-3.68 6.132h1.84l-2.912 3.757h1.992l-2.76 4.062h11.04z"/><path fill="#406e34" d="M378.05 295.277h3.02l-4.416-5.694h2.79l-5.58-9.296-5.576 9.296h2.79l-4.417 5.694h3.023l-4.183 6.158h16.732z"/><path fill="#6c6259" d="M377.6 294.03l4.632-6.338 5.362 6.338v8.286H377.6"/><path fill="#80776b" d="M387.594 294.03h13.65v8.287h-13.65z"/><path fill="#d9e9e9" d="M401.243 294.03h-13.65l-5.36-6.338 13.51.134zM405.73 309.197l-4.487-6.88H377.6l14.8 7.754z"/><path fill="#315226" d="M429.102 303.58h1.864l-2.724-3.513h1.72l-3.44-5.735-3.44 5.735h1.72l-2.725 3.513h1.864l-2.58 3.8h10.324z"/><path fill="#355a2b" d="M419.405 302.086h2.597l-3.795-4.894h2.397l-4.794-7.99-4.794 7.99h2.397l-3.795 4.894h2.596l-3.595 5.293H423z"/><path fill="#406e34" d="M408.795 302.025h3.947l-5.768-7.44h3.643l-7.287-12.143-7.287 12.144h3.644l-5.77 7.44h3.948l-5.465 8.045h21.86z"/><path fill="#9b3a3b" d="M404.14 387.3l5.73.505-2.542 28.796-5.728-.504z"/><path fill="#eee1d2" d="M412.476 358.226l15.34-173.49h-5.62L406.962 357.39z"/><g stroke-miterlimit="10" fill="none" stroke="#333"><ellipse transform="matrix(.996 .088 -.088 .996 35.791 -34.235)" cx="406.592" cy="389.243" rx="12.589" ry="4.656" stroke-width="5"/><path stroke-width="1.5" d="M394.053 388.136l24.618 2.172M401.552 385.47l10.824 7.43M414.17 385.918l-14.418 6.535"/></g><path d="M412.588 356.96l-2.56 29.012c-.167 1.886-1.54 3.303-3.073 3.168-1.532-.135-2.638-1.77-2.47-3.657l2.56-29.013" fill="#9b3a3b"/><path fill="#c0282d" d="M407.373 352.467l5.544.49-.166 1.89-5.543-.49z"/><path stroke-miterlimit="10" d="M427.816 184.736c-6.867 75.863-13.66 153.202-20.587 229.09" opacity=".2" fill="none" stroke="#575553" stroke-width="2"/><path d="M394.77 413.834s12.223-5.845 19.395 6.922" fill="#e8f1f1"/><path d="M394.77 413.834s.3-.197.877-.45c.284-.138.644-.265 1.053-.43.417-.132.884-.317 1.416-.427l.828-.194.9-.13c.62-.113 1.286-.1 1.97-.132.684.07 1.406.027 2.114.205.356.07.716.14 1.077.208l1.053.34c.717.198 1.35.6 2.006.907.646.33 1.19.81 1.76 1.19.536.43.984.928 1.437 1.36.463.425.764.948 1.105 1.37.327.433.63.825.817 1.23l.538 1c.293.555.446.876.446.876s-.23-.28-.61-.773c-.19-.247-.417-.547-.678-.89-.24-.36-.6-.693-.955-1.08-.377-.366-.714-.83-1.184-1.203-.468-.374-.93-.803-1.447-1.19-.553-.334-1.09-.738-1.69-1.044-.617-.273-1.206-.64-1.874-.81l-.97-.334-1-.21c-.657-.172-1.33-.18-1.97-.273-.65.01-1.28-.07-1.877-.008-.6.023-1.164.072-1.686.145-.524.056-.997.16-1.424.224-.418.097-.79.166-1.088.255-.604.15-.943.268-.943.268z" fill="#d4dadf"/><path fill="#9b3a3b" d="M208.564 391.782l-5.728.506-2.54-28.796 5.727-.505z"/><g stroke-miterlimit="10" fill="none" stroke="#333"><ellipse transform="matrix(-.996 .088 -.088 -.996 438.377 710.501)" cx="203.544" cy="364.903" rx="12.589" ry="4.656" stroke-width="5"/><path stroke-width="1.5" d="M216.084 363.796l-24.618 2.173M208.584 361.13l-10.823 7.432M195.966 361.58l14.418 6.534"/></g><path fill="#eee1d2" d="M203.094 332.13l-14.82-167.974h-5.59L197.55 332.62z"/><path d="M197.55 332.62l2.56 29.013c.166 1.886 1.54 3.303 3.072 3.168 1.532-.133 2.638-1.77 2.47-3.655l-2.56-29.013" fill="#9b3a3b"/><path fill="#c0282d" d="M202.906 330.03l-5.544.49-.167-1.89 5.544-.488z"/><path stroke-miterlimit="10" d="M182.685 164.156c6.397 74.74 13.935 150.624 20.222 225.328" opacity=".2" fill="none" stroke="#575553" stroke-width="2"/><path d="M215.368 389.495s-12.224-5.845-19.396 6.922" fill="#e8f1f1"/><path d="M215.368 389.495s-.34-.117-.943-.27c-.297-.09-.67-.157-1.088-.253-.427-.063-.9-.168-1.424-.224-.522-.073-1.087-.122-1.686-.145-.597-.062-1.228.016-1.875.006-.64.09-1.315.1-1.97.272l-1 .21-.97.333c-.67.17-1.258.538-1.875.81-.6.306-1.137.71-1.69 1.045-.518.386-.98.816-1.446 1.19-.47.373-.805.838-1.183 1.204-.356.387-.715.72-.955 1.078-.26.344-.488.644-.676.89-.38.495-.61.774-.61.774s.152-.32.445-.876l.537-1c.186-.405.49-.797.817-1.23.34-.422.642-.945 1.103-1.37.453-.432.9-.93 1.437-1.36.57-.38 1.114-.86 1.76-1.19.657-.308 1.29-.71 2.006-.907l1.052-.34 1.076-.21c.708-.177 1.43-.134 2.113-.202.688.035 1.354.02 1.97.133.31.045.61.09.903.13l.828.195c.533.11 1 .296 1.417.428.41.165.77.29 1.053.428.576.255.878.452.878.452z" fill="#d4dadf"/></g></svg>