<?xml version="1.0" encoding="UTF-8" standalone="no"?>
<!-- Generator: Adobe Illustrator 17.0.0, SVG Export Plug-In . SVG Version: 6.00 Build 0)  -->

<svg
   xmlns:dc="http://purl.org/dc/elements/1.1/"
   xmlns:cc="http://creativecommons.org/ns#"
   xmlns:rdf="http://www.w3.org/1999/02/22-rdf-syntax-ns#"
   xmlns:svg="http://www.w3.org/2000/svg"
   xmlns="http://www.w3.org/2000/svg"
   xmlns:xlink="http://www.w3.org/1999/xlink"
   xmlns:sodipodi="http://sodipodi.sourceforge.net/DTD/sodipodi-0.dtd"
   xmlns:inkscape="http://www.inkscape.org/namespaces/inkscape"
   version="1.1"
   id="Capa_1"
   x="0px"
   y="0px"
   preserveAspectRatio="xMinYMin meet"
   viewBox="0 0 124.61999 124.90699"
   enable-background="new 0 0 595.28 841.89"
   xml:space="preserve"
   inkscape:version="0.91pre3 r13670"
   sodipodi:docname="narrativa.svg"><title
     id="title8538">Disparador exploracion</title><metadata
     id="metadata49"><rdf:RDF><cc:Work
         rdf:about=""><dc:format>image/svg+xml</dc:format><dc:type
           rdf:resource="http://purl.org/dc/dcmitype/StillImage" /><dc:title>Disparador exploracion</dc:title></cc:Work></rdf:RDF></metadata><defs
     id="defs47"><clipPath
       id="SVGID_2_"><rect
         height="369.78799"
         width="369.78799"
         y="219.08701"
         x="103.533"
         id="use18" /></clipPath><clipPath
       id="clipPath8528"><rect
         height="369.78799"
         width="369.78799"
         y="219.08701"
         x="103.533"
         id="use8530" /></clipPath><clipPath
       id="clipPath8532"><rect
         height="369.78799"
         width="369.78799"
         y="219.08701"
         x="103.533"
         id="use8534" /></clipPath><clipPath
       id="SVGID_4_"><circle
         r="45.061001"
         cy="370.69601"
         cx="322.60199"
         id="use318" /></clipPath><clipPath
       id="clipPath8538"><circle
         r="45.061001"
         cy="370.69601"
         cx="322.60199"
         id="use8540" /></clipPath><clipPath
       id="SVGID_2_-5"><use
         height="100%"
         width="100%"
         y="0"
         x="0"
         style="overflow:visible"
         xlink:href="#SVGID_1_"
         overflow="visible"
         id="use20" /></clipPath></defs><sodipodi:namedview
     pagecolor="#ffffff"
     bordercolor="#666666"
     borderopacity="1"
     objecttolerance="10"
     gridtolerance="10"
     guidetolerance="10"
     inkscape:pageopacity="0"
     inkscape:pageshadow="2"
     inkscape:window-width="1366"
     inkscape:window-height="705"
     id="namedview45"
     showgrid="false"
     units="mm"
     width="209mm"
     inkscape:zoom="1.1212866"
     inkscape:cx="-221.42552"
     inkscape:cy="124.92631"
     inkscape:window-x="-8"
     inkscape:window-y="-8"
     inkscape:window-maximized="1"
     inkscape:current-layer="Capa_1"
     fit-margin-top="0"
     fit-margin-left="0"
     fit-margin-right="0"
     fit-margin-bottom="0" /><g
     transform="matrix(0.17332967,0,0,0.11997272,-30.081866,0.04113462)"
     id="Objects"><g
       id="g14"><defs
         id="defs16"><rect
           id="SVGID_1_"
           x="205.642"
           y="157.786"
           width="445.207"
           height="445.207" /></defs><clipPath
         id="clipPath8556"><use
           height="100%"
           width="100%"
           y="0"
           x="0"
           style="overflow:visible"
           xlink:href="#SVGID_1_"
           overflow="visible"
           id="use8558" /></clipPath><g
         clip-path="url(#SVGID_2_-5)"
         id="g22"><g
           id="g24"><path
             style="fill:#69e2de"
             inkscape:connector-curvature="0"
             d="m 511.678,541.873 c -4.653,0 -9.434,-0.225 -14.346,-0.675 -21.51,-1.971 -38.176,-10.816 -50.949,-27.044 -10.617,-13.49 -16.467,-29.421 -21.629,-43.476 -4.401,-11.983 -8.557,-23.303 -13.721,-26.236 -5.246,-2.98 -9.952,-3.719 -14.386,-2.263 -9.674,3.181 -15.445,15.622 -15.5,15.747 -1.625,3.65 -5.901,5.292 -9.552,3.666 -3.65,-1.626 -5.291,-5.902 -3.666,-9.552 0.333,-0.749 8.346,-18.394 24.199,-23.607 8.414,-2.765 17.179,-1.613 26.052,3.427 9.773,5.552 14.585,18.656 20.157,33.83 4.79,13.045 10.219,27.83 19.416,39.514 10.182,12.937 23.56,19.996 40.899,21.584 29.52,2.704 53.453,-3.587 71.141,-18.698 13.956,-11.921 24.249,-29.39 30.594,-51.918 5.236,-18.591 6.351,-35.582 6.886,-43.747 l 0.021,-0.317 c 0.408,-6.218 -0.076,-17.693 -2.104,-28.194 -2.511,-13.005 -6.391,-19.229 -9.184,-20.718 -3.525,-1.879 -4.861,-6.261 -2.981,-9.787 1.879,-3.526 6.26,-4.861 9.787,-2.981 7.876,4.198 13.456,14.542 16.584,30.743 2.283,11.823 2.818,24.533 2.335,31.886 l -0.021,0.316 c -0.568,8.656 -1.749,26.669 -7.397,46.722 -7.135,25.333 -18.952,45.183 -35.123,58.998 -17.726,15.143 -40.391,22.779 -67.512,22.78 z"
             id="path26" /></g><g
           id="g28"><path
             style="fill:#ffffff"
             inkscape:connector-curvature="0"
             d="m 510.672,479.69 c -8.561,0 -17.661,-1.752 -27.177,-5.241 -7.124,-2.613 -15.163,-9.383 -25.341,-17.957 -21.905,-18.452 -49.168,-41.414 -73.073,-27.221 -3.435,2.04 -7.874,0.909 -9.914,-2.527 -2.04,-3.436 -0.908,-7.875 2.527,-9.915 14.591,-8.662 31.306,-8.594 49.677,0.203 14.822,7.097 28.84,18.905 40.104,28.394 8.366,7.047 16.269,13.703 21.001,15.439 28.944,10.612 43.308,-0.999 47.021,-4.811 4.255,-4.367 5.096,-8.515 4.599,-9.765 -1.473,-3.715 0.345,-7.919 4.059,-9.392 3.716,-1.472 7.919,0.345 9.392,4.059 2.963,7.473 -0.054,17.363 -7.686,25.196 -4.373,4.489 -12.196,10.318 -24.632,12.599 -3.417,0.626 -6.939,0.939 -10.557,0.939 z"
             id="path30" /></g><g
           id="g32"><path
             style="fill:#ffa033"
             inkscape:connector-curvature="0"
             d="m 364.853,418.305 c -0.76,0 -1.533,-0.121 -2.293,-0.375 -3.79,-1.266 -5.836,-5.364 -4.57,-9.154 6.911,-20.692 42.349,-26.852 79.869,-33.372 28.438,-4.943 63.83,-11.094 69.181,-23.501 1.599,-3.707 0.292,-8.788 -3.883,-15.101 -7.578,-11.456 -20.947,-16.052 -33.877,-20.497 -13.591,-4.672 -27.645,-9.504 -32.822,-22.838 -2.424,-6.245 -2.401,-12.396 0.066,-17.79 4.446,-9.716 15.338,-14.537 23.144,-17.318 9.873,-3.517 35.225,-6.627 60.281,-7.394 40.086,-1.227 58.003,3.577 65.979,7.823 3.526,1.877 4.863,6.258 2.986,9.786 -1.877,3.527 -6.258,4.865 -9.786,2.986 -8.82,-4.696 -30.779,-6.987 -58.736,-6.132 -25.646,0.785 -48.546,3.953 -55.868,6.561 -8.245,2.937 -13.239,6.204 -14.843,9.708 -0.527,1.153 -1.074,3.085 0.265,6.533 2.745,7.072 12.612,10.463 24.037,14.391 14.507,4.987 30.951,10.64 41.242,26.198 7.04,10.644 8.756,20.338 5.102,28.813 -8.45,19.592 -43.2,25.632 -79.99,32.026 -16.665,2.897 -33.896,5.891 -46.995,10.054 -8.712,2.769 -19.535,7.385 -21.627,13.646 -1.013,3.031 -3.835,4.947 -6.862,4.947 z"
             id="path34" /></g><g
           id="g36"><path
             style="fill:#afc01d"
             inkscape:connector-curvature="0"
             d="m 314.76,376.567 c -3.632,0 -6.762,-2.728 -7.18,-6.423 -0.375,-3.317 1.555,-6.363 4.516,-7.537 1.643,-4.339 0.798,-19.432 -2.934,-26.728 -3.397,-6.642 -9.814,-11.602 -16.606,-16.854 -4.485,-3.467 -9.122,-7.053 -13.138,-11.333 -16.382,-17.464 -21.183,-50.604 -2.218,-72.101 12.798,-14.507 30.165,-17.87 42.479,-18.137 13.533,-0.294 27.798,3.077 37.235,8.796 3.417,2.071 4.509,6.519 2.438,9.936 -2.07,3.418 -6.52,4.509 -9.936,2.438 -5.823,-3.529 -17.185,-6.979 -29.422,-6.705 -9.423,0.204 -22.613,2.668 -31.943,13.244 -10.877,12.33 -12.764,36.976 1.92,52.63 3.225,3.439 7.213,6.521 11.435,9.785 7.752,5.993 15.768,12.19 20.638,21.711 4.682,9.154 7.869,30.784 2.509,40.766 -2.71,5.048 -6.785,6.217 -8.972,6.465 -0.275,0.032 -0.55,0.047 -0.821,0.047 z"
             id="path38" /></g><g
           id="g40"><path
             style="fill:#002738"
             inkscape:connector-curvature="0"
             d="m 333.721,391.728 c -1.094,0 -2.204,-0.249 -3.248,-0.775 -3.569,-1.797 -5.005,-6.147 -3.208,-9.715 0.609,-1.209 1.275,-2.545 1.997,-3.992 7.969,-15.971 22.801,-45.7 42.874,-71.157 40.874,-51.838 77.695,-69.912 91.629,-75.276 3.73,-1.435 7.916,0.423 9.351,4.152 1.436,3.729 -0.423,7.916 -4.152,9.351 -12.82,4.936 -46.81,21.707 -85.465,70.732 -19.152,24.288 -33.552,53.151 -41.288,68.657 -0.731,1.465 -1.405,2.816 -2.021,4.04 -1.273,2.526 -3.822,3.983 -6.469,3.983 z"
             id="path42" /></g><g
           id="g44"><path
             style="fill:#ff5b45"
             inkscape:connector-curvature="0"
             d="m 325.896,432.773 c -0.906,0 -1.826,-0.172 -2.717,-0.533 -3.702,-1.502 -5.486,-5.722 -3.984,-9.424 15.712,-38.73 44.246,-63.465 65.416,-77.396 25.91,-17.05 55.445,-27.25 79.006,-27.286 0.003,0 0.008,0 0.011,0 3.99,0 7.228,3.232 7.234,7.224 0.006,3.996 -3.228,7.24 -7.224,7.245 -20.854,0.032 -47.425,9.342 -71.074,24.904 -19.454,12.801 -45.649,35.467 -59.962,70.748 -1.14,2.813 -3.848,4.518 -6.706,4.518 z"
             id="path46" /></g><g
           id="g48"><path
             style="fill:#69e2de"
             inkscape:connector-curvature="0"
             d="m 349.34,505.873 c 12.168,4.276 18.565,17.609 14.288,29.778 l -5.422,15.424 c -4.277,12.168 -17.609,18.565 -29.779,14.287 l -7.834,-2.752 c -12.168,-4.279 -17.739,-10.327 -18.69,-31.981 -0.221,-5.025 -0.084,-16.525 -0.084,-16.525 4.277,-12.168 27.519,-15.261 39.687,-10.983 l 7.834,2.752 z"
             id="path50" /><g
             id="g52"><path
               style="fill:#ffffff"
               inkscape:connector-curvature="0"
               d="m 306.248,492.739 c 0,0 34.679,37.982 75.139,36.055"
               id="path54" /><path
               style="fill:#ef3522"
               inkscape:connector-curvature="0"
               d="m 389.643,537.053 c -1.983,1.983 -4.679,3.261 -7.699,3.404 -45.416,2.164 -82.752,-38.131 -84.318,-39.846 -4.347,-4.762 -3.991,-12.168 0.749,-16.497 4.76,-4.345 12.139,-4.012 16.489,0.739 0.528,0.572 31.724,33.907 65.969,32.276 6.442,-0.307 11.912,4.667 12.219,11.107 0.163,3.425 -1.165,6.573 -3.409,8.817 z"
               id="path56" /></g><path
             style="fill:#00bec5"
             inkscape:connector-curvature="0"
             d="m 341.02,485.489 c 2.432,2.434 2.432,6.375 0,8.808 l -16.881,16.88 c -2.431,2.433 -6.375,2.433 -8.808,0 l 0,0 c -2.432,-2.431 -2.432,-6.375 0,-8.807 l 16.881,-16.881 c 2.433,-2.431 6.376,-2.431 8.808,0 l 0,0 z"
             id="path58" /><path
             style="fill:#00bec5"
             inkscape:connector-curvature="0"
             d="m 367.443,511.913 c 2.432,2.433 2.432,6.375 0,8.807 l -16.881,16.881 c -2.432,2.43 -6.376,2.43 -8.807,0 l 0,0 c -2.432,-2.431 -2.432,-6.376 0,-8.808 l 16.881,-16.88 c 2.431,-2.432 6.375,-2.432 8.807,0 l 0,0 z"
             id="path60" /><path
             style="fill:#00bec5"
             inkscape:connector-curvature="0"
             d="m 352.581,491.546 c 2.432,2.43 2.432,6.375 0,8.806 l -23.487,23.488 c -2.432,2.43 -6.375,2.43 -8.807,0 l 0,0 c -2.432,-2.434 -2.432,-6.376 0,-8.808 l 23.486,-23.485 c 2.431,-2.434 6.375,-2.434 8.808,-0.001 l 0,0 z"
             id="path62" /><path
             style="fill:#00bec5"
             inkscape:connector-curvature="0"
             d="m 361.388,500.352 c 2.431,2.433 2.431,6.375 0,8.807 l -23.487,23.488 c -2.431,2.431 -6.375,2.431 -8.807,0 l 0,0 c -2.432,-2.433 -2.432,-6.377 0,-8.807 l 23.487,-23.488 c 2.432,-2.431 6.375,-2.431 8.807,0 l 0,0 z"
             id="path64" /><path
             style="fill:#69e2de"
             inkscape:connector-curvature="0"
             d="m 337.999,507.717 c 0.67,3.373 -1.521,6.652 -4.893,7.323 l -23.415,4.655 c -3.375,0.67 -6.653,-1.522 -7.323,-4.894 l 0,0 c -0.67,-3.372 1.521,-6.652 4.893,-7.322 l 23.414,-4.656 c 3.376,-0.669 6.654,1.522 7.324,4.894 l 0,0 z"
             id="path66" /><g
             id="g68"><path
               style="fill:#ffffff"
               inkscape:connector-curvature="0"
               d="m 238.817,486.776 c -5.878,5.878 -2.059,19.226 8.532,29.816 l 10.642,-10.643 -19.174,-19.173 z"
               id="path70" /><path
               style="fill:#ff5b45"
               inkscape:connector-curvature="0"
               d="m 268.634,495.308 33.762,-33.762 -19.175,-19.173 -4.221,-4.221 -44.404,44.403 4.221,4.222 c 5.879,-5.879 19.227,-2.061 29.817,8.531 z"
               id="path72" /><path
               style="fill:#ff5b45"
               inkscape:connector-curvature="0"
               d="m 268.634,495.308 c -10.59,-10.591 -23.938,-14.409 -29.817,-8.531 l 19.174,19.172 10.643,-10.641 z"
               id="path74" /><path
               style="fill:#ffffff"
               inkscape:connector-curvature="0"
               d="m 363.498,400.443 -47.798,-47.8 c -2.129,-2.128 -5.579,-2.127 -7.707,0 -2.128,2.129 -2.128,5.579 0,7.707 l 1.926,1.927 -26.698,80.094 19.175,19.173 61.102,-61.101 z"
               id="path76" /><path
               style="fill:#dcdcdc"
               inkscape:connector-curvature="0"
               d="m 277.165,525.124 -19.174,-19.176 -10.642,10.643 c 10.59,10.592 23.939,14.411 29.816,8.533 z"
               id="path78" /><path
               style="fill:#ef3522"
               inkscape:connector-curvature="0"
               d="m 268.634,495.308 c 10.59,10.59 14.41,23.939 8.531,29.817 l 4.221,4.221 44.405,-44.404 -4.221,-4.22 -19.173,-19.175 -33.763,33.761 z"
               id="path80" /><path
               style="fill:#ef3522"
               inkscape:connector-curvature="0"
               d="m 268.634,495.308 -10.643,10.641 19.174,19.176 c 5.879,-5.879 2.059,-19.228 -8.531,-29.817 z"
               id="path82" /><path
               style="fill:#dcdcdc"
               inkscape:connector-curvature="0"
               d="m 321.57,480.72 80.094,-26.698 1.927,1.926 c 2.128,2.129 5.579,2.128 7.706,0 2.128,-2.127 2.129,-5.578 0,-7.706 l -47.798,-47.798 -61.102,61.102 19.173,19.174 z"
               id="path84" /></g></g><g
           id="g86"><circle
             style="fill:#004860"
             cx="386.61401"
             cy="238.84801"
             r="34.730999"
             id="circle88" /><g
             id="g90"><g
               id="g92"><path
                 style="fill:#afc01d"
                 inkscape:connector-curvature="0"
                 d="m 371.237,226.51 0,0.727 c 0.013,-0.242 0.015,-0.487 0.037,-0.727 l -0.037,0 z"
                 id="path94" /><path
                 style="fill:#afc01d"
                 inkscape:connector-curvature="0"
                 d="m 401.992,228.687 c -0.011,0.241 -0.015,0.485 -0.036,0.724 l 0,28.622 0.036,0 0,-29.346 z"
                 id="path96" /><path
                 style="fill:#afc01d"
                 inkscape:connector-curvature="0"
                 d="m 386.613,247.994 -3.987,-4.153 c 1.288,-0.296 2.62,-0.464 3.988,-0.464 -8.268,0 -14.996,-6.515 -15.378,-14.689 l 0,29.346 15.378,0 0,-10.039 -10e-4,0 z"
                 id="path98" /><path
                 style="fill:#afc01d"
                 inkscape:connector-curvature="0"
                 d="m 401.992,226.51 -0.036,0 c 0.022,0.24 0.024,0.484 0.036,0.727 l 0,-0.727 z"
                 id="path100" /><path
                 style="fill:#ffffff"
                 inkscape:connector-curvature="0"
                 d="m 371.2,227.962 c 0,0.245 0.026,0.483 0.037,0.725 l 0,-1.451 c -0.013,0.243 -0.037,0.481 -0.037,0.726 z"
                 id="path102" /><path
                 style="fill:#ffffff"
                 inkscape:connector-curvature="0"
                 d="m 402.029,227.962 c 0,-0.246 -0.024,-0.484 -0.037,-0.726 l 0,1.451 c 0.011,-0.242 0.037,-0.48 0.037,-0.725 z"
                 id="path104" /><path
                 style="fill:#ffffff"
                 inkscape:connector-curvature="0"
                 d="m 401.992,228.687 0,-1.451 c -0.012,-0.242 -0.015,-0.487 -0.036,-0.727 l 0,2.902 c 0.021,-0.239 0.024,-0.483 0.036,-0.724 z"
                 id="path106" /><path
                 style="fill:#ffffff"
                 inkscape:connector-curvature="0"
                 d="m 379.409,226.51 c -1.272,0.431 -2.64,0.672 -4.072,0.672 -1.428,0 -2.792,-0.245 -4.063,-0.672 -0.022,0.24 -0.024,0.484 -0.037,0.727 l 0,1.451 c 0.382,8.174 7.11,14.689 15.378,14.689 l 0,-16.867 0,-6.704 c -1.224,3.113 -3.873,5.576 -7.206,6.704 z"
                 id="path108" /><path
                 style="fill:#afc01d"
                 inkscape:connector-curvature="0"
                 d="m 371.274,226.51 c 1.271,0.427 2.635,0.672 4.063,0.672 1.432,0 2.8,-0.241 4.072,-0.672 3.333,-1.127 5.982,-3.591 7.206,-6.704 l 0,-7.258 c -8.023,0 -14.609,6.13 -15.341,13.962 z"
                 id="path110" /><path
                 style="fill:#ffffff"
                 inkscape:connector-curvature="0"
                 d="m 386.613,247.994 10e-4,0 0,-4.617 c -1.368,0 -2.7,0.169 -3.988,0.464 l 3.987,4.153 z"
                 id="path112" /><rect
                 style="fill:#002738"
                 x="386.61499"
                 y="258.03299"
                 width="15.341"
                 height="7.1139998"
                 id="rect114" /><path
                 style="fill:#dcdcdc"
                 inkscape:connector-curvature="0"
                 d="m 397.891,227.182 c -1.432,0 -2.8,-0.241 -4.072,-0.672 -3.333,-1.127 -5.982,-3.591 -7.205,-6.704 l 0,6.704 0,16.867 c 8.023,0 14.61,-6.132 15.341,-13.965 l 0,-2.902 c -1.271,0.427 -2.635,0.672 -4.064,0.672 z"
                 id="path116" /><g
                 id="g118"><path
                   style="fill:#7ea800"
                   inkscape:connector-curvature="0"
                   d="m 386.615,243.377 c 1.368,0 2.7,0.169 3.987,0.464 l -3.986,4.153 -10e-4,0 0,10.039 15.341,0 0,-28.622 c -0.731,7.833 -7.318,13.966 -15.341,13.966 z"
                   id="path120" /><path
                   style="fill:#7ea800"
                   inkscape:connector-curvature="0"
                   d="m 393.819,226.51 c 1.272,0.431 2.641,0.672 4.072,0.672 1.428,0 2.792,-0.245 4.064,-0.672 -0.733,-7.831 -7.318,-13.962 -15.341,-13.962 l 0,7.258 c 1.223,3.113 3.872,5.576 7.205,6.704 z"
                   id="path122" /></g><path
                 style="fill:#dcdcdc"
                 inkscape:connector-curvature="0"
                 d="m 386.616,247.994 3.986,-4.153 c -1.287,-0.296 -2.619,-0.464 -3.987,-0.464 l 0,4.617 10e-4,0 z"
                 id="path124" /></g><g
               id="g126"><g
                 id="g128"><path
                   style="fill:#00bec5"
                   inkscape:connector-curvature="0"
                   d="m 386.616,247.994 -10e-4,0 -0.001,0 0,0 c 0,0 0.001,0.018 0.001,0.039 0,-0.021 10e-4,-0.039 10e-4,-0.039 l 0,0 z"
                   id="path130" /><path
                   style="fill:#002738"
                   inkscape:connector-curvature="0"
                   d="m 395.411,245.7 c -0.102,1.283 -0.79,5.256 -4.874,5.936 -3.807,0.634 -3.925,-3.05 -3.923,-3.576 0.002,0.526 -0.116,4.21 -3.923,3.576 -4.084,-0.68 -4.773,-4.654 -4.875,-5.936 -6.427,3.577 -10.844,10.933 -10.844,19.447 l 39.283,0 c 0,-8.514 -4.417,-15.871 -10.844,-19.447 z"
                   id="path132" /><path
                   style="fill:#69e2de"
                   inkscape:connector-curvature="0"
                   d="m 386.613,247.994 -3.987,-4.153 c -0.196,0.045 -0.393,0.085 -0.586,0.136 -1.483,0.392 -2.893,0.982 -4.224,1.723 0.102,1.283 0.791,5.256 4.875,5.936 3.806,0.634 3.925,-3.05 3.923,-3.576 0,-0.011 0,-0.019 0,-0.027 0.001,-0.021 -10e-4,-0.039 -10e-4,-0.039 z"
                   id="path134" /><path
                   style="fill:#00bec5"
                   inkscape:connector-curvature="0"
                   d="m 391.188,243.977 c -0.193,-0.051 -0.39,-0.091 -0.586,-0.136 l -3.986,4.153 c 0,0 -10e-4,0.018 -10e-4,0.039 0,0.008 0,0.016 0,0.027 -0.002,0.526 0.116,4.21 3.923,3.576 4.084,-0.68 4.772,-4.654 4.874,-5.936 -1.33,-0.741 -2.741,-1.332 -4.224,-1.723 z"
                   id="path136" /><path
                   style="fill:#dcdcdc"
                   inkscape:connector-curvature="0"
                   d="m 386.615,248.033 c 0,0.008 0,0.016 0,0.027 0,-0.011 0,-0.019 0,-0.027 z"
                   id="path138" /></g><circle
                 style="fill:#69e2de"
                 cx="386.61401"
                 cy="253.65199"
                 r="0.84299999"
                 id="circle140" /><circle
                 style="fill:#69e2de"
                 cx="386.61401"
                 cy="257.19"
                 r="0.84299999"
                 id="circle142" /><circle
                 style="fill:#69e2de"
                 cx="386.61401"
                 cy="260.728"
                 r="0.84299999"
                 id="circle144" /></g></g></g><g
           id="g146"><circle
             style="fill:#004860"
             cx="486.00699"
             cy="227.291"
             r="34.730999"
             id="circle148" /><g
             id="g150"><g
               id="g152"><path
                 style="fill:#69e2de"
                 inkscape:connector-curvature="0"
                 d="m 482.472,239.236 c -0.579,0.908 -1.035,2.045 -1.149,3.47 l -6.871,-6.718 7.225,17.603 2.331,-11.458 -1.536,-2.897 z"
                 id="path154" /><path
                 style="fill:#ffffff"
                 inkscape:connector-curvature="0"
                 d="m 485.921,231.824 c -1.987,0.009 -3.904,0.345 -5.711,0.962 l 5.711,3.405 0,-4.367 z"
                 id="path156" /><path
                 style="fill:#ff5b45"
                 inkscape:connector-curvature="0"
                 d="m 482.472,239.236 1.536,2.897 -2.331,11.458 4.243,0 0,-17.314 c -0.405,0.175 -2.216,1.03 -3.448,2.959 z"
                 id="path158" /><path
                 style="fill:#69e2de"
                 inkscape:connector-curvature="0"
                 d="m 482.472,239.236 c 1.232,-1.93 3.042,-2.785 3.448,-2.959 l 0,-0.087 -5.711,-3.405 c -2.091,0.715 -4.03,1.808 -5.757,3.203 l 6.871,6.718 c 0.115,-1.425 0.57,-2.562 1.149,-3.47 z"
                 id="path160" /><path
                 style="fill:#002738"
                 inkscape:connector-curvature="0"
                 d="m 466.364,253.592 15.313,0 -7.225,-17.603 c -4.9,3.958 -8.088,10.366 -8.088,17.603 z"
                 id="path162" /><path
                 style="fill:#ffffff"
                 inkscape:connector-curvature="0"
                 d="m 476.914,211.059 c -3.642,0.649 -6.322,5.347 -6.322,5.347 0,8.485 6.856,15.362 15.328,15.409 l 0,-30.242 c -0.886,6.044 -5.477,8.857 -9.006,9.486 z"
                 id="path164" /><path
                 style="fill:#ff5b45"
                 inkscape:connector-curvature="0"
                 d="m 476.914,211.059 c 3.529,-0.629 8.12,-3.443 9.007,-9.486 l 0,-0.578 c -8.473,0.048 -15.328,6.926 -15.328,15.411 -0.001,0.001 2.679,-4.697 6.321,-5.347 z"
                 id="path166" /><path
                 style="fill:#ffa033"
                 inkscape:connector-curvature="0"
                 d="m 485.921,200.992 0,0.004 c 0.029,0 0.057,-0.004 0.085,-0.004 l -0.085,0 z"
                 id="path168" /><path
                 style="fill:#ffa033"
                 inkscape:connector-curvature="0"
                 d="m 485.921,231.816 0,0.008 c 0.029,0 0.057,-0.003 0.085,-0.003 -0.028,0 -0.056,-0.005 -0.085,-0.005 z"
                 id="path170" /><path
                 style="fill:#dcdcdc"
                 inkscape:connector-curvature="0"
                 d="m 486.006,236.243 5.797,-3.457 c -1.832,-0.627 -3.779,-0.965 -5.797,-0.965 -0.028,0 -0.056,0.003 -0.085,0.003 l 0,4.367 0.085,0.052 z"
                 id="path172" /><path
                 style="fill:#00bec5"
                 inkscape:connector-curvature="0"
                 d="m 490.689,242.706 c -0.114,-1.425 -0.569,-2.562 -1.148,-3.47 l -1.536,2.897 2.331,11.458 7.225,-17.603 -6.872,6.718 z"
                 id="path174" /><path
                 style="fill:#ef3522"
                 inkscape:connector-curvature="0"
                 d="m 489.541,239.236 c -1.396,-2.184 -3.535,-2.994 -3.535,-2.994 0,0 -0.031,0.012 -0.085,0.035 l 0,17.314 4.415,0 -2.331,-11.458 1.536,-2.897 z"
                 id="path176" /><path
                 style="fill:#ffa033"
                 inkscape:connector-curvature="0"
                 d="m 485.921,236.278 c 0.054,-0.023 0.085,-0.035 0.085,-0.035 l -0.085,-0.052 0,0.087 z"
                 id="path178" /><path
                 style="fill:#00bec5"
                 inkscape:connector-curvature="0"
                 d="m 489.541,239.236 c 0.579,0.908 1.034,2.045 1.148,3.47 l 6.871,-6.718 c -1.728,-1.395 -3.667,-2.488 -5.757,-3.203 l -5.797,3.457 c 0,0.001 2.139,0.81 3.535,2.994 z"
                 id="path180" /><path
                 style="fill:#002738"
                 inkscape:connector-curvature="0"
                 d="m 497.56,235.988 -7.225,17.603 15.313,0 c 0,-7.236 -3.187,-13.644 -8.088,-17.603 z"
                 id="path182" /><path
                 style="fill:#dcdcdc"
                 inkscape:connector-curvature="0"
                 d="m 501.421,216.407 c 0,0 -2.679,-4.698 -6.322,-5.347 -3.643,-0.65 -8.43,-3.616 -9.093,-10.068 -0.02,0.201 -0.056,0.388 -0.085,0.582 l 0,30.242 c 0.029,0 0.057,0.005 0.085,0.005 8.513,0 15.415,-6.901 15.415,-15.414 z"
                 id="path184" /><path
                 style="fill:#ffa033"
                 inkscape:connector-curvature="0"
                 d="m 486.006,200.992 c -0.028,0 -0.056,0.004 -0.085,0.004 l 0,0.578 c 0.029,-0.194 0.065,-0.382 0.085,-0.582 z"
                 id="path186" /><path
                 style="fill:#ef3522"
                 inkscape:connector-curvature="0"
                 d="m 495.099,211.059 c 3.643,0.649 6.322,5.347 6.322,5.347 0,-8.514 -6.902,-15.415 -15.415,-15.415 0.664,6.453 5.45,9.418 9.093,10.068 z"
                 id="path188" /></g><path
               style="fill:#ffa033"
               inkscape:connector-curvature="0"
               d="m 491.782,213.191 c -2.21,0 -4.068,1.51 -4.612,3.551 -0.684,-0.291 -1.341,-0.397 -1.957,-0.274 -0.148,0.03 -0.284,0.072 -0.412,0.12 -0.593,-1.962 -2.416,-3.397 -4.57,-3.397 -2.633,0 -4.775,2.142 -4.775,4.777 0,2.632 2.142,4.775 4.775,4.775 2.53,0 4.599,-1.978 4.76,-4.469 0.101,-0.095 0.272,-0.224 0.53,-0.276 0.411,-0.078 0.931,0.07 1.508,0.416 0.226,2.423 2.27,4.329 4.753,4.329 2.633,0 4.775,-2.143 4.775,-4.775 0,-2.635 -2.142,-4.777 -4.775,-4.777 z m -11.551,7.991 c -1.772,0 -3.214,-1.442 -3.214,-3.215 0,-1.773 1.442,-3.216 3.214,-3.216 1.772,0 3.214,1.443 3.214,3.216 0,1.773 -1.442,3.215 -3.214,3.215 z m 11.551,0 c -1.774,0 -3.215,-1.442 -3.215,-3.215 0,-1.773 1.441,-3.216 3.215,-3.216 1.772,0 3.215,1.443 3.215,3.216 0,1.773 -1.443,3.215 -3.215,3.215 z"
               id="path190" /></g></g><g
           id="g192"><circle
             style="fill:#004860"
             cx="585.83502"
             cy="243.841"
             r="34.730999"
             id="circle194" /><g
             id="g196"><path
               style="fill:none"
               inkscape:connector-curvature="0"
               d="m 585.52,231.002 c -0.16,-0.145 -0.315,-0.294 -0.469,-0.444 0.253,0.248 0.516,0.489 0.784,0.723 l 0,-0.005 c -0.05,-0.044 -0.102,-0.083 -0.151,-0.127 -0.055,-0.049 -0.11,-0.097 -0.164,-0.147 z"
               id="path198" /><path
               style="fill:none"
               inkscape:connector-curvature="0"
               d="m 577.222,233.309 c -0.048,0.04 -0.096,0.08 -0.145,0.118 -0.229,0.177 -0.465,0.345 -0.708,0.504 -0.028,0.019 -0.057,0.036 -0.086,0.055 0.525,-0.34 1.019,-0.721 1.482,-1.138 -0.175,0.159 -0.356,0.313 -0.543,0.461 z"
               id="path200" /><path
               style="fill:none"
               inkscape:connector-curvature="0"
               d="m 580.334,229.515 c -0.174,0.336 -0.359,0.666 -0.563,0.983 -0.151,0.235 -0.314,0.463 -0.481,0.686 0.175,-0.232 0.345,-0.469 0.502,-0.715 0.196,-0.307 0.373,-0.628 0.542,-0.954 z"
               id="path202" /><path
               style="fill:none"
               inkscape:connector-curvature="0"
               d="m 579.131,231.389 c -0.155,0.198 -0.317,0.391 -0.485,0.579 -0.015,0.017 -0.03,0.035 -0.045,0.052 0.212,-0.234 0.414,-0.478 0.607,-0.729 -0.026,0.032 -0.051,0.066 -0.077,0.098 z"
               id="path204" /><path
               style="fill:none"
               inkscape:connector-curvature="0"
               d="m 578.556,232.071 c -0.195,0.21 -0.398,0.414 -0.606,0.61 0.208,-0.197 0.412,-0.398 0.606,-0.61 z"
               id="path206" /><path
               style="fill:none"
               inkscape:connector-curvature="0"
               d="m 580.398,229.401 c 0.158,-0.315 0.294,-0.641 0.424,-0.972 -0.13,0.331 -0.266,0.658 -0.424,0.972 z"
               id="path208" /><path
               style="fill:none"
               inkscape:connector-curvature="0"
               d="m 580.905,228.238 c 0.115,-0.309 0.206,-0.627 0.295,-0.947 -0.089,0.32 -0.18,0.64 -0.295,0.947 z"
               id="path210" /><path
               style="fill:none"
               inkscape:connector-curvature="0"
               d="m 581.285,227.015 c 0.104,-0.417 0.186,-0.842 0.245,-1.275 -0.058,0.433 -0.14,0.858 -0.245,1.275 z"
               id="path212" /><path
               style="fill:none"
               inkscape:connector-curvature="0"
               d="m 570.545,235.845 c 0.315,-0.016 0.624,-0.05 0.931,-0.09 -0.307,0.04 -0.617,0.074 -0.931,0.09 z"
               id="path214" /><path
               style="fill:none"
               inkscape:connector-curvature="0"
               d="m 572.52,235.57 c -0.264,0.06 -0.531,0.109 -0.801,0.151 -0.047,0.007 -0.095,0.014 -0.142,0.021 0.332,-0.047 0.661,-0.105 0.984,-0.179 -0.013,0.001 -0.027,0.004 -0.041,0.007 z"
               id="path216" /><path
               style="fill:none"
               inkscape:connector-curvature="0"
               d="m 572.64,235.546 c 0.292,-0.07 0.579,-0.153 0.862,-0.243 -0.283,0.09 -0.569,0.172 -0.862,0.243 z"
               id="path218" /><path
               style="fill:none"
               inkscape:connector-curvature="0"
               d="m 573.723,235.228 c -0.057,0.02 -0.113,0.038 -0.169,0.057 0.294,-0.095 0.584,-0.203 0.867,-0.321 -0.229,0.096 -0.462,0.183 -0.698,0.264 z"
               id="path220" /><path
               style="fill:none"
               inkscape:connector-curvature="0"
               d="m 575.57,234.411 c -0.064,0.035 -0.125,0.071 -0.189,0.105 -0.258,0.136 -0.523,0.264 -0.792,0.381 0.555,-0.24 1.084,-0.525 1.59,-0.845 -0.2,0.126 -0.402,0.245 -0.609,0.359 z"
               id="path222" /><path
               style="fill:#ffffff"
               inkscape:connector-curvature="0"
               d="m 585.052,230.558 c -0.03,-0.03 -0.062,-0.057 -0.091,-0.087 0,0 -10e-4,-0.001 -0.002,-0.002 -1.381,-1.377 -2.547,-2.968 -3.428,-4.729 -0.059,0.433 -0.141,0.858 -0.245,1.275 -0.024,0.094 -0.06,0.183 -0.085,0.276 -0.089,0.32 -0.18,0.639 -0.295,0.947 -0.024,0.066 -0.058,0.126 -0.083,0.191 -0.13,0.33 -0.266,0.657 -0.424,0.972 -0.02,0.039 -0.044,0.075 -0.064,0.114 -0.169,0.326 -0.346,0.647 -0.543,0.954 -0.157,0.246 -0.327,0.483 -0.502,0.715 -0.002,0.003 -0.003,0.005 -0.004,0.007 -0.026,0.034 -0.052,0.067 -0.078,0.101 -0.193,0.251 -0.395,0.495 -0.607,0.729 -0.014,0.016 -0.028,0.033 -0.043,0.049 -10e-4,0.001 -10e-4,0.002 -0.002,0.002 -0.195,0.211 -0.398,0.413 -0.606,0.61 -0.002,0.002 -0.003,0.002 -0.003,0.003 -0.058,0.054 -0.119,0.107 -0.178,0.161 -10e-4,0.001 -0.002,0.002 -0.003,0.002 -0.463,0.417 -0.957,0.798 -1.482,1.138 -0.033,0.02 -0.066,0.041 -0.098,0.062 -0.002,0.001 -0.005,0.003 -0.008,0.004 -0.505,0.32 -1.035,0.604 -1.59,0.845 l -0.002,0.001 c -0.054,0.023 -0.11,0.045 -0.165,0.067 -0.001,0 -0.001,0 -0.001,0 -0.283,0.118 -0.573,0.226 -0.867,0.321 -0.016,0.005 -0.033,0.011 -0.049,0.017 0,0 -10e-4,0 -0.002,0.001 -0.284,0.09 -0.57,0.173 -0.862,0.243 -0.002,0 -0.004,0.001 -0.006,0.001 -0.024,0.005 -0.048,0.01 -0.072,0.015 -0.323,0.074 -0.652,0.133 -0.984,0.179 -0.033,0.004 -0.066,0.009 -0.099,0.014 -0.001,0 -0.002,0 -0.003,0 -0.307,0.04 -0.616,0.074 -0.931,0.09 0.924,7.63 7.411,13.546 15.29,13.546 l 0,-18.11 c -0.268,-0.235 -0.53,-0.476 -0.783,-0.724 z"
               id="path224" /><path
               style="fill:#fcd07a"
               inkscape:connector-curvature="0"
               d="m 585.835,249.451 0,-0.06 c -7.88,0 -14.367,-5.916 -15.29,-13.546 0.314,-0.016 0.624,-0.05 0.931,-0.09 0.035,-0.004 0.068,-0.01 0.102,-0.014 0.047,-0.007 0.095,-0.014 0.142,-0.021 0.27,-0.041 0.537,-0.091 0.801,-0.151 0.014,-0.003 0.028,-0.006 0.042,-0.008 0.026,-0.007 0.052,-0.01 0.078,-0.016 0.292,-0.071 0.579,-0.153 0.862,-0.243 0.018,-0.006 0.034,-0.012 0.051,-0.017 0.056,-0.019 0.112,-0.038 0.169,-0.057 0.236,-0.081 0.468,-0.168 0.698,-0.264 0.055,-0.023 0.113,-0.044 0.168,-0.068 0.27,-0.117 0.534,-0.245 0.792,-0.381 0.064,-0.034 0.126,-0.07 0.189,-0.105 0.206,-0.114 0.409,-0.233 0.608,-0.359 0.035,-0.022 0.07,-0.044 0.105,-0.066 0.029,-0.018 0.058,-0.036 0.086,-0.055 0.242,-0.159 0.479,-0.327 0.708,-0.504 0.049,-0.038 0.097,-0.078 0.145,-0.118 0.187,-0.148 0.367,-0.302 0.543,-0.461 0.062,-0.055 0.123,-0.11 0.184,-0.167 0.208,-0.196 0.411,-0.399 0.606,-0.61 0.015,-0.017 0.029,-0.035 0.045,-0.052 0.015,-0.017 0.03,-0.035 0.045,-0.052 0.168,-0.188 0.33,-0.381 0.485,-0.579 0.026,-0.032 0.051,-0.066 0.077,-0.098 0.027,-0.036 0.055,-0.071 0.082,-0.107 0.167,-0.223 0.33,-0.451 0.481,-0.686 0.204,-0.316 0.389,-0.646 0.563,-0.983 0.02,-0.039 0.044,-0.074 0.064,-0.114 0.158,-0.315 0.294,-0.641 0.424,-0.972 0.026,-0.065 0.059,-0.126 0.083,-0.191 0.115,-0.308 0.206,-0.627 0.295,-0.947 0.026,-0.093 0.061,-0.182 0.085,-0.276 0.104,-0.417 0.186,-0.842 0.245,-1.275 0.881,1.761 2.047,3.353 3.428,4.729 0.03,0.03 0.063,0.058 0.093,0.089 0.153,0.15 0.309,0.299 0.469,0.444 0.054,0.05 0.109,0.098 0.164,0.147 0.049,0.044 0.101,0.084 0.151,0.127 l 0,-14.814 c -8.673,0 -15.869,6.305 -17.267,14.581 -0.195,0.279 -0.528,0.516 -1.084,0.86 -0.918,0.57 -2.176,1.349 -2.388,3.145 -0.213,1.797 0.827,2.848 1.587,3.617 0.731,0.739 1.001,1.077 0.929,1.695 -0.074,0.617 -0.415,0.883 -1.298,1.43 -0.918,0.57 -2.175,1.35 -2.388,3.144 -0.212,1.797 0.828,2.849 1.588,3.617 0.731,0.74 1,1.077 0.927,1.695 -0.073,0.617 -0.414,0.883 -1.297,1.431 -0.918,0.568 -2.175,1.348 -2.388,3.145 -0.213,1.797 0.827,2.849 1.587,3.617 0.731,0.74 1.001,1.078 0.928,1.696 -0.074,0.62 -0.415,0.885 -1.299,1.434 -0.917,0.57 -2.175,1.352 -2.387,3.149 -0.212,1.797 0.827,2.849 1.586,3.618 0.731,0.74 3.094,2.268 3.021,2.888 0.002,-12.023 8.795,-21.77 19.644,-21.771 z"
               id="path226" /><path
               style="fill:#fcd07a"
               inkscape:connector-curvature="0"
               d="m 576.284,233.986 c -0.035,0.022 -0.071,0.044 -0.105,0.066 0.003,-0.002 0.005,-0.003 0.008,-0.004 0.031,-0.021 0.064,-0.042 0.097,-0.062 z"
               id="path228" /><path
               style="fill:#fcd07a"
               inkscape:connector-curvature="0"
               d="m 577.947,232.684 c 10e-4,-0.001 10e-4,-0.002 0.003,-0.003 -0.061,0.057 -0.122,0.111 -0.184,0.167 0.001,-0.001 0.002,-0.001 0.003,-0.002 0.059,-0.054 0.12,-0.107 0.178,-0.162 z"
               id="path230" /><path
               style="fill:#fcd07a"
               inkscape:connector-curvature="0"
               d="m 578.601,232.02 c -0.015,0.016 -0.029,0.035 -0.045,0.052 10e-4,-0.001 10e-4,-0.002 0.002,-0.002 0.014,-0.017 0.029,-0.034 0.043,-0.05 z"
               id="path232" /><path
               style="fill:#fcd07a"
               inkscape:connector-curvature="0"
               d="m 585.052,230.558 c -0.03,-0.03 -0.063,-0.058 -0.093,-0.089 0.001,0.001 0.002,0.002 0.002,0.002 0.029,0.03 0.06,0.057 0.091,0.087 z"
               id="path234" /><path
               style="fill:#fcd07a"
               inkscape:connector-curvature="0"
               d="m 574.587,234.897 0.002,-0.001 c -0.055,0.024 -0.112,0.045 -0.168,0.068 0,0 0,0 10e-4,0 0.055,-0.022 0.111,-0.043 0.165,-0.067 z"
               id="path236" /><path
               style="fill:#fcd07a"
               inkscape:connector-curvature="0"
               d="m 579.29,231.184 c -0.027,0.036 -0.055,0.071 -0.082,0.107 0.026,-0.034 0.052,-0.067 0.078,-0.101 0,-0.001 0.002,-0.003 0.004,-0.006 z"
               id="path238" /><path
               style="fill:#fcd07a"
               inkscape:connector-curvature="0"
               d="m 581.2,227.291 c 0.026,-0.093 0.061,-0.182 0.085,-0.276 -0.024,0.094 -0.059,0.183 -0.085,0.276 z"
               id="path240" /><path
               style="fill:#fcd07a"
               inkscape:connector-curvature="0"
               d="m 580.822,228.43 c 0.026,-0.065 0.059,-0.126 0.083,-0.191 -0.025,0.065 -0.058,0.125 -0.083,0.191 z"
               id="path242" /><path
               style="fill:#fcd07a"
               inkscape:connector-curvature="0"
               d="m 573.554,235.286 c -0.017,0.005 -0.033,0.011 -0.051,0.017 10e-4,-0.001 0.002,-0.001 0.002,-0.001 0.016,-0.005 0.033,-0.011 0.049,-0.016 z"
               id="path244" /><path
               style="fill:#fcd07a"
               inkscape:connector-curvature="0"
               d="m 580.334,229.515 c 0.02,-0.039 0.044,-0.074 0.064,-0.114 -0.02,0.039 -0.044,0.075 -0.064,0.114 z"
               id="path246" /><path
               style="fill:#fcd07a"
               inkscape:connector-curvature="0"
               d="m 572.64,235.546 c -0.026,0.005 -0.053,0.009 -0.078,0.016 0.024,-0.005 0.048,-0.009 0.072,-0.015 0.003,0 0.004,-0.001 0.006,-0.001 z"
               id="path248" /><path
               style="fill:#fcd07a"
               inkscape:connector-curvature="0"
               d="m 571.578,235.741 c -0.034,0.004 -0.067,0.01 -0.102,0.014 10e-4,0 0.002,0 0.003,0 0.033,-0.005 0.066,-0.01 0.099,-0.014 z"
               id="path250" /><path
               style="fill:#ffffff"
               inkscape:connector-curvature="0"
               d="m 580.177,259.127 c 3.125,0 5.659,2.533 5.659,5.659 l 0,-15.334 c -10.849,0.001 -19.642,9.748 -19.642,21.771 l 8.326,0 0,-6.436 c -10e-4,-3.127 2.532,-5.66 5.657,-5.66 z"
               id="path252" /><path
               style="fill:#ff5b45"
               inkscape:connector-curvature="0"
               d="m 580.177,259.127 c -3.125,0 -5.658,2.533 -5.658,5.659 l 0,6.436 11.317,0 0,-6.436 c -10e-4,-3.126 -2.534,-5.659 -5.659,-5.659 z"
               id="path254" /><path
               style="fill:#ffffff"
               inkscape:connector-curvature="0"
               d="m 592.886,235.093 c 0.241,0.067 0.483,0.129 0.729,0.186 -0.246,-0.058 -0.489,-0.12 -0.729,-0.186 z"
               id="path256" /><path
               style="fill:#ffffff"
               inkscape:connector-curvature="0"
               d="m 586.513,231.845 c -0.231,-0.184 -0.456,-0.374 -0.678,-0.569 l 0,0.005 c 0.221,0.193 0.447,0.381 0.678,0.564 z"
               id="path258" /><path
               style="fill:#ffffff"
               inkscape:connector-curvature="0"
               d="m 596.232,235.689 c -0.309,-0.025 -0.616,-0.058 -0.921,-0.099 -0.078,-0.01 -0.155,-0.018 -0.232,-0.029 0.422,0.063 0.849,0.106 1.28,0.139 -0.042,-0.004 -0.085,-0.007 -0.127,-0.011 z"
               id="path260" /><path
               style="fill:#ffffff"
               inkscape:connector-curvature="0"
               d="m 596.563,235.715 c 0.388,0.024 0.777,0.042 1.17,0.042 -0.394,0 -0.783,-0.018 -1.17,-0.042 z"
               id="path262" /><path
               style="fill:#ffffff"
               inkscape:connector-curvature="0"
               d="m 593.975,235.362 c 0.355,0.076 0.716,0.142 1.08,0.196 -0.365,-0.055 -0.724,-0.121 -1.08,-0.196 z"
               id="path264" /><path
               style="fill:#ffffff"
               inkscape:connector-curvature="0"
               d="m 588.648,233.302 c -0.109,-0.063 -0.219,-0.125 -0.326,-0.191 -0.194,-0.118 -0.383,-0.24 -0.57,-0.365 -0.09,-0.059 -0.178,-0.12 -0.267,-0.181 -0.297,-0.204 -0.585,-0.419 -0.869,-0.64 0.917,0.716 1.904,1.345 2.949,1.876 -0.311,-0.157 -0.617,-0.324 -0.917,-0.499 z"
               id="path266" /><path
               style="fill:#ffffff"
               inkscape:connector-curvature="0"
               d="m 589.575,233.808 c 0.152,0.076 0.302,0.153 0.457,0.226 -0.153,-0.073 -0.305,-0.149 -0.457,-0.226 z"
               id="path268" /><path
               style="fill:#ffffff"
               inkscape:connector-curvature="0"
               d="m 591.52,234.659 c -0.139,-0.051 -0.274,-0.108 -0.412,-0.162 -0.192,-0.076 -0.383,-0.153 -0.571,-0.235 0.629,0.273 1.277,0.514 1.941,0.715 -0.322,-0.097 -0.643,-0.202 -0.958,-0.318 z"
               id="path270" /><path
               style="fill:#dcdcdc"
               inkscape:connector-curvature="0"
               d="m 585.835,249.391 c 8.028,0 14.617,-6.138 15.342,-13.978 -1.117,0.217 -2.265,0.344 -3.444,0.344 -0.393,0 -0.783,-0.017 -1.17,-0.042 -10e-4,0 -0.002,0 -0.003,0 -0.068,-0.005 -0.134,-0.01 -0.201,-0.015 -0.43,-0.033 -0.858,-0.076 -1.28,-0.139 -0.008,-0.001 -0.016,-0.001 -0.024,-0.003 l -10e-4,0 c -0.364,-0.054 -0.724,-0.121 -1.08,-0.196 -0.001,0 -0.001,0 -0.002,0 -0.116,-0.025 -0.231,-0.053 -0.347,-0.08 -0.004,-0.001 -0.008,-0.002 -0.011,-0.003 -0.246,-0.058 -0.488,-0.119 -0.729,-0.186 -0.004,-10e-4 -0.008,-10e-4 -0.012,-0.003 -0.132,-0.037 -0.264,-0.073 -0.393,-0.112 0,0 -10e-4,0 -0.002,-0.001 -0.664,-0.201 -1.311,-0.441 -1.941,-0.715 -0.002,-0.002 -0.005,-0.002 -0.007,-0.003 -0.167,-0.073 -0.332,-0.148 -0.497,-0.225 l -10e-4,-0.001 c -0.154,-0.072 -0.305,-0.149 -0.457,-0.226 -0.002,-0.002 -0.005,-0.003 -0.007,-0.004 -0.002,-0.001 -0.002,-0.002 -0.004,-0.002 -1.045,-0.531 -2.032,-1.16 -2.949,-1.876 -0.035,-0.027 -0.068,-0.054 -0.103,-0.08 -0.231,-0.183 -0.457,-0.371 -0.678,-0.564 l 0,18.11 z"
               id="path272" /><path
               style="fill:#ffa033"
               inkscape:connector-curvature="0"
               d="m 608.498,268.334 c 0.759,-0.769 1.799,-1.821 1.586,-3.618 -0.212,-1.797 -1.47,-2.579 -2.387,-3.149 -0.884,-0.549 -1.225,-0.815 -1.299,-1.434 -0.073,-0.618 0.197,-0.957 0.928,-1.696 0.76,-0.768 1.8,-1.821 1.587,-3.617 -0.213,-1.796 -1.471,-2.576 -2.388,-3.145 -0.884,-0.548 -1.224,-0.814 -1.297,-1.431 -0.073,-0.618 0.197,-0.955 0.927,-1.695 0.76,-0.768 1.8,-1.821 1.588,-3.617 -0.212,-1.795 -1.47,-2.575 -2.388,-3.144 -0.883,-0.548 -1.224,-0.813 -1.297,-1.43 -0.072,-0.617 0.197,-0.955 0.928,-1.695 0.76,-0.768 1.8,-1.82 1.587,-3.617 -0.212,-1.796 -1.47,-2.575 -2.387,-3.145 -0.547,-0.339 -0.884,-0.57 -1.08,-0.841 -1.39,-8.285 -8.591,-14.6 -17.271,-14.6 l 0,14.817 c 0.222,0.195 0.447,0.385 0.678,0.569 0.034,0.027 0.068,0.054 0.103,0.08 0.284,0.221 0.572,0.435 0.869,0.64 0.089,0.061 0.177,0.122 0.267,0.181 0.188,0.126 0.377,0.247 0.57,0.365 0.107,0.066 0.217,0.128 0.326,0.191 0.301,0.175 0.606,0.341 0.917,0.499 0.004,0.002 0.006,0.004 0.011,0.006 0.152,0.077 0.303,0.153 0.457,0.226 0.167,0.079 0.335,0.154 0.505,0.229 0.188,0.082 0.379,0.159 0.571,0.235 0.138,0.054 0.273,0.111 0.412,0.162 0.315,0.116 0.635,0.221 0.958,0.318 0.135,0.041 0.272,0.078 0.408,0.116 0.241,0.066 0.483,0.128 0.729,0.186 0.12,0.028 0.239,0.058 0.36,0.083 0.357,0.076 0.716,0.142 1.08,0.196 0.008,0.002 0.017,0.002 0.024,0.003 0.077,0.011 0.154,0.019 0.232,0.029 0.304,0.041 0.611,0.074 0.921,0.099 0.042,0.004 0.085,0.007 0.127,0.01 0.067,0.004 0.136,0.01 0.204,0.015 0.388,0.024 0.777,0.042 1.17,0.042 1.18,0 2.328,-0.127 3.444,-0.344 -0.726,7.84 -7.314,13.978 -15.342,13.978 l 0,0.06 10e-4,0 c 10.848,0 19.642,9.747 19.642,21.771 -0.075,-0.62 2.288,-2.148 3.019,-2.888 z"
               id="path274" /><path
               style="fill:#ffffff"
               inkscape:connector-curvature="0"
               d="m 586.513,231.845 c 0.034,0.027 0.068,0.054 0.103,0.08 -0.035,-0.026 -0.069,-0.053 -0.103,-0.08 z"
               id="path276" /><polygon
               style="fill:#ffffff"
               points="589.575,233.808 589.565,233.802 589.568,233.804 "
               id="polygon278" /><path
               style="fill:#ffffff"
               inkscape:connector-curvature="0"
               d="m 592.874,235.09 c 0.004,0.002 0.008,0.002 0.012,0.003 -0.136,-0.038 -0.272,-0.074 -0.408,-0.116 0.001,0.001 0.002,0.001 0.002,0.001 0.13,0.038 0.262,0.075 0.394,0.112 z"
               id="path280" /><path
               style="fill:#ffffff"
               inkscape:connector-curvature="0"
               d="m 590.53,234.259 c 0.002,0.001 0.005,0.002 0.007,0.003 -0.17,-0.074 -0.339,-0.149 -0.505,-0.229 l 10e-4,0.001 c 0.165,0.077 0.33,0.152 0.497,0.225 z"
               id="path282" /><path
               style="fill:#ffffff"
               inkscape:connector-curvature="0"
               d="m 593.973,235.362 c 0.001,0 0.001,0 0.002,0 -0.121,-0.025 -0.241,-0.054 -0.36,-0.083 0.004,0.001 0.008,0.002 0.011,0.003 0.116,0.026 0.23,0.055 0.347,0.08 z"
               id="path284" /><path
               style="fill:#ffffff"
               inkscape:connector-curvature="0"
               d="m 596.563,235.715 c -0.067,-0.005 -0.136,-0.011 -0.204,-0.015 0.067,0.005 0.133,0.01 0.201,0.015 0.001,0 0.002,0 0.003,0 z"
               id="path286" /><path
               style="fill:#ffffff"
               inkscape:connector-curvature="0"
               d="m 595.079,235.56 c -0.008,-0.001 -0.016,-0.001 -0.024,-0.003 l 0.001,0 c 0.007,0.002 0.015,0.002 0.023,0.003 z"
               id="path288" /><path
               style="fill:#dcdcdc"
               inkscape:connector-curvature="0"
               d="m 585.836,249.451 0,0 -10e-4,15.334 c 0,-3.125 2.534,-5.659 5.659,-5.659 3.125,0 5.659,2.533 5.659,5.659 l 0,6.436 8.325,0 c 0,-12.023 -8.795,-21.77 -19.642,-21.77 z"
               id="path290" /><path
               style="fill:#ef3522"
               inkscape:connector-curvature="0"
               d="m 591.494,259.127 c -3.125,0 -5.659,2.533 -5.659,5.659 l 0,6.436 11.317,0 0,-6.436 c 0,-3.126 -2.533,-5.659 -5.658,-5.659 z"
               id="path292" /></g></g><g
           id="g294"><circle
             style="fill:#004860"
             cx="577.15601"
             cy="334.91299"
             r="34.730999"
             id="circle296" /><g
             id="g298"><path
               style="fill:#002738"
               inkscape:connector-curvature="0"
               d="m 596.938,308.323 c -0.13,1.69 -1.692,4.422 -5.246,4.812 -2.384,0.26 -4.754,-0.633 -6.06,-1.25 -2.55,-1.871 -5.689,-2.983 -9.093,-2.983 -7.77,0 -14.178,5.754 -15.243,13.23 5.188,-0.453 9.346,-4.467 10.039,-9.583 2.824,5.642 8.654,9.516 15.393,9.516 1.715,0 3.366,-0.263 4.93,-0.732 -0.006,-0.03 -0.017,-0.06 -0.023,-0.091 8.337,-3.093 5.303,-12.919 5.303,-12.919 z"
               id="path300" /><path
               style="fill:#00bec5"
               inkscape:connector-curvature="0"
               d="m 576.478,344.349 c 2.346,0 4.279,-1.752 4.573,-4.018 1.844,0.488 3.58,1.279 5.183,2.299 l 0,18.873 -9.8,0 0,-17.158 c 0.015,-0.001 0.029,0.004 0.044,0.004 z"
               id="path302" /><g
               id="g304"><polygon
                 style="fill:none"
                 points="569.315,333.08 569.32,333.077 569.318,333.077 "
                 id="polygon306" /><path
                 style="fill:none"
                 inkscape:connector-curvature="0"
                 d="m 567.855,334.545 c -0.003,0.005 -0.007,0.011 -0.011,0.015 0.004,-0.005 0.007,-0.01 0.011,-0.015 z"
                 id="path308" /><path
                 style="fill:none"
                 inkscape:connector-curvature="0"
                 d="m 570.099,332.505 c -0.02,0.014 -0.041,0.026 -0.061,0.04 0.019,-0.014 0.041,-0.026 0.061,-0.04 z"
                 id="path310" /><path
                 style="fill:none"
                 inkscape:connector-curvature="0"
                 d="m 568.492,333.833 c 0.038,-0.038 0.078,-0.078 0.117,-0.116 -0.039,0.038 -0.077,0.078 -0.117,0.116 z"
                 id="path312" /><path
                 style="fill:none"
                 inkscape:connector-curvature="0"
                 d="m 570.942,332.001 c -0.059,0.032 -0.119,0.063 -0.177,0.096 0.058,-0.034 0.117,-0.065 0.177,-0.096 z"
                 id="path314" /><path
                 style="fill:none"
                 inkscape:connector-curvature="0"
                 d="m 574.609,330.772 c -0.098,0.015 -0.196,0.03 -0.293,0.049 0.098,-0.019 0.196,-0.034 0.293,-0.049 z"
                 id="path316" /><path
                 style="fill:none"
                 inkscape:connector-curvature="0"
                 d="m 575.54,330.66 c -0.095,0.008 -0.186,0.018 -0.279,0.028 0.094,-0.009 0.185,-0.02 0.279,-0.028 z"
                 id="path318" /><path
                 style="fill:none"
                 inkscape:connector-curvature="0"
                 d="m 573.648,330.964 c -0.07,0.016 -0.143,0.032 -0.214,0.05 0.07,-0.018 0.143,-0.033 0.214,-0.05 z"
                 id="path320" /><path
                 style="fill:none"
                 inkscape:connector-curvature="0"
                 d="m 571.746,331.604 c -0.062,0.028 -0.123,0.057 -0.184,0.085 0.061,-0.029 0.122,-0.057 0.184,-0.085 z"
                 id="path322" /><path
                 style="fill:none"
                 inkscape:connector-curvature="0"
                 d="m 572.567,331.278 c -0.008,0.003 -0.017,0.006 -0.025,0.009 0.007,-0.003 0.017,-0.006 0.025,-0.009 z"
                 id="path324" /><path
                 style="fill:none"
                 inkscape:connector-curvature="0"
                 d="m 567.328,335.287 c -0.04,0.061 -0.079,0.123 -0.117,0.186 0.037,-0.063 0.077,-0.125 0.117,-0.186 z"
                 id="path326" /><path
                 style="fill:none"
                 inkscape:connector-curvature="0"
                 d="m 576.522,339.73 c -0.015,0 -0.029,0.002 -0.044,0.002 0.015,0 0.029,0.002 0.044,0.002 l 0,-0.004 z"
                 id="path328" /><path
                 style="fill:#afc01d"
                 inkscape:connector-curvature="0"
                 d="m 556.835,361.503 9.887,0 0,-18.873 c -5.902,3.754 -9.887,10.789 -9.887,18.873 z"
                 id="path330" /><path
                 style="fill:#69e2de"
                 inkscape:connector-curvature="0"
                 d="m 576.478,344.349 c -2.348,0 -4.28,-1.752 -4.574,-4.018 -1.844,0.488 -3.579,1.279 -5.181,2.299 l 0,18.873 9.8,0 0,-17.158 c -0.016,-0.001 -0.03,0.004 -0.045,0.004 z"
                 id="path332" /><path
                 style="fill:#ffffff"
                 inkscape:connector-curvature="0"
                 d="m 576.478,344.349 c 0.015,0 0.029,-0.005 0.044,-0.005 l 0,-4.611 c -0.015,0 -0.029,-0.002 -0.044,-0.002 -1.576,0 -3.107,0.211 -4.574,0.599 0.294,2.268 2.226,4.019 4.574,4.019 z"
                 id="path334" /><path
                 style="fill:#002738"
                 inkscape:connector-curvature="0"
                 d="m 576.522,330.624 c -0.015,0 -0.029,-0.003 -0.044,-0.003 -0.317,0 -0.629,0.016 -0.938,0.039 -0.095,0.008 -0.186,0.018 -0.279,0.028 -0.22,0.023 -0.438,0.05 -0.652,0.084 -0.098,0.015 -0.196,0.03 -0.293,0.049 -0.226,0.041 -0.448,0.09 -0.669,0.143 -0.07,0.016 -0.143,0.032 -0.214,0.05 -0.294,0.078 -0.584,0.165 -0.867,0.264 -0.008,0.003 -0.017,0.006 -0.025,0.009 -0.271,0.096 -0.536,0.203 -0.796,0.317 -0.062,0.028 -0.123,0.057 -0.184,0.085 -0.212,0.098 -0.42,0.201 -0.621,0.311 -0.059,0.032 -0.119,0.063 -0.177,0.096 -0.227,0.13 -0.451,0.266 -0.666,0.409 -0.02,0.014 -0.041,0.026 -0.061,0.04 -0.249,0.168 -0.488,0.345 -0.718,0.532 -0.002,0.002 -0.003,0.003 -0.004,0.003 0.001,0 0.003,-0.002 0.003,-0.003 -4.119,-2.187 -7.104,-6.206 -7.899,-10.969 -0.063,0.007 -0.122,0.019 -0.183,0.025 -0.103,0.715 -0.173,1.441 -0.173,2.185 0,4.829 2.234,9.125 5.709,11.951 0.079,0.064 0.154,0.131 0.235,0.193 2.615,2.041 5.896,3.27 9.471,3.27 0.015,0 0.029,-0.002 0.044,-0.002 l 0,-2.529 c -0.015,0 -0.029,0.005 -0.044,0.005 -2.242,0 -4.061,-1.817 -4.061,-4.059 l 4.105,0 0,-2.523 z"
                 id="path336" /><path
                 style="fill:#002738"
                 inkscape:connector-curvature="0"
                 d="m 569.315,333.08 c -0.248,0.201 -0.482,0.416 -0.706,0.637 0.224,-0.221 0.458,-0.436 0.706,-0.637 z"
                 id="path338" /><path
                 style="fill:#002738"
                 inkscape:connector-curvature="0"
                 d="m 567.844,334.56 c -0.186,0.233 -0.355,0.477 -0.516,0.727 0.161,-0.25 0.33,-0.494 0.516,-0.727 z"
                 id="path340" /><path
                 style="fill:#002738"
                 inkscape:connector-curvature="0"
                 d="m 567.855,334.545 c 0.198,-0.247 0.413,-0.483 0.638,-0.712 -0.225,0.228 -0.44,0.464 -0.638,0.712 z"
                 id="path342" /><path
                 style="fill:#002738"
                 inkscape:connector-curvature="0"
                 d="m 566.772,336.269 c 0.13,-0.273 0.279,-0.536 0.438,-0.796 -0.159,0.259 -0.308,0.523 -0.438,0.796 z"
                 id="path344" /><path
                 style="fill:#ffffff"
                 inkscape:connector-curvature="0"
                 d="m 569.318,333.077 c 0.002,0 0.002,0 0.002,0 0.23,-0.187 0.469,-0.364 0.718,-0.532 0.02,-0.014 0.041,-0.026 0.061,-0.04 0.215,-0.143 0.438,-0.279 0.666,-0.409 0.058,-0.033 0.118,-0.064 0.177,-0.096 0.201,-0.11 0.409,-0.214 0.621,-0.311 0.061,-0.029 0.122,-0.058 0.184,-0.085 0.26,-0.114 0.524,-0.221 0.796,-0.317 0.008,-0.003 0.017,-0.006 0.025,-0.009 0.284,-0.099 0.573,-0.186 0.867,-0.264 0.07,-0.018 0.143,-0.034 0.214,-0.05 0.221,-0.054 0.443,-0.103 0.669,-0.143 0.097,-0.018 0.195,-0.034 0.293,-0.049 0.215,-0.034 0.432,-0.061 0.652,-0.084 0.093,-0.009 0.184,-0.02 0.279,-0.028 0.309,-0.023 0.621,-0.039 0.938,-0.039 0.015,0 0.029,0.001 0.044,0.001 l 0,-11.868 c -2.205,-1.614 -4.014,-3.741 -5.246,-6.205 -0.687,5.055 -4.756,9.028 -9.857,9.558 0.794,4.764 3.778,8.782 7.897,10.97 z"
                 id="path346" /><path
                 style="fill:#ffffff"
                 inkscape:connector-curvature="0"
                 d="m 570.764,332.096 c -0.228,0.13 -0.451,0.266 -0.666,0.409 0.215,-0.143 0.44,-0.279 0.666,-0.409 z"
                 id="path348" /><path
                 style="fill:#ffffff"
                 inkscape:connector-curvature="0"
                 d="m 570.038,332.545 c -0.249,0.168 -0.488,0.345 -0.718,0.532 0.23,-0.188 0.469,-0.364 0.718,-0.532 z"
                 id="path350" /><path
                 style="fill:#ffffff"
                 inkscape:connector-curvature="0"
                 d="m 576.478,330.621 c 0.015,0 0.029,0.003 0.044,0.003 l 0,-0.002 c -0.015,0 -0.029,-0.001 -0.044,-0.001 z"
                 id="path352" /><path
                 style="fill:#ffffff"
                 inkscape:connector-curvature="0"
                 d="m 571.562,331.689 c -0.212,0.098 -0.42,0.201 -0.621,0.311 0.202,-0.11 0.409,-0.213 0.621,-0.311 z"
                 id="path354" /><path
                 style="fill:#ffffff"
                 inkscape:connector-curvature="0"
                 d="m 576.478,330.621 c -0.317,0 -0.628,0.016 -0.938,0.039 0.309,-0.022 0.621,-0.039 0.938,-0.039 z"
                 id="path356" /><path
                 style="fill:#ffffff"
                 inkscape:connector-curvature="0"
                 d="m 574.317,330.821 c -0.226,0.041 -0.448,0.09 -0.669,0.143 0.221,-0.054 0.443,-0.102 0.669,-0.143 z"
                 id="path358" /><path
                 style="fill:#ffffff"
                 inkscape:connector-curvature="0"
                 d="m 575.262,330.688 c -0.22,0.023 -0.438,0.05 -0.652,0.084 0.214,-0.034 0.432,-0.061 0.652,-0.084 z"
                 id="path360" /><path
                 style="fill:#ffffff"
                 inkscape:connector-curvature="0"
                 d="m 573.434,331.014 c -0.294,0.078 -0.584,0.165 -0.867,0.264 0.283,-0.099 0.573,-0.186 0.867,-0.264 z"
                 id="path362" /><path
                 style="fill:#ffffff"
                 inkscape:connector-curvature="0"
                 d="m 572.542,331.287 c -0.271,0.096 -0.536,0.203 -0.796,0.317 0.26,-0.114 0.524,-0.221 0.796,-0.317 z"
                 id="path364" /><path
                 style="fill:#ffffff"
                 inkscape:connector-curvature="0"
                 d="m 572.417,333.147 c 0,2.242 1.818,4.059 4.061,4.059 0.015,0 0.029,-0.005 0.044,-0.005 l 0,-4.054 -4.105,0 z"
                 id="path366" /><path
                 style="fill:#002738"
                 inkscape:connector-curvature="0"
                 d="m 577.415,330.66 c 0.095,0.008 0.186,0.018 0.279,0.028 -0.093,-0.009 -0.184,-0.02 -0.279,-0.028 z"
                 id="path368" /><path
                 style="fill:#002738"
                 inkscape:connector-curvature="0"
                 d="m 584.35,333.72 c 0.036,0.036 0.074,0.073 0.111,0.109 -0.037,-0.036 -0.075,-0.072 -0.111,-0.109 z"
                 id="path370" /><path
                 style="fill:#002738"
                 inkscape:connector-curvature="0"
                 d="m 582.867,332.512 c 0.015,0.01 0.032,0.02 0.048,0.03 -0.017,-0.011 -0.033,-0.02 -0.048,-0.03 z"
                 id="path372" /><path
                 style="fill:#002738"
                 inkscape:connector-curvature="0"
                 d="m 581.211,331.604 c 0.061,0.028 0.121,0.057 0.18,0.084 -0.059,-0.028 -0.119,-0.056 -0.18,-0.084 z"
                 id="path374" /><path
                 style="fill:#002738"
                 inkscape:connector-curvature="0"
                 d="m 582.019,332.002 c 0.057,0.03 0.112,0.061 0.169,0.093 -0.056,-0.032 -0.112,-0.063 -0.169,-0.093 z"
                 id="path376" /><path
                 style="fill:#002738"
                 inkscape:connector-curvature="0"
                 d="m 580.391,331.278 c 0.007,0.002 0.011,0.005 0.017,0.006 -0.006,-10e-4 -0.011,-0.005 -0.017,-0.006 z"
                 id="path378" /><path
                 style="fill:#002738"
                 inkscape:connector-curvature="0"
                 d="m 585.101,334.546 c 0.002,0.003 0.003,0.004 0.005,0.008 -0.002,-0.003 -0.003,-0.004 -0.005,-0.008 z"
                 id="path380" /><path
                 style="fill:#002738"
                 inkscape:connector-curvature="0"
                 d="m 585.628,335.289 c 0.04,0.061 0.078,0.122 0.116,0.183 -0.038,-0.062 -0.076,-0.122 -0.116,-0.183 z"
                 id="path382" /><path
                 style="fill:#002738"
                 inkscape:connector-curvature="0"
                 d="m 578.347,330.772 c 0.098,0.015 0.195,0.03 0.293,0.049 -0.098,-0.019 -0.195,-0.034 -0.293,-0.049 z"
                 id="path384" /><path
                 style="fill:#002738"
                 inkscape:connector-curvature="0"
                 d="m 579.308,330.964 c 0.071,0.016 0.144,0.032 0.214,0.05 -0.07,-0.018 -0.143,-0.033 -0.214,-0.05 z"
                 id="path386" /><path
                 style="fill:#7ea800"
                 inkscape:connector-curvature="0"
                 d="m 586.234,342.63 0,18.873 9.885,0 c 0,-8.084 -3.984,-15.119 -9.885,-18.873 z"
                 id="path388" /><path
                 style="fill:#dcdcdc"
                 inkscape:connector-curvature="0"
                 d="m 581.051,340.331 c -1.454,-0.384 -2.969,-0.595 -4.529,-0.597 l 0,4.611 c 2.326,-0.023 4.238,-1.762 4.529,-4.014 z"
                 id="path390" /><path
                 style="fill:#002738"
                 inkscape:connector-curvature="0"
                 d="m 591.625,321.524 c -0.64,5.019 -3.703,9.275 -7.989,11.552 -0.23,-0.187 -0.471,-0.366 -0.721,-0.535 -0.017,-0.01 -0.033,-0.02 -0.048,-0.03 -0.22,-0.147 -0.447,-0.285 -0.679,-0.417 -0.057,-0.032 -0.112,-0.063 -0.169,-0.093 -0.206,-0.111 -0.415,-0.215 -0.628,-0.314 -0.06,-0.028 -0.119,-0.057 -0.18,-0.084 -0.262,-0.114 -0.529,-0.222 -0.803,-0.32 -0.005,-0.001 -0.01,-0.004 -0.017,-0.006 -0.283,-0.099 -0.574,-0.186 -0.869,-0.264 -0.07,-0.018 -0.143,-0.034 -0.214,-0.05 -0.22,-0.055 -0.442,-0.103 -0.668,-0.143 -0.098,-0.018 -0.195,-0.034 -0.293,-0.049 -0.215,-0.034 -0.433,-0.061 -0.653,-0.084 -0.093,-0.009 -0.184,-0.02 -0.279,-0.028 -0.294,-0.023 -0.592,-0.036 -0.893,-0.036 l 0,2.523 4.016,0 c 0,2.227 -1.795,4.03 -4.016,4.054 l 0,2.529 c 3.556,-0.011 6.822,-1.235 9.427,-3.268 0.079,-0.063 0.155,-0.129 0.234,-0.193 3.477,-2.826 5.71,-7.122 5.71,-11.951 0,-0.955 -0.1,-1.886 -0.268,-2.793 z"
                 id="path392" /><path
                 style="fill:#002738"
                 inkscape:connector-curvature="0"
                 d="m 584.35,333.72 c -0.228,-0.224 -0.462,-0.439 -0.714,-0.643 l 0,0 c 0.252,0.204 0.486,0.42 0.714,0.643 z"
                 id="path394" /><path
                 style="fill:#002738"
                 inkscape:connector-curvature="0"
                 d="m 586.183,336.269 c -0.13,-0.274 -0.279,-0.538 -0.438,-0.797 0.158,0.258 0.307,0.522 0.438,0.797 z"
                 id="path396" /><path
                 style="fill:#002738"
                 inkscape:connector-curvature="0"
                 d="m 585.106,334.554 c 0.189,0.236 0.359,0.483 0.522,0.735 -0.161,-0.252 -0.334,-0.499 -0.522,-0.735 z"
                 id="path398" /><path
                 style="fill:#002738"
                 inkscape:connector-curvature="0"
                 d="m 584.461,333.829 c 0.226,0.23 0.441,0.468 0.64,0.717 -0.198,-0.249 -0.414,-0.486 -0.64,-0.717 z"
                 id="path400" /><path
                 style="fill:#dcdcdc"
                 inkscape:connector-curvature="0"
                 d="m 577.415,330.66 c 0.095,0.008 0.186,0.018 0.279,0.028 0.22,0.023 0.438,0.05 0.653,0.084 0.098,0.015 0.195,0.03 0.293,0.049 0.226,0.041 0.448,0.09 0.668,0.143 0.071,0.016 0.144,0.032 0.214,0.05 0.295,0.078 0.586,0.165 0.869,0.264 0.007,0.002 0.011,0.005 0.017,0.006 0.274,0.098 0.541,0.206 0.803,0.32 0.061,0.028 0.121,0.057 0.18,0.084 0.213,0.099 0.422,0.202 0.628,0.314 0.057,0.03 0.112,0.061 0.169,0.093 0.232,0.132 0.459,0.27 0.679,0.417 0.015,0.01 0.032,0.02 0.048,0.03 0.251,0.17 0.491,0.348 0.721,0.535 4.286,-2.277 7.349,-6.534 7.989,-11.552 -0.011,-0.063 -0.015,-0.128 -0.027,-0.191 -1.564,0.47 -3.215,0.732 -4.93,0.732 -3.796,0 -7.302,-1.229 -10.146,-3.311 l 0,11.868 c 0.301,0.001 0.599,0.015 0.893,0.037 z"
                 id="path402" /><path
                 style="fill:#002738"
                 inkscape:connector-curvature="0"
                 d="m 583.636,333.077 c -0.23,-0.187 -0.471,-0.366 -0.721,-0.535 0.251,0.169 0.491,0.347 0.721,0.535 l 0,0 z"
                 id="path404" /><path
                 style="fill:#002738"
                 inkscape:connector-curvature="0"
                 d="m 582.188,332.095 c 0.232,0.132 0.459,0.27 0.679,0.417 -0.22,-0.147 -0.447,-0.286 -0.679,-0.417 z"
                 id="path406" /><path
                 style="fill:#002738"
                 inkscape:connector-curvature="0"
                 d="m 577.694,330.688 c 0.22,0.023 0.438,0.05 0.653,0.084 -0.215,-0.034 -0.433,-0.061 -0.653,-0.084 z"
                 id="path408" /><path
                 style="fill:#002738"
                 inkscape:connector-curvature="0"
                 d="m 578.64,330.821 c 0.226,0.041 0.448,0.088 0.668,0.143 -0.22,-0.054 -0.443,-0.102 -0.668,-0.143 z"
                 id="path410" /><path
                 style="fill:#002738"
                 inkscape:connector-curvature="0"
                 d="m 576.522,330.622 0,0.002 c 0.301,0 0.599,0.014 0.893,0.036 -0.294,-0.022 -0.592,-0.036 -0.893,-0.038 z"
                 id="path412" /><path
                 style="fill:#002738"
                 inkscape:connector-curvature="0"
                 d="m 579.522,331.014 c 0.295,0.078 0.586,0.165 0.869,0.264 -0.283,-0.099 -0.575,-0.186 -0.869,-0.264 z"
                 id="path414" /><path
                 style="fill:#002738"
                 inkscape:connector-curvature="0"
                 d="m 581.391,331.688 c 0.213,0.099 0.422,0.202 0.628,0.314 -0.206,-0.112 -0.415,-0.215 -0.628,-0.314 z"
                 id="path416" /><path
                 style="fill:#002738"
                 inkscape:connector-curvature="0"
                 d="m 580.408,331.284 c 0.274,0.098 0.541,0.206 0.803,0.32 -0.262,-0.114 -0.529,-0.222 -0.803,-0.32 z"
                 id="path418" /><path
                 style="fill:#dcdcdc"
                 inkscape:connector-curvature="0"
                 d="m 580.538,333.147 -4.016,0 0,4.054 c 2.221,-0.024 4.016,-1.827 4.016,-4.054 z"
                 id="path420" /></g></g></g><g
           id="g422"><circle
             style="fill:#004860"
             cx="474.453"
             cy="316.04099"
             r="34.730999"
             id="circle424" /><g
             id="g426"><polygon
               style="fill:none"
               points="474.453,320.57 474.452,320.57 474.453,320.57 "
               id="polygon428" /><path
               style="fill:#ff5b45"
               inkscape:connector-curvature="0"
               d="m 474.452,329.468 c -4.152,0 -7.631,-2.85 -8.611,-6.697 -6.532,3.536 -11.03,10.969 -11.03,19.57 l 19.642,0 0,-12.873 -10e-4,0 z"
               id="path430" /><path
               style="fill:#ffffff"
               inkscape:connector-curvature="0"
               d="m 474.452,329.468 10e-4,0 0,-8.898 -10e-4,0 c -3.09,0 -6.01,0.792 -8.611,2.202 0.98,3.846 4.459,6.696 8.611,6.696 z"
               id="path432" /><path
               style="fill:#ffffff"
               inkscape:connector-curvature="0"
               d="m 474.453,297.001 c 0,-10e-4 -10e-4,-10e-4 -10e-4,-10e-4 -1.69,4.3 -6.094,7.375 -11.277,7.375 -1.428,0 -2.793,-0.246 -4.064,-0.672 -0.044,0.479 -0.073,0.962 -0.073,1.453 0,8.513 6.902,15.414 15.414,15.414 l 10e-4,0 0,-23.569 z"
               id="path434" /><path
               style="fill:#fcd07a"
               inkscape:connector-curvature="0"
               d="m 474.452,297 c 0,0 10e-4,0 10e-4,10e-4 l 0,-7.26 -10e-4,0 c -8.022,0 -14.608,6.131 -15.341,13.962 1.271,0.427 2.636,0.672 4.064,0.672 5.182,0 9.587,-3.075 11.277,-7.375 z"
               id="path436" /><path
               style="fill:#ef3522"
               inkscape:connector-curvature="0"
               d="m 483.065,322.772 c -0.982,3.847 -4.46,6.697 -8.612,6.697 l 0,12.873 19.642,0 c 0,-8.602 -4.5,-16.034 -11.03,-19.57 z"
               id="path438" /><path
               style="fill:#dcdcdc"
               inkscape:connector-curvature="0"
               d="m 483.065,322.772 c -2.601,-1.409 -5.523,-2.202 -8.612,-2.202 l 0,8.898 c 4.153,0 7.63,-2.85 8.612,-6.696 z"
               id="path440" /><path
               style="fill:#dcdcdc"
               inkscape:connector-curvature="0"
               d="m 474.453,297.001 0,23.569 c 8.512,0 15.413,-6.901 15.413,-15.414 0,-0.491 -0.029,-0.974 -0.073,-1.453 -1.271,0.427 -2.636,0.672 -4.065,0.672 -5.181,0 -9.584,-3.074 -11.275,-7.374 z"
               id="path442" /><path
               style="fill:#ffa033"
               inkscape:connector-curvature="0"
               d="m 485.729,304.375 c 1.429,0 2.793,-0.246 4.065,-0.672 -0.734,-7.831 -7.319,-13.962 -15.34,-13.962 l 0,7.26 c 1.69,4.3 6.093,7.374 11.275,7.374 z"
               id="path444" /></g></g><g
           id="g446"><circle
             style="fill:#004860"
             cx="532.474"
             cy="417.68799"
             r="34.730999"
             id="circle448" /><g
             id="g450"><path
               style="fill:#ffffff"
               inkscape:connector-curvature="0"
               d="m 532.474,422.108 c -1.97,0 -3.87,0.33 -5.658,0.942 l 5.658,3.375 0,-4.317 z"
               id="path452" /><path
               style="fill:#afc01d"
               inkscape:connector-curvature="0"
               d="m 529.025,429.347 c -0.565,0.886 -1.009,1.996 -1.121,3.387 l -6.707,-6.557 c -4.784,3.865 -7.896,10.119 -7.896,17.182 l 14.948,0 4.225,0 0,-16.933 c -0.008,0.002 -2.09,0.794 -3.449,2.921 z"
               id="path454" /><path
               style="fill:#7ea800"
               inkscape:connector-curvature="0"
               d="m 529.025,429.347 c 1.36,-2.127 3.441,-2.92 3.449,-2.922 l 0,0 -5.658,-3.375 c -2.039,0.698 -3.932,1.764 -5.619,3.126 l 6.707,6.557 c 0.111,-1.39 0.555,-2.5 1.121,-3.386 z"
               id="path456" /><path
               style="fill:#ffffff"
               inkscape:connector-curvature="0"
               d="m 528.039,406.061 -0.119,-7.022 -1.085,7.022 -3.43,0 0.698,-7.022 -1.777,7.022 -4.848,0 c -0.022,0.333 -0.05,0.663 -0.05,1.001 0,8.311 6.736,15.046 15.045,15.046 l 0,-16.047 -4.434,0 z"
               id="path458" /><path
               style="fill:#002738"
               inkscape:connector-curvature="0"
               d="m 524.104,399.039 -0.698,7.022 3.43,0 1.085,-7.022 0.119,7.022 4.435,0 0,-14.045 c -7.972,0 -14.478,6.204 -14.995,14.045 l 4.848,0 1.776,-7.022 z"
               id="path460" /><polygon
               style="fill:#00bec5"
               points="532.474,422.108 532.474,422.108 532.475,422.108 "
               id="polygon462" /><path
               style="fill:#dcdcdc"
               inkscape:connector-curvature="0"
               d="m 532.475,426.425 5.657,-3.375 c -1.789,-0.612 -3.689,-0.942 -5.657,-0.942 l -10e-4,0 0,4.317 10e-4,0 z"
               id="path464" /><path
               style="fill:#7ea800"
               inkscape:connector-curvature="0"
               d="m 543.753,426.177 -6.706,6.557 c -0.112,-1.391 -0.557,-2.501 -1.122,-3.387 -1.362,-2.132 -3.449,-2.922 -3.449,-2.922 l -10e-4,0 0,16.933 4.227,0 14.947,0 c -0.002,-7.062 -3.113,-13.316 -7.896,-17.181 z"
               id="path466" /><polygon
               style="fill:#00bec5"
               points="532.474,426.425 532.475,426.425 532.474,426.425 "
               id="polygon468" /><path
               style="fill:#afc01d"
               inkscape:connector-curvature="0"
               d="m 535.924,429.347 c 0.565,0.886 1.01,1.996 1.122,3.387 l 6.706,-6.557 c -1.686,-1.362 -3.579,-2.428 -5.62,-3.126 l -5.657,3.375 c 0,-10e-4 2.088,0.79 3.449,2.921 z"
               id="path470" /><path
               style="fill:#dcdcdc"
               inkscape:connector-curvature="0"
               d="m 547.521,407.062 c 0,-0.338 -0.028,-0.668 -0.05,-1.001 l -3.858,0 -1.734,-7.022 0.572,7.022 -2.985,0 -0.761,-7.047 0.168,7.047 -2.961,0 -0.699,-7.022 -0.317,7.022 -2.424,0 0,16.047 10e-4,0 c 8.31,0 15.048,-6.736 15.048,-15.046 z"
               id="path472" /><path
               style="fill:#002738"
               inkscape:connector-curvature="0"
               d="m 534.898,406.061 0.317,-7.022 0.699,7.022 2.961,0 -0.168,-7.047 0.761,7.047 2.985,0 -0.572,-7.022 1.734,7.022 3.858,0 c -0.519,-7.841 -7.025,-14.045 -14.996,-14.045 l -10e-4,0 0,14.045 2.422,0 z"
               id="path474" /></g></g><polygon
           style="fill:#69e2de"
           points="308.432,555.045 247.025,620.583 301.776,620.583 333.727,566.689 "
           id="polygon476" /></g></g></g></svg>