<?xml version="1.0" encoding="UTF-8" standalone="no"?>
<svg
   xmlns:dc="http://purl.org/dc/elements/1.1/"
   xmlns:cc="http://creativecommons.org/ns#"
   xmlns:rdf="http://www.w3.org/1999/02/22-rdf-syntax-ns#"
   xmlns:svg="http://www.w3.org/2000/svg"
   xmlns="http://www.w3.org/2000/svg"
   xmlns:xlink="http://www.w3.org/1999/xlink"
   xmlns:sodipodi="http://sodipodi.sourceforge.net/DTD/sodipodi-0.dtd"
   xmlns:inkscape="http://www.inkscape.org/namespaces/inkscape"
   preserveAspectRatio="xMinYMin meet"
   viewBox="0 0 124.61999 124.90699"
   enable-background="new 0 0 595.28 841.89"
   id="svg2"
   version="1.1"
   inkscape:version="0.91pre3 r13670"
   sodipodi:docname="narrativa-bw.svg">
  <metadata
     id="metadata500">
    <rdf:RDF>
      <cc:Work
         rdf:about="">
        <dc:format>image/svg+xml</dc:format>
        <dc:type
           rdf:resource="http://purl.org/dc/dcmitype/StillImage" />
        <dc:title>Disparador exploracion</dc:title>
      </cc:Work>
    </rdf:RDF>
  </metadata>
  <sodipodi:namedview
     pagecolor="#ffffff"
     bordercolor="#666666"
     borderopacity="1"
     objecttolerance="10"
     gridtolerance="10"
     guidetolerance="10"
     inkscape:pageopacity="0"
     inkscape:pageshadow="2"
     inkscape:window-width="640"
     inkscape:window-height="480"
     id="namedview498"
     showgrid="false"
     inkscape:zoom="1.8894059"
     inkscape:cx="53.047823"
     inkscape:cy="62.453495"
     inkscape:window-x="0"
     inkscape:window-y="0"
     inkscape:window-maximized="0"
     inkscape:current-layer="svg2" />
  <title
     id="title4">Disparador exploracion</title>
  <defs
     id="defs6">
    <clipPath
       id="clipPath8">
      <path
         d="M103.533 219.087H473.32v369.788H103.534z"
         id="path10" />
    </clipPath>
    <clipPath
       id="clipPath12">
      <path
         d="M103.533 219.087H473.32v369.788H103.534z"
         id="path14" />
    </clipPath>
    <clipPath
       id="clipPath16">
      <path
         d="M103.533 219.087H473.32v369.788H103.534z"
         id="path18" />
    </clipPath>
    <clipPath
       id="clipPath20">
      <circle
         r="45.061"
         cy="370.696"
         cx="322.602"
         id="circle22" />
    </clipPath>
    <clipPath
       id="clipPath24">
      <circle
         r="45.061"
         cy="370.696"
         cx="322.602"
         id="circle26" />
    </clipPath>
    <clipPath
       id="b">
      <use
         height="100%"
         width="100%"
         xlink:href="#a"
         overflow="visible"
         id="use29" />
    </clipPath>
    <filter
       style="color-interpolation-filters:sRGB;"
       inkscape:label="Greyscale"
       id="filter8560">
      <feColorMatrix
         values="0.21 0.72 0.072 0 0 0.21 0.72 0.072 0 0 0.21 0.72 0.072 0 0 0 0 0 1 0 "
         id="feColorMatrix8562" />
    </filter>
  </defs>
  <g
     id="g31"
     style="filter:url(#filter8560)">
    <g
       transform="matrix(.173 0 0 .12 -30.082 .041)"
       id="g33">
      <defs
         id="defs35">
        <path
           id="a"
           d="M205.642 157.786H650.85v445.207H205.64z" />
      </defs>
      <clipPath
         id="clipPath38">
        <use
           height="100%"
           width="100%"
           xlink:href="#a"
           overflow="visible"
           id="use40" />
      </clipPath>
      <g
         clip-path="url(#b)"
         id="g42">
        <g
           id="g44">
          <path
             d="M511.678 541.873c-4.653 0-9.434-.225-14.346-.675-21.51-1.97-38.176-10.816-50.95-27.044-10.616-13.49-16.466-29.42-21.628-43.476-4.4-11.983-8.557-23.303-13.72-26.236-5.247-2.98-9.953-3.72-14.387-2.263-9.674 3.18-15.445 15.62-15.5 15.746-1.625 3.65-5.9 5.292-9.552 3.666-3.65-1.626-5.29-5.902-3.666-9.552.332-.75 8.345-18.394 24.198-23.607 8.414-2.765 17.18-1.613 26.052 3.427 9.773 5.552 14.585 18.656 20.157 33.83 4.79 13.045 10.22 27.83 19.416 39.514 10.182 12.937 23.56 19.996 40.9 21.584 29.52 2.704 53.452-3.587 71.14-18.698 13.956-11.92 24.25-29.39 30.594-51.918 5.236-18.59 6.35-35.582 6.886-43.747l.02-.317c.41-6.218-.075-17.693-2.103-28.194-2.51-13.005-6.39-19.23-9.184-20.718-3.525-1.88-4.86-6.26-2.98-9.787 1.878-3.527 6.26-4.862 9.786-2.982 7.876 4.198 13.456 14.542 16.584 30.743 2.283 11.824 2.818 24.534 2.335 31.887l-.02.316c-.568 8.656-1.75 26.67-7.397 46.722-7.135 25.333-18.952 45.183-35.123 58.998-17.726 15.143-40.39 22.78-67.512 22.78z"
             fill="#69e2de"
             id="path46" />
        </g>
        <g
           id="g48">
          <path
             d="M510.672 479.69c-8.56 0-17.66-1.752-27.177-5.24-7.124-2.614-15.163-9.384-25.34-17.958-21.906-18.452-49.17-41.414-73.074-27.22-3.434 2.04-7.873.908-9.913-2.528s-.908-7.875 2.527-9.915c14.59-8.663 31.306-8.595 49.677.202 14.823 7.097 28.84 18.905 40.105 28.394 8.366 7.047 16.27 13.703 21 15.44 28.945 10.61 43.31-1 47.022-4.812 4.255-4.367 5.096-8.515 4.6-9.765-1.474-3.716.344-7.92 4.058-9.393 3.716-1.472 7.92.345 9.392 4.06 2.963 7.472-.054 17.362-7.686 25.195-4.372 4.49-12.195 10.318-24.63 12.6-3.418.625-6.94.938-10.558.938z"
             fill="#fff"
             id="path50" />
        </g>
        <g
           id="g52">
          <path
             d="M364.853 418.305c-.76 0-1.533-.12-2.293-.375-3.79-1.266-5.836-5.364-4.57-9.154 6.91-20.692 42.35-26.852 79.87-33.372 28.437-4.943 63.83-11.094 69.18-23.5 1.6-3.708.292-8.79-3.883-15.102-7.578-11.456-20.947-16.052-33.877-20.497-13.59-4.672-27.645-9.504-32.822-22.838-2.424-6.245-2.4-12.396.066-17.79 4.446-9.716 15.338-14.537 23.144-17.318 9.873-3.518 35.225-6.628 60.28-7.395 40.087-1.227 58.004 3.577 65.98 7.823 3.526 1.877 4.863 6.258 2.986 9.786-1.877 3.527-6.258 4.865-9.786 2.986-8.82-4.696-30.78-6.987-58.736-6.132-25.646.785-48.546 3.953-55.868 6.56-8.245 2.938-13.24 6.205-14.843 9.71-.526 1.152-1.073 3.084.266 6.532 2.745 7.072 12.612 10.463 24.037 14.39 14.507 4.988 30.95 10.64 41.242 26.2 7.04 10.643 8.756 20.337 5.102 28.812-8.45 19.592-43.2 25.632-79.99 32.026-16.665 2.897-33.896 5.89-46.995 10.054-8.712 2.77-19.535 7.385-21.627 13.646-1.013 3.03-3.835 4.947-6.862 4.947z"
             fill="#ffa033"
             id="path54" />
        </g>
        <g
           id="g56">
          <path
             d="M314.76 376.567c-3.632 0-6.762-2.728-7.18-6.423-.375-3.317 1.555-6.363 4.516-7.537 1.643-4.34.798-19.432-2.934-26.728-3.397-6.643-9.814-11.603-16.606-16.855-4.485-3.467-9.122-7.053-13.138-11.333-16.382-17.464-21.183-50.604-2.218-72.1 12.798-14.508 30.165-17.87 42.48-18.138 13.532-.294 27.797 3.077 37.234 8.796 3.417 2.07 4.51 6.52 2.438 9.936-2.07 3.418-6.52 4.51-9.936 2.438-5.823-3.53-17.185-6.98-29.422-6.705-9.423.203-22.613 2.667-31.943 13.243-10.876 12.33-12.763 36.976 1.92 52.63 3.226 3.44 7.214 6.52 11.436 9.785 7.752 5.993 15.768 12.19 20.638 21.71 4.682 9.155 7.87 30.785 2.51 40.767-2.71 5.048-6.786 6.217-8.973 6.465-.274.032-.55.047-.82.047z"
             fill="#afc01d"
             id="path58" />
        </g>
        <g
           id="g60">
          <path
             d="M333.72 391.728c-1.093 0-2.203-.25-3.247-.775-3.57-1.797-5.005-6.147-3.208-9.715.61-1.21 1.275-2.545 1.997-3.992 7.97-15.97 22.8-45.7 42.874-71.157 40.874-51.84 77.695-69.913 91.63-75.277 3.73-1.435 7.915.423 9.35 4.152 1.436 3.73-.423 7.916-4.152 9.35-12.82 4.937-46.81 21.708-85.465 70.733-19.153 24.288-33.553 53.15-41.29 68.657-.73 1.465-1.404 2.816-2.02 4.04-1.273 2.526-3.822 3.983-6.47 3.983z"
             fill="#002738"
             id="path62" />
        </g>
        <g
           id="g64">
          <path
             d="M325.896 432.773c-.906 0-1.826-.172-2.717-.533-3.703-1.502-5.487-5.722-3.985-9.424 15.712-38.73 44.246-63.465 65.416-77.396 25.91-17.05 55.446-27.25 79.007-27.286h.01c3.99 0 7.23 3.232 7.235 7.224.006 3.996-3.228 7.24-7.224 7.245-20.854.032-47.425 9.342-71.074 24.904-19.454 12.8-45.65 35.467-59.962 70.748-1.14 2.813-3.848 4.518-6.706 4.518z"
             fill="#ff5b45"
             id="path66" />
        </g>
        <g
           id="g68">
          <path
             d="M349.34 505.873c12.168 4.276 18.565 17.61 14.288 29.778l-5.422 15.425c-4.277 12.168-17.61 18.565-29.78 14.287l-7.833-2.752c-12.168-4.28-17.74-10.327-18.69-31.98-.22-5.026-.084-16.526-.084-16.526 4.276-12.168 27.518-15.26 39.686-10.983l7.834 2.753z"
             fill="#69e2de"
             id="path70" />
          <g
             id="g72">
            <path
               d="M306.248 492.74s34.68 37.98 75.14 36.054"
               fill="#fff"
               id="path74" />
            <path
               d="M389.643 537.053c-1.983 1.983-4.68 3.26-7.7 3.404-45.415 2.164-82.75-38.13-84.317-39.846-4.347-4.76-3.99-12.167.75-16.496 4.76-4.345 12.138-4.012 16.488.74.528.57 31.724 33.906 65.97 32.275 6.44-.308 11.91 4.666 12.218 11.106.163 3.425-1.165 6.573-3.41 8.817z"
               fill="#ef3522"
               id="path76" />
          </g>
          <path
             d="M341.02 485.49c2.432 2.433 2.432 6.374 0 8.807l-16.88 16.88c-2.432 2.433-6.376 2.433-8.81 0-2.43-2.43-2.43-6.375 0-8.807l16.882-16.88c2.433-2.432 6.376-2.432 8.808 0z"
             fill="#00bec5"
             id="path78" />
          <path
             d="M367.443 511.913c2.432 2.433 2.432 6.375 0 8.807l-16.88 16.88c-2.433 2.43-6.377 2.43-8.808 0-2.432-2.43-2.432-6.375 0-8.807l16.88-16.88c2.432-2.432 6.376-2.432 8.808 0z"
             fill="#00bec5"
             id="path80" />
          <path
             d="M352.58 491.546c2.433 2.43 2.433 6.375 0 8.806l-23.486 23.488c-2.432 2.43-6.375 2.43-8.807 0-2.432-2.434-2.432-6.376 0-8.808l23.486-23.485c2.43-2.434 6.375-2.434 8.808 0z"
             fill="#00bec5"
             id="path82" />
          <path
             d="M361.388 500.352c2.43 2.433 2.43 6.375 0 8.807L337.9 532.646c-2.43 2.43-6.374 2.43-8.806 0-2.432-2.433-2.432-6.377 0-8.807l23.487-23.488c2.433-2.43 6.376-2.43 8.808 0z"
             fill="#00bec5"
             id="path84" />
          <path
             d="M338 507.717c.67 3.373-1.522 6.652-4.894 7.323l-23.415 4.655c-3.374.67-6.652-1.522-7.322-4.894-.67-3.37 1.52-6.65 4.893-7.32l23.415-4.657c3.376-.67 6.654 1.522 7.324 4.894z"
             fill="#69e2de"
             id="path86" />
          <g
             id="g88">
            <path
               d="M238.817 486.776c-5.878 5.878-2.06 19.226 8.532 29.816l10.64-10.643-19.173-19.174z"
               fill="#fff"
               id="path90" />
            <path
               d="M268.634 495.308l33.762-33.762-19.175-19.173-4.22-4.22-44.404 44.402 4.22 4.222c5.88-5.88 19.228-2.06 29.818 8.53z"
               fill="#ff5b45"
               id="path92" />
            <path
               d="M268.634 495.308c-10.59-10.59-23.938-14.41-29.817-8.53l19.174 19.17 10.644-10.64z"
               fill="#ff5b45"
               id="path94" />
            <path
               d="M363.498 400.443l-47.798-47.8c-2.13-2.128-5.58-2.127-7.707 0-2.128 2.13-2.128 5.58 0 7.707l1.926 1.927-26.7 80.094 19.176 19.174 61.102-61.1z"
               fill="#fff"
               id="path96" />
            <path
               d="M277.165 525.124l-19.174-19.176-10.64 10.643c10.59 10.593 23.938 14.412 29.815 8.534z"
               fill="#dcdcdc"
               id="path98" />
            <path
               d="M268.634 495.308c10.59 10.59 14.41 23.94 8.53 29.817l4.222 4.22 44.405-44.403-4.22-4.22-19.173-19.175-33.763 33.76z"
               fill="#ef3522"
               id="path100" />
            <path
               d="M268.634 495.308l-10.643 10.64 19.175 19.177c5.88-5.88 2.06-19.228-8.53-29.817z"
               fill="#ef3522"
               id="path102" />
            <path
               d="M321.57 480.72l80.094-26.698 1.927 1.926c2.13 2.13 5.58 2.128 7.707 0 2.128-2.127 2.13-5.578 0-7.706L363.5 400.444l-61.103 61.102 19.173 19.174z"
               fill="#dcdcdc"
               id="path104" />
          </g>
        </g>
        <g
           id="g106">
          <circle
             cx="386.614"
             cy="238.848"
             r="34.731"
             fill="#004860"
             id="circle108" />
          <g
             id="g110">
            <g
               id="g112">
              <path
                 d="M371.237 226.51v.727c.013-.242.015-.487.037-.727h-.037z"
                 fill="#afc01d"
                 id="path114" />
              <path
                 d="M401.992 228.687c-.01.24-.015.485-.036.724v28.623h.036v-29.346z"
                 fill="#afc01d"
                 id="path116" />
              <path
                 d="M386.613 247.994l-3.987-4.153c1.288-.295 2.62-.463 3.988-.463-8.268 0-14.996-6.515-15.378-14.69v29.347h15.378v-10.04z"
                 fill="#afc01d"
                 id="path118" />
              <path
                 d="M401.992 226.51h-.036c.022.24.024.484.036.727v-.727z"
                 fill="#afc01d"
                 id="path120" />
              <path
                 d="M371.2 227.962c0 .245.026.483.037.725v-1.45c-.013.242-.037.48-.037.725z"
                 fill="#fff"
                 id="path122" />
              <path
                 d="M402.03 227.962c0-.246-.025-.484-.038-.726v1.45c.01-.24.037-.48.037-.724z"
                 fill="#fff"
                 id="path124" />
              <path
                 d="M401.992 228.687v-1.45c-.012-.243-.015-.488-.036-.728v2.9c.02-.238.024-.482.036-.723z"
                 fill="#fff"
                 id="path126" />
              <path
                 d="M379.41 226.51c-1.273.43-2.64.672-4.073.672-1.428 0-2.792-.245-4.063-.672-.022.24-.024.484-.037.727v1.45c.382 8.175 7.11 14.69 15.378 14.69v-23.571c-1.224 3.113-3.873 5.576-7.206 6.704z"
                 fill="#fff"
                 id="path128" />
              <path
                 d="M371.274 226.51c1.27.427 2.635.672 4.063.672 1.432 0 2.8-.24 4.072-.672 3.332-1.127 5.98-3.59 7.205-6.704v-7.258c-8.023 0-14.61 6.13-15.34 13.962z"
                 fill="#afc01d"
                 id="path130" />
              <path
                 d="M386.613 247.994v-4.617c-1.367 0-2.7.17-3.987.464l3.987 4.154z"
                 fill="#fff"
                 id="path132" />
              <path
                 fill="#002738"
                 d="M386.615 258.033h15.34v7.114h-15.34z"
                 id="path134" />
              <path
                 d="M397.89 227.182c-1.43 0-2.8-.24-4.07-.672-3.334-1.127-5.983-3.59-7.206-6.704v23.571c8.023 0 14.61-6.132 15.34-13.965v-2.902c-1.27.427-2.634.672-4.063.672z"
                 fill="#dcdcdc"
                 id="path136" />
              <g
                 fill="#7ea800"
                 id="g138">
                <path
                   d="M386.615 243.377c1.368 0 2.7.17 3.987.464l-3.986 4.154v10.04h15.34V229.41c-.73 7.834-7.318 13.967-15.34 13.967z"
                   id="path140" />
                <path
                   d="M393.82 226.51c1.27.43 2.64.672 4.07.672 1.43 0 2.793-.245 4.065-.672-.733-7.83-7.318-13.962-15.34-13.962v7.258c1.222 3.113 3.87 5.576 7.204 6.704z"
                   id="path142" />
              </g>
              <path
                 d="M386.616 247.994l3.986-4.153c-1.287-.295-2.62-.463-3.987-.463v4.617z"
                 fill="#dcdcdc"
                 id="path144" />
            </g>
            <g
               id="g146">
              <g
                 id="g148">
                <path
                   d="M386.616 247.994h-.002v.04c0-.022.002-.04.002-.04z"
                   fill="#00bec5"
                   id="path150" />
                <path
                   d="M395.41 245.7c-.1 1.283-.79 5.256-4.873 5.936-3.807.634-3.925-3.05-3.923-3.576.002.526-.116 4.21-3.923 3.576-4.083-.68-4.772-4.654-4.874-5.936-6.427 3.577-10.844 10.933-10.844 19.447h39.283c0-8.514-4.417-15.87-10.844-19.447z"
                   fill="#002738"
                   id="path152" />
                <path
                   d="M386.613 247.994l-3.987-4.153c-.196.046-.393.086-.586.137-1.483.392-2.893.982-4.224 1.723.102 1.283.79 5.256 4.875 5.936 3.807.634 3.926-3.05 3.924-3.576v-.067z"
                   fill="#69e2de"
                   id="path154" />
                <path
                   d="M391.188 243.977c-.193-.05-.39-.09-.586-.136l-3.986 4.154v.066c-.003.526.115 4.21 3.922 3.576 4.084-.68 4.772-4.654 4.874-5.936-1.33-.74-2.74-1.332-4.224-1.723z"
                   fill="#00bec5"
                   id="path156" />
                <path
                   d="M386.615 248.033v.027-.027z"
                   fill="#dcdcdc"
                   id="path158" />
              </g>
              <circle
                 cx="386.614"
                 cy="253.652"
                 r=".843"
                 fill="#69e2de"
                 id="circle160" />
              <circle
                 cx="386.614"
                 cy="257.19"
                 r=".843"
                 fill="#69e2de"
                 id="circle162" />
              <circle
                 cx="386.614"
                 cy="260.728"
                 r=".843"
                 fill="#69e2de"
                 id="circle164" />
            </g>
          </g>
        </g>
        <g
           id="g166">
          <circle
             cx="486.007"
             cy="227.291"
             r="34.731"
             fill="#004860"
             id="circle168" />
          <g
             id="g170">
            <g
               id="g172">
              <path
                 d="M482.472 239.236c-.58.908-1.035 2.045-1.15 3.47l-6.87-6.718 7.225 17.603 2.33-11.457-1.535-2.897z"
                 fill="#69e2de"
                 id="path174" />
              <path
                 d="M485.92 231.824c-1.986.01-3.903.345-5.71.962l5.71 3.405v-4.366z"
                 fill="#fff"
                 id="path176" />
              <path
                 d="M482.472 239.236l1.536 2.897-2.33 11.458h4.242v-17.313c-.405.175-2.216 1.03-3.448 2.96z"
                 fill="#ff5b45"
                 id="path178" />
              <path
                 d="M482.472 239.236c1.232-1.93 3.042-2.785 3.448-2.96v-.086l-5.71-3.405c-2.092.715-4.03 1.808-5.758 3.203l6.87 6.718c.116-1.425.57-2.562 1.15-3.47z"
                 fill="#69e2de"
                 id="path180" />
              <path
                 d="M466.364 253.592h15.313l-7.225-17.603c-4.9 3.957-8.088 10.365-8.088 17.602z"
                 fill="#002738"
                 id="path182" />
              <path
                 d="M476.914 211.06c-3.642.648-6.322 5.346-6.322 5.346 0 8.485 6.856 15.362 15.328 15.41v-30.243c-.886 6.044-5.477 8.857-9.006 9.486z"
                 fill="#fff"
                 id="path184" />
              <path
                 d="M476.914 211.06c3.53-.63 8.12-3.444 9.007-9.487v-.578c-8.472.048-15.327 6.926-15.327 15.41 0 .002 2.68-4.696 6.32-5.346z"
                 fill="#ff5b45"
                 id="path186" />
              <path
                 d="M485.92 200.992v.004c.03 0 .058-.004.086-.004h-.085z"
                 fill="#ffa033"
                 id="path188" />
              <path
                 d="M485.92 231.816v.008c.03 0 .058-.003.086-.003-.028 0-.056-.004-.085-.004z"
                 fill="#ffa033"
                 id="path190" />
              <path
                 d="M486.006 236.243l5.797-3.457c-1.832-.627-3.78-.965-5.797-.965-.028 0-.056.004-.085.004v4.367l.086.053z"
                 fill="#dcdcdc"
                 id="path192" />
              <path
                 d="M490.69 242.706c-.115-1.425-.57-2.562-1.15-3.47l-1.535 2.897 2.33 11.458 7.226-17.602-6.87 6.718z"
                 fill="#00bec5"
                 id="path194" />
              <path
                 d="M489.54 239.236c-1.395-2.184-3.534-2.994-3.534-2.994l-.085.035v17.314h4.416l-2.33-11.457 1.535-2.897z"
                 fill="#ef3522"
                 id="path196" />
              <path
                 d="M485.92 236.278l.086-.035-.085-.052v.088z"
                 fill="#ffa033"
                 id="path198" />
              <path
                 d="M489.54 239.236c.58.908 1.035 2.045 1.15 3.47l6.87-6.718c-1.728-1.395-3.667-2.488-5.757-3.203l-5.797 3.457s2.14.81 3.535 2.994z"
                 fill="#00bec5"
                 id="path200" />
              <path
                 d="M497.56 235.988l-7.225 17.603h15.313c0-7.235-3.187-13.643-8.088-17.602z"
                 fill="#002738"
                 id="path202" />
              <path
                 d="M501.42 216.407s-2.678-4.698-6.32-5.347c-3.644-.65-8.43-3.616-9.094-10.068-.02.2-.056.388-.085.582v30.242c.03 0 .058.005.086.005 8.513 0 15.415-6.9 15.415-15.413z"
                 fill="#dcdcdc"
                 id="path204" />
              <path
                 d="M486.006 200.992c-.028 0-.056.004-.085.004v.578c.03-.194.066-.382.086-.582z"
                 fill="#ffa033"
                 id="path206" />
              <path
                 d="M495.1 211.06c3.642.648 6.32 5.346 6.32 5.346 0-8.514-6.9-15.415-15.414-15.415.664 6.454 5.45 9.42 9.093 10.07z"
                 fill="#ef3522"
                 id="path208" />
            </g>
            <path
               d="M491.782 213.19c-2.21 0-4.068 1.51-4.612 3.552-.684-.29-1.34-.397-1.957-.274-.148.03-.284.072-.412.12-.592-1.962-2.415-3.397-4.57-3.397-2.632 0-4.774 2.143-4.774 4.778 0 2.632 2.142 4.775 4.775 4.775 2.53 0 4.6-1.978 4.76-4.47.102-.094.273-.223.53-.275.412-.078.932.07 1.51.416.225 2.423 2.27 4.33 4.752 4.33 2.633 0 4.775-2.144 4.775-4.776 0-2.635-2.142-4.777-4.775-4.777zm-11.55 7.992c-1.773 0-3.215-1.442-3.215-3.215s1.442-3.216 3.214-3.216c1.773 0 3.215 1.444 3.215 3.217 0 1.773-1.442 3.215-3.214 3.215zm11.55 0c-1.774 0-3.215-1.442-3.215-3.215s1.44-3.216 3.215-3.216c1.772 0 3.215 1.444 3.215 3.217 0 1.773-1.443 3.215-3.215 3.215z"
               fill="#ffa033"
               id="path210" />
          </g>
        </g>
        <g
           id="g212">
          <circle
             cx="585.835"
             cy="243.841"
             r="34.731"
             fill="#004860"
             id="circle214" />
          <g
             id="g216">
            <path
               d="M585.52 231.002c-.16-.145-.315-.294-.47-.444.254.248.517.49.785.723v-.004c-.05-.044-.102-.083-.15-.127l-.165-.148z"
               fill="none"
               id="path218" />
            <path
               d="M577.222 233.31c-.048.04-.096.08-.145.117-.23.177-.465.345-.708.504l-.087.056c.525-.34 1.02-.72 1.482-1.138-.175.16-.356.313-.543.46z"
               fill="none"
               id="path220" />
            <path
               d="M580.334 229.515c-.174.336-.36.666-.563.983-.15.235-.313.463-.48.686.175-.232.345-.47.502-.715.196-.308.373-.63.542-.955z"
               fill="none"
               id="path222" />
            <path
               d="M579.13 231.39c-.154.197-.316.39-.484.578l-.045.052c.213-.234.415-.478.608-.73-.026.033-.05.067-.077.1z"
               fill="none"
               id="path224" />
            <path
               d="M578.556 232.07c-.195.21-.398.415-.606.61.208-.196.412-.397.606-.61z"
               fill="none"
               id="path226" />
            <path
               d="M580.398 229.4c.158-.314.294-.64.424-.97-.13.33-.266.657-.424.97z"
               fill="none"
               id="path228" />
            <path
               d="M580.905 228.238c.115-.31.206-.627.295-.947-.09.32-.18.64-.295.948z"
               fill="none"
               id="path230" />
            <path
               d="M581.285 227.015c.104-.417.186-.842.245-1.275-.058.433-.14.858-.245 1.275z"
               fill="none"
               id="path232" />
            <path
               d="M570.545 235.845c.315-.016.624-.05.93-.09-.306.04-.616.074-.93.09z"
               fill="none"
               id="path234" />
            <path
               d="M572.52 235.57c-.264.06-.53.11-.8.15l-.143.022c.332-.047.66-.105.984-.18l-.04.008z"
               fill="none"
               id="path236" />
            <path
               d="M572.64 235.546c.292-.07.58-.153.862-.243-.283.09-.57.172-.862.243z"
               fill="none"
               id="path238" />
            <path
               d="M573.723 235.228l-.17.057c.295-.095.585-.203.868-.32-.228.095-.46.182-.697.263z"
               fill="none"
               id="path240" />
            <path
               d="M575.57 234.41c-.064.036-.125.072-.19.106-.257.136-.522.264-.79.38.554-.24 1.083-.524 1.59-.844-.2.126-.403.245-.61.36z"
               fill="none"
               id="path242" />
            <path
               d="M585.052 230.558c-.03-.03-.062-.057-.09-.087h-.003c-1.382-1.378-2.548-2.97-3.43-4.73-.058.433-.14.858-.244 1.275-.024.094-.06.183-.085.276-.088.32-.18.64-.294.948-.024.066-.058.126-.083.19-.13.33-.266.658-.424.973-.02.04-.045.076-.065.115-.17.326-.346.647-.543.954-.157.245-.327.482-.502.714l-.004.007-.078.102c-.193.25-.395.495-.607.73l-.042.048s0 .002-.002.002c-.195.21-.398.413-.606.61l-.003.003c-.058.054-.12.107-.178.16l-.004.003c-.463.417-.957.798-1.482 1.138-.033.02-.066.04-.098.062l-.008.004c-.505.32-1.035.604-1.59.845h-.002c-.054.024-.11.046-.165.068-.283.118-.573.226-.867.32l-.05.018c-.285.09-.57.174-.863.244h-.006l-.072.016c-.323.074-.652.133-.984.18-.033.003-.066.008-.1.013h-.002c-.307.04-.616.074-.93.09.923 7.63 7.41 13.546 15.29 13.546v-18.11c-.27-.235-.53-.476-.784-.724z"
               fill="#fff"
               id="path244" />
            <path
               d="M585.835 249.45v-.06c-7.88 0-14.367-5.915-15.29-13.545.314-.016.624-.05.93-.09l.103-.014.142-.02c.27-.04.537-.09.8-.15l.043-.01.078-.015c.293-.07.58-.153.863-.243l.05-.017.17-.057c.236-.08.468-.168.698-.264.056-.023.114-.044.17-.068.27-.117.533-.245.79-.38.065-.035.127-.07.19-.106.206-.114.41-.233.608-.36.035-.02.07-.043.105-.065l.086-.055c.24-.16.478-.327.707-.504.05-.038.097-.078.145-.118.187-.148.367-.302.543-.46.062-.056.123-.11.184-.168.207-.196.41-.4.605-.61l.045-.052.045-.052c.168-.188.33-.38.485-.58.026-.03.05-.065.077-.097l.082-.108c.166-.223.33-.45.48-.686.204-.316.39-.646.563-.983.02-.04.044-.074.064-.114.158-.316.294-.642.424-.973.027-.065.06-.126.084-.19.115-.31.206-.628.295-.948.025-.094.06-.183.084-.277.104-.417.186-.842.245-1.275.88 1.76 2.046 3.353 3.427 4.73.03.03.063.057.093.088.153.15.31.3.47.444.053.05.108.098.163.147.05.044.1.084.15.127V216.46c-8.672 0-15.868 6.305-17.266 14.58-.195.28-.528.517-1.084.86-.918.57-2.176 1.35-2.388 3.146-.213 1.797.827 2.848 1.587 3.617.73.74 1 1.077.93 1.695-.075.617-.416.883-1.3 1.43-.917.57-2.174 1.35-2.387 3.144-.212 1.797.828 2.85 1.588 3.617.73.74 1 1.076.927 1.694-.073.617-.414.883-1.297 1.43-.918.57-2.175 1.35-2.388 3.146-.213 1.797.827 2.85 1.587 3.617.73.74 1 1.078.928 1.696-.074.62-.415.885-1.3 1.434-.916.57-2.174 1.352-2.386 3.15-.212 1.796.827 2.848 1.586 3.617.73.74 3.094 2.268 3.02 2.888.003-12.023 8.796-21.77 19.645-21.77z"
               fill="#fcd07a"
               id="path246" />
            <path
               d="M576.284 233.986l-.105.066.007-.004.097-.062z"
               fill="#fcd07a"
               id="path248" />
            <path
               d="M577.947 232.684s0-.002.003-.003c-.06.058-.122.112-.184.168 0 0 .002 0 .003-.002.058-.054.12-.107.177-.162z"
               fill="#fcd07a"
               id="path250" />
            <path
               d="M578.6 232.02c-.014.016-.028.035-.044.052 0 0 0-.002.002-.002l.043-.05z"
               fill="#fcd07a"
               id="path252" />
            <path
               d="M585.052 230.558c-.03-.03-.063-.058-.093-.09v.003l.092.088z"
               fill="#fcd07a"
               id="path254" />
            <path
               d="M574.587 234.897h.002l-.17.067h.002c.055-.022.11-.043.165-.067z"
               fill="#fcd07a"
               id="path256" />
            <path
               d="M579.29 231.184c-.027.036-.055.07-.082.107l.078-.1.004-.006z"
               fill="#fcd07a"
               id="path258" />
            <path
               d="M581.2 227.29c.026-.092.06-.18.085-.275-.024.094-.06.183-.085.276z"
               fill="#fcd07a"
               id="path260" />
            <path
               d="M580.822 228.43c.026-.065.06-.126.083-.19-.025.064-.058.124-.083.19z"
               fill="#fcd07a"
               id="path262" />
            <path
               d="M573.554 235.286c-.017.005-.033.01-.05.017l.05-.017z"
               fill="#fcd07a"
               id="path264" />
            <path
               d="M580.334 229.515c.02-.04.044-.074.064-.114-.02.04-.044.076-.064.115z"
               fill="#fcd07a"
               id="path266" />
            <path
               d="M572.64 235.546l-.078.016.072-.015h.006z"
               fill="#fcd07a"
               id="path268" />
            <path
               d="M571.578 235.74l-.102.015h.003l.098-.014z"
               fill="#fcd07a"
               id="path270" />
            <path
               d="M580.177 259.127c3.125 0 5.66 2.533 5.66 5.66V249.45c-10.85 0-19.643 9.748-19.643 21.77h8.326v-6.435c0-3.127 2.532-5.66 5.657-5.66z"
               fill="#fff"
               id="path272" />
            <path
               d="M580.177 259.127c-3.125 0-5.658 2.533-5.658 5.66v6.435h11.316v-6.436c0-3.126-2.534-5.66-5.66-5.66z"
               fill="#ff5b45"
               id="path274" />
            <path
               d="M592.886 235.093c.24.067.483.13.73.186-.247-.06-.49-.12-.73-.187z"
               fill="#fff"
               id="path276" />
            <path
               d="M586.513 231.845c-.23-.184-.456-.374-.678-.57v.006c.22.194.447.382.678.565z"
               fill="#fff"
               id="path278" />
            <path
               d="M596.232 235.69c-.31-.026-.616-.06-.92-.1-.08-.01-.156-.018-.233-.03.42.064.848.107 1.28.14l-.128-.01z"
               fill="#fff"
               id="path280" />
            <path
               d="M596.563 235.715c.388.024.777.042 1.17.042-.394 0-.783-.018-1.17-.042z"
               fill="#fff"
               id="path282" />
            <path
               d="M593.975 235.362c.355.076.716.142 1.08.196-.365-.055-.724-.12-1.08-.196z"
               fill="#fff"
               id="path284" />
            <path
               d="M588.648 233.302c-.11-.063-.22-.125-.326-.19-.194-.12-.383-.24-.57-.366l-.267-.18c-.297-.205-.585-.42-.87-.64.918.715 1.905 1.344 2.95 1.875-.31-.156-.617-.323-.917-.498z"
               fill="#fff"
               id="path286" />
            <path
               d="M589.575 233.808c.152.076.302.153.457.226-.153-.073-.305-.15-.457-.226z"
               fill="#fff"
               id="path288" />
            <path
               d="M591.52 234.66c-.14-.052-.274-.11-.412-.163-.192-.076-.383-.153-.57-.235.628.273 1.276.514 1.94.715-.322-.097-.643-.202-.958-.318z"
               fill="#fff"
               id="path290" />
            <path
               d="M585.835 249.39c8.028 0 14.617-6.137 15.342-13.977-1.117.217-2.265.344-3.444.344-.393 0-.783-.017-1.17-.042h-.003l-.2-.015c-.43-.033-.86-.076-1.28-.14-.01 0-.017 0-.025-.002-.365-.054-.725-.12-1.08-.196h-.003c-.116-.025-.23-.053-.347-.08-.004 0-.008-.002-.01-.003-.247-.06-.49-.12-.73-.187-.004 0-.008 0-.012-.003-.132-.037-.264-.073-.393-.112h-.002c-.664-.202-1.31-.442-1.94-.716l-.008-.003c-.167-.074-.332-.15-.497-.226-.155-.073-.306-.15-.458-.227l-.007-.004-.004-.002c-1.045-.53-2.032-1.16-2.95-1.875-.034-.027-.067-.054-.102-.08-.23-.183-.457-.37-.678-.564v18.11z"
               fill="#dcdcdc"
               id="path292" />
            <path
               d="M608.498 268.334c.76-.77 1.8-1.82 1.586-3.618-.212-1.797-1.47-2.58-2.387-3.15-.884-.548-1.225-.814-1.3-1.433-.072-.618.198-.957.93-1.696.76-.768 1.8-1.82 1.586-3.617-.213-1.796-1.47-2.576-2.388-3.145-.884-.548-1.224-.814-1.297-1.43-.073-.62.197-.956.927-1.696.76-.77 1.8-1.822 1.588-3.618-.212-1.795-1.47-2.575-2.388-3.144-.883-.548-1.224-.813-1.297-1.43-.072-.617.197-.955.928-1.695.76-.768 1.8-1.82 1.587-3.617-.212-1.796-1.47-2.575-2.387-3.145-.547-.338-.884-.57-1.08-.84-1.39-8.285-8.59-14.6-17.27-14.6v14.817c.22.195.446.385.677.57l.103.08c.284.22.572.434.87.64l.266.18c.188.126.377.247.57.365.107.066.217.128.326.19.3.176.606.342.917.5l.01.006c.153.077.304.153.458.226.167.08.335.154.505.23.188.08.38.158.57.234.14.054.274.11.413.162.316.116.636.22.96.318.134.04.27.078.407.116.24.066.483.128.73.186.12.028.238.058.36.083.356.076.715.142 1.08.196.007 0 .016 0 .023.002l.232.03c.304.04.61.073.92.098l.128.01.204.015c.388.024.777.042 1.17.042 1.18 0 2.328-.127 3.444-.344-.726 7.84-7.314 13.978-15.342 13.978v.06c10.85 0 19.643 9.748 19.643 21.772-.076-.62 2.287-2.148 3.018-2.888z"
               fill="#ffa033"
               id="path294" />
            <path
               d="M586.513 231.845l.103.08c-.035-.026-.07-.053-.103-.08z"
               fill="#fff"
               id="path296" />
            <path
               fill="#fff"
               d="M589.575 233.808l-.01-.006.003.002z"
               id="path298" />
            <path
               d="M592.874 235.09l.012.003c-.136-.038-.272-.074-.408-.116h.002c.13.04.262.076.394.113z"
               fill="#fff"
               id="path300" />
            <path
               d="M590.53 234.26c.002 0 .005 0 .007.002-.17-.074-.34-.15-.505-.23v.002c.166.077.33.152.498.225z"
               fill="#fff"
               id="path302" />
            <path
               d="M593.973 235.362h.002c-.12-.025-.24-.054-.36-.083.004 0 .008 0 .01.002.117.026.23.055.348.08z"
               fill="#fff"
               id="path304" />
            <path
               d="M596.563 235.715l-.204-.015.2.015h.003z"
               fill="#fff"
               id="path306" />
            <path
               d="M595.08 235.56c-.01 0-.017 0-.025-.003l.024.003z"
               fill="#fff"
               id="path308" />
            <path
               d="M585.836 249.45v15.335c0-3.125 2.533-5.66 5.658-5.66 3.125 0 5.66 2.534 5.66 5.66v6.436h8.324c0-12.022-8.795-21.77-19.642-21.77z"
               fill="#dcdcdc"
               id="path310" />
            <path
               d="M591.494 259.127c-3.125 0-5.66 2.533-5.66 5.66v6.435h11.318v-6.436c0-3.126-2.533-5.66-5.658-5.66z"
               fill="#ef3522"
               id="path312" />
          </g>
        </g>
        <g
           id="g314">
          <circle
             cx="577.156"
             cy="334.913"
             r="34.731"
             fill="#004860"
             id="circle316" />
          <g
             id="g318">
            <path
               d="M596.938 308.323c-.13 1.69-1.692 4.422-5.246 4.812-2.384.26-4.754-.633-6.06-1.25-2.55-1.87-5.69-2.983-9.093-2.983-7.77 0-14.18 5.754-15.244 13.23 5.188-.453 9.346-4.467 10.04-9.583 2.823 5.64 8.653 9.515 15.392 9.515 1.715 0 3.366-.263 4.93-.732-.006-.03-.017-.06-.023-.09 8.337-3.094 5.303-12.92 5.303-12.92z"
               fill="#002738"
               id="path320" />
            <path
               d="M576.478 344.35c2.346 0 4.28-1.753 4.573-4.02 1.845.49 3.58 1.28 5.184 2.3v18.873h-9.8v-17.158c.015 0 .03.004.044.004z"
               fill="#00bec5"
               id="path322" />
            <g
               id="g324">
              <path
                 fill="none"
                 d="M569.315 333.08l.005-.003h-.002z"
                 id="path326" />
              <path
                 d="M567.855 334.545l-.01.015.01-.015z"
                 fill="none"
                 id="path328" />
              <path
                 d="M570.1 332.505l-.062.04.06-.04z"
                 fill="none"
                 id="path330" />
              <path
                 d="M568.492 333.833l.117-.116-.118.116z"
                 fill="none"
                 id="path332" />
              <path
                 d="M570.942 332c-.06.033-.12.064-.177.097.058-.034.117-.065.177-.096z"
                 fill="none"
                 id="path334" />
              <path
                 d="M574.61 330.772c-.1.015-.197.03-.294.05.098-.02.196-.035.293-.05z"
                 fill="none"
                 id="path336" />
              <path
                 d="M575.54 330.66c-.095.008-.186.018-.28.028.095-.01.186-.02.28-.028z"
                 fill="none"
                 id="path338" />
              <path
                 d="M573.648 330.964c-.07.016-.143.032-.214.05.07-.018.143-.033.214-.05z"
                 fill="none"
                 id="path340" />
              <path
                 d="M571.746 331.604l-.184.085c.06-.03.122-.058.184-.086z"
                 fill="none"
                 id="path342" />
              <path
                 d="M572.567 331.278l-.025.01c.007-.004.017-.007.025-.01z"
                 fill="none"
                 id="path344" />
              <path
                 d="M567.328 335.287c-.04.06-.08.123-.117.186.038-.063.078-.125.118-.186z"
                 fill="none"
                 id="path346" />
              <path
                 d="M576.522 339.73l-.044.002.044.002v-.004z"
                 fill="none"
                 id="path348" />
              <path
                 d="M556.835 361.503h9.887V342.63c-5.902 3.754-9.887 10.79-9.887 18.873z"
                 fill="#afc01d"
                 id="path350" />
              <path
                 d="M576.478 344.35c-2.348 0-4.28-1.753-4.574-4.02-1.844.49-3.58 1.28-5.18 2.3v18.873h9.8v-17.158c-.017 0-.03.004-.046.004z"
                 fill="#69e2de"
                 id="path352" />
              <path
                 d="M576.478 344.35c.015 0 .03-.006.044-.006v-4.61c-.015 0-.03-.003-.044-.003-1.576 0-3.107.212-4.574.6.294 2.268 2.226 4.02 4.574 4.02z"
                 fill="#fff"
                 id="path354" />
              <path
                 d="M576.522 330.624c-.015 0-.03-.003-.044-.003-.317 0-.63.017-.938.04-.095.008-.186.018-.28.028-.22.023-.437.05-.65.084-.1.015-.197.03-.294.05-.226.04-.448.09-.67.142-.07.016-.142.032-.213.05-.294.078-.584.165-.867.264l-.025.01c-.27.095-.535.202-.795.316l-.184.085c-.21.097-.42.2-.62.31-.06.032-.12.063-.177.096-.227.13-.45.266-.666.41-.02.013-.04.025-.06.04-.25.167-.49.344-.72.53 0 .003-.002.004-.003.004l.003-.003c-4.12-2.187-7.104-6.206-7.9-10.97-.062.008-.12.02-.182.026-.103.715-.173 1.44-.173 2.185 0 4.83 2.234 9.125 5.71 11.95.078.065.153.132.234.194 2.615 2.04 5.896 3.27 9.47 3.27l.045-.002v-2.53c-.014 0-.028.006-.043.006-2.242 0-4.06-1.817-4.06-4.06h4.104v-2.522z"
                 fill="#002738"
                 id="path356" />
              <path
                 d="M569.315 333.08c-.248.2-.482.416-.706.637.223-.22.457-.436.705-.637z"
                 fill="#002738"
                 id="path358" />
              <path
                 d="M567.844 334.56c-.186.233-.355.477-.516.727.16-.25.33-.494.516-.727z"
                 fill="#002738"
                 id="path360" />
              <path
                 d="M567.855 334.545c.198-.247.413-.483.638-.712-.225.228-.44.464-.638.712z"
                 fill="#002738"
                 id="path362" />
              <path
                 d="M566.772 336.27c.13-.274.28-.537.438-.797-.16.26-.308.523-.438.796z"
                 fill="#002738"
                 id="path364" />
              <path
                 d="M569.318 333.077h.002c.23-.187.47-.364.718-.532l.06-.04c.216-.143.44-.28.667-.41l.177-.095c.2-.11.41-.214.62-.31.062-.03.123-.06.185-.086.26-.114.524-.22.796-.317l.025-.01c.284-.098.573-.185.867-.263.07-.018.143-.034.214-.05.22-.054.442-.103.668-.143.097-.017.195-.033.293-.048.216-.034.433-.06.653-.084.093-.01.184-.02.28-.028.308-.023.62-.04.937-.04l.044.002v-11.868c-2.205-1.614-4.014-3.74-5.246-6.205-.687 5.054-4.756 9.027-9.857 9.557.795 4.764 3.78 8.782 7.898 10.97z"
                 fill="#fff"
                 id="path366" />
              <path
                 d="M570.764 332.096c-.228.13-.45.266-.666.41.215-.144.44-.28.666-.41z"
                 fill="#fff"
                 id="path368" />
              <path
                 d="M570.038 332.545c-.25.168-.488.345-.718.532.23-.188.47-.364.718-.532z"
                 fill="#fff"
                 id="path370" />
              <path
                 d="M576.478 330.62c.015 0 .03.004.044.004v-.002h-.044z"
                 fill="#fff"
                 id="path372" />
              <path
                 d="M571.562 331.69c-.212.097-.42.2-.62.31.2-.11.408-.213.62-.31z"
                 fill="#fff"
                 id="path374" />
              <path
                 d="M576.478 330.62c-.317 0-.628.017-.938.04.31-.022.62-.04.938-.04z"
                 fill="#fff"
                 id="path376" />
              <path
                 d="M574.317 330.82c-.226.042-.448.09-.67.144.222-.054.444-.102.67-.143z"
                 fill="#fff"
                 id="path378" />
              <path
                 d="M575.262 330.688c-.22.023-.438.05-.652.084.214-.034.432-.06.652-.084z"
                 fill="#fff"
                 id="path380" />
              <path
                 d="M573.434 331.014c-.294.078-.584.165-.867.264.283-.1.573-.186.867-.264z"
                 fill="#fff"
                 id="path382" />
              <path
                 d="M572.542 331.287c-.27.096-.536.203-.796.317.26-.114.524-.22.796-.317z"
                 fill="#fff"
                 id="path384" />
              <path
                 d="M572.417 333.147c0 2.242 1.818 4.06 4.06 4.06.016 0 .03-.006.045-.006v-4.053h-4.105z"
                 fill="#fff"
                 id="path386" />
              <path
                 d="M577.415 330.66c.095.008.186.018.28.028-.094-.01-.185-.02-.28-.028z"
                 fill="#002738"
                 id="path388" />
              <path
                 d="M584.35 333.72l.11.11-.11-.11z"
                 fill="#002738"
                 id="path390" />
              <path
                 d="M582.867 332.512l.048.03-.048-.03z"
                 fill="#002738"
                 id="path392" />
              <path
                 d="M581.21 331.604l.18.084-.18-.084z"
                 fill="#002738"
                 id="path394" />
              <path
                 d="M582.02 332.002l.168.093c-.056-.032-.112-.063-.17-.093z"
                 fill="#002738"
                 id="path396" />
              <path
                 d="M580.39 331.278l.018.006c-.006 0-.01-.005-.017-.006z"
                 fill="#002738"
                 id="path398" />
              <path
                 d="M585.1 334.546l.006.008-.005-.008z"
                 fill="#002738"
                 id="path400" />
              <path
                 d="M585.628 335.29c.04.06.078.12.116.182-.038-.062-.076-.122-.116-.183z"
                 fill="#002738"
                 id="path402" />
              <path
                 d="M578.347 330.772c.098.015.195.03.293.05-.098-.02-.195-.035-.293-.05z"
                 fill="#002738"
                 id="path404" />
              <path
                 d="M579.308 330.964c.07.016.144.032.214.05-.07-.018-.143-.033-.214-.05z"
                 fill="#002738"
                 id="path406" />
              <path
                 d="M586.234 342.63v18.873h9.885c0-8.084-3.985-15.12-9.886-18.873z"
                 fill="#7ea800"
                 id="path408" />
              <path
                 d="M581.05 340.33c-1.453-.383-2.968-.594-4.528-.596v4.61c2.326-.022 4.238-1.76 4.53-4.013z"
                 fill="#dcdcdc"
                 id="path410" />
              <path
                 d="M591.625 321.524c-.64 5.02-3.703 9.275-7.99 11.552-.23-.187-.47-.366-.72-.535l-.048-.03c-.22-.146-.447-.284-.68-.416-.056-.032-.11-.063-.168-.093-.207-.11-.416-.214-.63-.313-.06-.028-.118-.057-.18-.084-.26-.114-.528-.222-.802-.32-.005 0-.01-.004-.017-.006-.282-.1-.573-.186-.868-.264-.07-.018-.143-.034-.214-.05-.22-.055-.442-.103-.668-.143-.098-.018-.195-.034-.293-.05-.215-.033-.433-.06-.653-.083-.093-.01-.184-.02-.28-.028-.293-.024-.59-.037-.892-.037v2.523h4.016c0 2.227-1.795 4.03-4.016 4.054v2.53c3.556-.012 6.822-1.236 9.427-3.27.078-.062.154-.128.233-.192 3.477-2.826 5.71-7.122 5.71-11.95 0-.956-.1-1.887-.268-2.794z"
                 fill="#002738"
                 id="path412" />
              <path
                 d="M584.35 333.72c-.228-.224-.462-.44-.714-.643.252.204.486.42.714.643z"
                 fill="#002738"
                 id="path414" />
              <path
                 d="M586.183 336.27c-.13-.275-.28-.54-.438-.798.158.258.307.522.438.797z"
                 fill="#002738"
                 id="path416" />
              <path
                 d="M585.106 334.554c.19.236.36.483.522.735-.16-.253-.334-.5-.522-.736z"
                 fill="#002738"
                 id="path418" />
              <path
                 d="M584.46 333.83c.227.23.442.467.64.716-.197-.25-.413-.486-.64-.717z"
                 fill="#002738"
                 id="path420" />
              <path
                 d="M577.415 330.66c.095.008.186.018.28.028.22.023.437.05.652.084.098.015.195.03.293.05.226.04.448.09.668.142.07.016.144.032.214.05.295.078.586.165.87.264.006.002.01.005.016.006.274.098.54.206.803.32l.18.084c.214.1.423.202.63.314l.168.093c.232.132.46.27.68.417l.047.03c.25.17.49.348.72.535 4.287-2.277 7.35-6.534 7.99-11.552-.01-.063-.015-.128-.027-.19-1.564.47-3.215.73-4.93.73-3.796 0-7.302-1.228-10.146-3.31v11.868c.3 0 .6.015.893.037z"
                 fill="#dcdcdc"
                 id="path422" />
              <path
                 d="M583.636 333.077c-.23-.187-.47-.366-.72-.535.25.17.49.347.72.535z"
                 fill="#002738"
                 id="path424" />
              <path
                 d="M582.188 332.095c.232.132.46.27.68.417-.22-.147-.448-.286-.68-.417z"
                 fill="#002738"
                 id="path426" />
              <path
                 d="M577.694 330.688c.22.023.438.05.653.084-.215-.034-.433-.06-.653-.084z"
                 fill="#002738"
                 id="path428" />
              <path
                 d="M578.64 330.82c.226.042.448.09.668.144-.22-.054-.443-.102-.668-.143z"
                 fill="#002738"
                 id="path430" />
              <path
                 d="M576.522 330.622v.002c.3 0 .6.014.893.036-.294-.022-.592-.036-.893-.038z"
                 fill="#002738"
                 id="path432" />
              <path
                 d="M579.522 331.014c.295.078.586.165.87.264-.284-.1-.576-.186-.87-.264z"
                 fill="#002738"
                 id="path434" />
              <path
                 d="M581.39 331.688c.214.1.423.202.63.314-.207-.112-.416-.215-.63-.314z"
                 fill="#002738"
                 id="path436" />
              <path
                 d="M580.408 331.284c.274.098.54.206.803.32-.26-.114-.528-.222-.802-.32z"
                 fill="#002738"
                 id="path438" />
              <path
                 d="M580.538 333.147h-4.016v4.054c2.22-.023 4.016-1.826 4.016-4.053z"
                 fill="#dcdcdc"
                 id="path440" />
            </g>
          </g>
        </g>
        <g
           id="g442">
          <circle
             cx="474.453"
             cy="316.041"
             r="34.731"
             fill="#004860"
             id="circle444" />
          <g
             id="g446">
            <path
               fill="none"
               d="M474.453 320.57z"
               id="path448" />
            <path
               d="M474.452 329.468c-4.152 0-7.63-2.85-8.61-6.697-6.533 3.537-11.03 10.97-11.03 19.57h19.64V329.47z"
               fill="#ff5b45"
               id="path450" />
            <path
               d="M474.452 329.468v-8.898c-3.09 0-6.01.792-8.61 2.202.98 3.846 4.458 6.696 8.61 6.696z"
               fill="#fff"
               id="path452" />
            <path
               d="M474.453 297c-1.69 4.3-6.095 7.375-11.278 7.375-1.428 0-2.793-.246-4.064-.672-.043.48-.072.962-.072 1.453 0 8.513 6.902 15.414 15.414 15.414V297z"
               fill="#fff"
               id="path454" />
            <path
               d="M474.452 297v-7.26c-8.022 0-14.608 6.132-15.34 13.963 1.27.427 2.635.672 4.063.672 5.182 0 9.587-3.075 11.277-7.375z"
               fill="#fcd07a"
               id="path456" />
            <path
               d="M483.065 322.772c-.982 3.847-4.46 6.697-8.612 6.697v12.872h19.642c0-8.602-4.5-16.034-11.03-19.57z"
               fill="#ef3522"
               id="path458" />
            <path
               d="M483.065 322.772c-2.6-1.41-5.523-2.202-8.612-2.202v8.898c4.153 0 7.63-2.85 8.612-6.696z"
               fill="#dcdcdc"
               id="path460" />
            <path
               d="M474.453 297v23.57c8.512 0 15.413-6.9 15.413-15.414 0-.49-.03-.974-.073-1.453-1.27.427-2.636.672-4.065.672-5.18 0-9.584-3.074-11.275-7.374z"
               fill="#dcdcdc"
               id="path462" />
            <path
               d="M485.73 304.375c1.428 0 2.792-.246 4.064-.672-.734-7.83-7.32-13.962-15.34-13.962V297c1.69 4.3 6.093 7.375 11.275 7.375z"
               fill="#ffa033"
               id="path464" />
          </g>
        </g>
        <g
           id="g466">
          <circle
             cx="532.474"
             cy="417.688"
             r="34.731"
             fill="#004860"
             id="circle468" />
          <g
             id="g470">
            <path
               d="M532.474 422.108c-1.97 0-3.87.33-5.658.942l5.658 3.375v-4.317z"
               fill="#fff"
               id="path472" />
            <path
               d="M529.025 429.347c-.565.886-1.01 1.996-1.12 3.387l-6.708-6.557c-4.784 3.865-7.896 10.12-7.896 17.182h19.174v-16.934c-.008.002-2.09.794-3.45 2.92z"
               fill="#afc01d"
               id="path474" />
            <path
               d="M529.025 429.347c1.36-2.127 3.44-2.92 3.45-2.922l-5.66-3.375c-2.038.698-3.93 1.764-5.618 3.126l6.707 6.557c.11-1.39.555-2.5 1.12-3.386z"
               fill="#7ea800"
               id="path476" />
            <path
               d="M528.04 406.06l-.12-7.02-1.085 7.02h-3.43l.698-7.02-1.777 7.02h-4.848c-.022.334-.05.664-.05 1.002 0 8.31 6.736 15.046 15.045 15.046V406.06h-4.434z"
               fill="#fff"
               id="path478" />
            <path
               d="M524.104 399.04l-.698 7.02h3.43l1.085-7.02.12 7.02h4.435v-14.044c-7.972 0-14.478 6.204-14.995 14.045h4.848l1.776-7.02z"
               fill="#002738"
               id="path480" />
            <path
               fill="#00bec5"
               d="M532.474 422.108z"
               id="path482" />
            <path
               d="M532.475 426.425l5.657-3.375c-1.79-.612-3.69-.942-5.657-.942v4.317z"
               fill="#dcdcdc"
               id="path484" />
            <path
               d="M543.753 426.177l-6.706 6.557c-.112-1.39-.557-2.5-1.122-3.387-1.362-2.132-3.45-2.922-3.45-2.922v16.933h19.174c-.003-7.062-3.114-13.316-7.897-17.18z"
               fill="#7ea800"
               id="path486" />
            <path
               fill="#00bec5"
               d="M532.474 426.425z"
               id="path488" />
            <path
               d="M535.924 429.347c.565.886 1.01 1.996 1.122 3.387l6.706-6.557c-1.686-1.362-3.58-2.428-5.62-3.126l-5.657 3.376s2.088.79 3.45 2.92z"
               fill="#afc01d"
               id="path490" />
            <path
               d="M547.52 407.062c0-.338-.027-.668-.05-1h-3.857l-1.734-7.023.57 7.02h-2.984l-.76-7.046.167 7.047h-2.96l-.7-7.02-.317 7.02h-2.424v16.048c8.31 0 15.05-6.736 15.05-15.046z"
               fill="#dcdcdc"
               id="path492" />
            <path
               d="M534.898 406.06l.317-7.02.7 7.02h2.96l-.168-7.046.76 7.047h2.986l-.572-7.02 1.735 7.02h3.858c-.52-7.84-7.025-14.044-14.996-14.044v14.045h2.42z"
               fill="#002738"
               id="path494" />
          </g>
        </g>
        <path
           fill="#69e2de"
           d="M308.432 555.045l-61.407 65.538h54.75l31.952-53.894z"
           id="path496" />
      </g>
    </g>
  </g>
</svg>
