<svg xmlns="http://www.w3.org/2000/svg" xmlns:xlink="http://www.w3.org/1999/xlink" preserveAspectRatio="xMinYMin meet" viewBox="0 0 124.61999 124.90699" enable-background="new 0 0 595.28 841.89"><title>Disparador exploracion</title><defs><clipPath><path d="M103.533 219.087H473.32v369.788H103.534z"/></clipPath><clipPath><path d="M103.533 219.087H473.32v369.788H103.534z"/></clipPath><clipPath><path d="M103.533 219.087H473.32v369.788H103.534z"/></clipPath><clipPath><circle r="45.061" cy="370.696" cx="322.602"/></clipPath><clipPath><circle r="45.061" cy="370.696" cx="322.602"/></clipPath><clipPath id="b"><use height="100%" width="100%" xlink:href="#a" overflow="visible"/></clipPath></defs><g><g transform="matrix(.173 0 0 .12 -15.263 1.629)"><defs><path id="a" d="M205.642 157.786H650.85v445.207H205.64z"/></defs><clipPath><use height="100%" width="100%" xlink:href="#a" overflow="visible"/></clipPath><g clip-path="url(#b)"><g><path d="M511.678 541.873c-4.653 0-9.434-.225-14.346-.675-21.51-1.97-38.176-10.816-50.95-27.044-10.616-13.49-16.466-29.42-21.628-43.476-4.4-11.983-8.557-23.303-13.72-26.236-5.247-2.98-9.953-3.72-14.387-2.263-9.674 3.18-15.445 15.62-15.5 15.745-1.625 3.65-5.9 5.292-9.552 3.666-3.65-1.625-5.29-5.9-3.666-9.55.33-.75 8.344-18.395 24.197-23.608 8.414-2.765 17.18-1.613 26.052 3.427 9.772 5.55 14.584 18.655 20.156 33.83 4.79 13.044 10.22 27.83 19.416 39.513 10.182 12.937 23.56 19.996 40.9 21.584 29.52 2.704 53.452-3.587 71.14-18.698 13.956-11.92 24.25-29.39 30.594-51.92 5.236-18.59 6.35-35.58 6.886-43.746l.02-.317c.41-6.218-.075-17.693-2.103-28.194-2.51-13.005-6.39-19.23-9.185-20.718-3.525-1.88-4.86-6.26-2.98-9.787 1.878-3.527 6.26-4.862 9.786-2.982 7.877 4.198 13.457 14.542 16.585 30.743 2.283 11.823 2.818 24.533 2.335 31.886l-.02.316c-.568 8.656-1.75 26.67-7.397 46.722-7.135 25.333-18.952 45.183-35.123 58.998-17.726 15.143-40.39 22.78-67.512 22.78z" fill="#69e2de"/></g><g><path d="M510.672 479.69c-8.56 0-17.66-1.752-27.177-5.24-7.124-2.614-15.163-9.384-25.34-17.958-21.906-18.452-49.17-41.414-73.074-27.22-3.433 2.04-7.872.908-9.912-2.528-2.04-3.436-.908-7.875 2.527-9.915 14.59-8.664 31.306-8.596 49.677.2 14.823 7.098 28.84 18.906 40.105 28.395 8.366 7.047 16.27 13.703 21 15.44 28.945 10.61 43.31-1 47.022-4.812 4.254-4.367 5.095-8.515 4.6-9.765-1.475-3.716.343-7.92 4.057-9.393 3.716-1.472 7.92.345 9.392 4.06 2.962 7.472-.055 17.362-7.687 25.195-4.372 4.49-12.195 10.318-24.63 12.6-3.418.625-6.94.938-10.558.938z" fill="#fff"/></g><g><path d="M364.853 418.305c-.76 0-1.533-.12-2.293-.375-3.79-1.266-5.836-5.364-4.57-9.154 6.91-20.692 42.35-26.852 79.87-33.372 28.437-4.943 63.83-11.094 69.18-23.5 1.6-3.708.292-8.79-3.883-15.102-7.578-11.456-20.947-16.052-33.877-20.497-13.59-4.672-27.645-9.504-32.822-22.838-2.424-6.245-2.4-12.396.066-17.79 4.446-9.716 15.338-14.537 23.144-17.318 9.873-3.52 35.225-6.63 60.28-7.396 40.087-1.227 58.004 3.577 65.98 7.823 3.526 1.877 4.863 6.258 2.986 9.786-1.877 3.527-6.258 4.865-9.786 2.986-8.82-4.697-30.78-6.988-58.736-6.133-25.646.785-48.546 3.953-55.868 6.56-8.245 2.938-13.24 6.205-14.843 9.71-.525 1.152-1.072 3.084.267 6.532 2.745 7.07 12.612 10.462 24.037 14.39 14.507 4.987 30.95 10.64 41.242 26.2 7.04 10.642 8.756 20.336 5.102 28.81-8.45 19.593-43.2 25.633-79.99 32.027-16.665 2.897-33.896 5.89-46.995 10.054-8.712 2.77-19.535 7.386-21.627 13.647-1.013 3.03-3.835 4.947-6.862 4.947z" fill="#ffa033"/></g><g><path d="M314.76 376.567c-3.632 0-6.762-2.728-7.18-6.423-.375-3.317 1.555-6.363 4.516-7.537 1.643-4.34.798-19.432-2.934-26.728-3.397-6.644-9.814-11.604-16.606-16.856-4.485-3.467-9.122-7.053-13.138-11.333-16.382-17.463-21.183-50.603-2.218-72.1 12.798-14.507 30.165-17.87 42.48-18.137 13.532-.294 27.797 3.077 37.234 8.796 3.417 2.07 4.51 6.52 2.438 9.935-2.07 3.418-6.52 4.51-9.936 2.438-5.823-3.53-17.185-6.98-29.422-6.705-9.423.203-22.613 2.667-31.943 13.243-10.875 12.33-12.762 36.977 1.92 52.63 3.227 3.44 7.215 6.52 11.437 9.786 7.752 5.993 15.768 12.19 20.638 21.71 4.682 9.155 7.87 30.785 2.51 40.767-2.71 5.048-6.786 6.217-8.973 6.465-.274.032-.55.047-.82.047z" fill="#afc01d"/></g><g><path d="M333.72 391.728c-1.093 0-2.203-.25-3.247-.775-3.57-1.797-5.005-6.147-3.208-9.715.61-1.21 1.275-2.545 1.997-3.992 7.97-15.97 22.8-45.7 42.874-71.157 40.874-51.84 77.695-69.914 91.63-75.278 3.73-1.435 7.915.423 9.35 4.152 1.436 3.73-.423 7.916-4.152 9.35-12.82 4.937-46.81 21.708-85.465 70.733-19.154 24.288-33.554 53.15-41.29 68.657-.73 1.465-1.405 2.816-2.02 4.04-1.274 2.526-3.823 3.983-6.47 3.983z" fill="#002738"/></g><g><path d="M325.896 432.773c-.906 0-1.826-.172-2.717-.533-3.704-1.502-5.488-5.722-3.986-9.424 15.712-38.73 44.246-63.465 65.416-77.396 25.91-17.05 55.446-27.25 79.007-27.286h.01c3.99 0 7.23 3.232 7.235 7.224.006 3.996-3.228 7.24-7.224 7.245-20.854.032-47.425 9.342-71.074 24.904-19.454 12.8-45.65 35.467-59.962 70.748-1.14 2.813-3.848 4.518-6.706 4.518z" fill="#ff5b45"/></g><g><path d="M349.34 505.873c12.168 4.276 18.565 17.61 14.288 29.778l-5.422 15.426c-4.277 12.168-17.61 18.565-29.78 14.287l-7.833-2.752c-12.168-4.28-17.74-10.326-18.69-31.98-.22-5.025-.084-16.525-.084-16.525 4.275-12.168 27.517-15.26 39.685-10.983l7.834 2.753z" fill="#69e2de"/><g><path d="M306.248 492.74s34.68 37.98 75.14 36.054" fill="#fff"/><path d="M389.643 537.053c-1.983 1.983-4.68 3.26-7.7 3.404-45.415 2.164-82.75-38.13-84.317-39.846-4.347-4.76-3.99-12.166.75-16.495 4.76-4.345 12.138-4.012 16.488.74.528.57 31.724 33.906 65.97 32.275 6.44-.308 11.91 4.666 12.218 11.106.163 3.425-1.165 6.573-3.41 8.817z" fill="#ef3522"/></g><path d="M341.02 485.49c2.432 2.433 2.432 6.374 0 8.807l-16.88 16.88c-2.432 2.433-6.376 2.433-8.81 0-2.43-2.43-2.43-6.375 0-8.807l16.882-16.88c2.433-2.432 6.376-2.432 8.808 0z" fill="#00bec5"/><path d="M367.443 511.913c2.432 2.433 2.432 6.375 0 8.807l-16.88 16.88c-2.433 2.43-6.377 2.43-8.808 0-2.432-2.43-2.432-6.375 0-8.807l16.88-16.88c2.432-2.432 6.376-2.432 8.808 0z" fill="#00bec5"/><path d="M352.58 491.546c2.433 2.43 2.433 6.375 0 8.806l-23.486 23.488c-2.432 2.43-6.375 2.43-8.807 0-2.432-2.434-2.432-6.376 0-8.808l23.486-23.485c2.43-2.434 6.375-2.434 8.808 0z" fill="#00bec5"/><path d="M361.388 500.352c2.43 2.433 2.43 6.375 0 8.807L337.9 532.645c-2.43 2.43-6.374 2.43-8.806 0-2.432-2.433-2.432-6.377 0-8.807l23.487-23.49c2.434-2.43 6.377-2.43 8.81 0z" fill="#00bec5"/><path d="M338 507.717c.67 3.373-1.522 6.652-4.894 7.323l-23.415 4.655c-3.373.67-6.65-1.522-7.32-4.894-.67-3.37 1.52-6.65 4.892-7.32l23.415-4.656c3.376-.67 6.654 1.522 7.324 4.894z" fill="#69e2de"/><g><path d="M238.817 486.776c-5.878 5.878-2.06 19.226 8.532 29.816l10.64-10.643-19.174-19.175z" fill="#fff"/><path d="M268.634 495.308l33.762-33.762-19.175-19.173-4.22-4.22-44.403 44.402 4.22 4.222c5.88-5.88 19.228-2.06 29.818 8.53z" fill="#ff5b45"/><path d="M268.634 495.308c-10.59-10.59-23.938-14.41-29.817-8.53l19.174 19.17 10.645-10.64z" fill="#ff5b45"/><path d="M363.498 400.443l-47.798-47.8c-2.13-2.128-5.58-2.127-7.707 0-2.128 2.13-2.128 5.58 0 7.707l1.926 1.927-26.7 80.094 19.175 19.175 61.102-61.1z" fill="#fff"/><path d="M277.165 525.124l-19.174-19.176-10.64 10.643c10.59 10.594 23.94 14.413 29.816 8.535z" fill="#dcdcdc"/><path d="M268.634 495.308c10.59 10.59 14.41 23.94 8.53 29.817l4.222 4.22 44.405-44.403-4.22-4.22-19.172-19.175-33.763 33.76z" fill="#ef3522"/><path d="M268.634 495.308l-10.643 10.64 19.176 19.177c5.88-5.88 2.06-19.228-8.53-29.817z" fill="#ef3522"/><path d="M321.57 480.72l80.094-26.698 1.927 1.926c2.13 2.13 5.58 2.128 7.708 0 2.128-2.127 2.13-5.578 0-7.706L363.5 400.444l-61.103 61.102 19.173 19.174z" fill="#dcdcdc"/></g></g><g><circle cx="386.614" cy="238.848" r="34.731" fill="#004860"/><g><g><path d="M371.237 226.51v.727c.013-.242.015-.487.037-.727h-.037z" fill="#afc01d"/><path d="M401.992 228.687c-.01.24-.015.485-.036.724v28.624h.036v-29.346z" fill="#afc01d"/><path d="M386.613 247.994l-3.987-4.153c1.288-.294 2.62-.462 3.988-.462-8.268 0-14.996-6.515-15.378-14.69v29.347h15.378v-10.04z" fill="#afc01d"/><path d="M401.992 226.51h-.036c.022.24.024.484.036.727v-.727z" fill="#afc01d"/><path d="M371.2 227.962c0 .245.026.483.037.725v-1.45c-.013.242-.037.48-.037.725z" fill="#fff"/><path d="M402.03 227.962c0-.246-.025-.484-.038-.726v1.45c.01-.24.037-.48.037-.724z" fill="#fff"/><path d="M401.992 228.687v-1.45c-.012-.243-.015-.488-.036-.728v2.9c.02-.24.024-.483.036-.724z" fill="#fff"/><path d="M379.41 226.51c-1.273.43-2.64.672-4.073.672-1.428 0-2.792-.245-4.063-.672-.022.24-.024.484-.037.727v1.45c.382 8.175 7.11 14.69 15.378 14.69v-23.57c-1.224 3.112-3.873 5.575-7.206 6.703z" fill="#fff"/><path d="M371.274 226.51c1.27.427 2.635.672 4.063.672 1.432 0 2.8-.24 4.072-.672 3.33-1.127 5.98-3.59 7.204-6.704v-7.258c-8.023 0-14.61 6.13-15.34 13.962z" fill="#afc01d"/><path d="M386.613 247.994v-4.617c-1.367 0-2.7.17-3.987.464l3.987 4.155z" fill="#fff"/><path d="M386.615 258.033h15.34v7.114h-15.34z" fill="#002738"/><path d="M397.89 227.182c-1.43 0-2.8-.24-4.07-.672-3.334-1.127-5.983-3.59-7.206-6.704v23.57c8.023 0 14.61-6.13 15.34-13.964v-2.902c-1.27.427-2.634.672-4.063.672z" fill="#dcdcdc"/><g fill="#7ea800"><path d="M386.615 243.377c1.368 0 2.7.17 3.987.464l-3.986 4.155v10.04h15.34V229.41c-.73 7.834-7.318 13.967-15.34 13.967z"/><path d="M393.82 226.51c1.27.43 2.64.672 4.07.672 1.43 0 2.793-.245 4.065-.672-.733-7.83-7.318-13.962-15.34-13.962v7.258c1.222 3.113 3.87 5.576 7.204 6.704z"/></g><path d="M386.616 247.994l3.986-4.153c-1.287-.294-2.62-.462-3.987-.462v4.617z" fill="#dcdcdc"/></g><g><g><path d="M386.616 247.994h-.002v.04c0-.022.002-.04.002-.04z" fill="#00bec5"/><path d="M395.41 245.7c-.1 1.283-.79 5.256-4.873 5.936-3.807.634-3.925-3.05-3.923-3.576.002.526-.116 4.21-3.923 3.576-4.082-.68-4.77-4.654-4.873-5.936-6.427 3.577-10.844 10.933-10.844 19.447h39.283c0-8.514-4.417-15.87-10.844-19.447z" fill="#002738"/><path d="M386.613 247.994l-3.987-4.153c-.196.047-.393.087-.586.138-1.483.392-2.893.982-4.224 1.723.102 1.284.79 5.257 4.875 5.937 3.808.634 3.927-3.05 3.925-3.576v-.066z" fill="#69e2de"/><path d="M391.188 243.977c-.193-.05-.39-.09-.586-.136l-3.986 4.155v.066c-.003.527.115 4.21 3.922 3.577 4.084-.68 4.772-4.654 4.874-5.936-1.33-.74-2.74-1.33-4.224-1.722z" fill="#00bec5"/><path d="M386.615 248.033v.027-.027z" fill="#dcdcdc"/></g><circle cx="386.614" cy="253.652" r=".843" fill="#69e2de"/><circle cx="386.614" cy="257.19" r=".843" fill="#69e2de"/><circle cx="386.614" cy="260.728" r=".843" fill="#69e2de"/></g></g></g><g><circle cx="486.007" cy="227.291" r="34.731" fill="#004860"/><g><g><path d="M482.472 239.236c-.58.908-1.035 2.045-1.15 3.47l-6.87-6.718 7.225 17.603 2.33-11.456-1.535-2.897z" fill="#69e2de"/><path d="M485.92 231.824c-1.986.01-3.903.345-5.71.962l5.71 3.405v-4.365z" fill="#fff"/><path d="M482.472 239.236l1.536 2.897-2.33 11.458h4.242V236.28c-.405.175-2.216 1.03-3.448 2.96z" fill="#ff5b45"/><path d="M482.472 239.236c1.232-1.93 3.042-2.785 3.448-2.96v-.086l-5.71-3.405c-2.092.715-4.03 1.808-5.758 3.203l6.87 6.718c.116-1.425.57-2.562 1.15-3.47z" fill="#69e2de"/><path d="M466.364 253.592h15.313l-7.225-17.603c-4.9 3.956-8.088 10.364-8.088 17.6z" fill="#002738"/><path d="M476.914 211.06c-3.642.648-6.322 5.346-6.322 5.346 0 8.485 6.856 15.362 15.328 15.41v-30.243c-.886 6.044-5.477 8.857-9.006 9.486z" fill="#fff"/><path d="M476.914 211.06c3.53-.63 8.12-3.444 9.007-9.487v-.578c-8.47.048-15.326 6.926-15.326 15.41 0 .002 2.68-4.696 6.32-5.346z" fill="#ff5b45"/><path d="M485.92 200.992v.004c.03 0 .058-.004.086-.004h-.085z" fill="#ffa033"/><path d="M485.92 231.816v.008c.03 0 .058-.003.086-.003-.028 0-.056-.003-.085-.003z" fill="#ffa033"/><path d="M486.006 236.243l5.797-3.457c-1.832-.627-3.78-.965-5.797-.965-.028 0-.056.005-.085.005v4.367l.087.053z" fill="#dcdcdc"/><path d="M490.69 242.706c-.115-1.425-.57-2.562-1.15-3.47l-1.535 2.897 2.33 11.458 7.226-17.6-6.87 6.717z" fill="#00bec5"/><path d="M489.54 239.236c-1.395-2.184-3.534-2.994-3.534-2.994l-.085.035v17.314h4.417l-2.33-11.456 1.535-2.897z" fill="#ef3522"/><path d="M485.92 236.278l.086-.035-.085-.052v.09z" fill="#ffa033"/><path d="M489.54 239.236c.58.908 1.035 2.045 1.15 3.47l6.87-6.718c-1.728-1.395-3.667-2.488-5.757-3.203l-5.797 3.457s2.14.81 3.535 2.994z" fill="#00bec5"/><path d="M497.56 235.988l-7.225 17.603h15.313c0-7.234-3.187-13.642-8.088-17.6z" fill="#002738"/><path d="M501.42 216.407s-2.678-4.698-6.32-5.347c-3.644-.65-8.43-3.616-9.094-10.068-.02.2-.056.388-.085.582v30.242c.03 0 .06.005.087.005 8.513 0 15.415-6.9 15.415-15.412z" fill="#dcdcdc"/><path d="M486.006 200.992c-.028 0-.056.004-.085.004v.578c.03-.194.067-.382.087-.582z" fill="#ffa033"/><path d="M495.1 211.06c3.642.648 6.32 5.346 6.32 5.346 0-8.514-6.9-15.415-15.414-15.415.664 6.455 5.45 9.42 9.093 10.07z" fill="#ef3522"/></g><path d="M491.782 213.19c-2.21 0-4.068 1.51-4.612 3.552-.684-.29-1.34-.397-1.957-.274-.148.03-.284.072-.412.12-.59-1.962-2.414-3.397-4.57-3.397-2.63 0-4.773 2.144-4.773 4.78 0 2.63 2.142 4.774 4.775 4.774 2.53 0 4.6-1.978 4.76-4.47.102-.094.273-.223.53-.275.412-.08.932.07 1.51.415.225 2.423 2.27 4.33 4.752 4.33 2.633 0 4.775-2.144 4.775-4.776 0-2.636-2.143-4.778-4.776-4.778zm-11.55 7.992c-1.773 0-3.215-1.442-3.215-3.215s1.442-3.216 3.214-3.216c1.774 0 3.216 1.445 3.216 3.218s-1.442 3.215-3.214 3.215zm11.55 0c-1.774 0-3.215-1.442-3.215-3.215s1.44-3.216 3.215-3.216c1.772 0 3.215 1.445 3.215 3.218s-1.443 3.215-3.215 3.215z" fill="#ffa033"/></g></g><g><circle cx="585.835" cy="243.841" r="34.731" fill="#004860"/><g><path d="M585.52 231.002c-.16-.145-.315-.294-.47-.444.254.248.517.49.785.723v-.003c-.05-.044-.102-.083-.15-.127l-.165-.148z" fill="none"/><path d="M577.222 233.31c-.048.04-.096.08-.145.117-.23.177-.465.345-.708.504l-.088.057c.525-.34 1.02-.72 1.482-1.138-.175.16-.356.312-.543.46z" fill="none"/><path d="M580.334 229.515c-.174.336-.36.666-.563.983-.15.235-.312.463-.48.686.176-.232.346-.47.503-.715.196-.31.373-.63.542-.956z" fill="none"/><path d="M579.13 231.39c-.154.197-.316.39-.484.578l-.045.052c.214-.234.416-.478.61-.73-.027.033-.05.067-.078.1z" fill="none"/><path d="M578.556 232.07c-.195.21-.398.415-.606.61.208-.196.412-.397.606-.61z" fill="none"/><path d="M580.398 229.4c.158-.314.294-.64.424-.97-.13.33-.266.657-.424.97z" fill="none"/><path d="M580.905 228.238c.115-.31.206-.627.295-.947-.09.32-.18.64-.295.95z" fill="none"/><path d="M581.285 227.015c.104-.417.186-.842.245-1.275-.058.433-.14.858-.245 1.275z" fill="none"/><path d="M570.545 235.845c.315-.016.624-.05.93-.09-.306.04-.616.074-.93.09z" fill="none"/><path d="M572.52 235.57c-.264.06-.53.11-.8.15l-.143.022c.332-.047.66-.105.984-.18l-.04.008z" fill="none"/><path d="M572.64 235.546c.292-.07.58-.153.862-.243-.283.09-.57.172-.862.243z" fill="none"/><path d="M573.723 235.228l-.17.057c.295-.095.585-.203.868-.32-.227.095-.46.182-.696.263z" fill="none"/><path d="M575.57 234.41c-.064.036-.125.072-.19.106-.257.136-.522.264-.79.38.554-.24 1.083-.524 1.59-.844-.2.126-.403.245-.61.36z" fill="none"/><path d="M585.052 230.558c-.03-.03-.062-.057-.09-.087h-.003c-1.383-1.377-2.55-2.97-3.43-4.73-.06.434-.14.86-.245 1.276-.024.094-.06.183-.085.276-.088.32-.18.64-.294.948-.024.066-.058.126-.083.19-.13.33-.266.658-.424.973-.02.04-.046.076-.066.115-.17.326-.346.647-.543.954-.156.245-.326.482-.5.714l-.005.007-.078.102c-.193.25-.395.495-.607.73l-.042.048s0 .002-.002.002c-.195.21-.398.413-.606.61l-.003.003c-.058.054-.12.107-.178.16l-.005.003c-.463.418-.957.8-1.482 1.14l-.098.06-.008.005c-.505.32-1.035.604-1.59.845h-.002c-.054.024-.11.046-.165.068-.283.118-.573.226-.867.32l-.05.018c-.285.09-.57.174-.863.244h-.006l-.072.016c-.323.074-.652.133-.984.18-.033.003-.066.008-.1.013h-.002c-.307.04-.616.073-.93.09.923 7.63 7.41 13.545 15.29 13.545v-18.11c-.27-.235-.53-.476-.784-.724z" fill="#fff"/><path d="M585.835 249.45v-.06c-7.88 0-14.367-5.915-15.29-13.545.314-.016.624-.05.93-.09l.103-.014.142-.02c.27-.04.537-.09.8-.15l.043-.01.078-.014c.294-.07.58-.153.864-.243l.05-.017.17-.057c.236-.08.468-.17.698-.265.056-.023.114-.044.17-.068.27-.117.533-.245.79-.38.065-.035.127-.07.19-.106.206-.113.41-.232.608-.36.035-.02.07-.042.105-.064l.086-.055c.24-.16.48-.326.708-.503.05-.038.097-.078.145-.118.187-.15.367-.303.543-.46.062-.057.123-.11.184-.17.207-.195.41-.4.605-.61l.045-.05.045-.053c.168-.188.33-.38.485-.58.026-.03.05-.065.077-.097l.082-.108c.165-.223.33-.45.48-.686.203-.316.39-.646.562-.983.02-.04.044-.074.064-.114.158-.317.294-.643.424-.974.027-.065.06-.126.084-.19.115-.31.206-.628.295-.948.024-.094.06-.183.083-.277.104-.416.186-.84.245-1.274.88 1.76 2.046 3.353 3.427 4.73.03.03.063.057.093.088.153.15.31.3.47.444.053.05.108.098.163.147.05.044.1.084.15.127V216.46c-8.67 0-15.867 6.305-17.265 14.58-.195.28-.528.517-1.084.86-.917.57-2.175 1.35-2.387 3.146-.213 1.797.827 2.848 1.587 3.617.73.74 1 1.077.93 1.695-.075.617-.416.883-1.3 1.43-.917.57-2.174 1.35-2.387 3.144-.212 1.797.828 2.85 1.588 3.617.73.74 1 1.075.928 1.693-.073.617-.414.883-1.297 1.43-.917.57-2.174 1.35-2.387 3.146-.213 1.796.827 2.85 1.587 3.616.73.74 1 1.078.928 1.696-.074.62-.415.885-1.3 1.434-.916.57-2.174 1.352-2.386 3.15-.212 1.796.827 2.848 1.586 3.617.73.74 3.094 2.268 3.02 2.888.003-12.022 8.796-21.77 19.645-21.77z" fill="#fcd07a"/><path d="M576.284 233.986l-.105.066.006-.004.097-.062z" fill="#fcd07a"/><path d="M577.947 232.684s0-.002.003-.003c-.06.06-.122.113-.184.17 0 0 .002 0 .003-.003.057-.054.12-.107.176-.162z" fill="#fcd07a"/><path d="M578.6 232.02c-.014.016-.028.035-.044.052 0 0 0-.002.002-.002l.043-.05z" fill="#fcd07a"/><path d="M585.052 230.558c-.03-.03-.063-.058-.093-.09v.003l.09.09z" fill="#fcd07a"/><path d="M574.587 234.897h.002l-.17.067c.056-.022.11-.043.166-.067z" fill="#fcd07a"/><path d="M579.29 231.184c-.027.036-.055.07-.082.107l.078-.1.004-.005z" fill="#fcd07a"/><path d="M581.2 227.29c.026-.092.06-.18.085-.275-.024.094-.06.183-.085.276z" fill="#fcd07a"/><path d="M580.822 228.43c.026-.065.06-.126.083-.19-.025.064-.058.124-.083.19z" fill="#fcd07a"/><path d="M573.554 235.286c-.017.005-.033.01-.05.017l.05-.017z" fill="#fcd07a"/><path d="M580.334 229.515c.02-.04.044-.074.064-.114-.02.04-.044.077-.064.116z" fill="#fcd07a"/><path d="M572.64 235.546l-.078.016.072-.015h.006z" fill="#fcd07a"/><path d="M571.578 235.74l-.102.015h.003l.097-.014z" fill="#fcd07a"/><path d="M580.177 259.127c3.125 0 5.66 2.533 5.66 5.66V249.45c-10.85 0-19.643 9.748-19.643 21.77h8.326v-6.435c0-3.127 2.532-5.66 5.657-5.66z" fill="#fff"/><path d="M580.177 259.127c-3.125 0-5.658 2.533-5.658 5.66v6.435h11.315v-6.436c0-3.126-2.534-5.66-5.66-5.66z" fill="#ff5b45"/><path d="M592.886 235.093c.24.067.483.13.73.186-.247-.06-.49-.12-.73-.188z" fill="#fff"/><path d="M586.513 231.845c-.23-.184-.456-.374-.678-.57v.006c.22.195.447.383.678.566z" fill="#fff"/><path d="M596.232 235.69c-.31-.026-.616-.06-.92-.1-.08-.01-.156-.018-.233-.03.42.064.847.107 1.28.14l-.13-.01z" fill="#fff"/><path d="M596.563 235.715c.388.024.777.042 1.17.042-.394 0-.783-.018-1.17-.042z" fill="#fff"/><path d="M593.975 235.362c.355.076.716.142 1.08.196-.365-.055-.724-.12-1.08-.196z" fill="#fff"/><path d="M588.648 233.302c-.11-.063-.22-.125-.326-.19-.194-.12-.383-.24-.57-.366l-.267-.18c-.297-.205-.585-.42-.87-.64.918.715 1.905 1.344 2.95 1.875-.31-.155-.617-.322-.917-.497z" fill="#fff"/><path d="M589.575 233.808c.152.076.302.153.457.226-.153-.073-.305-.15-.457-.226z" fill="#fff"/><path d="M591.52 234.66c-.14-.052-.274-.11-.412-.163-.192-.076-.383-.153-.57-.235.628.273 1.276.514 1.94.715-.322-.097-.643-.202-.958-.318z" fill="#fff"/><path d="M585.835 249.39c8.028 0 14.617-6.137 15.342-13.977-1.117.217-2.265.344-3.444.344-.393 0-.783-.017-1.17-.042h-.003l-.2-.015c-.43-.033-.86-.076-1.28-.14-.01 0-.017 0-.025-.002-.365-.054-.725-.12-1.08-.196h-.003c-.116-.025-.23-.053-.347-.08-.004 0-.008-.002-.01-.003-.247-.06-.49-.12-.73-.188-.004 0-.008 0-.012-.003-.132-.038-.264-.074-.393-.113h-.002c-.664-.202-1.31-.442-1.94-.716l-.008-.002c-.167-.074-.332-.15-.497-.226-.155-.073-.306-.15-.458-.227l-.007-.004h-.004c-1.045-.53-2.032-1.16-2.95-1.876-.034-.027-.067-.054-.102-.08-.23-.183-.457-.37-.678-.564v18.11z" fill="#dcdcdc"/><path d="M608.498 268.334c.76-.77 1.8-1.82 1.586-3.618-.212-1.797-1.47-2.58-2.387-3.15-.884-.548-1.225-.814-1.3-1.433-.072-.618.198-.957.93-1.696.76-.768 1.8-1.82 1.586-3.617-.213-1.796-1.47-2.576-2.388-3.145-.884-.548-1.224-.814-1.297-1.43-.073-.62.197-.956.927-1.696.76-.77 1.8-1.823 1.588-3.62-.212-1.794-1.47-2.574-2.388-3.143-.883-.548-1.224-.813-1.297-1.43-.072-.617.197-.955.928-1.695.76-.768 1.8-1.82 1.587-3.617-.212-1.796-1.47-2.575-2.387-3.145-.547-.338-.884-.57-1.08-.84-1.39-8.285-8.59-14.6-17.27-14.6v14.817c.22.195.446.385.677.57l.103.08c.284.22.572.434.87.64l.266.18c.188.126.377.247.57.365.107.066.217.128.326.19.3.176.606.342.917.5l.01.006c.153.077.304.153.458.226.167.08.335.154.505.23.188.08.38.158.57.234.14.054.274.11.413.162.317.116.637.22.96.318.135.04.27.078.408.116.24.066.483.128.73.186.12.028.238.058.36.083.356.076.715.142 1.08.196h.023l.233.03c.304.04.61.074.92.1l.128.01.205.014c.388.024.777.042 1.17.042 1.18 0 2.328-.127 3.444-.344-.727 7.84-7.315 13.978-15.343 13.978v.06c10.85 0 19.643 9.748 19.643 21.772-.076-.62 2.287-2.148 3.018-2.888z" fill="#ffa033"/><path d="M586.513 231.845l.103.08c-.035-.026-.07-.053-.103-.08z" fill="#fff"/><path d="M589.575 233.808l-.01-.006.003.002z" fill="#fff"/><path d="M592.874 235.09l.012.003c-.136-.038-.272-.074-.408-.116h.002c.13.04.262.076.394.113z" fill="#fff"/><path d="M590.53 234.26c.002 0 .005 0 .007.002-.17-.074-.34-.15-.505-.23v.002c.166.077.33.152.498.225z" fill="#fff"/><path d="M593.973 235.362h.002c-.12-.025-.24-.054-.36-.083h.01c.117.027.23.056.348.08z" fill="#fff"/><path d="M596.563 235.715l-.204-.015.2.015h.002z" fill="#fff"/><path d="M595.08 235.56c-.01 0-.017 0-.025-.003l.024.003z" fill="#fff"/><path d="M585.836 249.45v15.335c0-3.125 2.533-5.66 5.658-5.66 3.125 0 5.66 2.534 5.66 5.66v6.436h8.324c0-12.02-8.795-21.77-19.642-21.77z" fill="#dcdcdc"/><path d="M591.494 259.127c-3.125 0-5.66 2.533-5.66 5.66v6.435h11.318v-6.436c0-3.126-2.533-5.66-5.658-5.66z" fill="#ef3522"/></g></g><g><circle cx="577.156" cy="334.913" r="34.731" fill="#004860"/><g><path d="M596.938 308.323c-.13 1.69-1.692 4.422-5.246 4.812-2.384.26-4.754-.633-6.06-1.25-2.55-1.87-5.69-2.983-9.093-2.983-7.77 0-14.18 5.754-15.245 13.23 5.188-.453 9.346-4.467 10.04-9.583 2.823 5.64 8.653 9.514 15.392 9.514 1.715 0 3.366-.263 4.93-.732-.006-.03-.017-.06-.023-.09 8.337-3.094 5.303-12.92 5.303-12.92z" fill="#002738"/><path d="M576.478 344.35c2.346 0 4.28-1.753 4.573-4.02 1.846.49 3.58 1.28 5.185 2.3v18.873h-9.8v-17.158c.015 0 .03.004.044.004z" fill="#00bec5"/><g><path d="M569.315 333.08l.005-.003h-.002z" fill="none"/><path d="M567.855 334.545l-.01.015.01-.015z" fill="none"/><path d="M570.1 332.505l-.062.04.06-.04z" fill="none"/><path d="M568.492 333.833l.117-.116-.12.116z" fill="none"/><path d="M570.942 332c-.06.033-.12.064-.177.097.058-.034.117-.065.177-.096z" fill="none"/><path d="M574.61 330.772c-.1.015-.197.03-.294.05.098-.02.196-.035.293-.05z" fill="none"/><path d="M575.54 330.66c-.095.008-.186.018-.28.028.095-.01.186-.02.28-.028z" fill="none"/><path d="M573.648 330.964c-.07.016-.143.032-.214.05.07-.018.143-.033.214-.05z" fill="none"/><path d="M571.746 331.604l-.184.085c.06-.03.122-.06.184-.087z" fill="none"/><path d="M572.567 331.278l-.025.01c.007-.004.017-.007.025-.01z" fill="none"/><path d="M567.328 335.287c-.04.06-.08.123-.117.186l.12-.186z" fill="none"/><path d="M576.522 339.73l-.044.002.044.002v-.004z" fill="none"/><path d="M556.835 361.503h9.887V342.63c-5.902 3.754-9.887 10.79-9.887 18.873z" fill="#afc01d"/><path d="M576.478 344.35c-2.348 0-4.28-1.753-4.574-4.02-1.844.49-3.58 1.28-5.18 2.3v18.873h9.8v-17.158c-.017 0-.03.004-.046.004z" fill="#69e2de"/><path d="M576.478 344.35c.015 0 .03-.006.044-.006v-4.61c-.015 0-.03-.003-.044-.003-1.576 0-3.107.213-4.574.6.294 2.27 2.226 4.02 4.574 4.02z" fill="#fff"/><path d="M576.522 330.624c-.015 0-.03-.003-.044-.003-.317 0-.63.018-.938.04l-.28.03c-.22.022-.437.05-.65.083-.1.015-.197.03-.294.05-.226.04-.448.09-.67.142-.07.016-.142.032-.213.05-.294.078-.584.165-.867.264l-.025.01c-.27.094-.534.2-.794.315l-.184.085c-.21.097-.42.2-.62.31-.06.032-.12.063-.177.096-.227.13-.45.266-.666.41-.02.013-.04.025-.06.04-.25.167-.49.344-.72.53 0 .003-.003.004-.004.004l.003-.003c-4.12-2.187-7.105-6.206-7.9-10.97-.063.008-.12.02-.183.026-.103.715-.173 1.44-.173 2.185 0 4.83 2.234 9.125 5.71 11.95.078.065.153.132.234.194 2.615 2.04 5.896 3.27 9.47 3.27l.045-.002v-2.53c-.014 0-.028.006-.043.006-2.242 0-4.06-1.817-4.06-4.06h4.104v-2.522z" fill="#002738"/><path d="M569.315 333.08c-.248.2-.482.416-.706.637.222-.22.456-.436.704-.637z" fill="#002738"/><path d="M567.844 334.56c-.186.233-.355.477-.516.727.16-.25.33-.494.516-.727z" fill="#002738"/><path d="M567.855 334.545c.198-.247.413-.483.638-.712-.225.228-.44.464-.638.712z" fill="#002738"/><path d="M566.772 336.27c.13-.274.28-.537.438-.797-.16.26-.308.523-.438.796z" fill="#002738"/><path d="M569.318 333.077h.002c.23-.187.47-.364.718-.532l.06-.04c.216-.143.44-.28.667-.41l.177-.095c.2-.11.41-.214.62-.31.062-.03.123-.06.185-.086.26-.114.524-.22.796-.317l.025-.01c.284-.098.573-.185.867-.263.07-.018.143-.034.214-.05.22-.054.44-.103.667-.143l.293-.047c.216-.034.433-.06.653-.084l.28-.03c.308-.022.62-.04.937-.04l.044.003v-11.868c-2.205-1.614-4.014-3.74-5.246-6.205-.687 5.054-4.756 9.027-9.857 9.557.796 4.764 3.78 8.782 7.9 10.97z" fill="#fff"/><path d="M570.764 332.096c-.228.13-.45.266-.666.41.215-.144.44-.28.666-.41z" fill="#fff"/><path d="M570.038 332.545c-.25.168-.488.345-.718.532.23-.188.47-.364.718-.532z" fill="#fff"/><path d="M576.478 330.62c.015 0 .03.004.044.004v-.002h-.044z" fill="#fff"/><path d="M571.562 331.69c-.212.097-.42.2-.62.31.2-.11.408-.213.62-.31z" fill="#fff"/><path d="M576.478 330.62c-.317 0-.628.017-.938.04.31-.022.62-.04.938-.04z" fill="#fff"/><path d="M574.317 330.82c-.226.042-.448.09-.67.144.222-.054.444-.102.67-.143z" fill="#fff"/><path d="M575.262 330.688c-.22.023-.438.05-.652.084.214-.034.432-.06.652-.084z" fill="#fff"/><path d="M573.434 331.014c-.294.078-.584.165-.867.264.283-.1.573-.186.867-.264z" fill="#fff"/><path d="M572.542 331.287c-.27.096-.536.203-.796.317.26-.114.524-.22.796-.317z" fill="#fff"/><path d="M572.417 333.147c0 2.242 1.818 4.06 4.06 4.06.016 0 .03-.006.045-.006v-4.052h-4.105z" fill="#fff"/><path d="M577.415 330.66c.095.008.186.018.28.028-.094-.01-.185-.02-.28-.028z" fill="#002738"/><path d="M584.35 333.72l.11.11-.11-.11z" fill="#002738"/><path d="M582.867 332.512l.048.03-.048-.03z" fill="#002738"/><path d="M581.21 331.604l.18.084-.18-.084z" fill="#002738"/><path d="M582.02 332.002l.168.093c-.056-.032-.112-.063-.17-.093z" fill="#002738"/><path d="M580.39 331.278l.018.006c-.006 0-.01-.005-.017-.006z" fill="#002738"/><path d="M585.1 334.546l.006.008-.005-.008z" fill="#002738"/><path d="M585.628 335.29c.04.06.078.12.116.182-.038-.062-.076-.122-.116-.183z" fill="#002738"/><path d="M578.347 330.772c.098.015.195.03.293.05-.098-.02-.195-.035-.293-.05z" fill="#002738"/><path d="M579.308 330.964c.07.016.144.032.214.05-.07-.018-.143-.033-.214-.05z" fill="#002738"/><path d="M586.234 342.63v18.873h9.885c0-8.084-3.986-15.12-9.887-18.873z" fill="#7ea800"/><path d="M581.05 340.33c-1.453-.383-2.968-.594-4.528-.596v4.61c2.326-.022 4.238-1.76 4.53-4.013z" fill="#dcdcdc"/><path d="M591.625 321.524c-.64 5.02-3.703 9.275-7.99 11.552-.23-.187-.47-.366-.72-.535l-.048-.03c-.22-.145-.447-.283-.68-.415-.056-.032-.11-.063-.168-.093-.208-.11-.417-.214-.63-.313-.06-.03-.12-.058-.18-.085-.26-.114-.53-.222-.803-.32-.005 0-.01-.004-.017-.006-.282-.1-.573-.187-.868-.265-.07-.018-.143-.034-.214-.05-.22-.055-.442-.103-.668-.143-.098-.018-.195-.034-.293-.05-.215-.033-.433-.06-.653-.083l-.28-.03c-.293-.023-.59-.036-.892-.036v2.523h4.016c0 2.227-1.795 4.03-4.016 4.054v2.53c3.556-.01 6.822-1.235 9.427-3.27.077-.06.153-.127.232-.19 3.477-2.827 5.71-7.123 5.71-11.95 0-.957-.1-1.888-.268-2.795z" fill="#002738"/><path d="M584.35 333.72c-.228-.224-.462-.44-.714-.643.252.204.486.42.714.643z" fill="#002738"/><path d="M586.183 336.27c-.13-.275-.28-.54-.438-.798.158.258.307.522.438.797z" fill="#002738"/><path d="M585.106 334.554c.19.236.36.483.522.735-.16-.254-.334-.5-.522-.737z" fill="#002738"/><path d="M584.46 333.83c.227.23.442.467.64.716-.197-.25-.413-.486-.64-.717z" fill="#002738"/><path d="M577.415 330.66c.095.008.186.018.28.028.22.023.437.05.652.084.098.015.195.03.293.05.226.04.448.09.668.142.07.016.144.032.214.05.295.078.586.165.87.264.006.002.01.005.016.006.274.098.54.206.803.32l.18.084c.215.1.424.202.63.314l.17.093c.23.132.46.27.68.417l.046.03c.25.17.49.348.72.535 4.287-2.277 7.35-6.534 7.99-11.552-.01-.063-.015-.128-.027-.19-1.565.47-3.216.73-4.93.73-3.797 0-7.303-1.228-10.147-3.31v11.868c.3 0 .6.015.893.037z" fill="#dcdcdc"/><path d="M583.636 333.077c-.23-.187-.47-.366-.72-.535.25.17.49.347.72.535z" fill="#002738"/><path d="M582.188 332.095c.232.132.46.27.68.417-.22-.147-.448-.286-.68-.417z" fill="#002738"/><path d="M577.694 330.688c.22.023.438.05.653.084-.215-.034-.433-.06-.653-.084z" fill="#002738"/><path d="M578.64 330.82c.226.042.448.09.668.144-.22-.054-.443-.102-.668-.143z" fill="#002738"/><path d="M576.522 330.622v.002c.3 0 .6.014.893.036-.294-.022-.592-.036-.893-.038z" fill="#002738"/><path d="M579.522 331.014c.295.078.586.165.87.264-.284-.1-.576-.186-.87-.264z" fill="#002738"/><path d="M581.39 331.688c.214.1.423.202.63.314-.207-.112-.416-.215-.63-.314z" fill="#002738"/><path d="M580.408 331.284c.274.098.54.206.803.32-.26-.114-.527-.222-.8-.32z" fill="#002738"/><path d="M580.538 333.147h-4.016v4.054c2.22-.022 4.016-1.825 4.016-4.052z" fill="#dcdcdc"/></g></g></g><g><circle cx="474.453" cy="316.041" r="34.731" fill="#004860"/><g><path d="M474.453 320.57z" fill="none"/><path d="M474.452 329.468c-4.152 0-7.63-2.85-8.61-6.697-6.533 3.538-11.03 10.97-11.03 19.57h19.64v-12.87z" fill="#ff5b45"/><path d="M474.452 329.468v-8.898c-3.09 0-6.01.792-8.61 2.202.98 3.846 4.458 6.696 8.61 6.696z" fill="#fff"/><path d="M474.453 297c-1.69 4.3-6.095 7.375-11.278 7.375-1.428 0-2.793-.246-4.064-.672-.042.48-.07.962-.07 1.453 0 8.513 6.9 15.414 15.413 15.414V297z" fill="#fff"/><path d="M474.452 297v-7.26c-8.022 0-14.608 6.132-15.34 13.963 1.27.427 2.635.672 4.063.672 5.182 0 9.587-3.075 11.277-7.375z" fill="#fcd07a"/><path d="M483.065 322.772c-.982 3.847-4.46 6.697-8.612 6.697v12.87h19.642c0-8.6-4.5-16.033-11.03-19.57z" fill="#ef3522"/><path d="M483.065 322.772c-2.6-1.41-5.523-2.202-8.612-2.202v8.898c4.153 0 7.63-2.85 8.612-6.696z" fill="#dcdcdc"/><path d="M474.453 297v23.57c8.512 0 15.413-6.9 15.413-15.414 0-.49-.03-.974-.073-1.453-1.27.427-2.636.672-4.065.672-5.18 0-9.584-3.074-11.275-7.374z" fill="#dcdcdc"/><path d="M485.73 304.375c1.428 0 2.792-.246 4.064-.672-.734-7.83-7.32-13.962-15.34-13.962V297c1.69 4.3 6.093 7.375 11.275 7.375z" fill="#ffa033"/></g></g><g><circle cx="532.474" cy="417.688" r="34.731" fill="#004860"/><g><path d="M532.474 422.108c-1.97 0-3.87.33-5.658.942l5.658 3.375v-4.317z" fill="#fff"/><path d="M529.025 429.347c-.565.886-1.01 1.996-1.12 3.387l-6.708-6.557c-4.784 3.865-7.896 10.12-7.896 17.182h19.175v-16.935c-.008.002-2.09.794-3.45 2.92z" fill="#afc01d"/><path d="M529.025 429.347c1.36-2.127 3.44-2.92 3.45-2.922l-5.66-3.375c-2.038.698-3.93 1.764-5.618 3.126l6.707 6.557c.11-1.39.555-2.5 1.12-3.386z" fill="#7ea800"/><path d="M528.04 406.06l-.12-7.02-1.085 7.02h-3.43l.698-7.02-1.777 7.02h-4.848c-.022.334-.05.664-.05 1.002 0 8.31 6.736 15.046 15.045 15.046V406.06h-4.434z" fill="#fff"/><path d="M524.104 399.04l-.698 7.02h3.43l1.085-7.02.12 7.02h4.436v-14.044c-7.972 0-14.478 6.204-14.995 14.045h4.85l1.775-7.02z" fill="#002738"/><path d="M532.474 422.108z" fill="#00bec5"/><path d="M532.475 426.425l5.657-3.375c-1.79-.612-3.69-.942-5.657-.942v4.317z" fill="#dcdcdc"/><path d="M543.753 426.177l-6.706 6.557c-.112-1.39-.557-2.5-1.122-3.387-1.362-2.132-3.45-2.922-3.45-2.922v16.933h19.174c-.004-7.062-3.115-13.316-7.898-17.18z" fill="#7ea800"/><path d="M532.474 426.425z" fill="#00bec5"/><path d="M535.924 429.347c.565.886 1.01 1.996 1.122 3.387l6.706-6.557c-1.686-1.362-3.58-2.428-5.62-3.126l-5.657 3.377s2.088.79 3.45 2.92z" fill="#afc01d"/><path d="M547.52 407.062c0-.338-.027-.668-.05-1h-3.857l-1.734-7.023.57 7.02h-2.985l-.76-7.047.167 7.047h-2.96l-.7-7.02-.317 7.02h-2.424v16.048c8.31 0 15.05-6.736 15.05-15.046z" fill="#dcdcdc"/><path d="M534.898 406.06l.317-7.02.7 7.02h2.96l-.168-7.046.76 7.047h2.986l-.572-7.02 1.736 7.02h3.858c-.52-7.84-7.025-14.043-14.996-14.043v14.045h2.42z" fill="#002738"/></g></g><path d="M308.432 555.045l-61.407 65.538h54.75l31.952-53.894z" fill="#69e2de"/></g></g></g></svg>