<?xml version="1.0" encoding="UTF-8" standalone="no"?>
<!-- Generator: Adobe Illustrator 17.0.0, SVG Export Plug-In . SVG Version: 6.00 Build 0)  -->

<svg
   xmlns:dc="http://purl.org/dc/elements/1.1/"
   xmlns:cc="http://creativecommons.org/ns#"
   xmlns:rdf="http://www.w3.org/1999/02/22-rdf-syntax-ns#"
   xmlns:svg="http://www.w3.org/2000/svg"
   xmlns="http://www.w3.org/2000/svg"
   xmlns:sodipodi="http://sodipodi.sourceforge.net/DTD/sodipodi-0.dtd"
   xmlns:inkscape="http://www.inkscape.org/namespaces/inkscape"
   version="1.1"
   id="Capa_1"
   x="0px"
   y="0px"
   preserveAspectRatio="xMinYMin meet"
   viewBox="0 0 124.61999 124.90699"
   enable-background="new 0 0 595.28 841.89"
   xml:space="preserve"
   inkscape:version="0.91pre3 r13670"
   sodipodi:docname="obstaculos.svg"><title
     id="title8538">Disparador exploracion</title><metadata
     id="metadata49"><rdf:RDF><cc:Work
         rdf:about=""><dc:format>image/svg+xml</dc:format><dc:type
           rdf:resource="http://purl.org/dc/dcmitype/StillImage" /><dc:title>Disparador exploracion</dc:title></cc:Work></rdf:RDF></metadata><defs
     id="defs47"><clipPath
       id="SVGID_2_"><rect
         height="369.78799"
         width="369.78799"
         y="219.08701"
         x="103.533"
         id="use18" /></clipPath><clipPath
       id="clipPath8528"><rect
         height="369.78799"
         width="369.78799"
         y="219.08701"
         x="103.533"
         id="use8530" /></clipPath><clipPath
       id="clipPath8532"><rect
         height="369.78799"
         width="369.78799"
         y="219.08701"
         x="103.533"
         id="use8534" /></clipPath><clipPath
       id="SVGID_4_"><circle
         r="45.061001"
         cy="370.69601"
         cx="322.60199"
         id="use318" /></clipPath><clipPath
       id="clipPath8538"><circle
         r="45.061001"
         cy="370.69601"
         cx="322.60199"
         id="use8540" /></clipPath></defs><sodipodi:namedview
     pagecolor="#ffffff"
     bordercolor="#666666"
     borderopacity="1"
     objecttolerance="10"
     gridtolerance="10"
     guidetolerance="10"
     inkscape:pageopacity="0"
     inkscape:pageshadow="2"
     inkscape:window-width="1366"
     inkscape:window-height="705"
     id="namedview45"
     showgrid="false"
     units="mm"
     width="209mm"
     inkscape:zoom="3.1714774"
     inkscape:cx="49.468627"
     inkscape:cy="89.69885"
     inkscape:window-x="-8"
     inkscape:window-y="-8"
     inkscape:window-maximized="1"
     inkscape:current-layer="Capa_1"
     fit-margin-top="0"
     fit-margin-left="0"
     fit-margin-right="0"
     fit-margin-bottom="0" /><path
     d="m 124.62,111.311 c 0,7.509 -6.016,13.596 -13.438,13.596 l -97.744,0 C 6.017,124.907 0,118.82 0,111.311 L 0,13.596 C 0,6.087 6.016,0 13.438,0 l 97.744,0 c 7.421,0 13.438,6.087 13.438,13.596 l 0,97.715 z"
     id="path3"
     inkscape:connector-curvature="0"
     style="clip-rule:evenodd;fill:#f9a95e;fill-rule:evenodd;fill-opacity:1" /><path
     d="m 117.03041,104.71471 c 0,6.49564 -5.32024,11.76112 -11.88354,11.76112 l -86.439372,0 c -6.563291,0 -11.8835358,-5.26548 -11.8835358,-11.76112 l 0,-84.522422 c 0,-6.495637 5.3202448,-11.7611166 11.8835358,-11.7611166 l 86.439372,0 c 6.5633,0 11.88354,5.2654796 11.88354,11.7611166 l 0,84.522422 z"
     id="path5"
     inkscape:connector-curvature="0"
     style="clip-rule:evenodd;opacity:0.7;fill:#f9c487;fill-opacity:1;fill-rule:evenodd" /><g
     transform="matrix(0.23497163,0,0,0.2002275,-39.640438,-3.7041523)"
     id="Objects"><rect
       style="opacity:0.2;fill:#96dede"
       x="296"
       y="165"
       width="265"
       height="266"
       id="rect11" /><path
       style="fill:#5da8ac"
       inkscape:connector-curvature="0"
       d="m 494.44,436.882 c 0.613,-6.991 0.932,-16.428 0.099,-27.74 -4.979,-1.61 -9.754,-2.177 -15.025,0.671 -7.522,4.065 -15.669,7.451 -23.405,11.182 -3.597,1.735 -5.542,3.872 -9.122,2.183 -3.599,-1.699 -7.375,-3.622 -11.276,-6.406 -5.442,-3.884 -13.125,4.1 -20.08,7.958 -2.689,1.491 -6.019,3.185 -9.484,4.563 -2.794,1.111 -7.571,-2.538 -12.102,-6.011 -10.155,-7.784 -14.719,-8.023 -19.787,-4.48 -1.013,0.708 -2.04,1.399 -3.075,2.081 -0.6,6.08 -0.95,12.581 -1.085,19.379 34.871,-1.263 78.005,-2.568 124.342,-3.38 z"
       id="path13" /><path
       style="fill:#5da8ac"
       inkscape:connector-curvature="0"
       d="m 582.25,451 -2.289,0 c 0.257,0 1.683,0 2.289,0 z"
       id="path15" /><path
       style="fill:none;stroke:#f0a723;stroke-width:0;stroke-linecap:round;stroke-linejoin:round"
       inkscape:connector-curvature="0"
       d="m 338.584,352.653 c 0.133,-0.002 0.265,-0.004 0.398,-0.006"
       id="path17" /><path
       style="fill:none;stroke:#f0a723;stroke-width:0;stroke-linecap:round;stroke-linejoin:round"
       inkscape:connector-curvature="0"
       d="m 336.265,352.692 c 0.111,-0.002 0.223,-0.004 0.334,-0.007"
       id="path19" /><path
       style="fill:none;stroke:#f0a723;stroke-width:0;stroke-linecap:round;stroke-linejoin:round"
       inkscape:connector-curvature="0"
       d="m 342.922,352.601 c 0.123,-10e-4 0.245,-0.002 0.367,-0.003"
       id="path21" /><path
       style="fill:none;stroke:#f0a723;stroke-width:0;stroke-linecap:round;stroke-linejoin:round"
       inkscape:connector-curvature="0"
       d="m 331.539,352.791 c 0.152,-0.004 0.304,-0.007 0.456,-0.011"
       id="path23" /><path
       style="fill:#f0a723"
       inkscape:connector-curvature="0"
       d="m 376.078,384.158 c 8.907,-12.603 21.708,-22.766 6.835,-27.913 C 400.745,362.55 280,359.938 280,359.938 l 0,23.638 c 19.151,4.803 35.353,5.932 52.358,6.179 24.549,0.356 48.563,-13.896 43.72,-5.597 z"
       id="path25" /><path
       style="fill:none;stroke:#f0a723;stroke-width:0;stroke-linecap:round;stroke-linejoin:round"
       inkscape:connector-curvature="0"
       d="m 334.081,352.734 c 0.098,-0.002 0.195,-0.004 0.293,-0.006"
       id="path27" /><line
       style="fill:none;stroke:#f0a723;stroke-width:0;stroke-linecap:round;stroke-linejoin:round"
       x1="345"
       y1="353"
       x2="345"
       y2="353"
       id="line29" /><path
       style="fill:#f0a723"
       inkscape:connector-curvature="0"
       d="m 380.727,386.14 c 0.034,-0.052 0.069,-0.105 0.104,-0.157 -0.001,10e-4 -0.002,0.003 -0.003,0.004 -0.027,0.034 -0.062,0.089 -0.101,0.153 z"
       id="path31" /><path
       style="fill:none;stroke:#f0a723;stroke-width:0;stroke-linecap:round;stroke-linejoin:round"
       inkscape:connector-curvature="0"
       d="m 349.462,352.581 c -0.102,0 -0.204,-0.001 -0.306,-0.001"
       id="path33" /><path
       style="fill:#f3b94f"
       inkscape:connector-curvature="0"
       d="m 388.913,356.245 c -0.07,-0.025 -0.136,-0.05 -0.211,-0.075 -0.02,-0.007 -0.041,-0.013 -0.061,-0.02 -0.006,-0.002 -0.012,-0.004 -0.017,-0.005 -0.204,-0.068 -0.414,-0.135 -0.628,-0.202 -0.015,-0.005 -0.03,-0.009 -0.045,-0.014 -0.215,-0.066 -0.435,-0.131 -0.661,-0.196 -0.023,-0.007 -0.047,-0.013 -0.07,-0.02 -0.455,-0.129 -0.931,-0.254 -1.429,-0.376 -0.028,-0.007 -0.055,-0.013 -0.083,-0.02 -0.251,-0.061 -0.507,-0.121 -0.769,-0.18 -0.003,-10e-4 -0.006,-10e-4 -0.009,-0.002 -0.262,-0.059 -0.529,-0.116 -0.802,-0.173 -0.021,-0.004 -0.041,-0.009 -0.062,-0.013 -0.272,-0.056 -0.55,-0.112 -0.833,-0.167 -0.026,-0.005 -0.052,-0.01 -0.078,-0.015 -0.571,-0.109 -1.165,-0.214 -1.781,-0.316 -0.037,-0.006 -0.074,-0.012 -0.111,-0.018 -0.62,-0.101 -1.263,-0.198 -1.931,-0.291 -0.03,-0.004 -0.059,-0.008 -0.089,-0.013 -0.331,-0.046 -0.669,-0.091 -1.012,-0.135 -0.032,-0.004 -0.065,-0.008 -0.097,-0.012 -0.695,-0.088 -1.414,-0.173 -2.157,-0.253 -0.045,-0.005 -0.09,-0.01 -0.136,-0.015 -0.744,-0.079 -1.512,-0.155 -2.306,-0.226 -0.042,-0.004 -0.083,-0.008 -0.126,-0.011 -0.393,-0.035 -0.792,-0.069 -1.198,-0.102 -0.041,-0.003 -0.082,-0.007 -0.122,-0.01 -0.406,-0.033 -0.818,-0.065 -1.237,-0.096 -0.008,-0.001 -0.016,-0.001 -0.024,-0.002 -0.421,-0.031 -0.849,-0.061 -1.283,-0.089 -0.061,-0.004 -0.122,-0.008 -0.183,-0.012 -0.874,-0.057 -1.773,-0.11 -2.699,-0.16 -0.053,-0.003 -0.106,-0.006 -0.159,-0.009 -0.458,-0.024 -0.923,-0.047 -1.394,-0.069 -0.053,-0.003 -0.107,-0.005 -0.16,-0.007 -0.465,-0.021 -0.935,-0.042 -1.413,-0.061 -0.02,-0.001 -0.039,-0.002 -0.058,-0.003 -0.486,-0.02 -0.98,-0.038 -1.48,-0.056 -0.079,-0.003 -0.157,-0.006 -0.236,-0.008 -1.004,-0.035 -2.035,-0.065 -3.094,-0.092 -0.077,-0.002 -0.153,-0.004 -0.231,-0.006 -0.522,-0.013 -1.051,-0.025 -1.587,-0.035 -0.068,-0.001 -0.136,-0.003 -0.204,-0.004 -0.511,-0.01 -1.027,-0.019 -1.55,-0.027 -0.053,-0.001 -0.105,-0.002 -0.159,-0.003 -0.548,-0.008 -1.104,-0.015 -1.665,-0.021 -0.1,-0.001 -0.201,-0.002 -0.302,-0.003 -1.141,-0.012 -2.309,-0.02 -3.506,-0.023 -0.102,0 -0.204,0.21 -0.306,0.209 -0.589,-0.001 -1.183,0.21 -1.786,0.21 -0.087,0 -0.176,0 -0.264,0 -0.567,0 -1.14,-0.208 -1.719,-0.205 -0.075,0 -0.149,-0.105 -0.224,-0.104 -0.617,0.003 -1.243,-0.045 -1.874,-0.04 -0.122,10e-4 -0.245,0.166 -0.367,0.167 -0.643,0.005 -1.292,0.183 -1.95,0.183 -0.007,0 -0.014,0 -0.02,0 -0.649,0 -1.307,-0.173 -1.969,-0.163 -0.133,0.002 -0.265,-0.091 -0.398,-0.089 -0.655,0.01 -1.317,-0.027 -1.986,-0.015 -0.111,0.002 -0.223,-0.019 -0.334,-0.017 -0.624,0.011 -1.254,0.011 -1.89,0.025 -0.098,0.002 -0.195,-0.002 -0.293,0 -0.688,0.014 -1.384,0.027 -2.086,0.043 -0.151,0.004 -0.304,0.006 -0.456,0.01 -0.718,0.017 -1.44,0.034 -2.172,0.053 -7.423,0.195 -27.719,-1.273 -43.367,0.197 l 0,6.895 c -0.004,0 120.741,2.612 102.909,-3.693 z"
       id="path35" /><path
       style="fill:#cb853f"
       inkscape:connector-curvature="0"
       d="m 359.099,440.262 c 0.135,-6.799 0.485,-13.299 1.085,-19.379 0.885,-8.968 2.313,-17.022 4.4,-23.765 0.313,-1.01 4.252,-9.527 5.143,-10.978 0.039,-0.064 0.074,-0.119 0.101,-0.154 0.001,-10e-4 0.002,-0.002 0.003,-0.004 0.534,-0.703 0.945,-1.306 1.248,-1.824 4.843,-8.299 -19.171,5.953 -43.72,5.597 -17.005,-0.247 -33.208,-1.376 -52.358,-6.179 l 0,29.514 0,30.765 c -10e-4,-0.001 33.266,-1.752 84.098,-3.593 z"
       id="path37" /><path
       style="fill:#f0a723"
       inkscape:connector-curvature="0"
       d="M 358.406,434.216 C 303.297,437.161 267,439.962 267,439.962 l 0,4.348 0,6.69 81.513,0 c 7.599,0 15.198,0 22.797,0 39.993,0 79.986,0 119.978,0 0,0 1.207,-8.05 2.036,-22.009 -50.235,1.299 -97.114,3.204 -134.918,5.225 z"
       id="path39" /><path
       style="fill:#f0a723"
       inkscape:connector-curvature="0"
       d="m 454.69,275.901 c -7.454,12.335 9.033,33.872 15.01,51.313 0.15,0.441 19.425,9.243 27.026,11.241 36.459,9.582 62.547,17.804 65.131,29.288 7.788,34.608 28.143,82.782 28.143,82.782 0,0 0,-0.069 0,-0.201 0,-6.073 0,-12.146 0,-18.219 0,-0.145 0,-0.291 0,-0.436 0,-14.92 0,-29.84 0,-44.761 l 0,-73.351 c 0,10e-4 -142.479,-25.312 -135.31,-37.656 z"
       id="path41" /><path
       style="fill:#d89325"
       inkscape:connector-curvature="0"
       d="m 561.738,371.911 c -2.623,-12.609 -29.007,-21.737 -66.011,-32.257 -7.715,-2.193 -27.305,-11.907 -27.457,-12.392 9.305,29.373 13.312,55.851 14.699,77.464 1.015,15.825 0.626,29.218 -0.121,38.997 -0.932,12.206 -2.418,19.277 -2.418,19.277 35.551,0 71.103,0 106.654,0 l 2.79,0 0.335,0 c -10e-4,0 -20.566,-53.094 -28.471,-91.089 z"
       id="path43" /><path
       style="fill:#f3b94f"
       inkscape:connector-curvature="0"
       d="m 588.661,279.224 c -0.427,-0.098 -0.943,-0.191 -1.367,-0.288 -0.932,-0.213 -1.916,-0.426 -2.834,-0.633 -0.521,-0.118 -1.056,-0.231 -1.573,-0.346 -0.81,-0.181 -1.636,-0.364 -2.436,-0.542 -0.547,-0.121 -1.089,-0.238 -1.632,-0.357 -0.755,-0.166 -1.518,-0.334 -2.264,-0.496 -0.568,-0.124 -1.126,-0.243 -1.688,-0.364 -0.707,-0.153 -1.42,-0.307 -2.119,-0.457 -0.577,-0.123 -1.143,-0.242 -1.714,-0.363 -0.671,-0.142 -1.348,-0.286 -2.012,-0.425 -0.562,-0.118 -1.113,-0.231 -1.669,-0.346 -0.661,-0.137 -1.326,-0.276 -1.979,-0.41 -0.552,-0.113 -1.092,-0.221 -1.638,-0.333 -0.643,-0.131 -1.29,-0.262 -1.925,-0.39 -0.556,-0.112 -1.102,-0.219 -1.652,-0.328 -0.611,-0.121 -1.227,-0.244 -1.831,-0.363 -0.549,-0.107 -1.086,-0.21 -1.629,-0.315 -0.595,-0.115 -1.194,-0.232 -1.782,-0.344 -0.531,-0.101 -1.051,-0.199 -1.576,-0.297 -0.587,-0.111 -1.179,-0.223 -1.759,-0.331 -0.518,-0.096 -1.026,-0.189 -1.538,-0.283 -0.572,-0.105 -1.149,-0.212 -1.715,-0.314 -0.517,-0.094 -1.024,-0.183 -1.536,-0.274 -0.547,-0.098 -1.099,-0.197 -1.639,-0.292 -0.51,-0.089 -1.011,-0.175 -1.516,-0.262 -0.531,-0.091 -1.066,-0.184 -1.591,-0.274 -0.494,-0.083 -0.978,-0.164 -1.466,-0.245 -0.524,-0.088 -1.05,-0.176 -1.567,-0.261 -0.484,-0.079 -0.958,-0.155 -1.436,-0.232 -0.507,-0.082 -1.017,-0.164 -1.517,-0.243 -0.477,-0.075 -0.945,-0.147 -1.416,-0.22 -0.491,-0.076 -0.984,-0.153 -1.469,-0.226 -0.468,-0.071 -0.926,-0.138 -1.388,-0.207 -0.475,-0.071 -0.954,-0.143 -1.423,-0.211 -0.458,-0.066 -0.907,-0.129 -1.359,-0.193 -0.463,-0.065 -0.928,-0.132 -1.385,-0.196 -0.447,-0.062 -0.885,-0.12 -1.326,-0.179 -0.449,-0.061 -0.9,-0.122 -1.343,-0.18 -0.437,-0.057 -0.866,-0.112 -1.298,-0.167 -0.437,-0.056 -0.876,-0.113 -1.308,-0.166 -0.423,-0.052 -0.838,-0.102 -1.256,-0.152 -0.428,-0.051 -0.857,-0.103 -1.279,-0.153 -0.413,-0.048 -0.819,-0.093 -1.227,-0.139 -0.414,-0.046 -0.829,-0.094 -1.237,-0.137 -0.406,-0.044 -0.804,-0.085 -1.203,-0.126 -0.4,-0.042 -0.801,-0.084 -1.195,-0.123 -0.395,-0.04 -0.783,-0.076 -1.173,-0.113 -0.389,-0.037 -0.779,-0.075 -1.163,-0.11 -0.382,-0.035 -0.758,-0.067 -1.136,-0.1 -0.378,-0.033 -0.758,-0.066 -1.131,-0.096 -0.373,-0.03 -0.739,-0.059 -1.107,-0.087 -0.368,-0.029 -0.737,-0.057 -1.099,-0.083 -0.36,-0.026 -0.715,-0.049 -1.07,-0.073 -0.358,-0.024 -0.716,-0.049 -1.069,-0.071 -0.351,-0.022 -0.695,-0.042 -1.041,-0.061 -0.348,-0.02 -0.696,-0.04 -1.038,-0.058 -0.339,-0.018 -0.673,-0.033 -1.007,-0.048 -0.337,-0.016 -0.674,-0.031 -1.005,-0.045 -0.331,-0.014 -0.656,-0.025 -0.982,-0.036 -0.326,-0.012 -0.652,-0.023 -0.973,-0.032 -0.319,-0.009 -0.632,-0.016 -0.945,-0.023 -0.317,-0.007 -0.635,-0.015 -0.947,-0.02 -0.31,-0.005 -0.615,0.009 -0.92,0.006 -0.306,-0.003 -0.611,0.01 -0.911,0.01 -0.3,0 -0.595,0 -0.89,0 -0.297,0 -0.594,-0.016 -0.886,-0.013 -0.288,0.003 -0.572,-10e-4 -0.855,0.003 -0.289,0.005 -0.577,0.005 -0.861,0.012 -0.28,0.006 -0.554,0.013 -0.829,0.021 -0.277,0.008 -0.554,0.016 -0.826,0.027 -0.272,0.011 -0.54,0.022 -0.807,0.035 -0.267,0.012 -0.533,0.025 -0.795,0.039 -0.261,0.014 -0.519,0.03 -0.775,0.046 -0.259,0.017 -0.517,0.033 -0.772,0.051 -0.251,0.018 -0.498,0.037 -0.745,0.057 -0.25,0.02 -0.5,0.041 -0.746,0.063 -0.242,0.022 -0.48,0.045 -0.718,0.068 -0.241,0.024 -0.481,0.048 -0.718,0.074 -0.232,0.025 -0.461,0.052 -0.689,0.079 -0.234,0.028 -0.466,0.055 -0.694,0.085 -0.223,0.029 -0.443,0.059 -0.662,0.089 -0.225,0.031 -0.447,0.063 -0.667,0.096 -0.214,0.032 -0.426,0.066 -0.636,0.099 -0.216,0.035 -0.431,0.071 -0.642,0.107 -0.205,0.035 -0.408,0.072 -0.609,0.109 -0.208,0.038 -0.414,0.078 -0.618,0.118 -0.197,0.039 -0.39,0.079 -0.583,0.119 -0.199,0.042 -0.398,0.085 -0.593,0.128 -0.188,0.042 -0.375,0.085 -0.559,0.129 -0.191,0.046 -0.38,0.091 -0.567,0.138 -0.18,0.046 -0.358,0.092 -0.534,0.139 -0.183,0.049 -0.366,0.098 -0.545,0.149 -0.171,0.048 -0.341,0.098 -0.508,0.148 -0.176,0.052 -0.35,0.105 -0.521,0.159 -0.164,0.052 -0.325,0.104 -0.485,0.157 -0.168,0.056 -0.334,0.112 -0.498,0.17 -0.155,0.054 -0.31,0.11 -0.461,0.166 -0.16,0.059 -0.318,0.119 -0.474,0.179 -0.148,0.058 -0.294,0.116 -0.439,0.175 -0.153,0.062 -0.304,0.125 -0.453,0.19 -0.139,0.06 -0.277,0.12 -0.413,0.182 -0.146,0.066 -0.29,0.133 -0.432,0.2 -0.132,0.063 -0.263,0.126 -0.391,0.19 -0.139,0.069 -0.276,0.14 -0.41,0.21 -0.124,0.065 -0.248,0.131 -0.368,0.197 -0.132,0.072 -0.261,0.146 -0.389,0.22 -0.118,0.068 -0.234,0.136 -0.348,0.206 -0.125,0.076 -0.246,0.152 -0.367,0.229 -0.111,0.071 -0.22,0.142 -0.327,0.214 -0.118,0.079 -0.233,0.159 -0.347,0.239 -0.103,0.073 -0.206,0.146 -0.306,0.22 -0.111,0.082 -0.22,0.165 -0.327,0.249 -0.096,0.075 -0.192,0.15 -0.285,0.226 -0.104,0.085 -0.206,0.172 -0.307,0.259 -0.09,0.077 -0.179,0.155 -0.265,0.232 -0.098,0.089 -0.193,0.178 -0.287,0.268 -0.083,0.079 -0.166,0.159 -0.246,0.239 -0.092,0.092 -0.18,0.184 -0.268,0.278 -0.077,0.081 -0.153,0.163 -0.227,0.245 -0.085,0.095 -0.167,0.191 -0.249,0.288 -0.07,0.083 -0.141,0.167 -0.208,0.251 -0.079,0.098 -0.155,0.196 -0.23,0.296 -0.065,0.085 -0.13,0.171 -0.192,0.257 -0.072,0.101 -0.142,0.203 -0.211,0.305 -0.058,0.087 -0.117,0.174 -0.174,0.262 -0.067,0.104 -0.13,0.21 -0.194,0.315 -0.035,0.058 -0.072,0.114 -0.106,0.172 -0.008,0.014 0.186,0.028 0.179,0.042 C 458.096,287.245 593,312.558 593,312.558 l 0,-32.378 c -2,-0.324 -2.973,-0.643 -4.339,-0.956 z"
       id="path45" /><path
       style="opacity:0.5;fill:#ffffff"
       inkscape:connector-curvature="0"
       d="m 487.367,378.187 c -0.775,-0.041 -1.496,0.192 -2.056,0.605 0.011,-0.085 0.025,-0.169 0.031,-0.256 0.152,-2.409 -1.863,-4.475 -4.502,-4.615 -1.638,-0.087 -3.131,0.59 -4.065,1.693 -0.537,-1.677 -2.052,-3.029 -4.06,-3.386 -2.865,-0.51 -5.641,1.197 -6.2,3.813 -0.116,0.543 -0.122,1.081 -0.042,1.599 -0.174,-0.032 -0.351,-0.057 -0.533,-0.066 -2.127,-0.112 -3.951,1.371 -4.074,3.312 -0.123,1.942 1.501,3.608 3.627,3.72 0.354,0.019 0.698,-0.01 1.028,-0.075 0.72,1.361 2.204,2.336 3.975,2.43 1.814,0.096 3.446,-0.759 4.318,-2.091 0.613,0.579 1.454,0.96 2.404,1.011 1.375,0.073 2.616,-0.561 3.299,-1.556 0.621,0.77 1.598,1.292 2.725,1.351 1.586,0.084 2.992,-0.774 3.571,-2.042 0.069,0.008 0.137,0.017 0.207,0.02 1.654,0.087 3.073,-1.066 3.169,-2.576 0.095,-1.508 -1.169,-2.803 -2.822,-2.891 z"
       id="path47" /><path
       style="opacity:0.5;fill:#ffffff"
       inkscape:connector-curvature="0"
       d="m 415.667,352.424 c -0.177,-1.503 -1.654,-2.589 -3.3,-2.427 -0.21,0.021 -0.413,0.061 -0.607,0.119 0.054,-0.233 0.089,-0.472 0.097,-0.719 0.066,-2.192 -1.825,-4.017 -4.226,-4.078 -2.4,-0.06 -4.399,1.666 -4.465,3.858 -0.014,0.473 0.067,0.926 0.221,1.351 -0.644,-0.515 -1.511,-0.795 -2.43,-0.705 -1.742,0.171 -3.003,1.599 -2.815,3.189 0.187,1.591 1.751,2.741 3.494,2.57 0.557,-0.055 1.063,-0.239 1.49,-0.514 0.003,0.086 0.006,0.172 0.016,0.259 0.229,1.944 2.141,3.351 4.27,3.141 2.012,-0.198 3.495,-1.767 3.46,-3.578 0.589,0.41 1.342,0.625 2.137,0.547 1.645,-0.163 2.835,-1.512 2.658,-3.013 z m -11.106,-0.228 c -0.044,0.032 -0.086,0.065 -0.127,0.099 -0.013,-0.087 -0.03,-0.172 -0.052,-0.256 0.058,0.055 0.118,0.106 0.179,0.157 z"
       id="path49" /><path
       style="opacity:0.7;fill:#ffffff"
       inkscape:connector-curvature="0"
       d="m 287.045,270.612 c -0.343,0 -0.669,0.062 -0.969,0.172 -0.577,-1.405 -2.057,-2.406 -3.797,-2.406 -0.256,0 -0.505,0.024 -0.748,0.066 -0.432,-1.442 -1.873,-2.502 -3.589,-2.502 -1.126,0 -2.134,0.458 -2.817,1.18 -0.473,-1.33 -1.739,-2.367 -3.358,-2.567 -2.252,-0.279 -4.325,1.161 -4.631,3.218 -0.099,0.664 0.002,1.311 0.256,1.892 -1.475,0.546 -2.517,1.865 -2.517,3.408 0,2.031 1.804,3.678 4.029,3.678 1.393,0 2.62,-0.645 3.344,-1.626 0.529,1.222 1.833,2.088 3.359,2.088 1.79,0 3.273,-1.19 3.56,-2.75 0.745,0.812 1.862,1.329 3.112,1.329 1.148,0 2.183,-0.437 2.922,-1.137 0.471,0.433 1.123,0.702 1.844,0.702 1.434,0 2.597,-1.062 2.597,-2.371 0,-1.313 -1.163,-2.374 -2.597,-2.374 z m -12.489,0.142 c -0.132,0.037 -0.261,0.08 -0.386,0.13 0.106,-0.1 0.207,-0.205 0.301,-0.316 0.025,0.064 0.054,0.125 0.085,0.186 z m -1.606,0.925 c -0.078,0.077 -0.152,0.158 -0.222,0.242 -0.016,-0.045 -0.035,-0.089 -0.053,-0.133 0.094,-0.032 0.185,-0.071 0.275,-0.109 z"
       id="path51" /><path
       style="fill:#ffffff"
       inkscape:connector-curvature="0"
       d="m 607.879,160.283 c -0.717,-5.194 -6.7,-8.952 -13.364,-8.394 -0.849,0.071 -1.667,0.211 -2.449,0.408 0.219,-0.804 0.353,-1.633 0.383,-2.484 0.269,-7.578 -7.392,-13.891 -17.114,-14.1 -9.72,-0.209 -17.817,5.763 -18.085,13.342 -0.057,1.625 0.251,3.191 0.865,4.651 -2.604,-1.771 -6.104,-2.73 -9.811,-2.419 -7.055,0.592 -12.159,5.53 -11.4,11.03 0.759,5.501 7.093,9.48 14.148,8.888 2.25,-0.189 4.297,-0.823 6.023,-1.772 0.014,0.294 0.036,0.59 0.077,0.887 0.928,6.722 8.671,11.586 17.293,10.863 8.145,-0.683 14.159,-6.107 14.019,-12.373 2.383,1.417 5.432,2.16 8.648,1.89 6.662,-0.558 11.483,-5.222 10.767,-10.417 z m -44.994,-0.784 c -0.171,0.108 -0.338,0.218 -0.502,0.331 -0.054,-0.295 -0.119,-0.585 -0.205,-0.87 0.228,0.186 0.464,0.365 0.707,0.539 z"
       id="path53" /><path
       style="fill:#ffffff"
       inkscape:connector-curvature="0"
       d="m 474.26,158.815 c -1.587,0.079 -3.002,0.706 -4.046,1.664 0.003,-0.175 0.012,-0.349 0.003,-0.527 -0.245,-4.934 -4.826,-8.716 -10.23,-8.447 -3.354,0.167 -6.236,1.857 -7.882,4.293 -1.482,-3.297 -4.882,-5.728 -9.051,-6.035 -5.952,-0.438 -11.209,3.617 -11.743,9.057 -0.111,1.128 -0.007,2.226 0.277,3.263 -0.359,-0.027 -0.722,-0.041 -1.092,-0.022 -4.356,0.217 -7.727,3.616 -7.529,7.593 0.198,3.977 3.889,7.025 8.245,6.808 0.725,-0.036 1.418,-0.167 2.077,-0.368 1.78,2.619 5.026,4.292 8.652,4.112 3.717,-0.185 6.84,-2.268 8.309,-5.161 1.383,1.049 3.183,1.648 5.129,1.551 2.815,-0.14 5.194,-1.689 6.355,-3.856 1.441,1.437 3.552,2.294 5.86,2.179 3.25,-0.162 5.911,-2.202 6.798,-4.903 0.141,0.002 0.282,0.006 0.426,-0.002 3.388,-0.169 6.01,-2.813 5.856,-5.906 -0.154,-3.091 -3.026,-5.461 -6.414,-5.293 z"
       id="path55" /><path
       style="fill:#ffffff"
       inkscape:connector-curvature="0"
       d="m 351.706,152.794 c 2.45,-2.187 3.852,-5.319 3.541,-8.68 -0.549,-5.976 -6.304,-10.413 -12.849,-9.91 -5.855,0.448 -10.347,4.701 -10.84,9.868 -2.936,-1.2 -6.236,-1.76 -9.668,-1.496 -2.4,0.184 -4.662,0.757 -6.72,1.64 -1.622,-8.051 -9.705,-13.818 -18.825,-13.117 -9.707,0.745 -16.916,8.535 -16.099,17.399 0.049,0.535 0.128,1.061 0.232,1.579 -1.892,-0.573 -3.939,-0.816 -6.051,-0.654 -8.364,0.643 -14.574,7.355 -13.87,14.99 0.703,7.637 8.055,13.306 16.418,12.663 2.156,-0.165 4.165,-0.74 5.953,-1.624 2.703,6.236 9.635,10.397 17.331,9.806 6.318,-0.486 11.539,-4.053 14.051,-8.944 3.225,1.569 6.964,2.341 10.877,2.04 4.366,-0.336 8.277,-1.95 11.331,-4.404 2.942,4.197 8.263,6.807 14.079,6.361 8.363,-0.643 14.574,-7.354 13.87,-14.99 -0.599,-6.495 -6.012,-11.552 -12.761,-12.527 z"
       id="path57" /><path
       style="fill:#ffffff"
       inkscape:connector-curvature="0"
       d="m 477.885,237.84 c 0.841,-0.595 1.396,-1.516 1.431,-2.564 0.063,-1.862 -1.541,-3.418 -3.58,-3.475 -1.824,-0.051 -3.376,1.115 -3.729,2.694 -0.86,-0.466 -1.855,-0.747 -2.925,-0.777 -0.749,-0.021 -1.467,0.088 -2.138,0.295 -0.184,-2.54 -2.455,-4.585 -5.298,-4.665 -3.025,-0.085 -5.552,2.085 -5.645,4.847 -0.005,0.167 -10e-4,0.332 0.01,0.495 -0.561,-0.238 -1.184,-0.38 -1.842,-0.398 -2.606,-0.073 -4.783,1.797 -4.864,4.176 -0.08,2.379 1.967,4.367 4.574,4.44 0.672,0.019 1.315,-0.094 1.901,-0.309 0.591,2.012 2.567,3.522 4.965,3.589 1.969,0.055 3.718,-0.879 4.684,-2.308 0.934,0.59 2.057,0.952 3.278,0.986 1.361,0.038 2.627,-0.338 3.666,-0.997 0.743,1.394 2.285,2.374 4.1,2.425 2.606,0.073 4.783,-1.797 4.864,-4.176 0.067,-2.022 -1.407,-3.758 -3.452,-4.278 z"
       id="path59" /><path
       style="fill:#f7debf"
       inkscape:connector-curvature="0"
       d="m 432.828,219.14 c -0.151,-0.637 -0.571,-0.36 -0.884,-0.025 -0.118,-0.666 0.039,-1.984 -0.708,-1.969 -0.525,0.011 -0.691,0.473 -0.808,0.966 -0.14,-0.507 -0.375,-0.989 -0.792,-1.102 -0.823,-0.226 -0.946,0.913 -0.863,1.438 0.102,0.651 -1.013,-0.154 -1.176,-0.209 -0.217,-0.074 -0.609,0.019 -0.669,0.279 -0.112,0.477 0.108,0.915 0.288,1.352 0.358,0.873 0.588,1.699 0.706,2.593 l 2.585,0.487 c 0.273,-0.122 0.538,-0.286 0.732,-0.486 0.056,0.039 0.136,0.04 0.19,-0.04 0.548,-0.816 1.665,-2.169 1.399,-3.284 z"
       id="path61" /><path
       style="fill:#f7debf"
       inkscape:connector-curvature="0"
       d="m 354.5,263.82 c 0.189,-1.108 0.106,-2.902 -0.836,-3.496 -0.884,-0.558 -1.284,0.227 -1.361,0.99 -0.411,-0.216 -0.911,-0.402 -1.242,-0.121 -0.398,0.338 -0.28,0.916 -0.132,1.394 -0.783,-0.031 -1.971,-0.474 -2.23,0.526 -0.16,0.623 0.541,1.033 1.13,1.34 -0.55,0.178 -1.197,0.473 -0.969,0.939 0.537,1.099 2.147,0.612 3.165,0.694 -0.019,-0.013 -0.038,-0.025 -0.057,-0.037 l 2.532,-2.229 z"
       id="path63" /><path
       style="fill:#bc625d"
       inkscape:connector-curvature="0"
       d="m 420.357,310.191 c 2.698,0.176 6.73,-1.884 6.77,-3.03 0.039,-1.123 -2.785,0.32 -4.353,-0.262 l -3.555,0.995 c -0.377,0.707 -0.898,2.165 1.138,2.297 z"
       id="path65" /><path
       style="fill:#44484f"
       inkscape:connector-curvature="0"
       d="m 383.698,288.411 c 0,0 4.047,5.872 13.67,6.306 0,0 6.108,8.484 3.949,11.776 -2.186,3.334 -4.312,6.899 -4.312,6.899 l 2.698,0.886 c 0,0 6.1,-7.601 6.083,-11.191 -0.016,-3.558 -3.378,-9.154 -3.378,-9.154 0,0 4.727,0.048 9.941,-2.545 0,0 6.713,4.348 8.405,6.375 1.692,2.027 -1.557,10.137 -1.557,10.137 l 0.024,-0.007 3.555,-0.995 0.101,-0.028 c 0,0 2.736,-7.767 1.176,-10.618 -1.56,-2.851 -7.538,-7.428 -7.538,-7.428 0,0 7.648,-5.333 9.653,-9.193 -20.602,9.235 -42.47,8.78 -42.47,8.78 z"
       id="path67" /><path
       style="fill:#ffffff"
       inkscape:connector-curvature="0"
       d="m 420.999,248.236 c -0.138,0.07 -0.276,0.136 -0.414,0.205 0.268,-0.13 0.414,-0.205 0.414,-0.205 z"
       id="path69" /><path
       style="fill:#f7debf"
       inkscape:connector-curvature="0"
       d="m 401.01,254.837 c 1.422,-0.255 2.874,-0.837 4.35,-0.837 l -0.002,0 c 7.369,-2 13.606,-4.705 15.227,-5.495 0.138,-0.069 0.276,-0.167 0.414,-0.237 0,0 -0.193,-19.453 -8.749,-28.211 -4.921,4.132 -13.113,4.98 -22.264,5.437 -9.874,0.493 -9.711,7.232 -9.104,11.248 0.606,4.016 4.674,10.831 4.674,10.831 l -2.734,1.661 c -0.384,-3.762 -1.74,-7.706 -5.046,-8.454 -3.306,-0.748 -0.887,8.04 -0.887,8.04 l -1.846,-0.544 c 0.506,2.316 1.21,4.795 2.143,7.383 10.121,1.36 22.287,-0.562 23.824,-0.822 z m -0.317,-4.995 c -0.232,0.511 -0.663,0.921 -1.188,1.124 -0.372,0.142 -0.755,0.182 -1.147,0.118 -0.179,-0.055 -0.358,-0.109 -0.538,-0.164 -0.509,-0.186 -0.934,-0.697 -1.125,-1.188 -0.21,-0.542 -0.194,-1.157 0.046,-1.685 0.022,-0.048 0.046,-0.093 0.071,-0.139 0.079,0.811 0.513,1.599 1.294,1.885 0.964,0.353 2.009,0.281 2.728,-0.379 -0.031,0.147 -0.078,0.291 -0.141,0.428 z m 8.501,-17.886 c 0.678,-0.077 1.29,0.409 1.367,1.087 0.014,0.123 0.008,0.245 -0.014,0.361 -0.159,-0.097 -0.346,-0.173 -0.576,-0.209 -0.723,-0.113 -1.297,0.214 -1.647,0.692 -0.114,-0.162 -0.193,-0.352 -0.217,-0.563 -0.077,-0.679 0.41,-1.291 1.087,-1.368 z m -8.005,4.752 c 5.808,4.818 4.558,7.15 2.07,6.632 -2.489,-0.517 -2.07,-6.632 -2.07,-6.632 z m -8.988,0.541 c 0.651,-0.203 1.344,0.16 1.547,0.811 0.037,0.118 0.049,0.237 0.05,0.354 -0.164,-0.056 -0.347,-0.091 -0.561,-0.084 -0.74,0.025 -1.246,0.463 -1.497,1.006 -0.157,-0.143 -0.282,-0.324 -0.35,-0.54 -0.203,-0.651 0.16,-1.344 0.811,-1.547 z"
       id="path71" /><path
       style="fill:#bc625d"
       inkscape:connector-curvature="0"
       d="m 396.662,316.199 c 2.354,1.327 6.423,1.149 6.956,0.134 0.532,-1.015 -2.581,-0.894 -3.914,-2.054 l -2.698,-0.886 c -0.002,0 -2.7,1.478 -0.344,2.806 z"
       id="path73" /><path
       style="fill:#dbdedc"
       inkscape:connector-curvature="0"
       d="m 392.831,273.604 c 5.837,-0.73 4.196,-6.768 4.003,-8.163 0,0 -3.557,1.478 -9.582,1.216 0,0 0.135,7.628 5.579,6.947 z"
       id="path75" /><circle
       style="fill:#dbdedc"
       cx="403.64001"
       cy="257.98001"
       r="0.73299998"
       id="circle77" /><circle
       style="fill:#dbdedc"
       cx="405.01901"
       cy="262.401"
       r="0.73299998"
       id="circle79" /><circle
       style="fill:#dbdedc"
       cx="405.819"
       cy="266.51901"
       r="0.73299998"
       id="circle81" /><circle
       style="fill:#dbdedc"
       cx="406.61899"
       cy="270.63599"
       r="0.73299998"
       id="circle83" /><circle
       style="fill:#dbdedc"
       cx="407.694"
       cy="275.638"
       r="0.73299998"
       id="circle85" /><path
       style="fill:#dbdedc"
       inkscape:connector-curvature="0"
       d="m 401.175,254.745 c 0,0 -0.058,0.01 -0.165,0.028 -1.537,0.26 -13.703,2.214 -23.823,0.853 -0.02,-0.003 -0.04,-0.005 -0.06,-0.007 l 0.083,2.654 0,0 c 0.009,10e-4 17.281,0.823 20.342,2.86 0,0 -0.149,-5.374 3.623,-6.388 z"
       id="path87" /><path
       style="fill:#dbdedc"
       inkscape:connector-curvature="0"
       d="m 405.358,254 0.002,0 c 0.041,0 4.424,-0.52 6.313,3.6 0,0 4.558,-6.079 9.629,-8.198 0.049,-0.059 0.101,-0.141 0.155,-0.213 -0.031,-0.191 -0.131,-0.584 -0.458,-0.945 0,0 -0.146,0.134 -0.414,0.265 -1.62,0.79 -7.858,3.491 -15.227,5.491 z"
       id="path89" /><path
       style="fill:#674d2b"
       inkscape:connector-curvature="0"
       d="m 391.74,239.337 c 0.251,-0.543 0.758,-0.982 1.497,-1.006 0.214,-0.007 0.397,0.028 0.561,0.084 -10e-4,-0.118 -0.014,-0.237 -0.05,-0.354 -0.203,-0.651 -0.896,-1.014 -1.547,-0.811 -0.651,0.203 -1.014,0.896 -0.811,1.548 0.068,0.215 0.193,0.396 0.35,0.539 z"
       id="path91" /><path
       style="fill:#674d2b"
       inkscape:connector-curvature="0"
       d="m 408.325,233.886 c 0.349,-0.478 0.923,-0.805 1.647,-0.692 0.23,0.036 0.418,0.111 0.576,0.209 0.021,-0.116 0.028,-0.237 0.014,-0.361 -0.078,-0.678 -0.69,-1.164 -1.367,-1.087 -0.678,0.077 -1.164,0.69 -1.087,1.368 0.024,0.212 0.103,0.401 0.217,0.563 z"
       id="path93" /><path
       style="fill:#e9bf9e"
       inkscape:connector-curvature="0"
       d="m 403.259,243.341 c 2.488,0.517 3.738,-1.814 -2.07,-6.632 0,-0.001 -0.419,6.114 2.07,6.632 z"
       id="path95" /><path
       style="fill:#ca4e46"
       inkscape:connector-curvature="0"
       d="m 377.776,240.78 c 3.306,0.747 4.662,4.692 5.046,8.453 l 2.734,-1.662 c 0,0 -4.068,-6.817 -4.674,-10.833 -0.606,-4.016 -0.77,-10.759 9.104,-11.252 9.151,-0.457 17.343,-1.313 22.264,-5.445 0.388,-0.326 0.759,-0.67 1.105,-1.039 4.736,-5.036 2.031,-11.632 -3.735,-11.45 0,0 1.955,5.555 -2.479,4.494 -8.214,-1.965 -28.307,2.334 -32.978,13.526 -2.407,5.764 -0.68,17.517 0.586,22.459 l 0.288,0.243 0.006,0.002 1.846,0.544 c 0,0 -2.419,-8.788 0.887,-8.04 z"
       id="path97" /><path
       style="fill:#ffffff"
       inkscape:connector-curvature="0"
       d="m 427.88,222.455 c 0,0 -0.315,9.158 -0.917,13.349 -0.548,3.812 -3.942,11.276 -5.505,13.369 -0.054,0.072 -0.105,0.138 -0.155,0.197 -5.071,2.119 -9.629,8.166 -9.629,8.166 -1.889,-4.119 -6.272,-3.668 -6.313,-3.663 -1.476,0.349 -2.929,0.646 -4.35,0.901 0.107,-0.018 0.165,-0.028 0.165,-0.028 -3.771,1.014 -3.623,6.388 -3.623,6.388 -3.061,-2.037 -20.333,-2.859 -20.342,-2.86 0.011,0.463 0.03,0.986 0.058,1.562 -0.529,1.07 -3.482,6.652 -8.301,8.436 -5.339,1.977 -14.394,-4.517 -14.394,-4.517 l -0.073,0.065 -2.531,2.228 c 0.019,0.013 0.038,0.025 0.057,0.037 8.665,5.709 13.12,7.453 18.829,5.133 2.81,-1.142 5.177,-3.755 6.86,-6.119 0.701,5.928 2.316,14.178 5.983,23.311 0,0 21.868,0.455 42.47,-8.779 0,0 1.903,-12.585 -3.429,-27.16 3.363,-3.453 6.385,-12.703 7.094,-15.866 0.754,-3.363 0.777,-13.636 0.777,-13.636 l -0.104,-0.02 -2.585,-0.487 -0.042,-0.007 z m -19.486,52.965 c 0.121,0.386 -0.095,0.797 -0.481,0.918 -0.387,0.121 -0.798,-0.095 -0.918,-0.482 -0.121,-0.386 0.094,-0.798 0.481,-0.918 0.386,-0.121 0.798,0.095 0.918,0.482 z m -1.075,-5.002 c 0.121,0.386 -0.095,0.798 -0.482,0.918 -0.387,0.121 -0.798,-0.094 -0.918,-0.482 -0.121,-0.386 0.094,-0.797 0.482,-0.918 0.386,-0.12 0.797,0.095 0.918,0.482 z m -0.8,-4.118 c 0.121,0.387 -0.095,0.798 -0.482,0.918 -0.386,0.121 -0.797,-0.094 -0.918,-0.481 -0.121,-0.386 0.095,-0.798 0.482,-0.919 0.386,-0.12 0.797,0.096 0.918,0.482 z m -1.718,-4.598 c 0.386,-0.121 0.798,0.095 0.919,0.481 0.121,0.387 -0.095,0.798 -0.482,0.918 -0.386,0.121 -0.798,-0.095 -0.919,-0.482 -0.12,-0.386 0.096,-0.797 0.482,-0.917 z m -1.38,-4.422 c 0.387,-0.121 0.798,0.095 0.919,0.482 0.12,0.386 -0.095,0.798 -0.482,0.918 -0.386,0.121 -0.797,-0.095 -0.918,-0.481 -0.121,-0.387 0.094,-0.799 0.481,-0.919 z m -6.587,8.161 c 0.193,1.396 1.834,7.433 -4.003,8.163 -5.445,0.681 -5.58,-6.947 -5.58,-6.947 6.026,0.262 9.583,-1.216 9.583,-1.216 z"
       id="path99" /><path
       style="fill:#674d2b"
       inkscape:connector-curvature="0"
       d="m 399.277,249.229 c 0.78,0.286 1.214,1.074 1.294,1.885 0.025,-0.045 0.049,-0.091 0.071,-0.139 0.241,-0.528 0.257,-1.143 0.046,-1.685 -0.191,-0.491 -0.616,-1.001 -1.125,-1.188 -0.18,-0.055 -0.359,-0.109 -0.538,-0.164 -0.393,-0.063 -0.775,-0.024 -1.147,0.118 -0.524,0.204 -0.955,0.613 -1.188,1.124 -0.063,0.137 -0.109,0.28 -0.142,0.427 0.719,-0.659 1.764,-0.732 2.729,-0.378 z"
       id="path101" /><g
       id="g103"><ellipse
         style="fill:#cb853f"
         cx="344.819"
         cy="356.508"
         rx="28.285999"
         ry="1.723"
         id="ellipse105" /><g
         id="g107"><path
           style="fill:#ca4e46"
           inkscape:connector-curvature="0"
           d="m 364,356.172 c 0,0.119 -0.124,0.243 -0.124,0.37 0,0.933 0.716,1.69 1.649,1.69 0.933,0 1.669,-0.946 1.669,-1.879 0,-0.056 -0.031,-0.353 -0.037,-0.353 l -0.157,0 0,-2.24 c -1,0.152 -2,0.292 -3,0.419 l 0,1.993 z"
           id="path109" /><path
           style="fill:#ca4e46"
           inkscape:connector-curvature="0"
           d="m 322,355.723 c 0,0.112 0.119,0.228 0.119,0.348 0,0.845 0.766,1.53 1.611,1.53 0.845,0 1.426,-0.685 1.426,-1.53 0,-0.13 -0.156,-0.254 -0.156,-0.375 l 0,-2.242 c -1,-0.157 -2,-0.322 -3,-0.494 l 0,2.763 z"
           id="path111" /><path
           style="fill:#ca4e46"
           inkscape:connector-curvature="0"
           d="m 329.349,353.965 c -0.014,0.083 -0.026,0.166 -0.026,0.253 0,0.845 0.685,1.53 1.53,1.53 0.832,0 1.506,-0.665 1.526,-1.492 -1.049,-0.089 -2.061,-0.186 -3.03,-0.291 z"
           id="path113" /><path
           style="fill:#ca4e46"
           inkscape:connector-curvature="0"
           d="m 356.429,355.749 c 0.695,0 1.274,-0.466 1.461,-1.1 -0.933,0.052 -1.892,0.097 -2.881,0.134 0.226,0.565 0.775,0.966 1.42,0.966 z"
           id="path115" /><path
           style="fill:#44484f"
           inkscape:connector-curvature="0"
           d="m 374.391,346.76 c -1.536,1.95 -13.922,3.289 -28.948,3.044 -15.312,-0.249 -27.821,-2.053 -28.898,-4.099 -0.898,1.444 -0.418,4.575 -0.272,5.012 0.254,0.764 2.449,1.556 6.052,2.244 0.902,0.172 1.895,0.337 2.965,0.494 1.249,0.183 2.605,0.354 4.059,0.51 0.969,0.104 1.981,0.201 3.031,0.291 3.803,0.324 8.109,0.548 12.74,0.624 3.493,0.057 6.818,0.018 9.89,-0.097 0.988,-0.037 1.948,-0.082 2.881,-0.134 2.15,-0.12 4.143,-0.279 5.948,-0.47 1.199,-0.127 2.316,-0.267 3.336,-0.419 4.213,-0.628 6.812,-1.456 7.055,-2.328 0.199,-0.72 0.879,-3.208 0.161,-4.672 z"
           id="path117" /><path
           style="fill:#ca4e46"
           inkscape:connector-curvature="0"
           d="m 345.443,349.804 c 15.026,0.245 27.412,-1.095 28.948,-3.044 0.104,-0.132 0.159,-0.266 0.161,-0.403 0.035,-2.165 -12.94,-4.133 -28.981,-4.394 -16.042,-0.261 -29.074,1.283 -29.11,3.448 -0.002,0.098 0.033,0.197 0.084,0.294 1.076,2.046 13.586,3.851 28.898,4.099 z m 0.129,-6.105 c 11.347,0.184 20.53,1.247 20.512,2.373 -0.018,1.126 -9.231,1.89 -20.578,1.705 -11.347,-0.185 -20.531,-1.247 -20.512,-2.374 0.018,-1.125 9.231,-1.888 20.578,-1.704 z"
           id="path119" /><ellipse
           style="fill:#d5716b"
           transform="matrix(-0.9999,-0.0163,0.0163,-0.9999,685.407,697.0513)"
           cx="345.539"
           cy="345.73801"
           rx="20.548"
           ry="2.04"
           id="ellipse121" /></g></g><g
       id="g123"><path
         style="fill:#ffffff"
         inkscape:connector-curvature="0"
         d="m 360.391,308.075 c 0,0 -0.159,0.09 -0.444,0.276 -0.286,0.186 -0.691,0.479 -1.197,0.861 -0.505,0.383 -1.092,0.882 -1.75,1.467 -0.657,0.587 -1.356,1.294 -2.1,2.078 -0.739,0.79 -1.487,1.692 -2.258,2.659 -0.746,0.987 -1.513,2.043 -2.237,3.181 -0.378,0.558 -0.71,1.16 -1.075,1.749 -0.332,0.61 -0.689,1.215 -1.016,1.843 -0.323,0.63 -0.663,1.258 -0.958,1.912 l -0.458,0.974 -0.424,0.993 c -0.14,0.331 -0.293,0.658 -0.426,0.992 l -0.394,1.004 c -0.273,0.664 -0.502,1.341 -0.736,2.011 -0.243,0.667 -0.448,1.341 -0.661,2.004 -0.104,0.332 -0.215,0.66 -0.312,0.99 -0.092,0.331 -0.184,0.66 -0.275,0.986 -0.185,0.651 -0.363,1.293 -0.515,1.927 -0.155,0.633 -0.322,1.25 -0.457,1.857 -0.253,1.217 -0.525,2.363 -0.708,3.435 -0.1,0.535 -0.195,1.048 -0.286,1.535 -0.078,0.49 -0.153,0.955 -0.222,1.391 -0.071,0.437 -0.137,0.846 -0.198,1.225 -0.052,0.38 -0.1,0.728 -0.144,1.044 -0.179,1.262 -0.281,1.983 -0.281,1.983 0,0 0.022,-0.729 0.061,-2.003 0.013,-0.319 0.028,-0.672 0.044,-1.057 0.03,-0.384 0.062,-0.798 0.096,-1.242 0.035,-0.443 0.073,-0.916 0.113,-1.414 0.06,-0.496 0.122,-1.017 0.188,-1.561 0.115,-1.091 0.317,-2.263 0.526,-3.503 0.243,-1.234 0.481,-2.542 0.838,-3.869 0.084,-0.333 0.168,-0.67 0.253,-1.008 0.09,-0.337 0.193,-0.674 0.29,-1.014 0.195,-0.68 0.391,-1.37 0.636,-2.051 0.232,-0.684 0.46,-1.377 0.732,-2.057 l 0.393,-1.027 c 0.133,-0.342 0.284,-0.678 0.427,-1.016 l 0.443,-1.01 0.477,-0.992 c 0.307,-0.665 0.66,-1.305 0.997,-1.946 0.336,-0.641 0.716,-1.253 1.074,-1.865 0.389,-0.594 0.746,-1.199 1.148,-1.76 0.763,-1.15 1.604,-2.19 2.409,-3.163 0.825,-0.958 1.646,-1.828 2.448,-2.584 1.598,-1.52 3.09,-2.602 4.176,-3.279 1.085,-0.677 1.763,-0.956 1.763,-0.956 z"
         id="path125" /><path
         style="fill:#ffffff"
         inkscape:connector-curvature="0"
         d="m 379.776,304.116 c 0,0 -0.656,0.419 -1.737,1.24 -0.542,0.408 -1.187,0.92 -1.911,1.523 -0.727,0.6 -1.519,1.311 -2.373,2.093 -0.847,0.791 -1.737,1.674 -2.655,2.63 -0.909,0.964 -1.843,2.004 -2.763,3.116 -0.936,1.099 -1.818,2.304 -2.718,3.521 -0.869,1.24 -1.732,2.515 -2.511,3.841 l -0.596,0.987 -0.56,1.005 c -0.382,0.664 -0.726,1.345 -1.065,2.022 -0.675,1.354 -1.307,2.706 -1.851,4.043 -0.294,0.66 -0.522,1.332 -0.775,1.98 -0.122,0.325 -0.252,0.645 -0.364,0.965 -0.108,0.322 -0.215,0.64 -0.32,0.955 -0.44,1.251 -0.765,2.462 -1.101,3.573 -0.142,0.562 -0.277,1.101 -0.406,1.613 -0.066,0.256 -0.131,0.506 -0.194,0.748 -0.053,0.245 -0.104,0.483 -0.153,0.713 -0.099,0.461 -0.192,0.893 -0.278,1.293 -0.044,0.2 -0.086,0.392 -0.126,0.575 -0.033,0.184 -0.064,0.361 -0.093,0.527 -0.245,1.338 -0.385,2.102 -0.385,2.102 0,0 0.06,-0.776 0.166,-2.134 0.041,-0.682 0.176,-1.498 0.298,-2.441 0.033,-0.236 0.066,-0.479 0.101,-0.729 0.045,-0.249 0.092,-0.504 0.139,-0.767 0.099,-0.524 0.203,-1.076 0.311,-1.652 0.27,-1.139 0.529,-2.386 0.929,-3.67 0.093,-0.323 0.188,-0.65 0.284,-0.982 0.1,-0.33 0.218,-0.659 0.328,-0.995 0.224,-0.67 0.452,-1.356 0.729,-2.036 0.272,-0.682 0.525,-1.386 0.841,-2.073 0.304,-0.693 0.601,-1.399 0.957,-2.085 0.34,-0.693 0.685,-1.391 1.069,-2.072 l 0.563,-1.03 0.601,-1.011 c 0.806,-1.346 1.697,-2.639 2.594,-3.895 0.922,-1.238 1.87,-2.427 2.845,-3.526 0.957,-1.114 1.958,-2.124 2.919,-3.064 0.966,-0.936 1.921,-1.777 2.823,-2.525 1.807,-1.495 3.419,-2.603 4.579,-3.32 0.576,-0.365 1.048,-0.621 1.366,-0.799 0.319,-0.174 0.493,-0.259 0.493,-0.259 z"
         id="path127" /></g><g
       id="g129"><ellipse
         style="fill:#d89325"
         transform="matrix(0.9897,0.1433,-0.1433,0.9897,47.5123,-78.4126)"
         cx="568.28198"
         cy="290.73599"
         rx="7.7930002"
         ry="2.437"
         id="ellipse131" /><g
         id="g133"><g
           id="g135"><path
             style="fill:#44484f"
             inkscape:connector-curvature="0"
             d="m 565.756,290.002 c 0,0 0.679,0.727 2.392,0.975 1.714,0.248 2.556,-0.259 2.556,-0.259 l 8.39,-57.961 c 0,0 -4.051,0.066 -5.057,0.037 l -8.281,57.208 z"
             id="path137" /><path
             style="fill:#ca4e46"
             inkscape:connector-curvature="0"
             d="m 574.402,232.865 c 0.013,0 0.05,0 0.109,-0.002 l 10e-4,-0.006 c -0.037,0.004 -0.073,0.005 -0.11,0.008 z"
             id="path139" /><path
             style="fill:#ca4e46"
             inkscape:connector-curvature="0"
             d="m 580.075,199.016 c -1.476,3.604 -7.349,10.39 -13.732,6.691 -6.382,-3.699 -15.368,-3.42 -19.833,3.245 -4.658,6.953 -21.159,2.37 -21.159,2.37 5.062,7.887 13.382,20.917 24.371,14.797 10.864,-6.051 13.691,7.882 24.652,6.882 -10e-4,0 -0.005,0 -0.006,0 10e-4,0 -0.09,0.023 -0.088,0.023 0.036,0.005 -0.279,-0.226 -0.279,-0.235 l 0,0.006 c 1,0.028 5.076,-0.037 5.076,-0.037 l 2.174,-14.958 2.621,-18.074 -3.797,-0.71 z"
             id="path141" /></g><polygon
           style="fill:#f0a723"
           points="588.179,195.764 584.672,198.315 584.785,202.651 581.274,200.103 577.186,201.551 578.524,197.425 575.884,193.984 580.221,193.982 582.678,190.407 584.021,194.532 "
           id="polygon143" /></g></g></g></svg>