<svg xmlns="http://www.w3.org/2000/svg" preserveAspectRatio="xMinYMin meet" viewBox="0 0 124.61999 124.90699" enable-background="new 0 0 595.28 841.89"><title>Disparador exploracion</title><defs><clipPath><path d="M103.533 219.087H473.32v369.788H103.534z"/></clipPath><clipPath><path d="M103.533 219.087H473.32v369.788H103.534z"/></clipPath><clipPath><path d="M103.533 219.087H473.32v369.788H103.534z"/></clipPath><clipPath><circle r="45.061" cy="370.696" cx="322.602"/></clipPath><clipPath><circle r="45.061" cy="370.696" cx="322.602"/></clipPath><filter id="a" color-interpolation-filters="sRGB"><feColorMatrix values="0.21 0.72 0.072 0 0 0.21 0.72 0.072 0 0 0.21 0.72 0.072 0 0 0 0 0 1 0"/></filter><filter color-interpolation-filters="sRGB"><feColorMatrix values="0.21 0.72 0.072 0 0 0.21 0.72 0.072 0 0 0.21 0.72 0.072 0 0 0 0 0 1 0"/></filter><filter color-interpolation-filters="sRGB"><feColorMatrix values="0.21 0.72 0.072 0 0 0.21 0.72 0.072 0 0 0.21 0.72 0.072 0 0 0 0 0 1 0"/></filter></defs><g transform="matrix(.235 0 0 .2 -39.64 -3.704)" filter="url(#a)"><path opacity=".2" fill="#96dede" d="M296 165h265v266H296z"/><path d="M494.44 436.882c.613-6.99.932-16.428.1-27.74-4.98-1.61-9.755-2.177-15.026.67-7.522 4.066-15.67 7.452-23.405 11.183-3.6 1.735-5.544 3.872-9.124 2.183-3.6-1.7-7.375-3.622-11.276-6.406-5.44-3.884-13.124 4.1-20.08 7.958-2.688 1.49-6.018 3.185-9.483 4.563-2.794 1.11-7.57-2.538-12.102-6.01-10.155-7.785-14.72-8.024-19.787-4.48-1.013.707-2.04 1.398-3.075 2.08-.6 6.08-.95 12.58-1.085 19.38 34.87-1.264 78.005-2.57 124.342-3.38z" fill="#5da8ac"/><path d="M582.25 451h-2.29 2.29z" fill="#5da8ac"/><path d="M338.584 352.653l.398-.006" fill="none" stroke="#f0a723" stroke-width="0" stroke-linecap="round" stroke-linejoin="round"/><path d="M336.265 352.692l.334-.007" fill="none" stroke="#f0a723" stroke-width="0" stroke-linecap="round" stroke-linejoin="round"/><path d="M342.922 352.6c.123 0 .245 0 .367-.002" fill="none" stroke="#f0a723" stroke-width="0" stroke-linecap="round" stroke-linejoin="round"/><path d="M331.54 352.79l.455-.01" fill="none" stroke="#f0a723" stroke-width="0" stroke-linecap="round" stroke-linejoin="round"/><path d="M376.078 384.158c8.907-12.603 21.708-22.766 6.835-27.913C400.745 362.55 280 359.938 280 359.938v23.638c19.15 4.803 35.353 5.932 52.358 6.18 24.55.355 48.563-13.897 43.72-5.598z" fill="#f0a723"/><path d="M334.08 352.734l.294-.006" fill="none" stroke="#f0a723" stroke-width="0" stroke-linecap="round" stroke-linejoin="round"/><path fill="none" stroke="#f0a723" stroke-width="0" stroke-linecap="round" stroke-linejoin="round" d="M345 353"/><path d="M380.727 386.14l.104-.157s0 .003 0 .004c-.028.034-.063.09-.1.153z" fill="#f0a723"/><path d="M349.462 352.58h-.306" fill="none" stroke="#f0a723" stroke-width="0" stroke-linecap="round" stroke-linejoin="round"/><path d="M388.913 356.245c-.07-.025-.136-.05-.21-.075l-.062-.02-.015-.005c-.204-.068-.414-.135-.628-.202l-.045-.014c-.214-.068-.434-.133-.66-.198l-.07-.02c-.455-.13-.93-.254-1.43-.376l-.082-.02c-.25-.06-.507-.12-.77-.18-.002 0-.005 0-.008-.002-.262-.06-.53-.116-.802-.173-.02-.003-.04-.01-.062-.012-.272-.057-.55-.113-.833-.168l-.078-.015c-.57-.11-1.165-.214-1.78-.316-.038-.006-.075-.01-.112-.018-.62-.1-1.263-.198-1.93-.29l-.09-.014c-.33-.047-.67-.092-1.012-.136l-.096-.012c-.695-.088-1.414-.173-2.157-.253l-.136-.016c-.743-.08-1.51-.154-2.305-.225-.043-.004-.084-.008-.127-.01-.394-.036-.793-.07-1.2-.103l-.12-.01c-.407-.033-.82-.065-1.238-.096l-.024-.003-1.282-.09-.183-.01c-.874-.058-1.773-.11-2.7-.16l-.158-.01c-.458-.024-.923-.047-1.394-.07l-.16-.006-1.413-.06c-.02 0-.04-.002-.058-.003-.487-.02-.98-.038-1.48-.056l-.237-.007c-1.004-.034-2.035-.064-3.094-.09-.077 0-.153-.004-.23-.006-.523-.013-1.05-.025-1.588-.035-.067 0-.135-.004-.203-.005-.51-.01-1.028-.02-1.55-.027l-.16-.004c-.548-.008-1.104-.015-1.665-.02l-.302-.004c-1.14-.012-2.308-.02-3.505-.023-.102 0-.204.21-.306.208-.59 0-1.184.21-1.787.21h-.264c-.567 0-1.14-.208-1.72-.205-.074 0-.15-.105-.223-.104-.617.002-1.243-.046-1.874-.04-.122 0-.245.165-.367.166-.643.005-1.292.183-1.95.183h-.02c-.65 0-1.307-.174-1.97-.164-.132.003-.264-.09-.397-.09-.656.01-1.318-.025-1.987-.013-.11.002-.223-.02-.334-.017-.625.01-1.255.01-1.89.025-.1.002-.196-.002-.294 0-.688.014-1.384.027-2.086.043l-.457.01c-.718.017-1.44.034-2.172.053-7.42.196-27.717-1.272-43.365.198v6.895c-.004 0 120.74 2.612 102.91-3.693z" fill="#f3b94f"/><path d="M359.1 440.262c.134-6.8.484-13.3 1.084-19.38.885-8.967 2.313-17.02 4.4-23.764.313-1.01 4.252-9.527 5.143-10.978.04-.064.074-.12.1-.154.002 0 .003-.002.004-.004.536-.703.947-1.306 1.25-1.824 4.843-8.3-19.17 5.953-43.72 5.597-17.005-.247-33.21-1.376-52.36-6.18v60.28s33.268-1.752 84.1-3.593z" fill="#cb853f"/><path d="M358.406 434.216c-55.11 2.945-91.406 5.746-91.406 5.746V451h224.288s1.207-8.05 2.036-22.01c-50.235 1.3-97.114 3.205-134.918 5.226z" fill="#f0a723"/><path d="M454.69 275.9c-7.454 12.336 9.033 33.873 15.01 51.314.15.44 19.425 9.243 27.026 11.24 36.46 9.583 62.547 17.805 65.13 29.29 7.79 34.607 28.144 82.78 28.144 82.78V313.558S447.52 288.244 454.69 275.9z" fill="#f0a723"/><path d="M561.738 371.91c-2.623-12.608-29.007-21.736-66.01-32.256-7.716-2.193-27.306-11.907-27.458-12.392 9.305 29.373 13.312 55.85 14.7 77.464 1.014 15.825.625 29.218-.122 38.997C481.916 455.93 480.43 463 480.43 463h109.78c-.002 0-20.567-53.094-28.472-91.09z" fill="#d89325"/><path d="M588.66 279.224c-.426-.098-.942-.19-1.366-.288-.932-.213-1.916-.426-2.834-.633-.52-.118-1.056-.23-1.573-.346l-2.436-.542-1.63-.357-2.264-.496c-.568-.124-1.126-.243-1.688-.364l-2.12-.457c-.576-.12-1.142-.24-1.713-.36-.67-.143-1.348-.287-2.012-.426-.562-.118-1.113-.23-1.67-.346-.66-.137-1.325-.276-1.978-.41-.552-.113-1.092-.22-1.638-.333l-1.925-.39c-.555-.112-1.1-.22-1.65-.328-.612-.12-1.228-.244-1.832-.363l-1.63-.315c-.594-.116-1.193-.233-1.78-.345-.532-.1-1.052-.2-1.577-.297-.586-.11-1.178-.223-1.758-.33-.518-.097-1.026-.19-1.538-.284-.572-.105-1.15-.212-1.715-.314-.518-.095-1.025-.184-1.537-.275-.547-.098-1.1-.197-1.64-.292-.51-.09-1.01-.175-1.515-.262l-1.59-.272-1.467-.245c-.523-.088-1.05-.176-1.566-.26-.484-.08-.958-.156-1.436-.233-.506-.083-1.016-.165-1.516-.244l-1.415-.22c-.49-.076-.985-.153-1.47-.226l-1.388-.207c-.475-.07-.954-.143-1.423-.21-.46-.067-.908-.13-1.36-.194-.463-.067-.928-.134-1.385-.198-.446-.062-.884-.12-1.325-.18l-1.343-.18-1.298-.166c-.438-.056-.877-.113-1.31-.166l-1.255-.15-1.28-.154-1.226-.14c-.415-.045-.83-.093-1.238-.136-.406-.044-.804-.085-1.203-.126-.4-.042-.8-.084-1.196-.123-.396-.04-.784-.074-1.174-.11-.39-.038-.78-.076-1.163-.11-.382-.036-.758-.068-1.136-.1-.377-.034-.757-.067-1.13-.097-.373-.03-.74-.06-1.107-.087-.37-.03-.738-.057-1.1-.083-.36-.026-.715-.05-1.07-.073-.358-.025-.716-.05-1.07-.072-.35-.022-.694-.042-1.04-.06l-1.038-.06c-.34-.017-.673-.032-1.007-.047l-1.005-.043c-.33-.014-.656-.025-.982-.036-.325-.01-.65-.022-.972-.03-.32-.01-.632-.017-.945-.024-.317-.007-.635-.015-.947-.02-.31-.005-.615.01-.92.006-.306-.002-.61.01-.91.01h-.89c-.298 0-.595-.015-.887-.012-.29.003-.573 0-.856.003-.288.006-.576.006-.86.013l-.83.02c-.276.01-.553.017-.825.028-.273.012-.54.023-.808.036-.267.012-.533.025-.795.04-.26.013-.52.03-.775.045l-.772.052c-.25.018-.498.037-.745.057-.25.02-.5.04-.745.062l-.718.068c-.24.024-.48.048-.718.074-.233.025-.462.052-.69.08-.234.027-.466.054-.694.084l-.662.09c-.225.03-.447.062-.667.095-.213.032-.425.066-.635.1-.215.034-.43.07-.64.106-.206.034-.41.07-.61.108l-.618.12-.583.12c-.2.04-.4.083-.594.126-.188.042-.375.085-.56.13-.19.045-.38.09-.566.137-.18.046-.358.092-.534.14-.183.048-.366.097-.545.148l-.507.15c-.176.05-.35.104-.52.16-.165.05-.326.102-.486.155-.168.056-.334.112-.498.17-.156.054-.31.11-.462.166l-.474.18-.44.175c-.152.062-.303.125-.452.19-.14.06-.277.12-.413.182-.147.066-.29.133-.433.2-.132.063-.263.126-.39.19-.14.07-.277.14-.41.21-.125.065-.25.13-.37.197l-.388.22c-.12.07-.235.137-.35.207l-.366.23c-.11.07-.22.14-.327.214-.12.08-.234.16-.348.24-.103.072-.206.145-.306.22-.11.08-.22.164-.327.248-.097.075-.193.15-.286.226-.104.085-.206.172-.307.26-.09.076-.18.154-.265.23-.098.09-.193.18-.287.27-.083.078-.166.158-.246.238-.093.092-.18.184-.27.278-.077.08-.153.163-.227.245-.085.094-.167.19-.25.287-.07.083-.14.167-.207.25-.08.1-.155.197-.23.297-.065.085-.13.17-.192.257-.072.1-.142.204-.21.306-.06.087-.118.174-.175.262-.068.104-.13.21-.195.315-.035.057-.072.113-.106.17-.01.015.185.03.18.043-6.785 12.34 128.12 37.652 128.12 37.652V280.18c-2-.324-2.973-.643-4.34-.956z" fill="#f3b94f"/><path d="M487.367 378.187c-.775-.04-1.496.192-2.056.605.013-.085.027-.17.033-.256.152-2.41-1.863-4.475-4.502-4.615-1.637-.085-3.13.59-4.064 1.695-.537-1.677-2.052-3.03-4.06-3.386-2.865-.51-5.64 1.196-6.2 3.812-.116.544-.122 1.082-.042 1.6-.174-.032-.35-.057-.533-.066-2.126-.112-3.95 1.37-4.073 3.312-.123 1.942 1.5 3.608 3.627 3.72.354.02.698-.01 1.028-.075.72 1.362 2.205 2.337 3.976 2.43 1.814.097 3.446-.758 4.318-2.09.613.58 1.454.96 2.404 1.01 1.375.074 2.616-.56 3.3-1.555.62.77 1.597 1.292 2.724 1.35 1.586.085 2.992-.773 3.57-2.04.07.007.138.016.208.02 1.654.086 3.073-1.067 3.17-2.577.094-1.507-1.17-2.802-2.823-2.89z" opacity=".5" fill="#fff"/><path d="M415.667 352.424c-.177-1.503-1.654-2.59-3.3-2.427-.21.02-.413.06-.607.12.054-.234.09-.473.097-.72.066-2.192-1.825-4.017-4.226-4.078-2.4-.06-4.397 1.664-4.463 3.856-.014.473.067.926.22 1.35-.643-.514-1.51-.794-2.43-.704-1.74.17-3.002 1.6-2.814 3.19.187 1.59 1.75 2.74 3.494 2.57.557-.056 1.063-.24 1.49-.515.003.086.006.172.016.26.23 1.943 2.14 3.35 4.27 3.14 2.012-.198 3.495-1.767 3.46-3.578.59.41 1.342.624 2.137.546 1.644-.163 2.834-1.512 2.657-3.013zm-11.106-.228c-.042.032-.084.065-.125.1-.013-.088-.03-.173-.052-.257.058.053.118.104.18.155z" opacity=".5" fill="#fff"/><path d="M287.045 270.612c-.343 0-.67.062-.97.172-.576-1.405-2.056-2.406-3.796-2.406-.258 0-.507.024-.75.066-.43-1.442-1.873-2.502-3.59-2.502-1.125 0-2.133.458-2.816 1.18-.473-1.33-1.74-2.367-3.358-2.567-2.252-.28-4.325 1.16-4.63 3.218-.1.664 0 1.31.255 1.892-1.474.546-2.516 1.865-2.516 3.408 0 2.03 1.804 3.678 4.03 3.678 1.392 0 2.62-.643 3.343-1.624.53 1.222 1.833 2.088 3.36 2.088 1.79 0 3.272-1.19 3.56-2.75.744.812 1.86 1.33 3.11 1.33 1.15 0 2.184-.438 2.923-1.138.472.433 1.124.702 1.845.702 1.434 0 2.597-1.062 2.597-2.37 0-1.314-1.163-2.375-2.597-2.375zm-12.49.142c-.13.037-.26.08-.385.13.106-.1.207-.205.3-.316.026.064.055.125.086.186zm-1.605.925c-.078.075-.152.156-.222.24-.016-.045-.035-.09-.053-.133.094-.032.185-.07.275-.11z" opacity=".7" fill="#fff"/><path d="M607.88 160.283c-.718-5.194-6.7-8.952-13.365-8.394-.85.07-1.667.21-2.45.406.22-.804.354-1.633.384-2.484.267-7.578-7.394-13.89-17.116-14.1-9.72-.21-17.817 5.763-18.085 13.342-.058 1.625.25 3.19.864 4.65-2.604-1.77-6.104-2.73-9.81-2.418-7.056.592-12.16 5.53-11.4 11.03.758 5.5 7.092 9.48 14.147 8.888 2.25-.19 4.298-.823 6.024-1.772.014.294.036.59.077.887.93 6.72 8.67 11.585 17.294 10.862 8.145-.683 14.16-6.107 14.02-12.373 2.382 1.416 5.43 2.16 8.647 1.89 6.663-.56 11.484-5.223 10.768-10.418zm-44.995-.784c-.17.106-.338.216-.502.33-.054-.296-.12-.586-.205-.87.228.185.464.364.707.54z" fill="#fff"/><path d="M474.26 158.815c-1.587.08-3.002.706-4.046 1.664.003-.177.012-.35.003-.53-.245-4.933-4.826-8.715-10.23-8.446-3.354.167-6.236 1.857-7.882 4.293-1.482-3.297-4.882-5.728-9.05-6.035-5.953-.438-11.21 3.617-11.744 9.057-.11 1.127-.005 2.225.28 3.262-.36-.027-.723-.04-1.093-.022-4.356.218-7.727 3.617-7.53 7.594.2 3.977 3.89 7.025 8.246 6.808.725-.036 1.418-.167 2.077-.368 1.78 2.62 5.025 4.292 8.65 4.112 3.718-.185 6.84-2.268 8.31-5.16 1.383 1.048 3.183 1.647 5.13 1.55 2.814-.14 5.193-1.69 6.354-3.856 1.44 1.437 3.552 2.294 5.86 2.18 3.25-.163 5.91-2.203 6.798-4.904.14.002.282.006.426-.002 3.388-.17 6.01-2.813 5.856-5.906-.154-3.09-3.026-5.46-6.414-5.293z" fill="#fff"/><path d="M351.706 152.794c2.45-2.187 3.852-5.32 3.54-8.68-.548-5.976-6.303-10.413-12.848-9.91-5.855.448-10.347 4.7-10.84 9.868-2.936-1.2-6.236-1.76-9.668-1.496-2.4.184-4.662.757-6.72 1.64-1.622-8.05-9.705-13.818-18.825-13.117-9.707.743-16.916 8.533-16.1 17.397.05.535.13 1.06.233 1.58-1.892-.574-3.94-.817-6.05-.655-8.365.643-14.575 7.355-13.87 14.99.702 7.637 8.054 13.306 16.417 12.663 2.156-.165 4.165-.74 5.953-1.624 2.703 6.237 9.635 10.398 17.33 9.807 6.32-.486 11.54-4.053 14.052-8.944 3.225 1.57 6.964 2.34 10.877 2.04 4.366-.336 8.277-1.95 11.33-4.404 2.943 4.196 8.264 6.806 14.08 6.36 8.363-.643 14.574-7.354 13.87-14.99-.6-6.495-6.012-11.55-12.76-12.527z" fill="#fff"/><path d="M477.885 237.84c.84-.595 1.396-1.516 1.43-2.564.064-1.862-1.54-3.418-3.58-3.475-1.823-.05-3.375 1.117-3.728 2.696-.86-.466-1.855-.747-2.925-.777-.75-.02-1.467.087-2.138.294-.184-2.54-2.455-4.585-5.298-4.665-3.025-.086-5.552 2.084-5.645 4.846-.003.167 0 .332.01.495-.56-.237-1.182-.38-1.84-.397-2.606-.073-4.783 1.797-4.864 4.176-.08 2.38 1.967 4.366 4.574 4.44.67.02 1.314-.095 1.9-.31.59 2.012 2.567 3.522 4.965 3.59 1.97.054 3.718-.88 4.684-2.31.932.59 2.055.953 3.276.987 1.36.038 2.627-.338 3.666-.997.743 1.393 2.285 2.373 4.1 2.424 2.606.073 4.783-1.797 4.864-4.176.067-2.022-1.407-3.758-3.452-4.278z" fill="#fff"/><path d="M432.828 219.14c-.15-.637-.57-.36-.884-.025-.118-.666.04-1.984-.708-1.97-.525.012-.69.474-.808.967-.14-.507-.375-.99-.792-1.102-.823-.226-.946.913-.863 1.438.102.65-1.013-.154-1.176-.21-.217-.073-.61.02-.67.28-.11.477.11.915.29 1.352.357.873.587 1.7.705 2.593l2.585.487c.273-.122.538-.286.732-.486.054.04.134.04.19-.04.546-.816 1.663-2.17 1.397-3.284z" fill="#f7debf"/><path d="M354.5 263.82c.19-1.108.106-2.902-.836-3.496-.884-.558-1.284.227-1.36.99-.412-.216-.912-.402-1.243-.12-.396.337-.28.915-.13 1.393-.783-.03-1.97-.474-2.23.526-.16.623.54 1.033 1.13 1.34-.55.178-1.197.473-.97.94.538 1.098 2.148.61 3.166.693l-.057-.037 2.53-2.23z" fill="#f7debf"/><path d="M420.357 310.19c2.698.177 6.73-1.883 6.77-3.03.04-1.122-2.785.32-4.353-.26l-3.555.994c-.38.707-.9 2.165 1.136 2.297z" fill="#bc625d"/><path d="M383.698 288.41s4.047 5.873 13.67 6.307c0 0 6.108 8.484 3.95 11.776-2.187 3.334-4.313 6.9-4.313 6.9l2.698.885s6.1-7.6 6.083-11.19c-.016-3.56-3.378-9.155-3.378-9.155s4.727.048 9.94-2.545c0 0 6.714 4.348 8.406 6.375 1.692 2.027-1.557 10.137-1.557 10.137l.024-.007 3.557-.995.1-.028s2.737-7.767 1.177-10.618c-1.56-2.85-7.538-7.428-7.538-7.428s7.648-5.333 9.653-9.193c-20.603 9.237-42.47 8.78-42.47 8.78z" fill="#44484f"/><path d="M421 248.236l-.415.205c.268-.13.414-.203.414-.203z" fill="#fff"/><path d="M401.01 254.837c1.422-.255 2.874-.837 4.35-.837h-.002c7.37-2 13.606-4.705 15.227-5.495.138-.07.276-.167.414-.237 0 0-.195-19.453-8.75-28.21-4.92 4.13-13.114 4.98-22.265 5.436-9.874.493-9.71 7.232-9.104 11.248.607 4.016 4.675 10.83 4.675 10.83l-2.734 1.662c-.383-3.762-1.74-7.706-5.045-8.454-3.306-.748-.887 8.04-.887 8.04l-1.847-.544c.507 2.316 1.21 4.795 2.144 7.383 10.12 1.36 22.287-.564 23.824-.824zm-.317-4.995c-.232.51-.663.92-1.188 1.124-.372.142-.755.182-1.147.118l-.538-.164c-.51-.186-.934-.697-1.125-1.188-.21-.542-.194-1.157.046-1.685l.073-.14c.08.812.513 1.6 1.294 1.886.964.353 2.01.28 2.728-.38-.03.148-.078.292-.14.43zm8.5-17.886c.68-.077 1.29.41 1.368 1.087.016.123.01.245-.012.36-.16-.096-.346-.172-.576-.208-.722-.113-1.296.214-1.646.692-.114-.162-.193-.352-.217-.563-.078-.68.41-1.29 1.086-1.368zm-8.004 4.752c5.806 4.818 4.556 7.15 2.07 6.632-2.49-.517-2.07-6.632-2.07-6.632zm-8.99.54c.65-.202 1.344.16 1.547.812.037.118.05.237.05.354-.164-.056-.347-.09-.56-.084-.74.025-1.247.463-1.498 1.006-.158-.143-.283-.324-.35-.54-.204-.65.16-1.344.81-1.547z" fill="#f7debf"/><path d="M396.662 316.2c2.354 1.326 6.423 1.148 6.956.133.532-1.015-2.58-.894-3.914-2.054l-2.698-.888c-.002 0-2.7 1.478-.344 2.806z" fill="#bc625d"/><path d="M392.83 273.604c5.838-.73 4.197-6.768 4.004-8.163 0 0-3.557 1.48-9.582 1.218 0 0 .135 7.628 5.58 6.947z" fill="#dbdedc"/><circle cx="403.64" cy="257.98" r=".733" fill="#dbdedc"/><circle cx="405.019" cy="262.401" r=".733" fill="#dbdedc"/><circle cx="405.819" cy="266.519" r=".733" fill="#dbdedc"/><circle cx="406.619" cy="270.636" r=".733" fill="#dbdedc"/><circle cx="407.694" cy="275.638" r=".733" fill="#dbdedc"/><path d="M401.175 254.745l-.165.028c-1.537.26-13.703 2.214-23.823.853l-.06-.007.083 2.652c.01 0 17.28.823 20.342 2.86 0 0-.15-5.374 3.623-6.388z" fill="#dbdedc"/><path d="M405.358 254h.002c.04 0 4.424-.52 6.313 3.6 0 0 4.558-6.08 9.63-8.198.048-.06.1-.14.154-.213-.03-.193-.13-.586-.458-.947 0 0-.148.134-.416.265-1.62.79-7.858 3.49-15.227 5.49z" fill="#dbdedc"/><path d="M391.74 239.337c.25-.543.758-.982 1.497-1.006.214-.005.397.03.56.086 0-.118-.013-.237-.05-.354-.202-.65-.895-1.013-1.546-.81-.65.203-1.012.896-.81 1.548.07.215.194.396.35.54z" fill="#674d2b"/><path d="M408.325 233.886c.35-.478.923-.805 1.647-.692.23.036.418.11.576.21.02-.117.028-.238.014-.362-.078-.678-.69-1.164-1.367-1.087-.678.077-1.164.69-1.087 1.368.024.212.103.4.217.563z" fill="#674d2b"/><path d="M403.26 243.34c2.487.518 3.737-1.813-2.07-6.63 0-.002-.42 6.113 2.07 6.63z" fill="#e9bf9e"/><path d="M377.776 240.78c3.306.747 4.662 4.692 5.046 8.453l2.734-1.662s-4.068-6.815-4.674-10.83c-.606-4.017-.77-10.76 9.104-11.253 9.15-.457 17.343-1.313 22.264-5.445.388-.325.76-.67 1.105-1.038 4.736-5.036 2.03-11.632-3.735-11.45 0 0 1.955 5.555-2.48 4.494-8.213-1.965-28.306 2.334-32.977 13.526-2.407 5.764-.68 17.517.586 22.46l.286.242.006.002 1.846.544s-2.42-8.788.886-8.04z" fill="#ca4e46"/><path d="M427.88 222.455s-.315 9.158-.917 13.35c-.548 3.81-3.942 11.275-5.505 13.368-.054.072-.105.138-.155.197-5.07 2.12-9.63 8.166-9.63 8.166-1.888-4.12-6.27-3.668-6.312-3.663-1.474.35-2.927.646-4.35.9l.167-.027c-3.77 1.014-3.623 6.388-3.623 6.388-3.06-2.037-20.333-2.86-20.342-2.86.012.463.03.986.06 1.562-.53 1.07-3.483 6.652-8.302 8.436-5.34 1.977-14.394-4.517-14.394-4.517l-.073.065-2.53 2.228.057.037c8.665 5.71 13.12 7.453 18.83 5.133 2.81-1.142 5.176-3.755 6.86-6.12.7 5.93 2.315 14.18 5.982 23.312 0 0 21.867.455 42.47-8.78 0 0 1.902-12.584-3.43-27.16 3.363-3.452 6.385-12.702 7.094-15.865.754-3.363.777-13.636.777-13.636l-.103-.02-2.585-.49-.042-.006zm-19.486 52.965c.12.386-.095.797-.48.918-.388.12-.8-.095-.92-.482-.12-.386.095-.798.482-.918.386-.12.798.095.918.482zm-1.075-5.002c.12.386-.097.798-.484.918s-.798-.094-.918-.482c-.122-.386.093-.797.48-.918.387-.12.798.095.92.482zm-.8-4.118c.12.387-.097.798-.484.918-.386.12-.797-.094-.918-.48-.122-.387.094-.8.48-.92.387-.12.798.096.92.482zm-1.72-4.598c.386-.12.8.095.92.48.12.388-.096.8-.483.92-.386.12-.798-.096-.92-.483-.12-.388.097-.8.483-.92zm-1.38-4.422c.387-.12.8.095.92.482.12.386-.096.798-.483.918-.386.12-.797-.095-.918-.48-.12-.388.093-.8.48-.92zm-6.587 8.16c.193 1.397 1.834 7.434-4.003 8.164-5.444.68-5.58-6.947-5.58-6.947 6.027.262 9.584-1.216 9.584-1.216z" fill="#fff"/><path d="M399.277 249.23c.78.285 1.214 1.073 1.294 1.884.027-.045.05-.09.073-.14.24-.527.257-1.142.046-1.684-.19-.49-.617-1-1.126-1.188l-.538-.164c-.393-.063-.775-.024-1.147.118-.525.204-.956.613-1.19 1.124-.062.137-.11.28-.14.427.72-.66 1.763-.732 2.73-.378z" fill="#674d2b"/><g><ellipse cx="344.819" cy="356.508" rx="28.286" ry="1.723" fill="#cb853f"/><g><path d="M364 356.172c0 .12-.124.243-.124.37 0 .933.716 1.69 1.65 1.69.932 0 1.668-.946 1.668-1.88 0-.055-.03-.352-.037-.352H367v-2.24c-1 .152-2 .292-3 .42v1.992z" fill="#ca4e46"/><path d="M322 355.723c0 .112.12.228.12.348 0 .847.765 1.53 1.61 1.53.845 0 1.426-.683 1.426-1.53 0-.13-.156-.252-.156-.373v-2.242c-1-.157-2-.322-3-.494v2.764z" fill="#ca4e46"/><path d="M329.35 353.965c-.015.083-.027.166-.027.253 0 .845.685 1.53 1.53 1.53.832 0 1.506-.665 1.526-1.492-1.05-.09-2.063-.186-3.03-.29z" fill="#ca4e46"/><path d="M356.43 355.75c.694 0 1.273-.467 1.46-1.1-.933.05-1.892.096-2.88.133.225.565.774.966 1.42.966z" fill="#ca4e46"/><path d="M374.39 346.76c-1.535 1.95-13.92 3.29-28.947 3.044-15.312-.25-27.82-2.053-28.898-4.1-.898 1.445-.418 4.576-.272 5.013.254.764 2.45 1.556 6.052 2.244.902.174 1.895.34 2.965.496 1.25.183 2.605.354 4.06.51.968.104 1.98.2 3.03.29 3.803.325 8.11.55 12.74.625 3.493.058 6.818.02 9.89-.096.988-.037 1.948-.082 2.88-.134 2.15-.12 4.144-.28 5.95-.47 1.198-.128 2.315-.268 3.335-.42 4.213-.628 6.812-1.456 7.055-2.328.2-.72.88-3.208.16-4.672z" fill="#44484f"/><path d="M345.443 349.804c15.026.245 27.412-1.095 28.948-3.044.106-.132.16-.266.163-.403.035-2.165-12.94-4.133-28.98-4.394-16.043-.26-29.075 1.283-29.11 3.448-.003.1.032.2.083.296 1.076 2.046 13.586 3.85 28.898 4.1zm.13-6.105c11.346.182 20.53 1.245 20.51 2.37-.017 1.127-9.23 1.89-20.577 1.706-11.347-.185-20.53-1.247-20.512-2.374.018-1.125 9.23-1.888 20.578-1.704z" fill="#ca4e46"/><ellipse transform="matrix(-1 -.016 .016 -1 685.407 697.051)" cx="345.539" cy="345.738" rx="20.548" ry="2.04" fill="#d5716b"/></g></g><g fill="#fff"><path d="M360.39 308.075s-.158.09-.443.276c-.286.188-.69.48-1.197.863-.505.383-1.092.882-1.75 1.467-.657.586-1.356 1.293-2.1 2.077-.74.79-1.487 1.692-2.258 2.66-.746.986-1.513 2.042-2.237 3.18-.378.558-.71 1.16-1.075 1.75-.332.61-.69 1.214-1.016 1.842-.323.63-.663 1.256-.958 1.91l-.458.974-.424.993c-.14.33-.293.658-.426.992l-.394 1.003c-.273.664-.502 1.34-.736 2.01-.243.668-.448 1.342-.66 2.005-.105.33-.216.66-.313.99l-.275.985c-.185.65-.363 1.293-.515 1.927-.155.633-.322 1.25-.457 1.857-.253 1.216-.525 2.362-.708 3.434l-.286 1.536-.222 1.39-.198 1.225-.144 1.045c-.18 1.26-.28 1.982-.28 1.982s.02-.73.06-2.003l.044-1.058.096-1.242.113-1.414.188-1.56c.117-1.092.32-2.264.528-3.504.243-1.234.48-2.542.838-3.87l.253-1.007c.09-.338.192-.675.29-1.015.194-.68.39-1.37.635-2.05.232-.684.46-1.377.732-2.057l.393-1.027c.132-.34.283-.677.426-1.015l.443-1.01.475-.992c.307-.665.66-1.305.997-1.946.336-.64.716-1.253 1.074-1.865.39-.594.746-1.2 1.148-1.76.763-1.15 1.604-2.19 2.41-3.163.824-.96 1.645-1.83 2.447-2.585 1.6-1.52 3.09-2.602 4.177-3.28 1.085-.676 1.763-.955 1.763-.955z"/><path d="M379.776 304.116s-.656.42-1.737 1.24c-.544.408-1.19.92-1.913 1.523-.727.6-1.52 1.31-2.373 2.09-.847.79-1.737 1.675-2.655 2.63-.91.965-1.844 2.005-2.764 3.117-.936 1.1-1.818 2.304-2.718 3.52-.87 1.24-1.733 2.516-2.512 3.842l-.596.986-.56 1.005c-.382.665-.726 1.346-1.065 2.023-.675 1.354-1.307 2.706-1.85 4.043-.295.66-.523 1.332-.776 1.98-.12.325-.25.645-.364.965l-.32.956c-.44 1.25-.765 2.462-1.1 3.573-.143.56-.278 1.1-.407 1.612-.067.256-.13.506-.195.748l-.153.714c-.1.46-.192.893-.278 1.293l-.126.575c-.034.184-.065.36-.094.527l-.385 2.1.166-2.134c.04-.682.176-1.498.298-2.44l.1-.73.14-.767c.1-.525.203-1.077.31-1.653.27-1.14.53-2.386.93-3.67l.284-.982c.1-.33.217-.66.327-.995.224-.67.452-1.355.73-2.035.27-.682.524-1.386.84-2.073.304-.693.6-1.4.957-2.085.34-.693.685-1.39 1.07-2.072l.562-1.03.6-1.01c.807-1.347 1.698-2.64 2.595-3.896.922-1.24 1.87-2.43 2.845-3.528.957-1.114 1.958-2.124 2.92-3.064.965-.937 1.92-1.778 2.822-2.526 1.807-1.495 3.42-2.603 4.58-3.32.575-.365 1.047-.62 1.365-.8.32-.173.493-.258.493-.258z"/></g><g><ellipse transform="matrix(.99 .143 -.143 .99 47.512 -78.413)" cx="568.282" cy="290.736" rx="7.793" ry="2.437" fill="#d89325"/><g><g><path d="M565.756 290.002s.68.727 2.392.975c1.714.248 2.556-.26 2.556-.26l8.39-57.96s-4.05.066-5.057.037l-8.28 57.208z" fill="#44484f"/><path d="M574.402 232.865l.11-.002v-.006c-.037.004-.073.005-.11.008z" fill="#ca4e46"/><path d="M580.075 199.016c-1.476 3.604-7.35 10.39-13.732 6.69-6.382-3.698-15.368-3.42-19.833 3.246-4.658 6.953-21.16 2.37-21.16 2.37 5.063 7.887 13.383 20.917 24.372 14.797 10.864-6.053 13.69 7.88 24.652 6.88h-.006l-.088.023c.036.005-.28-.226-.28-.235v.005c1 .028 5.077-.037 5.077-.037l2.174-14.958 2.623-18.074-3.797-.71z" fill="#ca4e46"/></g><path fill="#f0a723" d="M588.18 195.764l-3.508 2.55.113 4.337-3.51-2.546-4.09 1.448 1.34-4.125-2.64-3.44 4.336-.003 2.46-3.575 1.342 4.124z"/></g></g></g></svg>