<svg xmlns="http://www.w3.org/2000/svg" preserveAspectRatio="xMinYMin meet" viewBox="0 0 124.61999 124.90699" enable-background="new 0 0 595.28 841.89"><title>Disparador exploracion</title><defs><clipPath><path d="M103.533 219.087H473.32v369.788H103.534z"/></clipPath><clipPath><path d="M103.533 219.087H473.32v369.788H103.534z"/></clipPath><clipPath><path d="M103.533 219.087H473.32v369.788H103.534z"/></clipPath><clipPath><circle r="45.061" cy="370.696" cx="322.602"/></clipPath><clipPath><circle r="45.061" cy="370.696" cx="322.602"/></clipPath><linearGradient id="a" gradientUnits="userSpaceOnUse" x1="251.056" y1="391.562" x2="541.72" y2="391.562"><stop offset=".813" stop-color="#C3E2E8"/><stop offset="1" stop-color="#C9E9F4"/></linearGradient><radialGradient id="b" cx="429.187" cy="727.86" r="175.115" gradientTransform="matrix(.906 0 0 .529 9.747 138.316)" gradientUnits="userSpaceOnUse"><stop offset="0" stop-color="#FFF33E"/><stop offset=".944" stop-color="#FFD400"/></radialGradient><linearGradient id="c" gradientUnits="userSpaceOnUse" x1="-99.159" y1="27.275" x2="-92.32" y2="29.509" gradientTransform="matrix(.673 .733 -.734 .646 416.07 435.629)"><stop offset="0" stop-color="#fff"/><stop offset=".462" stop-color="#FFEA83"/><stop offset=".834" stop-color="#FFDA25"/><stop offset="1" stop-color="#FFD400"/></linearGradient><linearGradient id="d" gradientUnits="userSpaceOnUse" x1="299.476" y1="283.484" x2="299.275" y2="286.116"><stop offset="0" stop-color="#fff"/><stop offset=".222" stop-color="#F4F4F4"/><stop offset=".589" stop-color="#EAEAEA"/><stop offset="1" stop-color="#E6E6E6"/></linearGradient><linearGradient id="e" gradientUnits="userSpaceOnUse" x1="412.759" y1="475.181" x2="412.553" y2="477.878" gradientTransform="matrix(.83 -.046 .051 .906 43.08 85.034)"><stop offset="0" stop-color="#fff"/><stop offset=".222" stop-color="#F4F4F4"/><stop offset=".589" stop-color="#EAEAEA"/><stop offset="1" stop-color="#E6E6E6"/></linearGradient><linearGradient id="f" gradientUnits="userSpaceOnUse" x1="456.702" y1="257.766" x2="456.4" y2="261.725" gradientTransform="matrix(.642 -.357 .486 .874 82.453 297.961)"><stop offset="0" stop-color="#fff"/><stop offset=".222" stop-color="#F4F4F4"/><stop offset=".589" stop-color="#EAEAEA"/><stop offset="1" stop-color="#E6E6E6"/></linearGradient><linearGradient id="g" gradientUnits="userSpaceOnUse" x1="212.75" y1="445.887" x2="233.401" y2="445.887" gradientTransform="matrix(.869 -.306 .288 .819 -30.258 79.357)"><stop offset="0" stop-color="#FFD400"/><stop offset=".42" stop-color="#FED201"/><stop offset=".572" stop-color="#FCCB04"/><stop offset=".68" stop-color="#F8C00A"/><stop offset=".767" stop-color="#F1AF13"/><stop offset=".842" stop-color="#E9991E"/><stop offset=".907" stop-color="#E07E2B"/><stop offset=".927" stop-color="#DC7430"/></linearGradient><radialGradient id="h" cx="310.292" cy="563.069" r="9.141" gradientTransform="matrix(.906 0 0 .829 9.747 -93.8)" gradientUnits="userSpaceOnUse"><stop offset="0" stop-color="#B3D234"/><stop offset=".191" stop-color="#B4C321"/><stop offset=".442" stop-color="#B5B50E"/><stop offset=".706" stop-color="#B6AD04"/><stop offset="1" stop-color="#B6AA00"/></radialGradient><linearGradient id="i" gradientUnits="userSpaceOnUse" x1="209.182" y1="436.937" x2="222.159" y2="443.881" gradientTransform="matrix(.869 -.306 .288 .819 -30.258 79.357)"><stop offset="0" stop-color="#fff"/><stop offset=".053" stop-color="#F6FAE8"/><stop offset=".176" stop-color="#E5EFB9"/><stop offset=".304" stop-color="#D5E690"/><stop offset=".433" stop-color="#C9DF6F"/><stop offset=".565" stop-color="#BFD955"/><stop offset=".7" stop-color="#B8D542"/><stop offset=".842" stop-color="#B4D338"/><stop offset="1" stop-color="#B3D234"/></linearGradient><linearGradient id="j" gradientUnits="userSpaceOnUse" x1="220.777" y1="435.562" x2="223.071" y2="437.905" gradientTransform="matrix(.869 -.306 .288 .819 -30.258 79.357)"><stop offset="0" stop-color="#fff"/><stop offset=".109" stop-color="#FEEDCB"/><stop offset=".225" stop-color="#FEDD9C"/><stop offset=".345" stop-color="#FDCF73"/><stop offset=".466" stop-color="#FDC352"/><stop offset=".59" stop-color="#FCBA38"/><stop offset=".718" stop-color="#FCB425"/><stop offset=".851" stop-color="#FCB01B"/><stop offset="1" stop-color="#FCAF17"/></linearGradient><linearGradient id="k" gradientUnits="userSpaceOnUse" x1="221.246" y1="445.405" x2="225.77" y2="457.307" gradientTransform="matrix(.869 -.306 .288 .819 -30.258 79.357)"><stop offset=".006" stop-color="#fff"/><stop offset="1" stop-color="#E6E6E6"/></linearGradient></defs><g transform="matrix(.297 0 0 .254 -55.57 -41.44)"><linearGradient gradientUnits="userSpaceOnUse" x1="251.056" y1="391.562" x2="541.72" y2="391.562"><stop offset=".813" stop-color="#C3E2E8"/><stop offset="1" stop-color="#C9E9F4"/></linearGradient><path fill="url(#a)" d="M541.72 330.375V524.66H251.056V258.464H541.72z"/><radialGradient cx="429.187" cy="727.86" r="175.115" gradientTransform="matrix(.906 0 0 .529 9.747 138.316)" gradientUnits="userSpaceOnUse"><stop offset="0" stop-color="#FFF33E"/><stop offset=".944" stop-color="#FFD400"/></radialGradient><path d="M541.885 531.607H251.5v-53.704s74.448-11.16 142.878-11.16c72.244 0 147.506 10.507 147.506 10.507v54.357z" fill="url(#b)"/><path d="M331.62 398.45c2.047-3.842 3.606-7.554 5.655-11.393.98-1.462.988-3.034 1.968-4.495 7.286-2.47 11.313.88 11.507 4.517-.43 3.16-3.795 5.66-8.595 5.394-2.958.012-4.337-.994-5.134-.764 2.018 1.04 3.42 1.387 4.36 3.186 1.337 2.562-1.31 7.09-4.703 7.133-2.004-.307-4.017-1.156-5.055-3.58zM324.256 387.4c1.775-.44 2.896-.06 5.037.786-3.913-2.323-9.52-9.15-4.807-12.667 3.907-2.92 8.835.264 10.876 5.294-1.997 4.746-4.544 8.713-6.558 13.454-.643.702-.64 1.653-1.283 2.358-3.367 1.324-6.402-.306-7.336-2.863-.136-.453-1.976-4.7 4.073-6.365z" clip-rule="evenodd" fill="#10a3dd" fill-rule="evenodd"/><path d="M337.79 380.613c1.277.502 1.915 1.76 1.422 2.81l-6.683 14.237c-.49 1.05-1.93 1.49-3.206.99-1.28-.505-1.917-1.763-1.424-2.812l6.684-14.237c.49-1.047 1.927-1.49 3.206-.986z" clip-rule="evenodd" fill="#ffd400" fill-rule="evenodd"/><linearGradient gradientUnits="userSpaceOnUse" x1="-99.159" y1="27.275" x2="-92.32" y2="29.509" gradientTransform="matrix(.673 .733 -.734 .646 416.07 435.629)"><stop offset="0" stop-color="#fff"/><stop offset=".462" stop-color="#FFEA83"/><stop offset=".834" stop-color="#FFDA25"/><stop offset="1" stop-color="#FFD400"/></linearGradient><path d="M337.44 381.39c1 .394 1.44 1.504.982 2.48l-6.215 13.24c-.457.977-1.64 1.446-2.64 1.054-1-.393-1.44-1.502-.98-2.48l6.214-13.24c.46-.976 1.64-1.446 2.64-1.054z" clip-rule="evenodd" fill="url(#c)" fill-rule="evenodd"/><path d="M325.49 392.165c.25.555-.04 1.19-.645 1.416-.605.23-1.297-.034-1.546-.59-.25-.553.04-1.19.644-1.415.605-.227 1.297.037 1.546.59zM337.846 397.092c.25.554-.04 1.188-.645 1.416-.604.228-1.296-.037-1.544-.59-.25-.556.04-1.19.645-1.418.606-.228 1.298.037 1.547.592z" fill="#b3d234"/><path d="M337.524 397.19c.192.43-.03.92-.5 1.098-.47.176-1.006-.03-1.2-.46-.193-.43.032-.92.5-1.097.47-.175 1.007.03 1.2.46zM325.32 392.253c.194.43-.03.922-.5 1.098-.468.18-1.005-.026-1.198-.456-.193-.43.03-.922.5-1.098.47-.176 1.006.03 1.2.458zM344.055 377.49c.192.43-.032.922-.5 1.1-.47.175-1.008-.03-1.2-.46-.193-.43.03-.92.5-1.098.47-.176 1.007.03 1.2.46zM336.835 375.037c.193.43-.03.92-.5 1.098-.47.177-1.007-.028-1.2-.46-.193-.428.03-.92.5-1.098.47-.175 1.008.03 1.2.46z" fill="#ffd400"/><path fill="#b3d234" d="M335.845 376.01l.194-.008.217 5.223-.194.008zM342.75 378.34l-4.135 3.605-.134-.13 4.136-3.603z"/><path fill="#cccccb" d="M304.718 291.3l-18.828-8.934h23.935l-2.515 4.538 3.583-1.885z"/><path fill="#e6e6e6" d="M285.89 282.366l21.725-4.398 2.44 4.677zM310.893 285.02l3.506 5.653-28.51-8.307z"/><linearGradient gradientUnits="userSpaceOnUse" x1="299.476" y1="283.484" x2="299.275" y2="286.116"><stop offset="0" stop-color="#fff"/><stop offset=".222" stop-color="#F4F4F4"/><stop offset=".589" stop-color="#EAEAEA"/><stop offset="1" stop-color="#E6E6E6"/></linearGradient><path d="M310.863 285.236s2.302 3.597.23 3.407c-2.073-.19-24.37-6.102-24.37-6.102l24.14 2.697z" fill="url(#d)"/><path fill="#cccccb" d="M414.376 503.313l-16.114-7.295 19.854-1.02-1.834 4.22 2.867-1.86z"/><path fill="#e6e6e6" d="M398.262 496.018l17.777-4.91 2.28 4.134zM419.15 497.357l3.22 4.974-24.108-6.31z"/><linearGradient gradientUnits="userSpaceOnUse" x1="412.759" y1="475.181" x2="412.553" y2="477.878" gradientTransform="matrix(.83 -.046 .051 .906 43.08 85.034)"><stop offset="0" stop-color="#fff"/><stop offset=".222" stop-color="#F4F4F4"/><stop offset=".589" stop-color="#EAEAEA"/><stop offset="1" stop-color="#E6E6E6"/></linearGradient><path d="M419.137 497.555s2.11 3.16.38 3.078c-1.73-.084-20.554-4.49-20.554-4.49l20.174 1.412z" fill="url(#e)"/><path fill="#cccccb" d="M510.43 367.404l-21.348-2.11 19.495-9.918 1.005 6.076 1.65-3.576z"/><path fill="#e6e6e6" d="M489.082 365.295l14.736-13.88 5.134 4.176zM511.232 357.876l6.66 4.82-28.81 2.6z"/><linearGradient gradientUnits="userSpaceOnUse" x1="456.702" y1="257.766" x2="456.4" y2="261.725" gradientTransform="matrix(.642 -.357 .486 .874 82.453 297.961)"><stop offset="0" stop-color="#fff"/><stop offset=".222" stop-color="#F4F4F4"/><stop offset=".589" stop-color="#EAEAEA"/><stop offset="1" stop-color="#E6E6E6"/></linearGradient><path d="M511.354 358.13s4.295 3.034 2.48 3.683c-1.817.648-23.957 3.33-23.957 3.33l21.477-7.014z" fill="url(#f)"/><g fill="#fde6d2"><ellipse cx="497.18" cy="510.51" rx="4.696" ry="1.597"/><ellipse cx="281.52" cy="484.502" rx="3.251" ry=".986"/><ellipse cx="289.572" cy="494.376" rx="3.251" ry=".986"/><ellipse cx="455.239" cy="494.662" rx="4.696" ry="1.597"/><ellipse cx="276.229" cy="492.238" rx="4.696" ry="1.597"/><ellipse cx="444.275" cy="474.658" rx="4.696" ry="1.597"/><ellipse cx="424.923" cy="486.591" rx="3.251" ry="1.106"/><ellipse cx="508.002" cy="482.168" rx="3.251" ry="1.106"/><ellipse cx="335.18" cy="483.262" rx="3.251" ry="1.106"/><ellipse cx="344.913" cy="486.231" rx="2.709" ry=".922"/><ellipse cx="322.698" cy="479.328" rx="2.709" ry=".922"/><ellipse cx="353.625" cy="491.162" rx="2.709" ry=".922"/><ellipse cx="500.778" cy="478.475" rx="2.709" ry=".922"/><ellipse cx="503.748" cy="504.056" rx="2.709" ry=".922"/><ellipse cx="449.485" cy="483.089" rx="2.709" ry=".922"/><ellipse cx="340.288" cy="477.731" rx="2.709" ry=".922"/><ellipse cx="288.383" cy="481.669" rx="2.709" ry=".922"/></g><g fill="#83aabb"><path d="M279.775 400.945c-1.674-.95-1.866-2.92-.43-4.4 1.437-1.477 3.958-1.904 5.63-.954 1.673.953 1.866 2.92.43 4.4-1.437 1.48-3.957 1.907-5.63.956zM284.93 396.973c-.055-.03-.067-.09-.026-.134.04-.044.12-.05.174-.02.056.03.068.09.026.132-.04.043-.12.05-.174.02zM283.445 401.048s-.11.223-.006.415c.104.192 1.27.767 1.47 1.21.204.446.296.652.15.746-.143.093-.342.024-.382-.044-.042-.067-.165-.05-.156.023.01.07.142.344.035.48-.108.14-.21.19-.333.098-.123-.093-.238-.466-.352-.157-.115.31-.2.26-.45.273-.25.012-.305-.15-.46-.26-.157-.113-.26.05-.26.05s-.128.102-.16.216c-.03.114-.186.246-.23.156l-.24-.49s-.19.224-.266.357c-.077.132-.27.33-.393.35-.124.016-.212-.166-.212-.166s-.16-.024-.26.16c-.1.185-.356.15-.34.05.02-.1-.15-.637.16-1.12.313-.484.897-.922 1.235-1.324.337-.402.418-.268.413-.645l-.007-.512s1.067-.25 1.084-.132c.013.12-.045.262-.045.262zM284.97 403.323s-.07-.392-.344-.656c-.273-.265-.76-.61-1.067-.893-.31-.284-.314-.442-.345-.547-.03-.105-.152-.307-.053.3.1.606.105.873.13 1.393.024.52.292.87.35.948.058.077-.126-.907-.094-1.02.03-.115.567.696.683.85.116.153.304.37.21.03-.094-.34 0-.68 0-.68s.19.215.32.27c.135.05.208.005.208.005zM282.803 403.588s.01-.963.094-1.487c.085-.52-.03-.785-.03-.785s.383-.118-.158.68c-.55.81-.36 1.843-.328 1.972.034.13.202-.59.226-.642.024-.052.193.264.193.264zM282.35 401.9s-.395.435-.757.89c-.362.454-.57.886-.5 1.06.072.17.196.506.32.38.125-.128.57-1.35.712-1.687.14-.338.226-.643.226-.643zM281.485 395.47s.057-.233-.092-.404c-.15-.17-1.446-.56-1.752-.96-.304-.404-.444-.59-.32-.702.12-.112.334-.074.39-.014.057.06.175.025.15-.044-.028-.068-.224-.315-.15-.462.075-.148.166-.212.31-.14.144.07.345.415.387.1.042-.316.14-.282.385-.33.25-.047.34.103.522.188s.25-.086.25-.086.1-.12.106-.234c.005-.115.128-.265.193-.183.067.08.356.437.356.437s.137-.242.18-.383c.046-.14.19-.36.31-.394.12-.034.25.13.25.13s.167 0 .224-.192c.058-.193.322-.195.328-.096.006.1.3.595.102 1.107-.196.51-.677 1.02-.92 1.457-.244.438-.356.32-.263.684l.128.495s-1.005.397-1.05.284c-.046-.115-.02-.26-.02-.26zM280.37 393.28s.022.298.246.47c.227.175.66.39.93.585.276.197.26.323.276.406.016.084.115.235.097-.245-.02-.485.012-.705.06-1.136.05-.438-.185-.69-.235-.744-.05-.055.004.744-.045.843-.047.1-.484-.488-.58-.596-.095-.107-.252-.252-.202.01.05.262-.083.552-.083.552s-.154-.145-.274-.168c-.116-.025-.19.023-.19.023zM282.305 394.49s.36-.453.684-.924c.322-.47.492-.91.406-1.077-.086-.17-.24-.495-.354-.36-.113.132-.453 1.367-.567 1.71-.113.342-.17.65-.17.65z"/></g><g fill="#f8e99e"><path d="M518.366 460.847c-2.218-.848-2.904-3.272-1.534-5.415 1.372-2.143 4.28-3.192 6.498-2.344 2.216.85 2.902 3.272 1.532 5.415-1.372 2.142-4.28 3.192-6.496 2.344zM523.594 454.825c-.072-.028-.1-.1-.06-.162.038-.06.13-.087.202-.06.073.03.1.1.062.162-.04.06-.13.088-.204.06zM522.768 460.226s-.082.302.09.52c.17.218 1.692.7 2.037 1.215.345.517.502.757.352.904-.15.147-.403.102-.466.026s-.206-.03-.177.06c.03.086.25.4.154.594-.096.194-.207.278-.375.19-.167-.09-.39-.533-.456-.124-.064.41-.177.368-.473.433-.295.066-.397-.126-.61-.233-.213-.108-.3.115-.3.115s-.127.155-.138.305c-.01.15-.165.346-.238.24l-.4-.562s-.175.318-.235.5c-.062.18-.245.47-.39.516-.142.047-.29-.163-.29-.163s-.196.004-.274.256c-.077.252-.39.26-.392.13-.002-.128-.328-.764-.07-1.432.26-.668.855-1.336 1.165-1.908.31-.572.438-.42.345-.89l-.127-.64s1.213-.53 1.26-.386c.048.146.01.336.01.336zM525.115 462.76s-.175-.475-.56-.75c-.388-.276-1.05-.606-1.482-.9-.432-.292-.475-.488-.536-.613-.06-.125-.252-.353.006.387.26.738.328 1.07.478 1.716.15.646.555 1.03.64 1.114.088.084-.36-1.11-.35-1.26.013-.148.84.757 1.016.925.172.167.447.4.255-.005-.19-.407-.156-.854-.156-.854s.273.233.445.273c.17.04.246-.033.246-.033zM522.593 463.535s-.214-1.206-.232-1.88c-.02-.67-.22-.977-.22-.977s.43-.226-.03.883c-.465 1.128 0 2.38.07 2.535.07.155.104-.78.12-.85.018-.07.294.29.294.29zM521.66 461.516s-.37.625-.697 1.268c-.327.643-.475 1.225-.35 1.427.125.203.35.596.47.41.118-.183.365-1.802.456-2.253.09-.452.12-.85.12-.85zM519.134 453.647s.014-.302-.203-.485c-.216-.182-1.854-.405-2.313-.845-.458-.442-.668-.646-.548-.81.12-.166.38-.162.463-.1.082.064.215-.004.168-.085-.047-.08-.34-.348-.283-.547.054-.2.148-.3.336-.24.188.06.51.45.485.046-.022-.4.1-.38.384-.49.286-.11.428.06.667.13.236.07.275-.16.275-.16s.095-.17.073-.313c-.02-.145.092-.357.188-.268.097.09.525.476.525.476s.108-.332.128-.516c.022-.185.144-.49.28-.558.134-.068.327.11.327.11s.198-.032.22-.286c.023-.253.34-.31.368-.187.03.122.495.68.38 1.362-.116.68-.57 1.416-.76 2.013-.188.598-.35.473-.155.91.195.435.266.59.266.59s-1.107.703-1.186.57c-.08-.13-.083-.32-.083-.32zM517.296 451.135s.095.37.402.54c.31.17.88.353 1.246.54.374.19.385.35.424.45.04.1.19.27.058-.328-.135-.603-.146-.886-.19-1.435-.042-.556-.38-.824-.453-.88-.072-.06.177.93.143 1.063-.035.134-.69-.51-.83-.626-.14-.117-.36-.266-.24.05.12.32.03.71.03.71s-.217-.15-.366-.156c-.148-.003-.224.07-.224.07zM519.886 452.253s.324-.64.6-1.294c.278-.657.38-1.24.238-1.43-.142-.194-.4-.57-.506-.38-.105.19-.222 1.806-.28 2.257-.054.45-.052.845-.052.845z"/></g><g fill="#10a3dd"><path d="M432.04 481.66c-1.153 2.547-4.646 3.466-7.8 2.053-3.156-1.415-4.78-4.625-3.627-7.173 1.154-2.546 4.646-3.465 7.8-2.05 3.156 1.412 4.78 4.622 3.626 7.17z"/><ellipse transform="matrix(.912 .411 -.411 .912 233.106 -131.792)" cx="422.962" cy="476.064" rx=".178" ry=".168"/><path d="M430.986 476.74s.44.074.75-.13c.312-.206.956-1.948 1.69-2.368.737-.42 1.08-.612 1.297-.45.22.16.162.446.054.523-.107.077-.034.236.093.198.125-.038.574-.305.858-.21.285.097.412.216.287.41-.124.194-.76.472-.162.52.596.05.54.18.643.508.107.33-.17.458-.317.704-.15.245.176.33.176.33s.23.133.447.137c.217.004.508.166.358.255l-.802.485s.466.177.732.233c.265.057.688.246.763.404.074.158-.226.337-.226.337s.008.222.376.294c.37.07.39.424.204.435-.187.01-1.098.415-2.077.163-.978-.25-1.966-.88-2.807-1.195-.84-.312-.625-.465-1.305-.332l-.918.18s-.814-1.333-.605-1.395c.212-.062.49-.03.49-.03zM434.58 473.945s-.683.225-1.07.677c-.386.452-.842 1.216-1.252 1.72-.41.504-.693.565-.872.642-.18.076-.504.305.56-.03 1.06-.338 1.542-.435 2.472-.643.93-.207 1.474-.68 1.594-.785.12-.103-1.596.473-1.814.47-.216-.004 1.068-.99 1.306-1.197.24-.205.567-.528-.013-.288-.58.24-1.23.228-1.23.228s.327-.322.38-.518c.05-.194-.058-.275-.058-.275zM435.79 476.738s-1.742.313-2.717.375c-.975.064-1.41.305-1.41.305s-.343-.47 1.28-.018c1.65.458 3.45-.142 3.672-.23.222-.09-1.133-.07-1.235-.085-.102-.015.41-.347.41-.347zM432.896 477.91s.92.38 1.862.71c.942.33 1.793.46 2.08.307.287-.152.85-.43.577-.553-.27-.122-2.628-.303-3.284-.378-.655-.077-1.233-.086-1.233-.086zM421.57 481.23s-.437 0-.695.257c-.257.257-.522 2.113-1.145 2.657-.624.543-.913.792-1.156.666-.243-.124-.247-.422-.16-.516.09-.095-.015-.24-.13-.183-.112.06-.49.404-.783.355-.29-.05-.437-.148-.357-.363.08-.215.634-.6.05-.548-.584.05-.555-.09-.723-.402-.17-.314.07-.486.163-.757.092-.27-.24-.302-.24-.302s-.25-.095-.46-.063c-.207.033-.52-.08-.395-.195l.674-.62s-.484-.102-.752-.113c-.267-.014-.713-.134-.817-.28-.104-.148.148-.376.148-.376s-.052-.222-.42-.232c-.37-.01-.462-.36-.285-.402.177-.042.973-.6 1.965-.508.99.09 2.072.557 2.945.732.874.177.697.366 1.323.12s.848-.335.848-.335 1.058 1.204.867 1.3c-.188.095-.462.11-.462.11zM417.993 483.45s.532-.13.768-.486c.24-.362.484-1.01.743-1.435.263-.436.497-.457.64-.506.14-.05.38-.23-.48-.045-.87.186-1.28.217-2.074.3-.807.08-1.18.477-1.263.563-.082.084 1.342-.257 1.538-.225.195.03-.718.808-.88.972-.162.162-.37.42.086.265.457-.154 1.027-.076 1.027-.076s-.21.254-.212.422c0 .166.11.246.11.246zM419.524 480.468s-.938-.327-1.897-.6c-.96-.27-1.81-.35-2.084-.18-.273.172-.81.486-.53.592.28.106 2.625.142 3.282.178.657.036 1.23.01 1.23.01z"/></g><g fill="#f7941e"><path d="M280.464 439.426c-2.666-.528-4.325-3.047-3.707-5.624.62-2.578 3.28-4.24 5.947-3.71 2.665.53 4.324 3.046 3.705 5.625-.62 2.577-3.28 4.238-5.947 3.71zM283.654 431.937c-.087-.018-.146-.092-.128-.165.018-.073.104-.12.192-.1.09.016.146.09.127.164-.017.073-.103.118-.19.1zM284.867 437.966s.03.344.294.55c.266.207 2.057.46 2.62.96.563.5.82.733.72.92-.103.187-.386.183-.483.11-.097-.07-.23.007-.166.098.065.09.42.393.393.62-.026.23-.11.34-.322.273-.21-.067-.617-.51-.53-.052.09.457-.044.43-.33.555-.287.125-.47-.067-.734-.145-.266-.08-.27.18-.27.18s-.075.19-.03.356c.047.166-.04.408-.158.307l-.64-.542s-.06.377-.054.586c.006.21-.076.555-.21.63-.132.08-.368-.123-.368-.123s-.207.037-.192.325c.016.29-.312.353-.364.214-.052-.14-.64-.774-.626-1.55.016-.773.386-1.605.49-2.284.107-.678.3-.536.02-1.032l-.38-.67s1.075-.798 1.18-.647c.11.153.143.366.143.366zM288.32 440.31s-.368-.488-.88-.72c-.515-.23-1.34-.473-1.91-.715-.567-.242-.69-.448-.8-.573-.113-.126-.404-.34.155.42.558.756.76 1.108 1.166 1.784.41.677.98 1.023 1.105 1.1.124.075-.808-1.145-.854-1.31-.044-.164 1.178.674 1.427.826.248.154.626.358.27-.05-.36-.407-.497-.9-.497-.9s.377.203.573.217c.196.01.247-.08.247-.08zM285.96 441.6s-.69-1.275-.97-2.004c-.282-.73-.61-1.027-.61-1.027s.367-.324.31.965c-.058 1.31.916 2.59 1.05 2.747.133.156-.192-.867-.202-.946-.01-.08.42.264.42.264zM284.197 439.57s-.15.746-.247 1.504c-.096.757-.027 1.42.182 1.616.21.196.6.585.654.362.053-.222-.31-2.03-.39-2.536-.077-.51-.2-.947-.2-.947zM278.497 431.448s-.1-.33-.4-.492c-.302-.16-2.113-.11-2.768-.508-.656-.398-.956-.584-.893-.784.062-.2.342-.244.452-.19.11.054.223-.044.143-.123-.08-.076-.49-.316-.51-.544-.02-.228.04-.353.26-.32.223.03.712.398.53-.037-.18-.436-.04-.433.216-.6.257-.17.473-.014.75.02.277.033.23-.22.23-.22s.035-.203-.043-.358c-.078-.153-.04-.404.094-.324l.74.425s-.015-.38-.065-.583c-.048-.204-.037-.558.08-.656.115-.098.387.062.387.062s.197-.07.123-.35c-.074-.28.237-.398.315-.27.08.13.787.656.927 1.42.14.762-.056 1.643-.023 2.327.032.684-.187.576.188 1.016l.508.596s-.896.963-1.03.83c-.137-.13-.213-.335-.213-.335zM275.59 429.04s.24.386.632.516c.395.132 1.063.228 1.522.367.47.14.542.314.62.416.08.1.306.256-.065-.37-.376-.634-.498-.94-.755-1.53-.26-.6-.72-.83-.818-.88-.098-.05.546.98.56 1.135.017.15-.926-.434-1.117-.534-.19-.1-.48-.222-.23.1.25.326.305.768.305.768s-.287-.126-.446-.104c-.16.02-.21.115-.21.115zM278.75 429.797s.097-.754.136-1.516c.04-.76-.08-1.415-.302-1.6-.224-.183-.642-.546-.68-.32-.036.225.463 2.005.578 2.507.114.5.27.93.27.93z"/></g><g fill="#f7941e"><path d="M332.312 454.033c-1.683-.334-2.73-1.924-2.34-3.55.39-1.63 2.072-2.677 3.755-2.344 1.682.333 2.73 1.922 2.34 3.55-.392 1.627-2.072 2.675-3.755 2.342z"/><ellipse transform="matrix(-.235 .972 -.972 -.235 849.481 229.625)" cx="334.346" cy="449.22" rx=".086" ry=".103"/><path d="M335.092 453.11s.02.218.186.35c.167.13 1.297.29 1.653.605.357.316.52.463.456.58-.064.12-.243.116-.304.07-.06-.044-.144.005-.104.062.04.057.264.248.248.392-.017.143-.07.213-.203.17-.132-.04-.39-.32-.333-.033.056.288-.03.272-.21.35-.18.08-.296-.042-.463-.092-.168-.05-.17.113-.17.113s-.048.12-.02.225c.03.104-.024.257-.1.192l-.403-.342s-.038.238-.033.37c.005.13-.047.35-.13.4-.085.048-.234-.08-.234-.08s-.13.024-.12.205c.01.182-.198.223-.23.134-.033-.088-.405-.49-.396-.978.01-.49.244-1.014.31-1.443.067-.427.188-.34.012-.65l-.24-.424s.68-.503.746-.408c.066.096.088.23.088.23zM337.272 454.59s-.232-.308-.557-.454c-.325-.146-.845-.298-1.205-.452-.36-.153-.435-.283-.506-.362-.07-.08-.254-.215.1.264.352.478.478.7.735 1.127.256.427.616.646.695.694.08.048-.51-.722-.54-.827-.028-.103.744.426.9.522.157.097.397.226.17-.03-.225-.26-.312-.57-.312-.57s.24.13.363.137c.123.01.155-.05.155-.05zM335.78 455.405s-.435-.806-.612-1.266c-.178-.46-.384-.65-.384-.65s.23-.203.195.61c-.038.828.577 1.637.66 1.735.086.1-.12-.547-.126-.597-.005-.05.266.165.266.165zM334.67 454.122s-.096.47-.157.95c-.06.478-.017.896.115 1.02s.38.37.413.23c.036-.14-.194-1.282-.243-1.602-.05-.32-.127-.598-.127-.598zM331.07 448.995s-.065-.21-.255-.31c-.19-.102-1.334-.07-1.747-.322-.413-.25-.603-.37-.563-.495.04-.127.216-.154.285-.12.07.034.142-.028.09-.077-.05-.047-.31-.2-.32-.343-.014-.144.024-.223.164-.203.14.02.45.252.335-.023-.116-.274-.028-.27.134-.38.163-.106.3-.007.474.015.174.02.145-.14.145-.14s.022-.128-.028-.225c-.05-.098-.026-.257.06-.207l.465.27s-.01-.24-.04-.37-.023-.352.05-.414c.073-.064.245.036.245.036s.124-.045.078-.22c-.047-.178.15-.252.2-.17.05.08.495.413.584.894.088.482-.036 1.04-.016 1.47.02.433-.117.365.12.643l.32.377s-.566.608-.65.525c-.086-.08-.134-.21-.134-.21zM329.234 447.475s.152.243.4.325c.248.083.67.144.96.232.296.09.342.198.392.262.05.064.192.163-.042-.233-.236-.4-.313-.59-.475-.963-.166-.378-.456-.523-.52-.555-.06-.03.346.62.355.717.01.094-.585-.275-.706-.34-.12-.063-.304-.14-.146.063.157.205.192.484.192.484s-.18-.08-.282-.065c-.1.016-.13.075-.13.075zM331.23 447.952s.06-.476.085-.957c.025-.482-.05-.895-.19-1.01-.143-.117-.406-.346-.43-.204-.023.144.29 1.268.364 1.585.072.317.17.588.17.588z"/></g><g fill="#f7941e"><ellipse transform="matrix(-1 -.014 .014 -1 888.618 907.815)" cx="447.533" cy="450.752" rx="3.295" ry="2.856"/><circle cx="449.793" cy="451.571" r=".094"/><path d="M445.78 453.016s-.23.06-.336.236c-.107.176-.052 1.222-.32 1.605-.266.38-.39.557-.53.522-.14-.036-.172-.197-.136-.26.036-.065-.033-.13-.087-.08-.05.045-.21.285-.37.3-.156.012-.242-.02-.223-.15.02-.128.267-.415-.032-.306-.297.108-.297.028-.417-.12-.12-.146-.014-.273.006-.433.02-.16-.155-.13-.155-.13s-.14-.02-.246.03c-.105.046-.28.027-.226-.05l.285-.433s-.263.013-.403.043-.385.027-.454-.038c-.07-.066.04-.225.04-.225s-.052-.113-.245-.068c-.19.043-.275-.134-.19-.18.09-.05.444-.46.97-.55.525-.09 1.134.015 1.605-.01.472-.025.4.102.7-.12l.405-.3s.673.51.585.59c-.086.08-.226.125-.226.125zM444.63 455.268s.284-.27.376-.59c.09-.32.15-.818.243-1.17.09-.354.214-.448.284-.527.07-.08.18-.27-.263.143-.44.412-.652.57-1.06.886-.404.315-.566.683-.602.763-.037.08.67-.602.776-.648.105-.046-.307.752-.38.912-.07.16-.162.4.068.146.23-.255.546-.394.546-.394s-.09.24-.074.352c.016.11.085.128.085.128zM443.46 454.093s.776-.552 1.233-.802c.457-.25.617-.472.617-.472s.263.167-.615.296c-.892.132-1.635.846-1.723.94-.09.097.56-.216.613-.23.054-.017-.124.27-.124.27zM444.612 452.838s-.523.01-1.048.05c-.524.04-.962.164-1.068.307-.106.143-.32.413-.162.416.157.004 1.332-.43 1.664-.54.333-.106.614-.23.614-.23zM449.38 448.586s.212-.1.282-.29c.07-.19-.192-1.21-.005-1.63.186-.422.274-.616.417-.605.144.01.208.165.185.234-.025.07.056.122.1.066.04-.057.152-.32.304-.36.15-.04.243-.02.25.108.007.13-.18.453.09.296.272-.157.288-.078.434.046.146.124.067.267.08.43.01.16.178.1.178.1s.14-.005.235-.068c.095-.063.27-.074.233.012l-.195.472s.255-.056.386-.11c.132-.053.372-.09.453-.038.08.053.007.227.007.227s.073.103.252.026c.18-.076.298.086.22.147-.076.06-.344.528-.84.703-.498.175-1.118.175-1.577.28-.46.103-.414-.034-.665.233-.252.267-.34.363-.34.363s-.763-.387-.69-.48c.07-.09.2-.16.2-.16zM450.64 446.636s-.228.185-.268.423c-.04.24-.02.63-.056.906-.036.284-.144.347-.203.404-.058.06-.136.206.24-.083.382-.292.573-.4.94-.62.37-.22.468-.51.49-.574.022-.062-.594.433-.696.46-.1.03.177-.58.22-.7.045-.12.09-.3-.096-.118s-.477.27-.477.27.048-.18.014-.267c-.036-.086-.105-.102-.105-.102zM450.528 448.52s.522-.04 1.04-.113c.52-.074.948-.223 1.044-.373.096-.15.288-.433.13-.426-.156.008-1.295.514-1.62.642-.324.13-.594.27-.594.27z"/></g><linearGradient gradientUnits="userSpaceOnUse" x1="212.75" y1="445.887" x2="233.401" y2="445.887" gradientTransform="matrix(.869 -.306 .288 .819 -30.258 79.357)"><stop offset="0" stop-color="#FFD400"/><stop offset=".42" stop-color="#FED201"/><stop offset=".572" stop-color="#FCCB04"/><stop offset=".68" stop-color="#F8C00A"/><stop offset=".767" stop-color="#F1AF13"/><stop offset=".842" stop-color="#E9991E"/><stop offset=".907" stop-color="#E07E2B"/><stop offset=".927" stop-color="#DC7430"/></linearGradient><path d="M302.005 375.382c.532 1.383-.336 2.923-1.94 3.44l-12.176 3.928c-1.605.517-3.336-.185-3.868-1.568l-1.696-4.41c-.532-1.383.336-2.924 1.94-3.44l12.177-3.93c1.603-.516 3.334.186 3.866 1.57l1.694 4.41z" fill="url(#g)"/><radialGradient cx="310.292" cy="563.069" r="9.141" gradientTransform="matrix(.906 0 0 .829 9.747 -93.8)" gradientUnits="userSpaceOnUse"><stop offset="0" stop-color="#B3D234"/><stop offset=".191" stop-color="#B4C321"/><stop offset=".442" stop-color="#B5B50E"/><stop offset=".706" stop-color="#B6AD04"/><stop offset="1" stop-color="#B6AA00"/></radialGradient><path d="M301.198 370.277c-.954-1.94-3.195-2.06-5.238-1.354-2.61.902-5.127 2.143-7.862 2.687-2.55.51-5.66.698-7.264 2.805-.054.07-.078.14-.083.205-.523.747-.763 2.12-.175 2.524.2.138.416.18.66.07.135-.06.26-.135.38-.215.106.6.336 1.123 1.257.803.47-.162.788-.677 1.142-.988.19-.166.364-.32.54-.465l.064-.02c.824-.248 1.78.022 2.598.114.973.108 1.872-.02 2.677-.58.644-.45 1.21-.968 1.894-1.37.753-.444 1.726-.42 2.575-.473 1.215-.072 2.12-.5 3.004-1.24.502-.42.867-.872 1.565-1.05.515-.13 1.08-.002 1.613-.12.673-.145.893-.85.656-1.332z" fill="url(#h)"/><path d="M300.868 370.126c-.954-1.938-3.196-2.058-5.238-1.353-2.61.9-5.127 2.142-7.862 2.687-2.55.51-5.658.698-7.263 2.806-.054.07-.078.14-.083.205-.526.75-.765 2.12-.177 2.526.2.138.417.18.66.07.135-.062.26-.136.38-.216.106.6.336 1.124 1.257.804.468-.163.787-.678 1.14-.99.19-.164.365-.318.54-.464l.065-.022c.824-.247 1.78.023 2.6.115.97.108 1.87-.02 2.676-.58.643-.45 1.21-.968 1.893-1.37.752-.444 1.726-.42 2.575-.473 1.218-.074 2.124-.5 3.007-1.24.5-.42.867-.873 1.565-1.05.515-.13 1.082-.005 1.614-.122.672-.145.89-.85.654-1.332z" fill="#b3d234"/><linearGradient gradientUnits="userSpaceOnUse" x1="209.182" y1="436.937" x2="222.159" y2="443.881" gradientTransform="matrix(.869 -.306 .288 .819 -30.258 79.357)"><stop offset="0" stop-color="#fff"/><stop offset=".053" stop-color="#F6FAE8"/><stop offset=".176" stop-color="#E5EFB9"/><stop offset=".304" stop-color="#D5E690"/><stop offset=".433" stop-color="#C9DF6F"/><stop offset=".565" stop-color="#BFD955"/><stop offset=".7" stop-color="#B8D542"/><stop offset=".842" stop-color="#B4D338"/><stop offset="1" stop-color="#B3D234"/></linearGradient><path d="M290.805 371.39s-2.42.41-3.768.66c-1.347.25-3.05.295-3.923.736-.874.44-1.72.873-2.27 1.844-.547.97-.665 1.514-.575 1.725.12.286.316.318.47.322.156.002.61-.25.775-.462.165-.212.036.412.108.6.073.19.09.474.436.416.345-.057.973-.42 1.365-.995.392-.577.875-.76 1.103-.806.226-.048 1.057.083 1.41.153.347.07.6.283 1.428-.037.83-.32 2.686-1.237 3.497-2.082.81-.845 2.04-1.797 1.87-2.086-.173-.288-1.93.014-1.93.014z" fill="url(#i)"/><path d="M291.794 368.462c.41 1.064-.37 2.285-1.74 2.727-1.368.44-2.81-.065-3.22-1.13-.41-1.063.37-2.284 1.74-2.726 1.37-.442 2.81.062 3.22 1.127z" fill="#fcaf17"/><linearGradient gradientUnits="userSpaceOnUse" x1="220.777" y1="435.562" x2="223.071" y2="437.905" gradientTransform="matrix(.869 -.306 .288 .819 -30.258 79.357)"><stop offset="0" stop-color="#fff"/><stop offset=".109" stop-color="#FEEDCB"/><stop offset=".225" stop-color="#FEDD9C"/><stop offset=".345" stop-color="#FDCF73"/><stop offset=".466" stop-color="#FDC352"/><stop offset=".59" stop-color="#FCBA38"/><stop offset=".718" stop-color="#FCB425"/><stop offset=".851" stop-color="#FCB01B"/><stop offset="1" stop-color="#FCAF17"/></linearGradient><path d="M290.317 368.597c.234.606-.242 1.312-1.063 1.576-.82.265-1.673-.012-1.907-.62-.233-.605.243-1.31 1.063-1.575.82-.265 1.674.012 1.907.62z" fill="url(#j)"/><path d="M280.922 375.673c-.036-.005-.074-.006-.113.004-.25.058-.286.34-.085.45-.04-.03-.054-.036-.04-.02.115.133.42.056.453-.11.004-.023.008-.047.01-.07l.003-.027c.005-.045 0-.088-.03-.132-.04-.07-.117-.095-.2-.095zm-.157.256l-.002-.006.003-.007v.01zm2.232-2.553c-.45.01-.934.343-1.23.63-.304.292-.507.605-.674.975-.132.294.393.407.527.12.147-.314.345-.57.607-.817.276-.26.7-.34.947-.627.1-.118-.028-.285-.177-.282zm5.145-5.332c-.2-.13-.542.04-.54.262v.033c.018.254.265.368.528.27l.027-.01c.145-.054.21-.23.178-.35-.023-.09-.1-.165-.193-.204zm-4.48 9.648c-.178.057-.274.228-.215.38l1.357 3.53c.06.153.25.23.43.173.177-.058.273-.228.214-.38l-1.357-3.53c-.057-.152-.25-.23-.427-.173z" fill="#fff"/><linearGradient gradientUnits="userSpaceOnUse" x1="221.246" y1="445.405" x2="225.77" y2="457.307" gradientTransform="matrix(.869 -.306 .288 .819 -30.258 79.357)"><stop offset=".006" stop-color="#fff"/><stop offset="1" stop-color="#E6E6E6"/></linearGradient><path d="M285.837 386.613s-5.155-2.89-5.306-3.613c-.15-.723-.3-1.335.47-1.326.77.01 1.83.438 1.83.438s-.1-.922.23-1.175c.327-.253 1.45-.542 1.802-.178.354.36.57-.075.986-.54.417-.465.544-.91 1.162-.63.617.275.894 1.105 1.184.644.29-.462.557-1.098 1.012-1.465.455-.368.86-.535 1.2-.094.34.44.616.94.907.368.292-.57.344-1.212.874-1.493.53-.28.97.09 1.26.29.29.2.342.333.57-.29.228-.625.405-1.05.784-1.06.38-.014.984.673 1.4.76.415.084.453.182.62-.386.163-.567-.064-.824.44-1.06.506-.237.708-.376 1.288-.196s.517.347.73.46c.215.116.228-.072.392-.53.165-.456.607-.746.973-.79.366-.044.618-.163 1.06.21.44.37.516.347.68 0 .165-.347.002-.55.494-.82.492-.27.783-.4 1.25-.403.467-.003.52 6.33.38 6.524-.138.19-15.864 5.34-16.61 5.614-.745.278-2.057.738-2.057.738z" fill="url(#k)"/><path d="M304.72 373.422c-1.004-.272-2.344.157-2.805 1.25-.87-.684-2.39-.452-2.695.837-.214-.234-.488-.38-.912-.33-.857.105-1.408.088-1.738 1.055-.1.295-.16.566-.192.825-.775-.942-2.205-1.612-2.71.003-.044.144-.076.287-.102.43-.086-.104-.18-.203-.287-.293-1.2-.998-1.898.728-2.288 1.756-.136-.192-.282-.376-.447-.544-1.082-1.107-1.973.402-2.306 1.383-.44-.39-1.235-1-1.776-.685-.637.372-1.11.926-1.288 1.572-.193-.128-.395-.245-.46-.255-.585-.095-1.636-.356-1.85.32-.138.438-.205.776-.145 1.116-.76-.547-1.616-.915-2.313-.29-.683.612-.627 1.497.366 2.212.742.534 1.498 1.006 2.246 1.468.38.234.763.453 1.142.67.34.193 1.256.606 1.445.866.166.227.586.122.61-.084l.03-.016c.46-.305 1.272-.416 1.855-.59.7-.208 1.415-.39 2.122-.6 1.37-.406 2.765-.87 4.144-1.346 1.582-.546 3.24-.83 4.855-1.444.715-.27 1.437-.542 2.163-.822.98-.377 2.02-.975 3.04-1.257.25-.067.415-.256.425-.485.08-1.955-.12-4.09.087-6.41.01-.137-.102-.28-.22-.312zm-19.002 12.757c-.382-.236-.884-.447-1.186-.61-1.02-.555-2.038-1.195-3.05-1.876-1.214-1.34-1.03-1.87.59-1.533.21.188.425.368.64.546.557.463 1.087.925 1.6 1.382.698.622 1.433 1.16 2.16 1.687-.294.113-.553.245-.754.402zm1.498-.644c-1.188-.914-2.35-1.916-3.61-2.964-.354-.63-.766-2.307.765-1.624.525.232.92.835 1.217 1.203.484.6.963 1.18 1.422 1.75.393.486.66 1.04 1.2 1.393-.33.075-.667.152-.993.242zm2.046-.5c-.147.042-.306.083-.472.123-.003-.014-.003-.026-.01-.04-.472-.99-1.484-2.015-2.28-3.013-.202-.253-.456-.68-.778-.934 0-.004.003-.008.004-.012.164-.72.912-1.823 1.89-1.042.784.627 1.164 1.698 1.536 2.45.38.767.896 1.495 1.373 2.09-.423.13-.845.255-1.263.376zm1.536-4.69c.4 1.25.92 2.69 1.616 3.706-.43.144-.862.283-1.294.42-.156-.553-.76-1.16-1.053-1.705-.403-.75-.73-1.713-1.353-2.48.16-.435.728-1.8 1.123-1.594.558.287.82 1.214.96 1.653zm2.632-1.103c.298 1.354.533 2.922 1.144 4.06-.067.02-.134.042-.2.066-.408.15-.82.295-1.233.44-.727-1.168-1.027-2.84-1.763-4.225.252-.364.427-.773.658-1.172.18-.313.355-.65.732-.792.127-.045.607 1.363.664 1.623zm3.18-.047c.265 1.198.66 2.272.868 3.366-.12.04-.24.08-.364.115-.598.168-1.212.275-1.813.42-.2-.58-.386-1.185-.562-1.81-.1-.435-.203-.878-.342-1.325-.01-.026-.014-.056-.022-.085l-.054-.28c-.054-.37-.07-.82-.103-1.143-.015-.26.005-.523.06-.785.46-1.177 1.633-.65 1.933.332.033.11.112.17.202.198.05.32.122.646.2.997zm2.938-.7c.152 1.072.392 2.094.584 3.064-.2.074-.398.148-.595.224-.46.178-.91.364-1.362.536-.24-1.056-.613-2.114-.903-3.27-.134-.533-.27-1.098-.218-1.68.017-.317.08-.628.187-.935.304-.965 1.564-.363 1.773.02.043.08.107.125.177.146.078.668.278 1.333.358 1.898zm2.405-.346c.005.92.268 1.757.23 2.62v.01c-.453.194-.914.367-1.372.534-.173-.824-.292-1.696-.47-2.586-.102-.52-.186-1.052-.262-1.603-.048-.17-.092-.342-.13-.517-.013-.104-.028-.21-.043-.314-.143-.723.387-1.02 1.584-.876.02.19.124.282.25.306-.002.83.21 1.7.214 2.427zm2.06 1.816c-.343.124-.673.277-1.002.433.01-.8-.174-1.59-.2-2.44-.02-.59-.02-1.193-.064-1.81-.083-1.154.255-1.7 1.38-1.866-.018 2.012.152 3.92-.112 5.68z" fill="#cccccb"/><ellipse cx="289.112" cy="418.51" rx="1.553" ry="1.422" fill="#c1ea9b"/><ellipse cx="285.079" cy="422.065" rx="1.553" ry="1.422" fill="#c1ea9b"/><ellipse cx="293.061" cy="422.065" rx="1.553" ry="1.422" fill="#c1ea9b"/><ellipse cx="291.956" cy="419.491" rx="1.553" ry="1.422" fill="#c1ea9b"/><ellipse cx="286.159" cy="419.491" rx="1.553" ry="1.422" fill="#c1ea9b"/><ellipse cx="286.442" cy="424.659" rx="1.553" ry="1.422" fill="#c1ea9b"/><ellipse cx="291.813" cy="424.659" rx="1.553" ry="1.422" fill="#c1ea9b"/><ellipse cx="289.112" cy="425.765" rx="1.553" ry="1.422" fill="#c1ea9b"/><ellipse cx="289.112" cy="422.257" rx="3.447" ry="3.157" fill="#f8e99e"/><path d="M314.668 434.47c-.954.902-2.527.926-3.513.052-.986-.874-1.012-2.314-.057-3.217.954-.903 2.526-.927 3.512-.053.985.874 1.012 2.314.058 3.217zM305.715 434.447c-.954.903-2.526.927-3.512.053-.986-.874-1.012-2.314-.058-3.217.955-.903 2.527-.927 3.513-.053.986.874 1.01 2.314.057 3.217zM314.89 442.578c-.953.902-2.526.926-3.512.053-.986-.872-1.012-2.313-.058-3.215.954-.904 2.527-.927 3.513-.053.986.874 1.01 2.314.057 3.218zM316.747 438.494c-.954.903-2.527.927-3.513.053-.986-.873-1.012-2.314-.058-3.217s2.526-.927 3.513-.053c.984.874 1.01 2.314.056 3.217zM310.082 432.588c-.954.903-2.527.927-3.513.053-.988-.872-1.014-2.312-.06-3.215s2.526-.927 3.513-.053c.986.875 1.012 2.315.058 3.218zM304.13 438.818c-.954.903-2.527.927-3.513.053-.986-.872-1.012-2.312-.058-3.215.952-.903 2.524-.927 3.51-.053.987.875 1.013 2.315.06 3.218zM310.305 444.29c-.954.902-2.527.926-3.513.052-.986-.874-1.01-2.314-.058-3.217.954-.903 2.526-.927 3.512-.053.987.874 1.013 2.314.06 3.217zM305.857 442.81c-.954.902-2.527.925-3.512.052-.986-.874-1.012-2.314-.058-3.217s2.526-.927 3.513-.053c.985.873 1.01 2.314.057 3.217z" fill="#c1ea9b"/><path d="M312.295 440.706c-2.118 2.004-5.61 2.057-7.797.118-2.19-1.94-2.246-5.136-.128-7.14 2.117-2.005 5.607-2.058 7.796-.118 2.188 1.94 2.246 5.136.13 7.14z" fill="#f8e99e"/><path d="M317.41 395.675c-.954.903-2.527.927-3.513.053-.986-.874-1.012-2.314-.057-3.217.954-.9 2.526-.925 3.512-.05.985.872 1.012 2.313.058 3.216zM308.457 395.653c-.954.903-2.526.927-3.512.053-.986-.874-1.012-2.314-.058-3.217.954-.905 2.527-.93 3.513-.055.985.873 1.01 2.313.057 3.217zM317.632 403.783c-.953.902-2.526.927-3.512.053-.986-.874-1.012-2.315-.058-3.217.954-.906 2.527-.93 3.513-.055.986.873 1.01 2.314.057 3.217zM319.49 399.7c-.955.902-2.528.926-3.514.052-.986-.873-1.012-2.314-.058-3.217s2.526-.926 3.513-.053c.988.874 1.013 2.314.06 3.217zM312.824 393.793c-.954.903-2.527.927-3.513.053-.984-.874-1.01-2.314-.056-3.217.954-.905 2.526-.93 3.513-.055.986.874 1.012 2.315.058 3.217zM306.872 400.023c-.954.903-2.527.927-3.513.053-.988-.874-1.014-2.314-.06-3.217.954-.905 2.526-.93 3.512-.055.986.874 1.013 2.314.06 3.217zM313.047 405.495c-.954.903-2.527.927-3.513.053-.986-.874-1.01-2.314-.058-3.217.954-.9 2.526-.925 3.512-.05.987.873 1.013 2.313.06 3.216zM308.6 404.014c-.955.903-2.528.927-3.513.053-.986-.874-1.012-2.314-.058-3.217.952-.903 2.524-.927 3.51-.053.986.874 1.01 2.314.058 3.217z" fill="#c1ea9b"/><path d="M315.037 401.91c-2.118 2.005-5.61 2.058-7.797.12-2.19-1.94-2.246-5.137-.128-7.142 2.117-2.004 5.607-2.057 7.796-.118 2.188 1.94 2.246 5.137.13 7.14z" fill="#f8e99e"/><g fill="#fff"><ellipse cx="381.173" cy="284.12" rx="18.94" ry="17.346"/><ellipse cx="402.158" cy="287.507" rx="14.161" ry="12.969"/><ellipse cx="424.417" cy="290.426" rx="10.973" ry="10.049"/><path d="M432.16 293.653c0 4.542-3.856 8.224-8.616 8.224h-44.737c-4.76 0-8.616-3.682-8.616-8.224s3.86-8.224 8.618-8.224h44.737c4.76 0 8.617 3.68 8.617 8.222z"/></g><g fill="#fff"><ellipse cx="311.829" cy="304.695" rx="11.914" ry="10.911"/><ellipse cx="325.029" cy="306.825" rx="8.908" ry="8.158"/><ellipse cx="339.032" cy="308.662" rx="6.903" ry="6.321"/><path d="M343.902 310.692c0 2.857-2.426 5.173-5.42 5.173h-28.14c-2.994 0-5.42-2.316-5.42-5.173s2.426-5.173 5.42-5.173h28.14c2.994 0 5.42 2.314 5.42 5.17z"/></g><g fill="#fff"><ellipse cx="485.728" cy="304.695" rx="11.905" ry="10.911"/><ellipse cx="472.538" cy="306.825" rx="8.901" ry="8.158"/><ellipse cx="458.546" cy="308.662" rx="6.897" ry="6.321"/><path d="M453.68 310.692c0 2.857 2.424 5.173 5.415 5.173h28.12c2.99 0 5.415-2.316 5.415-5.173s-2.425-5.173-5.416-5.173h-28.12c-2.99 0-5.415 2.314-5.415 5.17z"/></g><ellipse cx="478.152" cy="323.514" rx="2.01" ry="1.841" fill="#fff"/><ellipse cx="472.934" cy="328.114" rx="2.01" ry="1.84" fill="#fff"/><ellipse cx="483.263" cy="328.114" rx="2.01" ry="1.84" fill="#fff"/><ellipse cx="481.834" cy="324.783" rx="2.01" ry="1.84" fill="#fff"/><ellipse cx="474.331" cy="324.783" rx="2.009" ry="1.84" fill="#fff"/><ellipse cx="474.697" cy="331.472" rx="2.009" ry="1.841" fill="#fff"/><ellipse cx="481.648" cy="331.472" rx="2.01" ry="1.841" fill="#fff"/><ellipse cx="478.152" cy="332.902" rx="2.01" ry="1.84" fill="#fff"/><ellipse cx="478.152" cy="328.363" rx="4.461" ry="4.086" fill="#f8e99e"/><ellipse cx="437.666" cy="322.968" rx="1.414" ry="1.295" fill="#fff"/><ellipse cx="433.993" cy="326.206" rx="1.414" ry="1.295" fill="#fff"/><ellipse cx="441.262" cy="326.206" rx="1.414" ry="1.295" fill="#fff"/><ellipse cx="440.256" cy="323.862" rx="1.414" ry="1.295" fill="#fff"/><ellipse cx="434.976" cy="323.862" rx="1.414" ry="1.295" fill="#fff"/><ellipse cx="435.234" cy="328.568" rx="1.414" ry="1.295" fill="#fff"/><ellipse cx="440.126" cy="328.568" rx="1.414" ry="1.295" fill="#fff"/><ellipse cx="437.666" cy="329.575" rx="1.414" ry="1.295" fill="#fff"/><ellipse cx="437.666" cy="326.38" rx="3.139" ry="2.875" fill="#f8e99e"/><ellipse cx="448.968" cy="287.442" rx="1.958" ry="1.794" fill="#fff"/><ellipse cx="443.884" cy="291.924" rx="1.958" ry="1.793" fill="#fff"/><ellipse cx="453.947" cy="291.924" rx="1.958" ry="1.793" fill="#fff"/><ellipse cx="452.555" cy="288.679" rx="1.958" ry="1.793" fill="#fff"/><ellipse cx="445.245" cy="288.679" rx="1.957" ry="1.793" fill="#fff"/><ellipse cx="445.602" cy="295.195" rx="1.958" ry="1.793" fill="#fff"/><ellipse cx="452.374" cy="295.195" rx="1.958" ry="1.793" fill="#fff"/><ellipse cx="448.968" cy="296.589" rx="1.958" ry="1.793" fill="#fff"/><ellipse cx="448.968" cy="292.166" rx="4.346" ry="3.981" fill="#f8e99e"/><ellipse cx="517.949" cy="317.1" rx="1.958" ry="1.794" fill="#fff"/><ellipse cx="512.865" cy="321.582" rx="1.958" ry="1.793" fill="#fff"/><ellipse cx="522.928" cy="321.582" rx="1.958" ry="1.793" fill="#fff"/><ellipse cx="521.536" cy="318.337" rx="1.958" ry="1.793" fill="#fff"/><ellipse cx="514.225" cy="318.337" rx="1.957" ry="1.793" fill="#fff"/><ellipse cx="514.582" cy="324.853" rx="1.958" ry="1.793" fill="#fff"/><ellipse cx="521.355" cy="324.853" rx="1.958" ry="1.793" fill="#fff"/><ellipse cx="517.949" cy="326.247" rx="1.958" ry="1.793" fill="#fff"/><ellipse cx="517.949" cy="321.824" rx="4.346" ry="3.981" fill="#f8e99e"/><ellipse cx="522.465" cy="483.316" rx="1.958" ry="1.793" fill="#fff"/><ellipse cx="517.381" cy="487.797" rx="1.958" ry="1.793" fill="#fff"/><ellipse cx="527.444" cy="487.797" rx="1.958" ry="1.793" fill="#fff"/><ellipse cx="526.052" cy="484.552" rx="1.958" ry="1.793" fill="#fff"/><ellipse cx="518.742" cy="484.552" rx="1.957" ry="1.793" fill="#fff"/><ellipse cx="519.099" cy="491.068" rx="1.958" ry="1.793" fill="#fff"/><ellipse cx="525.872" cy="491.068" rx="1.958" ry="1.793" fill="#fff"/><ellipse cx="522.465" cy="492.462" rx="1.958" ry="1.793" fill="#fff"/><ellipse cx="522.465" cy="488.039" rx="4.346" ry="3.981" fill="#f8e99e"/><ellipse cx="364.706" cy="487.664" rx="1.958" ry="1.793" fill="#fff"/><ellipse cx="359.622" cy="492.146" rx="1.958" ry="1.793" fill="#fff"/><ellipse cx="369.685" cy="492.146" rx="1.958" ry="1.793" fill="#fff"/><ellipse cx="368.293" cy="488.901" rx="1.958" ry="1.793" fill="#fff"/><ellipse cx="360.983" cy="488.901" rx="1.957" ry="1.793" fill="#fff"/><ellipse cx="361.34" cy="495.417" rx="1.958" ry="1.793" fill="#fff"/><ellipse cx="368.112" cy="495.417" rx="1.958" ry="1.793" fill="#fff"/><ellipse cx="364.706" cy="496.811" rx="1.958" ry="1.793" fill="#fff"/><ellipse cx="364.706" cy="492.388" rx="4.346" ry="3.981" fill="#f8e99e"/><ellipse cx="286.662" cy="320.352" rx="1.12" ry="1.026" fill="#fff"/><ellipse cx="283.753" cy="322.916" rx="1.12" ry="1.026" fill="#fff"/><ellipse cx="289.511" cy="322.916" rx="1.12" ry="1.026" fill="#fff"/><ellipse cx="288.714" cy="321.06" rx="1.12" ry="1.026" fill="#fff"/><ellipse cx="284.531" cy="321.06" rx="1.12" ry="1.026" fill="#fff"/><ellipse cx="284.736" cy="324.788" rx="1.12" ry="1.026" fill="#fff"/><ellipse cx="288.611" cy="324.788" rx="1.12" ry="1.026" fill="#fff"/><ellipse cx="286.662" cy="325.586" rx="1.12" ry="1.026" fill="#fff"/><ellipse cx="286.662" cy="323.055" rx="2.487" ry="2.278" fill="#f8e99e"/><ellipse cx="286.663" cy="316.623" rx="1.12" ry="1.026" fill="#fff"/><ellipse cx="283.753" cy="319.187" rx="1.12" ry="1.026" fill="#fff"/><ellipse cx="289.511" cy="319.187" rx="1.12" ry="1.026" fill="#fff"/><ellipse cx="288.715" cy="317.33" rx="1.12" ry="1.026" fill="#fff"/><ellipse cx="284.532" cy="317.33" rx="1.12" ry="1.026" fill="#fff"/><ellipse cx="284.736" cy="321.059" rx="1.12" ry="1.026" fill="#fff"/><ellipse cx="288.611" cy="321.059" rx="1.12" ry="1.026" fill="#fff"/><ellipse cx="286.663" cy="321.857" rx="1.12" ry="1.026" fill="#fff"/><ellipse cx="286.662" cy="319.326" rx="2.487" ry="2.278" fill="#f8e99e"/><ellipse cx="492.678" cy="506.556" rx="1.958" ry="1.794" fill="#fff"/><ellipse cx="487.594" cy="511.038" rx="1.958" ry="1.793" fill="#fff"/><ellipse cx="497.657" cy="511.038" rx="1.958" ry="1.793" fill="#fff"/><ellipse cx="496.265" cy="507.793" rx="1.958" ry="1.793" fill="#fff"/><ellipse cx="488.955" cy="507.793" rx="1.957" ry="1.793" fill="#fff"/><ellipse cx="489.312" cy="514.309" rx="1.958" ry="1.793" fill="#fff"/><ellipse cx="496.084" cy="514.309" rx="1.958" ry="1.793" fill="#fff"/><ellipse cx="492.678" cy="515.703" rx="1.958" ry="1.793" fill="#fff"/><ellipse cx="492.678" cy="511.28" rx="4.346" ry="3.981" fill="#f8e99e"/><ellipse cx="463.865" cy="501.427" rx="1.958" ry="1.794" fill="#fff"/><ellipse cx="458.78" cy="505.909" rx="1.958" ry="1.793" fill="#fff"/><ellipse cx="468.843" cy="505.909" rx="1.958" ry="1.793" fill="#fff"/><ellipse cx="467.451" cy="502.664" rx="1.958" ry="1.793" fill="#fff"/><ellipse cx="460.141" cy="502.664" rx="1.957" ry="1.793" fill="#fff"/><ellipse cx="460.498" cy="509.18" rx="1.958" ry="1.793" fill="#fff"/><ellipse cx="467.271" cy="509.18" rx="1.958" ry="1.793" fill="#fff"/><ellipse cx="463.865" cy="510.574" rx="1.958" ry="1.793" fill="#fff"/><ellipse cx="463.864" cy="506.151" rx="4.346" ry="3.981" fill="#f8e99e"/><ellipse cx="306.513" cy="481.241" rx="1.169" ry="1.071" fill="#fff"/><ellipse cx="303.477" cy="483.917" rx="1.169" ry="1.07" fill="#fff"/><ellipse cx="309.486" cy="483.917" rx="1.169" ry="1.07" fill="#fff"/><ellipse cx="308.655" cy="481.979" rx="1.169" ry="1.071" fill="#fff"/><ellipse cx="304.29" cy="481.979" rx="1.169" ry="1.071" fill="#fff"/><ellipse cx="304.503" cy="485.87" rx="1.169" ry="1.071" fill="#fff"/><ellipse cx="308.547" cy="485.87" rx="1.169" ry="1.071" fill="#fff"/><ellipse cx="306.513" cy="486.703" rx="1.169" ry="1.071" fill="#fff"/><ellipse cx="306.513" cy="484.062" rx="2.595" ry="2.377" fill="#f8e99e"/><ellipse cx="335.834" cy="503.22" rx="1.958" ry="1.794" fill="#fff"/><ellipse cx="330.749" cy="507.702" rx="1.958" ry="1.793" fill="#fff"/><ellipse cx="340.813" cy="507.702" rx="1.958" ry="1.793" fill="#fff"/><ellipse cx="339.42" cy="504.456" rx="1.958" ry="1.793" fill="#fff"/><ellipse cx="332.11" cy="504.456" rx="1.957" ry="1.793" fill="#fff"/><ellipse cx="332.467" cy="510.972" rx="1.958" ry="1.793" fill="#fff"/><ellipse cx="339.24" cy="510.972" rx="1.958" ry="1.793" fill="#fff"/><ellipse cx="335.834" cy="512.366" rx="1.958" ry="1.793" fill="#fff"/><ellipse cx="335.833" cy="507.944" rx="4.346" ry="3.981" fill="#f8e99e"/><ellipse cx="481.929" cy="350.992" rx="1.958" ry="1.794" fill="#fff"/><ellipse cx="476.845" cy="355.473" rx="1.958" ry="1.793" fill="#fff"/><ellipse cx="486.908" cy="355.473" rx="1.958" ry="1.793" fill="#fff"/><ellipse cx="485.516" cy="352.228" rx="1.958" ry="1.793" fill="#fff"/><ellipse cx="478.206" cy="352.228" rx="1.957" ry="1.793" fill="#fff"/><ellipse cx="478.563" cy="358.744" rx="1.958" ry="1.793" fill="#fff"/><ellipse cx="485.335" cy="358.744" rx="1.958" ry="1.793" fill="#fff"/><ellipse cx="481.929" cy="360.138" rx="1.958" ry="1.793" fill="#fff"/><ellipse cx="481.929" cy="355.716" rx="4.346" ry="3.981" fill="#f8e99e"/><ellipse cx="519.63" cy="408.143" rx="1.958" ry="1.794" fill="#fff"/><ellipse cx="514.546" cy="412.625" rx="1.958" ry="1.793" fill="#fff"/><ellipse cx="524.609" cy="412.625" rx="1.958" ry="1.793" fill="#fff"/><ellipse cx="523.217" cy="409.38" rx="1.958" ry="1.793" fill="#fff"/><ellipse cx="515.906" cy="409.38" rx="1.957" ry="1.793" fill="#fff"/><ellipse cx="516.263" cy="415.896" rx="1.958" ry="1.793" fill="#fff"/><ellipse cx="523.036" cy="415.896" rx="1.958" ry="1.793" fill="#fff"/><ellipse cx="519.63" cy="417.29" rx="1.958" ry="1.793" fill="#fff"/><ellipse cx="519.63" cy="412.868" rx="4.346" ry="3.981" fill="#f8e99e"/><path fill="#923d05" d="M502.11 467.837l-47.763-1.585-1.08 8.492 50.77.87z"/><path fill="#e6e7e8" d="M453.17 466.797l-.08-4.162 50.65 1.195-.035 4.488z"/><path fill="#f5821f" d="M500.67 475.682l-43.037-1.057-1.27 5.187 44.87 1.98z"/><path fill="#e6e7e8" d="M459.55 479.69l.886 15.338 38.09 1.06 1.23-14.564M461.784 442.22l31.996.623.74 6.16-33.945-.67 1.153-5.41"/><path fill="#f5821f" d="M462.52 447.838l.43 15.243 28.69.53.986-15.355-30.752.29"/><path stroke-miterlimit="10" d="M477.663 442.315s-.914-5.672-4.522-7.117c-3.606-1.444-10.077 2.907 3.11 7.772l1.414-.655zM478.494 443.284s9.733-1.392 8.71-5.118c0 0-3.58-8.094-11.196 3.83" fill="none" stroke="#e6adaf" stroke-linecap="round" stroke-linejoin="round"/><path stroke-miterlimit="10" d="M478.803 434.2s2.155-6.008-1.51-7.29c0 0-6.378-.298-3.013 11.69l.964 3.887 3.56-8.286z" fill="none" stroke="#e6adaf" stroke-linecap="round" stroke-linejoin="round"/><path d="M317.777 495.858c.058-.13.217-.187.353-.133.137.055.202.203.144.33l-.002.004 4.825-.44c-.057-.07-.076-.165-.037-.25.057-.127.216-.188.352-.13.138.053.2.2.144.33-.002 0-.006.004-.007.007l4.832-.44c-.06-.07-.08-.166-.04-.254.057-.127.215-.186.35-.132.14.056.203.203.145.33-.003.007-.01.01-.012.017l4.842-.44c-.064-.07-.086-.17-.045-.26.058-.127.216-.187.354-.132.137.055.2.202.143.33-.005.01-.01.014-.017.023l4.85-.443c-.067-.07-.09-.173-.048-.265.057-.127.215-.188.352-.132.137.054.2.203.144.33-.005.01-.015.018-.02.028l4.86-.443c-.07-.07-.097-.176-.054-.27.048-.105.165-.16.282-.146l-1.42-13.036c-.057.016-.117.016-.175-.007-.136-.053-.2-.2-.143-.33.046-.1.154-.156.266-.15l-1.243-11.416-1.143.104c.008.003.015 0 .023.004.137.055.2.203.143.33-.058.13-.216.187-.353.133-.136-.055-.2-.203-.143-.33.025-.054.07-.09.12-.118l-5.094.463c.015.003.03.003.044.01.138.052.202.2.144.328-.058.128-.216.188-.353.134-.137-.055-.2-.202-.143-.33.025-.058.073-.1.13-.125l-5.127.466c.023.002.045.003.066.01.137.056.2.203.142.332-.057.128-.216.187-.353.132-.138-.055-.202-.202-.144-.33.03-.063.08-.108.143-.132l-5.16.47c.03 0 .06.004.09.016.136.054.2.202.142.33-.057.128-.216.186-.353.132-.137-.055-.2-.203-.144-.33.037-.08.112-.128.196-.144l-10.028.913.908 8.35c.006.002.01 0 .014.003.137.054.202.202.143.33-.02.05-.062.085-.11.11l1.425 13.08c.136.056.2.202.143.33-.02.043-.054.076-.094.102l.33 3.027.45-.04c-.053-.07-.072-.16-.033-.244zm.343-5.04c-.057.13-.216.188-.353.134-.137-.055-.202-.202-.144-.33.058-.127.217-.186.353-.132.137.053.2.2.144.33zm-.507-5.104c-.137-.055-.2-.202-.143-.33.058-.128.216-.187.353-.132.137.054.202.2.144.33-.058.127-.217.187-.354.132zm1.656 8.15c-.06.127-.218.186-.356.132-.137-.055-.2-.202-.143-.33.058-.128.217-.186.354-.132.137.053.202.203.144.33zm-.156-5.237c-.058.127-.216.187-.354.132-.136-.056-.2-.204-.142-.33.058-.13.216-.19.354-.135.136.055.2.203.143.33zm1.15 3.045c-.06.127-.218.187-.354.132-.136-.055-.2-.202-.143-.33.058-.128.216-.187.353-.132.138.054.202.202.144.33zm-.508-5.105c-.138-.055-.202-.202-.143-.33.058-.128.215-.187.353-.133.137.054.2.203.142.33-.058.128-.217.188-.353.133zm1.655 8.15c-.056.127-.215.187-.352.13-.138-.054-.203-.2-.144-.33.058-.127.216-.186.354-.13.135.054.2.202.142.33zm-.153-5.238c-.057.126-.216.186-.353.13-.137-.054-.2-.2-.143-.33.06-.127.217-.187.354-.132.137.054.2.202.143.33zm-.507-5.106c-.135-.055-.2-.202-.14-.33.057-.128.215-.186.352-.132.137.054.202.202.143.33-.06.127-.216.187-.354.132zm1.657 8.15c-.058.127-.216.186-.353.13-.137-.054-.202-.2-.143-.33.06-.126.218-.186.356-.13.136.054.2.2.142.33zm-.154-5.238c-.058.127-.216.188-.353.133-.137-.056-.2-.204-.143-.33.058-.13.216-.188.352-.133.136.054.2.2.142.33zm1.148 3.045c-.055.13-.214.188-.35.133-.14-.054-.2-.202-.145-.33.06-.128.216-.188.354-.132.136.055.2.203.142.33zm-.504-5.103c-.138-.055-.2-.203-.143-.33.058-.128.216-.187.353-.133.137.055.202.203.143.33-.06.127-.217.187-.354.133zm1.655 8.15c-.056.126-.215.185-.352.13-.137-.053-.2-.2-.144-.33.06-.127.216-.186.353-.13.138.053.202.2.144.33zm-.152-5.24c-.058.13-.216.19-.353.135-.137-.055-.202-.203-.144-.33.06-.128.218-.188.354-.132.138.054.2.202.144.33zm1.15 3.047c-.06.127-.218.186-.355.132-.137-.055-.2-.203-.143-.33.057-.128.215-.188.352-.133.137.055.202.202.144.33zm-.508-5.105c-.138-.055-.203-.203-.144-.33.058-.13.216-.188.353-.133.135.055.2.202.14.33-.057.127-.215.186-.352.132zm1.654 8.15c-.058.127-.216.186-.352.13-.138-.054-.202-.2-.144-.33.058-.127.216-.186.353-.13.14.053.203.2.145.33zm-.153-5.24c-.055.13-.214.19-.35.134-.138-.054-.203-.202-.145-.33.058-.128.216-.188.353-.133.137.057.2.204.144.33zm1.15 3.047c-.057.127-.216.185-.353.13-.138-.053-.202-.2-.143-.33.057-.127.216-.186.354-.132.136.055.2.204.14.332zm-.153-5.238c-.06.127-.216.185-.354.13-.136-.054-.2-.2-.143-.33.057-.127.215-.186.352-.13.138.054.202.202.144.33zm1.148 3.044c-.057.127-.216.187-.353.132-.136-.054-.2-.202-.142-.33.058-.128.216-.187.353-.132.138.054.202.203.144.33zm-.506-5.104c-.138-.054-.203-.2-.145-.33.058-.127.216-.186.353-.132.137.054.202.202.144.33-.057.128-.215.187-.352.133zm1.654 8.15c-.058.127-.216.186-.353.13-.137-.052-.2-.2-.143-.33.06-.126.216-.185.353-.13.137.054.2.202.143.33zm-.154-5.237c-.06.128-.217.188-.354.132-.137-.055-.202-.202-.144-.33.057-.128.216-.186.353-.132.138.054.202.203.144.33zm1.148 3.045c-.057.127-.216.188-.353.132-.136-.054-.202-.203-.143-.33.058-.128.216-.187.353-.132.137.053.2.202.143.33zm-.507-5.105c-.135-.054-.2-.202-.14-.33.057-.128.214-.186.352-.132.14.056.203.204.145.33-.058.13-.216.188-.354.134zm1.657 8.15c-.058.127-.216.187-.353.132-.137-.054-.2-.203-.144-.33.057-.128.216-.187.352-.132.14.053.203.202.144.33zm-.153-5.237c-.058.127-.216.188-.354.132-.138-.055-.202-.202-.143-.33.058-.128.215-.188.353-.132.138.054.2.202.143.33zm1.148 3.044c-.056.128-.215.188-.352.132-.138-.053-.2-.202-.143-.33.058-.126.216-.186.353-.13.138.052.202.2.143.328zm-.152-5.237c-.058.128-.216.188-.353.133-.138-.055-.202-.2-.144-.33.058-.128.217-.187.354-.132.138.053.202.2.144.33zm1.148 3.045c-.058.128-.215.187-.353.133-.137-.053-.2-.2-.143-.33.06-.125.215-.184.353-.13.137.054.2.2.143.33zm-.506-5.105c-.137-.054-.202-.202-.143-.33.056-.127.215-.186.353-.13.137.053.202.2.144.328-.06.13-.218.19-.354.134zm1.656 8.15c-.058.127-.216.187-.354.132-.137-.055-.202-.203-.143-.33.057-.128.216-.188.353-.133.137.055.202.203.144.33zm-.154-5.237c-.058.128-.215.187-.353.132-.14-.054-.2-.202-.144-.33.058-.128.218-.187.354-.133.135.055.2.203.142.33zm1.148 3.044c-.057.128-.215.188-.353.133-.14-.055-.203-.203-.145-.33.058-.128.216-.187.354-.132.136.056.2.204.142.33zm-.506-5.104c-.138-.055-.202-.202-.145-.33.058-.127.216-.186.354-.132.136.055.2.202.143.33-.057.127-.215.187-.352.132zm1.655 8.15c-.057.128-.216.187-.353.132-.137-.054-.2-.202-.143-.33.058-.128.215-.187.353-.133.136.055.2.203.143.33zm-.153-5.237c-.06.126-.216.185-.354.13-.137-.054-.2-.2-.143-.33.056-.127.215-.187.352-.13.137.052.2.2.144.33zm1.15 3.042c-.06.128-.218.187-.355.132-.135-.055-.2-.202-.142-.33.058-.128.216-.187.354-.132.136.055.2.203.143.33zm-.155-5.237c-.057.128-.215.188-.352.133-.138-.055-.202-.203-.144-.33.058-.13.217-.19.353-.134.136.055.2.202.143.33zm1.148 3.046c-.057.128-.216.187-.353.133-.138-.055-.202-.202-.143-.33.058-.13.216-.188.353-.133.138.055.203.203.143.332zm-.506-5.104c-.138-.055-.202-.202-.143-.33.058-.128.216-.187.353-.133.137.054.2.203.143.33-.057.128-.216.187-.353.133zm1.656 8.15c-.058.126-.216.185-.353.13-.137-.053-.2-.2-.143-.33.057-.126.216-.186.353-.13.136.053.2.2.143.33zm-.154-5.238c-.057.127-.215.185-.353.132-.136-.055-.2-.203-.143-.33.058-.128.217-.187.354-.133.138.053.202.2.144.33zm1.15 3.043c-.06.13-.217.188-.355.133-.137-.054-.2-.202-.144-.33.06-.128.217-.187.354-.132.136.056.2.204.143.33zm-.508-5.103c-.137-.056-.2-.203-.143-.33.058-.13.216-.188.354-.133.135.054.2.202.142.33-.06.127-.217.186-.354.132zm1.655 8.148c-.057.127-.216.187-.353.133-.137-.054-.2-.2-.143-.33.058-.127.217-.187.353-.132.138.055.202.203.144.33zm-.152-5.237c-.057.13-.215.19-.352.133-.138-.052-.203-.2-.145-.33.058-.127.216-.186.354-.13.138.056.202.203.144.33zm1.15 3.046c-.06.128-.217.188-.354.133-.137-.056-.202-.204-.144-.33.057-.13.216-.188.353-.133.136.053.2.2.143.33zm-.154-5.236c-.058.126-.216.186-.354.132-.138-.055-.202-.203-.144-.33.058-.128.216-.188.353-.133.138.054.2.202.144.33zm-1.952-13.717c.058-.126.216-.186.353-.13.137.055.202.2.143.33-.057.13-.215.186-.353.132-.136-.054-.2-.202-.142-.33zm.154 5.238c.058-.128.215-.186.354-.132.137.055.2.202.143.33-.057.128-.215.186-.352.132-.138-.054-.202-.202-.144-.33zm.507 5.104c.138.055.203.202.144.33-.058.13-.216.187-.354.134-.136-.055-.2-.203-.142-.33.058-.128.215-.188.353-.134zm-1.654-8.148c.06-.13.217-.187.354-.133.136.056.2.203.142.33-.058.13-.217.188-.353.134-.138-.055-.203-.203-.144-.33zm.507 5.104c.136.054.2.202.143.33-.058.128-.216.186-.353.132-.137-.054-.202-.2-.144-.33.06-.127.217-.187.354-.132zm-1.655-8.15c.058-.127.216-.187.353-.13.137.054.202.2.143.33-.06.126-.217.186-.354.132-.138-.055-.2-.204-.143-.33zm.153 5.238c.058-.128.216-.188.353-.133.137.054.202.202.144.33-.058.128-.216.187-.354.132-.136-.054-.2-.2-.143-.33zm.507 5.104c.137.055.202.202.144.33-.057.128-.215.187-.352.133-.138-.054-.202-.203-.143-.33.057-.13.216-.188.353-.133zm-1.655-8.15c.058-.127.216-.188.353-.132.137.055.2.202.143.33-.058.128-.217.187-.353.132-.137-.054-.202-.2-.143-.33zm.507 5.105c.136.055.2.202.142.33-.058.13-.216.187-.353.133-.14-.054-.202-.203-.145-.33.058-.128.217-.187.354-.133zm-1.657-8.148c.058-.13.217-.188.353-.134.137.055.2.203.144.33-.058.128-.217.188-.354.133-.137-.057-.2-.204-.143-.33zm.153 5.235c.06-.128.217-.187.354-.133.136.054.2.202.143.33-.058.127-.216.186-.353.132-.137-.055-.202-.202-.144-.33zm.508 5.104c.137.054.2.202.143.33-.057.127-.215.186-.352.132-.137-.054-.202-.203-.143-.33.06-.127.217-.187.354-.133zm-1.656-8.15c.058-.128.216-.187.353-.132.14.054.203.202.145.33-.057.127-.216.187-.353.132-.137-.054-.202-.202-.144-.33zm.154 5.237c.058-.128.216-.186.353-.132.137.055.2.2.143.33-.06.128-.217.188-.354.133-.14-.054-.203-.202-.145-.33zm.507 5.104c.136.055.2.203.142.332-.057.126-.215.186-.353.13-.138-.054-.202-.2-.144-.33.057-.127.215-.186.353-.132zm-1.657-8.148c.058-.13.216-.187.353-.133.137.055.2.202.142.33-.06.128-.217.188-.354.132-.137-.055-.2-.203-.143-.33zm.508 5.103c.138.055.2.203.144.33-.057.13-.216.188-.354.133-.136-.055-.2-.203-.143-.33.058-.13.217-.188.355-.134zm-1.656-8.148c.06-.13.217-.187.354-.132.136.054.2.2.143.33-.057.128-.215.186-.352.132-.137-.055-.202-.203-.144-.33zm.154 5.236c.057-.126.216-.186.353-.13.138.053.202.2.144.33-.06.126-.218.186-.354.13-.136-.053-.2-.2-.142-.33zm.507 5.106c.136.054.2.2.143.328-.06.128-.218.188-.355.132-.137-.054-.202-.202-.143-.33.058-.126.215-.185.353-.13zm-1.657-8.15c.057-.13.215-.187.352-.132.138.054.202.2.144.33-.06.128-.217.188-.354.132-.137-.055-.202-.203-.144-.33zm.506 5.105c.136.055.2.203.142.33-.06.128-.217.188-.354.13-.137-.052-.2-.2-.143-.327.058-.128.216-.187.353-.132zm-1.655-8.15c.057-.127.215-.186.352-.13.138.053.202.2.144.33-.057.126-.215.186-.352.13-.138-.054-.202-.2-.143-.33zm.152 5.238c.058-.127.216-.186.354-.132.137.054.2.202.144.33-.057.127-.215.187-.353.13-.135-.053-.2-.2-.142-.328zm.507 5.105c.138.055.202.202.144.33-.058.128-.217.187-.353.133-.136-.055-.2-.202-.142-.33.058-.13.216-.188.353-.133zm-1.655-8.15c.06-.128.215-.187.353-.132.136.056.2.203.14.33-.056.128-.214.187-.352.133-.135-.054-.2-.202-.142-.33zm.154 5.237c.058-.128.216-.187.353-.132.137.054.202.202.143.33-.058.127-.216.186-.352.13-.14-.053-.203-.2-.144-.328zm.506 5.105c.137.054.2.2.143.328-.06.13-.217.188-.355.133-.136-.054-.2-.2-.143-.33.06-.127.217-.186.354-.13zm-1.655-8.15c.06-.128.217-.188.354-.133.135.054.2.202.143.33-.06.126-.217.187-.353.132-.138-.056-.203-.203-.144-.33zm.507 5.104c.138.053.202.2.144.33-.057.126-.215.186-.352.13-.138-.053-.2-.2-.144-.33.058-.126.217-.186.353-.13zm-1.655-8.15c.058-.128.216-.19.353-.133.138.055.2.202.143.33-.058.128-.216.187-.353.133-.136-.055-.2-.202-.143-.33zm.153 5.236c.058-.126.216-.185.355-.13.136.054.2.202.143.33-.058.127-.216.186-.353.132-.138-.055-.202-.203-.145-.33zm.508 5.107c.137.053.2.202.143.33-.057.128-.215.186-.352.132-.138-.056-.202-.203-.143-.332.058-.127.215-.186.353-.13zm-1.656-8.15c.058-.128.217-.187.353-.13.137.053.2.2.143.328-.058.128-.217.187-.352.133-.137-.054-.2-.203-.143-.33zm.507 5.105c.136.054.2.202.142.33-.058.128-.215.187-.353.132-.138-.054-.2-.202-.144-.33.06-.128.216-.187.354-.132zm-1.657-8.15c.057-.13.216-.187.353-.133.138.053.203.2.144.33-.058.127-.216.186-.353.13-.136-.052-.2-.2-.142-.328zm.154 5.236c.058-.127.216-.186.354-.132.137.055.2.203.144.33-.06.13-.217.187-.354.133-.137-.056-.202-.203-.144-.332zm.508 5.105c.136.054.2.202.143.33-.06.127-.217.187-.353.132-.138-.055-.202-.202-.144-.33.06-.128.216-.187.355-.133zm-1.656-8.15c.056-.128.215-.188.352-.13.136.053.2.2.143.33-.058.126-.216.185-.354.13-.135-.054-.2-.2-.14-.33zm.152 5.237c.058-.127.216-.185.354-.13.137.053.202.2.144.33-.058.127-.216.185-.353.13-.138-.053-.2-.2-.143-.33zm.507 5.105c.136.055.2.203.14.33-.056.128-.215.187-.35.133-.14-.055-.203-.203-.144-.33.058-.128.217-.187.354-.133zm-1.657-8.148c.06-.13.217-.188.354-.133.137.056.202.203.143.33-.058.13-.216.19-.353.133-.138-.054-.202-.202-.144-.33zm.506 5.104c.136.055.2.203.143.33-.058.128-.216.187-.354.133-.138-.054-.2-.202-.144-.33.06-.127.218-.186.354-.13zm-1.655-8.15c.058-.126.216-.186.353-.13.137.053.202.2.144.33-.06.127-.216.186-.354.132-.137-.055-.202-.203-.143-.33zm.153 5.24c.058-.13.216-.19.353-.133.138.054.203.2.144.33-.06.128-.217.186-.355.133-.137-.056-.2-.204-.143-.33zm.507 5.102c.137.055.202.203.143.33-.057.13-.216.188-.353.133-.137-.055-.202-.202-.144-.33.06-.127.218-.187.355-.133zm-1.655-8.148c.057-.128.216-.188.354-.133.136.055.2.203.142.33-.057.13-.216.188-.354.134-.137-.056-.202-.204-.143-.33zm.507 5.104c.137.055.2.202.143.33-.058.128-.216.188-.354.132-.136-.054-.2-.202-.142-.33.058-.127.216-.186.354-.132zm-1.656-8.15c.06-.127.217-.187.354-.132.136.055.2.202.143.33-.058.128-.216.186-.354.133-.138-.056-.202-.203-.144-.33zm.155 5.238c.058-.127.215-.186.353-.13.137.052.202.2.144.328-.058.127-.217.187-.353.132-.14-.055-.204-.202-.145-.33zm.507 5.104c.138.055.2.202.143.33-.058.128-.215.188-.353.133-.137-.054-.2-.2-.143-.33.057-.127.215-.187.352-.132zm-1.656-8.15c.058-.127.218-.186.354-.132.137.055.202.203.143.33-.057.13-.216.19-.353.133-.137-.055-.2-.203-.143-.33zm.507 5.106c.138.054.202.2.144.33-.057.127-.215.187-.352.132-.137-.055-.2-.202-.143-.33.058-.128.216-.187.352-.132zm-1.655-8.15c.058-.13.216-.186.353-.132.14.054.2.202.145.33-.06.127-.217.187-.354.13-.136-.052-.2-.2-.143-.328zm.154 5.237c.058-.127.217-.187.354-.13.137.054.202.202.144.33-.058.127-.216.187-.353.132-.138-.055-.203-.202-.144-.33zm.507 5.106c.136.054.2.202.142.33-.058.127-.217.186-.353.132-.138-.054-.203-.202-.144-.33.057-.128.216-.187.353-.132zm-1.657-8.15c.058-.128.217-.186.353-.132.138.054.202.202.143.33-.06.127-.217.187-.354.132-.137-.054-.2-.2-.143-.33zm.154 5.237c.06-.128.217-.187.355-.132.136.056.2.203.143.33-.058.128-.217.187-.353.133-.138-.054-.203-.202-.144-.33zm.508 5.105c.137.055.2.203.143.33-.057.128-.215.187-.353.133-.137-.054-.2-.2-.143-.33.06-.13.217-.186.354-.132zm-1.656-8.15c.057-.128.216-.186.353-.132.136.054.202.202.142.33-.058.128-.215.187-.353.132-.137-.053-.2-.202-.143-.33zm.506 5.105c.136.055.2.203.142.33-.058.13-.216.187-.354.133-.136-.055-.2-.203-.144-.33.06-.13.218-.187.355-.133zm-1.656-8.15c.058-.127.216-.186.354-.13.137.053.2.2.143.33-.057.127-.216.186-.353.132-.137-.056-.2-.203-.143-.33zm.153 5.238c.058-.127.216-.186.355-.13.136.055.2.202.143.33-.057.13-.215.186-.353.132-.137-.054-.2-.203-.143-.33zm.506 5.105c.137.054.2.202.142.33-.057.128-.216.187-.352.132-.138-.056-.202-.203-.144-.33.058-.128.217-.187.353-.133zm-1.656-8.15c.06-.127.216-.186.353-.13.14.054.203.2.144.328-.056.128-.215.188-.352.133-.135-.054-.2-.203-.142-.33zm1.6 13.85c-.137-.055-.2-.203-.143-.33.06-.13.217-.188.354-.133.138.054.202.202.144.33-.06.128-.217.187-.354.132zM323.12 470.16l2.742 25.18-1.083.1-2.743-25.182zM315.514 478.44l26.988-2.483.11 1.01-26.986 2.483z" fill="#f5821f"/><path d="M322.196 470.662c-.497-.068-1.44-.197-1.89-.34-1.41-.45-2.845-1.06-4.025-1.93-.287-.215-1.156-.92-1.28-1.13-.17-.287-.614-1.386-.636-1.656-.048-.673.06-1.264.417-1.864.238-.396.63-1.07 1.1-1.257.564-.22 1.29.07 1.82.258.38.136.807.467 1.09.737.423.403.75.778 1.076 1.256.548.796 1.1 1.565 1.507 2.43.4.858.858 1.81 1.155 2.724-.138.038-.11.084-.225.192-.06-.255-.273-.583-.375-.824-.12-.282-1.266-2.38-1.378-2.543-.146-.212-.343-.37-.47-.602-.102-.184-1.29-1.773-1.634-2.095-.147-.137-.28-.303-.463-.4-.157-.083-.297-.207-.458-.284-.145-.07-.277-.06-.42.002-.067.035-.412.128-.483.157-.254.112-.58.468-.67.7-.107.28-.19.724-.092.982.143.38.315.757.54 1.11.443.684 1.217 1.238 1.828 1.806.53.496 1.283.94 1.918 1.29.274.153 2.075.91 2.1.894l-.05.39zM322.653 471.078c.396-.13 1.15-.38 1.496-.566 1.08-.587 2.155-1.307 2.97-2.205.2-.22.788-.934.853-1.126.087-.26.257-1.236.225-1.462-.083-.562-.28-1.034-.683-1.476-.268-.29-.713-.788-1.136-.87-.504-.096-1.05.254-1.454.49-.288.17-.582.51-.766.774-.275.395-.475.754-.658 1.198-.31.74-.62 1.46-.8 2.235-.178.77-.38 1.622-.46 2.422.12.012.106.054.22.125.004-.22.12-.522.16-.735.047-.254.612-2.158.674-2.31.08-.198.216-.36.277-.568.05-.167.744-1.656.97-1.975.094-.137.177-.293.31-.4.114-.093.206-.217.325-.307.108-.078.218-.09.35-.062.058.023.36.044.425.06.228.05.562.297.676.476.14.216.29.568.254.794-.05.337-.12.674-.244.998-.24.632-.778 1.207-1.18 1.768-.35.488-.887.97-1.348 1.356-.198.166-1.547 1.062-1.57 1.053l.11.315z" fill="#00acd4"/><path d="M249.663 462.28c2.497-.666 4.028-1.136 4.964-1.45-.002-.01-.004-.015-.007-.022-.787-2.128-2.575-10.706-2.575-10.706l-7.12.4 2.266 9.418s-1.06.264-2.287.667c.01.927.515 2.828 4.76 1.693z" fill="#fcdcc3"/><path d="M248.233 465.952c6.526-1.35 7.497-2.138 6.395-5.123-.936.313-2.468.783-4.964 1.45-4.246 1.134-4.75-.767-4.76-1.694-1.526.498-3.3 1.208-3.597 1.89-.532 1.227.385 4.825 6.926 3.475z" fill="#cc790a"/><path d="M270.698 458.283c-2.52.58-4.102.883-5.084 1.046 0-.01-.004-.017-.005-.023-.496-2.2-3.69-10.43-3.69-10.43l6.365-2.95 3.242 9.175s1.064-.263 2.342-.486c.503.803 1.12 2.677-3.173 3.666z" fill="#fcdcc3"/><path d="M273.96 460.788c-6.377 1.857-7.648 1.627-8.346-1.46.982-.162 2.563-.464 5.084-1.045 4.29-.99 3.676-2.862 3.173-3.667 1.594-.273 3.52-.483 4.148-.033 1.137.813 2.332 4.343-4.058 6.205z" fill="#cc790a"/><path d="M259.216 413.02s6.923-3.32 9.398-4.92c2.474-1.606 9.754-6.685 9.754-6.685s2.345-3.085 2.804-3.848c.46-.76 1.568-1.974 2.1-1.533.533.442-.792 2.237-.792 2.237s2.163-2.366 2.933-1.73c.767.64-2.308 2.76-2.308 2.76s2.688-2.035 3.576-1.295c.89.735-2.83 2.423-2.83 2.423s3.353-1.28 3.464-.376c.11.908-3.116 1.48-3.116 1.48s2.238.74 1.713 1.32c-.53.58-2.16.543-2.575.197 0 0-1.62 2.01-2.896 2.27 0 0-14.706 13.398-17.44 12.75-2.744-.653-3.783-5.05-3.783-5.05zM239.485 415.78s-7.293 1.49-10.164 1.718c-2.867.224-11.532.623-11.532.623s-3.696-.934-4.52-1.232c-.825-.3-2.42-.56-2.543.063-.124.628 2 1.195 2 1.195s-3.114-.513-3.292.392c-.177.9 3.466.716 3.466.716s-3.3.026-3.506 1.07c-.208 1.042 3.65.173 3.65.173s-3.324.96-2.84 1.683c.484.727 3.27-.68 3.27-.68s-1.218 1.81-.458 1.936c.76.126 1.968-.826 2.063-1.306 0 0 2.477.546 3.6.02 0 0 19.47 1.49 21.128-.533 1.65-2.026-.322-5.836-.322-5.836z" fill="#fcdcc3"/><path d="M216.3 400.04s-7.16-13.82 4.206-25.102c11.368-11.28 37.543-13.073 45.56-2.482 7.73 10.21 6.834 19.362 5.536 21.052-1.3 1.69-45.133 8.29-44.99 8.575.14.285-10.31-2.044-10.31-2.044z" fill="#3f1600"/><path d="M217.61 399.22s-4.32-1.497-3.865 1.733c.353 2.495 2.785 3.45 5.516 2.876 0 0 5.185 17.005 28.843 12.175 24.2-4.936 22.84-19.512 22.84-19.512s3.162.69 3.357-2.405c.172-2.767-2.373-2.326-3.363-2.045-.99.28-7.064-3.487-14.357-3.014 0 0-2.81-7.423-5.836-10.07 0 0 2.772 9.17 1.993 10.42l-14.25 1.9-2.804-11.06 1.345 11.413s-14.587 4.585-19.42 7.585z" fill="#fcdcc3"/><path d="M245.91 401.24c.287.167-.182 1.44.376 1.562.558.117-.688.39-1.083.09-.394-.3.356-1.856.706-1.653z" fill="#d3a98c"/><path d="M231.377 406.758c.36 1.522-.698 3.025-2.36 3.355-1.666.328-3.304-.638-3.664-2.164-.362-1.526.696-3.027 2.36-3.357 1.664-.33 3.306.638 3.664 2.164zM264.407 400.22c.36 1.525-.697 3.024-2.36 3.355-1.665.33-3.305-.64-3.664-2.163-.36-1.524.695-3.026 2.36-3.355 1.665-.33 3.305.64 3.664 2.163z" fill="#f89fa8"/><path d="M231 399.588c-1.246.302-2.023 1.395-1.877 2.536l4.883-1.184c-.493-1.058-1.758-1.655-3.005-1.352zM256.276 394.757c-1.247.303-2.024 1.397-1.88 2.536l4.883-1.184c-.494-1.058-1.76-1.657-3.005-1.354z"/><path d="M277.796 405.533s-2.77.928-3.376.928c-.605 0-1.126 1.034.433 1.343 1.56.31 3.204-.412 3.464-.102.26.31 1.125-1.24 1.125-1.24l-1.646-.926z" fill="#fcdfcd"/><path d="M257.633 394.77l2.046-.933-1.54 1.127h1.14l-.407.547zM230.395 399.645h-1.46l.73.6-1.3.572 1.015.468z"/><path d="M243.434 408.523s5.388.993 8.494-2.19c0 0-2.195 7.91-8.494 2.19z" fill="#f4719d"/><ellipse cx="270.489" cy="371.586" rx="6.735" ry="6.168" fill="#3f1600"/><ellipse cx="211.324" cy="380.914" rx="6.735" ry="6.168" fill="#3f1600"/><path d="M239.168 439.044l-5.984 8.723s19.81 9.834 41.77-5.264l-5.798-7.433s-15.856 5.002-29.988 3.974z" fill="#9f2d00"/><path d="M234.457 416.098s8.93-.296 16.844-1.686c7.917-1.392 13.467-5.722 13.467-5.722l4.412 6.9-6.174 3.302 6.15 16.953s-12.488 3.175-16.48 3.595c-3.998.42-13.507.38-13.507.38l.845-17.225-5.183.527-.373-7.024z" fill="#cc790a"/><path d="M525.686 456.306c-.192-.527-.213-1.005-.17-1.423 1.264.146 2.234.35 2.234.35l6.766-14.484 7.022 2.01s-5.63 11.46-8.815 16.227c-2.06-.4-6.57-1.405-7.037-2.682z" fill="#f9dccc"/><path d="M519.66 456.422c.165-1.862 3.52-1.81 5.857-1.54-.044.42-.023.897.17 1.424.465 1.277 4.975 2.282 7.035 2.682-.772 1.152-1.402 1.92-1.773 2.028-1.894.553-11.54-1.727-11.29-4.594z" fill="#fc0067"/><path d="M550.42 464.144c.47-.354.77-.748.98-1.122-1.13-.482-2.054-.767-2.054-.767l2.924-15.48-6.998-1.633s-2.088 12.382-2.255 17.933c1.937.64 6.266 1.928 7.403 1.07z" fill="#f9dccc"/><path d="M555.346 467.106c.962-1.656-1.85-3.203-3.946-4.084-.21.374-.51.768-.98 1.122-1.136.86-5.465-.43-7.402-1.07-.042 1.346.03 2.293.272 2.56 1.24 1.367 10.574 4.016 12.056 1.472z" fill="#fc0067"/><path d="M538.57 399.648l-9.16-14.625s-4.478 2.62-4.126 1.018c.356-1.6 1.664-2.196 1.664-2.196s-4.915-1.043-3.736-2.523c1.18-1.476 4.09.11 4.09.11s-3.01-2.785-1.515-3.93c1.494-1.145 3.423 1.376 3.423 1.376s-1.02-2.516.678-2.898c1.706-.376 1.61 2.184 1.61 2.184s1.6-.76 2.952-.35c1.25.38.54 2.062-.503 3.483-.083.117-.175.233-.266.345-1.175 1.48 10.46 15.656 10.46 15.656l-5.57 2.354z" fill="#f9dccc"/><path d="M545.245 389.33s-7.897-2.233-12.987 8.03c0 0-.443 3.327 7.885.71 8.33-2.612 9.612-5.65 9.612-5.65l-4.51-3.09zM580.633 408.05s-5.06 6.97 6.33 14.523c0 0 3.214-.288 3.32-8.226.1-7.938-2.643-10.04-2.643-10.04l-7.007 3.743z" fill="#3f000b"/><path d="M571.48 424.854l14.865 10.45s-3.58 3.64-1.75 3.56c1.834-.078 2.69-1.167 2.69-1.167s.422 4.578 2.243 3.74c1.82-.838.496-3.7.496-3.7s2.64 3.134 4.13 1.957c1.497-1.175-1.01-3.287-1.01-3.287s2.64 1.295 3.316-.18c.674-1.48-2.18-1.778-2.18-1.778s1.08-1.328.83-2.608c-.233-1.186-2.206-.797-3.94-.07-.145.058-.285.12-.423.186-1.82.84-15.818-11.77-15.818-11.77l-3.45 4.664z" fill="#f9dccc"/><path d="M543.562 393.51s8.742 12.733 19.37 18.85c10.632 6.11 16.847 10.045 16.847 10.045l-5.24 5.83-7.52-4.147s-4.22 25.91-4.063 30.877l-44.21-16.952 23.813-30.323-6.977-10.136 7.98-4.044z" fill="#4bdcff"/><path d="M561.868 408.814s-3.336 4.606-6.26 4.41c-2.327-.16-3.938-1.633-1.453-4.96 2.485-3.328 7.713.55 7.713.55zM545.15 386.64s-3.385-2.965-5.376 1.083c-1.994 4.042 4.916 5.4 4.916 5.4s-.916 12.732 15.474 18.628c16.393 5.9 23.894-3.795 23.894-3.795s5.016 2.037 7.78-1.03c2.764-3.066-2.024-3.893-2.024-3.893s-2.196-24.83-7.783-25.676c-5.582-.844-31.062 2.44-31.062 2.44l-5.817 6.845z" fill="#f9dccc"/><path d="M580 382.844s-29.894 7.755-34.85 3.795c0 0 13.462-29.274 40.965-11.84 18.883 11.966 4.473 29.206 4.473 29.206s-13.573-1.742-10.59-21.163z" fill="#3f000b"/><path d="M560.27 391.423c.997.4 1.486 1.156 1.224 1.784l-4.015-1.623c.627-.48 1.793-.566 2.79-.16zM578.192 400.24c.987.655 1.35 1.498.925 2.01l-3.972-2.648c.785-.27 2.06-.02 3.047.637z"/><path d="M564.204 401.215s-.638 1.515-1.463 1.282c-.822-.234.68.945 1.503.394.82-.553.57-1.723-.038-1.674zM544.71 388.206l-.915 3.315s-3.157-.89-2.825-3.255c.333-2.363 3.74-.058 3.74-.058zM586.234 406.76l2.25-2.988s2.29-.11 1.816 1.613c-.468 1.724-3.165 2.06-4.066 1.376z" fill="#ddb59f"/><path d="M537.926 412.737c5.235 2.78 22.86 12.143 28.24 14.998-.107.504-.222 1.04-.337 1.6l-28.757-15.273.852-1.325z" fill="#fc0067"/><path d="M574.038 408.51c.52 1.613 2.393 2.54 4.186 2.07 1.79-.473 2.825-2.162 2.306-3.774-.52-1.612-2.394-2.537-4.185-2.07-1.793.473-2.826 2.16-2.307 3.774zM546.9 396.444c.52 1.614 2.394 2.538 4.185 2.067 1.793-.47 2.826-2.16 2.308-3.77-.52-1.615-2.395-2.54-4.188-2.067-1.792.47-2.822 2.16-2.304 3.772z" fill="#f99da4"/><path fill="#4bdcff" d="M562.642 376.702l-3.893 3.584 5.317 1.008-.812-4.502 3.143-3.934-4.66-.667z"/><path d="M565.64 407.22c-.52.22-6.91-2.948-7.124-4.495-.21-1.548-1.735 6.917 6.605 4.715" fill="#d84853"/><path d="M450.506 426.758s-1.035 5.27-1.286 7.23c-.254 1.957.25 7.215.25 7.215l11.424.056s2.072-9.313 2.605-9.316c.536-.004.867-.19.867-.19l13.536 6.348s6.095-7.502 6.087-8.54c0 0-6.768-2.715-7.638-3.506-.875-.79-3.027-2.427-3.027-2.427l-15.833-.583-6.986 3.71z" fill="#386a93"/><path d="M449.47 441.203l11.424.056s.123-.56.32-1.4l-11.842.232c.055.67.1 1.11.1 1.11z" fill="#6a8aa0"/><path d="M475.834 393.907c-.15.978-1.14 1.662-2.208 1.523-1.07-.135-1.82-1.04-1.666-2.02.15-.982 1.14-1.665 2.21-1.527 1.067.14 1.813 1.045 1.664 2.024z" fill="#f89fa8"/><ellipse cx="473.473" cy="389.422" rx=".187" ry=".172" fill="#fff"/><path d="M486.622 437.967c-.62.653-1.28 1.157-1.878 1.547-3.57-1.653-8.436-4.046-8.436-4.046l3.22-5.357 8.057 4.256c.152.972.136 2.45-.963 3.602z" fill="#f9dccc"/><path d="M494.074 433.06c3.467.037 2.966 3.245 2 4.255-.96 1.01-6.94 3.73-7.668 3.736-.252.005-1.776-.662-3.662-1.535.598-.39 1.258-.894 1.878-1.547 1.1-1.152 1.114-2.63.963-3.6l1.137.598s1.882-1.938 5.352-1.906z" fill="#00593e"/><path d="M457.105 450.266c.917-.208 1.705-.513 2.36-.824.026-3.665-.072-8.72-.072-8.72l-6.674.176.447 8.503c.874.57 2.314 1.233 3.937.867z" fill="#f9dccc"/><path d="M448.935 454.09c-1.552 2.84 1.794 3.898 3.214 3.577 1.42-.323 6.792-3.95 7.132-4.538.118-.205.167-1.75.184-3.69-.657.31-1.444.616-2.36.825-1.624.366-3.065-.296-3.938-.865l.058 1.203s-2.743.643-4.293 3.486z" fill="#00593e"/><path d="M483.993 429.562s-.496-.198-1.233-.503l-6.052 8.48 1.197.56s6.095-7.5 6.088-8.54zM480.122 430.44c.593-.44 1.01-1.216 1.29-1.944-1.59-.674-3.51-1.518-4.495-2.07l-1.417 2.024s3.294 2.978 4.622 1.99z" fill="#6a8aa0"/><path d="M449.08 406.804s-6.62.718-9.153.85c-2.532.13-10.144.226-10.144.226s-3.092-1.13-3.767-1.476c-.675-.347-2.028-.687-2.225-.03-.2.66 1.575 1.34 1.575 1.34s-2.64-.662-2.927.29c-.285.952 2.918.89 2.918.89s-2.876-.094-3.208 1.005c-.327 1.097 3.16.32 3.16.32s-3.036.89-2.722 1.677c.32.79 2.95-.597 2.95-.597s-1.32 1.874-.676 2.037c.64.16 1.83-.803 1.984-1.313 0 0 2.083.682 3.14.158 0 0 16.758 2.32 18.49.236 1.735-2.084.607-5.614.607-5.614zM469.315 405.07s6.315-1.44 8.655-2.324c2.342-.883 9.3-3.797 9.3-3.797s2.53-2.214 3.057-2.784c.53-.57 1.676-1.403 2.023-.9.346.5-1.094 1.795-1.094 1.795s2.237-1.62 2.738-.896c.5.725-2.434 1.933-2.434 1.933s2.6-1.216 3.174-.382c.583.836-2.793 1.525-2.793 1.525s2.993-.41 2.9.406c-.087.82-2.835.637-2.835.637s1.678 1.124 1.134 1.52c-.548.398-1.875.018-2.143-.37 0 0-1.723 1.417-2.82 1.374 0 0-14.68 8.64-16.786 7.49-2.105-1.147-2.074-5.226-2.074-5.226z" fill="#f9dccc"/><path d="M458.39 405.068s-11.213 1.716-11.714 1.72c-.5.003-1.002-.177-1.002-.177l.245 6.607s5.01-.03 5.405-.306c0 0-.458 6.15-1.046 7.715-.59 1.563-2.645 9.01-2.645 9.01s3.008.44 8.616.13c5.61-.305 20.934-1.59 21.316-4.712 0 0-2.523-2.187-3.135-4.02-.62-1.83-3.374-9.614-3.374-9.614l5.398-1.59-2.28-6.47s-10.784.763-15.786 1.71z" fill="#00b17c"/><path d="M456.655 401.133s.046 6.514 4.953 6.212c4.91-.304 4.768-6.084 4.768-6.084l-9.72-.126zM435.045 386.086s-3.353-1.57-4.136 1.247c-.784 2.82 3.104 4.633 4.442 4.625 0 0 3.725 13.778 28.14 12.192 16.558-1.075 18.057-15.644 18.057-15.644s4.68-.026 4.662-2.35c-.016-2.324-4.16-2.422-4.16-2.422s-3.074-.106-5.228-2.785c-2.156-2.68-3.92-6.708-3.92-6.708s-13.493-16.775-37.86 11.843z" fill="#f9dccc"/><path d="M445.026 392.666c-.14.904-1.055 1.537-2.043 1.407-.988-.122-1.68-.96-1.54-1.865.14-.91 1.053-1.54 2.043-1.413.988.13 1.68.966 1.54 1.87z" fill="#f89fa8"/><path d="M458.88 399.407c2.363.36 3.57-.67 4.182-1.83-.065-.037-.127-.072-.197-.107-2.383-1.173-5.14-.786-7.007-.24.337 1.004 1.18 1.896 3.022 2.177z" fill="#d84853"/><path d="M461.343 393.088s-1.713.546-1.968-.227c-.253-.767-.767-.474-.274.327.493.8 2.19 1.077 2.408.643.217-.435.47-1.088-.164-.742z" fill="#ddb59f"/><ellipse cx="453.591" cy="392.402" rx=".199" ry=".184" fill="#ddb59f"/><ellipse cx="469.969" cy="394.142" rx=".2" ry=".186" fill="#ddb59f"/><ellipse cx="467.575" cy="393.406" rx=".2" ry=".185" fill="#ddb59f"/><ellipse cx="470.285" cy="392.604" rx=".201" ry=".184" fill="#ddb59f"/><ellipse cx="465.409" cy="392.633" rx=".201" ry=".185" fill="#ddb59f"/><ellipse cx="467.836" cy="390.797" rx=".2" ry=".185" fill="#ddb59f"/><ellipse cx="451.534" cy="392.931" rx=".2" ry=".184" fill="#ddb59f"/><ellipse cx="449.987" cy="392.821" rx=".2" ry=".184" fill="#ddb59f"/><ellipse cx="459.096" cy="391.391" rx=".2" ry=".185" fill="#ddb59f"/><path d="M461.54 389.91c0 .1-.09.183-.2.183-.114 0-.203-.08-.204-.18 0-.104.088-.186.2-.187.112 0 .203.082.203.184z" fill="#ddb59f"/><ellipse cx="463.929" cy="387.693" rx=".2" ry=".184" fill="#ddb59f"/><ellipse cx="458.579" cy="389.285" rx=".2" ry=".183" fill="#ddb59f"/><path d="M453.298 390.612c0 .1-.087.186-.2.186-.107 0-.2-.083-.2-.183 0-.102.09-.184.197-.185.113 0 .202.08.203.182z" fill="#ddb59f"/><ellipse cx="446.574" cy="392.799" rx=".2" ry=".183" fill="#ddb59f"/><path d="M483.015 385.98c-3.38-.038-12.222.645-14.727-9.95 0 0-3.085 7.78-15.735 9.74 0 0 3.045-1.896 5.216-7.44 0 0-1.846 5.526-8.47 7.516 0 0 3.955-3.772 4.52-7.146 0 0-2.045 6.87-12.184 6.452 0 0 5.67-1.748 5.94-5.39 0 0-3.172 6.285-12.31 5.665-9.13-.622-9.566-5.378-9.566-5.378s2.514 1.602 5.888-.307c0 0 1.3-28.63 37.433-20.345 0 0 20.895 1.342 15.917 24.988-.088.413-.23.83-.437 1.223-.446.842-.572.38-1.485.37z" fill="#a77800"/><path d="M448.055 390.856c-.743.183-1.507-.22-1.705-.902-.2-.682.245-1.38.987-1.562.745-.182 1.508.223 1.705.905.197.678-.244 1.378-.987 1.56z"/><path d="M447.98 390.075c-.122.06-.27.02-.336-.09-.065-.107-.02-.245.1-.304.116-.057.266-.017.33.09.065.11.024.247-.095.306z" fill="#fff"/><path d="M470.13 390.856c-.745.183-1.508-.22-1.706-.902-.2-.682.244-1.38.986-1.562.745-.182 1.507.223 1.705.905.198.678-.244 1.378-.986 1.56z"/><path d="M470.052 390.075c-.12.06-.27.02-.334-.09-.064-.107-.022-.245.097-.304.118-.057.27-.017.333.09.065.11.022.247-.096.306z" fill="#fff"/><path d="M489.526 460.51c-.34-.453-.503-.9-.583-1.305 1.252-.158 2.24-.188 2.24-.188l2.207-15.233 7.304.262s-2.01 12.122-3.652 17.353c-2.088.104-6.696.204-7.516-.89zM515.8 462.258c-.574-.168-1-.424-1.336-.7.882-.828 1.635-1.41 1.635-1.41l-8.51-13.246 5.932-3.912s6.567 10.677 8.793 15.73c-1.57 1.257-5.13 3.935-6.516 3.538zM493.16 417.347l-14.93 1.874s1.668 4.447.09 3.766c-1.58-.683-1.89-1.938-1.89-1.938s-2.23 3.948-3.49 2.592c-1.258-1.357 1.07-3.47 1.07-3.47s-3.592 1.913-4.43.366c-.834-1.547 2.23-2.596 2.23-2.596s-2.85.278-2.844-1.266c.008-1.546 2.64-.858 2.64-.858s-.414-1.547.33-2.606c.685-.98 2.26.022 3.49 1.25.1.102.2.203.295.308 1.264 1.36 13.198-3.52 13.198-3.52l4.242 6.1z" fill="#ffd8c5"/><path d="M503.81 408.098l-18.382 3.096 3.116 7.288 5.443-1.27-1.29 17.73 26.576-6.137-.634-12.165 5.74 3.235 2.627-7.27s-17.934-4.894-23.2-4.507z" fill="#a6cdec"/><path d="M503.152 404.244l-.53 5.598s.89 2.537 3.903 2.497c3.01-.043 4.374-1.83 4.374-1.83l-.21-5.906-7.54-.36z" fill="#ffd8c5"/><path d="M493.634 420.44l-2.998 32.105 10.063 1.294 4.27-12.02 7.553 13.474 7.378-2.448s-.167-16.2-.12-18.658c.05-2.458-.6-12.342-.6-12.342l-25.547-1.408z" fill="#386a93"/><path d="M513.724 409.87s-.74.696-1.144 3.185c-.403 2.49-.153 9.656-.153 9.656l2.927.317s1.192-12.313.816-12.925c-.377-.61-1.7-.47-2.446-.23zM497.428 408.57s-.738.697-1.14 3.186c-.405 2.49-.157 9.656-.157 9.656l2.93.315s1.194-12.314.818-12.926c-.378-.61-1.702-.47-2.45-.23z" fill="#bfa4ac"/><path d="M486.774 383.025s1.168-13.835 15.067-20.893c11.23-5.696 22.986.535 32.51 8.27 0 0 7.83.14 5.71 14.035-2.12 13.893-9.295 15.42-9.295 15.42s-25.98-11.463-26.84-11.73c-.858-.268-16.913 1.197-17.15-5.102z" fill="#5a3d1b"/><path d="M518.15 371.924c-6.784-.973-24.077-3.752-30.513 10.582 0 0-4-1.338-4.594 1.545-.6 2.883 3.98 3.437 3.98 3.437S484.9 402.17 505.19 408.87c20.29 6.7 25.26-5.603 25.26-5.603s4.857 2.133 6.604-1.266c1.747-3.4-3.4-4.485-3.4-4.485s8.778-22.105-15.505-25.59z" fill="#ffd8c5"/><path d="M497.67 394.478c-.445 1.02-2.06 1.506-3.6 1.082-1.55-.42-2.438-1.592-1.992-2.612.448-1.026 2.06-1.512 3.603-1.087 1.546.425 2.438 1.597 1.99 2.62zM527.938 401.966c-.45 1.022-2.062 1.51-3.603 1.084-1.546-.42-2.434-1.59-1.992-2.613.45-1.026 2.064-1.512 3.607-1.087 1.54.424 2.432 1.595 1.988 2.616z" fill="#f99da4"/><path d="M511.083 397.005s.106.908-.622 1.14c-.727.235.824.765 1.184-.065.364-.83.132-1.137-.56-1.075z" fill="#ddb59f"/><path d="M487.637 382.505s11.08-3.27 14.365-9.152c0 0 .414 9.798 5.654 12.742 0 0-1.12-3.342-.22-4.833 0 0 4.736 7.654 12.073 9.856 0 0-3.24-3.974-2.533-6.73 0 0 3.463 7.3 11.864 9.41 0 0-1.4-2.705-1.383-3.524 0 0 5.734 4.447 6.194 7.24 0 0 6.82-10.926 1.87-17.52-4.952-6.594-20.576-12.942-25.944-13.03-5.368-.088-22.442 7.174-21.94 15.54z" fill="#5a3d1b"/><path d="M498.616 422.93c-.127.634-.793 1.054-1.484.935-.694-.117-1.15-.727-1.023-1.36.127-.634.792-1.054 1.485-.936.69.115 1.148.725 1.02 1.36zM514.783 423.386c-.128.634-.794 1.052-1.485.935-.692-.115-1.15-.725-1.022-1.36.128-.633.792-1.05 1.486-.933.693.117 1.15.726 1.02 1.36z" fill="#fff"/><path d="M498.933 426.64c.504-.064 15.807.574 15.807.574s-4.697 5.37-9.648 4.68c-4.95-.688-6.16-5.253-6.16-5.253z" fill="#bfa4ac"/><path fill="#56b1d1" d="M502.092 450.65l-11.608-1.785-.477 3.847 11.37 1.472zM519.705 448.884l-9.45 3.333 1.916 3.338 8.84-3.252z"/><path d="M518.887 397.618c-.784.057-1.47-.48-1.53-1.196-.063-.72.527-1.346 1.31-1.402.785-.057 1.468.48 1.53 1.198.06.716-.526 1.345-1.31 1.4z"/><path d="M518.97 396.82c-.133.04-.275-.027-.32-.147-.042-.12.03-.25.16-.29.132-.04.275.027.318.147.044.12-.028.25-.16.29z" fill="#fff"/><path d="M502.307 392.204c-.783.057-1.47-.48-1.53-1.196-.063-.72.525-1.346 1.308-1.402.785-.056 1.47.48 1.53 1.198.06.716-.525 1.345-1.308 1.4z"/><path d="M502.388 391.406c-.132.04-.274-.025-.316-.145-.046-.12.027-.25.16-.29.13-.04.273.027.315.148.044.12-.027.25-.16.29z" fill="#fff"/><path d="M523.584 418.753l11.66 4.194s-2.504 4.102-.816 3.69c1.682-.414 2.232-1.6 2.232-1.6s1.43 4.25 2.934 3.12c1.5-1.13-.38-3.59-.38-3.59s3.163 2.47 4.286 1.084c1.12-1.384-1.686-2.917-1.686-2.917s2.746.738 3.042-.78c.292-1.523-2.43-1.275-2.43-1.275s.71-1.455.183-2.618c-.49-1.075-2.233-.345-3.68.662-.12.08-.24.17-.35.256-1.504 1.127-12.205-6.11-12.205-6.11l-2.792 5.885z" fill="#ffd8c5"/><path d="M503.897 399.2s1.95 5.068 10.413 3.884c0 0-9.03 5.396-10.413-3.885z" fill="#d84853"/><path d="M391.955 438.764l1.936 13.767s-5.832 1.47-6.214 2.81c-.385 1.34-.563 3.07 1.21 2.823 1.77-.253 11.856.03 12.056-2.18.2-2.214-1.432-14.58-1.69-15.374-.253-.796.437-3.74.437-3.74s-8.115.084-7.733 1.895z" fill="#f7cfb3"/><path d="M387.675 455.34c-.385 1.34-.563 3.07 1.21 2.822 1.77-.253 11.856.03 12.056-2.18.043-.49-.004-1.492-.104-2.74-1.797.384-5.052 1.032-7.02 1.172-1.883.134-2.79-.454-3.19-.864-1.404.52-2.77 1.167-2.95 1.79zM392.165 452.784l-.582.274 3.332 2.23.687-.33z" fill="#1f0004"/><path d="M412.855 438.265L409.05 451.7s5.588 2.127 5.785 3.5c.197 1.375.137 3.113-1.588 2.66-1.722-.452-11.768-1.33-11.66-3.546.106-2.218 3.415-14.3 3.78-15.057.358-.76.076-3.763.076-3.763s8.04 1.02 7.412 2.77z" fill="#f7cfb3"/><path d="M414.835 455.2c.197 1.375.137 3.113-1.588 2.66-1.722-.452-11.768-1.33-11.66-3.546.02-.492.207-1.48.478-2.708 1.73.588 4.87 1.606 6.805 1.97 1.847.347 2.827-.13 3.283-.493 1.32.68 2.59 1.478 2.682 2.118zM410.728 452.147l.54.34-3.61 1.83-.635-.407z" fill="#1f0004"/><path d="M393.225 410.55s-7-.124-9.686-.502c-2.684-.378-10.75-1.79-10.75-1.79s-3.22-1.614-3.92-2.053c-.706-.447-2.13-1.013-2.364-.462-.23.55 1.615 1.506 1.615 1.506s-2.773-1.107-3.1-.315c-.346.79 3.05 1.37 3.05 1.37s-3.044-.653-3.435.27c-.39.915 3.337.9 3.337.9s-3.252.2-2.944.973c.302.762 3.14.04 3.14.04s-1.47 1.42-.794 1.683c.672.275 1.964-.352 2.15-.776 0 0 2.177 1.012 3.313.753 0 0 17.65 5.36 19.558 3.835 1.92-1.532.827-5.435.827-5.435zM411.462 407.755s6.938-.867 9.558-1.53c2.616-.66 10.448-2.92 10.448-2.92s2.996-1.944 3.633-2.457c.648-.517 1.99-1.23 2.294-.706.3.52-1.412 1.666-1.412 1.666s2.614-1.393 3.04-.64c.443.75-2.856 1.684-2.856 1.684s2.94-.973 3.447-.096c.504.868-3.2 1.248-3.2 1.248s3.254-.15 3.044.65c-.203.79-3.11.377-3.11.377s1.637 1.255 1 1.59c-.634.344-1.998-.143-2.234-.543 0 0-2.035 1.236-3.195 1.1 0 0-16.85 7.2-18.94 5.89-2.102-1.317-1.513-5.31-1.513-5.31z" fill="#f7cfb3"/><path d="M411.704 405.46s4.444-3.35 7.98.662c0 0 .43-1.52 1.362-.694.93.827-.234 1.98-.234 1.98s1.843-.308 1.61.88c-.233 1.184-1.234.612-1.234.612s2.23.897 1.743 2.245c-.487 1.35-1.27.812-1.27.812s-5.896 6.315-9.954 2.91c-4.057-3.402 0-9.406 0-9.406zM389.493 417.006s-8.528 1.987-9.566-3.08c0 0-1.168 1.154-1.56.022-.39-1.132 1.23-1.644 1.23-1.644s-1.782-.528-.963-1.472c.818-.942 1.404-.003 1.404-.003s-1.5-1.76-.372-2.737c1.127-.976 1.54-.16 1.54-.16s8.46-3.002 10.27 1.755c1.814 4.754-1.983 7.316-1.983 7.316zM412.257 422.598c.18-3.145-1.053-5.155-.946-8.22.107-3.07 1.168-8.906 1.168-8.906l-9.113-1.862-6.778 1.68-6.294 2.008s-.997 2.084-1.326 4.4c-.253 1.726.715 7.422.318 11.033 3.153.333 15.57.684 22.973-.13z" fill="#5f1100"/><path d="M396.67 404.68s-3.85 3.987-.424 5.524c3.425 1.534 5.268-3.85 5.268-3.85s1.86 5.276 5.17 4.712c3.304-.57.624-7.23-1.707-7.804-2.33-.567-8.306 1.42-8.306 1.42z" fill="#fff"/><path d="M400.54 406.996c2.117-.1 4.327-1.357 4.2-3.454l-1.974-.407-4.15 1.033-.48.15c.135.802.64 2.762 2.404 2.678z" fill="#d89e77"/><path d="M390.29 407.298l-.01.016c.017-.006.036-.025.052-.027l-.04.01z" fill="#e2b291"/><path d="M392.35 406.64l-1.878 15.386c.566.05 1.19.11 1.89.17l2.133-16.236-2.144.68zM408.423 404.643l-1.796 18.22c.657-.002 1.296-.014 1.918-.03l1.89-17.773-2.012-.417zM391.616 412.444s-3.124 15.922-10.558 24.416c0 0 6.647 9.48 26.685 5.218 11.683-2.483 14.657-6.04 14.657-6.04s-13-16.172-13.04-24.184c0 0-1.432 4.138-9.233 3.745-7.233-.365-6.426-3.13-6.426-3.13l-2.083-.027z" fill="#eaa7b6"/><path d="M418.897 387.2c.554 9.744-8.53 18.098-20.283 18.656-11.758.56-22.143-6.897-22.696-16.642-.55-9.745 8.935-18.086 20.693-18.644 11.757-.56 21.736 6.883 22.288 16.63z" fill="#f7cfb3"/><path d="M397.622 394.308s-1.78.904-1.358-.846c0 0-.25-.347-.49.154-.248.503.343 1.55 1.242 1.26.893-.3.606-.568.606-.568z" fill="#d89e77"/><path d="M377.333 394.516s-3.748-9.484 7.874-13.205l6.283-8.92 2.158 5.843 9.64-5.195s13.4 4.19 15.01 11.59l3.37 4.756s5.453-5.59 4.505-13.44c-.954-7.85-4.378-20.888-31.264-19.272l-7.338 1.386s-14.284 4.19-16.3 15.156c-2.016 10.96-1.31 20.077 4.79 23.965l1.27-2.66z" fill="#ba0000"/><path d="M419.473 384.455c-.462.02-.902.125-1.296.293.254.83.406 1.688.457 2.575.054.953-.02 1.882-.204 2.79.424.136.892.206 1.375.186 1.866-.093 3.3-1.47 3.208-3.086-.093-1.612-1.673-2.85-3.54-2.76z" fill="#f7cfb3"/><path d="M420.028 385.81c-.243.012-.478.067-.685.155.133.438.214.89.24 1.36.03.5-.012.99-.107 1.472.225.072.472.11.727.098.984-.048 1.74-.776 1.694-1.627-.05-.85-.884-1.503-1.87-1.458z" fill="#d89e77"/><path d="M376.505 394.577c.374-.245.792-.42 1.214-.514.366.79.832 1.548 1.4 2.27.606.773 1.3 1.454 2.064 2.058-.238.354-.554.676-.945.936-1.516 1-3.578.745-4.61-.566-1.03-1.31-.64-3.184.874-4.183z" fill="#f7cfb3"/><path d="M377 395.952c.2-.13.42-.22.64-.27.195.417.442.817.74 1.197.322.406.687.766 1.09 1.086-.126.185-.292.356-.498.49-.8.528-1.89.396-2.434-.296-.543-.692-.336-1.68.463-2.208z" fill="#d89e77"/><path d="M390.523 397.834c.113 1.99-1.556 3.688-3.73 3.79-2.173.103-4.025-1.426-4.137-3.414-.113-1.99 1.557-3.69 3.728-3.79 2.174-.105 4.026 1.426 4.14 3.414zM417.14 391.245c.11 1.99-1.56 3.686-3.73 3.792-2.173.102-4.025-1.428-4.14-3.416-.114-1.99 1.556-3.685 3.73-3.79 2.172-.102 4.025 1.426 4.14 3.416z" fill="#fba6ad"/><path d="M390 390.257c-.123.648-.793 1.08-1.5.968-.708-.11-1.178-.728-1.058-1.372.124-.648.795-1.08 1.5-.97.704.114 1.18.73 1.057 1.374z"/><path d="M388.83 390.18c.01.116-.086.216-.212.224-.127.008-.235-.08-.244-.195-.008-.117.087-.217.212-.225.126-.008.236.08.244.195z" fill="#fff"/><path d="M409.56 386.55c-.123.646-.796 1.08-1.502.968-.71-.11-1.18-.73-1.058-1.376.12-.648.795-1.082 1.5-.97.706.113 1.182.73 1.06 1.377z"/><path d="M408.805 386.303c.01.115-.085.216-.21.223-.127.01-.237-.08-.246-.195-.01-.113.085-.213.21-.22.126-.008.237.08.244.194z" fill="#fff"/><path fill="#ba0000" d="M358.504 385.743l-.138 6.355 1.923.833-.86 2.886 3.197 4.266 8.596-9.274.167-1.55zM438.865 381.87l-1.264 6.252-2.204.458.265 2.987-4.31 3.586-6.98-10.687.166-1.55z"/><path d="M369.288 389.048c.397-.766 1.642-1.058 1.642-1.058l.854 2.87.626.26c-.11.074-1.162.086-1.24.184-1.6.05-1.882-2.256-1.882-2.256zM427.498 382.843c-.486-.728-1.753-.9-1.753-.9l-1.12 3.255c.117.063.218.144.307.23 1.598-.102 2.566-2.585 2.566-2.585z" fill="#cdc46b"/><path d="M385.335 387.21s1.545-1.604 3.056-1.178c1.51.427.39.375.39.375l-3.444.802zM409.4 383.777s-2.077-1.012-3.366-.126c-1.29.89-.235.48-.235.48l3.6-.352z" fill="#ba0000"/><path d="M395.5 398.496l9.334-2.864s-2.06 7.244-9.225 3.325" fill="#d84853"/><path d="M272.47 365.664c.002-3.252-1.584-6.28-4.874-8.127-1.285.897-.13 3.405.777 4.447-1.662-1.215-4.06-2.935-6.44-2.584-.48 1.9 1.42 4.295 3.194 5.27-3.103-1.298-7.816-.586-4.256 2.52 2.37 2.06 6.31 2.717 9.43 2.076" fill="#dfa000"/><path d="M322.047 382.178s1.597-13.814-10.684-23.077c-9.92-7.473-22.73-3.3-33.642 2.728 0 0-7.734-1.165-8.41 12.866-.673 14.03 6.09 16.728 6.09 16.728s27.85-6.955 28.75-7.075c.9-.123 16.414 3.995 17.898-2.167z" fill="#dfa000"/><path d="M304.734 458.356c.424-.388.673-.8.833-1.187-1.2-.363-2.167-.56-2.167-.56l.854-15.363-7.244-.958s-.428 12.264.15 17.69c2.032.45 6.55 1.315 7.574.375zM278.522 455.7c.597-.07 1.068-.253 1.453-.466-.7-.965-1.328-1.66-1.328-1.66l11.005-11.62-5.062-4.843s-8.585 9.42-11.78 14.02c1.298 1.5 4.272 4.73 5.712 4.57z" fill="#ffd8c5"/><path d="M281.084 460.634c1.728-.92.184-3.618-1.11-5.4-.383.213-.855.397-1.452.465-1.44.16-4.414-3.07-5.713-4.57-.778 1.113-1.236 1.95-1.176 2.294.3 1.768 6.787 8.627 9.45 7.21zM309.59 460.232c.795-1.68-2.197-3.01-4.393-3.742-.17.382-.432.786-.867 1.164-1.056.916-5.543-.067-7.56-.566.1 1.317.27 2.24.543 2.485 1.39 1.26 11.056 3.246 12.278.66z" fill="#3f0009"/><path d="M278.84 411.18l-12.308 2.184s1.65 4.457.07 3.77c-1.574-.69-1.88-1.946-1.88-1.946s-2.252 3.944-3.506 2.582c-1.253-1.362 1.086-3.47 1.086-3.47s-3.605 1.905-4.434.353c-.828-1.55 2.24-2.593 2.24-2.593s-2.85.267-2.84-1.275c.015-1.546 2.645-.85 2.645-.85s-.41-1.55.34-2.608c.692-.978 2.264.033 3.49 1.265.1.1.198.206.293.31 1.255 1.362 13.226-3.982 13.226-3.982l1.58 6.26zM308.945 414.9l14.322 4.332s-2.523 4.098-.833 3.69c1.69-.408 2.245-1.593 2.245-1.593s1.41 4.257 2.92 3.133c1.506-1.128-.368-3.595-.368-3.595s3.158 2.483 4.29 1.1c1.127-1.385-1.678-2.928-1.678-2.928s2.747.748 3.048-.773c.298-1.525-2.43-1.286-2.43-1.286s.716-1.454.195-2.62c-.48-1.077-2.23-.352-3.684.65-.12.085-.24.168-.352.255-1.51 1.128-12.29-5.662-12.29-5.662l-5.386 5.295z" fill="#ffd8c5"/><path d="M305.917 405.152l12.676 5.98-5.43 6.287-4.575-2.62s-2.568 12.57.006 20.423c2.577 7.855 8.01 10.735 4.006 11.522-4.003.785-6.86 1.308-9.148-1.572-2.287-2.878-5.43 4.192-8.29 1.837-2.862-2.355-7.72 1.31-10.58-.782-2.86-2.094-8.29 1.31-10.007-1.307-1.714-2.616 10.853-35.874 10.853-35.874l-7.718 3.145-1.144-7.593s11.737-3.774 29.35.556z" fill="#bf417d"/><path d="M301.71 400.337l-.59 5.6s-1.38 2.348-4.34 1.808c-2.956-.543-3.942-2.53-3.942-2.53l1.38-5.776 7.493.896zM321.3 381.523s4.205-.65 4.217 2.285c.016 2.938-4.603 2.72-4.603 2.72s-.823 14.808-22.13 18.024c-21.303 3.215-23.753-9.724-23.753-9.724s-5.202 1.29-6.246-2.348c-1.043-3.638 4.24-3.848 4.24-3.848s7.017-7.665 8.086-14.696c0 0 31.546 13.122 40.19 7.587z" fill="#ffd8c5"/><path d="M309.036 391.473c.16 1 1.18 1.695 2.273 1.546 1.094-.147 1.852-1.08 1.69-2.08-.16-1.007-1.18-1.7-2.273-1.55-1.095.15-1.853 1.08-1.692 2.082zM279.377 394.762c.174 1.063 1.253 1.8 2.412 1.64 1.16-.152 1.96-1.14 1.792-2.203-.173-1.07-1.253-1.803-2.413-1.646-1.16.16-1.963 1.147-1.794 2.207z" fill="#f99da4"/><path fill="#bf417d" d="M271.27 367.313l-1.473 9.014-8.68-6.166 9.078-3.483 2.718-9.767 7.054 6.88z"/><path d="M295.474 390.672s-.415.916.562 1.28c.978.37-1.4.646-1.675-.27-.282-.918.14-1.193 1.115-1.01z" fill="#ddb59f"/><path d="M310.814 386.03c-.162.88-1.072 1.47-2.028 1.32-.962-.146-1.605-.983-1.44-1.86.162-.88 1.07-1.467 2.03-1.317.955.148 1.602.982 1.438 1.858z"/><ellipse transform="matrix(.998 -.067 .067 .998 -25.088 21.547)" cx="309.484" cy="385.723" rx=".311" ry=".285" fill="#fff"/><path d="M283.1 388.846c-.16.88-1.072 1.47-2.03 1.32-.96-.147-1.603-.985-1.44-1.86.163-.88 1.072-1.468 2.03-1.32.956.15 1.604.983 1.44 1.86z"/><path d="M282.078 388.516c.013.158-.116.293-.286.305-.17.01-.32-.105-.332-.262-.01-.156.117-.293.288-.303.17-.01.318.106.33.262z" fill="#fff"/><path d="M291.17 397.284s7.66 2.284 10.603-2.515c0 0-2.162 10.205-10.603 2.513z" fill="#d84853"/><path d="M329.906 408.926l.2 7.134c.435-.008.98-.02 1.577-.033l-.2-7.132-1.577.03z" fill="#a51111"/><path d="M355.794 431.784s.13 3.25-.132 5.778c-.264 2.527-1.84 15.648-1.84 15.648s.357 1.247-.7 1.472c-1.055.227-9.157 2.138-9.552-.03-.394-2.165.263-18.416-.394-18.416-.658 0-1.183-.12-1.183-.12s-12.436 13.944-13.405 14.563c-1.315.842-9.07-4.817-7.36-6.86 1.707-2.05 9.462-14.325 10.907-15.29 1.446-.96 23.66 3.253 23.66 3.253z" fill="#530909"/><path d="M344.16 454.624" fill="#910909"/><path d="M354.085 409.127s8.04-1.72 10.973-2.408c2.933-.693 11.895-3.13 11.895-3.13s3.43-1.573 4.156-2.136c.722-.56 2.23-1.333 2.555-.745.324.584-1.61 1.83-1.61 1.83s2.938-1.508 3.41-.66c.47.845-3.225 1.822-3.225 1.822s3.302-1.026 3.844-.047c.542.978-3.588 1.34-3.588 1.34s3.628-.103 3.382.778c-.25.882-3.48.363-3.48.363s1.8 1.422 1.082 1.79c-.717.37-1.803-.393-2.058-.85 0 0-.722 1.807-3.612 1.146 0 0-19.326 7.94-21.63 6.442-2.306-1.497-2.095-5.538-2.095-5.538zM336.63 409.337s-8.256-.156-11.28-.275c-3.026-.12-12.344-.805-12.344-.805s-3.713-.887-4.547-1.3c-.838-.408-2.487-.88-2.67-.245-.188.635 1.985 1.487 1.985 1.487s-3.216-.92-3.483 0c-.27.916 3.566 1.17 3.566 1.17s-3.46-.376-3.77.685c-.31 1.06 3.812.628 3.812.628s-3.573.59-3.13 1.404c.442.815 3.49-.305 3.49-.305s-1.44 1.733-.657 1.956c.785.224 1.675-.727 1.82-1.22 0 0 1.115 1.628 3.794.43 0 0 20.7 4.106 22.615 2.204 1.916-1.903.794-5.817.794-5.817z" fill="#fcdfcd"/><path d="M345.084 407.14s-3.215-.464-3.195 1.59c.016 2.05 4.963 4.308 7.014.177 0 0-1.35 2.897 2.443 2.755 3.795-.143 2.644-6.077 2.52-6.51-.128-.43-8.784 1.987-8.784 1.987z" fill="#fff"/><path d="M355.89 408.583s-11.135-1.444-18.333.092l-6.8 21.034 25.826 2.796-.692-23.924z" fill="#83c1ff"/><path d="M344.807 405.496s-.744 4.203 2.95 4.407c3.694.206 4.743-3.978 4.743-3.978s-7.012-1.382-7.693-.43z" fill="#fcdfcd"/><path d="M337.952 408.763l-8.872.18v7.133s7.098-.09 8.477-.36c1.38-.272.395-6.953.395-6.953zM354.314 415.986l.592-7.223 6.507-1.534 1.675 6.86z" fill="#83c1ff"/><path d="M347.807 412.73c3.618.422 5.57-2.416 6.46-4.326-.472-.047-1.035-.097-1.67-.147-.788 1.493-2.243 3.313-4.59 3.04-2.904-.338-3.876-2.26-4.19-3.296-.54.02-1.078.046-1.614.08.405 1.69 1.916 4.22 5.604 4.65z" fill="#a51111"/><path d="M323.146 390.07s-3.297-1.57-4.087 1.208c-.795 2.778 3.03 4.59 4.35 4.59 0 0 3.58 13.62 27.69 12.194 16.35-.966 17.93-15.336 17.93-15.336s4.617 0 4.617-2.293c0-2.294-4.087-2.415-4.087-2.415s-3.034-.12-5.142-2.777c-2.11-2.654-3.824-6.64-3.824-6.64s-13.2-16.635-37.448 11.47z" fill="#fcdfcd"/><path d="M332.942 397.727c-.23 1.416-1.67 2.4-3.22 2.19-1.55-.204-2.624-1.525-2.395-2.944.226-1.424 1.668-2.407 3.22-2.197 1.547.21 2.62 1.53 2.395 2.95zM365.156 398.973c-.23 1.417-1.67 2.4-3.22 2.19-1.548-.204-2.625-1.523-2.395-2.942.23-1.422 1.673-2.405 3.224-2.194 1.546.21 2.62 1.53 2.393 2.948zM343.847 400.667s7.813 1.486 9.024 1.46c0 0-.22 3.684-6.055 2.82-5.833-.862-2.967-4.28-2.967-4.28z" fill="#f89fa8"/><path d="M350.64 395.505s-.198 1.63-1.057 1.51c-.857-.123-.79.422.198.362.99-.062 1.98-1.328 1.65-1.69-.33-.363-.858-.846-.79-.182zM341.605 396.41c0 .102-.087.182-.197.182-.112 0-.197-.08-.197-.182 0-.1.087-.18.2-.18.11 0 .196.08.196.18zM357.76 398.22c0 .102-.09.185-.2.185-.11 0-.196-.083-.196-.184 0-.097.086-.177.196-.177.11 0 .2.08.2.18z" fill="#ddb59f"/><ellipse cx="355.204" cy="397.481" rx=".197" ry=".182" fill="#ddb59f"/><path d="M358.082 396.705c0 .102-.087.182-.2.182-.108 0-.197-.08-.197-.182 0-.1.09-.18.197-.18.113 0 .2.08.2.18z" fill="#ddb59f"/><ellipse cx="353.072" cy="396.705" rx=".197" ry=".182" fill="#ddb59f"/><ellipse cx="355.479" cy="394.907" rx=".197" ry=".182" fill="#ddb59f"/><ellipse cx="339.373" cy="396.921" rx=".196" ry=".179" fill="#ddb59f"/><path d="M338.046 396.803c0 .1-.09.18-.198.18-.113 0-.2-.08-.2-.18 0-.102.088-.18.2-.18.11 0 .198.078.198.18zM347.045 395.443c0 .1-.088.182-.2.182-.108 0-.195-.08-.195-.182 0-.097.087-.18.195-.18.113 0 .2.083.2.18z" fill="#ddb59f"/><ellipse cx="349.072" cy="393.996" rx=".199" ry=".181" fill="#ddb59f"/><ellipse cx="351.645" cy="391.82" rx=".198" ry=".182" fill="#ddb59f"/><ellipse cx="346.353" cy="393.362" rx=".198" ry=".179" fill="#ddb59f"/><path d="M341.13 394.642c0 .1-.087.18-.2.18-.106 0-.195-.08-.195-.18 0-.102.09-.182.196-.182.114 0 .2.08.2.182z" fill="#ddb59f"/><ellipse cx="334.48" cy="396.761" rx=".198" ry=".179" fill="#ddb59f"/><path d="M324.137 389.744c3.033-.057 6.65 3.17 8.834-7.3 0 0 7.15 5.058 18.525 6.92 0 0-2.746-1.854-4.733-7.31 0 0 1.692 5.44 7.655 7.367 0 0-3.575-3.7-4.105-7.026 0 0 1.88 6.77 10.98 6.298 0 0-5.1-1.693-5.366-5.285 0 0 2.89 6.186 11.09 5.522 8.2-.668 7.703-4.074 7.703-4.074s.863-2.44-2.18-4.305c0 0-3.6-25.502-36-17.12 0 0-18.757 1.448-14.14 24.756.08.408.213.818.4 1.205.41.828.52.37 1.34.355zM359.428 393.53c-.234.513-.877.756-1.44.543-.562-.214-.828-.804-.594-1.32.233-.513.876-.755 1.44-.543.56.212.83.804.594 1.32z"/><ellipse cx="358.584" cy="393.182" rx=".117" ry=".107" fill="#fff"/><path d="M339.29 392.578c-.255.568-.968.838-1.586.602-.618-.237-.914-.888-.656-1.456.26-.567.97-.835 1.588-.6.62.233.916.888.655 1.454z"/><ellipse cx="338.363" cy="392.196" rx=".129" ry=".12" fill="#fff"/><path d="M334.42 389.062c-1.136.8-1.777 1.88-1.793 3.04-.042 2.38 2.564 4.356 5.81 4.4 3.245.047 5.918-1.85 5.96-4.23.02-1.16-.58-2.26-1.693-3.092-1.092-.82-2.555-1.287-4.12-1.308-1.563-.02-3.04.4-4.164 1.19zm-1.372 3.048c.016-1.04.594-2.01 1.627-2.737 1.047-.736 2.432-1.13 3.9-1.11 1.47.022 2.842.457 3.864 1.222 1.003.755 1.55 1.743 1.53 2.78-.037 2.165-2.52 3.892-5.53 3.85-3.01-.046-5.43-1.84-5.393-4.005zM354.382 389.633c-1.166.8-1.82 1.88-1.84 3.042-.042 2.38 2.635 4.353 5.966 4.402 3.33.048 6.074-1.85 6.114-4.228.02-1.165-.596-2.263-1.737-3.095-1.124-.823-2.626-1.285-4.23-1.31-1.605-.024-3.123.398-4.273 1.187zm-1.408 3.048c.016-1.037.612-2.01 1.67-2.734 1.076-.735 2.498-1.13 4.006-1.108 1.507.02 2.914.456 3.963 1.223 1.035.756 1.595 1.743 1.575 2.78-.035 2.168-2.582 3.893-5.673 3.847-3.09-.044-5.58-1.84-5.54-4.005zM344.02 392.108l.27.323c.025-.01 2.87-1.183 8.517.59l-.182-.526c-5.91-1.856-8.495-.448-8.604-.385z" fill="#4c6c89"/><path d="M343.57 454.653l-.426 5.348h13.44s3.467-4.5-3.462-5.317l-10.92.353M321.227 443.82s-3.49-2.61-6.517 0l-1.214 1.216 11.935 9.492 3.16-3.847-8.075-5.643" fill="#e8ded9"/></g></svg>